<?xml version="1.0" encoding="utf-8"?>
<svg xmlns="http://www.w3.org/2000/svg" xmlns:xlink="http://www.w3.org/1999/xlink" width="672" height="480" viewBox="0 0 2688 1920">
<defs>
  <clipPath id="clip060">
    <rect x="0" y="0" width="2688" height="1920"/>
  </clipPath>
</defs>
<path clip-path="url(#clip060)" d="M0 1920 L2688 1920 L2688 -4.26326e-14 L0 -4.26326e-14  Z" fill="#ffffff" fill-rule="evenodd" fill-opacity="1"/>
<defs>
  <clipPath id="clip061">
    <rect x="240" y="127" width="2401" height="1607"/>
  </clipPath>
</defs>
<path clip-path="url(#clip060)" d="M240.4 1734.12 L2640.76 1734.12 L2640.76 127.792 L240.4 127.792  Z" fill="#ffffff" fill-rule="evenodd" fill-opacity="1"/>
<polyline clip-path="url(#clip061)" style="stroke:#000000; stroke-linecap:round; stroke-linejoin:round; stroke-width:2; stroke-opacity:0.1; fill:none" points="308.334,1734.12 308.334,127.792 "/>
<polyline clip-path="url(#clip061)" style="stroke:#000000; stroke-linecap:round; stroke-linejoin:round; stroke-width:2; stroke-opacity:0.1; fill:none" points="1063.16,1734.12 1063.16,127.792 "/>
<polyline clip-path="url(#clip061)" style="stroke:#000000; stroke-linecap:round; stroke-linejoin:round; stroke-width:2; stroke-opacity:0.1; fill:none" points="1817.99,1734.12 1817.99,127.792 "/>
<polyline clip-path="url(#clip061)" style="stroke:#000000; stroke-linecap:round; stroke-linejoin:round; stroke-width:2; stroke-opacity:0.1; fill:none" points="2572.82,1734.12 2572.82,127.792 "/>
<polyline clip-path="url(#clip061)" style="stroke:#000000; stroke-linecap:round; stroke-linejoin:round; stroke-width:2; stroke-opacity:0.1; fill:none" points="240.4,1696.31 2640.76,1696.31 "/>
<polyline clip-path="url(#clip061)" style="stroke:#000000; stroke-linecap:round; stroke-linejoin:round; stroke-width:2; stroke-opacity:0.1; fill:none" points="240.4,1313.63 2640.76,1313.63 "/>
<polyline clip-path="url(#clip061)" style="stroke:#000000; stroke-linecap:round; stroke-linejoin:round; stroke-width:2; stroke-opacity:0.1; fill:none" points="240.4,930.955 2640.76,930.955 "/>
<polyline clip-path="url(#clip061)" style="stroke:#000000; stroke-linecap:round; stroke-linejoin:round; stroke-width:2; stroke-opacity:0.1; fill:none" points="240.4,548.278 2640.76,548.278 "/>
<polyline clip-path="url(#clip061)" style="stroke:#000000; stroke-linecap:round; stroke-linejoin:round; stroke-width:2; stroke-opacity:0.1; fill:none" points="240.4,165.601 2640.76,165.601 "/>
<polyline clip-path="url(#clip060)" style="stroke:#000000; stroke-linecap:round; stroke-linejoin:round; stroke-width:4; stroke-opacity:1; fill:none" points="240.4,1734.12 2640.76,1734.12 "/>
<polyline clip-path="url(#clip060)" style="stroke:#000000; stroke-linecap:round; stroke-linejoin:round; stroke-width:4; stroke-opacity:1; fill:none" points="308.334,1734.12 308.334,1715.22 "/>
<polyline clip-path="url(#clip060)" style="stroke:#000000; stroke-linecap:round; stroke-linejoin:round; stroke-width:4; stroke-opacity:1; fill:none" points="1063.16,1734.12 1063.16,1715.22 "/>
<polyline clip-path="url(#clip060)" style="stroke:#000000; stroke-linecap:round; stroke-linejoin:round; stroke-width:4; stroke-opacity:1; fill:none" points="1817.99,1734.12 1817.99,1715.22 "/>
<polyline clip-path="url(#clip060)" style="stroke:#000000; stroke-linecap:round; stroke-linejoin:round; stroke-width:4; stroke-opacity:1; fill:none" points="2572.82,1734.12 2572.82,1715.22 "/>
<path clip-path="url(#clip060)" d="M308.334 1767.34 Q304.723 1767.34 302.895 1770.9 Q301.089 1774.45 301.089 1781.58 Q301.089 1788.68 302.895 1792.25 Q304.723 1795.79 308.334 1795.79 Q311.969 1795.79 313.774 1792.25 Q315.603 1788.68 315.603 1781.58 Q315.603 1774.45 313.774 1770.9 Q311.969 1767.34 308.334 1767.34 M308.334 1763.64 Q314.144 1763.64 317.2 1768.24 Q320.279 1772.83 320.279 1781.58 Q320.279 1790.3 317.2 1794.91 Q314.144 1799.49 308.334 1799.49 Q302.524 1799.49 299.446 1794.91 Q296.39 1790.3 296.39 1781.58 Q296.39 1772.83 299.446 1768.24 Q302.524 1763.64 308.334 1763.64 Z" fill="#000000" fill-rule="nonzero" fill-opacity="1" /><path clip-path="url(#clip060)" d="M1037.86 1764.26 L1056.22 1764.26 L1056.22 1768.2 L1042.14 1768.2 L1042.14 1776.67 Q1043.16 1776.32 1044.18 1776.16 Q1045.2 1775.97 1046.22 1775.97 Q1052.01 1775.97 1055.39 1779.15 Q1058.77 1782.32 1058.77 1787.73 Q1058.77 1793.31 1055.29 1796.41 Q1051.82 1799.49 1045.5 1799.49 Q1043.33 1799.49 1041.06 1799.12 Q1038.81 1798.75 1036.4 1798.01 L1036.4 1793.31 Q1038.49 1794.45 1040.71 1795 Q1042.93 1795.56 1045.41 1795.56 Q1049.41 1795.56 1051.75 1793.45 Q1054.09 1791.34 1054.09 1787.73 Q1054.09 1784.12 1051.75 1782.02 Q1049.41 1779.91 1045.41 1779.91 Q1043.53 1779.91 1041.66 1780.33 Q1039.81 1780.74 1037.86 1781.62 L1037.86 1764.26 Z" fill="#000000" fill-rule="nonzero" fill-opacity="1" /><path clip-path="url(#clip060)" d="M1077.98 1767.34 Q1074.37 1767.34 1072.54 1770.9 Q1070.73 1774.45 1070.73 1781.58 Q1070.73 1788.68 1072.54 1792.25 Q1074.37 1795.79 1077.98 1795.79 Q1081.61 1795.79 1083.42 1792.25 Q1085.25 1788.68 1085.25 1781.58 Q1085.25 1774.45 1083.42 1770.9 Q1081.61 1767.34 1077.98 1767.34 M1077.98 1763.64 Q1083.79 1763.64 1086.84 1768.24 Q1089.92 1772.83 1089.92 1781.58 Q1089.92 1790.3 1086.84 1794.91 Q1083.79 1799.49 1077.98 1799.49 Q1072.17 1799.49 1069.09 1794.91 Q1066.03 1790.3 1066.03 1781.58 Q1066.03 1772.83 1069.09 1768.24 Q1072.17 1763.64 1077.98 1763.64 Z" fill="#000000" fill-rule="nonzero" fill-opacity="1" /><path clip-path="url(#clip060)" d="M1777.6 1794.89 L1785.24 1794.89 L1785.24 1768.52 L1776.93 1770.19 L1776.93 1765.93 L1785.19 1764.26 L1789.87 1764.26 L1789.87 1794.89 L1797.51 1794.89 L1797.51 1798.82 L1777.6 1798.82 L1777.6 1794.89 Z" fill="#000000" fill-rule="nonzero" fill-opacity="1" /><path clip-path="url(#clip060)" d="M1816.95 1767.34 Q1813.34 1767.34 1811.51 1770.9 Q1809.71 1774.45 1809.71 1781.58 Q1809.71 1788.68 1811.51 1792.25 Q1813.34 1795.79 1816.95 1795.79 Q1820.58 1795.79 1822.39 1792.25 Q1824.22 1788.68 1824.22 1781.58 Q1824.22 1774.45 1822.39 1770.9 Q1820.58 1767.34 1816.95 1767.34 M1816.95 1763.64 Q1822.76 1763.64 1825.82 1768.24 Q1828.9 1772.83 1828.9 1781.58 Q1828.9 1790.3 1825.82 1794.91 Q1822.76 1799.49 1816.95 1799.49 Q1811.14 1799.49 1808.06 1794.91 Q1805.01 1790.3 1805.01 1781.58 Q1805.01 1772.83 1808.06 1768.24 Q1811.14 1763.64 1816.95 1763.64 Z" fill="#000000" fill-rule="nonzero" fill-opacity="1" /><path clip-path="url(#clip060)" d="M1847.11 1767.34 Q1843.5 1767.34 1841.67 1770.9 Q1839.87 1774.45 1839.87 1781.58 Q1839.87 1788.68 1841.67 1792.25 Q1843.5 1795.79 1847.11 1795.79 Q1850.75 1795.79 1852.55 1792.25 Q1854.38 1788.68 1854.38 1781.58 Q1854.38 1774.45 1852.55 1770.9 Q1850.75 1767.34 1847.11 1767.34 M1847.11 1763.64 Q1852.92 1763.64 1855.98 1768.24 Q1859.06 1772.83 1859.06 1781.58 Q1859.06 1790.3 1855.98 1794.91 Q1852.92 1799.49 1847.11 1799.49 Q1841.3 1799.49 1838.22 1794.91 Q1835.17 1790.3 1835.17 1781.58 Q1835.17 1772.83 1838.22 1768.24 Q1841.3 1763.64 1847.11 1763.64 Z" fill="#000000" fill-rule="nonzero" fill-opacity="1" /><path clip-path="url(#clip060)" d="M2532.43 1794.89 L2540.07 1794.89 L2540.07 1768.52 L2531.76 1770.19 L2531.76 1765.93 L2540.02 1764.26 L2544.7 1764.26 L2544.7 1794.89 L2552.34 1794.89 L2552.34 1798.82 L2532.43 1798.82 L2532.43 1794.89 Z" fill="#000000" fill-rule="nonzero" fill-opacity="1" /><path clip-path="url(#clip060)" d="M2561.83 1764.26 L2580.18 1764.26 L2580.18 1768.2 L2566.11 1768.2 L2566.11 1776.67 Q2567.13 1776.32 2568.15 1776.16 Q2569.16 1775.97 2570.18 1775.97 Q2575.97 1775.97 2579.35 1779.15 Q2582.73 1782.32 2582.73 1787.73 Q2582.73 1793.31 2579.26 1796.41 Q2575.78 1799.49 2569.46 1799.49 Q2567.29 1799.49 2565.02 1799.12 Q2562.78 1798.75 2560.37 1798.01 L2560.37 1793.31 Q2562.45 1794.45 2564.67 1795 Q2566.9 1795.56 2569.37 1795.56 Q2573.38 1795.56 2575.71 1793.45 Q2578.05 1791.34 2578.05 1787.73 Q2578.05 1784.12 2575.71 1782.02 Q2573.38 1779.91 2569.37 1779.91 Q2567.5 1779.91 2565.62 1780.33 Q2563.77 1780.74 2561.83 1781.62 L2561.83 1764.26 Z" fill="#000000" fill-rule="nonzero" fill-opacity="1" /><path clip-path="url(#clip060)" d="M2601.94 1767.34 Q2598.33 1767.34 2596.5 1770.9 Q2594.7 1774.45 2594.7 1781.58 Q2594.7 1788.68 2596.5 1792.25 Q2598.33 1795.79 2601.94 1795.79 Q2605.58 1795.79 2607.38 1792.25 Q2609.21 1788.68 2609.21 1781.58 Q2609.21 1774.45 2607.38 1770.9 Q2605.58 1767.34 2601.94 1767.34 M2601.94 1763.64 Q2607.75 1763.64 2610.81 1768.24 Q2613.89 1772.83 2613.89 1781.58 Q2613.89 1790.3 2610.81 1794.91 Q2607.75 1799.49 2601.94 1799.49 Q2596.13 1799.49 2593.05 1794.91 Q2590 1790.3 2590 1781.58 Q2590 1772.83 2593.05 1768.24 Q2596.13 1763.64 2601.94 1763.64 Z" fill="#000000" fill-rule="nonzero" fill-opacity="1" /><path clip-path="url(#clip060)" d="M1362.45 1835.78 L1402.65 1835.78 L1402.65 1841.19 L1385.79 1841.19 L1385.79 1883.3 L1379.32 1883.3 L1379.32 1841.19 L1362.45 1841.19 L1362.45 1835.78 Z" fill="#000000" fill-rule="nonzero" fill-opacity="1" /><path clip-path="url(#clip060)" d="M1406.6 1847.65 L1412.46 1847.65 L1412.46 1883.3 L1406.6 1883.3 L1406.6 1847.65 M1406.6 1833.78 L1412.46 1833.78 L1412.46 1841.19 L1406.6 1841.19 L1406.6 1833.78 Z" fill="#000000" fill-rule="nonzero" fill-opacity="1" /><path clip-path="url(#clip060)" d="M1452.47 1854.5 Q1454.66 1850.55 1457.72 1848.67 Q1460.77 1846.79 1464.91 1846.79 Q1470.48 1846.79 1473.5 1850.71 Q1476.53 1854.59 1476.53 1861.78 L1476.53 1883.3 L1470.64 1883.3 L1470.64 1861.98 Q1470.64 1856.85 1468.83 1854.37 Q1467.01 1851.89 1463.29 1851.89 Q1458.74 1851.89 1456.09 1854.91 Q1453.45 1857.93 1453.45 1863.15 L1453.45 1883.3 L1447.56 1883.3 L1447.56 1861.98 Q1447.56 1856.82 1445.75 1854.37 Q1443.94 1851.89 1440.15 1851.89 Q1435.66 1851.89 1433.02 1854.94 Q1430.38 1857.97 1430.38 1863.15 L1430.38 1883.3 L1424.49 1883.3 L1424.49 1847.65 L1430.38 1847.65 L1430.38 1853.19 Q1432.38 1849.91 1435.18 1848.35 Q1437.98 1846.79 1441.84 1846.79 Q1445.72 1846.79 1448.42 1848.77 Q1451.16 1850.74 1452.47 1854.5 Z" fill="#000000" fill-rule="nonzero" fill-opacity="1" /><path clip-path="url(#clip060)" d="M1518.7 1864.01 L1518.7 1866.88 L1491.77 1866.88 Q1492.16 1872.92 1495.4 1876.11 Q1498.68 1879.26 1504.51 1879.26 Q1507.88 1879.26 1511.03 1878.43 Q1514.21 1877.6 1517.33 1875.95 L1517.33 1881.49 Q1514.18 1882.82 1510.87 1883.52 Q1507.56 1884.22 1504.16 1884.22 Q1495.63 1884.22 1490.63 1879.26 Q1485.66 1874.29 1485.66 1865.83 Q1485.66 1857.07 1490.37 1851.95 Q1495.12 1846.79 1503.14 1846.79 Q1510.33 1846.79 1514.5 1851.44 Q1518.7 1856.06 1518.7 1864.01 M1512.84 1862.29 Q1512.78 1857.49 1510.14 1854.62 Q1507.53 1851.76 1503.2 1851.76 Q1498.3 1851.76 1495.34 1854.53 Q1492.41 1857.3 1491.96 1862.33 L1512.84 1862.29 Z" fill="#000000" fill-rule="nonzero" fill-opacity="1" /><polyline clip-path="url(#clip060)" style="stroke:#000000; stroke-linecap:round; stroke-linejoin:round; stroke-width:4; stroke-opacity:1; fill:none" points="240.4,1734.12 240.4,127.792 "/>
<polyline clip-path="url(#clip060)" style="stroke:#000000; stroke-linecap:round; stroke-linejoin:round; stroke-width:4; stroke-opacity:1; fill:none" points="240.4,1696.31 259.297,1696.31 "/>
<polyline clip-path="url(#clip060)" style="stroke:#000000; stroke-linecap:round; stroke-linejoin:round; stroke-width:4; stroke-opacity:1; fill:none" points="240.4,1313.63 259.297,1313.63 "/>
<polyline clip-path="url(#clip060)" style="stroke:#000000; stroke-linecap:round; stroke-linejoin:round; stroke-width:4; stroke-opacity:1; fill:none" points="240.4,930.955 259.297,930.955 "/>
<polyline clip-path="url(#clip060)" style="stroke:#000000; stroke-linecap:round; stroke-linejoin:round; stroke-width:4; stroke-opacity:1; fill:none" points="240.4,548.278 259.297,548.278 "/>
<polyline clip-path="url(#clip060)" style="stroke:#000000; stroke-linecap:round; stroke-linejoin:round; stroke-width:4; stroke-opacity:1; fill:none" points="240.4,165.601 259.297,165.601 "/>
<path clip-path="url(#clip060)" d="M188.135 1682.11 Q184.524 1682.11 182.696 1685.67 Q180.89 1689.21 180.89 1696.34 Q180.89 1703.45 182.696 1707.01 Q184.524 1710.56 188.135 1710.56 Q191.77 1710.56 193.575 1707.01 Q195.404 1703.45 195.404 1696.34 Q195.404 1689.21 193.575 1685.67 Q191.77 1682.11 188.135 1682.11 M188.135 1678.4 Q193.946 1678.4 197.001 1683.01 Q200.08 1687.59 200.08 1696.34 Q200.08 1705.07 197.001 1709.68 Q193.946 1714.26 188.135 1714.26 Q182.325 1714.26 179.247 1709.68 Q176.191 1705.07 176.191 1696.34 Q176.191 1687.59 179.247 1683.01 Q182.325 1678.4 188.135 1678.4 Z" fill="#000000" fill-rule="nonzero" fill-opacity="1" /><path clip-path="url(#clip060)" d="M148.02 1296.35 L166.376 1296.35 L166.376 1300.29 L152.302 1300.29 L152.302 1308.76 Q153.321 1308.41 154.339 1308.25 Q155.358 1308.06 156.376 1308.06 Q162.163 1308.06 165.543 1311.24 Q168.922 1314.41 168.922 1319.82 Q168.922 1325.4 165.45 1328.5 Q161.978 1331.58 155.659 1331.58 Q153.483 1331.58 151.214 1331.21 Q148.969 1330.84 146.562 1330.1 L146.562 1325.4 Q148.645 1326.54 150.867 1327.09 Q153.089 1327.65 155.566 1327.65 Q159.571 1327.65 161.909 1325.54 Q164.247 1323.43 164.247 1319.82 Q164.247 1316.21 161.909 1314.11 Q159.571 1312 155.566 1312 Q153.691 1312 151.816 1312.42 Q149.964 1312.83 148.02 1313.71 L148.02 1296.35 Z" fill="#000000" fill-rule="nonzero" fill-opacity="1" /><path clip-path="url(#clip060)" d="M188.135 1299.43 Q184.524 1299.43 182.696 1303 Q180.89 1306.54 180.89 1313.67 Q180.89 1320.77 182.696 1324.34 Q184.524 1327.88 188.135 1327.88 Q191.77 1327.88 193.575 1324.34 Q195.404 1320.77 195.404 1313.67 Q195.404 1306.54 193.575 1303 Q191.77 1299.43 188.135 1299.43 M188.135 1295.73 Q193.946 1295.73 197.001 1300.33 Q200.08 1304.92 200.08 1313.67 Q200.08 1322.39 197.001 1327 Q193.946 1331.58 188.135 1331.58 Q182.325 1331.58 179.247 1327 Q176.191 1322.39 176.191 1313.67 Q176.191 1304.92 179.247 1300.33 Q182.325 1295.73 188.135 1295.73 Z" fill="#000000" fill-rule="nonzero" fill-opacity="1" /><path clip-path="url(#clip060)" d="M118.622 944.299 L126.261 944.299 L126.261 917.934 L117.951 919.6 L117.951 915.341 L126.214 913.675 L130.89 913.675 L130.89 944.299 L138.529 944.299 L138.529 948.235 L118.622 948.235 L118.622 944.299 Z" fill="#000000" fill-rule="nonzero" fill-opacity="1" /><path clip-path="url(#clip060)" d="M157.973 916.753 Q154.362 916.753 152.534 920.318 Q150.728 923.86 150.728 930.989 Q150.728 938.096 152.534 941.661 Q154.362 945.202 157.973 945.202 Q161.608 945.202 163.413 941.661 Q165.242 938.096 165.242 930.989 Q165.242 923.86 163.413 920.318 Q161.608 916.753 157.973 916.753 M157.973 913.05 Q163.784 913.05 166.839 917.656 Q169.918 922.239 169.918 930.989 Q169.918 939.716 166.839 944.323 Q163.784 948.906 157.973 948.906 Q152.163 948.906 149.085 944.323 Q146.029 939.716 146.029 930.989 Q146.029 922.239 149.085 917.656 Q152.163 913.05 157.973 913.05 Z" fill="#000000" fill-rule="nonzero" fill-opacity="1" /><path clip-path="url(#clip060)" d="M188.135 916.753 Q184.524 916.753 182.696 920.318 Q180.89 923.86 180.89 930.989 Q180.89 938.096 182.696 941.661 Q184.524 945.202 188.135 945.202 Q191.77 945.202 193.575 941.661 Q195.404 938.096 195.404 930.989 Q195.404 923.86 193.575 920.318 Q191.77 916.753 188.135 916.753 M188.135 913.05 Q193.946 913.05 197.001 917.656 Q200.08 922.239 200.08 930.989 Q200.08 939.716 197.001 944.323 Q193.946 948.906 188.135 948.906 Q182.325 948.906 179.247 944.323 Q176.191 939.716 176.191 930.989 Q176.191 922.239 179.247 917.656 Q182.325 913.05 188.135 913.05 Z" fill="#000000" fill-rule="nonzero" fill-opacity="1" /><path clip-path="url(#clip060)" d="M118.622 561.622 L126.261 561.622 L126.261 535.257 L117.951 536.923 L117.951 532.664 L126.214 530.998 L130.89 530.998 L130.89 561.622 L138.529 561.622 L138.529 565.558 L118.622 565.558 L118.622 561.622 Z" fill="#000000" fill-rule="nonzero" fill-opacity="1" /><path clip-path="url(#clip060)" d="M148.02 530.998 L166.376 530.998 L166.376 534.933 L152.302 534.933 L152.302 543.405 Q153.321 543.058 154.339 542.896 Q155.358 542.71 156.376 542.71 Q162.163 542.71 165.543 545.882 Q168.922 549.053 168.922 554.47 Q168.922 560.048 165.45 563.15 Q161.978 566.229 155.659 566.229 Q153.483 566.229 151.214 565.859 Q148.969 565.488 146.562 564.747 L146.562 560.048 Q148.645 561.183 150.867 561.738 Q153.089 562.294 155.566 562.294 Q159.571 562.294 161.909 560.187 Q164.247 558.081 164.247 554.47 Q164.247 550.859 161.909 548.752 Q159.571 546.646 155.566 546.646 Q153.691 546.646 151.816 547.062 Q149.964 547.479 148.02 548.359 L148.02 530.998 Z" fill="#000000" fill-rule="nonzero" fill-opacity="1" /><path clip-path="url(#clip060)" d="M188.135 534.076 Q184.524 534.076 182.696 537.641 Q180.89 541.183 180.89 548.312 Q180.89 555.419 182.696 558.984 Q184.524 562.525 188.135 562.525 Q191.77 562.525 193.575 558.984 Q195.404 555.419 195.404 548.312 Q195.404 541.183 193.575 537.641 Q191.77 534.076 188.135 534.076 M188.135 530.373 Q193.946 530.373 197.001 534.979 Q200.08 539.562 200.08 548.312 Q200.08 557.039 197.001 561.646 Q193.946 566.229 188.135 566.229 Q182.325 566.229 179.247 561.646 Q176.191 557.039 176.191 548.312 Q176.191 539.562 179.247 534.979 Q182.325 530.373 188.135 530.373 Z" fill="#000000" fill-rule="nonzero" fill-opacity="1" /><path clip-path="url(#clip060)" d="M121.839 178.945 L138.159 178.945 L138.159 182.881 L116.214 182.881 L116.214 178.945 Q118.876 176.191 123.46 171.561 Q128.066 166.908 129.247 165.566 Q131.492 163.043 132.372 161.307 Q133.275 159.547 133.275 157.858 Q133.275 155.103 131.33 153.367 Q129.409 151.631 126.307 151.631 Q124.108 151.631 121.654 152.395 Q119.224 153.159 116.446 154.709 L116.446 149.987 Q119.27 148.853 121.724 148.274 Q124.177 147.696 126.214 147.696 Q131.585 147.696 134.779 150.381 Q137.974 153.066 137.974 157.557 Q137.974 159.686 137.163 161.608 Q136.376 163.506 134.27 166.098 Q133.691 166.77 130.589 169.987 Q127.488 173.182 121.839 178.945 Z" fill="#000000" fill-rule="nonzero" fill-opacity="1" /><path clip-path="url(#clip060)" d="M157.973 151.399 Q154.362 151.399 152.534 154.964 Q150.728 158.506 150.728 165.635 Q150.728 172.742 152.534 176.307 Q154.362 179.848 157.973 179.848 Q161.608 179.848 163.413 176.307 Q165.242 172.742 165.242 165.635 Q165.242 158.506 163.413 154.964 Q161.608 151.399 157.973 151.399 M157.973 147.696 Q163.784 147.696 166.839 152.302 Q169.918 156.885 169.918 165.635 Q169.918 174.362 166.839 178.969 Q163.784 183.552 157.973 183.552 Q152.163 183.552 149.085 178.969 Q146.029 174.362 146.029 165.635 Q146.029 156.885 149.085 152.302 Q152.163 147.696 157.973 147.696 Z" fill="#000000" fill-rule="nonzero" fill-opacity="1" /><path clip-path="url(#clip060)" d="M188.135 151.399 Q184.524 151.399 182.696 154.964 Q180.89 158.506 180.89 165.635 Q180.89 172.742 182.696 176.307 Q184.524 179.848 188.135 179.848 Q191.77 179.848 193.575 176.307 Q195.404 172.742 195.404 165.635 Q195.404 158.506 193.575 154.964 Q191.77 151.399 188.135 151.399 M188.135 147.696 Q193.946 147.696 197.001 152.302 Q200.08 156.885 200.08 165.635 Q200.08 174.362 197.001 178.969 Q193.946 183.552 188.135 183.552 Q182.325 183.552 179.247 178.969 Q176.191 174.362 176.191 165.635 Q176.191 156.885 179.247 152.302 Q182.325 147.696 188.135 147.696 Z" fill="#000000" fill-rule="nonzero" fill-opacity="1" /><path clip-path="url(#clip060)" d="M14.1184 1055.09 L14.1184 1027.78 L19.5293 1027.78 L19.5293 1048.66 L33.5338 1048.66 L33.5338 1029.81 L38.9447 1029.81 L38.9447 1048.66 L61.6384 1048.66 L61.6384 1055.09 L14.1184 1055.09 Z" fill="#000000" fill-rule="nonzero" fill-opacity="1" /><path clip-path="url(#clip060)" d="M31.465 1001.93 Q30.8921 1002.92 30.6375 1004.1 Q30.351 1005.24 30.351 1006.64 Q30.351 1011.61 33.5975 1014.28 Q36.8122 1016.92 42.8596 1016.92 L61.6384 1016.92 L61.6384 1022.81 L25.9905 1022.81 L25.9905 1016.92 L31.5287 1016.92 Q28.2821 1015.08 26.7225 1012.12 Q25.1311 1009.16 25.1311 1004.92 Q25.1311 1004.32 25.2266 1003.59 Q25.2903 1002.86 25.4494 1001.96 L31.465 1001.93 Z" fill="#000000" fill-rule="nonzero" fill-opacity="1" /><path clip-path="url(#clip060)" d="M43.719 979.589 Q43.719 986.686 45.3422 989.424 Q46.9655 992.161 50.8804 992.161 Q53.9996 992.161 55.8457 990.124 Q57.6599 988.055 57.6599 984.522 Q57.6599 979.652 54.2224 976.724 Q50.7531 973.764 45.0239 973.764 L43.719 973.764 L43.719 979.589 M41.3 967.907 L61.6384 967.907 L61.6384 973.764 L56.2276 973.764 Q59.4741 975.769 61.0337 978.761 Q62.5615 981.753 62.5615 986.082 Q62.5615 991.556 59.5059 994.803 Q56.4186 998.017 51.2623 998.017 Q45.2467 998.017 42.1912 994.007 Q39.1357 989.965 39.1357 981.976 L39.1357 973.764 L38.5628 973.764 Q34.5205 973.764 32.3244 976.438 Q30.0964 979.079 30.0964 983.885 Q30.0964 986.941 30.8284 989.837 Q31.5605 992.734 33.0246 995.407 L27.6137 995.407 Q26.3724 992.193 25.7677 989.169 Q25.1311 986.145 25.1311 983.281 Q25.1311 975.546 29.1415 971.727 Q33.1519 967.907 41.3 967.907 Z" fill="#000000" fill-rule="nonzero" fill-opacity="1" /><path clip-path="url(#clip060)" d="M27.3591 930.191 L32.8336 930.191 Q31.465 932.673 30.7966 935.188 Q30.0964 937.67 30.0964 940.217 Q30.0964 945.914 33.7248 949.065 Q37.3214 952.216 43.8463 952.216 Q50.3711 952.216 53.9996 949.065 Q57.5962 945.914 57.5962 940.217 Q57.5962 937.67 56.9278 935.188 Q56.2276 932.673 54.859 930.191 L60.2698 930.191 Q61.4156 932.641 61.9886 935.283 Q62.5615 937.893 62.5615 940.853 Q62.5615 948.906 57.5007 953.648 Q52.44 958.391 43.8463 958.391 Q35.1253 958.391 30.1282 953.616 Q25.1311 948.81 25.1311 940.471 Q25.1311 937.766 25.704 935.188 Q26.2451 932.61 27.3591 930.191 Z" fill="#000000" fill-rule="nonzero" fill-opacity="1" /><path clip-path="url(#clip060)" d="M15.869 914.213 L25.9905 914.213 L25.9905 902.15 L30.542 902.15 L30.542 914.213 L49.8937 914.213 Q54.2542 914.213 55.4955 913.035 Q56.7368 911.826 56.7368 908.165 L56.7368 902.15 L61.6384 902.15 L61.6384 908.165 Q61.6384 914.945 59.124 917.523 Q56.5777 920.101 49.8937 920.101 L30.542 920.101 L30.542 924.398 L25.9905 924.398 L25.9905 920.101 L15.869 920.101 L15.869 914.213 Z" fill="#000000" fill-rule="nonzero" fill-opacity="1" /><path clip-path="url(#clip060)" d="M25.9905 894.447 L25.9905 888.591 L61.6384 888.591 L61.6384 894.447 L25.9905 894.447 M12.1132 894.447 L12.1132 888.591 L19.5293 888.591 L19.5293 894.447 L12.1132 894.447 Z" fill="#000000" fill-rule="nonzero" fill-opacity="1" /><path clip-path="url(#clip060)" d="M30.0964 862.523 Q30.0964 867.234 33.7885 869.971 Q37.4488 872.708 43.8463 872.708 Q50.2438 872.708 53.9359 870.003 Q57.5962 867.266 57.5962 862.523 Q57.5962 857.844 53.9041 855.107 Q50.212 852.37 43.8463 852.37 Q37.5124 852.37 33.8203 855.107 Q30.0964 857.844 30.0964 862.523 M25.1311 862.523 Q25.1311 854.884 30.0964 850.524 Q35.0616 846.163 43.8463 846.163 Q52.5991 846.163 57.5962 850.524 Q62.5615 854.884 62.5615 862.523 Q62.5615 870.194 57.5962 874.554 Q52.5991 878.883 43.8463 878.883 Q35.0616 878.883 30.0964 874.554 Q25.1311 870.194 25.1311 862.523 Z" fill="#000000" fill-rule="nonzero" fill-opacity="1" /><path clip-path="url(#clip060)" d="M40.1224 806.823 L61.6384 806.823 L61.6384 812.68 L40.3133 812.68 Q35.2526 812.68 32.7381 814.653 Q30.2237 816.626 30.2237 820.573 Q30.2237 825.316 33.2474 828.053 Q36.2711 830.79 41.491 830.79 L61.6384 830.79 L61.6384 836.678 L25.9905 836.678 L25.9905 830.79 L31.5287 830.79 Q28.314 828.689 26.7225 825.857 Q25.1311 822.992 25.1311 819.268 Q25.1311 813.125 28.9505 809.974 Q32.7381 806.823 40.1224 806.823 Z" fill="#000000" fill-rule="nonzero" fill-opacity="1" /><path clip-path="url(#clip060)" d="M621.829 14.0809 L621.829 22.0612 Q617.171 19.8332 613.039 18.7395 Q608.907 17.6457 605.059 17.6457 Q598.375 17.6457 594.729 20.2383 Q591.123 22.8309 591.123 27.611 Q591.123 31.6214 593.513 33.6873 Q595.944 35.7128 602.669 36.9686 L607.611 37.9813 Q616.766 39.7232 621.1 44.1387 Q625.475 48.5136 625.475 55.8863 Q625.475 64.6767 619.561 69.2137 Q613.687 73.7508 602.304 73.7508 Q598.01 73.7508 593.149 72.7785 Q588.328 71.8063 583.143 69.9024 L583.143 61.4765 Q588.126 64.2716 592.906 65.6895 Q597.686 67.1073 602.304 67.1073 Q609.312 67.1073 613.12 64.3527 Q616.928 61.598 616.928 56.4939 Q616.928 52.0379 614.173 49.5264 Q611.459 47.0148 605.221 45.759 L600.238 44.7868 Q591.083 42.9639 586.992 39.075 Q582.9 35.1862 582.9 28.2591 Q582.9 20.2383 588.531 15.6203 Q594.202 11.0023 604.127 11.0023 Q608.38 11.0023 612.796 11.7719 Q617.211 12.5416 621.829 14.0809 Z" fill="#000000" fill-rule="nonzero" fill-opacity="1" /><path clip-path="url(#clip060)" d="M638.235 12.096 L646.418 12.096 L646.418 72.576 L638.235 72.576 L638.235 12.096 Z" fill="#000000" fill-rule="nonzero" fill-opacity="1" /><path clip-path="url(#clip060)" d="M698.959 14.0809 L698.959 22.0612 Q694.3 19.8332 690.168 18.7395 Q686.036 17.6457 682.188 17.6457 Q675.504 17.6457 671.858 20.2383 Q668.253 22.8309 668.253 27.611 Q668.253 31.6214 670.643 33.6873 Q673.073 35.7128 679.798 36.9686 L684.74 37.9813 Q693.895 39.7232 698.229 44.1387 Q702.604 48.5136 702.604 55.8863 Q702.604 64.6767 696.69 69.2137 Q690.816 73.7508 679.433 73.7508 Q675.139 73.7508 670.278 72.7785 Q665.458 71.8063 660.272 69.9024 L660.272 61.4765 Q665.255 64.2716 670.035 65.6895 Q674.815 67.1073 679.433 67.1073 Q686.441 67.1073 690.249 64.3527 Q694.057 61.598 694.057 56.4939 Q694.057 52.0379 691.302 49.5264 Q688.588 47.0148 682.35 45.759 L677.367 44.7868 Q668.212 42.9639 664.121 39.075 Q660.029 35.1862 660.029 28.2591 Q660.029 20.2383 665.66 15.6203 Q671.331 11.0023 681.256 11.0023 Q685.51 11.0023 689.925 11.7719 Q694.34 12.5416 698.959 14.0809 Z" fill="#000000" fill-rule="nonzero" fill-opacity="1" /><path clip-path="url(#clip060)" d="M741.412 27.2059 L748.866 27.2059 L748.866 72.576 L741.412 72.576 L741.412 27.2059 M741.412 9.54393 L748.866 9.54393 L748.866 18.9825 L741.412 18.9825 L741.412 9.54393 Z" fill="#000000" fill-rule="nonzero" fill-opacity="1" /><path clip-path="url(#clip060)" d="M802.176 45.1919 L802.176 72.576 L794.722 72.576 L794.722 45.4349 Q794.722 38.994 792.21 35.7938 Q789.699 32.5936 784.676 32.5936 Q778.64 32.5936 775.156 36.4419 Q771.672 40.2903 771.672 46.9338 L771.672 72.576 L764.178 72.576 L764.178 27.2059 L771.672 27.2059 L771.672 34.2544 Q774.346 30.163 777.951 28.1376 Q781.597 26.1121 786.337 26.1121 Q794.155 26.1121 798.165 30.9732 Q802.176 35.7938 802.176 45.1919 Z" fill="#000000" fill-rule="nonzero" fill-opacity="1" /><path clip-path="url(#clip060)" d="M846.898 34.0924 L846.898 9.54393 L854.351 9.54393 L854.351 72.576 L846.898 72.576 L846.898 65.7705 Q844.548 69.8214 840.943 71.8063 Q837.378 73.7508 832.355 73.7508 Q824.131 73.7508 818.946 67.1883 Q813.802 60.6258 813.802 49.9314 Q813.802 39.2371 818.946 32.6746 Q824.131 26.1121 832.355 26.1121 Q837.378 26.1121 840.943 28.0971 Q844.548 30.0415 846.898 34.0924 M821.498 49.9314 Q821.498 58.1548 824.861 62.8538 Q828.263 67.5124 834.178 67.5124 Q840.092 67.5124 843.495 62.8538 Q846.898 58.1548 846.898 49.9314 Q846.898 41.7081 843.495 37.0496 Q840.092 32.3505 834.178 32.3505 Q828.263 32.3505 824.861 37.0496 Q821.498 41.7081 821.498 49.9314 Z" fill="#000000" fill-rule="nonzero" fill-opacity="1" /><path clip-path="url(#clip060)" d="M869.704 27.2059 L877.158 27.2059 L877.158 72.576 L869.704 72.576 L869.704 27.2059 M869.704 9.54393 L877.158 9.54393 L877.158 18.9825 L869.704 18.9825 L869.704 9.54393 Z" fill="#000000" fill-rule="nonzero" fill-opacity="1" /><path clip-path="url(#clip060)" d="M887.407 27.2059 L895.306 27.2059 L909.484 65.2844 L923.662 27.2059 L931.561 27.2059 L914.548 72.576 L904.42 72.576 L887.407 27.2059 Z" fill="#000000" fill-rule="nonzero" fill-opacity="1" /><path clip-path="url(#clip060)" d="M941.851 27.2059 L949.304 27.2059 L949.304 72.576 L941.851 72.576 L941.851 27.2059 M941.851 9.54393 L949.304 9.54393 L949.304 18.9825 L941.851 18.9825 L941.851 9.54393 Z" fill="#000000" fill-rule="nonzero" fill-opacity="1" /><path clip-path="url(#clip060)" d="M994.756 34.0924 L994.756 9.54393 L1002.21 9.54393 L1002.21 72.576 L994.756 72.576 L994.756 65.7705 Q992.406 69.8214 988.801 71.8063 Q985.236 73.7508 980.213 73.7508 Q971.989 73.7508 966.804 67.1883 Q961.66 60.6258 961.66 49.9314 Q961.66 39.2371 966.804 32.6746 Q971.989 26.1121 980.213 26.1121 Q985.236 26.1121 988.801 28.0971 Q992.406 30.0415 994.756 34.0924 M969.356 49.9314 Q969.356 58.1548 972.719 62.8538 Q976.121 67.5124 982.036 67.5124 Q987.95 67.5124 991.353 62.8538 Q994.756 58.1548 994.756 49.9314 Q994.756 41.7081 991.353 37.0496 Q987.95 32.3505 982.036 32.3505 Q976.121 32.3505 972.719 37.0496 Q969.356 41.7081 969.356 49.9314 Z" fill="#000000" fill-rule="nonzero" fill-opacity="1" /><path clip-path="url(#clip060)" d="M1016.79 54.671 L1016.79 27.2059 L1024.25 27.2059 L1024.25 54.3874 Q1024.25 60.8284 1026.76 64.0691 Q1029.27 67.2693 1034.29 67.2693 Q1040.33 67.2693 1043.81 63.421 Q1047.34 59.5726 1047.34 52.9291 L1047.34 27.2059 L1054.79 27.2059 L1054.79 72.576 L1047.34 72.576 L1047.34 65.6084 Q1044.62 69.7404 1041.02 71.7658 Q1037.45 73.7508 1032.71 73.7508 Q1024.89 73.7508 1020.84 68.8897 Q1016.79 64.0286 1016.79 54.671 M1035.55 26.1121 L1035.55 26.1121 Z" fill="#000000" fill-rule="nonzero" fill-opacity="1" /><path clip-path="url(#clip060)" d="M1090.76 49.7694 Q1081.73 49.7694 1078.24 51.8354 Q1074.76 53.9013 1074.76 58.8839 Q1074.76 62.8538 1077.35 65.2034 Q1079.99 67.5124 1084.48 67.5124 Q1090.68 67.5124 1094.41 63.1374 Q1098.18 58.7219 1098.18 51.4303 L1098.18 49.7694 L1090.76 49.7694 M1105.63 46.6907 L1105.63 72.576 L1098.18 72.576 L1098.18 65.6895 Q1095.62 69.8214 1091.82 71.8063 Q1088.01 73.7508 1082.5 73.7508 Q1075.53 73.7508 1071.4 69.8619 Q1067.31 65.9325 1067.31 59.3701 Q1067.31 51.7138 1072.41 47.825 Q1077.56 43.9361 1087.72 43.9361 L1098.18 43.9361 L1098.18 43.2069 Q1098.18 38.0623 1094.77 35.2672 Q1091.41 32.4315 1085.29 32.4315 Q1081.4 32.4315 1077.72 33.3632 Q1074.03 34.295 1070.63 36.1584 L1070.63 29.2718 Q1074.72 27.692 1078.57 26.9223 Q1082.42 26.1121 1086.06 26.1121 Q1095.91 26.1121 1100.77 31.2163 Q1105.63 36.3204 1105.63 46.6907 Z" fill="#000000" fill-rule="nonzero" fill-opacity="1" /><path clip-path="url(#clip060)" d="M1120.98 9.54393 L1128.44 9.54393 L1128.44 72.576 L1120.98 72.576 L1120.98 9.54393 Z" fill="#000000" fill-rule="nonzero" fill-opacity="1" /><path clip-path="url(#clip060)" d="M1140.26 46.5287 L1162.1 46.5287 L1162.1 53.1722 L1140.26 53.1722 L1140.26 46.5287 Z" fill="#000000" fill-rule="nonzero" fill-opacity="1" /><path clip-path="url(#clip060)" d="M1206.54 49.9314 Q1206.54 41.7081 1203.13 37.0496 Q1199.77 32.3505 1193.86 32.3505 Q1187.94 32.3505 1184.54 37.0496 Q1181.18 41.7081 1181.18 49.9314 Q1181.18 58.1548 1184.54 62.8538 Q1187.94 67.5124 1193.86 67.5124 Q1199.77 67.5124 1203.13 62.8538 Q1206.54 58.1548 1206.54 49.9314 M1181.18 34.0924 Q1183.53 30.0415 1187.09 28.0971 Q1190.7 26.1121 1195.68 26.1121 Q1203.94 26.1121 1209.09 32.6746 Q1214.27 39.2371 1214.27 49.9314 Q1214.27 60.6258 1209.09 67.1883 Q1203.94 73.7508 1195.68 73.7508 Q1190.7 73.7508 1187.09 71.8063 Q1183.53 69.8214 1181.18 65.7705 L1181.18 72.576 L1173.68 72.576 L1173.68 9.54393 L1181.18 9.54393 L1181.18 34.0924 Z" fill="#000000" fill-rule="nonzero" fill-opacity="1" /><path clip-path="url(#clip060)" d="M1247.25 49.7694 Q1238.21 49.7694 1234.73 51.8354 Q1231.25 53.9013 1231.25 58.8839 Q1231.25 62.8538 1233.84 65.2034 Q1236.47 67.5124 1240.97 67.5124 Q1247.17 67.5124 1250.89 63.1374 Q1254.66 58.7219 1254.66 51.4303 L1254.66 49.7694 L1247.25 49.7694 M1262.12 46.6907 L1262.12 72.576 L1254.66 72.576 L1254.66 65.6895 Q1252.11 69.8214 1248.3 71.8063 Q1244.49 73.7508 1238.98 73.7508 Q1232.02 73.7508 1227.89 69.8619 Q1223.79 65.9325 1223.79 59.3701 Q1223.79 51.7138 1228.9 47.825 Q1234.04 43.9361 1244.21 43.9361 L1254.66 43.9361 L1254.66 43.2069 Q1254.66 38.0623 1251.26 35.2672 Q1247.9 32.4315 1241.78 32.4315 Q1237.89 32.4315 1234.2 33.3632 Q1230.52 34.295 1227.12 36.1584 L1227.12 29.2718 Q1231.21 27.692 1235.06 26.9223 Q1238.9 26.1121 1242.55 26.1121 Q1252.39 26.1121 1257.25 31.2163 Q1262.12 36.3204 1262.12 46.6907 Z" fill="#000000" fill-rule="nonzero" fill-opacity="1" /><path clip-path="url(#clip060)" d="M1306.39 28.5427 L1306.39 35.5912 Q1303.23 33.9709 1299.83 33.1607 Q1296.43 32.3505 1292.78 32.3505 Q1287.23 32.3505 1284.44 34.0519 Q1281.68 35.7533 1281.68 39.156 Q1281.68 41.7486 1283.67 43.2475 Q1285.65 44.7058 1291.65 46.0426 L1294.2 46.6097 Q1302.14 48.3111 1305.46 51.4303 Q1308.82 54.509 1308.82 60.0587 Q1308.82 66.3781 1303.8 70.0644 Q1298.82 73.7508 1290.07 73.7508 Q1286.42 73.7508 1282.45 73.0216 Q1278.52 72.3329 1274.15 70.9151 L1274.15 63.2184 Q1278.28 65.3654 1282.29 66.4591 Q1286.3 67.5124 1290.23 67.5124 Q1295.49 67.5124 1298.33 65.73 Q1301.17 63.9071 1301.17 60.6258 Q1301.17 57.5877 1299.1 55.9673 Q1297.07 54.3469 1290.15 52.8481 L1287.55 52.2405 Q1280.63 50.7821 1277.55 47.7845 Q1274.47 44.7463 1274.47 39.4801 Q1274.47 33.0797 1279.01 29.5959 Q1283.54 26.1121 1291.89 26.1121 Q1296.02 26.1121 1299.67 26.7198 Q1303.31 27.3274 1306.39 28.5427 Z" fill="#000000" fill-rule="nonzero" fill-opacity="1" /><path clip-path="url(#clip060)" d="M1359.5 48.0275 L1359.5 51.6733 L1325.23 51.6733 Q1325.71 59.3701 1329.85 63.421 Q1334.02 67.4314 1341.43 67.4314 Q1345.73 67.4314 1349.74 66.3781 Q1353.79 65.3249 1357.76 63.2184 L1357.76 70.267 Q1353.75 71.9684 1349.53 72.8596 Q1345.32 73.7508 1340.99 73.7508 Q1330.13 73.7508 1323.77 67.4314 Q1317.45 61.1119 1317.45 50.3365 Q1317.45 39.1965 1323.45 32.6746 Q1329.48 26.1121 1339.69 26.1121 Q1348.85 26.1121 1354.15 32.0264 Q1359.5 37.9003 1359.5 48.0275 M1352.05 45.84 Q1351.96 39.7232 1348.6 36.0774 Q1345.28 32.4315 1339.77 32.4315 Q1333.53 32.4315 1329.77 35.9558 Q1326.04 39.4801 1325.47 45.8805 L1352.05 45.84 Z" fill="#000000" fill-rule="nonzero" fill-opacity="1" /><path clip-path="url(#clip060)" d="M1401.59 34.0924 L1401.59 9.54393 L1409.04 9.54393 L1409.04 72.576 L1401.59 72.576 L1401.59 65.7705 Q1399.24 69.8214 1395.63 71.8063 Q1392.07 73.7508 1387.05 73.7508 Q1378.82 73.7508 1373.64 67.1883 Q1368.49 60.6258 1368.49 49.9314 Q1368.49 39.2371 1373.64 32.6746 Q1378.82 26.1121 1387.05 26.1121 Q1392.07 26.1121 1395.63 28.0971 Q1399.24 30.0415 1401.59 34.0924 M1376.19 49.9314 Q1376.19 58.1548 1379.55 62.8538 Q1382.95 67.5124 1388.87 67.5124 Q1394.78 67.5124 1398.19 62.8538 Q1401.59 58.1548 1401.59 49.9314 Q1401.59 41.7081 1398.19 37.0496 Q1394.78 32.3505 1388.87 32.3505 Q1382.95 32.3505 1379.55 37.0496 Q1376.19 41.7081 1376.19 49.9314 Z" fill="#000000" fill-rule="nonzero" fill-opacity="1" /><path clip-path="url(#clip060)" d="M1486.09 35.9153 Q1488.88 30.8922 1492.77 28.5022 Q1496.66 26.1121 1501.93 26.1121 Q1509.02 26.1121 1512.87 31.0947 Q1516.71 36.0368 1516.71 45.1919 L1516.71 72.576 L1509.22 72.576 L1509.22 45.4349 Q1509.22 38.913 1506.91 35.7533 Q1504.6 32.5936 1499.86 32.5936 Q1494.07 32.5936 1490.71 36.4419 Q1487.35 40.2903 1487.35 46.9338 L1487.35 72.576 L1479.85 72.576 L1479.85 45.4349 Q1479.85 38.8725 1477.54 35.7533 Q1475.23 32.5936 1470.41 32.5936 Q1464.7 32.5936 1461.34 36.4824 Q1457.98 40.3308 1457.98 46.9338 L1457.98 72.576 L1450.48 72.576 L1450.48 27.2059 L1457.98 27.2059 L1457.98 34.2544 Q1460.53 30.082 1464.09 28.0971 Q1467.66 26.1121 1472.56 26.1121 Q1477.5 26.1121 1480.95 28.6237 Q1484.43 31.1352 1486.09 35.9153 Z" fill="#000000" fill-rule="nonzero" fill-opacity="1" /><path clip-path="url(#clip060)" d="M1549.16 32.4315 Q1543.17 32.4315 1539.68 37.1306 Q1536.2 41.7891 1536.2 49.9314 Q1536.2 58.0738 1539.64 62.7728 Q1543.13 67.4314 1549.16 67.4314 Q1555.12 67.4314 1558.6 62.7323 Q1562.08 58.0333 1562.08 49.9314 Q1562.08 41.8701 1558.6 37.1711 Q1555.12 32.4315 1549.16 32.4315 M1549.16 26.1121 Q1558.88 26.1121 1564.43 32.4315 Q1569.98 38.7509 1569.98 49.9314 Q1569.98 61.0714 1564.43 67.4314 Q1558.88 73.7508 1549.16 73.7508 Q1539.4 73.7508 1533.85 67.4314 Q1528.34 61.0714 1528.34 49.9314 Q1528.34 38.7509 1533.85 32.4315 Q1539.4 26.1121 1549.16 26.1121 Z" fill="#000000" fill-rule="nonzero" fill-opacity="1" /><path clip-path="url(#clip060)" d="M1612.19 34.0924 L1612.19 9.54393 L1619.65 9.54393 L1619.65 72.576 L1612.19 72.576 L1612.19 65.7705 Q1609.84 69.8214 1606.24 71.8063 Q1602.67 73.7508 1597.65 73.7508 Q1589.43 73.7508 1584.24 67.1883 Q1579.1 60.6258 1579.1 49.9314 Q1579.1 39.2371 1584.24 32.6746 Q1589.43 26.1121 1597.65 26.1121 Q1602.67 26.1121 1606.24 28.0971 Q1609.84 30.0415 1612.19 34.0924 M1586.8 49.9314 Q1586.8 58.1548 1590.16 62.8538 Q1593.56 67.5124 1599.47 67.5124 Q1605.39 67.5124 1608.79 62.8538 Q1612.19 58.1548 1612.19 49.9314 Q1612.19 41.7081 1608.79 37.0496 Q1605.39 32.3505 1599.47 32.3505 Q1593.56 32.3505 1590.16 37.0496 Q1586.8 41.7081 1586.8 49.9314 Z" fill="#000000" fill-rule="nonzero" fill-opacity="1" /><path clip-path="url(#clip060)" d="M1673.81 48.0275 L1673.81 51.6733 L1639.54 51.6733 Q1640.02 59.3701 1644.16 63.421 Q1648.33 67.4314 1655.74 67.4314 Q1660.04 67.4314 1664.05 66.3781 Q1668.1 65.3249 1672.07 63.2184 L1672.07 70.267 Q1668.06 71.9684 1663.84 72.8596 Q1659.63 73.7508 1655.3 73.7508 Q1644.44 73.7508 1638.08 67.4314 Q1631.76 61.1119 1631.76 50.3365 Q1631.76 39.1965 1637.76 32.6746 Q1643.79 26.1121 1654 26.1121 Q1663.15 26.1121 1668.46 32.0264 Q1673.81 37.9003 1673.81 48.0275 M1666.35 45.84 Q1666.27 39.7232 1662.91 36.0774 Q1659.59 32.4315 1654.08 32.4315 Q1647.84 32.4315 1644.07 35.9558 Q1640.35 39.4801 1639.78 45.8805 L1666.35 45.84 Z" fill="#000000" fill-rule="nonzero" fill-opacity="1" /><path clip-path="url(#clip060)" d="M1686.04 9.54393 L1693.5 9.54393 L1693.5 72.576 L1686.04 72.576 L1686.04 9.54393 Z" fill="#000000" fill-rule="nonzero" fill-opacity="1" /><path clip-path="url(#clip060)" d="M1753.37 9.62495 Q1747.94 18.942 1745.31 28.0566 Q1742.67 37.1711 1742.67 46.5287 Q1742.67 55.8863 1745.31 65.0818 Q1747.98 74.2369 1753.37 83.5134 L1746.89 83.5134 Q1740.81 73.9938 1737.77 64.7983 Q1734.77 55.6027 1734.77 46.5287 Q1734.77 37.4952 1737.77 28.3401 Q1740.77 19.1851 1746.89 9.62495 L1753.37 9.62495 Z" fill="#000000" fill-rule="nonzero" fill-opacity="1" /><path clip-path="url(#clip060)" d="M1768.15 12.096 L1779.17 12.096 L1805.99 62.6918 L1805.99 12.096 L1813.93 12.096 L1813.93 72.576 L1802.91 72.576 L1776.09 21.9802 L1776.09 72.576 L1768.15 72.576 L1768.15 12.096 Z" fill="#000000" fill-rule="nonzero" fill-opacity="1" /><path clip-path="url(#clip060)" d="M1830.86 34.9026 L1882.79 34.9026 L1882.79 41.7081 L1830.86 41.7081 L1830.86 34.9026 M1830.86 51.4303 L1882.79 51.4303 L1882.79 58.3168 L1830.86 58.3168 L1830.86 51.4303 Z" fill="#000000" fill-rule="nonzero" fill-opacity="1" /><path clip-path="url(#clip060)" d="M1907.51 65.6895 L1936.06 65.6895 L1936.06 72.576 L1897.66 72.576 L1897.66 65.6895 Q1902.32 60.8689 1910.34 52.7671 Q1918.4 44.6248 1920.47 42.2752 Q1924.4 37.8598 1925.94 34.8216 Q1927.52 31.7429 1927.52 28.7857 Q1927.52 23.9651 1924.11 20.927 Q1920.75 17.8888 1915.32 17.8888 Q1911.48 17.8888 1907.18 19.2256 Q1902.93 20.5624 1898.07 23.2765 L1898.07 15.0127 Q1903.01 13.0277 1907.3 12.015 Q1911.6 11.0023 1915.16 11.0023 Q1924.56 11.0023 1930.15 15.7013 Q1935.74 20.4004 1935.74 28.2591 Q1935.74 31.9859 1934.32 35.3482 Q1932.94 38.6699 1929.26 43.2069 Q1928.25 44.3817 1922.82 50.0125 Q1917.39 55.6027 1907.51 65.6895 Z" fill="#000000" fill-rule="nonzero" fill-opacity="1" /><path clip-path="url(#clip060)" d="M1970.74 17.4837 Q1964.42 17.4837 1961.22 23.7221 Q1958.06 29.92 1958.06 42.3968 Q1958.06 54.833 1961.22 61.0714 Q1964.42 67.2693 1970.74 67.2693 Q1977.1 67.2693 1980.26 61.0714 Q1983.46 54.833 1983.46 42.3968 Q1983.46 29.92 1980.26 23.7221 Q1977.1 17.4837 1970.74 17.4837 M1970.74 11.0023 Q1980.91 11.0023 1986.25 19.0636 Q1991.64 27.0843 1991.64 42.3968 Q1991.64 57.6687 1986.25 65.73 Q1980.91 73.7508 1970.74 73.7508 Q1960.57 73.7508 1955.18 65.73 Q1949.84 57.6687 1949.84 42.3968 Q1949.84 27.0843 1955.18 19.0636 Q1960.57 11.0023 1970.74 11.0023 Z" fill="#000000" fill-rule="nonzero" fill-opacity="1" /><path clip-path="url(#clip060)" d="M2023.52 17.4837 Q2017.2 17.4837 2014 23.7221 Q2010.84 29.92 2010.84 42.3968 Q2010.84 54.833 2014 61.0714 Q2017.2 67.2693 2023.52 67.2693 Q2029.88 67.2693 2033.04 61.0714 Q2036.24 54.833 2036.24 42.3968 Q2036.24 29.92 2033.04 23.7221 Q2029.88 17.4837 2023.52 17.4837 M2023.52 11.0023 Q2033.69 11.0023 2039.04 19.0636 Q2044.43 27.0843 2044.43 42.3968 Q2044.43 57.6687 2039.04 65.73 Q2033.69 73.7508 2023.52 73.7508 Q2013.36 73.7508 2007.97 65.73 Q2002.62 57.6687 2002.62 42.3968 Q2002.62 27.0843 2007.97 19.0636 Q2013.36 11.0023 2023.52 11.0023 Z" fill="#000000" fill-rule="nonzero" fill-opacity="1" /><path clip-path="url(#clip060)" d="M2059.66 62.2867 L2068.2 62.2867 L2068.2 69.2543 L2061.56 82.2172 L2056.34 82.2172 L2059.66 69.2543 L2059.66 62.2867 Z" fill="#000000" fill-rule="nonzero" fill-opacity="1" /><path clip-path="url(#clip060)" d="M2110.21 9.54393 L2117.71 9.54393 L2117.71 46.7717 L2139.95 27.2059 L2149.47 27.2059 L2125.4 48.4326 L2150.48 72.576 L2140.76 72.576 L2117.71 50.4176 L2117.71 72.576 L2110.21 72.576 L2110.21 9.54393 Z" fill="#000000" fill-rule="nonzero" fill-opacity="1" /><path clip-path="url(#clip060)" d="M2159.51 34.9026 L2211.44 34.9026 L2211.44 41.7081 L2159.51 41.7081 L2159.51 34.9026 M2159.51 51.4303 L2211.44 51.4303 L2211.44 58.3168 L2159.51 58.3168 L2159.51 51.4303 Z" fill="#000000" fill-rule="nonzero" fill-opacity="1" /><path clip-path="url(#clip060)" d="M2247.62 39.075 Q2242.11 39.075 2238.87 42.8424 Q2235.67 46.6097 2235.67 53.1722 Q2235.67 59.6941 2238.87 63.502 Q2242.11 67.2693 2247.62 67.2693 Q2253.13 67.2693 2256.33 63.502 Q2259.57 59.6941 2259.57 53.1722 Q2259.57 46.6097 2256.33 42.8424 Q2253.13 39.075 2247.62 39.075 M2263.86 13.4328 L2263.86 20.8865 Q2260.78 19.4281 2257.62 18.6585 Q2254.51 17.8888 2251.43 17.8888 Q2243.33 17.8888 2239.03 23.3575 Q2234.78 28.8262 2234.17 39.8852 Q2236.56 36.3609 2240.17 34.4975 Q2243.77 32.5936 2248.11 32.5936 Q2257.22 32.5936 2262.49 38.1433 Q2267.79 43.6525 2267.79 53.1722 Q2267.79 62.4892 2262.28 68.12 Q2256.77 73.7508 2247.62 73.7508 Q2237.13 73.7508 2231.58 65.73 Q2226.03 57.6687 2226.03 42.3968 Q2226.03 28.0566 2232.83 19.5497 Q2239.64 11.0023 2251.1 11.0023 Q2254.18 11.0023 2257.3 11.6099 Q2260.46 12.2175 2263.86 13.4328 Z" fill="#000000" fill-rule="nonzero" fill-opacity="1" /><path clip-path="url(#clip060)" d="M2279.66 9.62495 L2286.14 9.62495 Q2292.22 19.1851 2295.22 28.3401 Q2298.26 37.4952 2298.26 46.5287 Q2298.26 55.6027 2295.22 64.7983 Q2292.22 73.9938 2286.14 83.5134 L2279.66 83.5134 Q2285.05 74.2369 2287.68 65.0818 Q2290.36 55.8863 2290.36 46.5287 Q2290.36 37.1711 2287.68 28.0566 Q2285.05 18.942 2279.66 9.62495 Z" fill="#000000" fill-rule="nonzero" fill-opacity="1" /><polyline clip-path="url(#clip061)" style="stroke:#0000ff; stroke-linecap:round; stroke-linejoin:round; stroke-width:8; stroke-opacity:1; fill:none" points="308.334,173.254 315.883,176.744 323.431,181.42 330.979,187.889 338.528,196.965 346.076,209.755 353.624,227.77 361.172,252.983 368.721,287.94 376.269,335.601 383.817,399.062 391.366,480.897 398.914,581.838 406.462,699.726 414.01,828.65 421.559,959.862 429.107,1083.63 436.655,1192.35 444.204,1281.86 451.752,1351.7 459.3,1403.81 466.848,1441.54 474.397,1468.28 481.945,1486.74 489.493,1499.5 497.042,1508.19 504.59,1514.07 512.138,1518.07 519.686,1520.74 527.235,1522.54 534.783,1523.76 542.331,1524.57 549.88,1525.11 557.428,1525.48 564.976,1525.73 572.524,1525.89 580.073,1526 587.621,1526.08 595.169,1526.13 602.718,1526.16 610.266,1526.18 617.814,1526.2 625.363,1526.21 632.911,1526.22 640.459,1526.22 648.007,1526.22 655.556,1526.23 663.104,1526.23 670.652,1526.23 678.201,1526.23 685.749,1526.23 693.297,1526.23 700.845,1526.23 708.394,1526.23 715.942,1526.23 723.49,1526.23 731.039,1526.23 738.587,1526.23 746.135,1526.23 753.683,1526.23 761.232,1526.23 768.78,1526.23 776.328,1526.23 783.877,1526.23 791.425,1526.23 798.973,1526.23 806.521,1526.23 814.07,1526.23 821.618,1526.23 829.166,1526.23 836.715,1526.23 844.263,1526.24 851.811,1526.24 859.36,1526.24 866.908,1526.24 874.456,1526.24 882.004,1526.23 889.553,1526.23 897.101,1526.22 904.649,1526.22 912.198,1526.22 919.746,1526.23 927.294,1526.25 934.842,1526.27 942.391,1526.28 949.939,1526.28 957.487,1526.27 965.036,1526.24 972.584,1526.22 980.132,1526.19 987.68,1526.18 995.229,1526.19 1002.78,1526.23 1010.33,1526.27 1017.87,1526.3 1025.42,1526.31 1032.97,1526.29 1040.52,1526.25 1048.07,1526.2 1055.62,1526.15 1063.16,1526.14 1070.71,1526.18 1078.26,1526.23 1085.81,1526.27 1093.36,1526.28 1100.9,1526.27 1108.45,1526.24 1116,1526.19 1123.55,1526.16 1131.1,1526.18 1138.65,1526.21 1146.19,1526.23 1153.74,1526.24 1161.29,1526.24 1168.84,1526.23 1176.39,1526.21 1183.94,1526.2 1191.48,1526.21 1199.03,1526.22 1206.58,1526.23 1214.13,1526.23 1221.68,1526.23 1229.23,1526.22 1236.77,1526.22 1244.32,1526.22 1251.87,1526.23 1259.42,1526.23 1266.97,1526.23 1274.52,1526.23 1282.06,1526.23 1289.61,1526.23 1297.16,1526.23 1304.71,1526.23 1312.26,1526.23 1319.81,1526.23 1327.35,1526.23 1334.9,1526.23 1342.45,1526.23 1350,1526.23 1357.55,1526.23 1365.09,1526.23 1372.64,1526.23 1380.19,1526.23 1387.74,1526.23 1395.29,1526.23 1402.84,1526.23 1410.38,1526.23 1417.93,1526.23 1425.48,1526.23 1433.03,1526.23 1440.58,1526.23 1448.13,1526.23 1455.67,1526.23 1463.22,1526.23 1470.77,1526.23 1478.32,1526.23 1485.87,1526.23 1493.42,1526.23 1500.96,1526.23 1508.51,1526.23 1516.06,1526.23 1523.61,1526.23 1531.16,1526.23 1538.71,1526.23 1546.25,1526.23 1553.8,1526.23 1561.35,1526.23 1568.9,1526.23 1576.45,1526.23 1584,1526.23 1591.54,1526.23 1599.09,1526.23 1606.64,1526.23 1614.19,1526.23 1621.74,1526.23 1629.29,1526.23 1636.83,1526.23 1644.38,1526.23 1651.93,1526.23 1659.48,1526.23 1667.03,1526.23 1674.57,1526.23 1682.12,1526.23 1689.67,1526.23 1697.22,1526.23 1704.77,1526.23 1712.32,1526.23 1719.86,1526.23 1727.41,1526.23 1734.96,1526.23 1742.51,1526.23 1750.06,1526.23 1757.61,1526.23 1765.15,1526.23 1772.7,1526.23 1780.25,1526.23 1787.8,1526.23 1795.35,1526.23 1802.9,1526.23 1810.44,1526.23 1817.99,1526.23 1825.54,1526.23 1833.09,1526.23 1840.64,1526.23 1848.19,1526.23 1855.73,1526.23 1863.28,1526.23 1870.83,1526.23 1878.38,1526.23 1885.93,1526.23 1893.48,1526.23 1901.02,1526.23 1908.57,1526.23 1916.12,1526.23 1923.67,1526.23 1931.22,1526.23 1938.76,1526.23 1946.31,1526.23 1953.86,1526.23 1961.41,1526.23 1968.96,1526.23 1976.51,1526.23 1984.05,1526.23 1991.6,1526.23 1999.15,1526.23 2006.7,1526.23 2014.25,1526.23 2021.8,1526.23 2029.34,1526.23 2036.89,1526.23 2044.44,1526.23 2051.99,1526.23 2059.54,1526.23 2067.09,1526.23 2074.63,1526.23 2082.18,1526.23 2089.73,1526.23 2097.28,1526.23 2104.83,1526.23 2112.38,1526.23 2119.92,1526.23 2127.47,1526.23 2135.02,1526.23 2142.57,1526.23 2150.12,1526.23 2157.67,1526.23 2165.21,1526.23 2172.76,1526.23 2180.31,1526.23 2187.86,1526.23 2195.41,1526.23 2202.96,1526.23 2210.5,1526.23 2218.05,1526.23 2225.6,1526.23 2233.15,1526.23 2240.7,1526.23 2248.24,1526.23 2255.79,1526.23 2263.34,1526.23 2270.89,1526.23 2278.44,1526.23 2285.99,1526.23 2293.53,1526.23 2301.08,1526.23 2308.63,1526.23 2316.18,1526.23 2323.73,1526.23 2331.28,1526.23 2338.82,1526.23 2346.37,1526.23 2353.92,1526.23 2361.47,1526.23 2369.02,1526.23 2376.57,1526.23 2384.11,1526.23 2391.66,1526.23 2399.21,1526.23 2406.76,1526.23 2414.31,1526.23 2421.86,1526.23 2429.4,1526.23 2436.95,1526.23 2444.5,1526.23 2452.05,1526.23 2459.6,1526.23 2467.15,1526.23 2474.69,1526.23 2482.24,1526.23 2489.79,1526.23 2497.34,1526.23 2504.89,1526.23 2512.43,1526.23 2519.98,1526.23 2527.53,1526.23 2535.08,1526.23 2542.63,1526.23 2550.18,1526.23 2557.72,1526.23 2565.27,1526.23 2572.82,1526.23 "/>
<polyline clip-path="url(#clip061)" style="stroke:#ff0000; stroke-linecap:round; stroke-linejoin:round; stroke-width:8; stroke-opacity:1; fill:none" points="308.334,1688.65 315.883,1685.17 323.431,1680.49 330.979,1674.02 338.528,1664.94 346.076,1652.15 353.624,1634.14 361.172,1608.93 368.721,1573.97 376.269,1526.31 383.817,1462.85 391.366,1381.01 398.914,1280.07 406.462,1162.18 414.01,1033.26 421.559,902.047 429.107,778.283 436.655,669.555 444.204,580.047 451.752,510.208 459.3,458.096 466.848,420.368 474.397,393.628 481.945,375.164 489.493,362.411 497.042,353.715 504.59,347.841 512.138,343.842 519.686,341.168 527.235,339.371 534.783,338.15 542.331,337.339 549.88,336.797 557.428,336.424 564.976,336.178 572.524,336.018 580.073,335.906 587.621,335.829 595.169,335.78 602.718,335.749 610.266,335.726 617.814,335.709 625.363,335.699 632.911,335.693 640.459,335.69 648.007,335.686 655.556,335.683 663.104,335.681 670.652,335.681 678.201,335.681 685.749,335.681 693.297,335.681 700.845,335.68 708.394,335.679 715.942,335.679 723.49,335.679 731.039,335.679 738.587,335.68 746.135,335.68 753.683,335.68 761.232,335.679 768.78,335.678 776.328,335.677 783.877,335.677 791.425,335.677 798.973,335.678 806.521,335.68 814.07,335.681 821.618,335.682 829.166,335.681 836.715,335.678 844.263,335.672 851.811,335.668 859.36,335.665 866.908,335.665 874.456,335.669 882.004,335.675 889.553,335.682 897.101,335.689 904.649,335.694 912.198,335.693 919.746,335.68 927.294,335.66 934.842,335.64 942.391,335.629 949.939,335.629 957.487,335.641 965.036,335.664 972.584,335.693 980.132,335.719 987.68,335.733 995.229,335.721 1002.78,335.682 1010.33,335.637 1017.87,335.606 1025.42,335.598 1032.97,335.617 1040.52,335.658 1048.07,335.711 1055.62,335.755 1063.16,335.765 1070.71,335.726 1078.26,335.676 1085.81,335.638 1093.36,335.624 1100.9,335.638 1108.45,335.674 1116,335.718 1123.55,335.747 1131.1,335.734 1138.65,335.703 1146.19,335.677 1153.74,335.664 1161.29,335.667 1168.84,335.681 1176.39,335.701 1183.94,335.71 1191.48,335.7 1199.03,335.689 1206.58,335.681 1214.13,335.678 1221.68,335.68 1229.23,335.685 1236.77,335.688 1244.32,335.686 1251.87,335.683 1259.42,335.681 1266.97,335.68 1274.52,335.68 1282.06,335.681 1289.61,335.681 1297.16,335.681 1304.71,335.68 1312.26,335.68 1319.81,335.679 1327.35,335.679 1334.9,335.68 1342.45,335.68 1350,335.68 1357.55,335.68 1365.09,335.68 1372.64,335.679 1380.19,335.679 1387.74,335.679 1395.29,335.679 1402.84,335.679 1410.38,335.679 1417.93,335.679 1425.48,335.679 1433.03,335.679 1440.58,335.679 1448.13,335.679 1455.67,335.679 1463.22,335.679 1470.77,335.679 1478.32,335.679 1485.87,335.679 1493.42,335.679 1500.96,335.679 1508.51,335.679 1516.06,335.679 1523.61,335.679 1531.16,335.679 1538.71,335.679 1546.25,335.679 1553.8,335.679 1561.35,335.679 1568.9,335.679 1576.45,335.679 1584,335.679 1591.54,335.679 1599.09,335.679 1606.64,335.679 1614.19,335.679 1621.74,335.679 1629.29,335.679 1636.83,335.679 1644.38,335.679 1651.93,335.679 1659.48,335.679 1667.03,335.679 1674.57,335.679 1682.12,335.679 1689.67,335.679 1697.22,335.679 1704.77,335.679 1712.32,335.679 1719.86,335.679 1727.41,335.679 1734.96,335.679 1742.51,335.679 1750.06,335.679 1757.61,335.679 1765.15,335.679 1772.7,335.679 1780.25,335.679 1787.8,335.679 1795.35,335.679 1802.9,335.679 1810.44,335.679 1817.99,335.679 1825.54,335.679 1833.09,335.679 1840.64,335.679 1848.19,335.679 1855.73,335.679 1863.28,335.679 1870.83,335.679 1878.38,335.679 1885.93,335.679 1893.48,335.679 1901.02,335.679 1908.57,335.679 1916.12,335.679 1923.67,335.679 1931.22,335.679 1938.76,335.679 1946.31,335.679 1953.86,335.679 1961.41,335.679 1968.96,335.679 1976.51,335.679 1984.05,335.679 1991.6,335.679 1999.15,335.679 2006.7,335.679 2014.25,335.679 2021.8,335.679 2029.34,335.679 2036.89,335.679 2044.44,335.679 2051.99,335.679 2059.54,335.679 2067.09,335.679 2074.63,335.679 2082.18,335.679 2089.73,335.679 2097.28,335.679 2104.83,335.679 2112.38,335.679 2119.92,335.679 2127.47,335.679 2135.02,335.679 2142.57,335.679 2150.12,335.679 2157.67,335.679 2165.21,335.679 2172.76,335.679 2180.31,335.679 2187.86,335.679 2195.41,335.679 2202.96,335.679 2210.5,335.679 2218.05,335.679 2225.6,335.679 2233.15,335.679 2240.7,335.679 2248.24,335.679 2255.79,335.679 2263.34,335.679 2270.89,335.679 2278.44,335.679 2285.99,335.679 2293.53,335.679 2301.08,335.679 2308.63,335.679 2316.18,335.679 2323.73,335.679 2331.28,335.679 2338.82,335.679 2346.37,335.679 2353.92,335.679 2361.47,335.679 2369.02,335.679 2376.57,335.679 2384.11,335.679 2391.66,335.679 2399.21,335.679 2406.76,335.679 2414.31,335.679 2421.86,335.679 2429.4,335.679 2436.95,335.679 2444.5,335.679 2452.05,335.679 2459.6,335.679 2467.15,335.679 2474.69,335.679 2482.24,335.679 2489.79,335.679 2497.34,335.679 2504.89,335.679 2512.43,335.679 2519.98,335.679 2527.53,335.679 2535.08,335.679 2542.63,335.679 2550.18,335.679 2557.72,335.679 2565.27,335.679 2572.82,335.679 "/>
<path clip-path="url(#clip060)" d="M2296.38 336.856 L2560.74 336.856 L2560.74 181.336 L2296.38 181.336  Z" fill="#ffffff" fill-rule="evenodd" fill-opacity="1"/>
<polyline clip-path="url(#clip060)" style="stroke:#000000; stroke-linecap:round; stroke-linejoin:round; stroke-width:4; stroke-opacity:1; fill:none" points="2296.38,336.856 2560.74,336.856 2560.74,181.336 2296.38,181.336 2296.38,336.856 "/>
<polyline clip-path="url(#clip060)" style="stroke:#0000ff; stroke-linecap:round; stroke-linejoin:round; stroke-width:8; stroke-opacity:1; fill:none" points="2323.05,233.176 2483.07,233.176 "/>
<path clip-path="url(#clip060)" d="M2531.99 217.031 L2531.99 221.591 Q2529.33 220.318 2526.97 219.693 Q2524.61 219.068 2522.41 219.068 Q2518.59 219.068 2516.5 220.549 Q2514.44 222.031 2514.44 224.762 Q2514.44 227.054 2515.81 228.234 Q2517.2 229.392 2521.04 230.109 L2523.87 230.688 Q2529.1 231.683 2531.57 234.206 Q2534.07 236.706 2534.07 240.919 Q2534.07 245.942 2530.69 248.535 Q2527.34 251.128 2520.83 251.128 Q2518.38 251.128 2515.6 250.572 Q2512.85 250.016 2509.88 248.929 L2509.88 244.114 Q2512.73 245.711 2515.46 246.521 Q2518.19 247.331 2520.83 247.331 Q2524.84 247.331 2527.01 245.757 Q2529.19 244.183 2529.19 241.267 Q2529.19 238.72 2527.62 237.285 Q2526.06 235.85 2522.5 235.132 L2519.65 234.577 Q2514.42 233.535 2512.08 231.313 Q2509.74 229.091 2509.74 225.132 Q2509.74 220.549 2512.96 217.91 Q2516.2 215.271 2521.87 215.271 Q2524.3 215.271 2526.83 215.711 Q2529.35 216.151 2531.99 217.031 Z" fill="#000000" fill-rule="nonzero" fill-opacity="1" /><polyline clip-path="url(#clip060)" style="stroke:#ff0000; stroke-linecap:round; stroke-linejoin:round; stroke-width:8; stroke-opacity:1; fill:none" points="2323.05,285.016 2483.07,285.016 "/>
<path clip-path="url(#clip060)" d="M2509.74 267.736 L2514.42 267.736 L2514.42 302.296 L2509.74 302.296 L2509.74 267.736 Z" fill="#000000" fill-rule="nonzero" fill-opacity="1" /></svg>
