<?xml version="1.0" encoding="utf-8"?>
<svg xmlns="http://www.w3.org/2000/svg" xmlns:xlink="http://www.w3.org/1999/xlink" width="672" height="480" viewBox="0 0 2688 1920">
<defs>
  <clipPath id="clip140">
    <rect x="0" y="0" width="2688" height="1920"/>
  </clipPath>
</defs>
<path clip-path="url(#clip140)" d="M0 1920 L2688 1920 L2688 -4.26326e-14 L0 -4.26326e-14  Z" fill="#ffffff" fill-rule="evenodd" fill-opacity="1"/>
<defs>
  <clipPath id="clip141">
    <rect x="238" y="127" width="2403" height="1607"/>
  </clipPath>
</defs>
<path clip-path="url(#clip140)" d="M238.664 1734.12 L2640.76 1734.12 L2640.76 127.792 L238.664 127.792  Z" fill="#ffffff" fill-rule="evenodd" fill-opacity="1"/>
<polyline clip-path="url(#clip141)" style="stroke:#000000; stroke-linecap:round; stroke-linejoin:round; stroke-width:2; stroke-opacity:0.1; fill:none" points="306.647,1734.12 306.647,127.792 "/>
<polyline clip-path="url(#clip141)" style="stroke:#000000; stroke-linecap:round; stroke-linejoin:round; stroke-width:2; stroke-opacity:0.1; fill:none" points="873.179,1734.12 873.179,127.792 "/>
<polyline clip-path="url(#clip141)" style="stroke:#000000; stroke-linecap:round; stroke-linejoin:round; stroke-width:2; stroke-opacity:0.1; fill:none" points="1439.71,1734.12 1439.71,127.792 "/>
<polyline clip-path="url(#clip141)" style="stroke:#000000; stroke-linecap:round; stroke-linejoin:round; stroke-width:2; stroke-opacity:0.1; fill:none" points="2006.24,1734.12 2006.24,127.792 "/>
<polyline clip-path="url(#clip141)" style="stroke:#000000; stroke-linecap:round; stroke-linejoin:round; stroke-width:2; stroke-opacity:0.1; fill:none" points="2572.77,1734.12 2572.77,127.792 "/>
<polyline clip-path="url(#clip141)" style="stroke:#000000; stroke-linecap:round; stroke-linejoin:round; stroke-width:2; stroke-opacity:0.1; fill:none" points="238.664,1688.65 2640.76,1688.65 "/>
<polyline clip-path="url(#clip141)" style="stroke:#000000; stroke-linecap:round; stroke-linejoin:round; stroke-width:2; stroke-opacity:0.1; fill:none" points="238.664,1266.3 2640.76,1266.3 "/>
<polyline clip-path="url(#clip141)" style="stroke:#000000; stroke-linecap:round; stroke-linejoin:round; stroke-width:2; stroke-opacity:0.1; fill:none" points="238.664,843.95 2640.76,843.95 "/>
<polyline clip-path="url(#clip141)" style="stroke:#000000; stroke-linecap:round; stroke-linejoin:round; stroke-width:2; stroke-opacity:0.1; fill:none" points="238.664,421.598 2640.76,421.598 "/>
<polyline clip-path="url(#clip140)" style="stroke:#000000; stroke-linecap:round; stroke-linejoin:round; stroke-width:4; stroke-opacity:1; fill:none" points="238.664,1734.12 2640.76,1734.12 "/>
<polyline clip-path="url(#clip140)" style="stroke:#000000; stroke-linecap:round; stroke-linejoin:round; stroke-width:4; stroke-opacity:1; fill:none" points="306.647,1734.12 306.647,1715.22 "/>
<polyline clip-path="url(#clip140)" style="stroke:#000000; stroke-linecap:round; stroke-linejoin:round; stroke-width:4; stroke-opacity:1; fill:none" points="873.179,1734.12 873.179,1715.22 "/>
<polyline clip-path="url(#clip140)" style="stroke:#000000; stroke-linecap:round; stroke-linejoin:round; stroke-width:4; stroke-opacity:1; fill:none" points="1439.71,1734.12 1439.71,1715.22 "/>
<polyline clip-path="url(#clip140)" style="stroke:#000000; stroke-linecap:round; stroke-linejoin:round; stroke-width:4; stroke-opacity:1; fill:none" points="2006.24,1734.12 2006.24,1715.22 "/>
<polyline clip-path="url(#clip140)" style="stroke:#000000; stroke-linecap:round; stroke-linejoin:round; stroke-width:4; stroke-opacity:1; fill:none" points="2572.77,1734.12 2572.77,1715.22 "/>
<path clip-path="url(#clip140)" d="M306.647 1767.34 Q303.036 1767.34 301.208 1770.9 Q299.402 1774.45 299.402 1781.58 Q299.402 1788.68 301.208 1792.25 Q303.036 1795.79 306.647 1795.79 Q310.282 1795.79 312.087 1792.25 Q313.916 1788.68 313.916 1781.58 Q313.916 1774.45 312.087 1770.9 Q310.282 1767.34 306.647 1767.34 M306.647 1763.64 Q312.458 1763.64 315.513 1768.24 Q318.592 1772.83 318.592 1781.58 Q318.592 1790.3 315.513 1794.91 Q312.458 1799.49 306.647 1799.49 Q300.837 1799.49 297.759 1794.91 Q294.703 1790.3 294.703 1781.58 Q294.703 1772.83 297.759 1768.24 Q300.837 1763.64 306.647 1763.64 Z" fill="#000000" fill-rule="nonzero" fill-opacity="1" /><path clip-path="url(#clip140)" d="M852.45 1794.89 L868.769 1794.89 L868.769 1798.82 L846.825 1798.82 L846.825 1794.89 Q849.487 1792.13 854.07 1787.5 Q858.676 1782.85 859.857 1781.51 Q862.102 1778.98 862.982 1777.25 Q863.885 1775.49 863.885 1773.8 Q863.885 1771.04 861.94 1769.31 Q860.019 1767.57 856.917 1767.57 Q854.718 1767.57 852.264 1768.34 Q849.834 1769.1 847.056 1770.65 L847.056 1765.93 Q849.88 1764.79 852.334 1764.21 Q854.787 1763.64 856.824 1763.64 Q862.195 1763.64 865.389 1766.32 Q868.584 1769.01 868.584 1773.5 Q868.584 1775.63 867.774 1777.55 Q866.986 1779.45 864.88 1782.04 Q864.301 1782.71 861.199 1785.93 Q858.098 1789.12 852.45 1794.89 Z" fill="#000000" fill-rule="nonzero" fill-opacity="1" /><path clip-path="url(#clip140)" d="M878.63 1764.26 L896.986 1764.26 L896.986 1768.2 L882.912 1768.2 L882.912 1776.67 Q883.931 1776.32 884.949 1776.16 Q885.968 1775.97 886.986 1775.97 Q892.773 1775.97 896.153 1779.15 Q899.533 1782.32 899.533 1787.73 Q899.533 1793.31 896.06 1796.41 Q892.588 1799.49 886.269 1799.49 Q884.093 1799.49 881.824 1799.12 Q879.579 1798.75 877.172 1798.01 L877.172 1793.31 Q879.255 1794.45 881.477 1795 Q883.699 1795.56 886.176 1795.56 Q890.181 1795.56 892.519 1793.45 Q894.857 1791.34 894.857 1787.73 Q894.857 1784.12 892.519 1782.02 Q890.181 1779.91 886.176 1779.91 Q884.301 1779.91 882.426 1780.33 Q880.574 1780.74 878.63 1781.62 L878.63 1764.26 Z" fill="#000000" fill-rule="nonzero" fill-opacity="1" /><path clip-path="url(#clip140)" d="M1414.41 1764.26 L1432.77 1764.26 L1432.77 1768.2 L1418.69 1768.2 L1418.69 1776.67 Q1419.71 1776.32 1420.73 1776.16 Q1421.75 1775.97 1422.77 1775.97 Q1428.55 1775.97 1431.93 1779.15 Q1435.31 1782.32 1435.31 1787.73 Q1435.31 1793.31 1431.84 1796.41 Q1428.37 1799.49 1422.05 1799.49 Q1419.87 1799.49 1417.6 1799.12 Q1415.36 1798.75 1412.95 1798.01 L1412.95 1793.31 Q1415.03 1794.45 1417.26 1795 Q1419.48 1795.56 1421.96 1795.56 Q1425.96 1795.56 1428.3 1793.45 Q1430.64 1791.34 1430.64 1787.73 Q1430.64 1784.12 1428.3 1782.02 Q1425.96 1779.91 1421.96 1779.91 Q1420.08 1779.91 1418.21 1780.33 Q1416.35 1780.74 1414.41 1781.62 L1414.41 1764.26 Z" fill="#000000" fill-rule="nonzero" fill-opacity="1" /><path clip-path="url(#clip140)" d="M1454.52 1767.34 Q1450.91 1767.34 1449.08 1770.9 Q1447.28 1774.45 1447.28 1781.58 Q1447.28 1788.68 1449.08 1792.25 Q1450.91 1795.79 1454.52 1795.79 Q1458.16 1795.79 1459.96 1792.25 Q1461.79 1788.68 1461.79 1781.58 Q1461.79 1774.45 1459.96 1770.9 Q1458.16 1767.34 1454.52 1767.34 M1454.52 1763.64 Q1460.33 1763.64 1463.39 1768.24 Q1466.47 1772.83 1466.47 1781.58 Q1466.47 1790.3 1463.39 1794.91 Q1460.33 1799.49 1454.52 1799.49 Q1448.71 1799.49 1445.64 1794.91 Q1442.58 1790.3 1442.58 1781.58 Q1442.58 1772.83 1445.64 1768.24 Q1448.71 1763.64 1454.52 1763.64 Z" fill="#000000" fill-rule="nonzero" fill-opacity="1" /><path clip-path="url(#clip140)" d="M1980.1 1764.26 L2002.32 1764.26 L2002.32 1766.25 L1989.77 1798.82 L1984.89 1798.82 L1996.69 1768.2 L1980.1 1768.2 L1980.1 1764.26 Z" fill="#000000" fill-rule="nonzero" fill-opacity="1" /><path clip-path="url(#clip140)" d="M2011.48 1764.26 L2029.84 1764.26 L2029.84 1768.2 L2015.77 1768.2 L2015.77 1776.67 Q2016.78 1776.32 2017.8 1776.16 Q2018.82 1775.97 2019.84 1775.97 Q2025.63 1775.97 2029.01 1779.15 Q2032.39 1782.32 2032.39 1787.73 Q2032.39 1793.31 2028.91 1796.41 Q2025.44 1799.49 2019.12 1799.49 Q2016.95 1799.49 2014.68 1799.12 Q2012.43 1798.75 2010.03 1798.01 L2010.03 1793.31 Q2012.11 1794.45 2014.33 1795 Q2016.55 1795.56 2019.03 1795.56 Q2023.03 1795.56 2025.37 1793.45 Q2027.71 1791.34 2027.71 1787.73 Q2027.71 1784.12 2025.37 1782.02 Q2023.03 1779.91 2019.03 1779.91 Q2017.16 1779.91 2015.28 1780.33 Q2013.43 1780.74 2011.48 1781.62 L2011.48 1764.26 Z" fill="#000000" fill-rule="nonzero" fill-opacity="1" /><path clip-path="url(#clip140)" d="M2532.38 1794.89 L2540.02 1794.89 L2540.02 1768.52 L2531.71 1770.19 L2531.71 1765.93 L2539.97 1764.26 L2544.65 1764.26 L2544.65 1794.89 L2552.29 1794.89 L2552.29 1798.82 L2532.38 1798.82 L2532.38 1794.89 Z" fill="#000000" fill-rule="nonzero" fill-opacity="1" /><path clip-path="url(#clip140)" d="M2571.73 1767.34 Q2568.12 1767.34 2566.29 1770.9 Q2564.49 1774.45 2564.49 1781.58 Q2564.49 1788.68 2566.29 1792.25 Q2568.12 1795.79 2571.73 1795.79 Q2575.36 1795.79 2577.17 1792.25 Q2579 1788.68 2579 1781.58 Q2579 1774.45 2577.17 1770.9 Q2575.36 1767.34 2571.73 1767.34 M2571.73 1763.64 Q2577.54 1763.64 2580.6 1768.24 Q2583.67 1772.83 2583.67 1781.58 Q2583.67 1790.3 2580.6 1794.91 Q2577.54 1799.49 2571.73 1799.49 Q2565.92 1799.49 2562.84 1794.91 Q2559.79 1790.3 2559.79 1781.58 Q2559.79 1772.83 2562.84 1768.24 Q2565.92 1763.64 2571.73 1763.64 Z" fill="#000000" fill-rule="nonzero" fill-opacity="1" /><path clip-path="url(#clip140)" d="M2601.89 1767.34 Q2598.28 1767.34 2596.45 1770.9 Q2594.65 1774.45 2594.65 1781.58 Q2594.65 1788.68 2596.45 1792.25 Q2598.28 1795.79 2601.89 1795.79 Q2605.53 1795.79 2607.33 1792.25 Q2609.16 1788.68 2609.16 1781.58 Q2609.16 1774.45 2607.33 1770.9 Q2605.53 1767.34 2601.89 1767.34 M2601.89 1763.64 Q2607.7 1763.64 2610.76 1768.24 Q2613.84 1772.83 2613.84 1781.58 Q2613.84 1790.3 2610.76 1794.91 Q2607.7 1799.49 2601.89 1799.49 Q2596.08 1799.49 2593 1794.91 Q2589.95 1790.3 2589.95 1781.58 Q2589.95 1772.83 2593 1768.24 Q2596.08 1763.64 2601.89 1763.64 Z" fill="#000000" fill-rule="nonzero" fill-opacity="1" /><path clip-path="url(#clip140)" d="M1361.59 1835.78 L1401.79 1835.78 L1401.79 1841.19 L1384.92 1841.19 L1384.92 1883.3 L1378.46 1883.3 L1378.46 1841.19 L1361.59 1841.19 L1361.59 1835.78 Z" fill="#000000" fill-rule="nonzero" fill-opacity="1" /><path clip-path="url(#clip140)" d="M1405.73 1847.65 L1411.59 1847.65 L1411.59 1883.3 L1405.73 1883.3 L1405.73 1847.65 M1405.73 1833.78 L1411.59 1833.78 L1411.59 1841.19 L1405.73 1841.19 L1405.73 1833.78 Z" fill="#000000" fill-rule="nonzero" fill-opacity="1" /><path clip-path="url(#clip140)" d="M1451.6 1854.5 Q1453.79 1850.55 1456.85 1848.67 Q1459.9 1846.79 1464.04 1846.79 Q1469.61 1846.79 1472.64 1850.71 Q1475.66 1854.59 1475.66 1861.78 L1475.66 1883.3 L1469.77 1883.3 L1469.77 1861.98 Q1469.77 1856.85 1467.96 1854.37 Q1466.14 1851.89 1462.42 1851.89 Q1457.87 1851.89 1455.23 1854.91 Q1452.58 1857.93 1452.58 1863.15 L1452.58 1883.3 L1446.7 1883.3 L1446.7 1861.98 Q1446.7 1856.82 1444.88 1854.37 Q1443.07 1851.89 1439.28 1851.89 Q1434.79 1851.89 1432.15 1854.94 Q1429.51 1857.97 1429.51 1863.15 L1429.51 1883.3 L1423.62 1883.3 L1423.62 1847.65 L1429.51 1847.65 L1429.51 1853.19 Q1431.51 1849.91 1434.31 1848.35 Q1437.12 1846.79 1440.97 1846.79 Q1444.85 1846.79 1447.56 1848.77 Q1450.29 1850.74 1451.6 1854.5 Z" fill="#000000" fill-rule="nonzero" fill-opacity="1" /><path clip-path="url(#clip140)" d="M1517.83 1864.01 L1517.83 1866.88 L1490.91 1866.88 Q1491.29 1872.92 1494.53 1876.11 Q1497.81 1879.26 1503.64 1879.26 Q1507.01 1879.26 1510.16 1878.43 Q1513.35 1877.6 1516.46 1875.95 L1516.46 1881.49 Q1513.31 1882.82 1510 1883.52 Q1506.69 1884.22 1503.29 1884.22 Q1494.76 1884.22 1489.76 1879.26 Q1484.79 1874.29 1484.79 1865.83 Q1484.79 1857.07 1489.51 1851.95 Q1494.25 1846.79 1502.27 1846.79 Q1509.46 1846.79 1513.63 1851.44 Q1517.83 1856.06 1517.83 1864.01 M1511.98 1862.29 Q1511.91 1857.49 1509.27 1854.62 Q1506.66 1851.76 1502.33 1851.76 Q1497.43 1851.76 1494.47 1854.53 Q1491.54 1857.3 1491.1 1862.33 L1511.98 1862.29 Z" fill="#000000" fill-rule="nonzero" fill-opacity="1" /><polyline clip-path="url(#clip140)" style="stroke:#000000; stroke-linecap:round; stroke-linejoin:round; stroke-width:4; stroke-opacity:1; fill:none" points="238.664,1734.12 238.664,127.792 "/>
<polyline clip-path="url(#clip140)" style="stroke:#000000; stroke-linecap:round; stroke-linejoin:round; stroke-width:4; stroke-opacity:1; fill:none" points="238.664,1688.65 257.561,1688.65 "/>
<polyline clip-path="url(#clip140)" style="stroke:#000000; stroke-linecap:round; stroke-linejoin:round; stroke-width:4; stroke-opacity:1; fill:none" points="238.664,1266.3 257.561,1266.3 "/>
<polyline clip-path="url(#clip140)" style="stroke:#000000; stroke-linecap:round; stroke-linejoin:round; stroke-width:4; stroke-opacity:1; fill:none" points="238.664,843.95 257.561,843.95 "/>
<polyline clip-path="url(#clip140)" style="stroke:#000000; stroke-linecap:round; stroke-linejoin:round; stroke-width:4; stroke-opacity:1; fill:none" points="238.664,421.598 257.561,421.598 "/>
<path clip-path="url(#clip140)" d="M186.399 1674.45 Q182.788 1674.45 180.959 1678.02 Q179.154 1681.56 179.154 1688.69 Q179.154 1695.8 180.959 1699.36 Q182.788 1702.9 186.399 1702.9 Q190.033 1702.9 191.839 1699.36 Q193.668 1695.8 193.668 1688.69 Q193.668 1681.56 191.839 1678.02 Q190.033 1674.45 186.399 1674.45 M186.399 1670.75 Q192.209 1670.75 195.265 1675.36 Q198.344 1679.94 198.344 1688.69 Q198.344 1697.42 195.265 1702.02 Q192.209 1706.61 186.399 1706.61 Q180.589 1706.61 177.51 1702.02 Q174.455 1697.42 174.455 1688.69 Q174.455 1679.94 177.51 1675.36 Q180.589 1670.75 186.399 1670.75 Z" fill="#000000" fill-rule="nonzero" fill-opacity="1" /><path clip-path="url(#clip140)" d="M146.284 1249.02 L164.64 1249.02 L164.64 1252.96 L150.566 1252.96 L150.566 1261.43 Q151.585 1261.08 152.603 1260.92 Q153.622 1260.74 154.64 1260.74 Q160.427 1260.74 163.807 1263.91 Q167.186 1267.08 167.186 1272.49 Q167.186 1278.07 163.714 1281.18 Q160.242 1284.25 153.923 1284.25 Q151.747 1284.25 149.478 1283.88 Q147.233 1283.51 144.825 1282.77 L144.825 1278.07 Q146.909 1279.21 149.131 1279.76 Q151.353 1280.32 153.83 1280.32 Q157.835 1280.32 160.173 1278.21 Q162.51 1276.11 162.51 1272.49 Q162.51 1268.88 160.173 1266.78 Q157.835 1264.67 153.83 1264.67 Q151.955 1264.67 150.08 1265.09 Q148.228 1265.5 146.284 1266.38 L146.284 1249.02 Z" fill="#000000" fill-rule="nonzero" fill-opacity="1" /><path clip-path="url(#clip140)" d="M186.399 1252.1 Q182.788 1252.1 180.959 1255.67 Q179.154 1259.21 179.154 1266.34 Q179.154 1273.44 180.959 1277.01 Q182.788 1280.55 186.399 1280.55 Q190.033 1280.55 191.839 1277.01 Q193.668 1273.44 193.668 1266.34 Q193.668 1259.21 191.839 1255.67 Q190.033 1252.1 186.399 1252.1 M186.399 1248.4 Q192.209 1248.4 195.265 1253 Q198.344 1257.59 198.344 1266.34 Q198.344 1275.06 195.265 1279.67 Q192.209 1284.25 186.399 1284.25 Q180.589 1284.25 177.51 1279.67 Q174.455 1275.06 174.455 1266.34 Q174.455 1257.59 177.51 1253 Q180.589 1248.4 186.399 1248.4 Z" fill="#000000" fill-rule="nonzero" fill-opacity="1" /><path clip-path="url(#clip140)" d="M116.886 857.295 L124.525 857.295 L124.525 830.93 L116.214 832.596 L116.214 828.337 L124.478 826.67 L129.154 826.67 L129.154 857.295 L136.793 857.295 L136.793 861.23 L116.886 861.23 L116.886 857.295 Z" fill="#000000" fill-rule="nonzero" fill-opacity="1" /><path clip-path="url(#clip140)" d="M156.237 829.749 Q152.626 829.749 150.798 833.314 Q148.992 836.856 148.992 843.985 Q148.992 851.092 150.798 854.656 Q152.626 858.198 156.237 858.198 Q159.872 858.198 161.677 854.656 Q163.506 851.092 163.506 843.985 Q163.506 836.856 161.677 833.314 Q159.872 829.749 156.237 829.749 M156.237 826.045 Q162.048 826.045 165.103 830.652 Q168.182 835.235 168.182 843.985 Q168.182 852.712 165.103 857.318 Q162.048 861.902 156.237 861.902 Q150.427 861.902 147.349 857.318 Q144.293 852.712 144.293 843.985 Q144.293 835.235 147.349 830.652 Q150.427 826.045 156.237 826.045 Z" fill="#000000" fill-rule="nonzero" fill-opacity="1" /><path clip-path="url(#clip140)" d="M186.399 829.749 Q182.788 829.749 180.959 833.314 Q179.154 836.856 179.154 843.985 Q179.154 851.092 180.959 854.656 Q182.788 858.198 186.399 858.198 Q190.033 858.198 191.839 854.656 Q193.668 851.092 193.668 843.985 Q193.668 836.856 191.839 833.314 Q190.033 829.749 186.399 829.749 M186.399 826.045 Q192.209 826.045 195.265 830.652 Q198.344 835.235 198.344 843.985 Q198.344 852.712 195.265 857.318 Q192.209 861.902 186.399 861.902 Q180.589 861.902 177.51 857.318 Q174.455 852.712 174.455 843.985 Q174.455 835.235 177.51 830.652 Q180.589 826.045 186.399 826.045 Z" fill="#000000" fill-rule="nonzero" fill-opacity="1" /><path clip-path="url(#clip140)" d="M116.886 434.943 L124.525 434.943 L124.525 408.577 L116.214 410.244 L116.214 405.985 L124.478 404.318 L129.154 404.318 L129.154 434.943 L136.793 434.943 L136.793 438.878 L116.886 438.878 L116.886 434.943 Z" fill="#000000" fill-rule="nonzero" fill-opacity="1" /><path clip-path="url(#clip140)" d="M146.284 404.318 L164.64 404.318 L164.64 408.253 L150.566 408.253 L150.566 416.725 Q151.585 416.378 152.603 416.216 Q153.622 416.031 154.64 416.031 Q160.427 416.031 163.807 419.202 Q167.186 422.374 167.186 427.79 Q167.186 433.369 163.714 436.471 Q160.242 439.549 153.923 439.549 Q151.747 439.549 149.478 439.179 Q147.233 438.809 144.825 438.068 L144.825 433.369 Q146.909 434.503 149.131 435.059 Q151.353 435.614 153.83 435.614 Q157.835 435.614 160.173 433.508 Q162.51 431.401 162.51 427.79 Q162.51 424.179 160.173 422.073 Q157.835 419.966 153.83 419.966 Q151.955 419.966 150.08 420.383 Q148.228 420.799 146.284 421.679 L146.284 404.318 Z" fill="#000000" fill-rule="nonzero" fill-opacity="1" /><path clip-path="url(#clip140)" d="M186.399 407.397 Q182.788 407.397 180.959 410.962 Q179.154 414.503 179.154 421.633 Q179.154 428.739 180.959 432.304 Q182.788 435.846 186.399 435.846 Q190.033 435.846 191.839 432.304 Q193.668 428.739 193.668 421.633 Q193.668 414.503 191.839 410.962 Q190.033 407.397 186.399 407.397 M186.399 403.693 Q192.209 403.693 195.265 408.3 Q198.344 412.883 198.344 421.633 Q198.344 430.36 195.265 434.966 Q192.209 439.549 186.399 439.549 Q180.589 439.549 177.51 434.966 Q174.455 430.36 174.455 421.633 Q174.455 412.883 177.51 408.3 Q180.589 403.693 186.399 403.693 Z" fill="#000000" fill-rule="nonzero" fill-opacity="1" /><path clip-path="url(#clip140)" d="M14.1184 1055.09 L14.1184 1027.78 L19.5293 1027.78 L19.5293 1048.66 L33.5338 1048.66 L33.5338 1029.81 L38.9447 1029.81 L38.9447 1048.66 L61.6384 1048.66 L61.6384 1055.09 L14.1184 1055.09 Z" fill="#000000" fill-rule="nonzero" fill-opacity="1" /><path clip-path="url(#clip140)" d="M31.465 1001.93 Q30.8921 1002.92 30.6375 1004.1 Q30.351 1005.24 30.351 1006.64 Q30.351 1011.61 33.5975 1014.28 Q36.8122 1016.92 42.8596 1016.92 L61.6384 1016.92 L61.6384 1022.81 L25.9905 1022.81 L25.9905 1016.92 L31.5287 1016.92 Q28.2821 1015.08 26.7225 1012.12 Q25.1311 1009.16 25.1311 1004.92 Q25.1311 1004.32 25.2266 1003.59 Q25.2903 1002.86 25.4494 1001.96 L31.465 1001.93 Z" fill="#000000" fill-rule="nonzero" fill-opacity="1" /><path clip-path="url(#clip140)" d="M43.719 979.589 Q43.719 986.686 45.3422 989.424 Q46.9655 992.161 50.8804 992.161 Q53.9996 992.161 55.8457 990.124 Q57.6599 988.055 57.6599 984.522 Q57.6599 979.652 54.2224 976.724 Q50.7531 973.764 45.0239 973.764 L43.719 973.764 L43.719 979.589 M41.3 967.907 L61.6384 967.907 L61.6384 973.764 L56.2276 973.764 Q59.4741 975.769 61.0337 978.761 Q62.5615 981.753 62.5615 986.082 Q62.5615 991.556 59.5059 994.803 Q56.4186 998.017 51.2623 998.017 Q45.2467 998.017 42.1912 994.007 Q39.1357 989.965 39.1357 981.976 L39.1357 973.764 L38.5628 973.764 Q34.5205 973.764 32.3244 976.438 Q30.0964 979.079 30.0964 983.885 Q30.0964 986.941 30.8284 989.837 Q31.5605 992.734 33.0246 995.407 L27.6137 995.407 Q26.3724 992.193 25.7677 989.169 Q25.1311 986.145 25.1311 983.281 Q25.1311 975.546 29.1415 971.727 Q33.1519 967.907 41.3 967.907 Z" fill="#000000" fill-rule="nonzero" fill-opacity="1" /><path clip-path="url(#clip140)" d="M27.3591 930.191 L32.8336 930.191 Q31.465 932.673 30.7966 935.188 Q30.0964 937.67 30.0964 940.217 Q30.0964 945.914 33.7248 949.065 Q37.3214 952.216 43.8463 952.216 Q50.3711 952.216 53.9996 949.065 Q57.5962 945.914 57.5962 940.217 Q57.5962 937.67 56.9278 935.188 Q56.2276 932.673 54.859 930.191 L60.2698 930.191 Q61.4156 932.641 61.9886 935.283 Q62.5615 937.893 62.5615 940.853 Q62.5615 948.906 57.5007 953.648 Q52.44 958.391 43.8463 958.391 Q35.1253 958.391 30.1282 953.616 Q25.1311 948.81 25.1311 940.471 Q25.1311 937.766 25.704 935.188 Q26.2451 932.61 27.3591 930.191 Z" fill="#000000" fill-rule="nonzero" fill-opacity="1" /><path clip-path="url(#clip140)" d="M15.869 914.213 L25.9905 914.213 L25.9905 902.15 L30.542 902.15 L30.542 914.213 L49.8937 914.213 Q54.2542 914.213 55.4955 913.035 Q56.7368 911.826 56.7368 908.165 L56.7368 902.15 L61.6384 902.15 L61.6384 908.165 Q61.6384 914.945 59.124 917.523 Q56.5777 920.101 49.8937 920.101 L30.542 920.101 L30.542 924.398 L25.9905 924.398 L25.9905 920.101 L15.869 920.101 L15.869 914.213 Z" fill="#000000" fill-rule="nonzero" fill-opacity="1" /><path clip-path="url(#clip140)" d="M25.9905 894.447 L25.9905 888.591 L61.6384 888.591 L61.6384 894.447 L25.9905 894.447 M12.1132 894.447 L12.1132 888.591 L19.5293 888.591 L19.5293 894.447 L12.1132 894.447 Z" fill="#000000" fill-rule="nonzero" fill-opacity="1" /><path clip-path="url(#clip140)" d="M30.0964 862.523 Q30.0964 867.234 33.7885 869.971 Q37.4488 872.708 43.8463 872.708 Q50.2438 872.708 53.9359 870.003 Q57.5962 867.266 57.5962 862.523 Q57.5962 857.844 53.9041 855.107 Q50.212 852.37 43.8463 852.37 Q37.5124 852.37 33.8203 855.107 Q30.0964 857.844 30.0964 862.523 M25.1311 862.523 Q25.1311 854.884 30.0964 850.524 Q35.0616 846.163 43.8463 846.163 Q52.5991 846.163 57.5962 850.524 Q62.5615 854.884 62.5615 862.523 Q62.5615 870.194 57.5962 874.554 Q52.5991 878.883 43.8463 878.883 Q35.0616 878.883 30.0964 874.554 Q25.1311 870.194 25.1311 862.523 Z" fill="#000000" fill-rule="nonzero" fill-opacity="1" /><path clip-path="url(#clip140)" d="M40.1224 806.823 L61.6384 806.823 L61.6384 812.68 L40.3133 812.68 Q35.2526 812.68 32.7381 814.653 Q30.2237 816.626 30.2237 820.573 Q30.2237 825.316 33.2474 828.053 Q36.2711 830.79 41.491 830.79 L61.6384 830.79 L61.6384 836.678 L25.9905 836.678 L25.9905 830.79 L31.5287 830.79 Q28.314 828.689 26.7225 825.857 Q25.1311 822.992 25.1311 819.268 Q25.1311 813.125 28.9505 809.974 Q32.7381 806.823 40.1224 806.823 Z" fill="#000000" fill-rule="nonzero" fill-opacity="1" /><path clip-path="url(#clip140)" d="M774.531 12.096 L825.694 12.096 L825.694 18.9825 L804.224 18.9825 L804.224 72.576 L796.001 72.576 L796.001 18.9825 L774.531 18.9825 L774.531 12.096 Z" fill="#000000" fill-rule="nonzero" fill-opacity="1" /><path clip-path="url(#clip140)" d="M815.202 27.2059 L822.656 27.2059 L831.973 62.6108 L841.249 27.2059 L850.04 27.2059 L859.357 62.6108 L868.634 27.2059 L876.087 27.2059 L864.218 72.576 L855.428 72.576 L845.665 35.3887 L835.862 72.576 L827.071 72.576 L815.202 27.2059 Z" fill="#000000" fill-rule="nonzero" fill-opacity="1" /><path clip-path="url(#clip140)" d="M904.97 32.4315 Q898.975 32.4315 895.491 37.1306 Q892.007 41.7891 892.007 49.9314 Q892.007 58.0738 895.451 62.7728 Q898.934 67.4314 904.97 67.4314 Q910.925 67.4314 914.409 62.7323 Q917.893 58.0333 917.893 49.9314 Q917.893 41.8701 914.409 37.1711 Q910.925 32.4315 904.97 32.4315 M904.97 26.1121 Q914.692 26.1121 920.242 32.4315 Q925.792 38.7509 925.792 49.9314 Q925.792 61.0714 920.242 67.4314 Q914.692 73.7508 904.97 73.7508 Q895.207 73.7508 889.658 67.4314 Q884.149 61.0714 884.149 49.9314 Q884.149 38.7509 889.658 32.4315 Q895.207 26.1121 904.97 26.1121 Z" fill="#000000" fill-rule="nonzero" fill-opacity="1" /><path clip-path="url(#clip140)" d="M935.919 46.5287 L957.753 46.5287 L957.753 53.1722 L935.919 53.1722 L935.919 46.5287 Z" fill="#000000" fill-rule="nonzero" fill-opacity="1" /><path clip-path="url(#clip140)" d="M998.546 28.5427 L998.546 35.5912 Q995.386 33.9709 991.984 33.1607 Q988.581 32.3505 984.935 32.3505 Q979.385 32.3505 976.59 34.0519 Q973.836 35.7533 973.836 39.156 Q973.836 41.7486 975.82 43.2475 Q977.805 44.7058 983.801 46.0426 L986.353 46.6097 Q994.293 48.3111 997.614 51.4303 Q1000.98 54.509 1000.98 60.0587 Q1000.98 66.3781 995.953 70.0644 Q990.971 73.7508 982.221 73.7508 Q978.575 73.7508 974.605 73.0216 Q970.676 72.3329 966.301 70.9151 L966.301 63.2184 Q970.433 65.3654 974.443 66.4591 Q978.454 67.5124 982.383 67.5124 Q987.649 67.5124 990.485 65.73 Q993.32 63.9071 993.32 60.6258 Q993.32 57.5877 991.254 55.9673 Q989.229 54.3469 982.302 52.8481 L979.709 52.2405 Q972.782 50.7821 969.704 47.7845 Q966.625 44.7463 966.625 39.4801 Q966.625 33.0797 971.162 29.5959 Q975.699 26.1121 984.044 26.1121 Q988.176 26.1121 991.822 26.7198 Q995.467 27.3274 998.546 28.5427 Z" fill="#000000" fill-rule="nonzero" fill-opacity="1" /><path clip-path="url(#clip140)" d="M1020.22 14.324 L1020.22 27.2059 L1035.57 27.2059 L1035.57 32.9987 L1020.22 32.9987 L1020.22 57.6282 Q1020.22 63.1779 1021.72 64.7578 Q1023.26 66.3376 1027.92 66.3376 L1035.57 66.3376 L1035.57 72.576 L1027.92 72.576 Q1019.29 72.576 1016.01 69.3758 Q1012.72 66.1351 1012.72 57.6282 L1012.72 32.9987 L1007.26 32.9987 L1007.26 27.2059 L1012.72 27.2059 L1012.72 14.324 L1020.22 14.324 Z" fill="#000000" fill-rule="nonzero" fill-opacity="1" /><path clip-path="url(#clip140)" d="M1065.99 49.7694 Q1056.96 49.7694 1053.48 51.8354 Q1049.99 53.9013 1049.99 58.8839 Q1049.99 62.8538 1052.59 65.2034 Q1055.22 67.5124 1059.71 67.5124 Q1065.91 67.5124 1069.64 63.1374 Q1073.41 58.7219 1073.41 51.4303 L1073.41 49.7694 L1065.99 49.7694 M1080.86 46.6907 L1080.86 72.576 L1073.41 72.576 L1073.41 65.6895 Q1070.85 69.8214 1067.05 71.8063 Q1063.24 73.7508 1057.73 73.7508 Q1050.76 73.7508 1046.63 69.8619 Q1042.54 65.9325 1042.54 59.3701 Q1042.54 51.7138 1047.64 47.825 Q1052.79 43.9361 1062.96 43.9361 L1073.41 43.9361 L1073.41 43.2069 Q1073.41 38.0623 1070 35.2672 Q1066.64 32.4315 1060.52 32.4315 Q1056.64 32.4315 1052.95 33.3632 Q1049.26 34.295 1045.86 36.1584 L1045.86 29.2718 Q1049.95 27.692 1053.8 26.9223 Q1057.65 26.1121 1061.29 26.1121 Q1071.14 26.1121 1076 31.2163 Q1080.86 36.3204 1080.86 46.6907 Z" fill="#000000" fill-rule="nonzero" fill-opacity="1" /><path clip-path="url(#clip140)" d="M1126.07 49.3643 Q1126.07 41.2625 1122.71 36.8065 Q1119.38 32.3505 1113.35 32.3505 Q1107.35 32.3505 1103.99 36.8065 Q1100.67 41.2625 1100.67 49.3643 Q1100.67 57.4256 1103.99 61.8816 Q1107.35 66.3376 1113.35 66.3376 Q1119.38 66.3376 1122.71 61.8816 Q1126.07 57.4256 1126.07 49.3643 M1133.52 66.9452 Q1133.52 78.5308 1128.38 84.1616 Q1123.23 89.8329 1112.62 89.8329 Q1108.69 89.8329 1105.21 89.2252 Q1101.72 88.6581 1098.44 87.4428 L1098.44 80.1917 Q1101.72 81.9741 1104.92 82.8248 Q1108.12 83.6755 1111.44 83.6755 Q1118.78 83.6755 1122.42 79.8271 Q1126.07 76.0193 1126.07 68.282 L1126.07 64.5957 Q1123.76 68.6061 1120.15 70.5911 Q1116.55 72.576 1111.53 72.576 Q1103.18 72.576 1098.08 66.2161 Q1092.97 59.8562 1092.97 49.3643 Q1092.97 38.832 1098.08 32.472 Q1103.18 26.1121 1111.53 26.1121 Q1116.55 26.1121 1120.15 28.0971 Q1123.76 30.082 1126.07 34.0924 L1126.07 27.2059 L1133.52 27.2059 L1133.52 66.9452 Z" fill="#000000" fill-rule="nonzero" fill-opacity="1" /><path clip-path="url(#clip140)" d="M1187.68 48.0275 L1187.68 51.6733 L1153.41 51.6733 Q1153.9 59.3701 1158.03 63.421 Q1162.2 67.4314 1169.62 67.4314 Q1173.91 67.4314 1177.92 66.3781 Q1181.97 65.3249 1185.94 63.2184 L1185.94 70.267 Q1181.93 71.9684 1177.72 72.8596 Q1173.5 73.7508 1169.17 73.7508 Q1158.31 73.7508 1151.95 67.4314 Q1145.63 61.1119 1145.63 50.3365 Q1145.63 39.1965 1151.63 32.6746 Q1157.67 26.1121 1167.87 26.1121 Q1177.03 26.1121 1182.34 32.0264 Q1187.68 37.9003 1187.68 48.0275 M1180.23 45.84 Q1180.15 39.7232 1176.79 36.0774 Q1173.46 32.4315 1167.95 32.4315 Q1161.72 32.4315 1157.95 35.9558 Q1154.22 39.4801 1153.66 45.8805 L1180.23 45.84 Z" fill="#000000" fill-rule="nonzero" fill-opacity="1" /><path clip-path="url(#clip140)" d="M1262.87 14.0809 L1262.87 22.0612 Q1258.21 19.8332 1254.08 18.7395 Q1249.95 17.6457 1246.1 17.6457 Q1239.41 17.6457 1235.77 20.2383 Q1232.16 22.8309 1232.16 27.611 Q1232.16 31.6214 1234.55 33.6873 Q1236.98 35.7128 1243.71 36.9686 L1248.65 37.9813 Q1257.8 39.7232 1262.14 44.1387 Q1266.51 48.5136 1266.51 55.8863 Q1266.51 64.6767 1260.6 69.2137 Q1254.73 73.7508 1243.34 73.7508 Q1239.05 73.7508 1234.19 72.7785 Q1229.37 71.8063 1224.18 69.9024 L1224.18 61.4765 Q1229.16 64.2716 1233.94 65.6895 Q1238.72 67.1073 1243.34 67.1073 Q1250.35 67.1073 1254.16 64.3527 Q1257.97 61.598 1257.97 56.4939 Q1257.97 52.0379 1255.21 49.5264 Q1252.5 47.0148 1246.26 45.759 L1241.28 44.7868 Q1232.12 42.9639 1228.03 39.075 Q1223.94 35.1862 1223.94 28.2591 Q1223.94 20.2383 1229.57 15.6203 Q1235.24 11.0023 1245.17 11.0023 Q1249.42 11.0023 1253.83 11.7719 Q1258.25 12.5416 1262.87 14.0809 Z" fill="#000000" fill-rule="nonzero" fill-opacity="1" /><path clip-path="url(#clip140)" d="M1279.27 12.096 L1287.46 12.096 L1287.46 72.576 L1279.27 72.576 L1279.27 12.096 Z" fill="#000000" fill-rule="nonzero" fill-opacity="1" /><path clip-path="url(#clip140)" d="M1332.42 44.2197 Q1335.05 45.1109 1337.53 48.0275 Q1340.04 50.9442 1342.55 56.0483 L1350.85 72.576 L1342.06 72.576 L1334.33 57.061 Q1331.33 50.9847 1328.49 48.9997 Q1325.7 47.0148 1320.84 47.0148 L1311.92 47.0148 L1311.92 72.576 L1303.74 72.576 L1303.74 12.096 L1322.21 12.096 Q1332.58 12.096 1337.69 16.4305 Q1342.79 20.7649 1342.79 29.5149 Q1342.79 35.2267 1340.12 38.994 Q1337.49 42.7613 1332.42 44.2197 M1311.92 18.8205 L1311.92 40.2903 L1322.21 40.2903 Q1328.13 40.2903 1331.13 37.5762 Q1334.16 34.8216 1334.16 29.5149 Q1334.16 24.2082 1331.13 21.5346 Q1328.13 18.8205 1322.21 18.8205 L1311.92 18.8205 Z" fill="#000000" fill-rule="nonzero" fill-opacity="1" /><path clip-path="url(#clip140)" d="M1360.41 62.2867 L1368.96 62.2867 L1368.96 72.576 L1360.41 72.576 L1360.41 62.2867 M1360.41 29.6769 L1368.96 29.6769 L1368.96 39.9662 L1360.41 39.9662 L1360.41 29.6769 Z" fill="#000000" fill-rule="nonzero" fill-opacity="1" /><path clip-path="url(#clip140)" d="M1413.16 12.096 L1421.34 12.096 L1421.34 72.576 L1413.16 72.576 L1413.16 12.096 Z" fill="#000000" fill-rule="nonzero" fill-opacity="1" /><path clip-path="url(#clip140)" d="M1475.01 45.1919 L1475.01 72.576 L1467.56 72.576 L1467.56 45.4349 Q1467.56 38.994 1465.05 35.7938 Q1462.54 32.5936 1457.51 32.5936 Q1451.48 32.5936 1447.99 36.4419 Q1444.51 40.2903 1444.51 46.9338 L1444.51 72.576 L1437.02 72.576 L1437.02 27.2059 L1444.51 27.2059 L1444.51 34.2544 Q1447.18 30.163 1450.79 28.1376 Q1454.43 26.1121 1459.17 26.1121 Q1466.99 26.1121 1471 30.9732 Q1475.01 35.7938 1475.01 45.1919 Z" fill="#000000" fill-rule="nonzero" fill-opacity="1" /><path clip-path="url(#clip140)" d="M1519.74 34.0924 L1519.74 9.54393 L1527.19 9.54393 L1527.19 72.576 L1519.74 72.576 L1519.74 65.7705 Q1517.39 69.8214 1513.78 71.8063 Q1510.22 73.7508 1505.19 73.7508 Q1496.97 73.7508 1491.78 67.1883 Q1486.64 60.6258 1486.64 49.9314 Q1486.64 39.2371 1491.78 32.6746 Q1496.97 26.1121 1505.19 26.1121 Q1510.22 26.1121 1513.78 28.0971 Q1517.39 30.0415 1519.74 34.0924 M1494.34 49.9314 Q1494.34 58.1548 1497.7 62.8538 Q1501.1 67.5124 1507.02 67.5124 Q1512.93 67.5124 1516.33 62.8538 Q1519.74 58.1548 1519.74 49.9314 Q1519.74 41.7081 1516.33 37.0496 Q1512.93 32.3505 1507.02 32.3505 Q1501.1 32.3505 1497.7 37.0496 Q1494.34 41.7081 1494.34 49.9314 Z" fill="#000000" fill-rule="nonzero" fill-opacity="1" /><path clip-path="url(#clip140)" d="M1542.54 27.2059 L1550 27.2059 L1550 72.576 L1542.54 72.576 L1542.54 27.2059 M1542.54 9.54393 L1550 9.54393 L1550 18.9825 L1542.54 18.9825 L1542.54 9.54393 Z" fill="#000000" fill-rule="nonzero" fill-opacity="1" /><path clip-path="url(#clip140)" d="M1560.24 27.2059 L1568.14 27.2059 L1582.32 65.2844 L1596.5 27.2059 L1604.4 27.2059 L1587.39 72.576 L1577.26 72.576 L1560.24 27.2059 Z" fill="#000000" fill-rule="nonzero" fill-opacity="1" /><path clip-path="url(#clip140)" d="M1614.69 27.2059 L1622.14 27.2059 L1622.14 72.576 L1614.69 72.576 L1614.69 27.2059 M1614.69 9.54393 L1622.14 9.54393 L1622.14 18.9825 L1614.69 18.9825 L1614.69 9.54393 Z" fill="#000000" fill-rule="nonzero" fill-opacity="1" /><path clip-path="url(#clip140)" d="M1667.59 34.0924 L1667.59 9.54393 L1675.05 9.54393 L1675.05 72.576 L1667.59 72.576 L1667.59 65.7705 Q1665.24 69.8214 1661.64 71.8063 Q1658.07 73.7508 1653.05 73.7508 Q1644.83 73.7508 1639.64 67.1883 Q1634.5 60.6258 1634.5 49.9314 Q1634.5 39.2371 1639.64 32.6746 Q1644.83 26.1121 1653.05 26.1121 Q1658.07 26.1121 1661.64 28.0971 Q1665.24 30.0415 1667.59 34.0924 M1642.19 49.9314 Q1642.19 58.1548 1645.56 62.8538 Q1648.96 67.5124 1654.87 67.5124 Q1660.79 67.5124 1664.19 62.8538 Q1667.59 58.1548 1667.59 49.9314 Q1667.59 41.7081 1664.19 37.0496 Q1660.79 32.3505 1654.87 32.3505 Q1648.96 32.3505 1645.56 37.0496 Q1642.19 41.7081 1642.19 49.9314 Z" fill="#000000" fill-rule="nonzero" fill-opacity="1" /><path clip-path="url(#clip140)" d="M1689.63 54.671 L1689.63 27.2059 L1697.08 27.2059 L1697.08 54.3874 Q1697.08 60.8284 1699.6 64.0691 Q1702.11 67.2693 1707.13 67.2693 Q1713.17 67.2693 1716.65 63.421 Q1720.17 59.5726 1720.17 52.9291 L1720.17 27.2059 L1727.63 27.2059 L1727.63 72.576 L1720.17 72.576 L1720.17 65.6084 Q1717.46 69.7404 1713.85 71.7658 Q1710.29 73.7508 1705.55 73.7508 Q1697.73 73.7508 1693.68 68.8897 Q1689.63 64.0286 1689.63 54.671 M1708.39 26.1121 L1708.39 26.1121 Z" fill="#000000" fill-rule="nonzero" fill-opacity="1" /><path clip-path="url(#clip140)" d="M1763.6 49.7694 Q1754.57 49.7694 1751.08 51.8354 Q1747.6 53.9013 1747.6 58.8839 Q1747.6 62.8538 1750.19 65.2034 Q1752.82 67.5124 1757.32 67.5124 Q1763.52 67.5124 1767.25 63.1374 Q1771.01 58.7219 1771.01 51.4303 L1771.01 49.7694 L1763.6 49.7694 M1778.47 46.6907 L1778.47 72.576 L1771.01 72.576 L1771.01 65.6895 Q1768.46 69.8214 1764.65 71.8063 Q1760.85 73.7508 1755.34 73.7508 Q1748.37 73.7508 1744.24 69.8619 Q1740.15 65.9325 1740.15 59.3701 Q1740.15 51.7138 1745.25 47.825 Q1750.39 43.9361 1760.56 43.9361 L1771.01 43.9361 L1771.01 43.2069 Q1771.01 38.0623 1767.61 35.2672 Q1764.25 32.4315 1758.13 32.4315 Q1754.24 32.4315 1750.56 33.3632 Q1746.87 34.295 1743.47 36.1584 L1743.47 29.2718 Q1747.56 27.692 1751.41 26.9223 Q1755.25 26.1121 1758.9 26.1121 Q1768.74 26.1121 1773.61 31.2163 Q1778.47 36.3204 1778.47 46.6907 Z" fill="#000000" fill-rule="nonzero" fill-opacity="1" /><path clip-path="url(#clip140)" d="M1793.82 9.54393 L1801.27 9.54393 L1801.27 72.576 L1793.82 72.576 L1793.82 9.54393 Z" fill="#000000" fill-rule="nonzero" fill-opacity="1" /><path clip-path="url(#clip140)" d="M1872.16 28.5427 L1872.16 35.5912 Q1869 33.9709 1865.6 33.1607 Q1862.2 32.3505 1858.55 32.3505 Q1853 32.3505 1850.21 34.0519 Q1847.45 35.7533 1847.45 39.156 Q1847.45 41.7486 1849.44 43.2475 Q1851.42 44.7058 1857.42 46.0426 L1859.97 46.6097 Q1867.91 48.3111 1871.23 51.4303 Q1874.59 54.509 1874.59 60.0587 Q1874.59 66.3781 1869.57 70.0644 Q1864.59 73.7508 1855.84 73.7508 Q1852.19 73.7508 1848.22 73.0216 Q1844.29 72.3329 1839.92 70.9151 L1839.92 63.2184 Q1844.05 65.3654 1848.06 66.4591 Q1852.07 67.5124 1856 67.5124 Q1861.27 67.5124 1864.1 65.73 Q1866.94 63.9071 1866.94 60.6258 Q1866.94 57.5877 1864.87 55.9673 Q1862.85 54.3469 1855.92 52.8481 L1853.33 52.2405 Q1846.4 50.7821 1843.32 47.7845 Q1840.24 44.7463 1840.24 39.4801 Q1840.24 33.0797 1844.78 29.5959 Q1849.32 26.1121 1857.66 26.1121 Q1861.79 26.1121 1865.44 26.7198 Q1869.09 27.3274 1872.16 28.5427 Z" fill="#000000" fill-rule="nonzero" fill-opacity="1" /><path clip-path="url(#clip140)" d="M1893.84 14.324 L1893.84 27.2059 L1909.19 27.2059 L1909.19 32.9987 L1893.84 32.9987 L1893.84 57.6282 Q1893.84 63.1779 1895.34 64.7578 Q1896.87 66.3376 1901.53 66.3376 L1909.19 66.3376 L1909.19 72.576 L1901.53 72.576 Q1892.9 72.576 1889.62 69.3758 Q1886.34 66.1351 1886.34 57.6282 L1886.34 32.9987 L1880.87 32.9987 L1880.87 27.2059 L1886.34 27.2059 L1886.34 14.324 L1893.84 14.324 Z" fill="#000000" fill-rule="nonzero" fill-opacity="1" /><path clip-path="url(#clip140)" d="M1939.61 49.7694 Q1930.58 49.7694 1927.09 51.8354 Q1923.61 53.9013 1923.61 58.8839 Q1923.61 62.8538 1926.2 65.2034 Q1928.84 67.5124 1933.33 67.5124 Q1939.53 67.5124 1943.26 63.1374 Q1947.02 58.7219 1947.02 51.4303 L1947.02 49.7694 L1939.61 49.7694 M1954.48 46.6907 L1954.48 72.576 L1947.02 72.576 L1947.02 65.6895 Q1944.47 69.8214 1940.66 71.8063 Q1936.86 73.7508 1931.35 73.7508 Q1924.38 73.7508 1920.25 69.8619 Q1916.16 65.9325 1916.16 59.3701 Q1916.16 51.7138 1921.26 47.825 Q1926.41 43.9361 1936.57 43.9361 L1947.02 43.9361 L1947.02 43.2069 Q1947.02 38.0623 1943.62 35.2672 Q1940.26 32.4315 1934.14 32.4315 Q1930.25 32.4315 1926.57 33.3632 Q1922.88 34.295 1919.48 36.1584 L1919.48 29.2718 Q1923.57 27.692 1927.42 26.9223 Q1931.27 26.1121 1934.91 26.1121 Q1944.76 26.1121 1949.62 31.2163 Q1954.48 36.3204 1954.48 46.6907 Z" fill="#000000" fill-rule="nonzero" fill-opacity="1" /><path clip-path="url(#clip140)" d="M1999.69 49.3643 Q1999.69 41.2625 1996.32 36.8065 Q1993 32.3505 1986.97 32.3505 Q1980.97 32.3505 1977.61 36.8065 Q1974.29 41.2625 1974.29 49.3643 Q1974.29 57.4256 1977.61 61.8816 Q1980.97 66.3376 1986.97 66.3376 Q1993 66.3376 1996.32 61.8816 Q1999.69 57.4256 1999.69 49.3643 M2007.14 66.9452 Q2007.14 78.5308 2002 84.1616 Q1996.85 89.8329 1986.24 89.8329 Q1982.31 89.8329 1978.82 89.2252 Q1975.34 88.6581 1972.06 87.4428 L1972.06 80.1917 Q1975.34 81.9741 1978.54 82.8248 Q1981.74 83.6755 1985.06 83.6755 Q1992.39 83.6755 1996.04 79.8271 Q1999.69 76.0193 1999.69 68.282 L1999.69 64.5957 Q1997.38 68.6061 1993.77 70.5911 Q1990.17 72.576 1985.14 72.576 Q1976.8 72.576 1971.69 66.2161 Q1966.59 59.8562 1966.59 49.3643 Q1966.59 38.832 1971.69 32.472 Q1976.8 26.1121 1985.14 26.1121 Q1990.17 26.1121 1993.77 28.0971 Q1997.38 30.082 1999.69 34.0924 L1999.69 27.2059 L2007.14 27.2059 L2007.14 66.9452 Z" fill="#000000" fill-rule="nonzero" fill-opacity="1" /><path clip-path="url(#clip140)" d="M2061.3 48.0275 L2061.3 51.6733 L2027.03 51.6733 Q2027.52 59.3701 2031.65 63.421 Q2035.82 67.4314 2043.23 67.4314 Q2047.53 67.4314 2051.54 66.3781 Q2055.59 65.3249 2059.56 63.2184 L2059.56 70.267 Q2055.55 71.9684 2051.34 72.8596 Q2047.12 73.7508 2042.79 73.7508 Q2031.93 73.7508 2025.57 67.4314 Q2019.25 61.1119 2019.25 50.3365 Q2019.25 39.1965 2025.25 32.6746 Q2031.28 26.1121 2041.49 26.1121 Q2050.65 26.1121 2055.95 32.0264 Q2061.3 37.9003 2061.3 48.0275 M2053.85 45.84 Q2053.77 39.7232 2050.4 36.0774 Q2047.08 32.4315 2041.57 32.4315 Q2035.33 32.4315 2031.57 35.9558 Q2027.84 39.4801 2027.27 45.8805 L2053.85 45.84 Z" fill="#000000" fill-rule="nonzero" fill-opacity="1" /><path clip-path="url(#clip140)" d="M2102.46 28.5427 L2102.46 35.5912 Q2099.3 33.9709 2095.9 33.1607 Q2092.49 32.3505 2088.85 32.3505 Q2083.3 32.3505 2080.5 34.0519 Q2077.75 35.7533 2077.75 39.156 Q2077.75 41.7486 2079.73 43.2475 Q2081.72 44.7058 2087.71 46.0426 L2090.26 46.6097 Q2098.2 48.3111 2101.53 51.4303 Q2104.89 54.509 2104.89 60.0587 Q2104.89 66.3781 2099.87 70.0644 Q2094.88 73.7508 2086.13 73.7508 Q2082.49 73.7508 2078.52 73.0216 Q2074.59 72.3329 2070.21 70.9151 L2070.21 63.2184 Q2074.34 65.3654 2078.36 66.4591 Q2082.37 67.5124 2086.29 67.5124 Q2091.56 67.5124 2094.4 65.73 Q2097.23 63.9071 2097.23 60.6258 Q2097.23 57.5877 2095.17 55.9673 Q2093.14 54.3469 2086.21 52.8481 L2083.62 52.2405 Q2076.69 50.7821 2073.62 47.7845 Q2070.54 44.7463 2070.54 39.4801 Q2070.54 33.0797 2075.07 29.5959 Q2079.61 26.1121 2087.96 26.1121 Q2092.09 26.1121 2095.73 26.7198 Q2099.38 27.3274 2102.46 28.5427 Z" fill="#000000" fill-rule="nonzero" fill-opacity="1" /><polyline clip-path="url(#clip141)" style="stroke:#ffa500; stroke-linecap:round; stroke-linejoin:round; stroke-width:8; stroke-opacity:1; fill:none" points="306.647,1680.21 317.978,1676.25 329.309,1670.73 340.639,1662.81 351.97,1651.34 363.3,1634.66 374.631,1610.47 385.962,1575.69 397.292,1526.46 408.623,1458.5 419.954,1368.14 431.284,1254.23 442.615,1120.4 453.945,976.526 465.276,837.421 476.607,718.047 487.937,628.825 499.268,572.82 510.599,547.173 521.929,545.852 533.26,562.396 544.59,590.69 555.921,626.459 567.252,666.412 578.582,708.421 589.913,751.01 601.244,793.266 612.574,834.612 623.905,874.703 635.235,913.346 646.566,950.44 657.897,985.952 669.227,1019.88 680.558,1052.27 691.889,1083.14 703.219,1112.55 714.55,1140.57 725.88,1167.24 737.211,1192.63 748.542,1216.79 759.872,1239.78 771.203,1261.65 782.534,1282.47 793.864,1302.27 805.195,1321.1 816.525,1339.03 827.856,1356.07 839.187,1372.29 850.517,1387.72 861.848,1402.39 873.179,1416.35 884.509,1429.63 895.84,1442.26 907.17,1454.28 918.501,1465.71 929.832,1476.58 941.162,1486.92 952.493,1496.76 963.824,1506.12 975.154,1515.02 986.485,1523.49 997.815,1531.55 1009.15,1539.21 1020.48,1546.5 1031.81,1553.43 1043.14,1560.03 1054.47,1566.3 1065.8,1572.27 1077.13,1577.94 1088.46,1583.34 1099.79,1588.48 1111.12,1593.36 1122.45,1598.01 1133.78,1602.43 1145.11,1606.64 1156.44,1610.64 1167.77,1614.44 1179.11,1618.06 1190.44,1621.5 1201.77,1624.78 1213.1,1627.89 1224.43,1630.86 1235.76,1633.68 1247.09,1636.36 1258.42,1638.91 1269.75,1641.33 1281.08,1643.64 1292.41,1645.84 1303.74,1647.93 1315.07,1649.91 1326.4,1651.8 1337.73,1653.6 1349.06,1655.31 1360.4,1656.93 1371.73,1658.48 1383.06,1659.95 1394.39,1661.35 1405.72,1662.69 1417.05,1663.95 1428.38,1665.16 1439.71,1666.3 1451.04,1667.39 1462.37,1668.43 1473.7,1669.42 1485.03,1670.35 1496.36,1671.25 1507.69,1672.09 1519.02,1672.9 1530.35,1673.67 1541.69,1674.4 1553.02,1675.1 1564.35,1675.76 1575.68,1676.39 1587.01,1676.99 1598.34,1677.56 1609.67,1678.1 1621,1678.61 1632.33,1679.1 1643.66,1679.57 1654.99,1680.01 1666.32,1680.43 1677.65,1680.83 1688.98,1681.21 1700.31,1681.58 1711.64,1681.92 1722.98,1682.25 1734.31,1682.56 1745.64,1682.86 1756.97,1683.14 1768.3,1683.41 1779.63,1683.67 1790.96,1683.91 1802.29,1684.14 1813.62,1684.36 1824.95,1684.57 1836.28,1684.77 1847.61,1684.96 1858.94,1685.14 1870.27,1685.31 1881.6,1685.47 1892.93,1685.63 1904.27,1685.78 1915.6,1685.92 1926.93,1686.05 1938.26,1686.18 1949.59,1686.3 1960.92,1686.41 1972.25,1686.52 1983.58,1686.63 1994.91,1686.73 2006.24,1686.82 2017.57,1686.91 2028.9,1686.99 2040.23,1687.08 2051.56,1687.15 2062.89,1687.23 2074.22,1687.3 2085.56,1687.36 2096.89,1687.43 2108.22,1687.49 2119.55,1687.54 2130.88,1687.6 2142.21,1687.65 2153.54,1687.7 2164.87,1687.74 2176.2,1687.79 2187.53,1687.83 2198.86,1687.87 2210.19,1687.91 2221.52,1687.95 2232.85,1687.98 2244.18,1688.01 2255.51,1688.04 2266.85,1688.07 2278.18,1688.1 2289.51,1688.13 2300.84,1688.15 2312.17,1688.18 2323.5,1688.2 2334.83,1688.22 2346.16,1688.25 2357.49,1688.27 2368.82,1688.28 2380.15,1688.3 2391.48,1688.32 2402.81,1688.34 2414.14,1688.35 2425.47,1688.37 2436.8,1688.38 2448.14,1688.39 2459.47,1688.41 2470.8,1688.42 2482.13,1688.43 2493.46,1688.44 2504.79,1688.45 2516.12,1688.46 2527.45,1688.47 2538.78,1688.48 2550.11,1688.49 2561.44,1688.5 2572.77,1688.5 "/>
<polyline clip-path="url(#clip141)" style="stroke:#ff0000; stroke-linecap:round; stroke-linejoin:round; stroke-width:8; stroke-opacity:1; fill:none" points="306.647,1688.65 317.978,1688.15 329.309,1687.44 340.639,1686.44 351.97,1685.03 363.3,1683 374.631,1680.08 385.962,1675.88 397.292,1669.85 408.623,1661.27 419.954,1649.26 431.284,1632.84 442.615,1611.15 453.945,1583.69 465.276,1550.6 476.607,1512.78 487.937,1471.7 499.268,1429.08 510.599,1386.59 521.929,1345.53 533.26,1306.87 544.59,1271.22 555.921,1238.88 567.252,1209.99 578.582,1184.5 589.913,1162.33 601.244,1143.31 612.574,1127.26 623.905,1113.98 635.235,1103.27 646.566,1094.92 657.897,1088.76 669.227,1084.58 680.558,1082.23 691.889,1081.53 703.219,1082.34 714.55,1084.51 725.88,1087.9 737.211,1092.4 748.542,1097.89 759.872,1104.26 771.203,1111.41 782.534,1119.25 793.864,1127.7 805.195,1136.68 816.525,1146.12 827.856,1155.95 839.187,1166.12 850.517,1176.55 861.848,1187.22 873.179,1198.06 884.509,1209.03 895.84,1220.1 907.17,1231.24 918.501,1242.4 929.832,1253.56 941.162,1264.69 952.493,1275.77 963.824,1286.78 975.154,1297.7 986.485,1308.51 997.815,1319.2 1009.15,1329.74 1020.48,1340.14 1031.81,1350.37 1043.14,1360.44 1054.47,1370.33 1065.8,1380.03 1077.13,1389.55 1088.46,1398.87 1099.79,1408 1111.12,1416.92 1122.45,1425.64 1133.78,1434.16 1145.11,1442.47 1156.44,1450.57 1167.77,1458.47 1179.11,1466.17 1190.44,1473.66 1201.77,1480.96 1213.1,1488.05 1224.43,1494.94 1235.76,1501.64 1247.09,1508.15 1258.42,1514.46 1269.75,1520.59 1281.08,1526.54 1292.41,1532.3 1303.74,1537.89 1315.07,1543.31 1326.4,1548.55 1337.73,1553.63 1349.06,1558.55 1360.4,1563.31 1371.73,1567.92 1383.06,1572.37 1394.39,1576.68 1405.72,1580.84 1417.05,1584.86 1428.38,1588.75 1439.71,1592.5 1451.04,1596.13 1462.37,1599.63 1473.7,1603.01 1485.03,1606.27 1496.36,1609.42 1507.69,1612.46 1519.02,1615.39 1530.35,1618.21 1541.69,1620.93 1553.02,1623.56 1564.35,1626.09 1575.68,1628.52 1587.01,1630.87 1598.34,1633.14 1609.67,1635.32 1621,1637.42 1632.33,1639.44 1643.66,1641.38 1654.99,1643.26 1666.32,1645.06 1677.65,1646.8 1688.98,1648.46 1700.31,1650.07 1711.64,1651.62 1722.98,1653.1 1734.31,1654.53 1745.64,1655.91 1756.97,1657.23 1768.3,1658.5 1779.63,1659.72 1790.96,1660.89 1802.29,1662.02 1813.62,1663.11 1824.95,1664.15 1836.28,1665.15 1847.61,1666.11 1858.94,1667.03 1870.27,1667.92 1881.6,1668.77 1892.93,1669.59 1904.27,1670.38 1915.6,1671.13 1926.93,1671.86 1938.26,1672.55 1949.59,1673.22 1960.92,1673.86 1972.25,1674.48 1983.58,1675.07 1994.91,1675.63 2006.24,1676.18 2017.57,1676.7 2028.9,1677.2 2040.23,1677.68 2051.56,1678.14 2062.89,1678.58 2074.22,1679 2085.56,1679.41 2096.89,1679.8 2108.22,1680.17 2119.55,1680.53 2130.88,1680.87 2142.21,1681.2 2153.54,1681.52 2164.87,1681.82 2176.2,1682.11 2187.53,1682.39 2198.86,1682.65 2210.19,1682.91 2221.52,1683.15 2232.85,1683.39 2244.18,1683.61 2255.51,1683.83 2266.85,1684.04 2278.18,1684.23 2289.51,1684.42 2300.84,1684.6 2312.17,1684.78 2323.5,1684.94 2334.83,1685.1 2346.16,1685.26 2357.49,1685.4 2368.82,1685.54 2380.15,1685.68 2391.48,1685.81 2402.81,1685.93 2414.14,1686.05 2425.47,1686.16 2436.8,1686.27 2448.14,1686.37 2459.47,1686.47 2470.8,1686.56 2482.13,1686.65 2493.46,1686.74 2504.79,1686.82 2516.12,1686.9 2527.45,1686.98 2538.78,1687.05 2550.11,1687.12 2561.44,1687.19 2572.77,1687.25 "/>
<polyline clip-path="url(#clip141)" style="stroke:#800080; stroke-linecap:round; stroke-linejoin:round; stroke-width:8; stroke-opacity:1; fill:none" stroke-dasharray="32, 20" points="306.647,1680.21 317.978,1675.75 329.309,1669.52 340.639,1660.6 351.97,1647.72 363.3,1629.01 374.631,1601.9 385.962,1562.92 397.292,1507.65 408.623,1431.12 419.954,1328.75 431.284,1198.41 442.615,1042.9 453.945,871.561 465.276,699.37 476.607,542.176 487.937,411.865 499.268,313.244 510.599,245.103 521.929,202.732 533.26,180.608 544.59,173.254 555.921,176.686 567.252,187.743 578.582,204.268 589.913,224.686 601.244,247.923 612.574,273.218 623.905,300.027 635.235,327.957 646.566,356.707 657.897,386.052 669.227,415.811 680.558,445.84 691.889,476.016 703.219,506.239 714.55,536.421 725.88,566.488 737.211,596.374 748.542,626.022 759.872,655.381 771.203,684.408 782.534,713.065 793.864,741.316 805.195,769.134 816.525,796.493 827.856,823.371 839.187,849.751 850.517,875.615 861.848,900.953 873.179,925.752 884.509,950.007 895.84,973.711 907.17,996.86 918.501,1019.45 929.832,1041.48 941.162,1062.96 952.493,1083.88 963.824,1104.25 975.154,1124.07 986.485,1143.35 997.815,1162.09 1009.15,1180.29 1020.48,1197.98 1031.81,1215.15 1043.14,1231.81 1054.47,1247.97 1065.8,1263.64 1077.13,1278.84 1088.46,1293.56 1099.79,1307.82 1111.12,1321.63 1122.45,1335 1133.78,1347.93 1145.11,1360.45 1156.44,1372.55 1167.77,1384.26 1179.11,1395.58 1190.44,1406.51 1201.77,1417.08 1213.1,1427.29 1224.43,1437.14 1235.76,1446.66 1247.09,1455.85 1258.42,1464.71 1269.75,1473.27 1281.08,1481.52 1292.41,1489.48 1303.74,1497.16 1315.07,1504.56 1326.4,1511.7 1337.73,1518.58 1349.06,1525.21 1360.4,1531.59 1371.73,1537.74 1383.06,1543.67 1394.39,1549.37 1405.72,1554.87 1417.05,1560.16 1428.38,1565.25 1439.71,1570.15 1451.04,1574.87 1462.37,1579.4 1473.7,1583.77 1485.03,1587.97 1496.36,1592.01 1507.69,1595.9 1519.02,1599.63 1530.35,1603.23 1541.69,1606.68 1553.02,1610 1564.35,1613.19 1575.68,1616.26 1587.01,1619.21 1598.34,1622.04 1609.67,1624.76 1621,1627.37 1632.33,1629.88 1643.66,1632.3 1654.99,1634.61 1666.32,1636.84 1677.65,1638.97 1688.98,1641.02 1700.31,1642.99 1711.64,1644.88 1722.98,1646.7 1734.31,1648.44 1745.64,1650.11 1756.97,1651.72 1768.3,1653.25 1779.63,1654.73 1790.96,1656.15 1802.29,1657.51 1813.62,1658.81 1824.95,1660.06 1836.28,1661.26 1847.61,1662.42 1858.94,1663.52 1870.27,1664.58 1881.6,1665.59 1892.93,1666.57 1904.27,1667.5 1915.6,1668.4 1926.93,1669.25 1938.26,1670.08 1949.59,1670.86 1960.92,1671.62 1972.25,1672.34 1983.58,1673.04 1994.91,1673.7 2006.24,1674.34 2017.57,1674.95 2028.9,1675.54 2040.23,1676.1 2051.56,1676.63 2062.89,1677.15 2074.22,1677.64 2085.56,1678.12 2096.89,1678.57 2108.22,1679 2119.55,1679.42 2130.88,1679.81 2142.21,1680.19 2153.54,1680.56 2164.87,1680.91 2176.2,1681.24 2187.53,1681.56 2198.86,1681.87 2210.19,1682.16 2221.52,1682.44 2232.85,1682.71 2244.18,1682.97 2255.51,1683.22 2266.85,1683.45 2278.18,1683.68 2289.51,1683.9 2300.84,1684.1 2312.17,1684.3 2323.5,1684.49 2334.83,1684.67 2346.16,1684.85 2357.49,1685.01 2368.82,1685.17 2380.15,1685.32 2391.48,1685.47 2402.81,1685.61 2414.14,1685.74 2425.47,1685.87 2436.8,1685.99 2448.14,1686.11 2459.47,1686.22 2470.8,1686.33 2482.13,1686.43 2493.46,1686.53 2504.79,1686.62 2516.12,1686.71 2527.45,1686.8 2538.78,1686.88 2550.11,1686.96 2561.44,1687.03 2572.77,1687.1 "/>
<path clip-path="url(#clip140)" d="M1879.51 388.696 L2560.69 388.696 L2560.69 181.336 L1879.51 181.336  Z" fill="#ffffff" fill-rule="evenodd" fill-opacity="1"/>
<polyline clip-path="url(#clip140)" style="stroke:#000000; stroke-linecap:round; stroke-linejoin:round; stroke-width:4; stroke-opacity:1; fill:none" points="1879.51,388.696 2560.69,388.696 2560.69,181.336 1879.51,181.336 1879.51,388.696 "/>
<polyline clip-path="url(#clip140)" style="stroke:#ffa500; stroke-linecap:round; stroke-linejoin:round; stroke-width:8; stroke-opacity:1; fill:none" points="1906.2,233.176 2066.34,233.176 "/>
<path clip-path="url(#clip140)" d="M2093.03 215.896 L2097.7 215.896 L2097.7 250.456 L2093.03 250.456 L2093.03 215.896 Z" fill="#000000" fill-rule="nonzero" fill-opacity="1" /><path clip-path="url(#clip140)" d="M2105.97 247.91 L2110.69 247.91 L2110.69 233.767 L2105.53 234.716 L2105.53 232.03 L2110.85 231.128 L2114.02 231.128 L2114.02 247.91 L2118.77 247.91 L2118.77 250.456 L2105.97 250.456 L2105.97 247.91 Z" fill="#000000" fill-rule="nonzero" fill-opacity="1" /><path clip-path="url(#clip140)" d="M2151.13 214.484 Q2148.03 219.808 2146.52 225.017 Q2145.02 230.225 2145.02 235.572 Q2145.02 240.919 2146.52 246.174 Q2148.05 251.405 2151.13 256.706 L2147.42 256.706 Q2143.95 251.266 2142.22 246.012 Q2140.5 240.757 2140.5 235.572 Q2140.5 230.41 2142.22 225.179 Q2143.93 219.947 2147.42 214.484 L2151.13 214.484 Z" fill="#000000" fill-rule="nonzero" fill-opacity="1" /><path clip-path="url(#clip140)" d="M2181.57 236.429 L2181.57 238.512 L2161.98 238.512 Q2162.26 242.91 2164.62 245.225 Q2167.01 247.516 2171.24 247.516 Q2173.7 247.516 2175.99 246.915 Q2178.3 246.313 2180.57 245.109 L2180.57 249.137 Q2178.28 250.109 2175.87 250.618 Q2173.47 251.128 2170.99 251.128 Q2164.79 251.128 2161.15 247.516 Q2157.54 243.905 2157.54 237.748 Q2157.54 231.382 2160.97 227.655 Q2164.41 223.906 2170.25 223.906 Q2175.48 223.906 2178.51 227.285 Q2181.57 230.642 2181.57 236.429 M2177.31 235.179 Q2177.26 231.683 2175.34 229.6 Q2173.44 227.517 2170.29 227.517 Q2166.73 227.517 2164.58 229.53 Q2162.45 231.544 2162.12 235.202 L2177.31 235.179 Z" fill="#000000" fill-rule="nonzero" fill-opacity="1" /><path clip-path="url(#clip140)" d="M2200.34 237.424 Q2195.18 237.424 2193.19 238.604 Q2191.2 239.785 2191.2 242.632 Q2191.2 244.901 2192.68 246.243 Q2194.18 247.563 2196.75 247.563 Q2200.29 247.563 2202.42 245.063 Q2204.58 242.54 2204.58 238.373 L2204.58 237.424 L2200.34 237.424 M2208.84 235.665 L2208.84 250.456 L2204.58 250.456 L2204.58 246.521 Q2203.12 248.882 2200.94 250.016 Q2198.77 251.128 2195.62 251.128 Q2191.64 251.128 2189.28 248.905 Q2186.94 246.66 2186.94 242.91 Q2186.94 238.535 2189.85 236.313 Q2192.79 234.091 2198.6 234.091 L2204.58 234.091 L2204.58 233.674 Q2204.58 230.734 2202.63 229.137 Q2200.71 227.517 2197.22 227.517 Q2194.99 227.517 2192.89 228.049 Q2190.78 228.581 2188.84 229.646 L2188.84 225.711 Q2191.17 224.808 2193.37 224.368 Q2195.57 223.906 2197.66 223.906 Q2203.28 223.906 2206.06 226.822 Q2208.84 229.739 2208.84 235.665 Z" fill="#000000" fill-rule="nonzero" fill-opacity="1" /><path clip-path="url(#clip140)" d="M2232.63 228.512 Q2231.91 228.095 2231.06 227.91 Q2230.22 227.702 2229.21 227.702 Q2225.6 227.702 2223.65 230.063 Q2221.73 232.401 2221.73 236.799 L2221.73 250.456 L2217.45 250.456 L2217.45 224.531 L2221.73 224.531 L2221.73 228.558 Q2223.07 226.197 2225.22 225.063 Q2227.38 223.906 2230.46 223.906 Q2230.9 223.906 2231.43 223.975 Q2231.96 224.021 2232.61 224.137 L2232.63 228.512 Z" fill="#000000" fill-rule="nonzero" fill-opacity="1" /><path clip-path="url(#clip140)" d="M2237.1 214.438 L2241.36 214.438 L2241.36 250.456 L2237.1 250.456 L2237.1 214.438 Z" fill="#000000" fill-rule="nonzero" fill-opacity="1" /><path clip-path="url(#clip140)" d="M2261.06 252.864 Q2259.25 257.493 2257.54 258.905 Q2255.83 260.317 2252.96 260.317 L2249.55 260.317 L2249.55 256.753 L2252.05 256.753 Q2253.81 256.753 2254.78 255.919 Q2255.76 255.086 2256.94 251.984 L2257.7 250.04 L2247.22 224.531 L2251.73 224.531 L2259.83 244.808 L2267.93 224.531 L2272.45 224.531 L2261.06 252.864 Z" fill="#000000" fill-rule="nonzero" fill-opacity="1" /><path clip-path="url(#clip140)" d="M2293.4 224.531 L2297.65 224.531 L2297.65 250.456 L2293.4 250.456 L2293.4 224.531 M2293.4 214.438 L2297.65 214.438 L2297.65 219.831 L2293.4 219.831 L2293.4 214.438 Z" fill="#000000" fill-rule="nonzero" fill-opacity="1" /><path clip-path="url(#clip140)" d="M2328.12 234.808 L2328.12 250.456 L2323.86 250.456 L2323.86 234.947 Q2323.86 231.267 2322.42 229.438 Q2320.99 227.609 2318.12 227.609 Q2314.67 227.609 2312.68 229.808 Q2310.69 232.007 2310.69 235.804 L2310.69 250.456 L2306.4 250.456 L2306.4 224.531 L2310.69 224.531 L2310.69 228.558 Q2312.22 226.22 2314.28 225.063 Q2316.36 223.906 2319.07 223.906 Q2323.53 223.906 2325.83 226.683 Q2328.12 229.438 2328.12 234.808 Z" fill="#000000" fill-rule="nonzero" fill-opacity="1" /><path clip-path="url(#clip140)" d="M2349.74 214.438 L2349.74 217.98 L2345.66 217.98 Q2343.37 217.98 2342.47 218.906 Q2341.59 219.831 2341.59 222.239 L2341.59 224.531 L2348.6 224.531 L2348.6 227.841 L2341.59 227.841 L2341.59 250.456 L2337.31 250.456 L2337.31 227.841 L2333.23 227.841 L2333.23 224.531 L2337.31 224.531 L2337.31 222.725 Q2337.31 218.396 2339.32 216.429 Q2341.34 214.438 2345.71 214.438 L2349.74 214.438 Z" fill="#000000" fill-rule="nonzero" fill-opacity="1" /><path clip-path="url(#clip140)" d="M2375.48 236.429 L2375.48 238.512 L2355.9 238.512 Q2356.17 242.91 2358.53 245.225 Q2360.92 247.516 2365.15 247.516 Q2367.61 247.516 2369.9 246.915 Q2372.21 246.313 2374.48 245.109 L2374.48 249.137 Q2372.19 250.109 2369.78 250.618 Q2367.38 251.128 2364.9 251.128 Q2358.7 251.128 2355.06 247.516 Q2351.45 243.905 2351.45 237.748 Q2351.45 231.382 2354.88 227.655 Q2358.33 223.906 2364.16 223.906 Q2369.39 223.906 2372.42 227.285 Q2375.48 230.642 2375.48 236.429 M2371.22 235.179 Q2371.17 231.683 2369.25 229.6 Q2367.35 227.517 2364.21 227.517 Q2360.64 227.517 2358.49 229.53 Q2356.36 231.544 2356.03 235.202 L2371.22 235.179 Z" fill="#000000" fill-rule="nonzero" fill-opacity="1" /><path clip-path="url(#clip140)" d="M2401.13 225.526 L2401.13 229.507 Q2399.32 228.512 2397.49 228.026 Q2395.69 227.517 2393.83 227.517 Q2389.69 227.517 2387.4 230.155 Q2385.11 232.771 2385.11 237.517 Q2385.11 242.262 2387.4 244.901 Q2389.69 247.516 2393.83 247.516 Q2395.69 247.516 2397.49 247.03 Q2399.32 246.521 2401.13 245.526 L2401.13 249.461 Q2399.34 250.294 2397.42 250.711 Q2395.52 251.128 2393.37 251.128 Q2387.52 251.128 2384.07 247.447 Q2380.62 243.767 2380.62 237.517 Q2380.62 231.174 2384.09 227.54 Q2387.58 223.906 2393.65 223.906 Q2395.62 223.906 2397.49 224.322 Q2399.37 224.716 2401.13 225.526 Z" fill="#000000" fill-rule="nonzero" fill-opacity="1" /><path clip-path="url(#clip140)" d="M2412.75 217.169 L2412.75 224.531 L2421.52 224.531 L2421.52 227.841 L2412.75 227.841 L2412.75 241.915 Q2412.75 245.086 2413.6 245.989 Q2414.48 246.891 2417.15 246.891 L2421.52 246.891 L2421.52 250.456 L2417.15 250.456 Q2412.21 250.456 2410.34 248.628 Q2408.46 246.776 2408.46 241.915 L2408.46 227.841 L2405.34 227.841 L2405.34 224.531 L2408.46 224.531 L2408.46 217.169 L2412.75 217.169 Z" fill="#000000" fill-rule="nonzero" fill-opacity="1" /><path clip-path="url(#clip140)" d="M2427.12 224.531 L2431.38 224.531 L2431.38 250.456 L2427.12 250.456 L2427.12 224.531 M2427.12 214.438 L2431.38 214.438 L2431.38 219.831 L2427.12 219.831 L2427.12 214.438 Z" fill="#000000" fill-rule="nonzero" fill-opacity="1" /><path clip-path="url(#clip140)" d="M2450.34 227.517 Q2446.91 227.517 2444.92 230.202 Q2442.93 232.864 2442.93 237.517 Q2442.93 242.169 2444.9 244.854 Q2446.89 247.516 2450.34 247.516 Q2453.74 247.516 2455.73 244.831 Q2457.72 242.146 2457.72 237.517 Q2457.72 232.91 2455.73 230.225 Q2453.74 227.517 2450.34 227.517 M2450.34 223.906 Q2455.89 223.906 2459.07 227.517 Q2462.24 231.128 2462.24 237.517 Q2462.24 243.882 2459.07 247.516 Q2455.89 251.128 2450.34 251.128 Q2444.76 251.128 2441.59 247.516 Q2438.44 243.882 2438.44 237.517 Q2438.44 231.128 2441.59 227.517 Q2444.76 223.906 2450.34 223.906 Z" fill="#000000" fill-rule="nonzero" fill-opacity="1" /><path clip-path="url(#clip140)" d="M2468.86 240.225 L2468.86 224.531 L2473.12 224.531 L2473.12 240.063 Q2473.12 243.743 2474.55 245.595 Q2475.99 247.424 2478.86 247.424 Q2482.31 247.424 2484.3 245.225 Q2486.31 243.026 2486.31 239.229 L2486.31 224.531 L2490.57 224.531 L2490.57 250.456 L2486.31 250.456 L2486.31 246.475 Q2484.76 248.836 2482.7 249.993 Q2480.66 251.128 2477.95 251.128 Q2473.49 251.128 2471.17 248.35 Q2468.86 245.572 2468.86 240.225 M2479.58 223.906 L2479.58 223.906 Z" fill="#000000" fill-rule="nonzero" fill-opacity="1" /><path clip-path="url(#clip140)" d="M2515.87 225.294 L2515.87 229.322 Q2514.07 228.396 2512.12 227.933 Q2510.18 227.47 2508.09 227.47 Q2504.92 227.47 2503.33 228.443 Q2501.75 229.415 2501.75 231.359 Q2501.75 232.841 2502.89 233.697 Q2504.02 234.53 2507.45 235.294 L2508.9 235.618 Q2513.44 236.591 2515.34 238.373 Q2517.26 240.132 2517.26 243.304 Q2517.26 246.915 2514.39 249.021 Q2511.54 251.128 2506.54 251.128 Q2504.46 251.128 2502.19 250.711 Q2499.95 250.317 2497.45 249.507 L2497.45 245.109 Q2499.81 246.336 2502.1 246.961 Q2504.39 247.563 2506.64 247.563 Q2509.64 247.563 2511.26 246.544 Q2512.89 245.503 2512.89 243.628 Q2512.89 241.892 2511.7 240.966 Q2510.55 240.04 2506.59 239.183 L2505.11 238.836 Q2501.15 238.003 2499.39 236.29 Q2497.63 234.554 2497.63 231.544 Q2497.63 227.887 2500.22 225.896 Q2502.82 223.906 2507.58 223.906 Q2509.95 223.906 2512.03 224.253 Q2514.11 224.6 2515.87 225.294 Z" fill="#000000" fill-rule="nonzero" fill-opacity="1" /><path clip-path="url(#clip140)" d="M2523.37 214.484 L2527.07 214.484 Q2530.55 219.947 2532.26 225.179 Q2534 230.41 2534 235.572 Q2534 240.757 2532.26 246.012 Q2530.55 251.266 2527.07 256.706 L2523.37 256.706 Q2526.45 251.405 2527.95 246.174 Q2529.48 240.919 2529.48 235.572 Q2529.48 230.225 2527.95 225.017 Q2526.45 219.808 2523.37 214.484 Z" fill="#000000" fill-rule="nonzero" fill-opacity="1" /><polyline clip-path="url(#clip140)" style="stroke:#ff0000; stroke-linecap:round; stroke-linejoin:round; stroke-width:8; stroke-opacity:1; fill:none" points="1906.2,285.016 2066.34,285.016 "/>
<path clip-path="url(#clip140)" d="M2093.03 267.736 L2097.7 267.736 L2097.7 302.296 L2093.03 302.296 L2093.03 267.736 Z" fill="#000000" fill-rule="nonzero" fill-opacity="1" /><path clip-path="url(#clip140)" d="M2108.56 299.657 L2118.37 299.657 L2118.37 302.296 L2104.53 302.296 L2104.53 299.75 Q2105.32 299.032 2106.78 297.736 Q2114.74 290.676 2114.74 288.5 Q2114.74 286.972 2113.54 286.046 Q2112.33 285.097 2110.36 285.097 Q2109.16 285.097 2107.75 285.514 Q2106.34 285.907 2104.67 286.718 L2104.67 283.87 Q2106.45 283.222 2107.98 282.898 Q2109.53 282.574 2110.85 282.574 Q2114.21 282.574 2116.22 284.102 Q2118.23 285.63 2118.23 288.13 Q2118.23 291.347 2110.57 297.921 Q2109.28 299.032 2108.56 299.657 Z" fill="#000000" fill-rule="nonzero" fill-opacity="1" /><path clip-path="url(#clip140)" d="M2151.13 266.324 Q2148.03 271.648 2146.52 276.857 Q2145.02 282.065 2145.02 287.412 Q2145.02 292.759 2146.52 298.014 Q2148.05 303.245 2151.13 308.546 L2147.42 308.546 Q2143.95 303.106 2142.22 297.852 Q2140.5 292.597 2140.5 287.412 Q2140.5 282.25 2142.22 277.019 Q2143.93 271.787 2147.42 266.324 L2151.13 266.324 Z" fill="#000000" fill-rule="nonzero" fill-opacity="1" /><path clip-path="url(#clip140)" d="M2159.39 266.278 L2163.65 266.278 L2163.65 302.296 L2159.39 302.296 L2159.39 266.278 Z" fill="#000000" fill-rule="nonzero" fill-opacity="1" /><path clip-path="url(#clip140)" d="M2184.35 289.264 Q2179.18 289.264 2177.19 290.444 Q2175.2 291.625 2175.2 294.472 Q2175.2 296.741 2176.68 298.083 Q2178.19 299.403 2180.76 299.403 Q2184.3 299.403 2186.43 296.903 Q2188.58 294.38 2188.58 290.213 L2188.58 289.264 L2184.35 289.264 M2192.84 287.505 L2192.84 302.296 L2188.58 302.296 L2188.58 298.361 Q2187.12 300.722 2184.95 301.856 Q2182.77 302.968 2179.62 302.968 Q2175.64 302.968 2173.28 300.745 Q2170.94 298.5 2170.94 294.75 Q2170.94 290.375 2173.86 288.153 Q2176.8 285.931 2182.61 285.931 L2188.58 285.931 L2188.58 285.514 Q2188.58 282.574 2186.64 280.977 Q2184.72 279.357 2181.22 279.357 Q2179 279.357 2176.89 279.889 Q2174.79 280.421 2172.84 281.486 L2172.84 277.551 Q2175.18 276.648 2177.38 276.208 Q2179.58 275.746 2181.66 275.746 Q2187.29 275.746 2190.06 278.662 Q2192.84 281.579 2192.84 287.505 Z" fill="#000000" fill-rule="nonzero" fill-opacity="1" /><path clip-path="url(#clip140)" d="M2205.83 269.009 L2205.83 276.371 L2214.6 276.371 L2214.6 279.681 L2205.83 279.681 L2205.83 293.755 Q2205.83 296.926 2206.68 297.829 Q2207.56 298.731 2210.22 298.731 L2214.6 298.731 L2214.6 302.296 L2210.22 302.296 Q2205.29 302.296 2203.42 300.468 Q2201.54 298.616 2201.54 293.755 L2201.54 279.681 L2198.42 279.681 L2198.42 276.371 L2201.54 276.371 L2201.54 269.009 L2205.83 269.009 Z" fill="#000000" fill-rule="nonzero" fill-opacity="1" /><path clip-path="url(#clip140)" d="M2242.38 288.269 L2242.38 290.352 L2222.79 290.352 Q2223.07 294.75 2225.43 297.065 Q2227.82 299.356 2232.05 299.356 Q2234.51 299.356 2236.8 298.755 Q2239.11 298.153 2241.38 296.949 L2241.38 300.977 Q2239.09 301.949 2236.68 302.458 Q2234.28 302.968 2231.8 302.968 Q2225.6 302.968 2221.96 299.356 Q2218.35 295.745 2218.35 289.588 Q2218.35 283.222 2221.78 279.495 Q2225.22 275.746 2231.06 275.746 Q2236.29 275.746 2239.32 279.125 Q2242.38 282.482 2242.38 288.269 M2238.12 287.019 Q2238.07 283.523 2236.15 281.44 Q2234.25 279.357 2231.1 279.357 Q2227.54 279.357 2225.39 281.37 Q2223.26 283.384 2222.93 287.042 L2238.12 287.019 Z" fill="#000000" fill-rule="nonzero" fill-opacity="1" /><path clip-path="url(#clip140)" d="M2264.44 276.371 L2268.7 276.371 L2268.7 302.296 L2264.44 302.296 L2264.44 276.371 M2264.44 266.278 L2268.7 266.278 L2268.7 271.671 L2264.44 271.671 L2264.44 266.278 Z" fill="#000000" fill-rule="nonzero" fill-opacity="1" /><path clip-path="url(#clip140)" d="M2299.16 286.648 L2299.16 302.296 L2294.9 302.296 L2294.9 286.787 Q2294.9 283.107 2293.47 281.278 Q2292.03 279.449 2289.16 279.449 Q2285.71 279.449 2283.72 281.648 Q2281.73 283.847 2281.73 287.644 L2281.73 302.296 L2277.45 302.296 L2277.45 276.371 L2281.73 276.371 L2281.73 280.398 Q2283.26 278.06 2285.32 276.903 Q2287.4 275.746 2290.11 275.746 Q2294.58 275.746 2296.87 278.523 Q2299.16 281.278 2299.16 286.648 Z" fill="#000000" fill-rule="nonzero" fill-opacity="1" /><path clip-path="url(#clip140)" d="M2320.78 266.278 L2320.78 269.82 L2316.71 269.82 Q2314.41 269.82 2313.51 270.746 Q2312.63 271.671 2312.63 274.079 L2312.63 276.371 L2319.65 276.371 L2319.65 279.681 L2312.63 279.681 L2312.63 302.296 L2308.35 302.296 L2308.35 279.681 L2304.28 279.681 L2304.28 276.371 L2308.35 276.371 L2308.35 274.565 Q2308.35 270.236 2310.36 268.269 Q2312.38 266.278 2316.75 266.278 L2320.78 266.278 Z" fill="#000000" fill-rule="nonzero" fill-opacity="1" /><path clip-path="url(#clip140)" d="M2346.52 288.269 L2346.52 290.352 L2326.94 290.352 Q2327.21 294.75 2329.58 297.065 Q2331.96 299.356 2336.2 299.356 Q2338.65 299.356 2340.94 298.755 Q2343.26 298.153 2345.53 296.949 L2345.53 300.977 Q2343.23 301.949 2340.83 302.458 Q2338.42 302.968 2335.94 302.968 Q2329.74 302.968 2326.1 299.356 Q2322.49 295.745 2322.49 289.588 Q2322.49 283.222 2325.92 279.495 Q2329.37 275.746 2335.2 275.746 Q2340.43 275.746 2343.46 279.125 Q2346.52 282.482 2346.52 288.269 M2342.26 287.019 Q2342.21 283.523 2340.29 281.44 Q2338.4 279.357 2335.25 279.357 Q2331.68 279.357 2329.53 281.37 Q2327.4 283.384 2327.08 287.042 L2342.26 287.019 Z" fill="#000000" fill-rule="nonzero" fill-opacity="1" /><path clip-path="url(#clip140)" d="M2372.17 277.366 L2372.17 281.347 Q2370.36 280.352 2368.53 279.866 Q2366.73 279.357 2364.88 279.357 Q2360.73 279.357 2358.44 281.995 Q2356.15 284.611 2356.15 289.357 Q2356.15 294.102 2358.44 296.741 Q2360.73 299.356 2364.88 299.356 Q2366.73 299.356 2368.53 298.87 Q2370.36 298.361 2372.17 297.366 L2372.17 301.301 Q2370.39 302.134 2368.46 302.551 Q2366.57 302.968 2364.41 302.968 Q2358.56 302.968 2355.11 299.287 Q2351.66 295.607 2351.66 289.357 Q2351.66 283.014 2355.13 279.38 Q2358.63 275.746 2364.69 275.746 Q2366.66 275.746 2368.53 276.162 Q2370.41 276.556 2372.17 277.366 Z" fill="#000000" fill-rule="nonzero" fill-opacity="1" /><path clip-path="url(#clip140)" d="M2383.79 269.009 L2383.79 276.371 L2392.56 276.371 L2392.56 279.681 L2383.79 279.681 L2383.79 293.755 Q2383.79 296.926 2384.65 297.829 Q2385.52 298.731 2388.19 298.731 L2392.56 298.731 L2392.56 302.296 L2388.19 302.296 Q2383.26 302.296 2381.38 300.468 Q2379.51 298.616 2379.51 293.755 L2379.51 279.681 L2376.38 279.681 L2376.38 276.371 L2379.51 276.371 L2379.51 269.009 L2383.79 269.009 Z" fill="#000000" fill-rule="nonzero" fill-opacity="1" /><path clip-path="url(#clip140)" d="M2398.16 276.371 L2402.42 276.371 L2402.42 302.296 L2398.16 302.296 L2398.16 276.371 M2398.16 266.278 L2402.42 266.278 L2402.42 271.671 L2398.16 271.671 L2398.16 266.278 Z" fill="#000000" fill-rule="nonzero" fill-opacity="1" /><path clip-path="url(#clip140)" d="M2421.38 279.357 Q2417.96 279.357 2415.96 282.042 Q2413.97 284.704 2413.97 289.357 Q2413.97 294.009 2415.94 296.694 Q2417.93 299.356 2421.38 299.356 Q2424.78 299.356 2426.77 296.671 Q2428.77 293.986 2428.77 289.357 Q2428.77 284.75 2426.77 282.065 Q2424.78 279.357 2421.38 279.357 M2421.38 275.746 Q2426.94 275.746 2430.11 279.357 Q2433.28 282.968 2433.28 289.357 Q2433.28 295.722 2430.11 299.356 Q2426.94 302.968 2421.38 302.968 Q2415.8 302.968 2412.63 299.356 Q2409.48 295.722 2409.48 289.357 Q2409.48 282.968 2412.63 279.357 Q2415.8 275.746 2421.38 275.746 Z" fill="#000000" fill-rule="nonzero" fill-opacity="1" /><path clip-path="url(#clip140)" d="M2439.9 292.065 L2439.9 276.371 L2444.16 276.371 L2444.16 291.903 Q2444.16 295.583 2445.59 297.435 Q2447.03 299.264 2449.9 299.264 Q2453.35 299.264 2455.34 297.065 Q2457.35 294.866 2457.35 291.069 L2457.35 276.371 L2461.61 276.371 L2461.61 302.296 L2457.35 302.296 L2457.35 298.315 Q2455.8 300.676 2453.74 301.833 Q2451.71 302.968 2449 302.968 Q2444.53 302.968 2442.21 300.19 Q2439.9 297.412 2439.9 292.065 M2450.62 275.746 L2450.62 275.746 Z" fill="#000000" fill-rule="nonzero" fill-opacity="1" /><path clip-path="url(#clip140)" d="M2486.91 277.134 L2486.91 281.162 Q2485.11 280.236 2483.16 279.773 Q2481.22 279.31 2479.14 279.31 Q2475.96 279.31 2474.37 280.283 Q2472.79 281.255 2472.79 283.199 Q2472.79 284.681 2473.93 285.537 Q2475.06 286.37 2478.49 287.134 L2479.95 287.458 Q2484.48 288.431 2486.38 290.213 Q2488.3 291.972 2488.3 295.144 Q2488.3 298.755 2485.43 300.861 Q2482.58 302.968 2477.58 302.968 Q2475.5 302.968 2473.23 302.551 Q2470.99 302.157 2468.49 301.347 L2468.49 296.949 Q2470.85 298.176 2473.14 298.801 Q2475.43 299.403 2477.68 299.403 Q2480.69 299.403 2482.31 298.384 Q2483.93 297.343 2483.93 295.468 Q2483.93 293.732 2482.75 292.806 Q2481.59 291.88 2477.63 291.023 L2476.15 290.676 Q2472.19 289.843 2470.43 288.13 Q2468.67 286.394 2468.67 283.384 Q2468.67 279.727 2471.27 277.736 Q2473.86 275.746 2478.63 275.746 Q2480.99 275.746 2483.07 276.093 Q2485.15 276.44 2486.91 277.134 Z" fill="#000000" fill-rule="nonzero" fill-opacity="1" /><path clip-path="url(#clip140)" d="M2494.41 266.324 L2498.12 266.324 Q2501.59 271.787 2503.3 277.019 Q2505.04 282.25 2505.04 287.412 Q2505.04 292.597 2503.3 297.852 Q2501.59 303.106 2498.12 308.546 L2494.41 308.546 Q2497.49 303.245 2499 298.014 Q2500.52 292.759 2500.52 287.412 Q2500.52 282.065 2499 276.857 Q2497.49 271.648 2494.41 266.324 Z" fill="#000000" fill-rule="nonzero" fill-opacity="1" /><polyline clip-path="url(#clip140)" style="stroke:#800080; stroke-linecap:round; stroke-linejoin:round; stroke-width:8; stroke-opacity:1; fill:none" stroke-dasharray="32, 20" points="1906.2,336.856 2066.34,336.856 "/>
<path clip-path="url(#clip140)" d="M2093.03 319.576 L2097.7 319.576 L2097.7 354.136 L2093.03 354.136 L2093.03 319.576 Z" fill="#000000" fill-rule="nonzero" fill-opacity="1" /><path clip-path="url(#clip140)" d="M2105.97 351.59 L2110.69 351.59 L2110.69 337.447 L2105.53 338.396 L2105.53 335.71 L2110.85 334.808 L2114.02 334.808 L2114.02 351.59 L2118.77 351.59 L2118.77 354.136 L2105.97 354.136 L2105.97 351.59 Z" fill="#000000" fill-rule="nonzero" fill-opacity="1" /><path clip-path="url(#clip140)" d="M2158.23 324.414 L2158.23 337.308 L2171.13 337.308 L2171.13 341.243 L2158.23 341.243 L2158.23 354.136 L2154.35 354.136 L2154.35 341.243 L2141.45 341.243 L2141.45 337.308 L2154.35 337.308 L2154.35 324.414 L2158.23 324.414 Z" fill="#000000" fill-rule="nonzero" fill-opacity="1" /><path clip-path="url(#clip140)" d="M2195.87 319.576 L2200.55 319.576 L2200.55 354.136 L2195.87 354.136 L2195.87 319.576 Z" fill="#000000" fill-rule="nonzero" fill-opacity="1" /><path clip-path="url(#clip140)" d="M2211.41 351.497 L2221.22 351.497 L2221.22 354.136 L2207.38 354.136 L2207.38 351.59 Q2208.16 350.872 2209.62 349.576 Q2217.59 342.516 2217.59 340.34 Q2217.59 338.812 2216.38 337.886 Q2215.18 336.937 2213.21 336.937 Q2212.01 336.937 2210.6 337.354 Q2209.18 337.747 2207.52 338.558 L2207.52 335.71 Q2209.3 335.062 2210.83 334.738 Q2212.38 334.414 2213.7 334.414 Q2217.05 334.414 2219.07 335.942 Q2221.08 337.47 2221.08 339.97 Q2221.08 343.187 2213.42 349.761 Q2212.12 350.872 2211.41 351.497 Z" fill="#000000" fill-rule="nonzero" fill-opacity="1" /><path clip-path="url(#clip140)" d="M2253.97 318.164 Q2250.87 323.488 2249.37 328.697 Q2247.86 333.905 2247.86 339.252 Q2247.86 344.599 2249.37 349.854 Q2250.9 355.085 2253.97 360.386 L2250.27 360.386 Q2246.8 354.946 2245.06 349.692 Q2243.35 344.437 2243.35 339.252 Q2243.35 334.09 2245.06 328.859 Q2246.78 323.627 2250.27 318.164 L2253.97 318.164 Z" fill="#000000" fill-rule="nonzero" fill-opacity="1" /><path clip-path="url(#clip140)" d="M2266.45 320.849 L2266.45 328.211 L2275.22 328.211 L2275.22 331.521 L2266.45 331.521 L2266.45 345.595 Q2266.45 348.766 2267.31 349.669 Q2268.19 350.571 2270.85 350.571 L2275.22 350.571 L2275.22 354.136 L2270.85 354.136 Q2265.92 354.136 2264.04 352.308 Q2262.17 350.456 2262.17 345.595 L2262.17 331.521 L2259.04 331.521 L2259.04 328.211 L2262.17 328.211 L2262.17 320.849 L2266.45 320.849 Z" fill="#000000" fill-rule="nonzero" fill-opacity="1" /><path clip-path="url(#clip140)" d="M2290.87 331.197 Q2287.45 331.197 2285.46 333.882 Q2283.47 336.544 2283.47 341.197 Q2283.47 345.849 2285.43 348.534 Q2287.42 351.196 2290.87 351.196 Q2294.28 351.196 2296.27 348.511 Q2298.26 345.826 2298.26 341.197 Q2298.26 336.59 2296.27 333.905 Q2294.28 331.197 2290.87 331.197 M2290.87 327.586 Q2296.43 327.586 2299.6 331.197 Q2302.77 334.808 2302.77 341.197 Q2302.77 347.562 2299.6 351.196 Q2296.43 354.808 2290.87 354.808 Q2285.29 354.808 2282.12 351.196 Q2278.97 347.562 2278.97 341.197 Q2278.97 334.808 2282.12 331.197 Q2285.29 327.586 2290.87 327.586 Z" fill="#000000" fill-rule="nonzero" fill-opacity="1" /><path clip-path="url(#clip140)" d="M2314.04 320.849 L2314.04 328.211 L2322.82 328.211 L2322.82 331.521 L2314.04 331.521 L2314.04 345.595 Q2314.04 348.766 2314.9 349.669 Q2315.78 350.571 2318.44 350.571 L2322.82 350.571 L2322.82 354.136 L2318.44 354.136 Q2313.51 354.136 2311.64 352.308 Q2309.76 350.456 2309.76 345.595 L2309.76 331.521 L2306.64 331.521 L2306.64 328.211 L2309.76 328.211 L2309.76 320.849 L2314.04 320.849 Z" fill="#000000" fill-rule="nonzero" fill-opacity="1" /><path clip-path="url(#clip140)" d="M2340.2 341.104 Q2335.04 341.104 2333.05 342.284 Q2331.06 343.465 2331.06 346.312 Q2331.06 348.581 2332.54 349.923 Q2334.04 351.243 2336.61 351.243 Q2340.15 351.243 2342.28 348.743 Q2344.44 346.22 2344.44 342.053 L2344.44 341.104 L2340.2 341.104 M2348.7 339.345 L2348.7 354.136 L2344.44 354.136 L2344.44 350.201 Q2342.98 352.562 2340.8 353.696 Q2338.63 354.808 2335.48 354.808 Q2331.5 354.808 2329.14 352.585 Q2326.8 350.34 2326.8 346.59 Q2326.8 342.215 2329.71 339.993 Q2332.65 337.771 2338.46 337.771 L2344.44 337.771 L2344.44 337.354 Q2344.44 334.414 2342.49 332.817 Q2340.57 331.197 2337.08 331.197 Q2334.85 331.197 2332.75 331.729 Q2330.64 332.261 2328.7 333.326 L2328.7 329.391 Q2331.03 328.488 2333.23 328.048 Q2335.43 327.586 2337.52 327.586 Q2343.14 327.586 2345.92 330.502 Q2348.7 333.419 2348.7 339.345 Z" fill="#000000" fill-rule="nonzero" fill-opacity="1" /><path clip-path="url(#clip140)" d="M2357.47 318.118 L2361.73 318.118 L2361.73 354.136 L2357.47 354.136 L2357.47 318.118 Z" fill="#000000" fill-rule="nonzero" fill-opacity="1" /><path clip-path="url(#clip140)" d="M2369.97 318.164 L2373.67 318.164 Q2377.15 323.627 2378.86 328.859 Q2380.59 334.09 2380.59 339.252 Q2380.59 344.437 2378.86 349.692 Q2377.15 354.946 2373.67 360.386 L2369.97 360.386 Q2373.05 355.085 2374.55 349.854 Q2376.08 344.599 2376.08 339.252 Q2376.08 333.905 2374.55 328.697 Q2373.05 323.488 2369.97 318.164 Z" fill="#000000" fill-rule="nonzero" fill-opacity="1" /></svg>
