<?xml version="1.0" encoding="utf-8"?>
<svg xmlns="http://www.w3.org/2000/svg" xmlns:xlink="http://www.w3.org/1999/xlink" width="672" height="480" viewBox="0 0 2688 1920">
<defs>
  <clipPath id="clip180">
    <rect x="0" y="0" width="2688" height="1920"/>
  </clipPath>
</defs>
<path clip-path="url(#clip180)" d="M0 1920 L2688 1920 L2688 -4.26326e-14 L0 -4.26326e-14  Z" fill="#ffffff" fill-rule="evenodd" fill-opacity="1"/>
<defs>
  <clipPath id="clip181">
    <rect x="238" y="127" width="2403" height="1607"/>
  </clipPath>
</defs>
<path clip-path="url(#clip180)" d="M238.664 1734.12 L2640.76 1734.12 L2640.76 127.792 L238.664 127.792  Z" fill="#ffffff" fill-rule="evenodd" fill-opacity="1"/>
<polyline clip-path="url(#clip181)" style="stroke:#000000; stroke-linecap:round; stroke-linejoin:round; stroke-width:2; stroke-opacity:0.1; fill:none" points="306.647,1734.12 306.647,127.792 "/>
<polyline clip-path="url(#clip181)" style="stroke:#000000; stroke-linecap:round; stroke-linejoin:round; stroke-width:2; stroke-opacity:0.1; fill:none" points="873.179,1734.12 873.179,127.792 "/>
<polyline clip-path="url(#clip181)" style="stroke:#000000; stroke-linecap:round; stroke-linejoin:round; stroke-width:2; stroke-opacity:0.1; fill:none" points="1439.71,1734.12 1439.71,127.792 "/>
<polyline clip-path="url(#clip181)" style="stroke:#000000; stroke-linecap:round; stroke-linejoin:round; stroke-width:2; stroke-opacity:0.1; fill:none" points="2006.24,1734.12 2006.24,127.792 "/>
<polyline clip-path="url(#clip181)" style="stroke:#000000; stroke-linecap:round; stroke-linejoin:round; stroke-width:2; stroke-opacity:0.1; fill:none" points="2572.77,1734.12 2572.77,127.792 "/>
<polyline clip-path="url(#clip181)" style="stroke:#000000; stroke-linecap:round; stroke-linejoin:round; stroke-width:2; stroke-opacity:0.1; fill:none" points="238.664,1688.82 2640.76,1688.82 "/>
<polyline clip-path="url(#clip181)" style="stroke:#000000; stroke-linecap:round; stroke-linejoin:round; stroke-width:2; stroke-opacity:0.1; fill:none" points="238.664,1266.42 2640.76,1266.42 "/>
<polyline clip-path="url(#clip181)" style="stroke:#000000; stroke-linecap:round; stroke-linejoin:round; stroke-width:2; stroke-opacity:0.1; fill:none" points="238.664,844.024 2640.76,844.024 "/>
<polyline clip-path="url(#clip181)" style="stroke:#000000; stroke-linecap:round; stroke-linejoin:round; stroke-width:2; stroke-opacity:0.1; fill:none" points="238.664,421.625 2640.76,421.625 "/>
<polyline clip-path="url(#clip180)" style="stroke:#000000; stroke-linecap:round; stroke-linejoin:round; stroke-width:4; stroke-opacity:1; fill:none" points="238.664,1734.12 2640.76,1734.12 "/>
<polyline clip-path="url(#clip180)" style="stroke:#000000; stroke-linecap:round; stroke-linejoin:round; stroke-width:4; stroke-opacity:1; fill:none" points="306.647,1734.12 306.647,1715.22 "/>
<polyline clip-path="url(#clip180)" style="stroke:#000000; stroke-linecap:round; stroke-linejoin:round; stroke-width:4; stroke-opacity:1; fill:none" points="873.179,1734.12 873.179,1715.22 "/>
<polyline clip-path="url(#clip180)" style="stroke:#000000; stroke-linecap:round; stroke-linejoin:round; stroke-width:4; stroke-opacity:1; fill:none" points="1439.71,1734.12 1439.71,1715.22 "/>
<polyline clip-path="url(#clip180)" style="stroke:#000000; stroke-linecap:round; stroke-linejoin:round; stroke-width:4; stroke-opacity:1; fill:none" points="2006.24,1734.12 2006.24,1715.22 "/>
<polyline clip-path="url(#clip180)" style="stroke:#000000; stroke-linecap:round; stroke-linejoin:round; stroke-width:4; stroke-opacity:1; fill:none" points="2572.77,1734.12 2572.77,1715.22 "/>
<path clip-path="url(#clip180)" d="M306.647 1767.34 Q303.036 1767.34 301.208 1770.9 Q299.402 1774.45 299.402 1781.58 Q299.402 1788.68 301.208 1792.25 Q303.036 1795.79 306.647 1795.79 Q310.282 1795.79 312.087 1792.25 Q313.916 1788.68 313.916 1781.58 Q313.916 1774.45 312.087 1770.9 Q310.282 1767.34 306.647 1767.34 M306.647 1763.64 Q312.458 1763.64 315.513 1768.24 Q318.592 1772.83 318.592 1781.58 Q318.592 1790.3 315.513 1794.91 Q312.458 1799.49 306.647 1799.49 Q300.837 1799.49 297.759 1794.91 Q294.703 1790.3 294.703 1781.58 Q294.703 1772.83 297.759 1768.24 Q300.837 1763.64 306.647 1763.64 Z" fill="#000000" fill-rule="nonzero" fill-opacity="1" /><path clip-path="url(#clip180)" d="M852.45 1794.89 L868.769 1794.89 L868.769 1798.82 L846.825 1798.82 L846.825 1794.89 Q849.487 1792.13 854.07 1787.5 Q858.676 1782.85 859.857 1781.51 Q862.102 1778.98 862.982 1777.25 Q863.885 1775.49 863.885 1773.8 Q863.885 1771.04 861.94 1769.31 Q860.019 1767.57 856.917 1767.57 Q854.718 1767.57 852.264 1768.34 Q849.834 1769.1 847.056 1770.65 L847.056 1765.93 Q849.88 1764.79 852.334 1764.21 Q854.787 1763.64 856.824 1763.64 Q862.195 1763.64 865.389 1766.32 Q868.584 1769.01 868.584 1773.5 Q868.584 1775.63 867.774 1777.55 Q866.986 1779.45 864.88 1782.04 Q864.301 1782.71 861.199 1785.93 Q858.098 1789.12 852.45 1794.89 Z" fill="#000000" fill-rule="nonzero" fill-opacity="1" /><path clip-path="url(#clip180)" d="M878.63 1764.26 L896.986 1764.26 L896.986 1768.2 L882.912 1768.2 L882.912 1776.67 Q883.931 1776.32 884.949 1776.16 Q885.968 1775.97 886.986 1775.97 Q892.773 1775.97 896.153 1779.15 Q899.533 1782.32 899.533 1787.73 Q899.533 1793.31 896.06 1796.41 Q892.588 1799.49 886.269 1799.49 Q884.093 1799.49 881.824 1799.12 Q879.579 1798.75 877.172 1798.01 L877.172 1793.31 Q879.255 1794.45 881.477 1795 Q883.699 1795.56 886.176 1795.56 Q890.181 1795.56 892.519 1793.45 Q894.857 1791.34 894.857 1787.73 Q894.857 1784.12 892.519 1782.02 Q890.181 1779.91 886.176 1779.91 Q884.301 1779.91 882.426 1780.33 Q880.574 1780.74 878.63 1781.62 L878.63 1764.26 Z" fill="#000000" fill-rule="nonzero" fill-opacity="1" /><path clip-path="url(#clip180)" d="M1414.41 1764.26 L1432.77 1764.26 L1432.77 1768.2 L1418.69 1768.2 L1418.69 1776.67 Q1419.71 1776.32 1420.73 1776.16 Q1421.75 1775.97 1422.77 1775.97 Q1428.55 1775.97 1431.93 1779.15 Q1435.31 1782.32 1435.31 1787.73 Q1435.31 1793.31 1431.84 1796.41 Q1428.37 1799.49 1422.05 1799.49 Q1419.87 1799.49 1417.6 1799.12 Q1415.36 1798.75 1412.95 1798.01 L1412.95 1793.31 Q1415.03 1794.45 1417.26 1795 Q1419.48 1795.56 1421.96 1795.56 Q1425.96 1795.56 1428.3 1793.45 Q1430.64 1791.34 1430.64 1787.73 Q1430.64 1784.12 1428.3 1782.02 Q1425.96 1779.91 1421.96 1779.91 Q1420.08 1779.91 1418.21 1780.33 Q1416.35 1780.74 1414.41 1781.62 L1414.41 1764.26 Z" fill="#000000" fill-rule="nonzero" fill-opacity="1" /><path clip-path="url(#clip180)" d="M1454.52 1767.34 Q1450.91 1767.34 1449.08 1770.9 Q1447.28 1774.45 1447.28 1781.58 Q1447.28 1788.68 1449.08 1792.25 Q1450.91 1795.79 1454.52 1795.79 Q1458.16 1795.79 1459.96 1792.25 Q1461.79 1788.68 1461.79 1781.58 Q1461.79 1774.45 1459.96 1770.9 Q1458.16 1767.34 1454.52 1767.34 M1454.52 1763.64 Q1460.33 1763.64 1463.39 1768.24 Q1466.47 1772.83 1466.47 1781.58 Q1466.47 1790.3 1463.39 1794.91 Q1460.33 1799.49 1454.52 1799.49 Q1448.71 1799.49 1445.64 1794.91 Q1442.58 1790.3 1442.58 1781.58 Q1442.58 1772.83 1445.64 1768.24 Q1448.71 1763.64 1454.52 1763.64 Z" fill="#000000" fill-rule="nonzero" fill-opacity="1" /><path clip-path="url(#clip180)" d="M1980.1 1764.26 L2002.32 1764.26 L2002.32 1766.25 L1989.77 1798.82 L1984.89 1798.82 L1996.69 1768.2 L1980.1 1768.2 L1980.1 1764.26 Z" fill="#000000" fill-rule="nonzero" fill-opacity="1" /><path clip-path="url(#clip180)" d="M2011.48 1764.26 L2029.84 1764.26 L2029.84 1768.2 L2015.77 1768.2 L2015.77 1776.67 Q2016.78 1776.32 2017.8 1776.16 Q2018.82 1775.97 2019.84 1775.97 Q2025.63 1775.97 2029.01 1779.15 Q2032.39 1782.32 2032.39 1787.73 Q2032.39 1793.31 2028.91 1796.41 Q2025.44 1799.49 2019.12 1799.49 Q2016.95 1799.49 2014.68 1799.12 Q2012.43 1798.75 2010.03 1798.01 L2010.03 1793.31 Q2012.11 1794.45 2014.33 1795 Q2016.55 1795.56 2019.03 1795.56 Q2023.03 1795.56 2025.37 1793.45 Q2027.71 1791.34 2027.71 1787.73 Q2027.71 1784.12 2025.37 1782.02 Q2023.03 1779.91 2019.03 1779.91 Q2017.16 1779.91 2015.28 1780.33 Q2013.43 1780.74 2011.48 1781.62 L2011.48 1764.26 Z" fill="#000000" fill-rule="nonzero" fill-opacity="1" /><path clip-path="url(#clip180)" d="M2532.38 1794.89 L2540.02 1794.89 L2540.02 1768.52 L2531.71 1770.19 L2531.71 1765.93 L2539.97 1764.26 L2544.65 1764.26 L2544.65 1794.89 L2552.29 1794.89 L2552.29 1798.82 L2532.38 1798.82 L2532.38 1794.89 Z" fill="#000000" fill-rule="nonzero" fill-opacity="1" /><path clip-path="url(#clip180)" d="M2571.73 1767.34 Q2568.12 1767.34 2566.29 1770.9 Q2564.49 1774.45 2564.49 1781.58 Q2564.49 1788.68 2566.29 1792.25 Q2568.12 1795.79 2571.73 1795.79 Q2575.36 1795.79 2577.17 1792.25 Q2579 1788.68 2579 1781.58 Q2579 1774.45 2577.17 1770.9 Q2575.36 1767.34 2571.73 1767.34 M2571.73 1763.64 Q2577.54 1763.64 2580.6 1768.24 Q2583.67 1772.83 2583.67 1781.58 Q2583.67 1790.3 2580.6 1794.91 Q2577.54 1799.49 2571.73 1799.49 Q2565.92 1799.49 2562.84 1794.91 Q2559.79 1790.3 2559.79 1781.58 Q2559.79 1772.83 2562.84 1768.24 Q2565.92 1763.64 2571.73 1763.64 Z" fill="#000000" fill-rule="nonzero" fill-opacity="1" /><path clip-path="url(#clip180)" d="M2601.89 1767.34 Q2598.28 1767.34 2596.45 1770.9 Q2594.65 1774.45 2594.65 1781.58 Q2594.65 1788.68 2596.45 1792.25 Q2598.28 1795.79 2601.89 1795.79 Q2605.53 1795.79 2607.33 1792.25 Q2609.16 1788.68 2609.16 1781.58 Q2609.16 1774.45 2607.33 1770.9 Q2605.53 1767.34 2601.89 1767.34 M2601.89 1763.64 Q2607.7 1763.64 2610.76 1768.24 Q2613.84 1772.83 2613.84 1781.58 Q2613.84 1790.3 2610.76 1794.91 Q2607.7 1799.49 2601.89 1799.49 Q2596.08 1799.49 2593 1794.91 Q2589.95 1790.3 2589.95 1781.58 Q2589.95 1772.83 2593 1768.24 Q2596.08 1763.64 2601.89 1763.64 Z" fill="#000000" fill-rule="nonzero" fill-opacity="1" /><path clip-path="url(#clip180)" d="M1361.59 1835.78 L1401.79 1835.78 L1401.79 1841.19 L1384.92 1841.19 L1384.92 1883.3 L1378.46 1883.3 L1378.46 1841.19 L1361.59 1841.19 L1361.59 1835.78 Z" fill="#000000" fill-rule="nonzero" fill-opacity="1" /><path clip-path="url(#clip180)" d="M1405.73 1847.65 L1411.59 1847.65 L1411.59 1883.3 L1405.73 1883.3 L1405.73 1847.65 M1405.73 1833.78 L1411.59 1833.78 L1411.59 1841.19 L1405.73 1841.19 L1405.73 1833.78 Z" fill="#000000" fill-rule="nonzero" fill-opacity="1" /><path clip-path="url(#clip180)" d="M1451.6 1854.5 Q1453.79 1850.55 1456.85 1848.67 Q1459.9 1846.79 1464.04 1846.79 Q1469.61 1846.79 1472.64 1850.71 Q1475.66 1854.59 1475.66 1861.78 L1475.66 1883.3 L1469.77 1883.3 L1469.77 1861.98 Q1469.77 1856.85 1467.96 1854.37 Q1466.14 1851.89 1462.42 1851.89 Q1457.87 1851.89 1455.23 1854.91 Q1452.58 1857.93 1452.58 1863.15 L1452.58 1883.3 L1446.7 1883.3 L1446.7 1861.98 Q1446.7 1856.82 1444.88 1854.37 Q1443.07 1851.89 1439.28 1851.89 Q1434.79 1851.89 1432.15 1854.94 Q1429.51 1857.97 1429.51 1863.15 L1429.51 1883.3 L1423.62 1883.3 L1423.62 1847.65 L1429.51 1847.65 L1429.51 1853.19 Q1431.51 1849.91 1434.31 1848.35 Q1437.12 1846.79 1440.97 1846.79 Q1444.85 1846.79 1447.56 1848.77 Q1450.29 1850.74 1451.6 1854.5 Z" fill="#000000" fill-rule="nonzero" fill-opacity="1" /><path clip-path="url(#clip180)" d="M1517.83 1864.01 L1517.83 1866.88 L1490.91 1866.88 Q1491.29 1872.92 1494.53 1876.11 Q1497.81 1879.26 1503.64 1879.26 Q1507.01 1879.26 1510.16 1878.43 Q1513.35 1877.6 1516.46 1875.95 L1516.46 1881.49 Q1513.31 1882.82 1510 1883.52 Q1506.69 1884.22 1503.29 1884.22 Q1494.76 1884.22 1489.76 1879.26 Q1484.79 1874.29 1484.79 1865.83 Q1484.79 1857.07 1489.51 1851.95 Q1494.25 1846.79 1502.27 1846.79 Q1509.46 1846.79 1513.63 1851.44 Q1517.83 1856.06 1517.83 1864.01 M1511.98 1862.29 Q1511.91 1857.49 1509.27 1854.62 Q1506.66 1851.76 1502.33 1851.76 Q1497.43 1851.76 1494.47 1854.53 Q1491.54 1857.3 1491.1 1862.33 L1511.98 1862.29 Z" fill="#000000" fill-rule="nonzero" fill-opacity="1" /><polyline clip-path="url(#clip180)" style="stroke:#000000; stroke-linecap:round; stroke-linejoin:round; stroke-width:4; stroke-opacity:1; fill:none" points="238.664,1734.12 238.664,127.792 "/>
<polyline clip-path="url(#clip180)" style="stroke:#000000; stroke-linecap:round; stroke-linejoin:round; stroke-width:4; stroke-opacity:1; fill:none" points="238.664,1688.82 257.561,1688.82 "/>
<polyline clip-path="url(#clip180)" style="stroke:#000000; stroke-linecap:round; stroke-linejoin:round; stroke-width:4; stroke-opacity:1; fill:none" points="238.664,1266.42 257.561,1266.42 "/>
<polyline clip-path="url(#clip180)" style="stroke:#000000; stroke-linecap:round; stroke-linejoin:round; stroke-width:4; stroke-opacity:1; fill:none" points="238.664,844.024 257.561,844.024 "/>
<polyline clip-path="url(#clip180)" style="stroke:#000000; stroke-linecap:round; stroke-linejoin:round; stroke-width:4; stroke-opacity:1; fill:none" points="238.664,421.625 257.561,421.625 "/>
<path clip-path="url(#clip180)" d="M186.399 1674.62 Q182.788 1674.62 180.959 1678.18 Q179.154 1681.73 179.154 1688.86 Q179.154 1695.96 180.959 1699.53 Q182.788 1703.07 186.399 1703.07 Q190.033 1703.07 191.839 1699.53 Q193.668 1695.96 193.668 1688.86 Q193.668 1681.73 191.839 1678.18 Q190.033 1674.62 186.399 1674.62 M186.399 1670.92 Q192.209 1670.92 195.265 1675.52 Q198.344 1680.11 198.344 1688.86 Q198.344 1697.58 195.265 1702.19 Q192.209 1706.77 186.399 1706.77 Q180.589 1706.77 177.51 1702.19 Q174.455 1697.58 174.455 1688.86 Q174.455 1680.11 177.51 1675.52 Q180.589 1670.92 186.399 1670.92 Z" fill="#000000" fill-rule="nonzero" fill-opacity="1" /><path clip-path="url(#clip180)" d="M146.284 1249.14 L164.64 1249.14 L164.64 1253.08 L150.566 1253.08 L150.566 1261.55 Q151.585 1261.2 152.603 1261.04 Q153.622 1260.86 154.64 1260.86 Q160.427 1260.86 163.807 1264.03 Q167.186 1267.2 167.186 1272.61 Q167.186 1278.19 163.714 1281.29 Q160.242 1284.37 153.923 1284.37 Q151.747 1284.37 149.478 1284 Q147.233 1283.63 144.825 1282.89 L144.825 1278.19 Q146.909 1279.33 149.131 1279.88 Q151.353 1280.44 153.83 1280.44 Q157.835 1280.44 160.173 1278.33 Q162.51 1276.23 162.51 1272.61 Q162.51 1269 160.173 1266.9 Q157.835 1264.79 153.83 1264.79 Q151.955 1264.79 150.08 1265.21 Q148.228 1265.62 146.284 1266.5 L146.284 1249.14 Z" fill="#000000" fill-rule="nonzero" fill-opacity="1" /><path clip-path="url(#clip180)" d="M186.399 1252.22 Q182.788 1252.22 180.959 1255.79 Q179.154 1259.33 179.154 1266.46 Q179.154 1273.56 180.959 1277.13 Q182.788 1280.67 186.399 1280.67 Q190.033 1280.67 191.839 1277.13 Q193.668 1273.56 193.668 1266.46 Q193.668 1259.33 191.839 1255.79 Q190.033 1252.22 186.399 1252.22 M186.399 1248.52 Q192.209 1248.52 195.265 1253.12 Q198.344 1257.71 198.344 1266.46 Q198.344 1275.18 195.265 1279.79 Q192.209 1284.37 186.399 1284.37 Q180.589 1284.37 177.51 1279.79 Q174.455 1275.18 174.455 1266.46 Q174.455 1257.71 177.51 1253.12 Q180.589 1248.52 186.399 1248.52 Z" fill="#000000" fill-rule="nonzero" fill-opacity="1" /><path clip-path="url(#clip180)" d="M116.886 857.369 L124.525 857.369 L124.525 831.003 L116.214 832.67 L116.214 828.41 L124.478 826.744 L129.154 826.744 L129.154 857.369 L136.793 857.369 L136.793 861.304 L116.886 861.304 L116.886 857.369 Z" fill="#000000" fill-rule="nonzero" fill-opacity="1" /><path clip-path="url(#clip180)" d="M156.237 829.823 Q152.626 829.823 150.798 833.387 Q148.992 836.929 148.992 844.059 Q148.992 851.165 150.798 854.73 Q152.626 858.271 156.237 858.271 Q159.872 858.271 161.677 854.73 Q163.506 851.165 163.506 844.059 Q163.506 836.929 161.677 833.387 Q159.872 829.823 156.237 829.823 M156.237 826.119 Q162.048 826.119 165.103 830.725 Q168.182 835.309 168.182 844.059 Q168.182 852.785 165.103 857.392 Q162.048 861.975 156.237 861.975 Q150.427 861.975 147.349 857.392 Q144.293 852.785 144.293 844.059 Q144.293 835.309 147.349 830.725 Q150.427 826.119 156.237 826.119 Z" fill="#000000" fill-rule="nonzero" fill-opacity="1" /><path clip-path="url(#clip180)" d="M186.399 829.823 Q182.788 829.823 180.959 833.387 Q179.154 836.929 179.154 844.059 Q179.154 851.165 180.959 854.73 Q182.788 858.271 186.399 858.271 Q190.033 858.271 191.839 854.73 Q193.668 851.165 193.668 844.059 Q193.668 836.929 191.839 833.387 Q190.033 829.823 186.399 829.823 M186.399 826.119 Q192.209 826.119 195.265 830.725 Q198.344 835.309 198.344 844.059 Q198.344 852.785 195.265 857.392 Q192.209 861.975 186.399 861.975 Q180.589 861.975 177.51 857.392 Q174.455 852.785 174.455 844.059 Q174.455 835.309 177.51 830.725 Q180.589 826.119 186.399 826.119 Z" fill="#000000" fill-rule="nonzero" fill-opacity="1" /><path clip-path="url(#clip180)" d="M116.886 434.97 L124.525 434.97 L124.525 408.605 L116.214 410.271 L116.214 406.012 L124.478 404.345 L129.154 404.345 L129.154 434.97 L136.793 434.97 L136.793 438.905 L116.886 438.905 L116.886 434.97 Z" fill="#000000" fill-rule="nonzero" fill-opacity="1" /><path clip-path="url(#clip180)" d="M146.284 404.345 L164.64 404.345 L164.64 408.28 L150.566 408.28 L150.566 416.753 Q151.585 416.405 152.603 416.243 Q153.622 416.058 154.64 416.058 Q160.427 416.058 163.807 419.229 Q167.186 422.401 167.186 427.817 Q167.186 433.396 163.714 436.498 Q160.242 439.577 153.923 439.577 Q151.747 439.577 149.478 439.206 Q147.233 438.836 144.825 438.095 L144.825 433.396 Q146.909 434.53 149.131 435.086 Q151.353 435.641 153.83 435.641 Q157.835 435.641 160.173 433.535 Q162.51 431.428 162.51 427.817 Q162.51 424.206 160.173 422.1 Q157.835 419.993 153.83 419.993 Q151.955 419.993 150.08 420.41 Q148.228 420.827 146.284 421.706 L146.284 404.345 Z" fill="#000000" fill-rule="nonzero" fill-opacity="1" /><path clip-path="url(#clip180)" d="M186.399 407.424 Q182.788 407.424 180.959 410.989 Q179.154 414.53 179.154 421.66 Q179.154 428.766 180.959 432.331 Q182.788 435.873 186.399 435.873 Q190.033 435.873 191.839 432.331 Q193.668 428.766 193.668 421.66 Q193.668 414.53 191.839 410.989 Q190.033 407.424 186.399 407.424 M186.399 403.72 Q192.209 403.72 195.265 408.327 Q198.344 412.91 198.344 421.66 Q198.344 430.387 195.265 434.993 Q192.209 439.577 186.399 439.577 Q180.589 439.577 177.51 434.993 Q174.455 430.387 174.455 421.66 Q174.455 412.91 177.51 408.327 Q180.589 403.72 186.399 403.72 Z" fill="#000000" fill-rule="nonzero" fill-opacity="1" /><path clip-path="url(#clip180)" d="M14.1184 1193.78 L14.1184 1187.35 L61.6384 1187.35 L61.6384 1193.78 L14.1184 1193.78 Z" fill="#000000" fill-rule="nonzero" fill-opacity="1" /><path clip-path="url(#clip180)" d="M40.1224 1145.18 L61.6384 1145.18 L61.6384 1151.03 L40.3133 1151.03 Q35.2526 1151.03 32.7381 1153.01 Q30.2237 1154.98 30.2237 1158.93 Q30.2237 1163.67 33.2474 1166.41 Q36.2711 1169.14 41.491 1169.14 L61.6384 1169.14 L61.6384 1175.03 L25.9905 1175.03 L25.9905 1169.14 L31.5287 1169.14 Q28.314 1167.04 26.7225 1164.21 Q25.1311 1161.35 25.1311 1157.62 Q25.1311 1151.48 28.9505 1148.33 Q32.7381 1145.18 40.1224 1145.18 Z" fill="#000000" fill-rule="nonzero" fill-opacity="1" /><path clip-path="url(#clip180)" d="M12.1132 1115.45 L16.983 1115.45 L16.983 1121.05 Q16.983 1124.2 18.2562 1125.44 Q19.5293 1126.65 22.8395 1126.65 L25.9905 1126.65 L25.9905 1117.01 L30.542 1117.01 L30.542 1126.65 L61.6384 1126.65 L61.6384 1132.54 L30.542 1132.54 L30.542 1138.14 L25.9905 1138.14 L25.9905 1132.54 L23.5079 1132.54 Q17.5559 1132.54 14.8505 1129.77 Q12.1132 1127 12.1132 1120.99 L12.1132 1115.45 Z" fill="#000000" fill-rule="nonzero" fill-opacity="1" /><path clip-path="url(#clip180)" d="M42.3504 1080.06 L45.2149 1080.06 L45.2149 1106.98 Q51.2623 1106.6 54.4452 1103.35 Q57.5962 1100.08 57.5962 1094.25 Q57.5962 1090.88 56.7687 1087.73 Q55.9411 1084.54 54.2861 1081.42 L59.8242 1081.42 Q61.161 1084.57 61.8612 1087.89 Q62.5615 1091.2 62.5615 1094.6 Q62.5615 1103.13 57.5962 1108.13 Q52.631 1113.09 44.1646 1113.09 Q35.4117 1113.09 30.2873 1108.38 Q25.1311 1103.64 25.1311 1095.62 Q25.1311 1088.43 29.7781 1084.26 Q34.3932 1080.06 42.3504 1080.06 M40.6316 1085.91 Q35.8255 1085.98 32.9609 1088.62 Q30.0964 1091.23 30.0964 1095.56 Q30.0964 1100.46 32.8654 1103.42 Q35.6345 1106.35 40.6634 1106.79 L40.6316 1085.91 Z" fill="#000000" fill-rule="nonzero" fill-opacity="1" /><path clip-path="url(#clip180)" d="M27.3591 1044.79 L32.8336 1044.79 Q31.465 1047.27 30.7966 1049.79 Q30.0964 1052.27 30.0964 1054.82 Q30.0964 1060.51 33.7248 1063.66 Q37.3214 1066.81 43.8463 1066.81 Q50.3711 1066.81 53.9996 1063.66 Q57.5962 1060.51 57.5962 1054.82 Q57.5962 1052.27 56.9278 1049.79 Q56.2276 1047.27 54.859 1044.79 L60.2698 1044.79 Q61.4156 1047.24 61.9886 1049.88 Q62.5615 1052.49 62.5615 1055.45 Q62.5615 1063.5 57.5007 1068.25 Q52.44 1072.99 43.8463 1072.99 Q35.1253 1072.99 30.1282 1068.22 Q25.1311 1063.41 25.1311 1055.07 Q25.1311 1052.36 25.704 1049.79 Q26.2451 1047.21 27.3591 1044.79 Z" fill="#000000" fill-rule="nonzero" fill-opacity="1" /><path clip-path="url(#clip180)" d="M15.869 1028.81 L25.9905 1028.81 L25.9905 1016.75 L30.542 1016.75 L30.542 1028.81 L49.8937 1028.81 Q54.2542 1028.81 55.4955 1027.63 Q56.7368 1026.42 56.7368 1022.76 L56.7368 1016.75 L61.6384 1016.75 L61.6384 1022.76 Q61.6384 1029.54 59.124 1032.12 Q56.5777 1034.7 49.8937 1034.7 L30.542 1034.7 L30.542 1039 L25.9905 1039 L25.9905 1034.7 L15.869 1034.7 L15.869 1028.81 Z" fill="#000000" fill-rule="nonzero" fill-opacity="1" /><path clip-path="url(#clip180)" d="M42.3504 978.554 L45.2149 978.554 L45.2149 1005.48 Q51.2623 1005.1 54.4452 1001.85 Q57.5962 998.574 57.5962 992.75 Q57.5962 989.376 56.7687 986.225 Q55.9411 983.042 54.2861 979.923 L59.8242 979.923 Q61.161 983.074 61.8612 986.384 Q62.5615 989.694 62.5615 993.1 Q62.5615 1001.63 57.5962 1006.63 Q52.631 1011.59 44.1646 1011.59 Q35.4117 1011.59 30.2873 1006.88 Q25.1311 1002.14 25.1311 994.118 Q25.1311 986.925 29.7781 982.755 Q34.3932 978.554 42.3504 978.554 M40.6316 984.411 Q35.8255 984.474 32.9609 987.116 Q30.0964 989.726 30.0964 994.055 Q30.0964 998.956 32.8654 1001.92 Q35.6345 1004.84 40.6634 1005.29 L40.6316 984.411 Z" fill="#000000" fill-rule="nonzero" fill-opacity="1" /><path clip-path="url(#clip180)" d="M31.4013 945.484 L12.1132 945.484 L12.1132 939.628 L61.6384 939.628 L61.6384 945.484 L56.2912 945.484 Q59.4741 947.33 61.0337 950.163 Q62.5615 952.964 62.5615 956.911 Q62.5615 963.372 57.4052 967.446 Q52.249 971.488 43.8463 971.488 Q35.4436 971.488 30.2873 967.446 Q25.1311 963.372 25.1311 956.911 Q25.1311 952.964 26.6907 950.163 Q28.2185 947.33 31.4013 945.484 M43.8463 965.441 Q50.3075 965.441 53.9996 962.799 Q57.6599 960.125 57.6599 955.478 Q57.6599 950.831 53.9996 948.158 Q50.3075 945.484 43.8463 945.484 Q37.3851 945.484 33.7248 948.158 Q30.0327 950.831 30.0327 955.478 Q30.0327 960.125 33.7248 962.799 Q37.3851 965.441 43.8463 965.441 Z" fill="#000000" fill-rule="nonzero" fill-opacity="1" /><path clip-path="url(#clip180)" d="M12.1132 888.798 L16.983 888.798 L16.983 894.399 Q16.983 897.551 18.2562 898.792 Q19.5293 900.001 22.8395 900.001 L25.9905 900.001 L25.9905 890.357 L30.542 890.357 L30.542 900.001 L61.6384 900.001 L61.6384 905.89 L30.542 905.89 L30.542 911.491 L25.9905 911.491 L25.9905 905.89 L23.5079 905.89 Q17.5559 905.89 14.8505 903.121 Q12.1132 900.351 12.1132 894.336 L12.1132 888.798 Z" fill="#000000" fill-rule="nonzero" fill-opacity="1" /><path clip-path="url(#clip180)" d="M31.465 863.239 Q30.8921 864.226 30.6375 865.404 Q30.351 866.55 30.351 867.95 Q30.351 872.915 33.5975 875.589 Q36.8122 878.231 42.8596 878.231 L61.6384 878.231 L61.6384 884.119 L25.9905 884.119 L25.9905 878.231 L31.5287 878.231 Q28.2821 876.385 26.7225 873.424 Q25.1311 870.464 25.1311 866.231 Q25.1311 865.626 25.2266 864.894 Q25.2903 864.162 25.4494 863.271 L31.465 863.239 Z" fill="#000000" fill-rule="nonzero" fill-opacity="1" /><path clip-path="url(#clip180)" d="M43.719 840.896 Q43.719 847.993 45.3422 850.731 Q46.9655 853.468 50.8804 853.468 Q53.9996 853.468 55.8457 851.431 Q57.6599 849.362 57.6599 845.829 Q57.6599 840.959 54.2224 838.031 Q50.7531 835.071 45.0239 835.071 L43.719 835.071 L43.719 840.896 M41.3 829.215 L61.6384 829.215 L61.6384 835.071 L56.2276 835.071 Q59.4741 837.076 61.0337 840.068 Q62.5615 843.06 62.5615 847.389 Q62.5615 852.863 59.5059 856.11 Q56.4186 859.324 51.2623 859.324 Q45.2467 859.324 42.1912 855.314 Q39.1357 851.272 39.1357 843.283 L39.1357 835.071 L38.5628 835.071 Q34.5205 835.071 32.3244 837.745 Q30.0964 840.386 30.0964 845.193 Q30.0964 848.248 30.8284 851.145 Q31.5605 854.041 33.0246 856.715 L27.6137 856.715 Q26.3724 853.5 25.7677 850.476 Q25.1311 847.452 25.1311 844.588 Q25.1311 836.853 29.1415 833.034 Q33.1519 829.215 41.3 829.215 Z" fill="#000000" fill-rule="nonzero" fill-opacity="1" /><path clip-path="url(#clip180)" d="M27.3591 791.498 L32.8336 791.498 Q31.465 793.98 30.7966 796.495 Q30.0964 798.978 30.0964 801.524 Q30.0964 807.221 33.7248 810.372 Q37.3214 813.523 43.8463 813.523 Q50.3711 813.523 53.9996 810.372 Q57.5962 807.221 57.5962 801.524 Q57.5962 798.978 56.9278 796.495 Q56.2276 793.98 54.859 791.498 L60.2698 791.498 Q61.4156 793.949 61.9886 796.59 Q62.5615 799.2 62.5615 802.16 Q62.5615 810.213 57.5007 814.955 Q52.44 819.698 43.8463 819.698 Q35.1253 819.698 30.1282 814.924 Q25.1311 810.118 25.1311 801.778 Q25.1311 799.073 25.704 796.495 Q26.2451 793.917 27.3591 791.498 Z" fill="#000000" fill-rule="nonzero" fill-opacity="1" /><path clip-path="url(#clip180)" d="M15.869 775.52 L25.9905 775.52 L25.9905 763.457 L30.542 763.457 L30.542 775.52 L49.8937 775.52 Q54.2542 775.52 55.4955 774.342 Q56.7368 773.133 56.7368 769.472 L56.7368 763.457 L61.6384 763.457 L61.6384 769.472 Q61.6384 776.252 59.124 778.83 Q56.5777 781.408 49.8937 781.408 L30.542 781.408 L30.542 785.705 L25.9905 785.705 L25.9905 781.408 L15.869 781.408 L15.869 775.52 Z" fill="#000000" fill-rule="nonzero" fill-opacity="1" /><path clip-path="url(#clip180)" d="M25.9905 755.754 L25.9905 749.898 L61.6384 749.898 L61.6384 755.754 L25.9905 755.754 M12.1132 755.754 L12.1132 749.898 L19.5293 749.898 L19.5293 755.754 L12.1132 755.754 Z" fill="#000000" fill-rule="nonzero" fill-opacity="1" /><path clip-path="url(#clip180)" d="M30.0964 723.83 Q30.0964 728.541 33.7885 731.278 Q37.4488 734.016 43.8463 734.016 Q50.2438 734.016 53.9359 731.31 Q57.5962 728.573 57.5962 723.83 Q57.5962 719.152 53.9041 716.414 Q50.212 713.677 43.8463 713.677 Q37.5124 713.677 33.8203 716.414 Q30.0964 719.152 30.0964 723.83 M25.1311 723.83 Q25.1311 716.192 30.0964 711.831 Q35.0616 707.471 43.8463 707.471 Q52.5991 707.471 57.5962 711.831 Q62.5615 716.192 62.5615 723.83 Q62.5615 731.501 57.5962 735.862 Q52.5991 740.19 43.8463 740.19 Q35.0616 740.19 30.0964 735.862 Q25.1311 731.501 25.1311 723.83 Z" fill="#000000" fill-rule="nonzero" fill-opacity="1" /><path clip-path="url(#clip180)" d="M40.1224 668.13 L61.6384 668.13 L61.6384 673.987 L40.3133 673.987 Q35.2526 673.987 32.7381 675.96 Q30.2237 677.934 30.2237 681.88 Q30.2237 686.623 33.2474 689.36 Q36.2711 692.097 41.491 692.097 L61.6384 692.097 L61.6384 697.986 L25.9905 697.986 L25.9905 692.097 L31.5287 692.097 Q28.314 689.997 26.7225 687.164 Q25.1311 684.299 25.1311 680.575 Q25.1311 674.432 28.9505 671.281 Q32.7381 668.13 40.1224 668.13 Z" fill="#000000" fill-rule="nonzero" fill-opacity="1" /><path clip-path="url(#clip180)" d="M851.518 14.0809 L851.518 22.0612 Q846.86 19.8332 842.728 18.7395 Q838.596 17.6457 834.748 17.6457 Q828.064 17.6457 824.418 20.2383 Q820.813 22.8309 820.813 27.611 Q820.813 31.6214 823.203 33.6873 Q825.633 35.7128 832.358 36.9686 L837.3 37.9813 Q846.455 39.7232 850.789 44.1387 Q855.164 48.5136 855.164 55.8863 Q855.164 64.6767 849.25 69.2137 Q843.376 73.7508 831.993 73.7508 Q827.699 73.7508 822.838 72.7785 Q818.017 71.8063 812.832 69.9024 L812.832 61.4765 Q817.815 64.2716 822.595 65.6895 Q827.375 67.1073 831.993 67.1073 Q839.001 67.1073 842.809 64.3527 Q846.617 61.598 846.617 56.4939 Q846.617 52.0379 843.862 49.5264 Q841.148 47.0148 834.91 45.759 L829.927 44.7868 Q820.772 42.9639 816.681 39.075 Q812.589 35.1862 812.589 28.2591 Q812.589 20.2383 818.22 15.6203 Q823.891 11.0023 833.816 11.0023 Q838.069 11.0023 842.485 11.7719 Q846.9 12.5416 851.518 14.0809 Z" fill="#000000" fill-rule="nonzero" fill-opacity="1" /><path clip-path="url(#clip180)" d="M874.973 14.324 L874.973 27.2059 L890.326 27.2059 L890.326 32.9987 L874.973 32.9987 L874.973 57.6282 Q874.973 63.1779 876.472 64.7578 Q878.011 66.3376 882.67 66.3376 L890.326 66.3376 L890.326 72.576 L882.67 72.576 Q874.042 72.576 870.76 69.3758 Q867.479 66.1351 867.479 57.6282 L867.479 32.9987 L862.01 32.9987 L862.01 27.2059 L867.479 27.2059 L867.479 14.324 L874.973 14.324 Z" fill="#000000" fill-rule="nonzero" fill-opacity="1" /><path clip-path="url(#clip180)" d="M920.748 49.7694 Q911.715 49.7694 908.231 51.8354 Q904.747 53.9013 904.747 58.8839 Q904.747 62.8538 907.34 65.2034 Q909.973 67.5124 914.47 67.5124 Q920.667 67.5124 924.394 63.1374 Q928.162 58.7219 928.162 51.4303 L928.162 49.7694 L920.748 49.7694 M935.615 46.6907 L935.615 72.576 L928.162 72.576 L928.162 65.6895 Q925.61 69.8214 921.802 71.8063 Q917.994 73.7508 912.485 73.7508 Q905.517 73.7508 901.385 69.8619 Q897.294 65.9325 897.294 59.3701 Q897.294 51.7138 902.398 47.825 Q907.542 43.9361 917.71 43.9361 L928.162 43.9361 L928.162 43.2069 Q928.162 38.0623 924.759 35.2672 Q921.397 32.4315 915.28 32.4315 Q911.391 32.4315 907.705 33.3632 Q904.018 34.295 900.615 36.1584 L900.615 29.2718 Q904.707 27.692 908.555 26.9223 Q912.404 26.1121 916.049 26.1121 Q925.893 26.1121 930.754 31.2163 Q935.615 36.3204 935.615 46.6907 Z" fill="#000000" fill-rule="nonzero" fill-opacity="1" /><path clip-path="url(#clip180)" d="M988.682 45.1919 L988.682 72.576 L981.228 72.576 L981.228 45.4349 Q981.228 38.994 978.717 35.7938 Q976.205 32.5936 971.182 32.5936 Q965.146 32.5936 961.663 36.4419 Q958.179 40.2903 958.179 46.9338 L958.179 72.576 L950.685 72.576 L950.685 27.2059 L958.179 27.2059 L958.179 34.2544 Q960.852 30.163 964.458 28.1376 Q968.103 26.1121 972.843 26.1121 Q980.661 26.1121 984.672 30.9732 Q988.682 35.7938 988.682 45.1919 Z" fill="#000000" fill-rule="nonzero" fill-opacity="1" /><path clip-path="url(#clip180)" d="M1033.4 34.0924 L1033.4 9.54393 L1040.86 9.54393 L1040.86 72.576 L1033.4 72.576 L1033.4 65.7705 Q1031.05 69.8214 1027.45 71.8063 Q1023.88 73.7508 1018.86 73.7508 Q1010.64 73.7508 1005.45 67.1883 Q1000.31 60.6258 1000.31 49.9314 Q1000.31 39.2371 1005.45 32.6746 Q1010.64 26.1121 1018.86 26.1121 Q1023.88 26.1121 1027.45 28.0971 Q1031.05 30.0415 1033.4 34.0924 M1008 49.9314 Q1008 58.1548 1011.37 62.8538 Q1014.77 67.5124 1020.68 67.5124 Q1026.6 67.5124 1030 62.8538 Q1033.4 58.1548 1033.4 49.9314 Q1033.4 41.7081 1030 37.0496 Q1026.6 32.3505 1020.68 32.3505 Q1014.77 32.3505 1011.37 37.0496 Q1008 41.7081 1008 49.9314 Z" fill="#000000" fill-rule="nonzero" fill-opacity="1" /><path clip-path="url(#clip180)" d="M1076.83 49.7694 Q1067.8 49.7694 1064.31 51.8354 Q1060.83 53.9013 1060.83 58.8839 Q1060.83 62.8538 1063.42 65.2034 Q1066.05 67.5124 1070.55 67.5124 Q1076.75 67.5124 1080.48 63.1374 Q1084.24 58.7219 1084.24 51.4303 L1084.24 49.7694 L1076.83 49.7694 M1091.7 46.6907 L1091.7 72.576 L1084.24 72.576 L1084.24 65.6895 Q1081.69 69.8214 1077.88 71.8063 Q1074.08 73.7508 1068.57 73.7508 Q1061.6 73.7508 1057.47 69.8619 Q1053.38 65.9325 1053.38 59.3701 Q1053.38 51.7138 1058.48 47.825 Q1063.62 43.9361 1073.79 43.9361 L1084.24 43.9361 L1084.24 43.2069 Q1084.24 38.0623 1080.84 35.2672 Q1077.48 32.4315 1071.36 32.4315 Q1067.47 32.4315 1063.79 33.3632 Q1060.1 34.295 1056.7 36.1584 L1056.7 29.2718 Q1060.79 27.692 1064.64 26.9223 Q1068.48 26.1121 1072.13 26.1121 Q1081.97 26.1121 1086.84 31.2163 Q1091.7 36.3204 1091.7 46.6907 Z" fill="#000000" fill-rule="nonzero" fill-opacity="1" /><path clip-path="url(#clip180)" d="M1133.34 34.1734 Q1132.08 33.4443 1130.59 33.1202 Q1129.13 32.7556 1127.34 32.7556 Q1121.03 32.7556 1117.62 36.8875 Q1114.26 40.9789 1114.26 48.6757 L1114.26 72.576 L1106.77 72.576 L1106.77 27.2059 L1114.26 27.2059 L1114.26 34.2544 Q1116.61 30.1225 1120.38 28.1376 Q1124.14 26.1121 1129.53 26.1121 Q1130.3 26.1121 1131.23 26.2337 Q1132.17 26.3147 1133.3 26.5172 L1133.34 34.1734 Z" fill="#000000" fill-rule="nonzero" fill-opacity="1" /><path clip-path="url(#clip180)" d="M1169.55 34.0924 L1169.55 9.54393 L1177.01 9.54393 L1177.01 72.576 L1169.55 72.576 L1169.55 65.7705 Q1167.21 69.8214 1163.6 71.8063 Q1160.04 73.7508 1155.01 73.7508 Q1146.79 73.7508 1141.6 67.1883 Q1136.46 60.6258 1136.46 49.9314 Q1136.46 39.2371 1141.6 32.6746 Q1146.79 26.1121 1155.01 26.1121 Q1160.04 26.1121 1163.6 28.0971 Q1167.21 30.0415 1169.55 34.0924 M1144.16 49.9314 Q1144.16 58.1548 1147.52 62.8538 Q1150.92 67.5124 1156.84 67.5124 Q1162.75 67.5124 1166.15 62.8538 Q1169.55 58.1548 1169.55 49.9314 Q1169.55 41.7081 1166.15 37.0496 Q1162.75 32.3505 1156.84 32.3505 Q1150.92 32.3505 1147.52 37.0496 Q1144.16 41.7081 1144.16 49.9314 Z" fill="#000000" fill-rule="nonzero" fill-opacity="1" /><path clip-path="url(#clip180)" d="M1255.31 14.0809 L1255.31 22.0612 Q1250.65 19.8332 1246.52 18.7395 Q1242.39 17.6457 1238.54 17.6457 Q1231.86 17.6457 1228.21 20.2383 Q1224.61 22.8309 1224.61 27.611 Q1224.61 31.6214 1227 33.6873 Q1229.43 35.7128 1236.15 36.9686 L1241.09 37.9813 Q1250.25 39.7232 1254.58 44.1387 Q1258.96 48.5136 1258.96 55.8863 Q1258.96 64.6767 1253.04 69.2137 Q1247.17 73.7508 1235.79 73.7508 Q1231.49 73.7508 1226.63 72.7785 Q1221.81 71.8063 1216.63 69.9024 L1216.63 61.4765 Q1221.61 64.2716 1226.39 65.6895 Q1231.17 67.1073 1235.79 67.1073 Q1242.8 67.1073 1246.6 64.3527 Q1250.41 61.598 1250.41 56.4939 Q1250.41 52.0379 1247.66 49.5264 Q1244.94 47.0148 1238.7 45.759 L1233.72 44.7868 Q1224.57 42.9639 1220.47 39.075 Q1216.38 35.1862 1216.38 28.2591 Q1216.38 20.2383 1222.01 15.6203 Q1227.69 11.0023 1237.61 11.0023 Q1241.86 11.0023 1246.28 11.7719 Q1250.69 12.5416 1255.31 14.0809 Z" fill="#000000" fill-rule="nonzero" fill-opacity="1" /><path clip-path="url(#clip180)" d="M1271.72 12.096 L1279.9 12.096 L1279.9 72.576 L1271.72 72.576 L1271.72 12.096 Z" fill="#000000" fill-rule="nonzero" fill-opacity="1" /><path clip-path="url(#clip180)" d="M1324.87 44.2197 Q1327.5 45.1109 1329.97 48.0275 Q1332.48 50.9442 1334.99 56.0483 L1343.3 72.576 L1334.51 72.576 L1326.77 57.061 Q1323.77 50.9847 1320.94 48.9997 Q1318.14 47.0148 1313.28 47.0148 L1304.37 47.0148 L1304.37 72.576 L1296.19 72.576 L1296.19 12.096 L1314.66 12.096 Q1325.03 12.096 1330.13 16.4305 Q1335.24 20.7649 1335.24 29.5149 Q1335.24 35.2267 1332.56 38.994 Q1329.93 42.7613 1324.87 44.2197 M1304.37 18.8205 L1304.37 40.2903 L1314.66 40.2903 Q1320.57 40.2903 1323.57 37.5762 Q1326.61 34.8216 1326.61 29.5149 Q1326.61 24.2082 1323.57 21.5346 Q1320.57 18.8205 1314.66 18.8205 L1304.37 18.8205 Z" fill="#000000" fill-rule="nonzero" fill-opacity="1" /><path clip-path="url(#clip180)" d="M1374.53 27.2059 L1382.43 27.2059 L1396.61 65.2844 L1410.79 27.2059 L1418.69 27.2059 L1401.67 72.576 L1391.54 72.576 L1374.53 27.2059 Z" fill="#000000" fill-rule="nonzero" fill-opacity="1" /><path clip-path="url(#clip180)" d="M1457.9 28.5427 L1457.9 35.5912 Q1454.74 33.9709 1451.34 33.1607 Q1447.93 32.3505 1444.29 32.3505 Q1438.74 32.3505 1435.94 34.0519 Q1433.19 35.7533 1433.19 39.156 Q1433.19 41.7486 1435.17 43.2475 Q1437.16 44.7058 1443.15 46.0426 L1445.71 46.6097 Q1453.64 48.3111 1456.97 51.4303 Q1460.33 54.509 1460.33 60.0587 Q1460.33 66.3781 1455.31 70.0644 Q1450.32 73.7508 1441.57 73.7508 Q1437.93 73.7508 1433.96 73.0216 Q1430.03 72.3329 1425.65 70.9151 L1425.65 63.2184 Q1429.79 65.3654 1433.8 66.4591 Q1437.81 67.5124 1441.74 67.5124 Q1447 67.5124 1449.84 65.73 Q1452.67 63.9071 1452.67 60.6258 Q1452.67 57.5877 1450.61 55.9673 Q1448.58 54.3469 1441.65 52.8481 L1439.06 52.2405 Q1432.13 50.7821 1429.06 47.7845 Q1425.98 44.7463 1425.98 39.4801 Q1425.98 33.0797 1430.51 29.5959 Q1435.05 26.1121 1443.4 26.1121 Q1447.53 26.1121 1451.17 26.7198 Q1454.82 27.3274 1457.9 28.5427 Z" fill="#000000" fill-rule="nonzero" fill-opacity="1" /><path clip-path="url(#clip180)" d="M1490.51 12.096 L1541.67 12.096 L1541.67 18.9825 L1520.2 18.9825 L1520.2 72.576 L1511.98 72.576 L1511.98 18.9825 L1490.51 18.9825 L1490.51 12.096 Z" fill="#000000" fill-rule="nonzero" fill-opacity="1" /><path clip-path="url(#clip180)" d="M1531.18 27.2059 L1538.63 27.2059 L1547.95 62.6108 L1557.23 27.2059 L1566.02 27.2059 L1575.33 62.6108 L1584.61 27.2059 L1592.06 27.2059 L1580.2 72.576 L1571.4 72.576 L1561.64 35.3887 L1551.84 72.576 L1543.05 72.576 L1531.18 27.2059 Z" fill="#000000" fill-rule="nonzero" fill-opacity="1" /><path clip-path="url(#clip180)" d="M1620.95 32.4315 Q1614.95 32.4315 1611.47 37.1306 Q1607.98 41.7891 1607.98 49.9314 Q1607.98 58.0738 1611.43 62.7728 Q1614.91 67.4314 1620.95 67.4314 Q1626.9 67.4314 1630.39 62.7323 Q1633.87 58.0333 1633.87 49.9314 Q1633.87 41.8701 1630.39 37.1711 Q1626.9 32.4315 1620.95 32.4315 M1620.95 26.1121 Q1630.67 26.1121 1636.22 32.4315 Q1641.77 38.7509 1641.77 49.9314 Q1641.77 61.0714 1636.22 67.4314 Q1630.67 73.7508 1620.95 73.7508 Q1611.18 73.7508 1605.63 67.4314 Q1600.13 61.0714 1600.13 49.9314 Q1600.13 38.7509 1605.63 32.4315 Q1611.18 26.1121 1620.95 26.1121 Z" fill="#000000" fill-rule="nonzero" fill-opacity="1" /><path clip-path="url(#clip180)" d="M1651.9 46.5287 L1673.73 46.5287 L1673.73 53.1722 L1651.9 53.1722 L1651.9 46.5287 Z" fill="#000000" fill-rule="nonzero" fill-opacity="1" /><path clip-path="url(#clip180)" d="M1714.52 28.5427 L1714.52 35.5912 Q1711.36 33.9709 1707.96 33.1607 Q1704.56 32.3505 1700.91 32.3505 Q1695.36 32.3505 1692.57 34.0519 Q1689.81 35.7533 1689.81 39.156 Q1689.81 41.7486 1691.8 43.2475 Q1693.78 44.7058 1699.78 46.0426 L1702.33 46.6097 Q1710.27 48.3111 1713.59 51.4303 Q1716.95 54.509 1716.95 60.0587 Q1716.95 66.3781 1711.93 70.0644 Q1706.95 73.7508 1698.2 73.7508 Q1694.55 73.7508 1690.58 73.0216 Q1686.65 72.3329 1682.28 70.9151 L1682.28 63.2184 Q1686.41 65.3654 1690.42 66.4591 Q1694.43 67.5124 1698.36 67.5124 Q1703.63 67.5124 1706.46 65.73 Q1709.3 63.9071 1709.3 60.6258 Q1709.3 57.5877 1707.23 55.9673 Q1705.21 54.3469 1698.28 52.8481 L1695.69 52.2405 Q1688.76 50.7821 1685.68 47.7845 Q1682.6 44.7463 1682.6 39.4801 Q1682.6 33.0797 1687.14 29.5959 Q1691.68 26.1121 1700.02 26.1121 Q1704.15 26.1121 1707.8 26.7198 Q1711.44 27.3274 1714.52 28.5427 Z" fill="#000000" fill-rule="nonzero" fill-opacity="1" /><path clip-path="url(#clip180)" d="M1736.2 14.324 L1736.2 27.2059 L1751.55 27.2059 L1751.55 32.9987 L1736.2 32.9987 L1736.2 57.6282 Q1736.2 63.1779 1737.69 64.7578 Q1739.23 66.3376 1743.89 66.3376 L1751.55 66.3376 L1751.55 72.576 L1743.89 72.576 Q1735.26 72.576 1731.98 69.3758 Q1728.7 66.1351 1728.7 57.6282 L1728.7 32.9987 L1723.23 32.9987 L1723.23 27.2059 L1728.7 27.2059 L1728.7 14.324 L1736.2 14.324 Z" fill="#000000" fill-rule="nonzero" fill-opacity="1" /><path clip-path="url(#clip180)" d="M1781.97 49.7694 Q1772.94 49.7694 1769.45 51.8354 Q1765.97 53.9013 1765.97 58.8839 Q1765.97 62.8538 1768.56 65.2034 Q1771.2 67.5124 1775.69 67.5124 Q1781.89 67.5124 1785.62 63.1374 Q1789.38 58.7219 1789.38 51.4303 L1789.38 49.7694 L1781.97 49.7694 M1796.84 46.6907 L1796.84 72.576 L1789.38 72.576 L1789.38 65.6895 Q1786.83 69.8214 1783.02 71.8063 Q1779.22 73.7508 1773.71 73.7508 Q1766.74 73.7508 1762.61 69.8619 Q1758.52 65.9325 1758.52 59.3701 Q1758.52 51.7138 1763.62 47.825 Q1768.76 43.9361 1778.93 43.9361 L1789.38 43.9361 L1789.38 43.2069 Q1789.38 38.0623 1785.98 35.2672 Q1782.62 32.4315 1776.5 32.4315 Q1772.61 32.4315 1768.93 33.3632 Q1765.24 34.295 1761.84 36.1584 L1761.84 29.2718 Q1765.93 27.692 1769.78 26.9223 Q1773.63 26.1121 1777.27 26.1121 Q1787.12 26.1121 1791.98 31.2163 Q1796.84 36.3204 1796.84 46.6907 Z" fill="#000000" fill-rule="nonzero" fill-opacity="1" /><path clip-path="url(#clip180)" d="M1842.05 49.3643 Q1842.05 41.2625 1838.68 36.8065 Q1835.36 32.3505 1829.33 32.3505 Q1823.33 32.3505 1819.97 36.8065 Q1816.65 41.2625 1816.65 49.3643 Q1816.65 57.4256 1819.97 61.8816 Q1823.33 66.3376 1829.33 66.3376 Q1835.36 66.3376 1838.68 61.8816 Q1842.05 57.4256 1842.05 49.3643 M1849.5 66.9452 Q1849.5 78.5308 1844.35 84.1616 Q1839.21 89.8329 1828.6 89.8329 Q1824.67 89.8329 1821.18 89.2252 Q1817.7 88.6581 1814.42 87.4428 L1814.42 80.1917 Q1817.7 81.9741 1820.9 82.8248 Q1824.1 83.6755 1827.42 83.6755 Q1834.75 83.6755 1838.4 79.8271 Q1842.05 76.0193 1842.05 68.282 L1842.05 64.5957 Q1839.74 68.6061 1836.13 70.5911 Q1832.53 72.576 1827.5 72.576 Q1819.16 72.576 1814.05 66.2161 Q1808.95 59.8562 1808.95 49.3643 Q1808.95 38.832 1814.05 32.472 Q1819.16 26.1121 1827.5 26.1121 Q1832.53 26.1121 1836.13 28.0971 Q1839.74 30.082 1842.05 34.0924 L1842.05 27.2059 L1849.5 27.2059 L1849.5 66.9452 Z" fill="#000000" fill-rule="nonzero" fill-opacity="1" /><path clip-path="url(#clip180)" d="M1903.66 48.0275 L1903.66 51.6733 L1869.39 51.6733 Q1869.88 59.3701 1874.01 63.421 Q1878.18 67.4314 1885.59 67.4314 Q1889.89 67.4314 1893.9 66.3781 Q1897.95 65.3249 1901.92 63.2184 L1901.92 70.267 Q1897.91 71.9684 1893.69 72.8596 Q1889.48 73.7508 1885.15 73.7508 Q1874.29 73.7508 1867.93 67.4314 Q1861.61 61.1119 1861.61 50.3365 Q1861.61 39.1965 1867.61 32.6746 Q1873.64 26.1121 1883.85 26.1121 Q1893.01 26.1121 1898.31 32.0264 Q1903.66 37.9003 1903.66 48.0275 M1896.21 45.84 Q1896.13 39.7232 1892.76 36.0774 Q1889.44 32.4315 1883.93 32.4315 Q1877.69 32.4315 1873.93 35.9558 Q1870.2 39.4801 1869.63 45.8805 L1896.21 45.84 Z" fill="#000000" fill-rule="nonzero" fill-opacity="1" /><path clip-path="url(#clip180)" d="M1978.84 14.0809 L1978.84 22.0612 Q1974.19 19.8332 1970.05 18.7395 Q1965.92 17.6457 1962.07 17.6457 Q1955.39 17.6457 1951.74 20.2383 Q1948.14 22.8309 1948.14 27.611 Q1948.14 31.6214 1950.53 33.6873 Q1952.96 35.7128 1959.68 36.9686 L1964.63 37.9813 Q1973.78 39.7232 1978.12 44.1387 Q1982.49 48.5136 1982.49 55.8863 Q1982.49 64.6767 1976.58 69.2137 Q1970.7 73.7508 1959.32 73.7508 Q1955.03 73.7508 1950.16 72.7785 Q1945.34 71.8063 1940.16 69.9024 L1940.16 61.4765 Q1945.14 64.2716 1949.92 65.6895 Q1954.7 67.1073 1959.32 67.1073 Q1966.33 67.1073 1970.14 64.3527 Q1973.94 61.598 1973.94 56.4939 Q1973.94 52.0379 1971.19 49.5264 Q1968.47 47.0148 1962.24 45.759 L1957.25 44.7868 Q1948.1 42.9639 1944.01 39.075 Q1939.92 35.1862 1939.92 28.2591 Q1939.92 20.2383 1945.55 15.6203 Q1951.22 11.0023 1961.14 11.0023 Q1965.4 11.0023 1969.81 11.7719 Q1974.23 12.5416 1978.84 14.0809 Z" fill="#000000" fill-rule="nonzero" fill-opacity="1" /><path clip-path="url(#clip180)" d="M1995.25 12.096 L2003.43 12.096 L2003.43 72.576 L1995.25 72.576 L1995.25 12.096 Z" fill="#000000" fill-rule="nonzero" fill-opacity="1" /><path clip-path="url(#clip180)" d="M2048.4 44.2197 Q2051.03 45.1109 2053.5 48.0275 Q2056.01 50.9442 2058.53 56.0483 L2066.83 72.576 L2058.04 72.576 L2050.3 57.061 Q2047.3 50.9847 2044.47 48.9997 Q2041.67 47.0148 2036.81 47.0148 L2027.9 47.0148 L2027.9 72.576 L2019.72 72.576 L2019.72 12.096 L2038.19 12.096 Q2048.56 12.096 2053.66 16.4305 Q2058.77 20.7649 2058.77 29.5149 Q2058.77 35.2267 2056.1 38.994 Q2053.46 42.7613 2048.4 44.2197 M2027.9 18.8205 L2027.9 40.2903 L2038.19 40.2903 Q2044.1 40.2903 2047.1 37.5762 Q2050.14 34.8216 2050.14 29.5149 Q2050.14 24.2082 2047.1 21.5346 Q2044.1 18.8205 2038.19 18.8205 L2027.9 18.8205 Z" fill="#000000" fill-rule="nonzero" fill-opacity="1" /><polyline clip-path="url(#clip181)" style="stroke:#ff0000; stroke-linecap:round; stroke-linejoin:round; stroke-width:8; stroke-opacity:1; fill:none" points="306.647,1680.37 317.978,1676.53 329.309,1671.42 340.639,1664.42 351.97,1654.7 363.3,1641.12 374.631,1622.12 385.962,1595.68 397.292,1559.25 408.623,1509.92 419.954,1444.76 431.284,1361.74 442.615,1260.87 453.945,1145.6 465.276,1023.25 476.607,904.107 487.937,798.564 499.268,714.449 510.599,655.267 521.929,620.479 533.26,606.808 544.59,610.052 555.921,625.815 567.252,650.466 578.582,681.081 589.913,715.42 601.244,751.909 612.574,789.394 623.905,827.076 635.235,864.412 646.566,901.024 657.897,936.666 669.227,971.184 680.558,1004.48 691.889,1036.5 703.219,1067.24 714.55,1096.68 725.88,1124.85 737.211,1151.78 748.542,1177.49 759.872,1202.04 771.203,1225.44 782.534,1247.77 793.864,1269.04 805.195,1289.31 816.525,1308.63 827.856,1327.02 839.187,1344.54 850.517,1361.22 861.848,1377.1 873.179,1392.22 884.509,1406.61 895.84,1420.31 907.17,1433.35 918.501,1445.76 929.832,1457.57 941.162,1468.8 952.493,1479.5 963.824,1489.67 975.154,1499.36 986.485,1508.57 997.815,1517.34 1009.15,1525.68 1020.48,1533.61 1031.81,1541.17 1043.14,1548.35 1054.47,1555.19 1065.8,1561.69 1077.13,1567.88 1088.46,1573.76 1099.79,1579.36 1111.12,1584.69 1122.45,1589.76 1133.78,1594.58 1145.11,1599.17 1156.44,1603.54 1167.77,1607.69 1179.11,1611.64 1190.44,1615.4 1201.77,1618.97 1213.1,1622.37 1224.43,1625.61 1235.76,1628.69 1247.09,1631.61 1258.42,1634.4 1269.75,1637.05 1281.08,1639.57 1292.41,1641.97 1303.74,1644.25 1315.07,1646.42 1326.4,1648.49 1337.73,1650.45 1349.06,1652.32 1360.4,1654.1 1371.73,1655.79 1383.06,1657.4 1394.39,1658.93 1405.72,1660.39 1417.05,1661.77 1428.38,1663.09 1439.71,1664.34 1451.04,1665.54 1462.37,1666.67 1473.7,1667.75 1485.03,1668.77 1496.36,1669.75 1507.69,1670.68 1519.02,1671.56 1530.35,1672.4 1541.69,1673.2 1553.02,1673.96 1564.35,1674.69 1575.68,1675.38 1587.01,1676.03 1598.34,1676.66 1609.67,1677.25 1621,1677.81 1632.33,1678.35 1643.66,1678.86 1654.99,1679.34 1666.32,1679.8 1677.65,1680.24 1688.98,1680.66 1700.31,1681.06 1711.64,1681.44 1722.98,1681.8 1734.31,1682.14 1745.64,1682.46 1756.97,1682.77 1768.3,1683.07 1779.63,1683.35 1790.96,1683.62 1802.29,1683.87 1813.62,1684.11 1824.95,1684.34 1836.28,1684.56 1847.61,1684.77 1858.94,1684.96 1870.27,1685.15 1881.6,1685.33 1892.93,1685.5 1904.27,1685.66 1915.6,1685.82 1926.93,1685.96 1938.26,1686.1 1949.59,1686.23 1960.92,1686.36 1972.25,1686.48 1983.58,1686.59 1994.91,1686.7 2006.24,1686.81 2017.57,1686.9 2028.9,1687 2040.23,1687.09 2051.56,1687.17 2062.89,1687.25 2074.22,1687.33 2085.56,1687.4 2096.89,1687.47 2108.22,1687.54 2119.55,1687.6 2130.88,1687.66 2142.21,1687.71 2153.54,1687.77 2164.87,1687.82 2176.2,1687.87 2187.53,1687.91 2198.86,1687.96 2210.19,1688 2221.52,1688.04 2232.85,1688.08 2244.18,1688.11 2255.51,1688.15 2266.85,1688.18 2278.18,1688.21 2289.51,1688.24 2300.84,1688.27 2312.17,1688.3 2323.5,1688.32 2334.83,1688.35 2346.16,1688.37 2357.49,1688.39 2368.82,1688.41 2380.15,1688.43 2391.48,1688.45 2402.81,1688.47 2414.14,1688.49 2425.47,1688.5 2436.8,1688.52 2448.14,1688.53 2459.47,1688.55 2470.8,1688.56 2482.13,1688.57 2493.46,1688.59 2504.79,1688.6 2516.12,1688.61 2527.45,1688.62 2538.78,1688.63 2550.11,1688.64 2561.44,1688.65 2572.77,1688.65 "/>
<polyline clip-path="url(#clip181)" style="stroke:#800080; stroke-linecap:round; stroke-linejoin:round; stroke-width:8; stroke-opacity:1; fill:none" stroke-dasharray="32, 20" points="306.647,1680.37 317.978,1675.91 329.309,1669.68 340.639,1660.77 351.97,1647.88 363.3,1629.17 374.631,1602.06 385.962,1563.07 397.292,1507.8 408.623,1431.25 419.954,1328.87 431.284,1198.53 442.615,1042.99 453.945,871.637 465.276,699.428 476.607,542.217 487.937,411.891 499.268,313.26 510.599,245.111 521.929,202.735 533.26,180.608 544.59,173.254 555.921,176.687 567.252,187.745 578.582,204.272 589.913,224.691 601.244,247.931 612.574,273.229 623.905,300.041 635.235,327.974 646.566,356.727 657.897,386.076 669.227,415.838 680.558,445.87 691.889,476.049 703.219,506.275 714.55,536.461 725.88,566.531 737.211,596.42 748.542,626.071 759.872,655.434 771.203,684.464 782.534,713.124 793.864,741.379 805.195,769.2 816.525,796.561 827.856,823.443 839.187,849.825 850.517,875.692 861.848,901.032 873.179,925.835 884.509,950.092 895.84,973.799 907.17,996.95 918.501,1019.54 929.832,1041.58 941.162,1063.06 952.493,1083.98 963.824,1104.35 975.154,1124.17 986.485,1143.45 997.815,1162.19 1009.15,1180.4 1020.48,1198.09 1031.81,1215.26 1043.14,1231.92 1054.47,1248.09 1065.8,1263.76 1077.13,1278.96 1088.46,1293.68 1099.79,1307.94 1111.12,1321.75 1122.45,1335.12 1133.78,1348.06 1145.11,1360.58 1156.44,1372.68 1167.77,1384.39 1179.11,1395.71 1190.44,1406.65 1201.77,1417.22 1213.1,1427.42 1224.43,1437.28 1235.76,1446.8 1247.09,1455.99 1258.42,1464.86 1269.75,1473.41 1281.08,1481.67 1292.41,1489.63 1303.74,1497.31 1315.07,1504.71 1326.4,1511.85 1337.73,1518.72 1349.06,1525.35 1360.4,1531.74 1371.73,1537.89 1383.06,1543.82 1394.39,1549.52 1405.72,1555.02 1417.05,1560.31 1428.38,1565.4 1439.71,1570.3 1451.04,1575.02 1462.37,1579.56 1473.7,1583.93 1485.03,1588.13 1496.36,1592.17 1507.69,1596.05 1519.02,1599.79 1530.35,1603.38 1541.69,1606.84 1553.02,1610.16 1564.35,1613.35 1575.68,1616.42 1587.01,1619.36 1598.34,1622.2 1609.67,1624.92 1621,1627.53 1632.33,1630.04 1643.66,1632.46 1654.99,1634.77 1666.32,1637 1677.65,1639.13 1688.98,1641.18 1700.31,1643.15 1711.64,1645.04 1722.98,1646.86 1734.31,1648.6 1745.64,1650.27 1756.97,1651.88 1768.3,1653.42 1779.63,1654.89 1790.96,1656.31 1802.29,1657.67 1813.62,1658.98 1824.95,1660.23 1836.28,1661.43 1847.61,1662.58 1858.94,1663.68 1870.27,1664.74 1881.6,1665.76 1892.93,1666.73 1904.27,1667.66 1915.6,1668.56 1926.93,1669.42 1938.26,1670.24 1949.59,1671.03 1960.92,1671.78 1972.25,1672.51 1983.58,1673.2 1994.91,1673.87 2006.24,1674.5 2017.57,1675.12 2028.9,1675.7 2040.23,1676.26 2051.56,1676.8 2062.89,1677.31 2074.22,1677.81 2085.56,1678.28 2096.89,1678.73 2108.22,1679.17 2119.55,1679.58 2130.88,1679.98 2142.21,1680.36 2153.54,1680.72 2164.87,1681.07 2176.2,1681.41 2187.53,1681.73 2198.86,1682.04 2210.19,1682.33 2221.52,1682.61 2232.85,1682.88 2244.18,1683.14 2255.51,1683.38 2266.85,1683.62 2278.18,1683.85 2289.51,1684.06 2300.84,1684.27 2312.17,1684.47 2323.5,1684.66 2334.83,1684.84 2346.16,1685.01 2357.49,1685.18 2368.82,1685.34 2380.15,1685.49 2391.48,1685.64 2402.81,1685.77 2414.14,1685.91 2425.47,1686.04 2436.8,1686.16 2448.14,1686.27 2459.47,1686.39 2470.8,1686.49 2482.13,1686.6 2493.46,1686.69 2504.79,1686.79 2516.12,1686.88 2527.45,1686.96 2538.78,1687.04 2550.11,1687.12 2561.44,1687.2 2572.77,1687.27 "/>
<path clip-path="url(#clip180)" d="M2017.21 336.856 L2560.69 336.856 L2560.69 181.336 L2017.21 181.336  Z" fill="#ffffff" fill-rule="evenodd" fill-opacity="1"/>
<polyline clip-path="url(#clip180)" style="stroke:#000000; stroke-linecap:round; stroke-linejoin:round; stroke-width:4; stroke-opacity:1; fill:none" points="2017.21,336.856 2560.69,336.856 2560.69,181.336 2017.21,181.336 2017.21,336.856 "/>
<polyline clip-path="url(#clip180)" style="stroke:#ff0000; stroke-linecap:round; stroke-linejoin:round; stroke-width:8; stroke-opacity:1; fill:none" points="2043.9,233.176 2204.04,233.176 "/>
<path clip-path="url(#clip180)" d="M2252.98 217.031 L2252.98 221.591 Q2250.32 220.318 2247.96 219.693 Q2245.6 219.068 2243.4 219.068 Q2239.58 219.068 2237.49 220.549 Q2235.43 222.031 2235.43 224.762 Q2235.43 227.054 2236.8 228.234 Q2238.19 229.392 2242.03 230.109 L2244.85 230.688 Q2250.09 231.683 2252.56 234.206 Q2255.06 236.706 2255.06 240.919 Q2255.06 245.942 2251.68 248.535 Q2248.33 251.128 2241.82 251.128 Q2239.37 251.128 2236.59 250.572 Q2233.84 250.016 2230.87 248.929 L2230.87 244.114 Q2233.72 245.711 2236.45 246.521 Q2239.18 247.331 2241.82 247.331 Q2245.83 247.331 2248 245.757 Q2250.18 244.183 2250.18 241.267 Q2250.18 238.72 2248.6 237.285 Q2247.05 235.85 2243.49 235.132 L2240.64 234.577 Q2235.41 233.535 2233.07 231.313 Q2230.73 229.091 2230.73 225.132 Q2230.73 220.549 2233.95 217.91 Q2237.19 215.271 2242.86 215.271 Q2245.29 215.271 2247.82 215.711 Q2250.34 216.151 2252.98 217.031 Z" fill="#000000" fill-rule="nonzero" fill-opacity="1" /><path clip-path="url(#clip180)" d="M2266.38 217.169 L2266.38 224.531 L2275.16 224.531 L2275.16 227.841 L2266.38 227.841 L2266.38 241.915 Q2266.38 245.086 2267.24 245.989 Q2268.12 246.891 2270.78 246.891 L2275.16 246.891 L2275.16 250.456 L2270.78 250.456 Q2265.85 250.456 2263.97 248.628 Q2262.1 246.776 2262.1 241.915 L2262.1 227.841 L2258.97 227.841 L2258.97 224.531 L2262.1 224.531 L2262.1 217.169 L2266.38 217.169 Z" fill="#000000" fill-rule="nonzero" fill-opacity="1" /><path clip-path="url(#clip180)" d="M2292.54 237.424 Q2287.38 237.424 2285.39 238.604 Q2283.4 239.785 2283.4 242.632 Q2283.4 244.901 2284.88 246.243 Q2286.38 247.563 2288.95 247.563 Q2292.49 247.563 2294.62 245.063 Q2296.78 242.54 2296.78 238.373 L2296.78 237.424 L2292.54 237.424 M2301.03 235.665 L2301.03 250.456 L2296.78 250.456 L2296.78 246.521 Q2295.32 248.882 2293.14 250.016 Q2290.97 251.128 2287.82 251.128 Q2283.84 251.128 2281.47 248.905 Q2279.14 246.66 2279.14 242.91 Q2279.14 238.535 2282.05 236.313 Q2284.99 234.091 2290.8 234.091 L2296.78 234.091 L2296.78 233.674 Q2296.78 230.734 2294.83 229.137 Q2292.91 227.517 2289.41 227.517 Q2287.19 227.517 2285.09 228.049 Q2282.98 228.581 2281.03 229.646 L2281.03 225.711 Q2283.37 224.808 2285.57 224.368 Q2287.77 223.906 2289.85 223.906 Q2295.48 223.906 2298.26 226.822 Q2301.03 229.739 2301.03 235.665 Z" fill="#000000" fill-rule="nonzero" fill-opacity="1" /><path clip-path="url(#clip180)" d="M2331.36 234.808 L2331.36 250.456 L2327.1 250.456 L2327.1 234.947 Q2327.1 231.267 2325.66 229.438 Q2324.23 227.609 2321.36 227.609 Q2317.91 227.609 2315.92 229.808 Q2313.93 232.007 2313.93 235.804 L2313.93 250.456 L2309.65 250.456 L2309.65 224.531 L2313.93 224.531 L2313.93 228.558 Q2315.46 226.22 2317.52 225.063 Q2319.6 223.906 2322.31 223.906 Q2326.78 223.906 2329.07 226.683 Q2331.36 229.438 2331.36 234.808 Z" fill="#000000" fill-rule="nonzero" fill-opacity="1" /><path clip-path="url(#clip180)" d="M2356.91 228.466 L2356.91 214.438 L2361.17 214.438 L2361.17 250.456 L2356.91 250.456 L2356.91 246.567 Q2355.57 248.882 2353.51 250.016 Q2351.47 251.128 2348.6 251.128 Q2343.9 251.128 2340.94 247.378 Q2338 243.628 2338 237.517 Q2338 231.405 2340.94 227.655 Q2343.9 223.906 2348.6 223.906 Q2351.47 223.906 2353.51 225.04 Q2355.57 226.151 2356.91 228.466 M2342.4 237.517 Q2342.4 242.216 2344.32 244.901 Q2346.27 247.563 2349.65 247.563 Q2353.02 247.563 2354.97 244.901 Q2356.91 242.216 2356.91 237.517 Q2356.91 232.817 2354.97 230.155 Q2353.02 227.47 2349.65 227.47 Q2346.27 227.47 2344.32 230.155 Q2342.4 232.817 2342.4 237.517 Z" fill="#000000" fill-rule="nonzero" fill-opacity="1" /><path clip-path="url(#clip180)" d="M2381.73 237.424 Q2376.57 237.424 2374.58 238.604 Q2372.59 239.785 2372.59 242.632 Q2372.59 244.901 2374.07 246.243 Q2375.57 247.563 2378.14 247.563 Q2381.68 247.563 2383.81 245.063 Q2385.96 242.54 2385.96 238.373 L2385.96 237.424 L2381.73 237.424 M2390.22 235.665 L2390.22 250.456 L2385.96 250.456 L2385.96 246.521 Q2384.51 248.882 2382.33 250.016 Q2380.15 251.128 2377.01 251.128 Q2373.02 251.128 2370.66 248.905 Q2368.33 246.66 2368.33 242.91 Q2368.33 238.535 2371.24 236.313 Q2374.18 234.091 2379.99 234.091 L2385.96 234.091 L2385.96 233.674 Q2385.96 230.734 2384.02 229.137 Q2382.1 227.517 2378.6 227.517 Q2376.38 227.517 2374.27 228.049 Q2372.17 228.581 2370.22 229.646 L2370.22 225.711 Q2372.56 224.808 2374.76 224.368 Q2376.96 223.906 2379.04 223.906 Q2384.67 223.906 2387.45 226.822 Q2390.22 229.739 2390.22 235.665 Z" fill="#000000" fill-rule="nonzero" fill-opacity="1" /><path clip-path="url(#clip180)" d="M2414.02 228.512 Q2413.3 228.095 2412.45 227.91 Q2411.61 227.702 2410.59 227.702 Q2406.98 227.702 2405.04 230.063 Q2403.12 232.401 2403.12 236.799 L2403.12 250.456 L2398.83 250.456 L2398.83 224.531 L2403.12 224.531 L2403.12 228.558 Q2404.46 226.197 2406.61 225.063 Q2408.77 223.906 2411.84 223.906 Q2412.28 223.906 2412.82 223.975 Q2413.35 224.021 2414 224.137 L2414.02 228.512 Z" fill="#000000" fill-rule="nonzero" fill-opacity="1" /><path clip-path="url(#clip180)" d="M2434.71 228.466 L2434.71 214.438 L2438.97 214.438 L2438.97 250.456 L2434.71 250.456 L2434.71 246.567 Q2433.37 248.882 2431.31 250.016 Q2429.27 251.128 2426.4 251.128 Q2421.71 251.128 2418.74 247.378 Q2415.8 243.628 2415.8 237.517 Q2415.8 231.405 2418.74 227.655 Q2421.71 223.906 2426.4 223.906 Q2429.27 223.906 2431.31 225.04 Q2433.37 226.151 2434.71 228.466 M2420.2 237.517 Q2420.2 242.216 2422.12 244.901 Q2424.07 247.563 2427.45 247.563 Q2430.83 247.563 2432.77 244.901 Q2434.71 242.216 2434.71 237.517 Q2434.71 232.817 2432.77 230.155 Q2430.83 227.47 2427.45 227.47 Q2424.07 227.47 2422.12 230.155 Q2420.2 232.817 2420.2 237.517 Z" fill="#000000" fill-rule="nonzero" fill-opacity="1" /><path clip-path="url(#clip180)" d="M2483.72 217.031 L2483.72 221.591 Q2481.06 220.318 2478.7 219.693 Q2476.33 219.068 2474.14 219.068 Q2470.32 219.068 2468.23 220.549 Q2466.17 222.031 2466.17 224.762 Q2466.17 227.054 2467.54 228.234 Q2468.93 229.392 2472.77 230.109 L2475.59 230.688 Q2480.83 231.683 2483.3 234.206 Q2485.8 236.706 2485.8 240.919 Q2485.8 245.942 2482.42 248.535 Q2479.07 251.128 2472.56 251.128 Q2470.11 251.128 2467.33 250.572 Q2464.58 250.016 2461.61 248.929 L2461.61 244.114 Q2464.46 245.711 2467.19 246.521 Q2469.92 247.331 2472.56 247.331 Q2476.57 247.331 2478.74 245.757 Q2480.92 244.183 2480.92 241.267 Q2480.92 238.72 2479.34 237.285 Q2477.79 235.85 2474.23 235.132 L2471.38 234.577 Q2466.15 233.535 2463.81 231.313 Q2461.47 229.091 2461.47 225.132 Q2461.47 220.549 2464.69 217.91 Q2467.93 215.271 2473.6 215.271 Q2476.03 215.271 2478.56 215.711 Q2481.08 216.151 2483.72 217.031 Z" fill="#000000" fill-rule="nonzero" fill-opacity="1" /><path clip-path="url(#clip180)" d="M2493.09 215.896 L2497.77 215.896 L2497.77 250.456 L2493.09 250.456 L2493.09 215.896 Z" fill="#000000" fill-rule="nonzero" fill-opacity="1" /><path clip-path="url(#clip180)" d="M2523.46 234.253 Q2524.97 234.762 2526.38 236.429 Q2527.82 238.095 2529.25 241.012 L2534 250.456 L2528.97 250.456 L2524.55 241.591 Q2522.84 238.118 2521.22 236.984 Q2519.62 235.85 2516.84 235.85 L2511.75 235.85 L2511.75 250.456 L2507.08 250.456 L2507.08 215.896 L2517.63 215.896 Q2523.56 215.896 2526.47 218.373 Q2529.39 220.85 2529.39 225.85 Q2529.39 229.114 2527.86 231.267 Q2526.36 233.419 2523.46 234.253 M2511.75 219.739 L2511.75 232.007 L2517.63 232.007 Q2521.01 232.007 2522.72 230.456 Q2524.46 228.882 2524.46 225.85 Q2524.46 222.818 2522.72 221.29 Q2521.01 219.739 2517.63 219.739 L2511.75 219.739 Z" fill="#000000" fill-rule="nonzero" fill-opacity="1" /><polyline clip-path="url(#clip180)" style="stroke:#800080; stroke-linecap:round; stroke-linejoin:round; stroke-width:8; stroke-opacity:1; fill:none" stroke-dasharray="32, 20" points="2043.9,285.016 2204.04,285.016 "/>
<path clip-path="url(#clip180)" d="M2252.98 268.871 L2252.98 273.431 Q2250.32 272.158 2247.96 271.533 Q2245.6 270.908 2243.4 270.908 Q2239.58 270.908 2237.49 272.389 Q2235.43 273.871 2235.43 276.602 Q2235.43 278.894 2236.8 280.074 Q2238.19 281.232 2242.03 281.949 L2244.85 282.528 Q2250.09 283.523 2252.56 286.046 Q2255.06 288.546 2255.06 292.759 Q2255.06 297.782 2251.68 300.375 Q2248.33 302.968 2241.82 302.968 Q2239.37 302.968 2236.59 302.412 Q2233.84 301.856 2230.87 300.769 L2230.87 295.954 Q2233.72 297.551 2236.45 298.361 Q2239.18 299.171 2241.82 299.171 Q2245.83 299.171 2248 297.597 Q2250.18 296.023 2250.18 293.107 Q2250.18 290.56 2248.6 289.125 Q2247.05 287.69 2243.49 286.972 L2240.64 286.417 Q2235.41 285.375 2233.07 283.153 Q2230.73 280.931 2230.73 276.972 Q2230.73 272.389 2233.95 269.75 Q2237.19 267.111 2242.86 267.111 Q2245.29 267.111 2247.82 267.551 Q2250.34 267.991 2252.98 268.871 Z" fill="#000000" fill-rule="nonzero" fill-opacity="1" /><path clip-path="url(#clip180)" d="M2262.35 267.736 L2267.03 267.736 L2267.03 302.296 L2262.35 302.296 L2262.35 267.736 Z" fill="#000000" fill-rule="nonzero" fill-opacity="1" /><path clip-path="url(#clip180)" d="M2292.72 286.093 Q2294.23 286.602 2295.64 288.269 Q2297.08 289.935 2298.51 292.852 L2303.26 302.296 L2298.23 302.296 L2293.81 293.431 Q2292.1 289.958 2290.48 288.824 Q2288.88 287.69 2286.1 287.69 L2281.01 287.69 L2281.01 302.296 L2276.34 302.296 L2276.34 267.736 L2286.89 267.736 Q2292.82 267.736 2295.73 270.213 Q2298.65 272.69 2298.65 277.69 Q2298.65 280.954 2297.12 283.107 Q2295.62 285.259 2292.72 286.093 M2281.01 271.579 L2281.01 283.847 L2286.89 283.847 Q2290.27 283.847 2291.98 282.296 Q2293.72 280.722 2293.72 277.69 Q2293.72 274.658 2291.98 273.13 Q2290.27 271.579 2286.89 271.579 L2281.01 271.579 Z" fill="#000000" fill-rule="nonzero" fill-opacity="1" /><path clip-path="url(#clip180)" d="M2313.72 298.361 L2330.04 298.361 L2330.04 302.296 L2308.09 302.296 L2308.09 298.361 Q2310.76 295.607 2315.34 290.977 Q2319.95 286.324 2321.13 284.982 Q2323.37 282.458 2324.25 280.722 Q2325.15 278.963 2325.15 277.273 Q2325.15 274.519 2323.21 272.783 Q2321.29 271.046 2318.19 271.046 Q2315.99 271.046 2313.53 271.81 Q2311.1 272.574 2308.33 274.125 L2308.33 269.403 Q2311.15 268.269 2313.6 267.69 Q2316.06 267.111 2318.09 267.111 Q2323.46 267.111 2326.66 269.796 Q2329.85 272.482 2329.85 276.972 Q2329.85 279.102 2329.04 281.023 Q2328.26 282.921 2326.15 285.514 Q2325.57 286.185 2322.47 289.403 Q2319.37 292.597 2313.72 298.361 Z" fill="#000000" fill-rule="nonzero" fill-opacity="1" /><path clip-path="url(#clip180)" d="M2364.55 266.324 Q2361.45 271.648 2359.95 276.857 Q2358.44 282.065 2358.44 287.412 Q2358.44 292.759 2359.95 298.014 Q2361.47 303.245 2364.55 308.546 L2360.85 308.546 Q2357.38 303.106 2355.64 297.852 Q2353.93 292.597 2353.93 287.412 Q2353.93 282.25 2355.64 277.019 Q2357.35 271.787 2360.85 266.324 L2364.55 266.324 Z" fill="#000000" fill-rule="nonzero" fill-opacity="1" /><path clip-path="url(#clip180)" d="M2373 267.736 L2377.68 267.736 L2377.68 302.296 L2373 302.296 L2373 267.736 Z" fill="#000000" fill-rule="nonzero" fill-opacity="1" /><path clip-path="url(#clip180)" d="M2385.94 299.75 L2390.66 299.75 L2390.66 285.607 L2385.5 286.556 L2385.5 283.87 L2390.83 282.968 L2394 282.968 L2394 299.75 L2398.74 299.75 L2398.74 302.296 L2385.94 302.296 L2385.94 299.75 Z" fill="#000000" fill-rule="nonzero" fill-opacity="1" /><path clip-path="url(#clip180)" d="M2438.21 272.574 L2438.21 285.468 L2451.1 285.468 L2451.1 289.403 L2438.21 289.403 L2438.21 302.296 L2434.32 302.296 L2434.32 289.403 L2421.43 289.403 L2421.43 285.468 L2434.32 285.468 L2434.32 272.574 L2438.21 272.574 Z" fill="#000000" fill-rule="nonzero" fill-opacity="1" /><path clip-path="url(#clip180)" d="M2475.85 267.736 L2480.52 267.736 L2480.52 302.296 L2475.85 302.296 L2475.85 267.736 Z" fill="#000000" fill-rule="nonzero" fill-opacity="1" /><path clip-path="url(#clip180)" d="M2491.38 299.657 L2501.2 299.657 L2501.2 302.296 L2487.35 302.296 L2487.35 299.75 Q2488.14 299.032 2489.6 297.736 Q2497.56 290.676 2497.56 288.5 Q2497.56 286.972 2496.36 286.046 Q2495.15 285.097 2493.19 285.097 Q2491.98 285.097 2490.57 285.514 Q2489.16 285.907 2487.49 286.718 L2487.49 283.87 Q2489.27 283.222 2490.8 282.898 Q2492.35 282.574 2493.67 282.574 Q2497.03 282.574 2499.04 284.102 Q2501.06 285.63 2501.06 288.13 Q2501.06 291.347 2493.39 297.921 Q2492.1 299.032 2491.38 299.657 Z" fill="#000000" fill-rule="nonzero" fill-opacity="1" /><path clip-path="url(#clip180)" d="M2507.98 266.324 L2511.68 266.324 Q2515.15 271.787 2516.87 277.019 Q2518.6 282.25 2518.6 287.412 Q2518.6 292.597 2516.87 297.852 Q2515.15 303.106 2511.68 308.546 L2507.98 308.546 Q2511.06 303.245 2512.56 298.014 Q2514.09 292.759 2514.09 287.412 Q2514.09 282.065 2512.56 276.857 Q2511.06 271.648 2507.98 266.324 Z" fill="#000000" fill-rule="nonzero" fill-opacity="1" /></svg>
