<?xml version="1.0" encoding="utf-8"?>
<svg xmlns="http://www.w3.org/2000/svg" xmlns:xlink="http://www.w3.org/1999/xlink" width="672" height="480" viewBox="0 0 2688 1920">
<defs>
  <clipPath id="clip080">
    <rect x="0" y="0" width="2688" height="1920"/>
  </clipPath>
</defs>
<path clip-path="url(#clip080)" d="M0 1920 L2688 1920 L2688 -4.26326e-14 L0 -4.26326e-14  Z" fill="#ffffff" fill-rule="evenodd" fill-opacity="1"/>
<defs>
  <clipPath id="clip081">
    <rect x="238" y="127" width="2403" height="1607"/>
  </clipPath>
</defs>
<path clip-path="url(#clip080)" d="M238.664 1734.12 L2640.76 1734.12 L2640.76 127.792 L238.664 127.792  Z" fill="#ffffff" fill-rule="evenodd" fill-opacity="1"/>
<polyline clip-path="url(#clip081)" style="stroke:#000000; stroke-linecap:round; stroke-linejoin:round; stroke-width:2; stroke-opacity:0.1; fill:none" points="306.647,1734.12 306.647,127.792 "/>
<polyline clip-path="url(#clip081)" style="stroke:#000000; stroke-linecap:round; stroke-linejoin:round; stroke-width:2; stroke-opacity:0.1; fill:none" points="873.179,1734.12 873.179,127.792 "/>
<polyline clip-path="url(#clip081)" style="stroke:#000000; stroke-linecap:round; stroke-linejoin:round; stroke-width:2; stroke-opacity:0.1; fill:none" points="1439.71,1734.12 1439.71,127.792 "/>
<polyline clip-path="url(#clip081)" style="stroke:#000000; stroke-linecap:round; stroke-linejoin:round; stroke-width:2; stroke-opacity:0.1; fill:none" points="2006.24,1734.12 2006.24,127.792 "/>
<polyline clip-path="url(#clip081)" style="stroke:#000000; stroke-linecap:round; stroke-linejoin:round; stroke-width:2; stroke-opacity:0.1; fill:none" points="2572.77,1734.12 2572.77,127.792 "/>
<polyline clip-path="url(#clip081)" style="stroke:#000000; stroke-linecap:round; stroke-linejoin:round; stroke-width:2; stroke-opacity:0.1; fill:none" points="238.664,1688.89 2640.76,1688.89 "/>
<polyline clip-path="url(#clip081)" style="stroke:#000000; stroke-linecap:round; stroke-linejoin:round; stroke-width:2; stroke-opacity:0.1; fill:none" points="238.664,1452.22 2640.76,1452.22 "/>
<polyline clip-path="url(#clip081)" style="stroke:#000000; stroke-linecap:round; stroke-linejoin:round; stroke-width:2; stroke-opacity:0.1; fill:none" points="238.664,1215.55 2640.76,1215.55 "/>
<polyline clip-path="url(#clip081)" style="stroke:#000000; stroke-linecap:round; stroke-linejoin:round; stroke-width:2; stroke-opacity:0.1; fill:none" points="238.664,978.876 2640.76,978.876 "/>
<polyline clip-path="url(#clip081)" style="stroke:#000000; stroke-linecap:round; stroke-linejoin:round; stroke-width:2; stroke-opacity:0.1; fill:none" points="238.664,742.205 2640.76,742.205 "/>
<polyline clip-path="url(#clip081)" style="stroke:#000000; stroke-linecap:round; stroke-linejoin:round; stroke-width:2; stroke-opacity:0.1; fill:none" points="238.664,505.535 2640.76,505.535 "/>
<polyline clip-path="url(#clip081)" style="stroke:#000000; stroke-linecap:round; stroke-linejoin:round; stroke-width:2; stroke-opacity:0.1; fill:none" points="238.664,268.864 2640.76,268.864 "/>
<polyline clip-path="url(#clip080)" style="stroke:#000000; stroke-linecap:round; stroke-linejoin:round; stroke-width:4; stroke-opacity:1; fill:none" points="238.664,1734.12 2640.76,1734.12 "/>
<polyline clip-path="url(#clip080)" style="stroke:#000000; stroke-linecap:round; stroke-linejoin:round; stroke-width:4; stroke-opacity:1; fill:none" points="306.647,1734.12 306.647,1715.22 "/>
<polyline clip-path="url(#clip080)" style="stroke:#000000; stroke-linecap:round; stroke-linejoin:round; stroke-width:4; stroke-opacity:1; fill:none" points="873.179,1734.12 873.179,1715.22 "/>
<polyline clip-path="url(#clip080)" style="stroke:#000000; stroke-linecap:round; stroke-linejoin:round; stroke-width:4; stroke-opacity:1; fill:none" points="1439.71,1734.12 1439.71,1715.22 "/>
<polyline clip-path="url(#clip080)" style="stroke:#000000; stroke-linecap:round; stroke-linejoin:round; stroke-width:4; stroke-opacity:1; fill:none" points="2006.24,1734.12 2006.24,1715.22 "/>
<polyline clip-path="url(#clip080)" style="stroke:#000000; stroke-linecap:round; stroke-linejoin:round; stroke-width:4; stroke-opacity:1; fill:none" points="2572.77,1734.12 2572.77,1715.22 "/>
<path clip-path="url(#clip080)" d="M306.647 1767.34 Q303.036 1767.34 301.208 1770.9 Q299.402 1774.45 299.402 1781.58 Q299.402 1788.68 301.208 1792.25 Q303.036 1795.79 306.647 1795.79 Q310.282 1795.79 312.087 1792.25 Q313.916 1788.68 313.916 1781.58 Q313.916 1774.45 312.087 1770.9 Q310.282 1767.34 306.647 1767.34 M306.647 1763.64 Q312.458 1763.64 315.513 1768.24 Q318.592 1772.83 318.592 1781.58 Q318.592 1790.3 315.513 1794.91 Q312.458 1799.49 306.647 1799.49 Q300.837 1799.49 297.759 1794.91 Q294.703 1790.3 294.703 1781.58 Q294.703 1772.83 297.759 1768.24 Q300.837 1763.64 306.647 1763.64 Z" fill="#000000" fill-rule="nonzero" fill-opacity="1" /><path clip-path="url(#clip080)" d="M852.45 1794.89 L868.769 1794.89 L868.769 1798.82 L846.825 1798.82 L846.825 1794.89 Q849.487 1792.13 854.07 1787.5 Q858.676 1782.85 859.857 1781.51 Q862.102 1778.98 862.982 1777.25 Q863.885 1775.49 863.885 1773.8 Q863.885 1771.04 861.94 1769.31 Q860.019 1767.57 856.917 1767.57 Q854.718 1767.57 852.264 1768.34 Q849.834 1769.1 847.056 1770.65 L847.056 1765.93 Q849.88 1764.79 852.334 1764.21 Q854.787 1763.64 856.824 1763.64 Q862.195 1763.64 865.389 1766.32 Q868.584 1769.01 868.584 1773.5 Q868.584 1775.63 867.774 1777.55 Q866.986 1779.45 864.88 1782.04 Q864.301 1782.71 861.199 1785.93 Q858.098 1789.12 852.45 1794.89 Z" fill="#000000" fill-rule="nonzero" fill-opacity="1" /><path clip-path="url(#clip080)" d="M878.63 1764.26 L896.986 1764.26 L896.986 1768.2 L882.912 1768.2 L882.912 1776.67 Q883.931 1776.32 884.949 1776.16 Q885.968 1775.97 886.986 1775.97 Q892.773 1775.97 896.153 1779.15 Q899.533 1782.32 899.533 1787.73 Q899.533 1793.31 896.06 1796.41 Q892.588 1799.49 886.269 1799.49 Q884.093 1799.49 881.824 1799.12 Q879.579 1798.75 877.172 1798.01 L877.172 1793.31 Q879.255 1794.45 881.477 1795 Q883.699 1795.56 886.176 1795.56 Q890.181 1795.56 892.519 1793.45 Q894.857 1791.34 894.857 1787.73 Q894.857 1784.12 892.519 1782.02 Q890.181 1779.91 886.176 1779.91 Q884.301 1779.91 882.426 1780.33 Q880.574 1780.74 878.63 1781.62 L878.63 1764.26 Z" fill="#000000" fill-rule="nonzero" fill-opacity="1" /><path clip-path="url(#clip080)" d="M1414.41 1764.26 L1432.77 1764.26 L1432.77 1768.2 L1418.69 1768.2 L1418.69 1776.67 Q1419.71 1776.32 1420.73 1776.16 Q1421.75 1775.97 1422.77 1775.97 Q1428.55 1775.97 1431.93 1779.15 Q1435.31 1782.32 1435.31 1787.73 Q1435.31 1793.31 1431.84 1796.41 Q1428.37 1799.49 1422.05 1799.49 Q1419.87 1799.49 1417.6 1799.12 Q1415.36 1798.75 1412.95 1798.01 L1412.95 1793.31 Q1415.03 1794.45 1417.26 1795 Q1419.48 1795.56 1421.96 1795.56 Q1425.96 1795.56 1428.3 1793.45 Q1430.64 1791.34 1430.64 1787.73 Q1430.64 1784.12 1428.3 1782.02 Q1425.96 1779.91 1421.96 1779.91 Q1420.08 1779.91 1418.21 1780.33 Q1416.35 1780.74 1414.41 1781.62 L1414.41 1764.26 Z" fill="#000000" fill-rule="nonzero" fill-opacity="1" /><path clip-path="url(#clip080)" d="M1454.52 1767.34 Q1450.91 1767.34 1449.08 1770.9 Q1447.28 1774.45 1447.28 1781.58 Q1447.28 1788.68 1449.08 1792.25 Q1450.91 1795.79 1454.52 1795.79 Q1458.16 1795.79 1459.96 1792.25 Q1461.79 1788.68 1461.79 1781.58 Q1461.79 1774.45 1459.96 1770.9 Q1458.16 1767.34 1454.52 1767.34 M1454.52 1763.64 Q1460.33 1763.64 1463.39 1768.24 Q1466.47 1772.83 1466.47 1781.58 Q1466.47 1790.3 1463.39 1794.91 Q1460.33 1799.49 1454.52 1799.49 Q1448.71 1799.49 1445.64 1794.91 Q1442.58 1790.3 1442.58 1781.58 Q1442.58 1772.83 1445.64 1768.24 Q1448.71 1763.64 1454.52 1763.64 Z" fill="#000000" fill-rule="nonzero" fill-opacity="1" /><path clip-path="url(#clip080)" d="M1980.1 1764.26 L2002.32 1764.26 L2002.32 1766.25 L1989.77 1798.82 L1984.89 1798.82 L1996.69 1768.2 L1980.1 1768.2 L1980.1 1764.26 Z" fill="#000000" fill-rule="nonzero" fill-opacity="1" /><path clip-path="url(#clip080)" d="M2011.48 1764.26 L2029.84 1764.26 L2029.84 1768.2 L2015.77 1768.2 L2015.77 1776.67 Q2016.78 1776.32 2017.8 1776.16 Q2018.82 1775.97 2019.84 1775.97 Q2025.63 1775.97 2029.01 1779.15 Q2032.39 1782.32 2032.39 1787.73 Q2032.39 1793.31 2028.91 1796.41 Q2025.44 1799.49 2019.12 1799.49 Q2016.95 1799.49 2014.68 1799.12 Q2012.43 1798.75 2010.03 1798.01 L2010.03 1793.31 Q2012.11 1794.45 2014.33 1795 Q2016.55 1795.56 2019.03 1795.56 Q2023.03 1795.56 2025.37 1793.45 Q2027.71 1791.34 2027.71 1787.73 Q2027.71 1784.12 2025.37 1782.02 Q2023.03 1779.91 2019.03 1779.91 Q2017.16 1779.91 2015.28 1780.33 Q2013.43 1780.74 2011.48 1781.62 L2011.48 1764.26 Z" fill="#000000" fill-rule="nonzero" fill-opacity="1" /><path clip-path="url(#clip080)" d="M2532.38 1794.89 L2540.02 1794.89 L2540.02 1768.52 L2531.71 1770.19 L2531.71 1765.93 L2539.97 1764.26 L2544.65 1764.26 L2544.65 1794.89 L2552.29 1794.89 L2552.29 1798.82 L2532.38 1798.82 L2532.38 1794.89 Z" fill="#000000" fill-rule="nonzero" fill-opacity="1" /><path clip-path="url(#clip080)" d="M2571.73 1767.34 Q2568.12 1767.34 2566.29 1770.9 Q2564.49 1774.45 2564.49 1781.58 Q2564.49 1788.68 2566.29 1792.25 Q2568.12 1795.79 2571.73 1795.79 Q2575.36 1795.79 2577.17 1792.25 Q2579 1788.68 2579 1781.58 Q2579 1774.45 2577.17 1770.9 Q2575.36 1767.34 2571.73 1767.34 M2571.73 1763.64 Q2577.54 1763.64 2580.6 1768.24 Q2583.67 1772.83 2583.67 1781.58 Q2583.67 1790.3 2580.6 1794.91 Q2577.54 1799.49 2571.73 1799.49 Q2565.92 1799.49 2562.84 1794.91 Q2559.79 1790.3 2559.79 1781.58 Q2559.79 1772.83 2562.84 1768.24 Q2565.92 1763.64 2571.73 1763.64 Z" fill="#000000" fill-rule="nonzero" fill-opacity="1" /><path clip-path="url(#clip080)" d="M2601.89 1767.34 Q2598.28 1767.34 2596.45 1770.9 Q2594.65 1774.45 2594.65 1781.58 Q2594.65 1788.68 2596.45 1792.25 Q2598.28 1795.79 2601.89 1795.79 Q2605.53 1795.79 2607.33 1792.25 Q2609.16 1788.68 2609.16 1781.58 Q2609.16 1774.45 2607.33 1770.9 Q2605.53 1767.34 2601.89 1767.34 M2601.89 1763.64 Q2607.7 1763.64 2610.76 1768.24 Q2613.84 1772.83 2613.84 1781.58 Q2613.84 1790.3 2610.76 1794.91 Q2607.7 1799.49 2601.89 1799.49 Q2596.08 1799.49 2593 1794.91 Q2589.95 1790.3 2589.95 1781.58 Q2589.95 1772.83 2593 1768.24 Q2596.08 1763.64 2601.89 1763.64 Z" fill="#000000" fill-rule="nonzero" fill-opacity="1" /><path clip-path="url(#clip080)" d="M1361.59 1835.78 L1401.79 1835.78 L1401.79 1841.19 L1384.92 1841.19 L1384.92 1883.3 L1378.46 1883.3 L1378.46 1841.19 L1361.59 1841.19 L1361.59 1835.78 Z" fill="#000000" fill-rule="nonzero" fill-opacity="1" /><path clip-path="url(#clip080)" d="M1405.73 1847.65 L1411.59 1847.65 L1411.59 1883.3 L1405.73 1883.3 L1405.73 1847.65 M1405.73 1833.78 L1411.59 1833.78 L1411.59 1841.19 L1405.73 1841.19 L1405.73 1833.78 Z" fill="#000000" fill-rule="nonzero" fill-opacity="1" /><path clip-path="url(#clip080)" d="M1451.6 1854.5 Q1453.79 1850.55 1456.85 1848.67 Q1459.9 1846.79 1464.04 1846.79 Q1469.61 1846.79 1472.64 1850.71 Q1475.66 1854.59 1475.66 1861.78 L1475.66 1883.3 L1469.77 1883.3 L1469.77 1861.98 Q1469.77 1856.85 1467.96 1854.37 Q1466.14 1851.89 1462.42 1851.89 Q1457.87 1851.89 1455.23 1854.91 Q1452.58 1857.93 1452.58 1863.15 L1452.58 1883.3 L1446.7 1883.3 L1446.7 1861.98 Q1446.7 1856.82 1444.88 1854.37 Q1443.07 1851.89 1439.28 1851.89 Q1434.79 1851.89 1432.15 1854.94 Q1429.51 1857.97 1429.51 1863.15 L1429.51 1883.3 L1423.62 1883.3 L1423.62 1847.65 L1429.51 1847.65 L1429.51 1853.19 Q1431.51 1849.91 1434.31 1848.35 Q1437.12 1846.79 1440.97 1846.79 Q1444.85 1846.79 1447.56 1848.77 Q1450.29 1850.74 1451.6 1854.5 Z" fill="#000000" fill-rule="nonzero" fill-opacity="1" /><path clip-path="url(#clip080)" d="M1517.83 1864.01 L1517.83 1866.88 L1490.91 1866.88 Q1491.29 1872.92 1494.53 1876.11 Q1497.81 1879.26 1503.64 1879.26 Q1507.01 1879.26 1510.16 1878.43 Q1513.35 1877.6 1516.46 1875.95 L1516.46 1881.49 Q1513.31 1882.82 1510 1883.52 Q1506.69 1884.22 1503.29 1884.22 Q1494.76 1884.22 1489.76 1879.26 Q1484.79 1874.29 1484.79 1865.83 Q1484.79 1857.07 1489.51 1851.95 Q1494.25 1846.79 1502.27 1846.79 Q1509.46 1846.79 1513.63 1851.44 Q1517.83 1856.06 1517.83 1864.01 M1511.98 1862.29 Q1511.91 1857.49 1509.27 1854.62 Q1506.66 1851.76 1502.33 1851.76 Q1497.43 1851.76 1494.47 1854.53 Q1491.54 1857.3 1491.1 1862.33 L1511.98 1862.29 Z" fill="#000000" fill-rule="nonzero" fill-opacity="1" /><polyline clip-path="url(#clip080)" style="stroke:#000000; stroke-linecap:round; stroke-linejoin:round; stroke-width:4; stroke-opacity:1; fill:none" points="238.664,1734.12 238.664,127.792 "/>
<polyline clip-path="url(#clip080)" style="stroke:#000000; stroke-linecap:round; stroke-linejoin:round; stroke-width:4; stroke-opacity:1; fill:none" points="238.664,1688.89 257.561,1688.89 "/>
<polyline clip-path="url(#clip080)" style="stroke:#000000; stroke-linecap:round; stroke-linejoin:round; stroke-width:4; stroke-opacity:1; fill:none" points="238.664,1452.22 257.561,1452.22 "/>
<polyline clip-path="url(#clip080)" style="stroke:#000000; stroke-linecap:round; stroke-linejoin:round; stroke-width:4; stroke-opacity:1; fill:none" points="238.664,1215.55 257.561,1215.55 "/>
<polyline clip-path="url(#clip080)" style="stroke:#000000; stroke-linecap:round; stroke-linejoin:round; stroke-width:4; stroke-opacity:1; fill:none" points="238.664,978.876 257.561,978.876 "/>
<polyline clip-path="url(#clip080)" style="stroke:#000000; stroke-linecap:round; stroke-linejoin:round; stroke-width:4; stroke-opacity:1; fill:none" points="238.664,742.205 257.561,742.205 "/>
<polyline clip-path="url(#clip080)" style="stroke:#000000; stroke-linecap:round; stroke-linejoin:round; stroke-width:4; stroke-opacity:1; fill:none" points="238.664,505.535 257.561,505.535 "/>
<polyline clip-path="url(#clip080)" style="stroke:#000000; stroke-linecap:round; stroke-linejoin:round; stroke-width:4; stroke-opacity:1; fill:none" points="238.664,268.864 257.561,268.864 "/>
<path clip-path="url(#clip080)" d="M186.399 1674.69 Q182.788 1674.69 180.959 1678.25 Q179.154 1681.79 179.154 1688.92 Q179.154 1696.03 180.959 1699.59 Q182.788 1703.14 186.399 1703.14 Q190.033 1703.14 191.839 1699.59 Q193.668 1696.03 193.668 1688.92 Q193.668 1681.79 191.839 1678.25 Q190.033 1674.69 186.399 1674.69 M186.399 1670.98 Q192.209 1670.98 195.265 1675.59 Q198.344 1680.17 198.344 1688.92 Q198.344 1697.65 195.265 1702.26 Q192.209 1706.84 186.399 1706.84 Q180.589 1706.84 177.51 1702.26 Q174.455 1697.65 174.455 1688.92 Q174.455 1680.17 177.51 1675.59 Q180.589 1670.98 186.399 1670.98 Z" fill="#000000" fill-rule="nonzero" fill-opacity="1" /><path clip-path="url(#clip080)" d="M150.265 1465.56 L166.585 1465.56 L166.585 1469.5 L144.64 1469.5 L144.64 1465.56 Q147.302 1462.81 151.886 1458.18 Q156.492 1453.52 157.673 1452.18 Q159.918 1449.66 160.798 1447.92 Q161.7 1446.16 161.7 1444.47 Q161.7 1441.72 159.756 1439.98 Q157.835 1438.25 154.733 1438.25 Q152.534 1438.25 150.08 1439.01 Q147.649 1439.77 144.872 1441.33 L144.872 1436.6 Q147.696 1435.47 150.149 1434.89 Q152.603 1434.31 154.64 1434.31 Q160.011 1434.31 163.205 1437 Q166.399 1439.68 166.399 1444.17 Q166.399 1446.3 165.589 1448.22 Q164.802 1450.12 162.696 1452.71 Q162.117 1453.39 159.015 1456.6 Q155.913 1459.8 150.265 1465.56 Z" fill="#000000" fill-rule="nonzero" fill-opacity="1" /><path clip-path="url(#clip080)" d="M186.399 1438.02 Q182.788 1438.02 180.959 1441.58 Q179.154 1445.12 179.154 1452.25 Q179.154 1459.36 180.959 1462.92 Q182.788 1466.46 186.399 1466.46 Q190.033 1466.46 191.839 1462.92 Q193.668 1459.36 193.668 1452.25 Q193.668 1445.12 191.839 1441.58 Q190.033 1438.02 186.399 1438.02 M186.399 1434.31 Q192.209 1434.31 195.265 1438.92 Q198.344 1443.5 198.344 1452.25 Q198.344 1460.98 195.265 1465.58 Q192.209 1470.17 186.399 1470.17 Q180.589 1470.17 177.51 1465.58 Q174.455 1460.98 174.455 1452.25 Q174.455 1443.5 177.51 1438.92 Q180.589 1434.31 186.399 1434.31 Z" fill="#000000" fill-rule="nonzero" fill-opacity="1" /><path clip-path="url(#clip080)" d="M159.085 1202.34 L147.279 1220.79 L159.085 1220.79 L159.085 1202.34 M157.858 1198.27 L163.737 1198.27 L163.737 1220.79 L168.668 1220.79 L168.668 1224.68 L163.737 1224.68 L163.737 1232.83 L159.085 1232.83 L159.085 1224.68 L143.483 1224.68 L143.483 1220.16 L157.858 1198.27 Z" fill="#000000" fill-rule="nonzero" fill-opacity="1" /><path clip-path="url(#clip080)" d="M186.399 1201.35 Q182.788 1201.35 180.959 1204.91 Q179.154 1208.45 179.154 1215.58 Q179.154 1222.69 180.959 1226.25 Q182.788 1229.79 186.399 1229.79 Q190.033 1229.79 191.839 1226.25 Q193.668 1222.69 193.668 1215.58 Q193.668 1208.45 191.839 1204.91 Q190.033 1201.35 186.399 1201.35 M186.399 1197.64 Q192.209 1197.64 195.265 1202.25 Q198.344 1206.83 198.344 1215.58 Q198.344 1224.31 195.265 1228.91 Q192.209 1233.5 186.399 1233.5 Q180.589 1233.5 177.51 1228.91 Q174.455 1224.31 174.455 1215.58 Q174.455 1206.83 177.51 1202.25 Q180.589 1197.64 186.399 1197.64 Z" fill="#000000" fill-rule="nonzero" fill-opacity="1" /><path clip-path="url(#clip080)" d="M156.816 977.012 Q153.668 977.012 151.816 979.165 Q149.987 981.318 149.987 985.068 Q149.987 988.795 151.816 990.971 Q153.668 993.123 156.816 993.123 Q159.964 993.123 161.793 990.971 Q163.645 988.795 163.645 985.068 Q163.645 981.318 161.793 979.165 Q159.964 977.012 156.816 977.012 M166.098 962.36 L166.098 966.619 Q164.339 965.786 162.534 965.346 Q160.751 964.906 158.992 964.906 Q154.362 964.906 151.909 968.031 Q149.478 971.156 149.131 977.475 Q150.497 975.461 152.557 974.397 Q154.617 973.309 157.094 973.309 Q162.302 973.309 165.311 976.48 Q168.344 979.628 168.344 985.068 Q168.344 990.392 165.196 993.61 Q162.048 996.827 156.816 996.827 Q150.821 996.827 147.649 992.244 Q144.478 987.637 144.478 978.911 Q144.478 970.716 148.367 965.855 Q152.256 960.971 158.807 960.971 Q160.566 960.971 162.348 961.318 Q164.154 961.665 166.098 962.36 Z" fill="#000000" fill-rule="nonzero" fill-opacity="1" /><path clip-path="url(#clip080)" d="M186.399 964.674 Q182.788 964.674 180.959 968.239 Q179.154 971.781 179.154 978.911 Q179.154 986.017 180.959 989.582 Q182.788 993.123 186.399 993.123 Q190.033 993.123 191.839 989.582 Q193.668 986.017 193.668 978.911 Q193.668 971.781 191.839 968.239 Q190.033 964.674 186.399 964.674 M186.399 960.971 Q192.209 960.971 195.265 965.577 Q198.344 970.161 198.344 978.911 Q198.344 987.637 195.265 992.244 Q192.209 996.827 186.399 996.827 Q180.589 996.827 177.51 992.244 Q174.455 987.637 174.455 978.911 Q174.455 970.161 177.51 965.577 Q180.589 960.971 186.399 960.971 Z" fill="#000000" fill-rule="nonzero" fill-opacity="1" /><path clip-path="url(#clip080)" d="M156.237 743.073 Q152.904 743.073 150.983 744.856 Q149.085 746.638 149.085 749.763 Q149.085 752.888 150.983 754.67 Q152.904 756.453 156.237 756.453 Q159.571 756.453 161.492 754.67 Q163.413 752.865 163.413 749.763 Q163.413 746.638 161.492 744.856 Q159.594 743.073 156.237 743.073 M151.561 741.083 Q148.552 740.342 146.862 738.282 Q145.196 736.221 145.196 733.259 Q145.196 729.115 148.136 726.708 Q151.099 724.3 156.237 724.3 Q161.399 724.3 164.339 726.708 Q167.279 729.115 167.279 733.259 Q167.279 736.221 165.589 738.282 Q163.923 740.342 160.936 741.083 Q164.316 741.87 166.191 744.161 Q168.089 746.453 168.089 749.763 Q168.089 754.786 165.01 757.471 Q161.955 760.157 156.237 760.157 Q150.52 760.157 147.441 757.471 Q144.386 754.786 144.386 749.763 Q144.386 746.453 146.284 744.161 Q148.182 741.87 151.561 741.083 M149.849 733.698 Q149.849 736.384 151.515 737.888 Q153.205 739.393 156.237 739.393 Q159.247 739.393 160.936 737.888 Q162.649 736.384 162.649 733.698 Q162.649 731.013 160.936 729.509 Q159.247 728.004 156.237 728.004 Q153.205 728.004 151.515 729.509 Q149.849 731.013 149.849 733.698 Z" fill="#000000" fill-rule="nonzero" fill-opacity="1" /><path clip-path="url(#clip080)" d="M186.399 728.004 Q182.788 728.004 180.959 731.569 Q179.154 735.11 179.154 742.24 Q179.154 749.346 180.959 752.911 Q182.788 756.453 186.399 756.453 Q190.033 756.453 191.839 752.911 Q193.668 749.346 193.668 742.24 Q193.668 735.11 191.839 731.569 Q190.033 728.004 186.399 728.004 M186.399 724.3 Q192.209 724.3 195.265 728.907 Q198.344 733.49 198.344 742.24 Q198.344 750.967 195.265 755.573 Q192.209 760.157 186.399 760.157 Q180.589 760.157 177.51 755.573 Q174.455 750.967 174.455 742.24 Q174.455 733.49 177.51 728.907 Q180.589 724.3 186.399 724.3 Z" fill="#000000" fill-rule="nonzero" fill-opacity="1" /><path clip-path="url(#clip080)" d="M116.886 518.88 L124.525 518.88 L124.525 492.514 L116.214 494.181 L116.214 489.921 L124.478 488.255 L129.154 488.255 L129.154 518.88 L136.793 518.88 L136.793 522.815 L116.886 522.815 L116.886 518.88 Z" fill="#000000" fill-rule="nonzero" fill-opacity="1" /><path clip-path="url(#clip080)" d="M156.237 491.333 Q152.626 491.333 150.798 494.898 Q148.992 498.44 148.992 505.569 Q148.992 512.676 150.798 516.241 Q152.626 519.782 156.237 519.782 Q159.872 519.782 161.677 516.241 Q163.506 512.676 163.506 505.569 Q163.506 498.44 161.677 494.898 Q159.872 491.333 156.237 491.333 M156.237 487.63 Q162.048 487.63 165.103 492.236 Q168.182 496.819 168.182 505.569 Q168.182 514.296 165.103 518.903 Q162.048 523.486 156.237 523.486 Q150.427 523.486 147.349 518.903 Q144.293 514.296 144.293 505.569 Q144.293 496.819 147.349 492.236 Q150.427 487.63 156.237 487.63 Z" fill="#000000" fill-rule="nonzero" fill-opacity="1" /><path clip-path="url(#clip080)" d="M186.399 491.333 Q182.788 491.333 180.959 494.898 Q179.154 498.44 179.154 505.569 Q179.154 512.676 180.959 516.241 Q182.788 519.782 186.399 519.782 Q190.033 519.782 191.839 516.241 Q193.668 512.676 193.668 505.569 Q193.668 498.44 191.839 494.898 Q190.033 491.333 186.399 491.333 M186.399 487.63 Q192.209 487.63 195.265 492.236 Q198.344 496.819 198.344 505.569 Q198.344 514.296 195.265 518.903 Q192.209 523.486 186.399 523.486 Q180.589 523.486 177.51 518.903 Q174.455 514.296 174.455 505.569 Q174.455 496.819 177.51 492.236 Q180.589 487.63 186.399 487.63 Z" fill="#000000" fill-rule="nonzero" fill-opacity="1" /><path clip-path="url(#clip080)" d="M116.886 282.209 L124.525 282.209 L124.525 255.843 L116.214 257.51 L116.214 253.251 L124.478 251.584 L129.154 251.584 L129.154 282.209 L136.793 282.209 L136.793 286.144 L116.886 286.144 L116.886 282.209 Z" fill="#000000" fill-rule="nonzero" fill-opacity="1" /><path clip-path="url(#clip080)" d="M150.265 282.209 L166.585 282.209 L166.585 286.144 L144.64 286.144 L144.64 282.209 Q147.302 279.454 151.886 274.825 Q156.492 270.172 157.673 268.829 Q159.918 266.306 160.798 264.57 Q161.7 262.811 161.7 261.121 Q161.7 258.366 159.756 256.63 Q157.835 254.894 154.733 254.894 Q152.534 254.894 150.08 255.658 Q147.649 256.422 144.872 257.973 L144.872 253.251 Q147.696 252.117 150.149 251.538 Q152.603 250.959 154.64 250.959 Q160.011 250.959 163.205 253.644 Q166.399 256.329 166.399 260.82 Q166.399 262.95 165.589 264.871 Q164.802 266.769 162.696 269.362 Q162.117 270.033 159.015 273.251 Q155.913 276.445 150.265 282.209 Z" fill="#000000" fill-rule="nonzero" fill-opacity="1" /><path clip-path="url(#clip080)" d="M186.399 254.663 Q182.788 254.663 180.959 258.228 Q179.154 261.769 179.154 268.899 Q179.154 276.005 180.959 279.57 Q182.788 283.112 186.399 283.112 Q190.033 283.112 191.839 279.57 Q193.668 276.005 193.668 268.899 Q193.668 261.769 191.839 258.228 Q190.033 254.663 186.399 254.663 M186.399 250.959 Q192.209 250.959 195.265 255.566 Q198.344 260.149 198.344 268.899 Q198.344 277.626 195.265 282.232 Q192.209 286.815 186.399 286.815 Q180.589 286.815 177.51 282.232 Q174.455 277.626 174.455 268.899 Q174.455 260.149 177.51 255.566 Q180.589 250.959 186.399 250.959 Z" fill="#000000" fill-rule="nonzero" fill-opacity="1" /><path clip-path="url(#clip080)" d="M14.1184 1193.78 L14.1184 1187.35 L61.6384 1187.35 L61.6384 1193.78 L14.1184 1193.78 Z" fill="#000000" fill-rule="nonzero" fill-opacity="1" /><path clip-path="url(#clip080)" d="M40.1224 1145.18 L61.6384 1145.18 L61.6384 1151.03 L40.3133 1151.03 Q35.2526 1151.03 32.7381 1153.01 Q30.2237 1154.98 30.2237 1158.93 Q30.2237 1163.67 33.2474 1166.41 Q36.2711 1169.14 41.491 1169.14 L61.6384 1169.14 L61.6384 1175.03 L25.9905 1175.03 L25.9905 1169.14 L31.5287 1169.14 Q28.314 1167.04 26.7225 1164.21 Q25.1311 1161.35 25.1311 1157.62 Q25.1311 1151.48 28.9505 1148.33 Q32.7381 1145.18 40.1224 1145.18 Z" fill="#000000" fill-rule="nonzero" fill-opacity="1" /><path clip-path="url(#clip080)" d="M12.1132 1115.45 L16.983 1115.45 L16.983 1121.05 Q16.983 1124.2 18.2562 1125.44 Q19.5293 1126.65 22.8395 1126.65 L25.9905 1126.65 L25.9905 1117.01 L30.542 1117.01 L30.542 1126.65 L61.6384 1126.65 L61.6384 1132.54 L30.542 1132.54 L30.542 1138.14 L25.9905 1138.14 L25.9905 1132.54 L23.5079 1132.54 Q17.5559 1132.54 14.8505 1129.77 Q12.1132 1127 12.1132 1120.99 L12.1132 1115.45 Z" fill="#000000" fill-rule="nonzero" fill-opacity="1" /><path clip-path="url(#clip080)" d="M42.3504 1080.06 L45.2149 1080.06 L45.2149 1106.98 Q51.2623 1106.6 54.4452 1103.35 Q57.5962 1100.08 57.5962 1094.25 Q57.5962 1090.88 56.7687 1087.73 Q55.9411 1084.54 54.2861 1081.42 L59.8242 1081.42 Q61.161 1084.57 61.8612 1087.89 Q62.5615 1091.2 62.5615 1094.6 Q62.5615 1103.13 57.5962 1108.13 Q52.631 1113.09 44.1646 1113.09 Q35.4117 1113.09 30.2873 1108.38 Q25.1311 1103.64 25.1311 1095.62 Q25.1311 1088.43 29.7781 1084.26 Q34.3932 1080.06 42.3504 1080.06 M40.6316 1085.91 Q35.8255 1085.98 32.9609 1088.62 Q30.0964 1091.23 30.0964 1095.56 Q30.0964 1100.46 32.8654 1103.42 Q35.6345 1106.35 40.6634 1106.79 L40.6316 1085.91 Z" fill="#000000" fill-rule="nonzero" fill-opacity="1" /><path clip-path="url(#clip080)" d="M27.3591 1044.79 L32.8336 1044.79 Q31.465 1047.27 30.7966 1049.79 Q30.0964 1052.27 30.0964 1054.82 Q30.0964 1060.51 33.7248 1063.66 Q37.3214 1066.81 43.8463 1066.81 Q50.3711 1066.81 53.9996 1063.66 Q57.5962 1060.51 57.5962 1054.82 Q57.5962 1052.27 56.9278 1049.79 Q56.2276 1047.27 54.859 1044.79 L60.2698 1044.79 Q61.4156 1047.24 61.9886 1049.88 Q62.5615 1052.49 62.5615 1055.45 Q62.5615 1063.5 57.5007 1068.25 Q52.44 1072.99 43.8463 1072.99 Q35.1253 1072.99 30.1282 1068.22 Q25.1311 1063.41 25.1311 1055.07 Q25.1311 1052.36 25.704 1049.79 Q26.2451 1047.21 27.3591 1044.79 Z" fill="#000000" fill-rule="nonzero" fill-opacity="1" /><path clip-path="url(#clip080)" d="M15.869 1028.81 L25.9905 1028.81 L25.9905 1016.75 L30.542 1016.75 L30.542 1028.81 L49.8937 1028.81 Q54.2542 1028.81 55.4955 1027.63 Q56.7368 1026.42 56.7368 1022.76 L56.7368 1016.75 L61.6384 1016.75 L61.6384 1022.76 Q61.6384 1029.54 59.124 1032.12 Q56.5777 1034.7 49.8937 1034.7 L30.542 1034.7 L30.542 1039 L25.9905 1039 L25.9905 1034.7 L15.869 1034.7 L15.869 1028.81 Z" fill="#000000" fill-rule="nonzero" fill-opacity="1" /><path clip-path="url(#clip080)" d="M42.3504 978.554 L45.2149 978.554 L45.2149 1005.48 Q51.2623 1005.1 54.4452 1001.85 Q57.5962 998.574 57.5962 992.75 Q57.5962 989.376 56.7687 986.225 Q55.9411 983.042 54.2861 979.923 L59.8242 979.923 Q61.161 983.074 61.8612 986.384 Q62.5615 989.694 62.5615 993.1 Q62.5615 1001.63 57.5962 1006.63 Q52.631 1011.59 44.1646 1011.59 Q35.4117 1011.59 30.2873 1006.88 Q25.1311 1002.14 25.1311 994.118 Q25.1311 986.925 29.7781 982.755 Q34.3932 978.554 42.3504 978.554 M40.6316 984.411 Q35.8255 984.474 32.9609 987.116 Q30.0964 989.726 30.0964 994.055 Q30.0964 998.956 32.8654 1001.92 Q35.6345 1004.84 40.6634 1005.29 L40.6316 984.411 Z" fill="#000000" fill-rule="nonzero" fill-opacity="1" /><path clip-path="url(#clip080)" d="M31.4013 945.484 L12.1132 945.484 L12.1132 939.628 L61.6384 939.628 L61.6384 945.484 L56.2912 945.484 Q59.4741 947.33 61.0337 950.163 Q62.5615 952.964 62.5615 956.911 Q62.5615 963.372 57.4052 967.446 Q52.249 971.488 43.8463 971.488 Q35.4436 971.488 30.2873 967.446 Q25.1311 963.372 25.1311 956.911 Q25.1311 952.964 26.6907 950.163 Q28.2185 947.33 31.4013 945.484 M43.8463 965.441 Q50.3075 965.441 53.9996 962.799 Q57.6599 960.125 57.6599 955.478 Q57.6599 950.831 53.9996 948.158 Q50.3075 945.484 43.8463 945.484 Q37.3851 945.484 33.7248 948.158 Q30.0327 950.831 30.0327 955.478 Q30.0327 960.125 33.7248 962.799 Q37.3851 965.441 43.8463 965.441 Z" fill="#000000" fill-rule="nonzero" fill-opacity="1" /><path clip-path="url(#clip080)" d="M12.1132 888.798 L16.983 888.798 L16.983 894.399 Q16.983 897.551 18.2562 898.792 Q19.5293 900.001 22.8395 900.001 L25.9905 900.001 L25.9905 890.357 L30.542 890.357 L30.542 900.001 L61.6384 900.001 L61.6384 905.89 L30.542 905.89 L30.542 911.491 L25.9905 911.491 L25.9905 905.89 L23.5079 905.89 Q17.5559 905.89 14.8505 903.121 Q12.1132 900.351 12.1132 894.336 L12.1132 888.798 Z" fill="#000000" fill-rule="nonzero" fill-opacity="1" /><path clip-path="url(#clip080)" d="M31.465 863.239 Q30.8921 864.226 30.6375 865.404 Q30.351 866.55 30.351 867.95 Q30.351 872.915 33.5975 875.589 Q36.8122 878.231 42.8596 878.231 L61.6384 878.231 L61.6384 884.119 L25.9905 884.119 L25.9905 878.231 L31.5287 878.231 Q28.2821 876.385 26.7225 873.424 Q25.1311 870.464 25.1311 866.231 Q25.1311 865.626 25.2266 864.894 Q25.2903 864.162 25.4494 863.271 L31.465 863.239 Z" fill="#000000" fill-rule="nonzero" fill-opacity="1" /><path clip-path="url(#clip080)" d="M43.719 840.896 Q43.719 847.993 45.3422 850.731 Q46.9655 853.468 50.8804 853.468 Q53.9996 853.468 55.8457 851.431 Q57.6599 849.362 57.6599 845.829 Q57.6599 840.959 54.2224 838.031 Q50.7531 835.071 45.0239 835.071 L43.719 835.071 L43.719 840.896 M41.3 829.215 L61.6384 829.215 L61.6384 835.071 L56.2276 835.071 Q59.4741 837.076 61.0337 840.068 Q62.5615 843.06 62.5615 847.389 Q62.5615 852.863 59.5059 856.11 Q56.4186 859.324 51.2623 859.324 Q45.2467 859.324 42.1912 855.314 Q39.1357 851.272 39.1357 843.283 L39.1357 835.071 L38.5628 835.071 Q34.5205 835.071 32.3244 837.745 Q30.0964 840.386 30.0964 845.193 Q30.0964 848.248 30.8284 851.145 Q31.5605 854.041 33.0246 856.715 L27.6137 856.715 Q26.3724 853.5 25.7677 850.476 Q25.1311 847.452 25.1311 844.588 Q25.1311 836.853 29.1415 833.034 Q33.1519 829.215 41.3 829.215 Z" fill="#000000" fill-rule="nonzero" fill-opacity="1" /><path clip-path="url(#clip080)" d="M27.3591 791.498 L32.8336 791.498 Q31.465 793.98 30.7966 796.495 Q30.0964 798.978 30.0964 801.524 Q30.0964 807.221 33.7248 810.372 Q37.3214 813.523 43.8463 813.523 Q50.3711 813.523 53.9996 810.372 Q57.5962 807.221 57.5962 801.524 Q57.5962 798.978 56.9278 796.495 Q56.2276 793.98 54.859 791.498 L60.2698 791.498 Q61.4156 793.949 61.9886 796.59 Q62.5615 799.2 62.5615 802.16 Q62.5615 810.213 57.5007 814.955 Q52.44 819.698 43.8463 819.698 Q35.1253 819.698 30.1282 814.924 Q25.1311 810.118 25.1311 801.778 Q25.1311 799.073 25.704 796.495 Q26.2451 793.917 27.3591 791.498 Z" fill="#000000" fill-rule="nonzero" fill-opacity="1" /><path clip-path="url(#clip080)" d="M15.869 775.52 L25.9905 775.52 L25.9905 763.457 L30.542 763.457 L30.542 775.52 L49.8937 775.52 Q54.2542 775.52 55.4955 774.342 Q56.7368 773.133 56.7368 769.472 L56.7368 763.457 L61.6384 763.457 L61.6384 769.472 Q61.6384 776.252 59.124 778.83 Q56.5777 781.408 49.8937 781.408 L30.542 781.408 L30.542 785.705 L25.9905 785.705 L25.9905 781.408 L15.869 781.408 L15.869 775.52 Z" fill="#000000" fill-rule="nonzero" fill-opacity="1" /><path clip-path="url(#clip080)" d="M25.9905 755.754 L25.9905 749.898 L61.6384 749.898 L61.6384 755.754 L25.9905 755.754 M12.1132 755.754 L12.1132 749.898 L19.5293 749.898 L19.5293 755.754 L12.1132 755.754 Z" fill="#000000" fill-rule="nonzero" fill-opacity="1" /><path clip-path="url(#clip080)" d="M30.0964 723.83 Q30.0964 728.541 33.7885 731.278 Q37.4488 734.016 43.8463 734.016 Q50.2438 734.016 53.9359 731.31 Q57.5962 728.573 57.5962 723.83 Q57.5962 719.152 53.9041 716.414 Q50.212 713.677 43.8463 713.677 Q37.5124 713.677 33.8203 716.414 Q30.0964 719.152 30.0964 723.83 M25.1311 723.83 Q25.1311 716.192 30.0964 711.831 Q35.0616 707.471 43.8463 707.471 Q52.5991 707.471 57.5962 711.831 Q62.5615 716.192 62.5615 723.83 Q62.5615 731.501 57.5962 735.862 Q52.5991 740.19 43.8463 740.19 Q35.0616 740.19 30.0964 735.862 Q25.1311 731.501 25.1311 723.83 Z" fill="#000000" fill-rule="nonzero" fill-opacity="1" /><path clip-path="url(#clip080)" d="M40.1224 668.13 L61.6384 668.13 L61.6384 673.987 L40.3133 673.987 Q35.2526 673.987 32.7381 675.96 Q30.2237 677.934 30.2237 681.88 Q30.2237 686.623 33.2474 689.36 Q36.2711 692.097 41.491 692.097 L61.6384 692.097 L61.6384 697.986 L25.9905 697.986 L25.9905 692.097 L31.5287 692.097 Q28.314 689.997 26.7225 687.164 Q25.1311 684.299 25.1311 680.575 Q25.1311 674.432 28.9505 671.281 Q32.7381 668.13 40.1224 668.13 Z" fill="#000000" fill-rule="nonzero" fill-opacity="1" /><path clip-path="url(#clip080)" d="M895.714 14.0809 L895.714 22.0612 Q891.055 19.8332 886.923 18.7395 Q882.791 17.6457 878.943 17.6457 Q872.259 17.6457 868.613 20.2383 Q865.008 22.8309 865.008 27.611 Q865.008 31.6214 867.398 33.6873 Q869.829 35.7128 876.553 36.9686 L881.495 37.9813 Q890.65 39.7232 894.985 44.1387 Q899.36 48.5136 899.36 55.8863 Q899.36 64.6767 893.445 69.2137 Q887.572 73.7508 876.188 73.7508 Q871.895 73.7508 867.033 72.7785 Q862.213 71.8063 857.028 69.9024 L857.028 61.4765 Q862.01 64.2716 866.79 65.6895 Q871.57 67.1073 876.188 67.1073 Q883.197 67.1073 887.004 64.3527 Q890.812 61.598 890.812 56.4939 Q890.812 52.0379 888.058 49.5264 Q885.344 47.0148 879.105 45.759 L874.123 44.7868 Q864.967 42.9639 860.876 39.075 Q856.785 35.1862 856.785 28.2591 Q856.785 20.2383 862.415 15.6203 Q868.087 11.0023 878.011 11.0023 Q882.265 11.0023 886.68 11.7719 Q891.096 12.5416 895.714 14.0809 Z" fill="#000000" fill-rule="nonzero" fill-opacity="1" /><path clip-path="url(#clip080)" d="M912.12 12.096 L920.303 12.096 L920.303 72.576 L912.12 72.576 L912.12 12.096 Z" fill="#000000" fill-rule="nonzero" fill-opacity="1" /><path clip-path="url(#clip080)" d="M965.268 44.2197 Q967.901 45.1109 970.372 48.0275 Q972.884 50.9442 975.395 56.0483 L983.699 72.576 L974.909 72.576 L967.172 57.061 Q964.174 50.9847 961.338 48.9997 Q958.543 47.0148 953.682 47.0148 L944.77 47.0148 L944.77 72.576 L936.587 72.576 L936.587 12.096 L955.06 12.096 Q965.43 12.096 970.534 16.4305 Q975.638 20.7649 975.638 29.5149 Q975.638 35.2267 972.965 38.994 Q970.331 42.7613 965.268 44.2197 M944.77 18.8205 L944.77 40.2903 L955.06 40.2903 Q960.974 40.2903 963.972 37.5762 Q967.01 34.8216 967.01 29.5149 Q967.01 24.2082 963.972 21.5346 Q960.974 18.8205 955.06 18.8205 L944.77 18.8205 Z" fill="#000000" fill-rule="nonzero" fill-opacity="1" /><path clip-path="url(#clip080)" d="M1014.93 27.2059 L1022.83 27.2059 L1037.01 65.2844 L1051.19 27.2059 L1059.09 27.2059 L1042.07 72.576 L1031.95 72.576 L1014.93 27.2059 Z" fill="#000000" fill-rule="nonzero" fill-opacity="1" /><path clip-path="url(#clip080)" d="M1098.3 28.5427 L1098.3 35.5912 Q1095.14 33.9709 1091.74 33.1607 Q1088.33 32.3505 1084.69 32.3505 Q1079.14 32.3505 1076.34 34.0519 Q1073.59 35.7533 1073.59 39.156 Q1073.59 41.7486 1075.57 43.2475 Q1077.56 44.7058 1083.55 46.0426 L1086.11 46.6097 Q1094.05 48.3111 1097.37 51.4303 Q1100.73 54.509 1100.73 60.0587 Q1100.73 66.3781 1095.71 70.0644 Q1090.72 73.7508 1081.97 73.7508 Q1078.33 73.7508 1074.36 73.0216 Q1070.43 72.3329 1066.05 70.9151 L1066.05 63.2184 Q1070.19 65.3654 1074.2 66.4591 Q1078.21 67.5124 1082.14 67.5124 Q1087.4 67.5124 1090.24 65.73 Q1093.07 63.9071 1093.07 60.6258 Q1093.07 57.5877 1091.01 55.9673 Q1088.98 54.3469 1082.06 52.8481 L1079.46 52.2405 Q1072.54 50.7821 1069.46 47.7845 Q1066.38 44.7463 1066.38 39.4801 Q1066.38 33.0797 1070.92 29.5959 Q1075.45 26.1121 1083.8 26.1121 Q1087.93 26.1121 1091.58 26.7198 Q1095.22 27.3274 1098.3 28.5427 Z" fill="#000000" fill-rule="nonzero" fill-opacity="1" /><path clip-path="url(#clip080)" d="M1175.55 14.0809 L1175.55 22.0612 Q1170.89 19.8332 1166.76 18.7395 Q1162.63 17.6457 1158.78 17.6457 Q1152.1 17.6457 1148.45 20.2383 Q1144.84 22.8309 1144.84 27.611 Q1144.84 31.6214 1147.23 33.6873 Q1149.67 35.7128 1156.39 36.9686 L1161.33 37.9813 Q1170.49 39.7232 1174.82 44.1387 Q1179.2 48.5136 1179.2 55.8863 Q1179.2 64.6767 1173.28 69.2137 Q1167.41 73.7508 1156.02 73.7508 Q1151.73 73.7508 1146.87 72.7785 Q1142.05 71.8063 1136.86 69.9024 L1136.86 61.4765 Q1141.85 64.2716 1146.63 65.6895 Q1151.41 67.1073 1156.02 67.1073 Q1163.03 67.1073 1166.84 64.3527 Q1170.65 61.598 1170.65 56.4939 Q1170.65 52.0379 1167.89 49.5264 Q1165.18 47.0148 1158.94 45.759 L1153.96 44.7868 Q1144.8 42.9639 1140.71 39.075 Q1136.62 35.1862 1136.62 28.2591 Q1136.62 20.2383 1142.25 15.6203 Q1147.92 11.0023 1157.85 11.0023 Q1162.1 11.0023 1166.52 11.7719 Q1170.93 12.5416 1175.55 14.0809 Z" fill="#000000" fill-rule="nonzero" fill-opacity="1" /><path clip-path="url(#clip080)" d="M1191.96 12.096 L1230.2 12.096 L1230.2 18.9825 L1200.14 18.9825 L1200.14 36.8875 L1228.94 36.8875 L1228.94 43.7741 L1200.14 43.7741 L1200.14 65.6895 L1230.93 65.6895 L1230.93 72.576 L1191.96 72.576 L1191.96 12.096 Z" fill="#000000" fill-rule="nonzero" fill-opacity="1" /><path clip-path="url(#clip080)" d="M1244.38 12.096 L1252.56 12.096 L1252.56 72.576 L1244.38 72.576 L1244.38 12.096 Z" fill="#000000" fill-rule="nonzero" fill-opacity="1" /><path clip-path="url(#clip080)" d="M1297.52 44.2197 Q1300.16 45.1109 1302.63 48.0275 Q1305.14 50.9442 1307.65 56.0483 L1315.95 72.576 L1307.16 72.576 L1299.43 57.061 Q1296.43 50.9847 1293.59 48.9997 Q1290.8 47.0148 1285.94 47.0148 L1277.03 47.0148 L1277.03 72.576 L1268.84 72.576 L1268.84 12.096 L1287.31 12.096 Q1297.69 12.096 1302.79 16.4305 Q1307.89 20.7649 1307.89 29.5149 Q1307.89 35.2267 1305.22 38.994 Q1302.59 42.7613 1297.52 44.2197 M1277.03 18.8205 L1277.03 40.2903 L1287.31 40.2903 Q1293.23 40.2903 1296.23 37.5762 Q1299.26 34.8216 1299.26 29.5149 Q1299.26 24.2082 1296.23 21.5346 Q1293.23 18.8205 1287.31 18.8205 L1277.03 18.8205 Z" fill="#000000" fill-rule="nonzero" fill-opacity="1" /><path clip-path="url(#clip080)" d="M1391.34 48.0275 L1391.34 51.6733 L1357.07 51.6733 Q1357.56 59.3701 1361.69 63.421 Q1365.86 67.4314 1373.27 67.4314 Q1377.57 67.4314 1381.58 66.3781 Q1385.63 65.3249 1389.6 63.2184 L1389.6 70.267 Q1385.59 71.9684 1381.38 72.8596 Q1377.16 73.7508 1372.83 73.7508 Q1361.97 73.7508 1355.61 67.4314 Q1349.29 61.1119 1349.29 50.3365 Q1349.29 39.1965 1355.29 32.6746 Q1361.32 26.1121 1371.53 26.1121 Q1380.69 26.1121 1385.99 32.0264 Q1391.34 37.9003 1391.34 48.0275 M1383.89 45.84 Q1383.81 39.7232 1380.45 36.0774 Q1377.12 32.4315 1371.61 32.4315 Q1365.38 32.4315 1361.61 35.9558 Q1357.88 39.4801 1357.31 45.8805 L1383.89 45.84 Z" fill="#000000" fill-rule="nonzero" fill-opacity="1" /><path clip-path="url(#clip080)" d="M1410.79 65.7705 L1410.79 89.8329 L1403.29 89.8329 L1403.29 27.2059 L1410.79 27.2059 L1410.79 34.0924 Q1413.14 30.0415 1416.7 28.0971 Q1420.31 26.1121 1425.29 26.1121 Q1433.55 26.1121 1438.7 32.6746 Q1443.88 39.2371 1443.88 49.9314 Q1443.88 60.6258 1438.7 67.1883 Q1433.55 73.7508 1425.29 73.7508 Q1420.31 73.7508 1416.7 71.8063 Q1413.14 69.8214 1410.79 65.7705 M1436.14 49.9314 Q1436.14 41.7081 1432.74 37.0496 Q1429.38 32.3505 1423.47 32.3505 Q1417.55 32.3505 1414.15 37.0496 Q1410.79 41.7081 1410.79 49.9314 Q1410.79 58.1548 1414.15 62.8538 Q1417.55 67.5124 1423.47 67.5124 Q1429.38 67.5124 1432.74 62.8538 Q1436.14 58.1548 1436.14 49.9314 Z" fill="#000000" fill-rule="nonzero" fill-opacity="1" /><path clip-path="url(#clip080)" d="M1456.24 27.2059 L1463.69 27.2059 L1463.69 72.576 L1456.24 72.576 L1456.24 27.2059 M1456.24 9.54393 L1463.69 9.54393 L1463.69 18.9825 L1456.24 18.9825 L1456.24 9.54393 Z" fill="#000000" fill-rule="nonzero" fill-opacity="1" /><path clip-path="url(#clip080)" d="M1509.14 34.0924 L1509.14 9.54393 L1516.6 9.54393 L1516.6 72.576 L1509.14 72.576 L1509.14 65.7705 Q1506.79 69.8214 1503.19 71.8063 Q1499.62 73.7508 1494.6 73.7508 Q1486.38 73.7508 1481.19 67.1883 Q1476.05 60.6258 1476.05 49.9314 Q1476.05 39.2371 1481.19 32.6746 Q1486.38 26.1121 1494.6 26.1121 Q1499.62 26.1121 1503.19 28.0971 Q1506.79 30.0415 1509.14 34.0924 M1483.74 49.9314 Q1483.74 58.1548 1487.11 62.8538 Q1490.51 67.5124 1496.42 67.5124 Q1502.34 67.5124 1505.74 62.8538 Q1509.14 58.1548 1509.14 49.9314 Q1509.14 41.7081 1505.74 37.0496 Q1502.34 32.3505 1496.42 32.3505 Q1490.51 32.3505 1487.11 37.0496 Q1483.74 41.7081 1483.74 49.9314 Z" fill="#000000" fill-rule="nonzero" fill-opacity="1" /><path clip-path="url(#clip080)" d="M1570.76 48.0275 L1570.76 51.6733 L1536.49 51.6733 Q1536.97 59.3701 1541.1 63.421 Q1545.28 67.4314 1552.69 67.4314 Q1556.98 67.4314 1560.99 66.3781 Q1565.04 65.3249 1569.01 63.2184 L1569.01 70.267 Q1565 71.9684 1560.79 72.8596 Q1556.58 73.7508 1552.24 73.7508 Q1541.39 73.7508 1535.03 67.4314 Q1528.71 61.1119 1528.71 50.3365 Q1528.71 39.1965 1534.7 32.6746 Q1540.74 26.1121 1550.95 26.1121 Q1560.1 26.1121 1565.41 32.0264 Q1570.76 37.9003 1570.76 48.0275 M1563.3 45.84 Q1563.22 39.7232 1559.86 36.0774 Q1556.54 32.4315 1551.03 32.4315 Q1544.79 32.4315 1541.02 35.9558 Q1537.3 39.4801 1536.73 45.8805 L1563.3 45.84 Z" fill="#000000" fill-rule="nonzero" fill-opacity="1" /><path clip-path="url(#clip080)" d="M1618.31 35.9153 Q1621.11 30.8922 1625 28.5022 Q1628.89 26.1121 1634.15 26.1121 Q1641.24 26.1121 1645.09 31.0947 Q1648.94 36.0368 1648.94 45.1919 L1648.94 72.576 L1641.44 72.576 L1641.44 45.4349 Q1641.44 38.913 1639.14 35.7533 Q1636.83 32.5936 1632.09 32.5936 Q1626.29 32.5936 1622.93 36.4419 Q1619.57 40.2903 1619.57 46.9338 L1619.57 72.576 L1612.08 72.576 L1612.08 45.4349 Q1612.08 38.8725 1609.77 35.7533 Q1607.46 32.5936 1602.64 32.5936 Q1596.93 32.5936 1593.56 36.4824 Q1590.2 40.3308 1590.2 46.9338 L1590.2 72.576 L1582.71 72.576 L1582.71 27.2059 L1590.2 27.2059 L1590.2 34.2544 Q1592.75 30.082 1596.32 28.0971 Q1599.88 26.1121 1604.78 26.1121 Q1609.73 26.1121 1613.17 28.6237 Q1616.65 31.1352 1618.31 35.9153 Z" fill="#000000" fill-rule="nonzero" fill-opacity="1" /><path clip-path="url(#clip080)" d="M1663.81 27.2059 L1671.26 27.2059 L1671.26 72.576 L1663.81 72.576 L1663.81 27.2059 M1663.81 9.54393 L1671.26 9.54393 L1671.26 18.9825 L1663.81 18.9825 L1663.81 9.54393 Z" fill="#000000" fill-rule="nonzero" fill-opacity="1" /><path clip-path="url(#clip080)" d="M1719.51 28.9478 L1719.51 35.9153 Q1716.35 34.1734 1713.15 33.3227 Q1709.99 32.4315 1706.75 32.4315 Q1699.49 32.4315 1695.48 37.0496 Q1691.47 41.6271 1691.47 49.9314 Q1691.47 58.2358 1695.48 62.8538 Q1699.49 67.4314 1706.75 67.4314 Q1709.99 67.4314 1713.15 66.5807 Q1716.35 65.6895 1719.51 63.9476 L1719.51 70.8341 Q1716.39 72.2924 1713.02 73.0216 Q1709.7 73.7508 1705.94 73.7508 Q1695.69 73.7508 1689.65 67.3098 Q1683.61 60.8689 1683.61 49.9314 Q1683.61 38.832 1689.69 32.472 Q1695.81 26.1121 1706.42 26.1121 Q1709.86 26.1121 1713.15 26.8413 Q1716.43 27.5299 1719.51 28.9478 Z" fill="#000000" fill-rule="nonzero" fill-opacity="1" /><path clip-path="url(#clip080)" d="M1791.49 28.9478 L1791.49 35.9153 Q1788.33 34.1734 1785.13 33.3227 Q1781.97 32.4315 1778.73 32.4315 Q1771.48 32.4315 1767.47 37.0496 Q1763.46 41.6271 1763.46 49.9314 Q1763.46 58.2358 1767.47 62.8538 Q1771.48 67.4314 1778.73 67.4314 Q1781.97 67.4314 1785.13 66.5807 Q1788.33 65.6895 1791.49 63.9476 L1791.49 70.8341 Q1788.37 72.2924 1785.01 73.0216 Q1781.69 73.7508 1777.92 73.7508 Q1767.67 73.7508 1761.64 67.3098 Q1755.6 60.8689 1755.6 49.9314 Q1755.6 38.832 1761.68 32.472 Q1767.79 26.1121 1778.41 26.1121 Q1781.85 26.1121 1785.13 26.8413 Q1788.41 27.5299 1791.49 28.9478 Z" fill="#000000" fill-rule="nonzero" fill-opacity="1" /><path clip-path="url(#clip080)" d="M1803.68 54.671 L1803.68 27.2059 L1811.14 27.2059 L1811.14 54.3874 Q1811.14 60.8284 1813.65 64.0691 Q1816.16 67.2693 1821.18 67.2693 Q1827.22 67.2693 1830.7 63.421 Q1834.23 59.5726 1834.23 52.9291 L1834.23 27.2059 L1841.68 27.2059 L1841.68 72.576 L1834.23 72.576 L1834.23 65.6084 Q1831.51 69.7404 1827.91 71.7658 Q1824.34 73.7508 1819.6 73.7508 Q1811.79 73.7508 1807.73 68.8897 Q1803.68 64.0286 1803.68 54.671 M1822.44 26.1121 L1822.44 26.1121 Z" fill="#000000" fill-rule="nonzero" fill-opacity="1" /><path clip-path="url(#clip080)" d="M1883.32 34.1734 Q1882.07 33.4443 1880.57 33.1202 Q1879.11 32.7556 1877.33 32.7556 Q1871.01 32.7556 1867.61 36.8875 Q1864.24 40.9789 1864.24 48.6757 L1864.24 72.576 L1856.75 72.576 L1856.75 27.2059 L1864.24 27.2059 L1864.24 34.2544 Q1866.59 30.1225 1870.36 28.1376 Q1874.13 26.1121 1879.52 26.1121 Q1880.29 26.1121 1881.22 26.2337 Q1882.15 26.3147 1883.28 26.5172 L1883.32 34.1734 Z" fill="#000000" fill-rule="nonzero" fill-opacity="1" /><path clip-path="url(#clip080)" d="M1885.8 27.2059 L1893.69 27.2059 L1907.87 65.2844 L1922.05 27.2059 L1929.95 27.2059 L1912.94 72.576 L1902.81 72.576 L1885.8 27.2059 Z" fill="#000000" fill-rule="nonzero" fill-opacity="1" /><path clip-path="url(#clip080)" d="M1979.05 48.0275 L1979.05 51.6733 L1944.78 51.6733 Q1945.26 59.3701 1949.39 63.421 Q1953.57 67.4314 1960.98 67.4314 Q1965.27 67.4314 1969.28 66.3781 Q1973.34 65.3249 1977.31 63.2184 L1977.31 70.267 Q1973.29 71.9684 1969.08 72.8596 Q1964.87 73.7508 1960.53 73.7508 Q1949.68 73.7508 1943.32 67.4314 Q1937 61.1119 1937 50.3365 Q1937 39.1965 1942.99 32.6746 Q1949.03 26.1121 1959.24 26.1121 Q1968.39 26.1121 1973.7 32.0264 Q1979.05 37.9003 1979.05 48.0275 M1971.59 45.84 Q1971.51 39.7232 1968.15 36.0774 Q1964.83 32.4315 1959.32 32.4315 Q1953.08 32.4315 1949.31 35.9558 Q1945.59 39.4801 1945.02 45.8805 L1971.59 45.84 Z" fill="#000000" fill-rule="nonzero" fill-opacity="1" /><path clip-path="url(#clip080)" d="M2020.2 28.5427 L2020.2 35.5912 Q2017.04 33.9709 2013.64 33.1607 Q2010.24 32.3505 2006.59 32.3505 Q2001.04 32.3505 1998.25 34.0519 Q1995.49 35.7533 1995.49 39.156 Q1995.49 41.7486 1997.48 43.2475 Q1999.46 44.7058 2005.46 46.0426 L2008.01 46.6097 Q2015.95 48.3111 2019.27 51.4303 Q2022.63 54.509 2022.63 60.0587 Q2022.63 66.3781 2017.61 70.0644 Q2012.63 73.7508 2003.88 73.7508 Q2000.23 73.7508 1996.26 73.0216 Q1992.33 72.3329 1987.96 70.9151 L1987.96 63.2184 Q1992.09 65.3654 1996.1 66.4591 Q2000.11 67.5124 2004.04 67.5124 Q2009.31 67.5124 2012.14 65.73 Q2014.98 63.9071 2014.98 60.6258 Q2014.98 57.5877 2012.91 55.9673 Q2010.89 54.3469 2003.96 52.8481 L2001.37 52.2405 Q1994.44 50.7821 1991.36 47.7845 Q1988.28 44.7463 1988.28 39.4801 Q1988.28 33.0797 1992.82 29.5959 Q1997.36 26.1121 2005.7 26.1121 Q2009.83 26.1121 2013.48 26.7198 Q2017.13 27.3274 2020.2 28.5427 Z" fill="#000000" fill-rule="nonzero" fill-opacity="1" /><polyline clip-path="url(#clip081)" style="stroke:#ff0000; stroke-linecap:round; stroke-linejoin:round; stroke-width:8; stroke-opacity:1; fill:none" points="306.647,1677.05 317.978,1671.67 329.309,1664.51 340.639,1654.71 351.97,1641.1 363.3,1622.07 374.631,1595.46 385.962,1558.42 397.292,1507.4 408.623,1438.29 419.954,1347.02 431.284,1230.73 442.615,1089.44 453.945,927.969 465.276,756.59 476.607,589.696 487.937,441.857 499.268,324.032 510.599,241.133 521.929,192.403 533.26,173.254 544.59,177.798 555.921,199.878 567.252,234.408 578.582,277.292 589.913,325.393 601.244,376.505 612.574,429.011 623.905,481.794 635.235,534.093 646.566,585.377 657.897,635.303 669.227,683.654 680.558,730.294 691.889,775.152 703.219,818.202 714.55,859.447 725.88,898.907 737.211,936.624 748.542,972.643 759.872,1007.02 771.203,1039.81 782.534,1071.08 793.864,1100.88 805.195,1129.28 816.525,1156.33 827.856,1182.1 839.187,1206.64 850.517,1230 861.848,1252.25 873.179,1273.43 884.509,1293.58 895.84,1312.77 907.17,1331.03 918.501,1348.42 929.832,1364.96 941.162,1380.7 952.493,1395.68 963.824,1409.93 975.154,1423.49 986.485,1436.4 997.815,1448.68 1009.15,1460.36 1020.48,1471.48 1031.81,1482.06 1043.14,1492.12 1054.47,1501.7 1065.8,1510.81 1077.13,1519.47 1088.46,1527.72 1099.79,1535.56 1111.12,1543.03 1122.45,1550.13 1133.78,1556.88 1145.11,1563.31 1156.44,1569.42 1167.77,1575.24 1179.11,1580.77 1190.44,1586.04 1201.77,1591.05 1213.1,1595.81 1224.43,1600.34 1235.76,1604.65 1247.09,1608.76 1258.42,1612.66 1269.75,1616.37 1281.08,1619.9 1292.41,1623.26 1303.74,1626.46 1315.07,1629.5 1326.4,1632.39 1337.73,1635.14 1349.06,1637.76 1360.4,1640.25 1371.73,1642.62 1383.06,1644.87 1394.39,1647.02 1405.72,1649.06 1417.05,1651 1428.38,1652.84 1439.71,1654.6 1451.04,1656.27 1462.37,1657.86 1473.7,1659.37 1485.03,1660.81 1496.36,1662.17 1507.69,1663.48 1519.02,1664.71 1530.35,1665.89 1541.69,1667.01 1553.02,1668.08 1564.35,1669.09 1575.68,1670.06 1587.01,1670.97 1598.34,1671.85 1609.67,1672.68 1621,1673.47 1632.33,1674.22 1643.66,1674.93 1654.99,1675.61 1666.32,1676.26 1677.65,1676.87 1688.98,1677.46 1700.31,1678.01 1711.64,1678.54 1722.98,1679.05 1734.31,1679.53 1745.64,1679.98 1756.97,1680.42 1768.3,1680.83 1779.63,1681.22 1790.96,1681.6 1802.29,1681.95 1813.62,1682.29 1824.95,1682.61 1836.28,1682.92 1847.61,1683.21 1858.94,1683.48 1870.27,1683.75 1881.6,1684 1892.93,1684.24 1904.27,1684.46 1915.6,1684.68 1926.93,1684.88 1938.26,1685.08 1949.59,1685.26 1960.92,1685.44 1972.25,1685.61 1983.58,1685.77 1994.91,1685.92 2006.24,1686.06 2017.57,1686.2 2028.9,1686.33 2040.23,1686.46 2051.56,1686.58 2062.89,1686.69 2074.22,1686.8 2085.56,1686.9 2096.89,1686.99 2108.22,1687.09 2119.55,1687.17 2130.88,1687.26 2142.21,1687.34 2153.54,1687.41 2164.87,1687.48 2176.2,1687.55 2187.53,1687.62 2198.86,1687.68 2210.19,1687.74 2221.52,1687.79 2232.85,1687.85 2244.18,1687.9 2255.51,1687.95 2266.85,1687.99 2278.18,1688.04 2289.51,1688.08 2300.84,1688.12 2312.17,1688.15 2323.5,1688.19 2334.83,1688.22 2346.16,1688.26 2357.49,1688.29 2368.82,1688.32 2380.15,1688.34 2391.48,1688.37 2402.81,1688.4 2414.14,1688.42 2425.47,1688.44 2436.8,1688.46 2448.14,1688.48 2459.47,1688.5 2470.8,1688.52 2482.13,1688.54 2493.46,1688.56 2504.79,1688.57 2516.12,1688.59 2527.45,1688.6 2538.78,1688.62 2550.11,1688.63 2561.44,1688.64 2572.77,1688.65 "/>
<polyline clip-path="url(#clip081)" style="stroke:#ffa500; stroke-linecap:round; stroke-linejoin:round; stroke-width:8; stroke-opacity:1; fill:none" stroke-dasharray="32, 20" points="306.647,1677.05 317.978,1677.51 329.309,1677.72 340.639,1677.73 351.97,1677.57 363.3,1677.26 374.631,1676.83 385.962,1676.28 397.292,1675.62 408.623,1674.86 419.954,1674 431.284,1673.03 442.615,1671.96 453.945,1670.78 465.276,1669.48 476.607,1668.07 487.937,1666.52 499.268,1664.84 510.599,1663.01 521.929,1661.02 533.26,1658.86 544.59,1656.52 555.921,1653.98 567.252,1651.23 578.582,1648.26 589.913,1645.04 601.244,1641.55 612.574,1637.79 623.905,1633.72 635.235,1629.32 646.566,1624.58 657.897,1619.46 669.227,1613.95 680.558,1608.01 691.889,1601.62 703.219,1594.74 714.55,1587.36 725.88,1579.44 737.211,1570.96 748.542,1561.89 759.872,1552.2 771.203,1541.86 782.534,1530.86 793.864,1519.18 805.195,1506.79 816.525,1493.71 827.856,1479.91 839.187,1465.39 850.517,1450.16 861.848,1434.25 873.179,1417.67 884.509,1400.47 895.84,1382.69 907.17,1364.39 918.501,1345.62 929.832,1326.48 941.162,1307.03 952.493,1287.39 963.824,1267.64 975.154,1247.92 986.485,1228.34 997.815,1209.01 1009.15,1190.07 1020.48,1171.63 1031.81,1153.8 1043.14,1136.7 1054.47,1120.44 1065.8,1105.11 1077.13,1090.83 1088.46,1077.69 1099.79,1065.73 1111.12,1054.98 1122.45,1045.47 1133.78,1037.24 1145.11,1030.29 1156.44,1024.65 1167.77,1020.31 1179.11,1017.28 1190.44,1015.5 1201.77,1014.92 1213.1,1015.49 1224.43,1017.15 1235.76,1019.85 1247.09,1023.55 1258.42,1028.19 1269.75,1033.72 1281.08,1040.06 1292.41,1047.14 1303.74,1054.9 1315.07,1063.28 1326.4,1072.21 1337.73,1081.65 1349.06,1091.54 1360.4,1101.83 1371.73,1112.45 1383.06,1123.38 1394.39,1134.54 1405.72,1145.92 1417.05,1157.45 1428.38,1169.12 1439.71,1180.87 1451.04,1192.69 1462.37,1204.53 1473.7,1216.38 1485.03,1228.2 1496.36,1239.97 1507.69,1251.68 1519.02,1263.29 1530.35,1274.8 1541.69,1286.19 1553.02,1297.44 1564.35,1308.54 1575.68,1319.48 1587.01,1330.25 1598.34,1340.84 1609.67,1351.25 1621,1361.46 1632.33,1371.48 1643.66,1381.28 1654.99,1390.89 1666.32,1400.28 1677.65,1409.47 1688.98,1418.44 1700.31,1427.2 1711.64,1435.74 1722.98,1444.08 1734.31,1452.2 1745.64,1460.1 1756.97,1467.8 1768.3,1475.29 1779.63,1482.57 1790.96,1489.64 1802.29,1496.52 1813.62,1503.2 1824.95,1509.68 1836.28,1515.97 1847.61,1522.08 1858.94,1528 1870.27,1533.73 1881.6,1539.29 1892.93,1544.68 1904.27,1549.9 1915.6,1554.94 1926.93,1559.83 1938.26,1564.55 1949.59,1569.12 1960.92,1573.55 1972.25,1577.82 1983.58,1581.95 1994.91,1585.94 2006.24,1589.8 2017.57,1593.53 2028.9,1597.13 2040.23,1600.6 2051.56,1603.95 2062.89,1607.19 2074.22,1610.31 2085.56,1613.31 2096.89,1616.22 2108.22,1619.02 2119.55,1621.72 2130.88,1624.32 2142.21,1626.82 2153.54,1629.24 2164.87,1631.57 2176.2,1633.81 2187.53,1635.97 2198.86,1638.05 2210.19,1640.06 2221.52,1641.99 2232.85,1643.84 2244.18,1645.63 2255.51,1647.35 2266.85,1649 2278.18,1650.59 2289.51,1652.12 2300.84,1653.6 2312.17,1655.01 2323.5,1656.37 2334.83,1657.68 2346.16,1658.94 2357.49,1660.15 2368.82,1661.32 2380.15,1662.44 2391.48,1663.51 2402.81,1664.54 2414.14,1665.54 2425.47,1666.49 2436.8,1667.41 2448.14,1668.29 2459.47,1669.13 2470.8,1669.94 2482.13,1670.72 2493.46,1671.47 2504.79,1672.19 2516.12,1672.88 2527.45,1673.54 2538.78,1674.18 2550.11,1674.79 2561.44,1675.37 2572.77,1675.93 "/>
<path clip-path="url(#clip080)" d="M2218 336.856 L2560.69 336.856 L2560.69 181.336 L2218 181.336  Z" fill="#ffffff" fill-rule="evenodd" fill-opacity="1"/>
<polyline clip-path="url(#clip080)" style="stroke:#000000; stroke-linecap:round; stroke-linejoin:round; stroke-width:4; stroke-opacity:1; fill:none" points="2218,336.856 2560.69,336.856 2560.69,181.336 2218,181.336 2218,336.856 "/>
<polyline clip-path="url(#clip080)" style="stroke:#ff0000; stroke-linecap:round; stroke-linejoin:round; stroke-width:8; stroke-opacity:1; fill:none" points="2244.69,233.176 2404.83,233.176 "/>
<path clip-path="url(#clip080)" d="M2453.77 217.031 L2453.77 221.591 Q2451.1 220.318 2448.74 219.693 Q2446.38 219.068 2444.18 219.068 Q2440.36 219.068 2438.28 220.549 Q2436.22 222.031 2436.22 224.762 Q2436.22 227.054 2437.58 228.234 Q2438.97 229.392 2442.82 230.109 L2445.64 230.688 Q2450.87 231.683 2453.35 234.206 Q2455.85 236.706 2455.85 240.919 Q2455.85 245.942 2452.47 248.535 Q2449.11 251.128 2442.61 251.128 Q2440.15 251.128 2437.38 250.572 Q2434.62 250.016 2431.66 248.929 L2431.66 244.114 Q2434.51 245.711 2437.24 246.521 Q2439.97 247.331 2442.61 247.331 Q2446.61 247.331 2448.79 245.757 Q2450.96 244.183 2450.96 241.267 Q2450.96 238.72 2449.39 237.285 Q2447.84 235.85 2444.27 235.132 L2441.43 234.577 Q2436.2 233.535 2433.86 231.313 Q2431.52 229.091 2431.52 225.132 Q2431.52 220.549 2434.74 217.91 Q2437.98 215.271 2443.65 215.271 Q2446.08 215.271 2448.6 215.711 Q2451.13 216.151 2453.77 217.031 Z" fill="#000000" fill-rule="nonzero" fill-opacity="1" /><path clip-path="url(#clip080)" d="M2463.14 215.896 L2467.82 215.896 L2467.82 250.456 L2463.14 250.456 L2463.14 215.896 Z" fill="#000000" fill-rule="nonzero" fill-opacity="1" /><path clip-path="url(#clip080)" d="M2493.51 234.253 Q2495.01 234.762 2496.43 236.429 Q2497.86 238.095 2499.3 241.012 L2504.04 250.456 L2499.02 250.456 L2494.6 241.591 Q2492.89 238.118 2491.26 236.984 Q2489.67 235.85 2486.89 235.85 L2481.8 235.85 L2481.8 250.456 L2477.12 250.456 L2477.12 215.896 L2487.68 215.896 Q2493.6 215.896 2496.52 218.373 Q2499.44 220.85 2499.44 225.85 Q2499.44 229.114 2497.91 231.267 Q2496.4 233.419 2493.51 234.253 M2481.8 219.739 L2481.8 232.007 L2487.68 232.007 Q2491.06 232.007 2492.77 230.456 Q2494.51 228.882 2494.51 225.85 Q2494.51 222.818 2492.77 221.29 Q2491.06 219.739 2487.68 219.739 L2481.8 219.739 Z" fill="#000000" fill-rule="nonzero" fill-opacity="1" /><polyline clip-path="url(#clip080)" style="stroke:#ffa500; stroke-linecap:round; stroke-linejoin:round; stroke-width:8; stroke-opacity:1; fill:none" stroke-dasharray="32, 20" points="2244.69,285.016 2404.83,285.016 "/>
<path clip-path="url(#clip080)" d="M2453.77 268.871 L2453.77 273.431 Q2451.1 272.158 2448.74 271.533 Q2446.38 270.908 2444.18 270.908 Q2440.36 270.908 2438.28 272.389 Q2436.22 273.871 2436.22 276.602 Q2436.22 278.894 2437.58 280.074 Q2438.97 281.232 2442.82 281.949 L2445.64 282.528 Q2450.87 283.523 2453.35 286.046 Q2455.85 288.546 2455.85 292.759 Q2455.85 297.782 2452.47 300.375 Q2449.11 302.968 2442.61 302.968 Q2440.15 302.968 2437.38 302.412 Q2434.62 301.856 2431.66 300.769 L2431.66 295.954 Q2434.51 297.551 2437.24 298.361 Q2439.97 299.171 2442.61 299.171 Q2446.61 299.171 2448.79 297.597 Q2450.96 296.023 2450.96 293.107 Q2450.96 290.56 2449.39 289.125 Q2447.84 287.69 2444.27 286.972 L2441.43 286.417 Q2436.2 285.375 2433.86 283.153 Q2431.52 280.931 2431.52 276.972 Q2431.52 272.389 2434.74 269.75 Q2437.98 267.111 2443.65 267.111 Q2446.08 267.111 2448.6 267.551 Q2451.13 267.991 2453.77 268.871 Z" fill="#000000" fill-rule="nonzero" fill-opacity="1" /><path clip-path="url(#clip080)" d="M2463.14 267.736 L2484.99 267.736 L2484.99 271.671 L2467.82 271.671 L2467.82 281.903 L2484.27 281.903 L2484.27 285.838 L2467.82 285.838 L2467.82 298.361 L2485.41 298.361 L2485.41 302.296 L2463.14 302.296 L2463.14 267.736 Z" fill="#000000" fill-rule="nonzero" fill-opacity="1" /><path clip-path="url(#clip080)" d="M2493.09 267.736 L2497.77 267.736 L2497.77 302.296 L2493.09 302.296 L2493.09 267.736 Z" fill="#000000" fill-rule="nonzero" fill-opacity="1" /><path clip-path="url(#clip080)" d="M2523.46 286.093 Q2524.97 286.602 2526.38 288.269 Q2527.82 289.935 2529.25 292.852 L2534 302.296 L2528.97 302.296 L2524.55 293.431 Q2522.84 289.958 2521.22 288.824 Q2519.62 287.69 2516.84 287.69 L2511.75 287.69 L2511.75 302.296 L2507.08 302.296 L2507.08 267.736 L2517.63 267.736 Q2523.56 267.736 2526.47 270.213 Q2529.39 272.69 2529.39 277.69 Q2529.39 280.954 2527.86 283.107 Q2526.36 285.259 2523.46 286.093 M2511.75 271.579 L2511.75 283.847 L2517.63 283.847 Q2521.01 283.847 2522.72 282.296 Q2524.46 280.722 2524.46 277.69 Q2524.46 274.658 2522.72 273.13 Q2521.01 271.579 2517.63 271.579 L2511.75 271.579 Z" fill="#000000" fill-rule="nonzero" fill-opacity="1" /></svg>
