<?xml version="1.0" encoding="utf-8"?>
<svg xmlns="http://www.w3.org/2000/svg" xmlns:xlink="http://www.w3.org/1999/xlink" width="672" height="480" viewBox="0 0 2688 1920">
<defs>
  <clipPath id="clip880">
    <rect x="0" y="0" width="2688" height="1920"/>
  </clipPath>
</defs>
<path clip-path="url(#clip880)" d="M0 1920 L2688 1920 L2688 -4.26326e-14 L0 -4.26326e-14  Z" fill="#ffffff" fill-rule="evenodd" fill-opacity="1"/>
<defs>
  <clipPath id="clip881">
    <rect x="238" y="127" width="2403" height="1607"/>
  </clipPath>
</defs>
<path clip-path="url(#clip880)" d="M238.664 1734.12 L2640.76 1734.12 L2640.76 127.792 L238.664 127.792  Z" fill="#ffffff" fill-rule="evenodd" fill-opacity="1"/>
<polyline clip-path="url(#clip881)" style="stroke:#000000; stroke-linecap:round; stroke-linejoin:round; stroke-width:2; stroke-opacity:0.1; fill:none" points="306.647,1734.12 306.647,127.792 "/>
<polyline clip-path="url(#clip881)" style="stroke:#000000; stroke-linecap:round; stroke-linejoin:round; stroke-width:2; stroke-opacity:0.1; fill:none" points="873.179,1734.12 873.179,127.792 "/>
<polyline clip-path="url(#clip881)" style="stroke:#000000; stroke-linecap:round; stroke-linejoin:round; stroke-width:2; stroke-opacity:0.1; fill:none" points="1439.71,1734.12 1439.71,127.792 "/>
<polyline clip-path="url(#clip881)" style="stroke:#000000; stroke-linecap:round; stroke-linejoin:round; stroke-width:2; stroke-opacity:0.1; fill:none" points="2006.24,1734.12 2006.24,127.792 "/>
<polyline clip-path="url(#clip881)" style="stroke:#000000; stroke-linecap:round; stroke-linejoin:round; stroke-width:2; stroke-opacity:0.1; fill:none" points="2572.77,1734.12 2572.77,127.792 "/>
<polyline clip-path="url(#clip881)" style="stroke:#000000; stroke-linecap:round; stroke-linejoin:round; stroke-width:2; stroke-opacity:0.1; fill:none" points="238.664,1688.65 2640.76,1688.65 "/>
<polyline clip-path="url(#clip881)" style="stroke:#000000; stroke-linecap:round; stroke-linejoin:round; stroke-width:2; stroke-opacity:0.1; fill:none" points="238.664,1305.98 2640.76,1305.98 "/>
<polyline clip-path="url(#clip881)" style="stroke:#000000; stroke-linecap:round; stroke-linejoin:round; stroke-width:2; stroke-opacity:0.1; fill:none" points="238.664,923.301 2640.76,923.301 "/>
<polyline clip-path="url(#clip881)" style="stroke:#000000; stroke-linecap:round; stroke-linejoin:round; stroke-width:2; stroke-opacity:0.1; fill:none" points="238.664,540.624 2640.76,540.624 "/>
<polyline clip-path="url(#clip881)" style="stroke:#000000; stroke-linecap:round; stroke-linejoin:round; stroke-width:2; stroke-opacity:0.1; fill:none" points="238.664,157.947 2640.76,157.947 "/>
<polyline clip-path="url(#clip880)" style="stroke:#000000; stroke-linecap:round; stroke-linejoin:round; stroke-width:4; stroke-opacity:1; fill:none" points="238.664,1734.12 2640.76,1734.12 "/>
<polyline clip-path="url(#clip880)" style="stroke:#000000; stroke-linecap:round; stroke-linejoin:round; stroke-width:4; stroke-opacity:1; fill:none" points="306.647,1734.12 306.647,1715.22 "/>
<polyline clip-path="url(#clip880)" style="stroke:#000000; stroke-linecap:round; stroke-linejoin:round; stroke-width:4; stroke-opacity:1; fill:none" points="873.179,1734.12 873.179,1715.22 "/>
<polyline clip-path="url(#clip880)" style="stroke:#000000; stroke-linecap:round; stroke-linejoin:round; stroke-width:4; stroke-opacity:1; fill:none" points="1439.71,1734.12 1439.71,1715.22 "/>
<polyline clip-path="url(#clip880)" style="stroke:#000000; stroke-linecap:round; stroke-linejoin:round; stroke-width:4; stroke-opacity:1; fill:none" points="2006.24,1734.12 2006.24,1715.22 "/>
<polyline clip-path="url(#clip880)" style="stroke:#000000; stroke-linecap:round; stroke-linejoin:round; stroke-width:4; stroke-opacity:1; fill:none" points="2572.77,1734.12 2572.77,1715.22 "/>
<path clip-path="url(#clip880)" d="M306.647 1767.34 Q303.036 1767.34 301.208 1770.9 Q299.402 1774.45 299.402 1781.58 Q299.402 1788.68 301.208 1792.25 Q303.036 1795.79 306.647 1795.79 Q310.282 1795.79 312.087 1792.25 Q313.916 1788.68 313.916 1781.58 Q313.916 1774.45 312.087 1770.9 Q310.282 1767.34 306.647 1767.34 M306.647 1763.64 Q312.458 1763.64 315.513 1768.24 Q318.592 1772.83 318.592 1781.58 Q318.592 1790.3 315.513 1794.91 Q312.458 1799.49 306.647 1799.49 Q300.837 1799.49 297.759 1794.91 Q294.703 1790.3 294.703 1781.58 Q294.703 1772.83 297.759 1768.24 Q300.837 1763.64 306.647 1763.64 Z" fill="#000000" fill-rule="nonzero" fill-opacity="1" /><path clip-path="url(#clip880)" d="M847.866 1794.89 L855.505 1794.89 L855.505 1768.52 L847.195 1770.19 L847.195 1765.93 L855.459 1764.26 L860.135 1764.26 L860.135 1794.89 L867.774 1794.89 L867.774 1798.82 L847.866 1798.82 L847.866 1794.89 Z" fill="#000000" fill-rule="nonzero" fill-opacity="1" /><path clip-path="url(#clip880)" d="M887.218 1767.34 Q883.607 1767.34 881.778 1770.9 Q879.973 1774.45 879.973 1781.58 Q879.973 1788.68 881.778 1792.25 Q883.607 1795.79 887.218 1795.79 Q890.852 1795.79 892.658 1792.25 Q894.486 1788.68 894.486 1781.58 Q894.486 1774.45 892.658 1770.9 Q890.852 1767.34 887.218 1767.34 M887.218 1763.64 Q893.028 1763.64 896.084 1768.24 Q899.162 1772.83 899.162 1781.58 Q899.162 1790.3 896.084 1794.91 Q893.028 1799.49 887.218 1799.49 Q881.408 1799.49 878.329 1794.91 Q875.273 1790.3 875.273 1781.58 Q875.273 1772.83 878.329 1768.24 Q881.408 1763.64 887.218 1763.64 Z" fill="#000000" fill-rule="nonzero" fill-opacity="1" /><path clip-path="url(#clip880)" d="M1418.48 1794.89 L1434.8 1794.89 L1434.8 1798.82 L1412.86 1798.82 L1412.86 1794.89 Q1415.52 1792.13 1420.1 1787.5 Q1424.71 1782.85 1425.89 1781.51 Q1428.14 1778.98 1429.02 1777.25 Q1429.92 1775.49 1429.92 1773.8 Q1429.92 1771.04 1427.97 1769.31 Q1426.05 1767.57 1422.95 1767.57 Q1420.75 1767.57 1418.3 1768.34 Q1415.87 1769.1 1413.09 1770.65 L1413.09 1765.93 Q1415.91 1764.79 1418.37 1764.21 Q1420.82 1763.64 1422.86 1763.64 Q1428.23 1763.64 1431.42 1766.32 Q1434.62 1769.01 1434.62 1773.5 Q1434.62 1775.63 1433.81 1777.55 Q1433.02 1779.45 1430.91 1782.04 Q1430.33 1782.71 1427.23 1785.93 Q1424.13 1789.12 1418.48 1794.89 Z" fill="#000000" fill-rule="nonzero" fill-opacity="1" /><path clip-path="url(#clip880)" d="M1454.62 1767.34 Q1451.01 1767.34 1449.18 1770.9 Q1447.37 1774.45 1447.37 1781.58 Q1447.37 1788.68 1449.18 1792.25 Q1451.01 1795.79 1454.62 1795.79 Q1458.25 1795.79 1460.06 1792.25 Q1461.89 1788.68 1461.89 1781.58 Q1461.89 1774.45 1460.06 1770.9 Q1458.25 1767.34 1454.62 1767.34 M1454.62 1763.64 Q1460.43 1763.64 1463.48 1768.24 Q1466.56 1772.83 1466.56 1781.58 Q1466.56 1790.3 1463.48 1794.91 Q1460.43 1799.49 1454.62 1799.49 Q1448.81 1799.49 1445.73 1794.91 Q1442.67 1790.3 1442.67 1781.58 Q1442.67 1772.83 1445.73 1768.24 Q1448.81 1763.64 1454.62 1763.64 Z" fill="#000000" fill-rule="nonzero" fill-opacity="1" /><path clip-path="url(#clip880)" d="M1995.08 1780.19 Q1998.44 1780.9 2000.32 1783.17 Q2002.21 1785.44 2002.21 1788.77 Q2002.21 1793.89 1998.69 1796.69 Q1995.18 1799.49 1988.69 1799.49 Q1986.52 1799.49 1984.2 1799.05 Q1981.91 1798.64 1979.46 1797.78 L1979.46 1793.27 Q1981.4 1794.4 1983.72 1794.98 Q1986.03 1795.56 1988.56 1795.56 Q1992.95 1795.56 1995.25 1793.82 Q1997.56 1792.08 1997.56 1788.77 Q1997.56 1785.72 1995.41 1784.01 Q1993.28 1782.27 1989.46 1782.27 L1985.43 1782.27 L1985.43 1778.43 L1989.64 1778.43 Q1993.09 1778.43 1994.92 1777.06 Q1996.75 1775.67 1996.75 1773.08 Q1996.75 1770.42 1994.85 1769.01 Q1992.98 1767.57 1989.46 1767.57 Q1987.54 1767.57 1985.34 1767.99 Q1983.14 1768.4 1980.5 1769.28 L1980.5 1765.12 Q1983.16 1764.38 1985.48 1764.01 Q1987.82 1763.64 1989.88 1763.64 Q1995.2 1763.64 1998.3 1766.07 Q2001.4 1768.47 2001.4 1772.59 Q2001.4 1775.46 1999.76 1777.46 Q1998.12 1779.42 1995.08 1780.19 Z" fill="#000000" fill-rule="nonzero" fill-opacity="1" /><path clip-path="url(#clip880)" d="M2021.08 1767.34 Q2017.47 1767.34 2015.64 1770.9 Q2013.83 1774.45 2013.83 1781.58 Q2013.83 1788.68 2015.64 1792.25 Q2017.47 1795.79 2021.08 1795.79 Q2024.71 1795.79 2026.52 1792.25 Q2028.35 1788.68 2028.35 1781.58 Q2028.35 1774.45 2026.52 1770.9 Q2024.71 1767.34 2021.08 1767.34 M2021.08 1763.64 Q2026.89 1763.64 2029.94 1768.24 Q2033.02 1772.83 2033.02 1781.58 Q2033.02 1790.3 2029.94 1794.91 Q2026.89 1799.49 2021.08 1799.49 Q2015.27 1799.49 2012.19 1794.91 Q2009.13 1790.3 2009.13 1781.58 Q2009.13 1772.83 2012.19 1768.24 Q2015.27 1763.64 2021.08 1763.64 Z" fill="#000000" fill-rule="nonzero" fill-opacity="1" /><path clip-path="url(#clip880)" d="M2560.94 1768.34 L2549.14 1786.78 L2560.94 1786.78 L2560.94 1768.34 M2559.72 1764.26 L2565.6 1764.26 L2565.6 1786.78 L2570.53 1786.78 L2570.53 1790.67 L2565.6 1790.67 L2565.6 1798.82 L2560.94 1798.82 L2560.94 1790.67 L2545.34 1790.67 L2545.34 1786.16 L2559.72 1764.26 Z" fill="#000000" fill-rule="nonzero" fill-opacity="1" /><path clip-path="url(#clip880)" d="M2588.26 1767.34 Q2584.65 1767.34 2582.82 1770.9 Q2581.01 1774.45 2581.01 1781.58 Q2581.01 1788.68 2582.82 1792.25 Q2584.65 1795.79 2588.26 1795.79 Q2591.89 1795.79 2593.7 1792.25 Q2595.53 1788.68 2595.53 1781.58 Q2595.53 1774.45 2593.7 1770.9 Q2591.89 1767.34 2588.26 1767.34 M2588.26 1763.64 Q2594.07 1763.64 2597.12 1768.24 Q2600.2 1772.83 2600.2 1781.58 Q2600.2 1790.3 2597.12 1794.91 Q2594.07 1799.49 2588.26 1799.49 Q2582.45 1799.49 2579.37 1794.91 Q2576.31 1790.3 2576.31 1781.58 Q2576.31 1772.83 2579.37 1768.24 Q2582.45 1763.64 2588.26 1763.64 Z" fill="#000000" fill-rule="nonzero" fill-opacity="1" /><path clip-path="url(#clip880)" d="M1361.59 1835.78 L1401.79 1835.78 L1401.79 1841.19 L1384.92 1841.19 L1384.92 1883.3 L1378.46 1883.3 L1378.46 1841.19 L1361.59 1841.19 L1361.59 1835.78 Z" fill="#000000" fill-rule="nonzero" fill-opacity="1" /><path clip-path="url(#clip880)" d="M1405.73 1847.65 L1411.59 1847.65 L1411.59 1883.3 L1405.73 1883.3 L1405.73 1847.65 M1405.73 1833.78 L1411.59 1833.78 L1411.59 1841.19 L1405.73 1841.19 L1405.73 1833.78 Z" fill="#000000" fill-rule="nonzero" fill-opacity="1" /><path clip-path="url(#clip880)" d="M1451.6 1854.5 Q1453.79 1850.55 1456.85 1848.67 Q1459.9 1846.79 1464.04 1846.79 Q1469.61 1846.79 1472.64 1850.71 Q1475.66 1854.59 1475.66 1861.78 L1475.66 1883.3 L1469.77 1883.3 L1469.77 1861.98 Q1469.77 1856.85 1467.96 1854.37 Q1466.14 1851.89 1462.42 1851.89 Q1457.87 1851.89 1455.23 1854.91 Q1452.58 1857.93 1452.58 1863.15 L1452.58 1883.3 L1446.7 1883.3 L1446.7 1861.98 Q1446.7 1856.82 1444.88 1854.37 Q1443.07 1851.89 1439.28 1851.89 Q1434.79 1851.89 1432.15 1854.94 Q1429.51 1857.97 1429.51 1863.15 L1429.51 1883.3 L1423.62 1883.3 L1423.62 1847.65 L1429.51 1847.65 L1429.51 1853.19 Q1431.51 1849.91 1434.31 1848.35 Q1437.12 1846.79 1440.97 1846.79 Q1444.85 1846.79 1447.56 1848.77 Q1450.29 1850.74 1451.6 1854.5 Z" fill="#000000" fill-rule="nonzero" fill-opacity="1" /><path clip-path="url(#clip880)" d="M1517.83 1864.01 L1517.83 1866.88 L1490.91 1866.88 Q1491.29 1872.92 1494.53 1876.11 Q1497.81 1879.26 1503.64 1879.26 Q1507.01 1879.26 1510.16 1878.43 Q1513.35 1877.6 1516.46 1875.95 L1516.46 1881.49 Q1513.31 1882.82 1510 1883.52 Q1506.69 1884.22 1503.29 1884.22 Q1494.76 1884.22 1489.76 1879.26 Q1484.79 1874.29 1484.79 1865.83 Q1484.79 1857.07 1489.51 1851.95 Q1494.25 1846.79 1502.27 1846.79 Q1509.46 1846.79 1513.63 1851.44 Q1517.83 1856.06 1517.83 1864.01 M1511.98 1862.29 Q1511.91 1857.49 1509.27 1854.62 Q1506.66 1851.76 1502.33 1851.76 Q1497.43 1851.76 1494.47 1854.53 Q1491.54 1857.3 1491.1 1862.33 L1511.98 1862.29 Z" fill="#000000" fill-rule="nonzero" fill-opacity="1" /><polyline clip-path="url(#clip880)" style="stroke:#000000; stroke-linecap:round; stroke-linejoin:round; stroke-width:4; stroke-opacity:1; fill:none" points="238.664,1734.12 238.664,127.792 "/>
<polyline clip-path="url(#clip880)" style="stroke:#000000; stroke-linecap:round; stroke-linejoin:round; stroke-width:4; stroke-opacity:1; fill:none" points="238.664,1688.65 257.561,1688.65 "/>
<polyline clip-path="url(#clip880)" style="stroke:#000000; stroke-linecap:round; stroke-linejoin:round; stroke-width:4; stroke-opacity:1; fill:none" points="238.664,1305.98 257.561,1305.98 "/>
<polyline clip-path="url(#clip880)" style="stroke:#000000; stroke-linecap:round; stroke-linejoin:round; stroke-width:4; stroke-opacity:1; fill:none" points="238.664,923.301 257.561,923.301 "/>
<polyline clip-path="url(#clip880)" style="stroke:#000000; stroke-linecap:round; stroke-linejoin:round; stroke-width:4; stroke-opacity:1; fill:none" points="238.664,540.624 257.561,540.624 "/>
<polyline clip-path="url(#clip880)" style="stroke:#000000; stroke-linecap:round; stroke-linejoin:round; stroke-width:4; stroke-opacity:1; fill:none" points="238.664,157.947 257.561,157.947 "/>
<path clip-path="url(#clip880)" d="M186.399 1674.45 Q182.788 1674.45 180.959 1678.02 Q179.154 1681.56 179.154 1688.69 Q179.154 1695.8 180.959 1699.36 Q182.788 1702.9 186.399 1702.9 Q190.033 1702.9 191.839 1699.36 Q193.668 1695.8 193.668 1688.69 Q193.668 1681.56 191.839 1678.02 Q190.033 1674.45 186.399 1674.45 M186.399 1670.75 Q192.209 1670.75 195.265 1675.36 Q198.344 1679.94 198.344 1688.69 Q198.344 1697.42 195.265 1702.02 Q192.209 1706.61 186.399 1706.61 Q180.589 1706.61 177.51 1702.02 Q174.455 1697.42 174.455 1688.69 Q174.455 1679.94 177.51 1675.36 Q180.589 1670.75 186.399 1670.75 Z" fill="#000000" fill-rule="nonzero" fill-opacity="1" /><path clip-path="url(#clip880)" d="M151.261 1319.32 L167.58 1319.32 L167.58 1323.26 L145.636 1323.26 L145.636 1319.32 Q148.298 1316.57 152.881 1311.94 Q157.487 1307.29 158.668 1305.94 Q160.913 1303.42 161.793 1301.68 Q162.696 1299.92 162.696 1298.23 Q162.696 1295.48 160.751 1293.74 Q158.83 1292.01 155.728 1292.01 Q153.529 1292.01 151.075 1292.77 Q148.645 1293.54 145.867 1295.09 L145.867 1290.36 Q148.691 1289.23 151.145 1288.65 Q153.599 1288.07 155.636 1288.07 Q161.006 1288.07 164.2 1290.76 Q167.395 1293.44 167.395 1297.93 Q167.395 1300.06 166.585 1301.98 Q165.798 1303.88 163.691 1306.48 Q163.112 1307.15 160.011 1310.36 Q156.909 1313.56 151.261 1319.32 Z" fill="#000000" fill-rule="nonzero" fill-opacity="1" /><path clip-path="url(#clip880)" d="M177.441 1288.7 L195.797 1288.7 L195.797 1292.63 L181.723 1292.63 L181.723 1301.11 Q182.742 1300.76 183.76 1300.6 Q184.779 1300.41 185.797 1300.41 Q191.584 1300.41 194.964 1303.58 Q198.344 1306.75 198.344 1312.17 Q198.344 1317.75 194.871 1320.85 Q191.399 1323.93 185.08 1323.93 Q182.904 1323.93 180.635 1323.56 Q178.39 1323.19 175.983 1322.45 L175.983 1317.75 Q178.066 1318.88 180.288 1319.44 Q182.51 1319.99 184.987 1319.99 Q188.992 1319.99 191.33 1317.89 Q193.668 1315.78 193.668 1312.17 Q193.668 1308.56 191.33 1306.45 Q188.992 1304.35 184.987 1304.35 Q183.112 1304.35 181.237 1304.76 Q179.385 1305.18 177.441 1306.06 L177.441 1288.7 Z" fill="#000000" fill-rule="nonzero" fill-opacity="1" /><path clip-path="url(#clip880)" d="M146.284 906.021 L164.64 906.021 L164.64 909.956 L150.566 909.956 L150.566 918.428 Q151.585 918.081 152.603 917.919 Q153.622 917.734 154.64 917.734 Q160.427 917.734 163.807 920.905 Q167.186 924.076 167.186 929.493 Q167.186 935.072 163.714 938.174 Q160.242 941.252 153.923 941.252 Q151.747 941.252 149.478 940.882 Q147.233 940.512 144.825 939.771 L144.825 935.072 Q146.909 936.206 149.131 936.762 Q151.353 937.317 153.83 937.317 Q157.835 937.317 160.173 935.211 Q162.51 933.104 162.51 929.493 Q162.51 925.882 160.173 923.776 Q157.835 921.669 153.83 921.669 Q151.955 921.669 150.08 922.086 Q148.228 922.502 146.284 923.382 L146.284 906.021 Z" fill="#000000" fill-rule="nonzero" fill-opacity="1" /><path clip-path="url(#clip880)" d="M186.399 909.1 Q182.788 909.1 180.959 912.664 Q179.154 916.206 179.154 923.336 Q179.154 930.442 180.959 934.007 Q182.788 937.549 186.399 937.549 Q190.033 937.549 191.839 934.007 Q193.668 930.442 193.668 923.336 Q193.668 916.206 191.839 912.664 Q190.033 909.1 186.399 909.1 M186.399 905.396 Q192.209 905.396 195.265 910.002 Q198.344 914.586 198.344 923.336 Q198.344 932.063 195.265 936.669 Q192.209 941.252 186.399 941.252 Q180.589 941.252 177.51 936.669 Q174.455 932.063 174.455 923.336 Q174.455 914.586 177.51 910.002 Q180.589 905.396 186.399 905.396 Z" fill="#000000" fill-rule="nonzero" fill-opacity="1" /><path clip-path="url(#clip880)" d="M146.052 523.344 L168.274 523.344 L168.274 525.335 L155.728 557.904 L150.844 557.904 L162.649 527.279 L146.052 527.279 L146.052 523.344 Z" fill="#000000" fill-rule="nonzero" fill-opacity="1" /><path clip-path="url(#clip880)" d="M177.441 523.344 L195.797 523.344 L195.797 527.279 L181.723 527.279 L181.723 535.751 Q182.742 535.404 183.76 535.242 Q184.779 535.057 185.797 535.057 Q191.584 535.057 194.964 538.228 Q198.344 541.4 198.344 546.816 Q198.344 552.395 194.871 555.497 Q191.399 558.575 185.08 558.575 Q182.904 558.575 180.635 558.205 Q178.39 557.835 175.983 557.094 L175.983 552.395 Q178.066 553.529 180.288 554.085 Q182.51 554.64 184.987 554.64 Q188.992 554.64 191.33 552.534 Q193.668 550.427 193.668 546.816 Q193.668 543.205 191.33 541.099 Q188.992 538.992 184.987 538.992 Q183.112 538.992 181.237 539.409 Q179.385 539.825 177.441 540.705 L177.441 523.344 Z" fill="#000000" fill-rule="nonzero" fill-opacity="1" /><path clip-path="url(#clip880)" d="M116.886 171.292 L124.525 171.292 L124.525 144.926 L116.214 146.593 L116.214 142.334 L124.478 140.667 L129.154 140.667 L129.154 171.292 L136.793 171.292 L136.793 175.227 L116.886 175.227 L116.886 171.292 Z" fill="#000000" fill-rule="nonzero" fill-opacity="1" /><path clip-path="url(#clip880)" d="M156.237 143.746 Q152.626 143.746 150.798 147.311 Q148.992 150.852 148.992 157.982 Q148.992 165.088 150.798 168.653 Q152.626 172.195 156.237 172.195 Q159.872 172.195 161.677 168.653 Q163.506 165.088 163.506 157.982 Q163.506 150.852 161.677 147.311 Q159.872 143.746 156.237 143.746 M156.237 140.042 Q162.048 140.042 165.103 144.649 Q168.182 149.232 168.182 157.982 Q168.182 166.709 165.103 171.315 Q162.048 175.898 156.237 175.898 Q150.427 175.898 147.349 171.315 Q144.293 166.709 144.293 157.982 Q144.293 149.232 147.349 144.649 Q150.427 140.042 156.237 140.042 Z" fill="#000000" fill-rule="nonzero" fill-opacity="1" /><path clip-path="url(#clip880)" d="M186.399 143.746 Q182.788 143.746 180.959 147.311 Q179.154 150.852 179.154 157.982 Q179.154 165.088 180.959 168.653 Q182.788 172.195 186.399 172.195 Q190.033 172.195 191.839 168.653 Q193.668 165.088 193.668 157.982 Q193.668 150.852 191.839 147.311 Q190.033 143.746 186.399 143.746 M186.399 140.042 Q192.209 140.042 195.265 144.649 Q198.344 149.232 198.344 157.982 Q198.344 166.709 195.265 171.315 Q192.209 175.898 186.399 175.898 Q180.589 175.898 177.51 171.315 Q174.455 166.709 174.455 157.982 Q174.455 149.232 177.51 144.649 Q180.589 140.042 186.399 140.042 Z" fill="#000000" fill-rule="nonzero" fill-opacity="1" /><path clip-path="url(#clip880)" d="M14.1184 1284.38 L14.1184 1275.72 L53.8723 1254.65 L14.1184 1254.65 L14.1184 1248.41 L61.6384 1248.41 L61.6384 1257.07 L21.8846 1278.14 L61.6384 1278.14 L61.6384 1284.38 L14.1184 1284.38 Z" fill="#000000" fill-rule="nonzero" fill-opacity="1" /><path clip-path="url(#clip880)" d="M47.5702 1236.48 L25.9905 1236.48 L25.9905 1230.62 L47.3474 1230.62 Q52.4082 1230.62 54.9545 1228.65 Q57.4689 1226.67 57.4689 1222.73 Q57.4689 1217.98 54.4452 1215.25 Q51.4215 1212.48 46.2016 1212.48 L25.9905 1212.48 L25.9905 1206.62 L61.6384 1206.62 L61.6384 1212.48 L56.1639 1212.48 Q59.4104 1214.61 61.0019 1217.44 Q62.5615 1220.24 62.5615 1223.97 Q62.5615 1230.11 58.742 1233.29 Q54.9226 1236.48 47.5702 1236.48 M25.1311 1221.74 L25.1311 1221.74 Z" fill="#000000" fill-rule="nonzero" fill-opacity="1" /><path clip-path="url(#clip880)" d="M32.8336 1166.8 Q28.8869 1164.61 27.009 1161.55 Q25.1311 1158.5 25.1311 1154.36 Q25.1311 1148.79 29.046 1145.77 Q32.9291 1142.74 40.1224 1142.74 L61.6384 1142.74 L61.6384 1148.63 L40.3133 1148.63 Q35.1889 1148.63 32.7063 1150.44 Q30.2237 1152.26 30.2237 1155.98 Q30.2237 1160.53 33.2474 1163.18 Q36.2711 1165.82 41.491 1165.82 L61.6384 1165.82 L61.6384 1171.71 L40.3133 1171.71 Q35.1571 1171.71 32.7063 1173.52 Q30.2237 1175.33 30.2237 1179.12 Q30.2237 1183.61 33.2792 1186.25 Q36.3029 1188.89 41.491 1188.89 L61.6384 1188.89 L61.6384 1194.78 L25.9905 1194.78 L25.9905 1188.89 L31.5287 1188.89 Q28.2503 1186.89 26.6907 1184.09 Q25.1311 1181.29 25.1311 1177.43 Q25.1311 1173.55 27.1045 1170.85 Q29.0779 1168.11 32.8336 1166.8 Z" fill="#000000" fill-rule="nonzero" fill-opacity="1" /><path clip-path="url(#clip880)" d="M43.8463 1105.47 Q37.3851 1105.47 33.7248 1108.14 Q30.0327 1110.79 30.0327 1115.43 Q30.0327 1120.08 33.7248 1122.75 Q37.3851 1125.4 43.8463 1125.4 Q50.3075 1125.4 53.9996 1122.75 Q57.6599 1120.08 57.6599 1115.43 Q57.6599 1110.79 53.9996 1108.14 Q50.3075 1105.47 43.8463 1105.47 M31.4013 1125.4 Q28.2185 1123.55 26.6907 1120.75 Q25.1311 1117.92 25.1311 1114 Q25.1311 1107.51 30.2873 1103.47 Q35.4436 1099.39 43.8463 1099.39 Q52.249 1099.39 57.4052 1103.47 Q62.5615 1107.51 62.5615 1114 Q62.5615 1117.92 61.0337 1120.75 Q59.4741 1123.55 56.2912 1125.4 L61.6384 1125.4 L61.6384 1131.28 L12.1132 1131.28 L12.1132 1125.4 L31.4013 1125.4 Z" fill="#000000" fill-rule="nonzero" fill-opacity="1" /><path clip-path="url(#clip880)" d="M42.3504 1059.19 L45.2149 1059.19 L45.2149 1086.12 Q51.2623 1085.74 54.4452 1082.49 Q57.5962 1079.21 57.5962 1073.39 Q57.5962 1070.01 56.7687 1066.86 Q55.9411 1063.68 54.2861 1060.56 L59.8242 1060.56 Q61.161 1063.71 61.8612 1067.02 Q62.5615 1070.33 62.5615 1073.74 Q62.5615 1082.27 57.5962 1087.26 Q52.631 1092.23 44.1646 1092.23 Q35.4117 1092.23 30.2873 1087.52 Q25.1311 1082.78 25.1311 1074.76 Q25.1311 1067.56 29.7781 1063.39 Q34.3932 1059.19 42.3504 1059.19 M40.6316 1065.05 Q35.8255 1065.11 32.9609 1067.75 Q30.0964 1070.36 30.0964 1074.69 Q30.0964 1079.59 32.8654 1082.55 Q35.6345 1085.48 40.6634 1085.93 L40.6316 1065.05 Z" fill="#000000" fill-rule="nonzero" fill-opacity="1" /><path clip-path="url(#clip880)" d="M31.465 1028.92 Q30.8921 1029.91 30.6375 1031.09 Q30.351 1032.23 30.351 1033.63 Q30.351 1038.6 33.5975 1041.27 Q36.8122 1043.91 42.8596 1043.91 L61.6384 1043.91 L61.6384 1049.8 L25.9905 1049.8 L25.9905 1043.91 L31.5287 1043.91 Q28.2821 1042.07 26.7225 1039.11 Q25.1311 1036.15 25.1311 1031.91 Q25.1311 1031.31 25.2266 1030.58 Q25.2903 1029.85 25.4494 1028.95 L31.465 1028.92 Z" fill="#000000" fill-rule="nonzero" fill-opacity="1" /><path clip-path="url(#clip880)" d="M30.0964 988.246 Q30.0964 992.957 33.7885 995.694 Q37.4488 998.431 43.8463 998.431 Q50.2438 998.431 53.9359 995.726 Q57.5962 992.988 57.5962 988.246 Q57.5962 983.567 53.9041 980.83 Q50.212 978.093 43.8463 978.093 Q37.5124 978.093 33.8203 980.83 Q30.0964 983.567 30.0964 988.246 M25.1311 988.246 Q25.1311 980.607 30.0964 976.247 Q35.0616 971.886 43.8463 971.886 Q52.5991 971.886 57.5962 976.247 Q62.5615 980.607 62.5615 988.246 Q62.5615 995.917 57.5962 1000.28 Q52.5991 1004.61 43.8463 1004.61 Q35.0616 1004.61 30.0964 1000.28 Q25.1311 995.917 25.1311 988.246 Z" fill="#000000" fill-rule="nonzero" fill-opacity="1" /><path clip-path="url(#clip880)" d="M12.1132 944.132 L16.983 944.132 L16.983 949.733 Q16.983 952.884 18.2562 954.126 Q19.5293 955.335 22.8395 955.335 L25.9905 955.335 L25.9905 945.691 L30.542 945.691 L30.542 955.335 L61.6384 955.335 L61.6384 961.223 L30.542 961.223 L30.542 966.825 L25.9905 966.825 L25.9905 961.223 L23.5079 961.223 Q17.5559 961.223 14.8505 958.454 Q12.1132 955.685 12.1132 949.67 L12.1132 944.132 Z" fill="#000000" fill-rule="nonzero" fill-opacity="1" /><path clip-path="url(#clip880)" d="M25.9905 918.51 L25.9905 912.653 L61.6384 912.653 L61.6384 918.51 L25.9905 918.51 M12.1132 918.51 L12.1132 912.653 L19.5293 912.653 L19.5293 918.51 L12.1132 918.51 Z" fill="#000000" fill-rule="nonzero" fill-opacity="1" /><path clip-path="url(#clip880)" d="M40.1224 870.767 L61.6384 870.767 L61.6384 876.623 L40.3133 876.623 Q35.2526 876.623 32.7381 878.597 Q30.2237 880.57 30.2237 884.517 Q30.2237 889.259 33.2474 891.996 Q36.2711 894.734 41.491 894.734 L61.6384 894.734 L61.6384 900.622 L25.9905 900.622 L25.9905 894.734 L31.5287 894.734 Q28.314 892.633 26.7225 889.8 Q25.1311 886.936 25.1311 883.212 Q25.1311 877.069 28.9505 873.918 Q32.7381 870.767 40.1224 870.767 Z" fill="#000000" fill-rule="nonzero" fill-opacity="1" /><path clip-path="url(#clip880)" d="M31.4013 835.628 L12.1132 835.628 L12.1132 829.772 L61.6384 829.772 L61.6384 835.628 L56.2912 835.628 Q59.4741 837.474 61.0337 840.307 Q62.5615 843.108 62.5615 847.055 Q62.5615 853.516 57.4052 857.59 Q52.249 861.632 43.8463 861.632 Q35.4436 861.632 30.2873 857.59 Q25.1311 853.516 25.1311 847.055 Q25.1311 843.108 26.6907 840.307 Q28.2185 837.474 31.4013 835.628 M43.8463 855.585 Q50.3075 855.585 53.9996 852.943 Q57.6599 850.269 57.6599 845.622 Q57.6599 840.975 53.9996 838.302 Q50.3075 835.628 43.8463 835.628 Q37.3851 835.628 33.7248 838.302 Q30.0327 840.975 30.0327 845.622 Q30.0327 850.269 33.7248 852.943 Q37.3851 855.585 43.8463 855.585 Z" fill="#000000" fill-rule="nonzero" fill-opacity="1" /><path clip-path="url(#clip880)" d="M25.9905 817.709 L25.9905 811.852 L61.6384 811.852 L61.6384 817.709 L25.9905 817.709 M12.1132 817.709 L12.1132 811.852 L19.5293 811.852 L19.5293 817.709 L12.1132 817.709 Z" fill="#000000" fill-rule="nonzero" fill-opacity="1" /><path clip-path="url(#clip880)" d="M25.9905 803.8 L25.9905 797.593 L55.9093 786.453 L25.9905 775.313 L25.9905 769.106 L61.6384 782.474 L61.6384 790.432 L25.9905 803.8 Z" fill="#000000" fill-rule="nonzero" fill-opacity="1" /><path clip-path="url(#clip880)" d="M25.9905 761.022 L25.9905 755.166 L61.6384 755.166 L61.6384 761.022 L25.9905 761.022 M12.1132 761.022 L12.1132 755.166 L19.5293 755.166 L19.5293 761.022 L12.1132 761.022 Z" fill="#000000" fill-rule="nonzero" fill-opacity="1" /><path clip-path="url(#clip880)" d="M31.4013 719.454 L12.1132 719.454 L12.1132 713.598 L61.6384 713.598 L61.6384 719.454 L56.2912 719.454 Q59.4741 721.3 61.0337 724.133 Q62.5615 726.934 62.5615 730.88 Q62.5615 737.342 57.4052 741.416 Q52.249 745.458 43.8463 745.458 Q35.4436 745.458 30.2873 741.416 Q25.1311 737.342 25.1311 730.88 Q25.1311 726.934 26.6907 724.133 Q28.2185 721.3 31.4013 719.454 M43.8463 739.41 Q50.3075 739.41 53.9996 736.769 Q57.6599 734.095 57.6599 729.448 Q57.6599 724.801 53.9996 722.128 Q50.3075 719.454 43.8463 719.454 Q37.3851 719.454 33.7248 722.128 Q30.0327 724.801 30.0327 729.448 Q30.0327 734.095 33.7248 736.769 Q37.3851 739.41 43.8463 739.41 Z" fill="#000000" fill-rule="nonzero" fill-opacity="1" /><path clip-path="url(#clip880)" d="M47.5702 702.139 L25.9905 702.139 L25.9905 696.283 L47.3474 696.283 Q52.4082 696.283 54.9545 694.309 Q57.4689 692.336 57.4689 688.389 Q57.4689 683.647 54.4452 680.91 Q51.4215 678.141 46.2016 678.141 L25.9905 678.141 L25.9905 672.284 L61.6384 672.284 L61.6384 678.141 L56.1639 678.141 Q59.4104 680.273 61.0019 683.106 Q62.5615 685.907 62.5615 689.631 Q62.5615 695.774 58.742 698.956 Q54.9226 702.139 47.5702 702.139 M25.1311 687.403 L25.1311 687.403 Z" fill="#000000" fill-rule="nonzero" fill-opacity="1" /><path clip-path="url(#clip880)" d="M43.719 644.02 Q43.719 651.118 45.3422 653.855 Q46.9655 656.593 50.8804 656.593 Q53.9996 656.593 55.8457 654.556 Q57.6599 652.487 57.6599 648.954 Q57.6599 644.084 54.2224 641.156 Q50.7531 638.196 45.0239 638.196 L43.719 638.196 L43.719 644.02 M41.3 632.339 L61.6384 632.339 L61.6384 638.196 L56.2276 638.196 Q59.4741 640.201 61.0337 643.193 Q62.5615 646.185 62.5615 650.513 Q62.5615 655.988 59.5059 659.234 Q56.4186 662.449 51.2623 662.449 Q45.2467 662.449 42.1912 658.439 Q39.1357 654.396 39.1357 646.407 L39.1357 638.196 L38.5628 638.196 Q34.5205 638.196 32.3244 640.869 Q30.0964 643.511 30.0964 648.317 Q30.0964 651.373 30.8284 654.269 Q31.5605 657.166 33.0246 659.839 L27.6137 659.839 Q26.3724 656.624 25.7677 653.601 Q25.1311 650.577 25.1311 647.712 Q25.1311 639.978 29.1415 636.159 Q33.1519 632.339 41.3 632.339 Z" fill="#000000" fill-rule="nonzero" fill-opacity="1" /><path clip-path="url(#clip880)" d="M12.1132 620.276 L12.1132 614.42 L61.6384 614.42 L61.6384 620.276 L12.1132 620.276 Z" fill="#000000" fill-rule="nonzero" fill-opacity="1" /><path clip-path="url(#clip880)" d="M27.0408 579.44 L32.579 579.44 Q31.3059 581.923 30.6693 584.596 Q30.0327 587.27 30.0327 590.135 Q30.0327 594.495 31.3695 596.691 Q32.7063 598.856 35.3799 598.856 Q37.4169 598.856 38.5946 597.296 Q39.7404 595.736 40.7908 591.026 L41.2364 589.021 Q42.5732 582.782 45.0239 580.172 Q47.4429 577.531 51.8034 577.531 Q56.7687 577.531 59.6651 581.477 Q62.5615 585.392 62.5615 592.267 Q62.5615 595.132 61.9886 598.251 Q61.4475 601.338 60.3335 604.776 L54.2861 604.776 Q55.973 601.529 56.8323 598.378 Q57.6599 595.227 57.6599 592.14 Q57.6599 588.002 56.2594 585.774 Q54.8271 583.546 52.249 583.546 Q49.8619 583.546 48.5887 585.169 Q47.3156 586.761 46.1379 592.203 L45.6605 594.241 Q44.5147 599.683 42.1594 602.102 Q39.7722 604.521 35.6345 604.521 Q30.6056 604.521 27.8684 600.956 Q25.1311 597.392 25.1311 590.835 Q25.1311 587.588 25.6085 584.724 Q26.086 581.859 27.0408 579.44 Z" fill="#000000" fill-rule="nonzero" fill-opacity="1" /><path clip-path="url(#clip880)" d="M653.166 14.0809 L653.166 22.0612 Q648.507 19.8332 644.375 18.7395 Q640.244 17.6457 636.395 17.6457 Q629.711 17.6457 626.065 20.2383 Q622.46 22.8309 622.46 27.611 Q622.46 31.6214 624.85 33.6873 Q627.281 35.7128 634.005 36.9686 L638.947 37.9813 Q648.102 39.7232 652.437 44.1387 Q656.812 48.5136 656.812 55.8863 Q656.812 64.6767 650.897 69.2137 Q645.024 73.7508 633.641 73.7508 Q629.347 73.7508 624.486 72.7785 Q619.665 71.8063 614.48 69.9024 L614.48 61.4765 Q619.462 64.2716 624.242 65.6895 Q629.023 67.1073 633.641 67.1073 Q640.649 67.1073 644.457 64.3527 Q648.264 61.598 648.264 56.4939 Q648.264 52.0379 645.51 49.5264 Q642.796 47.0148 636.557 45.759 L631.575 44.7868 Q622.42 42.9639 618.328 39.075 Q614.237 35.1862 614.237 28.2591 Q614.237 20.2383 619.868 15.6203 Q625.539 11.0023 635.463 11.0023 Q639.717 11.0023 644.132 11.7719 Q648.548 12.5416 653.166 14.0809 Z" fill="#000000" fill-rule="nonzero" fill-opacity="1" /><path clip-path="url(#clip880)" d="M669.572 12.096 L677.755 12.096 L677.755 72.576 L669.572 72.576 L669.572 12.096 Z" fill="#000000" fill-rule="nonzero" fill-opacity="1" /><path clip-path="url(#clip880)" d="M722.72 44.2197 Q725.353 45.1109 727.824 48.0275 Q730.336 50.9442 732.847 56.0483 L741.152 72.576 L732.361 72.576 L724.624 57.061 Q721.626 50.9847 718.791 48.9997 Q715.995 47.0148 711.134 47.0148 L702.222 47.0148 L702.222 72.576 L694.04 72.576 L694.04 12.096 L712.512 12.096 Q722.882 12.096 727.986 16.4305 Q733.09 20.7649 733.09 29.5149 Q733.09 35.2267 730.417 38.994 Q727.784 42.7613 722.72 44.2197 M702.222 18.8205 L702.222 40.2903 L712.512 40.2903 Q718.426 40.2903 721.424 37.5762 Q724.462 34.8216 724.462 29.5149 Q724.462 24.2082 721.424 21.5346 Q718.426 18.8205 712.512 18.8205 L702.222 18.8205 Z" fill="#000000" fill-rule="nonzero" fill-opacity="1" /><path clip-path="url(#clip880)" d="M795.312 32.4315 Q789.317 32.4315 785.833 37.1306 Q782.349 41.7891 782.349 49.9314 Q782.349 58.0738 785.793 62.7728 Q789.276 67.4314 795.312 67.4314 Q801.267 67.4314 804.751 62.7323 Q808.235 58.0333 808.235 49.9314 Q808.235 41.8701 804.751 37.1711 Q801.267 32.4315 795.312 32.4315 M795.312 26.1121 Q805.034 26.1121 810.584 32.4315 Q816.134 38.7509 816.134 49.9314 Q816.134 61.0714 810.584 67.4314 Q805.034 73.7508 795.312 73.7508 Q785.55 73.7508 780 67.4314 Q774.491 61.0714 774.491 49.9314 Q774.491 38.7509 780 32.4315 Q785.55 26.1121 795.312 26.1121 Z" fill="#000000" fill-rule="nonzero" fill-opacity="1" /><path clip-path="url(#clip880)" d="M866.203 45.1919 L866.203 72.576 L858.749 72.576 L858.749 45.4349 Q858.749 38.994 856.238 35.7938 Q853.726 32.5936 848.703 32.5936 Q842.667 32.5936 839.183 36.4419 Q835.7 40.2903 835.7 46.9338 L835.7 72.576 L828.206 72.576 L828.206 27.2059 L835.7 27.2059 L835.7 34.2544 Q838.373 30.163 841.979 28.1376 Q845.624 26.1121 850.364 26.1121 Q858.182 26.1121 862.193 30.9732 Q866.203 35.7938 866.203 45.1919 Z" fill="#000000" fill-rule="nonzero" fill-opacity="1" /><path clip-path="url(#clip880)" d="M928.06 49.7694 Q919.027 49.7694 915.543 51.8354 Q912.059 53.9013 912.059 58.8839 Q912.059 62.8538 914.652 65.2034 Q917.285 67.5124 921.781 67.5124 Q927.979 67.5124 931.706 63.1374 Q935.473 58.7219 935.473 51.4303 L935.473 49.7694 L928.06 49.7694 M942.927 46.6907 L942.927 72.576 L935.473 72.576 L935.473 65.6895 Q932.921 69.8214 929.114 71.8063 Q925.306 73.7508 919.796 73.7508 Q912.829 73.7508 908.697 69.8619 Q904.606 65.9325 904.606 59.3701 Q904.606 51.7138 909.71 47.825 Q914.854 43.9361 925.022 43.9361 L935.473 43.9361 L935.473 43.2069 Q935.473 38.0623 932.071 35.2672 Q928.708 32.4315 922.592 32.4315 Q918.703 32.4315 915.016 33.3632 Q911.33 34.295 907.927 36.1584 L907.927 29.2718 Q912.019 27.692 915.867 26.9223 Q919.715 26.1121 923.361 26.1121 Q933.205 26.1121 938.066 31.2163 Q942.927 36.3204 942.927 46.6907 Z" fill="#000000" fill-rule="nonzero" fill-opacity="1" /><path clip-path="url(#clip880)" d="M1004.22 39.075 Q998.708 39.075 995.467 42.8424 Q992.267 46.6097 992.267 53.1722 Q992.267 59.6941 995.467 63.502 Q998.708 67.2693 1004.22 67.2693 Q1009.73 67.2693 1012.93 63.502 Q1016.17 59.6941 1016.17 53.1722 Q1016.17 46.6097 1012.93 42.8424 Q1009.73 39.075 1004.22 39.075 M1020.46 13.4328 L1020.46 20.8865 Q1017.38 19.4281 1014.22 18.6585 Q1011.1 17.8888 1008.03 17.8888 Q999.923 17.8888 995.629 23.3575 Q991.376 28.8262 990.768 39.8852 Q993.158 36.3609 996.764 34.4975 Q1000.37 32.5936 1004.7 32.5936 Q1013.82 32.5936 1019.08 38.1433 Q1024.39 43.6525 1024.39 53.1722 Q1024.39 62.4892 1018.88 68.12 Q1013.37 73.7508 1004.22 73.7508 Q993.725 73.7508 988.176 65.73 Q982.626 57.6687 982.626 42.3968 Q982.626 28.0566 989.432 19.5497 Q996.237 11.0023 1007.7 11.0023 Q1010.78 11.0023 1013.9 11.6099 Q1017.06 12.2175 1020.46 13.4328 Z" fill="#000000" fill-rule="nonzero" fill-opacity="1" /><path clip-path="url(#clip880)" d="M1033.67 46.5287 L1055.5 46.5287 L1055.5 53.1722 L1033.67 53.1722 L1033.67 46.5287 Z" fill="#000000" fill-rule="nonzero" fill-opacity="1" /><path clip-path="url(#clip880)" d="M1093.66 34.1734 Q1092.41 33.4443 1090.91 33.1202 Q1089.45 32.7556 1087.67 32.7556 Q1081.35 32.7556 1077.94 36.8875 Q1074.58 40.9789 1074.58 48.6757 L1074.58 72.576 L1067.09 72.576 L1067.09 27.2059 L1074.58 27.2059 L1074.58 34.2544 Q1076.93 30.1225 1080.7 28.1376 Q1084.47 26.1121 1089.85 26.1121 Q1090.62 26.1121 1091.55 26.2337 Q1092.49 26.3147 1093.62 26.5172 L1093.66 34.1734 Z" fill="#000000" fill-rule="nonzero" fill-opacity="1" /><path clip-path="url(#clip880)" d="M1138.46 48.0275 L1138.46 51.6733 L1104.19 51.6733 Q1104.68 59.3701 1108.81 63.421 Q1112.98 67.4314 1120.4 67.4314 Q1124.69 67.4314 1128.7 66.3781 Q1132.75 65.3249 1136.72 63.2184 L1136.72 70.267 Q1132.71 71.9684 1128.5 72.8596 Q1124.29 73.7508 1119.95 73.7508 Q1109.1 73.7508 1102.74 67.4314 Q1096.42 61.1119 1096.42 50.3365 Q1096.42 39.1965 1102.41 32.6746 Q1108.45 26.1121 1118.66 26.1121 Q1127.81 26.1121 1133.12 32.0264 Q1138.46 37.9003 1138.46 48.0275 M1131.01 45.84 Q1130.93 39.7232 1127.57 36.0774 Q1124.25 32.4315 1118.74 32.4315 Q1112.5 32.4315 1108.73 35.9558 Q1105 39.4801 1104.44 45.8805 L1131.01 45.84 Z" fill="#000000" fill-rule="nonzero" fill-opacity="1" /><path clip-path="url(#clip880)" d="M1180.55 49.3643 Q1180.55 41.2625 1177.19 36.8065 Q1173.87 32.3505 1167.83 32.3505 Q1161.84 32.3505 1158.48 36.8065 Q1155.15 41.2625 1155.15 49.3643 Q1155.15 57.4256 1158.48 61.8816 Q1161.84 66.3376 1167.83 66.3376 Q1173.87 66.3376 1177.19 61.8816 Q1180.55 57.4256 1180.55 49.3643 M1188.01 66.9452 Q1188.01 78.5308 1182.86 84.1616 Q1177.72 89.8329 1167.1 89.8329 Q1163.17 89.8329 1159.69 89.2252 Q1156.21 88.6581 1152.93 87.4428 L1152.93 80.1917 Q1156.21 81.9741 1159.41 82.8248 Q1162.61 83.6755 1165.93 83.6755 Q1173.26 83.6755 1176.91 79.8271 Q1180.55 76.0193 1180.55 68.282 L1180.55 64.5957 Q1178.24 68.6061 1174.64 70.5911 Q1171.03 72.576 1166.01 72.576 Q1157.67 72.576 1152.56 66.2161 Q1147.46 59.8562 1147.46 49.3643 Q1147.46 38.832 1152.56 32.472 Q1157.67 26.1121 1166.01 26.1121 Q1171.03 26.1121 1174.64 28.0971 Q1178.24 30.082 1180.55 34.0924 L1180.55 27.2059 L1188.01 27.2059 L1188.01 66.9452 Z" fill="#000000" fill-rule="nonzero" fill-opacity="1" /><path clip-path="url(#clip880)" d="M1202.59 54.671 L1202.59 27.2059 L1210.04 27.2059 L1210.04 54.3874 Q1210.04 60.8284 1212.56 64.0691 Q1215.07 67.2693 1220.09 67.2693 Q1226.13 67.2693 1229.61 63.421 Q1233.13 59.5726 1233.13 52.9291 L1233.13 27.2059 L1240.59 27.2059 L1240.59 72.576 L1233.13 72.576 L1233.13 65.6084 Q1230.42 69.7404 1226.81 71.7658 Q1223.25 73.7508 1218.51 73.7508 Q1210.69 73.7508 1206.64 68.8897 Q1202.59 64.0286 1202.59 54.671 M1221.35 26.1121 L1221.35 26.1121 Z" fill="#000000" fill-rule="nonzero" fill-opacity="1" /><path clip-path="url(#clip880)" d="M1255.94 9.54393 L1263.39 9.54393 L1263.39 72.576 L1255.94 72.576 L1255.94 9.54393 Z" fill="#000000" fill-rule="nonzero" fill-opacity="1" /><path clip-path="url(#clip880)" d="M1299.61 49.7694 Q1290.58 49.7694 1287.09 51.8354 Q1283.61 53.9013 1283.61 58.8839 Q1283.61 62.8538 1286.2 65.2034 Q1288.83 67.5124 1293.33 67.5124 Q1299.53 67.5124 1303.26 63.1374 Q1307.02 58.7219 1307.02 51.4303 L1307.02 49.7694 L1299.61 49.7694 M1314.48 46.6907 L1314.48 72.576 L1307.02 72.576 L1307.02 65.6895 Q1304.47 69.8214 1300.66 71.8063 Q1296.85 73.7508 1291.35 73.7508 Q1284.38 73.7508 1280.25 69.8619 Q1276.15 65.9325 1276.15 59.3701 Q1276.15 51.7138 1281.26 47.825 Q1286.4 43.9361 1296.57 43.9361 L1307.02 43.9361 L1307.02 43.2069 Q1307.02 38.0623 1303.62 35.2672 Q1300.26 32.4315 1294.14 32.4315 Q1290.25 32.4315 1286.57 33.3632 Q1282.88 34.295 1279.48 36.1584 L1279.48 29.2718 Q1283.57 27.692 1287.42 26.9223 Q1291.26 26.1121 1294.91 26.1121 Q1304.75 26.1121 1309.61 31.2163 Q1314.48 36.3204 1314.48 46.6907 Z" fill="#000000" fill-rule="nonzero" fill-opacity="1" /><path clip-path="url(#clip880)" d="M1356.12 34.1734 Q1354.86 33.4443 1353.36 33.1202 Q1351.91 32.7556 1350.12 32.7556 Q1343.8 32.7556 1340.4 36.8875 Q1337.04 40.9789 1337.04 48.6757 L1337.04 72.576 L1329.55 72.576 L1329.55 27.2059 L1337.04 27.2059 L1337.04 34.2544 Q1339.39 30.1225 1343.16 28.1376 Q1346.92 26.1121 1352.31 26.1121 Q1353.08 26.1121 1354.01 26.2337 Q1354.94 26.3147 1356.08 26.5172 L1356.12 34.1734 Z" fill="#000000" fill-rule="nonzero" fill-opacity="1" /><path clip-path="url(#clip880)" d="M1420.16 49.3643 Q1420.16 41.2625 1416.8 36.8065 Q1413.48 32.3505 1407.44 32.3505 Q1401.45 32.3505 1398.09 36.8065 Q1394.76 41.2625 1394.76 49.3643 Q1394.76 57.4256 1398.09 61.8816 Q1401.45 66.3376 1407.44 66.3376 Q1413.48 66.3376 1416.8 61.8816 Q1420.16 57.4256 1420.16 49.3643 M1427.62 66.9452 Q1427.62 78.5308 1422.47 84.1616 Q1417.33 89.8329 1406.72 89.8329 Q1402.79 89.8329 1399.3 89.2252 Q1395.82 88.6581 1392.54 87.4428 L1392.54 80.1917 Q1395.82 81.9741 1399.02 82.8248 Q1402.22 83.6755 1405.54 83.6755 Q1412.87 83.6755 1416.52 79.8271 Q1420.16 76.0193 1420.16 68.282 L1420.16 64.5957 Q1417.86 68.6061 1414.25 70.5911 Q1410.64 72.576 1405.62 72.576 Q1397.28 72.576 1392.17 66.2161 Q1387.07 59.8562 1387.07 49.3643 Q1387.07 38.832 1392.17 32.472 Q1397.28 26.1121 1405.62 26.1121 Q1410.64 26.1121 1414.25 28.0971 Q1417.86 30.082 1420.16 34.0924 L1420.16 27.2059 L1427.62 27.2059 L1427.62 66.9452 Z" fill="#000000" fill-rule="nonzero" fill-opacity="1" /><path clip-path="url(#clip880)" d="M1469.26 34.1734 Q1468.01 33.4443 1466.51 33.1202 Q1465.05 32.7556 1463.27 32.7556 Q1456.95 32.7556 1453.54 36.8875 Q1450.18 40.9789 1450.18 48.6757 L1450.18 72.576 L1442.69 72.576 L1442.69 27.2059 L1450.18 27.2059 L1450.18 34.2544 Q1452.53 30.1225 1456.3 28.1376 Q1460.07 26.1121 1465.45 26.1121 Q1466.22 26.1121 1467.15 26.2337 Q1468.09 26.3147 1469.22 26.5172 L1469.26 34.1734 Z" fill="#000000" fill-rule="nonzero" fill-opacity="1" /><path clip-path="url(#clip880)" d="M1497.7 49.7694 Q1488.66 49.7694 1485.18 51.8354 Q1481.7 53.9013 1481.7 58.8839 Q1481.7 62.8538 1484.29 65.2034 Q1486.92 67.5124 1491.42 67.5124 Q1497.62 67.5124 1501.34 63.1374 Q1505.11 58.7219 1505.11 51.4303 L1505.11 49.7694 L1497.7 49.7694 M1512.57 46.6907 L1512.57 72.576 L1505.11 72.576 L1505.11 65.6895 Q1502.56 69.8214 1498.75 71.8063 Q1494.94 73.7508 1489.43 73.7508 Q1482.47 73.7508 1478.34 69.8619 Q1474.24 65.9325 1474.24 59.3701 Q1474.24 51.7138 1479.35 47.825 Q1484.49 43.9361 1494.66 43.9361 L1505.11 43.9361 L1505.11 43.2069 Q1505.11 38.0623 1501.71 35.2672 Q1498.35 32.4315 1492.23 32.4315 Q1488.34 32.4315 1484.65 33.3632 Q1480.97 34.295 1477.57 36.1584 L1477.57 29.2718 Q1481.66 27.692 1485.51 26.9223 Q1489.35 26.1121 1493 26.1121 Q1502.84 26.1121 1507.7 31.2163 Q1512.57 36.3204 1512.57 46.6907 Z" fill="#000000" fill-rule="nonzero" fill-opacity="1" /><path clip-path="url(#clip880)" d="M1535.13 65.7705 L1535.13 89.8329 L1527.63 89.8329 L1527.63 27.2059 L1535.13 27.2059 L1535.13 34.0924 Q1537.48 30.0415 1541.04 28.0971 Q1544.65 26.1121 1549.63 26.1121 Q1557.89 26.1121 1563.04 32.6746 Q1568.22 39.2371 1568.22 49.9314 Q1568.22 60.6258 1563.04 67.1883 Q1557.89 73.7508 1549.63 73.7508 Q1544.65 73.7508 1541.04 71.8063 Q1537.48 69.8214 1535.13 65.7705 M1560.49 49.9314 Q1560.49 41.7081 1557.08 37.0496 Q1553.72 32.3505 1547.81 32.3505 Q1541.89 32.3505 1538.49 37.0496 Q1535.13 41.7081 1535.13 49.9314 Q1535.13 58.1548 1538.49 62.8538 Q1541.89 67.5124 1547.81 67.5124 Q1553.72 67.5124 1557.08 62.8538 Q1560.49 58.1548 1560.49 49.9314 Z" fill="#000000" fill-rule="nonzero" fill-opacity="1" /><path clip-path="url(#clip880)" d="M1618.29 45.1919 L1618.29 72.576 L1610.84 72.576 L1610.84 45.4349 Q1610.84 38.994 1608.33 35.7938 Q1605.82 32.5936 1600.79 32.5936 Q1594.76 32.5936 1591.27 36.4419 Q1587.79 40.2903 1587.79 46.9338 L1587.79 72.576 L1580.3 72.576 L1580.3 9.54393 L1587.79 9.54393 L1587.79 34.2544 Q1590.46 30.163 1594.07 28.1376 Q1597.72 26.1121 1602.45 26.1121 Q1610.27 26.1121 1614.28 30.9732 Q1618.29 35.7938 1618.29 45.1919 Z" fill="#000000" fill-rule="nonzero" fill-opacity="1" /><path clip-path="url(#clip880)" d="M1677.44 9.62495 Q1672.01 18.942 1669.38 28.0566 Q1666.74 37.1711 1666.74 46.5287 Q1666.74 55.8863 1669.38 65.0818 Q1672.05 74.2369 1677.44 83.5134 L1670.96 83.5134 Q1664.88 73.9938 1661.84 64.7983 Q1658.84 55.6027 1658.84 46.5287 Q1658.84 37.4952 1661.84 28.3401 Q1664.84 19.1851 1670.96 9.62495 L1677.44 9.62495 Z" fill="#000000" fill-rule="nonzero" fill-opacity="1" /><path clip-path="url(#clip880)" d="M1720.9 44.2197 Q1723.54 45.1109 1726.01 48.0275 Q1728.52 50.9442 1731.03 56.0483 L1739.33 72.576 L1730.54 72.576 L1722.81 57.061 Q1719.81 50.9847 1716.97 48.9997 Q1714.18 47.0148 1709.32 47.0148 L1700.41 47.0148 L1700.41 72.576 L1692.22 72.576 L1692.22 12.096 L1710.7 12.096 Q1721.07 12.096 1726.17 16.4305 Q1731.27 20.7649 1731.27 29.5149 Q1731.27 35.2267 1728.6 38.994 Q1725.97 42.7613 1720.9 44.2197 M1700.41 18.8205 L1700.41 40.2903 L1710.7 40.2903 Q1716.61 40.2903 1719.61 37.5762 Q1722.65 34.8216 1722.65 29.5149 Q1722.65 24.2082 1719.61 21.5346 Q1716.61 18.8205 1710.7 18.8205 L1700.41 18.8205 Z" fill="#000000" fill-rule="nonzero" fill-opacity="1" /><path clip-path="url(#clip880)" d="M1764.82 45.1514 Q1762.79 41.6676 1758.7 41.6676 Q1754.61 41.6676 1752.58 45.1514 Q1750.52 48.6352 1750.52 55.6027 Q1750.52 62.6108 1752.58 66.0946 Q1754.61 69.5783 1758.7 69.5783 Q1762.79 69.5783 1764.82 66.0946 Q1766.88 62.6108 1766.88 55.6027 Q1766.88 48.6352 1764.82 45.1514 M1758.7 38.0623 Q1765.22 38.0623 1768.66 42.5588 Q1772.11 47.0553 1772.11 55.6027 Q1772.11 64.1906 1768.66 68.6871 Q1765.22 73.1836 1758.7 73.1836 Q1752.14 73.1836 1748.69 68.6871 Q1745.25 64.1906 1745.25 55.6027 Q1745.25 47.0553 1748.69 42.5588 Q1752.14 38.0623 1758.7 38.0623 Z" fill="#000000" fill-rule="nonzero" fill-opacity="1" /><path clip-path="url(#clip880)" d="M1783.77 34.9026 L1835.71 34.9026 L1835.71 41.7081 L1783.77 41.7081 L1783.77 34.9026 M1783.77 51.4303 L1835.71 51.4303 L1835.71 58.3168 L1783.77 58.3168 L1783.77 51.4303 Z" fill="#000000" fill-rule="nonzero" fill-opacity="1" /><path clip-path="url(#clip880)" d="M1860.42 65.6895 L1888.98 65.6895 L1888.98 72.576 L1850.57 72.576 L1850.57 65.6895 Q1855.23 60.8689 1863.25 52.7671 Q1871.31 44.6248 1873.38 42.2752 Q1877.31 37.8598 1878.85 34.8216 Q1880.43 31.7429 1880.43 28.7857 Q1880.43 23.9651 1877.03 20.927 Q1873.66 17.8888 1868.23 17.8888 Q1864.39 17.8888 1860.09 19.2256 Q1855.84 20.5624 1850.98 23.2765 L1850.98 15.0127 Q1855.92 13.0277 1860.21 12.015 Q1864.51 11.0023 1868.07 11.0023 Q1877.47 11.0023 1883.06 15.7013 Q1888.65 20.4004 1888.65 28.2591 Q1888.65 31.9859 1887.23 35.3482 Q1885.86 38.6699 1882.17 43.2069 Q1881.16 44.3817 1875.73 50.0125 Q1870.3 55.6027 1860.42 65.6895 Z" fill="#000000" fill-rule="nonzero" fill-opacity="1" /><path clip-path="url(#clip880)" d="M1907 62.2867 L1915.55 62.2867 L1915.55 69.2543 L1908.91 82.2172 L1903.68 82.2172 L1907 69.2543 L1907 62.2867 Z" fill="#000000" fill-rule="nonzero" fill-opacity="1" /><path clip-path="url(#clip880)" d="M1958.16 12.096 L1969.18 12.096 L1996 62.6918 L1996 12.096 L2003.94 12.096 L2003.94 72.576 L1992.92 72.576 L1966.1 21.9802 L1966.1 72.576 L1958.16 72.576 L1958.16 12.096 Z" fill="#000000" fill-rule="nonzero" fill-opacity="1" /><path clip-path="url(#clip880)" d="M2020.87 34.9026 L2072.81 34.9026 L2072.81 41.7081 L2020.87 41.7081 L2020.87 34.9026 M2020.87 51.4303 L2072.81 51.4303 L2072.81 58.3168 L2020.87 58.3168 L2020.87 51.4303 Z" fill="#000000" fill-rule="nonzero" fill-opacity="1" /><path clip-path="url(#clip880)" d="M2091.89 65.6895 L2105.25 65.6895 L2105.25 19.5497 L2090.71 22.4663 L2090.71 15.0127 L2105.17 12.096 L2113.35 12.096 L2113.35 65.6895 L2126.72 65.6895 L2126.72 72.576 L2091.89 72.576 L2091.89 65.6895 Z" fill="#000000" fill-rule="nonzero" fill-opacity="1" /><path clip-path="url(#clip880)" d="M2160.75 17.4837 Q2154.43 17.4837 2151.23 23.7221 Q2148.07 29.92 2148.07 42.3968 Q2148.07 54.833 2151.23 61.0714 Q2154.43 67.2693 2160.75 67.2693 Q2167.11 67.2693 2170.27 61.0714 Q2173.47 54.833 2173.47 42.3968 Q2173.47 29.92 2170.27 23.7221 Q2167.11 17.4837 2160.75 17.4837 M2160.75 11.0023 Q2170.92 11.0023 2176.27 19.0636 Q2181.65 27.0843 2181.65 42.3968 Q2181.65 57.6687 2176.27 65.73 Q2170.92 73.7508 2160.75 73.7508 Q2150.58 73.7508 2145.19 65.73 Q2139.85 57.6687 2139.85 42.3968 Q2139.85 27.0843 2145.19 19.0636 Q2150.58 11.0023 2160.75 11.0023 Z" fill="#000000" fill-rule="nonzero" fill-opacity="1" /><path clip-path="url(#clip880)" d="M2213.53 17.4837 Q2207.21 17.4837 2204.01 23.7221 Q2200.85 29.92 2200.85 42.3968 Q2200.85 54.833 2204.01 61.0714 Q2207.21 67.2693 2213.53 67.2693 Q2219.89 67.2693 2223.05 61.0714 Q2226.25 54.833 2226.25 42.3968 Q2226.25 29.92 2223.05 23.7221 Q2219.89 17.4837 2213.53 17.4837 M2213.53 11.0023 Q2223.7 11.0023 2229.05 19.0636 Q2234.44 27.0843 2234.44 42.3968 Q2234.44 57.6687 2229.05 65.73 Q2223.7 73.7508 2213.53 73.7508 Q2203.37 73.7508 2197.98 65.73 Q2192.63 57.6687 2192.63 42.3968 Q2192.63 27.0843 2197.98 19.0636 Q2203.37 11.0023 2213.53 11.0023 Z" fill="#000000" fill-rule="nonzero" fill-opacity="1" /><path clip-path="url(#clip880)" d="M2246.59 9.62495 L2253.07 9.62495 Q2259.15 19.1851 2262.14 28.3401 Q2265.18 37.4952 2265.18 46.5287 Q2265.18 55.6027 2262.14 64.7983 Q2259.15 73.9938 2253.07 83.5134 L2246.59 83.5134 Q2251.98 74.2369 2254.61 65.0818 Q2257.28 55.8863 2257.28 46.5287 Q2257.28 37.1711 2254.61 28.0566 Q2251.98 18.942 2246.59 9.62495 Z" fill="#000000" fill-rule="nonzero" fill-opacity="1" /><polyline clip-path="url(#clip881)" style="stroke:#0000ff; stroke-linecap:round; stroke-linejoin:round; stroke-width:8; stroke-opacity:1; fill:none" points="306.647,173.254 334.974,179.412 363.3,186.637 391.627,195.291 419.954,205.775 448.28,218.55 476.607,234.148 504.933,253.178 533.26,276.322 561.586,304.314 589.913,337.896 618.24,377.764 646.566,424.465 674.893,478.287 703.219,539.145 731.546,606.46 759.872,679.148 788.199,755.59 816.525,833.796 844.852,911.718 873.179,987.307 901.505,1058.85 929.832,1125.07 958.158,1185.2 986.485,1238.94 1014.81,1286.35 1043.14,1327.8 1071.46,1363.75 1099.79,1394.76 1128.12,1421.46 1156.44,1444.4 1184.77,1464.12 1213.1,1481.08 1241.42,1495.68 1269.75,1508.27 1298.08,1519.15 1326.4,1528.58 1354.73,1536.77 1383.06,1543.91 1411.38,1550.14 1439.71,1555.59 1468.04,1560.38 1496.36,1564.58 1524.69,1568.29 1553.02,1571.56 1581.34,1574.45 1609.67,1577.02 1638,1579.3 1666.32,1581.32 1694.65,1583.12 1722.98,1584.73 1751.3,1586.16 1779.63,1587.43 1807.96,1588.58 1836.28,1589.6 1864.61,1590.52 1892.93,1591.34 1921.26,1592.07 1949.59,1592.73 1977.91,1593.32 2006.24,1593.86 2034.57,1594.33 2062.89,1594.76 2091.22,1595.15 2119.55,1595.5 2147.87,1595.81 2176.2,1596.09 2204.53,1596.35 2232.85,1596.57 2261.18,1596.78 2289.51,1596.96 2317.83,1597.13 2346.16,1597.28 2374.49,1597.42 2402.81,1597.54 2431.14,1597.65 2459.47,1597.75 2487.79,1597.84 2516.12,1597.92 2544.45,1597.99 2572.77,1598.06 "/>
<polyline clip-path="url(#clip881)" style="stroke:#ff0000; stroke-linecap:round; stroke-linejoin:round; stroke-width:8; stroke-opacity:1; fill:none" points="306.647,1673.35 334.974,1669.35 363.3,1664.81 391.627,1659.46 419.954,1653.02 448.28,1645.17 476.607,1635.59 504.933,1623.9 533.26,1609.71 561.586,1592.62 589.913,1572.28 618.24,1548.41 646.566,1520.92 674.893,1489.97 703.219,1456.04 731.546,1420.04 759.872,1383.23 788.199,1347.23 816.525,1313.83 844.852,1284.63 873.179,1261.09 901.505,1244.13 929.832,1234.16 958.158,1231.1 986.485,1234.41 1014.81,1243.28 1043.14,1256.7 1071.46,1273.72 1099.79,1293.37 1128.12,1314.75 1156.44,1337.14 1184.77,1359.94 1213.1,1382.66 1241.42,1404.92 1269.75,1426.44 1298.08,1447.04 1326.4,1466.58 1354.73,1484.99 1383.06,1502.22 1411.38,1518.28 1439.71,1533.18 1468.04,1546.96 1496.36,1559.66 1524.69,1571.34 1553.02,1582.05 1581.34,1591.86 1609.67,1600.82 1638,1609.01 1666.32,1616.47 1694.65,1623.26 1722.98,1629.44 1751.3,1635.05 1779.63,1640.15 1807.96,1644.77 1836.28,1648.97 1864.61,1652.77 1892.93,1656.22 1921.26,1659.34 1949.59,1662.16 1977.91,1664.72 2006.24,1667.03 2034.57,1669.12 2062.89,1671.02 2091.22,1672.73 2119.55,1674.27 2147.87,1675.67 2176.2,1676.93 2204.53,1678.07 2232.85,1679.1 2261.18,1680.03 2289.51,1680.87 2317.83,1681.63 2346.16,1682.31 2374.49,1682.93 2402.81,1683.49 2431.14,1683.99 2459.47,1684.45 2487.79,1684.86 2516.12,1685.23 2544.45,1685.56 2572.77,1685.86 "/>
<polyline clip-path="url(#clip881)" style="stroke:#008000; stroke-linecap:round; stroke-linejoin:round; stroke-width:8; stroke-opacity:1; fill:none" points="306.647,1688.65 334.974,1686.5 363.3,1683.81 391.627,1680.5 419.954,1676.46 448.28,1671.53 476.607,1665.52 504.933,1658.18 533.26,1649.23 561.586,1638.32 589.913,1625.08 618.24,1609.08 646.566,1589.87 674.893,1567 703.219,1540.07 731.546,1508.76 759.872,1472.88 788.199,1432.43 816.525,1387.63 844.852,1338.91 873.179,1286.86 901.505,1232.28 929.832,1176.03 958.158,1118.96 986.485,1061.91 1014.81,1005.63 1043.14,950.756 1071.46,897.79 1099.79,847.126 1128.12,799.048 1156.44,753.715 1184.77,711.197 1213.1,671.519 1241.42,634.659 1269.75,600.545 1298.08,569.069 1326.4,540.099 1354.73,513.5 1383.06,489.13 1411.38,466.842 1439.71,446.487 1468.04,427.922 1496.36,411.013 1524.69,395.628 1553.02,381.645 1581.34,368.945 1609.67,357.416 1638,346.954 1666.32,337.468 1694.65,328.875 1722.98,321.093 1751.3,314.05 1779.63,307.676 1807.96,301.908 1836.28,296.687 1864.61,291.966 1892.93,287.699 1921.26,283.843 1949.59,280.36 1977.91,277.213 2006.24,274.369 2034.57,271.798 2062.89,269.476 2091.22,267.379 2119.55,265.486 2147.87,263.777 2176.2,262.235 2204.53,260.843 2232.85,259.585 2261.18,258.449 2289.51,257.423 2317.83,256.498 2346.16,255.663 2374.49,254.91 2402.81,254.231 2431.14,253.617 2459.47,253.063 2487.79,252.563 2516.12,252.112 2544.45,251.705 2572.77,251.337 "/>
<path clip-path="url(#clip880)" d="M318.733 388.696 L865.284 388.696 L865.284 181.336 L318.733 181.336  Z" fill="#ffffff" fill-rule="evenodd" fill-opacity="1"/>
<polyline clip-path="url(#clip880)" style="stroke:#000000; stroke-linecap:round; stroke-linejoin:round; stroke-width:4; stroke-opacity:1; fill:none" points="318.733,388.696 865.284,388.696 865.284,181.336 318.733,181.336 318.733,388.696 "/>
<polyline clip-path="url(#clip880)" style="stroke:#0000ff; stroke-linecap:round; stroke-linejoin:round; stroke-width:8; stroke-opacity:1; fill:none" points="345.423,233.176 505.563,233.176 "/>
<path clip-path="url(#clip880)" d="M554.498 217.031 L554.498 221.591 Q551.836 220.318 549.475 219.693 Q547.114 219.068 544.915 219.068 Q541.095 219.068 539.012 220.549 Q536.952 222.031 536.952 224.762 Q536.952 227.054 538.317 228.234 Q539.706 229.392 543.549 230.109 L546.373 230.688 Q551.604 231.683 554.081 234.206 Q556.581 236.706 556.581 240.919 Q556.581 245.942 553.202 248.535 Q549.845 251.128 543.341 251.128 Q540.887 251.128 538.109 250.572 Q535.355 250.016 532.392 248.929 L532.392 244.114 Q535.239 245.711 537.97 246.521 Q540.702 247.331 543.341 247.331 Q547.345 247.331 549.521 245.757 Q551.697 244.183 551.697 241.267 Q551.697 238.72 550.123 237.285 Q548.572 235.85 545.007 235.132 L542.16 234.577 Q536.929 233.535 534.591 231.313 Q532.253 229.091 532.253 225.132 Q532.253 220.549 535.47 217.91 Q538.711 215.271 544.382 215.271 Q546.813 215.271 549.336 215.711 Q551.859 216.151 554.498 217.031 Z" fill="#000000" fill-rule="nonzero" fill-opacity="1" /><path clip-path="url(#clip880)" d="M588.988 214.484 Q585.887 219.808 584.382 225.017 Q582.877 230.225 582.877 235.572 Q582.877 240.919 584.382 246.174 Q585.91 251.405 588.988 256.706 L585.285 256.706 Q581.813 251.266 580.077 246.012 Q578.364 240.757 578.364 235.572 Q578.364 230.41 580.077 225.179 Q581.789 219.947 585.285 214.484 L588.988 214.484 Z" fill="#000000" fill-rule="nonzero" fill-opacity="1" /><path clip-path="url(#clip880)" d="M597.252 224.531 L601.512 224.531 L601.512 250.456 L597.252 250.456 L597.252 224.531 M597.252 214.438 L601.512 214.438 L601.512 219.831 L597.252 219.831 L597.252 214.438 Z" fill="#000000" fill-rule="nonzero" fill-opacity="1" /><path clip-path="url(#clip880)" d="M631.974 234.808 L631.974 250.456 L627.715 250.456 L627.715 234.947 Q627.715 231.267 626.28 229.438 Q624.845 227.609 621.974 227.609 Q618.525 227.609 616.535 229.808 Q614.544 232.007 614.544 235.804 L614.544 250.456 L610.262 250.456 L610.262 224.531 L614.544 224.531 L614.544 228.558 Q616.072 226.22 618.132 225.063 Q620.215 223.906 622.923 223.906 Q627.391 223.906 629.683 226.683 Q631.974 229.438 631.974 234.808 Z" fill="#000000" fill-rule="nonzero" fill-opacity="1" /><path clip-path="url(#clip880)" d="M657.53 228.466 L657.53 214.438 L661.789 214.438 L661.789 250.456 L657.53 250.456 L657.53 246.567 Q656.187 248.882 654.127 250.016 Q652.09 251.128 649.22 251.128 Q644.521 251.128 641.558 247.378 Q638.618 243.628 638.618 237.517 Q638.618 231.405 641.558 227.655 Q644.521 223.906 649.22 223.906 Q652.09 223.906 654.127 225.04 Q656.187 226.151 657.53 228.466 M643.016 237.517 Q643.016 242.216 644.937 244.901 Q646.882 247.563 650.261 247.563 Q653.641 247.563 655.585 244.901 Q657.53 242.216 657.53 237.517 Q657.53 232.817 655.585 230.155 Q653.641 227.47 650.261 227.47 Q646.882 227.47 644.937 230.155 Q643.016 232.817 643.016 237.517 Z" fill="#000000" fill-rule="nonzero" fill-opacity="1" /><path clip-path="url(#clip880)" d="M670.562 224.531 L674.821 224.531 L674.821 250.456 L670.562 250.456 L670.562 224.531 M670.562 214.438 L674.821 214.438 L674.821 219.831 L670.562 219.831 L670.562 214.438 Z" fill="#000000" fill-rule="nonzero" fill-opacity="1" /><path clip-path="url(#clip880)" d="M680.678 224.531 L685.192 224.531 L693.293 246.29 L701.395 224.531 L705.909 224.531 L696.187 250.456 L690.4 250.456 L680.678 224.531 Z" fill="#000000" fill-rule="nonzero" fill-opacity="1" /><path clip-path="url(#clip880)" d="M711.789 224.531 L716.048 224.531 L716.048 250.456 L711.789 250.456 L711.789 224.531 M711.789 214.438 L716.048 214.438 L716.048 219.831 L711.789 219.831 L711.789 214.438 Z" fill="#000000" fill-rule="nonzero" fill-opacity="1" /><path clip-path="url(#clip880)" d="M742.02 228.466 L742.02 214.438 L746.279 214.438 L746.279 250.456 L742.02 250.456 L742.02 246.567 Q740.677 248.882 738.617 250.016 Q736.58 251.128 733.71 251.128 Q729.011 251.128 726.048 247.378 Q723.108 243.628 723.108 237.517 Q723.108 231.405 726.048 227.655 Q729.011 223.906 733.71 223.906 Q736.58 223.906 738.617 225.04 Q740.677 226.151 742.02 228.466 M727.506 237.517 Q727.506 242.216 729.428 244.901 Q731.372 247.563 734.752 247.563 Q738.131 247.563 740.076 244.901 Q742.02 242.216 742.02 237.517 Q742.02 232.817 740.076 230.155 Q738.131 227.47 734.752 227.47 Q731.372 227.47 729.428 230.155 Q727.506 232.817 727.506 237.517 Z" fill="#000000" fill-rule="nonzero" fill-opacity="1" /><path clip-path="url(#clip880)" d="M754.613 240.225 L754.613 224.531 L758.872 224.531 L758.872 240.063 Q758.872 243.743 760.307 245.595 Q761.742 247.424 764.613 247.424 Q768.062 247.424 770.052 245.225 Q772.066 243.026 772.066 239.229 L772.066 224.531 L776.325 224.531 L776.325 250.456 L772.066 250.456 L772.066 246.475 Q770.515 248.836 768.455 249.993 Q766.418 251.128 763.71 251.128 Q759.242 251.128 756.927 248.35 Q754.613 245.572 754.613 240.225 M765.33 223.906 L765.33 223.906 Z" fill="#000000" fill-rule="nonzero" fill-opacity="1" /><path clip-path="url(#clip880)" d="M796.881 237.424 Q791.719 237.424 789.728 238.604 Q787.737 239.785 787.737 242.632 Q787.737 244.901 789.219 246.243 Q790.724 247.563 793.293 247.563 Q796.835 247.563 798.964 245.063 Q801.117 242.54 801.117 238.373 L801.117 237.424 L796.881 237.424 M805.376 235.665 L805.376 250.456 L801.117 250.456 L801.117 246.521 Q799.659 248.882 797.483 250.016 Q795.307 251.128 792.159 251.128 Q788.177 251.128 785.816 248.905 Q783.478 246.66 783.478 242.91 Q783.478 238.535 786.395 236.313 Q789.335 234.091 795.145 234.091 L801.117 234.091 L801.117 233.674 Q801.117 230.734 799.173 229.137 Q797.251 227.517 793.756 227.517 Q791.534 227.517 789.427 228.049 Q787.321 228.581 785.376 229.646 L785.376 225.711 Q787.714 224.808 789.913 224.368 Q792.112 223.906 794.196 223.906 Q799.821 223.906 802.598 226.822 Q805.376 229.739 805.376 235.665 Z" fill="#000000" fill-rule="nonzero" fill-opacity="1" /><path clip-path="url(#clip880)" d="M814.149 214.438 L818.409 214.438 L818.409 250.456 L814.149 250.456 L814.149 214.438 Z" fill="#000000" fill-rule="nonzero" fill-opacity="1" /><path clip-path="url(#clip880)" d="M826.649 214.484 L830.353 214.484 Q833.825 219.947 835.538 225.179 Q837.274 230.41 837.274 235.572 Q837.274 240.757 835.538 246.012 Q833.825 251.266 830.353 256.706 L826.649 256.706 Q829.728 251.405 831.233 246.174 Q832.76 240.919 832.76 235.572 Q832.76 230.225 831.233 225.017 Q829.728 219.808 826.649 214.484 Z" fill="#000000" fill-rule="nonzero" fill-opacity="1" /><polyline clip-path="url(#clip880)" style="stroke:#ff0000; stroke-linecap:round; stroke-linejoin:round; stroke-width:8; stroke-opacity:1; fill:none" points="345.423,285.016 505.563,285.016 "/>
<path clip-path="url(#clip880)" d="M532.253 267.736 L536.929 267.736 L536.929 302.296 L532.253 302.296 L532.253 267.736 Z" fill="#000000" fill-rule="nonzero" fill-opacity="1" /><path clip-path="url(#clip880)" d="M571.35 266.324 Q568.248 271.648 566.743 276.857 Q565.239 282.065 565.239 287.412 Q565.239 292.759 566.743 298.014 Q568.271 303.245 571.35 308.546 L567.646 308.546 Q564.174 303.106 562.438 297.852 Q560.725 292.597 560.725 287.412 Q560.725 282.25 562.438 277.019 Q564.151 271.787 567.646 266.324 L571.35 266.324 Z" fill="#000000" fill-rule="nonzero" fill-opacity="1" /><path clip-path="url(#clip880)" d="M579.614 276.371 L583.873 276.371 L583.873 302.296 L579.614 302.296 L579.614 276.371 M579.614 266.278 L583.873 266.278 L583.873 271.671 L579.614 271.671 L579.614 266.278 Z" fill="#000000" fill-rule="nonzero" fill-opacity="1" /><path clip-path="url(#clip880)" d="M614.336 286.648 L614.336 302.296 L610.076 302.296 L610.076 286.787 Q610.076 283.107 608.641 281.278 Q607.206 279.449 604.336 279.449 Q600.887 279.449 598.896 281.648 Q596.905 283.847 596.905 287.644 L596.905 302.296 L592.623 302.296 L592.623 276.371 L596.905 276.371 L596.905 280.398 Q598.433 278.06 600.493 276.903 Q602.576 275.746 605.285 275.746 Q609.752 275.746 612.044 278.523 Q614.336 281.278 614.336 286.648 Z" fill="#000000" fill-rule="nonzero" fill-opacity="1" /><path clip-path="url(#clip880)" d="M639.891 280.306 L639.891 266.278 L644.15 266.278 L644.15 302.296 L639.891 302.296 L639.891 298.407 Q638.548 300.722 636.488 301.856 Q634.451 302.968 631.581 302.968 Q626.882 302.968 623.919 299.218 Q620.979 295.468 620.979 289.357 Q620.979 283.245 623.919 279.495 Q626.882 275.746 631.581 275.746 Q634.451 275.746 636.488 276.88 Q638.548 277.991 639.891 280.306 M625.377 289.357 Q625.377 294.056 627.298 296.741 Q629.243 299.403 632.623 299.403 Q636.002 299.403 637.947 296.741 Q639.891 294.056 639.891 289.357 Q639.891 284.657 637.947 281.995 Q636.002 279.31 632.623 279.31 Q629.243 279.31 627.298 281.995 Q625.377 284.657 625.377 289.357 Z" fill="#000000" fill-rule="nonzero" fill-opacity="1" /><path clip-path="url(#clip880)" d="M652.923 276.371 L657.183 276.371 L657.183 302.296 L652.923 302.296 L652.923 276.371 M652.923 266.278 L657.183 266.278 L657.183 271.671 L652.923 271.671 L652.923 266.278 Z" fill="#000000" fill-rule="nonzero" fill-opacity="1" /><path clip-path="url(#clip880)" d="M663.039 276.371 L667.553 276.371 L675.655 298.13 L683.757 276.371 L688.27 276.371 L678.548 302.296 L672.761 302.296 L663.039 276.371 Z" fill="#000000" fill-rule="nonzero" fill-opacity="1" /><path clip-path="url(#clip880)" d="M694.15 276.371 L698.409 276.371 L698.409 302.296 L694.15 302.296 L694.15 276.371 M694.15 266.278 L698.409 266.278 L698.409 271.671 L694.15 271.671 L694.15 266.278 Z" fill="#000000" fill-rule="nonzero" fill-opacity="1" /><path clip-path="url(#clip880)" d="M724.381 280.306 L724.381 266.278 L728.641 266.278 L728.641 302.296 L724.381 302.296 L724.381 298.407 Q723.039 300.722 720.979 301.856 Q718.942 302.968 716.071 302.968 Q711.372 302.968 708.409 299.218 Q705.469 295.468 705.469 289.357 Q705.469 283.245 708.409 279.495 Q711.372 275.746 716.071 275.746 Q718.942 275.746 720.979 276.88 Q723.039 277.991 724.381 280.306 M709.867 289.357 Q709.867 294.056 711.789 296.741 Q713.733 299.403 717.113 299.403 Q720.492 299.403 722.437 296.741 Q724.381 294.056 724.381 289.357 Q724.381 284.657 722.437 281.995 Q720.492 279.31 717.113 279.31 Q713.733 279.31 711.789 281.995 Q709.867 284.657 709.867 289.357 Z" fill="#000000" fill-rule="nonzero" fill-opacity="1" /><path clip-path="url(#clip880)" d="M736.974 292.065 L736.974 276.371 L741.233 276.371 L741.233 291.903 Q741.233 295.583 742.668 297.435 Q744.103 299.264 746.974 299.264 Q750.423 299.264 752.414 297.065 Q754.427 294.866 754.427 291.069 L754.427 276.371 L758.687 276.371 L758.687 302.296 L754.427 302.296 L754.427 298.315 Q752.877 300.676 750.816 301.833 Q748.779 302.968 746.071 302.968 Q741.603 302.968 739.289 300.19 Q736.974 297.412 736.974 292.065 M747.691 275.746 L747.691 275.746 Z" fill="#000000" fill-rule="nonzero" fill-opacity="1" /><path clip-path="url(#clip880)" d="M779.242 289.264 Q774.08 289.264 772.089 290.444 Q770.099 291.625 770.099 294.472 Q770.099 296.741 771.58 298.083 Q773.085 299.403 775.654 299.403 Q779.196 299.403 781.325 296.903 Q783.478 294.38 783.478 290.213 L783.478 289.264 L779.242 289.264 M787.737 287.505 L787.737 302.296 L783.478 302.296 L783.478 298.361 Q782.02 300.722 779.844 301.856 Q777.668 302.968 774.52 302.968 Q770.538 302.968 768.177 300.745 Q765.839 298.5 765.839 294.75 Q765.839 290.375 768.756 288.153 Q771.696 285.931 777.506 285.931 L783.478 285.931 L783.478 285.514 Q783.478 282.574 781.534 280.977 Q779.612 279.357 776.117 279.357 Q773.895 279.357 771.788 279.889 Q769.682 280.421 767.738 281.486 L767.738 277.551 Q770.075 276.648 772.275 276.208 Q774.474 275.746 776.557 275.746 Q782.182 275.746 784.96 278.662 Q787.737 281.579 787.737 287.505 Z" fill="#000000" fill-rule="nonzero" fill-opacity="1" /><path clip-path="url(#clip880)" d="M796.511 266.278 L800.77 266.278 L800.77 302.296 L796.511 302.296 L796.511 266.278 Z" fill="#000000" fill-rule="nonzero" fill-opacity="1" /><path clip-path="url(#clip880)" d="M809.01 266.324 L812.714 266.324 Q816.186 271.787 817.899 277.019 Q819.635 282.25 819.635 287.412 Q819.635 292.597 817.899 297.852 Q816.186 303.106 812.714 308.546 L809.01 308.546 Q812.089 303.245 813.594 298.014 Q815.122 292.759 815.122 287.412 Q815.122 282.065 813.594 276.857 Q812.089 271.648 809.01 266.324 Z" fill="#000000" fill-rule="nonzero" fill-opacity="1" /><polyline clip-path="url(#clip880)" style="stroke:#008000; stroke-linecap:round; stroke-linejoin:round; stroke-width:8; stroke-opacity:1; fill:none" points="345.423,336.856 505.563,336.856 "/>
<path clip-path="url(#clip880)" d="M548.641 337.933 Q550.146 338.442 551.558 340.109 Q552.993 341.775 554.428 344.692 L559.174 354.136 L554.151 354.136 L549.729 345.271 Q548.016 341.798 546.396 340.664 Q544.799 339.53 542.021 339.53 L536.929 339.53 L536.929 354.136 L532.253 354.136 L532.253 319.576 L542.808 319.576 Q548.734 319.576 551.651 322.053 Q554.567 324.53 554.567 329.53 Q554.567 332.794 553.04 334.947 Q551.535 337.099 548.641 337.933 M536.929 323.419 L536.929 335.687 L542.808 335.687 Q546.188 335.687 547.901 334.136 Q549.637 332.562 549.637 329.53 Q549.637 326.498 547.901 324.97 Q546.188 323.419 542.808 323.419 L536.929 323.419 Z" fill="#000000" fill-rule="nonzero" fill-opacity="1" /><path clip-path="url(#clip880)" d="M590.308 318.164 Q587.206 323.488 585.701 328.697 Q584.197 333.905 584.197 339.252 Q584.197 344.599 585.701 349.854 Q587.229 355.085 590.308 360.386 L586.604 360.386 Q583.132 354.946 581.396 349.692 Q579.683 344.437 579.683 339.252 Q579.683 334.09 581.396 328.859 Q583.109 323.627 586.604 318.164 L590.308 318.164 Z" fill="#000000" fill-rule="nonzero" fill-opacity="1" /><path clip-path="url(#clip880)" d="M598.572 328.211 L602.831 328.211 L602.831 354.136 L598.572 354.136 L598.572 328.211 M598.572 318.118 L602.831 318.118 L602.831 323.511 L598.572 323.511 L598.572 318.118 Z" fill="#000000" fill-rule="nonzero" fill-opacity="1" /><path clip-path="url(#clip880)" d="M633.294 338.488 L633.294 354.136 L629.035 354.136 L629.035 338.627 Q629.035 334.947 627.599 333.118 Q626.164 331.289 623.294 331.289 Q619.845 331.289 617.854 333.488 Q615.863 335.687 615.863 339.484 L615.863 354.136 L611.581 354.136 L611.581 328.211 L615.863 328.211 L615.863 332.238 Q617.391 329.9 619.451 328.743 Q621.535 327.586 624.243 327.586 Q628.711 327.586 631.002 330.363 Q633.294 333.118 633.294 338.488 Z" fill="#000000" fill-rule="nonzero" fill-opacity="1" /><path clip-path="url(#clip880)" d="M658.849 332.146 L658.849 318.118 L663.108 318.118 L663.108 354.136 L658.849 354.136 L658.849 350.247 Q657.507 352.562 655.446 353.696 Q653.409 354.808 650.539 354.808 Q645.84 354.808 642.877 351.058 Q639.937 347.308 639.937 341.197 Q639.937 335.085 642.877 331.335 Q645.84 327.586 650.539 327.586 Q653.409 327.586 655.446 328.72 Q657.507 329.831 658.849 332.146 M644.335 341.197 Q644.335 345.896 646.257 348.581 Q648.201 351.243 651.581 351.243 Q654.96 351.243 656.905 348.581 Q658.849 345.896 658.849 341.197 Q658.849 336.497 656.905 333.835 Q654.96 331.15 651.581 331.15 Q648.201 331.15 646.257 333.835 Q644.335 336.497 644.335 341.197 Z" fill="#000000" fill-rule="nonzero" fill-opacity="1" /><path clip-path="url(#clip880)" d="M671.882 328.211 L676.141 328.211 L676.141 354.136 L671.882 354.136 L671.882 328.211 M671.882 318.118 L676.141 318.118 L676.141 323.511 L671.882 323.511 L671.882 318.118 Z" fill="#000000" fill-rule="nonzero" fill-opacity="1" /><path clip-path="url(#clip880)" d="M681.997 328.211 L686.511 328.211 L694.613 349.97 L702.715 328.211 L707.229 328.211 L697.506 354.136 L691.719 354.136 L681.997 328.211 Z" fill="#000000" fill-rule="nonzero" fill-opacity="1" /><path clip-path="url(#clip880)" d="M713.108 328.211 L717.367 328.211 L717.367 354.136 L713.108 354.136 L713.108 328.211 M713.108 318.118 L717.367 318.118 L717.367 323.511 L713.108 323.511 L713.108 318.118 Z" fill="#000000" fill-rule="nonzero" fill-opacity="1" /><path clip-path="url(#clip880)" d="M743.34 332.146 L743.34 318.118 L747.599 318.118 L747.599 354.136 L743.34 354.136 L743.34 350.247 Q741.997 352.562 739.937 353.696 Q737.9 354.808 735.029 354.808 Q730.33 354.808 727.367 351.058 Q724.428 347.308 724.428 341.197 Q724.428 335.085 727.367 331.335 Q730.33 327.586 735.029 327.586 Q737.9 327.586 739.937 328.72 Q741.997 329.831 743.34 332.146 M728.826 341.197 Q728.826 345.896 730.747 348.581 Q732.691 351.243 736.071 351.243 Q739.451 351.243 741.395 348.581 Q743.34 345.896 743.34 341.197 Q743.34 336.497 741.395 333.835 Q739.451 331.15 736.071 331.15 Q732.691 331.15 730.747 333.835 Q728.826 336.497 728.826 341.197 Z" fill="#000000" fill-rule="nonzero" fill-opacity="1" /><path clip-path="url(#clip880)" d="M755.932 343.905 L755.932 328.211 L760.191 328.211 L760.191 343.743 Q760.191 347.423 761.626 349.275 Q763.062 351.104 765.932 351.104 Q769.381 351.104 771.372 348.905 Q773.386 346.706 773.386 342.909 L773.386 328.211 L777.645 328.211 L777.645 354.136 L773.386 354.136 L773.386 350.155 Q771.835 352.516 769.775 353.673 Q767.738 354.808 765.029 354.808 Q760.562 354.808 758.247 352.03 Q755.932 349.252 755.932 343.905 M766.65 327.586 L766.65 327.586 Z" fill="#000000" fill-rule="nonzero" fill-opacity="1" /><path clip-path="url(#clip880)" d="M798.2 341.104 Q793.038 341.104 791.048 342.284 Q789.057 343.465 789.057 346.312 Q789.057 348.581 790.538 349.923 Q792.043 351.243 794.612 351.243 Q798.154 351.243 800.284 348.743 Q802.436 346.22 802.436 342.053 L802.436 341.104 L798.2 341.104 M806.696 339.345 L806.696 354.136 L802.436 354.136 L802.436 350.201 Q800.978 352.562 798.802 353.696 Q796.626 354.808 793.478 354.808 Q789.497 354.808 787.136 352.585 Q784.798 350.34 784.798 346.59 Q784.798 342.215 787.714 339.993 Q790.654 337.771 796.464 337.771 L802.436 337.771 L802.436 337.354 Q802.436 334.414 800.492 332.817 Q798.571 331.197 795.075 331.197 Q792.853 331.197 790.747 331.729 Q788.64 332.261 786.696 333.326 L786.696 329.391 Q789.034 328.488 791.233 328.048 Q793.432 327.586 795.515 327.586 Q801.14 327.586 803.918 330.502 Q806.696 333.419 806.696 339.345 Z" fill="#000000" fill-rule="nonzero" fill-opacity="1" /><path clip-path="url(#clip880)" d="M815.469 318.118 L819.728 318.118 L819.728 354.136 L815.469 354.136 L815.469 318.118 Z" fill="#000000" fill-rule="nonzero" fill-opacity="1" /><path clip-path="url(#clip880)" d="M827.969 318.164 L831.672 318.164 Q835.145 323.627 836.858 328.859 Q838.594 334.09 838.594 339.252 Q838.594 344.437 836.858 349.692 Q835.145 354.946 831.672 360.386 L827.969 360.386 Q831.047 355.085 832.552 349.854 Q834.08 344.599 834.08 339.252 Q834.08 333.905 832.552 328.697 Q831.047 323.488 827.969 318.164 Z" fill="#000000" fill-rule="nonzero" fill-opacity="1" /></svg>
