<?xml version="1.0" encoding="utf-8"?>
<svg xmlns="http://www.w3.org/2000/svg" xmlns:xlink="http://www.w3.org/1999/xlink" width="672" height="480" viewBox="0 0 2688 1920">
<defs>
  <clipPath id="clip910">
    <rect x="0" y="0" width="2688" height="1920"/>
  </clipPath>
</defs>
<path clip-path="url(#clip910)" d="M0 1920 L2688 1920 L2688 -4.26326e-14 L0 -4.26326e-14  Z" fill="#ffffff" fill-rule="evenodd" fill-opacity="1"/>
<defs>
  <clipPath id="clip911">
    <rect x="210" y="127" width="2432" height="1607"/>
  </clipPath>
</defs>
<path clip-path="url(#clip910)" d="M210.238 1734.12 L2640.76 1734.12 L2640.76 127.792 L210.238 127.792  Z" fill="#ffffff" fill-rule="evenodd" fill-opacity="1"/>
<polyline clip-path="url(#clip911)" style="stroke:#000000; stroke-linecap:round; stroke-linejoin:round; stroke-width:2; stroke-opacity:0.1; fill:none" points="279.026,1734.12 279.026,127.792 "/>
<polyline clip-path="url(#clip911)" style="stroke:#000000; stroke-linecap:round; stroke-linejoin:round; stroke-width:2; stroke-opacity:0.1; fill:none" points="852.261,1734.12 852.261,127.792 "/>
<polyline clip-path="url(#clip911)" style="stroke:#000000; stroke-linecap:round; stroke-linejoin:round; stroke-width:2; stroke-opacity:0.1; fill:none" points="1425.5,1734.12 1425.5,127.792 "/>
<polyline clip-path="url(#clip911)" style="stroke:#000000; stroke-linecap:round; stroke-linejoin:round; stroke-width:2; stroke-opacity:0.1; fill:none" points="1998.73,1734.12 1998.73,127.792 "/>
<polyline clip-path="url(#clip911)" style="stroke:#000000; stroke-linecap:round; stroke-linejoin:round; stroke-width:2; stroke-opacity:0.1; fill:none" points="2571.97,1734.12 2571.97,127.792 "/>
<polyline clip-path="url(#clip911)" style="stroke:#000000; stroke-linecap:round; stroke-linejoin:round; stroke-width:2; stroke-opacity:0.1; fill:none" points="210.238,1697.96 2640.76,1697.96 "/>
<polyline clip-path="url(#clip911)" style="stroke:#000000; stroke-linecap:round; stroke-linejoin:round; stroke-width:2; stroke-opacity:0.1; fill:none" points="210.238,1187.88 2640.76,1187.88 "/>
<polyline clip-path="url(#clip911)" style="stroke:#000000; stroke-linecap:round; stroke-linejoin:round; stroke-width:2; stroke-opacity:0.1; fill:none" points="210.238,677.81 2640.76,677.81 "/>
<polyline clip-path="url(#clip911)" style="stroke:#000000; stroke-linecap:round; stroke-linejoin:round; stroke-width:2; stroke-opacity:0.1; fill:none" points="210.238,167.737 2640.76,167.737 "/>
<polyline clip-path="url(#clip910)" style="stroke:#000000; stroke-linecap:round; stroke-linejoin:round; stroke-width:4; stroke-opacity:1; fill:none" points="210.238,1734.12 2640.76,1734.12 "/>
<polyline clip-path="url(#clip910)" style="stroke:#000000; stroke-linecap:round; stroke-linejoin:round; stroke-width:4; stroke-opacity:1; fill:none" points="279.026,1734.12 279.026,1715.22 "/>
<polyline clip-path="url(#clip910)" style="stroke:#000000; stroke-linecap:round; stroke-linejoin:round; stroke-width:4; stroke-opacity:1; fill:none" points="852.261,1734.12 852.261,1715.22 "/>
<polyline clip-path="url(#clip910)" style="stroke:#000000; stroke-linecap:round; stroke-linejoin:round; stroke-width:4; stroke-opacity:1; fill:none" points="1425.5,1734.12 1425.5,1715.22 "/>
<polyline clip-path="url(#clip910)" style="stroke:#000000; stroke-linecap:round; stroke-linejoin:round; stroke-width:4; stroke-opacity:1; fill:none" points="1998.73,1734.12 1998.73,1715.22 "/>
<polyline clip-path="url(#clip910)" style="stroke:#000000; stroke-linecap:round; stroke-linejoin:round; stroke-width:4; stroke-opacity:1; fill:none" points="2571.97,1734.12 2571.97,1715.22 "/>
<path clip-path="url(#clip910)" d="M279.026 1767.34 Q275.415 1767.34 273.586 1770.9 Q271.781 1774.45 271.781 1781.58 Q271.781 1788.68 273.586 1792.25 Q275.415 1795.79 279.026 1795.79 Q282.66 1795.79 284.466 1792.25 Q286.295 1788.68 286.295 1781.58 Q286.295 1774.45 284.466 1770.9 Q282.66 1767.34 279.026 1767.34 M279.026 1763.64 Q284.836 1763.64 287.892 1768.24 Q290.97 1772.83 290.97 1781.58 Q290.97 1790.3 287.892 1794.91 Q284.836 1799.49 279.026 1799.49 Q273.216 1799.49 270.137 1794.91 Q267.082 1790.3 267.082 1781.58 Q267.082 1772.83 270.137 1768.24 Q273.216 1763.64 279.026 1763.64 Z" fill="#000000" fill-rule="nonzero" fill-opacity="1" /><path clip-path="url(#clip910)" d="M826.949 1794.89 L834.588 1794.89 L834.588 1768.52 L826.278 1770.19 L826.278 1765.93 L834.542 1764.26 L839.218 1764.26 L839.218 1794.89 L846.856 1794.89 L846.856 1798.82 L826.949 1798.82 L826.949 1794.89 Z" fill="#000000" fill-rule="nonzero" fill-opacity="1" /><path clip-path="url(#clip910)" d="M866.301 1767.34 Q862.69 1767.34 860.861 1770.9 Q859.055 1774.45 859.055 1781.58 Q859.055 1788.68 860.861 1792.25 Q862.69 1795.79 866.301 1795.79 Q869.935 1795.79 871.741 1792.25 Q873.569 1788.68 873.569 1781.58 Q873.569 1774.45 871.741 1770.9 Q869.935 1767.34 866.301 1767.34 M866.301 1763.64 Q872.111 1763.64 875.166 1768.24 Q878.245 1772.83 878.245 1781.58 Q878.245 1790.3 875.166 1794.91 Q872.111 1799.49 866.301 1799.49 Q860.491 1799.49 857.412 1794.91 Q854.356 1790.3 854.356 1781.58 Q854.356 1772.83 857.412 1768.24 Q860.491 1763.64 866.301 1763.64 Z" fill="#000000" fill-rule="nonzero" fill-opacity="1" /><path clip-path="url(#clip910)" d="M1404.27 1794.89 L1420.59 1794.89 L1420.59 1798.82 L1398.65 1798.82 L1398.65 1794.89 Q1401.31 1792.13 1405.89 1787.5 Q1410.5 1782.85 1411.68 1781.51 Q1413.92 1778.98 1414.8 1777.25 Q1415.71 1775.49 1415.71 1773.8 Q1415.71 1771.04 1413.76 1769.31 Q1411.84 1767.57 1408.74 1767.57 Q1406.54 1767.57 1404.08 1768.34 Q1401.65 1769.1 1398.88 1770.65 L1398.88 1765.93 Q1401.7 1764.79 1404.15 1764.21 Q1406.61 1763.64 1408.65 1763.64 Q1414.02 1763.64 1417.21 1766.32 Q1420.4 1769.01 1420.4 1773.5 Q1420.4 1775.63 1419.59 1777.55 Q1418.81 1779.45 1416.7 1782.04 Q1416.12 1782.71 1413.02 1785.93 Q1409.92 1789.12 1404.27 1794.89 Z" fill="#000000" fill-rule="nonzero" fill-opacity="1" /><path clip-path="url(#clip910)" d="M1440.4 1767.34 Q1436.79 1767.34 1434.96 1770.9 Q1433.16 1774.45 1433.16 1781.58 Q1433.16 1788.68 1434.96 1792.25 Q1436.79 1795.79 1440.4 1795.79 Q1444.04 1795.79 1445.84 1792.25 Q1447.67 1788.68 1447.67 1781.58 Q1447.67 1774.45 1445.84 1770.9 Q1444.04 1767.34 1440.4 1767.34 M1440.4 1763.64 Q1446.21 1763.64 1449.27 1768.24 Q1452.35 1772.83 1452.35 1781.58 Q1452.35 1790.3 1449.27 1794.91 Q1446.21 1799.49 1440.4 1799.49 Q1434.59 1799.49 1431.52 1794.91 Q1428.46 1790.3 1428.46 1781.58 Q1428.46 1772.83 1431.52 1768.24 Q1434.59 1763.64 1440.4 1763.64 Z" fill="#000000" fill-rule="nonzero" fill-opacity="1" /><path clip-path="url(#clip910)" d="M1987.57 1780.19 Q1990.93 1780.9 1992.81 1783.17 Q1994.7 1785.44 1994.7 1788.77 Q1994.7 1793.89 1991.19 1796.69 Q1987.67 1799.49 1981.19 1799.49 Q1979.01 1799.49 1976.7 1799.05 Q1974.4 1798.64 1971.95 1797.78 L1971.95 1793.27 Q1973.89 1794.4 1976.21 1794.98 Q1978.52 1795.56 1981.05 1795.56 Q1985.45 1795.56 1987.74 1793.82 Q1990.05 1792.08 1990.05 1788.77 Q1990.05 1785.72 1987.9 1784.01 Q1985.77 1782.27 1981.95 1782.27 L1977.92 1782.27 L1977.92 1778.43 L1982.14 1778.43 Q1985.58 1778.43 1987.41 1777.06 Q1989.24 1775.67 1989.24 1773.08 Q1989.24 1770.42 1987.34 1769.01 Q1985.47 1767.57 1981.95 1767.57 Q1980.03 1767.57 1977.83 1767.99 Q1975.63 1768.4 1972.99 1769.28 L1972.99 1765.12 Q1975.65 1764.38 1977.97 1764.01 Q1980.31 1763.64 1982.37 1763.64 Q1987.69 1763.64 1990.79 1766.07 Q1993.89 1768.47 1993.89 1772.59 Q1993.89 1775.46 1992.25 1777.46 Q1990.61 1779.42 1987.57 1780.19 Z" fill="#000000" fill-rule="nonzero" fill-opacity="1" /><path clip-path="url(#clip910)" d="M2013.57 1767.34 Q2009.96 1767.34 2008.13 1770.9 Q2006.32 1774.45 2006.32 1781.58 Q2006.32 1788.68 2008.13 1792.25 Q2009.96 1795.79 2013.57 1795.79 Q2017.2 1795.79 2019.01 1792.25 Q2020.84 1788.68 2020.84 1781.58 Q2020.84 1774.45 2019.01 1770.9 Q2017.2 1767.34 2013.57 1767.34 M2013.57 1763.64 Q2019.38 1763.64 2022.44 1768.24 Q2025.51 1772.83 2025.51 1781.58 Q2025.51 1790.3 2022.44 1794.91 Q2019.38 1799.49 2013.57 1799.49 Q2007.76 1799.49 2004.68 1794.91 Q2001.63 1790.3 2001.63 1781.58 Q2001.63 1772.83 2004.68 1768.24 Q2007.76 1763.64 2013.57 1763.64 Z" fill="#000000" fill-rule="nonzero" fill-opacity="1" /><path clip-path="url(#clip910)" d="M2560.14 1768.34 L2548.33 1786.78 L2560.14 1786.78 L2560.14 1768.34 M2558.91 1764.26 L2564.79 1764.26 L2564.79 1786.78 L2569.72 1786.78 L2569.72 1790.67 L2564.79 1790.67 L2564.79 1798.82 L2560.14 1798.82 L2560.14 1790.67 L2544.54 1790.67 L2544.54 1786.16 L2558.91 1764.26 Z" fill="#000000" fill-rule="nonzero" fill-opacity="1" /><path clip-path="url(#clip910)" d="M2587.45 1767.34 Q2583.84 1767.34 2582.01 1770.9 Q2580.21 1774.45 2580.21 1781.58 Q2580.21 1788.68 2582.01 1792.25 Q2583.84 1795.79 2587.45 1795.79 Q2591.09 1795.79 2592.89 1792.25 Q2594.72 1788.68 2594.72 1781.58 Q2594.72 1774.45 2592.89 1770.9 Q2591.09 1767.34 2587.45 1767.34 M2587.45 1763.64 Q2593.26 1763.64 2596.32 1768.24 Q2599.4 1772.83 2599.4 1781.58 Q2599.4 1790.3 2596.32 1794.91 Q2593.26 1799.49 2587.45 1799.49 Q2581.64 1799.49 2578.56 1794.91 Q2575.51 1790.3 2575.51 1781.58 Q2575.51 1772.83 2578.56 1768.24 Q2581.64 1763.64 2587.45 1763.64 Z" fill="#000000" fill-rule="nonzero" fill-opacity="1" /><path clip-path="url(#clip910)" d="M1347.37 1835.78 L1387.57 1835.78 L1387.57 1841.19 L1370.7 1841.19 L1370.7 1883.3 L1364.24 1883.3 L1364.24 1841.19 L1347.37 1841.19 L1347.37 1835.78 Z" fill="#000000" fill-rule="nonzero" fill-opacity="1" /><path clip-path="url(#clip910)" d="M1391.52 1847.65 L1397.38 1847.65 L1397.38 1883.3 L1391.52 1883.3 L1391.52 1847.65 M1391.52 1833.78 L1397.38 1833.78 L1397.38 1841.19 L1391.52 1841.19 L1391.52 1833.78 Z" fill="#000000" fill-rule="nonzero" fill-opacity="1" /><path clip-path="url(#clip910)" d="M1437.38 1854.5 Q1439.58 1850.55 1442.64 1848.67 Q1445.69 1846.79 1449.83 1846.79 Q1455.4 1846.79 1458.42 1850.71 Q1461.45 1854.59 1461.45 1861.78 L1461.45 1883.3 L1455.56 1883.3 L1455.56 1861.98 Q1455.56 1856.85 1453.74 1854.37 Q1451.93 1851.89 1448.21 1851.89 Q1443.66 1851.89 1441.01 1854.91 Q1438.37 1857.93 1438.37 1863.15 L1438.37 1883.3 L1432.48 1883.3 L1432.48 1861.98 Q1432.48 1856.82 1430.67 1854.37 Q1428.85 1851.89 1425.07 1851.89 Q1420.58 1851.89 1417.94 1854.94 Q1415.3 1857.97 1415.3 1863.15 L1415.3 1883.3 L1409.41 1883.3 L1409.41 1847.65 L1415.3 1847.65 L1415.3 1853.19 Q1417.3 1849.91 1420.1 1848.35 Q1422.9 1846.79 1426.75 1846.79 Q1430.64 1846.79 1433.34 1848.77 Q1436.08 1850.74 1437.38 1854.5 Z" fill="#000000" fill-rule="nonzero" fill-opacity="1" /><path clip-path="url(#clip910)" d="M1503.62 1864.01 L1503.62 1866.88 L1476.69 1866.88 Q1477.08 1872.92 1480.32 1876.11 Q1483.6 1879.26 1489.42 1879.26 Q1492.8 1879.26 1495.95 1878.43 Q1499.13 1877.6 1502.25 1875.95 L1502.25 1881.49 Q1499.1 1882.82 1495.79 1883.52 Q1492.48 1884.22 1489.07 1884.22 Q1480.54 1884.22 1475.55 1879.26 Q1470.58 1874.29 1470.58 1865.83 Q1470.58 1857.07 1475.29 1851.95 Q1480.04 1846.79 1488.06 1846.79 Q1495.25 1846.79 1499.42 1851.44 Q1503.62 1856.06 1503.62 1864.01 M1497.76 1862.29 Q1497.7 1857.49 1495.06 1854.62 Q1492.45 1851.76 1488.12 1851.76 Q1483.22 1851.76 1480.26 1854.53 Q1477.33 1857.3 1476.88 1862.33 L1497.76 1862.29 Z" fill="#000000" fill-rule="nonzero" fill-opacity="1" /><polyline clip-path="url(#clip910)" style="stroke:#000000; stroke-linecap:round; stroke-linejoin:round; stroke-width:4; stroke-opacity:1; fill:none" points="210.238,1734.12 210.238,127.792 "/>
<polyline clip-path="url(#clip910)" style="stroke:#000000; stroke-linecap:round; stroke-linejoin:round; stroke-width:4; stroke-opacity:1; fill:none" points="210.238,1697.96 229.135,1697.96 "/>
<polyline clip-path="url(#clip910)" style="stroke:#000000; stroke-linecap:round; stroke-linejoin:round; stroke-width:4; stroke-opacity:1; fill:none" points="210.238,1187.88 229.135,1187.88 "/>
<polyline clip-path="url(#clip910)" style="stroke:#000000; stroke-linecap:round; stroke-linejoin:round; stroke-width:4; stroke-opacity:1; fill:none" points="210.238,677.81 229.135,677.81 "/>
<polyline clip-path="url(#clip910)" style="stroke:#000000; stroke-linecap:round; stroke-linejoin:round; stroke-width:4; stroke-opacity:1; fill:none" points="210.238,167.737 229.135,167.737 "/>
<path clip-path="url(#clip910)" d="M157.973 1683.75 Q154.362 1683.75 152.534 1687.32 Q150.728 1690.86 150.728 1697.99 Q150.728 1705.1 152.534 1708.66 Q154.362 1712.2 157.973 1712.2 Q161.608 1712.2 163.413 1708.66 Q165.242 1705.1 165.242 1697.99 Q165.242 1690.86 163.413 1687.32 Q161.608 1683.75 157.973 1683.75 M157.973 1680.05 Q163.784 1680.05 166.839 1684.66 Q169.918 1689.24 169.918 1697.99 Q169.918 1706.72 166.839 1711.32 Q163.784 1715.91 157.973 1715.91 Q152.163 1715.91 149.085 1711.32 Q146.029 1706.72 146.029 1697.99 Q146.029 1689.24 149.085 1684.66 Q152.163 1680.05 157.973 1680.05 Z" fill="#000000" fill-rule="nonzero" fill-opacity="1" /><path clip-path="url(#clip910)" d="M118.622 1201.23 L126.261 1201.23 L126.261 1174.86 L117.951 1176.53 L117.951 1172.27 L126.214 1170.6 L130.89 1170.6 L130.89 1201.23 L138.529 1201.23 L138.529 1205.16 L118.622 1205.16 L118.622 1201.23 Z" fill="#000000" fill-rule="nonzero" fill-opacity="1" /><path clip-path="url(#clip910)" d="M157.973 1173.68 Q154.362 1173.68 152.534 1177.25 Q150.728 1180.79 150.728 1187.92 Q150.728 1195.02 152.534 1198.59 Q154.362 1202.13 157.973 1202.13 Q161.608 1202.13 163.413 1198.59 Q165.242 1195.02 165.242 1187.92 Q165.242 1180.79 163.413 1177.25 Q161.608 1173.68 157.973 1173.68 M157.973 1169.98 Q163.784 1169.98 166.839 1174.58 Q169.918 1179.17 169.918 1187.92 Q169.918 1196.64 166.839 1201.25 Q163.784 1205.83 157.973 1205.83 Q152.163 1205.83 149.085 1201.25 Q146.029 1196.64 146.029 1187.92 Q146.029 1179.17 149.085 1174.58 Q152.163 1169.98 157.973 1169.98 Z" fill="#000000" fill-rule="nonzero" fill-opacity="1" /><path clip-path="url(#clip910)" d="M121.839 691.154 L138.159 691.154 L138.159 695.09 L116.214 695.09 L116.214 691.154 Q118.876 688.4 123.46 683.77 Q128.066 679.118 129.247 677.775 Q131.492 675.252 132.372 673.516 Q133.275 671.756 133.275 670.067 Q133.275 667.312 131.33 665.576 Q129.409 663.84 126.307 663.84 Q124.108 663.84 121.654 664.604 Q119.224 665.368 116.446 666.919 L116.446 662.196 Q119.27 661.062 121.724 660.483 Q124.177 659.905 126.214 659.905 Q131.585 659.905 134.779 662.59 Q137.974 665.275 137.974 669.766 Q137.974 671.895 137.163 673.817 Q136.376 675.715 134.27 678.307 Q133.691 678.979 130.589 682.196 Q127.488 685.391 121.839 691.154 Z" fill="#000000" fill-rule="nonzero" fill-opacity="1" /><path clip-path="url(#clip910)" d="M157.973 663.608 Q154.362 663.608 152.534 667.173 Q150.728 670.715 150.728 677.844 Q150.728 684.951 152.534 688.516 Q154.362 692.057 157.973 692.057 Q161.608 692.057 163.413 688.516 Q165.242 684.951 165.242 677.844 Q165.242 670.715 163.413 667.173 Q161.608 663.608 157.973 663.608 M157.973 659.905 Q163.784 659.905 166.839 664.511 Q169.918 669.094 169.918 677.844 Q169.918 686.571 166.839 691.178 Q163.784 695.761 157.973 695.761 Q152.163 695.761 149.085 691.178 Q146.029 686.571 146.029 677.844 Q146.029 669.094 149.085 664.511 Q152.163 659.905 157.973 659.905 Z" fill="#000000" fill-rule="nonzero" fill-opacity="1" /><path clip-path="url(#clip910)" d="M131.978 166.383 Q135.335 167.1 137.21 169.369 Q139.108 171.637 139.108 174.97 Q139.108 180.086 135.589 182.887 Q132.071 185.688 125.589 185.688 Q123.413 185.688 121.099 185.248 Q118.807 184.832 116.353 183.975 L116.353 179.461 Q118.298 180.595 120.613 181.174 Q122.927 181.753 125.451 181.753 Q129.849 181.753 132.14 180.017 Q134.455 178.281 134.455 174.97 Q134.455 171.915 132.302 170.202 Q130.173 168.466 126.353 168.466 L122.326 168.466 L122.326 164.623 L126.538 164.623 Q129.988 164.623 131.816 163.258 Q133.645 161.869 133.645 159.276 Q133.645 156.614 131.747 155.202 Q129.872 153.767 126.353 153.767 Q124.432 153.767 122.233 154.184 Q120.034 154.6 117.395 155.48 L117.395 151.313 Q120.057 150.572 122.372 150.202 Q124.71 149.832 126.77 149.832 Q132.094 149.832 135.196 152.262 Q138.298 154.67 138.298 158.79 Q138.298 161.66 136.654 163.651 Q135.011 165.619 131.978 166.383 Z" fill="#000000" fill-rule="nonzero" fill-opacity="1" /><path clip-path="url(#clip910)" d="M157.973 153.535 Q154.362 153.535 152.534 157.1 Q150.728 160.642 150.728 167.771 Q150.728 174.878 152.534 178.443 Q154.362 181.984 157.973 181.984 Q161.608 181.984 163.413 178.443 Q165.242 174.878 165.242 167.771 Q165.242 160.642 163.413 157.1 Q161.608 153.535 157.973 153.535 M157.973 149.832 Q163.784 149.832 166.839 154.438 Q169.918 159.021 169.918 167.771 Q169.918 176.498 166.839 181.105 Q163.784 185.688 157.973 185.688 Q152.163 185.688 149.085 181.105 Q146.029 176.498 146.029 167.771 Q146.029 159.021 149.085 154.438 Q152.163 149.832 157.973 149.832 Z" fill="#000000" fill-rule="nonzero" fill-opacity="1" /><path clip-path="url(#clip910)" d="M14.1184 1198.76 L14.1184 1190.1 L53.8723 1169.03 L14.1184 1169.03 L14.1184 1162.79 L61.6384 1162.79 L61.6384 1171.45 L21.8846 1192.52 L61.6384 1192.52 L61.6384 1198.76 L14.1184 1198.76 Z" fill="#000000" fill-rule="nonzero" fill-opacity="1" /><path clip-path="url(#clip910)" d="M47.5702 1150.86 L25.9905 1150.86 L25.9905 1145 L47.3474 1145 Q52.4082 1145 54.9545 1143.03 Q57.4689 1141.05 57.4689 1137.11 Q57.4689 1132.37 54.4452 1129.63 Q51.4215 1126.86 46.2016 1126.86 L25.9905 1126.86 L25.9905 1121 L61.6384 1121 L61.6384 1126.86 L56.1639 1126.86 Q59.4104 1128.99 61.0019 1131.82 Q62.5615 1134.63 62.5615 1138.35 Q62.5615 1144.49 58.742 1147.68 Q54.9226 1150.86 47.5702 1150.86 M25.1311 1136.12 L25.1311 1136.12 Z" fill="#000000" fill-rule="nonzero" fill-opacity="1" /><path clip-path="url(#clip910)" d="M32.8336 1081.19 Q28.8869 1078.99 27.009 1075.93 Q25.1311 1072.88 25.1311 1068.74 Q25.1311 1063.17 29.046 1060.15 Q32.9291 1057.12 40.1224 1057.12 L61.6384 1057.12 L61.6384 1063.01 L40.3133 1063.01 Q35.1889 1063.01 32.7063 1064.83 Q30.2237 1066.64 30.2237 1070.36 Q30.2237 1074.92 33.2474 1077.56 Q36.2711 1080.2 41.491 1080.2 L61.6384 1080.2 L61.6384 1086.09 L40.3133 1086.09 Q35.1571 1086.09 32.7063 1087.9 Q30.2237 1089.72 30.2237 1093.5 Q30.2237 1097.99 33.2792 1100.63 Q36.3029 1103.27 41.491 1103.27 L61.6384 1103.27 L61.6384 1109.16 L25.9905 1109.16 L25.9905 1103.27 L31.5287 1103.27 Q28.2503 1101.27 26.6907 1098.47 Q25.1311 1095.67 25.1311 1091.82 Q25.1311 1087.93 27.1045 1085.23 Q29.0779 1082.49 32.8336 1081.19 Z" fill="#000000" fill-rule="nonzero" fill-opacity="1" /><path clip-path="url(#clip910)" d="M43.8463 1019.85 Q37.3851 1019.85 33.7248 1022.53 Q30.0327 1025.17 30.0327 1029.81 Q30.0327 1034.46 33.7248 1037.13 Q37.3851 1039.78 43.8463 1039.78 Q50.3075 1039.78 53.9996 1037.13 Q57.6599 1034.46 57.6599 1029.81 Q57.6599 1025.17 53.9996 1022.53 Q50.3075 1019.85 43.8463 1019.85 M31.4013 1039.78 Q28.2185 1037.93 26.6907 1035.13 Q25.1311 1032.3 25.1311 1028.38 Q25.1311 1021.89 30.2873 1017.85 Q35.4436 1013.77 43.8463 1013.77 Q52.249 1013.77 57.4052 1017.85 Q62.5615 1021.89 62.5615 1028.38 Q62.5615 1032.3 61.0337 1035.13 Q59.4741 1037.93 56.2912 1039.78 L61.6384 1039.78 L61.6384 1045.66 L12.1132 1045.66 L12.1132 1039.78 L31.4013 1039.78 Z" fill="#000000" fill-rule="nonzero" fill-opacity="1" /><path clip-path="url(#clip910)" d="M42.3504 973.573 L45.2149 973.573 L45.2149 1000.5 Q51.2623 1000.12 54.4452 996.871 Q57.5962 993.593 57.5962 987.768 Q57.5962 984.395 56.7687 981.244 Q55.9411 978.061 54.2861 974.942 L59.8242 974.942 Q61.161 978.093 61.8612 981.403 Q62.5615 984.713 62.5615 988.119 Q62.5615 996.649 57.5962 1001.65 Q52.631 1006.61 44.1646 1006.61 Q35.4117 1006.61 30.2873 1001.9 Q25.1311 997.158 25.1311 989.137 Q25.1311 981.944 29.7781 977.774 Q34.3932 973.573 42.3504 973.573 M40.6316 979.429 Q35.8255 979.493 32.9609 982.135 Q30.0964 984.745 30.0964 989.073 Q30.0964 993.975 32.8654 996.935 Q35.6345 999.863 40.6634 1000.31 L40.6316 979.429 Z" fill="#000000" fill-rule="nonzero" fill-opacity="1" /><path clip-path="url(#clip910)" d="M31.465 943.304 Q30.8921 944.291 30.6375 945.468 Q30.351 946.614 30.351 948.015 Q30.351 952.98 33.5975 955.653 Q36.8122 958.295 42.8596 958.295 L61.6384 958.295 L61.6384 964.184 L25.9905 964.184 L25.9905 958.295 L31.5287 958.295 Q28.2821 956.449 26.7225 953.489 Q25.1311 950.529 25.1311 946.296 Q25.1311 945.691 25.2266 944.959 Q25.2903 944.227 25.4494 943.336 L31.465 943.304 Z" fill="#000000" fill-rule="nonzero" fill-opacity="1" /><path clip-path="url(#clip910)" d="M25.9905 916.441 L25.9905 910.584 L61.6384 910.584 L61.6384 916.441 L25.9905 916.441 M12.1132 916.441 L12.1132 910.584 L19.5293 910.584 L19.5293 916.441 L12.1132 916.441 Z" fill="#000000" fill-rule="nonzero" fill-opacity="1" /><path clip-path="url(#clip910)" d="M40.1224 868.698 L61.6384 868.698 L61.6384 874.554 L40.3133 874.554 Q35.2526 874.554 32.7381 876.528 Q30.2237 878.501 30.2237 882.448 Q30.2237 887.19 33.2474 889.928 Q36.2711 892.665 41.491 892.665 L61.6384 892.665 L61.6384 898.553 L25.9905 898.553 L25.9905 892.665 L31.5287 892.665 Q28.314 890.564 26.7225 887.731 Q25.1311 884.867 25.1311 881.143 Q25.1311 875 28.9505 871.849 Q32.7381 868.698 40.1224 868.698 Z" fill="#000000" fill-rule="nonzero" fill-opacity="1" /><path clip-path="url(#clip910)" d="M12.1132 838.97 L16.983 838.97 L16.983 844.572 Q16.983 847.723 18.2562 848.964 Q19.5293 850.174 22.8395 850.174 L25.9905 850.174 L25.9905 840.53 L30.542 840.53 L30.542 850.174 L61.6384 850.174 L61.6384 856.062 L30.542 856.062 L30.542 861.664 L25.9905 861.664 L25.9905 856.062 L23.5079 856.062 Q17.5559 856.062 14.8505 853.293 Q12.1132 850.524 12.1132 844.508 L12.1132 838.97 Z" fill="#000000" fill-rule="nonzero" fill-opacity="1" /><path clip-path="url(#clip910)" d="M42.3504 803.577 L45.2149 803.577 L45.2149 830.504 Q51.2623 830.122 54.4452 826.875 Q57.5962 823.597 57.5962 817.772 Q57.5962 814.398 56.7687 811.247 Q55.9411 808.065 54.2861 804.945 L59.8242 804.945 Q61.161 808.096 61.8612 811.407 Q62.5615 814.717 62.5615 818.122 Q62.5615 826.652 57.5962 831.65 Q52.631 836.615 44.1646 836.615 Q35.4117 836.615 30.2873 831.904 Q25.1311 827.162 25.1311 819.141 Q25.1311 811.948 29.7781 807.778 Q34.3932 803.577 42.3504 803.577 M40.6316 809.433 Q35.8255 809.497 32.9609 812.139 Q30.0964 814.749 30.0964 819.077 Q30.0964 823.979 32.8654 826.939 Q35.6345 829.867 40.6634 830.313 L40.6316 809.433 Z" fill="#000000" fill-rule="nonzero" fill-opacity="1" /><path clip-path="url(#clip910)" d="M27.3591 768.311 L32.8336 768.311 Q31.465 770.793 30.7966 773.308 Q30.0964 775.79 30.0964 778.337 Q30.0964 784.034 33.7248 787.185 Q37.3214 790.336 43.8463 790.336 Q50.3711 790.336 53.9996 787.185 Q57.5962 784.034 57.5962 778.337 Q57.5962 775.79 56.9278 773.308 Q56.2276 770.793 54.859 768.311 L60.2698 768.311 Q61.4156 770.762 61.9886 773.403 Q62.5615 776.013 62.5615 778.973 Q62.5615 787.026 57.5007 791.768 Q52.44 796.511 43.8463 796.511 Q35.1253 796.511 30.1282 791.737 Q25.1311 786.93 25.1311 778.591 Q25.1311 775.886 25.704 773.308 Q26.2451 770.73 27.3591 768.311 Z" fill="#000000" fill-rule="nonzero" fill-opacity="1" /><path clip-path="url(#clip910)" d="M15.869 752.333 L25.9905 752.333 L25.9905 740.27 L30.542 740.27 L30.542 752.333 L49.8937 752.333 Q54.2542 752.333 55.4955 751.155 Q56.7368 749.946 56.7368 746.285 L56.7368 740.27 L61.6384 740.27 L61.6384 746.285 Q61.6384 753.065 59.124 755.643 Q56.5777 758.221 49.8937 758.221 L30.542 758.221 L30.542 762.518 L25.9905 762.518 L25.9905 758.221 L15.869 758.221 L15.869 752.333 Z" fill="#000000" fill-rule="nonzero" fill-opacity="1" /><path clip-path="url(#clip910)" d="M42.3504 702.076 L45.2149 702.076 L45.2149 729.003 Q51.2623 728.621 54.4452 725.374 Q57.5962 722.096 57.5962 716.271 Q57.5962 712.897 56.7687 709.746 Q55.9411 706.563 54.2861 703.444 L59.8242 703.444 Q61.161 706.595 61.8612 709.905 Q62.5615 713.216 62.5615 716.621 Q62.5615 725.151 57.5962 730.148 Q52.631 735.114 44.1646 735.114 Q35.4117 735.114 30.2873 730.403 Q25.1311 725.661 25.1311 717.64 Q25.1311 710.446 29.7781 706.277 Q34.3932 702.076 42.3504 702.076 M40.6316 707.932 Q35.8255 707.996 32.9609 710.637 Q30.0964 713.247 30.0964 717.576 Q30.0964 722.478 32.8654 725.438 Q35.6345 728.366 40.6634 728.812 L40.6316 707.932 Z" fill="#000000" fill-rule="nonzero" fill-opacity="1" /><path clip-path="url(#clip910)" d="M31.4013 669.006 L12.1132 669.006 L12.1132 663.149 L61.6384 663.149 L61.6384 669.006 L56.2912 669.006 Q59.4741 670.852 61.0337 673.685 Q62.5615 676.485 62.5615 680.432 Q62.5615 686.893 57.4052 690.967 Q52.249 695.01 43.8463 695.01 Q35.4436 695.01 30.2873 690.967 Q25.1311 686.893 25.1311 680.432 Q25.1311 676.485 26.6907 673.685 Q28.2185 670.852 31.4013 669.006 M43.8463 688.962 Q50.3075 688.962 53.9996 686.32 Q57.6599 683.647 57.6599 679 Q57.6599 674.353 53.9996 671.679 Q50.3075 669.006 43.8463 669.006 Q37.3851 669.006 33.7248 671.679 Q30.0327 674.353 30.0327 679 Q30.0327 683.647 33.7248 686.32 Q37.3851 688.962 43.8463 688.962 Z" fill="#000000" fill-rule="nonzero" fill-opacity="1" /><path clip-path="url(#clip910)" d="M940.928 12.096 L949.111 12.096 L949.111 72.576 L940.928 72.576 L940.928 12.096 Z" fill="#000000" fill-rule="nonzero" fill-opacity="1" /><path clip-path="url(#clip910)" d="M1002.79 45.1919 L1002.79 72.576 L995.331 72.576 L995.331 45.4349 Q995.331 38.994 992.82 35.7938 Q990.308 32.5936 985.285 32.5936 Q979.249 32.5936 975.765 36.4419 Q972.282 40.2903 972.282 46.9338 L972.282 72.576 L964.788 72.576 L964.788 27.2059 L972.282 27.2059 L972.282 34.2544 Q974.955 30.163 978.561 28.1376 Q982.206 26.1121 986.946 26.1121 Q994.764 26.1121 998.775 30.9732 Q1002.79 35.7938 1002.79 45.1919 Z" fill="#000000" fill-rule="nonzero" fill-opacity="1" /><path clip-path="url(#clip910)" d="M1047.51 34.0924 L1047.51 9.54393 L1054.96 9.54393 L1054.96 72.576 L1047.51 72.576 L1047.51 65.7705 Q1045.16 69.8214 1041.55 71.8063 Q1037.99 73.7508 1032.96 73.7508 Q1024.74 73.7508 1019.56 67.1883 Q1014.41 60.6258 1014.41 49.9314 Q1014.41 39.2371 1019.56 32.6746 Q1024.74 26.1121 1032.96 26.1121 Q1037.99 26.1121 1041.55 28.0971 Q1045.16 30.0415 1047.51 34.0924 M1022.11 49.9314 Q1022.11 58.1548 1025.47 62.8538 Q1028.87 67.5124 1034.79 67.5124 Q1040.7 67.5124 1044.1 62.8538 Q1047.51 58.1548 1047.51 49.9314 Q1047.51 41.7081 1044.1 37.0496 Q1040.7 32.3505 1034.79 32.3505 Q1028.87 32.3505 1025.47 37.0496 Q1022.11 41.7081 1022.11 49.9314 Z" fill="#000000" fill-rule="nonzero" fill-opacity="1" /><path clip-path="url(#clip910)" d="M1070.31 27.2059 L1077.77 27.2059 L1077.77 72.576 L1070.31 72.576 L1070.31 27.2059 M1070.31 9.54393 L1077.77 9.54393 L1077.77 18.9825 L1070.31 18.9825 L1070.31 9.54393 Z" fill="#000000" fill-rule="nonzero" fill-opacity="1" /><path clip-path="url(#clip910)" d="M1088.02 27.2059 L1095.92 27.2059 L1110.09 65.2844 L1124.27 27.2059 L1132.17 27.2059 L1115.16 72.576 L1105.03 72.576 L1088.02 27.2059 Z" fill="#000000" fill-rule="nonzero" fill-opacity="1" /><path clip-path="url(#clip910)" d="M1142.46 27.2059 L1149.91 27.2059 L1149.91 72.576 L1142.46 72.576 L1142.46 27.2059 M1142.46 9.54393 L1149.91 9.54393 L1149.91 18.9825 L1142.46 18.9825 L1142.46 9.54393 Z" fill="#000000" fill-rule="nonzero" fill-opacity="1" /><path clip-path="url(#clip910)" d="M1195.37 34.0924 L1195.37 9.54393 L1202.82 9.54393 L1202.82 72.576 L1195.37 72.576 L1195.37 65.7705 Q1193.02 69.8214 1189.41 71.8063 Q1185.85 73.7508 1180.82 73.7508 Q1172.6 73.7508 1167.41 67.1883 Q1162.27 60.6258 1162.27 49.9314 Q1162.27 39.2371 1167.41 32.6746 Q1172.6 26.1121 1180.82 26.1121 Q1185.85 26.1121 1189.41 28.0971 Q1193.02 30.0415 1195.37 34.0924 M1169.97 49.9314 Q1169.97 58.1548 1173.33 62.8538 Q1176.73 67.5124 1182.65 67.5124 Q1188.56 67.5124 1191.96 62.8538 Q1195.37 58.1548 1195.37 49.9314 Q1195.37 41.7081 1191.96 37.0496 Q1188.56 32.3505 1182.65 32.3505 Q1176.73 32.3505 1173.33 37.0496 Q1169.97 41.7081 1169.97 49.9314 Z" fill="#000000" fill-rule="nonzero" fill-opacity="1" /><path clip-path="url(#clip910)" d="M1217.4 54.671 L1217.4 27.2059 L1224.86 27.2059 L1224.86 54.3874 Q1224.86 60.8284 1227.37 64.0691 Q1229.88 67.2693 1234.9 67.2693 Q1240.94 67.2693 1244.42 63.421 Q1247.95 59.5726 1247.95 52.9291 L1247.95 27.2059 L1255.4 27.2059 L1255.4 72.576 L1247.95 72.576 L1247.95 65.6084 Q1245.23 69.7404 1241.63 71.7658 Q1238.06 73.7508 1233.32 73.7508 Q1225.5 73.7508 1221.45 68.8897 Q1217.4 64.0286 1217.4 54.671 M1236.16 26.1121 L1236.16 26.1121 Z" fill="#000000" fill-rule="nonzero" fill-opacity="1" /><path clip-path="url(#clip910)" d="M1291.37 49.7694 Q1282.34 49.7694 1278.85 51.8354 Q1275.37 53.9013 1275.37 58.8839 Q1275.37 62.8538 1277.96 65.2034 Q1280.6 67.5124 1285.09 67.5124 Q1291.29 67.5124 1295.02 63.1374 Q1298.78 58.7219 1298.78 51.4303 L1298.78 49.7694 L1291.37 49.7694 M1306.24 46.6907 L1306.24 72.576 L1298.78 72.576 L1298.78 65.6895 Q1296.23 69.8214 1292.42 71.8063 Q1288.62 73.7508 1283.11 73.7508 Q1276.14 73.7508 1272.01 69.8619 Q1267.92 65.9325 1267.92 59.3701 Q1267.92 51.7138 1273.02 47.825 Q1278.17 43.9361 1288.33 43.9361 L1298.78 43.9361 L1298.78 43.2069 Q1298.78 38.0623 1295.38 35.2672 Q1292.02 32.4315 1285.9 32.4315 Q1282.01 32.4315 1278.33 33.3632 Q1274.64 34.295 1271.24 36.1584 L1271.24 29.2718 Q1275.33 27.692 1279.18 26.9223 Q1283.03 26.1121 1286.67 26.1121 Q1296.52 26.1121 1301.38 31.2163 Q1306.24 36.3204 1306.24 46.6907 Z" fill="#000000" fill-rule="nonzero" fill-opacity="1" /><path clip-path="url(#clip910)" d="M1321.59 9.54393 L1329.04 9.54393 L1329.04 72.576 L1321.59 72.576 L1321.59 9.54393 Z" fill="#000000" fill-rule="nonzero" fill-opacity="1" /><path clip-path="url(#clip910)" d="M1365.67 27.2059 L1373.56 27.2059 L1387.74 65.2844 L1401.92 27.2059 L1409.82 27.2059 L1392.81 72.576 L1382.68 72.576 L1365.67 27.2059 Z" fill="#000000" fill-rule="nonzero" fill-opacity="1" /><path clip-path="url(#clip910)" d="M1449.03 28.5427 L1449.03 35.5912 Q1445.87 33.9709 1442.47 33.1607 Q1439.07 32.3505 1435.42 32.3505 Q1429.87 32.3505 1427.08 34.0519 Q1424.32 35.7533 1424.32 39.156 Q1424.32 41.7486 1426.31 43.2475 Q1428.29 44.7058 1434.29 46.0426 L1436.84 46.6097 Q1444.78 48.3111 1448.1 51.4303 Q1451.46 54.509 1451.46 60.0587 Q1451.46 66.3781 1446.44 70.0644 Q1441.46 73.7508 1432.71 73.7508 Q1429.06 73.7508 1425.09 73.0216 Q1421.16 72.3329 1416.79 70.9151 L1416.79 63.2184 Q1420.92 65.3654 1424.93 66.4591 Q1428.94 67.5124 1432.87 67.5124 Q1438.14 67.5124 1440.97 65.73 Q1443.81 63.9071 1443.81 60.6258 Q1443.81 57.5877 1441.74 55.9673 Q1439.72 54.3469 1432.79 52.8481 L1430.2 52.2405 Q1423.27 50.7821 1420.19 47.7845 Q1417.11 44.7463 1417.11 39.4801 Q1417.11 33.0797 1421.65 29.5959 Q1426.19 26.1121 1434.53 26.1121 Q1438.66 26.1121 1442.31 26.7198 Q1445.95 27.3274 1449.03 28.5427 Z" fill="#000000" fill-rule="nonzero" fill-opacity="1" /><path clip-path="url(#clip910)" d="M1496.91 65.7705 L1496.91 89.8329 L1489.42 89.8329 L1489.42 27.2059 L1496.91 27.2059 L1496.91 34.0924 Q1499.26 30.0415 1502.83 28.0971 Q1506.43 26.1121 1511.42 26.1121 Q1519.68 26.1121 1524.83 32.6746 Q1530.01 39.2371 1530.01 49.9314 Q1530.01 60.6258 1524.83 67.1883 Q1519.68 73.7508 1511.42 73.7508 Q1506.43 73.7508 1502.83 71.8063 Q1499.26 69.8214 1496.91 65.7705 M1522.27 49.9314 Q1522.27 41.7081 1518.87 37.0496 Q1515.51 32.3505 1509.59 32.3505 Q1503.68 32.3505 1500.28 37.0496 Q1496.91 41.7081 1496.91 49.9314 Q1496.91 58.1548 1500.28 62.8538 Q1503.68 67.5124 1509.59 67.5124 Q1515.51 67.5124 1518.87 62.8538 Q1522.27 58.1548 1522.27 49.9314 Z" fill="#000000" fill-rule="nonzero" fill-opacity="1" /><path clip-path="url(#clip910)" d="M1562.98 49.7694 Q1553.95 49.7694 1550.47 51.8354 Q1546.98 53.9013 1546.98 58.8839 Q1546.98 62.8538 1549.58 65.2034 Q1552.21 67.5124 1556.71 67.5124 Q1562.9 67.5124 1566.63 63.1374 Q1570.4 58.7219 1570.4 51.4303 L1570.4 49.7694 L1562.98 49.7694 M1577.85 46.6907 L1577.85 72.576 L1570.4 72.576 L1570.4 65.6895 Q1567.85 69.8214 1564.04 71.8063 Q1560.23 73.7508 1554.72 73.7508 Q1547.75 73.7508 1543.62 69.8619 Q1539.53 65.9325 1539.53 59.3701 Q1539.53 51.7138 1544.63 47.825 Q1549.78 43.9361 1559.95 43.9361 L1570.4 43.9361 L1570.4 43.2069 Q1570.4 38.0623 1566.99 35.2672 Q1563.63 32.4315 1557.52 32.4315 Q1553.63 32.4315 1549.94 33.3632 Q1546.25 34.295 1542.85 36.1584 L1542.85 29.2718 Q1546.94 27.692 1550.79 26.9223 Q1554.64 26.1121 1558.29 26.1121 Q1568.13 26.1121 1572.99 31.2163 Q1577.85 36.3204 1577.85 46.6907 Z" fill="#000000" fill-rule="nonzero" fill-opacity="1" /><path clip-path="url(#clip910)" d="M1593.2 27.2059 L1600.66 27.2059 L1600.66 72.576 L1593.2 72.576 L1593.2 27.2059 M1593.2 9.54393 L1600.66 9.54393 L1600.66 18.9825 L1593.2 18.9825 L1593.2 9.54393 Z" fill="#000000" fill-rule="nonzero" fill-opacity="1" /><path clip-path="url(#clip910)" d="M1642.54 34.1734 Q1641.29 33.4443 1639.79 33.1202 Q1638.33 32.7556 1636.55 32.7556 Q1630.23 32.7556 1626.83 36.8875 Q1623.46 40.9789 1623.46 48.6757 L1623.46 72.576 L1615.97 72.576 L1615.97 27.2059 L1623.46 27.2059 L1623.46 34.2544 Q1625.81 30.1225 1629.58 28.1376 Q1633.35 26.1121 1638.74 26.1121 Q1639.51 26.1121 1640.44 26.2337 Q1641.37 26.3147 1642.5 26.5172 L1642.54 34.1734 Z" fill="#000000" fill-rule="nonzero" fill-opacity="1" /><path clip-path="url(#clip910)" d="M1641.29 46.5287 L1663.12 46.5287 L1663.12 53.1722 L1641.29 53.1722 L1641.29 46.5287 Z" fill="#000000" fill-rule="nonzero" fill-opacity="1" /><path clip-path="url(#clip910)" d="M1707.56 49.9314 Q1707.56 41.7081 1704.16 37.0496 Q1700.8 32.3505 1694.88 32.3505 Q1688.97 32.3505 1685.56 37.0496 Q1682.2 41.7081 1682.2 49.9314 Q1682.2 58.1548 1685.56 62.8538 Q1688.97 67.5124 1694.88 67.5124 Q1700.8 67.5124 1704.16 62.8538 Q1707.56 58.1548 1707.56 49.9314 M1682.2 34.0924 Q1684.55 30.0415 1688.12 28.0971 Q1691.72 26.1121 1696.7 26.1121 Q1704.97 26.1121 1710.11 32.6746 Q1715.3 39.2371 1715.3 49.9314 Q1715.3 60.6258 1710.11 67.1883 Q1704.97 73.7508 1696.7 73.7508 Q1691.72 73.7508 1688.12 71.8063 Q1684.55 69.8214 1682.2 65.7705 L1682.2 72.576 L1674.71 72.576 L1674.71 9.54393 L1682.2 9.54393 L1682.2 34.0924 Z" fill="#000000" fill-rule="nonzero" fill-opacity="1" /><path clip-path="url(#clip910)" d="M1748.27 49.7694 Q1739.24 49.7694 1735.76 51.8354 Q1732.27 53.9013 1732.27 58.8839 Q1732.27 62.8538 1734.86 65.2034 Q1737.5 67.5124 1741.99 67.5124 Q1748.19 67.5124 1751.92 63.1374 Q1755.69 58.7219 1755.69 51.4303 L1755.69 49.7694 L1748.27 49.7694 M1763.14 46.6907 L1763.14 72.576 L1755.69 72.576 L1755.69 65.6895 Q1753.13 69.8214 1749.33 71.8063 Q1745.52 73.7508 1740.01 73.7508 Q1733.04 73.7508 1728.91 69.8619 Q1724.82 65.9325 1724.82 59.3701 Q1724.82 51.7138 1729.92 47.825 Q1735.07 43.9361 1745.23 43.9361 L1755.69 43.9361 L1755.69 43.2069 Q1755.69 38.0623 1752.28 35.2672 Q1748.92 32.4315 1742.8 32.4315 Q1738.92 32.4315 1735.23 33.3632 Q1731.54 34.295 1728.14 36.1584 L1728.14 29.2718 Q1732.23 27.692 1736.08 26.9223 Q1739.93 26.1121 1743.57 26.1121 Q1753.42 26.1121 1758.28 31.2163 Q1763.14 36.3204 1763.14 46.6907 Z" fill="#000000" fill-rule="nonzero" fill-opacity="1" /><path clip-path="url(#clip910)" d="M1807.42 28.5427 L1807.42 35.5912 Q1804.26 33.9709 1800.85 33.1607 Q1797.45 32.3505 1793.81 32.3505 Q1788.26 32.3505 1785.46 34.0519 Q1782.71 35.7533 1782.71 39.156 Q1782.71 41.7486 1784.69 43.2475 Q1786.68 44.7058 1792.67 46.0426 L1795.22 46.6097 Q1803.16 48.3111 1806.48 51.4303 Q1809.85 54.509 1809.85 60.0587 Q1809.85 66.3781 1804.82 70.0644 Q1799.84 73.7508 1791.09 73.7508 Q1787.45 73.7508 1783.48 73.0216 Q1779.55 72.3329 1775.17 70.9151 L1775.17 63.2184 Q1779.3 65.3654 1783.31 66.4591 Q1787.32 67.5124 1791.25 67.5124 Q1796.52 67.5124 1799.35 65.73 Q1802.19 63.9071 1802.19 60.6258 Q1802.19 57.5877 1800.12 55.9673 Q1798.1 54.3469 1791.17 52.8481 L1788.58 52.2405 Q1781.65 50.7821 1778.57 47.7845 Q1775.5 44.7463 1775.5 39.4801 Q1775.5 33.0797 1780.03 29.5959 Q1784.57 26.1121 1792.91 26.1121 Q1797.05 26.1121 1800.69 26.7198 Q1804.34 27.3274 1807.42 28.5427 Z" fill="#000000" fill-rule="nonzero" fill-opacity="1" /><path clip-path="url(#clip910)" d="M1860.52 48.0275 L1860.52 51.6733 L1826.25 51.6733 Q1826.74 59.3701 1830.87 63.421 Q1835.04 67.4314 1842.46 67.4314 Q1846.75 67.4314 1850.76 66.3781 Q1854.81 65.3249 1858.78 63.2184 L1858.78 70.267 Q1854.77 71.9684 1850.56 72.8596 Q1846.35 73.7508 1842.01 73.7508 Q1831.15 73.7508 1824.79 67.4314 Q1818.48 61.1119 1818.48 50.3365 Q1818.48 39.1965 1824.47 32.6746 Q1830.51 26.1121 1840.71 26.1121 Q1849.87 26.1121 1855.18 32.0264 Q1860.52 37.9003 1860.52 48.0275 M1853.07 45.84 Q1852.99 39.7232 1849.63 36.0774 Q1846.3 32.4315 1840.8 32.4315 Q1834.56 32.4315 1830.79 35.9558 Q1827.06 39.4801 1826.5 45.8805 L1853.07 45.84 Z" fill="#000000" fill-rule="nonzero" fill-opacity="1" /><path clip-path="url(#clip910)" d="M1902.61 34.0924 L1902.61 9.54393 L1910.07 9.54393 L1910.07 72.576 L1902.61 72.576 L1902.61 65.7705 Q1900.26 69.8214 1896.66 71.8063 Q1893.09 73.7508 1888.07 73.7508 Q1879.85 73.7508 1874.66 67.1883 Q1869.52 60.6258 1869.52 49.9314 Q1869.52 39.2371 1874.66 32.6746 Q1879.85 26.1121 1888.07 26.1121 Q1893.09 26.1121 1896.66 28.0971 Q1900.26 30.0415 1902.61 34.0924 M1877.21 49.9314 Q1877.21 58.1548 1880.58 62.8538 Q1883.98 67.5124 1889.89 67.5124 Q1895.81 67.5124 1899.21 62.8538 Q1902.61 58.1548 1902.61 49.9314 Q1902.61 41.7081 1899.21 37.0496 Q1895.81 32.3505 1889.89 32.3505 Q1883.98 32.3505 1880.58 37.0496 Q1877.21 41.7081 1877.21 49.9314 Z" fill="#000000" fill-rule="nonzero" fill-opacity="1" /><polyline clip-path="url(#clip911)" style="stroke:#ff0000; stroke-linecap:round; stroke-linejoin:round; stroke-width:8; stroke-opacity:1; fill:none" stroke-dasharray="32, 20" points="279.026,1646.95 307.688,1633.62 336.35,1618.51 365.011,1600.68 393.673,1579.21 422.335,1553.06 450.997,1521.13 479.658,1482.17 508.32,1434.88 536.982,1377.94 565.644,1310.16 594.306,1230.63 622.967,1139.02 651.629,1035.87 680.291,922.815 708.953,802.842 737.614,680.186 766.276,560.249 794.938,448.924 823.6,351.642 852.261,273.186 880.923,216.67 909.585,183.449 938.247,173.254 966.909,184.303 995.57,213.839 1024.23,258.578 1052.89,315.276 1081.56,380.752 1110.22,452.007 1138.88,526.622 1167.54,602.596 1196.2,678.298 1224.86,752.465 1253.53,824.19 1282.19,892.816 1310.85,957.934 1339.51,1019.28 1368.17,1076.71 1396.84,1130.22 1425.5,1179.87 1454.16,1225.78 1482.82,1268.11 1511.48,1307.04 1540.14,1342.73 1568.81,1375.41 1597.47,1405.28 1626.13,1432.55 1654.79,1457.41 1683.45,1480.05 1712.11,1500.63 1740.78,1519.33 1769.44,1536.31 1798.1,1551.73 1826.76,1565.71 1855.42,1578.39 1884.09,1589.88 1912.75,1600.27 1941.41,1609.68 1970.07,1618.2 1998.73,1625.9 2027.39,1632.87 2056.06,1639.18 2084.72,1644.88 2113.38,1650.03 2142.04,1654.68 2170.7,1658.88 2199.36,1662.68 2228.03,1666.11 2256.69,1669.21 2285.35,1672.01 2314.01,1674.54 2342.67,1676.82 2371.34,1678.88 2400,1680.74 2428.66,1682.41 2457.32,1683.93 2485.98,1685.3 2514.64,1686.53 2543.31,1687.65 2571.97,1688.65 "/>
<polyline clip-path="url(#clip911)" style="stroke:#8b0000; stroke-linecap:round; stroke-linejoin:round; stroke-width:8; stroke-opacity:1; fill:none" points="279.026,1646.95 307.688,1633.77 336.35,1619.61 365.011,1604.32 393.673,1587.75 422.335,1569.74 450.997,1550.16 479.658,1528.85 508.32,1505.69 536.982,1480.53 565.644,1453.29 594.306,1423.88 622.967,1392.27 651.629,1358.45 680.291,1322.5 708.953,1284.54 737.614,1244.78 766.276,1203.49 794.938,1161.06 823.6,1117.94 852.261,1074.66 880.923,1031.85 909.585,990.147 938.247,950.248 966.909,912.868 995.57,878.699 1024.23,848.366 1052.89,822.423 1081.56,801.339 1110.22,785.441 1138.88,774.929 1167.54,769.88 1196.2,770.26 1224.86,775.87 1253.53,786.363 1282.19,801.361 1310.85,820.449 1339.51,843.173 1368.17,868.976 1396.84,897.296 1425.5,927.615 1454.16,959.462 1482.82,992.403 1511.48,1025.99 1540.14,1059.85 1568.81,1093.65 1597.47,1127.09 1626.13,1159.94 1654.79,1191.97 1683.45,1223.04 1712.11,1253.04 1740.78,1281.88 1769.44,1309.48 1798.1,1335.8 1826.76,1360.78 1855.42,1384.41 1884.09,1406.73 1912.75,1427.77 1941.41,1447.55 1970.07,1466.12 1998.73,1483.51 2027.39,1499.75 2056.06,1514.89 2084.72,1529 2113.38,1542.12 2142.04,1554.33 2170.7,1565.67 2199.36,1576.18 2228.03,1585.92 2256.69,1594.92 2285.35,1603.24 2314.01,1610.93 2342.67,1618.03 2371.34,1624.58 2400,1630.63 2428.66,1636.2 2457.32,1641.32 2485.98,1646.04 2514.64,1650.38 2543.31,1654.36 2571.97,1658.03 "/>
<path clip-path="url(#clip910)" d="M1869.1 336.856 L2559.74 336.856 L2559.74 181.336 L1869.1 181.336  Z" fill="#ffffff" fill-rule="evenodd" fill-opacity="1"/>
<polyline clip-path="url(#clip910)" style="stroke:#000000; stroke-linecap:round; stroke-linejoin:round; stroke-width:4; stroke-opacity:1; fill:none" points="1869.1,336.856 2559.74,336.856 2559.74,181.336 1869.1,181.336 1869.1,336.856 "/>
<polyline clip-path="url(#clip910)" style="stroke:#ff0000; stroke-linecap:round; stroke-linejoin:round; stroke-width:8; stroke-opacity:1; fill:none" stroke-dasharray="32, 20" points="1896.1,233.176 2058.14,233.176 "/>
<path clip-path="url(#clip910)" d="M2085.14 215.896 L2089.82 215.896 L2089.82 250.456 L2085.14 250.456 L2085.14 215.896 Z" fill="#000000" fill-rule="nonzero" fill-opacity="1" /><path clip-path="url(#clip910)" d="M2124.24 214.484 Q2121.14 219.808 2119.63 225.017 Q2118.13 230.225 2118.13 235.572 Q2118.13 240.919 2119.63 246.174 Q2121.16 251.405 2124.24 256.706 L2120.54 256.706 Q2117.06 251.266 2115.33 246.012 Q2113.61 240.757 2113.61 235.572 Q2113.61 230.41 2115.33 225.179 Q2117.04 219.947 2120.54 214.484 L2124.24 214.484 Z" fill="#000000" fill-rule="nonzero" fill-opacity="1" /><path clip-path="url(#clip910)" d="M2132.5 224.531 L2136.76 224.531 L2136.76 250.456 L2132.5 250.456 L2132.5 224.531 M2132.5 214.438 L2136.76 214.438 L2136.76 219.831 L2132.5 219.831 L2132.5 214.438 Z" fill="#000000" fill-rule="nonzero" fill-opacity="1" /><path clip-path="url(#clip910)" d="M2167.23 234.808 L2167.23 250.456 L2162.97 250.456 L2162.97 234.947 Q2162.97 231.267 2161.53 229.438 Q2160.1 227.609 2157.23 227.609 Q2153.78 227.609 2151.79 229.808 Q2149.8 232.007 2149.8 235.804 L2149.8 250.456 L2145.51 250.456 L2145.51 224.531 L2149.8 224.531 L2149.8 228.558 Q2151.32 226.22 2153.38 225.063 Q2155.47 223.906 2158.17 223.906 Q2162.64 223.906 2164.93 226.683 Q2167.23 229.438 2167.23 234.808 Z" fill="#000000" fill-rule="nonzero" fill-opacity="1" /><path clip-path="url(#clip910)" d="M2192.78 228.466 L2192.78 214.438 L2197.04 214.438 L2197.04 250.456 L2192.78 250.456 L2192.78 246.567 Q2191.44 248.882 2189.38 250.016 Q2187.34 251.128 2184.47 251.128 Q2179.77 251.128 2176.81 247.378 Q2173.87 243.628 2173.87 237.517 Q2173.87 231.405 2176.81 227.655 Q2179.77 223.906 2184.47 223.906 Q2187.34 223.906 2189.38 225.04 Q2191.44 226.151 2192.78 228.466 M2178.27 237.517 Q2178.27 242.216 2180.19 244.901 Q2182.13 247.563 2185.51 247.563 Q2188.89 247.563 2190.84 244.901 Q2192.78 242.216 2192.78 237.517 Q2192.78 232.817 2190.84 230.155 Q2188.89 227.47 2185.51 227.47 Q2182.13 227.47 2180.19 230.155 Q2178.27 232.817 2178.27 237.517 Z" fill="#000000" fill-rule="nonzero" fill-opacity="1" /><path clip-path="url(#clip910)" d="M2205.81 224.531 L2210.07 224.531 L2210.07 250.456 L2205.81 250.456 L2205.81 224.531 M2205.81 214.438 L2210.07 214.438 L2210.07 219.831 L2205.81 219.831 L2205.81 214.438 Z" fill="#000000" fill-rule="nonzero" fill-opacity="1" /><path clip-path="url(#clip910)" d="M2215.93 224.531 L2220.44 224.531 L2228.54 246.29 L2236.65 224.531 L2241.16 224.531 L2231.44 250.456 L2225.65 250.456 L2215.93 224.531 Z" fill="#000000" fill-rule="nonzero" fill-opacity="1" /><path clip-path="url(#clip910)" d="M2247.04 224.531 L2251.3 224.531 L2251.3 250.456 L2247.04 250.456 L2247.04 224.531 M2247.04 214.438 L2251.3 214.438 L2251.3 219.831 L2247.04 219.831 L2247.04 214.438 Z" fill="#000000" fill-rule="nonzero" fill-opacity="1" /><path clip-path="url(#clip910)" d="M2277.27 228.466 L2277.27 214.438 L2281.53 214.438 L2281.53 250.456 L2277.27 250.456 L2277.27 246.567 Q2275.93 248.882 2273.87 250.016 Q2271.83 251.128 2268.96 251.128 Q2264.26 251.128 2261.3 247.378 Q2258.36 243.628 2258.36 237.517 Q2258.36 231.405 2261.3 227.655 Q2264.26 223.906 2268.96 223.906 Q2271.83 223.906 2273.87 225.04 Q2275.93 226.151 2277.27 228.466 M2262.76 237.517 Q2262.76 242.216 2264.68 244.901 Q2266.62 247.563 2270 247.563 Q2273.38 247.563 2275.33 244.901 Q2277.27 242.216 2277.27 237.517 Q2277.27 232.817 2275.33 230.155 Q2273.38 227.47 2270 227.47 Q2266.62 227.47 2264.68 230.155 Q2262.76 232.817 2262.76 237.517 Z" fill="#000000" fill-rule="nonzero" fill-opacity="1" /><path clip-path="url(#clip910)" d="M2289.86 240.225 L2289.86 224.531 L2294.12 224.531 L2294.12 240.063 Q2294.12 243.743 2295.56 245.595 Q2296.99 247.424 2299.86 247.424 Q2303.31 247.424 2305.3 245.225 Q2307.32 243.026 2307.32 239.229 L2307.32 224.531 L2311.58 224.531 L2311.58 250.456 L2307.32 250.456 L2307.32 246.475 Q2305.77 248.836 2303.71 249.993 Q2301.67 251.128 2298.96 251.128 Q2294.49 251.128 2292.18 248.35 Q2289.86 245.572 2289.86 240.225 M2300.58 223.906 L2300.58 223.906 Z" fill="#000000" fill-rule="nonzero" fill-opacity="1" /><path clip-path="url(#clip910)" d="M2332.13 237.424 Q2326.97 237.424 2324.98 238.604 Q2322.99 239.785 2322.99 242.632 Q2322.99 244.901 2324.47 246.243 Q2325.97 247.563 2328.54 247.563 Q2332.09 247.563 2334.22 245.063 Q2336.37 242.54 2336.37 238.373 L2336.37 237.424 L2332.13 237.424 M2340.63 235.665 L2340.63 250.456 L2336.37 250.456 L2336.37 246.521 Q2334.91 248.882 2332.73 250.016 Q2330.56 251.128 2327.41 251.128 Q2323.43 251.128 2321.07 248.905 Q2318.73 246.66 2318.73 242.91 Q2318.73 238.535 2321.65 236.313 Q2324.59 234.091 2330.4 234.091 L2336.37 234.091 L2336.37 233.674 Q2336.37 230.734 2334.42 229.137 Q2332.5 227.517 2329.01 227.517 Q2326.78 227.517 2324.68 228.049 Q2322.57 228.581 2320.63 229.646 L2320.63 225.711 Q2322.97 224.808 2325.16 224.368 Q2327.36 223.906 2329.45 223.906 Q2335.07 223.906 2337.85 226.822 Q2340.63 229.739 2340.63 235.665 Z" fill="#000000" fill-rule="nonzero" fill-opacity="1" /><path clip-path="url(#clip910)" d="M2349.4 214.438 L2353.66 214.438 L2353.66 250.456 L2349.4 250.456 L2349.4 214.438 Z" fill="#000000" fill-rule="nonzero" fill-opacity="1" /><path clip-path="url(#clip910)" d="M2360.42 235.572 L2372.9 235.572 L2372.9 239.368 L2360.42 239.368 L2360.42 235.572 Z" fill="#000000" fill-rule="nonzero" fill-opacity="1" /><path clip-path="url(#clip910)" d="M2398.29 237.517 Q2398.29 232.817 2396.34 230.155 Q2394.42 227.47 2391.04 227.47 Q2387.66 227.47 2385.72 230.155 Q2383.8 232.817 2383.8 237.517 Q2383.8 242.216 2385.72 244.901 Q2387.66 247.563 2391.04 247.563 Q2394.42 247.563 2396.34 244.901 Q2398.29 242.216 2398.29 237.517 M2383.8 228.466 Q2385.14 226.151 2387.18 225.04 Q2389.24 223.906 2392.09 223.906 Q2396.81 223.906 2399.75 227.655 Q2402.71 231.405 2402.71 237.517 Q2402.71 243.628 2399.75 247.378 Q2396.81 251.128 2392.09 251.128 Q2389.24 251.128 2387.18 250.016 Q2385.14 248.882 2383.8 246.567 L2383.8 250.456 L2379.52 250.456 L2379.52 214.438 L2383.8 214.438 L2383.8 228.466 Z" fill="#000000" fill-rule="nonzero" fill-opacity="1" /><path clip-path="url(#clip910)" d="M2421.55 237.424 Q2416.39 237.424 2414.4 238.604 Q2412.41 239.785 2412.41 242.632 Q2412.41 244.901 2413.89 246.243 Q2415.4 247.563 2417.96 247.563 Q2421.51 247.563 2423.64 245.063 Q2425.79 242.54 2425.79 238.373 L2425.79 237.424 L2421.55 237.424 M2430.05 235.665 L2430.05 250.456 L2425.79 250.456 L2425.79 246.521 Q2424.33 248.882 2422.15 250.016 Q2419.98 251.128 2416.83 251.128 Q2412.85 251.128 2410.49 248.905 Q2408.15 246.66 2408.15 242.91 Q2408.15 238.535 2411.07 236.313 Q2414.01 234.091 2419.82 234.091 L2425.79 234.091 L2425.79 233.674 Q2425.79 230.734 2423.84 229.137 Q2421.92 227.517 2418.43 227.517 Q2416.21 227.517 2414.1 228.049 Q2411.99 228.581 2410.05 229.646 L2410.05 225.711 Q2412.39 224.808 2414.59 224.368 Q2416.78 223.906 2418.87 223.906 Q2424.49 223.906 2427.27 226.822 Q2430.05 229.739 2430.05 235.665 Z" fill="#000000" fill-rule="nonzero" fill-opacity="1" /><path clip-path="url(#clip910)" d="M2455.35 225.294 L2455.35 229.322 Q2453.54 228.396 2451.6 227.933 Q2449.65 227.47 2447.57 227.47 Q2444.4 227.47 2442.8 228.443 Q2441.23 229.415 2441.23 231.359 Q2441.23 232.841 2442.36 233.697 Q2443.5 234.53 2446.92 235.294 L2448.38 235.618 Q2452.92 236.591 2454.82 238.373 Q2456.74 240.132 2456.74 243.304 Q2456.74 246.915 2453.87 249.021 Q2451.02 251.128 2446.02 251.128 Q2443.94 251.128 2441.67 250.711 Q2439.42 250.317 2436.92 249.507 L2436.92 245.109 Q2439.28 246.336 2441.58 246.961 Q2443.87 247.563 2446.11 247.563 Q2449.12 247.563 2450.74 246.544 Q2452.36 245.503 2452.36 243.628 Q2452.36 241.892 2451.18 240.966 Q2450.02 240.04 2446.07 239.183 L2444.59 238.836 Q2440.63 238.003 2438.87 236.29 Q2437.11 234.554 2437.11 231.544 Q2437.11 227.887 2439.7 225.896 Q2442.29 223.906 2447.06 223.906 Q2449.42 223.906 2451.51 224.253 Q2453.59 224.6 2455.35 225.294 Z" fill="#000000" fill-rule="nonzero" fill-opacity="1" /><path clip-path="url(#clip910)" d="M2485.7 236.429 L2485.7 238.512 L2466.11 238.512 Q2466.39 242.91 2468.75 245.225 Q2471.14 247.516 2475.37 247.516 Q2477.83 247.516 2480.12 246.915 Q2482.43 246.313 2484.7 245.109 L2484.7 249.137 Q2482.41 250.109 2480 250.618 Q2477.59 251.128 2475.12 251.128 Q2468.91 251.128 2465.28 247.516 Q2461.67 243.905 2461.67 237.748 Q2461.67 231.382 2465.09 227.655 Q2468.54 223.906 2474.38 223.906 Q2479.61 223.906 2482.64 227.285 Q2485.7 230.642 2485.7 236.429 M2481.44 235.179 Q2481.39 231.683 2479.47 229.6 Q2477.57 227.517 2474.42 227.517 Q2470.86 227.517 2468.71 229.53 Q2466.58 231.544 2466.25 235.202 L2481.44 235.179 Z" fill="#000000" fill-rule="nonzero" fill-opacity="1" /><path clip-path="url(#clip910)" d="M2509.75 228.466 L2509.75 214.438 L2514.01 214.438 L2514.01 250.456 L2509.75 250.456 L2509.75 246.567 Q2508.4 248.882 2506.34 250.016 Q2504.31 251.128 2501.44 251.128 Q2496.74 251.128 2493.77 247.378 Q2490.83 243.628 2490.83 237.517 Q2490.83 231.405 2493.77 227.655 Q2496.74 223.906 2501.44 223.906 Q2504.31 223.906 2506.34 225.04 Q2508.4 226.151 2509.75 228.466 M2495.23 237.517 Q2495.23 242.216 2497.15 244.901 Q2499.1 247.563 2502.48 247.563 Q2505.86 247.563 2507.8 244.901 Q2509.75 242.216 2509.75 237.517 Q2509.75 232.817 2507.8 230.155 Q2505.86 227.47 2502.48 227.47 Q2499.1 227.47 2497.15 230.155 Q2495.23 232.817 2495.23 237.517 Z" fill="#000000" fill-rule="nonzero" fill-opacity="1" /><path clip-path="url(#clip910)" d="M2522.11 214.484 L2525.81 214.484 Q2529.28 219.947 2531 225.179 Q2532.73 230.41 2532.73 235.572 Q2532.73 240.757 2531 246.012 Q2529.28 251.266 2525.81 256.706 L2522.11 256.706 Q2525.19 251.405 2526.69 246.174 Q2528.22 240.919 2528.22 235.572 Q2528.22 230.225 2526.69 225.017 Q2525.19 219.808 2522.11 214.484 Z" fill="#000000" fill-rule="nonzero" fill-opacity="1" /><polyline clip-path="url(#clip910)" style="stroke:#8b0000; stroke-linecap:round; stroke-linejoin:round; stroke-width:8; stroke-opacity:1; fill:none" points="1896.1,285.016 2058.14,285.016 "/>
<path clip-path="url(#clip910)" d="M2085.14 267.736 L2089.82 267.736 L2089.82 302.296 L2085.14 302.296 L2085.14 267.736 Z" fill="#000000" fill-rule="nonzero" fill-opacity="1" /><path clip-path="url(#clip910)" d="M2124.24 266.324 Q2121.14 271.648 2119.63 276.857 Q2118.13 282.065 2118.13 287.412 Q2118.13 292.759 2119.63 298.014 Q2121.16 303.245 2124.24 308.546 L2120.54 308.546 Q2117.06 303.106 2115.33 297.852 Q2113.61 292.597 2113.61 287.412 Q2113.61 282.25 2115.33 277.019 Q2117.04 271.787 2120.54 266.324 L2124.24 266.324 Z" fill="#000000" fill-rule="nonzero" fill-opacity="1" /><path clip-path="url(#clip910)" d="M2136.62 298.407 L2136.62 312.157 L2132.34 312.157 L2132.34 276.371 L2136.62 276.371 L2136.62 280.306 Q2137.97 277.991 2140 276.88 Q2142.06 275.746 2144.91 275.746 Q2149.63 275.746 2152.57 279.495 Q2155.54 283.245 2155.54 289.357 Q2155.54 295.468 2152.57 299.218 Q2149.63 302.968 2144.91 302.968 Q2142.06 302.968 2140 301.856 Q2137.97 300.722 2136.62 298.407 M2151.11 289.357 Q2151.11 284.657 2149.17 281.995 Q2147.25 279.31 2143.87 279.31 Q2140.49 279.31 2138.55 281.995 Q2136.62 284.657 2136.62 289.357 Q2136.62 294.056 2138.55 296.741 Q2140.49 299.403 2143.87 299.403 Q2147.25 299.403 2149.17 296.741 Q2151.11 294.056 2151.11 289.357 Z" fill="#000000" fill-rule="nonzero" fill-opacity="1" /><path clip-path="url(#clip910)" d="M2174.38 289.264 Q2169.22 289.264 2167.23 290.444 Q2165.23 291.625 2165.23 294.472 Q2165.23 296.741 2166.72 298.083 Q2168.22 299.403 2170.79 299.403 Q2174.33 299.403 2176.46 296.903 Q2178.61 294.38 2178.61 290.213 L2178.61 289.264 L2174.38 289.264 M2182.87 287.505 L2182.87 302.296 L2178.61 302.296 L2178.61 298.361 Q2177.16 300.722 2174.98 301.856 Q2172.8 302.968 2169.66 302.968 Q2165.67 302.968 2163.31 300.745 Q2160.98 298.5 2160.98 294.75 Q2160.98 290.375 2163.89 288.153 Q2166.83 285.931 2172.64 285.931 L2178.61 285.931 L2178.61 285.514 Q2178.61 282.574 2176.67 280.977 Q2174.75 279.357 2171.25 279.357 Q2169.03 279.357 2166.92 279.889 Q2164.82 280.421 2162.87 281.486 L2162.87 277.551 Q2165.21 276.648 2167.41 276.208 Q2169.61 275.746 2171.69 275.746 Q2177.32 275.746 2180.1 278.662 Q2182.87 281.579 2182.87 287.505 Z" fill="#000000" fill-rule="nonzero" fill-opacity="1" /><path clip-path="url(#clip910)" d="M2191.65 276.371 L2195.91 276.371 L2195.91 302.296 L2191.65 302.296 L2191.65 276.371 M2191.65 266.278 L2195.91 266.278 L2195.91 271.671 L2191.65 271.671 L2191.65 266.278 Z" fill="#000000" fill-rule="nonzero" fill-opacity="1" /><path clip-path="url(#clip910)" d="M2219.84 280.352 Q2219.12 279.935 2218.27 279.75 Q2217.43 279.542 2216.42 279.542 Q2212.8 279.542 2210.86 281.903 Q2208.94 284.241 2208.94 288.639 L2208.94 302.296 L2204.66 302.296 L2204.66 276.371 L2208.94 276.371 L2208.94 280.398 Q2210.28 278.037 2212.43 276.903 Q2214.59 275.746 2217.67 275.746 Q2218.1 275.746 2218.64 275.815 Q2219.17 275.861 2219.82 275.977 L2219.84 280.352 Z" fill="#000000" fill-rule="nonzero" fill-opacity="1" /><path clip-path="url(#clip910)" d="M2219.12 287.412 L2231.6 287.412 L2231.6 291.208 L2219.12 291.208 L2219.12 287.412 Z" fill="#000000" fill-rule="nonzero" fill-opacity="1" /><path clip-path="url(#clip910)" d="M2256.99 289.357 Q2256.99 284.657 2255.05 281.995 Q2253.13 279.31 2249.75 279.31 Q2246.37 279.31 2244.42 281.995 Q2242.5 284.657 2242.5 289.357 Q2242.5 294.056 2244.42 296.741 Q2246.37 299.403 2249.75 299.403 Q2253.13 299.403 2255.05 296.741 Q2256.99 294.056 2256.99 289.357 M2242.5 280.306 Q2243.85 277.991 2245.88 276.88 Q2247.94 275.746 2250.79 275.746 Q2255.51 275.746 2258.45 279.495 Q2261.41 283.245 2261.41 289.357 Q2261.41 295.468 2258.45 299.218 Q2255.51 302.968 2250.79 302.968 Q2247.94 302.968 2245.88 301.856 Q2243.85 300.722 2242.5 298.407 L2242.5 302.296 L2238.22 302.296 L2238.22 266.278 L2242.5 266.278 L2242.5 280.306 Z" fill="#000000" fill-rule="nonzero" fill-opacity="1" /><path clip-path="url(#clip910)" d="M2280.26 289.264 Q2275.1 289.264 2273.1 290.444 Q2271.11 291.625 2271.11 294.472 Q2271.11 296.741 2272.6 298.083 Q2274.1 299.403 2276.67 299.403 Q2280.21 299.403 2282.34 296.903 Q2284.49 294.38 2284.49 290.213 L2284.49 289.264 L2280.26 289.264 M2288.75 287.505 L2288.75 302.296 L2284.49 302.296 L2284.49 298.361 Q2283.04 300.722 2280.86 301.856 Q2278.68 302.968 2275.54 302.968 Q2271.55 302.968 2269.19 300.745 Q2266.85 298.5 2266.85 294.75 Q2266.85 290.375 2269.77 288.153 Q2272.71 285.931 2278.52 285.931 L2284.49 285.931 L2284.49 285.514 Q2284.49 282.574 2282.55 280.977 Q2280.63 279.357 2277.13 279.357 Q2274.91 279.357 2272.8 279.889 Q2270.7 280.421 2268.75 281.486 L2268.75 277.551 Q2271.09 276.648 2273.29 276.208 Q2275.49 275.746 2277.57 275.746 Q2283.2 275.746 2285.97 278.662 Q2288.75 281.579 2288.75 287.505 Z" fill="#000000" fill-rule="nonzero" fill-opacity="1" /><path clip-path="url(#clip910)" d="M2314.05 277.134 L2314.05 281.162 Q2312.25 280.236 2310.3 279.773 Q2308.36 279.31 2306.28 279.31 Q2303.1 279.31 2301.51 280.283 Q2299.93 281.255 2299.93 283.199 Q2299.93 284.681 2301.07 285.537 Q2302.2 286.37 2305.63 287.134 L2307.09 287.458 Q2311.62 288.431 2313.52 290.213 Q2315.44 291.972 2315.44 295.144 Q2315.44 298.755 2312.57 300.861 Q2309.72 302.968 2304.72 302.968 Q2302.64 302.968 2300.37 302.551 Q2298.13 302.157 2295.63 301.347 L2295.63 296.949 Q2297.99 298.176 2300.28 298.801 Q2302.57 299.403 2304.82 299.403 Q2307.83 299.403 2309.45 298.384 Q2311.07 297.343 2311.07 295.468 Q2311.07 293.732 2309.89 292.806 Q2308.73 291.88 2304.77 291.023 L2303.29 290.676 Q2299.33 289.843 2297.57 288.13 Q2295.81 286.394 2295.81 283.384 Q2295.81 279.727 2298.41 277.736 Q2301 275.746 2305.77 275.746 Q2308.13 275.746 2310.21 276.093 Q2312.29 276.44 2314.05 277.134 Z" fill="#000000" fill-rule="nonzero" fill-opacity="1" /><path clip-path="url(#clip910)" d="M2344.4 288.269 L2344.4 290.352 L2324.82 290.352 Q2325.1 294.75 2327.46 297.065 Q2329.84 299.356 2334.08 299.356 Q2336.53 299.356 2338.82 298.755 Q2341.14 298.153 2343.41 296.949 L2343.41 300.977 Q2341.11 301.949 2338.71 302.458 Q2336.3 302.968 2333.82 302.968 Q2327.62 302.968 2323.98 299.356 Q2320.37 295.745 2320.37 289.588 Q2320.37 283.222 2323.8 279.495 Q2327.25 275.746 2333.08 275.746 Q2338.31 275.746 2341.35 279.125 Q2344.4 282.482 2344.4 288.269 M2340.14 287.019 Q2340.1 283.523 2338.17 281.44 Q2336.28 279.357 2333.13 279.357 Q2329.56 279.357 2327.41 281.37 Q2325.28 283.384 2324.96 287.042 L2340.14 287.019 Z" fill="#000000" fill-rule="nonzero" fill-opacity="1" /><path clip-path="url(#clip910)" d="M2368.45 280.306 L2368.45 266.278 L2372.71 266.278 L2372.71 302.296 L2368.45 302.296 L2368.45 298.407 Q2367.11 300.722 2365.05 301.856 Q2363.01 302.968 2360.14 302.968 Q2355.44 302.968 2352.48 299.218 Q2349.54 295.468 2349.54 289.357 Q2349.54 283.245 2352.48 279.495 Q2355.44 275.746 2360.14 275.746 Q2363.01 275.746 2365.05 276.88 Q2367.11 277.991 2368.45 280.306 M2353.94 289.357 Q2353.94 294.056 2355.86 296.741 Q2357.8 299.403 2361.18 299.403 Q2364.56 299.403 2366.51 296.741 Q2368.45 294.056 2368.45 289.357 Q2368.45 284.657 2366.51 281.995 Q2364.56 279.31 2361.18 279.31 Q2357.8 279.31 2355.86 281.995 Q2353.94 284.657 2353.94 289.357 Z" fill="#000000" fill-rule="nonzero" fill-opacity="1" /><path clip-path="url(#clip910)" d="M2380.81 266.324 L2384.52 266.324 Q2387.99 271.787 2389.7 277.019 Q2391.44 282.25 2391.44 287.412 Q2391.44 292.597 2389.7 297.852 Q2387.99 303.106 2384.52 308.546 L2380.81 308.546 Q2383.89 303.245 2385.4 298.014 Q2386.92 292.759 2386.92 287.412 Q2386.92 282.065 2385.4 276.857 Q2383.89 271.648 2380.81 266.324 Z" fill="#000000" fill-rule="nonzero" fill-opacity="1" /></svg>
