<?xml version="1.0" encoding="utf-8"?>
<svg xmlns="http://www.w3.org/2000/svg" xmlns:xlink="http://www.w3.org/1999/xlink" width="672" height="480" viewBox="0 0 2688 1920">
<defs>
  <clipPath id="clip100">
    <rect x="0" y="0" width="2688" height="1920"/>
  </clipPath>
</defs>
<path clip-path="url(#clip100)" d="M0 1920 L2688 1920 L2688 -4.26326e-14 L0 -4.26326e-14  Z" fill="#ffffff" fill-rule="evenodd" fill-opacity="1"/>
<defs>
  <clipPath id="clip101">
    <rect x="238" y="127" width="2403" height="1607"/>
  </clipPath>
</defs>
<path clip-path="url(#clip100)" d="M238.664 1734.12 L2640.76 1734.12 L2640.76 127.792 L238.664 127.792  Z" fill="#ffffff" fill-rule="evenodd" fill-opacity="1"/>
<polyline clip-path="url(#clip101)" style="stroke:#000000; stroke-linecap:round; stroke-linejoin:round; stroke-width:2; stroke-opacity:0.1; fill:none" points="306.647,1734.12 306.647,127.792 "/>
<polyline clip-path="url(#clip101)" style="stroke:#000000; stroke-linecap:round; stroke-linejoin:round; stroke-width:2; stroke-opacity:0.1; fill:none" points="873.179,1734.12 873.179,127.792 "/>
<polyline clip-path="url(#clip101)" style="stroke:#000000; stroke-linecap:round; stroke-linejoin:round; stroke-width:2; stroke-opacity:0.1; fill:none" points="1439.71,1734.12 1439.71,127.792 "/>
<polyline clip-path="url(#clip101)" style="stroke:#000000; stroke-linecap:round; stroke-linejoin:round; stroke-width:2; stroke-opacity:0.1; fill:none" points="2006.24,1734.12 2006.24,127.792 "/>
<polyline clip-path="url(#clip101)" style="stroke:#000000; stroke-linecap:round; stroke-linejoin:round; stroke-width:2; stroke-opacity:0.1; fill:none" points="2572.77,1734.12 2572.77,127.792 "/>
<polyline clip-path="url(#clip101)" style="stroke:#000000; stroke-linecap:round; stroke-linejoin:round; stroke-width:2; stroke-opacity:0.1; fill:none" points="238.664,1688.65 2640.76,1688.65 "/>
<polyline clip-path="url(#clip101)" style="stroke:#000000; stroke-linecap:round; stroke-linejoin:round; stroke-width:2; stroke-opacity:0.1; fill:none" points="238.664,1309.51 2640.76,1309.51 "/>
<polyline clip-path="url(#clip101)" style="stroke:#000000; stroke-linecap:round; stroke-linejoin:round; stroke-width:2; stroke-opacity:0.1; fill:none" points="238.664,930.364 2640.76,930.364 "/>
<polyline clip-path="url(#clip101)" style="stroke:#000000; stroke-linecap:round; stroke-linejoin:round; stroke-width:2; stroke-opacity:0.1; fill:none" points="238.664,551.219 2640.76,551.219 "/>
<polyline clip-path="url(#clip101)" style="stroke:#000000; stroke-linecap:round; stroke-linejoin:round; stroke-width:2; stroke-opacity:0.1; fill:none" points="238.664,172.073 2640.76,172.073 "/>
<polyline clip-path="url(#clip100)" style="stroke:#000000; stroke-linecap:round; stroke-linejoin:round; stroke-width:4; stroke-opacity:1; fill:none" points="238.664,1734.12 2640.76,1734.12 "/>
<polyline clip-path="url(#clip100)" style="stroke:#000000; stroke-linecap:round; stroke-linejoin:round; stroke-width:4; stroke-opacity:1; fill:none" points="306.647,1734.12 306.647,1715.22 "/>
<polyline clip-path="url(#clip100)" style="stroke:#000000; stroke-linecap:round; stroke-linejoin:round; stroke-width:4; stroke-opacity:1; fill:none" points="873.179,1734.12 873.179,1715.22 "/>
<polyline clip-path="url(#clip100)" style="stroke:#000000; stroke-linecap:round; stroke-linejoin:round; stroke-width:4; stroke-opacity:1; fill:none" points="1439.71,1734.12 1439.71,1715.22 "/>
<polyline clip-path="url(#clip100)" style="stroke:#000000; stroke-linecap:round; stroke-linejoin:round; stroke-width:4; stroke-opacity:1; fill:none" points="2006.24,1734.12 2006.24,1715.22 "/>
<polyline clip-path="url(#clip100)" style="stroke:#000000; stroke-linecap:round; stroke-linejoin:round; stroke-width:4; stroke-opacity:1; fill:none" points="2572.77,1734.12 2572.77,1715.22 "/>
<path clip-path="url(#clip100)" d="M306.647 1767.34 Q303.036 1767.34 301.208 1770.9 Q299.402 1774.45 299.402 1781.58 Q299.402 1788.68 301.208 1792.25 Q303.036 1795.79 306.647 1795.79 Q310.282 1795.79 312.087 1792.25 Q313.916 1788.68 313.916 1781.58 Q313.916 1774.45 312.087 1770.9 Q310.282 1767.34 306.647 1767.34 M306.647 1763.64 Q312.458 1763.64 315.513 1768.24 Q318.592 1772.83 318.592 1781.58 Q318.592 1790.3 315.513 1794.91 Q312.458 1799.49 306.647 1799.49 Q300.837 1799.49 297.759 1794.91 Q294.703 1790.3 294.703 1781.58 Q294.703 1772.83 297.759 1768.24 Q300.837 1763.64 306.647 1763.64 Z" fill="#000000" fill-rule="nonzero" fill-opacity="1" /><path clip-path="url(#clip100)" d="M851.952 1794.89 L868.271 1794.89 L868.271 1798.82 L846.327 1798.82 L846.327 1794.89 Q848.989 1792.13 853.572 1787.5 Q858.179 1782.85 859.359 1781.51 Q861.605 1778.98 862.484 1777.25 Q863.387 1775.49 863.387 1773.8 Q863.387 1771.04 861.443 1769.31 Q859.521 1767.57 856.419 1767.57 Q854.22 1767.57 851.767 1768.34 Q849.336 1769.1 846.558 1770.65 L846.558 1765.93 Q849.382 1764.79 851.836 1764.21 Q854.29 1763.64 856.327 1763.64 Q861.697 1763.64 864.892 1766.32 Q868.086 1769.01 868.086 1773.5 Q868.086 1775.63 867.276 1777.55 Q866.489 1779.45 864.382 1782.04 Q863.804 1782.71 860.702 1785.93 Q857.6 1789.12 851.952 1794.89 Z" fill="#000000" fill-rule="nonzero" fill-opacity="1" /><path clip-path="url(#clip100)" d="M888.086 1767.34 Q884.475 1767.34 882.646 1770.9 Q880.841 1774.45 880.841 1781.58 Q880.841 1788.68 882.646 1792.25 Q884.475 1795.79 888.086 1795.79 Q891.72 1795.79 893.526 1792.25 Q895.354 1788.68 895.354 1781.58 Q895.354 1774.45 893.526 1770.9 Q891.72 1767.34 888.086 1767.34 M888.086 1763.64 Q893.896 1763.64 896.952 1768.24 Q900.03 1772.83 900.03 1781.58 Q900.03 1790.3 896.952 1794.91 Q893.896 1799.49 888.086 1799.49 Q882.276 1799.49 879.197 1794.91 Q876.142 1790.3 876.142 1781.58 Q876.142 1772.83 879.197 1768.24 Q882.276 1763.64 888.086 1763.64 Z" fill="#000000" fill-rule="nonzero" fill-opacity="1" /><path clip-path="url(#clip100)" d="M1427.88 1768.34 L1416.08 1786.78 L1427.88 1786.78 L1427.88 1768.34 M1426.65 1764.26 L1432.53 1764.26 L1432.53 1786.78 L1437.46 1786.78 L1437.46 1790.67 L1432.53 1790.67 L1432.53 1798.82 L1427.88 1798.82 L1427.88 1790.67 L1412.28 1790.67 L1412.28 1786.16 L1426.65 1764.26 Z" fill="#000000" fill-rule="nonzero" fill-opacity="1" /><path clip-path="url(#clip100)" d="M1455.2 1767.34 Q1451.58 1767.34 1449.76 1770.9 Q1447.95 1774.45 1447.95 1781.58 Q1447.95 1788.68 1449.76 1792.25 Q1451.58 1795.79 1455.2 1795.79 Q1458.83 1795.79 1460.64 1792.25 Q1462.46 1788.68 1462.46 1781.58 Q1462.46 1774.45 1460.64 1770.9 Q1458.83 1767.34 1455.2 1767.34 M1455.2 1763.64 Q1461.01 1763.64 1464.06 1768.24 Q1467.14 1772.83 1467.14 1781.58 Q1467.14 1790.3 1464.06 1794.91 Q1461.01 1799.49 1455.2 1799.49 Q1449.39 1799.49 1446.31 1794.91 Q1443.25 1790.3 1443.25 1781.58 Q1443.25 1772.83 1446.31 1768.24 Q1449.39 1763.64 1455.2 1763.64 Z" fill="#000000" fill-rule="nonzero" fill-opacity="1" /><path clip-path="url(#clip100)" d="M1991.65 1779.68 Q1988.5 1779.68 1986.65 1781.83 Q1984.82 1783.98 1984.82 1787.73 Q1984.82 1791.46 1986.65 1793.64 Q1988.5 1795.79 1991.65 1795.79 Q1994.79 1795.79 1996.62 1793.64 Q1998.47 1791.46 1998.47 1787.73 Q1998.47 1783.98 1996.62 1781.83 Q1994.79 1779.68 1991.65 1779.68 M2000.93 1765.02 L2000.93 1769.28 Q1999.17 1768.45 1997.36 1768.01 Q1995.58 1767.57 1993.82 1767.57 Q1989.19 1767.57 1986.74 1770.7 Q1984.31 1773.82 1983.96 1780.14 Q1985.33 1778.13 1987.39 1777.06 Q1989.45 1775.97 1991.92 1775.97 Q1997.13 1775.97 2000.14 1779.15 Q2003.17 1782.29 2003.17 1787.73 Q2003.17 1793.06 2000.03 1796.27 Q1996.88 1799.49 1991.65 1799.49 Q1985.65 1799.49 1982.48 1794.91 Q1979.31 1790.3 1979.31 1781.58 Q1979.31 1773.38 1983.2 1768.52 Q1987.09 1763.64 1993.64 1763.64 Q1995.4 1763.64 1997.18 1763.98 Q1998.98 1764.33 2000.93 1765.02 Z" fill="#000000" fill-rule="nonzero" fill-opacity="1" /><path clip-path="url(#clip100)" d="M2021.23 1767.34 Q2017.62 1767.34 2015.79 1770.9 Q2013.98 1774.45 2013.98 1781.58 Q2013.98 1788.68 2015.79 1792.25 Q2017.62 1795.79 2021.23 1795.79 Q2024.86 1795.79 2026.67 1792.25 Q2028.5 1788.68 2028.5 1781.58 Q2028.5 1774.45 2026.67 1770.9 Q2024.86 1767.34 2021.23 1767.34 M2021.23 1763.64 Q2027.04 1763.64 2030.1 1768.24 Q2033.17 1772.83 2033.17 1781.58 Q2033.17 1790.3 2030.1 1794.91 Q2027.04 1799.49 2021.23 1799.49 Q2015.42 1799.49 2012.34 1794.91 Q2009.28 1790.3 2009.28 1781.58 Q2009.28 1772.83 2012.34 1768.24 Q2015.42 1763.64 2021.23 1763.64 Z" fill="#000000" fill-rule="nonzero" fill-opacity="1" /><path clip-path="url(#clip100)" d="M2557.64 1782.41 Q2554.31 1782.41 2552.39 1784.19 Q2550.49 1785.97 2550.49 1789.1 Q2550.49 1792.22 2552.39 1794.01 Q2554.31 1795.79 2557.64 1795.79 Q2560.98 1795.79 2562.9 1794.01 Q2564.82 1792.2 2564.82 1789.1 Q2564.82 1785.97 2562.9 1784.19 Q2561 1782.41 2557.64 1782.41 M2552.97 1780.42 Q2549.96 1779.68 2548.27 1777.62 Q2546.6 1775.56 2546.6 1772.59 Q2546.6 1768.45 2549.54 1766.04 Q2552.51 1763.64 2557.64 1763.64 Q2562.81 1763.64 2565.75 1766.04 Q2568.69 1768.45 2568.69 1772.59 Q2568.69 1775.56 2567 1777.62 Q2565.33 1779.68 2562.34 1780.42 Q2565.72 1781.21 2567.6 1783.5 Q2569.5 1785.79 2569.5 1789.1 Q2569.5 1794.12 2566.42 1796.81 Q2563.36 1799.49 2557.64 1799.49 Q2551.93 1799.49 2548.85 1796.81 Q2545.79 1794.12 2545.79 1789.1 Q2545.79 1785.79 2547.69 1783.5 Q2549.59 1781.21 2552.97 1780.42 M2551.26 1773.03 Q2551.26 1775.72 2552.92 1777.22 Q2554.61 1778.73 2557.64 1778.73 Q2560.65 1778.73 2562.34 1777.22 Q2564.06 1775.72 2564.06 1773.03 Q2564.06 1770.35 2562.34 1768.84 Q2560.65 1767.34 2557.64 1767.34 Q2554.61 1767.34 2552.92 1768.84 Q2551.26 1770.35 2551.26 1773.03 Z" fill="#000000" fill-rule="nonzero" fill-opacity="1" /><path clip-path="url(#clip100)" d="M2587.81 1767.34 Q2584.2 1767.34 2582.37 1770.9 Q2580.56 1774.45 2580.56 1781.58 Q2580.56 1788.68 2582.37 1792.25 Q2584.2 1795.79 2587.81 1795.79 Q2591.44 1795.79 2593.25 1792.25 Q2595.08 1788.68 2595.08 1781.58 Q2595.08 1774.45 2593.25 1770.9 Q2591.44 1767.34 2587.81 1767.34 M2587.81 1763.64 Q2593.62 1763.64 2596.67 1768.24 Q2599.75 1772.83 2599.75 1781.58 Q2599.75 1790.3 2596.67 1794.91 Q2593.62 1799.49 2587.81 1799.49 Q2582 1799.49 2578.92 1794.91 Q2575.86 1790.3 2575.86 1781.58 Q2575.86 1772.83 2578.92 1768.24 Q2582 1763.64 2587.81 1763.64 Z" fill="#000000" fill-rule="nonzero" fill-opacity="1" /><path clip-path="url(#clip100)" d="M1361.59 1835.78 L1401.79 1835.78 L1401.79 1841.19 L1384.92 1841.19 L1384.92 1883.3 L1378.46 1883.3 L1378.46 1841.19 L1361.59 1841.19 L1361.59 1835.78 Z" fill="#000000" fill-rule="nonzero" fill-opacity="1" /><path clip-path="url(#clip100)" d="M1405.73 1847.65 L1411.59 1847.65 L1411.59 1883.3 L1405.73 1883.3 L1405.73 1847.65 M1405.73 1833.78 L1411.59 1833.78 L1411.59 1841.19 L1405.73 1841.19 L1405.73 1833.78 Z" fill="#000000" fill-rule="nonzero" fill-opacity="1" /><path clip-path="url(#clip100)" d="M1451.6 1854.5 Q1453.79 1850.55 1456.85 1848.67 Q1459.9 1846.79 1464.04 1846.79 Q1469.61 1846.79 1472.64 1850.71 Q1475.66 1854.59 1475.66 1861.78 L1475.66 1883.3 L1469.77 1883.3 L1469.77 1861.98 Q1469.77 1856.85 1467.96 1854.37 Q1466.14 1851.89 1462.42 1851.89 Q1457.87 1851.89 1455.23 1854.91 Q1452.58 1857.93 1452.58 1863.15 L1452.58 1883.3 L1446.7 1883.3 L1446.7 1861.98 Q1446.7 1856.82 1444.88 1854.37 Q1443.07 1851.89 1439.28 1851.89 Q1434.79 1851.89 1432.15 1854.94 Q1429.51 1857.97 1429.51 1863.15 L1429.51 1883.3 L1423.62 1883.3 L1423.62 1847.65 L1429.51 1847.65 L1429.51 1853.19 Q1431.51 1849.91 1434.31 1848.35 Q1437.12 1846.79 1440.97 1846.79 Q1444.85 1846.79 1447.56 1848.77 Q1450.29 1850.74 1451.6 1854.5 Z" fill="#000000" fill-rule="nonzero" fill-opacity="1" /><path clip-path="url(#clip100)" d="M1517.83 1864.01 L1517.83 1866.88 L1490.91 1866.88 Q1491.29 1872.92 1494.53 1876.11 Q1497.81 1879.26 1503.64 1879.26 Q1507.01 1879.26 1510.16 1878.43 Q1513.35 1877.6 1516.46 1875.95 L1516.46 1881.49 Q1513.31 1882.82 1510 1883.52 Q1506.69 1884.22 1503.29 1884.22 Q1494.76 1884.22 1489.76 1879.26 Q1484.79 1874.29 1484.79 1865.83 Q1484.79 1857.07 1489.51 1851.95 Q1494.25 1846.79 1502.27 1846.79 Q1509.46 1846.79 1513.63 1851.44 Q1517.83 1856.06 1517.83 1864.01 M1511.98 1862.29 Q1511.91 1857.49 1509.27 1854.62 Q1506.66 1851.76 1502.33 1851.76 Q1497.43 1851.76 1494.47 1854.53 Q1491.54 1857.3 1491.1 1862.33 L1511.98 1862.29 Z" fill="#000000" fill-rule="nonzero" fill-opacity="1" /><polyline clip-path="url(#clip100)" style="stroke:#000000; stroke-linecap:round; stroke-linejoin:round; stroke-width:4; stroke-opacity:1; fill:none" points="238.664,1734.12 238.664,127.792 "/>
<polyline clip-path="url(#clip100)" style="stroke:#000000; stroke-linecap:round; stroke-linejoin:round; stroke-width:4; stroke-opacity:1; fill:none" points="238.664,1688.65 257.561,1688.65 "/>
<polyline clip-path="url(#clip100)" style="stroke:#000000; stroke-linecap:round; stroke-linejoin:round; stroke-width:4; stroke-opacity:1; fill:none" points="238.664,1309.51 257.561,1309.51 "/>
<polyline clip-path="url(#clip100)" style="stroke:#000000; stroke-linecap:round; stroke-linejoin:round; stroke-width:4; stroke-opacity:1; fill:none" points="238.664,930.364 257.561,930.364 "/>
<polyline clip-path="url(#clip100)" style="stroke:#000000; stroke-linecap:round; stroke-linejoin:round; stroke-width:4; stroke-opacity:1; fill:none" points="238.664,551.219 257.561,551.219 "/>
<polyline clip-path="url(#clip100)" style="stroke:#000000; stroke-linecap:round; stroke-linejoin:round; stroke-width:4; stroke-opacity:1; fill:none" points="238.664,172.073 257.561,172.073 "/>
<path clip-path="url(#clip100)" d="M186.399 1674.45 Q182.788 1674.45 180.959 1678.02 Q179.154 1681.56 179.154 1688.69 Q179.154 1695.8 180.959 1699.36 Q182.788 1702.9 186.399 1702.9 Q190.033 1702.9 191.839 1699.36 Q193.668 1695.8 193.668 1688.69 Q193.668 1681.56 191.839 1678.02 Q190.033 1674.45 186.399 1674.45 M186.399 1670.75 Q192.209 1670.75 195.265 1675.36 Q198.344 1679.94 198.344 1688.69 Q198.344 1697.42 195.265 1702.02 Q192.209 1706.61 186.399 1706.61 Q180.589 1706.61 177.51 1702.02 Q174.455 1697.42 174.455 1688.69 Q174.455 1679.94 177.51 1675.36 Q180.589 1670.75 186.399 1670.75 Z" fill="#000000" fill-rule="nonzero" fill-opacity="1" /><path clip-path="url(#clip100)" d="M151.261 1322.85 L167.58 1322.85 L167.58 1326.79 L145.636 1326.79 L145.636 1322.85 Q148.298 1320.1 152.881 1315.47 Q157.487 1310.82 158.668 1309.47 Q160.913 1306.95 161.793 1305.22 Q162.696 1303.46 162.696 1301.77 Q162.696 1299.01 160.751 1297.28 Q158.83 1295.54 155.728 1295.54 Q153.529 1295.54 151.075 1296.3 Q148.645 1297.07 145.867 1298.62 L145.867 1293.9 Q148.691 1292.76 151.145 1292.18 Q153.599 1291.6 155.636 1291.6 Q161.006 1291.6 164.2 1294.29 Q167.395 1296.97 167.395 1301.47 Q167.395 1303.6 166.585 1305.52 Q165.798 1307.41 163.691 1310.01 Q163.112 1310.68 160.011 1313.9 Q156.909 1317.09 151.261 1322.85 Z" fill="#000000" fill-rule="nonzero" fill-opacity="1" /><path clip-path="url(#clip100)" d="M177.441 1292.23 L195.797 1292.23 L195.797 1296.16 L181.723 1296.16 L181.723 1304.64 Q182.742 1304.29 183.76 1304.13 Q184.779 1303.94 185.797 1303.94 Q191.584 1303.94 194.964 1307.11 Q198.344 1310.29 198.344 1315.7 Q198.344 1321.28 194.871 1324.38 Q191.399 1327.46 185.08 1327.46 Q182.904 1327.46 180.635 1327.09 Q178.39 1326.72 175.983 1325.98 L175.983 1321.28 Q178.066 1322.41 180.288 1322.97 Q182.51 1323.53 184.987 1323.53 Q188.992 1323.53 191.33 1321.42 Q193.668 1319.31 193.668 1315.7 Q193.668 1312.09 191.33 1309.98 Q188.992 1307.88 184.987 1307.88 Q183.112 1307.88 181.237 1308.29 Q179.385 1308.71 177.441 1309.59 L177.441 1292.23 Z" fill="#000000" fill-rule="nonzero" fill-opacity="1" /><path clip-path="url(#clip100)" d="M146.284 913.084 L164.64 913.084 L164.64 917.019 L150.566 917.019 L150.566 925.491 Q151.585 925.144 152.603 924.982 Q153.622 924.797 154.64 924.797 Q160.427 924.797 163.807 927.968 Q167.186 931.14 167.186 936.556 Q167.186 942.135 163.714 945.237 Q160.242 948.315 153.923 948.315 Q151.747 948.315 149.478 947.945 Q147.233 947.575 144.825 946.834 L144.825 942.135 Q146.909 943.269 149.131 943.825 Q151.353 944.38 153.83 944.38 Q157.835 944.38 160.173 942.274 Q162.51 940.167 162.51 936.556 Q162.51 932.945 160.173 930.839 Q157.835 928.732 153.83 928.732 Q151.955 928.732 150.08 929.149 Q148.228 929.566 146.284 930.445 L146.284 913.084 Z" fill="#000000" fill-rule="nonzero" fill-opacity="1" /><path clip-path="url(#clip100)" d="M186.399 916.163 Q182.788 916.163 180.959 919.728 Q179.154 923.269 179.154 930.399 Q179.154 937.505 180.959 941.07 Q182.788 944.612 186.399 944.612 Q190.033 944.612 191.839 941.07 Q193.668 937.505 193.668 930.399 Q193.668 923.269 191.839 919.728 Q190.033 916.163 186.399 916.163 M186.399 912.459 Q192.209 912.459 195.265 917.066 Q198.344 921.649 198.344 930.399 Q198.344 939.126 195.265 943.732 Q192.209 948.315 186.399 948.315 Q180.589 948.315 177.51 943.732 Q174.455 939.126 174.455 930.399 Q174.455 921.649 177.51 917.066 Q180.589 912.459 186.399 912.459 Z" fill="#000000" fill-rule="nonzero" fill-opacity="1" /><path clip-path="url(#clip100)" d="M146.052 533.939 L168.274 533.939 L168.274 535.929 L155.728 568.499 L150.844 568.499 L162.649 537.874 L146.052 537.874 L146.052 533.939 Z" fill="#000000" fill-rule="nonzero" fill-opacity="1" /><path clip-path="url(#clip100)" d="M177.441 533.939 L195.797 533.939 L195.797 537.874 L181.723 537.874 L181.723 546.346 Q182.742 545.999 183.76 545.837 Q184.779 545.652 185.797 545.652 Q191.584 545.652 194.964 548.823 Q198.344 551.994 198.344 557.411 Q198.344 562.989 194.871 566.091 Q191.399 569.17 185.08 569.17 Q182.904 569.17 180.635 568.8 Q178.39 568.429 175.983 567.689 L175.983 562.989 Q178.066 564.124 180.288 564.679 Q182.51 565.235 184.987 565.235 Q188.992 565.235 191.33 563.128 Q193.668 561.022 193.668 557.411 Q193.668 553.8 191.33 551.693 Q188.992 549.587 184.987 549.587 Q183.112 549.587 181.237 550.003 Q179.385 550.42 177.441 551.3 L177.441 533.939 Z" fill="#000000" fill-rule="nonzero" fill-opacity="1" /><path clip-path="url(#clip100)" d="M116.886 185.418 L124.525 185.418 L124.525 159.053 L116.214 160.719 L116.214 156.46 L124.478 154.793 L129.154 154.793 L129.154 185.418 L136.793 185.418 L136.793 189.353 L116.886 189.353 L116.886 185.418 Z" fill="#000000" fill-rule="nonzero" fill-opacity="1" /><path clip-path="url(#clip100)" d="M156.237 157.872 Q152.626 157.872 150.798 161.437 Q148.992 164.978 148.992 172.108 Q148.992 179.214 150.798 182.779 Q152.626 186.321 156.237 186.321 Q159.872 186.321 161.677 182.779 Q163.506 179.214 163.506 172.108 Q163.506 164.978 161.677 161.437 Q159.872 157.872 156.237 157.872 M156.237 154.168 Q162.048 154.168 165.103 158.775 Q168.182 163.358 168.182 172.108 Q168.182 180.835 165.103 185.441 Q162.048 190.025 156.237 190.025 Q150.427 190.025 147.349 185.441 Q144.293 180.835 144.293 172.108 Q144.293 163.358 147.349 158.775 Q150.427 154.168 156.237 154.168 Z" fill="#000000" fill-rule="nonzero" fill-opacity="1" /><path clip-path="url(#clip100)" d="M186.399 157.872 Q182.788 157.872 180.959 161.437 Q179.154 164.978 179.154 172.108 Q179.154 179.214 180.959 182.779 Q182.788 186.321 186.399 186.321 Q190.033 186.321 191.839 182.779 Q193.668 179.214 193.668 172.108 Q193.668 164.978 191.839 161.437 Q190.033 157.872 186.399 157.872 M186.399 154.168 Q192.209 154.168 195.265 158.775 Q198.344 163.358 198.344 172.108 Q198.344 180.835 195.265 185.441 Q192.209 190.025 186.399 190.025 Q180.589 190.025 177.51 185.441 Q174.455 180.835 174.455 172.108 Q174.455 163.358 177.51 158.775 Q180.589 154.168 186.399 154.168 Z" fill="#000000" fill-rule="nonzero" fill-opacity="1" /><path clip-path="url(#clip100)" d="M14.1184 1284.38 L14.1184 1275.72 L53.8723 1254.65 L14.1184 1254.65 L14.1184 1248.41 L61.6384 1248.41 L61.6384 1257.07 L21.8846 1278.14 L61.6384 1278.14 L61.6384 1284.38 L14.1184 1284.38 Z" fill="#000000" fill-rule="nonzero" fill-opacity="1" /><path clip-path="url(#clip100)" d="M47.5702 1236.48 L25.9905 1236.48 L25.9905 1230.62 L47.3474 1230.62 Q52.4082 1230.62 54.9545 1228.65 Q57.4689 1226.67 57.4689 1222.73 Q57.4689 1217.98 54.4452 1215.25 Q51.4215 1212.48 46.2016 1212.48 L25.9905 1212.48 L25.9905 1206.62 L61.6384 1206.62 L61.6384 1212.48 L56.1639 1212.48 Q59.4104 1214.61 61.0019 1217.44 Q62.5615 1220.24 62.5615 1223.97 Q62.5615 1230.11 58.742 1233.29 Q54.9226 1236.48 47.5702 1236.48 M25.1311 1221.74 L25.1311 1221.74 Z" fill="#000000" fill-rule="nonzero" fill-opacity="1" /><path clip-path="url(#clip100)" d="M32.8336 1166.8 Q28.8869 1164.61 27.009 1161.55 Q25.1311 1158.5 25.1311 1154.36 Q25.1311 1148.79 29.046 1145.77 Q32.9291 1142.74 40.1224 1142.74 L61.6384 1142.74 L61.6384 1148.63 L40.3133 1148.63 Q35.1889 1148.63 32.7063 1150.44 Q30.2237 1152.26 30.2237 1155.98 Q30.2237 1160.53 33.2474 1163.18 Q36.2711 1165.82 41.491 1165.82 L61.6384 1165.82 L61.6384 1171.71 L40.3133 1171.71 Q35.1571 1171.71 32.7063 1173.52 Q30.2237 1175.33 30.2237 1179.12 Q30.2237 1183.61 33.2792 1186.25 Q36.3029 1188.89 41.491 1188.89 L61.6384 1188.89 L61.6384 1194.78 L25.9905 1194.78 L25.9905 1188.89 L31.5287 1188.89 Q28.2503 1186.89 26.6907 1184.09 Q25.1311 1181.29 25.1311 1177.43 Q25.1311 1173.55 27.1045 1170.85 Q29.0779 1168.11 32.8336 1166.8 Z" fill="#000000" fill-rule="nonzero" fill-opacity="1" /><path clip-path="url(#clip100)" d="M43.8463 1105.47 Q37.3851 1105.47 33.7248 1108.14 Q30.0327 1110.79 30.0327 1115.43 Q30.0327 1120.08 33.7248 1122.75 Q37.3851 1125.4 43.8463 1125.4 Q50.3075 1125.4 53.9996 1122.75 Q57.6599 1120.08 57.6599 1115.43 Q57.6599 1110.79 53.9996 1108.14 Q50.3075 1105.47 43.8463 1105.47 M31.4013 1125.4 Q28.2185 1123.55 26.6907 1120.75 Q25.1311 1117.92 25.1311 1114 Q25.1311 1107.51 30.2873 1103.47 Q35.4436 1099.39 43.8463 1099.39 Q52.249 1099.39 57.4052 1103.47 Q62.5615 1107.51 62.5615 1114 Q62.5615 1117.92 61.0337 1120.75 Q59.4741 1123.55 56.2912 1125.4 L61.6384 1125.4 L61.6384 1131.28 L12.1132 1131.28 L12.1132 1125.4 L31.4013 1125.4 Z" fill="#000000" fill-rule="nonzero" fill-opacity="1" /><path clip-path="url(#clip100)" d="M42.3504 1059.19 L45.2149 1059.19 L45.2149 1086.12 Q51.2623 1085.74 54.4452 1082.49 Q57.5962 1079.21 57.5962 1073.39 Q57.5962 1070.01 56.7687 1066.86 Q55.9411 1063.68 54.2861 1060.56 L59.8242 1060.56 Q61.161 1063.71 61.8612 1067.02 Q62.5615 1070.33 62.5615 1073.74 Q62.5615 1082.27 57.5962 1087.26 Q52.631 1092.23 44.1646 1092.23 Q35.4117 1092.23 30.2873 1087.52 Q25.1311 1082.78 25.1311 1074.76 Q25.1311 1067.56 29.7781 1063.39 Q34.3932 1059.19 42.3504 1059.19 M40.6316 1065.05 Q35.8255 1065.11 32.9609 1067.75 Q30.0964 1070.36 30.0964 1074.69 Q30.0964 1079.59 32.8654 1082.55 Q35.6345 1085.48 40.6634 1085.93 L40.6316 1065.05 Z" fill="#000000" fill-rule="nonzero" fill-opacity="1" /><path clip-path="url(#clip100)" d="M31.465 1028.92 Q30.8921 1029.91 30.6375 1031.09 Q30.351 1032.23 30.351 1033.63 Q30.351 1038.6 33.5975 1041.27 Q36.8122 1043.91 42.8596 1043.91 L61.6384 1043.91 L61.6384 1049.8 L25.9905 1049.8 L25.9905 1043.91 L31.5287 1043.91 Q28.2821 1042.07 26.7225 1039.11 Q25.1311 1036.15 25.1311 1031.91 Q25.1311 1031.31 25.2266 1030.58 Q25.2903 1029.85 25.4494 1028.95 L31.465 1028.92 Z" fill="#000000" fill-rule="nonzero" fill-opacity="1" /><path clip-path="url(#clip100)" d="M30.0964 988.246 Q30.0964 992.957 33.7885 995.694 Q37.4488 998.431 43.8463 998.431 Q50.2438 998.431 53.9359 995.726 Q57.5962 992.988 57.5962 988.246 Q57.5962 983.567 53.9041 980.83 Q50.212 978.093 43.8463 978.093 Q37.5124 978.093 33.8203 980.83 Q30.0964 983.567 30.0964 988.246 M25.1311 988.246 Q25.1311 980.607 30.0964 976.247 Q35.0616 971.886 43.8463 971.886 Q52.5991 971.886 57.5962 976.247 Q62.5615 980.607 62.5615 988.246 Q62.5615 995.917 57.5962 1000.28 Q52.5991 1004.61 43.8463 1004.61 Q35.0616 1004.61 30.0964 1000.28 Q25.1311 995.917 25.1311 988.246 Z" fill="#000000" fill-rule="nonzero" fill-opacity="1" /><path clip-path="url(#clip100)" d="M12.1132 944.132 L16.983 944.132 L16.983 949.733 Q16.983 952.884 18.2562 954.126 Q19.5293 955.335 22.8395 955.335 L25.9905 955.335 L25.9905 945.691 L30.542 945.691 L30.542 955.335 L61.6384 955.335 L61.6384 961.223 L30.542 961.223 L30.542 966.825 L25.9905 966.825 L25.9905 961.223 L23.5079 961.223 Q17.5559 961.223 14.8505 958.454 Q12.1132 955.685 12.1132 949.67 L12.1132 944.132 Z" fill="#000000" fill-rule="nonzero" fill-opacity="1" /><path clip-path="url(#clip100)" d="M25.9905 918.51 L25.9905 912.653 L61.6384 912.653 L61.6384 918.51 L25.9905 918.51 M12.1132 918.51 L12.1132 912.653 L19.5293 912.653 L19.5293 918.51 L12.1132 918.51 Z" fill="#000000" fill-rule="nonzero" fill-opacity="1" /><path clip-path="url(#clip100)" d="M40.1224 870.767 L61.6384 870.767 L61.6384 876.623 L40.3133 876.623 Q35.2526 876.623 32.7381 878.597 Q30.2237 880.57 30.2237 884.517 Q30.2237 889.259 33.2474 891.996 Q36.2711 894.734 41.491 894.734 L61.6384 894.734 L61.6384 900.622 L25.9905 900.622 L25.9905 894.734 L31.5287 894.734 Q28.314 892.633 26.7225 889.8 Q25.1311 886.936 25.1311 883.212 Q25.1311 877.069 28.9505 873.918 Q32.7381 870.767 40.1224 870.767 Z" fill="#000000" fill-rule="nonzero" fill-opacity="1" /><path clip-path="url(#clip100)" d="M31.4013 835.628 L12.1132 835.628 L12.1132 829.772 L61.6384 829.772 L61.6384 835.628 L56.2912 835.628 Q59.4741 837.474 61.0337 840.307 Q62.5615 843.108 62.5615 847.055 Q62.5615 853.516 57.4052 857.59 Q52.249 861.632 43.8463 861.632 Q35.4436 861.632 30.2873 857.59 Q25.1311 853.516 25.1311 847.055 Q25.1311 843.108 26.6907 840.307 Q28.2185 837.474 31.4013 835.628 M43.8463 855.585 Q50.3075 855.585 53.9996 852.943 Q57.6599 850.269 57.6599 845.622 Q57.6599 840.975 53.9996 838.302 Q50.3075 835.628 43.8463 835.628 Q37.3851 835.628 33.7248 838.302 Q30.0327 840.975 30.0327 845.622 Q30.0327 850.269 33.7248 852.943 Q37.3851 855.585 43.8463 855.585 Z" fill="#000000" fill-rule="nonzero" fill-opacity="1" /><path clip-path="url(#clip100)" d="M25.9905 817.709 L25.9905 811.852 L61.6384 811.852 L61.6384 817.709 L25.9905 817.709 M12.1132 817.709 L12.1132 811.852 L19.5293 811.852 L19.5293 817.709 L12.1132 817.709 Z" fill="#000000" fill-rule="nonzero" fill-opacity="1" /><path clip-path="url(#clip100)" d="M25.9905 803.8 L25.9905 797.593 L55.9093 786.453 L25.9905 775.313 L25.9905 769.106 L61.6384 782.474 L61.6384 790.432 L25.9905 803.8 Z" fill="#000000" fill-rule="nonzero" fill-opacity="1" /><path clip-path="url(#clip100)" d="M25.9905 761.022 L25.9905 755.166 L61.6384 755.166 L61.6384 761.022 L25.9905 761.022 M12.1132 761.022 L12.1132 755.166 L19.5293 755.166 L19.5293 761.022 L12.1132 761.022 Z" fill="#000000" fill-rule="nonzero" fill-opacity="1" /><path clip-path="url(#clip100)" d="M31.4013 719.454 L12.1132 719.454 L12.1132 713.598 L61.6384 713.598 L61.6384 719.454 L56.2912 719.454 Q59.4741 721.3 61.0337 724.133 Q62.5615 726.934 62.5615 730.88 Q62.5615 737.342 57.4052 741.416 Q52.249 745.458 43.8463 745.458 Q35.4436 745.458 30.2873 741.416 Q25.1311 737.342 25.1311 730.88 Q25.1311 726.934 26.6907 724.133 Q28.2185 721.3 31.4013 719.454 M43.8463 739.41 Q50.3075 739.41 53.9996 736.769 Q57.6599 734.095 57.6599 729.448 Q57.6599 724.801 53.9996 722.128 Q50.3075 719.454 43.8463 719.454 Q37.3851 719.454 33.7248 722.128 Q30.0327 724.801 30.0327 729.448 Q30.0327 734.095 33.7248 736.769 Q37.3851 739.41 43.8463 739.41 Z" fill="#000000" fill-rule="nonzero" fill-opacity="1" /><path clip-path="url(#clip100)" d="M47.5702 702.139 L25.9905 702.139 L25.9905 696.283 L47.3474 696.283 Q52.4082 696.283 54.9545 694.309 Q57.4689 692.336 57.4689 688.389 Q57.4689 683.647 54.4452 680.91 Q51.4215 678.141 46.2016 678.141 L25.9905 678.141 L25.9905 672.284 L61.6384 672.284 L61.6384 678.141 L56.1639 678.141 Q59.4104 680.273 61.0019 683.106 Q62.5615 685.907 62.5615 689.631 Q62.5615 695.774 58.742 698.956 Q54.9226 702.139 47.5702 702.139 M25.1311 687.403 L25.1311 687.403 Z" fill="#000000" fill-rule="nonzero" fill-opacity="1" /><path clip-path="url(#clip100)" d="M43.719 644.02 Q43.719 651.118 45.3422 653.855 Q46.9655 656.593 50.8804 656.593 Q53.9996 656.593 55.8457 654.556 Q57.6599 652.487 57.6599 648.954 Q57.6599 644.084 54.2224 641.156 Q50.7531 638.196 45.0239 638.196 L43.719 638.196 L43.719 644.02 M41.3 632.339 L61.6384 632.339 L61.6384 638.196 L56.2276 638.196 Q59.4741 640.201 61.0337 643.193 Q62.5615 646.185 62.5615 650.513 Q62.5615 655.988 59.5059 659.234 Q56.4186 662.449 51.2623 662.449 Q45.2467 662.449 42.1912 658.439 Q39.1357 654.396 39.1357 646.407 L39.1357 638.196 L38.5628 638.196 Q34.5205 638.196 32.3244 640.869 Q30.0964 643.511 30.0964 648.317 Q30.0964 651.373 30.8284 654.269 Q31.5605 657.166 33.0246 659.839 L27.6137 659.839 Q26.3724 656.624 25.7677 653.601 Q25.1311 650.577 25.1311 647.712 Q25.1311 639.978 29.1415 636.159 Q33.1519 632.339 41.3 632.339 Z" fill="#000000" fill-rule="nonzero" fill-opacity="1" /><path clip-path="url(#clip100)" d="M12.1132 620.276 L12.1132 614.42 L61.6384 614.42 L61.6384 620.276 L12.1132 620.276 Z" fill="#000000" fill-rule="nonzero" fill-opacity="1" /><path clip-path="url(#clip100)" d="M27.0408 579.44 L32.579 579.44 Q31.3059 581.923 30.6693 584.596 Q30.0327 587.27 30.0327 590.135 Q30.0327 594.495 31.3695 596.691 Q32.7063 598.856 35.3799 598.856 Q37.4169 598.856 38.5946 597.296 Q39.7404 595.736 40.7908 591.026 L41.2364 589.021 Q42.5732 582.782 45.0239 580.172 Q47.4429 577.531 51.8034 577.531 Q56.7687 577.531 59.6651 581.477 Q62.5615 585.392 62.5615 592.267 Q62.5615 595.132 61.9886 598.251 Q61.4475 601.338 60.3335 604.776 L54.2861 604.776 Q55.973 601.529 56.8323 598.378 Q57.6599 595.227 57.6599 592.14 Q57.6599 588.002 56.2594 585.774 Q54.8271 583.546 52.249 583.546 Q49.8619 583.546 48.5887 585.169 Q47.3156 586.761 46.1379 592.203 L45.6605 594.241 Q44.5147 599.683 42.1594 602.102 Q39.7722 604.521 35.6345 604.521 Q30.6056 604.521 27.8684 600.956 Q25.1311 597.392 25.1311 590.835 Q25.1311 587.588 25.6085 584.724 Q26.086 581.859 27.0408 579.44 Z" fill="#000000" fill-rule="nonzero" fill-opacity="1" /><path clip-path="url(#clip100)" d="M786.137 14.0809 L786.137 22.0612 Q781.478 19.8332 777.346 18.7395 Q773.214 17.6457 769.366 17.6457 Q762.682 17.6457 759.036 20.2383 Q755.431 22.8309 755.431 27.611 Q755.431 31.6214 757.821 33.6873 Q760.252 35.7128 766.976 36.9686 L771.918 37.9813 Q781.073 39.7232 785.408 44.1387 Q789.783 48.5136 789.783 55.8863 Q789.783 64.6767 783.868 69.2137 Q777.995 73.7508 766.612 73.7508 Q762.318 73.7508 757.456 72.7785 Q752.636 71.8063 747.451 69.9024 L747.451 61.4765 Q752.433 64.2716 757.213 65.6895 Q761.993 67.1073 766.612 67.1073 Q773.62 67.1073 777.427 64.3527 Q781.235 61.598 781.235 56.4939 Q781.235 52.0379 778.481 49.5264 Q775.767 47.0148 769.528 45.759 L764.546 44.7868 Q755.391 42.9639 751.299 39.075 Q747.208 35.1862 747.208 28.2591 Q747.208 20.2383 752.838 15.6203 Q758.51 11.0023 768.434 11.0023 Q772.688 11.0023 777.103 11.7719 Q781.519 12.5416 786.137 14.0809 Z" fill="#000000" fill-rule="nonzero" fill-opacity="1" /><path clip-path="url(#clip100)" d="M802.543 12.096 L810.726 12.096 L810.726 72.576 L802.543 72.576 L802.543 12.096 Z" fill="#000000" fill-rule="nonzero" fill-opacity="1" /><path clip-path="url(#clip100)" d="M855.691 44.2197 Q858.324 45.1109 860.795 48.0275 Q863.307 50.9442 865.818 56.0483 L874.123 72.576 L865.332 72.576 L857.595 57.061 Q854.597 50.9847 851.762 48.9997 Q848.966 47.0148 844.105 47.0148 L835.193 47.0148 L835.193 72.576 L827.011 72.576 L827.011 12.096 L845.483 12.096 Q855.853 12.096 860.957 16.4305 Q866.061 20.7649 866.061 29.5149 Q866.061 35.2267 863.388 38.994 Q860.755 42.7613 855.691 44.2197 M835.193 18.8205 L835.193 40.2903 L845.483 40.2903 Q851.397 40.2903 854.395 37.5762 Q857.433 34.8216 857.433 29.5149 Q857.433 24.2082 854.395 21.5346 Q851.397 18.8205 845.483 18.8205 L835.193 18.8205 Z" fill="#000000" fill-rule="nonzero" fill-opacity="1" /><path clip-path="url(#clip100)" d="M928.283 32.4315 Q922.288 32.4315 918.804 37.1306 Q915.32 41.7891 915.32 49.9314 Q915.32 58.0738 918.763 62.7728 Q922.247 67.4314 928.283 67.4314 Q934.238 67.4314 937.722 62.7323 Q941.205 58.0333 941.205 49.9314 Q941.205 41.8701 937.722 37.1711 Q934.238 32.4315 928.283 32.4315 M928.283 26.1121 Q938.005 26.1121 943.555 32.4315 Q949.105 38.7509 949.105 49.9314 Q949.105 61.0714 943.555 67.4314 Q938.005 73.7508 928.283 73.7508 Q918.52 73.7508 912.971 67.4314 Q907.461 61.0714 907.461 49.9314 Q907.461 38.7509 912.971 32.4315 Q918.52 26.1121 928.283 26.1121 Z" fill="#000000" fill-rule="nonzero" fill-opacity="1" /><path clip-path="url(#clip100)" d="M999.174 45.1919 L999.174 72.576 L991.72 72.576 L991.72 45.4349 Q991.72 38.994 989.209 35.7938 Q986.697 32.5936 981.674 32.5936 Q975.638 32.5936 972.154 36.4419 Q968.671 40.2903 968.671 46.9338 L968.671 72.576 L961.176 72.576 L961.176 27.2059 L968.671 27.2059 L968.671 34.2544 Q971.344 30.163 974.95 28.1376 Q978.595 26.1121 983.335 26.1121 Q991.153 26.1121 995.164 30.9732 Q999.174 35.7938 999.174 45.1919 Z" fill="#000000" fill-rule="nonzero" fill-opacity="1" /><path clip-path="url(#clip100)" d="M1061.03 49.7694 Q1052 49.7694 1048.51 51.8354 Q1045.03 53.9013 1045.03 58.8839 Q1045.03 62.8538 1047.62 65.2034 Q1050.26 67.5124 1054.75 67.5124 Q1060.95 67.5124 1064.68 63.1374 Q1068.44 58.7219 1068.44 51.4303 L1068.44 49.7694 L1061.03 49.7694 M1075.9 46.6907 L1075.9 72.576 L1068.44 72.576 L1068.44 65.6895 Q1065.89 69.8214 1062.08 71.8063 Q1058.28 73.7508 1052.77 73.7508 Q1045.8 73.7508 1041.67 69.8619 Q1037.58 65.9325 1037.58 59.3701 Q1037.58 51.7138 1042.68 47.825 Q1047.83 43.9361 1057.99 43.9361 L1068.44 43.9361 L1068.44 43.2069 Q1068.44 38.0623 1065.04 35.2672 Q1061.68 32.4315 1055.56 32.4315 Q1051.67 32.4315 1047.99 33.3632 Q1044.3 34.295 1040.9 36.1584 L1040.9 29.2718 Q1044.99 27.692 1048.84 26.9223 Q1052.69 26.1121 1056.33 26.1121 Q1066.18 26.1121 1071.04 31.2163 Q1075.9 36.3204 1075.9 46.6907 Z" fill="#000000" fill-rule="nonzero" fill-opacity="1" /><path clip-path="url(#clip100)" d="M1137.19 39.075 Q1131.68 39.075 1128.44 42.8424 Q1125.24 46.6097 1125.24 53.1722 Q1125.24 59.6941 1128.44 63.502 Q1131.68 67.2693 1137.19 67.2693 Q1142.7 67.2693 1145.9 63.502 Q1149.14 59.6941 1149.14 53.1722 Q1149.14 46.6097 1145.9 42.8424 Q1142.7 39.075 1137.19 39.075 M1153.43 13.4328 L1153.43 20.8865 Q1150.35 19.4281 1147.19 18.6585 Q1144.07 17.8888 1141 17.8888 Q1132.89 17.8888 1128.6 23.3575 Q1124.35 28.8262 1123.74 39.8852 Q1126.13 36.3609 1129.73 34.4975 Q1133.34 32.5936 1137.67 32.5936 Q1146.79 32.5936 1152.06 38.1433 Q1157.36 43.6525 1157.36 53.1722 Q1157.36 62.4892 1151.85 68.12 Q1146.34 73.7508 1137.19 73.7508 Q1126.7 73.7508 1121.15 65.73 Q1115.6 57.6687 1115.6 42.3968 Q1115.6 28.0566 1122.4 19.5497 Q1129.21 11.0023 1140.67 11.0023 Q1143.75 11.0023 1146.87 11.6099 Q1150.03 12.2175 1153.43 13.4328 Z" fill="#000000" fill-rule="nonzero" fill-opacity="1" /><path clip-path="url(#clip100)" d="M1166.64 46.5287 L1188.47 46.5287 L1188.47 53.1722 L1166.64 53.1722 L1166.64 46.5287 Z" fill="#000000" fill-rule="nonzero" fill-opacity="1" /><path clip-path="url(#clip100)" d="M1226.63 34.1734 Q1225.38 33.4443 1223.88 33.1202 Q1222.42 32.7556 1220.64 32.7556 Q1214.32 32.7556 1210.91 36.8875 Q1207.55 40.9789 1207.55 48.6757 L1207.55 72.576 L1200.06 72.576 L1200.06 27.2059 L1207.55 27.2059 L1207.55 34.2544 Q1209.9 30.1225 1213.67 28.1376 Q1217.44 26.1121 1222.82 26.1121 Q1223.59 26.1121 1224.53 26.2337 Q1225.46 26.3147 1226.59 26.5172 L1226.63 34.1734 Z" fill="#000000" fill-rule="nonzero" fill-opacity="1" /><path clip-path="url(#clip100)" d="M1271.44 48.0275 L1271.44 51.6733 L1237.16 51.6733 Q1237.65 59.3701 1241.78 63.421 Q1245.96 67.4314 1253.37 67.4314 Q1257.66 67.4314 1261.67 66.3781 Q1265.72 65.3249 1269.69 63.2184 L1269.69 70.267 Q1265.68 71.9684 1261.47 72.8596 Q1257.26 73.7508 1252.92 73.7508 Q1242.07 73.7508 1235.71 67.4314 Q1229.39 61.1119 1229.39 50.3365 Q1229.39 39.1965 1235.38 32.6746 Q1241.42 26.1121 1251.63 26.1121 Q1260.78 26.1121 1266.09 32.0264 Q1271.44 37.9003 1271.44 48.0275 M1263.98 45.84 Q1263.9 39.7232 1260.54 36.0774 Q1257.22 32.4315 1251.71 32.4315 Q1245.47 32.4315 1241.7 35.9558 Q1237.97 39.4801 1237.41 45.8805 L1263.98 45.84 Z" fill="#000000" fill-rule="nonzero" fill-opacity="1" /><path clip-path="url(#clip100)" d="M1313.52 49.3643 Q1313.52 41.2625 1310.16 36.8065 Q1306.84 32.3505 1300.8 32.3505 Q1294.81 32.3505 1291.45 36.8065 Q1288.12 41.2625 1288.12 49.3643 Q1288.12 57.4256 1291.45 61.8816 Q1294.81 66.3376 1300.8 66.3376 Q1306.84 66.3376 1310.16 61.8816 Q1313.52 57.4256 1313.52 49.3643 M1320.98 66.9452 Q1320.98 78.5308 1315.83 84.1616 Q1310.69 89.8329 1300.08 89.8329 Q1296.15 89.8329 1292.66 89.2252 Q1289.18 88.6581 1285.9 87.4428 L1285.9 80.1917 Q1289.18 81.9741 1292.38 82.8248 Q1295.58 83.6755 1298.9 83.6755 Q1306.23 83.6755 1309.88 79.8271 Q1313.52 76.0193 1313.52 68.282 L1313.52 64.5957 Q1311.22 68.6061 1307.61 70.5911 Q1304 72.576 1298.98 72.576 Q1290.64 72.576 1285.53 66.2161 Q1280.43 59.8562 1280.43 49.3643 Q1280.43 38.832 1285.53 32.472 Q1290.64 26.1121 1298.98 26.1121 Q1304 26.1121 1307.61 28.0971 Q1311.22 30.082 1313.52 34.0924 L1313.52 27.2059 L1320.98 27.2059 L1320.98 66.9452 Z" fill="#000000" fill-rule="nonzero" fill-opacity="1" /><path clip-path="url(#clip100)" d="M1335.56 54.671 L1335.56 27.2059 L1343.01 27.2059 L1343.01 54.3874 Q1343.01 60.8284 1345.53 64.0691 Q1348.04 67.2693 1353.06 67.2693 Q1359.1 67.2693 1362.58 63.421 Q1366.1 59.5726 1366.1 52.9291 L1366.1 27.2059 L1373.56 27.2059 L1373.56 72.576 L1366.1 72.576 L1366.1 65.6084 Q1363.39 69.7404 1359.79 71.7658 Q1356.22 73.7508 1351.48 73.7508 Q1343.66 73.7508 1339.61 68.8897 Q1335.56 64.0286 1335.56 54.671 M1354.32 26.1121 L1354.32 26.1121 Z" fill="#000000" fill-rule="nonzero" fill-opacity="1" /><path clip-path="url(#clip100)" d="M1388.91 9.54393 L1396.37 9.54393 L1396.37 72.576 L1388.91 72.576 L1388.91 9.54393 Z" fill="#000000" fill-rule="nonzero" fill-opacity="1" /><path clip-path="url(#clip100)" d="M1432.58 49.7694 Q1423.55 49.7694 1420.06 51.8354 Q1416.58 53.9013 1416.58 58.8839 Q1416.58 62.8538 1419.17 65.2034 Q1421.8 67.5124 1426.3 67.5124 Q1432.5 67.5124 1436.23 63.1374 Q1439.99 58.7219 1439.99 51.4303 L1439.99 49.7694 L1432.58 49.7694 M1447.45 46.6907 L1447.45 72.576 L1439.99 72.576 L1439.99 65.6895 Q1437.44 69.8214 1433.63 71.8063 Q1429.83 73.7508 1424.32 73.7508 Q1417.35 73.7508 1413.22 69.8619 Q1409.13 65.9325 1409.13 59.3701 Q1409.13 51.7138 1414.23 47.825 Q1419.37 43.9361 1429.54 43.9361 L1439.99 43.9361 L1439.99 43.2069 Q1439.99 38.0623 1436.59 35.2672 Q1433.23 32.4315 1427.11 32.4315 Q1423.22 32.4315 1419.54 33.3632 Q1415.85 34.295 1412.45 36.1584 L1412.45 29.2718 Q1416.54 27.692 1420.39 26.9223 Q1424.24 26.1121 1427.88 26.1121 Q1437.72 26.1121 1442.59 31.2163 Q1447.45 36.3204 1447.45 46.6907 Z" fill="#000000" fill-rule="nonzero" fill-opacity="1" /><path clip-path="url(#clip100)" d="M1489.09 34.1734 Q1487.83 33.4443 1486.34 33.1202 Q1484.88 32.7556 1483.09 32.7556 Q1476.78 32.7556 1473.37 36.8875 Q1470.01 40.9789 1470.01 48.6757 L1470.01 72.576 L1462.52 72.576 L1462.52 27.2059 L1470.01 27.2059 L1470.01 34.2544 Q1472.36 30.1225 1476.13 28.1376 Q1479.89 26.1121 1485.28 26.1121 Q1486.05 26.1121 1486.98 26.2337 Q1487.92 26.3147 1489.05 26.5172 L1489.09 34.1734 Z" fill="#000000" fill-rule="nonzero" fill-opacity="1" /><path clip-path="url(#clip100)" d="M1553.14 49.3643 Q1553.14 41.2625 1549.77 36.8065 Q1546.45 32.3505 1540.42 32.3505 Q1534.42 32.3505 1531.06 36.8065 Q1527.74 41.2625 1527.74 49.3643 Q1527.74 57.4256 1531.06 61.8816 Q1534.42 66.3376 1540.42 66.3376 Q1546.45 66.3376 1549.77 61.8816 Q1553.14 57.4256 1553.14 49.3643 M1560.59 66.9452 Q1560.59 78.5308 1555.44 84.1616 Q1550.3 89.8329 1539.69 89.8329 Q1535.76 89.8329 1532.27 89.2252 Q1528.79 88.6581 1525.51 87.4428 L1525.51 80.1917 Q1528.79 81.9741 1531.99 82.8248 Q1535.19 83.6755 1538.51 83.6755 Q1545.84 83.6755 1549.49 79.8271 Q1553.14 76.0193 1553.14 68.282 L1553.14 64.5957 Q1550.83 68.6061 1547.22 70.5911 Q1543.62 72.576 1538.59 72.576 Q1530.25 72.576 1525.14 66.2161 Q1520.04 59.8562 1520.04 49.3643 Q1520.04 38.832 1525.14 32.472 Q1530.25 26.1121 1538.59 26.1121 Q1543.62 26.1121 1547.22 28.0971 Q1550.83 30.082 1553.14 34.0924 L1553.14 27.2059 L1560.59 27.2059 L1560.59 66.9452 Z" fill="#000000" fill-rule="nonzero" fill-opacity="1" /><path clip-path="url(#clip100)" d="M1602.23 34.1734 Q1600.98 33.4443 1599.48 33.1202 Q1598.02 32.7556 1596.24 32.7556 Q1589.92 32.7556 1586.51 36.8875 Q1583.15 40.9789 1583.15 48.6757 L1583.15 72.576 L1575.66 72.576 L1575.66 27.2059 L1583.15 27.2059 L1583.15 34.2544 Q1585.5 30.1225 1589.27 28.1376 Q1593.04 26.1121 1598.42 26.1121 Q1599.19 26.1121 1600.13 26.2337 Q1601.06 26.3147 1602.19 26.5172 L1602.23 34.1734 Z" fill="#000000" fill-rule="nonzero" fill-opacity="1" /><path clip-path="url(#clip100)" d="M1630.67 49.7694 Q1621.64 49.7694 1618.15 51.8354 Q1614.67 53.9013 1614.67 58.8839 Q1614.67 62.8538 1617.26 65.2034 Q1619.89 67.5124 1624.39 67.5124 Q1630.59 67.5124 1634.32 63.1374 Q1638.08 58.7219 1638.08 51.4303 L1638.08 49.7694 L1630.67 49.7694 M1645.54 46.6907 L1645.54 72.576 L1638.08 72.576 L1638.08 65.6895 Q1635.53 69.8214 1631.72 71.8063 Q1627.91 73.7508 1622.41 73.7508 Q1615.44 73.7508 1611.31 69.8619 Q1607.21 65.9325 1607.21 59.3701 Q1607.21 51.7138 1612.32 47.825 Q1617.46 43.9361 1627.63 43.9361 L1638.08 43.9361 L1638.08 43.2069 Q1638.08 38.0623 1634.68 35.2672 Q1631.32 32.4315 1625.2 32.4315 Q1621.31 32.4315 1617.63 33.3632 Q1613.94 34.295 1610.54 36.1584 L1610.54 29.2718 Q1614.63 27.692 1618.48 26.9223 Q1622.32 26.1121 1625.97 26.1121 Q1635.81 26.1121 1640.68 31.2163 Q1645.54 36.3204 1645.54 46.6907 Z" fill="#000000" fill-rule="nonzero" fill-opacity="1" /><path clip-path="url(#clip100)" d="M1668.1 65.7705 L1668.1 89.8329 L1660.61 89.8329 L1660.61 27.2059 L1668.1 27.2059 L1668.1 34.0924 Q1670.45 30.0415 1674.01 28.0971 Q1677.62 26.1121 1682.6 26.1121 Q1690.87 26.1121 1696.01 32.6746 Q1701.2 39.2371 1701.2 49.9314 Q1701.2 60.6258 1696.01 67.1883 Q1690.87 73.7508 1682.6 73.7508 Q1677.62 73.7508 1674.01 71.8063 Q1670.45 69.8214 1668.1 65.7705 M1693.46 49.9314 Q1693.46 41.7081 1690.06 37.0496 Q1686.69 32.3505 1680.78 32.3505 Q1674.86 32.3505 1671.46 37.0496 Q1668.1 41.7081 1668.1 49.9314 Q1668.1 58.1548 1671.46 62.8538 Q1674.86 67.5124 1680.78 67.5124 Q1686.69 67.5124 1690.06 62.8538 Q1693.46 58.1548 1693.46 49.9314 Z" fill="#000000" fill-rule="nonzero" fill-opacity="1" /><path clip-path="url(#clip100)" d="M1751.26 45.1919 L1751.26 72.576 L1743.81 72.576 L1743.81 45.4349 Q1743.81 38.994 1741.3 35.7938 Q1738.79 32.5936 1733.76 32.5936 Q1727.73 32.5936 1724.25 36.4419 Q1720.76 40.2903 1720.76 46.9338 L1720.76 72.576 L1713.27 72.576 L1713.27 9.54393 L1720.76 9.54393 L1720.76 34.2544 Q1723.44 30.163 1727.04 28.1376 Q1730.69 26.1121 1735.43 26.1121 Q1743.24 26.1121 1747.25 30.9732 Q1751.26 35.7938 1751.26 45.1919 Z" fill="#000000" fill-rule="nonzero" fill-opacity="1" /><path clip-path="url(#clip100)" d="M1810.41 9.62495 Q1804.98 18.942 1802.35 28.0566 Q1799.71 37.1711 1799.71 46.5287 Q1799.71 55.8863 1802.35 65.0818 Q1805.02 74.2369 1810.41 83.5134 L1803.93 83.5134 Q1797.85 73.9938 1794.81 64.7983 Q1791.81 55.6027 1791.81 46.5287 Q1791.81 37.4952 1794.81 28.3401 Q1797.81 19.1851 1803.93 9.62495 L1810.41 9.62495 Z" fill="#000000" fill-rule="nonzero" fill-opacity="1" /><path clip-path="url(#clip100)" d="M1825.19 12.096 L1836.21 12.096 L1863.03 62.6918 L1863.03 12.096 L1870.97 12.096 L1870.97 72.576 L1859.95 72.576 L1833.13 21.9802 L1833.13 72.576 L1825.19 72.576 L1825.19 12.096 Z" fill="#000000" fill-rule="nonzero" fill-opacity="1" /><path clip-path="url(#clip100)" d="M1887.9 34.9026 L1939.83 34.9026 L1939.83 41.7081 L1887.9 41.7081 L1887.9 34.9026 M1887.9 51.4303 L1939.83 51.4303 L1939.83 58.3168 L1887.9 58.3168 L1887.9 51.4303 Z" fill="#000000" fill-rule="nonzero" fill-opacity="1" /><path clip-path="url(#clip100)" d="M1958.91 65.6895 L1972.28 65.6895 L1972.28 19.5497 L1957.74 22.4663 L1957.74 15.0127 L1972.2 12.096 L1980.38 12.096 L1980.38 65.6895 L1993.75 65.6895 L1993.75 72.576 L1958.91 72.576 L1958.91 65.6895 Z" fill="#000000" fill-rule="nonzero" fill-opacity="1" /><path clip-path="url(#clip100)" d="M2027.78 17.4837 Q2021.46 17.4837 2018.26 23.7221 Q2015.1 29.92 2015.1 42.3968 Q2015.1 54.833 2018.26 61.0714 Q2021.46 67.2693 2027.78 67.2693 Q2034.14 67.2693 2037.3 61.0714 Q2040.5 54.833 2040.5 42.3968 Q2040.5 29.92 2037.3 23.7221 Q2034.14 17.4837 2027.78 17.4837 M2027.78 11.0023 Q2037.95 11.0023 2043.29 19.0636 Q2048.68 27.0843 2048.68 42.3968 Q2048.68 57.6687 2043.29 65.73 Q2037.95 73.7508 2027.78 73.7508 Q2017.61 73.7508 2012.22 65.73 Q2006.88 57.6687 2006.88 42.3968 Q2006.88 27.0843 2012.22 19.0636 Q2017.61 11.0023 2027.78 11.0023 Z" fill="#000000" fill-rule="nonzero" fill-opacity="1" /><path clip-path="url(#clip100)" d="M2080.56 17.4837 Q2074.24 17.4837 2071.04 23.7221 Q2067.88 29.92 2067.88 42.3968 Q2067.88 54.833 2071.04 61.0714 Q2074.24 67.2693 2080.56 67.2693 Q2086.92 67.2693 2090.08 61.0714 Q2093.28 54.833 2093.28 42.3968 Q2093.28 29.92 2090.08 23.7221 Q2086.92 17.4837 2080.56 17.4837 M2080.56 11.0023 Q2090.73 11.0023 2096.08 19.0636 Q2101.47 27.0843 2101.47 42.3968 Q2101.47 57.6687 2096.08 65.73 Q2090.73 73.7508 2080.56 73.7508 Q2070.4 73.7508 2065.01 65.73 Q2059.66 57.6687 2059.66 42.3968 Q2059.66 27.0843 2065.01 19.0636 Q2070.4 11.0023 2080.56 11.0023 Z" fill="#000000" fill-rule="nonzero" fill-opacity="1" /><path clip-path="url(#clip100)" d="M2113.62 9.62495 L2120.1 9.62495 Q2126.18 19.1851 2129.17 28.3401 Q2132.21 37.4952 2132.21 46.5287 Q2132.21 55.6027 2129.17 64.7983 Q2126.18 73.9938 2120.1 83.5134 L2113.62 83.5134 Q2119.01 74.2369 2121.64 65.0818 Q2124.31 55.8863 2124.31 46.5287 Q2124.31 37.1711 2121.64 28.0566 Q2119.01 18.942 2113.62 9.62495 Z" fill="#000000" fill-rule="nonzero" fill-opacity="1" /><polyline clip-path="url(#clip101)" style="stroke:#0000ff; stroke-linecap:round; stroke-linejoin:round; stroke-width:8; stroke-opacity:1; fill:none" points="306.647,187.239 320.811,195.064 334.974,205.551 349.137,219.921 363.3,239.787 377.464,267.259 391.627,304.995 405.79,356.115 419.954,423.865 434.117,510.856 448.28,617.927 462.443,742.832 476.607,879.509 490.77,1019 504.933,1151.45 519.097,1269.05 533.26,1367.49 547.423,1446.16 561.586,1506.86 575.75,1552.64 589.913,1586.67 604.076,1611.75 618.24,1630.25 632.403,1643.91 646.566,1654.04 660.729,1661.62 674.893,1667.32 689.056,1671.64 703.219,1674.96 717.382,1677.52 731.546,1679.51 745.709,1681.08 759.872,1682.33 774.036,1683.32 788.199,1684.12 802.362,1684.77 816.525,1685.31 830.689,1685.75 844.852,1686.11 859.015,1686.41 873.179,1686.67 887.342,1686.89 901.505,1687.07 915.668,1687.23 929.832,1687.36 943.995,1687.48 958.158,1687.58 972.322,1687.67 986.485,1687.74 1000.65,1687.81 1014.81,1687.87 1028.97,1687.93 1043.14,1687.97 1057.3,1688.01 1071.46,1688.05 1085.63,1688.09 1099.79,1688.12 1113.95,1688.14 1128.12,1688.17 1142.28,1688.19 1156.44,1688.21 1170.61,1688.23 1184.77,1688.25 1198.93,1688.26 1213.1,1688.28 1227.26,1688.29 1241.42,1688.3 1255.59,1688.31 1269.75,1688.32 1283.91,1688.33 1298.08,1688.34 1312.24,1688.35 1326.4,1688.36 1340.57,1688.36 1354.73,1688.37 1368.89,1688.37 1383.06,1688.38 1397.22,1688.39 1411.38,1688.39 1425.55,1688.39 1439.71,1688.4 1453.87,1688.4 1468.04,1688.41 1482.2,1688.41 1496.36,1688.41 1510.53,1688.42 1524.69,1688.42 1538.85,1688.42 1553.02,1688.42 1567.18,1688.43 1581.34,1688.43 1595.51,1688.43 1609.67,1688.43 1623.83,1688.44 1638,1688.44 1652.16,1688.44 1666.32,1688.44 1680.49,1688.44 1694.65,1688.44 1708.81,1688.44 1722.98,1688.45 1737.14,1688.45 1751.3,1688.45 1765.47,1688.45 1779.63,1688.45 1793.79,1688.45 1807.96,1688.45 1822.12,1688.45 1836.28,1688.45 1850.44,1688.45 1864.61,1688.46 1878.77,1688.46 1892.93,1688.46 1907.1,1688.46 1921.26,1688.46 1935.42,1688.46 1949.59,1688.46 1963.75,1688.46 1977.91,1688.46 1992.08,1688.46 2006.24,1688.46 2020.4,1688.46 2034.57,1688.46 2048.73,1688.46 2062.89,1688.46 2077.06,1688.46 2091.22,1688.46 2105.38,1688.46 2119.55,1688.46 2133.71,1688.46 2147.87,1688.46 2162.04,1688.46 2176.2,1688.46 2190.36,1688.47 2204.53,1688.47 2218.69,1688.47 2232.85,1688.47 2247.02,1688.47 2261.18,1688.47 2275.34,1688.47 2289.51,1688.47 2303.67,1688.47 2317.83,1688.47 2332,1688.47 2346.16,1688.47 2360.32,1688.47 2374.49,1688.47 2388.65,1688.47 2402.81,1688.47 2416.98,1688.47 2431.14,1688.47 2445.3,1688.47 2459.47,1688.47 2473.63,1688.47 2487.79,1688.47 2501.96,1688.47 2516.12,1688.47 2530.28,1688.47 2544.45,1688.47 2558.61,1688.47 2572.77,1688.47 "/>
<polyline clip-path="url(#clip101)" style="stroke:#ff0000; stroke-linecap:round; stroke-linejoin:round; stroke-width:8; stroke-opacity:1; fill:none" points="306.647,1673.49 320.811,1666.59 334.974,1657.42 349.137,1644.91 363.3,1627.64 377.464,1603.78 391.627,1571.07 405.79,1526.88 419.954,1468.61 434.117,1394.41 448.28,1304.24 462.443,1201.09 476.607,1091.52 490.77,984.595 504.933,889.786 519.097,814.113 533.26,760.821 547.423,729.411 561.586,717.061 575.75,719.834 589.913,733.93 604.076,756.073 618.24,783.534 632.403,814.371 646.566,847.136 660.729,880.796 674.893,914.645 689.056,948.179 703.219,981.063 717.382,1013.08 731.546,1044.08 745.709,1073.99 759.872,1102.76 774.036,1130.36 788.199,1156.81 802.362,1182.11 816.525,1206.3 830.689,1229.39 844.852,1251.44 859.015,1272.46 873.179,1292.51 887.342,1311.62 901.505,1329.83 915.668,1347.18 929.832,1363.7 943.995,1379.43 958.158,1394.42 972.322,1408.68 986.485,1422.26 1000.65,1435.19 1014.81,1447.49 1028.97,1459.2 1043.14,1470.34 1057.3,1480.95 1071.46,1491.04 1085.63,1500.65 1099.79,1509.79 1113.95,1518.49 1128.12,1526.76 1142.28,1534.63 1156.44,1542.13 1170.61,1549.26 1184.77,1556.04 1198.93,1562.49 1213.1,1568.63 1227.26,1574.47 1241.42,1580.03 1255.59,1585.31 1269.75,1590.34 1283.91,1595.13 1298.08,1599.68 1312.24,1604.01 1326.4,1608.14 1340.57,1612.06 1354.73,1615.79 1368.89,1619.33 1383.06,1622.71 1397.22,1625.92 1411.38,1628.97 1425.55,1631.88 1439.71,1634.64 1453.87,1637.28 1468.04,1639.78 1482.2,1642.16 1496.36,1644.42 1510.53,1646.58 1524.69,1648.63 1538.85,1650.58 1553.02,1652.43 1567.18,1654.19 1581.34,1655.87 1595.51,1657.47 1609.67,1658.99 1623.83,1660.43 1638,1661.81 1652.16,1663.12 1666.32,1664.36 1680.49,1665.54 1694.65,1666.67 1708.81,1667.74 1722.98,1668.76 1737.14,1669.73 1751.3,1670.65 1765.47,1671.53 1779.63,1672.36 1793.79,1673.15 1807.96,1673.91 1822.12,1674.63 1836.28,1675.31 1850.44,1675.96 1864.61,1676.58 1878.77,1677.17 1892.93,1677.73 1907.1,1678.26 1921.26,1678.77 1935.42,1679.25 1949.59,1679.71 1963.75,1680.14 1977.91,1680.56 1992.08,1680.95 2006.24,1681.33 2020.4,1681.68 2034.57,1682.02 2048.73,1682.35 2062.89,1682.65 2077.06,1682.95 2091.22,1683.22 2105.38,1683.49 2119.55,1683.74 2133.71,1683.98 2147.87,1684.21 2162.04,1684.42 2176.2,1684.63 2190.36,1684.83 2204.53,1685.01 2218.69,1685.19 2232.85,1685.36 2247.02,1685.52 2261.18,1685.67 2275.34,1685.82 2289.51,1685.96 2303.67,1686.09 2317.83,1686.21 2332,1686.33 2346.16,1686.44 2360.32,1686.55 2374.49,1686.65 2388.65,1686.75 2402.81,1686.84 2416.98,1686.93 2431.14,1687.02 2445.3,1687.1 2459.47,1687.17 2473.63,1687.24 2487.79,1687.31 2501.96,1687.38 2516.12,1687.44 2530.28,1687.5 2544.45,1687.56 2558.61,1687.61 2572.77,1687.66 "/>
<polyline clip-path="url(#clip101)" style="stroke:#008000; stroke-linecap:round; stroke-linejoin:round; stroke-width:8; stroke-opacity:1; fill:none" points="306.647,1688.65 320.811,1687.73 334.974,1686.41 349.137,1684.55 363.3,1681.96 377.464,1678.34 391.627,1673.32 405.79,1666.39 419.954,1656.91 434.117,1644.12 448.28,1627.22 462.443,1605.46 476.607,1578.35 490.77,1545.79 504.933,1508.14 519.097,1466.22 533.26,1421.07 547.423,1373.81 561.586,1325.46 575.75,1276.91 589.913,1228.78 604.076,1181.56 618.24,1135.6 632.403,1091.11 646.566,1048.2 660.729,1006.97 674.893,967.422 689.056,929.561 703.219,893.363 717.382,858.788 731.546,825.788 745.709,794.312 759.872,764.303 774.036,735.703 788.199,708.454 802.362,682.499 816.525,657.781 830.689,634.245 844.852,611.837 859.015,590.506 873.179,570.202 887.342,550.876 901.505,532.483 915.668,514.979 929.832,498.322 943.995,482.47 958.158,467.386 972.322,453.034 986.485,439.377 1000.65,426.384 1014.81,414.021 1028.97,402.258 1043.14,391.066 1057.3,380.418 1071.46,370.287 1085.63,360.649 1099.79,351.479 1113.95,342.755 1128.12,334.455 1142.28,326.558 1156.44,319.046 1170.61,311.898 1184.77,305.099 1198.93,298.63 1213.1,292.477 1227.26,286.624 1241.42,281.055 1255.59,275.758 1269.75,270.718 1283.91,265.923 1298.08,261.361 1312.24,257.021 1326.4,252.893 1340.57,248.965 1354.73,245.229 1368.89,241.676 1383.06,238.295 1397.22,235.079 1411.38,232.019 1425.55,229.109 1439.71,226.339 1453.87,223.705 1468.04,221.198 1482.2,218.814 1496.36,216.546 1510.53,214.388 1524.69,212.336 1538.85,210.385 1553.02,208.528 1567.18,206.762 1581.34,205.081 1595.51,203.483 1609.67,201.962 1623.83,200.514 1638,199.138 1652.16,197.828 1666.32,196.582 1680.49,195.397 1694.65,194.27 1708.81,193.198 1722.98,192.178 1737.14,191.208 1751.3,190.285 1765.47,189.407 1779.63,188.572 1793.79,187.777 1807.96,187.021 1822.12,186.302 1836.28,185.617 1850.44,184.966 1864.61,184.347 1878.77,183.758 1892.93,183.198 1907.1,182.665 1921.26,182.159 1935.42,181.677 1949.59,181.218 1963.75,180.782 1977.91,180.367 1992.08,179.971 2006.24,179.596 2020.4,179.238 2034.57,178.898 2048.73,178.574 2062.89,178.267 2077.06,177.974 2091.22,177.695 2105.38,177.431 2119.55,177.179 2133.71,176.939 2147.87,176.711 2162.04,176.495 2176.2,176.288 2190.36,176.092 2204.53,175.905 2218.69,175.727 2232.85,175.558 2247.02,175.398 2261.18,175.245 2275.34,175.099 2289.51,174.961 2303.67,174.829 2317.83,174.704 2332,174.585 2346.16,174.472 2360.32,174.364 2374.49,174.261 2388.65,174.164 2402.81,174.071 2416.98,173.983 2431.14,173.899 2445.3,173.819 2459.47,173.743 2473.63,173.671 2487.79,173.602 2501.96,173.536 2516.12,173.474 2530.28,173.415 2544.45,173.359 2558.61,173.305 2572.77,173.254 "/>
<path clip-path="url(#clip100)" d="M318.733 388.696 L865.284 388.696 L865.284 181.336 L318.733 181.336  Z" fill="#ffffff" fill-rule="evenodd" fill-opacity="1"/>
<polyline clip-path="url(#clip100)" style="stroke:#000000; stroke-linecap:round; stroke-linejoin:round; stroke-width:4; stroke-opacity:1; fill:none" points="318.733,388.696 865.284,388.696 865.284,181.336 318.733,181.336 318.733,388.696 "/>
<polyline clip-path="url(#clip100)" style="stroke:#0000ff; stroke-linecap:round; stroke-linejoin:round; stroke-width:8; stroke-opacity:1; fill:none" points="345.423,233.176 505.563,233.176 "/>
<path clip-path="url(#clip100)" d="M554.498 217.031 L554.498 221.591 Q551.836 220.318 549.475 219.693 Q547.114 219.068 544.915 219.068 Q541.095 219.068 539.012 220.549 Q536.952 222.031 536.952 224.762 Q536.952 227.054 538.317 228.234 Q539.706 229.392 543.549 230.109 L546.373 230.688 Q551.604 231.683 554.081 234.206 Q556.581 236.706 556.581 240.919 Q556.581 245.942 553.202 248.535 Q549.845 251.128 543.341 251.128 Q540.887 251.128 538.109 250.572 Q535.355 250.016 532.392 248.929 L532.392 244.114 Q535.239 245.711 537.97 246.521 Q540.702 247.331 543.341 247.331 Q547.345 247.331 549.521 245.757 Q551.697 244.183 551.697 241.267 Q551.697 238.72 550.123 237.285 Q548.572 235.85 545.007 235.132 L542.16 234.577 Q536.929 233.535 534.591 231.313 Q532.253 229.091 532.253 225.132 Q532.253 220.549 535.47 217.91 Q538.711 215.271 544.382 215.271 Q546.813 215.271 549.336 215.711 Q551.859 216.151 554.498 217.031 Z" fill="#000000" fill-rule="nonzero" fill-opacity="1" /><path clip-path="url(#clip100)" d="M588.988 214.484 Q585.887 219.808 584.382 225.017 Q582.877 230.225 582.877 235.572 Q582.877 240.919 584.382 246.174 Q585.91 251.405 588.988 256.706 L585.285 256.706 Q581.813 251.266 580.077 246.012 Q578.364 240.757 578.364 235.572 Q578.364 230.41 580.077 225.179 Q581.789 219.947 585.285 214.484 L588.988 214.484 Z" fill="#000000" fill-rule="nonzero" fill-opacity="1" /><path clip-path="url(#clip100)" d="M597.252 224.531 L601.512 224.531 L601.512 250.456 L597.252 250.456 L597.252 224.531 M597.252 214.438 L601.512 214.438 L601.512 219.831 L597.252 219.831 L597.252 214.438 Z" fill="#000000" fill-rule="nonzero" fill-opacity="1" /><path clip-path="url(#clip100)" d="M631.974 234.808 L631.974 250.456 L627.715 250.456 L627.715 234.947 Q627.715 231.267 626.28 229.438 Q624.845 227.609 621.974 227.609 Q618.525 227.609 616.535 229.808 Q614.544 232.007 614.544 235.804 L614.544 250.456 L610.262 250.456 L610.262 224.531 L614.544 224.531 L614.544 228.558 Q616.072 226.22 618.132 225.063 Q620.215 223.906 622.923 223.906 Q627.391 223.906 629.683 226.683 Q631.974 229.438 631.974 234.808 Z" fill="#000000" fill-rule="nonzero" fill-opacity="1" /><path clip-path="url(#clip100)" d="M657.53 228.466 L657.53 214.438 L661.789 214.438 L661.789 250.456 L657.53 250.456 L657.53 246.567 Q656.187 248.882 654.127 250.016 Q652.09 251.128 649.22 251.128 Q644.521 251.128 641.558 247.378 Q638.618 243.628 638.618 237.517 Q638.618 231.405 641.558 227.655 Q644.521 223.906 649.22 223.906 Q652.09 223.906 654.127 225.04 Q656.187 226.151 657.53 228.466 M643.016 237.517 Q643.016 242.216 644.937 244.901 Q646.882 247.563 650.261 247.563 Q653.641 247.563 655.585 244.901 Q657.53 242.216 657.53 237.517 Q657.53 232.817 655.585 230.155 Q653.641 227.47 650.261 227.47 Q646.882 227.47 644.937 230.155 Q643.016 232.817 643.016 237.517 Z" fill="#000000" fill-rule="nonzero" fill-opacity="1" /><path clip-path="url(#clip100)" d="M670.562 224.531 L674.821 224.531 L674.821 250.456 L670.562 250.456 L670.562 224.531 M670.562 214.438 L674.821 214.438 L674.821 219.831 L670.562 219.831 L670.562 214.438 Z" fill="#000000" fill-rule="nonzero" fill-opacity="1" /><path clip-path="url(#clip100)" d="M680.678 224.531 L685.192 224.531 L693.293 246.29 L701.395 224.531 L705.909 224.531 L696.187 250.456 L690.4 250.456 L680.678 224.531 Z" fill="#000000" fill-rule="nonzero" fill-opacity="1" /><path clip-path="url(#clip100)" d="M711.789 224.531 L716.048 224.531 L716.048 250.456 L711.789 250.456 L711.789 224.531 M711.789 214.438 L716.048 214.438 L716.048 219.831 L711.789 219.831 L711.789 214.438 Z" fill="#000000" fill-rule="nonzero" fill-opacity="1" /><path clip-path="url(#clip100)" d="M742.02 228.466 L742.02 214.438 L746.279 214.438 L746.279 250.456 L742.02 250.456 L742.02 246.567 Q740.677 248.882 738.617 250.016 Q736.58 251.128 733.71 251.128 Q729.011 251.128 726.048 247.378 Q723.108 243.628 723.108 237.517 Q723.108 231.405 726.048 227.655 Q729.011 223.906 733.71 223.906 Q736.58 223.906 738.617 225.04 Q740.677 226.151 742.02 228.466 M727.506 237.517 Q727.506 242.216 729.428 244.901 Q731.372 247.563 734.752 247.563 Q738.131 247.563 740.076 244.901 Q742.02 242.216 742.02 237.517 Q742.02 232.817 740.076 230.155 Q738.131 227.47 734.752 227.47 Q731.372 227.47 729.428 230.155 Q727.506 232.817 727.506 237.517 Z" fill="#000000" fill-rule="nonzero" fill-opacity="1" /><path clip-path="url(#clip100)" d="M754.613 240.225 L754.613 224.531 L758.872 224.531 L758.872 240.063 Q758.872 243.743 760.307 245.595 Q761.742 247.424 764.613 247.424 Q768.062 247.424 770.052 245.225 Q772.066 243.026 772.066 239.229 L772.066 224.531 L776.325 224.531 L776.325 250.456 L772.066 250.456 L772.066 246.475 Q770.515 248.836 768.455 249.993 Q766.418 251.128 763.71 251.128 Q759.242 251.128 756.927 248.35 Q754.613 245.572 754.613 240.225 M765.33 223.906 L765.33 223.906 Z" fill="#000000" fill-rule="nonzero" fill-opacity="1" /><path clip-path="url(#clip100)" d="M796.881 237.424 Q791.719 237.424 789.728 238.604 Q787.737 239.785 787.737 242.632 Q787.737 244.901 789.219 246.243 Q790.724 247.563 793.293 247.563 Q796.835 247.563 798.964 245.063 Q801.117 242.54 801.117 238.373 L801.117 237.424 L796.881 237.424 M805.376 235.665 L805.376 250.456 L801.117 250.456 L801.117 246.521 Q799.659 248.882 797.483 250.016 Q795.307 251.128 792.159 251.128 Q788.177 251.128 785.816 248.905 Q783.478 246.66 783.478 242.91 Q783.478 238.535 786.395 236.313 Q789.335 234.091 795.145 234.091 L801.117 234.091 L801.117 233.674 Q801.117 230.734 799.173 229.137 Q797.251 227.517 793.756 227.517 Q791.534 227.517 789.427 228.049 Q787.321 228.581 785.376 229.646 L785.376 225.711 Q787.714 224.808 789.913 224.368 Q792.112 223.906 794.196 223.906 Q799.821 223.906 802.598 226.822 Q805.376 229.739 805.376 235.665 Z" fill="#000000" fill-rule="nonzero" fill-opacity="1" /><path clip-path="url(#clip100)" d="M814.149 214.438 L818.409 214.438 L818.409 250.456 L814.149 250.456 L814.149 214.438 Z" fill="#000000" fill-rule="nonzero" fill-opacity="1" /><path clip-path="url(#clip100)" d="M826.649 214.484 L830.353 214.484 Q833.825 219.947 835.538 225.179 Q837.274 230.41 837.274 235.572 Q837.274 240.757 835.538 246.012 Q833.825 251.266 830.353 256.706 L826.649 256.706 Q829.728 251.405 831.233 246.174 Q832.76 240.919 832.76 235.572 Q832.76 230.225 831.233 225.017 Q829.728 219.808 826.649 214.484 Z" fill="#000000" fill-rule="nonzero" fill-opacity="1" /><polyline clip-path="url(#clip100)" style="stroke:#ff0000; stroke-linecap:round; stroke-linejoin:round; stroke-width:8; stroke-opacity:1; fill:none" points="345.423,285.016 505.563,285.016 "/>
<path clip-path="url(#clip100)" d="M532.253 267.736 L536.929 267.736 L536.929 302.296 L532.253 302.296 L532.253 267.736 Z" fill="#000000" fill-rule="nonzero" fill-opacity="1" /><path clip-path="url(#clip100)" d="M571.35 266.324 Q568.248 271.648 566.743 276.857 Q565.239 282.065 565.239 287.412 Q565.239 292.759 566.743 298.014 Q568.271 303.245 571.35 308.546 L567.646 308.546 Q564.174 303.106 562.438 297.852 Q560.725 292.597 560.725 287.412 Q560.725 282.25 562.438 277.019 Q564.151 271.787 567.646 266.324 L571.35 266.324 Z" fill="#000000" fill-rule="nonzero" fill-opacity="1" /><path clip-path="url(#clip100)" d="M579.614 276.371 L583.873 276.371 L583.873 302.296 L579.614 302.296 L579.614 276.371 M579.614 266.278 L583.873 266.278 L583.873 271.671 L579.614 271.671 L579.614 266.278 Z" fill="#000000" fill-rule="nonzero" fill-opacity="1" /><path clip-path="url(#clip100)" d="M614.336 286.648 L614.336 302.296 L610.076 302.296 L610.076 286.787 Q610.076 283.107 608.641 281.278 Q607.206 279.449 604.336 279.449 Q600.887 279.449 598.896 281.648 Q596.905 283.847 596.905 287.644 L596.905 302.296 L592.623 302.296 L592.623 276.371 L596.905 276.371 L596.905 280.398 Q598.433 278.06 600.493 276.903 Q602.576 275.746 605.285 275.746 Q609.752 275.746 612.044 278.523 Q614.336 281.278 614.336 286.648 Z" fill="#000000" fill-rule="nonzero" fill-opacity="1" /><path clip-path="url(#clip100)" d="M639.891 280.306 L639.891 266.278 L644.15 266.278 L644.15 302.296 L639.891 302.296 L639.891 298.407 Q638.548 300.722 636.488 301.856 Q634.451 302.968 631.581 302.968 Q626.882 302.968 623.919 299.218 Q620.979 295.468 620.979 289.357 Q620.979 283.245 623.919 279.495 Q626.882 275.746 631.581 275.746 Q634.451 275.746 636.488 276.88 Q638.548 277.991 639.891 280.306 M625.377 289.357 Q625.377 294.056 627.298 296.741 Q629.243 299.403 632.623 299.403 Q636.002 299.403 637.947 296.741 Q639.891 294.056 639.891 289.357 Q639.891 284.657 637.947 281.995 Q636.002 279.31 632.623 279.31 Q629.243 279.31 627.298 281.995 Q625.377 284.657 625.377 289.357 Z" fill="#000000" fill-rule="nonzero" fill-opacity="1" /><path clip-path="url(#clip100)" d="M652.923 276.371 L657.183 276.371 L657.183 302.296 L652.923 302.296 L652.923 276.371 M652.923 266.278 L657.183 266.278 L657.183 271.671 L652.923 271.671 L652.923 266.278 Z" fill="#000000" fill-rule="nonzero" fill-opacity="1" /><path clip-path="url(#clip100)" d="M663.039 276.371 L667.553 276.371 L675.655 298.13 L683.757 276.371 L688.27 276.371 L678.548 302.296 L672.761 302.296 L663.039 276.371 Z" fill="#000000" fill-rule="nonzero" fill-opacity="1" /><path clip-path="url(#clip100)" d="M694.15 276.371 L698.409 276.371 L698.409 302.296 L694.15 302.296 L694.15 276.371 M694.15 266.278 L698.409 266.278 L698.409 271.671 L694.15 271.671 L694.15 266.278 Z" fill="#000000" fill-rule="nonzero" fill-opacity="1" /><path clip-path="url(#clip100)" d="M724.381 280.306 L724.381 266.278 L728.641 266.278 L728.641 302.296 L724.381 302.296 L724.381 298.407 Q723.039 300.722 720.979 301.856 Q718.942 302.968 716.071 302.968 Q711.372 302.968 708.409 299.218 Q705.469 295.468 705.469 289.357 Q705.469 283.245 708.409 279.495 Q711.372 275.746 716.071 275.746 Q718.942 275.746 720.979 276.88 Q723.039 277.991 724.381 280.306 M709.867 289.357 Q709.867 294.056 711.789 296.741 Q713.733 299.403 717.113 299.403 Q720.492 299.403 722.437 296.741 Q724.381 294.056 724.381 289.357 Q724.381 284.657 722.437 281.995 Q720.492 279.31 717.113 279.31 Q713.733 279.31 711.789 281.995 Q709.867 284.657 709.867 289.357 Z" fill="#000000" fill-rule="nonzero" fill-opacity="1" /><path clip-path="url(#clip100)" d="M736.974 292.065 L736.974 276.371 L741.233 276.371 L741.233 291.903 Q741.233 295.583 742.668 297.435 Q744.103 299.264 746.974 299.264 Q750.423 299.264 752.414 297.065 Q754.427 294.866 754.427 291.069 L754.427 276.371 L758.687 276.371 L758.687 302.296 L754.427 302.296 L754.427 298.315 Q752.877 300.676 750.816 301.833 Q748.779 302.968 746.071 302.968 Q741.603 302.968 739.289 300.19 Q736.974 297.412 736.974 292.065 M747.691 275.746 L747.691 275.746 Z" fill="#000000" fill-rule="nonzero" fill-opacity="1" /><path clip-path="url(#clip100)" d="M779.242 289.264 Q774.08 289.264 772.089 290.444 Q770.099 291.625 770.099 294.472 Q770.099 296.741 771.58 298.083 Q773.085 299.403 775.654 299.403 Q779.196 299.403 781.325 296.903 Q783.478 294.38 783.478 290.213 L783.478 289.264 L779.242 289.264 M787.737 287.505 L787.737 302.296 L783.478 302.296 L783.478 298.361 Q782.02 300.722 779.844 301.856 Q777.668 302.968 774.52 302.968 Q770.538 302.968 768.177 300.745 Q765.839 298.5 765.839 294.75 Q765.839 290.375 768.756 288.153 Q771.696 285.931 777.506 285.931 L783.478 285.931 L783.478 285.514 Q783.478 282.574 781.534 280.977 Q779.612 279.357 776.117 279.357 Q773.895 279.357 771.788 279.889 Q769.682 280.421 767.738 281.486 L767.738 277.551 Q770.075 276.648 772.275 276.208 Q774.474 275.746 776.557 275.746 Q782.182 275.746 784.96 278.662 Q787.737 281.579 787.737 287.505 Z" fill="#000000" fill-rule="nonzero" fill-opacity="1" /><path clip-path="url(#clip100)" d="M796.511 266.278 L800.77 266.278 L800.77 302.296 L796.511 302.296 L796.511 266.278 Z" fill="#000000" fill-rule="nonzero" fill-opacity="1" /><path clip-path="url(#clip100)" d="M809.01 266.324 L812.714 266.324 Q816.186 271.787 817.899 277.019 Q819.635 282.25 819.635 287.412 Q819.635 292.597 817.899 297.852 Q816.186 303.106 812.714 308.546 L809.01 308.546 Q812.089 303.245 813.594 298.014 Q815.122 292.759 815.122 287.412 Q815.122 282.065 813.594 276.857 Q812.089 271.648 809.01 266.324 Z" fill="#000000" fill-rule="nonzero" fill-opacity="1" /><polyline clip-path="url(#clip100)" style="stroke:#008000; stroke-linecap:round; stroke-linejoin:round; stroke-width:8; stroke-opacity:1; fill:none" points="345.423,336.856 505.563,336.856 "/>
<path clip-path="url(#clip100)" d="M548.641 337.933 Q550.146 338.442 551.558 340.109 Q552.993 341.775 554.428 344.692 L559.174 354.136 L554.151 354.136 L549.729 345.271 Q548.016 341.798 546.396 340.664 Q544.799 339.53 542.021 339.53 L536.929 339.53 L536.929 354.136 L532.253 354.136 L532.253 319.576 L542.808 319.576 Q548.734 319.576 551.651 322.053 Q554.567 324.53 554.567 329.53 Q554.567 332.794 553.04 334.947 Q551.535 337.099 548.641 337.933 M536.929 323.419 L536.929 335.687 L542.808 335.687 Q546.188 335.687 547.901 334.136 Q549.637 332.562 549.637 329.53 Q549.637 326.498 547.901 324.97 Q546.188 323.419 542.808 323.419 L536.929 323.419 Z" fill="#000000" fill-rule="nonzero" fill-opacity="1" /><path clip-path="url(#clip100)" d="M590.308 318.164 Q587.206 323.488 585.701 328.697 Q584.197 333.905 584.197 339.252 Q584.197 344.599 585.701 349.854 Q587.229 355.085 590.308 360.386 L586.604 360.386 Q583.132 354.946 581.396 349.692 Q579.683 344.437 579.683 339.252 Q579.683 334.09 581.396 328.859 Q583.109 323.627 586.604 318.164 L590.308 318.164 Z" fill="#000000" fill-rule="nonzero" fill-opacity="1" /><path clip-path="url(#clip100)" d="M598.572 328.211 L602.831 328.211 L602.831 354.136 L598.572 354.136 L598.572 328.211 M598.572 318.118 L602.831 318.118 L602.831 323.511 L598.572 323.511 L598.572 318.118 Z" fill="#000000" fill-rule="nonzero" fill-opacity="1" /><path clip-path="url(#clip100)" d="M633.294 338.488 L633.294 354.136 L629.035 354.136 L629.035 338.627 Q629.035 334.947 627.599 333.118 Q626.164 331.289 623.294 331.289 Q619.845 331.289 617.854 333.488 Q615.863 335.687 615.863 339.484 L615.863 354.136 L611.581 354.136 L611.581 328.211 L615.863 328.211 L615.863 332.238 Q617.391 329.9 619.451 328.743 Q621.535 327.586 624.243 327.586 Q628.711 327.586 631.002 330.363 Q633.294 333.118 633.294 338.488 Z" fill="#000000" fill-rule="nonzero" fill-opacity="1" /><path clip-path="url(#clip100)" d="M658.849 332.146 L658.849 318.118 L663.108 318.118 L663.108 354.136 L658.849 354.136 L658.849 350.247 Q657.507 352.562 655.446 353.696 Q653.409 354.808 650.539 354.808 Q645.84 354.808 642.877 351.058 Q639.937 347.308 639.937 341.197 Q639.937 335.085 642.877 331.335 Q645.84 327.586 650.539 327.586 Q653.409 327.586 655.446 328.72 Q657.507 329.831 658.849 332.146 M644.335 341.197 Q644.335 345.896 646.257 348.581 Q648.201 351.243 651.581 351.243 Q654.96 351.243 656.905 348.581 Q658.849 345.896 658.849 341.197 Q658.849 336.497 656.905 333.835 Q654.96 331.15 651.581 331.15 Q648.201 331.15 646.257 333.835 Q644.335 336.497 644.335 341.197 Z" fill="#000000" fill-rule="nonzero" fill-opacity="1" /><path clip-path="url(#clip100)" d="M671.882 328.211 L676.141 328.211 L676.141 354.136 L671.882 354.136 L671.882 328.211 M671.882 318.118 L676.141 318.118 L676.141 323.511 L671.882 323.511 L671.882 318.118 Z" fill="#000000" fill-rule="nonzero" fill-opacity="1" /><path clip-path="url(#clip100)" d="M681.997 328.211 L686.511 328.211 L694.613 349.97 L702.715 328.211 L707.229 328.211 L697.506 354.136 L691.719 354.136 L681.997 328.211 Z" fill="#000000" fill-rule="nonzero" fill-opacity="1" /><path clip-path="url(#clip100)" d="M713.108 328.211 L717.367 328.211 L717.367 354.136 L713.108 354.136 L713.108 328.211 M713.108 318.118 L717.367 318.118 L717.367 323.511 L713.108 323.511 L713.108 318.118 Z" fill="#000000" fill-rule="nonzero" fill-opacity="1" /><path clip-path="url(#clip100)" d="M743.34 332.146 L743.34 318.118 L747.599 318.118 L747.599 354.136 L743.34 354.136 L743.34 350.247 Q741.997 352.562 739.937 353.696 Q737.9 354.808 735.029 354.808 Q730.33 354.808 727.367 351.058 Q724.428 347.308 724.428 341.197 Q724.428 335.085 727.367 331.335 Q730.33 327.586 735.029 327.586 Q737.9 327.586 739.937 328.72 Q741.997 329.831 743.34 332.146 M728.826 341.197 Q728.826 345.896 730.747 348.581 Q732.691 351.243 736.071 351.243 Q739.451 351.243 741.395 348.581 Q743.34 345.896 743.34 341.197 Q743.34 336.497 741.395 333.835 Q739.451 331.15 736.071 331.15 Q732.691 331.15 730.747 333.835 Q728.826 336.497 728.826 341.197 Z" fill="#000000" fill-rule="nonzero" fill-opacity="1" /><path clip-path="url(#clip100)" d="M755.932 343.905 L755.932 328.211 L760.191 328.211 L760.191 343.743 Q760.191 347.423 761.626 349.275 Q763.062 351.104 765.932 351.104 Q769.381 351.104 771.372 348.905 Q773.386 346.706 773.386 342.909 L773.386 328.211 L777.645 328.211 L777.645 354.136 L773.386 354.136 L773.386 350.155 Q771.835 352.516 769.775 353.673 Q767.738 354.808 765.029 354.808 Q760.562 354.808 758.247 352.03 Q755.932 349.252 755.932 343.905 M766.65 327.586 L766.65 327.586 Z" fill="#000000" fill-rule="nonzero" fill-opacity="1" /><path clip-path="url(#clip100)" d="M798.2 341.104 Q793.038 341.104 791.048 342.284 Q789.057 343.465 789.057 346.312 Q789.057 348.581 790.538 349.923 Q792.043 351.243 794.612 351.243 Q798.154 351.243 800.284 348.743 Q802.436 346.22 802.436 342.053 L802.436 341.104 L798.2 341.104 M806.696 339.345 L806.696 354.136 L802.436 354.136 L802.436 350.201 Q800.978 352.562 798.802 353.696 Q796.626 354.808 793.478 354.808 Q789.497 354.808 787.136 352.585 Q784.798 350.34 784.798 346.59 Q784.798 342.215 787.714 339.993 Q790.654 337.771 796.464 337.771 L802.436 337.771 L802.436 337.354 Q802.436 334.414 800.492 332.817 Q798.571 331.197 795.075 331.197 Q792.853 331.197 790.747 331.729 Q788.64 332.261 786.696 333.326 L786.696 329.391 Q789.034 328.488 791.233 328.048 Q793.432 327.586 795.515 327.586 Q801.14 327.586 803.918 330.502 Q806.696 333.419 806.696 339.345 Z" fill="#000000" fill-rule="nonzero" fill-opacity="1" /><path clip-path="url(#clip100)" d="M815.469 318.118 L819.728 318.118 L819.728 354.136 L815.469 354.136 L815.469 318.118 Z" fill="#000000" fill-rule="nonzero" fill-opacity="1" /><path clip-path="url(#clip100)" d="M827.969 318.164 L831.672 318.164 Q835.145 323.627 836.858 328.859 Q838.594 334.09 838.594 339.252 Q838.594 344.437 836.858 349.692 Q835.145 354.946 831.672 360.386 L827.969 360.386 Q831.047 355.085 832.552 349.854 Q834.08 344.599 834.08 339.252 Q834.08 333.905 832.552 328.697 Q831.047 323.488 827.969 318.164 Z" fill="#000000" fill-rule="nonzero" fill-opacity="1" /></svg>
