<?xml version="1.0" encoding="utf-8"?>
<svg xmlns="http://www.w3.org/2000/svg" xmlns:xlink="http://www.w3.org/1999/xlink" width="672" height="480" viewBox="0 0 2688 1920">
<defs>
  <clipPath id="clip130">
    <rect x="0" y="0" width="2688" height="1920"/>
  </clipPath>
</defs>
<path clip-path="url(#clip130)" d="M0 1920 L2688 1920 L2688 -4.26326e-14 L0 -4.26326e-14  Z" fill="#ffffff" fill-rule="evenodd" fill-opacity="1"/>
<defs>
  <clipPath id="clip131">
    <rect x="211" y="127" width="2430" height="1607"/>
  </clipPath>
</defs>
<path clip-path="url(#clip130)" d="M211.395 1734.12 L2640.76 1734.12 L2640.76 127.792 L211.395 127.792  Z" fill="#ffffff" fill-rule="evenodd" fill-opacity="1"/>
<polyline clip-path="url(#clip131)" style="stroke:#000000; stroke-linecap:round; stroke-linejoin:round; stroke-width:2; stroke-opacity:0.1; fill:none" points="280.151,1734.12 280.151,127.792 "/>
<polyline clip-path="url(#clip131)" style="stroke:#000000; stroke-linecap:round; stroke-linejoin:round; stroke-width:2; stroke-opacity:0.1; fill:none" points="853.113,1734.12 853.113,127.792 "/>
<polyline clip-path="url(#clip131)" style="stroke:#000000; stroke-linecap:round; stroke-linejoin:round; stroke-width:2; stroke-opacity:0.1; fill:none" points="1426.08,1734.12 1426.08,127.792 "/>
<polyline clip-path="url(#clip131)" style="stroke:#000000; stroke-linecap:round; stroke-linejoin:round; stroke-width:2; stroke-opacity:0.1; fill:none" points="1999.04,1734.12 1999.04,127.792 "/>
<polyline clip-path="url(#clip131)" style="stroke:#000000; stroke-linecap:round; stroke-linejoin:round; stroke-width:2; stroke-opacity:0.1; fill:none" points="2572,1734.12 2572,127.792 "/>
<polyline clip-path="url(#clip131)" style="stroke:#000000; stroke-linecap:round; stroke-linejoin:round; stroke-width:2; stroke-opacity:0.1; fill:none" points="211.395,1690.21 2640.76,1690.21 "/>
<polyline clip-path="url(#clip131)" style="stroke:#000000; stroke-linecap:round; stroke-linejoin:round; stroke-width:2; stroke-opacity:0.1; fill:none" points="211.395,1453.42 2640.76,1453.42 "/>
<polyline clip-path="url(#clip131)" style="stroke:#000000; stroke-linecap:round; stroke-linejoin:round; stroke-width:2; stroke-opacity:0.1; fill:none" points="211.395,1216.64 2640.76,1216.64 "/>
<polyline clip-path="url(#clip131)" style="stroke:#000000; stroke-linecap:round; stroke-linejoin:round; stroke-width:2; stroke-opacity:0.1; fill:none" points="211.395,979.854 2640.76,979.854 "/>
<polyline clip-path="url(#clip131)" style="stroke:#000000; stroke-linecap:round; stroke-linejoin:round; stroke-width:2; stroke-opacity:0.1; fill:none" points="211.395,743.069 2640.76,743.069 "/>
<polyline clip-path="url(#clip131)" style="stroke:#000000; stroke-linecap:round; stroke-linejoin:round; stroke-width:2; stroke-opacity:0.1; fill:none" points="211.395,506.285 2640.76,506.285 "/>
<polyline clip-path="url(#clip131)" style="stroke:#000000; stroke-linecap:round; stroke-linejoin:round; stroke-width:2; stroke-opacity:0.1; fill:none" points="211.395,269.5 2640.76,269.5 "/>
<polyline clip-path="url(#clip130)" style="stroke:#000000; stroke-linecap:round; stroke-linejoin:round; stroke-width:4; stroke-opacity:1; fill:none" points="211.395,1734.12 2640.76,1734.12 "/>
<polyline clip-path="url(#clip130)" style="stroke:#000000; stroke-linecap:round; stroke-linejoin:round; stroke-width:4; stroke-opacity:1; fill:none" points="280.151,1734.12 280.151,1715.22 "/>
<polyline clip-path="url(#clip130)" style="stroke:#000000; stroke-linecap:round; stroke-linejoin:round; stroke-width:4; stroke-opacity:1; fill:none" points="853.113,1734.12 853.113,1715.22 "/>
<polyline clip-path="url(#clip130)" style="stroke:#000000; stroke-linecap:round; stroke-linejoin:round; stroke-width:4; stroke-opacity:1; fill:none" points="1426.08,1734.12 1426.08,1715.22 "/>
<polyline clip-path="url(#clip130)" style="stroke:#000000; stroke-linecap:round; stroke-linejoin:round; stroke-width:4; stroke-opacity:1; fill:none" points="1999.04,1734.12 1999.04,1715.22 "/>
<polyline clip-path="url(#clip130)" style="stroke:#000000; stroke-linecap:round; stroke-linejoin:round; stroke-width:4; stroke-opacity:1; fill:none" points="2572,1734.12 2572,1715.22 "/>
<path clip-path="url(#clip130)" d="M280.151 1767.34 Q276.54 1767.34 274.711 1770.9 Q272.905 1774.45 272.905 1781.58 Q272.905 1788.68 274.711 1792.25 Q276.54 1795.79 280.151 1795.79 Q283.785 1795.79 285.591 1792.25 Q287.419 1788.68 287.419 1781.58 Q287.419 1774.45 285.591 1770.9 Q283.785 1767.34 280.151 1767.34 M280.151 1763.64 Q285.961 1763.64 289.016 1768.24 Q292.095 1772.83 292.095 1781.58 Q292.095 1790.3 289.016 1794.91 Q285.961 1799.49 280.151 1799.49 Q274.341 1799.49 271.262 1794.91 Q268.206 1790.3 268.206 1781.58 Q268.206 1772.83 271.262 1768.24 Q274.341 1763.64 280.151 1763.64 Z" fill="#000000" fill-rule="nonzero" fill-opacity="1" /><path clip-path="url(#clip130)" d="M831.886 1794.89 L848.206 1794.89 L848.206 1798.82 L826.261 1798.82 L826.261 1794.89 Q828.923 1792.13 833.507 1787.5 Q838.113 1782.85 839.294 1781.51 Q841.539 1778.98 842.419 1777.25 Q843.322 1775.49 843.322 1773.8 Q843.322 1771.04 841.377 1769.31 Q839.456 1767.57 836.354 1767.57 Q834.155 1767.57 831.701 1768.34 Q829.271 1769.1 826.493 1770.65 L826.493 1765.93 Q829.317 1764.79 831.771 1764.21 Q834.224 1763.64 836.261 1763.64 Q841.632 1763.64 844.826 1766.32 Q848.021 1769.01 848.021 1773.5 Q848.021 1775.63 847.21 1777.55 Q846.423 1779.45 844.317 1782.04 Q843.738 1782.71 840.636 1785.93 Q837.535 1789.12 831.886 1794.89 Z" fill="#000000" fill-rule="nonzero" fill-opacity="1" /><path clip-path="url(#clip130)" d="M868.02 1767.34 Q864.409 1767.34 862.581 1770.9 Q860.775 1774.45 860.775 1781.58 Q860.775 1788.68 862.581 1792.25 Q864.409 1795.79 868.02 1795.79 Q871.655 1795.79 873.46 1792.25 Q875.289 1788.68 875.289 1781.58 Q875.289 1774.45 873.46 1770.9 Q871.655 1767.34 868.02 1767.34 M868.02 1763.64 Q873.831 1763.64 876.886 1768.24 Q879.965 1772.83 879.965 1781.58 Q879.965 1790.3 876.886 1794.91 Q873.831 1799.49 868.02 1799.49 Q862.21 1799.49 859.132 1794.91 Q856.076 1790.3 856.076 1781.58 Q856.076 1772.83 859.132 1768.24 Q862.21 1763.64 868.02 1763.64 Z" fill="#000000" fill-rule="nonzero" fill-opacity="1" /><path clip-path="url(#clip130)" d="M1414.25 1768.34 L1402.44 1786.78 L1414.25 1786.78 L1414.25 1768.34 M1413.02 1764.26 L1418.9 1764.26 L1418.9 1786.78 L1423.83 1786.78 L1423.83 1790.67 L1418.9 1790.67 L1418.9 1798.82 L1414.25 1798.82 L1414.25 1790.67 L1398.65 1790.67 L1398.65 1786.16 L1413.02 1764.26 Z" fill="#000000" fill-rule="nonzero" fill-opacity="1" /><path clip-path="url(#clip130)" d="M1441.56 1767.34 Q1437.95 1767.34 1436.12 1770.9 Q1434.32 1774.45 1434.32 1781.58 Q1434.32 1788.68 1436.12 1792.25 Q1437.95 1795.79 1441.56 1795.79 Q1445.2 1795.79 1447 1792.25 Q1448.83 1788.68 1448.83 1781.58 Q1448.83 1774.45 1447 1770.9 Q1445.2 1767.34 1441.56 1767.34 M1441.56 1763.64 Q1447.37 1763.64 1450.43 1768.24 Q1453.51 1772.83 1453.51 1781.58 Q1453.51 1790.3 1450.43 1794.91 Q1447.37 1799.49 1441.56 1799.49 Q1435.75 1799.49 1432.67 1794.91 Q1429.62 1790.3 1429.62 1781.58 Q1429.62 1772.83 1432.67 1768.24 Q1435.75 1763.64 1441.56 1763.64 Z" fill="#000000" fill-rule="nonzero" fill-opacity="1" /><path clip-path="url(#clip130)" d="M1984.44 1779.68 Q1981.3 1779.68 1979.44 1781.83 Q1977.61 1783.98 1977.61 1787.73 Q1977.61 1791.46 1979.44 1793.64 Q1981.3 1795.79 1984.44 1795.79 Q1987.59 1795.79 1989.42 1793.64 Q1991.27 1791.46 1991.27 1787.73 Q1991.27 1783.98 1989.42 1781.83 Q1987.59 1779.68 1984.44 1779.68 M1993.73 1765.02 L1993.73 1769.28 Q1991.97 1768.45 1990.16 1768.01 Q1988.38 1767.57 1986.62 1767.57 Q1981.99 1767.57 1979.54 1770.7 Q1977.11 1773.82 1976.76 1780.14 Q1978.12 1778.13 1980.18 1777.06 Q1982.24 1775.97 1984.72 1775.97 Q1989.93 1775.97 1992.94 1779.15 Q1995.97 1782.29 1995.97 1787.73 Q1995.97 1793.06 1992.82 1796.27 Q1989.67 1799.49 1984.44 1799.49 Q1978.45 1799.49 1975.28 1794.91 Q1972.11 1790.3 1972.11 1781.58 Q1972.11 1773.38 1975.99 1768.52 Q1979.88 1763.64 1986.43 1763.64 Q1988.19 1763.64 1989.98 1763.98 Q1991.78 1764.33 1993.73 1765.02 Z" fill="#000000" fill-rule="nonzero" fill-opacity="1" /><path clip-path="url(#clip130)" d="M2014.03 1767.34 Q2010.42 1767.34 2008.59 1770.9 Q2006.78 1774.45 2006.78 1781.58 Q2006.78 1788.68 2008.59 1792.25 Q2010.42 1795.79 2014.03 1795.79 Q2017.66 1795.79 2019.47 1792.25 Q2021.29 1788.68 2021.29 1781.58 Q2021.29 1774.45 2019.47 1770.9 Q2017.66 1767.34 2014.03 1767.34 M2014.03 1763.64 Q2019.84 1763.64 2022.89 1768.24 Q2025.97 1772.83 2025.97 1781.58 Q2025.97 1790.3 2022.89 1794.91 Q2019.84 1799.49 2014.03 1799.49 Q2008.22 1799.49 2005.14 1794.91 Q2002.08 1790.3 2002.08 1781.58 Q2002.08 1772.83 2005.14 1768.24 Q2008.22 1763.64 2014.03 1763.64 Z" fill="#000000" fill-rule="nonzero" fill-opacity="1" /><path clip-path="url(#clip130)" d="M2556.87 1782.41 Q2553.54 1782.41 2551.62 1784.19 Q2549.72 1785.97 2549.72 1789.1 Q2549.72 1792.22 2551.62 1794.01 Q2553.54 1795.79 2556.87 1795.79 Q2560.21 1795.79 2562.13 1794.01 Q2564.05 1792.2 2564.05 1789.1 Q2564.05 1785.97 2562.13 1784.19 Q2560.23 1782.41 2556.87 1782.41 M2552.2 1780.42 Q2549.19 1779.68 2547.5 1777.62 Q2545.83 1775.56 2545.83 1772.59 Q2545.83 1768.45 2548.77 1766.04 Q2551.73 1763.64 2556.87 1763.64 Q2562.04 1763.64 2564.97 1766.04 Q2567.91 1768.45 2567.91 1772.59 Q2567.91 1775.56 2566.22 1777.62 Q2564.56 1779.68 2561.57 1780.42 Q2564.95 1781.21 2566.83 1783.5 Q2568.72 1785.79 2568.72 1789.1 Q2568.72 1794.12 2565.65 1796.81 Q2562.59 1799.49 2556.87 1799.49 Q2551.16 1799.49 2548.08 1796.81 Q2545.02 1794.12 2545.02 1789.1 Q2545.02 1785.79 2546.92 1783.5 Q2548.82 1781.21 2552.2 1780.42 M2550.48 1773.03 Q2550.48 1775.72 2552.15 1777.22 Q2553.84 1778.73 2556.87 1778.73 Q2559.88 1778.73 2561.57 1777.22 Q2563.29 1775.72 2563.29 1773.03 Q2563.29 1770.35 2561.57 1768.84 Q2559.88 1767.34 2556.87 1767.34 Q2553.84 1767.34 2552.15 1768.84 Q2550.48 1770.35 2550.48 1773.03 Z" fill="#000000" fill-rule="nonzero" fill-opacity="1" /><path clip-path="url(#clip130)" d="M2587.04 1767.34 Q2583.42 1767.34 2581.6 1770.9 Q2579.79 1774.45 2579.79 1781.58 Q2579.79 1788.68 2581.6 1792.25 Q2583.42 1795.79 2587.04 1795.79 Q2590.67 1795.79 2592.47 1792.25 Q2594.3 1788.68 2594.3 1781.58 Q2594.3 1774.45 2592.47 1770.9 Q2590.67 1767.34 2587.04 1767.34 M2587.04 1763.64 Q2592.85 1763.64 2595.9 1768.24 Q2598.98 1772.83 2598.98 1781.58 Q2598.98 1790.3 2595.9 1794.91 Q2592.85 1799.49 2587.04 1799.49 Q2581.22 1799.49 2578.15 1794.91 Q2575.09 1790.3 2575.09 1781.58 Q2575.09 1772.83 2578.15 1768.24 Q2581.22 1763.64 2587.04 1763.64 Z" fill="#000000" fill-rule="nonzero" fill-opacity="1" /><path clip-path="url(#clip130)" d="M1347.95 1835.78 L1388.15 1835.78 L1388.15 1841.19 L1371.28 1841.19 L1371.28 1883.3 L1364.82 1883.3 L1364.82 1841.19 L1347.95 1841.19 L1347.95 1835.78 Z" fill="#000000" fill-rule="nonzero" fill-opacity="1" /><path clip-path="url(#clip130)" d="M1392.1 1847.65 L1397.96 1847.65 L1397.96 1883.3 L1392.1 1883.3 L1392.1 1847.65 M1392.1 1833.78 L1397.96 1833.78 L1397.96 1841.19 L1392.1 1841.19 L1392.1 1833.78 Z" fill="#000000" fill-rule="nonzero" fill-opacity="1" /><path clip-path="url(#clip130)" d="M1437.96 1854.5 Q1440.16 1850.55 1443.22 1848.67 Q1446.27 1846.79 1450.41 1846.79 Q1455.98 1846.79 1459 1850.71 Q1462.03 1854.59 1462.03 1861.78 L1462.03 1883.3 L1456.14 1883.3 L1456.14 1861.98 Q1456.14 1856.85 1454.32 1854.37 Q1452.51 1851.89 1448.79 1851.89 Q1444.23 1851.89 1441.59 1854.91 Q1438.95 1857.93 1438.95 1863.15 L1438.95 1883.3 L1433.06 1883.3 L1433.06 1861.98 Q1433.06 1856.82 1431.25 1854.37 Q1429.43 1851.89 1425.65 1851.89 Q1421.16 1851.89 1418.52 1854.94 Q1415.87 1857.97 1415.87 1863.15 L1415.87 1883.3 L1409.99 1883.3 L1409.99 1847.65 L1415.87 1847.65 L1415.87 1853.19 Q1417.88 1849.91 1420.68 1848.35 Q1423.48 1846.79 1427.33 1846.79 Q1431.22 1846.79 1433.92 1848.77 Q1436.66 1850.74 1437.96 1854.5 Z" fill="#000000" fill-rule="nonzero" fill-opacity="1" /><path clip-path="url(#clip130)" d="M1504.2 1864.01 L1504.2 1866.88 L1477.27 1866.88 Q1477.65 1872.92 1480.9 1876.11 Q1484.18 1879.26 1490 1879.26 Q1493.38 1879.26 1496.53 1878.43 Q1499.71 1877.6 1502.83 1875.95 L1502.83 1881.49 Q1499.68 1882.82 1496.37 1883.52 Q1493.06 1884.22 1489.65 1884.22 Q1481.12 1884.22 1476.13 1879.26 Q1471.16 1874.29 1471.16 1865.83 Q1471.16 1857.07 1475.87 1851.95 Q1480.61 1846.79 1488.63 1846.79 Q1495.83 1846.79 1500 1851.44 Q1504.2 1856.06 1504.2 1864.01 M1498.34 1862.29 Q1498.28 1857.49 1495.64 1854.62 Q1493.03 1851.76 1488.7 1851.76 Q1483.8 1851.76 1480.84 1854.53 Q1477.91 1857.3 1477.46 1862.33 L1498.34 1862.29 Z" fill="#000000" fill-rule="nonzero" fill-opacity="1" /><polyline clip-path="url(#clip130)" style="stroke:#000000; stroke-linecap:round; stroke-linejoin:round; stroke-width:4; stroke-opacity:1; fill:none" points="211.395,1734.12 211.395,127.792 "/>
<polyline clip-path="url(#clip130)" style="stroke:#000000; stroke-linecap:round; stroke-linejoin:round; stroke-width:4; stroke-opacity:1; fill:none" points="211.395,1690.21 230.293,1690.21 "/>
<polyline clip-path="url(#clip130)" style="stroke:#000000; stroke-linecap:round; stroke-linejoin:round; stroke-width:4; stroke-opacity:1; fill:none" points="211.395,1453.42 230.293,1453.42 "/>
<polyline clip-path="url(#clip130)" style="stroke:#000000; stroke-linecap:round; stroke-linejoin:round; stroke-width:4; stroke-opacity:1; fill:none" points="211.395,1216.64 230.293,1216.64 "/>
<polyline clip-path="url(#clip130)" style="stroke:#000000; stroke-linecap:round; stroke-linejoin:round; stroke-width:4; stroke-opacity:1; fill:none" points="211.395,979.854 230.293,979.854 "/>
<polyline clip-path="url(#clip130)" style="stroke:#000000; stroke-linecap:round; stroke-linejoin:round; stroke-width:4; stroke-opacity:1; fill:none" points="211.395,743.069 230.293,743.069 "/>
<polyline clip-path="url(#clip130)" style="stroke:#000000; stroke-linecap:round; stroke-linejoin:round; stroke-width:4; stroke-opacity:1; fill:none" points="211.395,506.285 230.293,506.285 "/>
<polyline clip-path="url(#clip130)" style="stroke:#000000; stroke-linecap:round; stroke-linejoin:round; stroke-width:4; stroke-opacity:1; fill:none" points="211.395,269.5 230.293,269.5 "/>
<path clip-path="url(#clip130)" d="M159.131 1676.01 Q155.52 1676.01 153.691 1679.57 Q151.886 1683.11 151.886 1690.24 Q151.886 1697.35 153.691 1700.91 Q155.52 1704.45 159.131 1704.45 Q162.765 1704.45 164.571 1700.91 Q166.399 1697.35 166.399 1690.24 Q166.399 1683.11 164.571 1679.57 Q162.765 1676.01 159.131 1676.01 M159.131 1672.3 Q164.941 1672.3 167.997 1676.91 Q171.075 1681.49 171.075 1690.24 Q171.075 1698.97 167.997 1703.58 Q164.941 1708.16 159.131 1708.16 Q153.321 1708.16 150.242 1703.58 Q147.186 1698.97 147.186 1690.24 Q147.186 1681.49 150.242 1676.91 Q153.321 1672.3 159.131 1672.3 Z" fill="#000000" fill-rule="nonzero" fill-opacity="1" /><path clip-path="url(#clip130)" d="M119.779 1466.77 L127.418 1466.77 L127.418 1440.4 L119.108 1442.07 L119.108 1437.81 L127.372 1436.14 L132.048 1436.14 L132.048 1466.77 L139.687 1466.77 L139.687 1470.7 L119.779 1470.7 L119.779 1466.77 Z" fill="#000000" fill-rule="nonzero" fill-opacity="1" /><path clip-path="url(#clip130)" d="M159.131 1439.22 Q155.52 1439.22 153.691 1442.79 Q151.886 1446.33 151.886 1453.46 Q151.886 1460.56 153.691 1464.13 Q155.52 1467.67 159.131 1467.67 Q162.765 1467.67 164.571 1464.13 Q166.399 1460.56 166.399 1453.46 Q166.399 1446.33 164.571 1442.79 Q162.765 1439.22 159.131 1439.22 M159.131 1435.52 Q164.941 1435.52 167.997 1440.12 Q171.075 1444.71 171.075 1453.46 Q171.075 1462.18 167.997 1466.79 Q164.941 1471.37 159.131 1471.37 Q153.321 1471.37 150.242 1466.79 Q147.186 1462.18 147.186 1453.46 Q147.186 1444.71 150.242 1440.12 Q153.321 1435.52 159.131 1435.52 Z" fill="#000000" fill-rule="nonzero" fill-opacity="1" /><path clip-path="url(#clip130)" d="M122.997 1229.98 L139.316 1229.98 L139.316 1233.92 L117.372 1233.92 L117.372 1229.98 Q120.034 1227.23 124.617 1222.6 Q129.224 1217.95 130.404 1216.6 Q132.65 1214.08 133.529 1212.34 Q134.432 1210.59 134.432 1208.9 Q134.432 1206.14 132.488 1204.4 Q130.566 1202.67 127.464 1202.67 Q125.265 1202.67 122.812 1203.43 Q120.381 1204.2 117.603 1205.75 L117.603 1201.02 Q120.427 1199.89 122.881 1199.31 Q125.335 1198.73 127.372 1198.73 Q132.742 1198.73 135.937 1201.42 Q139.131 1204.1 139.131 1208.59 Q139.131 1210.72 138.321 1212.65 Q137.534 1214.54 135.427 1217.14 Q134.849 1217.81 131.747 1221.02 Q128.645 1224.22 122.997 1229.98 Z" fill="#000000" fill-rule="nonzero" fill-opacity="1" /><path clip-path="url(#clip130)" d="M159.131 1202.44 Q155.52 1202.44 153.691 1206 Q151.886 1209.54 151.886 1216.67 Q151.886 1223.78 153.691 1227.34 Q155.52 1230.89 159.131 1230.89 Q162.765 1230.89 164.571 1227.34 Q166.399 1223.78 166.399 1216.67 Q166.399 1209.54 164.571 1206 Q162.765 1202.44 159.131 1202.44 M159.131 1198.73 Q164.941 1198.73 167.997 1203.34 Q171.075 1207.92 171.075 1216.67 Q171.075 1225.4 167.997 1230.01 Q164.941 1234.59 159.131 1234.59 Q153.321 1234.59 150.242 1230.01 Q147.186 1225.4 147.186 1216.67 Q147.186 1207.92 150.242 1203.34 Q153.321 1198.73 159.131 1198.73 Z" fill="#000000" fill-rule="nonzero" fill-opacity="1" /><path clip-path="url(#clip130)" d="M133.136 978.5 Q136.492 979.217 138.367 981.486 Q140.265 983.754 140.265 987.088 Q140.265 992.203 136.747 995.004 Q133.228 997.805 126.747 997.805 Q124.571 997.805 122.256 997.365 Q119.964 996.949 117.511 996.092 L117.511 991.578 Q119.455 992.712 121.77 993.291 Q124.085 993.87 126.608 993.87 Q131.006 993.87 133.298 992.134 Q135.612 990.398 135.612 987.088 Q135.612 984.032 133.46 982.319 Q131.33 980.583 127.511 980.583 L123.483 980.583 L123.483 976.74 L127.696 976.74 Q131.145 976.74 132.974 975.375 Q134.802 973.986 134.802 971.393 Q134.802 968.731 132.904 967.319 Q131.029 965.884 127.511 965.884 Q125.589 965.884 123.39 966.301 Q121.191 966.717 118.552 967.597 L118.552 963.43 Q121.214 962.689 123.529 962.319 Q125.867 961.949 127.927 961.949 Q133.251 961.949 136.353 964.379 Q139.455 966.787 139.455 970.907 Q139.455 973.777 137.812 975.768 Q136.168 977.736 133.136 978.5 Z" fill="#000000" fill-rule="nonzero" fill-opacity="1" /><path clip-path="url(#clip130)" d="M159.131 965.652 Q155.52 965.652 153.691 969.217 Q151.886 972.759 151.886 979.888 Q151.886 986.995 153.691 990.56 Q155.52 994.101 159.131 994.101 Q162.765 994.101 164.571 990.56 Q166.399 986.995 166.399 979.888 Q166.399 972.759 164.571 969.217 Q162.765 965.652 159.131 965.652 M159.131 961.949 Q164.941 961.949 167.997 966.555 Q171.075 971.139 171.075 979.888 Q171.075 988.615 167.997 993.222 Q164.941 997.805 159.131 997.805 Q153.321 997.805 150.242 993.222 Q147.186 988.615 147.186 979.888 Q147.186 971.139 150.242 966.555 Q153.321 961.949 159.131 961.949 Z" fill="#000000" fill-rule="nonzero" fill-opacity="1" /><path clip-path="url(#clip130)" d="M131.816 729.863 L120.011 748.312 L131.816 748.312 L131.816 729.863 M130.589 725.789 L136.469 725.789 L136.469 748.312 L141.399 748.312 L141.399 752.201 L136.469 752.201 L136.469 760.349 L131.816 760.349 L131.816 752.201 L116.214 752.201 L116.214 747.687 L130.589 725.789 Z" fill="#000000" fill-rule="nonzero" fill-opacity="1" /><path clip-path="url(#clip130)" d="M159.131 728.868 Q155.52 728.868 153.691 732.433 Q151.886 735.974 151.886 743.104 Q151.886 750.21 153.691 753.775 Q155.52 757.317 159.131 757.317 Q162.765 757.317 164.571 753.775 Q166.399 750.21 166.399 743.104 Q166.399 735.974 164.571 732.433 Q162.765 728.868 159.131 728.868 M159.131 725.164 Q164.941 725.164 167.997 729.771 Q171.075 734.354 171.075 743.104 Q171.075 751.831 167.997 756.437 Q164.941 761.021 159.131 761.021 Q153.321 761.021 150.242 756.437 Q147.186 751.831 147.186 743.104 Q147.186 734.354 150.242 729.771 Q153.321 725.164 159.131 725.164 Z" fill="#000000" fill-rule="nonzero" fill-opacity="1" /><path clip-path="url(#clip130)" d="M119.015 489.005 L137.372 489.005 L137.372 492.94 L123.298 492.94 L123.298 501.412 Q124.316 501.065 125.335 500.903 Q126.353 500.718 127.372 500.718 Q133.159 500.718 136.538 503.889 Q139.918 507.06 139.918 512.477 Q139.918 518.056 136.446 521.157 Q132.974 524.236 126.654 524.236 Q124.478 524.236 122.21 523.866 Q119.964 523.495 117.557 522.755 L117.557 518.056 Q119.64 519.19 121.863 519.745 Q124.085 520.301 126.562 520.301 Q130.566 520.301 132.904 518.194 Q135.242 516.088 135.242 512.477 Q135.242 508.866 132.904 506.759 Q130.566 504.653 126.562 504.653 Q124.687 504.653 122.812 505.07 Q120.96 505.486 119.015 506.366 L119.015 489.005 Z" fill="#000000" fill-rule="nonzero" fill-opacity="1" /><path clip-path="url(#clip130)" d="M159.131 492.083 Q155.52 492.083 153.691 495.648 Q151.886 499.19 151.886 506.32 Q151.886 513.426 153.691 516.991 Q155.52 520.532 159.131 520.532 Q162.765 520.532 164.571 516.991 Q166.399 513.426 166.399 506.32 Q166.399 499.19 164.571 495.648 Q162.765 492.083 159.131 492.083 M159.131 488.38 Q164.941 488.38 167.997 492.986 Q171.075 497.57 171.075 506.32 Q171.075 515.046 167.997 519.653 Q164.941 524.236 159.131 524.236 Q153.321 524.236 150.242 519.653 Q147.186 515.046 147.186 506.32 Q147.186 497.57 150.242 492.986 Q153.321 488.38 159.131 488.38 Z" fill="#000000" fill-rule="nonzero" fill-opacity="1" /><path clip-path="url(#clip130)" d="M129.548 267.637 Q126.4 267.637 124.548 269.79 Q122.719 271.942 122.719 275.692 Q122.719 279.419 124.548 281.595 Q126.4 283.748 129.548 283.748 Q132.696 283.748 134.525 281.595 Q136.376 279.419 136.376 275.692 Q136.376 271.942 134.525 269.79 Q132.696 267.637 129.548 267.637 M138.83 252.984 L138.83 257.243 Q137.071 256.41 135.265 255.97 Q133.483 255.53 131.724 255.53 Q127.094 255.53 124.64 258.655 Q122.21 261.78 121.863 268.1 Q123.228 266.086 125.288 265.021 Q127.349 263.933 129.825 263.933 Q135.034 263.933 138.043 267.104 Q141.075 270.253 141.075 275.692 Q141.075 281.016 137.927 284.234 Q134.779 287.452 129.548 287.452 Q123.552 287.452 120.381 282.868 Q117.21 278.262 117.21 269.535 Q117.21 261.341 121.099 256.48 Q124.988 251.595 131.538 251.595 Q133.298 251.595 135.08 251.943 Q136.886 252.29 138.83 252.984 Z" fill="#000000" fill-rule="nonzero" fill-opacity="1" /><path clip-path="url(#clip130)" d="M159.131 255.299 Q155.52 255.299 153.691 258.864 Q151.886 262.405 151.886 269.535 Q151.886 276.641 153.691 280.206 Q155.52 283.748 159.131 283.748 Q162.765 283.748 164.571 280.206 Q166.399 276.641 166.399 269.535 Q166.399 262.405 164.571 258.864 Q162.765 255.299 159.131 255.299 M159.131 251.595 Q164.941 251.595 167.997 256.202 Q171.075 260.785 171.075 269.535 Q171.075 278.262 167.997 282.868 Q164.941 287.452 159.131 287.452 Q153.321 287.452 150.242 282.868 Q147.186 278.262 147.186 269.535 Q147.186 260.785 150.242 256.202 Q153.321 251.595 159.131 251.595 Z" fill="#000000" fill-rule="nonzero" fill-opacity="1" /><path clip-path="url(#clip130)" d="M14.1184 1198.76 L14.1184 1190.1 L53.8723 1169.03 L14.1184 1169.03 L14.1184 1162.79 L61.6384 1162.79 L61.6384 1171.45 L21.8846 1192.52 L61.6384 1192.52 L61.6384 1198.76 L14.1184 1198.76 Z" fill="#000000" fill-rule="nonzero" fill-opacity="1" /><path clip-path="url(#clip130)" d="M47.5702 1150.86 L25.9905 1150.86 L25.9905 1145 L47.3474 1145 Q52.4082 1145 54.9545 1143.03 Q57.4689 1141.05 57.4689 1137.11 Q57.4689 1132.37 54.4452 1129.63 Q51.4215 1126.86 46.2016 1126.86 L25.9905 1126.86 L25.9905 1121 L61.6384 1121 L61.6384 1126.86 L56.1639 1126.86 Q59.4104 1128.99 61.0019 1131.82 Q62.5615 1134.63 62.5615 1138.35 Q62.5615 1144.49 58.742 1147.68 Q54.9226 1150.86 47.5702 1150.86 M25.1311 1136.12 L25.1311 1136.12 Z" fill="#000000" fill-rule="nonzero" fill-opacity="1" /><path clip-path="url(#clip130)" d="M32.8336 1081.19 Q28.8869 1078.99 27.009 1075.93 Q25.1311 1072.88 25.1311 1068.74 Q25.1311 1063.17 29.046 1060.15 Q32.9291 1057.12 40.1224 1057.12 L61.6384 1057.12 L61.6384 1063.01 L40.3133 1063.01 Q35.1889 1063.01 32.7063 1064.83 Q30.2237 1066.64 30.2237 1070.36 Q30.2237 1074.92 33.2474 1077.56 Q36.2711 1080.2 41.491 1080.2 L61.6384 1080.2 L61.6384 1086.09 L40.3133 1086.09 Q35.1571 1086.09 32.7063 1087.9 Q30.2237 1089.72 30.2237 1093.5 Q30.2237 1097.99 33.2792 1100.63 Q36.3029 1103.27 41.491 1103.27 L61.6384 1103.27 L61.6384 1109.16 L25.9905 1109.16 L25.9905 1103.27 L31.5287 1103.27 Q28.2503 1101.27 26.6907 1098.47 Q25.1311 1095.67 25.1311 1091.82 Q25.1311 1087.93 27.1045 1085.23 Q29.0779 1082.49 32.8336 1081.19 Z" fill="#000000" fill-rule="nonzero" fill-opacity="1" /><path clip-path="url(#clip130)" d="M43.8463 1019.85 Q37.3851 1019.85 33.7248 1022.53 Q30.0327 1025.17 30.0327 1029.81 Q30.0327 1034.46 33.7248 1037.13 Q37.3851 1039.78 43.8463 1039.78 Q50.3075 1039.78 53.9996 1037.13 Q57.6599 1034.46 57.6599 1029.81 Q57.6599 1025.17 53.9996 1022.53 Q50.3075 1019.85 43.8463 1019.85 M31.4013 1039.78 Q28.2185 1037.93 26.6907 1035.13 Q25.1311 1032.3 25.1311 1028.38 Q25.1311 1021.89 30.2873 1017.85 Q35.4436 1013.77 43.8463 1013.77 Q52.249 1013.77 57.4052 1017.85 Q62.5615 1021.89 62.5615 1028.38 Q62.5615 1032.3 61.0337 1035.13 Q59.4741 1037.93 56.2912 1039.78 L61.6384 1039.78 L61.6384 1045.66 L12.1132 1045.66 L12.1132 1039.78 L31.4013 1039.78 Z" fill="#000000" fill-rule="nonzero" fill-opacity="1" /><path clip-path="url(#clip130)" d="M42.3504 973.573 L45.2149 973.573 L45.2149 1000.5 Q51.2623 1000.12 54.4452 996.871 Q57.5962 993.593 57.5962 987.768 Q57.5962 984.395 56.7687 981.244 Q55.9411 978.061 54.2861 974.942 L59.8242 974.942 Q61.161 978.093 61.8612 981.403 Q62.5615 984.713 62.5615 988.119 Q62.5615 996.649 57.5962 1001.65 Q52.631 1006.61 44.1646 1006.61 Q35.4117 1006.61 30.2873 1001.9 Q25.1311 997.158 25.1311 989.137 Q25.1311 981.944 29.7781 977.774 Q34.3932 973.573 42.3504 973.573 M40.6316 979.429 Q35.8255 979.493 32.9609 982.135 Q30.0964 984.745 30.0964 989.073 Q30.0964 993.975 32.8654 996.935 Q35.6345 999.863 40.6634 1000.31 L40.6316 979.429 Z" fill="#000000" fill-rule="nonzero" fill-opacity="1" /><path clip-path="url(#clip130)" d="M31.465 943.304 Q30.8921 944.291 30.6375 945.468 Q30.351 946.614 30.351 948.015 Q30.351 952.98 33.5975 955.653 Q36.8122 958.295 42.8596 958.295 L61.6384 958.295 L61.6384 964.184 L25.9905 964.184 L25.9905 958.295 L31.5287 958.295 Q28.2821 956.449 26.7225 953.489 Q25.1311 950.529 25.1311 946.296 Q25.1311 945.691 25.2266 944.959 Q25.2903 944.227 25.4494 943.336 L31.465 943.304 Z" fill="#000000" fill-rule="nonzero" fill-opacity="1" /><path clip-path="url(#clip130)" d="M25.9905 916.441 L25.9905 910.584 L61.6384 910.584 L61.6384 916.441 L25.9905 916.441 M12.1132 916.441 L12.1132 910.584 L19.5293 910.584 L19.5293 916.441 L12.1132 916.441 Z" fill="#000000" fill-rule="nonzero" fill-opacity="1" /><path clip-path="url(#clip130)" d="M40.1224 868.698 L61.6384 868.698 L61.6384 874.554 L40.3133 874.554 Q35.2526 874.554 32.7381 876.528 Q30.2237 878.501 30.2237 882.448 Q30.2237 887.19 33.2474 889.928 Q36.2711 892.665 41.491 892.665 L61.6384 892.665 L61.6384 898.553 L25.9905 898.553 L25.9905 892.665 L31.5287 892.665 Q28.314 890.564 26.7225 887.731 Q25.1311 884.867 25.1311 881.143 Q25.1311 875 28.9505 871.849 Q32.7381 868.698 40.1224 868.698 Z" fill="#000000" fill-rule="nonzero" fill-opacity="1" /><path clip-path="url(#clip130)" d="M12.1132 838.97 L16.983 838.97 L16.983 844.572 Q16.983 847.723 18.2562 848.964 Q19.5293 850.174 22.8395 850.174 L25.9905 850.174 L25.9905 840.53 L30.542 840.53 L30.542 850.174 L61.6384 850.174 L61.6384 856.062 L30.542 856.062 L30.542 861.664 L25.9905 861.664 L25.9905 856.062 L23.5079 856.062 Q17.5559 856.062 14.8505 853.293 Q12.1132 850.524 12.1132 844.508 L12.1132 838.97 Z" fill="#000000" fill-rule="nonzero" fill-opacity="1" /><path clip-path="url(#clip130)" d="M42.3504 803.577 L45.2149 803.577 L45.2149 830.504 Q51.2623 830.122 54.4452 826.875 Q57.5962 823.597 57.5962 817.772 Q57.5962 814.398 56.7687 811.247 Q55.9411 808.065 54.2861 804.945 L59.8242 804.945 Q61.161 808.096 61.8612 811.407 Q62.5615 814.717 62.5615 818.122 Q62.5615 826.652 57.5962 831.65 Q52.631 836.615 44.1646 836.615 Q35.4117 836.615 30.2873 831.904 Q25.1311 827.162 25.1311 819.141 Q25.1311 811.948 29.7781 807.778 Q34.3932 803.577 42.3504 803.577 M40.6316 809.433 Q35.8255 809.497 32.9609 812.139 Q30.0964 814.749 30.0964 819.077 Q30.0964 823.979 32.8654 826.939 Q35.6345 829.867 40.6634 830.313 L40.6316 809.433 Z" fill="#000000" fill-rule="nonzero" fill-opacity="1" /><path clip-path="url(#clip130)" d="M27.3591 768.311 L32.8336 768.311 Q31.465 770.793 30.7966 773.308 Q30.0964 775.79 30.0964 778.337 Q30.0964 784.034 33.7248 787.185 Q37.3214 790.336 43.8463 790.336 Q50.3711 790.336 53.9996 787.185 Q57.5962 784.034 57.5962 778.337 Q57.5962 775.79 56.9278 773.308 Q56.2276 770.793 54.859 768.311 L60.2698 768.311 Q61.4156 770.762 61.9886 773.403 Q62.5615 776.013 62.5615 778.973 Q62.5615 787.026 57.5007 791.768 Q52.44 796.511 43.8463 796.511 Q35.1253 796.511 30.1282 791.737 Q25.1311 786.93 25.1311 778.591 Q25.1311 775.886 25.704 773.308 Q26.2451 770.73 27.3591 768.311 Z" fill="#000000" fill-rule="nonzero" fill-opacity="1" /><path clip-path="url(#clip130)" d="M15.869 752.333 L25.9905 752.333 L25.9905 740.27 L30.542 740.27 L30.542 752.333 L49.8937 752.333 Q54.2542 752.333 55.4955 751.155 Q56.7368 749.946 56.7368 746.285 L56.7368 740.27 L61.6384 740.27 L61.6384 746.285 Q61.6384 753.065 59.124 755.643 Q56.5777 758.221 49.8937 758.221 L30.542 758.221 L30.542 762.518 L25.9905 762.518 L25.9905 758.221 L15.869 758.221 L15.869 752.333 Z" fill="#000000" fill-rule="nonzero" fill-opacity="1" /><path clip-path="url(#clip130)" d="M42.3504 702.076 L45.2149 702.076 L45.2149 729.003 Q51.2623 728.621 54.4452 725.374 Q57.5962 722.096 57.5962 716.271 Q57.5962 712.897 56.7687 709.746 Q55.9411 706.563 54.2861 703.444 L59.8242 703.444 Q61.161 706.595 61.8612 709.905 Q62.5615 713.216 62.5615 716.621 Q62.5615 725.151 57.5962 730.148 Q52.631 735.114 44.1646 735.114 Q35.4117 735.114 30.2873 730.403 Q25.1311 725.661 25.1311 717.64 Q25.1311 710.446 29.7781 706.277 Q34.3932 702.076 42.3504 702.076 M40.6316 707.932 Q35.8255 707.996 32.9609 710.637 Q30.0964 713.247 30.0964 717.576 Q30.0964 722.478 32.8654 725.438 Q35.6345 728.366 40.6634 728.812 L40.6316 707.932 Z" fill="#000000" fill-rule="nonzero" fill-opacity="1" /><path clip-path="url(#clip130)" d="M31.4013 669.006 L12.1132 669.006 L12.1132 663.149 L61.6384 663.149 L61.6384 669.006 L56.2912 669.006 Q59.4741 670.852 61.0337 673.685 Q62.5615 676.485 62.5615 680.432 Q62.5615 686.893 57.4052 690.967 Q52.249 695.01 43.8463 695.01 Q35.4436 695.01 30.2873 690.967 Q25.1311 686.893 25.1311 680.432 Q25.1311 676.485 26.6907 673.685 Q28.2185 670.852 31.4013 669.006 M43.8463 688.962 Q50.3075 688.962 53.9996 686.32 Q57.6599 683.647 57.6599 679 Q57.6599 674.353 53.9996 671.679 Q50.3075 669.006 43.8463 669.006 Q37.3851 669.006 33.7248 671.679 Q30.0327 674.353 30.0327 679 Q30.0327 683.647 33.7248 686.32 Q37.3851 688.962 43.8463 688.962 Z" fill="#000000" fill-rule="nonzero" fill-opacity="1" /><path clip-path="url(#clip130)" d="M941.506 12.096 L949.689 12.096 L949.689 72.576 L941.506 72.576 L941.506 12.096 Z" fill="#000000" fill-rule="nonzero" fill-opacity="1" /><path clip-path="url(#clip130)" d="M1003.36 45.1919 L1003.36 72.576 L995.91 72.576 L995.91 45.4349 Q995.91 38.994 993.399 35.7938 Q990.887 32.5936 985.864 32.5936 Q979.828 32.5936 976.344 36.4419 Q972.86 40.2903 972.86 46.9338 L972.86 72.576 L965.366 72.576 L965.366 27.2059 L972.86 27.2059 L972.86 34.2544 Q975.534 30.163 979.139 28.1376 Q982.785 26.1121 987.525 26.1121 Q995.343 26.1121 999.353 30.9732 Q1003.36 35.7938 1003.36 45.1919 Z" fill="#000000" fill-rule="nonzero" fill-opacity="1" /><path clip-path="url(#clip130)" d="M1048.09 34.0924 L1048.09 9.54393 L1055.54 9.54393 L1055.54 72.576 L1048.09 72.576 L1048.09 65.7705 Q1045.74 69.8214 1042.13 71.8063 Q1038.57 73.7508 1033.54 73.7508 Q1025.32 73.7508 1020.13 67.1883 Q1014.99 60.6258 1014.99 49.9314 Q1014.99 39.2371 1020.13 32.6746 Q1025.32 26.1121 1033.54 26.1121 Q1038.57 26.1121 1042.13 28.0971 Q1045.74 30.0415 1048.09 34.0924 M1022.69 49.9314 Q1022.69 58.1548 1026.05 62.8538 Q1029.45 67.5124 1035.37 67.5124 Q1041.28 67.5124 1044.68 62.8538 Q1048.09 58.1548 1048.09 49.9314 Q1048.09 41.7081 1044.68 37.0496 Q1041.28 32.3505 1035.37 32.3505 Q1029.45 32.3505 1026.05 37.0496 Q1022.69 41.7081 1022.69 49.9314 Z" fill="#000000" fill-rule="nonzero" fill-opacity="1" /><path clip-path="url(#clip130)" d="M1070.89 27.2059 L1078.35 27.2059 L1078.35 72.576 L1070.89 72.576 L1070.89 27.2059 M1070.89 9.54393 L1078.35 9.54393 L1078.35 18.9825 L1070.89 18.9825 L1070.89 9.54393 Z" fill="#000000" fill-rule="nonzero" fill-opacity="1" /><path clip-path="url(#clip130)" d="M1088.59 27.2059 L1096.49 27.2059 L1110.67 65.2844 L1124.85 27.2059 L1132.75 27.2059 L1115.74 72.576 L1105.61 72.576 L1088.59 27.2059 Z" fill="#000000" fill-rule="nonzero" fill-opacity="1" /><path clip-path="url(#clip130)" d="M1143.04 27.2059 L1150.49 27.2059 L1150.49 72.576 L1143.04 72.576 L1143.04 27.2059 M1143.04 9.54393 L1150.49 9.54393 L1150.49 18.9825 L1143.04 18.9825 L1143.04 9.54393 Z" fill="#000000" fill-rule="nonzero" fill-opacity="1" /><path clip-path="url(#clip130)" d="M1195.94 34.0924 L1195.94 9.54393 L1203.4 9.54393 L1203.4 72.576 L1195.94 72.576 L1195.94 65.7705 Q1193.59 69.8214 1189.99 71.8063 Q1186.42 73.7508 1181.4 73.7508 Q1173.18 73.7508 1167.99 67.1883 Q1162.85 60.6258 1162.85 49.9314 Q1162.85 39.2371 1167.99 32.6746 Q1173.18 26.1121 1181.4 26.1121 Q1186.42 26.1121 1189.99 28.0971 Q1193.59 30.0415 1195.94 34.0924 M1170.54 49.9314 Q1170.54 58.1548 1173.91 62.8538 Q1177.31 67.5124 1183.22 67.5124 Q1189.14 67.5124 1192.54 62.8538 Q1195.94 58.1548 1195.94 49.9314 Q1195.94 41.7081 1192.54 37.0496 Q1189.14 32.3505 1183.22 32.3505 Q1177.31 32.3505 1173.91 37.0496 Q1170.54 41.7081 1170.54 49.9314 Z" fill="#000000" fill-rule="nonzero" fill-opacity="1" /><path clip-path="url(#clip130)" d="M1217.98 54.671 L1217.98 27.2059 L1225.43 27.2059 L1225.43 54.3874 Q1225.43 60.8284 1227.95 64.0691 Q1230.46 67.2693 1235.48 67.2693 Q1241.52 67.2693 1245 63.421 Q1248.52 59.5726 1248.52 52.9291 L1248.52 27.2059 L1255.98 27.2059 L1255.98 72.576 L1248.52 72.576 L1248.52 65.6084 Q1245.81 69.7404 1242.21 71.7658 Q1238.64 73.7508 1233.9 73.7508 Q1226.08 73.7508 1222.03 68.8897 Q1217.98 64.0286 1217.98 54.671 M1236.74 26.1121 L1236.74 26.1121 Z" fill="#000000" fill-rule="nonzero" fill-opacity="1" /><path clip-path="url(#clip130)" d="M1291.95 49.7694 Q1282.92 49.7694 1279.43 51.8354 Q1275.95 53.9013 1275.95 58.8839 Q1275.95 62.8538 1278.54 65.2034 Q1281.17 67.5124 1285.67 67.5124 Q1291.87 67.5124 1295.6 63.1374 Q1299.36 58.7219 1299.36 51.4303 L1299.36 49.7694 L1291.95 49.7694 M1306.82 46.6907 L1306.82 72.576 L1299.36 72.576 L1299.36 65.6895 Q1296.81 69.8214 1293 71.8063 Q1289.2 73.7508 1283.69 73.7508 Q1276.72 73.7508 1272.59 69.8619 Q1268.5 65.9325 1268.5 59.3701 Q1268.5 51.7138 1273.6 47.825 Q1278.74 43.9361 1288.91 43.9361 L1299.36 43.9361 L1299.36 43.2069 Q1299.36 38.0623 1295.96 35.2672 Q1292.6 32.4315 1286.48 32.4315 Q1282.59 32.4315 1278.91 33.3632 Q1275.22 34.295 1271.82 36.1584 L1271.82 29.2718 Q1275.91 27.692 1279.76 26.9223 Q1283.61 26.1121 1287.25 26.1121 Q1297.09 26.1121 1301.96 31.2163 Q1306.82 36.3204 1306.82 46.6907 Z" fill="#000000" fill-rule="nonzero" fill-opacity="1" /><path clip-path="url(#clip130)" d="M1322.17 9.54393 L1329.62 9.54393 L1329.62 72.576 L1322.17 72.576 L1322.17 9.54393 Z" fill="#000000" fill-rule="nonzero" fill-opacity="1" /><path clip-path="url(#clip130)" d="M1366.24 27.2059 L1374.14 27.2059 L1388.32 65.2844 L1402.5 27.2059 L1410.4 27.2059 L1393.38 72.576 L1383.26 72.576 L1366.24 27.2059 Z" fill="#000000" fill-rule="nonzero" fill-opacity="1" /><path clip-path="url(#clip130)" d="M1449.61 28.5427 L1449.61 35.5912 Q1446.45 33.9709 1443.05 33.1607 Q1439.65 32.3505 1436 32.3505 Q1430.45 32.3505 1427.66 34.0519 Q1424.9 35.7533 1424.9 39.156 Q1424.9 41.7486 1426.89 43.2475 Q1428.87 44.7058 1434.87 46.0426 L1437.42 46.6097 Q1445.36 48.3111 1448.68 51.4303 Q1452.04 54.509 1452.04 60.0587 Q1452.04 66.3781 1447.02 70.0644 Q1442.04 73.7508 1433.29 73.7508 Q1429.64 73.7508 1425.67 73.0216 Q1421.74 72.3329 1417.37 70.9151 L1417.37 63.2184 Q1421.5 65.3654 1425.51 66.4591 Q1429.52 67.5124 1433.45 67.5124 Q1438.71 67.5124 1441.55 65.73 Q1444.39 63.9071 1444.39 60.6258 Q1444.39 57.5877 1442.32 55.9673 Q1440.29 54.3469 1433.37 52.8481 L1430.77 52.2405 Q1423.85 50.7821 1420.77 47.7845 Q1417.69 44.7463 1417.69 39.4801 Q1417.69 33.0797 1422.23 29.5959 Q1426.76 26.1121 1435.11 26.1121 Q1439.24 26.1121 1442.89 26.7198 Q1446.53 27.3274 1449.61 28.5427 Z" fill="#000000" fill-rule="nonzero" fill-opacity="1" /><path clip-path="url(#clip130)" d="M1497.49 65.7705 L1497.49 89.8329 L1490 89.8329 L1490 27.2059 L1497.49 27.2059 L1497.49 34.0924 Q1499.84 30.0415 1503.41 28.0971 Q1507.01 26.1121 1512 26.1121 Q1520.26 26.1121 1525.4 32.6746 Q1530.59 39.2371 1530.59 49.9314 Q1530.59 60.6258 1525.4 67.1883 Q1520.26 73.7508 1512 73.7508 Q1507.01 73.7508 1503.41 71.8063 Q1499.84 69.8214 1497.49 65.7705 M1522.85 49.9314 Q1522.85 41.7081 1519.45 37.0496 Q1516.09 32.3505 1510.17 32.3505 Q1504.26 32.3505 1500.86 37.0496 Q1497.49 41.7081 1497.49 49.9314 Q1497.49 58.1548 1500.86 62.8538 Q1504.26 67.5124 1510.17 67.5124 Q1516.09 67.5124 1519.45 62.8538 Q1522.85 58.1548 1522.85 49.9314 Z" fill="#000000" fill-rule="nonzero" fill-opacity="1" /><path clip-path="url(#clip130)" d="M1563.56 49.7694 Q1554.53 49.7694 1551.05 51.8354 Q1547.56 53.9013 1547.56 58.8839 Q1547.56 62.8538 1550.15 65.2034 Q1552.79 67.5124 1557.28 67.5124 Q1563.48 67.5124 1567.21 63.1374 Q1570.98 58.7219 1570.98 51.4303 L1570.98 49.7694 L1563.56 49.7694 M1578.43 46.6907 L1578.43 72.576 L1570.98 72.576 L1570.98 65.6895 Q1568.42 69.8214 1564.62 71.8063 Q1560.81 73.7508 1555.3 73.7508 Q1548.33 73.7508 1544.2 69.8619 Q1540.11 65.9325 1540.11 59.3701 Q1540.11 51.7138 1545.21 47.825 Q1550.36 43.9361 1560.53 43.9361 L1570.98 43.9361 L1570.98 43.2069 Q1570.98 38.0623 1567.57 35.2672 Q1564.21 32.4315 1558.09 32.4315 Q1554.21 32.4315 1550.52 33.3632 Q1546.83 34.295 1543.43 36.1584 L1543.43 29.2718 Q1547.52 27.692 1551.37 26.9223 Q1555.22 26.1121 1558.86 26.1121 Q1568.71 26.1121 1573.57 31.2163 Q1578.43 36.3204 1578.43 46.6907 Z" fill="#000000" fill-rule="nonzero" fill-opacity="1" /><path clip-path="url(#clip130)" d="M1593.78 27.2059 L1601.24 27.2059 L1601.24 72.576 L1593.78 72.576 L1593.78 27.2059 M1593.78 9.54393 L1601.24 9.54393 L1601.24 18.9825 L1593.78 18.9825 L1593.78 9.54393 Z" fill="#000000" fill-rule="nonzero" fill-opacity="1" /><path clip-path="url(#clip130)" d="M1643.12 34.1734 Q1641.87 33.4443 1640.37 33.1202 Q1638.91 32.7556 1637.13 32.7556 Q1630.81 32.7556 1627.41 36.8875 Q1624.04 40.9789 1624.04 48.6757 L1624.04 72.576 L1616.55 72.576 L1616.55 27.2059 L1624.04 27.2059 L1624.04 34.2544 Q1626.39 30.1225 1630.16 28.1376 Q1633.93 26.1121 1639.32 26.1121 Q1640.08 26.1121 1641.02 26.2337 Q1641.95 26.3147 1643.08 26.5172 L1643.12 34.1734 Z" fill="#000000" fill-rule="nonzero" fill-opacity="1" /><path clip-path="url(#clip130)" d="M1641.87 46.5287 L1663.7 46.5287 L1663.7 53.1722 L1641.87 53.1722 L1641.87 46.5287 Z" fill="#000000" fill-rule="nonzero" fill-opacity="1" /><path clip-path="url(#clip130)" d="M1708.14 49.9314 Q1708.14 41.7081 1704.74 37.0496 Q1701.38 32.3505 1695.46 32.3505 Q1689.55 32.3505 1686.14 37.0496 Q1682.78 41.7081 1682.78 49.9314 Q1682.78 58.1548 1686.14 62.8538 Q1689.55 67.5124 1695.46 67.5124 Q1701.38 67.5124 1704.74 62.8538 Q1708.14 58.1548 1708.14 49.9314 M1682.78 34.0924 Q1685.13 30.0415 1688.7 28.0971 Q1692.3 26.1121 1697.28 26.1121 Q1705.55 26.1121 1710.69 32.6746 Q1715.88 39.2371 1715.88 49.9314 Q1715.88 60.6258 1710.69 67.1883 Q1705.55 73.7508 1697.28 73.7508 Q1692.3 73.7508 1688.7 71.8063 Q1685.13 69.8214 1682.78 65.7705 L1682.78 72.576 L1675.29 72.576 L1675.29 9.54393 L1682.78 9.54393 L1682.78 34.0924 Z" fill="#000000" fill-rule="nonzero" fill-opacity="1" /><path clip-path="url(#clip130)" d="M1748.85 49.7694 Q1739.82 49.7694 1736.33 51.8354 Q1732.85 53.9013 1732.85 58.8839 Q1732.85 62.8538 1735.44 65.2034 Q1738.08 67.5124 1742.57 67.5124 Q1748.77 67.5124 1752.5 63.1374 Q1756.26 58.7219 1756.26 51.4303 L1756.26 49.7694 L1748.85 49.7694 M1763.72 46.6907 L1763.72 72.576 L1756.26 72.576 L1756.26 65.6895 Q1753.71 69.8214 1749.9 71.8063 Q1746.1 73.7508 1740.59 73.7508 Q1733.62 73.7508 1729.49 69.8619 Q1725.4 65.9325 1725.4 59.3701 Q1725.4 51.7138 1730.5 47.825 Q1735.65 43.9361 1745.81 43.9361 L1756.26 43.9361 L1756.26 43.2069 Q1756.26 38.0623 1752.86 35.2672 Q1749.5 32.4315 1743.38 32.4315 Q1739.49 32.4315 1735.81 33.3632 Q1732.12 34.295 1728.72 36.1584 L1728.72 29.2718 Q1732.81 27.692 1736.66 26.9223 Q1740.51 26.1121 1744.15 26.1121 Q1754 26.1121 1758.86 31.2163 Q1763.72 36.3204 1763.72 46.6907 Z" fill="#000000" fill-rule="nonzero" fill-opacity="1" /><path clip-path="url(#clip130)" d="M1807.99 28.5427 L1807.99 35.5912 Q1804.84 33.9709 1801.43 33.1607 Q1798.03 32.3505 1794.38 32.3505 Q1788.83 32.3505 1786.04 34.0519 Q1783.28 35.7533 1783.28 39.156 Q1783.28 41.7486 1785.27 43.2475 Q1787.25 44.7058 1793.25 46.0426 L1795.8 46.6097 Q1803.74 48.3111 1807.06 51.4303 Q1810.43 54.509 1810.43 60.0587 Q1810.43 66.3781 1805.4 70.0644 Q1800.42 73.7508 1791.67 73.7508 Q1788.02 73.7508 1784.05 73.0216 Q1780.12 72.3329 1775.75 70.9151 L1775.75 63.2184 Q1779.88 65.3654 1783.89 66.4591 Q1787.9 67.5124 1791.83 67.5124 Q1797.1 67.5124 1799.93 65.73 Q1802.77 63.9071 1802.77 60.6258 Q1802.77 57.5877 1800.7 55.9673 Q1798.68 54.3469 1791.75 52.8481 L1789.16 52.2405 Q1782.23 50.7821 1779.15 47.7845 Q1776.07 44.7463 1776.07 39.4801 Q1776.07 33.0797 1780.61 29.5959 Q1785.15 26.1121 1793.49 26.1121 Q1797.62 26.1121 1801.27 26.7198 Q1804.92 27.3274 1807.99 28.5427 Z" fill="#000000" fill-rule="nonzero" fill-opacity="1" /><path clip-path="url(#clip130)" d="M1861.1 48.0275 L1861.1 51.6733 L1826.83 51.6733 Q1827.32 59.3701 1831.45 63.421 Q1835.62 67.4314 1843.04 67.4314 Q1847.33 67.4314 1851.34 66.3781 Q1855.39 65.3249 1859.36 63.2184 L1859.36 70.267 Q1855.35 71.9684 1851.14 72.8596 Q1846.92 73.7508 1842.59 73.7508 Q1831.73 73.7508 1825.37 67.4314 Q1819.05 61.1119 1819.05 50.3365 Q1819.05 39.1965 1825.05 32.6746 Q1831.08 26.1121 1841.29 26.1121 Q1850.45 26.1121 1855.75 32.0264 Q1861.1 37.9003 1861.1 48.0275 M1853.65 45.84 Q1853.57 39.7232 1850.21 36.0774 Q1846.88 32.4315 1841.37 32.4315 Q1835.14 32.4315 1831.37 35.9558 Q1827.64 39.4801 1827.07 45.8805 L1853.65 45.84 Z" fill="#000000" fill-rule="nonzero" fill-opacity="1" /><path clip-path="url(#clip130)" d="M1903.19 34.0924 L1903.19 9.54393 L1910.64 9.54393 L1910.64 72.576 L1903.19 72.576 L1903.19 65.7705 Q1900.84 69.8214 1897.24 71.8063 Q1893.67 73.7508 1888.65 73.7508 Q1880.43 73.7508 1875.24 67.1883 Q1870.1 60.6258 1870.1 49.9314 Q1870.1 39.2371 1875.24 32.6746 Q1880.43 26.1121 1888.65 26.1121 Q1893.67 26.1121 1897.24 28.0971 Q1900.84 30.0415 1903.19 34.0924 M1877.79 49.9314 Q1877.79 58.1548 1881.15 62.8538 Q1884.56 67.5124 1890.47 67.5124 Q1896.39 67.5124 1899.79 62.8538 Q1903.19 58.1548 1903.19 49.9314 Q1903.19 41.7081 1899.79 37.0496 Q1896.39 32.3505 1890.47 32.3505 Q1884.56 32.3505 1881.15 37.0496 Q1877.79 41.7081 1877.79 49.9314 Z" fill="#000000" fill-rule="nonzero" fill-opacity="1" /><polyline clip-path="url(#clip131)" style="stroke:#ff0000; stroke-linecap:round; stroke-linejoin:round; stroke-width:8; stroke-opacity:1; fill:none" stroke-dasharray="32, 20" points="280.151,1666.53 294.475,1655.75 308.799,1641.44 323.123,1621.91 337.447,1594.94 351.771,1557.7 366.095,1506.61 380.419,1437.62 394.743,1346.65 409.067,1230.8 423.391,1090.02 437.715,928.972 452.039,757.902 466.364,590.956 480.688,442.93 495.012,324.781 509.336,241.576 523.66,192.536 537.984,173.254 552.308,177.583 566.632,199.591 580.956,234.164 595.28,277.038 609.604,325.185 623.928,376.34 638.252,428.895 652.576,481.743 666.9,534.098 681.224,585.44 695.549,635.428 709.873,683.834 724.197,730.528 738.521,775.44 752.845,818.54 767.169,859.831 781.493,899.338 795.817,937.099 810.141,973.16 824.465,1007.58 838.789,1040.41 853.113,1071.71 867.437,1101.54 881.761,1129.97 896.085,1157.06 910.409,1182.85 924.733,1207.42 939.058,1230.81 953.382,1253.08 967.706,1274.29 982.03,1294.47 996.354,1313.68 1010.68,1331.96 1025,1349.36 1039.33,1365.92 1053.65,1381.68 1067.97,1396.67 1082.3,1410.94 1096.62,1424.52 1110.95,1437.44 1125.27,1449.73 1139.59,1461.43 1153.92,1472.56 1168.24,1483.15 1182.57,1493.23 1196.89,1502.81 1211.21,1511.93 1225.54,1520.61 1239.86,1528.86 1254.19,1536.71 1268.51,1544.19 1282.83,1551.29 1297.16,1558.06 1311.48,1564.49 1325.81,1570.61 1340.13,1576.44 1354.46,1581.97 1368.78,1587.24 1383.1,1592.26 1397.43,1597.03 1411.75,1601.56 1426.08,1605.88 1440.4,1609.99 1454.72,1613.9 1469.05,1617.61 1483.37,1621.15 1497.7,1624.51 1512.02,1627.71 1526.34,1630.76 1540.67,1633.65 1554.99,1636.4 1569.32,1639.02 1583.64,1641.52 1597.96,1643.89 1612.29,1646.14 1626.61,1648.29 1640.94,1650.33 1655.26,1652.28 1669.58,1654.12 1683.91,1655.88 1698.23,1657.55 1712.56,1659.14 1726.88,1660.66 1741.2,1662.1 1755.53,1663.46 1769.85,1664.77 1784.18,1666.01 1798.5,1667.19 1812.83,1668.31 1827.15,1669.37 1841.47,1670.39 1855.8,1671.36 1870.12,1672.27 1884.45,1673.15 1898.77,1673.98 1913.09,1674.77 1927.42,1675.52 1941.74,1676.24 1956.07,1676.92 1970.39,1677.56 1984.71,1678.18 1999.04,1678.77 2013.36,1679.32 2027.69,1679.85 2042.01,1680.36 2056.33,1680.84 2070.66,1681.29 2084.98,1681.73 2099.31,1682.14 2113.63,1682.53 2127.95,1682.91 2142.28,1683.26 2156.6,1683.6 2170.93,1683.92 2185.25,1684.23 2199.57,1684.52 2213.9,1684.8 2228.22,1685.06 2242.55,1685.31 2256.87,1685.55 2271.2,1685.78 2285.52,1685.99 2299.84,1686.2 2314.17,1686.39 2328.49,1686.58 2342.82,1686.76 2357.14,1686.92 2371.46,1687.08 2385.79,1687.24 2400.11,1687.38 2414.44,1687.52 2428.76,1687.65 2443.08,1687.77 2457.41,1687.89 2471.73,1688.01 2486.06,1688.11 2500.38,1688.21 2514.7,1688.31 2529.03,1688.4 2543.35,1688.49 2557.68,1688.58 2572,1688.65 "/>
<polyline clip-path="url(#clip131)" style="stroke:#8b0000; stroke-linecap:round; stroke-linejoin:round; stroke-width:8; stroke-opacity:1; fill:none" points="280.151,1666.53 294.475,1655.87 308.799,1642.4 323.123,1625.43 337.447,1604.1 351.771,1577.44 366.095,1544.33 380.419,1503.54 394.743,1453.81 409.067,1393.98 423.391,1323.16 437.715,1240.97 452.039,1147.87 466.364,1045.35 480.688,936.159 495.012,824.383 509.336,714.725 523.66,612.329 537.984,522.022 552.308,447.514 566.632,390.974 580.956,352.513 595.28,331.997 609.604,327.468 623.928,336.357 638.252,356.295 652.576,384.653 666.9,419.325 681.224,458.429 695.549,500.449 709.873,544.202 724.197,588.773 738.521,633.464 752.845,677.767 767.169,721.319 781.493,763.846 795.817,805.164 810.141,845.156 824.465,883.747 838.789,920.897 853.113,956.592 867.437,990.837 881.761,1023.65 896.085,1055.05 910.409,1085.09 924.733,1113.8 939.058,1141.22 953.382,1167.39 967.706,1192.37 982.03,1216.2 996.354,1238.93 1010.68,1260.59 1025,1281.25 1039.33,1300.93 1053.65,1319.69 1067.97,1337.55 1082.3,1354.58 1096.62,1370.79 1110.95,1386.23 1125.27,1400.93 1139.59,1414.93 1153.92,1428.26 1168.24,1440.95 1182.57,1453.03 1196.89,1464.53 1211.21,1475.48 1225.54,1485.9 1239.86,1495.82 1254.19,1505.25 1268.51,1514.24 1282.83,1522.79 1297.16,1530.92 1311.48,1538.67 1325.81,1546.03 1340.13,1553.04 1354.46,1559.71 1368.78,1566.06 1383.1,1572.1 1397.43,1577.85 1411.75,1583.32 1426.08,1588.52 1440.4,1593.47 1454.72,1598.18 1469.05,1602.66 1483.37,1606.93 1497.7,1610.98 1512.02,1614.84 1526.34,1618.51 1540.67,1622 1554.99,1625.33 1569.32,1628.49 1583.64,1631.5 1597.96,1634.36 1612.29,1637.08 1626.61,1639.67 1640.94,1642.13 1655.26,1644.47 1669.58,1646.7 1683.91,1648.82 1698.23,1650.84 1712.56,1652.76 1726.88,1654.58 1741.2,1656.32 1755.53,1657.97 1769.85,1659.54 1784.18,1661.04 1798.5,1662.46 1812.83,1663.81 1827.15,1665.1 1841.47,1666.33 1855.8,1667.49 1870.12,1668.6 1884.45,1669.65 1898.77,1670.65 1913.09,1671.6 1927.42,1672.51 1941.74,1673.38 1956.07,1674.2 1970.39,1674.98 1984.71,1675.72 1999.04,1676.43 2013.36,1677.1 2027.69,1677.74 2042.01,1678.35 2056.33,1678.92 2070.66,1679.47 2084.98,1680 2099.31,1680.49 2113.63,1680.97 2127.95,1681.42 2142.28,1681.85 2156.6,1682.26 2170.93,1682.64 2185.25,1683.01 2199.57,1683.36 2213.9,1683.7 2228.22,1684.02 2242.55,1684.32 2256.87,1684.6 2271.2,1684.88 2285.52,1685.14 2299.84,1685.38 2314.17,1685.62 2328.49,1685.84 2342.82,1686.06 2357.14,1686.26 2371.46,1686.45 2385.79,1686.63 2400.11,1686.81 2414.44,1686.97 2428.76,1687.13 2443.08,1687.28 2457.41,1687.42 2471.73,1687.56 2486.06,1687.69 2500.38,1687.81 2514.7,1687.93 2529.03,1688.04 2543.35,1688.15 2557.68,1688.25 2572,1688.34 "/>
<path clip-path="url(#clip130)" d="M1869.25 336.856 L2559.78 336.856 L2559.78 181.336 L1869.25 181.336  Z" fill="#ffffff" fill-rule="evenodd" fill-opacity="1"/>
<polyline clip-path="url(#clip130)" style="stroke:#000000; stroke-linecap:round; stroke-linejoin:round; stroke-width:4; stroke-opacity:1; fill:none" points="1869.25,336.856 2559.78,336.856 2559.78,181.336 1869.25,181.336 1869.25,336.856 "/>
<polyline clip-path="url(#clip130)" style="stroke:#ff0000; stroke-linecap:round; stroke-linejoin:round; stroke-width:8; stroke-opacity:1; fill:none" stroke-dasharray="32, 20" points="1896.24,233.176 2058.2,233.176 "/>
<path clip-path="url(#clip130)" d="M2085.19 215.896 L2089.87 215.896 L2089.87 250.456 L2085.19 250.456 L2085.19 215.896 Z" fill="#000000" fill-rule="nonzero" fill-opacity="1" /><path clip-path="url(#clip130)" d="M2124.29 214.484 Q2121.19 219.808 2119.68 225.017 Q2118.18 230.225 2118.18 235.572 Q2118.18 240.919 2119.68 246.174 Q2121.21 251.405 2124.29 256.706 L2120.59 256.706 Q2117.12 251.266 2115.38 246.012 Q2113.67 240.757 2113.67 235.572 Q2113.67 230.41 2115.38 225.179 Q2117.09 219.947 2120.59 214.484 L2124.29 214.484 Z" fill="#000000" fill-rule="nonzero" fill-opacity="1" /><path clip-path="url(#clip130)" d="M2132.55 224.531 L2136.81 224.531 L2136.81 250.456 L2132.55 250.456 L2132.55 224.531 M2132.55 214.438 L2136.81 214.438 L2136.81 219.831 L2132.55 219.831 L2132.55 214.438 Z" fill="#000000" fill-rule="nonzero" fill-opacity="1" /><path clip-path="url(#clip130)" d="M2167.28 234.808 L2167.28 250.456 L2163.02 250.456 L2163.02 234.947 Q2163.02 231.267 2161.58 229.438 Q2160.15 227.609 2157.28 227.609 Q2153.83 227.609 2151.84 229.808 Q2149.85 232.007 2149.85 235.804 L2149.85 250.456 L2145.56 250.456 L2145.56 224.531 L2149.85 224.531 L2149.85 228.558 Q2151.37 226.22 2153.43 225.063 Q2155.52 223.906 2158.23 223.906 Q2162.69 223.906 2164.99 226.683 Q2167.28 229.438 2167.28 234.808 Z" fill="#000000" fill-rule="nonzero" fill-opacity="1" /><path clip-path="url(#clip130)" d="M2192.83 228.466 L2192.83 214.438 L2197.09 214.438 L2197.09 250.456 L2192.83 250.456 L2192.83 246.567 Q2191.49 248.882 2189.43 250.016 Q2187.39 251.128 2184.52 251.128 Q2179.82 251.128 2176.86 247.378 Q2173.92 243.628 2173.92 237.517 Q2173.92 231.405 2176.86 227.655 Q2179.82 223.906 2184.52 223.906 Q2187.39 223.906 2189.43 225.04 Q2191.49 226.151 2192.83 228.466 M2178.32 237.517 Q2178.32 242.216 2180.24 244.901 Q2182.18 247.563 2185.56 247.563 Q2188.94 247.563 2190.89 244.901 Q2192.83 242.216 2192.83 237.517 Q2192.83 232.817 2190.89 230.155 Q2188.94 227.47 2185.56 227.47 Q2182.18 227.47 2180.24 230.155 Q2178.32 232.817 2178.32 237.517 Z" fill="#000000" fill-rule="nonzero" fill-opacity="1" /><path clip-path="url(#clip130)" d="M2205.86 224.531 L2210.12 224.531 L2210.12 250.456 L2205.86 250.456 L2205.86 224.531 M2205.86 214.438 L2210.12 214.438 L2210.12 219.831 L2205.86 219.831 L2205.86 214.438 Z" fill="#000000" fill-rule="nonzero" fill-opacity="1" /><path clip-path="url(#clip130)" d="M2215.98 224.531 L2220.49 224.531 L2228.6 246.29 L2236.7 224.531 L2241.21 224.531 L2231.49 250.456 L2225.7 250.456 L2215.98 224.531 Z" fill="#000000" fill-rule="nonzero" fill-opacity="1" /><path clip-path="url(#clip130)" d="M2247.09 224.531 L2251.35 224.531 L2251.35 250.456 L2247.09 250.456 L2247.09 224.531 M2247.09 214.438 L2251.35 214.438 L2251.35 219.831 L2247.09 219.831 L2247.09 214.438 Z" fill="#000000" fill-rule="nonzero" fill-opacity="1" /><path clip-path="url(#clip130)" d="M2277.32 228.466 L2277.32 214.438 L2281.58 214.438 L2281.58 250.456 L2277.32 250.456 L2277.32 246.567 Q2275.98 248.882 2273.92 250.016 Q2271.88 251.128 2269.01 251.128 Q2264.31 251.128 2261.35 247.378 Q2258.41 243.628 2258.41 237.517 Q2258.41 231.405 2261.35 227.655 Q2264.31 223.906 2269.01 223.906 Q2271.88 223.906 2273.92 225.04 Q2275.98 226.151 2277.32 228.466 M2262.81 237.517 Q2262.81 242.216 2264.73 244.901 Q2266.67 247.563 2270.05 247.563 Q2273.43 247.563 2275.38 244.901 Q2277.32 242.216 2277.32 237.517 Q2277.32 232.817 2275.38 230.155 Q2273.43 227.47 2270.05 227.47 Q2266.67 227.47 2264.73 230.155 Q2262.81 232.817 2262.81 237.517 Z" fill="#000000" fill-rule="nonzero" fill-opacity="1" /><path clip-path="url(#clip130)" d="M2289.92 240.225 L2289.92 224.531 L2294.17 224.531 L2294.17 240.063 Q2294.17 243.743 2295.61 245.595 Q2297.04 247.424 2299.92 247.424 Q2303.36 247.424 2305.35 245.225 Q2307.37 243.026 2307.37 239.229 L2307.37 224.531 L2311.63 224.531 L2311.63 250.456 L2307.37 250.456 L2307.37 246.475 Q2305.82 248.836 2303.76 249.993 Q2301.72 251.128 2299.01 251.128 Q2294.54 251.128 2292.23 248.35 Q2289.92 245.572 2289.92 240.225 M2300.63 223.906 L2300.63 223.906 Z" fill="#000000" fill-rule="nonzero" fill-opacity="1" /><path clip-path="url(#clip130)" d="M2332.18 237.424 Q2327.02 237.424 2325.03 238.604 Q2323.04 239.785 2323.04 242.632 Q2323.04 244.901 2324.52 246.243 Q2326.03 247.563 2328.6 247.563 Q2332.14 247.563 2334.27 245.063 Q2336.42 242.54 2336.42 238.373 L2336.42 237.424 L2332.18 237.424 M2340.68 235.665 L2340.68 250.456 L2336.42 250.456 L2336.42 246.521 Q2334.96 248.882 2332.79 250.016 Q2330.61 251.128 2327.46 251.128 Q2323.48 251.128 2321.12 248.905 Q2318.78 246.66 2318.78 242.91 Q2318.78 238.535 2321.7 236.313 Q2324.64 234.091 2330.45 234.091 L2336.42 234.091 L2336.42 233.674 Q2336.42 230.734 2334.48 229.137 Q2332.55 227.517 2329.06 227.517 Q2326.84 227.517 2324.73 228.049 Q2322.62 228.581 2320.68 229.646 L2320.68 225.711 Q2323.02 224.808 2325.22 224.368 Q2327.42 223.906 2329.5 223.906 Q2335.12 223.906 2337.9 226.822 Q2340.68 229.739 2340.68 235.665 Z" fill="#000000" fill-rule="nonzero" fill-opacity="1" /><path clip-path="url(#clip130)" d="M2349.45 214.438 L2353.71 214.438 L2353.71 250.456 L2349.45 250.456 L2349.45 214.438 Z" fill="#000000" fill-rule="nonzero" fill-opacity="1" /><path clip-path="url(#clip130)" d="M2360.47 235.572 L2372.95 235.572 L2372.95 239.368 L2360.47 239.368 L2360.47 235.572 Z" fill="#000000" fill-rule="nonzero" fill-opacity="1" /><path clip-path="url(#clip130)" d="M2398.34 237.517 Q2398.34 232.817 2396.4 230.155 Q2394.47 227.47 2391.1 227.47 Q2387.72 227.47 2385.77 230.155 Q2383.85 232.817 2383.85 237.517 Q2383.85 242.216 2385.77 244.901 Q2387.72 247.563 2391.1 247.563 Q2394.47 247.563 2396.4 244.901 Q2398.34 242.216 2398.34 237.517 M2383.85 228.466 Q2385.19 226.151 2387.23 225.04 Q2389.29 223.906 2392.14 223.906 Q2396.86 223.906 2399.8 227.655 Q2402.76 231.405 2402.76 237.517 Q2402.76 243.628 2399.8 247.378 Q2396.86 251.128 2392.14 251.128 Q2389.29 251.128 2387.23 250.016 Q2385.19 248.882 2383.85 246.567 L2383.85 250.456 L2379.57 250.456 L2379.57 214.438 L2383.85 214.438 L2383.85 228.466 Z" fill="#000000" fill-rule="nonzero" fill-opacity="1" /><path clip-path="url(#clip130)" d="M2421.6 237.424 Q2416.44 237.424 2414.45 238.604 Q2412.46 239.785 2412.46 242.632 Q2412.46 244.901 2413.94 246.243 Q2415.45 247.563 2418.02 247.563 Q2421.56 247.563 2423.69 245.063 Q2425.84 242.54 2425.84 238.373 L2425.84 237.424 L2421.6 237.424 M2430.1 235.665 L2430.1 250.456 L2425.84 250.456 L2425.84 246.521 Q2424.38 248.882 2422.21 250.016 Q2420.03 251.128 2416.88 251.128 Q2412.9 251.128 2410.54 248.905 Q2408.2 246.66 2408.2 242.91 Q2408.2 238.535 2411.12 236.313 Q2414.06 234.091 2419.87 234.091 L2425.84 234.091 L2425.84 233.674 Q2425.84 230.734 2423.9 229.137 Q2421.97 227.517 2418.48 227.517 Q2416.26 227.517 2414.15 228.049 Q2412.04 228.581 2410.1 229.646 L2410.1 225.711 Q2412.44 224.808 2414.64 224.368 Q2416.84 223.906 2418.92 223.906 Q2424.54 223.906 2427.32 226.822 Q2430.1 229.739 2430.1 235.665 Z" fill="#000000" fill-rule="nonzero" fill-opacity="1" /><path clip-path="url(#clip130)" d="M2455.4 225.294 L2455.4 229.322 Q2453.59 228.396 2451.65 227.933 Q2449.71 227.47 2447.62 227.47 Q2444.45 227.47 2442.85 228.443 Q2441.28 229.415 2441.28 231.359 Q2441.28 232.841 2442.41 233.697 Q2443.55 234.53 2446.97 235.294 L2448.43 235.618 Q2452.97 236.591 2454.87 238.373 Q2456.79 240.132 2456.79 243.304 Q2456.79 246.915 2453.92 249.021 Q2451.07 251.128 2446.07 251.128 Q2443.99 251.128 2441.72 250.711 Q2439.47 250.317 2436.97 249.507 L2436.97 245.109 Q2439.34 246.336 2441.63 246.961 Q2443.92 247.563 2446.16 247.563 Q2449.17 247.563 2450.79 246.544 Q2452.41 245.503 2452.41 243.628 Q2452.41 241.892 2451.23 240.966 Q2450.08 240.04 2446.12 239.183 L2444.64 238.836 Q2440.68 238.003 2438.92 236.29 Q2437.16 234.554 2437.16 231.544 Q2437.16 227.887 2439.75 225.896 Q2442.34 223.906 2447.11 223.906 Q2449.47 223.906 2451.56 224.253 Q2453.64 224.6 2455.4 225.294 Z" fill="#000000" fill-rule="nonzero" fill-opacity="1" /><path clip-path="url(#clip130)" d="M2485.75 236.429 L2485.75 238.512 L2466.16 238.512 Q2466.44 242.91 2468.8 245.225 Q2471.19 247.516 2475.42 247.516 Q2477.88 247.516 2480.17 246.915 Q2482.48 246.313 2484.75 245.109 L2484.75 249.137 Q2482.46 250.109 2480.05 250.618 Q2477.65 251.128 2475.17 251.128 Q2468.97 251.128 2465.33 247.516 Q2461.72 243.905 2461.72 237.748 Q2461.72 231.382 2465.15 227.655 Q2468.59 223.906 2474.43 223.906 Q2479.66 223.906 2482.69 227.285 Q2485.75 230.642 2485.75 236.429 M2481.49 235.179 Q2481.44 231.683 2479.52 229.6 Q2477.62 227.517 2474.47 227.517 Q2470.91 227.517 2468.76 229.53 Q2466.63 231.544 2466.3 235.202 L2481.49 235.179 Z" fill="#000000" fill-rule="nonzero" fill-opacity="1" /><path clip-path="url(#clip130)" d="M2509.8 228.466 L2509.8 214.438 L2514.06 214.438 L2514.06 250.456 L2509.8 250.456 L2509.8 246.567 Q2508.46 248.882 2506.4 250.016 Q2504.36 251.128 2501.49 251.128 Q2496.79 251.128 2493.83 247.378 Q2490.89 243.628 2490.89 237.517 Q2490.89 231.405 2493.83 227.655 Q2496.79 223.906 2501.49 223.906 Q2504.36 223.906 2506.4 225.04 Q2508.46 226.151 2509.8 228.466 M2495.28 237.517 Q2495.28 242.216 2497.21 244.901 Q2499.15 247.563 2502.53 247.563 Q2505.91 247.563 2507.85 244.901 Q2509.8 242.216 2509.8 237.517 Q2509.8 232.817 2507.85 230.155 Q2505.91 227.47 2502.53 227.47 Q2499.15 227.47 2497.21 230.155 Q2495.28 232.817 2495.28 237.517 Z" fill="#000000" fill-rule="nonzero" fill-opacity="1" /><path clip-path="url(#clip130)" d="M2522.16 214.484 L2525.86 214.484 Q2529.34 219.947 2531.05 225.179 Q2532.78 230.41 2532.78 235.572 Q2532.78 240.757 2531.05 246.012 Q2529.34 251.266 2525.86 256.706 L2522.16 256.706 Q2525.24 251.405 2526.74 246.174 Q2528.27 240.919 2528.27 235.572 Q2528.27 230.225 2526.74 225.017 Q2525.24 219.808 2522.16 214.484 Z" fill="#000000" fill-rule="nonzero" fill-opacity="1" /><polyline clip-path="url(#clip130)" style="stroke:#8b0000; stroke-linecap:round; stroke-linejoin:round; stroke-width:8; stroke-opacity:1; fill:none" points="1896.24,285.016 2058.2,285.016 "/>
<path clip-path="url(#clip130)" d="M2085.19 267.736 L2089.87 267.736 L2089.87 302.296 L2085.19 302.296 L2085.19 267.736 Z" fill="#000000" fill-rule="nonzero" fill-opacity="1" /><path clip-path="url(#clip130)" d="M2124.29 266.324 Q2121.19 271.648 2119.68 276.857 Q2118.18 282.065 2118.18 287.412 Q2118.18 292.759 2119.68 298.014 Q2121.21 303.245 2124.29 308.546 L2120.59 308.546 Q2117.12 303.106 2115.38 297.852 Q2113.67 292.597 2113.67 287.412 Q2113.67 282.25 2115.38 277.019 Q2117.09 271.787 2120.59 266.324 L2124.29 266.324 Z" fill="#000000" fill-rule="nonzero" fill-opacity="1" /><path clip-path="url(#clip130)" d="M2136.68 298.407 L2136.68 312.157 L2132.39 312.157 L2132.39 276.371 L2136.68 276.371 L2136.68 280.306 Q2138.02 277.991 2140.05 276.88 Q2142.12 275.746 2144.96 275.746 Q2149.68 275.746 2152.62 279.495 Q2155.59 283.245 2155.59 289.357 Q2155.59 295.468 2152.62 299.218 Q2149.68 302.968 2144.96 302.968 Q2142.12 302.968 2140.05 301.856 Q2138.02 300.722 2136.68 298.407 M2151.17 289.357 Q2151.17 284.657 2149.22 281.995 Q2147.3 279.31 2143.92 279.31 Q2140.54 279.31 2138.6 281.995 Q2136.68 284.657 2136.68 289.357 Q2136.68 294.056 2138.6 296.741 Q2140.54 299.403 2143.92 299.403 Q2147.3 299.403 2149.22 296.741 Q2151.17 294.056 2151.17 289.357 Z" fill="#000000" fill-rule="nonzero" fill-opacity="1" /><path clip-path="url(#clip130)" d="M2174.43 289.264 Q2169.27 289.264 2167.28 290.444 Q2165.29 291.625 2165.29 294.472 Q2165.29 296.741 2166.77 298.083 Q2168.27 299.403 2170.84 299.403 Q2174.38 299.403 2176.51 296.903 Q2178.67 294.38 2178.67 290.213 L2178.67 289.264 L2174.43 289.264 M2182.93 287.505 L2182.93 302.296 L2178.67 302.296 L2178.67 298.361 Q2177.21 300.722 2175.03 301.856 Q2172.86 302.968 2169.71 302.968 Q2165.73 302.968 2163.37 300.745 Q2161.03 298.5 2161.03 294.75 Q2161.03 290.375 2163.94 288.153 Q2166.88 285.931 2172.69 285.931 L2178.67 285.931 L2178.67 285.514 Q2178.67 282.574 2176.72 280.977 Q2174.8 279.357 2171.3 279.357 Q2169.08 279.357 2166.98 279.889 Q2164.87 280.421 2162.93 281.486 L2162.93 277.551 Q2165.26 276.648 2167.46 276.208 Q2169.66 275.746 2171.74 275.746 Q2177.37 275.746 2180.15 278.662 Q2182.93 281.579 2182.93 287.505 Z" fill="#000000" fill-rule="nonzero" fill-opacity="1" /><path clip-path="url(#clip130)" d="M2191.7 276.371 L2195.96 276.371 L2195.96 302.296 L2191.7 302.296 L2191.7 276.371 M2191.7 266.278 L2195.96 266.278 L2195.96 271.671 L2191.7 271.671 L2191.7 266.278 Z" fill="#000000" fill-rule="nonzero" fill-opacity="1" /><path clip-path="url(#clip130)" d="M2219.89 280.352 Q2219.17 279.935 2218.32 279.75 Q2217.49 279.542 2216.47 279.542 Q2212.86 279.542 2210.91 281.903 Q2208.99 284.241 2208.99 288.639 L2208.99 302.296 L2204.71 302.296 L2204.71 276.371 L2208.99 276.371 L2208.99 280.398 Q2210.33 278.037 2212.49 276.903 Q2214.64 275.746 2217.72 275.746 Q2218.16 275.746 2218.69 275.815 Q2219.22 275.861 2219.87 275.977 L2219.89 280.352 Z" fill="#000000" fill-rule="nonzero" fill-opacity="1" /><path clip-path="url(#clip130)" d="M2219.17 287.412 L2231.65 287.412 L2231.65 291.208 L2219.17 291.208 L2219.17 287.412 Z" fill="#000000" fill-rule="nonzero" fill-opacity="1" /><path clip-path="url(#clip130)" d="M2257.05 289.357 Q2257.05 284.657 2255.1 281.995 Q2253.18 279.31 2249.8 279.31 Q2246.42 279.31 2244.48 281.995 Q2242.55 284.657 2242.55 289.357 Q2242.55 294.056 2244.48 296.741 Q2246.42 299.403 2249.8 299.403 Q2253.18 299.403 2255.1 296.741 Q2257.05 294.056 2257.05 289.357 M2242.55 280.306 Q2243.9 277.991 2245.93 276.88 Q2247.99 275.746 2250.84 275.746 Q2255.56 275.746 2258.5 279.495 Q2261.47 283.245 2261.47 289.357 Q2261.47 295.468 2258.5 299.218 Q2255.56 302.968 2250.84 302.968 Q2247.99 302.968 2245.93 301.856 Q2243.9 300.722 2242.55 298.407 L2242.55 302.296 L2238.27 302.296 L2238.27 266.278 L2242.55 266.278 L2242.55 280.306 Z" fill="#000000" fill-rule="nonzero" fill-opacity="1" /><path clip-path="url(#clip130)" d="M2280.31 289.264 Q2275.15 289.264 2273.16 290.444 Q2271.17 291.625 2271.17 294.472 Q2271.17 296.741 2272.65 298.083 Q2274.15 299.403 2276.72 299.403 Q2280.26 299.403 2282.39 296.903 Q2284.54 294.38 2284.54 290.213 L2284.54 289.264 L2280.31 289.264 M2288.8 287.505 L2288.8 302.296 L2284.54 302.296 L2284.54 298.361 Q2283.09 300.722 2280.91 301.856 Q2278.73 302.968 2275.59 302.968 Q2271.61 302.968 2269.24 300.745 Q2266.91 298.5 2266.91 294.75 Q2266.91 290.375 2269.82 288.153 Q2272.76 285.931 2278.57 285.931 L2284.54 285.931 L2284.54 285.514 Q2284.54 282.574 2282.6 280.977 Q2280.68 279.357 2277.18 279.357 Q2274.96 279.357 2272.86 279.889 Q2270.75 280.421 2268.8 281.486 L2268.8 277.551 Q2271.14 276.648 2273.34 276.208 Q2275.54 275.746 2277.62 275.746 Q2283.25 275.746 2286.03 278.662 Q2288.8 281.579 2288.8 287.505 Z" fill="#000000" fill-rule="nonzero" fill-opacity="1" /><path clip-path="url(#clip130)" d="M2314.1 277.134 L2314.1 281.162 Q2312.3 280.236 2310.35 279.773 Q2308.41 279.31 2306.33 279.31 Q2303.16 279.31 2301.56 280.283 Q2299.98 281.255 2299.98 283.199 Q2299.98 284.681 2301.12 285.537 Q2302.25 286.37 2305.68 287.134 L2307.14 287.458 Q2311.67 288.431 2313.57 290.213 Q2315.49 291.972 2315.49 295.144 Q2315.49 298.755 2312.62 300.861 Q2309.78 302.968 2304.78 302.968 Q2302.69 302.968 2300.42 302.551 Q2298.18 302.157 2295.68 301.347 L2295.68 296.949 Q2298.04 298.176 2300.33 298.801 Q2302.62 299.403 2304.87 299.403 Q2307.88 299.403 2309.5 298.384 Q2311.12 297.343 2311.12 295.468 Q2311.12 293.732 2309.94 292.806 Q2308.78 291.88 2304.82 291.023 L2303.34 290.676 Q2299.38 289.843 2297.62 288.13 Q2295.86 286.394 2295.86 283.384 Q2295.86 279.727 2298.46 277.736 Q2301.05 275.746 2305.82 275.746 Q2308.18 275.746 2310.26 276.093 Q2312.35 276.44 2314.1 277.134 Z" fill="#000000" fill-rule="nonzero" fill-opacity="1" /><path clip-path="url(#clip130)" d="M2344.45 288.269 L2344.45 290.352 L2324.87 290.352 Q2325.15 294.75 2327.51 297.065 Q2329.89 299.356 2334.13 299.356 Q2336.58 299.356 2338.87 298.755 Q2341.19 298.153 2343.46 296.949 L2343.46 300.977 Q2341.16 301.949 2338.76 302.458 Q2336.35 302.968 2333.87 302.968 Q2327.67 302.968 2324.04 299.356 Q2320.42 295.745 2320.42 289.588 Q2320.42 283.222 2323.85 279.495 Q2327.3 275.746 2333.13 275.746 Q2338.36 275.746 2341.4 279.125 Q2344.45 282.482 2344.45 288.269 M2340.19 287.019 Q2340.15 283.523 2338.23 281.44 Q2336.33 279.357 2333.18 279.357 Q2329.61 279.357 2327.46 281.37 Q2325.33 283.384 2325.01 287.042 L2340.19 287.019 Z" fill="#000000" fill-rule="nonzero" fill-opacity="1" /><path clip-path="url(#clip130)" d="M2368.5 280.306 L2368.5 266.278 L2372.76 266.278 L2372.76 302.296 L2368.5 302.296 L2368.5 298.407 Q2367.16 300.722 2365.1 301.856 Q2363.06 302.968 2360.19 302.968 Q2355.49 302.968 2352.53 299.218 Q2349.59 295.468 2349.59 289.357 Q2349.59 283.245 2352.53 279.495 Q2355.49 275.746 2360.19 275.746 Q2363.06 275.746 2365.1 276.88 Q2367.16 277.991 2368.5 280.306 M2353.99 289.357 Q2353.99 294.056 2355.91 296.741 Q2357.85 299.403 2361.23 299.403 Q2364.61 299.403 2366.56 296.741 Q2368.5 294.056 2368.5 289.357 Q2368.5 284.657 2366.56 281.995 Q2364.61 279.31 2361.23 279.31 Q2357.85 279.31 2355.91 281.995 Q2353.99 284.657 2353.99 289.357 Z" fill="#000000" fill-rule="nonzero" fill-opacity="1" /><path clip-path="url(#clip130)" d="M2380.86 266.324 L2384.57 266.324 Q2388.04 271.787 2389.75 277.019 Q2391.49 282.25 2391.49 287.412 Q2391.49 292.597 2389.75 297.852 Q2388.04 303.106 2384.57 308.546 L2380.86 308.546 Q2383.94 303.245 2385.45 298.014 Q2386.97 292.759 2386.97 287.412 Q2386.97 282.065 2385.45 276.857 Q2383.94 271.648 2380.86 266.324 Z" fill="#000000" fill-rule="nonzero" fill-opacity="1" /></svg>
