<?xml version="1.0" encoding="utf-8"?>
<svg xmlns="http://www.w3.org/2000/svg" xmlns:xlink="http://www.w3.org/1999/xlink" width="672" height="480" viewBox="0 0 2688 1920">
<defs>
  <clipPath id="clip310">
    <rect x="0" y="0" width="2688" height="1920"/>
  </clipPath>
</defs>
<path clip-path="url(#clip310)" d="M0 1920 L2688 1920 L2688 -4.26326e-14 L0 -4.26326e-14  Z" fill="#ffffff" fill-rule="evenodd" fill-opacity="1"/>
<defs>
  <clipPath id="clip311">
    <rect x="211" y="127" width="2430" height="1607"/>
  </clipPath>
</defs>
<path clip-path="url(#clip310)" d="M211.395 1734.12 L2640.76 1734.12 L2640.76 127.792 L211.395 127.792  Z" fill="#ffffff" fill-rule="evenodd" fill-opacity="1"/>
<polyline clip-path="url(#clip311)" style="stroke:#000000; stroke-linecap:round; stroke-linejoin:round; stroke-width:2; stroke-opacity:0.1; fill:none" points="280.151,1734.12 280.151,127.792 "/>
<polyline clip-path="url(#clip311)" style="stroke:#000000; stroke-linecap:round; stroke-linejoin:round; stroke-width:2; stroke-opacity:0.1; fill:none" points="853.113,1734.12 853.113,127.792 "/>
<polyline clip-path="url(#clip311)" style="stroke:#000000; stroke-linecap:round; stroke-linejoin:round; stroke-width:2; stroke-opacity:0.1; fill:none" points="1426.08,1734.12 1426.08,127.792 "/>
<polyline clip-path="url(#clip311)" style="stroke:#000000; stroke-linecap:round; stroke-linejoin:round; stroke-width:2; stroke-opacity:0.1; fill:none" points="1999.04,1734.12 1999.04,127.792 "/>
<polyline clip-path="url(#clip311)" style="stroke:#000000; stroke-linecap:round; stroke-linejoin:round; stroke-width:2; stroke-opacity:0.1; fill:none" points="2572,1734.12 2572,127.792 "/>
<polyline clip-path="url(#clip311)" style="stroke:#000000; stroke-linecap:round; stroke-linejoin:round; stroke-width:2; stroke-opacity:0.1; fill:none" points="211.395,1692.01 2640.76,1692.01 "/>
<polyline clip-path="url(#clip311)" style="stroke:#000000; stroke-linecap:round; stroke-linejoin:round; stroke-width:2; stroke-opacity:0.1; fill:none" points="211.395,1390.81 2640.76,1390.81 "/>
<polyline clip-path="url(#clip311)" style="stroke:#000000; stroke-linecap:round; stroke-linejoin:round; stroke-width:2; stroke-opacity:0.1; fill:none" points="211.395,1089.6 2640.76,1089.6 "/>
<polyline clip-path="url(#clip311)" style="stroke:#000000; stroke-linecap:round; stroke-linejoin:round; stroke-width:2; stroke-opacity:0.1; fill:none" points="211.395,788.392 2640.76,788.392 "/>
<polyline clip-path="url(#clip311)" style="stroke:#000000; stroke-linecap:round; stroke-linejoin:round; stroke-width:2; stroke-opacity:0.1; fill:none" points="211.395,487.185 2640.76,487.185 "/>
<polyline clip-path="url(#clip311)" style="stroke:#000000; stroke-linecap:round; stroke-linejoin:round; stroke-width:2; stroke-opacity:0.1; fill:none" points="211.395,185.978 2640.76,185.978 "/>
<polyline clip-path="url(#clip310)" style="stroke:#000000; stroke-linecap:round; stroke-linejoin:round; stroke-width:4; stroke-opacity:1; fill:none" points="211.395,1734.12 2640.76,1734.12 "/>
<polyline clip-path="url(#clip310)" style="stroke:#000000; stroke-linecap:round; stroke-linejoin:round; stroke-width:4; stroke-opacity:1; fill:none" points="280.151,1734.12 280.151,1715.22 "/>
<polyline clip-path="url(#clip310)" style="stroke:#000000; stroke-linecap:round; stroke-linejoin:round; stroke-width:4; stroke-opacity:1; fill:none" points="853.113,1734.12 853.113,1715.22 "/>
<polyline clip-path="url(#clip310)" style="stroke:#000000; stroke-linecap:round; stroke-linejoin:round; stroke-width:4; stroke-opacity:1; fill:none" points="1426.08,1734.12 1426.08,1715.22 "/>
<polyline clip-path="url(#clip310)" style="stroke:#000000; stroke-linecap:round; stroke-linejoin:round; stroke-width:4; stroke-opacity:1; fill:none" points="1999.04,1734.12 1999.04,1715.22 "/>
<polyline clip-path="url(#clip310)" style="stroke:#000000; stroke-linecap:round; stroke-linejoin:round; stroke-width:4; stroke-opacity:1; fill:none" points="2572,1734.12 2572,1715.22 "/>
<path clip-path="url(#clip310)" d="M280.151 1767.34 Q276.54 1767.34 274.711 1770.9 Q272.905 1774.45 272.905 1781.58 Q272.905 1788.68 274.711 1792.25 Q276.54 1795.79 280.151 1795.79 Q283.785 1795.79 285.591 1792.25 Q287.419 1788.68 287.419 1781.58 Q287.419 1774.45 285.591 1770.9 Q283.785 1767.34 280.151 1767.34 M280.151 1763.64 Q285.961 1763.64 289.016 1768.24 Q292.095 1772.83 292.095 1781.58 Q292.095 1790.3 289.016 1794.91 Q285.961 1799.49 280.151 1799.49 Q274.341 1799.49 271.262 1794.91 Q268.206 1790.3 268.206 1781.58 Q268.206 1772.83 271.262 1768.24 Q274.341 1763.64 280.151 1763.64 Z" fill="#000000" fill-rule="nonzero" fill-opacity="1" /><path clip-path="url(#clip310)" d="M827.801 1794.89 L835.44 1794.89 L835.44 1768.52 L827.13 1770.19 L827.13 1765.93 L835.393 1764.26 L840.069 1764.26 L840.069 1794.89 L847.708 1794.89 L847.708 1798.82 L827.801 1798.82 L827.801 1794.89 Z" fill="#000000" fill-rule="nonzero" fill-opacity="1" /><path clip-path="url(#clip310)" d="M867.152 1767.34 Q863.541 1767.34 861.713 1770.9 Q859.907 1774.45 859.907 1781.58 Q859.907 1788.68 861.713 1792.25 Q863.541 1795.79 867.152 1795.79 Q870.787 1795.79 872.592 1792.25 Q874.421 1788.68 874.421 1781.58 Q874.421 1774.45 872.592 1770.9 Q870.787 1767.34 867.152 1767.34 M867.152 1763.64 Q872.963 1763.64 876.018 1768.24 Q879.097 1772.83 879.097 1781.58 Q879.097 1790.3 876.018 1794.91 Q872.963 1799.49 867.152 1799.49 Q861.342 1799.49 858.264 1794.91 Q855.208 1790.3 855.208 1781.58 Q855.208 1772.83 858.264 1768.24 Q861.342 1763.64 867.152 1763.64 Z" fill="#000000" fill-rule="nonzero" fill-opacity="1" /><path clip-path="url(#clip310)" d="M1404.85 1794.89 L1421.17 1794.89 L1421.17 1798.82 L1399.22 1798.82 L1399.22 1794.89 Q1401.89 1792.13 1406.47 1787.5 Q1411.08 1782.85 1412.26 1781.51 Q1414.5 1778.98 1415.38 1777.25 Q1416.28 1775.49 1416.28 1773.8 Q1416.28 1771.04 1414.34 1769.31 Q1412.42 1767.57 1409.32 1767.57 Q1407.12 1767.57 1404.66 1768.34 Q1402.23 1769.1 1399.46 1770.65 L1399.46 1765.93 Q1402.28 1764.79 1404.73 1764.21 Q1407.19 1763.64 1409.22 1763.64 Q1414.59 1763.64 1417.79 1766.32 Q1420.98 1769.01 1420.98 1773.5 Q1420.98 1775.63 1420.17 1777.55 Q1419.39 1779.45 1417.28 1782.04 Q1416.7 1782.71 1413.6 1785.93 Q1410.5 1789.12 1404.85 1794.89 Z" fill="#000000" fill-rule="nonzero" fill-opacity="1" /><path clip-path="url(#clip310)" d="M1440.98 1767.34 Q1437.37 1767.34 1435.54 1770.9 Q1433.74 1774.45 1433.74 1781.58 Q1433.74 1788.68 1435.54 1792.25 Q1437.37 1795.79 1440.98 1795.79 Q1444.62 1795.79 1446.42 1792.25 Q1448.25 1788.68 1448.25 1781.58 Q1448.25 1774.45 1446.42 1770.9 Q1444.62 1767.34 1440.98 1767.34 M1440.98 1763.64 Q1446.79 1763.64 1449.85 1768.24 Q1452.93 1772.83 1452.93 1781.58 Q1452.93 1790.3 1449.85 1794.91 Q1446.79 1799.49 1440.98 1799.49 Q1435.17 1799.49 1432.09 1794.91 Q1429.04 1790.3 1429.04 1781.58 Q1429.04 1772.83 1432.09 1768.24 Q1435.17 1763.64 1440.98 1763.64 Z" fill="#000000" fill-rule="nonzero" fill-opacity="1" /><path clip-path="url(#clip310)" d="M1987.88 1780.19 Q1991.24 1780.9 1993.11 1783.17 Q1995.01 1785.44 1995.01 1788.77 Q1995.01 1793.89 1991.49 1796.69 Q1987.97 1799.49 1981.49 1799.49 Q1979.32 1799.49 1977 1799.05 Q1974.71 1798.64 1972.26 1797.78 L1972.26 1793.27 Q1974.2 1794.4 1976.51 1794.98 Q1978.83 1795.56 1981.35 1795.56 Q1985.75 1795.56 1988.04 1793.82 Q1990.36 1792.08 1990.36 1788.77 Q1990.36 1785.72 1988.2 1784.01 Q1986.08 1782.27 1982.26 1782.27 L1978.23 1782.27 L1978.23 1778.43 L1982.44 1778.43 Q1985.89 1778.43 1987.72 1777.06 Q1989.55 1775.67 1989.55 1773.08 Q1989.55 1770.42 1987.65 1769.01 Q1985.77 1767.57 1982.26 1767.57 Q1980.33 1767.57 1978.14 1767.99 Q1975.94 1768.4 1973.3 1769.28 L1973.3 1765.12 Q1975.96 1764.38 1978.27 1764.01 Q1980.61 1763.64 1982.67 1763.64 Q1988 1763.64 1991.1 1766.07 Q1994.2 1768.47 1994.2 1772.59 Q1994.2 1775.46 1992.56 1777.46 Q1990.91 1779.42 1987.88 1780.19 Z" fill="#000000" fill-rule="nonzero" fill-opacity="1" /><path clip-path="url(#clip310)" d="M2013.88 1767.34 Q2010.26 1767.34 2008.44 1770.9 Q2006.63 1774.45 2006.63 1781.58 Q2006.63 1788.68 2008.44 1792.25 Q2010.26 1795.79 2013.88 1795.79 Q2017.51 1795.79 2019.32 1792.25 Q2021.14 1788.68 2021.14 1781.58 Q2021.14 1774.45 2019.32 1770.9 Q2017.51 1767.34 2013.88 1767.34 M2013.88 1763.64 Q2019.69 1763.64 2022.74 1768.24 Q2025.82 1772.83 2025.82 1781.58 Q2025.82 1790.3 2022.74 1794.91 Q2019.69 1799.49 2013.88 1799.49 Q2008.07 1799.49 2004.99 1794.91 Q2001.93 1790.3 2001.93 1781.58 Q2001.93 1772.83 2004.99 1768.24 Q2008.07 1763.64 2013.88 1763.64 Z" fill="#000000" fill-rule="nonzero" fill-opacity="1" /><path clip-path="url(#clip310)" d="M2560.17 1768.34 L2548.37 1786.78 L2560.17 1786.78 L2560.17 1768.34 M2558.94 1764.26 L2564.82 1764.26 L2564.82 1786.78 L2569.76 1786.78 L2569.76 1790.67 L2564.82 1790.67 L2564.82 1798.82 L2560.17 1798.82 L2560.17 1790.67 L2544.57 1790.67 L2544.57 1786.16 L2558.94 1764.26 Z" fill="#000000" fill-rule="nonzero" fill-opacity="1" /><path clip-path="url(#clip310)" d="M2587.49 1767.34 Q2583.88 1767.34 2582.05 1770.9 Q2580.24 1774.45 2580.24 1781.58 Q2580.24 1788.68 2582.05 1792.25 Q2583.88 1795.79 2587.49 1795.79 Q2591.12 1795.79 2592.93 1792.25 Q2594.75 1788.68 2594.75 1781.58 Q2594.75 1774.45 2592.93 1770.9 Q2591.12 1767.34 2587.49 1767.34 M2587.49 1763.64 Q2593.3 1763.64 2596.35 1768.24 Q2599.43 1772.83 2599.43 1781.58 Q2599.43 1790.3 2596.35 1794.91 Q2593.3 1799.49 2587.49 1799.49 Q2581.68 1799.49 2578.6 1794.91 Q2575.54 1790.3 2575.54 1781.58 Q2575.54 1772.83 2578.6 1768.24 Q2581.68 1763.64 2587.49 1763.64 Z" fill="#000000" fill-rule="nonzero" fill-opacity="1" /><path clip-path="url(#clip310)" d="M1347.95 1835.78 L1388.15 1835.78 L1388.15 1841.19 L1371.28 1841.19 L1371.28 1883.3 L1364.82 1883.3 L1364.82 1841.19 L1347.95 1841.19 L1347.95 1835.78 Z" fill="#000000" fill-rule="nonzero" fill-opacity="1" /><path clip-path="url(#clip310)" d="M1392.1 1847.65 L1397.96 1847.65 L1397.96 1883.3 L1392.1 1883.3 L1392.1 1847.65 M1392.1 1833.78 L1397.96 1833.78 L1397.96 1841.19 L1392.1 1841.19 L1392.1 1833.78 Z" fill="#000000" fill-rule="nonzero" fill-opacity="1" /><path clip-path="url(#clip310)" d="M1437.96 1854.5 Q1440.16 1850.55 1443.22 1848.67 Q1446.27 1846.79 1450.41 1846.79 Q1455.98 1846.79 1459 1850.71 Q1462.03 1854.59 1462.03 1861.78 L1462.03 1883.3 L1456.14 1883.3 L1456.14 1861.98 Q1456.14 1856.85 1454.32 1854.37 Q1452.51 1851.89 1448.79 1851.89 Q1444.23 1851.89 1441.59 1854.91 Q1438.95 1857.93 1438.95 1863.15 L1438.95 1883.3 L1433.06 1883.3 L1433.06 1861.98 Q1433.06 1856.82 1431.25 1854.37 Q1429.43 1851.89 1425.65 1851.89 Q1421.16 1851.89 1418.52 1854.94 Q1415.87 1857.97 1415.87 1863.15 L1415.87 1883.3 L1409.99 1883.3 L1409.99 1847.65 L1415.87 1847.65 L1415.87 1853.19 Q1417.88 1849.91 1420.68 1848.35 Q1423.48 1846.79 1427.33 1846.79 Q1431.22 1846.79 1433.92 1848.77 Q1436.66 1850.74 1437.96 1854.5 Z" fill="#000000" fill-rule="nonzero" fill-opacity="1" /><path clip-path="url(#clip310)" d="M1504.2 1864.01 L1504.2 1866.88 L1477.27 1866.88 Q1477.65 1872.92 1480.9 1876.11 Q1484.18 1879.26 1490 1879.26 Q1493.38 1879.26 1496.53 1878.43 Q1499.71 1877.6 1502.83 1875.95 L1502.83 1881.49 Q1499.68 1882.82 1496.37 1883.52 Q1493.06 1884.22 1489.65 1884.22 Q1481.12 1884.22 1476.13 1879.26 Q1471.16 1874.29 1471.16 1865.83 Q1471.16 1857.07 1475.87 1851.95 Q1480.61 1846.79 1488.63 1846.79 Q1495.83 1846.79 1500 1851.44 Q1504.2 1856.06 1504.2 1864.01 M1498.34 1862.29 Q1498.28 1857.49 1495.64 1854.62 Q1493.03 1851.76 1488.7 1851.76 Q1483.8 1851.76 1480.84 1854.53 Q1477.91 1857.3 1477.46 1862.33 L1498.34 1862.29 Z" fill="#000000" fill-rule="nonzero" fill-opacity="1" /><polyline clip-path="url(#clip310)" style="stroke:#000000; stroke-linecap:round; stroke-linejoin:round; stroke-width:4; stroke-opacity:1; fill:none" points="211.395,1734.12 211.395,127.792 "/>
<polyline clip-path="url(#clip310)" style="stroke:#000000; stroke-linecap:round; stroke-linejoin:round; stroke-width:4; stroke-opacity:1; fill:none" points="211.395,1692.01 230.293,1692.01 "/>
<polyline clip-path="url(#clip310)" style="stroke:#000000; stroke-linecap:round; stroke-linejoin:round; stroke-width:4; stroke-opacity:1; fill:none" points="211.395,1390.81 230.293,1390.81 "/>
<polyline clip-path="url(#clip310)" style="stroke:#000000; stroke-linecap:round; stroke-linejoin:round; stroke-width:4; stroke-opacity:1; fill:none" points="211.395,1089.6 230.293,1089.6 "/>
<polyline clip-path="url(#clip310)" style="stroke:#000000; stroke-linecap:round; stroke-linejoin:round; stroke-width:4; stroke-opacity:1; fill:none" points="211.395,788.392 230.293,788.392 "/>
<polyline clip-path="url(#clip310)" style="stroke:#000000; stroke-linecap:round; stroke-linejoin:round; stroke-width:4; stroke-opacity:1; fill:none" points="211.395,487.185 230.293,487.185 "/>
<polyline clip-path="url(#clip310)" style="stroke:#000000; stroke-linecap:round; stroke-linejoin:round; stroke-width:4; stroke-opacity:1; fill:none" points="211.395,185.978 230.293,185.978 "/>
<path clip-path="url(#clip310)" d="M159.131 1677.81 Q155.52 1677.81 153.691 1681.38 Q151.886 1684.92 151.886 1692.05 Q151.886 1699.15 153.691 1702.72 Q155.52 1706.26 159.131 1706.26 Q162.765 1706.26 164.571 1702.72 Q166.399 1699.15 166.399 1692.05 Q166.399 1684.92 164.571 1681.38 Q162.765 1677.81 159.131 1677.81 M159.131 1674.11 Q164.941 1674.11 167.997 1678.71 Q171.075 1683.3 171.075 1692.05 Q171.075 1700.77 167.997 1705.38 Q164.941 1709.96 159.131 1709.96 Q153.321 1709.96 150.242 1705.38 Q147.186 1700.77 147.186 1692.05 Q147.186 1683.3 150.242 1678.71 Q153.321 1674.11 159.131 1674.11 Z" fill="#000000" fill-rule="nonzero" fill-opacity="1" /><path clip-path="url(#clip310)" d="M119.779 1404.15 L127.418 1404.15 L127.418 1377.78 L119.108 1379.45 L119.108 1375.19 L127.372 1373.53 L132.048 1373.53 L132.048 1404.15 L139.687 1404.15 L139.687 1408.09 L119.779 1408.09 L119.779 1404.15 Z" fill="#000000" fill-rule="nonzero" fill-opacity="1" /><path clip-path="url(#clip310)" d="M159.131 1376.6 Q155.52 1376.6 153.691 1380.17 Q151.886 1383.71 151.886 1390.84 Q151.886 1397.95 153.691 1401.51 Q155.52 1405.05 159.131 1405.05 Q162.765 1405.05 164.571 1401.51 Q166.399 1397.95 166.399 1390.84 Q166.399 1383.71 164.571 1380.17 Q162.765 1376.6 159.131 1376.6 M159.131 1372.9 Q164.941 1372.9 167.997 1377.51 Q171.075 1382.09 171.075 1390.84 Q171.075 1399.57 167.997 1404.17 Q164.941 1408.76 159.131 1408.76 Q153.321 1408.76 150.242 1404.17 Q147.186 1399.57 147.186 1390.84 Q147.186 1382.09 150.242 1377.51 Q153.321 1372.9 159.131 1372.9 Z" fill="#000000" fill-rule="nonzero" fill-opacity="1" /><path clip-path="url(#clip310)" d="M122.997 1102.94 L139.316 1102.94 L139.316 1106.88 L117.372 1106.88 L117.372 1102.94 Q120.034 1100.19 124.617 1095.56 Q129.224 1090.91 130.404 1089.56 Q132.65 1087.04 133.529 1085.3 Q134.432 1083.55 134.432 1081.86 Q134.432 1079.1 132.488 1077.36 Q130.566 1075.63 127.464 1075.63 Q125.265 1075.63 122.812 1076.39 Q120.381 1077.16 117.603 1078.71 L117.603 1073.99 Q120.427 1072.85 122.881 1072.27 Q125.335 1071.69 127.372 1071.69 Q132.742 1071.69 135.937 1074.38 Q139.131 1077.06 139.131 1081.55 Q139.131 1083.68 138.321 1085.61 Q137.534 1087.5 135.427 1090.1 Q134.849 1090.77 131.747 1093.99 Q128.645 1097.18 122.997 1102.94 Z" fill="#000000" fill-rule="nonzero" fill-opacity="1" /><path clip-path="url(#clip310)" d="M159.131 1075.4 Q155.52 1075.4 153.691 1078.96 Q151.886 1082.5 151.886 1089.63 Q151.886 1096.74 153.691 1100.3 Q155.52 1103.85 159.131 1103.85 Q162.765 1103.85 164.571 1100.3 Q166.399 1096.74 166.399 1089.63 Q166.399 1082.5 164.571 1078.96 Q162.765 1075.4 159.131 1075.4 M159.131 1071.69 Q164.941 1071.69 167.997 1076.3 Q171.075 1080.88 171.075 1089.63 Q171.075 1098.36 167.997 1102.97 Q164.941 1107.55 159.131 1107.55 Q153.321 1107.55 150.242 1102.97 Q147.186 1098.36 147.186 1089.63 Q147.186 1080.88 150.242 1076.3 Q153.321 1071.69 159.131 1071.69 Z" fill="#000000" fill-rule="nonzero" fill-opacity="1" /><path clip-path="url(#clip310)" d="M133.136 787.038 Q136.492 787.755 138.367 790.024 Q140.265 792.292 140.265 795.625 Q140.265 800.741 136.747 803.542 Q133.228 806.343 126.747 806.343 Q124.571 806.343 122.256 805.903 Q119.964 805.487 117.511 804.63 L117.511 800.116 Q119.455 801.25 121.77 801.829 Q124.085 802.408 126.608 802.408 Q131.006 802.408 133.298 800.672 Q135.612 798.936 135.612 795.625 Q135.612 792.57 133.46 790.857 Q131.33 789.121 127.511 789.121 L123.483 789.121 L123.483 785.278 L127.696 785.278 Q131.145 785.278 132.974 783.913 Q134.802 782.524 134.802 779.931 Q134.802 777.269 132.904 775.857 Q131.029 774.422 127.511 774.422 Q125.589 774.422 123.39 774.839 Q121.191 775.255 118.552 776.135 L118.552 771.968 Q121.214 771.227 123.529 770.857 Q125.867 770.487 127.927 770.487 Q133.251 770.487 136.353 772.917 Q139.455 775.325 139.455 779.445 Q139.455 782.315 137.812 784.306 Q136.168 786.274 133.136 787.038 Z" fill="#000000" fill-rule="nonzero" fill-opacity="1" /><path clip-path="url(#clip310)" d="M159.131 774.19 Q155.52 774.19 153.691 777.755 Q151.886 781.297 151.886 788.426 Q151.886 795.533 153.691 799.098 Q155.52 802.639 159.131 802.639 Q162.765 802.639 164.571 799.098 Q166.399 795.533 166.399 788.426 Q166.399 781.297 164.571 777.755 Q162.765 774.19 159.131 774.19 M159.131 770.487 Q164.941 770.487 167.997 775.093 Q171.075 779.676 171.075 788.426 Q171.075 797.153 167.997 801.76 Q164.941 806.343 159.131 806.343 Q153.321 806.343 150.242 801.76 Q147.186 797.153 147.186 788.426 Q147.186 779.676 150.242 775.093 Q153.321 770.487 159.131 770.487 Z" fill="#000000" fill-rule="nonzero" fill-opacity="1" /><path clip-path="url(#clip310)" d="M131.816 473.979 L120.011 492.428 L131.816 492.428 L131.816 473.979 M130.589 469.905 L136.469 469.905 L136.469 492.428 L141.399 492.428 L141.399 496.317 L136.469 496.317 L136.469 504.465 L131.816 504.465 L131.816 496.317 L116.214 496.317 L116.214 491.803 L130.589 469.905 Z" fill="#000000" fill-rule="nonzero" fill-opacity="1" /><path clip-path="url(#clip310)" d="M159.131 472.984 Q155.52 472.984 153.691 476.548 Q151.886 480.09 151.886 487.22 Q151.886 494.326 153.691 497.891 Q155.52 501.433 159.131 501.433 Q162.765 501.433 164.571 497.891 Q166.399 494.326 166.399 487.22 Q166.399 480.09 164.571 476.548 Q162.765 472.984 159.131 472.984 M159.131 469.28 Q164.941 469.28 167.997 473.886 Q171.075 478.47 171.075 487.22 Q171.075 495.946 167.997 500.553 Q164.941 505.136 159.131 505.136 Q153.321 505.136 150.242 500.553 Q147.186 495.946 147.186 487.22 Q147.186 478.47 150.242 473.886 Q153.321 469.28 159.131 469.28 Z" fill="#000000" fill-rule="nonzero" fill-opacity="1" /><path clip-path="url(#clip310)" d="M119.015 168.698 L137.372 168.698 L137.372 172.633 L123.298 172.633 L123.298 181.106 Q124.316 180.758 125.335 180.596 Q126.353 180.411 127.372 180.411 Q133.159 180.411 136.538 183.582 Q139.918 186.754 139.918 192.17 Q139.918 197.749 136.446 200.851 Q132.974 203.93 126.654 203.93 Q124.478 203.93 122.21 203.559 Q119.964 203.189 117.557 202.448 L117.557 197.749 Q119.64 198.883 121.863 199.439 Q124.085 199.994 126.562 199.994 Q130.566 199.994 132.904 197.888 Q135.242 195.781 135.242 192.17 Q135.242 188.559 132.904 186.453 Q130.566 184.346 126.562 184.346 Q124.687 184.346 122.812 184.763 Q120.96 185.18 119.015 186.059 L119.015 168.698 Z" fill="#000000" fill-rule="nonzero" fill-opacity="1" /><path clip-path="url(#clip310)" d="M159.131 171.777 Q155.52 171.777 153.691 175.342 Q151.886 178.883 151.886 186.013 Q151.886 193.119 153.691 196.684 Q155.52 200.226 159.131 200.226 Q162.765 200.226 164.571 196.684 Q166.399 193.119 166.399 186.013 Q166.399 178.883 164.571 175.342 Q162.765 171.777 159.131 171.777 M159.131 168.073 Q164.941 168.073 167.997 172.68 Q171.075 177.263 171.075 186.013 Q171.075 194.74 167.997 199.346 Q164.941 203.93 159.131 203.93 Q153.321 203.93 150.242 199.346 Q147.186 194.74 147.186 186.013 Q147.186 177.263 150.242 172.68 Q153.321 168.073 159.131 168.073 Z" fill="#000000" fill-rule="nonzero" fill-opacity="1" /><path clip-path="url(#clip310)" d="M14.1184 1198.76 L14.1184 1190.1 L53.8723 1169.03 L14.1184 1169.03 L14.1184 1162.79 L61.6384 1162.79 L61.6384 1171.45 L21.8846 1192.52 L61.6384 1192.52 L61.6384 1198.76 L14.1184 1198.76 Z" fill="#000000" fill-rule="nonzero" fill-opacity="1" /><path clip-path="url(#clip310)" d="M47.5702 1150.86 L25.9905 1150.86 L25.9905 1145 L47.3474 1145 Q52.4082 1145 54.9545 1143.03 Q57.4689 1141.05 57.4689 1137.11 Q57.4689 1132.37 54.4452 1129.63 Q51.4215 1126.86 46.2016 1126.86 L25.9905 1126.86 L25.9905 1121 L61.6384 1121 L61.6384 1126.86 L56.1639 1126.86 Q59.4104 1128.99 61.0019 1131.82 Q62.5615 1134.63 62.5615 1138.35 Q62.5615 1144.49 58.742 1147.68 Q54.9226 1150.86 47.5702 1150.86 M25.1311 1136.12 L25.1311 1136.12 Z" fill="#000000" fill-rule="nonzero" fill-opacity="1" /><path clip-path="url(#clip310)" d="M32.8336 1081.19 Q28.8869 1078.99 27.009 1075.93 Q25.1311 1072.88 25.1311 1068.74 Q25.1311 1063.17 29.046 1060.15 Q32.9291 1057.12 40.1224 1057.12 L61.6384 1057.12 L61.6384 1063.01 L40.3133 1063.01 Q35.1889 1063.01 32.7063 1064.83 Q30.2237 1066.64 30.2237 1070.36 Q30.2237 1074.92 33.2474 1077.56 Q36.2711 1080.2 41.491 1080.2 L61.6384 1080.2 L61.6384 1086.09 L40.3133 1086.09 Q35.1571 1086.09 32.7063 1087.9 Q30.2237 1089.72 30.2237 1093.5 Q30.2237 1097.99 33.2792 1100.63 Q36.3029 1103.27 41.491 1103.27 L61.6384 1103.27 L61.6384 1109.16 L25.9905 1109.16 L25.9905 1103.27 L31.5287 1103.27 Q28.2503 1101.27 26.6907 1098.47 Q25.1311 1095.67 25.1311 1091.82 Q25.1311 1087.93 27.1045 1085.23 Q29.0779 1082.49 32.8336 1081.19 Z" fill="#000000" fill-rule="nonzero" fill-opacity="1" /><path clip-path="url(#clip310)" d="M43.8463 1019.85 Q37.3851 1019.85 33.7248 1022.53 Q30.0327 1025.17 30.0327 1029.81 Q30.0327 1034.46 33.7248 1037.13 Q37.3851 1039.78 43.8463 1039.78 Q50.3075 1039.78 53.9996 1037.13 Q57.6599 1034.46 57.6599 1029.81 Q57.6599 1025.17 53.9996 1022.53 Q50.3075 1019.85 43.8463 1019.85 M31.4013 1039.78 Q28.2185 1037.93 26.6907 1035.13 Q25.1311 1032.3 25.1311 1028.38 Q25.1311 1021.89 30.2873 1017.85 Q35.4436 1013.77 43.8463 1013.77 Q52.249 1013.77 57.4052 1017.85 Q62.5615 1021.89 62.5615 1028.38 Q62.5615 1032.3 61.0337 1035.13 Q59.4741 1037.93 56.2912 1039.78 L61.6384 1039.78 L61.6384 1045.66 L12.1132 1045.66 L12.1132 1039.78 L31.4013 1039.78 Z" fill="#000000" fill-rule="nonzero" fill-opacity="1" /><path clip-path="url(#clip310)" d="M42.3504 973.573 L45.2149 973.573 L45.2149 1000.5 Q51.2623 1000.12 54.4452 996.871 Q57.5962 993.593 57.5962 987.768 Q57.5962 984.395 56.7687 981.244 Q55.9411 978.061 54.2861 974.942 L59.8242 974.942 Q61.161 978.093 61.8612 981.403 Q62.5615 984.713 62.5615 988.119 Q62.5615 996.649 57.5962 1001.65 Q52.631 1006.61 44.1646 1006.61 Q35.4117 1006.61 30.2873 1001.9 Q25.1311 997.158 25.1311 989.137 Q25.1311 981.944 29.7781 977.774 Q34.3932 973.573 42.3504 973.573 M40.6316 979.429 Q35.8255 979.493 32.9609 982.135 Q30.0964 984.745 30.0964 989.073 Q30.0964 993.975 32.8654 996.935 Q35.6345 999.863 40.6634 1000.31 L40.6316 979.429 Z" fill="#000000" fill-rule="nonzero" fill-opacity="1" /><path clip-path="url(#clip310)" d="M31.465 943.304 Q30.8921 944.291 30.6375 945.468 Q30.351 946.614 30.351 948.015 Q30.351 952.98 33.5975 955.653 Q36.8122 958.295 42.8596 958.295 L61.6384 958.295 L61.6384 964.184 L25.9905 964.184 L25.9905 958.295 L31.5287 958.295 Q28.2821 956.449 26.7225 953.489 Q25.1311 950.529 25.1311 946.296 Q25.1311 945.691 25.2266 944.959 Q25.2903 944.227 25.4494 943.336 L31.465 943.304 Z" fill="#000000" fill-rule="nonzero" fill-opacity="1" /><path clip-path="url(#clip310)" d="M25.9905 916.441 L25.9905 910.584 L61.6384 910.584 L61.6384 916.441 L25.9905 916.441 M12.1132 916.441 L12.1132 910.584 L19.5293 910.584 L19.5293 916.441 L12.1132 916.441 Z" fill="#000000" fill-rule="nonzero" fill-opacity="1" /><path clip-path="url(#clip310)" d="M40.1224 868.698 L61.6384 868.698 L61.6384 874.554 L40.3133 874.554 Q35.2526 874.554 32.7381 876.528 Q30.2237 878.501 30.2237 882.448 Q30.2237 887.19 33.2474 889.928 Q36.2711 892.665 41.491 892.665 L61.6384 892.665 L61.6384 898.553 L25.9905 898.553 L25.9905 892.665 L31.5287 892.665 Q28.314 890.564 26.7225 887.731 Q25.1311 884.867 25.1311 881.143 Q25.1311 875 28.9505 871.849 Q32.7381 868.698 40.1224 868.698 Z" fill="#000000" fill-rule="nonzero" fill-opacity="1" /><path clip-path="url(#clip310)" d="M12.1132 838.97 L16.983 838.97 L16.983 844.572 Q16.983 847.723 18.2562 848.964 Q19.5293 850.174 22.8395 850.174 L25.9905 850.174 L25.9905 840.53 L30.542 840.53 L30.542 850.174 L61.6384 850.174 L61.6384 856.062 L30.542 856.062 L30.542 861.664 L25.9905 861.664 L25.9905 856.062 L23.5079 856.062 Q17.5559 856.062 14.8505 853.293 Q12.1132 850.524 12.1132 844.508 L12.1132 838.97 Z" fill="#000000" fill-rule="nonzero" fill-opacity="1" /><path clip-path="url(#clip310)" d="M42.3504 803.577 L45.2149 803.577 L45.2149 830.504 Q51.2623 830.122 54.4452 826.875 Q57.5962 823.597 57.5962 817.772 Q57.5962 814.398 56.7687 811.247 Q55.9411 808.065 54.2861 804.945 L59.8242 804.945 Q61.161 808.096 61.8612 811.407 Q62.5615 814.717 62.5615 818.122 Q62.5615 826.652 57.5962 831.65 Q52.631 836.615 44.1646 836.615 Q35.4117 836.615 30.2873 831.904 Q25.1311 827.162 25.1311 819.141 Q25.1311 811.948 29.7781 807.778 Q34.3932 803.577 42.3504 803.577 M40.6316 809.433 Q35.8255 809.497 32.9609 812.139 Q30.0964 814.749 30.0964 819.077 Q30.0964 823.979 32.8654 826.939 Q35.6345 829.867 40.6634 830.313 L40.6316 809.433 Z" fill="#000000" fill-rule="nonzero" fill-opacity="1" /><path clip-path="url(#clip310)" d="M27.3591 768.311 L32.8336 768.311 Q31.465 770.793 30.7966 773.308 Q30.0964 775.79 30.0964 778.337 Q30.0964 784.034 33.7248 787.185 Q37.3214 790.336 43.8463 790.336 Q50.3711 790.336 53.9996 787.185 Q57.5962 784.034 57.5962 778.337 Q57.5962 775.79 56.9278 773.308 Q56.2276 770.793 54.859 768.311 L60.2698 768.311 Q61.4156 770.762 61.9886 773.403 Q62.5615 776.013 62.5615 778.973 Q62.5615 787.026 57.5007 791.768 Q52.44 796.511 43.8463 796.511 Q35.1253 796.511 30.1282 791.737 Q25.1311 786.93 25.1311 778.591 Q25.1311 775.886 25.704 773.308 Q26.2451 770.73 27.3591 768.311 Z" fill="#000000" fill-rule="nonzero" fill-opacity="1" /><path clip-path="url(#clip310)" d="M15.869 752.333 L25.9905 752.333 L25.9905 740.27 L30.542 740.27 L30.542 752.333 L49.8937 752.333 Q54.2542 752.333 55.4955 751.155 Q56.7368 749.946 56.7368 746.285 L56.7368 740.27 L61.6384 740.27 L61.6384 746.285 Q61.6384 753.065 59.124 755.643 Q56.5777 758.221 49.8937 758.221 L30.542 758.221 L30.542 762.518 L25.9905 762.518 L25.9905 758.221 L15.869 758.221 L15.869 752.333 Z" fill="#000000" fill-rule="nonzero" fill-opacity="1" /><path clip-path="url(#clip310)" d="M42.3504 702.076 L45.2149 702.076 L45.2149 729.003 Q51.2623 728.621 54.4452 725.374 Q57.5962 722.096 57.5962 716.271 Q57.5962 712.897 56.7687 709.746 Q55.9411 706.563 54.2861 703.444 L59.8242 703.444 Q61.161 706.595 61.8612 709.905 Q62.5615 713.216 62.5615 716.621 Q62.5615 725.151 57.5962 730.148 Q52.631 735.114 44.1646 735.114 Q35.4117 735.114 30.2873 730.403 Q25.1311 725.661 25.1311 717.64 Q25.1311 710.446 29.7781 706.277 Q34.3932 702.076 42.3504 702.076 M40.6316 707.932 Q35.8255 707.996 32.9609 710.637 Q30.0964 713.247 30.0964 717.576 Q30.0964 722.478 32.8654 725.438 Q35.6345 728.366 40.6634 728.812 L40.6316 707.932 Z" fill="#000000" fill-rule="nonzero" fill-opacity="1" /><path clip-path="url(#clip310)" d="M31.4013 669.006 L12.1132 669.006 L12.1132 663.149 L61.6384 663.149 L61.6384 669.006 L56.2912 669.006 Q59.4741 670.852 61.0337 673.685 Q62.5615 676.485 62.5615 680.432 Q62.5615 686.893 57.4052 690.967 Q52.249 695.01 43.8463 695.01 Q35.4436 695.01 30.2873 690.967 Q25.1311 686.893 25.1311 680.432 Q25.1311 676.485 26.6907 673.685 Q28.2185 670.852 31.4013 669.006 M43.8463 688.962 Q50.3075 688.962 53.9996 686.32 Q57.6599 683.647 57.6599 679 Q57.6599 674.353 53.9996 671.679 Q50.3075 669.006 43.8463 669.006 Q37.3851 669.006 33.7248 671.679 Q30.0327 674.353 30.0327 679 Q30.0327 683.647 33.7248 686.32 Q37.3851 688.962 43.8463 688.962 Z" fill="#000000" fill-rule="nonzero" fill-opacity="1" /><path clip-path="url(#clip310)" d="M162.497 18.8205 L162.497 41.5461 L172.787 41.5461 Q178.498 41.5461 181.618 38.5889 Q184.737 35.6318 184.737 30.163 Q184.737 24.7348 181.618 21.7777 Q178.498 18.8205 172.787 18.8205 L162.497 18.8205 M154.314 12.096 L172.787 12.096 Q182.954 12.096 188.14 16.714 Q193.365 21.2916 193.365 30.163 Q193.365 39.1155 188.14 43.6931 Q182.954 48.2706 172.787 48.2706 L162.497 48.2706 L162.497 72.576 L154.314 72.576 L154.314 12.096 Z" fill="#000000" fill-rule="nonzero" fill-opacity="1" /><path clip-path="url(#clip310)" d="M220.911 49.7694 Q211.878 49.7694 208.394 51.8354 Q204.91 53.9013 204.91 58.8839 Q204.91 62.8538 207.503 65.2034 Q210.136 67.5124 214.632 67.5124 Q220.83 67.5124 224.557 63.1374 Q228.324 58.7219 228.324 51.4303 L228.324 49.7694 L220.911 49.7694 M235.778 46.6907 L235.778 72.576 L228.324 72.576 L228.324 65.6895 Q225.772 69.8214 221.965 71.8063 Q218.157 73.7508 212.647 73.7508 Q205.68 73.7508 201.548 69.8619 Q197.457 65.9325 197.457 59.3701 Q197.457 51.7138 202.561 47.825 Q207.705 43.9361 217.873 43.9361 L228.324 43.9361 L228.324 43.2069 Q228.324 38.0623 224.922 35.2672 Q221.559 32.4315 215.443 32.4315 Q211.554 32.4315 207.867 33.3632 Q204.181 34.295 200.778 36.1584 L200.778 29.2718 Q204.87 27.692 208.718 26.9223 Q212.566 26.1121 216.212 26.1121 Q226.056 26.1121 230.917 31.2163 Q235.778 36.3204 235.778 46.6907 Z" fill="#000000" fill-rule="nonzero" fill-opacity="1" /><path clip-path="url(#clip310)" d="M251.131 27.2059 L258.585 27.2059 L258.585 72.576 L251.131 72.576 L251.131 27.2059 M251.131 9.54393 L258.585 9.54393 L258.585 18.9825 L251.131 18.9825 L251.131 9.54393 Z" fill="#000000" fill-rule="nonzero" fill-opacity="1" /><path clip-path="url(#clip310)" d="M300.471 34.1734 Q299.215 33.4443 297.716 33.1202 Q296.258 32.7556 294.476 32.7556 Q288.156 32.7556 284.754 36.8875 Q281.391 40.9789 281.391 48.6757 L281.391 72.576 L273.897 72.576 L273.897 27.2059 L281.391 27.2059 L281.391 34.2544 Q283.741 30.1225 287.508 28.1376 Q291.276 26.1121 296.663 26.1121 Q297.433 26.1121 298.365 26.2337 Q299.296 26.3147 300.431 26.5172 L300.471 34.1734 Z" fill="#000000" fill-rule="nonzero" fill-opacity="1" /><path clip-path="url(#clip310)" d="M299.215 46.5287 L321.05 46.5287 L321.05 53.1722 L299.215 53.1722 L299.215 46.5287 Z" fill="#000000" fill-rule="nonzero" fill-opacity="1" /><path clip-path="url(#clip310)" d="M365.488 49.9314 Q365.488 41.7081 362.085 37.0496 Q358.723 32.3505 352.809 32.3505 Q346.894 32.3505 343.492 37.0496 Q340.129 41.7081 340.129 49.9314 Q340.129 58.1548 343.492 62.8538 Q346.894 67.5124 352.809 67.5124 Q358.723 67.5124 362.085 62.8538 Q365.488 58.1548 365.488 49.9314 M340.129 34.0924 Q342.479 30.0415 346.044 28.0971 Q349.649 26.1121 354.632 26.1121 Q362.896 26.1121 368.04 32.6746 Q373.225 39.2371 373.225 49.9314 Q373.225 60.6258 368.04 67.1883 Q362.896 73.7508 354.632 73.7508 Q349.649 73.7508 346.044 71.8063 Q342.479 69.8214 340.129 65.7705 L340.129 72.576 L332.635 72.576 L332.635 9.54393 L340.129 9.54393 L340.129 34.0924 Z" fill="#000000" fill-rule="nonzero" fill-opacity="1" /><path clip-path="url(#clip310)" d="M406.2 49.7694 Q397.166 49.7694 393.682 51.8354 Q390.199 53.9013 390.199 58.8839 Q390.199 62.8538 392.791 65.2034 Q395.424 67.5124 399.921 67.5124 Q406.119 67.5124 409.845 63.1374 Q413.613 58.7219 413.613 51.4303 L413.613 49.7694 L406.2 49.7694 M421.067 46.6907 L421.067 72.576 L413.613 72.576 L413.613 65.6895 Q411.061 69.8214 407.253 71.8063 Q403.445 73.7508 397.936 73.7508 Q390.968 73.7508 386.836 69.8619 Q382.745 65.9325 382.745 59.3701 Q382.745 51.7138 387.849 47.825 Q392.994 43.9361 403.162 43.9361 L413.613 43.9361 L413.613 43.2069 Q413.613 38.0623 410.21 35.2672 Q406.848 32.4315 400.731 32.4315 Q396.842 32.4315 393.156 33.3632 Q389.469 34.295 386.067 36.1584 L386.067 29.2718 Q390.158 27.692 394.006 26.9223 Q397.855 26.1121 401.501 26.1121 Q411.344 26.1121 416.205 31.2163 Q421.067 36.3204 421.067 46.6907 Z" fill="#000000" fill-rule="nonzero" fill-opacity="1" /><path clip-path="url(#clip310)" d="M465.343 28.5427 L465.343 35.5912 Q462.183 33.9709 458.78 33.1607 Q455.378 32.3505 451.732 32.3505 Q446.182 32.3505 443.387 34.0519 Q440.632 35.7533 440.632 39.156 Q440.632 41.7486 442.617 43.2475 Q444.602 44.7058 450.598 46.0426 L453.15 46.6097 Q461.089 48.3111 464.411 51.4303 Q467.773 54.509 467.773 60.0587 Q467.773 66.3781 462.75 70.0644 Q457.768 73.7508 449.018 73.7508 Q445.372 73.7508 441.402 73.0216 Q437.473 72.3329 433.098 70.9151 L433.098 63.2184 Q437.23 65.3654 441.24 66.4591 Q445.25 67.5124 449.18 67.5124 Q454.446 67.5124 457.282 65.73 Q460.117 63.9071 460.117 60.6258 Q460.117 57.5877 458.051 55.9673 Q456.026 54.3469 449.099 52.8481 L446.506 52.2405 Q439.579 50.7821 436.5 47.7845 Q433.422 44.7463 433.422 39.4801 Q433.422 33.0797 437.959 29.5959 Q442.496 26.1121 450.841 26.1121 Q454.973 26.1121 458.618 26.7198 Q462.264 27.3274 465.343 28.5427 Z" fill="#000000" fill-rule="nonzero" fill-opacity="1" /><path clip-path="url(#clip310)" d="M518.45 48.0275 L518.45 51.6733 L484.18 51.6733 Q484.666 59.3701 488.798 63.421 Q492.97 67.4314 500.383 67.4314 Q504.677 67.4314 508.688 66.3781 Q512.738 65.3249 516.708 63.2184 L516.708 70.267 Q512.698 71.9684 508.485 72.8596 Q504.272 73.7508 499.938 73.7508 Q489.081 73.7508 482.721 67.4314 Q476.402 61.1119 476.402 50.3365 Q476.402 39.1965 482.397 32.6746 Q488.433 26.1121 498.641 26.1121 Q507.796 26.1121 513.103 32.0264 Q518.45 37.9003 518.45 48.0275 M510.997 45.84 Q510.916 39.7232 507.553 36.0774 Q504.232 32.4315 498.722 32.4315 Q492.484 32.4315 488.717 35.9558 Q484.99 39.4801 484.423 45.8805 L510.997 45.84 Z" fill="#000000" fill-rule="nonzero" fill-opacity="1" /><path clip-path="url(#clip310)" d="M560.539 34.0924 L560.539 9.54393 L567.993 9.54393 L567.993 72.576 L560.539 72.576 L560.539 65.7705 Q558.19 69.8214 554.584 71.8063 Q551.02 73.7508 545.996 73.7508 Q537.773 73.7508 532.588 67.1883 Q527.443 60.6258 527.443 49.9314 Q527.443 39.2371 532.588 32.6746 Q537.773 26.1121 545.996 26.1121 Q551.02 26.1121 554.584 28.0971 Q558.19 30.0415 560.539 34.0924 M535.14 49.9314 Q535.14 58.1548 538.502 62.8538 Q541.905 67.5124 547.819 67.5124 Q553.734 67.5124 557.136 62.8538 Q560.539 58.1548 560.539 49.9314 Q560.539 41.7081 557.136 37.0496 Q553.734 32.3505 547.819 32.3505 Q541.905 32.3505 538.502 37.0496 Q535.14 41.7081 535.14 49.9314 Z" fill="#000000" fill-rule="nonzero" fill-opacity="1" /><path clip-path="url(#clip310)" d="M646.297 14.0809 L646.297 22.0612 Q641.638 19.8332 637.506 18.7395 Q633.374 17.6457 629.526 17.6457 Q622.842 17.6457 619.196 20.2383 Q615.591 22.8309 615.591 27.611 Q615.591 31.6214 617.981 33.6873 Q620.411 35.7128 627.136 36.9686 L632.078 37.9813 Q641.233 39.7232 645.568 44.1387 Q649.943 48.5136 649.943 55.8863 Q649.943 64.6767 644.028 69.2137 Q638.154 73.7508 626.771 73.7508 Q622.477 73.7508 617.616 72.7785 Q612.796 71.8063 607.611 69.9024 L607.611 61.4765 Q612.593 64.2716 617.373 65.6895 Q622.153 67.1073 626.771 67.1073 Q633.779 67.1073 637.587 64.3527 Q641.395 61.598 641.395 56.4939 Q641.395 52.0379 638.641 49.5264 Q635.926 47.0148 629.688 45.759 L624.705 44.7868 Q615.55 42.9639 611.459 39.075 Q607.368 35.1862 607.368 28.2591 Q607.368 20.2383 612.998 15.6203 Q618.67 11.0023 628.594 11.0023 Q632.848 11.0023 637.263 11.7719 Q641.679 12.5416 646.297 14.0809 Z" fill="#000000" fill-rule="nonzero" fill-opacity="1" /><path clip-path="url(#clip310)" d="M662.703 12.096 L670.886 12.096 L670.886 72.576 L662.703 72.576 L662.703 12.096 Z" fill="#000000" fill-rule="nonzero" fill-opacity="1" /><path clip-path="url(#clip310)" d="M715.851 44.2197 Q718.484 45.1109 720.955 48.0275 Q723.467 50.9442 725.978 56.0483 L734.282 72.576 L725.492 72.576 L717.755 57.061 Q714.757 50.9847 711.921 48.9997 Q709.126 47.0148 704.265 47.0148 L695.353 47.0148 L695.353 72.576 L687.17 72.576 L687.17 12.096 L705.643 12.096 Q716.013 12.096 721.117 16.4305 Q726.221 20.7649 726.221 29.5149 Q726.221 35.2267 723.548 38.994 Q720.914 42.7613 715.851 44.2197 M695.353 18.8205 L695.353 40.2903 L705.643 40.2903 Q711.557 40.2903 714.555 37.5762 Q717.593 34.8216 717.593 29.5149 Q717.593 24.2082 714.555 21.5346 Q711.557 18.8205 705.643 18.8205 L695.353 18.8205 Z" fill="#000000" fill-rule="nonzero" fill-opacity="1" /><path clip-path="url(#clip310)" d="M743.843 62.2867 L752.39 62.2867 L752.39 72.576 L743.843 72.576 L743.843 62.2867 M743.843 29.6769 L752.39 29.6769 L752.39 39.9662 L743.843 39.9662 L743.843 29.6769 Z" fill="#000000" fill-rule="nonzero" fill-opacity="1" /><path clip-path="url(#clip310)" d="M835.069 48.0275 L835.069 51.6733 L800.798 51.6733 Q801.284 59.3701 805.416 63.421 Q809.589 67.4314 817.002 67.4314 Q821.296 67.4314 825.306 66.3781 Q829.357 65.3249 833.327 63.2184 L833.327 70.267 Q829.317 71.9684 825.104 72.8596 Q820.891 73.7508 816.556 73.7508 Q805.7 73.7508 799.34 67.4314 Q793.021 61.1119 793.021 50.3365 Q793.021 39.1965 799.016 32.6746 Q805.052 26.1121 815.26 26.1121 Q824.415 26.1121 829.722 32.0264 Q835.069 37.9003 835.069 48.0275 M827.615 45.84 Q827.534 39.7232 824.172 36.0774 Q820.85 32.4315 815.341 32.4315 Q809.103 32.4315 805.335 35.9558 Q801.608 39.4801 801.041 45.8805 L827.615 45.84 Z" fill="#000000" fill-rule="nonzero" fill-opacity="1" /><path clip-path="url(#clip310)" d="M870.271 9.54393 L870.271 15.7418 L863.142 15.7418 Q859.131 15.7418 857.551 17.3622 Q856.012 18.9825 856.012 23.1955 L856.012 27.2059 L868.286 27.2059 L868.286 32.9987 L856.012 32.9987 L856.012 72.576 L848.518 72.576 L848.518 32.9987 L841.388 32.9987 L841.388 27.2059 L848.518 27.2059 L848.518 24.0462 Q848.518 16.471 852.042 13.0277 Q855.566 9.54393 863.223 9.54393 L870.271 9.54393 Z" fill="#000000" fill-rule="nonzero" fill-opacity="1" /><path clip-path="url(#clip310)" d="M899.478 9.54393 L899.478 15.7418 L892.349 15.7418 Q888.338 15.7418 886.758 17.3622 Q885.219 18.9825 885.219 23.1955 L885.219 27.2059 L897.493 27.2059 L897.493 32.9987 L885.219 32.9987 L885.219 72.576 L877.725 72.576 L877.725 32.9987 L870.595 32.9987 L870.595 27.2059 L877.725 27.2059 L877.725 24.0462 Q877.725 16.471 881.249 13.0277 Q884.774 9.54393 892.43 9.54393 L899.478 9.54393 Z" fill="#000000" fill-rule="nonzero" fill-opacity="1" /><path clip-path="url(#clip310)" d="M944.524 48.0275 L944.524 51.6733 L910.254 51.6733 Q910.74 59.3701 914.872 63.421 Q919.044 67.4314 926.457 67.4314 Q930.751 67.4314 934.762 66.3781 Q938.813 65.3249 942.782 63.2184 L942.782 70.267 Q938.772 71.9684 934.559 72.8596 Q930.346 73.7508 926.012 73.7508 Q915.155 73.7508 908.795 67.4314 Q902.476 61.1119 902.476 50.3365 Q902.476 39.1965 908.471 32.6746 Q914.507 26.1121 924.715 26.1121 Q933.87 26.1121 939.177 32.0264 Q944.524 37.9003 944.524 48.0275 M937.071 45.84 Q936.99 39.7232 933.627 36.0774 Q930.306 32.4315 924.796 32.4315 Q918.558 32.4315 914.791 35.9558 Q911.064 39.4801 910.497 45.8805 L937.071 45.84 Z" fill="#000000" fill-rule="nonzero" fill-opacity="1" /><path clip-path="url(#clip310)" d="M989.408 28.9478 L989.408 35.9153 Q986.249 34.1734 983.048 33.3227 Q979.889 32.4315 976.648 32.4315 Q969.397 32.4315 965.387 37.0496 Q961.376 41.6271 961.376 49.9314 Q961.376 58.2358 965.387 62.8538 Q969.397 67.4314 976.648 67.4314 Q979.889 67.4314 983.048 66.5807 Q986.249 65.6895 989.408 63.9476 L989.408 70.8341 Q986.289 72.2924 982.927 73.0216 Q979.605 73.7508 975.838 73.7508 Q965.589 73.7508 959.553 67.3098 Q953.517 60.8689 953.517 49.9314 Q953.517 38.832 959.594 32.472 Q965.711 26.1121 976.324 26.1121 Q979.767 26.1121 983.048 26.8413 Q986.33 27.5299 989.408 28.9478 Z" fill="#000000" fill-rule="nonzero" fill-opacity="1" /><path clip-path="url(#clip310)" d="M1009.74 14.324 L1009.74 27.2059 L1025.1 27.2059 L1025.1 32.9987 L1009.74 32.9987 L1009.74 57.6282 Q1009.74 63.1779 1011.24 64.7578 Q1012.78 66.3376 1017.44 66.3376 L1025.1 66.3376 L1025.1 72.576 L1017.44 72.576 Q1008.81 72.576 1005.53 69.3758 Q1002.25 66.1351 1002.25 57.6282 L1002.25 32.9987 L996.781 32.9987 L996.781 27.2059 L1002.25 27.2059 L1002.25 14.324 L1009.74 14.324 Z" fill="#000000" fill-rule="nonzero" fill-opacity="1" /><path clip-path="url(#clip310)" d="M1078.85 32.4315 Q1072.86 32.4315 1069.37 37.1306 Q1065.89 41.7891 1065.89 49.9314 Q1065.89 58.0738 1069.33 62.7728 Q1072.82 67.4314 1078.85 67.4314 Q1084.81 67.4314 1088.29 62.7323 Q1091.77 58.0333 1091.77 49.9314 Q1091.77 41.8701 1088.29 37.1711 Q1084.81 32.4315 1078.85 32.4315 M1078.85 26.1121 Q1088.57 26.1121 1094.12 32.4315 Q1099.67 38.7509 1099.67 49.9314 Q1099.67 61.0714 1094.12 67.4314 Q1088.57 73.7508 1078.85 73.7508 Q1069.09 73.7508 1063.54 67.4314 Q1058.03 61.0714 1058.03 49.9314 Q1058.03 38.7509 1063.54 32.4315 Q1069.09 26.1121 1078.85 26.1121 Z" fill="#000000" fill-rule="nonzero" fill-opacity="1" /><path clip-path="url(#clip310)" d="M1135 9.54393 L1135 15.7418 L1127.87 15.7418 Q1123.86 15.7418 1122.28 17.3622 Q1120.74 18.9825 1120.74 23.1955 L1120.74 27.2059 L1133.01 27.2059 L1133.01 32.9987 L1120.74 32.9987 L1120.74 72.576 L1113.24 72.576 L1113.24 32.9987 L1106.11 32.9987 L1106.11 27.2059 L1113.24 27.2059 L1113.24 24.0462 Q1113.24 16.471 1116.77 13.0277 Q1120.29 9.54393 1127.95 9.54393 L1135 9.54393 Z" fill="#000000" fill-rule="nonzero" fill-opacity="1" /><path clip-path="url(#clip310)" d="M1174.98 14.324 L1174.98 27.2059 L1190.33 27.2059 L1190.33 32.9987 L1174.98 32.9987 L1174.98 57.6282 Q1174.98 63.1779 1176.48 64.7578 Q1178.02 66.3376 1182.68 66.3376 L1190.33 66.3376 L1190.33 72.576 L1182.68 72.576 Q1174.05 72.576 1170.77 69.3758 Q1167.49 66.1351 1167.49 57.6282 L1167.49 32.9987 L1162.02 32.9987 L1162.02 27.2059 L1167.49 27.2059 L1167.49 14.324 L1174.98 14.324 Z" fill="#000000" fill-rule="nonzero" fill-opacity="1" /><path clip-path="url(#clip310)" d="M1217.72 32.4315 Q1211.72 32.4315 1208.24 37.1306 Q1204.75 41.7891 1204.75 49.9314 Q1204.75 58.0738 1208.2 62.7728 Q1211.68 67.4314 1217.72 67.4314 Q1223.67 67.4314 1227.16 62.7323 Q1230.64 58.0333 1230.64 49.9314 Q1230.64 41.8701 1227.16 37.1711 Q1223.67 32.4315 1217.72 32.4315 M1217.72 26.1121 Q1227.44 26.1121 1232.99 32.4315 Q1238.54 38.7509 1238.54 49.9314 Q1238.54 61.0714 1232.99 67.4314 Q1227.44 73.7508 1217.72 73.7508 Q1207.95 73.7508 1202.4 67.4314 Q1196.9 61.0714 1196.9 49.9314 Q1196.9 38.7509 1202.4 32.4315 Q1207.95 26.1121 1217.72 26.1121 Z" fill="#000000" fill-rule="nonzero" fill-opacity="1" /><path clip-path="url(#clip310)" d="M1258.1 65.7705 L1258.1 89.8329 L1250.61 89.8329 L1250.61 27.2059 L1258.1 27.2059 L1258.1 34.0924 Q1260.45 30.0415 1264.02 28.0971 Q1267.62 26.1121 1272.61 26.1121 Q1280.87 26.1121 1286.02 32.6746 Q1291.2 39.2371 1291.2 49.9314 Q1291.2 60.6258 1286.02 67.1883 Q1280.87 73.7508 1272.61 73.7508 Q1267.62 73.7508 1264.02 71.8063 Q1260.45 69.8214 1258.1 65.7705 M1283.46 49.9314 Q1283.46 41.7081 1280.06 37.0496 Q1276.7 32.3505 1270.78 32.3505 Q1264.87 32.3505 1261.47 37.0496 Q1258.1 41.7081 1258.1 49.9314 Q1258.1 58.1548 1261.47 62.8538 Q1264.87 67.5124 1270.78 67.5124 Q1276.7 67.5124 1280.06 62.8538 Q1283.46 58.1548 1283.46 49.9314 Z" fill="#000000" fill-rule="nonzero" fill-opacity="1" /><path clip-path="url(#clip310)" d="M1321.14 32.4315 Q1315.14 32.4315 1311.66 37.1306 Q1308.17 41.7891 1308.17 49.9314 Q1308.17 58.0738 1311.62 62.7728 Q1315.1 67.4314 1321.14 67.4314 Q1327.09 67.4314 1330.58 62.7323 Q1334.06 58.0333 1334.06 49.9314 Q1334.06 41.8701 1330.58 37.1711 Q1327.09 32.4315 1321.14 32.4315 M1321.14 26.1121 Q1330.86 26.1121 1336.41 32.4315 Q1341.96 38.7509 1341.96 49.9314 Q1341.96 61.0714 1336.41 67.4314 Q1330.86 73.7508 1321.14 73.7508 Q1311.37 73.7508 1305.82 67.4314 Q1300.32 61.0714 1300.32 49.9314 Q1300.32 38.7509 1305.82 32.4315 Q1311.37 26.1121 1321.14 26.1121 Z" fill="#000000" fill-rule="nonzero" fill-opacity="1" /><path clip-path="url(#clip310)" d="M1354.31 9.54393 L1361.77 9.54393 L1361.77 72.576 L1354.31 72.576 L1354.31 9.54393 Z" fill="#000000" fill-rule="nonzero" fill-opacity="1" /><path clip-path="url(#clip310)" d="M1394.94 32.4315 Q1388.95 32.4315 1385.47 37.1306 Q1381.98 41.7891 1381.98 49.9314 Q1381.98 58.0738 1385.42 62.7728 Q1388.91 67.4314 1394.94 67.4314 Q1400.9 67.4314 1404.38 62.7323 Q1407.87 58.0333 1407.87 49.9314 Q1407.87 41.8701 1404.38 37.1711 Q1400.9 32.4315 1394.94 32.4315 M1394.94 26.1121 Q1404.67 26.1121 1410.22 32.4315 Q1415.77 38.7509 1415.77 49.9314 Q1415.77 61.0714 1410.22 67.4314 Q1404.67 73.7508 1394.94 73.7508 Q1385.18 73.7508 1379.63 67.4314 Q1374.12 61.0714 1374.12 49.9314 Q1374.12 38.7509 1379.63 32.4315 Q1385.18 26.1121 1394.94 26.1121 Z" fill="#000000" fill-rule="nonzero" fill-opacity="1" /><path clip-path="url(#clip310)" d="M1457.98 49.3643 Q1457.98 41.2625 1454.61 36.8065 Q1451.29 32.3505 1445.26 32.3505 Q1439.26 32.3505 1435.9 36.8065 Q1432.58 41.2625 1432.58 49.3643 Q1432.58 57.4256 1435.9 61.8816 Q1439.26 66.3376 1445.26 66.3376 Q1451.29 66.3376 1454.61 61.8816 Q1457.98 57.4256 1457.98 49.3643 M1465.43 66.9452 Q1465.43 78.5308 1460.29 84.1616 Q1455.14 89.8329 1444.53 89.8329 Q1440.6 89.8329 1437.11 89.2252 Q1433.63 88.6581 1430.35 87.4428 L1430.35 80.1917 Q1433.63 81.9741 1436.83 82.8248 Q1440.03 83.6755 1443.35 83.6755 Q1450.68 83.6755 1454.33 79.8271 Q1457.98 76.0193 1457.98 68.282 L1457.98 64.5957 Q1455.67 68.6061 1452.06 70.5911 Q1448.46 72.576 1443.43 72.576 Q1435.09 72.576 1429.98 66.2161 Q1424.88 59.8562 1424.88 49.3643 Q1424.88 38.832 1429.98 32.472 Q1435.09 26.1121 1443.43 26.1121 Q1448.46 26.1121 1452.06 28.0971 Q1455.67 30.082 1457.98 34.0924 L1457.98 27.2059 L1465.43 27.2059 L1465.43 66.9452 Z" fill="#000000" fill-rule="nonzero" fill-opacity="1" /><path clip-path="url(#clip310)" d="M1499.66 76.7889 Q1496.5 84.8907 1493.5 87.3618 Q1490.51 89.8329 1485.48 89.8329 L1479.53 89.8329 L1479.53 83.5945 L1483.9 83.5945 Q1486.98 83.5945 1488.68 82.1361 Q1490.38 80.6778 1492.45 75.2496 L1493.79 71.8468 L1475.44 27.2059 L1483.34 27.2059 L1497.51 62.6918 L1511.69 27.2059 L1519.59 27.2059 L1499.66 76.7889 Z" fill="#000000" fill-rule="nonzero" fill-opacity="1" /><path clip-path="url(#clip310)" d="M1574.16 9.62495 Q1568.73 18.942 1566.1 28.0566 Q1563.46 37.1711 1563.46 46.5287 Q1563.46 55.8863 1566.1 65.0818 Q1568.77 74.2369 1574.16 83.5134 L1567.67 83.5134 Q1561.6 73.9938 1558.56 64.7983 Q1555.56 55.6027 1555.56 46.5287 Q1555.56 37.4952 1558.56 28.3401 Q1561.56 19.1851 1567.67 9.62495 L1574.16 9.62495 Z" fill="#000000" fill-rule="nonzero" fill-opacity="1" /><path clip-path="url(#clip310)" d="M1588.94 12.096 L1599.96 12.096 L1626.78 62.6918 L1626.78 12.096 L1634.72 12.096 L1634.72 72.576 L1623.7 72.576 L1596.88 21.9802 L1596.88 72.576 L1588.94 72.576 L1588.94 12.096 Z" fill="#000000" fill-rule="nonzero" fill-opacity="1" /><path clip-path="url(#clip310)" d="M1651.65 34.9026 L1703.58 34.9026 L1703.58 41.7081 L1651.65 41.7081 L1651.65 34.9026 M1651.65 51.4303 L1703.58 51.4303 L1703.58 58.3168 L1651.65 58.3168 L1651.65 51.4303 Z" fill="#000000" fill-rule="nonzero" fill-opacity="1" /><path clip-path="url(#clip310)" d="M1728.29 65.6895 L1756.85 65.6895 L1756.85 72.576 L1718.45 72.576 L1718.45 65.6895 Q1723.11 60.8689 1731.13 52.7671 Q1739.19 44.6248 1741.26 42.2752 Q1745.19 37.8598 1746.72 34.8216 Q1748.3 31.7429 1748.3 28.7857 Q1748.3 23.9651 1744.9 20.927 Q1741.54 17.8888 1736.11 17.8888 Q1732.26 17.8888 1727.97 19.2256 Q1723.72 20.5624 1718.85 23.2765 L1718.85 15.0127 Q1723.8 13.0277 1728.09 12.015 Q1732.38 11.0023 1735.95 11.0023 Q1745.35 11.0023 1750.94 15.7013 Q1756.53 20.4004 1756.53 28.2591 Q1756.53 31.9859 1755.11 35.3482 Q1753.73 38.6699 1750.05 43.2069 Q1749.03 44.3817 1743.61 50.0125 Q1738.18 55.6027 1728.29 65.6895 Z" fill="#000000" fill-rule="nonzero" fill-opacity="1" /><path clip-path="url(#clip310)" d="M1791.53 17.4837 Q1785.21 17.4837 1782.01 23.7221 Q1778.85 29.92 1778.85 42.3968 Q1778.85 54.833 1782.01 61.0714 Q1785.21 67.2693 1791.53 67.2693 Q1797.89 67.2693 1801.05 61.0714 Q1804.25 54.833 1804.25 42.3968 Q1804.25 29.92 1801.05 23.7221 Q1797.89 17.4837 1791.53 17.4837 M1791.53 11.0023 Q1801.7 11.0023 1807.04 19.0636 Q1812.43 27.0843 1812.43 42.3968 Q1812.43 57.6687 1807.04 65.73 Q1801.7 73.7508 1791.53 73.7508 Q1781.36 73.7508 1775.97 65.73 Q1770.63 57.6687 1770.63 42.3968 Q1770.63 27.0843 1775.97 19.0636 Q1781.36 11.0023 1791.53 11.0023 Z" fill="#000000" fill-rule="nonzero" fill-opacity="1" /><path clip-path="url(#clip310)" d="M1844.31 17.4837 Q1837.99 17.4837 1834.79 23.7221 Q1831.63 29.92 1831.63 42.3968 Q1831.63 54.833 1834.79 61.0714 Q1837.99 67.2693 1844.31 67.2693 Q1850.67 67.2693 1853.83 61.0714 Q1857.03 54.833 1857.03 42.3968 Q1857.03 29.92 1853.83 23.7221 Q1850.67 17.4837 1844.31 17.4837 M1844.31 11.0023 Q1854.48 11.0023 1859.83 19.0636 Q1865.21 27.0843 1865.21 42.3968 Q1865.21 57.6687 1859.83 65.73 Q1854.48 73.7508 1844.31 73.7508 Q1834.14 73.7508 1828.76 65.73 Q1823.41 57.6687 1823.41 42.3968 Q1823.41 27.0843 1828.76 19.0636 Q1834.14 11.0023 1844.31 11.0023 Z" fill="#000000" fill-rule="nonzero" fill-opacity="1" /><path clip-path="url(#clip310)" d="M1880.45 62.2867 L1888.99 62.2867 L1888.99 69.2543 L1882.35 82.2172 L1877.12 82.2172 L1880.45 69.2543 L1880.45 62.2867 Z" fill="#000000" fill-rule="nonzero" fill-opacity="1" /><path clip-path="url(#clip310)" d="M1960.29 44.2197 Q1962.92 45.1109 1965.39 48.0275 Q1967.9 50.9442 1970.42 56.0483 L1978.72 72.576 L1969.93 72.576 L1962.19 57.061 Q1959.19 50.9847 1956.36 48.9997 Q1953.56 47.0148 1948.7 47.0148 L1939.79 47.0148 L1939.79 72.576 L1931.61 72.576 L1931.61 12.096 L1950.08 12.096 Q1960.45 12.096 1965.55 16.4305 Q1970.66 20.7649 1970.66 29.5149 Q1970.66 35.2267 1967.99 38.994 Q1965.35 42.7613 1960.29 44.2197 M1939.79 18.8205 L1939.79 40.2903 L1950.08 40.2903 Q1955.99 40.2903 1958.99 37.5762 Q1962.03 34.8216 1962.03 29.5149 Q1962.03 24.2082 1958.99 21.5346 Q1955.99 18.8205 1950.08 18.8205 L1939.79 18.8205 Z" fill="#000000" fill-rule="nonzero" fill-opacity="1" /><path clip-path="url(#clip310)" d="M2004.2 45.1514 Q2002.17 41.6676 1998.08 41.6676 Q1993.99 41.6676 1991.97 45.1514 Q1989.9 48.6352 1989.9 55.6027 Q1989.9 62.6108 1991.97 66.0946 Q1993.99 69.5783 1998.08 69.5783 Q2002.17 69.5783 2004.2 66.0946 Q2006.27 62.6108 2006.27 55.6027 Q2006.27 48.6352 2004.2 45.1514 M1998.08 38.0623 Q2004.61 38.0623 2008.05 42.5588 Q2011.49 47.0553 2011.49 55.6027 Q2011.49 64.1906 2008.05 68.6871 Q2004.61 73.1836 1998.08 73.1836 Q1991.52 73.1836 1988.08 68.6871 Q1984.63 64.1906 1984.63 55.6027 Q1984.63 47.0553 1988.08 42.5588 Q1991.52 38.0623 1998.08 38.0623 Z" fill="#000000" fill-rule="nonzero" fill-opacity="1" /><path clip-path="url(#clip310)" d="M2023.16 34.9026 L2075.09 34.9026 L2075.09 41.7081 L2023.16 41.7081 L2023.16 34.9026 M2023.16 51.4303 L2075.09 51.4303 L2075.09 58.3168 L2023.16 58.3168 L2023.16 51.4303 Z" fill="#000000" fill-rule="nonzero" fill-opacity="1" /><path clip-path="url(#clip310)" d="M2099.8 65.6895 L2128.36 65.6895 L2128.36 72.576 L2089.96 72.576 L2089.96 65.6895 Q2094.62 60.8689 2102.64 52.7671 Q2110.7 44.6248 2112.76 42.2752 Q2116.69 37.8598 2118.23 34.8216 Q2119.81 31.7429 2119.81 28.7857 Q2119.81 23.9651 2116.41 20.927 Q2113.05 17.8888 2107.62 17.8888 Q2103.77 17.8888 2099.48 19.2256 Q2095.22 20.5624 2090.36 23.2765 L2090.36 15.0127 Q2095.31 13.0277 2099.6 12.015 Q2103.89 11.0023 2107.46 11.0023 Q2116.86 11.0023 2122.45 15.7013 Q2128.04 20.4004 2128.04 28.2591 Q2128.04 31.9859 2126.62 35.3482 Q2125.24 38.6699 2121.56 43.2069 Q2120.54 44.3817 2115.11 50.0125 Q2109.69 55.6027 2099.8 65.6895 Z" fill="#000000" fill-rule="nonzero" fill-opacity="1" /><path clip-path="url(#clip310)" d="M2191.47 49.7694 Q2182.44 49.7694 2178.96 51.8354 Q2175.47 53.9013 2175.47 58.8839 Q2175.47 62.8538 2178.07 65.2034 Q2180.7 67.5124 2185.19 67.5124 Q2191.39 67.5124 2195.12 63.1374 Q2198.89 58.7219 2198.89 51.4303 L2198.89 49.7694 L2191.47 49.7694 M2206.34 46.6907 L2206.34 72.576 L2198.89 72.576 L2198.89 65.6895 Q2196.33 69.8214 2192.53 71.8063 Q2188.72 73.7508 2183.21 73.7508 Q2176.24 73.7508 2172.11 69.8619 Q2168.02 65.9325 2168.02 59.3701 Q2168.02 51.7138 2173.12 47.825 Q2178.27 43.9361 2188.44 43.9361 L2198.89 43.9361 L2198.89 43.2069 Q2198.89 38.0623 2195.48 35.2672 Q2192.12 32.4315 2186 32.4315 Q2182.12 32.4315 2178.43 33.3632 Q2174.74 34.295 2171.34 36.1584 L2171.34 29.2718 Q2175.43 27.692 2179.28 26.9223 Q2183.13 26.1121 2186.77 26.1121 Q2196.62 26.1121 2201.48 31.2163 Q2206.34 36.3204 2206.34 46.6907 Z" fill="#000000" fill-rule="nonzero" fill-opacity="1" /><path clip-path="url(#clip310)" d="M2259.41 45.1919 L2259.41 72.576 L2251.95 72.576 L2251.95 45.4349 Q2251.95 38.994 2249.44 35.7938 Q2246.93 32.5936 2241.91 32.5936 Q2235.87 32.5936 2232.39 36.4419 Q2228.9 40.2903 2228.9 46.9338 L2228.9 72.576 L2221.41 72.576 L2221.41 27.2059 L2228.9 27.2059 L2228.9 34.2544 Q2231.58 30.163 2235.18 28.1376 Q2238.83 26.1121 2243.57 26.1121 Q2251.39 26.1121 2255.4 30.9732 Q2259.41 35.7938 2259.41 45.1919 Z" fill="#000000" fill-rule="nonzero" fill-opacity="1" /><path clip-path="url(#clip310)" d="M2306.92 28.9478 L2306.92 35.9153 Q2303.76 34.1734 2300.56 33.3227 Q2297.4 32.4315 2294.16 32.4315 Q2286.91 32.4315 2282.9 37.0496 Q2278.89 41.6271 2278.89 49.9314 Q2278.89 58.2358 2282.9 62.8538 Q2286.91 67.4314 2294.16 67.4314 Q2297.4 67.4314 2300.56 66.5807 Q2303.76 65.6895 2306.92 63.9476 L2306.92 70.8341 Q2303.81 72.2924 2300.44 73.0216 Q2297.12 73.7508 2293.35 73.7508 Q2283.11 73.7508 2277.07 67.3098 Q2271.03 60.8689 2271.03 49.9314 Q2271.03 38.832 2277.11 32.472 Q2283.23 26.1121 2293.84 26.1121 Q2297.28 26.1121 2300.56 26.8413 Q2303.85 27.5299 2306.92 28.9478 Z" fill="#000000" fill-rule="nonzero" fill-opacity="1" /><path clip-path="url(#clip310)" d="M2357.6 45.1919 L2357.6 72.576 L2350.15 72.576 L2350.15 45.4349 Q2350.15 38.994 2347.64 35.7938 Q2345.12 32.5936 2340.1 32.5936 Q2334.07 32.5936 2330.58 36.4419 Q2327.1 40.2903 2327.1 46.9338 L2327.1 72.576 L2319.6 72.576 L2319.6 9.54393 L2327.1 9.54393 L2327.1 34.2544 Q2329.77 30.163 2333.38 28.1376 Q2337.02 26.1121 2341.76 26.1121 Q2349.58 26.1121 2353.59 30.9732 Q2357.6 35.7938 2357.6 45.1919 Z" fill="#000000" fill-rule="nonzero" fill-opacity="1" /><path clip-path="url(#clip310)" d="M2390.05 32.4315 Q2384.05 32.4315 2380.57 37.1306 Q2377.09 41.7891 2377.09 49.9314 Q2377.09 58.0738 2380.53 62.7728 Q2384.01 67.4314 2390.05 67.4314 Q2396 67.4314 2399.49 62.7323 Q2402.97 58.0333 2402.97 49.9314 Q2402.97 41.8701 2399.49 37.1711 Q2396 32.4315 2390.05 32.4315 M2390.05 26.1121 Q2399.77 26.1121 2405.32 32.4315 Q2410.87 38.7509 2410.87 49.9314 Q2410.87 61.0714 2405.32 67.4314 Q2399.77 73.7508 2390.05 73.7508 Q2380.29 73.7508 2374.74 67.4314 Q2369.23 61.0714 2369.23 49.9314 Q2369.23 38.7509 2374.74 32.4315 Q2380.29 26.1121 2390.05 26.1121 Z" fill="#000000" fill-rule="nonzero" fill-opacity="1" /><path clip-path="url(#clip310)" d="M2449.52 34.1734 Q2448.26 33.4443 2446.76 33.1202 Q2445.3 32.7556 2443.52 32.7556 Q2437.2 32.7556 2433.8 36.8875 Q2430.44 40.9789 2430.44 48.6757 L2430.44 72.576 L2422.94 72.576 L2422.94 27.2059 L2430.44 27.2059 L2430.44 34.2544 Q2432.79 30.1225 2436.55 28.1376 Q2440.32 26.1121 2445.71 26.1121 Q2446.48 26.1121 2447.41 26.2337 Q2448.34 26.3147 2449.48 26.5172 L2449.52 34.1734 Z" fill="#000000" fill-rule="nonzero" fill-opacity="1" /><path clip-path="url(#clip310)" d="M2459.24 62.2867 L2467.79 62.2867 L2467.79 69.2543 L2461.14 82.2172 L2455.92 82.2172 L2459.24 69.2543 L2459.24 62.2867 Z" fill="#000000" fill-rule="nonzero" fill-opacity="1" /><path clip-path="url(#clip310)" d="M2509.79 9.54393 L2517.29 9.54393 L2517.29 46.7717 L2539.53 27.2059 L2549.05 27.2059 L2524.98 48.4326 L2550.06 72.576 L2540.34 72.576 L2517.29 50.4176 L2517.29 72.576 L2509.79 72.576 L2509.79 9.54393 Z" fill="#000000" fill-rule="nonzero" fill-opacity="1" /><path clip-path="url(#clip310)" d="M2559.09 34.9026 L2611.03 34.9026 L2611.03 41.7081 L2559.09 41.7081 L2559.09 34.9026 M2559.09 51.4303 L2611.03 51.4303 L2611.03 58.3168 L2559.09 58.3168 L2559.09 51.4303 Z" fill="#000000" fill-rule="nonzero" fill-opacity="1" /><path clip-path="url(#clip310)" d="M2647.2 39.075 Q2641.69 39.075 2638.45 42.8424 Q2635.25 46.6097 2635.25 53.1722 Q2635.25 59.6941 2638.45 63.502 Q2641.69 67.2693 2647.2 67.2693 Q2652.71 67.2693 2655.91 63.502 Q2659.15 59.6941 2659.15 53.1722 Q2659.15 46.6097 2655.91 42.8424 Q2652.71 39.075 2647.2 39.075 M2663.44 13.4328 L2663.44 20.8865 Q2660.37 19.4281 2657.21 18.6585 Q2654.09 17.8888 2651.01 17.8888 Q2642.91 17.8888 2638.61 23.3575 Q2634.36 28.8262 2633.75 39.8852 Q2636.14 36.3609 2639.75 34.4975 Q2643.35 32.5936 2647.69 32.5936 Q2656.8 32.5936 2662.07 38.1433 Q2667.37 43.6525 2667.37 53.1722 Q2667.37 62.4892 2661.86 68.12 Q2656.36 73.7508 2647.2 73.7508 Q2636.71 73.7508 2631.16 65.73 Q2625.61 57.6687 2625.61 42.3968 Q2625.61 28.0566 2632.41 19.5497 Q2639.22 11.0023 2650.68 11.0023 Q2653.76 11.0023 2656.88 11.6099 Q2660.04 12.2175 2663.44 13.4328 Z" fill="#000000" fill-rule="nonzero" fill-opacity="1" /><path clip-path="url(#clip310)" d="M2679.24 9.62495 L2685.72 9.62495 Q2691.8 19.1851 2694.8 28.3401 Q2697.84 37.4952 2697.84 46.5287 Q2697.84 55.6027 2694.8 64.7983 Q2691.8 73.9938 2685.72 83.5134 L2679.24 83.5134 Q2684.63 74.2369 2687.26 65.0818 Q2689.94 55.8863 2689.94 46.5287 Q2689.94 37.1711 2687.26 28.0566 Q2684.63 18.942 2679.24 9.62495 Z" fill="#000000" fill-rule="nonzero" fill-opacity="1" /><polyline clip-path="url(#clip311)" style="stroke:#0000ff; stroke-linecap:round; stroke-linejoin:round; stroke-width:8; stroke-opacity:1; fill:none" points="280.151,1661.89 308.799,1654.11 337.447,1645.74 366.095,1636.68 394.743,1626.82 423.391,1616.03 452.039,1604.21 480.688,1591.22 509.336,1576.91 537.984,1561.16 566.632,1543.81 595.28,1524.7 623.928,1503.68 652.576,1480.61 681.224,1455.34 709.873,1427.75 738.521,1397.73 767.169,1365.21 795.817,1330.15 824.465,1292.57 853.113,1252.54 881.761,1210.22 910.409,1165.83 939.058,1119.69 967.706,1072.2 996.354,1023.87 1025,975.282 1053.65,927.129 1082.3,880.129 1110.95,835.035 1139.59,792.619 1168.24,753.674 1196.89,718.925 1225.54,688.994 1254.19,664.395 1282.83,645.556 1311.48,632.728 1340.13,625.979 1368.78,625.271 1397.43,630.455 1426.08,641.29 1454.72,657.387 1483.37,678.149 1512.02,702.998 1540.67,731.392 1569.32,762.823 1597.96,796.778 1626.61,832.628 1655.26,869.82 1683.91,907.865 1712.56,946.332 1741.2,984.854 1769.85,1023.08 1798.5,1060.72 1827.15,1097.55 1855.8,1133.39 1884.45,1168.07 1913.09,1201.46 1941.74,1233.45 1970.39,1263.96 1999.04,1292.98 2027.69,1320.53 2056.33,1346.61 2084.98,1371.26 2113.63,1394.47 2142.28,1416.27 2170.93,1436.67 2199.57,1455.75 2228.22,1473.58 2256.87,1490.22 2285.52,1505.73 2314.17,1520.17 2342.82,1533.59 2371.46,1546.03 2400.11,1557.57 2428.76,1568.26 2457.41,1578.16 2486.06,1587.31 2514.7,1595.77 2543.35,1603.59 2572,1610.8 "/>
<polyline clip-path="url(#clip311)" style="stroke:#ffa500; stroke-linecap:round; stroke-linejoin:round; stroke-width:8; stroke-opacity:1; fill:none" points="280.151,1661.89 308.799,1651.15 337.447,1637.61 366.095,1621.01 394.743,1601.09 423.391,1577.52 452.039,1549.96 480.688,1518.02 509.336,1481.35 537.984,1439.59 566.632,1392.45 595.28,1339.75 623.928,1281.46 652.576,1217.75 681.224,1149.09 709.873,1076.23 738.521,1000.29 767.169,922.727 795.817,845.276 824.465,769.867 853.113,698.625 881.761,633.582 910.409,576.537 939.058,529.047 967.706,492.219 996.354,466.694 1025,452.675 1053.65,449.891 1082.3,457.608 1110.95,474.928 1139.59,500.782 1168.24,533.851 1196.89,572.828 1225.54,616.501 1254.19,663.696 1282.83,713.31 1311.48,764.381 1340.13,816.089 1368.78,867.724 1397.43,918.712 1426.08,968.593 1454.72,1016.99 1483.37,1063.6 1512.02,1108.23 1540.67,1150.74 1569.32,1191.05 1597.96,1229.13 1626.61,1264.94 1655.26,1298.52 1683.91,1329.93 1712.56,1359.23 1741.2,1386.5 1769.85,1411.83 1798.5,1435.29 1827.15,1456.99 1855.8,1477.05 1884.45,1495.55 1913.09,1512.59 1941.74,1528.26 1970.39,1542.66 1999.04,1555.87 2027.69,1568 2056.33,1579.1 2084.98,1589.27 2113.63,1598.56 2142.28,1607.06 2170.93,1614.81 2199.57,1621.89 2228.22,1628.35 2256.87,1634.23 2285.52,1639.59 2314.17,1644.47 2342.82,1648.91 2371.46,1652.95 2400.11,1656.62 2428.76,1659.95 2457.41,1662.98 2486.06,1665.73 2514.7,1668.23 2543.35,1670.5 2572,1672.55 "/>
<polyline clip-path="url(#clip311)" style="stroke:#800080; stroke-linecap:round; stroke-linejoin:round; stroke-width:8; stroke-opacity:1; fill:none" points="280.151,1661.89 308.799,1576.7 337.447,1474.06 366.095,1353.13 394.743,1215.18 423.391,1063.98 452.039,905.663 480.688,748.046 509.336,599.427 537.984,467.301 566.632,357.312 595.28,272.785 623.928,214.727 652.576,182.283 681.224,173.254 709.873,184.652 738.521,213.166 767.169,255.457 795.817,308.391 824.465,369.145 853.113,435.27 881.761,504.692 910.409,575.7 939.058,646.914 967.706,717.245 996.354,785.856 1025,852.119 1053.65,915.589 1082.3,975.961 1110.95,1033.04 1139.59,1086.75 1168.24,1137.05 1196.89,1183.97 1225.54,1227.61 1254.19,1268.08 1282.83,1305.49 1311.48,1340.01 1340.13,1371.78 1368.78,1400.97 1397.43,1427.74 1426.08,1452.25 1454.72,1474.67 1483.37,1495.13 1512.02,1513.8 1540.67,1530.8 1569.32,1546.28 1597.96,1560.34 1626.61,1573.12 1655.26,1584.71 1683.91,1595.22 1712.56,1604.75 1741.2,1613.37 1769.85,1621.17 1798.5,1628.23 1827.15,1634.6 1855.8,1640.36 1884.45,1645.56 1913.09,1650.25 1941.74,1654.48 1970.39,1658.29 1999.04,1661.72 2027.69,1664.81 2056.33,1667.6 2084.98,1670.1 2113.63,1672.36 2142.28,1674.38 2170.93,1676.21 2199.57,1677.84 2228.22,1679.31 2256.87,1680.63 2285.52,1681.82 2314.17,1682.88 2342.82,1683.84 2371.46,1684.69 2400.11,1685.46 2428.76,1686.15 2457.41,1686.77 2486.06,1687.32 2514.7,1687.81 2543.35,1688.26 2572,1688.65 "/>
<path clip-path="url(#clip310)" d="M1948.86 388.696 L2559.78 388.696 L2559.78 181.336 L1948.86 181.336  Z" fill="#ffffff" fill-rule="evenodd" fill-opacity="1"/>
<polyline clip-path="url(#clip310)" style="stroke:#000000; stroke-linecap:round; stroke-linejoin:round; stroke-width:4; stroke-opacity:1; fill:none" points="1948.86,388.696 2559.78,388.696 2559.78,181.336 1948.86,181.336 1948.86,388.696 "/>
<polyline clip-path="url(#clip310)" style="stroke:#0000ff; stroke-linecap:round; stroke-linejoin:round; stroke-width:8; stroke-opacity:1; fill:none" points="1975.85,233.176 2137.81,233.176 "/>
<path clip-path="url(#clip310)" d="M2181.19 234.253 Q2182.69 234.762 2184.11 236.429 Q2185.54 238.095 2186.98 241.012 L2191.72 250.456 L2186.7 250.456 L2182.28 241.591 Q2180.56 238.118 2178.94 236.984 Q2177.35 235.85 2174.57 235.85 L2169.48 235.85 L2169.48 250.456 L2164.8 250.456 L2164.8 215.896 L2175.36 215.896 Q2181.28 215.896 2184.2 218.373 Q2187.11 220.85 2187.11 225.85 Q2187.11 229.114 2185.59 231.267 Q2184.08 233.419 2181.19 234.253 M2169.48 219.739 L2169.48 232.007 L2175.36 232.007 Q2178.74 232.007 2180.45 230.456 Q2182.18 228.882 2182.18 225.85 Q2182.18 222.818 2180.45 221.29 Q2178.74 219.739 2175.36 219.739 L2169.48 219.739 Z" fill="#000000" fill-rule="nonzero" fill-opacity="1" /><path clip-path="url(#clip310)" d="M2217.6 236.429 L2217.6 238.512 L2198.02 238.512 Q2198.3 242.91 2200.66 245.225 Q2203.04 247.516 2207.28 247.516 Q2209.73 247.516 2212.02 246.915 Q2214.34 246.313 2216.61 245.109 L2216.61 249.137 Q2214.31 250.109 2211.91 250.618 Q2209.5 251.128 2207.02 251.128 Q2200.82 251.128 2197.18 247.516 Q2193.57 243.905 2193.57 237.748 Q2193.57 231.382 2197 227.655 Q2200.45 223.906 2206.28 223.906 Q2211.51 223.906 2214.55 227.285 Q2217.6 230.642 2217.6 236.429 M2213.34 235.179 Q2213.3 231.683 2211.37 229.6 Q2209.48 227.517 2206.33 227.517 Q2202.76 227.517 2200.61 229.53 Q2198.48 231.544 2198.16 235.202 L2213.34 235.179 Z" fill="#000000" fill-rule="nonzero" fill-opacity="1" /><path clip-path="url(#clip310)" d="M2241.65 237.192 Q2241.65 232.563 2239.73 230.017 Q2237.83 227.47 2234.38 227.47 Q2230.96 227.47 2229.04 230.017 Q2227.14 232.563 2227.14 237.192 Q2227.14 241.799 2229.04 244.345 Q2230.96 246.891 2234.38 246.891 Q2237.83 246.891 2239.73 244.345 Q2241.65 241.799 2241.65 237.192 M2245.91 247.239 Q2245.91 253.859 2242.97 257.077 Q2240.03 260.317 2233.97 260.317 Q2231.72 260.317 2229.73 259.97 Q2227.74 259.646 2225.86 258.952 L2225.86 254.808 Q2227.74 255.827 2229.57 256.313 Q2231.4 256.799 2233.3 256.799 Q2237.48 256.799 2239.57 254.6 Q2241.65 252.424 2241.65 248.003 L2241.65 245.896 Q2240.33 248.188 2238.27 249.322 Q2236.21 250.456 2233.34 250.456 Q2228.57 250.456 2225.66 246.822 Q2222.74 243.188 2222.74 237.192 Q2222.74 231.174 2225.66 227.54 Q2228.57 223.906 2233.34 223.906 Q2236.21 223.906 2238.27 225.04 Q2240.33 226.174 2241.65 228.466 L2241.65 224.531 L2245.91 224.531 L2245.91 247.239 Z" fill="#000000" fill-rule="nonzero" fill-opacity="1" /><path clip-path="url(#clip310)" d="M2254.24 240.225 L2254.24 224.531 L2258.5 224.531 L2258.5 240.063 Q2258.5 243.743 2259.94 245.595 Q2261.37 247.424 2264.24 247.424 Q2267.69 247.424 2269.68 245.225 Q2271.7 243.026 2271.7 239.229 L2271.7 224.531 L2275.96 224.531 L2275.96 250.456 L2271.7 250.456 L2271.7 246.475 Q2270.15 248.836 2268.09 249.993 Q2266.05 251.128 2263.34 251.128 Q2258.87 251.128 2256.56 248.35 Q2254.24 245.572 2254.24 240.225 M2264.96 223.906 L2264.96 223.906 Z" fill="#000000" fill-rule="nonzero" fill-opacity="1" /><path clip-path="url(#clip310)" d="M2284.73 214.438 L2288.99 214.438 L2288.99 250.456 L2284.73 250.456 L2284.73 214.438 Z" fill="#000000" fill-rule="nonzero" fill-opacity="1" /><path clip-path="url(#clip310)" d="M2309.68 237.424 Q2304.52 237.424 2302.53 238.604 Q2300.54 239.785 2300.54 242.632 Q2300.54 244.901 2302.02 246.243 Q2303.53 247.563 2306.1 247.563 Q2309.64 247.563 2311.77 245.063 Q2313.92 242.54 2313.92 238.373 L2313.92 237.424 L2309.68 237.424 M2318.18 235.665 L2318.18 250.456 L2313.92 250.456 L2313.92 246.521 Q2312.46 248.882 2310.29 250.016 Q2308.11 251.128 2304.96 251.128 Q2300.98 251.128 2298.62 248.905 Q2296.28 246.66 2296.28 242.91 Q2296.28 238.535 2299.2 236.313 Q2302.14 234.091 2307.95 234.091 L2313.92 234.091 L2313.92 233.674 Q2313.92 230.734 2311.98 229.137 Q2310.05 227.517 2306.56 227.517 Q2304.34 227.517 2302.23 228.049 Q2300.12 228.581 2298.18 229.646 L2298.18 225.711 Q2300.52 224.808 2302.72 224.368 Q2304.92 223.906 2307 223.906 Q2312.62 223.906 2315.4 226.822 Q2318.18 229.739 2318.18 235.665 Z" fill="#000000" fill-rule="nonzero" fill-opacity="1" /><path clip-path="url(#clip310)" d="M2341.98 228.512 Q2341.26 228.095 2340.4 227.91 Q2339.57 227.702 2338.55 227.702 Q2334.94 227.702 2332.99 230.063 Q2331.07 232.401 2331.07 236.799 L2331.07 250.456 L2326.79 250.456 L2326.79 224.531 L2331.07 224.531 L2331.07 228.558 Q2332.42 226.197 2334.57 225.063 Q2336.72 223.906 2339.8 223.906 Q2340.24 223.906 2340.77 223.975 Q2341.3 224.021 2341.95 224.137 L2341.98 228.512 Z" fill="#000000" fill-rule="nonzero" fill-opacity="1" /><polyline clip-path="url(#clip310)" style="stroke:#ffa500; stroke-linecap:round; stroke-linejoin:round; stroke-width:8; stroke-opacity:1; fill:none" points="1975.85,285.016 2137.81,285.016 "/>
<path clip-path="url(#clip310)" d="M2164.8 267.736 L2186.65 267.736 L2186.65 271.671 L2169.48 271.671 L2169.48 281.903 L2185.93 281.903 L2185.93 285.838 L2169.48 285.838 L2169.48 298.361 L2187.07 298.361 L2187.07 302.296 L2164.8 302.296 L2164.8 267.736 Z" fill="#000000" fill-rule="nonzero" fill-opacity="1" /><path clip-path="url(#clip310)" d="M2209.59 280.352 Q2208.87 279.935 2208.02 279.75 Q2207.18 279.542 2206.17 279.542 Q2202.55 279.542 2200.61 281.903 Q2198.69 284.241 2198.69 288.639 L2198.69 302.296 L2194.41 302.296 L2194.41 276.371 L2198.69 276.371 L2198.69 280.398 Q2200.03 278.037 2202.18 276.903 Q2204.34 275.746 2207.42 275.746 Q2207.86 275.746 2208.39 275.815 Q2208.92 275.861 2209.57 275.977 L2209.59 280.352 Z" fill="#000000" fill-rule="nonzero" fill-opacity="1" /><path clip-path="url(#clip310)" d="M2230.29 280.306 L2230.29 266.278 L2234.55 266.278 L2234.55 302.296 L2230.29 302.296 L2230.29 298.407 Q2228.94 300.722 2226.88 301.856 Q2224.85 302.968 2221.98 302.968 Q2217.28 302.968 2214.31 299.218 Q2211.37 295.468 2211.37 289.357 Q2211.37 283.245 2214.31 279.495 Q2217.28 275.746 2221.98 275.746 Q2224.85 275.746 2226.88 276.88 Q2228.94 277.991 2230.29 280.306 M2215.77 289.357 Q2215.77 294.056 2217.69 296.741 Q2219.64 299.403 2223.02 299.403 Q2226.4 299.403 2228.34 296.741 Q2230.29 294.056 2230.29 289.357 Q2230.29 284.657 2228.34 281.995 Q2226.4 279.31 2223.02 279.31 Q2219.64 279.31 2217.69 281.995 Q2215.77 284.657 2215.77 289.357 Z" fill="#000000" fill-rule="nonzero" fill-opacity="1" /><path clip-path="url(#clip310)" d="M2260.24 264.38 L2264.36 264.38 L2258.62 273.083 L2255.49 273.083 L2260.24 264.38 M2252.51 264.38 L2256.44 264.38 L2251.28 273.083 L2248.11 273.083 L2252.51 264.38 M2253.36 279.357 Q2249.94 279.357 2247.95 282.042 Q2245.96 284.704 2245.96 289.357 Q2245.96 294.009 2247.92 296.694 Q2249.92 299.356 2253.36 299.356 Q2256.77 299.356 2258.76 296.671 Q2260.75 293.986 2260.75 289.357 Q2260.75 284.75 2258.76 282.065 Q2256.77 279.357 2253.36 279.357 M2253.36 275.746 Q2258.92 275.746 2262.09 279.357 Q2265.26 282.968 2265.26 289.357 Q2265.26 295.722 2262.09 299.356 Q2258.92 302.968 2253.36 302.968 Q2247.79 302.968 2244.61 299.356 Q2241.47 295.722 2241.47 289.357 Q2241.47 282.968 2244.61 279.357 Q2247.79 275.746 2253.36 275.746 Z" fill="#000000" fill-rule="nonzero" fill-opacity="1" /><path clip-path="url(#clip310)" d="M2288.85 277.134 L2288.85 281.162 Q2287.04 280.236 2285.1 279.773 Q2283.16 279.31 2281.07 279.31 Q2277.9 279.31 2276.3 280.283 Q2274.73 281.255 2274.73 283.199 Q2274.73 284.681 2275.86 285.537 Q2277 286.37 2280.42 287.134 L2281.88 287.458 Q2286.42 288.431 2288.32 290.213 Q2290.24 291.972 2290.24 295.144 Q2290.24 298.755 2287.37 300.861 Q2284.52 302.968 2279.52 302.968 Q2277.44 302.968 2275.17 302.551 Q2272.92 302.157 2270.42 301.347 L2270.42 296.949 Q2272.79 298.176 2275.08 298.801 Q2277.37 299.403 2279.61 299.403 Q2282.62 299.403 2284.24 298.384 Q2285.86 297.343 2285.86 295.468 Q2285.86 293.732 2284.68 292.806 Q2283.53 291.88 2279.57 291.023 L2278.09 290.676 Q2274.13 289.843 2272.37 288.13 Q2270.61 286.394 2270.61 283.384 Q2270.61 279.727 2273.2 277.736 Q2275.79 275.746 2280.56 275.746 Q2282.92 275.746 2285.01 276.093 Q2287.09 276.44 2288.85 277.134 Z" fill="#000000" fill-rule="nonzero" fill-opacity="1" /><path clip-path="url(#clip310)" d="M2294.87 287.644 L2313.94 287.644 L2313.94 290.977 L2294.87 290.977 L2294.87 287.644 Z" fill="#000000" fill-rule="nonzero" fill-opacity="1" /><path clip-path="url(#clip310)" d="M2337.3 286.093 Q2338.8 286.602 2340.22 288.269 Q2341.65 289.935 2343.09 292.852 L2347.83 302.296 L2342.81 302.296 L2338.39 293.431 Q2336.67 289.958 2335.05 288.824 Q2333.46 287.69 2330.68 287.69 L2325.59 287.69 L2325.59 302.296 L2320.91 302.296 L2320.91 267.736 L2331.47 267.736 Q2337.39 267.736 2340.31 270.213 Q2343.23 272.69 2343.23 277.69 Q2343.23 280.954 2341.7 283.107 Q2340.19 285.259 2337.3 286.093 M2325.59 271.579 L2325.59 283.847 L2331.47 283.847 Q2334.85 283.847 2336.56 282.296 Q2338.29 280.722 2338.29 277.69 Q2338.29 274.658 2336.56 273.13 Q2334.85 271.579 2331.47 271.579 L2325.59 271.579 Z" fill="#000000" fill-rule="nonzero" fill-opacity="1" /><path clip-path="url(#clip310)" d="M2373.71 288.269 L2373.71 290.352 L2354.13 290.352 Q2354.41 294.75 2356.77 297.065 Q2359.15 299.356 2363.39 299.356 Q2365.84 299.356 2368.13 298.755 Q2370.45 298.153 2372.72 296.949 L2372.72 300.977 Q2370.42 301.949 2368.02 302.458 Q2365.61 302.968 2363.13 302.968 Q2356.93 302.968 2353.29 299.356 Q2349.68 295.745 2349.68 289.588 Q2349.68 283.222 2353.11 279.495 Q2356.56 275.746 2362.39 275.746 Q2367.62 275.746 2370.66 279.125 Q2373.71 282.482 2373.71 288.269 M2369.45 287.019 Q2369.41 283.523 2367.48 281.44 Q2365.59 279.357 2362.44 279.357 Q2358.87 279.357 2356.72 281.37 Q2354.59 283.384 2354.27 287.042 L2369.45 287.019 M2365.35 264.38 L2369.96 264.38 L2362.41 273.083 L2358.87 273.083 L2365.35 264.38 Z" fill="#000000" fill-rule="nonzero" fill-opacity="1" /><path clip-path="url(#clip310)" d="M2402.25 286.648 L2402.25 302.296 L2397.99 302.296 L2397.99 286.787 Q2397.99 283.107 2396.56 281.278 Q2395.12 279.449 2392.25 279.449 Q2388.8 279.449 2386.81 281.648 Q2384.82 283.847 2384.82 287.644 L2384.82 302.296 L2380.54 302.296 L2380.54 276.371 L2384.82 276.371 L2384.82 280.398 Q2386.35 278.06 2388.41 276.903 Q2390.49 275.746 2393.2 275.746 Q2397.67 275.746 2399.96 278.523 Q2402.25 281.278 2402.25 286.648 Z" fill="#000000" fill-rule="nonzero" fill-opacity="1" /><path clip-path="url(#clip310)" d="M2421.53 304.704 Q2419.73 309.333 2418.02 310.745 Q2416.3 312.157 2413.43 312.157 L2410.03 312.157 L2410.03 308.593 L2412.53 308.593 Q2414.29 308.593 2415.26 307.759 Q2416.23 306.926 2417.41 303.824 L2418.18 301.88 L2407.69 276.371 L2412.21 276.371 L2420.31 296.648 L2428.41 276.371 L2432.92 276.371 L2421.53 304.704 Z" fill="#000000" fill-rule="nonzero" fill-opacity="1" /><path clip-path="url(#clip310)" d="M2438.8 276.371 L2443.06 276.371 L2443.06 302.296 L2438.8 302.296 L2438.8 276.371 M2438.8 266.278 L2443.06 266.278 L2443.06 271.671 L2438.8 271.671 L2438.8 266.278 Z" fill="#000000" fill-rule="nonzero" fill-opacity="1" /><polyline clip-path="url(#clip310)" style="stroke:#800080; stroke-linecap:round; stroke-linejoin:round; stroke-width:8; stroke-opacity:1; fill:none" points="1975.85,336.856 2137.81,336.856 "/>
<path clip-path="url(#clip310)" d="M2169.48 337.632 L2169.48 350.294 L2176.98 350.294 Q2180.75 350.294 2182.55 348.743 Q2184.38 347.169 2184.38 343.951 Q2184.38 340.71 2182.55 339.183 Q2180.75 337.632 2176.98 337.632 L2169.48 337.632 M2169.48 323.419 L2169.48 333.835 L2176.4 333.835 Q2179.82 333.835 2181.49 332.562 Q2183.18 331.266 2183.18 328.627 Q2183.18 326.011 2181.49 324.715 Q2179.82 323.419 2176.4 323.419 L2169.48 323.419 M2164.8 319.576 L2176.74 319.576 Q2182.09 319.576 2184.99 321.798 Q2187.88 324.021 2187.88 328.118 Q2187.88 331.289 2186.4 333.164 Q2184.92 335.039 2182.05 335.502 Q2185.49 336.243 2187.39 338.604 Q2189.31 340.942 2189.31 344.46 Q2189.31 349.09 2186.17 351.613 Q2183.02 354.136 2177.21 354.136 L2164.8 354.136 L2164.8 319.576 Z" fill="#000000" fill-rule="nonzero" fill-opacity="1" /><path clip-path="url(#clip310)" d="M2208.92 341.104 Q2203.76 341.104 2201.77 342.284 Q2199.78 343.465 2199.78 346.312 Q2199.78 348.581 2201.26 349.923 Q2202.76 351.243 2205.33 351.243 Q2208.87 351.243 2211 348.743 Q2213.16 346.22 2213.16 342.053 L2213.16 341.104 L2208.92 341.104 M2217.42 339.345 L2217.42 354.136 L2213.16 354.136 L2213.16 350.201 Q2211.7 352.562 2209.52 353.696 Q2207.35 354.808 2204.2 354.808 Q2200.22 354.808 2197.86 352.585 Q2195.52 350.34 2195.52 346.59 Q2195.52 342.215 2198.43 339.993 Q2201.37 337.771 2207.18 337.771 L2213.16 337.771 L2213.16 337.354 Q2213.16 334.414 2211.21 332.817 Q2209.29 331.197 2205.8 331.197 Q2203.57 331.197 2201.47 331.729 Q2199.36 332.261 2197.42 333.326 L2197.42 329.391 Q2199.75 328.488 2201.95 328.048 Q2204.15 327.586 2206.24 327.586 Q2211.86 327.586 2214.64 330.502 Q2217.42 333.419 2217.42 339.345 Z" fill="#000000" fill-rule="nonzero" fill-opacity="1" /><path clip-path="url(#clip310)" d="M2241.21 332.192 Q2240.49 331.775 2239.64 331.59 Q2238.8 331.382 2237.79 331.382 Q2234.17 331.382 2232.23 333.743 Q2230.31 336.081 2230.31 340.479 L2230.31 354.136 L2226.03 354.136 L2226.03 328.211 L2230.31 328.211 L2230.31 332.238 Q2231.65 329.877 2233.8 328.743 Q2235.96 327.586 2239.04 327.586 Q2239.48 327.586 2240.01 327.655 Q2240.54 327.701 2241.19 327.817 L2241.21 332.192 Z" fill="#000000" fill-rule="nonzero" fill-opacity="1" /><path clip-path="url(#clip310)" d="M2257.46 341.104 Q2252.3 341.104 2250.31 342.284 Q2248.32 343.465 2248.32 346.312 Q2248.32 348.581 2249.8 349.923 Q2251.3 351.243 2253.87 351.243 Q2257.42 351.243 2259.55 348.743 Q2261.7 346.22 2261.7 342.053 L2261.7 341.104 L2257.46 341.104 M2265.96 339.345 L2265.96 354.136 L2261.7 354.136 L2261.7 350.201 Q2260.24 352.562 2258.06 353.696 Q2255.89 354.808 2252.74 354.808 Q2248.76 354.808 2246.4 352.585 Q2244.06 350.34 2244.06 346.59 Q2244.06 342.215 2246.98 339.993 Q2249.92 337.771 2255.73 337.771 L2261.7 337.771 L2261.7 337.354 Q2261.7 334.414 2259.75 332.817 Q2257.83 331.197 2254.34 331.197 Q2252.11 331.197 2250.01 331.729 Q2247.9 332.261 2245.96 333.326 L2245.96 329.391 Q2248.3 328.488 2250.49 328.048 Q2252.69 327.586 2254.78 327.586 Q2260.4 327.586 2263.18 330.502 Q2265.96 333.419 2265.96 339.345 Z" fill="#000000" fill-rule="nonzero" fill-opacity="1" /><path clip-path="url(#clip310)" d="M2293.34 341.197 Q2293.34 336.497 2291.4 333.835 Q2289.48 331.15 2286.1 331.15 Q2282.72 331.15 2280.77 333.835 Q2278.85 336.497 2278.85 341.197 Q2278.85 345.896 2280.77 348.581 Q2282.72 351.243 2286.1 351.243 Q2289.48 351.243 2291.4 348.581 Q2293.34 345.896 2293.34 341.197 M2278.85 332.146 Q2280.19 329.831 2282.23 328.72 Q2284.29 327.586 2287.14 327.586 Q2291.86 327.586 2294.8 331.335 Q2297.76 335.085 2297.76 341.197 Q2297.76 347.308 2294.8 351.058 Q2291.86 354.808 2287.14 354.808 Q2284.29 354.808 2282.23 353.696 Q2280.19 352.562 2278.85 350.247 L2278.85 354.136 L2274.57 354.136 L2274.57 318.118 L2278.85 318.118 L2278.85 332.146 Z" fill="#000000" fill-rule="nonzero" fill-opacity="1" /><path clip-path="url(#clip310)" d="M2316.6 341.104 Q2311.44 341.104 2309.45 342.284 Q2307.46 343.465 2307.46 346.312 Q2307.46 348.581 2308.94 349.923 Q2310.45 351.243 2313.02 351.243 Q2316.56 351.243 2318.69 348.743 Q2320.84 346.22 2320.84 342.053 L2320.84 341.104 L2316.6 341.104 M2325.1 339.345 L2325.1 354.136 L2320.84 354.136 L2320.84 350.201 Q2319.38 352.562 2317.21 353.696 Q2315.03 354.808 2311.88 354.808 Q2307.9 354.808 2305.54 352.585 Q2303.2 350.34 2303.2 346.59 Q2303.2 342.215 2306.12 339.993 Q2309.06 337.771 2314.87 337.771 L2320.84 337.771 L2320.84 337.354 Q2320.84 334.414 2318.9 332.817 Q2316.98 331.197 2313.48 331.197 Q2311.26 331.197 2309.15 331.729 Q2307.04 332.261 2305.1 333.326 L2305.1 329.391 Q2307.44 328.488 2309.64 328.048 Q2311.84 327.586 2313.92 327.586 Q2319.54 327.586 2322.32 330.502 Q2325.1 333.419 2325.1 339.345 M2317.32 316.22 L2321.93 316.22 L2314.38 324.923 L2310.84 324.923 L2317.32 316.22 Z" fill="#000000" fill-rule="nonzero" fill-opacity="1" /><path clip-path="url(#clip310)" d="M2350.4 328.974 L2350.4 333.002 Q2348.6 332.076 2346.65 331.613 Q2344.71 331.15 2342.62 331.15 Q2339.45 331.15 2337.85 332.123 Q2336.28 333.095 2336.28 335.039 Q2336.28 336.521 2337.41 337.377 Q2338.55 338.21 2341.98 338.974 L2343.43 339.298 Q2347.97 340.271 2349.87 342.053 Q2351.79 343.812 2351.79 346.984 Q2351.79 350.595 2348.92 352.701 Q2346.07 354.808 2341.07 354.808 Q2338.99 354.808 2336.72 354.391 Q2334.48 353.997 2331.98 353.187 L2331.98 348.789 Q2334.34 350.016 2336.63 350.641 Q2338.92 351.243 2341.16 351.243 Q2344.17 351.243 2345.79 350.224 Q2347.41 349.183 2347.41 347.308 Q2347.41 345.572 2346.23 344.646 Q2345.08 343.72 2341.12 342.863 L2339.64 342.516 Q2335.68 341.683 2333.92 339.97 Q2332.16 338.234 2332.16 335.224 Q2332.16 331.567 2334.75 329.576 Q2337.35 327.586 2342.11 327.586 Q2344.48 327.586 2346.56 327.933 Q2348.64 328.28 2350.4 328.974 Z" fill="#000000" fill-rule="nonzero" fill-opacity="1" /><path clip-path="url(#clip310)" d="M2358.57 328.211 L2362.83 328.211 L2362.83 354.136 L2358.57 354.136 L2358.57 328.211 M2358.57 318.118 L2362.83 318.118 L2362.83 323.511 L2358.57 323.511 L2358.57 318.118 Z" fill="#000000" fill-rule="nonzero" fill-opacity="1" /><path clip-path="url(#clip310)" d="M2369.59 339.484 L2388.66 339.484 L2388.66 342.817 L2369.59 342.817 L2369.59 339.484 Z" fill="#000000" fill-rule="nonzero" fill-opacity="1" /><path clip-path="url(#clip310)" d="M2407.18 324.183 L2400.84 341.382 L2413.55 341.382 L2407.18 324.183 M2404.54 319.576 L2409.85 319.576 L2423.02 354.136 L2418.16 354.136 L2415.01 345.271 L2399.43 345.271 L2396.28 354.136 L2391.35 354.136 L2404.54 319.576 Z" fill="#000000" fill-rule="nonzero" fill-opacity="1" /><path clip-path="url(#clip310)" d="M2427.88 318.118 L2432.14 318.118 L2432.14 354.136 L2427.88 354.136 L2427.88 318.118 Z" fill="#000000" fill-rule="nonzero" fill-opacity="1" /><path clip-path="url(#clip310)" d="M2459.66 341.197 Q2459.66 336.497 2457.72 333.835 Q2455.79 331.15 2452.41 331.15 Q2449.03 331.15 2447.09 333.835 Q2445.17 336.497 2445.17 341.197 Q2445.17 345.896 2447.09 348.581 Q2449.03 351.243 2452.41 351.243 Q2455.79 351.243 2457.72 348.581 Q2459.66 345.896 2459.66 341.197 M2445.17 332.146 Q2446.51 329.831 2448.55 328.72 Q2450.61 327.586 2453.46 327.586 Q2458.18 327.586 2461.12 331.335 Q2464.08 335.085 2464.08 341.197 Q2464.08 347.308 2461.12 351.058 Q2458.18 354.808 2453.46 354.808 Q2450.61 354.808 2448.55 353.696 Q2446.51 352.562 2445.17 350.247 L2445.17 354.136 L2440.89 354.136 L2440.89 318.118 L2445.17 318.118 L2445.17 332.146 Z" fill="#000000" fill-rule="nonzero" fill-opacity="1" /><path clip-path="url(#clip310)" d="M2493.32 340.109 L2493.32 342.192 L2473.73 342.192 Q2474.01 346.59 2476.37 348.905 Q2478.76 351.196 2482.99 351.196 Q2485.45 351.196 2487.74 350.595 Q2490.05 349.993 2492.32 348.789 L2492.32 352.817 Q2490.03 353.789 2487.62 354.298 Q2485.22 354.808 2482.74 354.808 Q2476.53 354.808 2472.9 351.196 Q2469.29 347.585 2469.29 341.428 Q2469.29 335.062 2472.72 331.335 Q2476.16 327.586 2482 327.586 Q2487.23 327.586 2490.26 330.965 Q2493.32 334.322 2493.32 340.109 M2489.06 338.859 Q2489.01 335.363 2487.09 333.28 Q2485.19 331.197 2482.04 331.197 Q2478.48 331.197 2476.33 333.21 Q2474.2 335.224 2473.87 338.882 L2489.06 338.859 Z" fill="#000000" fill-rule="nonzero" fill-opacity="1" /><path clip-path="url(#clip310)" d="M2515.33 332.192 Q2514.61 331.775 2513.76 331.59 Q2512.92 331.382 2511.9 331.382 Q2508.29 331.382 2506.35 333.743 Q2504.43 336.081 2504.43 340.479 L2504.43 354.136 L2500.15 354.136 L2500.15 328.211 L2504.43 328.211 L2504.43 332.238 Q2505.77 329.877 2507.92 328.743 Q2510.08 327.586 2513.15 327.586 Q2513.59 327.586 2514.13 327.655 Q2514.66 327.701 2515.31 327.817 L2515.33 332.192 Z" fill="#000000" fill-rule="nonzero" fill-opacity="1" /><path clip-path="url(#clip310)" d="M2524.01 320.849 L2524.01 328.211 L2532.78 328.211 L2532.78 331.521 L2524.01 331.521 L2524.01 345.595 Q2524.01 348.766 2524.87 349.669 Q2525.75 350.571 2528.41 350.571 L2532.78 350.571 L2532.78 354.136 L2528.41 354.136 Q2523.48 354.136 2521.6 352.308 Q2519.73 350.456 2519.73 345.595 L2519.73 331.521 L2516.6 331.521 L2516.6 328.211 L2519.73 328.211 L2519.73 320.849 L2524.01 320.849 Z" fill="#000000" fill-rule="nonzero" fill-opacity="1" /></svg>
