<?xml version="1.0" encoding="utf-8"?>
<svg xmlns="http://www.w3.org/2000/svg" xmlns:xlink="http://www.w3.org/1999/xlink" width="672" height="480" viewBox="0 0 2688 1920">
<defs>
  <clipPath id="clip600">
    <rect x="0" y="0" width="2688" height="1920"/>
  </clipPath>
</defs>
<path clip-path="url(#clip600)" d="M0 1920 L2688 1920 L2688 -4.26326e-14 L0 -4.26326e-14  Z" fill="#ffffff" fill-rule="evenodd" fill-opacity="1"/>
<defs>
  <clipPath id="clip601">
    <rect x="238" y="127" width="2403" height="1607"/>
  </clipPath>
</defs>
<path clip-path="url(#clip600)" d="M238.664 1734.12 L2640.76 1734.12 L2640.76 127.792 L238.664 127.792  Z" fill="#ffffff" fill-rule="evenodd" fill-opacity="1"/>
<polyline clip-path="url(#clip601)" style="stroke:#000000; stroke-linecap:round; stroke-linejoin:round; stroke-width:2; stroke-opacity:0.1; fill:none" points="306.647,1734.12 306.647,127.792 "/>
<polyline clip-path="url(#clip601)" style="stroke:#000000; stroke-linecap:round; stroke-linejoin:round; stroke-width:2; stroke-opacity:0.1; fill:none" points="873.179,1734.12 873.179,127.792 "/>
<polyline clip-path="url(#clip601)" style="stroke:#000000; stroke-linecap:round; stroke-linejoin:round; stroke-width:2; stroke-opacity:0.1; fill:none" points="1439.71,1734.12 1439.71,127.792 "/>
<polyline clip-path="url(#clip601)" style="stroke:#000000; stroke-linecap:round; stroke-linejoin:round; stroke-width:2; stroke-opacity:0.1; fill:none" points="2006.24,1734.12 2006.24,127.792 "/>
<polyline clip-path="url(#clip601)" style="stroke:#000000; stroke-linecap:round; stroke-linejoin:round; stroke-width:2; stroke-opacity:0.1; fill:none" points="2572.77,1734.12 2572.77,127.792 "/>
<polyline clip-path="url(#clip601)" style="stroke:#000000; stroke-linecap:round; stroke-linejoin:round; stroke-width:2; stroke-opacity:0.1; fill:none" points="238.664,1690.68 2640.76,1690.68 "/>
<polyline clip-path="url(#clip601)" style="stroke:#000000; stroke-linecap:round; stroke-linejoin:round; stroke-width:2; stroke-opacity:0.1; fill:none" points="238.664,1359.51 2640.76,1359.51 "/>
<polyline clip-path="url(#clip601)" style="stroke:#000000; stroke-linecap:round; stroke-linejoin:round; stroke-width:2; stroke-opacity:0.1; fill:none" points="238.664,1028.34 2640.76,1028.34 "/>
<polyline clip-path="url(#clip601)" style="stroke:#000000; stroke-linecap:round; stroke-linejoin:round; stroke-width:2; stroke-opacity:0.1; fill:none" points="238.664,697.177 2640.76,697.177 "/>
<polyline clip-path="url(#clip601)" style="stroke:#000000; stroke-linecap:round; stroke-linejoin:round; stroke-width:2; stroke-opacity:0.1; fill:none" points="238.664,366.009 2640.76,366.009 "/>
<polyline clip-path="url(#clip600)" style="stroke:#000000; stroke-linecap:round; stroke-linejoin:round; stroke-width:4; stroke-opacity:1; fill:none" points="238.664,1734.12 2640.76,1734.12 "/>
<polyline clip-path="url(#clip600)" style="stroke:#000000; stroke-linecap:round; stroke-linejoin:round; stroke-width:4; stroke-opacity:1; fill:none" points="306.647,1734.12 306.647,1715.22 "/>
<polyline clip-path="url(#clip600)" style="stroke:#000000; stroke-linecap:round; stroke-linejoin:round; stroke-width:4; stroke-opacity:1; fill:none" points="873.179,1734.12 873.179,1715.22 "/>
<polyline clip-path="url(#clip600)" style="stroke:#000000; stroke-linecap:round; stroke-linejoin:round; stroke-width:4; stroke-opacity:1; fill:none" points="1439.71,1734.12 1439.71,1715.22 "/>
<polyline clip-path="url(#clip600)" style="stroke:#000000; stroke-linecap:round; stroke-linejoin:round; stroke-width:4; stroke-opacity:1; fill:none" points="2006.24,1734.12 2006.24,1715.22 "/>
<polyline clip-path="url(#clip600)" style="stroke:#000000; stroke-linecap:round; stroke-linejoin:round; stroke-width:4; stroke-opacity:1; fill:none" points="2572.77,1734.12 2572.77,1715.22 "/>
<path clip-path="url(#clip600)" d="M306.647 1767.34 Q303.036 1767.34 301.208 1770.9 Q299.402 1774.45 299.402 1781.58 Q299.402 1788.68 301.208 1792.25 Q303.036 1795.79 306.647 1795.79 Q310.282 1795.79 312.087 1792.25 Q313.916 1788.68 313.916 1781.58 Q313.916 1774.45 312.087 1770.9 Q310.282 1767.34 306.647 1767.34 M306.647 1763.64 Q312.458 1763.64 315.513 1768.24 Q318.592 1772.83 318.592 1781.58 Q318.592 1790.3 315.513 1794.91 Q312.458 1799.49 306.647 1799.49 Q300.837 1799.49 297.759 1794.91 Q294.703 1790.3 294.703 1781.58 Q294.703 1772.83 297.759 1768.24 Q300.837 1763.64 306.647 1763.64 Z" fill="#000000" fill-rule="nonzero" fill-opacity="1" /><path clip-path="url(#clip600)" d="M851.952 1794.89 L868.271 1794.89 L868.271 1798.82 L846.327 1798.82 L846.327 1794.89 Q848.989 1792.13 853.572 1787.5 Q858.179 1782.85 859.359 1781.51 Q861.605 1778.98 862.484 1777.25 Q863.387 1775.49 863.387 1773.8 Q863.387 1771.04 861.443 1769.31 Q859.521 1767.57 856.419 1767.57 Q854.22 1767.57 851.767 1768.34 Q849.336 1769.1 846.558 1770.65 L846.558 1765.93 Q849.382 1764.79 851.836 1764.21 Q854.29 1763.64 856.327 1763.64 Q861.697 1763.64 864.892 1766.32 Q868.086 1769.01 868.086 1773.5 Q868.086 1775.63 867.276 1777.55 Q866.489 1779.45 864.382 1782.04 Q863.804 1782.71 860.702 1785.93 Q857.6 1789.12 851.952 1794.89 Z" fill="#000000" fill-rule="nonzero" fill-opacity="1" /><path clip-path="url(#clip600)" d="M888.086 1767.34 Q884.475 1767.34 882.646 1770.9 Q880.841 1774.45 880.841 1781.58 Q880.841 1788.68 882.646 1792.25 Q884.475 1795.79 888.086 1795.79 Q891.72 1795.79 893.526 1792.25 Q895.354 1788.68 895.354 1781.58 Q895.354 1774.45 893.526 1770.9 Q891.72 1767.34 888.086 1767.34 M888.086 1763.64 Q893.896 1763.64 896.952 1768.24 Q900.03 1772.83 900.03 1781.58 Q900.03 1790.3 896.952 1794.91 Q893.896 1799.49 888.086 1799.49 Q882.276 1799.49 879.197 1794.91 Q876.142 1790.3 876.142 1781.58 Q876.142 1772.83 879.197 1768.24 Q882.276 1763.64 888.086 1763.64 Z" fill="#000000" fill-rule="nonzero" fill-opacity="1" /><path clip-path="url(#clip600)" d="M1427.88 1768.34 L1416.08 1786.78 L1427.88 1786.78 L1427.88 1768.34 M1426.65 1764.26 L1432.53 1764.26 L1432.53 1786.78 L1437.46 1786.78 L1437.46 1790.67 L1432.53 1790.67 L1432.53 1798.82 L1427.88 1798.82 L1427.88 1790.67 L1412.28 1790.67 L1412.28 1786.16 L1426.65 1764.26 Z" fill="#000000" fill-rule="nonzero" fill-opacity="1" /><path clip-path="url(#clip600)" d="M1455.2 1767.34 Q1451.58 1767.34 1449.76 1770.9 Q1447.95 1774.45 1447.95 1781.58 Q1447.95 1788.68 1449.76 1792.25 Q1451.58 1795.79 1455.2 1795.79 Q1458.83 1795.79 1460.64 1792.25 Q1462.46 1788.68 1462.46 1781.58 Q1462.46 1774.45 1460.64 1770.9 Q1458.83 1767.34 1455.2 1767.34 M1455.2 1763.64 Q1461.01 1763.64 1464.06 1768.24 Q1467.14 1772.83 1467.14 1781.58 Q1467.14 1790.3 1464.06 1794.91 Q1461.01 1799.49 1455.2 1799.49 Q1449.39 1799.49 1446.31 1794.91 Q1443.25 1790.3 1443.25 1781.58 Q1443.25 1772.83 1446.31 1768.24 Q1449.39 1763.64 1455.2 1763.64 Z" fill="#000000" fill-rule="nonzero" fill-opacity="1" /><path clip-path="url(#clip600)" d="M1991.65 1779.68 Q1988.5 1779.68 1986.65 1781.83 Q1984.82 1783.98 1984.82 1787.73 Q1984.82 1791.46 1986.65 1793.64 Q1988.5 1795.79 1991.65 1795.79 Q1994.79 1795.79 1996.62 1793.64 Q1998.47 1791.46 1998.47 1787.73 Q1998.47 1783.98 1996.62 1781.83 Q1994.79 1779.68 1991.65 1779.68 M2000.93 1765.02 L2000.93 1769.28 Q1999.17 1768.45 1997.36 1768.01 Q1995.58 1767.57 1993.82 1767.57 Q1989.19 1767.57 1986.74 1770.7 Q1984.31 1773.82 1983.96 1780.14 Q1985.33 1778.13 1987.39 1777.06 Q1989.45 1775.97 1991.92 1775.97 Q1997.13 1775.97 2000.14 1779.15 Q2003.17 1782.29 2003.17 1787.73 Q2003.17 1793.06 2000.03 1796.27 Q1996.88 1799.49 1991.65 1799.49 Q1985.65 1799.49 1982.48 1794.91 Q1979.31 1790.3 1979.31 1781.58 Q1979.31 1773.38 1983.2 1768.52 Q1987.09 1763.64 1993.64 1763.64 Q1995.4 1763.64 1997.18 1763.98 Q1998.98 1764.33 2000.93 1765.02 Z" fill="#000000" fill-rule="nonzero" fill-opacity="1" /><path clip-path="url(#clip600)" d="M2021.23 1767.34 Q2017.62 1767.34 2015.79 1770.9 Q2013.98 1774.45 2013.98 1781.58 Q2013.98 1788.68 2015.79 1792.25 Q2017.62 1795.79 2021.23 1795.79 Q2024.86 1795.79 2026.67 1792.25 Q2028.5 1788.68 2028.5 1781.58 Q2028.5 1774.45 2026.67 1770.9 Q2024.86 1767.34 2021.23 1767.34 M2021.23 1763.64 Q2027.04 1763.64 2030.1 1768.24 Q2033.17 1772.83 2033.17 1781.58 Q2033.17 1790.3 2030.1 1794.91 Q2027.04 1799.49 2021.23 1799.49 Q2015.42 1799.49 2012.34 1794.91 Q2009.28 1790.3 2009.28 1781.58 Q2009.28 1772.83 2012.34 1768.24 Q2015.42 1763.64 2021.23 1763.64 Z" fill="#000000" fill-rule="nonzero" fill-opacity="1" /><path clip-path="url(#clip600)" d="M2557.64 1782.41 Q2554.31 1782.41 2552.39 1784.19 Q2550.49 1785.97 2550.49 1789.1 Q2550.49 1792.22 2552.39 1794.01 Q2554.31 1795.79 2557.64 1795.79 Q2560.98 1795.79 2562.9 1794.01 Q2564.82 1792.2 2564.82 1789.1 Q2564.82 1785.97 2562.9 1784.19 Q2561 1782.41 2557.64 1782.41 M2552.97 1780.42 Q2549.96 1779.68 2548.27 1777.62 Q2546.6 1775.56 2546.6 1772.59 Q2546.6 1768.45 2549.54 1766.04 Q2552.51 1763.64 2557.64 1763.64 Q2562.81 1763.64 2565.75 1766.04 Q2568.69 1768.45 2568.69 1772.59 Q2568.69 1775.56 2567 1777.62 Q2565.33 1779.68 2562.34 1780.42 Q2565.72 1781.21 2567.6 1783.5 Q2569.5 1785.79 2569.5 1789.1 Q2569.5 1794.12 2566.42 1796.81 Q2563.36 1799.49 2557.64 1799.49 Q2551.93 1799.49 2548.85 1796.81 Q2545.79 1794.12 2545.79 1789.1 Q2545.79 1785.79 2547.69 1783.5 Q2549.59 1781.21 2552.97 1780.42 M2551.26 1773.03 Q2551.26 1775.72 2552.92 1777.22 Q2554.61 1778.73 2557.64 1778.73 Q2560.65 1778.73 2562.34 1777.22 Q2564.06 1775.72 2564.06 1773.03 Q2564.06 1770.35 2562.34 1768.84 Q2560.65 1767.34 2557.64 1767.34 Q2554.61 1767.34 2552.92 1768.84 Q2551.26 1770.35 2551.26 1773.03 Z" fill="#000000" fill-rule="nonzero" fill-opacity="1" /><path clip-path="url(#clip600)" d="M2587.81 1767.34 Q2584.2 1767.34 2582.37 1770.9 Q2580.56 1774.45 2580.56 1781.58 Q2580.56 1788.68 2582.37 1792.25 Q2584.2 1795.79 2587.81 1795.79 Q2591.44 1795.79 2593.25 1792.25 Q2595.08 1788.68 2595.08 1781.58 Q2595.08 1774.45 2593.25 1770.9 Q2591.44 1767.34 2587.81 1767.34 M2587.81 1763.64 Q2593.62 1763.64 2596.67 1768.24 Q2599.75 1772.83 2599.75 1781.58 Q2599.75 1790.3 2596.67 1794.91 Q2593.62 1799.49 2587.81 1799.49 Q2582 1799.49 2578.92 1794.91 Q2575.86 1790.3 2575.86 1781.58 Q2575.86 1772.83 2578.92 1768.24 Q2582 1763.64 2587.81 1763.64 Z" fill="#000000" fill-rule="nonzero" fill-opacity="1" /><path clip-path="url(#clip600)" d="M1361.59 1835.78 L1401.79 1835.78 L1401.79 1841.19 L1384.92 1841.19 L1384.92 1883.3 L1378.46 1883.3 L1378.46 1841.19 L1361.59 1841.19 L1361.59 1835.78 Z" fill="#000000" fill-rule="nonzero" fill-opacity="1" /><path clip-path="url(#clip600)" d="M1405.73 1847.65 L1411.59 1847.65 L1411.59 1883.3 L1405.73 1883.3 L1405.73 1847.65 M1405.73 1833.78 L1411.59 1833.78 L1411.59 1841.19 L1405.73 1841.19 L1405.73 1833.78 Z" fill="#000000" fill-rule="nonzero" fill-opacity="1" /><path clip-path="url(#clip600)" d="M1451.6 1854.5 Q1453.79 1850.55 1456.85 1848.67 Q1459.9 1846.79 1464.04 1846.79 Q1469.61 1846.79 1472.64 1850.71 Q1475.66 1854.59 1475.66 1861.78 L1475.66 1883.3 L1469.77 1883.3 L1469.77 1861.98 Q1469.77 1856.85 1467.96 1854.37 Q1466.14 1851.89 1462.42 1851.89 Q1457.87 1851.89 1455.23 1854.91 Q1452.58 1857.93 1452.58 1863.15 L1452.58 1883.3 L1446.7 1883.3 L1446.7 1861.98 Q1446.7 1856.82 1444.88 1854.37 Q1443.07 1851.89 1439.28 1851.89 Q1434.79 1851.89 1432.15 1854.94 Q1429.51 1857.97 1429.51 1863.15 L1429.51 1883.3 L1423.62 1883.3 L1423.62 1847.65 L1429.51 1847.65 L1429.51 1853.19 Q1431.51 1849.91 1434.31 1848.35 Q1437.12 1846.79 1440.97 1846.79 Q1444.85 1846.79 1447.56 1848.77 Q1450.29 1850.74 1451.6 1854.5 Z" fill="#000000" fill-rule="nonzero" fill-opacity="1" /><path clip-path="url(#clip600)" d="M1517.83 1864.01 L1517.83 1866.88 L1490.91 1866.88 Q1491.29 1872.92 1494.53 1876.11 Q1497.81 1879.26 1503.64 1879.26 Q1507.01 1879.26 1510.16 1878.43 Q1513.35 1877.6 1516.46 1875.95 L1516.46 1881.49 Q1513.31 1882.82 1510 1883.52 Q1506.69 1884.22 1503.29 1884.22 Q1494.76 1884.22 1489.76 1879.26 Q1484.79 1874.29 1484.79 1865.83 Q1484.79 1857.07 1489.51 1851.95 Q1494.25 1846.79 1502.27 1846.79 Q1509.46 1846.79 1513.63 1851.44 Q1517.83 1856.06 1517.83 1864.01 M1511.98 1862.29 Q1511.91 1857.49 1509.27 1854.62 Q1506.66 1851.76 1502.33 1851.76 Q1497.43 1851.76 1494.47 1854.53 Q1491.54 1857.3 1491.1 1862.33 L1511.98 1862.29 Z" fill="#000000" fill-rule="nonzero" fill-opacity="1" /><polyline clip-path="url(#clip600)" style="stroke:#000000; stroke-linecap:round; stroke-linejoin:round; stroke-width:4; stroke-opacity:1; fill:none" points="238.664,1734.12 238.664,127.792 "/>
<polyline clip-path="url(#clip600)" style="stroke:#000000; stroke-linecap:round; stroke-linejoin:round; stroke-width:4; stroke-opacity:1; fill:none" points="238.664,1690.68 257.561,1690.68 "/>
<polyline clip-path="url(#clip600)" style="stroke:#000000; stroke-linecap:round; stroke-linejoin:round; stroke-width:4; stroke-opacity:1; fill:none" points="238.664,1359.51 257.561,1359.51 "/>
<polyline clip-path="url(#clip600)" style="stroke:#000000; stroke-linecap:round; stroke-linejoin:round; stroke-width:4; stroke-opacity:1; fill:none" points="238.664,1028.34 257.561,1028.34 "/>
<polyline clip-path="url(#clip600)" style="stroke:#000000; stroke-linecap:round; stroke-linejoin:round; stroke-width:4; stroke-opacity:1; fill:none" points="238.664,697.177 257.561,697.177 "/>
<polyline clip-path="url(#clip600)" style="stroke:#000000; stroke-linecap:round; stroke-linejoin:round; stroke-width:4; stroke-opacity:1; fill:none" points="238.664,366.009 257.561,366.009 "/>
<path clip-path="url(#clip600)" d="M186.399 1676.48 Q182.788 1676.48 180.959 1680.04 Q179.154 1683.59 179.154 1690.72 Q179.154 1697.82 180.959 1701.39 Q182.788 1704.93 186.399 1704.93 Q190.033 1704.93 191.839 1701.39 Q193.668 1697.82 193.668 1690.72 Q193.668 1683.59 191.839 1680.04 Q190.033 1676.48 186.399 1676.48 M186.399 1672.78 Q192.209 1672.78 195.265 1677.38 Q198.344 1681.97 198.344 1690.72 Q198.344 1699.44 195.265 1704.05 Q192.209 1708.63 186.399 1708.63 Q180.589 1708.63 177.51 1704.05 Q174.455 1699.44 174.455 1690.72 Q174.455 1681.97 177.51 1677.38 Q180.589 1672.78 186.399 1672.78 Z" fill="#000000" fill-rule="nonzero" fill-opacity="1" /><path clip-path="url(#clip600)" d="M151.261 1372.86 L167.58 1372.86 L167.58 1376.79 L145.636 1376.79 L145.636 1372.86 Q148.298 1370.1 152.881 1365.47 Q157.487 1360.82 158.668 1359.48 Q160.913 1356.95 161.793 1355.22 Q162.696 1353.46 162.696 1351.77 Q162.696 1349.01 160.751 1347.28 Q158.83 1345.54 155.728 1345.54 Q153.529 1345.54 151.075 1346.31 Q148.645 1347.07 145.867 1348.62 L145.867 1343.9 Q148.691 1342.76 151.145 1342.19 Q153.599 1341.61 155.636 1341.61 Q161.006 1341.61 164.2 1344.29 Q167.395 1346.98 167.395 1351.47 Q167.395 1353.6 166.585 1355.52 Q165.798 1357.42 163.691 1360.01 Q163.112 1360.68 160.011 1363.9 Q156.909 1367.09 151.261 1372.86 Z" fill="#000000" fill-rule="nonzero" fill-opacity="1" /><path clip-path="url(#clip600)" d="M177.441 1342.23 L195.797 1342.23 L195.797 1346.17 L181.723 1346.17 L181.723 1354.64 Q182.742 1354.29 183.76 1354.13 Q184.779 1353.95 185.797 1353.95 Q191.584 1353.95 194.964 1357.12 Q198.344 1360.29 198.344 1365.7 Q198.344 1371.28 194.871 1374.39 Q191.399 1377.46 185.08 1377.46 Q182.904 1377.46 180.635 1377.09 Q178.39 1376.72 175.983 1375.98 L175.983 1371.28 Q178.066 1372.42 180.288 1372.97 Q182.51 1373.53 184.987 1373.53 Q188.992 1373.53 191.33 1371.42 Q193.668 1369.32 193.668 1365.7 Q193.668 1362.09 191.33 1359.99 Q188.992 1357.88 184.987 1357.88 Q183.112 1357.88 181.237 1358.3 Q179.385 1358.71 177.441 1359.59 L177.441 1342.23 Z" fill="#000000" fill-rule="nonzero" fill-opacity="1" /><path clip-path="url(#clip600)" d="M146.284 1011.06 L164.64 1011.06 L164.64 1015 L150.566 1015 L150.566 1023.47 Q151.585 1023.12 152.603 1022.96 Q153.622 1022.78 154.64 1022.78 Q160.427 1022.78 163.807 1025.95 Q167.186 1029.12 167.186 1034.54 Q167.186 1040.12 163.714 1043.22 Q160.242 1046.3 153.923 1046.3 Q151.747 1046.3 149.478 1045.93 Q147.233 1045.56 144.825 1044.81 L144.825 1040.12 Q146.909 1041.25 149.131 1041.81 Q151.353 1042.36 153.83 1042.36 Q157.835 1042.36 160.173 1040.25 Q162.51 1038.15 162.51 1034.54 Q162.51 1030.93 160.173 1028.82 Q157.835 1026.71 153.83 1026.71 Q151.955 1026.71 150.08 1027.13 Q148.228 1027.55 146.284 1028.43 L146.284 1011.06 Z" fill="#000000" fill-rule="nonzero" fill-opacity="1" /><path clip-path="url(#clip600)" d="M186.399 1014.14 Q182.788 1014.14 180.959 1017.71 Q179.154 1021.25 179.154 1028.38 Q179.154 1035.49 180.959 1039.05 Q182.788 1042.59 186.399 1042.59 Q190.033 1042.59 191.839 1039.05 Q193.668 1035.49 193.668 1028.38 Q193.668 1021.25 191.839 1017.71 Q190.033 1014.14 186.399 1014.14 M186.399 1010.44 Q192.209 1010.44 195.265 1015.05 Q198.344 1019.63 198.344 1028.38 Q198.344 1037.11 195.265 1041.71 Q192.209 1046.3 186.399 1046.3 Q180.589 1046.3 177.51 1041.71 Q174.455 1037.11 174.455 1028.38 Q174.455 1019.63 177.51 1015.05 Q180.589 1010.44 186.399 1010.44 Z" fill="#000000" fill-rule="nonzero" fill-opacity="1" /><path clip-path="url(#clip600)" d="M146.052 679.897 L168.274 679.897 L168.274 681.888 L155.728 714.457 L150.844 714.457 L162.649 683.832 L146.052 683.832 L146.052 679.897 Z" fill="#000000" fill-rule="nonzero" fill-opacity="1" /><path clip-path="url(#clip600)" d="M177.441 679.897 L195.797 679.897 L195.797 683.832 L181.723 683.832 L181.723 692.304 Q182.742 691.957 183.76 691.795 Q184.779 691.61 185.797 691.61 Q191.584 691.61 194.964 694.781 Q198.344 697.953 198.344 703.369 Q198.344 708.948 194.871 712.05 Q191.399 715.128 185.08 715.128 Q182.904 715.128 180.635 714.758 Q178.39 714.388 175.983 713.647 L175.983 708.948 Q178.066 710.082 180.288 710.638 Q182.51 711.193 184.987 711.193 Q188.992 711.193 191.33 709.087 Q193.668 706.98 193.668 703.369 Q193.668 699.758 191.33 697.652 Q188.992 695.545 184.987 695.545 Q183.112 695.545 181.237 695.962 Q179.385 696.379 177.441 697.258 L177.441 679.897 Z" fill="#000000" fill-rule="nonzero" fill-opacity="1" /><path clip-path="url(#clip600)" d="M116.886 379.354 L124.525 379.354 L124.525 352.989 L116.214 354.655 L116.214 350.396 L124.478 348.729 L129.154 348.729 L129.154 379.354 L136.793 379.354 L136.793 383.289 L116.886 383.289 L116.886 379.354 Z" fill="#000000" fill-rule="nonzero" fill-opacity="1" /><path clip-path="url(#clip600)" d="M156.237 351.808 Q152.626 351.808 150.798 355.373 Q148.992 358.915 148.992 366.044 Q148.992 373.151 150.798 376.715 Q152.626 380.257 156.237 380.257 Q159.872 380.257 161.677 376.715 Q163.506 373.151 163.506 366.044 Q163.506 358.915 161.677 355.373 Q159.872 351.808 156.237 351.808 M156.237 348.104 Q162.048 348.104 165.103 352.711 Q168.182 357.294 168.182 366.044 Q168.182 374.771 165.103 379.377 Q162.048 383.961 156.237 383.961 Q150.427 383.961 147.349 379.377 Q144.293 374.771 144.293 366.044 Q144.293 357.294 147.349 352.711 Q150.427 348.104 156.237 348.104 Z" fill="#000000" fill-rule="nonzero" fill-opacity="1" /><path clip-path="url(#clip600)" d="M186.399 351.808 Q182.788 351.808 180.959 355.373 Q179.154 358.915 179.154 366.044 Q179.154 373.151 180.959 376.715 Q182.788 380.257 186.399 380.257 Q190.033 380.257 191.839 376.715 Q193.668 373.151 193.668 366.044 Q193.668 358.915 191.839 355.373 Q190.033 351.808 186.399 351.808 M186.399 348.104 Q192.209 348.104 195.265 352.711 Q198.344 357.294 198.344 366.044 Q198.344 374.771 195.265 379.377 Q192.209 383.961 186.399 383.961 Q180.589 383.961 177.51 379.377 Q174.455 374.771 174.455 366.044 Q174.455 357.294 177.51 352.711 Q180.589 348.104 186.399 348.104 Z" fill="#000000" fill-rule="nonzero" fill-opacity="1" /><path clip-path="url(#clip600)" d="M14.1184 1198.76 L14.1184 1190.1 L53.8723 1169.03 L14.1184 1169.03 L14.1184 1162.79 L61.6384 1162.79 L61.6384 1171.45 L21.8846 1192.52 L61.6384 1192.52 L61.6384 1198.76 L14.1184 1198.76 Z" fill="#000000" fill-rule="nonzero" fill-opacity="1" /><path clip-path="url(#clip600)" d="M47.5702 1150.86 L25.9905 1150.86 L25.9905 1145 L47.3474 1145 Q52.4082 1145 54.9545 1143.03 Q57.4689 1141.05 57.4689 1137.11 Q57.4689 1132.37 54.4452 1129.63 Q51.4215 1126.86 46.2016 1126.86 L25.9905 1126.86 L25.9905 1121 L61.6384 1121 L61.6384 1126.86 L56.1639 1126.86 Q59.4104 1128.99 61.0019 1131.82 Q62.5615 1134.63 62.5615 1138.35 Q62.5615 1144.49 58.742 1147.68 Q54.9226 1150.86 47.5702 1150.86 M25.1311 1136.12 L25.1311 1136.12 Z" fill="#000000" fill-rule="nonzero" fill-opacity="1" /><path clip-path="url(#clip600)" d="M32.8336 1081.19 Q28.8869 1078.99 27.009 1075.93 Q25.1311 1072.88 25.1311 1068.74 Q25.1311 1063.17 29.046 1060.15 Q32.9291 1057.12 40.1224 1057.12 L61.6384 1057.12 L61.6384 1063.01 L40.3133 1063.01 Q35.1889 1063.01 32.7063 1064.83 Q30.2237 1066.64 30.2237 1070.36 Q30.2237 1074.92 33.2474 1077.56 Q36.2711 1080.2 41.491 1080.2 L61.6384 1080.2 L61.6384 1086.09 L40.3133 1086.09 Q35.1571 1086.09 32.7063 1087.9 Q30.2237 1089.72 30.2237 1093.5 Q30.2237 1097.99 33.2792 1100.63 Q36.3029 1103.27 41.491 1103.27 L61.6384 1103.27 L61.6384 1109.16 L25.9905 1109.16 L25.9905 1103.27 L31.5287 1103.27 Q28.2503 1101.27 26.6907 1098.47 Q25.1311 1095.67 25.1311 1091.82 Q25.1311 1087.93 27.1045 1085.23 Q29.0779 1082.49 32.8336 1081.19 Z" fill="#000000" fill-rule="nonzero" fill-opacity="1" /><path clip-path="url(#clip600)" d="M43.8463 1019.85 Q37.3851 1019.85 33.7248 1022.53 Q30.0327 1025.17 30.0327 1029.81 Q30.0327 1034.46 33.7248 1037.13 Q37.3851 1039.78 43.8463 1039.78 Q50.3075 1039.78 53.9996 1037.13 Q57.6599 1034.46 57.6599 1029.81 Q57.6599 1025.17 53.9996 1022.53 Q50.3075 1019.85 43.8463 1019.85 M31.4013 1039.78 Q28.2185 1037.93 26.6907 1035.13 Q25.1311 1032.3 25.1311 1028.38 Q25.1311 1021.89 30.2873 1017.85 Q35.4436 1013.77 43.8463 1013.77 Q52.249 1013.77 57.4052 1017.85 Q62.5615 1021.89 62.5615 1028.38 Q62.5615 1032.3 61.0337 1035.13 Q59.4741 1037.93 56.2912 1039.78 L61.6384 1039.78 L61.6384 1045.66 L12.1132 1045.66 L12.1132 1039.78 L31.4013 1039.78 Z" fill="#000000" fill-rule="nonzero" fill-opacity="1" /><path clip-path="url(#clip600)" d="M42.3504 973.573 L45.2149 973.573 L45.2149 1000.5 Q51.2623 1000.12 54.4452 996.871 Q57.5962 993.593 57.5962 987.768 Q57.5962 984.395 56.7687 981.244 Q55.9411 978.061 54.2861 974.942 L59.8242 974.942 Q61.161 978.093 61.8612 981.403 Q62.5615 984.713 62.5615 988.119 Q62.5615 996.649 57.5962 1001.65 Q52.631 1006.61 44.1646 1006.61 Q35.4117 1006.61 30.2873 1001.9 Q25.1311 997.158 25.1311 989.137 Q25.1311 981.944 29.7781 977.774 Q34.3932 973.573 42.3504 973.573 M40.6316 979.429 Q35.8255 979.493 32.9609 982.135 Q30.0964 984.745 30.0964 989.073 Q30.0964 993.975 32.8654 996.935 Q35.6345 999.863 40.6634 1000.31 L40.6316 979.429 Z" fill="#000000" fill-rule="nonzero" fill-opacity="1" /><path clip-path="url(#clip600)" d="M31.465 943.304 Q30.8921 944.291 30.6375 945.468 Q30.351 946.614 30.351 948.015 Q30.351 952.98 33.5975 955.653 Q36.8122 958.295 42.8596 958.295 L61.6384 958.295 L61.6384 964.184 L25.9905 964.184 L25.9905 958.295 L31.5287 958.295 Q28.2821 956.449 26.7225 953.489 Q25.1311 950.529 25.1311 946.296 Q25.1311 945.691 25.2266 944.959 Q25.2903 944.227 25.4494 943.336 L31.465 943.304 Z" fill="#000000" fill-rule="nonzero" fill-opacity="1" /><path clip-path="url(#clip600)" d="M25.9905 916.441 L25.9905 910.584 L61.6384 910.584 L61.6384 916.441 L25.9905 916.441 M12.1132 916.441 L12.1132 910.584 L19.5293 910.584 L19.5293 916.441 L12.1132 916.441 Z" fill="#000000" fill-rule="nonzero" fill-opacity="1" /><path clip-path="url(#clip600)" d="M40.1224 868.698 L61.6384 868.698 L61.6384 874.554 L40.3133 874.554 Q35.2526 874.554 32.7381 876.528 Q30.2237 878.501 30.2237 882.448 Q30.2237 887.19 33.2474 889.928 Q36.2711 892.665 41.491 892.665 L61.6384 892.665 L61.6384 898.553 L25.9905 898.553 L25.9905 892.665 L31.5287 892.665 Q28.314 890.564 26.7225 887.731 Q25.1311 884.867 25.1311 881.143 Q25.1311 875 28.9505 871.849 Q32.7381 868.698 40.1224 868.698 Z" fill="#000000" fill-rule="nonzero" fill-opacity="1" /><path clip-path="url(#clip600)" d="M12.1132 838.97 L16.983 838.97 L16.983 844.572 Q16.983 847.723 18.2562 848.964 Q19.5293 850.174 22.8395 850.174 L25.9905 850.174 L25.9905 840.53 L30.542 840.53 L30.542 850.174 L61.6384 850.174 L61.6384 856.062 L30.542 856.062 L30.542 861.664 L25.9905 861.664 L25.9905 856.062 L23.5079 856.062 Q17.5559 856.062 14.8505 853.293 Q12.1132 850.524 12.1132 844.508 L12.1132 838.97 Z" fill="#000000" fill-rule="nonzero" fill-opacity="1" /><path clip-path="url(#clip600)" d="M42.3504 803.577 L45.2149 803.577 L45.2149 830.504 Q51.2623 830.122 54.4452 826.875 Q57.5962 823.597 57.5962 817.772 Q57.5962 814.398 56.7687 811.247 Q55.9411 808.065 54.2861 804.945 L59.8242 804.945 Q61.161 808.096 61.8612 811.407 Q62.5615 814.717 62.5615 818.122 Q62.5615 826.652 57.5962 831.65 Q52.631 836.615 44.1646 836.615 Q35.4117 836.615 30.2873 831.904 Q25.1311 827.162 25.1311 819.141 Q25.1311 811.948 29.7781 807.778 Q34.3932 803.577 42.3504 803.577 M40.6316 809.433 Q35.8255 809.497 32.9609 812.139 Q30.0964 814.749 30.0964 819.077 Q30.0964 823.979 32.8654 826.939 Q35.6345 829.867 40.6634 830.313 L40.6316 809.433 Z" fill="#000000" fill-rule="nonzero" fill-opacity="1" /><path clip-path="url(#clip600)" d="M27.3591 768.311 L32.8336 768.311 Q31.465 770.793 30.7966 773.308 Q30.0964 775.79 30.0964 778.337 Q30.0964 784.034 33.7248 787.185 Q37.3214 790.336 43.8463 790.336 Q50.3711 790.336 53.9996 787.185 Q57.5962 784.034 57.5962 778.337 Q57.5962 775.79 56.9278 773.308 Q56.2276 770.793 54.859 768.311 L60.2698 768.311 Q61.4156 770.762 61.9886 773.403 Q62.5615 776.013 62.5615 778.973 Q62.5615 787.026 57.5007 791.768 Q52.44 796.511 43.8463 796.511 Q35.1253 796.511 30.1282 791.737 Q25.1311 786.93 25.1311 778.591 Q25.1311 775.886 25.704 773.308 Q26.2451 770.73 27.3591 768.311 Z" fill="#000000" fill-rule="nonzero" fill-opacity="1" /><path clip-path="url(#clip600)" d="M15.869 752.333 L25.9905 752.333 L25.9905 740.27 L30.542 740.27 L30.542 752.333 L49.8937 752.333 Q54.2542 752.333 55.4955 751.155 Q56.7368 749.946 56.7368 746.285 L56.7368 740.27 L61.6384 740.27 L61.6384 746.285 Q61.6384 753.065 59.124 755.643 Q56.5777 758.221 49.8937 758.221 L30.542 758.221 L30.542 762.518 L25.9905 762.518 L25.9905 758.221 L15.869 758.221 L15.869 752.333 Z" fill="#000000" fill-rule="nonzero" fill-opacity="1" /><path clip-path="url(#clip600)" d="M42.3504 702.076 L45.2149 702.076 L45.2149 729.003 Q51.2623 728.621 54.4452 725.374 Q57.5962 722.096 57.5962 716.271 Q57.5962 712.897 56.7687 709.746 Q55.9411 706.563 54.2861 703.444 L59.8242 703.444 Q61.161 706.595 61.8612 709.905 Q62.5615 713.216 62.5615 716.621 Q62.5615 725.151 57.5962 730.148 Q52.631 735.114 44.1646 735.114 Q35.4117 735.114 30.2873 730.403 Q25.1311 725.661 25.1311 717.64 Q25.1311 710.446 29.7781 706.277 Q34.3932 702.076 42.3504 702.076 M40.6316 707.932 Q35.8255 707.996 32.9609 710.637 Q30.0964 713.247 30.0964 717.576 Q30.0964 722.478 32.8654 725.438 Q35.6345 728.366 40.6634 728.812 L40.6316 707.932 Z" fill="#000000" fill-rule="nonzero" fill-opacity="1" /><path clip-path="url(#clip600)" d="M31.4013 669.006 L12.1132 669.006 L12.1132 663.149 L61.6384 663.149 L61.6384 669.006 L56.2912 669.006 Q59.4741 670.852 61.0337 673.685 Q62.5615 676.485 62.5615 680.432 Q62.5615 686.893 57.4052 690.967 Q52.249 695.01 43.8463 695.01 Q35.4436 695.01 30.2873 690.967 Q25.1311 686.893 25.1311 680.432 Q25.1311 676.485 26.6907 673.685 Q28.2185 670.852 31.4013 669.006 M43.8463 688.962 Q50.3075 688.962 53.9996 686.32 Q57.6599 683.647 57.6599 679 Q57.6599 674.353 53.9996 671.679 Q50.3075 669.006 43.8463 669.006 Q37.3851 669.006 33.7248 671.679 Q30.0327 674.353 30.0327 679 Q30.0327 683.647 33.7248 686.32 Q37.3851 688.962 43.8463 688.962 Z" fill="#000000" fill-rule="nonzero" fill-opacity="1" /><path clip-path="url(#clip600)" d="M577.07 18.8205 L577.07 41.5461 L587.359 41.5461 Q593.071 41.5461 596.19 38.5889 Q599.309 35.6318 599.309 30.163 Q599.309 24.7348 596.19 21.7777 Q593.071 18.8205 587.359 18.8205 L577.07 18.8205 M568.887 12.096 L587.359 12.096 Q597.527 12.096 602.712 16.714 Q607.938 21.2916 607.938 30.163 Q607.938 39.1155 602.712 43.6931 Q597.527 48.2706 587.359 48.2706 L577.07 48.2706 L577.07 72.576 L568.887 72.576 L568.887 12.096 Z" fill="#000000" fill-rule="nonzero" fill-opacity="1" /><path clip-path="url(#clip600)" d="M635.484 49.7694 Q626.45 49.7694 622.966 51.8354 Q619.483 53.9013 619.483 58.8839 Q619.483 62.8538 622.075 65.2034 Q624.708 67.5124 629.205 67.5124 Q635.403 67.5124 639.13 63.1374 Q642.897 58.7219 642.897 51.4303 L642.897 49.7694 L635.484 49.7694 M650.351 46.6907 L650.351 72.576 L642.897 72.576 L642.897 65.6895 Q640.345 69.8214 636.537 71.8063 Q632.729 73.7508 627.22 73.7508 Q620.252 73.7508 616.12 69.8619 Q612.029 65.9325 612.029 59.3701 Q612.029 51.7138 617.133 47.825 Q622.278 43.9361 632.446 43.9361 L642.897 43.9361 L642.897 43.2069 Q642.897 38.0623 639.494 35.2672 Q636.132 32.4315 630.015 32.4315 Q626.126 32.4315 622.44 33.3632 Q618.754 34.295 615.351 36.1584 L615.351 29.2718 Q619.442 27.692 623.291 26.9223 Q627.139 26.1121 630.785 26.1121 Q640.628 26.1121 645.489 31.2163 Q650.351 36.3204 650.351 46.6907 Z" fill="#000000" fill-rule="nonzero" fill-opacity="1" /><path clip-path="url(#clip600)" d="M665.703 27.2059 L673.157 27.2059 L673.157 72.576 L665.703 72.576 L665.703 27.2059 M665.703 9.54393 L673.157 9.54393 L673.157 18.9825 L665.703 18.9825 L665.703 9.54393 Z" fill="#000000" fill-rule="nonzero" fill-opacity="1" /><path clip-path="url(#clip600)" d="M715.044 34.1734 Q713.788 33.4443 712.289 33.1202 Q710.831 32.7556 709.048 32.7556 Q702.729 32.7556 699.326 36.8875 Q695.964 40.9789 695.964 48.6757 L695.964 72.576 L688.47 72.576 L688.47 27.2059 L695.964 27.2059 L695.964 34.2544 Q698.313 30.1225 702.081 28.1376 Q705.848 26.1121 711.236 26.1121 Q712.005 26.1121 712.937 26.2337 Q713.869 26.3147 715.003 26.5172 L715.044 34.1734 Z" fill="#000000" fill-rule="nonzero" fill-opacity="1" /><path clip-path="url(#clip600)" d="M713.788 46.5287 L735.622 46.5287 L735.622 53.1722 L713.788 53.1722 L713.788 46.5287 Z" fill="#000000" fill-rule="nonzero" fill-opacity="1" /><path clip-path="url(#clip600)" d="M780.061 49.9314 Q780.061 41.7081 776.658 37.0496 Q773.296 32.3505 767.381 32.3505 Q761.467 32.3505 758.064 37.0496 Q754.702 41.7081 754.702 49.9314 Q754.702 58.1548 758.064 62.8538 Q761.467 67.5124 767.381 67.5124 Q773.296 67.5124 776.658 62.8538 Q780.061 58.1548 780.061 49.9314 M754.702 34.0924 Q757.051 30.0415 760.616 28.0971 Q764.221 26.1121 769.204 26.1121 Q777.468 26.1121 782.613 32.6746 Q787.798 39.2371 787.798 49.9314 Q787.798 60.6258 782.613 67.1883 Q777.468 73.7508 769.204 73.7508 Q764.221 73.7508 760.616 71.8063 Q757.051 69.8214 754.702 65.7705 L754.702 72.576 L747.208 72.576 L747.208 9.54393 L754.702 9.54393 L754.702 34.0924 Z" fill="#000000" fill-rule="nonzero" fill-opacity="1" /><path clip-path="url(#clip600)" d="M820.772 49.7694 Q811.739 49.7694 808.255 51.8354 Q804.771 53.9013 804.771 58.8839 Q804.771 62.8538 807.364 65.2034 Q809.997 67.5124 814.493 67.5124 Q820.691 67.5124 824.418 63.1374 Q828.185 58.7219 828.185 51.4303 L828.185 49.7694 L820.772 49.7694 M835.639 46.6907 L835.639 72.576 L828.185 72.576 L828.185 65.6895 Q825.633 69.8214 821.825 71.8063 Q818.017 73.7508 812.508 73.7508 Q805.541 73.7508 801.409 69.8619 Q797.317 65.9325 797.317 59.3701 Q797.317 51.7138 802.422 47.825 Q807.566 43.9361 817.734 43.9361 L828.185 43.9361 L828.185 43.2069 Q828.185 38.0623 824.783 35.2672 Q821.42 32.4315 815.303 32.4315 Q811.415 32.4315 807.728 33.3632 Q804.042 34.295 800.639 36.1584 L800.639 29.2718 Q804.731 27.692 808.579 26.9223 Q812.427 26.1121 816.073 26.1121 Q825.917 26.1121 830.778 31.2163 Q835.639 36.3204 835.639 46.6907 Z" fill="#000000" fill-rule="nonzero" fill-opacity="1" /><path clip-path="url(#clip600)" d="M879.915 28.5427 L879.915 35.5912 Q876.756 33.9709 873.353 33.1607 Q869.95 32.3505 866.304 32.3505 Q860.755 32.3505 857.959 34.0519 Q855.205 35.7533 855.205 39.156 Q855.205 41.7486 857.19 43.2475 Q859.175 44.7058 865.17 46.0426 L867.722 46.6097 Q875.662 48.3111 878.984 51.4303 Q882.346 54.509 882.346 60.0587 Q882.346 66.3781 877.323 70.0644 Q872.34 73.7508 863.59 73.7508 Q859.944 73.7508 855.974 73.0216 Q852.045 72.3329 847.67 70.9151 L847.67 63.2184 Q851.802 65.3654 855.812 66.4591 Q859.823 67.5124 863.752 67.5124 Q869.018 67.5124 871.854 65.73 Q874.69 63.9071 874.69 60.6258 Q874.69 57.5877 872.624 55.9673 Q870.598 54.3469 863.671 52.8481 L861.079 52.2405 Q854.152 50.7821 851.073 47.7845 Q847.994 44.7463 847.994 39.4801 Q847.994 33.0797 852.531 29.5959 Q857.068 26.1121 865.413 26.1121 Q869.545 26.1121 873.191 26.7198 Q876.837 27.3274 879.915 28.5427 Z" fill="#000000" fill-rule="nonzero" fill-opacity="1" /><path clip-path="url(#clip600)" d="M933.023 48.0275 L933.023 51.6733 L898.752 51.6733 Q899.238 59.3701 903.37 63.421 Q907.542 67.4314 914.956 67.4314 Q919.25 67.4314 923.26 66.3781 Q927.311 65.3249 931.281 63.2184 L931.281 70.267 Q927.27 71.9684 923.057 72.8596 Q918.845 73.7508 914.51 73.7508 Q903.654 73.7508 897.294 67.4314 Q890.974 61.1119 890.974 50.3365 Q890.974 39.1965 896.97 32.6746 Q903.005 26.1121 913.214 26.1121 Q922.369 26.1121 927.675 32.0264 Q933.023 37.9003 933.023 48.0275 M925.569 45.84 Q925.488 39.7232 922.126 36.0774 Q918.804 32.4315 913.295 32.4315 Q907.056 32.4315 903.289 35.9558 Q899.562 39.4801 898.995 45.8805 L925.569 45.84 Z" fill="#000000" fill-rule="nonzero" fill-opacity="1" /><path clip-path="url(#clip600)" d="M975.112 34.0924 L975.112 9.54393 L982.565 9.54393 L982.565 72.576 L975.112 72.576 L975.112 65.7705 Q972.762 69.8214 969.157 71.8063 Q965.592 73.7508 960.569 73.7508 Q952.345 73.7508 947.16 67.1883 Q942.016 60.6258 942.016 49.9314 Q942.016 39.2371 947.16 32.6746 Q952.345 26.1121 960.569 26.1121 Q965.592 26.1121 969.157 28.0971 Q972.762 30.0415 975.112 34.0924 M949.712 49.9314 Q949.712 58.1548 953.075 62.8538 Q956.477 67.5124 962.392 67.5124 Q968.306 67.5124 971.709 62.8538 Q975.112 58.1548 975.112 49.9314 Q975.112 41.7081 971.709 37.0496 Q968.306 32.3505 962.392 32.3505 Q956.477 32.3505 953.075 37.0496 Q949.712 41.7081 949.712 49.9314 Z" fill="#000000" fill-rule="nonzero" fill-opacity="1" /><path clip-path="url(#clip600)" d="M1060.87 14.0809 L1060.87 22.0612 Q1056.21 19.8332 1052.08 18.7395 Q1047.95 17.6457 1044.1 17.6457 Q1037.41 17.6457 1033.77 20.2383 Q1030.16 22.8309 1030.16 27.611 Q1030.16 31.6214 1032.55 33.6873 Q1034.98 35.7128 1041.71 36.9686 L1046.65 37.9813 Q1055.81 39.7232 1060.14 44.1387 Q1064.52 48.5136 1064.52 55.8863 Q1064.52 64.6767 1058.6 69.2137 Q1052.73 73.7508 1041.34 73.7508 Q1037.05 73.7508 1032.19 72.7785 Q1027.37 71.8063 1022.18 69.9024 L1022.18 61.4765 Q1027.17 64.2716 1031.95 65.6895 Q1036.73 67.1073 1041.34 67.1073 Q1048.35 67.1073 1052.16 64.3527 Q1055.97 61.598 1055.97 56.4939 Q1055.97 52.0379 1053.21 49.5264 Q1050.5 47.0148 1044.26 45.759 L1039.28 44.7868 Q1030.12 42.9639 1026.03 39.075 Q1021.94 35.1862 1021.94 28.2591 Q1021.94 20.2383 1027.57 15.6203 Q1033.24 11.0023 1043.17 11.0023 Q1047.42 11.0023 1051.84 11.7719 Q1056.25 12.5416 1060.87 14.0809 Z" fill="#000000" fill-rule="nonzero" fill-opacity="1" /><path clip-path="url(#clip600)" d="M1077.28 12.096 L1085.46 12.096 L1085.46 72.576 L1077.28 72.576 L1077.28 12.096 Z" fill="#000000" fill-rule="nonzero" fill-opacity="1" /><path clip-path="url(#clip600)" d="M1130.42 44.2197 Q1133.06 45.1109 1135.53 48.0275 Q1138.04 50.9442 1140.55 56.0483 L1148.85 72.576 L1140.06 72.576 L1132.33 57.061 Q1129.33 50.9847 1126.49 48.9997 Q1123.7 47.0148 1118.84 47.0148 L1109.93 47.0148 L1109.93 72.576 L1101.74 72.576 L1101.74 12.096 L1120.21 12.096 Q1130.59 12.096 1135.69 16.4305 Q1140.79 20.7649 1140.79 29.5149 Q1140.79 35.2267 1138.12 38.994 Q1135.49 42.7613 1130.42 44.2197 M1109.93 18.8205 L1109.93 40.2903 L1120.21 40.2903 Q1126.13 40.2903 1129.13 37.5762 Q1132.17 34.8216 1132.17 29.5149 Q1132.17 24.2082 1129.13 21.5346 Q1126.13 18.8205 1120.21 18.8205 L1109.93 18.8205 Z" fill="#000000" fill-rule="nonzero" fill-opacity="1" /><path clip-path="url(#clip600)" d="M1158.41 62.2867 L1166.96 62.2867 L1166.96 72.576 L1158.41 72.576 L1158.41 62.2867 M1158.41 29.6769 L1166.96 29.6769 L1166.96 39.9662 L1158.41 39.9662 L1158.41 29.6769 Z" fill="#000000" fill-rule="nonzero" fill-opacity="1" /><path clip-path="url(#clip600)" d="M1249.64 48.0275 L1249.64 51.6733 L1215.37 51.6733 Q1215.86 59.3701 1219.99 63.421 Q1224.16 67.4314 1231.57 67.4314 Q1235.87 67.4314 1239.88 66.3781 Q1243.93 65.3249 1247.9 63.2184 L1247.9 70.267 Q1243.89 71.9684 1239.68 72.8596 Q1235.46 73.7508 1231.13 73.7508 Q1220.27 73.7508 1213.91 67.4314 Q1207.59 61.1119 1207.59 50.3365 Q1207.59 39.1965 1213.59 32.6746 Q1219.62 26.1121 1229.83 26.1121 Q1238.99 26.1121 1244.29 32.0264 Q1249.64 37.9003 1249.64 48.0275 M1242.19 45.84 Q1242.11 39.7232 1238.74 36.0774 Q1235.42 32.4315 1229.91 32.4315 Q1223.68 32.4315 1219.91 35.9558 Q1216.18 39.4801 1215.61 45.8805 L1242.19 45.84 Z" fill="#000000" fill-rule="nonzero" fill-opacity="1" /><path clip-path="url(#clip600)" d="M1284.84 9.54393 L1284.84 15.7418 L1277.71 15.7418 Q1273.7 15.7418 1272.12 17.3622 Q1270.58 18.9825 1270.58 23.1955 L1270.58 27.2059 L1282.86 27.2059 L1282.86 32.9987 L1270.58 32.9987 L1270.58 72.576 L1263.09 72.576 L1263.09 32.9987 L1255.96 32.9987 L1255.96 27.2059 L1263.09 27.2059 L1263.09 24.0462 Q1263.09 16.471 1266.61 13.0277 Q1270.14 9.54393 1277.8 9.54393 L1284.84 9.54393 Z" fill="#000000" fill-rule="nonzero" fill-opacity="1" /><path clip-path="url(#clip600)" d="M1314.05 9.54393 L1314.05 15.7418 L1306.92 15.7418 Q1302.91 15.7418 1301.33 17.3622 Q1299.79 18.9825 1299.79 23.1955 L1299.79 27.2059 L1312.07 27.2059 L1312.07 32.9987 L1299.79 32.9987 L1299.79 72.576 L1292.3 72.576 L1292.3 32.9987 L1285.17 32.9987 L1285.17 27.2059 L1292.3 27.2059 L1292.3 24.0462 Q1292.3 16.471 1295.82 13.0277 Q1299.35 9.54393 1307 9.54393 L1314.05 9.54393 Z" fill="#000000" fill-rule="nonzero" fill-opacity="1" /><path clip-path="url(#clip600)" d="M1359.1 48.0275 L1359.1 51.6733 L1324.83 51.6733 Q1325.31 59.3701 1329.44 63.421 Q1333.62 67.4314 1341.03 67.4314 Q1345.32 67.4314 1349.33 66.3781 Q1353.39 65.3249 1357.35 63.2184 L1357.35 70.267 Q1353.34 71.9684 1349.13 72.8596 Q1344.92 73.7508 1340.58 73.7508 Q1329.73 73.7508 1323.37 67.4314 Q1317.05 61.1119 1317.05 50.3365 Q1317.05 39.1965 1323.04 32.6746 Q1329.08 26.1121 1339.29 26.1121 Q1348.44 26.1121 1353.75 32.0264 Q1359.1 37.9003 1359.1 48.0275 M1351.64 45.84 Q1351.56 39.7232 1348.2 36.0774 Q1344.88 32.4315 1339.37 32.4315 Q1333.13 32.4315 1329.36 35.9558 Q1325.64 39.4801 1325.07 45.8805 L1351.64 45.84 Z" fill="#000000" fill-rule="nonzero" fill-opacity="1" /><path clip-path="url(#clip600)" d="M1403.98 28.9478 L1403.98 35.9153 Q1400.82 34.1734 1397.62 33.3227 Q1394.46 32.4315 1391.22 32.4315 Q1383.97 32.4315 1379.96 37.0496 Q1375.95 41.6271 1375.95 49.9314 Q1375.95 58.2358 1379.96 62.8538 Q1383.97 67.4314 1391.22 67.4314 Q1394.46 67.4314 1397.62 66.5807 Q1400.82 65.6895 1403.98 63.9476 L1403.98 70.8341 Q1400.86 72.2924 1397.5 73.0216 Q1394.18 73.7508 1390.41 73.7508 Q1380.16 73.7508 1374.13 67.3098 Q1368.09 60.8689 1368.09 49.9314 Q1368.09 38.832 1374.17 32.472 Q1380.28 26.1121 1390.9 26.1121 Q1394.34 26.1121 1397.62 26.8413 Q1400.9 27.5299 1403.98 28.9478 Z" fill="#000000" fill-rule="nonzero" fill-opacity="1" /><path clip-path="url(#clip600)" d="M1424.32 14.324 L1424.32 27.2059 L1439.67 27.2059 L1439.67 32.9987 L1424.32 32.9987 L1424.32 57.6282 Q1424.32 63.1779 1425.82 64.7578 Q1427.35 66.3376 1432.01 66.3376 L1439.67 66.3376 L1439.67 72.576 L1432.01 72.576 Q1423.38 72.576 1420.1 69.3758 Q1416.82 66.1351 1416.82 57.6282 L1416.82 32.9987 L1411.35 32.9987 L1411.35 27.2059 L1416.82 27.2059 L1416.82 14.324 L1424.32 14.324 Z" fill="#000000" fill-rule="nonzero" fill-opacity="1" /><path clip-path="url(#clip600)" d="M1493.42 32.4315 Q1487.43 32.4315 1483.95 37.1306 Q1480.46 41.7891 1480.46 49.9314 Q1480.46 58.0738 1483.91 62.7728 Q1487.39 67.4314 1493.42 67.4314 Q1499.38 67.4314 1502.86 62.7323 Q1506.35 58.0333 1506.35 49.9314 Q1506.35 41.8701 1502.86 37.1711 Q1499.38 32.4315 1493.42 32.4315 M1493.42 26.1121 Q1503.15 26.1121 1508.7 32.4315 Q1514.25 38.7509 1514.25 49.9314 Q1514.25 61.0714 1508.7 67.4314 Q1503.15 73.7508 1493.42 73.7508 Q1483.66 73.7508 1478.11 67.4314 Q1472.6 61.0714 1472.6 49.9314 Q1472.6 38.7509 1478.11 32.4315 Q1483.66 26.1121 1493.42 26.1121 Z" fill="#000000" fill-rule="nonzero" fill-opacity="1" /><path clip-path="url(#clip600)" d="M1549.57 9.54393 L1549.57 15.7418 L1542.44 15.7418 Q1538.43 15.7418 1536.85 17.3622 Q1535.31 18.9825 1535.31 23.1955 L1535.31 27.2059 L1547.59 27.2059 L1547.59 32.9987 L1535.31 32.9987 L1535.31 72.576 L1527.82 72.576 L1527.82 32.9987 L1520.69 32.9987 L1520.69 27.2059 L1527.82 27.2059 L1527.82 24.0462 Q1527.82 16.471 1531.34 13.0277 Q1534.87 9.54393 1542.52 9.54393 L1549.57 9.54393 Z" fill="#000000" fill-rule="nonzero" fill-opacity="1" /><path clip-path="url(#clip600)" d="M1589.55 14.324 L1589.55 27.2059 L1604.91 27.2059 L1604.91 32.9987 L1589.55 32.9987 L1589.55 57.6282 Q1589.55 63.1779 1591.05 64.7578 Q1592.59 66.3376 1597.25 66.3376 L1604.91 66.3376 L1604.91 72.576 L1597.25 72.576 Q1588.62 72.576 1585.34 69.3758 Q1582.06 66.1351 1582.06 57.6282 L1582.06 32.9987 L1576.59 32.9987 L1576.59 27.2059 L1582.06 27.2059 L1582.06 14.324 L1589.55 14.324 Z" fill="#000000" fill-rule="nonzero" fill-opacity="1" /><path clip-path="url(#clip600)" d="M1632.29 32.4315 Q1626.29 32.4315 1622.81 37.1306 Q1619.33 41.7891 1619.33 49.9314 Q1619.33 58.0738 1622.77 62.7728 Q1626.25 67.4314 1632.29 67.4314 Q1638.24 67.4314 1641.73 62.7323 Q1645.21 58.0333 1645.21 49.9314 Q1645.21 41.8701 1641.73 37.1711 Q1638.24 32.4315 1632.29 32.4315 M1632.29 26.1121 Q1642.01 26.1121 1647.56 32.4315 Q1653.11 38.7509 1653.11 49.9314 Q1653.11 61.0714 1647.56 67.4314 Q1642.01 73.7508 1632.29 73.7508 Q1622.53 73.7508 1616.98 67.4314 Q1611.47 61.0714 1611.47 49.9314 Q1611.47 38.7509 1616.98 32.4315 Q1622.53 26.1121 1632.29 26.1121 Z" fill="#000000" fill-rule="nonzero" fill-opacity="1" /><path clip-path="url(#clip600)" d="M1672.68 65.7705 L1672.68 89.8329 L1665.18 89.8329 L1665.18 27.2059 L1672.68 27.2059 L1672.68 34.0924 Q1675.03 30.0415 1678.59 28.0971 Q1682.2 26.1121 1687.18 26.1121 Q1695.44 26.1121 1700.59 32.6746 Q1705.77 39.2371 1705.77 49.9314 Q1705.77 60.6258 1700.59 67.1883 Q1695.44 73.7508 1687.18 73.7508 Q1682.2 73.7508 1678.59 71.8063 Q1675.03 69.8214 1672.68 65.7705 M1698.04 49.9314 Q1698.04 41.7081 1694.63 37.0496 Q1691.27 32.3505 1685.36 32.3505 Q1679.44 32.3505 1676.04 37.0496 Q1672.68 41.7081 1672.68 49.9314 Q1672.68 58.1548 1676.04 62.8538 Q1679.44 67.5124 1685.36 67.5124 Q1691.27 67.5124 1694.63 62.8538 Q1698.04 58.1548 1698.04 49.9314 Z" fill="#000000" fill-rule="nonzero" fill-opacity="1" /><path clip-path="url(#clip600)" d="M1735.71 32.4315 Q1729.71 32.4315 1726.23 37.1306 Q1722.75 41.7891 1722.75 49.9314 Q1722.75 58.0738 1726.19 62.7728 Q1729.67 67.4314 1735.71 67.4314 Q1741.66 67.4314 1745.15 62.7323 Q1748.63 58.0333 1748.63 49.9314 Q1748.63 41.8701 1745.15 37.1711 Q1741.66 32.4315 1735.71 32.4315 M1735.71 26.1121 Q1745.43 26.1121 1750.98 32.4315 Q1756.53 38.7509 1756.53 49.9314 Q1756.53 61.0714 1750.98 67.4314 Q1745.43 73.7508 1735.71 73.7508 Q1725.95 73.7508 1720.4 67.4314 Q1714.89 61.0714 1714.89 49.9314 Q1714.89 38.7509 1720.4 32.4315 Q1725.95 26.1121 1735.71 26.1121 Z" fill="#000000" fill-rule="nonzero" fill-opacity="1" /><path clip-path="url(#clip600)" d="M1768.89 9.54393 L1776.34 9.54393 L1776.34 72.576 L1768.89 72.576 L1768.89 9.54393 Z" fill="#000000" fill-rule="nonzero" fill-opacity="1" /><path clip-path="url(#clip600)" d="M1809.52 32.4315 Q1803.52 32.4315 1800.04 37.1306 Q1796.55 41.7891 1796.55 49.9314 Q1796.55 58.0738 1800 62.7728 Q1803.48 67.4314 1809.52 67.4314 Q1815.47 67.4314 1818.96 62.7323 Q1822.44 58.0333 1822.44 49.9314 Q1822.44 41.8701 1818.96 37.1711 Q1815.47 32.4315 1809.52 32.4315 M1809.52 26.1121 Q1819.24 26.1121 1824.79 32.4315 Q1830.34 38.7509 1830.34 49.9314 Q1830.34 61.0714 1824.79 67.4314 Q1819.24 73.7508 1809.52 73.7508 Q1799.75 73.7508 1794.2 67.4314 Q1788.7 61.0714 1788.7 49.9314 Q1788.7 38.7509 1794.2 32.4315 Q1799.75 26.1121 1809.52 26.1121 Z" fill="#000000" fill-rule="nonzero" fill-opacity="1" /><path clip-path="url(#clip600)" d="M1872.55 49.3643 Q1872.55 41.2625 1869.19 36.8065 Q1865.86 32.3505 1859.83 32.3505 Q1853.83 32.3505 1850.47 36.8065 Q1847.15 41.2625 1847.15 49.3643 Q1847.15 57.4256 1850.47 61.8816 Q1853.83 66.3376 1859.83 66.3376 Q1865.86 66.3376 1869.19 61.8816 Q1872.55 57.4256 1872.55 49.3643 M1880 66.9452 Q1880 78.5308 1874.86 84.1616 Q1869.71 89.8329 1859.1 89.8329 Q1855.17 89.8329 1851.69 89.2252 Q1848.2 88.6581 1844.92 87.4428 L1844.92 80.1917 Q1848.2 81.9741 1851.4 82.8248 Q1854.6 83.6755 1857.93 83.6755 Q1865.26 83.6755 1868.9 79.8271 Q1872.55 76.0193 1872.55 68.282 L1872.55 64.5957 Q1870.24 68.6061 1866.63 70.5911 Q1863.03 72.576 1858.01 72.576 Q1849.66 72.576 1844.56 66.2161 Q1839.45 59.8562 1839.45 49.3643 Q1839.45 38.832 1844.56 32.472 Q1849.66 26.1121 1858.01 26.1121 Q1863.03 26.1121 1866.63 28.0971 Q1870.24 30.082 1872.55 34.0924 L1872.55 27.2059 L1880 27.2059 L1880 66.9452 Z" fill="#000000" fill-rule="nonzero" fill-opacity="1" /><path clip-path="url(#clip600)" d="M1914.23 76.7889 Q1911.07 84.8907 1908.08 87.3618 Q1905.08 89.8329 1900.05 89.8329 L1894.1 89.8329 L1894.1 83.5945 L1898.47 83.5945 Q1901.55 83.5945 1903.25 82.1361 Q1904.96 80.6778 1907.02 75.2496 L1908.36 71.8468 L1890.01 27.2059 L1897.91 27.2059 L1912.09 62.6918 L1926.26 27.2059 L1934.16 27.2059 L1914.23 76.7889 Z" fill="#000000" fill-rule="nonzero" fill-opacity="1" /><path clip-path="url(#clip600)" d="M1988.73 9.62495 Q1983.3 18.942 1980.67 28.0566 Q1978.03 37.1711 1978.03 46.5287 Q1978.03 55.8863 1980.67 65.0818 Q1983.34 74.2369 1988.73 83.5134 L1982.25 83.5134 Q1976.17 73.9938 1973.13 64.7983 Q1970.14 55.6027 1970.14 46.5287 Q1970.14 37.4952 1973.13 28.3401 Q1976.13 19.1851 1982.25 9.62495 L1988.73 9.62495 Z" fill="#000000" fill-rule="nonzero" fill-opacity="1" /><path clip-path="url(#clip600)" d="M2003.51 12.096 L2014.53 12.096 L2041.35 62.6918 L2041.35 12.096 L2049.29 12.096 L2049.29 72.576 L2038.27 72.576 L2011.45 21.9802 L2011.45 72.576 L2003.51 72.576 L2003.51 12.096 Z" fill="#000000" fill-rule="nonzero" fill-opacity="1" /><path clip-path="url(#clip600)" d="M2066.22 34.9026 L2118.16 34.9026 L2118.16 41.7081 L2066.22 41.7081 L2066.22 34.9026 M2066.22 51.4303 L2118.16 51.4303 L2118.16 58.3168 L2066.22 58.3168 L2066.22 51.4303 Z" fill="#000000" fill-rule="nonzero" fill-opacity="1" /><path clip-path="url(#clip600)" d="M2142.87 65.6895 L2171.42 65.6895 L2171.42 72.576 L2133.02 72.576 L2133.02 65.6895 Q2137.68 60.8689 2145.7 52.7671 Q2153.76 44.6248 2155.83 42.2752 Q2159.76 37.8598 2161.3 34.8216 Q2162.88 31.7429 2162.88 28.7857 Q2162.88 23.9651 2159.47 20.927 Q2156.11 17.8888 2150.68 17.8888 Q2146.84 17.8888 2142.54 19.2256 Q2138.29 20.5624 2133.43 23.2765 L2133.43 15.0127 Q2138.37 13.0277 2142.66 12.015 Q2146.96 11.0023 2150.52 11.0023 Q2159.92 11.0023 2165.51 15.7013 Q2171.1 20.4004 2171.1 28.2591 Q2171.1 31.9859 2169.68 35.3482 Q2168.31 38.6699 2164.62 43.2069 Q2163.61 44.3817 2158.18 50.0125 Q2152.75 55.6027 2142.87 65.6895 Z" fill="#000000" fill-rule="nonzero" fill-opacity="1" /><path clip-path="url(#clip600)" d="M2206.1 17.4837 Q2199.78 17.4837 2196.58 23.7221 Q2193.42 29.92 2193.42 42.3968 Q2193.42 54.833 2196.58 61.0714 Q2199.78 67.2693 2206.1 67.2693 Q2212.46 67.2693 2215.62 61.0714 Q2218.82 54.833 2218.82 42.3968 Q2218.82 29.92 2215.62 23.7221 Q2212.46 17.4837 2206.1 17.4837 M2206.1 11.0023 Q2216.27 11.0023 2221.62 19.0636 Q2227 27.0843 2227 42.3968 Q2227 57.6687 2221.62 65.73 Q2216.27 73.7508 2206.1 73.7508 Q2195.93 73.7508 2190.54 65.73 Q2185.2 57.6687 2185.2 42.3968 Q2185.2 27.0843 2190.54 19.0636 Q2195.93 11.0023 2206.1 11.0023 Z" fill="#000000" fill-rule="nonzero" fill-opacity="1" /><path clip-path="url(#clip600)" d="M2258.88 17.4837 Q2252.56 17.4837 2249.36 23.7221 Q2246.2 29.92 2246.2 42.3968 Q2246.2 54.833 2249.36 61.0714 Q2252.56 67.2693 2258.88 67.2693 Q2265.24 67.2693 2268.4 61.0714 Q2271.6 54.833 2271.6 42.3968 Q2271.6 29.92 2268.4 23.7221 Q2265.24 17.4837 2258.88 17.4837 M2258.88 11.0023 Q2269.05 11.0023 2274.4 19.0636 Q2279.79 27.0843 2279.79 42.3968 Q2279.79 57.6687 2274.4 65.73 Q2269.05 73.7508 2258.88 73.7508 Q2248.72 73.7508 2243.33 65.73 Q2237.98 57.6687 2237.98 42.3968 Q2237.98 27.0843 2243.33 19.0636 Q2248.72 11.0023 2258.88 11.0023 Z" fill="#000000" fill-rule="nonzero" fill-opacity="1" /><path clip-path="url(#clip600)" d="M2291.94 9.62495 L2298.42 9.62495 Q2304.5 19.1851 2307.49 28.3401 Q2310.53 37.4952 2310.53 46.5287 Q2310.53 55.6027 2307.49 64.7983 Q2304.5 73.9938 2298.42 83.5134 L2291.94 83.5134 Q2297.33 74.2369 2299.96 65.0818 Q2302.63 55.8863 2302.63 46.5287 Q2302.63 37.1711 2299.96 28.0566 Q2297.33 18.942 2291.94 9.62495 Z" fill="#000000" fill-rule="nonzero" fill-opacity="1" /><polyline clip-path="url(#clip601)" style="stroke:#0000ff; stroke-linecap:round; stroke-linejoin:round; stroke-width:8; stroke-opacity:1; fill:none" points="306.647,1677.43 320.811,1671.47 334.974,1663.93 349.137,1654.39 363.3,1642.34 377.464,1627.13 391.627,1608.02 405.79,1584.07 419.954,1554.22 434.117,1517.26 448.28,1471.85 462.443,1416.65 476.607,1350.39 490.77,1272.11 504.933,1181.43 519.097,1078.82 533.26,965.954 547.423,845.689 561.586,722.516 575.75,601.811 589.913,488.926 604.076,389.168 618.24,306.628 632.403,243.86 646.566,201.533 660.729,178.445 674.893,173.254 689.056,183.038 703.219,205.022 717.382,236.464 731.546,274.907 745.709,318.333 759.872,365.033 774.036,413.685 788.199,463.269 802.362,513.01 816.525,562.328 830.689,610.817 844.852,658.177 859.015,704.198 873.179,748.748 887.342,791.742 901.505,833.134 915.668,872.907 929.832,911.067 943.995,947.632 958.158,982.632 972.322,1016.11 986.485,1048.1 1000.65,1078.66 1014.81,1107.84 1028.97,1135.68 1043.14,1162.24 1057.3,1187.57 1071.46,1211.73 1085.63,1234.75 1099.79,1256.69 1113.95,1277.6 1128.12,1297.52 1142.28,1316.49 1156.44,1334.56 1170.61,1351.78 1184.77,1368.17 1198.93,1383.77 1213.1,1398.63 1227.26,1412.78 1241.42,1426.25 1255.59,1439.07 1269.75,1451.28 1283.91,1462.89 1298.08,1473.95 1312.24,1484.47 1326.4,1494.49 1340.57,1504.02 1354.73,1513.09 1368.89,1521.72 1383.06,1529.94 1397.22,1537.75 1411.38,1545.19 1425.55,1552.27 1439.71,1559 1453.87,1565.41 1468.04,1571.5 1482.2,1577.31 1496.36,1582.83 1510.53,1588.08 1524.69,1593.07 1538.85,1597.83 1553.02,1602.35 1567.18,1606.65 1581.34,1610.74 1595.51,1614.64 1609.67,1618.34 1623.83,1621.87 1638,1625.22 1652.16,1628.41 1666.32,1631.44 1680.49,1634.33 1694.65,1637.08 1708.81,1639.69 1722.98,1642.17 1737.14,1644.54 1751.3,1646.79 1765.47,1648.93 1779.63,1650.96 1793.79,1652.9 1807.96,1654.74 1822.12,1656.49 1836.28,1658.16 1850.44,1659.75 1864.61,1661.25 1878.77,1662.69 1892.93,1664.05 1907.1,1665.35 1921.26,1666.59 1935.42,1667.76 1949.59,1668.88 1963.75,1669.94 1977.91,1670.95 1992.08,1671.91 2006.24,1672.83 2020.4,1673.7 2034.57,1674.53 2048.73,1675.32 2062.89,1676.07 2077.06,1676.78 2091.22,1677.46 2105.38,1678.1 2119.55,1678.71 2133.71,1679.3 2147.87,1679.85 2162.04,1680.38 2176.2,1680.88 2190.36,1681.36 2204.53,1681.81 2218.69,1682.25 2232.85,1682.66 2247.02,1683.05 2261.18,1683.42 2275.34,1683.78 2289.51,1684.11 2303.67,1684.43 2317.83,1684.74 2332,1685.03 2346.16,1685.3 2360.32,1685.57 2374.49,1685.81 2388.65,1686.05 2402.81,1686.28 2416.98,1686.49 2431.14,1686.7 2445.3,1686.89 2459.47,1687.07 2473.63,1687.25 2487.79,1687.42 2501.96,1687.58 2516.12,1687.73 2530.28,1687.87 2544.45,1688.01 2558.61,1688.14 2572.77,1688.26 "/>
<polyline clip-path="url(#clip601)" style="stroke:#ffa500; stroke-linecap:round; stroke-linejoin:round; stroke-width:8; stroke-opacity:1; fill:none" points="306.647,1677.43 320.811,1669.62 334.974,1658.1 349.137,1641.71 363.3,1619 377.464,1588.17 391.627,1547.15 405.79,1493.68 419.954,1425.53 434.117,1340.96 448.28,1239.29 462.443,1121.6 476.607,991.229 490.77,853.821 504.933,716.871 519.097,588.188 533.26,474.594 547.423,381.008 561.586,309.54 575.75,260.261 589.913,231.364 604.076,220.236 618.24,223.851 632.403,239.305 646.566,263.967 660.729,295.587 674.893,332.308 689.056,372.628 703.219,415.353 717.382,459.547 731.546,504.48 745.709,549.591 759.872,594.449 774.036,638.727 788.199,682.181 802.362,724.63 816.525,765.942 830.689,806.026 844.852,844.823 859.015,882.293 873.179,918.42 887.342,953.201 901.505,986.642 915.668,1018.76 929.832,1049.58 943.995,1079.13 958.158,1107.44 972.322,1134.54 986.485,1160.48 1000.65,1185.29 1014.81,1209.01 1028.97,1231.68 1043.14,1253.33 1057.3,1274.01 1071.46,1293.75 1085.63,1312.59 1099.79,1330.58 1113.95,1347.73 1128.12,1364.09 1142.28,1379.7 1156.44,1394.57 1170.61,1408.76 1184.77,1422.28 1198.93,1435.16 1213.1,1447.44 1227.26,1459.14 1241.42,1470.29 1255.59,1480.91 1269.75,1491.02 1283.91,1500.66 1298.08,1509.83 1312.24,1518.57 1326.4,1526.89 1340.57,1534.81 1354.73,1542.35 1368.89,1549.53 1383.06,1556.37 1397.22,1562.88 1411.38,1569.08 1425.55,1574.97 1439.71,1580.59 1453.87,1585.93 1468.04,1591.01 1482.2,1595.85 1496.36,1600.46 1510.53,1604.84 1524.69,1609.01 1538.85,1612.98 1553.02,1616.76 1567.18,1620.35 1581.34,1623.77 1595.51,1627.03 1609.67,1630.12 1623.83,1633.07 1638,1635.87 1652.16,1638.54 1666.32,1641.08 1680.49,1643.49 1694.65,1645.79 1708.81,1647.98 1722.98,1650.06 1737.14,1652.03 1751.3,1653.92 1765.47,1655.71 1779.63,1657.41 1793.79,1659.03 1807.96,1660.57 1822.12,1662.04 1836.28,1663.44 1850.44,1664.76 1864.61,1666.03 1878.77,1667.23 1892.93,1668.37 1907.1,1669.46 1921.26,1670.49 1935.42,1671.48 1949.59,1672.41 1963.75,1673.3 1977.91,1674.15 1992.08,1674.96 2006.24,1675.72 2020.4,1676.45 2034.57,1677.15 2048.73,1677.81 2062.89,1678.43 2077.06,1679.03 2091.22,1679.6 2105.38,1680.14 2119.55,1680.65 2133.71,1681.14 2147.87,1681.61 2162.04,1682.05 2176.2,1682.47 2190.36,1682.87 2204.53,1683.25 2218.69,1683.61 2232.85,1683.96 2247.02,1684.29 2261.18,1684.6 2275.34,1684.89 2289.51,1685.18 2303.67,1685.45 2317.83,1685.7 2332,1685.94 2346.16,1686.17 2360.32,1686.39 2374.49,1686.6 2388.65,1686.8 2402.81,1686.99 2416.98,1687.17 2431.14,1687.34 2445.3,1687.5 2459.47,1687.66 2473.63,1687.81 2487.79,1687.95 2501.96,1688.08 2516.12,1688.21 2530.28,1688.33 2544.45,1688.44 2558.61,1688.55 2572.77,1688.65 "/>
<polyline clip-path="url(#clip601)" style="stroke:#800080; stroke-linecap:round; stroke-linejoin:round; stroke-width:8; stroke-opacity:1; fill:none" points="306.647,1677.43 387.58,1625.38 468.513,1549.15 549.446,1443.89 630.379,1308.74 711.313,1148.96 792.246,975.665 873.179,802.798 954.112,643.026 1035.04,505.106 1115.98,393.389 1196.91,308.664 1277.84,249.376 1358.78,212.678 1439.71,195.212 1520.64,193.595 1601.58,204.706 1682.51,225.806 1763.44,254.573 1844.37,289.087 1925.31,327.785 2006.24,369.409 2087.17,412.959 2168.11,457.642 2249.04,502.838 2329.97,548.061 2410.91,592.937 2491.84,637.176 2572.77,680.56 "/>
<path clip-path="url(#clip600)" d="M1952.49 388.696 L2560.69 388.696 L2560.69 181.336 L1952.49 181.336  Z" fill="#ffffff" fill-rule="evenodd" fill-opacity="1"/>
<polyline clip-path="url(#clip600)" style="stroke:#000000; stroke-linecap:round; stroke-linejoin:round; stroke-width:4; stroke-opacity:1; fill:none" points="1952.49,388.696 2560.69,388.696 2560.69,181.336 1952.49,181.336 1952.49,388.696 "/>
<polyline clip-path="url(#clip600)" style="stroke:#0000ff; stroke-linecap:round; stroke-linejoin:round; stroke-width:8; stroke-opacity:1; fill:none" points="1979.18,233.176 2139.32,233.176 "/>
<path clip-path="url(#clip600)" d="M2182.4 234.253 Q2183.91 234.762 2185.32 236.429 Q2186.75 238.095 2188.19 241.012 L2192.93 250.456 L2187.91 250.456 L2183.49 241.591 Q2181.78 238.118 2180.16 236.984 Q2178.56 235.85 2175.78 235.85 L2170.69 235.85 L2170.69 250.456 L2166.01 250.456 L2166.01 215.896 L2176.57 215.896 Q2182.49 215.896 2185.41 218.373 Q2188.33 220.85 2188.33 225.85 Q2188.33 229.114 2186.8 231.267 Q2185.29 233.419 2182.4 234.253 M2170.69 219.739 L2170.69 232.007 L2176.57 232.007 Q2179.95 232.007 2181.66 230.456 Q2183.4 228.882 2183.4 225.85 Q2183.4 222.818 2181.66 221.29 Q2179.95 219.739 2176.57 219.739 L2170.69 219.739 Z" fill="#000000" fill-rule="nonzero" fill-opacity="1" /><path clip-path="url(#clip600)" d="M2218.81 236.429 L2218.81 238.512 L2199.23 238.512 Q2199.51 242.91 2201.87 245.225 Q2204.25 247.516 2208.49 247.516 Q2210.94 247.516 2213.23 246.915 Q2215.55 246.313 2217.82 245.109 L2217.82 249.137 Q2215.53 250.109 2213.12 250.618 Q2210.71 251.128 2208.23 251.128 Q2202.03 251.128 2198.4 247.516 Q2194.79 243.905 2194.79 237.748 Q2194.79 231.382 2198.21 227.655 Q2201.66 223.906 2207.49 223.906 Q2212.72 223.906 2215.76 227.285 Q2218.81 230.642 2218.81 236.429 M2214.55 235.179 Q2214.51 231.683 2212.59 229.6 Q2210.69 227.517 2207.54 227.517 Q2203.97 227.517 2201.82 229.53 Q2199.69 231.544 2199.37 235.202 L2214.55 235.179 Z" fill="#000000" fill-rule="nonzero" fill-opacity="1" /><path clip-path="url(#clip600)" d="M2242.86 237.192 Q2242.86 232.563 2240.94 230.017 Q2239.04 227.47 2235.6 227.47 Q2232.17 227.47 2230.25 230.017 Q2228.35 232.563 2228.35 237.192 Q2228.35 241.799 2230.25 244.345 Q2232.17 246.891 2235.6 246.891 Q2239.04 246.891 2240.94 244.345 Q2242.86 241.799 2242.86 237.192 M2247.12 247.239 Q2247.12 253.859 2244.18 257.077 Q2241.24 260.317 2235.18 260.317 Q2232.93 260.317 2230.94 259.97 Q2228.95 259.646 2227.08 258.952 L2227.08 254.808 Q2228.95 255.827 2230.78 256.313 Q2232.61 256.799 2234.51 256.799 Q2238.7 256.799 2240.78 254.6 Q2242.86 252.424 2242.86 248.003 L2242.86 245.896 Q2241.54 248.188 2239.48 249.322 Q2237.42 250.456 2234.55 250.456 Q2229.78 250.456 2226.87 246.822 Q2223.95 243.188 2223.95 237.192 Q2223.95 231.174 2226.87 227.54 Q2229.78 223.906 2234.55 223.906 Q2237.42 223.906 2239.48 225.04 Q2241.54 226.174 2242.86 228.466 L2242.86 224.531 L2247.12 224.531 L2247.12 247.239 Z" fill="#000000" fill-rule="nonzero" fill-opacity="1" /><path clip-path="url(#clip600)" d="M2255.46 240.225 L2255.46 224.531 L2259.72 224.531 L2259.72 240.063 Q2259.72 243.743 2261.15 245.595 Q2262.59 247.424 2265.46 247.424 Q2268.91 247.424 2270.9 245.225 Q2272.91 243.026 2272.91 239.229 L2272.91 224.531 L2277.17 224.531 L2277.17 250.456 L2272.91 250.456 L2272.91 246.475 Q2271.36 248.836 2269.3 249.993 Q2267.26 251.128 2264.55 251.128 Q2260.09 251.128 2257.77 248.35 Q2255.46 245.572 2255.46 240.225 M2266.17 223.906 L2266.17 223.906 Z" fill="#000000" fill-rule="nonzero" fill-opacity="1" /><path clip-path="url(#clip600)" d="M2285.94 214.438 L2290.2 214.438 L2290.2 250.456 L2285.94 250.456 L2285.94 214.438 Z" fill="#000000" fill-rule="nonzero" fill-opacity="1" /><path clip-path="url(#clip600)" d="M2310.9 237.424 Q2305.73 237.424 2303.74 238.604 Q2301.75 239.785 2301.75 242.632 Q2301.75 244.901 2303.23 246.243 Q2304.74 247.563 2307.31 247.563 Q2310.85 247.563 2312.98 245.063 Q2315.13 242.54 2315.13 238.373 L2315.13 237.424 L2310.9 237.424 M2319.39 235.665 L2319.39 250.456 L2315.13 250.456 L2315.13 246.521 Q2313.67 248.882 2311.5 250.016 Q2309.32 251.128 2306.17 251.128 Q2302.19 251.128 2299.83 248.905 Q2297.49 246.66 2297.49 242.91 Q2297.49 238.535 2300.41 236.313 Q2303.35 234.091 2309.16 234.091 L2315.13 234.091 L2315.13 233.674 Q2315.13 230.734 2313.19 229.137 Q2311.27 227.517 2307.77 227.517 Q2305.55 227.517 2303.44 228.049 Q2301.34 228.581 2299.39 229.646 L2299.39 225.711 Q2301.73 224.808 2303.93 224.368 Q2306.13 223.906 2308.21 223.906 Q2313.84 223.906 2316.61 226.822 Q2319.39 229.739 2319.39 235.665 Z" fill="#000000" fill-rule="nonzero" fill-opacity="1" /><path clip-path="url(#clip600)" d="M2343.19 228.512 Q2342.47 228.095 2341.61 227.91 Q2340.78 227.702 2339.76 227.702 Q2336.15 227.702 2334.21 230.063 Q2332.28 232.401 2332.28 236.799 L2332.28 250.456 L2328 250.456 L2328 224.531 L2332.28 224.531 L2332.28 228.558 Q2333.63 226.197 2335.78 225.063 Q2337.93 223.906 2341.01 223.906 Q2341.45 223.906 2341.98 223.975 Q2342.52 224.021 2343.16 224.137 L2343.19 228.512 Z" fill="#000000" fill-rule="nonzero" fill-opacity="1" /><polyline clip-path="url(#clip600)" style="stroke:#ffa500; stroke-linecap:round; stroke-linejoin:round; stroke-width:8; stroke-opacity:1; fill:none" points="1979.18,285.016 2139.32,285.016 "/>
<path clip-path="url(#clip600)" d="M2166.01 267.736 L2187.86 267.736 L2187.86 271.671 L2170.69 271.671 L2170.69 281.903 L2187.15 281.903 L2187.15 285.838 L2170.69 285.838 L2170.69 298.361 L2188.28 298.361 L2188.28 302.296 L2166.01 302.296 L2166.01 267.736 Z" fill="#000000" fill-rule="nonzero" fill-opacity="1" /><path clip-path="url(#clip600)" d="M2210.8 280.352 Q2210.09 279.935 2209.23 279.75 Q2208.4 279.542 2207.38 279.542 Q2203.77 279.542 2201.82 281.903 Q2199.9 284.241 2199.9 288.639 L2199.9 302.296 L2195.62 302.296 L2195.62 276.371 L2199.9 276.371 L2199.9 280.398 Q2201.24 278.037 2203.4 276.903 Q2205.55 275.746 2208.63 275.746 Q2209.07 275.746 2209.6 275.815 Q2210.13 275.861 2210.78 275.977 L2210.8 280.352 Z" fill="#000000" fill-rule="nonzero" fill-opacity="1" /><path clip-path="url(#clip600)" d="M2231.5 280.306 L2231.5 266.278 L2235.76 266.278 L2235.76 302.296 L2231.5 302.296 L2231.5 298.407 Q2230.16 300.722 2228.1 301.856 Q2226.06 302.968 2223.19 302.968 Q2218.49 302.968 2215.53 299.218 Q2212.59 295.468 2212.59 289.357 Q2212.59 283.245 2215.53 279.495 Q2218.49 275.746 2223.19 275.746 Q2226.06 275.746 2228.1 276.88 Q2230.16 277.991 2231.5 280.306 M2216.98 289.357 Q2216.98 294.056 2218.91 296.741 Q2220.85 299.403 2224.23 299.403 Q2227.61 299.403 2229.55 296.741 Q2231.5 294.056 2231.5 289.357 Q2231.5 284.657 2229.55 281.995 Q2227.61 279.31 2224.23 279.31 Q2220.85 279.31 2218.91 281.995 Q2216.98 284.657 2216.98 289.357 Z" fill="#000000" fill-rule="nonzero" fill-opacity="1" /><path clip-path="url(#clip600)" d="M2261.45 264.38 L2265.57 264.38 L2259.83 273.083 L2256.71 273.083 L2261.45 264.38 M2253.72 264.38 L2257.66 264.38 L2252.49 273.083 L2249.32 273.083 L2253.72 264.38 M2254.58 279.357 Q2251.15 279.357 2249.16 282.042 Q2247.17 284.704 2247.17 289.357 Q2247.17 294.009 2249.14 296.694 Q2251.13 299.356 2254.58 299.356 Q2257.98 299.356 2259.97 296.671 Q2261.96 293.986 2261.96 289.357 Q2261.96 284.75 2259.97 282.065 Q2257.98 279.357 2254.58 279.357 M2254.58 275.746 Q2260.13 275.746 2263.3 279.357 Q2266.47 282.968 2266.47 289.357 Q2266.47 295.722 2263.3 299.356 Q2260.13 302.968 2254.58 302.968 Q2249 302.968 2245.83 299.356 Q2242.68 295.722 2242.68 289.357 Q2242.68 282.968 2245.83 279.357 Q2249 275.746 2254.58 275.746 Z" fill="#000000" fill-rule="nonzero" fill-opacity="1" /><path clip-path="url(#clip600)" d="M2290.06 277.134 L2290.06 281.162 Q2288.26 280.236 2286.31 279.773 Q2284.37 279.31 2282.28 279.31 Q2279.11 279.31 2277.52 280.283 Q2275.94 281.255 2275.94 283.199 Q2275.94 284.681 2277.08 285.537 Q2278.21 286.37 2281.64 287.134 L2283.09 287.458 Q2287.63 288.431 2289.53 290.213 Q2291.45 291.972 2291.45 295.144 Q2291.45 298.755 2288.58 300.861 Q2285.73 302.968 2280.73 302.968 Q2278.65 302.968 2276.38 302.551 Q2274.14 302.157 2271.64 301.347 L2271.64 296.949 Q2274 298.176 2276.29 298.801 Q2278.58 299.403 2280.83 299.403 Q2283.84 299.403 2285.46 298.384 Q2287.08 297.343 2287.08 295.468 Q2287.08 293.732 2285.9 292.806 Q2284.74 291.88 2280.78 291.023 L2279.3 290.676 Q2275.34 289.843 2273.58 288.13 Q2271.82 286.394 2271.82 283.384 Q2271.82 279.727 2274.41 277.736 Q2277.01 275.746 2281.78 275.746 Q2284.14 275.746 2286.22 276.093 Q2288.3 276.44 2290.06 277.134 Z" fill="#000000" fill-rule="nonzero" fill-opacity="1" /><path clip-path="url(#clip600)" d="M2296.08 287.644 L2315.15 287.644 L2315.15 290.977 L2296.08 290.977 L2296.08 287.644 Z" fill="#000000" fill-rule="nonzero" fill-opacity="1" /><path clip-path="url(#clip600)" d="M2338.51 286.093 Q2340.02 286.602 2341.43 288.269 Q2342.86 289.935 2344.3 292.852 L2349.04 302.296 L2344.02 302.296 L2339.6 293.431 Q2337.89 289.958 2336.27 288.824 Q2334.67 287.69 2331.89 287.69 L2326.8 287.69 L2326.8 302.296 L2322.12 302.296 L2322.12 267.736 L2332.68 267.736 Q2338.6 267.736 2341.52 270.213 Q2344.44 272.69 2344.44 277.69 Q2344.44 280.954 2342.91 283.107 Q2341.4 285.259 2338.51 286.093 M2326.8 271.579 L2326.8 283.847 L2332.68 283.847 Q2336.06 283.847 2337.77 282.296 Q2339.51 280.722 2339.51 277.69 Q2339.51 274.658 2337.77 273.13 Q2336.06 271.579 2332.68 271.579 L2326.8 271.579 Z" fill="#000000" fill-rule="nonzero" fill-opacity="1" /><path clip-path="url(#clip600)" d="M2374.92 288.269 L2374.92 290.352 L2355.34 290.352 Q2355.62 294.75 2357.98 297.065 Q2360.36 299.356 2364.6 299.356 Q2367.05 299.356 2369.34 298.755 Q2371.66 298.153 2373.93 296.949 L2373.93 300.977 Q2371.64 301.949 2369.23 302.458 Q2366.82 302.968 2364.34 302.968 Q2358.14 302.968 2354.51 299.356 Q2350.9 295.745 2350.9 289.588 Q2350.9 283.222 2354.32 279.495 Q2357.77 275.746 2363.6 275.746 Q2368.84 275.746 2371.87 279.125 Q2374.92 282.482 2374.92 288.269 M2370.66 287.019 Q2370.62 283.523 2368.7 281.44 Q2366.8 279.357 2363.65 279.357 Q2360.09 279.357 2357.93 281.37 Q2355.8 283.384 2355.48 287.042 L2370.66 287.019 M2366.57 264.38 L2371.17 264.38 L2363.63 273.083 L2360.09 273.083 L2366.57 264.38 Z" fill="#000000" fill-rule="nonzero" fill-opacity="1" /><path clip-path="url(#clip600)" d="M2403.46 286.648 L2403.46 302.296 L2399.21 302.296 L2399.21 286.787 Q2399.21 283.107 2397.77 281.278 Q2396.33 279.449 2393.46 279.449 Q2390.02 279.449 2388.02 281.648 Q2386.03 283.847 2386.03 287.644 L2386.03 302.296 L2381.75 302.296 L2381.75 276.371 L2386.03 276.371 L2386.03 280.398 Q2387.56 278.06 2389.62 276.903 Q2391.71 275.746 2394.41 275.746 Q2398.88 275.746 2401.17 278.523 Q2403.46 281.278 2403.46 286.648 Z" fill="#000000" fill-rule="nonzero" fill-opacity="1" /><path clip-path="url(#clip600)" d="M2422.75 304.704 Q2420.94 309.333 2419.23 310.745 Q2417.52 312.157 2414.65 312.157 L2411.24 312.157 L2411.24 308.593 L2413.74 308.593 Q2415.5 308.593 2416.47 307.759 Q2417.45 306.926 2418.63 303.824 L2419.39 301.88 L2408.9 276.371 L2413.42 276.371 L2421.52 296.648 L2429.62 276.371 L2434.14 276.371 L2422.75 304.704 Z" fill="#000000" fill-rule="nonzero" fill-opacity="1" /><path clip-path="url(#clip600)" d="M2440.02 276.371 L2444.27 276.371 L2444.27 302.296 L2440.02 302.296 L2440.02 276.371 M2440.02 266.278 L2444.27 266.278 L2444.27 271.671 L2440.02 271.671 L2440.02 266.278 Z" fill="#000000" fill-rule="nonzero" fill-opacity="1" /><polyline clip-path="url(#clip600)" style="stroke:#800080; stroke-linecap:round; stroke-linejoin:round; stroke-width:8; stroke-opacity:1; fill:none" points="1979.18,336.856 2139.32,336.856 "/>
<path clip-path="url(#clip600)" d="M2170.69 337.632 L2170.69 350.294 L2178.19 350.294 Q2181.96 350.294 2183.77 348.743 Q2185.6 347.169 2185.6 343.951 Q2185.6 340.71 2183.77 339.183 Q2181.96 337.632 2178.19 337.632 L2170.69 337.632 M2170.69 323.419 L2170.69 333.835 L2177.61 333.835 Q2181.04 333.835 2182.7 332.562 Q2184.39 331.266 2184.39 328.627 Q2184.39 326.011 2182.7 324.715 Q2181.04 323.419 2177.61 323.419 L2170.69 323.419 M2166.01 319.576 L2177.96 319.576 Q2183.3 319.576 2186.2 321.798 Q2189.09 324.021 2189.09 328.118 Q2189.09 331.289 2187.61 333.164 Q2186.13 335.039 2183.26 335.502 Q2186.71 336.243 2188.6 338.604 Q2190.53 340.942 2190.53 344.46 Q2190.53 349.09 2187.38 351.613 Q2184.23 354.136 2178.42 354.136 L2166.01 354.136 L2166.01 319.576 Z" fill="#000000" fill-rule="nonzero" fill-opacity="1" /><path clip-path="url(#clip600)" d="M2210.13 341.104 Q2204.97 341.104 2202.98 342.284 Q2200.99 343.465 2200.99 346.312 Q2200.99 348.581 2202.47 349.923 Q2203.97 351.243 2206.54 351.243 Q2210.09 351.243 2212.22 348.743 Q2214.37 346.22 2214.37 342.053 L2214.37 341.104 L2210.13 341.104 M2218.63 339.345 L2218.63 354.136 L2214.37 354.136 L2214.37 350.201 Q2212.91 352.562 2210.73 353.696 Q2208.56 354.808 2205.41 354.808 Q2201.43 354.808 2199.07 352.585 Q2196.73 350.34 2196.73 346.59 Q2196.73 342.215 2199.65 339.993 Q2202.59 337.771 2208.4 337.771 L2214.37 337.771 L2214.37 337.354 Q2214.37 334.414 2212.42 332.817 Q2210.5 331.197 2207.01 331.197 Q2204.79 331.197 2202.68 331.729 Q2200.57 332.261 2198.63 333.326 L2198.63 329.391 Q2200.97 328.488 2203.16 328.048 Q2205.36 327.586 2207.45 327.586 Q2213.07 327.586 2215.85 330.502 Q2218.63 333.419 2218.63 339.345 Z" fill="#000000" fill-rule="nonzero" fill-opacity="1" /><path clip-path="url(#clip600)" d="M2242.42 332.192 Q2241.71 331.775 2240.85 331.59 Q2240.02 331.382 2239 331.382 Q2235.39 331.382 2233.44 333.743 Q2231.52 336.081 2231.52 340.479 L2231.52 354.136 L2227.24 354.136 L2227.24 328.211 L2231.52 328.211 L2231.52 332.238 Q2232.86 329.877 2235.02 328.743 Q2237.17 327.586 2240.25 327.586 Q2240.69 327.586 2241.22 327.655 Q2241.75 327.701 2242.4 327.817 L2242.42 332.192 Z" fill="#000000" fill-rule="nonzero" fill-opacity="1" /><path clip-path="url(#clip600)" d="M2258.67 341.104 Q2253.51 341.104 2251.52 342.284 Q2249.53 343.465 2249.53 346.312 Q2249.53 348.581 2251.01 349.923 Q2252.52 351.243 2255.09 351.243 Q2258.63 351.243 2260.76 348.743 Q2262.91 346.22 2262.91 342.053 L2262.91 341.104 L2258.67 341.104 M2267.17 339.345 L2267.17 354.136 L2262.91 354.136 L2262.91 350.201 Q2261.45 352.562 2259.28 353.696 Q2257.1 354.808 2253.95 354.808 Q2249.97 354.808 2247.61 352.585 Q2245.27 350.34 2245.27 346.59 Q2245.27 342.215 2248.19 339.993 Q2251.13 337.771 2256.94 337.771 L2262.91 337.771 L2262.91 337.354 Q2262.91 334.414 2260.97 332.817 Q2259.04 331.197 2255.55 331.197 Q2253.33 331.197 2251.22 331.729 Q2249.11 332.261 2247.17 333.326 L2247.17 329.391 Q2249.51 328.488 2251.71 328.048 Q2253.91 327.586 2255.99 327.586 Q2261.61 327.586 2264.39 330.502 Q2267.17 333.419 2267.17 339.345 Z" fill="#000000" fill-rule="nonzero" fill-opacity="1" /><path clip-path="url(#clip600)" d="M2294.55 341.197 Q2294.55 336.497 2292.61 333.835 Q2290.69 331.15 2287.31 331.15 Q2283.93 331.15 2281.98 333.835 Q2280.06 336.497 2280.06 341.197 Q2280.06 345.896 2281.98 348.581 Q2283.93 351.243 2287.31 351.243 Q2290.69 351.243 2292.61 348.581 Q2294.55 345.896 2294.55 341.197 M2280.06 332.146 Q2281.41 329.831 2283.44 328.72 Q2285.5 327.586 2288.35 327.586 Q2293.07 327.586 2296.01 331.335 Q2298.97 335.085 2298.97 341.197 Q2298.97 347.308 2296.01 351.058 Q2293.07 354.808 2288.35 354.808 Q2285.5 354.808 2283.44 353.696 Q2281.41 352.562 2280.06 350.247 L2280.06 354.136 L2275.78 354.136 L2275.78 318.118 L2280.06 318.118 L2280.06 332.146 Z" fill="#000000" fill-rule="nonzero" fill-opacity="1" /><path clip-path="url(#clip600)" d="M2317.82 341.104 Q2312.65 341.104 2310.66 342.284 Q2308.67 343.465 2308.67 346.312 Q2308.67 348.581 2310.15 349.923 Q2311.66 351.243 2314.23 351.243 Q2317.77 351.243 2319.9 348.743 Q2322.05 346.22 2322.05 342.053 L2322.05 341.104 L2317.82 341.104 M2326.31 339.345 L2326.31 354.136 L2322.05 354.136 L2322.05 350.201 Q2320.59 352.562 2318.42 353.696 Q2316.24 354.808 2313.09 354.808 Q2309.11 354.808 2306.75 352.585 Q2304.41 350.34 2304.41 346.59 Q2304.41 342.215 2307.33 339.993 Q2310.27 337.771 2316.08 337.771 L2322.05 337.771 L2322.05 337.354 Q2322.05 334.414 2320.11 332.817 Q2318.19 331.197 2314.69 331.197 Q2312.47 331.197 2310.36 331.729 Q2308.26 332.261 2306.31 333.326 L2306.31 329.391 Q2308.65 328.488 2310.85 328.048 Q2313.05 327.586 2315.13 327.586 Q2320.76 327.586 2323.53 330.502 Q2326.31 333.419 2326.31 339.345 M2318.53 316.22 L2323.14 316.22 L2315.59 324.923 L2312.05 324.923 L2318.53 316.22 Z" fill="#000000" fill-rule="nonzero" fill-opacity="1" /><path clip-path="url(#clip600)" d="M2351.61 328.974 L2351.61 333.002 Q2349.81 332.076 2347.86 331.613 Q2345.92 331.15 2343.84 331.15 Q2340.66 331.15 2339.07 332.123 Q2337.49 333.095 2337.49 335.039 Q2337.49 336.521 2338.63 337.377 Q2339.76 338.21 2343.19 338.974 L2344.65 339.298 Q2349.18 340.271 2351.08 342.053 Q2353 343.812 2353 346.984 Q2353 350.595 2350.13 352.701 Q2347.28 354.808 2342.28 354.808 Q2340.2 354.808 2337.93 354.391 Q2335.69 353.997 2333.19 353.187 L2333.19 348.789 Q2335.55 350.016 2337.84 350.641 Q2340.13 351.243 2342.38 351.243 Q2345.39 351.243 2347.01 350.224 Q2348.63 349.183 2348.63 347.308 Q2348.63 345.572 2347.45 344.646 Q2346.29 343.72 2342.33 342.863 L2340.85 342.516 Q2336.89 341.683 2335.13 339.97 Q2333.37 338.234 2333.37 335.224 Q2333.37 331.567 2335.96 329.576 Q2338.56 327.586 2343.33 327.586 Q2345.69 327.586 2347.77 327.933 Q2349.85 328.28 2351.61 328.974 Z" fill="#000000" fill-rule="nonzero" fill-opacity="1" /><path clip-path="url(#clip600)" d="M2359.78 328.211 L2364.04 328.211 L2364.04 354.136 L2359.78 354.136 L2359.78 328.211 M2359.78 318.118 L2364.04 318.118 L2364.04 323.511 L2359.78 323.511 L2359.78 318.118 Z" fill="#000000" fill-rule="nonzero" fill-opacity="1" /><path clip-path="url(#clip600)" d="M2370.8 339.484 L2389.88 339.484 L2389.88 342.817 L2370.8 342.817 L2370.8 339.484 Z" fill="#000000" fill-rule="nonzero" fill-opacity="1" /><path clip-path="url(#clip600)" d="M2408.4 324.183 L2402.05 341.382 L2414.76 341.382 L2408.4 324.183 M2405.76 319.576 L2411.06 319.576 L2424.23 354.136 L2419.37 354.136 L2416.22 345.271 L2400.64 345.271 L2397.49 354.136 L2392.56 354.136 L2405.76 319.576 Z" fill="#000000" fill-rule="nonzero" fill-opacity="1" /><path clip-path="url(#clip600)" d="M2429.09 318.118 L2433.35 318.118 L2433.35 354.136 L2429.09 354.136 L2429.09 318.118 Z" fill="#000000" fill-rule="nonzero" fill-opacity="1" /><path clip-path="url(#clip600)" d="M2460.87 341.197 Q2460.87 336.497 2458.93 333.835 Q2457.01 331.15 2453.63 331.15 Q2450.25 331.15 2448.3 333.835 Q2446.38 336.497 2446.38 341.197 Q2446.38 345.896 2448.3 348.581 Q2450.25 351.243 2453.63 351.243 Q2457.01 351.243 2458.93 348.581 Q2460.87 345.896 2460.87 341.197 M2446.38 332.146 Q2447.72 329.831 2449.76 328.72 Q2451.82 327.586 2454.67 327.586 Q2459.39 327.586 2462.33 331.335 Q2465.29 335.085 2465.29 341.197 Q2465.29 347.308 2462.33 351.058 Q2459.39 354.808 2454.67 354.808 Q2451.82 354.808 2449.76 353.696 Q2447.72 352.562 2446.38 350.247 L2446.38 354.136 L2442.1 354.136 L2442.1 318.118 L2446.38 318.118 L2446.38 332.146 Z" fill="#000000" fill-rule="nonzero" fill-opacity="1" /><path clip-path="url(#clip600)" d="M2494.53 340.109 L2494.53 342.192 L2474.95 342.192 Q2475.22 346.59 2477.58 348.905 Q2479.97 351.196 2484.2 351.196 Q2486.66 351.196 2488.95 350.595 Q2491.26 349.993 2493.53 348.789 L2493.53 352.817 Q2491.24 353.789 2488.83 354.298 Q2486.43 354.808 2483.95 354.808 Q2477.75 354.808 2474.11 351.196 Q2470.5 347.585 2470.5 341.428 Q2470.5 335.062 2473.93 331.335 Q2477.38 327.586 2483.21 327.586 Q2488.44 327.586 2491.47 330.965 Q2494.53 334.322 2494.53 340.109 M2490.27 338.859 Q2490.22 335.363 2488.3 333.28 Q2486.4 331.197 2483.26 331.197 Q2479.69 331.197 2477.54 333.21 Q2475.41 335.224 2475.08 338.882 L2490.27 338.859 Z" fill="#000000" fill-rule="nonzero" fill-opacity="1" /><path clip-path="url(#clip600)" d="M2516.54 332.192 Q2515.83 331.775 2514.97 331.59 Q2514.14 331.382 2513.12 331.382 Q2509.51 331.382 2507.56 333.743 Q2505.64 336.081 2505.64 340.479 L2505.64 354.136 L2501.36 354.136 L2501.36 328.211 L2505.64 328.211 L2505.64 332.238 Q2506.98 329.877 2509.14 328.743 Q2511.29 327.586 2514.37 327.586 Q2514.81 327.586 2515.34 327.655 Q2515.87 327.701 2516.52 327.817 L2516.54 332.192 Z" fill="#000000" fill-rule="nonzero" fill-opacity="1" /><path clip-path="url(#clip600)" d="M2525.22 320.849 L2525.22 328.211 L2534 328.211 L2534 331.521 L2525.22 331.521 L2525.22 345.595 Q2525.22 348.766 2526.08 349.669 Q2526.96 350.571 2529.62 350.571 L2534 350.571 L2534 354.136 L2529.62 354.136 Q2524.69 354.136 2522.82 352.308 Q2520.94 350.456 2520.94 345.595 L2520.94 331.521 L2517.82 331.521 L2517.82 328.211 L2520.94 328.211 L2520.94 320.849 L2525.22 320.849 Z" fill="#000000" fill-rule="nonzero" fill-opacity="1" /></svg>
