<?xml version="1.0" encoding="utf-8"?>
<svg xmlns="http://www.w3.org/2000/svg" xmlns:xlink="http://www.w3.org/1999/xlink" width="672" height="480" viewBox="0 0 2688 1920">
<defs>
  <clipPath id="clip370">
    <rect x="0" y="0" width="2688" height="1920"/>
  </clipPath>
</defs>
<path clip-path="url(#clip370)" d="M0 1920 L2688 1920 L2688 -4.26326e-14 L0 -4.26326e-14  Z" fill="#ffffff" fill-rule="evenodd" fill-opacity="1"/>
<defs>
  <clipPath id="clip371">
    <rect x="253" y="127" width="2388" height="1607"/>
  </clipPath>
</defs>
<path clip-path="url(#clip370)" d="M253.733 1734.12 L2640.76 1734.12 L2640.76 127.792 L253.733 127.792  Z" fill="#ffffff" fill-rule="evenodd" fill-opacity="1"/>
<polyline clip-path="url(#clip371)" style="stroke:#000000; stroke-linecap:round; stroke-linejoin:round; stroke-width:2; stroke-opacity:0.1; fill:none" points="321.29,1734.12 321.29,127.792 "/>
<polyline clip-path="url(#clip371)" style="stroke:#000000; stroke-linecap:round; stroke-linejoin:round; stroke-width:2; stroke-opacity:0.1; fill:none" points="884.267,1734.12 884.267,127.792 "/>
<polyline clip-path="url(#clip371)" style="stroke:#000000; stroke-linecap:round; stroke-linejoin:round; stroke-width:2; stroke-opacity:0.1; fill:none" points="1447.24,1734.12 1447.24,127.792 "/>
<polyline clip-path="url(#clip371)" style="stroke:#000000; stroke-linecap:round; stroke-linejoin:round; stroke-width:2; stroke-opacity:0.1; fill:none" points="2010.22,1734.12 2010.22,127.792 "/>
<polyline clip-path="url(#clip371)" style="stroke:#000000; stroke-linecap:round; stroke-linejoin:round; stroke-width:2; stroke-opacity:0.1; fill:none" points="2573.2,1734.12 2573.2,127.792 "/>
<polyline clip-path="url(#clip371)" style="stroke:#000000; stroke-linecap:round; stroke-linejoin:round; stroke-width:2; stroke-opacity:0.1; fill:none" points="253.733,1476.78 2640.76,1476.78 "/>
<polyline clip-path="url(#clip371)" style="stroke:#000000; stroke-linecap:round; stroke-linejoin:round; stroke-width:2; stroke-opacity:0.1; fill:none" points="253.733,1123.66 2640.76,1123.66 "/>
<polyline clip-path="url(#clip371)" style="stroke:#000000; stroke-linecap:round; stroke-linejoin:round; stroke-width:2; stroke-opacity:0.1; fill:none" points="253.733,770.53 2640.76,770.53 "/>
<polyline clip-path="url(#clip371)" style="stroke:#000000; stroke-linecap:round; stroke-linejoin:round; stroke-width:2; stroke-opacity:0.1; fill:none" points="253.733,417.406 2640.76,417.406 "/>
<polyline clip-path="url(#clip370)" style="stroke:#000000; stroke-linecap:round; stroke-linejoin:round; stroke-width:4; stroke-opacity:1; fill:none" points="253.733,1734.12 2640.76,1734.12 "/>
<polyline clip-path="url(#clip370)" style="stroke:#000000; stroke-linecap:round; stroke-linejoin:round; stroke-width:4; stroke-opacity:1; fill:none" points="321.29,1734.12 321.29,1715.22 "/>
<polyline clip-path="url(#clip370)" style="stroke:#000000; stroke-linecap:round; stroke-linejoin:round; stroke-width:4; stroke-opacity:1; fill:none" points="884.267,1734.12 884.267,1715.22 "/>
<polyline clip-path="url(#clip370)" style="stroke:#000000; stroke-linecap:round; stroke-linejoin:round; stroke-width:4; stroke-opacity:1; fill:none" points="1447.24,1734.12 1447.24,1715.22 "/>
<polyline clip-path="url(#clip370)" style="stroke:#000000; stroke-linecap:round; stroke-linejoin:round; stroke-width:4; stroke-opacity:1; fill:none" points="2010.22,1734.12 2010.22,1715.22 "/>
<polyline clip-path="url(#clip370)" style="stroke:#000000; stroke-linecap:round; stroke-linejoin:round; stroke-width:4; stroke-opacity:1; fill:none" points="2573.2,1734.12 2573.2,1715.22 "/>
<path clip-path="url(#clip370)" d="M321.29 1767.34 Q317.679 1767.34 315.85 1770.9 Q314.045 1774.45 314.045 1781.58 Q314.045 1788.68 315.85 1792.25 Q317.679 1795.79 321.29 1795.79 Q324.924 1795.79 326.73 1792.25 Q328.559 1788.68 328.559 1781.58 Q328.559 1774.45 326.73 1770.9 Q324.924 1767.34 321.29 1767.34 M321.29 1763.64 Q327.1 1763.64 330.156 1768.24 Q333.235 1772.83 333.235 1781.58 Q333.235 1790.3 330.156 1794.91 Q327.1 1799.49 321.29 1799.49 Q315.48 1799.49 312.401 1794.91 Q309.346 1790.3 309.346 1781.58 Q309.346 1772.83 312.401 1768.24 Q315.48 1763.64 321.29 1763.64 Z" fill="#000000" fill-rule="nonzero" fill-opacity="1" /><path clip-path="url(#clip370)" d="M858.955 1794.89 L866.594 1794.89 L866.594 1768.52 L858.284 1770.19 L858.284 1765.93 L866.548 1764.26 L871.223 1764.26 L871.223 1794.89 L878.862 1794.89 L878.862 1798.82 L858.955 1798.82 L858.955 1794.89 Z" fill="#000000" fill-rule="nonzero" fill-opacity="1" /><path clip-path="url(#clip370)" d="M898.307 1767.34 Q894.696 1767.34 892.867 1770.9 Q891.061 1774.45 891.061 1781.58 Q891.061 1788.68 892.867 1792.25 Q894.696 1795.79 898.307 1795.79 Q901.941 1795.79 903.746 1792.25 Q905.575 1788.68 905.575 1781.58 Q905.575 1774.45 903.746 1770.9 Q901.941 1767.34 898.307 1767.34 M898.307 1763.64 Q904.117 1763.64 907.172 1768.24 Q910.251 1772.83 910.251 1781.58 Q910.251 1790.3 907.172 1794.91 Q904.117 1799.49 898.307 1799.49 Q892.496 1799.49 889.418 1794.91 Q886.362 1790.3 886.362 1781.58 Q886.362 1772.83 889.418 1768.24 Q892.496 1763.64 898.307 1763.64 Z" fill="#000000" fill-rule="nonzero" fill-opacity="1" /><path clip-path="url(#clip370)" d="M1426.02 1794.89 L1442.34 1794.89 L1442.34 1798.82 L1420.39 1798.82 L1420.39 1794.89 Q1423.05 1792.13 1427.64 1787.5 Q1432.24 1782.85 1433.43 1781.51 Q1435.67 1778.98 1436.55 1777.25 Q1437.45 1775.49 1437.45 1773.8 Q1437.45 1771.04 1435.51 1769.31 Q1433.59 1767.57 1430.49 1767.57 Q1428.29 1767.57 1425.83 1768.34 Q1423.4 1769.1 1420.62 1770.65 L1420.62 1765.93 Q1423.45 1764.79 1425.9 1764.21 Q1428.36 1763.64 1430.39 1763.64 Q1435.76 1763.64 1438.96 1766.32 Q1442.15 1769.01 1442.15 1773.5 Q1442.15 1775.63 1441.34 1777.55 Q1440.55 1779.45 1438.45 1782.04 Q1437.87 1782.71 1434.77 1785.93 Q1431.67 1789.12 1426.02 1794.89 Z" fill="#000000" fill-rule="nonzero" fill-opacity="1" /><path clip-path="url(#clip370)" d="M1462.15 1767.34 Q1458.54 1767.34 1456.71 1770.9 Q1454.91 1774.45 1454.91 1781.58 Q1454.91 1788.68 1456.71 1792.25 Q1458.54 1795.79 1462.15 1795.79 Q1465.79 1795.79 1467.59 1792.25 Q1469.42 1788.68 1469.42 1781.58 Q1469.42 1774.45 1467.59 1770.9 Q1465.79 1767.34 1462.15 1767.34 M1462.15 1763.64 Q1467.96 1763.64 1471.02 1768.24 Q1474.1 1772.83 1474.1 1781.58 Q1474.1 1790.3 1471.02 1794.91 Q1467.96 1799.49 1462.15 1799.49 Q1456.34 1799.49 1453.26 1794.91 Q1450.21 1790.3 1450.21 1781.58 Q1450.21 1772.83 1453.26 1768.24 Q1456.34 1763.64 1462.15 1763.64 Z" fill="#000000" fill-rule="nonzero" fill-opacity="1" /><path clip-path="url(#clip370)" d="M1999.06 1780.19 Q2002.42 1780.9 2004.3 1783.17 Q2006.19 1785.44 2006.19 1788.77 Q2006.19 1793.89 2002.68 1796.69 Q1999.16 1799.49 1992.68 1799.49 Q1990.5 1799.49 1988.18 1799.05 Q1985.89 1798.64 1983.44 1797.78 L1983.44 1793.27 Q1985.38 1794.4 1987.7 1794.98 Q1990.01 1795.56 1992.54 1795.56 Q1996.93 1795.56 1999.23 1793.82 Q2001.54 1792.08 2001.54 1788.77 Q2001.54 1785.72 1999.39 1784.01 Q1997.26 1782.27 1993.44 1782.27 L1989.41 1782.27 L1989.41 1778.43 L1993.62 1778.43 Q1997.07 1778.43 1998.9 1777.06 Q2000.73 1775.67 2000.73 1773.08 Q2000.73 1770.42 1998.83 1769.01 Q1996.96 1767.57 1993.44 1767.57 Q1991.52 1767.57 1989.32 1767.99 Q1987.12 1768.4 1984.48 1769.28 L1984.48 1765.12 Q1987.14 1764.38 1989.46 1764.01 Q1991.8 1763.64 1993.86 1763.64 Q1999.18 1763.64 2002.28 1766.07 Q2005.38 1768.47 2005.38 1772.59 Q2005.38 1775.46 2003.74 1777.46 Q2002.1 1779.42 1999.06 1780.19 Z" fill="#000000" fill-rule="nonzero" fill-opacity="1" /><path clip-path="url(#clip370)" d="M2025.06 1767.34 Q2021.45 1767.34 2019.62 1770.9 Q2017.81 1774.45 2017.81 1781.58 Q2017.81 1788.68 2019.62 1792.25 Q2021.45 1795.79 2025.06 1795.79 Q2028.69 1795.79 2030.5 1792.25 Q2032.33 1788.68 2032.33 1781.58 Q2032.33 1774.45 2030.5 1770.9 Q2028.69 1767.34 2025.06 1767.34 M2025.06 1763.64 Q2030.87 1763.64 2033.93 1768.24 Q2037 1772.83 2037 1781.58 Q2037 1790.3 2033.93 1794.91 Q2030.87 1799.49 2025.06 1799.49 Q2019.25 1799.49 2016.17 1794.91 Q2013.12 1790.3 2013.12 1781.58 Q2013.12 1772.83 2016.17 1768.24 Q2019.25 1763.64 2025.06 1763.64 Z" fill="#000000" fill-rule="nonzero" fill-opacity="1" /><path clip-path="url(#clip370)" d="M2561.37 1768.34 L2549.56 1786.78 L2561.37 1786.78 L2561.37 1768.34 M2560.14 1764.26 L2566.02 1764.26 L2566.02 1786.78 L2570.95 1786.78 L2570.95 1790.67 L2566.02 1790.67 L2566.02 1798.82 L2561.37 1798.82 L2561.37 1790.67 L2545.77 1790.67 L2545.77 1786.16 L2560.14 1764.26 Z" fill="#000000" fill-rule="nonzero" fill-opacity="1" /><path clip-path="url(#clip370)" d="M2588.68 1767.34 Q2585.07 1767.34 2583.24 1770.9 Q2581.44 1774.45 2581.44 1781.58 Q2581.44 1788.68 2583.24 1792.25 Q2585.07 1795.79 2588.68 1795.79 Q2592.32 1795.79 2594.12 1792.25 Q2595.95 1788.68 2595.95 1781.58 Q2595.95 1774.45 2594.12 1770.9 Q2592.32 1767.34 2588.68 1767.34 M2588.68 1763.64 Q2594.49 1763.64 2597.55 1768.24 Q2600.63 1772.83 2600.63 1781.58 Q2600.63 1790.3 2597.55 1794.91 Q2594.49 1799.49 2588.68 1799.49 Q2582.87 1799.49 2579.8 1794.91 Q2576.74 1790.3 2576.74 1781.58 Q2576.74 1772.83 2579.8 1768.24 Q2582.87 1763.64 2588.68 1763.64 Z" fill="#000000" fill-rule="nonzero" fill-opacity="1" /><path clip-path="url(#clip370)" d="M1369.12 1835.78 L1409.32 1835.78 L1409.32 1841.19 L1392.45 1841.19 L1392.45 1883.3 L1385.99 1883.3 L1385.99 1841.19 L1369.12 1841.19 L1369.12 1835.78 Z" fill="#000000" fill-rule="nonzero" fill-opacity="1" /><path clip-path="url(#clip370)" d="M1413.27 1847.65 L1419.12 1847.65 L1419.12 1883.3 L1413.27 1883.3 L1413.27 1847.65 M1413.27 1833.78 L1419.12 1833.78 L1419.12 1841.19 L1413.27 1841.19 L1413.27 1833.78 Z" fill="#000000" fill-rule="nonzero" fill-opacity="1" /><path clip-path="url(#clip370)" d="M1459.13 1854.5 Q1461.33 1850.55 1464.38 1848.67 Q1467.44 1846.79 1471.58 1846.79 Q1477.15 1846.79 1480.17 1850.71 Q1483.19 1854.59 1483.19 1861.78 L1483.19 1883.3 L1477.31 1883.3 L1477.31 1861.98 Q1477.31 1856.85 1475.49 1854.37 Q1473.68 1851.89 1469.95 1851.89 Q1465.4 1851.89 1462.76 1854.91 Q1460.12 1857.93 1460.12 1863.15 L1460.12 1883.3 L1454.23 1883.3 L1454.23 1861.98 Q1454.23 1856.82 1452.42 1854.37 Q1450.6 1851.89 1446.81 1851.89 Q1442.33 1851.89 1439.69 1854.94 Q1437.04 1857.97 1437.04 1863.15 L1437.04 1883.3 L1431.16 1883.3 L1431.16 1847.65 L1437.04 1847.65 L1437.04 1853.19 Q1439.05 1849.91 1441.85 1848.35 Q1444.65 1846.79 1448.5 1846.79 Q1452.38 1846.79 1455.09 1848.77 Q1457.83 1850.74 1459.13 1854.5 Z" fill="#000000" fill-rule="nonzero" fill-opacity="1" /><path clip-path="url(#clip370)" d="M1525.37 1864.01 L1525.37 1866.88 L1498.44 1866.88 Q1498.82 1872.92 1502.07 1876.11 Q1505.35 1879.26 1511.17 1879.26 Q1514.55 1879.26 1517.7 1878.43 Q1520.88 1877.6 1524 1875.95 L1524 1881.49 Q1520.85 1882.82 1517.54 1883.52 Q1514.23 1884.22 1510.82 1884.22 Q1502.29 1884.22 1497.29 1879.26 Q1492.33 1874.29 1492.33 1865.83 Q1492.33 1857.07 1497.04 1851.95 Q1501.78 1846.79 1509.8 1846.79 Q1517 1846.79 1521.17 1851.44 Q1525.37 1856.06 1525.37 1864.01 M1519.51 1862.29 Q1519.45 1857.49 1516.81 1854.62 Q1514.2 1851.76 1509.87 1851.76 Q1504.97 1851.76 1502.01 1854.53 Q1499.08 1857.3 1498.63 1862.33 L1519.51 1862.29 Z" fill="#000000" fill-rule="nonzero" fill-opacity="1" /><polyline clip-path="url(#clip370)" style="stroke:#000000; stroke-linecap:round; stroke-linejoin:round; stroke-width:4; stroke-opacity:1; fill:none" points="253.733,1734.12 253.733,127.792 "/>
<polyline clip-path="url(#clip370)" style="stroke:#000000; stroke-linecap:round; stroke-linejoin:round; stroke-width:4; stroke-opacity:1; fill:none" points="253.733,1476.78 272.631,1476.78 "/>
<polyline clip-path="url(#clip370)" style="stroke:#000000; stroke-linecap:round; stroke-linejoin:round; stroke-width:4; stroke-opacity:1; fill:none" points="253.733,1123.66 272.631,1123.66 "/>
<polyline clip-path="url(#clip370)" style="stroke:#000000; stroke-linecap:round; stroke-linejoin:round; stroke-width:4; stroke-opacity:1; fill:none" points="253.733,770.53 272.631,770.53 "/>
<polyline clip-path="url(#clip370)" style="stroke:#000000; stroke-linecap:round; stroke-linejoin:round; stroke-width:4; stroke-opacity:1; fill:none" points="253.733,417.406 272.631,417.406 "/>
<path clip-path="url(#clip370)" d="M151.261 1490.12 L167.58 1490.12 L167.58 1494.06 L145.636 1494.06 L145.636 1490.12 Q148.298 1487.37 152.881 1482.74 Q157.487 1478.09 158.668 1476.75 Q160.913 1474.22 161.793 1472.49 Q162.696 1470.73 162.696 1469.04 Q162.696 1466.28 160.751 1464.55 Q158.83 1462.81 155.728 1462.81 Q153.529 1462.81 151.075 1463.57 Q148.645 1464.34 145.867 1465.89 L145.867 1461.17 Q148.691 1460.03 151.145 1459.45 Q153.599 1458.88 155.636 1458.88 Q161.006 1458.88 164.2 1461.56 Q167.395 1464.25 167.395 1468.74 Q167.395 1470.87 166.585 1472.79 Q165.798 1474.69 163.691 1477.28 Q163.112 1477.95 160.011 1481.17 Q156.909 1484.36 151.261 1490.12 Z" fill="#000000" fill-rule="nonzero" fill-opacity="1" /><path clip-path="url(#clip370)" d="M177.395 1488.18 L182.279 1488.18 L182.279 1494.06 L177.395 1494.06 L177.395 1488.18 Z" fill="#000000" fill-rule="nonzero" fill-opacity="1" /><path clip-path="url(#clip370)" d="M192.51 1459.5 L210.867 1459.5 L210.867 1463.44 L196.793 1463.44 L196.793 1471.91 Q197.811 1471.56 198.83 1471.4 Q199.848 1471.21 200.867 1471.21 Q206.654 1471.21 210.033 1474.38 Q213.413 1477.56 213.413 1482.97 Q213.413 1488.55 209.941 1491.65 Q206.469 1494.73 200.149 1494.73 Q197.973 1494.73 195.705 1494.36 Q193.459 1493.99 191.052 1493.25 L191.052 1488.55 Q193.135 1489.69 195.358 1490.24 Q197.58 1490.8 200.057 1490.8 Q204.061 1490.8 206.399 1488.69 Q208.737 1486.58 208.737 1482.97 Q208.737 1479.36 206.399 1477.25 Q204.061 1475.15 200.057 1475.15 Q198.182 1475.15 196.307 1475.56 Q194.455 1475.98 192.51 1476.86 L192.51 1459.5 Z" fill="#000000" fill-rule="nonzero" fill-opacity="1" /><path clip-path="url(#clip370)" d="M146.284 1106.38 L164.64 1106.38 L164.64 1110.31 L150.566 1110.31 L150.566 1118.78 Q151.585 1118.44 152.603 1118.27 Q153.622 1118.09 154.64 1118.09 Q160.427 1118.09 163.807 1121.26 Q167.186 1124.43 167.186 1129.85 Q167.186 1135.43 163.714 1138.53 Q160.242 1141.61 153.923 1141.61 Q151.747 1141.61 149.478 1141.24 Q147.233 1140.87 144.825 1140.13 L144.825 1135.43 Q146.909 1136.56 149.131 1137.12 Q151.353 1137.67 153.83 1137.67 Q157.835 1137.67 160.173 1135.56 Q162.51 1133.46 162.51 1129.85 Q162.51 1126.24 160.173 1124.13 Q157.835 1122.02 153.83 1122.02 Q151.955 1122.02 150.08 1122.44 Q148.228 1122.86 146.284 1123.74 L146.284 1106.38 Z" fill="#000000" fill-rule="nonzero" fill-opacity="1" /><path clip-path="url(#clip370)" d="M176.399 1135.06 L181.284 1135.06 L181.284 1140.94 L176.399 1140.94 L176.399 1135.06 Z" fill="#000000" fill-rule="nonzero" fill-opacity="1" /><path clip-path="url(#clip370)" d="M201.469 1109.45 Q197.858 1109.45 196.029 1113.02 Q194.223 1116.56 194.223 1123.69 Q194.223 1130.8 196.029 1134.36 Q197.858 1137.9 201.469 1137.9 Q205.103 1137.9 206.908 1134.36 Q208.737 1130.8 208.737 1123.69 Q208.737 1116.56 206.908 1113.02 Q205.103 1109.45 201.469 1109.45 M201.469 1105.75 Q207.279 1105.75 210.334 1110.36 Q213.413 1114.94 213.413 1123.69 Q213.413 1132.42 210.334 1137.02 Q207.279 1141.61 201.469 1141.61 Q195.658 1141.61 192.58 1137.02 Q189.524 1132.42 189.524 1123.69 Q189.524 1114.94 192.58 1110.36 Q195.658 1105.75 201.469 1105.75 Z" fill="#000000" fill-rule="nonzero" fill-opacity="1" /><path clip-path="url(#clip370)" d="M146.052 753.25 L168.274 753.25 L168.274 755.241 L155.728 787.81 L150.844 787.81 L162.649 757.186 L146.052 757.186 L146.052 753.25 Z" fill="#000000" fill-rule="nonzero" fill-opacity="1" /><path clip-path="url(#clip370)" d="M177.395 781.931 L182.279 781.931 L182.279 787.81 L177.395 787.81 L177.395 781.931 Z" fill="#000000" fill-rule="nonzero" fill-opacity="1" /><path clip-path="url(#clip370)" d="M192.51 753.25 L210.867 753.25 L210.867 757.186 L196.793 757.186 L196.793 765.658 Q197.811 765.311 198.83 765.149 Q199.848 764.963 200.867 764.963 Q206.654 764.963 210.033 768.135 Q213.413 771.306 213.413 776.723 Q213.413 782.301 209.941 785.403 Q206.469 788.482 200.149 788.482 Q197.973 788.482 195.705 788.111 Q193.459 787.741 191.052 787 L191.052 782.301 Q193.135 783.435 195.358 783.991 Q197.58 784.547 200.057 784.547 Q204.061 784.547 206.399 782.44 Q208.737 780.334 208.737 776.723 Q208.737 773.111 206.399 771.005 Q204.061 768.899 200.057 768.899 Q198.182 768.899 196.307 769.315 Q194.455 769.732 192.51 770.611 L192.51 753.25 Z" fill="#000000" fill-rule="nonzero" fill-opacity="1" /><path clip-path="url(#clip370)" d="M116.886 430.75 L124.525 430.75 L124.525 404.385 L116.214 406.052 L116.214 401.792 L124.478 400.126 L129.154 400.126 L129.154 430.75 L136.793 430.75 L136.793 434.686 L116.886 434.686 L116.886 430.75 Z" fill="#000000" fill-rule="nonzero" fill-opacity="1" /><path clip-path="url(#clip370)" d="M156.237 403.204 Q152.626 403.204 150.798 406.769 Q148.992 410.311 148.992 417.44 Q148.992 424.547 150.798 428.112 Q152.626 431.653 156.237 431.653 Q159.872 431.653 161.677 428.112 Q163.506 424.547 163.506 417.44 Q163.506 410.311 161.677 406.769 Q159.872 403.204 156.237 403.204 M156.237 399.501 Q162.048 399.501 165.103 404.107 Q168.182 408.69 168.182 417.44 Q168.182 426.167 165.103 430.774 Q162.048 435.357 156.237 435.357 Q150.427 435.357 147.349 430.774 Q144.293 426.167 144.293 417.44 Q144.293 408.69 147.349 404.107 Q150.427 399.501 156.237 399.501 Z" fill="#000000" fill-rule="nonzero" fill-opacity="1" /><path clip-path="url(#clip370)" d="M176.399 428.806 L181.284 428.806 L181.284 434.686 L176.399 434.686 L176.399 428.806 Z" fill="#000000" fill-rule="nonzero" fill-opacity="1" /><path clip-path="url(#clip370)" d="M201.469 403.204 Q197.858 403.204 196.029 406.769 Q194.223 410.311 194.223 417.44 Q194.223 424.547 196.029 428.112 Q197.858 431.653 201.469 431.653 Q205.103 431.653 206.908 428.112 Q208.737 424.547 208.737 417.44 Q208.737 410.311 206.908 406.769 Q205.103 403.204 201.469 403.204 M201.469 399.501 Q207.279 399.501 210.334 404.107 Q213.413 408.69 213.413 417.44 Q213.413 426.167 210.334 430.774 Q207.279 435.357 201.469 435.357 Q195.658 435.357 192.58 430.774 Q189.524 426.167 189.524 417.44 Q189.524 408.69 192.58 404.107 Q195.658 399.501 201.469 399.501 Z" fill="#000000" fill-rule="nonzero" fill-opacity="1" /><path clip-path="url(#clip370)" d="M14.1184 1198.76 L14.1184 1190.1 L53.8723 1169.03 L14.1184 1169.03 L14.1184 1162.79 L61.6384 1162.79 L61.6384 1171.45 L21.8846 1192.52 L61.6384 1192.52 L61.6384 1198.76 L14.1184 1198.76 Z" fill="#000000" fill-rule="nonzero" fill-opacity="1" /><path clip-path="url(#clip370)" d="M47.5702 1150.86 L25.9905 1150.86 L25.9905 1145 L47.3474 1145 Q52.4082 1145 54.9545 1143.03 Q57.4689 1141.05 57.4689 1137.11 Q57.4689 1132.37 54.4452 1129.63 Q51.4215 1126.86 46.2016 1126.86 L25.9905 1126.86 L25.9905 1121 L61.6384 1121 L61.6384 1126.86 L56.1639 1126.86 Q59.4104 1128.99 61.0019 1131.82 Q62.5615 1134.63 62.5615 1138.35 Q62.5615 1144.49 58.742 1147.68 Q54.9226 1150.86 47.5702 1150.86 M25.1311 1136.12 L25.1311 1136.12 Z" fill="#000000" fill-rule="nonzero" fill-opacity="1" /><path clip-path="url(#clip370)" d="M32.8336 1081.19 Q28.8869 1078.99 27.009 1075.93 Q25.1311 1072.88 25.1311 1068.74 Q25.1311 1063.17 29.046 1060.15 Q32.9291 1057.12 40.1224 1057.12 L61.6384 1057.12 L61.6384 1063.01 L40.3133 1063.01 Q35.1889 1063.01 32.7063 1064.83 Q30.2237 1066.64 30.2237 1070.36 Q30.2237 1074.92 33.2474 1077.56 Q36.2711 1080.2 41.491 1080.2 L61.6384 1080.2 L61.6384 1086.09 L40.3133 1086.09 Q35.1571 1086.09 32.7063 1087.9 Q30.2237 1089.72 30.2237 1093.5 Q30.2237 1097.99 33.2792 1100.63 Q36.3029 1103.27 41.491 1103.27 L61.6384 1103.27 L61.6384 1109.16 L25.9905 1109.16 L25.9905 1103.27 L31.5287 1103.27 Q28.2503 1101.27 26.6907 1098.47 Q25.1311 1095.67 25.1311 1091.82 Q25.1311 1087.93 27.1045 1085.23 Q29.0779 1082.49 32.8336 1081.19 Z" fill="#000000" fill-rule="nonzero" fill-opacity="1" /><path clip-path="url(#clip370)" d="M43.8463 1019.85 Q37.3851 1019.85 33.7248 1022.53 Q30.0327 1025.17 30.0327 1029.81 Q30.0327 1034.46 33.7248 1037.13 Q37.3851 1039.78 43.8463 1039.78 Q50.3075 1039.78 53.9996 1037.13 Q57.6599 1034.46 57.6599 1029.81 Q57.6599 1025.17 53.9996 1022.53 Q50.3075 1019.85 43.8463 1019.85 M31.4013 1039.78 Q28.2185 1037.93 26.6907 1035.13 Q25.1311 1032.3 25.1311 1028.38 Q25.1311 1021.89 30.2873 1017.85 Q35.4436 1013.77 43.8463 1013.77 Q52.249 1013.77 57.4052 1017.85 Q62.5615 1021.89 62.5615 1028.38 Q62.5615 1032.3 61.0337 1035.13 Q59.4741 1037.93 56.2912 1039.78 L61.6384 1039.78 L61.6384 1045.66 L12.1132 1045.66 L12.1132 1039.78 L31.4013 1039.78 Z" fill="#000000" fill-rule="nonzero" fill-opacity="1" /><path clip-path="url(#clip370)" d="M42.3504 973.573 L45.2149 973.573 L45.2149 1000.5 Q51.2623 1000.12 54.4452 996.871 Q57.5962 993.593 57.5962 987.768 Q57.5962 984.395 56.7687 981.244 Q55.9411 978.061 54.2861 974.942 L59.8242 974.942 Q61.161 978.093 61.8612 981.403 Q62.5615 984.713 62.5615 988.119 Q62.5615 996.649 57.5962 1001.65 Q52.631 1006.61 44.1646 1006.61 Q35.4117 1006.61 30.2873 1001.9 Q25.1311 997.158 25.1311 989.137 Q25.1311 981.944 29.7781 977.774 Q34.3932 973.573 42.3504 973.573 M40.6316 979.429 Q35.8255 979.493 32.9609 982.135 Q30.0964 984.745 30.0964 989.073 Q30.0964 993.975 32.8654 996.935 Q35.6345 999.863 40.6634 1000.31 L40.6316 979.429 Z" fill="#000000" fill-rule="nonzero" fill-opacity="1" /><path clip-path="url(#clip370)" d="M31.465 943.304 Q30.8921 944.291 30.6375 945.468 Q30.351 946.614 30.351 948.015 Q30.351 952.98 33.5975 955.653 Q36.8122 958.295 42.8596 958.295 L61.6384 958.295 L61.6384 964.184 L25.9905 964.184 L25.9905 958.295 L31.5287 958.295 Q28.2821 956.449 26.7225 953.489 Q25.1311 950.529 25.1311 946.296 Q25.1311 945.691 25.2266 944.959 Q25.2903 944.227 25.4494 943.336 L31.465 943.304 Z" fill="#000000" fill-rule="nonzero" fill-opacity="1" /><path clip-path="url(#clip370)" d="M25.9905 916.441 L25.9905 910.584 L61.6384 910.584 L61.6384 916.441 L25.9905 916.441 M12.1132 916.441 L12.1132 910.584 L19.5293 910.584 L19.5293 916.441 L12.1132 916.441 Z" fill="#000000" fill-rule="nonzero" fill-opacity="1" /><path clip-path="url(#clip370)" d="M40.1224 868.698 L61.6384 868.698 L61.6384 874.554 L40.3133 874.554 Q35.2526 874.554 32.7381 876.528 Q30.2237 878.501 30.2237 882.448 Q30.2237 887.19 33.2474 889.928 Q36.2711 892.665 41.491 892.665 L61.6384 892.665 L61.6384 898.553 L25.9905 898.553 L25.9905 892.665 L31.5287 892.665 Q28.314 890.564 26.7225 887.731 Q25.1311 884.867 25.1311 881.143 Q25.1311 875 28.9505 871.849 Q32.7381 868.698 40.1224 868.698 Z" fill="#000000" fill-rule="nonzero" fill-opacity="1" /><path clip-path="url(#clip370)" d="M12.1132 838.97 L16.983 838.97 L16.983 844.572 Q16.983 847.723 18.2562 848.964 Q19.5293 850.174 22.8395 850.174 L25.9905 850.174 L25.9905 840.53 L30.542 840.53 L30.542 850.174 L61.6384 850.174 L61.6384 856.062 L30.542 856.062 L30.542 861.664 L25.9905 861.664 L25.9905 856.062 L23.5079 856.062 Q17.5559 856.062 14.8505 853.293 Q12.1132 850.524 12.1132 844.508 L12.1132 838.97 Z" fill="#000000" fill-rule="nonzero" fill-opacity="1" /><path clip-path="url(#clip370)" d="M42.3504 803.577 L45.2149 803.577 L45.2149 830.504 Q51.2623 830.122 54.4452 826.875 Q57.5962 823.597 57.5962 817.772 Q57.5962 814.398 56.7687 811.247 Q55.9411 808.065 54.2861 804.945 L59.8242 804.945 Q61.161 808.096 61.8612 811.407 Q62.5615 814.717 62.5615 818.122 Q62.5615 826.652 57.5962 831.65 Q52.631 836.615 44.1646 836.615 Q35.4117 836.615 30.2873 831.904 Q25.1311 827.162 25.1311 819.141 Q25.1311 811.948 29.7781 807.778 Q34.3932 803.577 42.3504 803.577 M40.6316 809.433 Q35.8255 809.497 32.9609 812.139 Q30.0964 814.749 30.0964 819.077 Q30.0964 823.979 32.8654 826.939 Q35.6345 829.867 40.6634 830.313 L40.6316 809.433 Z" fill="#000000" fill-rule="nonzero" fill-opacity="1" /><path clip-path="url(#clip370)" d="M27.3591 768.311 L32.8336 768.311 Q31.465 770.793 30.7966 773.308 Q30.0964 775.79 30.0964 778.337 Q30.0964 784.034 33.7248 787.185 Q37.3214 790.336 43.8463 790.336 Q50.3711 790.336 53.9996 787.185 Q57.5962 784.034 57.5962 778.337 Q57.5962 775.79 56.9278 773.308 Q56.2276 770.793 54.859 768.311 L60.2698 768.311 Q61.4156 770.762 61.9886 773.403 Q62.5615 776.013 62.5615 778.973 Q62.5615 787.026 57.5007 791.768 Q52.44 796.511 43.8463 796.511 Q35.1253 796.511 30.1282 791.737 Q25.1311 786.93 25.1311 778.591 Q25.1311 775.886 25.704 773.308 Q26.2451 770.73 27.3591 768.311 Z" fill="#000000" fill-rule="nonzero" fill-opacity="1" /><path clip-path="url(#clip370)" d="M15.869 752.333 L25.9905 752.333 L25.9905 740.27 L30.542 740.27 L30.542 752.333 L49.8937 752.333 Q54.2542 752.333 55.4955 751.155 Q56.7368 749.946 56.7368 746.285 L56.7368 740.27 L61.6384 740.27 L61.6384 746.285 Q61.6384 753.065 59.124 755.643 Q56.5777 758.221 49.8937 758.221 L30.542 758.221 L30.542 762.518 L25.9905 762.518 L25.9905 758.221 L15.869 758.221 L15.869 752.333 Z" fill="#000000" fill-rule="nonzero" fill-opacity="1" /><path clip-path="url(#clip370)" d="M42.3504 702.076 L45.2149 702.076 L45.2149 729.003 Q51.2623 728.621 54.4452 725.374 Q57.5962 722.096 57.5962 716.271 Q57.5962 712.897 56.7687 709.746 Q55.9411 706.563 54.2861 703.444 L59.8242 703.444 Q61.161 706.595 61.8612 709.905 Q62.5615 713.216 62.5615 716.621 Q62.5615 725.151 57.5962 730.148 Q52.631 735.114 44.1646 735.114 Q35.4117 735.114 30.2873 730.403 Q25.1311 725.661 25.1311 717.64 Q25.1311 710.446 29.7781 706.277 Q34.3932 702.076 42.3504 702.076 M40.6316 707.932 Q35.8255 707.996 32.9609 710.637 Q30.0964 713.247 30.0964 717.576 Q30.0964 722.478 32.8654 725.438 Q35.6345 728.366 40.6634 728.812 L40.6316 707.932 Z" fill="#000000" fill-rule="nonzero" fill-opacity="1" /><path clip-path="url(#clip370)" d="M31.4013 669.006 L12.1132 669.006 L12.1132 663.149 L61.6384 663.149 L61.6384 669.006 L56.2912 669.006 Q59.4741 670.852 61.0337 673.685 Q62.5615 676.485 62.5615 680.432 Q62.5615 686.893 57.4052 690.967 Q52.249 695.01 43.8463 695.01 Q35.4436 695.01 30.2873 690.967 Q25.1311 686.893 25.1311 680.432 Q25.1311 676.485 26.6907 673.685 Q28.2185 670.852 31.4013 669.006 M43.8463 688.962 Q50.3075 688.962 53.9996 686.32 Q57.6599 683.647 57.6599 679 Q57.6599 674.353 53.9996 671.679 Q50.3075 669.006 43.8463 669.006 Q37.3851 669.006 33.7248 671.679 Q30.0327 674.353 30.0327 679 Q30.0327 683.647 33.7248 686.32 Q37.3851 688.962 43.8463 688.962 Z" fill="#000000" fill-rule="nonzero" fill-opacity="1" /><path clip-path="url(#clip370)" d="M575.085 16.7545 L575.085 25.383 Q570.953 21.5346 566.254 19.6307 Q561.595 17.7268 556.329 17.7268 Q545.959 17.7268 540.45 24.0867 Q534.94 30.4061 534.94 42.3968 Q534.94 54.3469 540.45 60.7069 Q545.959 67.0263 556.329 67.0263 Q561.595 67.0263 566.254 65.1223 Q570.953 63.2184 575.085 59.3701 L575.085 67.9175 Q570.791 70.8341 565.97 72.2924 Q561.19 73.7508 555.843 73.7508 Q542.11 73.7508 534.211 65.3654 Q526.312 56.9395 526.312 42.3968 Q526.312 27.8135 534.211 19.4281 Q542.11 11.0023 555.843 11.0023 Q561.271 11.0023 566.051 12.4606 Q570.872 13.8784 575.085 16.7545 Z" fill="#000000" fill-rule="nonzero" fill-opacity="1" /><path clip-path="url(#clip370)" d="M604.98 32.4315 Q598.985 32.4315 595.501 37.1306 Q592.018 41.7891 592.018 49.9314 Q592.018 58.0738 595.461 62.7728 Q598.945 67.4314 604.98 67.4314 Q610.935 67.4314 614.419 62.7323 Q617.903 58.0333 617.903 49.9314 Q617.903 41.8701 614.419 37.1711 Q610.935 32.4315 604.98 32.4315 M604.98 26.1121 Q614.703 26.1121 620.252 32.4315 Q625.802 38.7509 625.802 49.9314 Q625.802 61.0714 620.252 67.4314 Q614.703 73.7508 604.98 73.7508 Q595.218 73.7508 589.668 67.4314 Q584.159 61.0714 584.159 49.9314 Q584.159 38.7509 589.668 32.4315 Q595.218 26.1121 604.98 26.1121 Z" fill="#000000" fill-rule="nonzero" fill-opacity="1" /><path clip-path="url(#clip370)" d="M673.481 35.9153 Q676.276 30.8922 680.165 28.5022 Q684.054 26.1121 689.32 26.1121 Q696.409 26.1121 700.258 31.0947 Q704.106 36.0368 704.106 45.1919 L704.106 72.576 L696.612 72.576 L696.612 45.4349 Q696.612 38.913 694.303 35.7533 Q691.994 32.5936 687.254 32.5936 Q681.462 32.5936 678.099 36.4419 Q674.737 40.2903 674.737 46.9338 L674.737 72.576 L667.243 72.576 L667.243 45.4349 Q667.243 38.8725 664.934 35.7533 Q662.625 32.5936 657.804 32.5936 Q652.092 32.5936 648.73 36.4824 Q645.368 40.3308 645.368 46.9338 L645.368 72.576 L637.874 72.576 L637.874 27.2059 L645.368 27.2059 L645.368 34.2544 Q647.92 30.082 651.485 28.0971 Q655.05 26.1121 659.951 26.1121 Q664.893 26.1121 668.337 28.6237 Q671.82 31.1352 673.481 35.9153 Z" fill="#000000" fill-rule="nonzero" fill-opacity="1" /><path clip-path="url(#clip370)" d="M726.183 65.7705 L726.183 89.8329 L718.689 89.8329 L718.689 27.2059 L726.183 27.2059 L726.183 34.0924 Q728.533 30.0415 732.098 28.0971 Q735.703 26.1121 740.686 26.1121 Q748.95 26.1121 754.094 32.6746 Q759.279 39.2371 759.279 49.9314 Q759.279 60.6258 754.094 67.1883 Q748.95 73.7508 740.686 73.7508 Q735.703 73.7508 732.098 71.8063 Q728.533 69.8214 726.183 65.7705 M751.542 49.9314 Q751.542 41.7081 748.139 37.0496 Q744.777 32.3505 738.863 32.3505 Q732.949 32.3505 729.546 37.0496 Q726.183 41.7081 726.183 49.9314 Q726.183 58.1548 729.546 62.8538 Q732.949 67.5124 738.863 67.5124 Q744.777 67.5124 748.139 62.8538 Q751.542 58.1548 751.542 49.9314 Z" fill="#000000" fill-rule="nonzero" fill-opacity="1" /><path clip-path="url(#clip370)" d="M771.635 9.54393 L779.088 9.54393 L779.088 72.576 L771.635 72.576 L771.635 9.54393 Z" fill="#000000" fill-rule="nonzero" fill-opacity="1" /><path clip-path="url(#clip370)" d="M833.492 48.0275 L833.492 51.6733 L799.221 51.6733 Q799.707 59.3701 803.839 63.421 Q808.012 67.4314 815.425 67.4314 Q819.719 67.4314 823.729 66.3781 Q827.78 65.3249 831.75 63.2184 L831.75 70.267 Q827.74 71.9684 823.527 72.8596 Q819.314 73.7508 814.979 73.7508 Q804.123 73.7508 797.763 67.4314 Q791.444 61.1119 791.444 50.3365 Q791.444 39.1965 797.439 32.6746 Q803.475 26.1121 813.683 26.1121 Q822.838 26.1121 828.145 32.0264 Q833.492 37.9003 833.492 48.0275 M826.038 45.84 Q825.957 39.7232 822.595 36.0774 Q819.273 32.4315 813.764 32.4315 Q807.526 32.4315 803.758 35.9558 Q800.031 39.4801 799.464 45.8805 L826.038 45.84 Z" fill="#000000" fill-rule="nonzero" fill-opacity="1" /><path clip-path="url(#clip370)" d="M853.098 14.324 L853.098 27.2059 L868.451 27.2059 L868.451 32.9987 L853.098 32.9987 L853.098 57.6282 Q853.098 63.1779 854.597 64.7578 Q856.137 66.3376 860.795 66.3376 L868.451 66.3376 L868.451 72.576 L860.795 72.576 Q852.167 72.576 848.885 69.3758 Q845.604 66.1351 845.604 57.6282 L845.604 32.9987 L840.135 32.9987 L840.135 27.2059 L845.604 27.2059 L845.604 14.324 L853.098 14.324 Z" fill="#000000" fill-rule="nonzero" fill-opacity="1" /><path clip-path="url(#clip370)" d="M917.062 48.0275 L917.062 51.6733 L882.791 51.6733 Q883.278 59.3701 887.409 63.421 Q891.582 67.4314 898.995 67.4314 Q903.289 67.4314 907.299 66.3781 Q911.35 65.3249 915.32 63.2184 L915.32 70.267 Q911.31 71.9684 907.097 72.8596 Q902.884 73.7508 898.549 73.7508 Q887.693 73.7508 881.333 67.4314 Q875.014 61.1119 875.014 50.3365 Q875.014 39.1965 881.009 32.6746 Q887.045 26.1121 897.253 26.1121 Q906.408 26.1121 911.715 32.0264 Q917.062 37.9003 917.062 48.0275 M909.608 45.84 Q909.527 39.7232 906.165 36.0774 Q902.843 32.4315 897.334 32.4315 Q891.096 32.4315 887.328 35.9558 Q883.602 39.4801 883.035 45.8805 L909.608 45.84 Z" fill="#000000" fill-rule="nonzero" fill-opacity="1" /><path clip-path="url(#clip370)" d="M985.522 49.3643 Q985.522 41.2625 982.16 36.8065 Q978.838 32.3505 972.803 32.3505 Q966.807 32.3505 963.445 36.8065 Q960.123 41.2625 960.123 49.3643 Q960.123 57.4256 963.445 61.8816 Q966.807 66.3376 972.803 66.3376 Q978.838 66.3376 982.16 61.8816 Q985.522 57.4256 985.522 49.3643 M992.976 66.9452 Q992.976 78.5308 987.831 84.1616 Q982.687 89.8329 972.073 89.8329 Q968.144 89.8329 964.66 89.2252 Q961.176 88.6581 957.895 87.4428 L957.895 80.1917 Q961.176 81.9741 964.377 82.8248 Q967.577 83.6755 970.899 83.6755 Q978.231 83.6755 981.877 79.8271 Q985.522 76.0193 985.522 68.282 L985.522 64.5957 Q983.213 68.6061 979.608 70.5911 Q976.003 72.576 970.98 72.576 Q962.635 72.576 957.531 66.2161 Q952.427 59.8562 952.427 49.3643 Q952.427 38.832 957.531 32.472 Q962.635 26.1121 970.98 26.1121 Q976.003 26.1121 979.608 28.0971 Q983.213 30.082 985.522 34.0924 L985.522 27.2059 L992.976 27.2059 L992.976 66.9452 Z" fill="#000000" fill-rule="nonzero" fill-opacity="1" /><path clip-path="url(#clip370)" d="M1034.62 34.1734 Q1033.36 33.4443 1031.86 33.1202 Q1030.41 32.7556 1028.62 32.7556 Q1022.3 32.7556 1018.9 36.8875 Q1015.54 40.9789 1015.54 48.6757 L1015.54 72.576 L1008.05 72.576 L1008.05 27.2059 L1015.54 27.2059 L1015.54 34.2544 Q1017.89 30.1225 1021.66 28.1376 Q1025.42 26.1121 1030.81 26.1121 Q1031.58 26.1121 1032.51 26.2337 Q1033.44 26.3147 1034.58 26.5172 L1034.62 34.1734 Z" fill="#000000" fill-rule="nonzero" fill-opacity="1" /><path clip-path="url(#clip370)" d="M1063.06 49.7694 Q1054.02 49.7694 1050.54 51.8354 Q1047.06 53.9013 1047.06 58.8839 Q1047.06 62.8538 1049.65 65.2034 Q1052.28 67.5124 1056.78 67.5124 Q1062.98 67.5124 1066.7 63.1374 Q1070.47 58.7219 1070.47 51.4303 L1070.47 49.7694 L1063.06 49.7694 M1077.92 46.6907 L1077.92 72.576 L1070.47 72.576 L1070.47 65.6895 Q1067.92 69.8214 1064.11 71.8063 Q1060.3 73.7508 1054.79 73.7508 Q1047.83 73.7508 1043.69 69.8619 Q1039.6 65.9325 1039.6 59.3701 Q1039.6 51.7138 1044.71 47.825 Q1049.85 43.9361 1060.02 43.9361 L1070.47 43.9361 L1070.47 43.2069 Q1070.47 38.0623 1067.07 35.2672 Q1063.7 32.4315 1057.59 32.4315 Q1053.7 32.4315 1050.01 33.3632 Q1046.33 34.295 1042.92 36.1584 L1042.92 29.2718 Q1047.02 27.692 1050.86 26.9223 Q1054.71 26.1121 1058.36 26.1121 Q1068.2 26.1121 1073.06 31.2163 Q1077.92 36.3204 1077.92 46.6907 Z" fill="#000000" fill-rule="nonzero" fill-opacity="1" /><path clip-path="url(#clip370)" d="M1100.49 65.7705 L1100.49 89.8329 L1092.99 89.8329 L1092.99 27.2059 L1100.49 27.2059 L1100.49 34.0924 Q1102.84 30.0415 1106.4 28.0971 Q1110.01 26.1121 1114.99 26.1121 Q1123.25 26.1121 1128.4 32.6746 Q1133.58 39.2371 1133.58 49.9314 Q1133.58 60.6258 1128.4 67.1883 Q1123.25 73.7508 1114.99 73.7508 Q1110.01 73.7508 1106.4 71.8063 Q1102.84 69.8214 1100.49 65.7705 M1125.85 49.9314 Q1125.85 41.7081 1122.44 37.0496 Q1119.08 32.3505 1113.17 32.3505 Q1107.25 32.3505 1103.85 37.0496 Q1100.49 41.7081 1100.49 49.9314 Q1100.49 58.1548 1103.85 62.8538 Q1107.25 67.5124 1113.17 67.5124 Q1119.08 67.5124 1122.44 62.8538 Q1125.85 58.1548 1125.85 49.9314 Z" fill="#000000" fill-rule="nonzero" fill-opacity="1" /><path clip-path="url(#clip370)" d="M1183.65 45.1919 L1183.65 72.576 L1176.2 72.576 L1176.2 45.4349 Q1176.2 38.994 1173.69 35.7938 Q1171.18 32.5936 1166.15 32.5936 Q1160.12 32.5936 1156.63 36.4419 Q1153.15 40.2903 1153.15 46.9338 L1153.15 72.576 L1145.65 72.576 L1145.65 9.54393 L1153.15 9.54393 L1153.15 34.2544 Q1155.82 30.163 1159.43 28.1376 Q1163.07 26.1121 1167.81 26.1121 Q1175.63 26.1121 1179.64 30.9732 Q1183.65 35.7938 1183.65 45.1919 Z" fill="#000000" fill-rule="nonzero" fill-opacity="1" /><path clip-path="url(#clip370)" d="M1225.21 12.096 L1233.4 12.096 L1233.4 37.6572 L1260.54 12.096 L1271.07 12.096 L1241.05 40.2903 L1273.22 72.576 L1262.44 72.576 L1233.4 43.45 L1233.4 72.576 L1225.21 72.576 L1225.21 12.096 Z" fill="#000000" fill-rule="nonzero" fill-opacity="1" /><path clip-path="url(#clip370)" d="M1277.23 38.7509 L1297.89 38.7509 L1297.89 42.5993 L1282.05 42.5993 L1282.05 50.8632 Q1283.18 50.4986 1284.36 50.3365 Q1285.49 50.1745 1286.63 50.1745 Q1293.15 50.1745 1296.96 53.2937 Q1300.76 56.3724 1300.76 61.6791 Q1300.76 67.1478 1296.83 70.186 Q1292.95 73.1836 1285.82 73.1836 Q1283.39 73.1836 1280.83 72.8191 Q1278.28 72.4545 1275.61 71.7253 L1275.61 67.1478 Q1277.92 68.2415 1280.43 68.8087 Q1282.94 69.3353 1285.73 69.3353 Q1290.23 69.3353 1292.86 67.2693 Q1295.5 65.2034 1295.5 61.6791 Q1295.5 58.1548 1292.86 56.0888 Q1290.23 54.0229 1285.73 54.0229 Q1283.63 54.0229 1281.52 54.4279 Q1279.42 54.833 1277.23 55.6837 L1277.23 38.7509 Z" fill="#000000" fill-rule="nonzero" fill-opacity="1" /><path clip-path="url(#clip370)" d="M1327.82 45.1514 Q1325.8 41.6676 1321.71 41.6676 Q1317.62 41.6676 1315.59 45.1514 Q1313.52 48.6352 1313.52 55.6027 Q1313.52 62.6108 1315.59 66.0946 Q1317.62 69.5783 1321.71 69.5783 Q1325.8 69.5783 1327.82 66.0946 Q1329.89 62.6108 1329.89 55.6027 Q1329.89 48.6352 1327.82 45.1514 M1321.71 38.0623 Q1328.23 38.0623 1331.67 42.5588 Q1335.12 47.0553 1335.12 55.6027 Q1335.12 64.1906 1331.67 68.6871 Q1328.23 73.1836 1321.71 73.1836 Q1315.14 73.1836 1311.7 68.6871 Q1308.26 64.1906 1308.26 55.6027 Q1308.26 47.0553 1311.7 42.5588 Q1315.14 38.0623 1321.71 38.0623 Z" fill="#000000" fill-rule="nonzero" fill-opacity="1" /><path clip-path="url(#clip370)" d="M1347.71 62.2867 L1356.26 62.2867 L1356.26 72.576 L1347.71 72.576 L1347.71 62.2867 M1347.71 29.6769 L1356.26 29.6769 L1356.26 39.9662 L1347.71 39.9662 L1347.71 29.6769 Z" fill="#000000" fill-rule="nonzero" fill-opacity="1" /><path clip-path="url(#clip370)" d="M1400.13 27.2059 L1407.59 27.2059 L1407.59 72.576 L1400.13 72.576 L1400.13 27.2059 M1400.13 9.54393 L1407.59 9.54393 L1407.59 18.9825 L1400.13 18.9825 L1400.13 9.54393 Z" fill="#000000" fill-rule="nonzero" fill-opacity="1" /><path clip-path="url(#clip370)" d="M1460.9 45.1919 L1460.9 72.576 L1453.44 72.576 L1453.44 45.4349 Q1453.44 38.994 1450.93 35.7938 Q1448.42 32.5936 1443.4 32.5936 Q1437.36 32.5936 1433.88 36.4419 Q1430.39 40.2903 1430.39 46.9338 L1430.39 72.576 L1422.9 72.576 L1422.9 27.2059 L1430.39 27.2059 L1430.39 34.2544 Q1433.07 30.163 1436.67 28.1376 Q1440.32 26.1121 1445.06 26.1121 Q1452.88 26.1121 1456.89 30.9732 Q1460.9 35.7938 1460.9 45.1919 Z" fill="#000000" fill-rule="nonzero" fill-opacity="1" /><path clip-path="url(#clip370)" d="M1505.62 34.0924 L1505.62 9.54393 L1513.07 9.54393 L1513.07 72.576 L1505.62 72.576 L1505.62 65.7705 Q1503.27 69.8214 1499.66 71.8063 Q1496.1 73.7508 1491.08 73.7508 Q1482.85 73.7508 1477.67 67.1883 Q1472.52 60.6258 1472.52 49.9314 Q1472.52 39.2371 1477.67 32.6746 Q1482.85 26.1121 1491.08 26.1121 Q1496.1 26.1121 1499.66 28.0971 Q1503.27 30.0415 1505.62 34.0924 M1480.22 49.9314 Q1480.22 58.1548 1483.58 62.8538 Q1486.98 67.5124 1492.9 67.5124 Q1498.81 67.5124 1502.22 62.8538 Q1505.62 58.1548 1505.62 49.9314 Q1505.62 41.7081 1502.22 37.0496 Q1498.81 32.3505 1492.9 32.3505 Q1486.98 32.3505 1483.58 37.0496 Q1480.22 41.7081 1480.22 49.9314 Z" fill="#000000" fill-rule="nonzero" fill-opacity="1" /><path clip-path="url(#clip370)" d="M1528.42 27.2059 L1535.88 27.2059 L1535.88 72.576 L1528.42 72.576 L1528.42 27.2059 M1528.42 9.54393 L1535.88 9.54393 L1535.88 18.9825 L1528.42 18.9825 L1528.42 9.54393 Z" fill="#000000" fill-rule="nonzero" fill-opacity="1" /><path clip-path="url(#clip370)" d="M1546.13 27.2059 L1554.03 27.2059 L1568.2 65.2844 L1582.38 27.2059 L1590.28 27.2059 L1573.27 72.576 L1563.14 72.576 L1546.13 27.2059 Z" fill="#000000" fill-rule="nonzero" fill-opacity="1" /><path clip-path="url(#clip370)" d="M1600.57 27.2059 L1608.02 27.2059 L1608.02 72.576 L1600.57 72.576 L1600.57 27.2059 M1600.57 9.54393 L1608.02 9.54393 L1608.02 18.9825 L1600.57 18.9825 L1600.57 9.54393 Z" fill="#000000" fill-rule="nonzero" fill-opacity="1" /><path clip-path="url(#clip370)" d="M1653.48 34.0924 L1653.48 9.54393 L1660.93 9.54393 L1660.93 72.576 L1653.48 72.576 L1653.48 65.7705 Q1651.13 69.8214 1647.52 71.8063 Q1643.96 73.7508 1638.93 73.7508 Q1630.71 73.7508 1625.52 67.1883 Q1620.38 60.6258 1620.38 49.9314 Q1620.38 39.2371 1625.52 32.6746 Q1630.71 26.1121 1638.93 26.1121 Q1643.96 26.1121 1647.52 28.0971 Q1651.13 30.0415 1653.48 34.0924 M1628.08 49.9314 Q1628.08 58.1548 1631.44 62.8538 Q1634.84 67.5124 1640.76 67.5124 Q1646.67 67.5124 1650.07 62.8538 Q1653.48 58.1548 1653.48 49.9314 Q1653.48 41.7081 1650.07 37.0496 Q1646.67 32.3505 1640.76 32.3505 Q1634.84 32.3505 1631.44 37.0496 Q1628.08 41.7081 1628.08 49.9314 Z" fill="#000000" fill-rule="nonzero" fill-opacity="1" /><path clip-path="url(#clip370)" d="M1675.51 54.671 L1675.51 27.2059 L1682.97 27.2059 L1682.97 54.3874 Q1682.97 60.8284 1685.48 64.0691 Q1687.99 67.2693 1693.01 67.2693 Q1699.05 67.2693 1702.53 63.421 Q1706.06 59.5726 1706.06 52.9291 L1706.06 27.2059 L1713.51 27.2059 L1713.51 72.576 L1706.06 72.576 L1706.06 65.6084 Q1703.34 69.7404 1699.74 71.7658 Q1696.17 73.7508 1691.43 73.7508 Q1683.61 73.7508 1679.56 68.8897 Q1675.51 64.0286 1675.51 54.671 M1694.27 26.1121 L1694.27 26.1121 Z" fill="#000000" fill-rule="nonzero" fill-opacity="1" /><path clip-path="url(#clip370)" d="M1749.48 49.7694 Q1740.45 49.7694 1736.97 51.8354 Q1733.48 53.9013 1733.48 58.8839 Q1733.48 62.8538 1736.07 65.2034 Q1738.71 67.5124 1743.2 67.5124 Q1749.4 67.5124 1753.13 63.1374 Q1756.9 58.7219 1756.9 51.4303 L1756.9 49.7694 L1749.48 49.7694 M1764.35 46.6907 L1764.35 72.576 L1756.9 72.576 L1756.9 65.6895 Q1754.34 69.8214 1750.54 71.8063 Q1746.73 73.7508 1741.22 73.7508 Q1734.25 73.7508 1730.12 69.8619 Q1726.03 65.9325 1726.03 59.3701 Q1726.03 51.7138 1731.13 47.825 Q1736.28 43.9361 1746.44 43.9361 L1756.9 43.9361 L1756.9 43.2069 Q1756.9 38.0623 1753.49 35.2672 Q1750.13 32.4315 1744.01 32.4315 Q1740.12 32.4315 1736.44 33.3632 Q1732.75 34.295 1729.35 36.1584 L1729.35 29.2718 Q1733.44 27.692 1737.29 26.9223 Q1741.14 26.1121 1744.78 26.1121 Q1754.63 26.1121 1759.49 31.2163 Q1764.35 36.3204 1764.35 46.6907 Z" fill="#000000" fill-rule="nonzero" fill-opacity="1" /><path clip-path="url(#clip370)" d="M1779.7 9.54393 L1787.16 9.54393 L1787.16 72.576 L1779.7 72.576 L1779.7 9.54393 Z" fill="#000000" fill-rule="nonzero" fill-opacity="1" /><path clip-path="url(#clip370)" d="M1823.78 27.2059 L1831.68 27.2059 L1845.85 65.2844 L1860.03 27.2059 L1867.93 27.2059 L1850.92 72.576 L1840.79 72.576 L1823.78 27.2059 Z" fill="#000000" fill-rule="nonzero" fill-opacity="1" /><path clip-path="url(#clip370)" d="M1907.14 28.5427 L1907.14 35.5912 Q1903.98 33.9709 1900.58 33.1607 Q1897.18 32.3505 1893.53 32.3505 Q1887.98 32.3505 1885.19 34.0519 Q1882.43 35.7533 1882.43 39.156 Q1882.43 41.7486 1884.42 43.2475 Q1886.4 44.7058 1892.4 46.0426 L1894.95 46.6097 Q1902.89 48.3111 1906.21 51.4303 Q1909.57 54.509 1909.57 60.0587 Q1909.57 66.3781 1904.55 70.0644 Q1899.57 73.7508 1890.82 73.7508 Q1887.17 73.7508 1883.2 73.0216 Q1879.27 72.3329 1874.9 70.9151 L1874.9 63.2184 Q1879.03 65.3654 1883.04 66.4591 Q1887.05 67.5124 1890.98 67.5124 Q1896.25 67.5124 1899.08 65.73 Q1901.92 63.9071 1901.92 60.6258 Q1901.92 57.5877 1899.85 55.9673 Q1897.83 54.3469 1890.9 52.8481 L1888.31 52.2405 Q1881.38 50.7821 1878.3 47.7845 Q1875.22 44.7463 1875.22 39.4801 Q1875.22 33.0797 1879.76 29.5959 Q1884.3 26.1121 1892.64 26.1121 Q1896.77 26.1121 1900.42 26.7198 Q1904.06 27.3274 1907.14 28.5427 Z" fill="#000000" fill-rule="nonzero" fill-opacity="1" /><path clip-path="url(#clip370)" d="M1955.03 65.7705 L1955.03 89.8329 L1947.53 89.8329 L1947.53 27.2059 L1955.03 27.2059 L1955.03 34.0924 Q1957.37 30.0415 1960.94 28.0971 Q1964.54 26.1121 1969.53 26.1121 Q1977.79 26.1121 1982.94 32.6746 Q1988.12 39.2371 1988.12 49.9314 Q1988.12 60.6258 1982.94 67.1883 Q1977.79 73.7508 1969.53 73.7508 Q1964.54 73.7508 1960.94 71.8063 Q1957.37 69.8214 1955.03 65.7705 M1980.38 49.9314 Q1980.38 41.7081 1976.98 37.0496 Q1973.62 32.3505 1967.7 32.3505 Q1961.79 32.3505 1958.39 37.0496 Q1955.03 41.7081 1955.03 49.9314 Q1955.03 58.1548 1958.39 62.8538 Q1961.79 67.5124 1967.7 67.5124 Q1973.62 67.5124 1976.98 62.8538 Q1980.38 58.1548 1980.38 49.9314 Z" fill="#000000" fill-rule="nonzero" fill-opacity="1" /><path clip-path="url(#clip370)" d="M2021.1 49.7694 Q2012.06 49.7694 2008.58 51.8354 Q2005.09 53.9013 2005.09 58.8839 Q2005.09 62.8538 2007.69 65.2034 Q2010.32 67.5124 2014.82 67.5124 Q2021.01 67.5124 2024.74 63.1374 Q2028.51 58.7219 2028.51 51.4303 L2028.51 49.7694 L2021.1 49.7694 M2035.96 46.6907 L2035.96 72.576 L2028.51 72.576 L2028.51 65.6895 Q2025.96 69.8214 2022.15 71.8063 Q2018.34 73.7508 2012.83 73.7508 Q2005.86 73.7508 2001.73 69.8619 Q1997.64 65.9325 1997.64 59.3701 Q1997.64 51.7138 2002.74 47.825 Q2007.89 43.9361 2018.06 43.9361 L2028.51 43.9361 L2028.51 43.2069 Q2028.51 38.0623 2025.11 35.2672 Q2021.74 32.4315 2015.63 32.4315 Q2011.74 32.4315 2008.05 33.3632 Q2004.37 34.295 2000.96 36.1584 L2000.96 29.2718 Q2005.05 27.692 2008.9 26.9223 Q2012.75 26.1121 2016.4 26.1121 Q2026.24 26.1121 2031.1 31.2163 Q2035.96 36.3204 2035.96 46.6907 Z" fill="#000000" fill-rule="nonzero" fill-opacity="1" /><path clip-path="url(#clip370)" d="M2051.32 27.2059 L2058.77 27.2059 L2058.77 72.576 L2051.32 72.576 L2051.32 27.2059 M2051.32 9.54393 L2058.77 9.54393 L2058.77 18.9825 L2051.32 18.9825 L2051.32 9.54393 Z" fill="#000000" fill-rule="nonzero" fill-opacity="1" /><path clip-path="url(#clip370)" d="M2100.66 34.1734 Q2099.4 33.4443 2097.9 33.1202 Q2096.44 32.7556 2094.66 32.7556 Q2088.34 32.7556 2084.94 36.8875 Q2081.58 40.9789 2081.58 48.6757 L2081.58 72.576 L2074.08 72.576 L2074.08 27.2059 L2081.58 27.2059 L2081.58 34.2544 Q2083.93 30.1225 2087.69 28.1376 Q2091.46 26.1121 2096.85 26.1121 Q2097.62 26.1121 2098.55 26.2337 Q2099.48 26.3147 2100.61 26.5172 L2100.66 34.1734 Z" fill="#000000" fill-rule="nonzero" fill-opacity="1" /><path clip-path="url(#clip370)" d="M2099.4 46.5287 L2121.23 46.5287 L2121.23 53.1722 L2099.4 53.1722 L2099.4 46.5287 Z" fill="#000000" fill-rule="nonzero" fill-opacity="1" /><path clip-path="url(#clip370)" d="M2165.67 49.9314 Q2165.67 41.7081 2162.27 37.0496 Q2158.91 32.3505 2152.99 32.3505 Q2147.08 32.3505 2143.68 37.0496 Q2140.31 41.7081 2140.31 49.9314 Q2140.31 58.1548 2143.68 62.8538 Q2147.08 67.5124 2152.99 67.5124 Q2158.91 67.5124 2162.27 62.8538 Q2165.67 58.1548 2165.67 49.9314 M2140.31 34.0924 Q2142.66 30.0415 2146.23 28.0971 Q2149.83 26.1121 2154.82 26.1121 Q2163.08 26.1121 2168.22 32.6746 Q2173.41 39.2371 2173.41 49.9314 Q2173.41 60.6258 2168.22 67.1883 Q2163.08 73.7508 2154.82 73.7508 Q2149.83 73.7508 2146.23 71.8063 Q2142.66 69.8214 2140.31 65.7705 L2140.31 72.576 L2132.82 72.576 L2132.82 9.54393 L2140.31 9.54393 L2140.31 34.0924 Z" fill="#000000" fill-rule="nonzero" fill-opacity="1" /><path clip-path="url(#clip370)" d="M2206.38 49.7694 Q2197.35 49.7694 2193.87 51.8354 Q2190.38 53.9013 2190.38 58.8839 Q2190.38 62.8538 2192.98 65.2034 Q2195.61 67.5124 2200.11 67.5124 Q2206.3 67.5124 2210.03 63.1374 Q2213.8 58.7219 2213.8 51.4303 L2213.8 49.7694 L2206.38 49.7694 M2221.25 46.6907 L2221.25 72.576 L2213.8 72.576 L2213.8 65.6895 Q2211.24 69.8214 2207.44 71.8063 Q2203.63 73.7508 2198.12 73.7508 Q2191.15 73.7508 2187.02 69.8619 Q2182.93 65.9325 2182.93 59.3701 Q2182.93 51.7138 2188.03 47.825 Q2193.18 43.9361 2203.35 43.9361 L2213.8 43.9361 L2213.8 43.2069 Q2213.8 38.0623 2210.39 35.2672 Q2207.03 32.4315 2200.92 32.4315 Q2197.03 32.4315 2193.34 33.3632 Q2189.65 34.295 2186.25 36.1584 L2186.25 29.2718 Q2190.34 27.692 2194.19 26.9223 Q2198.04 26.1121 2201.68 26.1121 Q2211.53 26.1121 2216.39 31.2163 Q2221.25 36.3204 2221.25 46.6907 Z" fill="#000000" fill-rule="nonzero" fill-opacity="1" /><path clip-path="url(#clip370)" d="M2265.53 28.5427 L2265.53 35.5912 Q2262.37 33.9709 2258.96 33.1607 Q2255.56 32.3505 2251.92 32.3505 Q2246.37 32.3505 2243.57 34.0519 Q2240.82 35.7533 2240.82 39.156 Q2240.82 41.7486 2242.8 43.2475 Q2244.79 44.7058 2250.78 46.0426 L2253.33 46.6097 Q2261.27 48.3111 2264.6 51.4303 Q2267.96 54.509 2267.96 60.0587 Q2267.96 66.3781 2262.93 70.0644 Q2257.95 73.7508 2249.2 73.7508 Q2245.56 73.7508 2241.59 73.0216 Q2237.66 72.3329 2233.28 70.9151 L2233.28 63.2184 Q2237.41 65.3654 2241.42 66.4591 Q2245.43 67.5124 2249.36 67.5124 Q2254.63 67.5124 2257.47 65.73 Q2260.3 63.9071 2260.3 60.6258 Q2260.3 57.5877 2258.24 55.9673 Q2256.21 54.3469 2249.28 52.8481 L2246.69 52.2405 Q2239.76 50.7821 2236.68 47.7845 Q2233.61 44.7463 2233.61 39.4801 Q2233.61 33.0797 2238.14 29.5959 Q2242.68 26.1121 2251.02 26.1121 Q2255.16 26.1121 2258.8 26.7198 Q2262.45 27.3274 2265.53 28.5427 Z" fill="#000000" fill-rule="nonzero" fill-opacity="1" /><path clip-path="url(#clip370)" d="M2318.63 48.0275 L2318.63 51.6733 L2284.36 51.6733 Q2284.85 59.3701 2288.98 63.421 Q2293.15 67.4314 2300.57 67.4314 Q2304.86 67.4314 2308.87 66.3781 Q2312.92 65.3249 2316.89 63.2184 L2316.89 70.267 Q2312.88 71.9684 2308.67 72.8596 Q2304.46 73.7508 2300.12 73.7508 Q2289.27 73.7508 2282.91 67.4314 Q2276.59 61.1119 2276.59 50.3365 Q2276.59 39.1965 2282.58 32.6746 Q2288.62 26.1121 2298.83 26.1121 Q2307.98 26.1121 2313.29 32.0264 Q2318.63 37.9003 2318.63 48.0275 M2311.18 45.84 Q2311.1 39.7232 2307.74 36.0774 Q2304.42 32.4315 2298.91 32.4315 Q2292.67 32.4315 2288.9 35.9558 Q2285.17 39.4801 2284.61 45.8805 L2311.18 45.84 Z" fill="#000000" fill-rule="nonzero" fill-opacity="1" /><path clip-path="url(#clip370)" d="M2360.72 34.0924 L2360.72 9.54393 L2368.18 9.54393 L2368.18 72.576 L2360.72 72.576 L2360.72 65.7705 Q2358.37 69.8214 2354.77 71.8063 Q2351.2 73.7508 2346.18 73.7508 Q2337.96 73.7508 2332.77 67.1883 Q2327.63 60.6258 2327.63 49.9314 Q2327.63 39.2371 2332.77 32.6746 Q2337.96 26.1121 2346.18 26.1121 Q2351.2 26.1121 2354.77 28.0971 Q2358.37 30.0415 2360.72 34.0924 M2335.32 49.9314 Q2335.32 58.1548 2338.69 62.8538 Q2342.09 67.5124 2348 67.5124 Q2353.92 67.5124 2357.32 62.8538 Q2360.72 58.1548 2360.72 49.9314 Q2360.72 41.7081 2357.32 37.0496 Q2353.92 32.3505 2348 32.3505 Q2342.09 32.3505 2338.69 37.0496 Q2335.32 41.7081 2335.32 49.9314 Z" fill="#000000" fill-rule="nonzero" fill-opacity="1" /><polyline clip-path="url(#clip371)" style="stroke:#ff0000; stroke-linecap:round; stroke-linejoin:round; stroke-width:8; stroke-opacity:1; fill:none" stroke-dasharray="32, 20" points="321.29,1688.65 335.365,1683.45 349.439,1678.08 363.514,1672.53 377.588,1666.81 391.662,1660.9 405.737,1654.81 419.811,1648.52 433.886,1642.03 447.96,1635.34 462.035,1628.44 476.109,1621.32 490.183,1613.99 504.258,1606.43 518.332,1598.63 532.407,1590.61 546.481,1582.34 560.556,1573.83 574.63,1565.07 588.704,1556.05 602.779,1546.77 616.853,1537.22 630.928,1527.4 645.002,1517.31 659.077,1506.93 673.151,1496.27 687.225,1485.32 701.3,1474.08 715.374,1462.55 729.449,1450.71 743.523,1438.57 757.598,1426.12 771.672,1413.36 785.746,1400.29 799.821,1386.91 813.895,1373.21 827.97,1359.19 842.044,1344.86 856.118,1330.21 870.193,1315.25 884.267,1299.97 898.342,1284.37 912.416,1268.46 926.491,1252.24 940.565,1235.72 954.639,1218.89 968.714,1201.76 982.788,1184.35 996.863,1166.64 1010.94,1148.66 1025.01,1130.4 1039.09,1111.88 1053.16,1093.11 1067.23,1074.09 1081.31,1054.84 1095.38,1035.37 1109.46,1015.69 1123.53,995.818 1137.61,975.762 1151.68,955.538 1165.76,935.162 1179.83,914.651 1193.9,894.026 1207.98,873.304 1222.05,852.506 1236.13,831.651 1250.2,810.76 1264.28,789.853 1278.35,768.952 1292.43,748.077 1306.5,727.251 1320.57,706.495 1334.65,685.833 1348.72,665.287 1362.8,644.881 1376.87,624.638 1390.95,604.583 1405.02,584.74 1419.1,565.134 1433.17,545.79 1447.24,526.733 1461.32,507.98 1475.39,489.556 1489.47,471.485 1503.54,453.79 1517.62,436.494 1531.69,419.619 1545.77,403.184 1559.84,387.209 1573.91,371.712 1587.99,356.712 1602.06,342.224 1616.14,328.264 1630.21,314.846 1644.29,301.985 1658.36,289.691 1672.44,277.978 1686.51,266.855 1700.58,256.332 1714.66,246.418 1728.73,237.12 1742.81,228.444 1756.88,220.397 1770.96,212.983 1785.03,206.205 1799.11,200.067 1813.18,194.57 1827.25,189.713 1841.33,185.491 1855.4,181.902 1869.48,178.94 1883.55,176.6 1897.63,174.877 1911.7,173.764 1925.77,173.254 1939.85,173.34 1953.92,174.013 1968,175.266 1982.07,177.087 1996.15,179.469 2010.22,182.399 2024.3,185.868 2038.37,189.863 2052.44,194.372 2066.52,199.382 2080.59,204.881 2094.67,210.853 2108.74,217.284 2122.82,224.16 2136.89,231.464 2150.97,239.179 2165.04,247.29 2179.11,255.787 2193.19,264.656 2207.26,273.881 2221.34,283.447 2235.41,293.34 2249.49,303.544 2263.56,314.044 2277.64,324.827 2291.71,335.878 2305.78,347.183 2319.86,358.729 2333.93,370.502 2348.01,382.489 2362.08,394.677 2376.16,407.053 2390.23,419.605 2404.31,432.321 2418.38,445.189 2432.45,458.197 2446.53,471.334 2460.6,484.587 2474.68,497.947 2488.75,511.403 2502.83,524.944 2516.9,538.559 2530.98,552.239 2545.05,565.974 2559.12,579.754 2573.2,593.57 "/>
<polyline clip-path="url(#clip371)" style="stroke:#8b0000; stroke-linecap:round; stroke-linejoin:round; stroke-width:8; stroke-opacity:1; fill:none" points="321.29,1688.65 335.365,1683.45 349.439,1678.08 363.514,1672.54 377.588,1666.83 391.662,1660.94 405.737,1654.86 419.811,1648.61 433.886,1642.16 447.96,1635.53 462.035,1628.7 476.109,1621.67 490.183,1614.43 504.258,1606.99 518.332,1599.34 532.407,1591.48 546.481,1583.4 560.556,1575.1 574.63,1566.57 588.704,1557.82 602.779,1548.83 616.853,1539.61 630.928,1530.15 645.002,1520.44 659.077,1510.5 673.151,1500.3 687.225,1489.85 701.3,1479.15 715.374,1468.19 729.449,1456.98 743.523,1445.5 757.598,1433.76 771.672,1421.76 785.746,1409.49 799.821,1396.96 813.895,1384.16 827.97,1371.09 842.044,1357.75 856.118,1344.15 870.193,1330.28 884.267,1316.14 898.342,1301.75 912.416,1287.09 926.491,1272.17 940.565,1256.99 954.639,1241.57 968.714,1225.89 982.788,1209.97 996.863,1193.81 1010.94,1177.42 1025.01,1160.81 1039.09,1143.97 1053.16,1126.92 1067.23,1109.67 1081.31,1092.22 1095.38,1074.59 1109.46,1056.78 1123.53,1038.81 1137.61,1020.68 1151.68,1002.41 1165.76,984.017 1179.83,965.504 1193.9,946.888 1207.98,928.184 1222.05,909.405 1236.13,890.562 1250.2,871.672 1264.28,852.755 1278.35,833.828 1292.43,814.911 1306.5,796.023 1320.57,777.182 1334.65,758.407 1348.72,739.717 1362.8,721.131 1376.87,702.668 1390.95,684.345 1405.02,666.182 1419.1,648.197 1433.17,630.408 1447.24,612.835 1461.32,595.496 1475.39,578.408 1489.47,561.592 1503.54,545.064 1517.62,528.843 1531.69,512.948 1545.77,497.396 1559.84,482.207 1573.91,467.396 1587.99,452.981 1602.06,438.977 1616.14,425.398 1630.21,412.259 1644.29,399.574 1658.36,387.353 1672.44,375.61 1686.51,364.354 1700.58,353.596 1714.66,343.344 1728.73,333.608 1742.81,324.395 1756.88,315.711 1770.96,307.562 1785.03,299.954 1799.11,292.891 1813.18,286.379 1827.25,280.431 1841.33,275.046 1855.4,270.22 1869.48,265.95 1883.55,262.232 1897.63,259.059 1911.7,256.429 1925.77,254.336 1939.85,252.775 1953.92,251.74 1968,251.226 1982.07,251.227 1996.15,251.736 2010.22,252.748 2024.3,254.256 2038.37,256.253 2052.44,258.732 2066.52,261.685 2080.59,265.106 2094.67,268.986 2108.74,273.318 2122.82,278.093 2136.89,283.303 2150.97,288.936 2165.04,294.977 2179.11,301.41 2193.19,308.222 2207.26,315.399 2221.34,322.927 2235.41,330.793 2249.49,338.983 2263.56,347.485 2277.64,356.286 2291.71,365.373 2305.78,374.736 2319.86,384.361 2333.93,394.238 2348.01,404.356 2362.08,414.703 2376.16,425.268 2390.23,436.043 2404.31,447.015 2418.38,458.176 2432.45,469.517 2446.53,481.027 2460.6,492.694 2474.68,504.503 2488.75,516.445 2502.83,528.508 2516.9,540.683 2530.98,552.96 2545.05,565.331 2559.12,577.785 2573.2,590.314 "/>
<path clip-path="url(#clip370)" d="M333.3 336.856 L954.13 336.856 L954.13 181.336 L333.3 181.336  Z" fill="#ffffff" fill-rule="evenodd" fill-opacity="1"/>
<polyline clip-path="url(#clip370)" style="stroke:#000000; stroke-linecap:round; stroke-linejoin:round; stroke-width:4; stroke-opacity:1; fill:none" points="333.3,336.856 954.13,336.856 954.13,181.336 333.3,181.336 333.3,336.856 "/>
<polyline clip-path="url(#clip370)" style="stroke:#ff0000; stroke-linecap:round; stroke-linejoin:round; stroke-width:8; stroke-opacity:1; fill:none" stroke-dasharray="32, 20" points="359.823,233.176 518.958,233.176 "/>
<path clip-path="url(#clip370)" d="M545.48 215.896 L550.156 215.896 L550.156 250.456 L545.48 250.456 L545.48 215.896 Z" fill="#000000" fill-rule="nonzero" fill-opacity="1" /><path clip-path="url(#clip370)" d="M580.827 234.808 L580.827 250.456 L576.568 250.456 L576.568 234.947 Q576.568 231.267 575.133 229.438 Q573.698 227.609 570.827 227.609 Q567.378 227.609 565.388 229.808 Q563.397 232.007 563.397 235.804 L563.397 250.456 L559.114 250.456 L559.114 224.531 L563.397 224.531 L563.397 228.558 Q564.925 226.22 566.985 225.063 Q569.068 223.906 571.776 223.906 Q576.244 223.906 578.536 226.683 Q580.827 229.438 580.827 234.808 Z" fill="#000000" fill-rule="nonzero" fill-opacity="1" /><path clip-path="url(#clip370)" d="M606.383 228.466 L606.383 214.438 L610.642 214.438 L610.642 250.456 L606.383 250.456 L606.383 246.567 Q605.04 248.882 602.98 250.016 Q600.943 251.128 598.073 251.128 Q593.374 251.128 590.411 247.378 Q587.471 243.628 587.471 237.517 Q587.471 231.405 590.411 227.655 Q593.374 223.906 598.073 223.906 Q600.943 223.906 602.98 225.04 Q605.04 226.151 606.383 228.466 M591.869 237.517 Q591.869 242.216 593.79 244.901 Q595.735 247.563 599.114 247.563 Q602.494 247.563 604.438 244.901 Q606.383 242.216 606.383 237.517 Q606.383 232.817 604.438 230.155 Q602.494 227.47 599.114 227.47 Q595.735 227.47 593.79 230.155 Q591.869 232.817 591.869 237.517 Z" fill="#000000" fill-rule="nonzero" fill-opacity="1" /><path clip-path="url(#clip370)" d="M619.415 224.531 L623.674 224.531 L623.674 250.456 L619.415 250.456 L619.415 224.531 M619.415 214.438 L623.674 214.438 L623.674 219.831 L619.415 219.831 L619.415 214.438 Z" fill="#000000" fill-rule="nonzero" fill-opacity="1" /><path clip-path="url(#clip370)" d="M629.531 224.531 L634.045 224.531 L642.146 246.29 L650.248 224.531 L654.762 224.531 L645.04 250.456 L639.253 250.456 L629.531 224.531 Z" fill="#000000" fill-rule="nonzero" fill-opacity="1" /><path clip-path="url(#clip370)" d="M660.642 224.531 L664.901 224.531 L664.901 250.456 L660.642 250.456 L660.642 224.531 M660.642 214.438 L664.901 214.438 L664.901 219.831 L660.642 219.831 L660.642 214.438 Z" fill="#000000" fill-rule="nonzero" fill-opacity="1" /><path clip-path="url(#clip370)" d="M690.873 228.466 L690.873 214.438 L695.132 214.438 L695.132 250.456 L690.873 250.456 L690.873 246.567 Q689.53 248.882 687.47 250.016 Q685.433 251.128 682.563 251.128 Q677.864 251.128 674.901 247.378 Q671.961 243.628 671.961 237.517 Q671.961 231.405 674.901 227.655 Q677.864 223.906 682.563 223.906 Q685.433 223.906 687.47 225.04 Q689.53 226.151 690.873 228.466 M676.359 237.517 Q676.359 242.216 678.28 244.901 Q680.225 247.563 683.605 247.563 Q686.984 247.563 688.929 244.901 Q690.873 242.216 690.873 237.517 Q690.873 232.817 688.929 230.155 Q686.984 227.47 683.605 227.47 Q680.225 227.47 678.28 230.155 Q676.359 232.817 676.359 237.517 Z" fill="#000000" fill-rule="nonzero" fill-opacity="1" /><path clip-path="url(#clip370)" d="M703.466 240.225 L703.466 224.531 L707.725 224.531 L707.725 240.063 Q707.725 243.743 709.16 245.595 Q710.595 247.424 713.465 247.424 Q716.915 247.424 718.905 245.225 Q720.919 243.026 720.919 239.229 L720.919 224.531 L725.178 224.531 L725.178 250.456 L720.919 250.456 L720.919 246.475 Q719.368 248.836 717.308 249.993 Q715.271 251.128 712.563 251.128 Q708.095 251.128 705.78 248.35 Q703.466 245.572 703.466 240.225 M714.183 223.906 L714.183 223.906 Z" fill="#000000" fill-rule="nonzero" fill-opacity="1" /><path clip-path="url(#clip370)" d="M745.734 237.424 Q740.572 237.424 738.581 238.604 Q736.59 239.785 736.59 242.632 Q736.59 244.901 738.072 246.243 Q739.576 247.563 742.146 247.563 Q745.688 247.563 747.817 245.063 Q749.97 242.54 749.97 238.373 L749.97 237.424 L745.734 237.424 M754.229 235.665 L754.229 250.456 L749.97 250.456 L749.97 246.521 Q748.512 248.882 746.336 250.016 Q744.16 251.128 741.012 251.128 Q737.03 251.128 734.669 248.905 Q732.331 246.66 732.331 242.91 Q732.331 238.535 735.248 236.313 Q738.188 234.091 743.998 234.091 L749.97 234.091 L749.97 233.674 Q749.97 230.734 748.025 229.137 Q746.104 227.517 742.609 227.517 Q740.387 227.517 738.28 228.049 Q736.174 228.581 734.229 229.646 L734.229 225.711 Q736.567 224.808 738.766 224.368 Q740.965 223.906 743.049 223.906 Q748.674 223.906 751.451 226.822 Q754.229 229.739 754.229 235.665 Z" fill="#000000" fill-rule="nonzero" fill-opacity="1" /><path clip-path="url(#clip370)" d="M763.002 214.438 L767.261 214.438 L767.261 250.456 L763.002 250.456 L763.002 214.438 Z" fill="#000000" fill-rule="nonzero" fill-opacity="1" /><path clip-path="url(#clip370)" d="M774.021 235.572 L786.497 235.572 L786.497 239.368 L774.021 239.368 L774.021 235.572 Z" fill="#000000" fill-rule="nonzero" fill-opacity="1" /><path clip-path="url(#clip370)" d="M811.891 237.517 Q811.891 232.817 809.946 230.155 Q808.025 227.47 804.646 227.47 Q801.266 227.47 799.321 230.155 Q797.4 232.817 797.4 237.517 Q797.4 242.216 799.321 244.901 Q801.266 247.563 804.646 247.563 Q808.025 247.563 809.946 244.901 Q811.891 242.216 811.891 237.517 M797.4 228.466 Q798.743 226.151 800.78 225.04 Q802.84 223.906 805.687 223.906 Q810.409 223.906 813.349 227.655 Q816.312 231.405 816.312 237.517 Q816.312 243.628 813.349 247.378 Q810.409 251.128 805.687 251.128 Q802.84 251.128 800.78 250.016 Q798.743 248.882 797.4 246.567 L797.4 250.456 L793.118 250.456 L793.118 214.438 L797.4 214.438 L797.4 228.466 Z" fill="#000000" fill-rule="nonzero" fill-opacity="1" /><path clip-path="url(#clip370)" d="M835.155 237.424 Q829.993 237.424 828.002 238.604 Q826.011 239.785 826.011 242.632 Q826.011 244.901 827.493 246.243 Q828.997 247.563 831.567 247.563 Q835.108 247.563 837.238 245.063 Q839.391 242.54 839.391 238.373 L839.391 237.424 L835.155 237.424 M843.65 235.665 L843.65 250.456 L839.391 250.456 L839.391 246.521 Q837.932 248.882 835.756 250.016 Q833.581 251.128 830.432 251.128 Q826.451 251.128 824.09 248.905 Q821.752 246.66 821.752 242.91 Q821.752 238.535 824.669 236.313 Q827.608 234.091 833.419 234.091 L839.391 234.091 L839.391 233.674 Q839.391 230.734 837.446 229.137 Q835.525 227.517 832.03 227.517 Q829.807 227.517 827.701 228.049 Q825.594 228.581 823.65 229.646 L823.65 225.711 Q825.988 224.808 828.187 224.368 Q830.386 223.906 832.469 223.906 Q838.094 223.906 840.872 226.822 Q843.65 229.739 843.65 235.665 Z" fill="#000000" fill-rule="nonzero" fill-opacity="1" /><path clip-path="url(#clip370)" d="M868.951 225.294 L868.951 229.322 Q867.145 228.396 865.201 227.933 Q863.256 227.47 861.173 227.47 Q858.002 227.47 856.405 228.443 Q854.83 229.415 854.83 231.359 Q854.83 232.841 855.965 233.697 Q857.099 234.53 860.525 235.294 L861.983 235.618 Q866.52 236.591 868.418 238.373 Q870.34 240.132 870.34 243.304 Q870.34 246.915 867.469 249.021 Q864.622 251.128 859.622 251.128 Q857.539 251.128 855.27 250.711 Q853.025 250.317 850.525 249.507 L850.525 245.109 Q852.886 246.336 855.178 246.961 Q857.469 247.563 859.715 247.563 Q862.724 247.563 864.344 246.544 Q865.965 245.503 865.965 243.628 Q865.965 241.892 864.784 240.966 Q863.627 240.04 859.668 239.183 L858.187 238.836 Q854.229 238.003 852.469 236.29 Q850.71 234.554 850.71 231.544 Q850.71 227.887 853.303 225.896 Q855.895 223.906 860.664 223.906 Q863.025 223.906 865.108 224.253 Q867.191 224.6 868.951 225.294 Z" fill="#000000" fill-rule="nonzero" fill-opacity="1" /><path clip-path="url(#clip370)" d="M899.298 236.429 L899.298 238.512 L879.715 238.512 Q879.992 242.91 882.353 245.225 Q884.738 247.516 888.974 247.516 Q891.427 247.516 893.719 246.915 Q896.034 246.313 898.302 245.109 L898.302 249.137 Q896.011 250.109 893.603 250.618 Q891.196 251.128 888.719 251.128 Q882.515 251.128 878.881 247.516 Q875.27 243.905 875.27 237.748 Q875.27 231.382 878.696 227.655 Q882.145 223.906 887.978 223.906 Q893.21 223.906 896.242 227.285 Q899.298 230.642 899.298 236.429 M895.039 235.179 Q894.992 231.683 893.071 229.6 Q891.173 227.517 888.025 227.517 Q884.46 227.517 882.307 229.53 Q880.178 231.544 879.853 235.202 L895.039 235.179 Z" fill="#000000" fill-rule="nonzero" fill-opacity="1" /><path clip-path="url(#clip370)" d="M923.349 228.466 L923.349 214.438 L927.608 214.438 L927.608 250.456 L923.349 250.456 L923.349 246.567 Q922.006 248.882 919.946 250.016 Q917.909 251.128 915.038 251.128 Q910.339 251.128 907.376 247.378 Q904.437 243.628 904.437 237.517 Q904.437 231.405 907.376 227.655 Q910.339 223.906 915.038 223.906 Q917.909 223.906 919.946 225.04 Q922.006 226.151 923.349 228.466 M908.835 237.517 Q908.835 242.216 910.756 244.901 Q912.7 247.563 916.08 247.563 Q919.46 247.563 921.404 244.901 Q923.349 242.216 923.349 237.517 Q923.349 232.817 921.404 230.155 Q919.46 227.47 916.08 227.47 Q912.7 227.47 910.756 230.155 Q908.835 232.817 908.835 237.517 Z" fill="#000000" fill-rule="nonzero" fill-opacity="1" /><polyline clip-path="url(#clip370)" style="stroke:#8b0000; stroke-linecap:round; stroke-linejoin:round; stroke-width:8; stroke-opacity:1; fill:none" points="359.823,285.016 518.958,285.016 "/>
<path clip-path="url(#clip370)" d="M550.156 271.579 L550.156 284.565 L556.036 284.565 Q559.3 284.565 561.082 282.875 Q562.864 281.185 562.864 278.06 Q562.864 274.958 561.082 273.269 Q559.3 271.579 556.036 271.579 L550.156 271.579 M545.48 267.736 L556.036 267.736 Q561.846 267.736 564.809 270.375 Q567.795 272.991 567.795 278.06 Q567.795 283.176 564.809 285.792 Q561.846 288.407 556.036 288.407 L550.156 288.407 L550.156 302.296 L545.48 302.296 L545.48 267.736 Z" fill="#000000" fill-rule="nonzero" fill-opacity="1" /><path clip-path="url(#clip370)" d="M583.536 289.264 Q578.374 289.264 576.383 290.444 Q574.392 291.625 574.392 294.472 Q574.392 296.741 575.874 298.083 Q577.378 299.403 579.948 299.403 Q583.489 299.403 585.619 296.903 Q587.772 294.38 587.772 290.213 L587.772 289.264 L583.536 289.264 M592.031 287.505 L592.031 302.296 L587.772 302.296 L587.772 298.361 Q586.313 300.722 584.137 301.856 Q581.962 302.968 578.813 302.968 Q574.832 302.968 572.471 300.745 Q570.133 298.5 570.133 294.75 Q570.133 290.375 573.05 288.153 Q575.989 285.931 581.799 285.931 L587.772 285.931 L587.772 285.514 Q587.772 282.574 585.827 280.977 Q583.906 279.357 580.411 279.357 Q578.188 279.357 576.082 279.889 Q573.975 280.421 572.031 281.486 L572.031 277.551 Q574.369 276.648 576.568 276.208 Q578.767 275.746 580.85 275.746 Q586.475 275.746 589.253 278.662 Q592.031 281.579 592.031 287.505 Z" fill="#000000" fill-rule="nonzero" fill-opacity="1" /><path clip-path="url(#clip370)" d="M600.804 276.371 L605.063 276.371 L605.063 302.296 L600.804 302.296 L600.804 276.371 M600.804 266.278 L605.063 266.278 L605.063 271.671 L600.804 271.671 L600.804 266.278 Z" fill="#000000" fill-rule="nonzero" fill-opacity="1" /><path clip-path="url(#clip370)" d="M628.998 280.352 Q628.281 279.935 627.424 279.75 Q626.591 279.542 625.572 279.542 Q621.961 279.542 620.017 281.903 Q618.096 284.241 618.096 288.639 L618.096 302.296 L613.813 302.296 L613.813 276.371 L618.096 276.371 L618.096 280.398 Q619.438 278.037 621.591 276.903 Q623.744 275.746 626.822 275.746 Q627.262 275.746 627.795 275.815 Q628.327 275.861 628.975 275.977 L628.998 280.352 Z" fill="#000000" fill-rule="nonzero" fill-opacity="1" /><path clip-path="url(#clip370)" d="M628.281 287.412 L640.758 287.412 L640.758 291.208 L628.281 291.208 L628.281 287.412 Z" fill="#000000" fill-rule="nonzero" fill-opacity="1" /><path clip-path="url(#clip370)" d="M666.151 289.357 Q666.151 284.657 664.206 281.995 Q662.285 279.31 658.906 279.31 Q655.526 279.31 653.582 281.995 Q651.66 284.657 651.66 289.357 Q651.66 294.056 653.582 296.741 Q655.526 299.403 658.906 299.403 Q662.285 299.403 664.206 296.741 Q666.151 294.056 666.151 289.357 M651.66 280.306 Q653.003 277.991 655.04 276.88 Q657.1 275.746 659.947 275.746 Q664.669 275.746 667.609 279.495 Q670.572 283.245 670.572 289.357 Q670.572 295.468 667.609 299.218 Q664.669 302.968 659.947 302.968 Q657.1 302.968 655.04 301.856 Q653.003 300.722 651.66 298.407 L651.66 302.296 L647.378 302.296 L647.378 266.278 L651.66 266.278 L651.66 280.306 Z" fill="#000000" fill-rule="nonzero" fill-opacity="1" /><path clip-path="url(#clip370)" d="M689.415 289.264 Q684.253 289.264 682.262 290.444 Q680.271 291.625 680.271 294.472 Q680.271 296.741 681.753 298.083 Q683.257 299.403 685.827 299.403 Q689.368 299.403 691.498 296.903 Q693.651 294.38 693.651 290.213 L693.651 289.264 L689.415 289.264 M697.91 287.505 L697.91 302.296 L693.651 302.296 L693.651 298.361 Q692.192 300.722 690.017 301.856 Q687.841 302.968 684.692 302.968 Q680.711 302.968 678.35 300.745 Q676.012 298.5 676.012 294.75 Q676.012 290.375 678.929 288.153 Q681.868 285.931 687.679 285.931 L693.651 285.931 L693.651 285.514 Q693.651 282.574 691.706 280.977 Q689.785 279.357 686.29 279.357 Q684.067 279.357 681.961 279.889 Q679.855 280.421 677.91 281.486 L677.91 277.551 Q680.248 276.648 682.447 276.208 Q684.646 275.746 686.729 275.746 Q692.354 275.746 695.132 278.662 Q697.91 281.579 697.91 287.505 Z" fill="#000000" fill-rule="nonzero" fill-opacity="1" /><path clip-path="url(#clip370)" d="M723.211 277.134 L723.211 281.162 Q721.405 280.236 719.461 279.773 Q717.516 279.31 715.433 279.31 Q712.262 279.31 710.665 280.283 Q709.09 281.255 709.09 283.199 Q709.09 284.681 710.225 285.537 Q711.359 286.37 714.785 287.134 L716.243 287.458 Q720.78 288.431 722.678 290.213 Q724.6 291.972 724.6 295.144 Q724.6 298.755 721.729 300.861 Q718.882 302.968 713.882 302.968 Q711.799 302.968 709.53 302.551 Q707.285 302.157 704.785 301.347 L704.785 296.949 Q707.146 298.176 709.438 298.801 Q711.729 299.403 713.975 299.403 Q716.984 299.403 718.604 298.384 Q720.225 297.343 720.225 295.468 Q720.225 293.732 719.044 292.806 Q717.887 291.88 713.928 291.023 L712.447 290.676 Q708.489 289.843 706.729 288.13 Q704.97 286.394 704.97 283.384 Q704.97 279.727 707.563 277.736 Q710.155 275.746 714.924 275.746 Q717.285 275.746 719.368 276.093 Q721.452 276.44 723.211 277.134 Z" fill="#000000" fill-rule="nonzero" fill-opacity="1" /><path clip-path="url(#clip370)" d="M753.558 288.269 L753.558 290.352 L733.975 290.352 Q734.252 294.75 736.613 297.065 Q738.998 299.356 743.234 299.356 Q745.688 299.356 747.979 298.755 Q750.294 298.153 752.562 296.949 L752.562 300.977 Q750.271 301.949 747.863 302.458 Q745.456 302.968 742.979 302.968 Q736.776 302.968 733.141 299.356 Q729.53 295.745 729.53 289.588 Q729.53 283.222 732.956 279.495 Q736.405 275.746 742.238 275.746 Q747.47 275.746 750.502 279.125 Q753.558 282.482 753.558 288.269 M749.299 287.019 Q749.252 283.523 747.331 281.44 Q745.433 279.357 742.285 279.357 Q738.72 279.357 736.567 281.37 Q734.438 283.384 734.113 287.042 L749.299 287.019 Z" fill="#000000" fill-rule="nonzero" fill-opacity="1" /><path clip-path="url(#clip370)" d="M777.609 280.306 L777.609 266.278 L781.868 266.278 L781.868 302.296 L777.609 302.296 L777.609 298.407 Q776.266 300.722 774.206 301.856 Q772.169 302.968 769.298 302.968 Q764.599 302.968 761.636 299.218 Q758.697 295.468 758.697 289.357 Q758.697 283.245 761.636 279.495 Q764.599 275.746 769.298 275.746 Q772.169 275.746 774.206 276.88 Q776.266 277.991 777.609 280.306 M763.095 289.357 Q763.095 294.056 765.016 296.741 Q766.961 299.403 770.34 299.403 Q773.72 299.403 775.664 296.741 Q777.609 294.056 777.609 289.357 Q777.609 284.657 775.664 281.995 Q773.72 279.31 770.34 279.31 Q766.961 279.31 765.016 281.995 Q763.095 284.657 763.095 289.357 Z" fill="#000000" fill-rule="nonzero" fill-opacity="1" /></svg>
