<?xml version="1.0" encoding="utf-8"?>
<svg xmlns="http://www.w3.org/2000/svg" xmlns:xlink="http://www.w3.org/1999/xlink" width="672" height="480" viewBox="0 0 2688 1920">
<defs>
  <clipPath id="clip840">
    <rect x="0" y="0" width="2688" height="1920"/>
  </clipPath>
</defs>
<path clip-path="url(#clip840)" d="M0 1920 L2688 1920 L2688 -4.26326e-14 L0 -4.26326e-14  Z" fill="#ffffff" fill-rule="evenodd" fill-opacity="1"/>
<defs>
  <clipPath id="clip841">
    <rect x="255" y="127" width="2386" height="1607"/>
  </clipPath>
</defs>
<path clip-path="url(#clip840)" d="M255.816 1734.12 L2640.76 1734.12 L2640.76 127.792 L255.816 127.792  Z" fill="#ffffff" fill-rule="evenodd" fill-opacity="1"/>
<polyline clip-path="url(#clip841)" style="stroke:#000000; stroke-linecap:round; stroke-linejoin:round; stroke-width:2; stroke-opacity:0.1; fill:none" points="323.315,1734.12 323.315,127.792 "/>
<polyline clip-path="url(#clip841)" style="stroke:#000000; stroke-linecap:round; stroke-linejoin:round; stroke-width:2; stroke-opacity:0.1; fill:none" points="885.8,1734.12 885.8,127.792 "/>
<polyline clip-path="url(#clip841)" style="stroke:#000000; stroke-linecap:round; stroke-linejoin:round; stroke-width:2; stroke-opacity:0.1; fill:none" points="1448.29,1734.12 1448.29,127.792 "/>
<polyline clip-path="url(#clip841)" style="stroke:#000000; stroke-linecap:round; stroke-linejoin:round; stroke-width:2; stroke-opacity:0.1; fill:none" points="2010.77,1734.12 2010.77,127.792 "/>
<polyline clip-path="url(#clip841)" style="stroke:#000000; stroke-linecap:round; stroke-linejoin:round; stroke-width:2; stroke-opacity:0.1; fill:none" points="2573.26,1734.12 2573.26,127.792 "/>
<polyline clip-path="url(#clip841)" style="stroke:#000000; stroke-linecap:round; stroke-linejoin:round; stroke-width:2; stroke-opacity:0.1; fill:none" points="255.816,1688.65 2640.76,1688.65 "/>
<polyline clip-path="url(#clip841)" style="stroke:#000000; stroke-linecap:round; stroke-linejoin:round; stroke-width:2; stroke-opacity:0.1; fill:none" points="255.816,1305.98 2640.76,1305.98 "/>
<polyline clip-path="url(#clip841)" style="stroke:#000000; stroke-linecap:round; stroke-linejoin:round; stroke-width:2; stroke-opacity:0.1; fill:none" points="255.816,923.301 2640.76,923.301 "/>
<polyline clip-path="url(#clip841)" style="stroke:#000000; stroke-linecap:round; stroke-linejoin:round; stroke-width:2; stroke-opacity:0.1; fill:none" points="255.816,540.624 2640.76,540.624 "/>
<polyline clip-path="url(#clip841)" style="stroke:#000000; stroke-linecap:round; stroke-linejoin:round; stroke-width:2; stroke-opacity:0.1; fill:none" points="255.816,157.947 2640.76,157.947 "/>
<polyline clip-path="url(#clip840)" style="stroke:#000000; stroke-linecap:round; stroke-linejoin:round; stroke-width:4; stroke-opacity:1; fill:none" points="255.816,1734.12 2640.76,1734.12 "/>
<polyline clip-path="url(#clip840)" style="stroke:#000000; stroke-linecap:round; stroke-linejoin:round; stroke-width:4; stroke-opacity:1; fill:none" points="323.315,1734.12 323.315,1715.22 "/>
<polyline clip-path="url(#clip840)" style="stroke:#000000; stroke-linecap:round; stroke-linejoin:round; stroke-width:4; stroke-opacity:1; fill:none" points="885.8,1734.12 885.8,1715.22 "/>
<polyline clip-path="url(#clip840)" style="stroke:#000000; stroke-linecap:round; stroke-linejoin:round; stroke-width:4; stroke-opacity:1; fill:none" points="1448.29,1734.12 1448.29,1715.22 "/>
<polyline clip-path="url(#clip840)" style="stroke:#000000; stroke-linecap:round; stroke-linejoin:round; stroke-width:4; stroke-opacity:1; fill:none" points="2010.77,1734.12 2010.77,1715.22 "/>
<polyline clip-path="url(#clip840)" style="stroke:#000000; stroke-linecap:round; stroke-linejoin:round; stroke-width:4; stroke-opacity:1; fill:none" points="2573.26,1734.12 2573.26,1715.22 "/>
<path clip-path="url(#clip840)" d="M323.315 1767.34 Q319.704 1767.34 317.875 1770.9 Q316.069 1774.45 316.069 1781.58 Q316.069 1788.68 317.875 1792.25 Q319.704 1795.79 323.315 1795.79 Q326.949 1795.79 328.754 1792.25 Q330.583 1788.68 330.583 1781.58 Q330.583 1774.45 328.754 1770.9 Q326.949 1767.34 323.315 1767.34 M323.315 1763.64 Q329.125 1763.64 332.18 1768.24 Q335.259 1772.83 335.259 1781.58 Q335.259 1790.3 332.18 1794.91 Q329.125 1799.49 323.315 1799.49 Q317.504 1799.49 314.426 1794.91 Q311.37 1790.3 311.37 1781.58 Q311.37 1772.83 314.426 1768.24 Q317.504 1763.64 323.315 1763.64 Z" fill="#000000" fill-rule="nonzero" fill-opacity="1" /><path clip-path="url(#clip840)" d="M860.488 1794.89 L868.127 1794.89 L868.127 1768.52 L859.817 1770.19 L859.817 1765.93 L868.081 1764.26 L872.756 1764.26 L872.756 1794.89 L880.395 1794.89 L880.395 1798.82 L860.488 1798.82 L860.488 1794.89 Z" fill="#000000" fill-rule="nonzero" fill-opacity="1" /><path clip-path="url(#clip840)" d="M899.84 1767.34 Q896.229 1767.34 894.4 1770.9 Q892.594 1774.45 892.594 1781.58 Q892.594 1788.68 894.4 1792.25 Q896.229 1795.79 899.84 1795.79 Q903.474 1795.79 905.279 1792.25 Q907.108 1788.68 907.108 1781.58 Q907.108 1774.45 905.279 1770.9 Q903.474 1767.34 899.84 1767.34 M899.84 1763.64 Q905.65 1763.64 908.705 1768.24 Q911.784 1772.83 911.784 1781.58 Q911.784 1790.3 908.705 1794.91 Q905.65 1799.49 899.84 1799.49 Q894.029 1799.49 890.951 1794.91 Q887.895 1790.3 887.895 1781.58 Q887.895 1772.83 890.951 1768.24 Q894.029 1763.64 899.84 1763.64 Z" fill="#000000" fill-rule="nonzero" fill-opacity="1" /><path clip-path="url(#clip840)" d="M1427.06 1794.89 L1443.38 1794.89 L1443.38 1798.82 L1421.43 1798.82 L1421.43 1794.89 Q1424.1 1792.13 1428.68 1787.5 Q1433.29 1782.85 1434.47 1781.51 Q1436.71 1778.98 1437.59 1777.25 Q1438.49 1775.49 1438.49 1773.8 Q1438.49 1771.04 1436.55 1769.31 Q1434.63 1767.57 1431.53 1767.57 Q1429.33 1767.57 1426.87 1768.34 Q1424.44 1769.1 1421.67 1770.65 L1421.67 1765.93 Q1424.49 1764.79 1426.94 1764.21 Q1429.4 1763.64 1431.43 1763.64 Q1436.8 1763.64 1440 1766.32 Q1443.19 1769.01 1443.19 1773.5 Q1443.19 1775.63 1442.38 1777.55 Q1441.6 1779.45 1439.49 1782.04 Q1438.91 1782.71 1435.81 1785.93 Q1432.71 1789.12 1427.06 1794.89 Z" fill="#000000" fill-rule="nonzero" fill-opacity="1" /><path clip-path="url(#clip840)" d="M1463.19 1767.34 Q1459.58 1767.34 1457.75 1770.9 Q1455.95 1774.45 1455.95 1781.58 Q1455.95 1788.68 1457.75 1792.25 Q1459.58 1795.79 1463.19 1795.79 Q1466.83 1795.79 1468.63 1792.25 Q1470.46 1788.68 1470.46 1781.58 Q1470.46 1774.45 1468.63 1770.9 Q1466.83 1767.34 1463.19 1767.34 M1463.19 1763.64 Q1469 1763.64 1472.06 1768.24 Q1475.14 1772.83 1475.14 1781.58 Q1475.14 1790.3 1472.06 1794.91 Q1469 1799.49 1463.19 1799.49 Q1457.38 1799.49 1454.3 1794.91 Q1451.25 1790.3 1451.25 1781.58 Q1451.25 1772.83 1454.3 1768.24 Q1457.38 1763.64 1463.19 1763.64 Z" fill="#000000" fill-rule="nonzero" fill-opacity="1" /><path clip-path="url(#clip840)" d="M1999.61 1780.19 Q2002.97 1780.9 2004.85 1783.17 Q2006.74 1785.44 2006.74 1788.77 Q2006.74 1793.89 2003.23 1796.69 Q1999.71 1799.49 1993.23 1799.49 Q1991.05 1799.49 1988.73 1799.05 Q1986.44 1798.64 1983.99 1797.78 L1983.99 1793.27 Q1985.93 1794.4 1988.25 1794.98 Q1990.56 1795.56 1993.09 1795.56 Q1997.48 1795.56 1999.78 1793.82 Q2002.09 1792.08 2002.09 1788.77 Q2002.09 1785.72 1999.94 1784.01 Q1997.81 1782.27 1993.99 1782.27 L1989.96 1782.27 L1989.96 1778.43 L1994.17 1778.43 Q1997.62 1778.43 1999.45 1777.06 Q2001.28 1775.67 2001.28 1773.08 Q2001.28 1770.42 1999.38 1769.01 Q1997.51 1767.57 1993.99 1767.57 Q1992.07 1767.57 1989.87 1767.99 Q1987.67 1768.4 1985.03 1769.28 L1985.03 1765.12 Q1987.69 1764.38 1990.01 1764.01 Q1992.35 1763.64 1994.41 1763.64 Q1999.73 1763.64 2002.83 1766.07 Q2005.93 1768.47 2005.93 1772.59 Q2005.93 1775.46 2004.29 1777.46 Q2002.65 1779.42 1999.61 1780.19 Z" fill="#000000" fill-rule="nonzero" fill-opacity="1" /><path clip-path="url(#clip840)" d="M2025.61 1767.34 Q2022 1767.34 2020.17 1770.9 Q2018.36 1774.45 2018.36 1781.58 Q2018.36 1788.68 2020.17 1792.25 Q2022 1795.79 2025.61 1795.79 Q2029.24 1795.79 2031.05 1792.25 Q2032.88 1788.68 2032.88 1781.58 Q2032.88 1774.45 2031.05 1770.9 Q2029.24 1767.34 2025.61 1767.34 M2025.61 1763.64 Q2031.42 1763.64 2034.48 1768.24 Q2037.55 1772.83 2037.55 1781.58 Q2037.55 1790.3 2034.48 1794.91 Q2031.42 1799.49 2025.61 1799.49 Q2019.8 1799.49 2016.72 1794.91 Q2013.67 1790.3 2013.67 1781.58 Q2013.67 1772.83 2016.72 1768.24 Q2019.8 1763.64 2025.61 1763.64 Z" fill="#000000" fill-rule="nonzero" fill-opacity="1" /><path clip-path="url(#clip840)" d="M2561.43 1768.34 L2549.62 1786.78 L2561.43 1786.78 L2561.43 1768.34 M2560.2 1764.26 L2566.08 1764.26 L2566.08 1786.78 L2571.01 1786.78 L2571.01 1790.67 L2566.08 1790.67 L2566.08 1798.82 L2561.43 1798.82 L2561.43 1790.67 L2545.83 1790.67 L2545.83 1786.16 L2560.2 1764.26 Z" fill="#000000" fill-rule="nonzero" fill-opacity="1" /><path clip-path="url(#clip840)" d="M2588.74 1767.34 Q2585.13 1767.34 2583.3 1770.9 Q2581.5 1774.45 2581.5 1781.58 Q2581.5 1788.68 2583.3 1792.25 Q2585.13 1795.79 2588.74 1795.79 Q2592.38 1795.79 2594.18 1792.25 Q2596.01 1788.68 2596.01 1781.58 Q2596.01 1774.45 2594.18 1770.9 Q2592.38 1767.34 2588.74 1767.34 M2588.74 1763.64 Q2594.55 1763.64 2597.61 1768.24 Q2600.69 1772.83 2600.69 1781.58 Q2600.69 1790.3 2597.61 1794.91 Q2594.55 1799.49 2588.74 1799.49 Q2582.93 1799.49 2579.85 1794.91 Q2576.8 1790.3 2576.8 1781.58 Q2576.8 1772.83 2579.85 1768.24 Q2582.93 1763.64 2588.74 1763.64 Z" fill="#000000" fill-rule="nonzero" fill-opacity="1" /><path clip-path="url(#clip840)" d="M1387.45 1837.53 L1387.45 1847.65 L1399.51 1847.65 L1399.51 1852.2 L1387.45 1852.2 L1387.45 1871.56 Q1387.45 1875.92 1388.62 1877.16 Q1389.83 1878.4 1393.49 1878.4 L1399.51 1878.4 L1399.51 1883.3 L1393.49 1883.3 Q1386.71 1883.3 1384.14 1880.79 Q1381.56 1878.24 1381.56 1871.56 L1381.56 1852.2 L1377.26 1852.2 L1377.26 1847.65 L1381.56 1847.65 L1381.56 1837.53 L1387.45 1837.53 Z" fill="#000000" fill-rule="nonzero" fill-opacity="1" /><path clip-path="url(#clip840)" d="M1407.21 1847.65 L1413.07 1847.65 L1413.07 1883.3 L1407.21 1883.3 L1407.21 1847.65 M1407.21 1833.78 L1413.07 1833.78 L1413.07 1841.19 L1407.21 1841.19 L1407.21 1833.78 Z" fill="#000000" fill-rule="nonzero" fill-opacity="1" /><path clip-path="url(#clip840)" d="M1453.08 1854.5 Q1455.27 1850.55 1458.33 1848.67 Q1461.38 1846.79 1465.52 1846.79 Q1471.09 1846.79 1474.11 1850.71 Q1477.14 1854.59 1477.14 1861.78 L1477.14 1883.3 L1471.25 1883.3 L1471.25 1861.98 Q1471.25 1856.85 1469.44 1854.37 Q1467.62 1851.89 1463.9 1851.89 Q1459.35 1851.89 1456.7 1854.91 Q1454.06 1857.93 1454.06 1863.15 L1454.06 1883.3 L1448.17 1883.3 L1448.17 1861.98 Q1448.17 1856.82 1446.36 1854.37 Q1444.55 1851.89 1440.76 1851.89 Q1436.27 1851.89 1433.63 1854.94 Q1430.99 1857.97 1430.99 1863.15 L1430.99 1883.3 L1425.1 1883.3 L1425.1 1847.65 L1430.99 1847.65 L1430.99 1853.19 Q1432.99 1849.91 1435.79 1848.35 Q1438.59 1846.79 1442.45 1846.79 Q1446.33 1846.79 1449.03 1848.77 Q1451.77 1850.74 1453.08 1854.5 Z" fill="#000000" fill-rule="nonzero" fill-opacity="1" /><path clip-path="url(#clip840)" d="M1519.31 1864.01 L1519.31 1866.88 L1492.38 1866.88 Q1492.77 1872.92 1496.01 1876.11 Q1499.29 1879.26 1505.12 1879.26 Q1508.49 1879.26 1511.64 1878.43 Q1514.82 1877.6 1517.94 1875.95 L1517.94 1881.49 Q1514.79 1882.82 1511.48 1883.52 Q1508.17 1884.22 1504.77 1884.22 Q1496.24 1884.22 1491.24 1879.26 Q1486.27 1874.29 1486.27 1865.83 Q1486.27 1857.07 1490.98 1851.95 Q1495.73 1846.79 1503.75 1846.79 Q1510.94 1846.79 1515.11 1851.44 Q1519.31 1856.06 1519.31 1864.01 M1513.46 1862.29 Q1513.39 1857.49 1510.75 1854.62 Q1508.14 1851.76 1503.81 1851.76 Q1498.91 1851.76 1495.95 1854.53 Q1493.02 1857.3 1492.58 1862.33 L1513.46 1862.29 Z" fill="#000000" fill-rule="nonzero" fill-opacity="1" /><polyline clip-path="url(#clip840)" style="stroke:#000000; stroke-linecap:round; stroke-linejoin:round; stroke-width:4; stroke-opacity:1; fill:none" points="255.816,1734.12 255.816,127.792 "/>
<polyline clip-path="url(#clip840)" style="stroke:#000000; stroke-linecap:round; stroke-linejoin:round; stroke-width:4; stroke-opacity:1; fill:none" points="255.816,1688.65 274.714,1688.65 "/>
<polyline clip-path="url(#clip840)" style="stroke:#000000; stroke-linecap:round; stroke-linejoin:round; stroke-width:4; stroke-opacity:1; fill:none" points="255.816,1305.98 274.714,1305.98 "/>
<polyline clip-path="url(#clip840)" style="stroke:#000000; stroke-linecap:round; stroke-linejoin:round; stroke-width:4; stroke-opacity:1; fill:none" points="255.816,923.301 274.714,923.301 "/>
<polyline clip-path="url(#clip840)" style="stroke:#000000; stroke-linecap:round; stroke-linejoin:round; stroke-width:4; stroke-opacity:1; fill:none" points="255.816,540.624 274.714,540.624 "/>
<polyline clip-path="url(#clip840)" style="stroke:#000000; stroke-linecap:round; stroke-linejoin:round; stroke-width:4; stroke-opacity:1; fill:none" points="255.816,157.947 274.714,157.947 "/>
<path clip-path="url(#clip840)" d="M128.159 1674.45 Q124.548 1674.45 122.719 1678.02 Q120.913 1681.56 120.913 1688.69 Q120.913 1695.8 122.719 1699.36 Q124.548 1702.9 128.159 1702.9 Q131.793 1702.9 133.599 1699.36 Q135.427 1695.8 135.427 1688.69 Q135.427 1681.56 133.599 1678.02 Q131.793 1674.45 128.159 1674.45 M128.159 1670.75 Q133.969 1670.75 137.025 1675.36 Q140.103 1679.94 140.103 1688.69 Q140.103 1697.42 137.025 1702.02 Q133.969 1706.61 128.159 1706.61 Q122.349 1706.61 119.27 1702.02 Q116.214 1697.42 116.214 1688.69 Q116.214 1679.94 119.27 1675.36 Q122.349 1670.75 128.159 1670.75 Z" fill="#000000" fill-rule="nonzero" fill-opacity="1" /><path clip-path="url(#clip840)" d="M148.321 1700.06 L153.205 1700.06 L153.205 1705.93 L148.321 1705.93 L148.321 1700.06 Z" fill="#000000" fill-rule="nonzero" fill-opacity="1" /><path clip-path="url(#clip840)" d="M173.39 1674.45 Q169.779 1674.45 167.95 1678.02 Q166.145 1681.56 166.145 1688.69 Q166.145 1695.8 167.95 1699.36 Q169.779 1702.9 173.39 1702.9 Q177.024 1702.9 178.83 1699.36 Q180.659 1695.8 180.659 1688.69 Q180.659 1681.56 178.83 1678.02 Q177.024 1674.45 173.39 1674.45 M173.39 1670.75 Q179.2 1670.75 182.256 1675.36 Q185.334 1679.94 185.334 1688.69 Q185.334 1697.42 182.256 1702.02 Q179.2 1706.61 173.39 1706.61 Q167.58 1706.61 164.501 1702.02 Q161.446 1697.42 161.446 1688.69 Q161.446 1679.94 164.501 1675.36 Q167.58 1670.75 173.39 1670.75 Z" fill="#000000" fill-rule="nonzero" fill-opacity="1" /><path clip-path="url(#clip840)" d="M203.552 1674.45 Q199.941 1674.45 198.112 1678.02 Q196.307 1681.56 196.307 1688.69 Q196.307 1695.8 198.112 1699.36 Q199.941 1702.9 203.552 1702.9 Q207.186 1702.9 208.992 1699.36 Q210.82 1695.8 210.82 1688.69 Q210.82 1681.56 208.992 1678.02 Q207.186 1674.45 203.552 1674.45 M203.552 1670.75 Q209.362 1670.75 212.418 1675.36 Q215.496 1679.94 215.496 1688.69 Q215.496 1697.42 212.418 1702.02 Q209.362 1706.61 203.552 1706.61 Q197.742 1706.61 194.663 1702.02 Q191.608 1697.42 191.608 1688.69 Q191.608 1679.94 194.663 1675.36 Q197.742 1670.75 203.552 1670.75 Z" fill="#000000" fill-rule="nonzero" fill-opacity="1" /><path clip-path="url(#clip840)" d="M129.154 1291.78 Q125.543 1291.78 123.714 1295.34 Q121.909 1298.88 121.909 1306.01 Q121.909 1313.12 123.714 1316.68 Q125.543 1320.23 129.154 1320.23 Q132.788 1320.23 134.594 1316.68 Q136.423 1313.12 136.423 1306.01 Q136.423 1298.88 134.594 1295.34 Q132.788 1291.78 129.154 1291.78 M129.154 1288.07 Q134.964 1288.07 138.02 1292.68 Q141.099 1297.26 141.099 1306.01 Q141.099 1314.74 138.02 1319.35 Q134.964 1323.93 129.154 1323.93 Q123.344 1323.93 120.265 1319.35 Q117.21 1314.74 117.21 1306.01 Q117.21 1297.26 120.265 1292.68 Q123.344 1288.07 129.154 1288.07 Z" fill="#000000" fill-rule="nonzero" fill-opacity="1" /><path clip-path="url(#clip840)" d="M149.316 1317.38 L154.2 1317.38 L154.2 1323.26 L149.316 1323.26 L149.316 1317.38 Z" fill="#000000" fill-rule="nonzero" fill-opacity="1" /><path clip-path="url(#clip840)" d="M168.413 1319.32 L184.733 1319.32 L184.733 1323.26 L162.788 1323.26 L162.788 1319.32 Q165.45 1316.57 170.034 1311.94 Q174.64 1307.29 175.821 1305.94 Q178.066 1303.42 178.946 1301.68 Q179.848 1299.92 179.848 1298.23 Q179.848 1295.48 177.904 1293.74 Q175.983 1292.01 172.881 1292.01 Q170.682 1292.01 168.228 1292.77 Q165.798 1293.54 163.02 1295.09 L163.02 1290.36 Q165.844 1289.23 168.297 1288.65 Q170.751 1288.07 172.788 1288.07 Q178.159 1288.07 181.353 1290.76 Q184.547 1293.44 184.547 1297.93 Q184.547 1300.06 183.737 1301.98 Q182.95 1303.88 180.844 1306.48 Q180.265 1307.15 177.163 1310.36 Q174.061 1313.56 168.413 1319.32 Z" fill="#000000" fill-rule="nonzero" fill-opacity="1" /><path clip-path="url(#clip840)" d="M194.594 1288.7 L212.95 1288.7 L212.95 1292.63 L198.876 1292.63 L198.876 1301.11 Q199.895 1300.76 200.913 1300.6 Q201.932 1300.41 202.95 1300.41 Q208.737 1300.41 212.117 1303.58 Q215.496 1306.75 215.496 1312.17 Q215.496 1317.75 212.024 1320.85 Q208.552 1323.93 202.233 1323.93 Q200.057 1323.93 197.788 1323.56 Q195.543 1323.19 193.135 1322.45 L193.135 1317.75 Q195.219 1318.88 197.441 1319.44 Q199.663 1319.99 202.14 1319.99 Q206.145 1319.99 208.482 1317.89 Q210.82 1315.78 210.82 1312.17 Q210.82 1308.56 208.482 1306.45 Q206.145 1304.35 202.14 1304.35 Q200.265 1304.35 198.39 1304.76 Q196.538 1305.18 194.594 1306.06 L194.594 1288.7 Z" fill="#000000" fill-rule="nonzero" fill-opacity="1" /><path clip-path="url(#clip840)" d="M128.159 909.1 Q124.548 909.1 122.719 912.664 Q120.913 916.206 120.913 923.336 Q120.913 930.442 122.719 934.007 Q124.548 937.549 128.159 937.549 Q131.793 937.549 133.599 934.007 Q135.427 930.442 135.427 923.336 Q135.427 916.206 133.599 912.664 Q131.793 909.1 128.159 909.1 M128.159 905.396 Q133.969 905.396 137.025 910.002 Q140.103 914.586 140.103 923.336 Q140.103 932.063 137.025 936.669 Q133.969 941.252 128.159 941.252 Q122.349 941.252 119.27 936.669 Q116.214 932.063 116.214 923.336 Q116.214 914.586 119.27 910.002 Q122.349 905.396 128.159 905.396 Z" fill="#000000" fill-rule="nonzero" fill-opacity="1" /><path clip-path="url(#clip840)" d="M148.321 934.701 L153.205 934.701 L153.205 940.581 L148.321 940.581 L148.321 934.701 Z" fill="#000000" fill-rule="nonzero" fill-opacity="1" /><path clip-path="url(#clip840)" d="M163.436 906.021 L181.793 906.021 L181.793 909.956 L167.719 909.956 L167.719 918.428 Q168.737 918.081 169.756 917.919 Q170.774 917.734 171.793 917.734 Q177.58 917.734 180.959 920.905 Q184.339 924.076 184.339 929.493 Q184.339 935.072 180.867 938.174 Q177.395 941.252 171.075 941.252 Q168.899 941.252 166.631 940.882 Q164.385 940.512 161.978 939.771 L161.978 935.072 Q164.061 936.206 166.284 936.762 Q168.506 937.317 170.983 937.317 Q174.987 937.317 177.325 935.211 Q179.663 933.104 179.663 929.493 Q179.663 925.882 177.325 923.776 Q174.987 921.669 170.983 921.669 Q169.108 921.669 167.233 922.086 Q165.381 922.502 163.436 923.382 L163.436 906.021 Z" fill="#000000" fill-rule="nonzero" fill-opacity="1" /><path clip-path="url(#clip840)" d="M203.552 909.1 Q199.941 909.1 198.112 912.664 Q196.307 916.206 196.307 923.336 Q196.307 930.442 198.112 934.007 Q199.941 937.549 203.552 937.549 Q207.186 937.549 208.992 934.007 Q210.82 930.442 210.82 923.336 Q210.82 916.206 208.992 912.664 Q207.186 909.1 203.552 909.1 M203.552 905.396 Q209.362 905.396 212.418 910.002 Q215.496 914.586 215.496 923.336 Q215.496 932.063 212.418 936.669 Q209.362 941.252 203.552 941.252 Q197.742 941.252 194.663 936.669 Q191.608 932.063 191.608 923.336 Q191.608 914.586 194.663 910.002 Q197.742 905.396 203.552 905.396 Z" fill="#000000" fill-rule="nonzero" fill-opacity="1" /><path clip-path="url(#clip840)" d="M129.154 526.423 Q125.543 526.423 123.714 529.988 Q121.909 533.529 121.909 540.659 Q121.909 547.765 123.714 551.33 Q125.543 554.872 129.154 554.872 Q132.788 554.872 134.594 551.33 Q136.423 547.765 136.423 540.659 Q136.423 533.529 134.594 529.988 Q132.788 526.423 129.154 526.423 M129.154 522.719 Q134.964 522.719 138.02 527.326 Q141.099 531.909 141.099 540.659 Q141.099 549.386 138.02 553.992 Q134.964 558.575 129.154 558.575 Q123.344 558.575 120.265 553.992 Q117.21 549.386 117.21 540.659 Q117.21 531.909 120.265 527.326 Q123.344 522.719 129.154 522.719 Z" fill="#000000" fill-rule="nonzero" fill-opacity="1" /><path clip-path="url(#clip840)" d="M149.316 552.024 L154.2 552.024 L154.2 557.904 L149.316 557.904 L149.316 552.024 Z" fill="#000000" fill-rule="nonzero" fill-opacity="1" /><path clip-path="url(#clip840)" d="M163.205 523.344 L185.427 523.344 L185.427 525.335 L172.881 557.904 L167.997 557.904 L179.802 527.279 L163.205 527.279 L163.205 523.344 Z" fill="#000000" fill-rule="nonzero" fill-opacity="1" /><path clip-path="url(#clip840)" d="M194.594 523.344 L212.95 523.344 L212.95 527.279 L198.876 527.279 L198.876 535.751 Q199.895 535.404 200.913 535.242 Q201.932 535.057 202.95 535.057 Q208.737 535.057 212.117 538.228 Q215.496 541.4 215.496 546.816 Q215.496 552.395 212.024 555.497 Q208.552 558.575 202.233 558.575 Q200.057 558.575 197.788 558.205 Q195.543 557.835 193.135 557.094 L193.135 552.395 Q195.219 553.529 197.441 554.085 Q199.663 554.64 202.14 554.64 Q206.145 554.64 208.482 552.534 Q210.82 550.427 210.82 546.816 Q210.82 543.205 208.482 541.099 Q206.145 538.992 202.14 538.992 Q200.265 538.992 198.39 539.409 Q196.538 539.825 194.594 540.705 L194.594 523.344 Z" fill="#000000" fill-rule="nonzero" fill-opacity="1" /><path clip-path="url(#clip840)" d="M118.969 171.292 L126.608 171.292 L126.608 144.926 L118.298 146.593 L118.298 142.334 L126.562 140.667 L131.238 140.667 L131.238 171.292 L138.876 171.292 L138.876 175.227 L118.969 175.227 L118.969 171.292 Z" fill="#000000" fill-rule="nonzero" fill-opacity="1" /><path clip-path="url(#clip840)" d="M148.321 169.347 L153.205 169.347 L153.205 175.227 L148.321 175.227 L148.321 169.347 Z" fill="#000000" fill-rule="nonzero" fill-opacity="1" /><path clip-path="url(#clip840)" d="M173.39 143.746 Q169.779 143.746 167.95 147.311 Q166.145 150.852 166.145 157.982 Q166.145 165.088 167.95 168.653 Q169.779 172.195 173.39 172.195 Q177.024 172.195 178.83 168.653 Q180.659 165.088 180.659 157.982 Q180.659 150.852 178.83 147.311 Q177.024 143.746 173.39 143.746 M173.39 140.042 Q179.2 140.042 182.256 144.649 Q185.334 149.232 185.334 157.982 Q185.334 166.709 182.256 171.315 Q179.2 175.898 173.39 175.898 Q167.58 175.898 164.501 171.315 Q161.446 166.709 161.446 157.982 Q161.446 149.232 164.501 144.649 Q167.58 140.042 173.39 140.042 Z" fill="#000000" fill-rule="nonzero" fill-opacity="1" /><path clip-path="url(#clip840)" d="M203.552 143.746 Q199.941 143.746 198.112 147.311 Q196.307 150.852 196.307 157.982 Q196.307 165.088 198.112 168.653 Q199.941 172.195 203.552 172.195 Q207.186 172.195 208.992 168.653 Q210.82 165.088 210.82 157.982 Q210.82 150.852 208.992 147.311 Q207.186 143.746 203.552 143.746 M203.552 140.042 Q209.362 140.042 212.418 144.649 Q215.496 149.232 215.496 157.982 Q215.496 166.709 212.418 171.315 Q209.362 175.898 203.552 175.898 Q197.742 175.898 194.663 171.315 Q191.608 166.709 191.608 157.982 Q191.608 149.232 194.663 144.649 Q197.742 140.042 203.552 140.042 Z" fill="#000000" fill-rule="nonzero" fill-opacity="1" /><path clip-path="url(#clip840)" d="M12.1132 1255.51 L16.983 1255.51 L16.983 1261.11 Q16.983 1264.26 18.2562 1265.5 Q19.5293 1266.71 22.8395 1266.71 L25.9905 1266.71 L25.9905 1257.07 L30.542 1257.07 L30.542 1266.71 L61.6384 1266.71 L61.6384 1272.6 L30.542 1272.6 L30.542 1278.2 L25.9905 1278.2 L25.9905 1272.6 L23.5079 1272.6 Q17.5559 1272.6 14.8505 1269.83 Q12.1132 1267.06 12.1132 1261.05 L12.1132 1255.51 Z" fill="#000000" fill-rule="nonzero" fill-opacity="1" /><path clip-path="url(#clip840)" d="M31.465 1229.95 Q30.8921 1230.94 30.6375 1232.12 Q30.351 1233.26 30.351 1234.66 Q30.351 1239.63 33.5975 1242.3 Q36.8122 1244.94 42.8596 1244.94 L61.6384 1244.94 L61.6384 1250.83 L25.9905 1250.83 L25.9905 1244.94 L31.5287 1244.94 Q28.2821 1243.1 26.7225 1240.14 Q25.1311 1237.18 25.1311 1232.94 Q25.1311 1232.34 25.2266 1231.61 Q25.2903 1230.87 25.4494 1229.98 L31.465 1229.95 Z" fill="#000000" fill-rule="nonzero" fill-opacity="1" /><path clip-path="url(#clip840)" d="M43.719 1207.61 Q43.719 1214.71 45.3422 1217.44 Q46.9655 1220.18 50.8804 1220.18 Q53.9996 1220.18 55.8457 1218.14 Q57.6599 1216.07 57.6599 1212.54 Q57.6599 1207.67 54.2224 1204.74 Q50.7531 1201.78 45.0239 1201.78 L43.719 1201.78 L43.719 1207.61 M41.3 1195.93 L61.6384 1195.93 L61.6384 1201.78 L56.2276 1201.78 Q59.4741 1203.79 61.0337 1206.78 Q62.5615 1209.77 62.5615 1214.1 Q62.5615 1219.58 59.5059 1222.82 Q56.4186 1226.04 51.2623 1226.04 Q45.2467 1226.04 42.1912 1222.03 Q39.1357 1217.98 39.1357 1210 L39.1357 1201.78 L38.5628 1201.78 Q34.5205 1201.78 32.3244 1204.46 Q30.0964 1207.1 30.0964 1211.91 Q30.0964 1214.96 30.8284 1217.86 Q31.5605 1220.75 33.0246 1223.43 L27.6137 1223.43 Q26.3724 1220.21 25.7677 1217.19 Q25.1311 1214.16 25.1311 1211.3 Q25.1311 1203.57 29.1415 1199.75 Q33.1519 1195.93 41.3 1195.93 Z" fill="#000000" fill-rule="nonzero" fill-opacity="1" /><path clip-path="url(#clip840)" d="M27.3591 1158.21 L32.8336 1158.21 Q31.465 1160.69 30.7966 1163.21 Q30.0964 1165.69 30.0964 1168.24 Q30.0964 1173.93 33.7248 1177.08 Q37.3214 1180.24 43.8463 1180.24 Q50.3711 1180.24 53.9996 1177.08 Q57.5962 1173.93 57.5962 1168.24 Q57.5962 1165.69 56.9278 1163.21 Q56.2276 1160.69 54.859 1158.21 L60.2698 1158.21 Q61.4156 1160.66 61.9886 1163.3 Q62.5615 1165.91 62.5615 1168.87 Q62.5615 1176.93 57.5007 1181.67 Q52.44 1186.41 43.8463 1186.41 Q35.1253 1186.41 30.1282 1181.64 Q25.1311 1176.83 25.1311 1168.49 Q25.1311 1165.79 25.704 1163.21 Q26.2451 1160.63 27.3591 1158.21 Z" fill="#000000" fill-rule="nonzero" fill-opacity="1" /><path clip-path="url(#clip840)" d="M15.869 1142.23 L25.9905 1142.23 L25.9905 1130.17 L30.542 1130.17 L30.542 1142.23 L49.8937 1142.23 Q54.2542 1142.23 55.4955 1141.05 Q56.7368 1139.85 56.7368 1136.18 L56.7368 1130.17 L61.6384 1130.17 L61.6384 1136.18 Q61.6384 1142.96 59.124 1145.54 Q56.5777 1148.12 49.8937 1148.12 L30.542 1148.12 L30.542 1152.42 L25.9905 1152.42 L25.9905 1148.12 L15.869 1148.12 L15.869 1142.23 Z" fill="#000000" fill-rule="nonzero" fill-opacity="1" /><path clip-path="url(#clip840)" d="M25.9905 1122.47 L25.9905 1116.61 L61.6384 1116.61 L61.6384 1122.47 L25.9905 1122.47 M12.1132 1122.47 L12.1132 1116.61 L19.5293 1116.61 L19.5293 1122.47 L12.1132 1122.47 Z" fill="#000000" fill-rule="nonzero" fill-opacity="1" /><path clip-path="url(#clip840)" d="M30.0964 1090.54 Q30.0964 1095.25 33.7885 1097.99 Q37.4488 1100.73 43.8463 1100.73 Q50.2438 1100.73 53.9359 1098.02 Q57.5962 1095.29 57.5962 1090.54 Q57.5962 1085.86 53.9041 1083.13 Q50.212 1080.39 43.8463 1080.39 Q37.5124 1080.39 33.8203 1083.13 Q30.0964 1085.86 30.0964 1090.54 M25.1311 1090.54 Q25.1311 1082.9 30.0964 1078.54 Q35.0616 1074.18 43.8463 1074.18 Q52.5991 1074.18 57.5962 1078.54 Q62.5615 1082.9 62.5615 1090.54 Q62.5615 1098.21 57.5962 1102.57 Q52.5991 1106.9 43.8463 1106.9 Q35.0616 1106.9 30.0964 1102.57 Q25.1311 1098.21 25.1311 1090.54 Z" fill="#000000" fill-rule="nonzero" fill-opacity="1" /><path clip-path="url(#clip840)" d="M40.1224 1034.84 L61.6384 1034.84 L61.6384 1040.7 L40.3133 1040.7 Q35.2526 1040.7 32.7381 1042.67 Q30.2237 1044.65 30.2237 1048.59 Q30.2237 1053.34 33.2474 1056.07 Q36.2711 1058.81 41.491 1058.81 L61.6384 1058.81 L61.6384 1064.7 L25.9905 1064.7 L25.9905 1058.81 L31.5287 1058.81 Q28.314 1056.71 26.7225 1053.88 Q25.1311 1051.01 25.1311 1047.29 Q25.1311 1041.14 28.9505 1037.99 Q32.7381 1034.84 40.1224 1034.84 Z" fill="#000000" fill-rule="nonzero" fill-opacity="1" /><path clip-path="url(#clip840)" d="M30.0964 988.628 Q30.0964 993.338 33.7885 996.076 Q37.4488 998.813 43.8463 998.813 Q50.2438 998.813 53.9359 996.108 Q57.5962 993.37 57.5962 988.628 Q57.5962 983.949 53.9041 981.212 Q50.212 978.475 43.8463 978.475 Q37.5124 978.475 33.8203 981.212 Q30.0964 983.949 30.0964 988.628 M25.1311 988.628 Q25.1311 980.989 30.0964 976.629 Q35.0616 972.268 43.8463 972.268 Q52.5991 972.268 57.5962 976.629 Q62.5615 980.989 62.5615 988.628 Q62.5615 996.299 57.5962 1000.66 Q52.5991 1004.99 43.8463 1004.99 Q35.0616 1004.99 30.0964 1000.66 Q25.1311 996.299 25.1311 988.628 Z" fill="#000000" fill-rule="nonzero" fill-opacity="1" /><path clip-path="url(#clip840)" d="M12.1132 944.514 L16.983 944.514 L16.983 950.115 Q16.983 953.266 18.2562 954.508 Q19.5293 955.717 22.8395 955.717 L25.9905 955.717 L25.9905 946.073 L30.542 946.073 L30.542 955.717 L61.6384 955.717 L61.6384 961.605 L30.542 961.605 L30.542 967.207 L25.9905 967.207 L25.9905 961.605 L23.5079 961.605 Q17.5559 961.605 14.8505 958.836 Q12.1132 956.067 12.1132 950.052 L12.1132 944.514 Z" fill="#000000" fill-rule="nonzero" fill-opacity="1" /><path clip-path="url(#clip840)" d="M56.2912 913.226 L75.1974 913.226 L75.1974 919.114 L25.9905 919.114 L25.9905 913.226 L31.4013 913.226 Q28.2185 911.38 26.6907 908.579 Q25.1311 905.746 25.1311 901.831 Q25.1311 895.338 30.2873 891.296 Q35.4436 887.222 43.8463 887.222 Q52.249 887.222 57.4052 891.296 Q62.5615 895.338 62.5615 901.831 Q62.5615 905.746 61.0337 908.579 Q59.4741 911.38 56.2912 913.226 M43.8463 893.301 Q37.3851 893.301 33.7248 895.975 Q30.0327 898.617 30.0327 903.264 Q30.0327 907.911 33.7248 910.584 Q37.3851 913.226 43.8463 913.226 Q50.3075 913.226 53.9996 910.584 Q57.6599 907.911 57.6599 903.264 Q57.6599 898.617 53.9996 895.975 Q50.3075 893.301 43.8463 893.301 Z" fill="#000000" fill-rule="nonzero" fill-opacity="1" /><path clip-path="url(#clip840)" d="M30.0964 863.701 Q30.0964 868.411 33.7885 871.149 Q37.4488 873.886 43.8463 873.886 Q50.2438 873.886 53.9359 871.181 Q57.5962 868.443 57.5962 863.701 Q57.5962 859.022 53.9041 856.285 Q50.212 853.548 43.8463 853.548 Q37.5124 853.548 33.8203 856.285 Q30.0964 859.022 30.0964 863.701 M25.1311 863.701 Q25.1311 856.062 30.0964 851.702 Q35.0616 847.341 43.8463 847.341 Q52.5991 847.341 57.5962 851.702 Q62.5615 856.062 62.5615 863.701 Q62.5615 871.372 57.5962 875.732 Q52.5991 880.061 43.8463 880.061 Q35.0616 880.061 30.0964 875.732 Q25.1311 871.372 25.1311 863.701 Z" fill="#000000" fill-rule="nonzero" fill-opacity="1" /><path clip-path="url(#clip840)" d="M56.2912 831.968 L75.1974 831.968 L75.1974 837.856 L25.9905 837.856 L25.9905 831.968 L31.4013 831.968 Q28.2185 830.122 26.6907 827.321 Q25.1311 824.488 25.1311 820.573 Q25.1311 814.08 30.2873 810.038 Q35.4436 805.964 43.8463 805.964 Q52.249 805.964 57.4052 810.038 Q62.5615 814.08 62.5615 820.573 Q62.5615 824.488 61.0337 827.321 Q59.4741 830.122 56.2912 831.968 M43.8463 812.043 Q37.3851 812.043 33.7248 814.717 Q30.0327 817.359 30.0327 822.005 Q30.0327 826.652 33.7248 829.326 Q37.3851 831.968 43.8463 831.968 Q50.3075 831.968 53.9996 829.326 Q57.6599 826.652 57.6599 822.005 Q57.6599 817.359 53.9996 814.717 Q50.3075 812.043 43.8463 812.043 Z" fill="#000000" fill-rule="nonzero" fill-opacity="1" /><path clip-path="url(#clip840)" d="M47.5702 796.861 L25.9905 796.861 L25.9905 791.004 L47.3474 791.004 Q52.4082 791.004 54.9545 789.031 Q57.4689 787.058 57.4689 783.111 Q57.4689 778.369 54.4452 775.631 Q51.4215 772.862 46.2016 772.862 L25.9905 772.862 L25.9905 767.006 L61.6384 767.006 L61.6384 772.862 L56.1639 772.862 Q59.4104 774.995 61.0019 777.827 Q62.5615 780.628 62.5615 784.352 Q62.5615 790.495 58.742 793.678 Q54.9226 796.861 47.5702 796.861 M25.1311 782.124 L25.1311 782.124 Z" fill="#000000" fill-rule="nonzero" fill-opacity="1" /><path clip-path="url(#clip840)" d="M12.1132 754.943 L12.1132 749.086 L61.6384 749.086 L61.6384 754.943 L12.1132 754.943 Z" fill="#000000" fill-rule="nonzero" fill-opacity="1" /><path clip-path="url(#clip840)" d="M43.719 720.632 Q43.719 727.729 45.3422 730.467 Q46.9655 733.204 50.8804 733.204 Q53.9996 733.204 55.8457 731.167 Q57.6599 729.098 57.6599 725.565 Q57.6599 720.695 54.2224 717.767 Q50.7531 714.807 45.0239 714.807 L43.719 714.807 L43.719 720.632 M41.3 708.951 L61.6384 708.951 L61.6384 714.807 L56.2276 714.807 Q59.4741 716.812 61.0337 719.804 Q62.5615 722.796 62.5615 727.125 Q62.5615 732.599 59.5059 735.846 Q56.4186 739.06 51.2623 739.06 Q45.2467 739.06 42.1912 735.05 Q39.1357 731.008 39.1357 723.019 L39.1357 714.807 L38.5628 714.807 Q34.5205 714.807 32.3244 717.481 Q30.0964 720.122 30.0964 724.928 Q30.0964 727.984 30.8284 730.88 Q31.5605 733.777 33.0246 736.45 L27.6137 736.45 Q26.3724 733.236 25.7677 730.212 Q25.1311 727.188 25.1311 724.324 Q25.1311 716.589 29.1415 712.77 Q33.1519 708.951 41.3 708.951 Z" fill="#000000" fill-rule="nonzero" fill-opacity="1" /><path clip-path="url(#clip840)" d="M15.869 691.095 L25.9905 691.095 L25.9905 679.032 L30.542 679.032 L30.542 691.095 L49.8937 691.095 Q54.2542 691.095 55.4955 689.917 Q56.7368 688.708 56.7368 685.047 L56.7368 679.032 L61.6384 679.032 L61.6384 685.047 Q61.6384 691.827 59.124 694.405 Q56.5777 696.983 49.8937 696.983 L30.542 696.983 L30.542 701.28 L25.9905 701.28 L25.9905 696.983 L15.869 696.983 L15.869 691.095 Z" fill="#000000" fill-rule="nonzero" fill-opacity="1" /><path clip-path="url(#clip840)" d="M25.9905 671.329 L25.9905 665.473 L61.6384 665.473 L61.6384 671.329 L25.9905 671.329 M12.1132 671.329 L12.1132 665.473 L19.5293 665.473 L19.5293 671.329 L12.1132 671.329 Z" fill="#000000" fill-rule="nonzero" fill-opacity="1" /><path clip-path="url(#clip840)" d="M30.0964 639.405 Q30.0964 644.116 33.7885 646.853 Q37.4488 649.59 43.8463 649.59 Q50.2438 649.59 53.9359 646.885 Q57.5962 644.148 57.5962 639.405 Q57.5962 634.726 53.9041 631.989 Q50.212 629.252 43.8463 629.252 Q37.5124 629.252 33.8203 631.989 Q30.0964 634.726 30.0964 639.405 M25.1311 639.405 Q25.1311 631.766 30.0964 627.406 Q35.0616 623.045 43.8463 623.045 Q52.5991 623.045 57.5962 627.406 Q62.5615 631.766 62.5615 639.405 Q62.5615 647.076 57.5962 651.436 Q52.5991 655.765 43.8463 655.765 Q35.0616 655.765 30.0964 651.436 Q25.1311 647.076 25.1311 639.405 Z" fill="#000000" fill-rule="nonzero" fill-opacity="1" /><path clip-path="url(#clip840)" d="M40.1224 583.705 L61.6384 583.705 L61.6384 589.562 L40.3133 589.562 Q35.2526 589.562 32.7381 591.535 Q30.2237 593.508 30.2237 597.455 Q30.2237 602.198 33.2474 604.935 Q36.2711 607.672 41.491 607.672 L61.6384 607.672 L61.6384 613.56 L25.9905 613.56 L25.9905 607.672 L31.5287 607.672 Q28.314 605.571 26.7225 602.739 Q25.1311 599.874 25.1311 596.15 Q25.1311 590.007 28.9505 586.856 Q32.7381 583.705 40.1224 583.705 Z" fill="#000000" fill-rule="nonzero" fill-opacity="1" /><path clip-path="url(#clip840)" d="M424.258 44.2197 Q426.891 45.1109 429.362 48.0275 Q431.874 50.9442 434.385 56.0483 L442.69 72.576 L433.899 72.576 L426.162 57.061 Q423.164 50.9847 420.329 48.9997 Q417.534 47.0148 412.672 47.0148 L403.76 47.0148 L403.76 72.576 L395.578 72.576 L395.578 12.096 L414.05 12.096 Q424.42 12.096 429.524 16.4305 Q434.628 20.7649 434.628 29.5149 Q434.628 35.2267 431.955 38.994 Q429.322 42.7613 424.258 44.2197 M403.76 18.8205 L403.76 40.2903 L414.05 40.2903 Q419.964 40.2903 422.962 37.5762 Q426 34.8216 426 29.5149 Q426 24.2082 422.962 21.5346 Q419.964 18.8205 414.05 18.8205 L403.76 18.8205 Z" fill="#000000" fill-rule="nonzero" fill-opacity="1" /><path clip-path="url(#clip840)" d="M487.979 48.0275 L487.979 51.6733 L453.708 51.6733 Q454.194 59.3701 458.326 63.421 Q462.499 67.4314 469.912 67.4314 Q474.206 67.4314 478.216 66.3781 Q482.267 65.3249 486.237 63.2184 L486.237 70.267 Q482.226 71.9684 478.014 72.8596 Q473.801 73.7508 469.466 73.7508 Q458.61 73.7508 452.25 67.4314 Q445.93 61.1119 445.93 50.3365 Q445.93 39.1965 451.926 32.6746 Q457.962 26.1121 468.17 26.1121 Q477.325 26.1121 482.632 32.0264 Q487.979 37.9003 487.979 48.0275 M480.525 45.84 Q480.444 39.7232 477.082 36.0774 Q473.76 32.4315 468.251 32.4315 Q462.012 32.4315 458.245 35.9558 Q454.518 39.4801 453.951 45.8805 L480.525 45.84 Z" fill="#000000" fill-rule="nonzero" fill-opacity="1" /><path clip-path="url(#clip840)" d="M500.212 27.2059 L507.666 27.2059 L507.666 72.576 L500.212 72.576 L500.212 27.2059 M500.212 9.54393 L507.666 9.54393 L507.666 18.9825 L500.212 18.9825 L500.212 9.54393 Z" fill="#000000" fill-rule="nonzero" fill-opacity="1" /><path clip-path="url(#clip840)" d="M560.976 45.1919 L560.976 72.576 L553.522 72.576 L553.522 45.4349 Q553.522 38.994 551.011 35.7938 Q548.499 32.5936 543.476 32.5936 Q537.44 32.5936 533.957 36.4419 Q530.473 40.2903 530.473 46.9338 L530.473 72.576 L522.979 72.576 L522.979 27.2059 L530.473 27.2059 L530.473 34.2544 Q533.146 30.163 536.752 28.1376 Q540.397 26.1121 545.137 26.1121 Q552.955 26.1121 556.966 30.9732 Q560.976 35.7938 560.976 45.1919 Z" fill="#000000" fill-rule="nonzero" fill-opacity="1" /><path clip-path="url(#clip840)" d="M598.811 9.54393 L598.811 15.7418 L591.682 15.7418 Q587.672 15.7418 586.092 17.3622 Q584.552 18.9825 584.552 23.1955 L584.552 27.2059 L596.827 27.2059 L596.827 32.9987 L584.552 32.9987 L584.552 72.576 L577.058 72.576 L577.058 32.9987 L569.929 32.9987 L569.929 27.2059 L577.058 27.2059 L577.058 24.0462 Q577.058 16.471 580.582 13.0277 Q584.107 9.54393 591.763 9.54393 L598.811 9.54393 Z" fill="#000000" fill-rule="nonzero" fill-opacity="1" /><path clip-path="url(#clip840)" d="M643.858 48.0275 L643.858 51.6733 L609.587 51.6733 Q610.073 59.3701 614.205 63.421 Q618.377 67.4314 625.791 67.4314 Q630.084 67.4314 634.095 66.3781 Q638.146 65.3249 642.116 63.2184 L642.116 70.267 Q638.105 71.9684 633.892 72.8596 Q629.679 73.7508 625.345 73.7508 Q614.488 73.7508 608.129 67.4314 Q601.809 61.1119 601.809 50.3365 Q601.809 39.1965 607.805 32.6746 Q613.84 26.1121 624.049 26.1121 Q633.204 26.1121 638.51 32.0264 Q643.858 37.9003 643.858 48.0275 M636.404 45.84 Q636.323 39.7232 632.961 36.0774 Q629.639 32.4315 624.13 32.4315 Q617.891 32.4315 614.124 35.9558 Q610.397 39.4801 609.83 45.8805 L636.404 45.84 Z" fill="#000000" fill-rule="nonzero" fill-opacity="1" /><path clip-path="url(#clip840)" d="M688.742 28.9478 L688.742 35.9153 Q685.582 34.1734 682.382 33.3227 Q679.222 32.4315 675.981 32.4315 Q668.73 32.4315 664.72 37.0496 Q660.709 41.6271 660.709 49.9314 Q660.709 58.2358 664.72 62.8538 Q668.73 67.4314 675.981 67.4314 Q679.222 67.4314 682.382 66.5807 Q685.582 65.6895 688.742 63.9476 L688.742 70.8341 Q685.622 72.2924 682.26 73.0216 Q678.938 73.7508 675.171 73.7508 Q664.922 73.7508 658.886 67.3098 Q652.851 60.8689 652.851 49.9314 Q652.851 38.832 658.927 32.472 Q665.044 26.1121 675.657 26.1121 Q679.1 26.1121 682.382 26.8413 Q685.663 27.5299 688.742 28.9478 Z" fill="#000000" fill-rule="nonzero" fill-opacity="1" /><path clip-path="url(#clip840)" d="M709.077 14.324 L709.077 27.2059 L724.43 27.2059 L724.43 32.9987 L709.077 32.9987 L709.077 57.6282 Q709.077 63.1779 710.576 64.7578 Q712.115 66.3376 716.774 66.3376 L724.43 66.3376 L724.43 72.576 L716.774 72.576 Q708.145 72.576 704.864 69.3758 Q701.583 66.1351 701.583 57.6282 L701.583 32.9987 L696.114 32.9987 L696.114 27.2059 L701.583 27.2059 L701.583 14.324 L709.077 14.324 Z" fill="#000000" fill-rule="nonzero" fill-opacity="1" /><path clip-path="url(#clip840)" d="M734.233 27.2059 L741.687 27.2059 L741.687 72.576 L734.233 72.576 L734.233 27.2059 M734.233 9.54393 L741.687 9.54393 L741.687 18.9825 L734.233 18.9825 L734.233 9.54393 Z" fill="#000000" fill-rule="nonzero" fill-opacity="1" /><path clip-path="url(#clip840)" d="M774.864 32.4315 Q768.868 32.4315 765.385 37.1306 Q761.901 41.7891 761.901 49.9314 Q761.901 58.0738 765.344 62.7728 Q768.828 67.4314 774.864 67.4314 Q780.819 67.4314 784.302 62.7323 Q787.786 58.0333 787.786 49.9314 Q787.786 41.8701 784.302 37.1711 Q780.819 32.4315 774.864 32.4315 M774.864 26.1121 Q784.586 26.1121 790.136 32.4315 Q795.685 38.7509 795.685 49.9314 Q795.685 61.0714 790.136 67.4314 Q784.586 73.7508 774.864 73.7508 Q765.101 73.7508 759.551 67.4314 Q754.042 61.0714 754.042 49.9314 Q754.042 38.7509 759.551 32.4315 Q765.101 26.1121 774.864 26.1121 Z" fill="#000000" fill-rule="nonzero" fill-opacity="1" /><path clip-path="url(#clip840)" d="M845.755 45.1919 L845.755 72.576 L838.301 72.576 L838.301 45.4349 Q838.301 38.994 835.789 35.7938 Q833.278 32.5936 828.255 32.5936 Q822.219 32.5936 818.735 36.4419 Q815.251 40.2903 815.251 46.9338 L815.251 72.576 L807.757 72.576 L807.757 27.2059 L815.251 27.2059 L815.251 34.2544 Q817.925 30.163 821.53 28.1376 Q825.176 26.1121 829.916 26.1121 Q837.734 26.1121 841.744 30.9732 Q845.755 35.7938 845.755 45.1919 Z" fill="#000000" fill-rule="nonzero" fill-opacity="1" /><path clip-path="url(#clip840)" d="M856.854 46.5287 L878.688 46.5287 L878.688 53.1722 L856.854 53.1722 L856.854 46.5287 Z" fill="#000000" fill-rule="nonzero" fill-opacity="1" /><path clip-path="url(#clip840)" d="M923.208 28.9478 L923.208 35.9153 Q920.048 34.1734 916.848 33.3227 Q913.688 32.4315 910.448 32.4315 Q903.196 32.4315 899.186 37.0496 Q895.176 41.6271 895.176 49.9314 Q895.176 58.2358 899.186 62.8538 Q903.196 67.4314 910.448 67.4314 Q913.688 67.4314 916.848 66.5807 Q920.048 65.6895 923.208 63.9476 L923.208 70.8341 Q920.089 72.2924 916.726 73.0216 Q913.405 73.7508 909.637 73.7508 Q899.389 73.7508 893.353 67.3098 Q887.317 60.8689 887.317 49.9314 Q887.317 38.832 893.393 32.472 Q899.51 26.1121 910.123 26.1121 Q913.567 26.1121 916.848 26.8413 Q920.129 27.5299 923.208 28.9478 Z" fill="#000000" fill-rule="nonzero" fill-opacity="1" /><path clip-path="url(#clip840)" d="M953.752 32.4315 Q947.756 32.4315 944.273 37.1306 Q940.789 41.7891 940.789 49.9314 Q940.789 58.0738 944.232 62.7728 Q947.716 67.4314 953.752 67.4314 Q959.707 67.4314 963.19 62.7323 Q966.674 58.0333 966.674 49.9314 Q966.674 41.8701 963.19 37.1711 Q959.707 32.4315 953.752 32.4315 M953.752 26.1121 Q963.474 26.1121 969.024 32.4315 Q974.573 38.7509 974.573 49.9314 Q974.573 61.0714 969.024 67.4314 Q963.474 73.7508 953.752 73.7508 Q943.989 73.7508 938.439 67.4314 Q932.93 61.0714 932.93 49.9314 Q932.93 38.7509 938.439 32.4315 Q943.989 26.1121 953.752 26.1121 Z" fill="#000000" fill-rule="nonzero" fill-opacity="1" /><path clip-path="url(#clip840)" d="M986.159 54.671 L986.159 27.2059 L993.613 27.2059 L993.613 54.3874 Q993.613 60.8284 996.124 64.0691 Q998.636 67.2693 1003.66 67.2693 Q1009.69 67.2693 1013.18 63.421 Q1016.7 59.5726 1016.7 52.9291 L1016.7 27.2059 L1024.16 27.2059 L1024.16 72.576 L1016.7 72.576 L1016.7 65.6084 Q1013.99 69.7404 1010.38 71.7658 Q1006.82 73.7508 1002.08 73.7508 Q994.261 73.7508 990.21 68.8897 Q986.159 64.0286 986.159 54.671 M1004.91 26.1121 L1004.91 26.1121 Z" fill="#000000" fill-rule="nonzero" fill-opacity="1" /><path clip-path="url(#clip840)" d="M1077.22 45.1919 L1077.22 72.576 L1069.77 72.576 L1069.77 45.4349 Q1069.77 38.994 1067.26 35.7938 Q1064.75 32.5936 1059.72 32.5936 Q1053.69 32.5936 1050.2 36.4419 Q1046.72 40.2903 1046.72 46.9338 L1046.72 72.576 L1039.23 72.576 L1039.23 27.2059 L1046.72 27.2059 L1046.72 34.2544 Q1049.39 30.163 1053 28.1376 Q1056.64 26.1121 1061.38 26.1121 Q1069.2 26.1121 1073.21 30.9732 Q1077.22 35.7938 1077.22 45.1919 Z" fill="#000000" fill-rule="nonzero" fill-opacity="1" /><path clip-path="url(#clip840)" d="M1099.46 14.324 L1099.46 27.2059 L1114.82 27.2059 L1114.82 32.9987 L1099.46 32.9987 L1099.46 57.6282 Q1099.46 63.1779 1100.96 64.7578 Q1102.5 66.3376 1107.16 66.3376 L1114.82 66.3376 L1114.82 72.576 L1107.16 72.576 Q1098.53 72.576 1095.25 69.3758 Q1091.97 66.1351 1091.97 57.6282 L1091.97 32.9987 L1086.5 32.9987 L1086.5 27.2059 L1091.97 27.2059 L1091.97 14.324 L1099.46 14.324 Z" fill="#000000" fill-rule="nonzero" fill-opacity="1" /><path clip-path="url(#clip840)" d="M1183.56 49.9314 Q1183.56 41.7081 1180.16 37.0496 Q1176.79 32.3505 1170.88 32.3505 Q1164.97 32.3505 1161.56 37.0496 Q1158.2 41.7081 1158.2 49.9314 Q1158.2 58.1548 1161.56 62.8538 Q1164.97 67.5124 1170.88 67.5124 Q1176.79 67.5124 1180.16 62.8538 Q1183.56 58.1548 1183.56 49.9314 M1158.2 34.0924 Q1160.55 30.0415 1164.12 28.0971 Q1167.72 26.1121 1172.7 26.1121 Q1180.97 26.1121 1186.11 32.6746 Q1191.3 39.2371 1191.3 49.9314 Q1191.3 60.6258 1186.11 67.1883 Q1180.97 73.7508 1172.7 73.7508 Q1167.72 73.7508 1164.12 71.8063 Q1160.55 69.8214 1158.2 65.7705 L1158.2 72.576 L1150.71 72.576 L1150.71 9.54393 L1158.2 9.54393 L1158.2 34.0924 Z" fill="#000000" fill-rule="nonzero" fill-opacity="1" /><path clip-path="url(#clip840)" d="M1229.94 34.1734 Q1228.69 33.4443 1227.19 33.1202 Q1225.73 32.7556 1223.95 32.7556 Q1217.63 32.7556 1214.22 36.8875 Q1210.86 40.9789 1210.86 48.6757 L1210.86 72.576 L1203.37 72.576 L1203.37 27.2059 L1210.86 27.2059 L1210.86 34.2544 Q1213.21 30.1225 1216.98 28.1376 Q1220.75 26.1121 1226.13 26.1121 Q1226.9 26.1121 1227.84 26.2337 Q1228.77 26.3147 1229.9 26.5172 L1229.94 34.1734 Z" fill="#000000" fill-rule="nonzero" fill-opacity="1" /><path clip-path="url(#clip840)" d="M1274.75 48.0275 L1274.75 51.6733 L1240.47 51.6733 Q1240.96 59.3701 1245.09 63.421 Q1249.27 67.4314 1256.68 67.4314 Q1260.97 67.4314 1264.98 66.3781 Q1269.03 65.3249 1273 63.2184 L1273 70.267 Q1268.99 71.9684 1264.78 72.8596 Q1260.57 73.7508 1256.23 73.7508 Q1245.38 73.7508 1239.02 67.4314 Q1232.7 61.1119 1232.7 50.3365 Q1232.7 39.1965 1238.69 32.6746 Q1244.73 26.1121 1254.94 26.1121 Q1264.09 26.1121 1269.4 32.0264 Q1274.75 37.9003 1274.75 48.0275 M1267.29 45.84 Q1267.21 39.7232 1263.85 36.0774 Q1260.53 32.4315 1255.02 32.4315 Q1248.78 32.4315 1245.01 35.9558 Q1241.28 39.4801 1240.72 45.8805 L1267.29 45.84 Z" fill="#000000" fill-rule="nonzero" fill-opacity="1" /><path clip-path="url(#clip840)" d="M1307.6 49.7694 Q1298.56 49.7694 1295.08 51.8354 Q1291.6 53.9013 1291.6 58.8839 Q1291.6 62.8538 1294.19 65.2034 Q1296.82 67.5124 1301.32 67.5124 Q1307.52 67.5124 1311.24 63.1374 Q1315.01 58.7219 1315.01 51.4303 L1315.01 49.7694 L1307.6 49.7694 M1322.47 46.6907 L1322.47 72.576 L1315.01 72.576 L1315.01 65.6895 Q1312.46 69.8214 1308.65 71.8063 Q1304.84 73.7508 1299.33 73.7508 Q1292.37 73.7508 1288.23 69.8619 Q1284.14 65.9325 1284.14 59.3701 Q1284.14 51.7138 1289.25 47.825 Q1294.39 43.9361 1304.56 43.9361 L1315.01 43.9361 L1315.01 43.2069 Q1315.01 38.0623 1311.61 35.2672 Q1308.25 32.4315 1302.13 32.4315 Q1298.24 32.4315 1294.55 33.3632 Q1290.87 34.295 1287.47 36.1584 L1287.47 29.2718 Q1291.56 27.692 1295.4 26.9223 Q1299.25 26.1121 1302.9 26.1121 Q1312.74 26.1121 1317.6 31.2163 Q1322.47 36.3204 1322.47 46.6907 Z" fill="#000000" fill-rule="nonzero" fill-opacity="1" /><path clip-path="url(#clip840)" d="M1337.53 9.54393 L1345.03 9.54393 L1345.03 46.7717 L1367.27 27.2059 L1376.79 27.2059 L1352.73 48.4326 L1377.8 72.576 L1368.08 72.576 L1345.03 50.4176 L1345.03 72.576 L1337.53 72.576 L1337.53 9.54393 Z" fill="#000000" fill-rule="nonzero" fill-opacity="1" /><path clip-path="url(#clip840)" d="M1415.72 34.0924 L1415.72 9.54393 L1423.17 9.54393 L1423.17 72.576 L1415.72 72.576 L1415.72 65.7705 Q1413.37 69.8214 1409.76 71.8063 Q1406.2 73.7508 1401.17 73.7508 Q1392.95 73.7508 1387.77 67.1883 Q1382.62 60.6258 1382.62 49.9314 Q1382.62 39.2371 1387.77 32.6746 Q1392.95 26.1121 1401.17 26.1121 Q1406.2 26.1121 1409.76 28.0971 Q1413.37 30.0415 1415.72 34.0924 M1390.32 49.9314 Q1390.32 58.1548 1393.68 62.8538 Q1397.08 67.5124 1403 67.5124 Q1408.91 67.5124 1412.31 62.8538 Q1415.72 58.1548 1415.72 49.9314 Q1415.72 41.7081 1412.31 37.0496 Q1408.91 32.3505 1403 32.3505 Q1397.08 32.3505 1393.68 37.0496 Q1390.32 41.7081 1390.32 49.9314 Z" fill="#000000" fill-rule="nonzero" fill-opacity="1" /><path clip-path="url(#clip840)" d="M1456.1 32.4315 Q1450.11 32.4315 1446.63 37.1306 Q1443.14 41.7891 1443.14 49.9314 Q1443.14 58.0738 1446.58 62.7728 Q1450.07 67.4314 1456.1 67.4314 Q1462.06 67.4314 1465.54 62.7323 Q1469.03 58.0333 1469.03 49.9314 Q1469.03 41.8701 1465.54 37.1711 Q1462.06 32.4315 1456.1 32.4315 M1456.1 26.1121 Q1465.83 26.1121 1471.38 32.4315 Q1476.93 38.7509 1476.93 49.9314 Q1476.93 61.0714 1471.38 67.4314 Q1465.83 73.7508 1456.1 73.7508 Q1446.34 73.7508 1440.79 67.4314 Q1435.28 61.0714 1435.28 49.9314 Q1435.28 38.7509 1440.79 32.4315 Q1446.34 26.1121 1456.1 26.1121 Z" fill="#000000" fill-rule="nonzero" fill-opacity="1" /><path clip-path="url(#clip840)" d="M1484.95 27.2059 L1492.4 27.2059 L1501.72 62.6108 L1510.99 27.2059 L1519.78 27.2059 L1529.1 62.6108 L1538.38 27.2059 L1545.83 27.2059 L1533.96 72.576 L1525.17 72.576 L1515.41 35.3887 L1505.61 72.576 L1496.82 72.576 L1484.95 27.2059 Z" fill="#000000" fill-rule="nonzero" fill-opacity="1" /><path clip-path="url(#clip840)" d="M1594.85 45.1919 L1594.85 72.576 L1587.39 72.576 L1587.39 45.4349 Q1587.39 38.994 1584.88 35.7938 Q1582.37 32.5936 1577.35 32.5936 Q1571.31 32.5936 1567.83 36.4419 Q1564.34 40.2903 1564.34 46.9338 L1564.34 72.576 L1556.85 72.576 L1556.85 27.2059 L1564.34 27.2059 L1564.34 34.2544 Q1567.02 30.163 1570.62 28.1376 Q1574.27 26.1121 1579.01 26.1121 Q1586.83 26.1121 1590.84 30.9732 Q1594.85 35.7938 1594.85 45.1919 Z" fill="#000000" fill-rule="nonzero" fill-opacity="1" /><path clip-path="url(#clip840)" d="M1653.67 32.4315 Q1647.67 32.4315 1644.19 37.1306 Q1640.7 41.7891 1640.7 49.9314 Q1640.7 58.0738 1644.15 62.7728 Q1647.63 67.4314 1653.67 67.4314 Q1659.62 67.4314 1663.11 62.7323 Q1666.59 58.0333 1666.59 49.9314 Q1666.59 41.8701 1663.11 37.1711 Q1659.62 32.4315 1653.67 32.4315 M1653.67 26.1121 Q1663.39 26.1121 1668.94 32.4315 Q1674.49 38.7509 1674.49 49.9314 Q1674.49 61.0714 1668.94 67.4314 Q1663.39 73.7508 1653.67 73.7508 Q1643.9 73.7508 1638.35 67.4314 Q1632.85 61.0714 1632.85 49.9314 Q1632.85 38.7509 1638.35 32.4315 Q1643.9 26.1121 1653.67 26.1121 Z" fill="#000000" fill-rule="nonzero" fill-opacity="1" /><path clip-path="url(#clip840)" d="M1709.81 9.54393 L1709.81 15.7418 L1702.68 15.7418 Q1698.67 15.7418 1697.09 17.3622 Q1695.55 18.9825 1695.55 23.1955 L1695.55 27.2059 L1707.83 27.2059 L1707.83 32.9987 L1695.55 32.9987 L1695.55 72.576 L1688.06 72.576 L1688.06 32.9987 L1680.93 32.9987 L1680.93 27.2059 L1688.06 27.2059 L1688.06 24.0462 Q1688.06 16.471 1691.58 13.0277 Q1695.11 9.54393 1702.76 9.54393 L1709.81 9.54393 Z" fill="#000000" fill-rule="nonzero" fill-opacity="1" /><path clip-path="url(#clip840)" d="M1771.35 28.5427 L1771.35 35.5912 Q1768.19 33.9709 1764.78 33.1607 Q1761.38 32.3505 1757.73 32.3505 Q1752.18 32.3505 1749.39 34.0519 Q1746.64 35.7533 1746.64 39.156 Q1746.64 41.7486 1748.62 43.2475 Q1750.61 44.7058 1756.6 46.0426 L1759.15 46.6097 Q1767.09 48.3111 1770.41 51.4303 Q1773.78 54.509 1773.78 60.0587 Q1773.78 66.3781 1768.75 70.0644 Q1763.77 73.7508 1755.02 73.7508 Q1751.37 73.7508 1747.4 73.0216 Q1743.48 72.3329 1739.1 70.9151 L1739.1 63.2184 Q1743.23 65.3654 1747.24 66.4591 Q1751.25 67.5124 1755.18 67.5124 Q1760.45 67.5124 1763.28 65.73 Q1766.12 63.9071 1766.12 60.6258 Q1766.12 57.5877 1764.05 55.9673 Q1762.03 54.3469 1755.1 52.8481 L1752.51 52.2405 Q1745.58 50.7821 1742.5 47.7845 Q1739.42 44.7463 1739.42 39.4801 Q1739.42 33.0797 1743.96 29.5959 Q1748.5 26.1121 1756.84 26.1121 Q1760.98 26.1121 1764.62 26.7198 Q1768.27 27.3274 1771.35 28.5427 Z" fill="#000000" fill-rule="nonzero" fill-opacity="1" /><path clip-path="url(#clip840)" d="M1784.88 54.671 L1784.88 27.2059 L1792.33 27.2059 L1792.33 54.3874 Q1792.33 60.8284 1794.84 64.0691 Q1797.35 67.2693 1802.38 67.2693 Q1808.41 67.2693 1811.9 63.421 Q1815.42 59.5726 1815.42 52.9291 L1815.42 27.2059 L1822.87 27.2059 L1822.87 72.576 L1815.42 72.576 L1815.42 65.6084 Q1812.71 69.7404 1809.1 71.7658 Q1805.54 73.7508 1800.8 73.7508 Q1792.98 73.7508 1788.93 68.8897 Q1784.88 64.0286 1784.88 54.671 M1803.63 26.1121 L1803.63 26.1121 Z" fill="#000000" fill-rule="nonzero" fill-opacity="1" /><path clip-path="url(#clip840)" d="M1867.15 28.5427 L1867.15 35.5912 Q1863.99 33.9709 1860.59 33.1607 Q1857.18 32.3505 1853.54 32.3505 Q1847.99 32.3505 1845.19 34.0519 Q1842.44 35.7533 1842.44 39.156 Q1842.44 41.7486 1844.42 43.2475 Q1846.41 44.7058 1852.4 46.0426 L1854.96 46.6097 Q1862.9 48.3111 1866.22 51.4303 Q1869.58 54.509 1869.58 60.0587 Q1869.58 66.3781 1864.56 70.0644 Q1859.57 73.7508 1850.82 73.7508 Q1847.18 73.7508 1843.21 73.0216 Q1839.28 72.3329 1834.9 70.9151 L1834.9 63.2184 Q1839.04 65.3654 1843.05 66.4591 Q1847.06 67.5124 1850.99 67.5124 Q1856.25 67.5124 1859.09 65.73 Q1861.92 63.9071 1861.92 60.6258 Q1861.92 57.5877 1859.86 55.9673 Q1857.83 54.3469 1850.91 52.8481 L1848.31 52.2405 Q1841.39 50.7821 1838.31 47.7845 Q1835.23 44.7463 1835.23 39.4801 Q1835.23 33.0797 1839.77 29.5959 Q1844.3 26.1121 1852.65 26.1121 Q1856.78 26.1121 1860.43 26.7198 Q1864.07 27.3274 1867.15 28.5427 Z" fill="#000000" fill-rule="nonzero" fill-opacity="1" /><path clip-path="url(#clip840)" d="M1914.1 28.9478 L1914.1 35.9153 Q1910.94 34.1734 1907.74 33.3227 Q1904.58 32.4315 1901.34 32.4315 Q1894.09 32.4315 1890.08 37.0496 Q1886.07 41.6271 1886.07 49.9314 Q1886.07 58.2358 1890.08 62.8538 Q1894.09 67.4314 1901.34 67.4314 Q1904.58 67.4314 1907.74 66.5807 Q1910.94 65.6895 1914.1 63.9476 L1914.1 70.8341 Q1910.98 72.2924 1907.62 73.0216 Q1904.3 73.7508 1900.53 73.7508 Q1890.28 73.7508 1884.24 67.3098 Q1878.21 60.8689 1878.21 49.9314 Q1878.21 38.832 1884.28 32.472 Q1890.4 26.1121 1901.02 26.1121 Q1904.46 26.1121 1907.74 26.8413 Q1911.02 27.5299 1914.1 28.9478 Z" fill="#000000" fill-rule="nonzero" fill-opacity="1" /><path clip-path="url(#clip840)" d="M1965.87 48.0275 L1965.87 51.6733 L1931.6 51.6733 Q1932.09 59.3701 1936.22 63.421 Q1940.39 67.4314 1947.8 67.4314 Q1952.1 67.4314 1956.11 66.3781 Q1960.16 65.3249 1964.13 63.2184 L1964.13 70.267 Q1960.12 71.9684 1955.9 72.8596 Q1951.69 73.7508 1947.36 73.7508 Q1936.5 73.7508 1930.14 67.4314 Q1923.82 61.1119 1923.82 50.3365 Q1923.82 39.1965 1929.82 32.6746 Q1935.85 26.1121 1946.06 26.1121 Q1955.22 26.1121 1960.52 32.0264 Q1965.87 37.9003 1965.87 48.0275 M1958.42 45.84 Q1958.34 39.7232 1954.97 36.0774 Q1951.65 32.4315 1946.14 32.4315 Q1939.9 32.4315 1936.14 35.9558 Q1932.41 39.4801 1931.84 45.8805 L1958.42 45.84 Z" fill="#000000" fill-rule="nonzero" fill-opacity="1" /><path clip-path="url(#clip840)" d="M1985.31 65.7705 L1985.31 89.8329 L1977.82 89.8329 L1977.82 27.2059 L1985.31 27.2059 L1985.31 34.0924 Q1987.66 30.0415 1991.23 28.0971 Q1994.83 26.1121 1999.82 26.1121 Q2008.08 26.1121 2013.23 32.6746 Q2018.41 39.2371 2018.41 49.9314 Q2018.41 60.6258 2013.23 67.1883 Q2008.08 73.7508 1999.82 73.7508 Q1994.83 73.7508 1991.23 71.8063 Q1987.66 69.8214 1985.31 65.7705 M2010.67 49.9314 Q2010.67 41.7081 2007.27 37.0496 Q2003.91 32.3505 1997.99 32.3505 Q1992.08 32.3505 1988.68 37.0496 Q1985.31 41.7081 1985.31 49.9314 Q1985.31 58.1548 1988.68 62.8538 Q1992.08 67.5124 1997.99 67.5124 Q2003.91 67.5124 2007.27 62.8538 Q2010.67 58.1548 2010.67 49.9314 Z" fill="#000000" fill-rule="nonzero" fill-opacity="1" /><path clip-path="url(#clip840)" d="M2038.14 14.324 L2038.14 27.2059 L2053.49 27.2059 L2053.49 32.9987 L2038.14 32.9987 L2038.14 57.6282 Q2038.14 63.1779 2039.64 64.7578 Q2041.18 66.3376 2045.83 66.3376 L2053.49 66.3376 L2053.49 72.576 L2045.83 72.576 Q2037.21 72.576 2033.93 69.3758 Q2030.64 66.1351 2030.64 57.6282 L2030.64 32.9987 L2025.18 32.9987 L2025.18 27.2059 L2030.64 27.2059 L2030.64 14.324 L2038.14 14.324 Z" fill="#000000" fill-rule="nonzero" fill-opacity="1" /><path clip-path="url(#clip840)" d="M2063.29 27.2059 L2070.75 27.2059 L2070.75 72.576 L2063.29 72.576 L2063.29 27.2059 M2063.29 9.54393 L2070.75 9.54393 L2070.75 18.9825 L2063.29 18.9825 L2063.29 9.54393 Z" fill="#000000" fill-rule="nonzero" fill-opacity="1" /><path clip-path="url(#clip840)" d="M2118.91 49.9314 Q2118.91 41.7081 2115.51 37.0496 Q2112.15 32.3505 2106.23 32.3505 Q2100.32 32.3505 2096.92 37.0496 Q2093.55 41.7081 2093.55 49.9314 Q2093.55 58.1548 2096.92 62.8538 Q2100.32 67.5124 2106.23 67.5124 Q2112.15 67.5124 2115.51 62.8538 Q2118.91 58.1548 2118.91 49.9314 M2093.55 34.0924 Q2095.9 30.0415 2099.47 28.0971 Q2103.07 26.1121 2108.06 26.1121 Q2116.32 26.1121 2121.47 32.6746 Q2126.65 39.2371 2126.65 49.9314 Q2126.65 60.6258 2121.47 67.1883 Q2116.32 73.7508 2108.06 73.7508 Q2103.07 73.7508 2099.47 71.8063 Q2095.9 69.8214 2093.55 65.7705 L2093.55 72.576 L2086.06 72.576 L2086.06 9.54393 L2093.55 9.54393 L2093.55 34.0924 Z" fill="#000000" fill-rule="nonzero" fill-opacity="1" /><path clip-path="url(#clip840)" d="M2139.01 9.54393 L2146.46 9.54393 L2146.46 72.576 L2139.01 72.576 L2139.01 9.54393 Z" fill="#000000" fill-rule="nonzero" fill-opacity="1" /><path clip-path="url(#clip840)" d="M2200.86 48.0275 L2200.86 51.6733 L2166.59 51.6733 Q2167.08 59.3701 2171.21 63.421 Q2175.38 67.4314 2182.8 67.4314 Q2187.09 67.4314 2191.1 66.3781 Q2195.15 65.3249 2199.12 63.2184 L2199.12 70.267 Q2195.11 71.9684 2190.9 72.8596 Q2186.68 73.7508 2182.35 73.7508 Q2171.49 73.7508 2165.13 67.4314 Q2158.81 61.1119 2158.81 50.3365 Q2158.81 39.1965 2164.81 32.6746 Q2170.85 26.1121 2181.05 26.1121 Q2190.21 26.1121 2195.52 32.0264 Q2200.86 37.9003 2200.86 48.0275 M2193.41 45.84 Q2193.33 39.7232 2189.97 36.0774 Q2186.64 32.4315 2181.14 32.4315 Q2174.9 32.4315 2171.13 35.9558 Q2167.4 39.4801 2166.84 45.8805 L2193.41 45.84 Z" fill="#000000" fill-rule="nonzero" fill-opacity="1" /><path clip-path="url(#clip840)" d="M2242.02 28.5427 L2242.02 35.5912 Q2238.86 33.9709 2235.46 33.1607 Q2232.06 32.3505 2228.41 32.3505 Q2222.86 32.3505 2220.06 34.0519 Q2217.31 35.7533 2217.31 39.156 Q2217.31 41.7486 2219.29 43.2475 Q2221.28 44.7058 2227.27 46.0426 L2229.83 46.6097 Q2237.77 48.3111 2241.09 51.4303 Q2244.45 54.509 2244.45 60.0587 Q2244.45 66.3781 2239.43 70.0644 Q2234.45 73.7508 2225.7 73.7508 Q2222.05 73.7508 2218.08 73.0216 Q2214.15 72.3329 2209.78 70.9151 L2209.78 63.2184 Q2213.91 65.3654 2217.92 66.4591 Q2221.93 67.5124 2225.86 67.5124 Q2231.12 67.5124 2233.96 65.73 Q2236.79 63.9071 2236.79 60.6258 Q2236.79 57.5877 2234.73 55.9673 Q2232.7 54.3469 2225.78 52.8481 L2223.18 52.2405 Q2216.26 50.7821 2213.18 47.7845 Q2210.1 44.7463 2210.1 39.4801 Q2210.1 33.0797 2214.64 29.5959 Q2219.17 26.1121 2227.52 26.1121 Q2231.65 26.1121 2235.3 26.7198 Q2238.94 27.3274 2242.02 28.5427 Z" fill="#000000" fill-rule="nonzero" fill-opacity="1" /><path clip-path="url(#clip840)" d="M2300.6 9.62495 Q2295.17 18.942 2292.54 28.0566 Q2289.9 37.1711 2289.9 46.5287 Q2289.9 55.8863 2292.54 65.0818 Q2295.21 74.2369 2300.6 83.5134 L2294.11 83.5134 Q2288.04 73.9938 2285 64.7983 Q2282 55.6027 2282 46.5287 Q2282 37.4952 2285 28.3401 Q2288 19.1851 2294.11 9.62495 L2300.6 9.62495 Z" fill="#000000" fill-rule="nonzero" fill-opacity="1" /><path clip-path="url(#clip840)" d="M2315.38 12.096 L2323.56 12.096 L2323.56 65.6895 L2353.02 65.6895 L2353.02 72.576 L2315.38 72.576 L2315.38 12.096 Z" fill="#000000" fill-rule="nonzero" fill-opacity="1" /><path clip-path="url(#clip840)" d="M2362.25 34.9026 L2414.18 34.9026 L2414.18 41.7081 L2362.25 41.7081 L2362.25 34.9026 M2362.25 51.4303 L2414.18 51.4303 L2414.18 58.3168 L2362.25 58.3168 L2362.25 51.4303 Z" fill="#000000" fill-rule="nonzero" fill-opacity="1" /><path clip-path="url(#clip840)" d="M2454.33 19.2256 L2433.67 51.5113 L2454.33 51.5113 L2454.33 19.2256 M2452.18 12.096 L2462.47 12.096 L2462.47 51.5113 L2471.1 51.5113 L2471.1 58.3168 L2462.47 58.3168 L2462.47 72.576 L2454.33 72.576 L2454.33 58.3168 L2427.03 58.3168 L2427.03 50.4176 L2452.18 12.096 Z" fill="#000000" fill-rule="nonzero" fill-opacity="1" /><path clip-path="url(#clip840)" d="M2482.4 9.62495 L2488.88 9.62495 Q2494.96 19.1851 2497.96 28.3401 Q2500.99 37.4952 2500.99 46.5287 Q2500.99 55.6027 2497.96 64.7983 Q2494.96 73.9938 2488.88 83.5134 L2482.4 83.5134 Q2487.79 74.2369 2490.42 65.0818 Q2493.1 55.8863 2493.1 46.5287 Q2493.1 37.1711 2490.42 28.0566 Q2487.79 18.942 2482.4 9.62495 Z" fill="#000000" fill-rule="nonzero" fill-opacity="1" /><polyline clip-path="url(#clip841)" style="stroke:#009af9; stroke-linecap:round; stroke-linejoin:round; stroke-width:8; stroke-opacity:1; fill:none" points="323.315,173.254 325.687,174.217 330.782,176.318 337.486,179.151 345.263,182.538 354.71,186.806 365.01,191.669 376.234,197.237 388.333,203.585 401.382,210.872 415.43,219.284 430.588,229.089 446.973,240.632 464.66,254.315 483.525,270.466 503.285,289.302 523.723,311.072 544.641,336.015 565.88,364.364 587.323,396.345 608.891,432.176 630.529,472.049 630.564,472.116 630.911,472.789 633.298,477.444 641.057,492.927 652.072,515.83 663.087,539.83 676.664,570.927 690.241,603.694 705.967,643.706 721.694,685.857 737.42,730.038 753.147,776.091 768.873,823.812 784.6,872.95 800.326,923.204 816.053,974.231 831.779,1025.65 847.505,1077.05 863.232,1127.99 878.958,1178.05 894.685,1226.77 910.411,1273.76 926.138,1318.62 941.864,1361.04 957.591,1400.73 957.616,1400.79 957.867,1401.4 959.525,1405.41 965.531,1419.66 974.32,1439.73 984.116,1460.96 995.285,1483.69 1006.45,1504.84 1019.2,1527.05 1031.95,1547.26 1044.7,1565.51 1057.45,1581.89 1057.47,1581.92 1057.68,1582.17 1059.03,1583.8 1064.62,1590.32 1073.11,1599.6 1082.71,1609.23 1093.69,1619.17 1104.66,1628.04 1117.4,1637.12 1130.14,1644.99 1144.4,1652.54 1158.66,1658.91 1172.92,1664.25 1187.18,1668.7 1201.43,1672.39 1217.37,1675.77 1233.31,1678.48 1249.25,1680.65 1265.18,1682.37 1282.9,1683.87 1300.61,1685.02 1318.33,1685.9 1336.04,1686.58 1355.93,1687.14 1375.82,1687.56 1397.92,1687.89 1420.03,1688.12 1442.13,1688.28 1466.9,1688.41 1491.66,1688.49 1519.32,1688.55 1546.97,1688.59 1574.63,1688.61 1602.28,1688.63 1629.94,1688.64 1660.67,1688.65 1691.41,1688.65 1722.14,1688.65 1752.88,1688.65 1783.61,1688.65 1814.35,1688.65 1845.09,1688.65 1875.82,1688.65 1906.56,1688.65 1940.81,1688.65 1975.06,1688.65 2009.3,1688.65 2043.55,1688.65 2077.8,1688.65 2112.05,1688.65 2146.3,1688.65 2184.41,1688.65 2222.52,1688.65 2260.62,1688.65 2298.73,1688.65 2336.84,1688.65 2374.95,1688.65 2417.41,1688.65 2459.87,1688.65 2502.34,1688.65 2544.8,1688.65 2573.26,1688.65 "/>
<polyline clip-path="url(#clip841)" style="stroke:#e26f46; stroke-linecap:round; stroke-linejoin:round; stroke-width:8; stroke-opacity:1; fill:none" points="323.315,1688.65 325.687,1688.49 330.782,1688.11 337.486,1687.56 345.263,1686.86 354.71,1685.93 365.01,1684.84 376.234,1683.58 388.333,1682.14 401.382,1680.51 415.43,1678.67 430.588,1676.59 446.973,1674.23 464.66,1671.54 483.525,1668.49 503.285,1665.09 523.723,1661.3 544.641,1657.12 565.88,1652.52 587.323,1647.48 608.891,1641.97 630.529,1635.99 630.564,1635.98 630.911,1635.88 633.298,1635.19 641.057,1632.91 652.072,1629.57 663.087,1626.11 676.664,1621.68 690.241,1617.09 705.967,1611.58 721.694,1605.88 737.42,1600.04 753.147,1594.1 768.873,1588.11 784.6,1582.14 800.326,1576.26 816.053,1570.54 831.779,1565.06 847.505,1559.92 863.232,1555.2 878.958,1550.98 894.685,1547.33 910.411,1544.33 926.138,1542.04 941.864,1540.49 957.591,1539.72 957.616,1539.72 957.867,1539.71 959.525,1539.67 965.531,1539.62 974.32,1539.74 984.116,1540.16 995.285,1541 1006.45,1542.2 1019.2,1544 1031.95,1546.22 1044.7,1548.83 1057.45,1551.8 1057.47,1551.8 1057.68,1551.85 1059.03,1552.19 1064.62,1553.6 1073.11,1555.86 1082.71,1558.54 1093.69,1561.77 1104.66,1565.13 1117.4,1569.18 1130.14,1573.33 1144.4,1578.07 1158.66,1582.85 1172.92,1587.64 1187.18,1592.39 1201.43,1597.08 1217.37,1602.2 1233.31,1607.18 1249.25,1611.99 1265.18,1616.61 1282.9,1621.51 1300.61,1626.16 1318.33,1630.54 1336.04,1634.67 1355.93,1639 1375.82,1643.02 1397.92,1647.14 1420.03,1650.92 1442.13,1654.37 1466.9,1657.88 1491.66,1661.04 1519.32,1664.2 1546.97,1667.01 1574.63,1669.5 1602.28,1671.7 1629.94,1673.66 1660.67,1675.57 1691.41,1677.24 1722.14,1678.69 1752.88,1679.96 1783.61,1681.07 1814.35,1682.04 1845.09,1682.88 1875.82,1683.62 1906.56,1684.26 1940.81,1684.88 1975.06,1685.42 2009.3,1685.87 2043.55,1686.27 2077.8,1686.6 2112.05,1686.89 2146.3,1687.14 2184.41,1687.38 2222.52,1687.58 2260.62,1687.74 2298.73,1687.89 2336.84,1688.01 2374.95,1688.11 2417.41,1688.2 2459.87,1688.28 2502.34,1688.34 2544.8,1688.4 2573.26,1688.43 "/>
<polyline clip-path="url(#clip841)" style="stroke:#3da44d; stroke-linecap:round; stroke-linejoin:round; stroke-width:8; stroke-opacity:1; fill:none" points="323.315,1688.65 325.687,1688.65 330.782,1688.65 337.486,1688.65 345.263,1688.65 354.71,1688.65 365.01,1688.64 376.234,1688.62 388.333,1688.58 401.382,1688.52 415.43,1688.42 430.588,1688.27 446.973,1688.05 464.66,1687.73 483.525,1687.29 503.285,1686.73 523.723,1686.01 544.641,1685.14 565.88,1684.09 587.323,1682.87 608.891,1681.47 630.529,1679.87 630.564,1679.86 630.911,1679.84 633.298,1679.65 641.057,1679.01 652.072,1678.07 663.087,1677.07 676.664,1675.75 690.241,1674.34 705.967,1672.59 721.694,1670.71 737.42,1668.69 753.147,1666.52 768.873,1664.21 784.6,1661.75 800.326,1659.14 816.053,1656.38 831.779,1653.48 847.505,1650.44 863.232,1647.27 878.958,1643.99 894.685,1640.61 910.411,1637.14 926.138,1633.62 941.864,1630.07 957.591,1626.51 957.616,1626.51 957.867,1626.45 959.525,1626.07 965.531,1624.72 974.32,1622.76 984.116,1620.59 995.285,1618.15 1006.45,1615.77 1019.2,1613.13 1031.95,1610.6 1044.7,1608.17 1057.45,1605.88 1057.47,1605.88 1057.68,1605.84 1059.03,1605.61 1064.62,1604.66 1073.11,1603.27 1082.71,1601.79 1093.69,1600.21 1104.66,1598.76 1117.4,1597.25 1130.14,1595.93 1144.4,1594.68 1158.66,1593.68 1172.92,1592.92 1187.18,1592.4 1201.43,1592.13 1217.37,1592.09 1233.31,1592.33 1249.25,1592.84 1265.18,1593.6 1282.9,1594.71 1300.61,1596.08 1318.33,1597.68 1336.04,1599.5 1355.93,1601.74 1375.82,1604.18 1397.92,1607.07 1420.03,1610.11 1442.13,1613.25 1466.9,1616.86 1491.66,1620.5 1519.32,1624.57 1546.97,1628.59 1574.63,1632.53 1602.28,1636.35 1629.94,1640.03 1660.67,1643.94 1691.41,1647.64 1722.14,1651.13 1752.88,1654.39 1783.61,1657.43 1814.35,1660.25 1845.09,1662.86 1875.82,1665.26 1906.56,1667.47 1940.81,1669.72 1975.06,1671.76 2009.3,1673.6 2043.55,1675.25 2077.8,1676.74 2112.05,1678.08 2146.3,1679.27 2184.41,1680.46 2222.52,1681.5 2260.62,1682.41 2298.73,1683.22 2336.84,1683.92 2374.95,1684.54 2417.41,1685.14 2459.87,1685.65 2502.34,1686.09 2544.8,1686.47 2573.26,1686.69 "/>
<polyline clip-path="url(#clip841)" style="stroke:#c271d2; stroke-linecap:round; stroke-linejoin:round; stroke-width:8; stroke-opacity:1; fill:none" points="323.315,1688.65 325.687,1688.65 330.782,1688.65 337.486,1688.65 345.263,1688.65 354.71,1688.65 365.01,1688.65 376.234,1688.65 388.333,1688.65 401.382,1688.65 415.43,1688.65 430.588,1688.65 446.973,1688.64 464.66,1688.62 483.525,1688.6 503.285,1688.55 523.723,1688.49 544.641,1688.39 565.88,1688.25 587.323,1688.07 608.891,1687.82 630.529,1687.52 630.564,1687.52 630.911,1687.51 633.298,1687.48 641.057,1687.35 652.072,1687.15 663.087,1686.92 676.664,1686.62 690.241,1686.28 705.967,1685.84 721.694,1685.34 737.42,1684.78 753.147,1684.17 768.873,1683.48 784.6,1682.72 800.326,1681.89 816.053,1680.98 831.779,1679.98 847.505,1678.89 863.232,1677.71 878.958,1676.44 894.685,1675.06 910.411,1673.59 926.138,1672.01 941.864,1670.32 957.591,1668.53 957.616,1668.53 957.867,1668.5 959.525,1668.31 965.531,1667.59 974.32,1666.51 984.116,1665.28 995.285,1663.82 1006.45,1662.32 1019.2,1660.55 1031.95,1658.72 1044.7,1656.85 1057.45,1654.92 1057.47,1654.92 1057.68,1654.89 1059.03,1654.68 1064.62,1653.82 1073.11,1652.51 1082.71,1651 1093.69,1649.26 1104.66,1647.5 1117.4,1645.45 1130.14,1643.39 1144.4,1641.09 1158.66,1638.8 1172.92,1636.54 1187.18,1634.32 1201.43,1632.15 1217.37,1629.79 1233.31,1627.53 1249.25,1625.37 1265.18,1623.33 1282.9,1621.21 1300.61,1619.26 1318.33,1617.5 1336.04,1615.93 1355.93,1614.4 1375.82,1613.13 1397.92,1612.02 1420.03,1611.22 1442.13,1610.74 1466.9,1610.55 1491.66,1610.72 1519.32,1611.3 1546.97,1612.27 1574.63,1613.57 1602.28,1615.18 1629.94,1617.05 1660.67,1619.38 1691.41,1621.93 1722.14,1624.66 1752.88,1627.5 1783.61,1630.43 1814.35,1633.4 1845.09,1636.38 1875.82,1639.35 1906.56,1642.27 1940.81,1645.46 1975.06,1648.54 2009.3,1651.51 2043.55,1654.34 2077.8,1657.04 2112.05,1659.59 2146.3,1661.99 2184.41,1664.49 2222.52,1666.81 2260.62,1668.94 2298.73,1670.91 2336.84,1672.71 2374.95,1674.35 2417.41,1676.01 2459.87,1677.5 2502.34,1678.83 2544.8,1680.02 2573.26,1680.74 "/>
<polyline clip-path="url(#clip841)" style="stroke:#ac8d18; stroke-linecap:round; stroke-linejoin:round; stroke-width:8; stroke-opacity:1; fill:none" points="323.315,1688.65 325.687,1688.65 330.782,1688.65 337.486,1688.65 345.263,1688.65 354.71,1688.65 365.01,1688.65 376.234,1688.65 388.333,1688.65 401.382,1688.65 415.43,1688.65 430.588,1688.65 446.973,1688.65 464.66,1688.65 483.525,1688.65 503.285,1688.65 523.723,1688.65 544.641,1688.64 565.88,1688.63 587.323,1688.61 608.891,1688.58 630.529,1688.54 630.564,1688.54 630.911,1688.54 633.298,1688.54 641.057,1688.52 652.072,1688.49 663.087,1688.45 676.664,1688.4 690.241,1688.34 705.967,1688.25 721.694,1688.14 737.42,1688.02 753.147,1687.87 768.873,1687.69 784.6,1687.48 800.326,1687.24 816.053,1686.97 831.779,1686.65 847.505,1686.29 863.232,1685.88 878.958,1685.41 894.685,1684.89 910.411,1684.3 926.138,1683.64 941.864,1682.9 957.591,1682.08 957.616,1682.08 957.867,1682.07 959.525,1681.98 965.531,1681.64 974.32,1681.12 984.116,1680.5 995.285,1679.75 1006.45,1678.95 1019.2,1677.98 1031.95,1676.92 1044.7,1675.79 1057.45,1674.59 1057.47,1674.58 1057.68,1674.56 1059.03,1674.43 1064.62,1673.87 1073.11,1672.99 1082.71,1671.95 1093.69,1670.7 1104.66,1669.38 1117.4,1667.76 1130.14,1666.06 1144.4,1664.03 1158.66,1661.89 1172.92,1659.64 1187.18,1657.26 1201.43,1654.76 1217.37,1651.83 1233.31,1648.75 1249.25,1645.54 1265.18,1642.18 1282.9,1638.3 1300.61,1634.27 1318.33,1630.09 1336.04,1625.77 1355.93,1620.78 1375.82,1615.65 1397.92,1609.81 1420.03,1603.84 1442.13,1597.77 1466.9,1590.88 1491.66,1583.93 1519.32,1576.15 1546.97,1568.38 1574.63,1560.66 1602.28,1553.03 1629.94,1545.54 1660.67,1537.39 1691.41,1529.47 1722.14,1521.82 1752.88,1514.44 1783.61,1507.37 1814.35,1500.61 1845.09,1494.17 1875.82,1488.07 1906.56,1482.29 1940.81,1476.24 1975.06,1470.58 2009.3,1465.32 2043.55,1460.44 2077.8,1455.92 2112.05,1451.74 2146.3,1447.89 2184.41,1443.98 2222.52,1440.42 2260.62,1437.2 2298.73,1434.29 2336.84,1431.67 2374.95,1429.31 2417.41,1426.96 2459.87,1424.88 2502.34,1423.04 2544.8,1421.42 2573.26,1420.45 "/>
<path clip-path="url(#clip840)" d="M2244.59 1114.1 L2561.26 1114.1 L2561.26 803.059 L2244.59 803.059  Z" fill="#ffffff" fill-rule="evenodd" fill-opacity="1"/>
<polyline clip-path="url(#clip840)" style="stroke:#000000; stroke-linecap:round; stroke-linejoin:round; stroke-width:4; stroke-opacity:1; fill:none" points="2244.59,1114.1 2561.26,1114.1 2561.26,803.059 2244.59,803.059 2244.59,1114.1 "/>
<polyline clip-path="url(#clip840)" style="stroke:#009af9; stroke-linecap:round; stroke-linejoin:round; stroke-width:8; stroke-opacity:1; fill:none" points="2271.09,854.899 2430.09,854.899 "/>
<path clip-path="url(#clip840)" d="M2478.83 838.753 L2478.83 843.313 Q2476.17 842.04 2473.81 841.415 Q2471.45 840.79 2469.25 840.79 Q2465.43 840.79 2463.35 842.271 Q2461.29 843.753 2461.29 846.484 Q2461.29 848.776 2462.65 849.957 Q2464.04 851.114 2467.88 851.832 L2470.71 852.41 Q2475.94 853.406 2478.42 855.929 Q2480.92 858.429 2480.92 862.642 Q2480.92 867.665 2477.54 870.257 Q2474.18 872.85 2467.68 872.85 Q2465.22 872.85 2462.44 872.294 Q2459.69 871.739 2456.73 870.651 L2456.73 865.836 Q2459.57 867.433 2462.31 868.244 Q2465.04 869.054 2467.68 869.054 Q2471.68 869.054 2473.86 867.48 Q2476.03 865.906 2476.03 862.989 Q2476.03 860.443 2474.46 859.007 Q2472.91 857.572 2469.34 856.855 L2466.5 856.299 Q2461.26 855.258 2458.93 853.035 Q2456.59 850.813 2456.59 846.855 Q2456.59 842.271 2459.81 839.633 Q2463.05 836.994 2468.72 836.994 Q2471.15 836.994 2473.67 837.434 Q2476.19 837.873 2478.83 838.753 Z" fill="#000000" fill-rule="nonzero" fill-opacity="1" /><path clip-path="url(#clip840)" d="M2507.72 880.049 L2507.72 883.359 L2483.09 883.359 L2483.09 880.049 L2507.72 880.049 Z" fill="#000000" fill-rule="nonzero" fill-opacity="1" /><path clip-path="url(#clip840)" d="M2522.33 840.697 Q2518.72 840.697 2516.89 844.262 Q2515.08 847.804 2515.08 854.933 Q2515.08 862.04 2516.89 865.605 Q2518.72 869.146 2522.33 869.146 Q2525.96 869.146 2527.77 865.605 Q2529.6 862.04 2529.6 854.933 Q2529.6 847.804 2527.77 844.262 Q2525.96 840.697 2522.33 840.697 M2522.33 836.994 Q2528.14 836.994 2531.19 841.6 Q2534.27 846.183 2534.27 854.933 Q2534.27 863.66 2531.19 868.267 Q2528.14 872.85 2522.33 872.85 Q2516.52 872.85 2513.44 868.267 Q2510.38 863.66 2510.38 854.933 Q2510.38 846.183 2513.44 841.6 Q2516.52 836.994 2522.33 836.994 Z" fill="#000000" fill-rule="nonzero" fill-opacity="1" /><polyline clip-path="url(#clip840)" style="stroke:#e26f46; stroke-linecap:round; stroke-linejoin:round; stroke-width:8; stroke-opacity:1; fill:none" points="2271.09,906.739 2430.09,906.739 "/>
<path clip-path="url(#clip840)" d="M2478.83 890.593 L2478.83 895.153 Q2476.17 893.88 2473.81 893.255 Q2471.45 892.63 2469.25 892.63 Q2465.43 892.63 2463.35 894.111 Q2461.29 895.593 2461.29 898.324 Q2461.29 900.616 2462.65 901.797 Q2464.04 902.954 2467.88 903.672 L2470.71 904.25 Q2475.94 905.246 2478.42 907.769 Q2480.92 910.269 2480.92 914.482 Q2480.92 919.505 2477.54 922.097 Q2474.18 924.69 2467.68 924.69 Q2465.22 924.69 2462.44 924.134 Q2459.69 923.579 2456.73 922.491 L2456.73 917.676 Q2459.57 919.273 2462.31 920.084 Q2465.04 920.894 2467.68 920.894 Q2471.68 920.894 2473.86 919.32 Q2476.03 917.746 2476.03 914.829 Q2476.03 912.283 2474.46 910.847 Q2472.91 909.412 2469.34 908.695 L2466.5 908.139 Q2461.26 907.098 2458.93 904.875 Q2456.59 902.653 2456.59 898.695 Q2456.59 894.111 2459.81 891.473 Q2463.05 888.834 2468.72 888.834 Q2471.15 888.834 2473.67 889.274 Q2476.19 889.713 2478.83 890.593 Z" fill="#000000" fill-rule="nonzero" fill-opacity="1" /><path clip-path="url(#clip840)" d="M2507.72 931.889 L2507.72 935.199 L2483.09 935.199 L2483.09 931.889 L2507.72 931.889 Z" fill="#000000" fill-rule="nonzero" fill-opacity="1" /><path clip-path="url(#clip840)" d="M2513.14 920.084 L2520.78 920.084 L2520.78 893.718 L2512.47 895.385 L2512.47 891.125 L2520.73 889.459 L2525.41 889.459 L2525.41 920.084 L2533.05 920.084 L2533.05 924.019 L2513.14 924.019 L2513.14 920.084 Z" fill="#000000" fill-rule="nonzero" fill-opacity="1" /><polyline clip-path="url(#clip840)" style="stroke:#3da44d; stroke-linecap:round; stroke-linejoin:round; stroke-width:8; stroke-opacity:1; fill:none" points="2271.09,958.579 2430.09,958.579 "/>
<path clip-path="url(#clip840)" d="M2478.83 942.433 L2478.83 946.993 Q2476.17 945.72 2473.81 945.095 Q2471.45 944.47 2469.25 944.47 Q2465.43 944.47 2463.35 945.951 Q2461.29 947.433 2461.29 950.164 Q2461.29 952.456 2462.65 953.637 Q2464.04 954.794 2467.88 955.512 L2470.71 956.09 Q2475.94 957.086 2478.42 959.609 Q2480.92 962.109 2480.92 966.322 Q2480.92 971.345 2477.54 973.937 Q2474.18 976.53 2467.68 976.53 Q2465.22 976.53 2462.44 975.974 Q2459.69 975.419 2456.73 974.331 L2456.73 969.516 Q2459.57 971.113 2462.31 971.924 Q2465.04 972.734 2467.68 972.734 Q2471.68 972.734 2473.86 971.16 Q2476.03 969.586 2476.03 966.669 Q2476.03 964.123 2474.46 962.687 Q2472.91 961.252 2469.34 960.535 L2466.5 959.979 Q2461.26 958.938 2458.93 956.715 Q2456.59 954.493 2456.59 950.535 Q2456.59 945.951 2459.81 943.313 Q2463.05 940.674 2468.72 940.674 Q2471.15 940.674 2473.67 941.114 Q2476.19 941.553 2478.83 942.433 Z" fill="#000000" fill-rule="nonzero" fill-opacity="1" /><path clip-path="url(#clip840)" d="M2507.72 983.729 L2507.72 987.039 L2483.09 987.039 L2483.09 983.729 L2507.72 983.729 Z" fill="#000000" fill-rule="nonzero" fill-opacity="1" /><path clip-path="url(#clip840)" d="M2516.36 971.924 L2532.68 971.924 L2532.68 975.859 L2510.73 975.859 L2510.73 971.924 Q2513.39 969.169 2517.98 964.539 Q2522.58 959.887 2523.76 958.544 Q2526.01 956.021 2526.89 954.285 Q2527.79 952.526 2527.79 950.836 Q2527.79 948.081 2525.85 946.345 Q2523.93 944.609 2520.82 944.609 Q2518.62 944.609 2516.17 945.373 Q2513.74 946.137 2510.96 947.688 L2510.96 942.965 Q2513.79 941.831 2516.24 941.252 Q2518.69 940.674 2520.73 940.674 Q2526.1 940.674 2529.3 943.359 Q2532.49 946.044 2532.49 950.535 Q2532.49 952.664 2531.68 954.586 Q2530.89 956.484 2528.79 959.076 Q2528.21 959.748 2525.11 962.965 Q2522 966.16 2516.36 971.924 Z" fill="#000000" fill-rule="nonzero" fill-opacity="1" /><polyline clip-path="url(#clip840)" style="stroke:#c271d2; stroke-linecap:round; stroke-linejoin:round; stroke-width:8; stroke-opacity:1; fill:none" points="2271.09,1010.42 2430.09,1010.42 "/>
<path clip-path="url(#clip840)" d="M2478.83 994.273 L2478.83 998.833 Q2476.17 997.56 2473.81 996.935 Q2471.45 996.31 2469.25 996.31 Q2465.43 996.31 2463.35 997.791 Q2461.29 999.273 2461.29 1002 Q2461.29 1004.3 2462.65 1005.48 Q2464.04 1006.63 2467.88 1007.35 L2470.71 1007.93 Q2475.94 1008.93 2478.42 1011.45 Q2480.92 1013.95 2480.92 1018.16 Q2480.92 1023.18 2477.54 1025.78 Q2474.18 1028.37 2467.68 1028.37 Q2465.22 1028.37 2462.44 1027.81 Q2459.69 1027.26 2456.73 1026.17 L2456.73 1021.36 Q2459.57 1022.95 2462.31 1023.76 Q2465.04 1024.57 2467.68 1024.57 Q2471.68 1024.57 2473.86 1023 Q2476.03 1021.43 2476.03 1018.51 Q2476.03 1015.96 2474.46 1014.53 Q2472.91 1013.09 2469.34 1012.37 L2466.5 1011.82 Q2461.26 1010.78 2458.93 1008.56 Q2456.59 1006.33 2456.59 1002.37 Q2456.59 997.791 2459.81 995.153 Q2463.05 992.514 2468.72 992.514 Q2471.15 992.514 2473.67 992.954 Q2476.19 993.393 2478.83 994.273 Z" fill="#000000" fill-rule="nonzero" fill-opacity="1" /><path clip-path="url(#clip840)" d="M2507.72 1035.57 L2507.72 1038.88 L2483.09 1038.88 L2483.09 1035.57 L2507.72 1035.57 Z" fill="#000000" fill-rule="nonzero" fill-opacity="1" /><path clip-path="url(#clip840)" d="M2526.49 1009.06 Q2529.85 1009.78 2531.73 1012.05 Q2533.62 1014.32 2533.62 1017.65 Q2533.62 1022.77 2530.11 1025.57 Q2526.59 1028.37 2520.11 1028.37 Q2517.93 1028.37 2515.62 1027.93 Q2513.32 1027.51 2510.87 1026.66 L2510.87 1022.14 Q2512.81 1023.28 2515.13 1023.86 Q2517.44 1024.43 2519.97 1024.43 Q2524.37 1024.43 2526.66 1022.7 Q2528.97 1020.96 2528.97 1017.65 Q2528.97 1014.6 2526.82 1012.88 Q2524.69 1011.15 2520.87 1011.15 L2516.84 1011.15 L2516.84 1007.31 L2521.05 1007.31 Q2524.5 1007.31 2526.33 1005.94 Q2528.16 1004.55 2528.16 1001.96 Q2528.16 999.296 2526.26 997.884 Q2524.39 996.449 2520.87 996.449 Q2518.95 996.449 2516.75 996.866 Q2514.55 997.282 2511.91 998.162 L2511.91 993.995 Q2514.57 993.254 2516.89 992.884 Q2519.23 992.514 2521.29 992.514 Q2526.61 992.514 2529.71 994.944 Q2532.81 997.352 2532.81 1001.47 Q2532.81 1004.34 2531.17 1006.33 Q2529.53 1008.3 2526.49 1009.06 Z" fill="#000000" fill-rule="nonzero" fill-opacity="1" /><polyline clip-path="url(#clip840)" style="stroke:#ac8d18; stroke-linecap:round; stroke-linejoin:round; stroke-width:8; stroke-opacity:1; fill:none" points="2271.09,1062.26 2430.09,1062.26 "/>
<path clip-path="url(#clip840)" d="M2478.83 1046.11 L2478.83 1050.67 Q2476.17 1049.4 2473.81 1048.77 Q2471.45 1048.15 2469.25 1048.15 Q2465.43 1048.15 2463.35 1049.63 Q2461.29 1051.11 2461.29 1053.84 Q2461.29 1056.14 2462.65 1057.32 Q2464.04 1058.47 2467.88 1059.19 L2470.71 1059.77 Q2475.94 1060.77 2478.42 1063.29 Q2480.92 1065.79 2480.92 1070 Q2480.92 1075.02 2477.54 1077.62 Q2474.18 1080.21 2467.68 1080.21 Q2465.22 1080.21 2462.44 1079.65 Q2459.69 1079.1 2456.73 1078.01 L2456.73 1073.2 Q2459.57 1074.79 2462.31 1075.6 Q2465.04 1076.41 2467.68 1076.41 Q2471.68 1076.41 2473.86 1074.84 Q2476.03 1073.27 2476.03 1070.35 Q2476.03 1067.8 2474.46 1066.37 Q2472.91 1064.93 2469.34 1064.21 L2466.5 1063.66 Q2461.26 1062.62 2458.93 1060.4 Q2456.59 1058.17 2456.59 1054.21 Q2456.59 1049.63 2459.81 1046.99 Q2463.05 1044.35 2468.72 1044.35 Q2471.15 1044.35 2473.67 1044.79 Q2476.19 1045.23 2478.83 1046.11 Z" fill="#000000" fill-rule="nonzero" fill-opacity="1" /><path clip-path="url(#clip840)" d="M2507.72 1087.41 L2507.72 1090.72 L2483.09 1090.72 L2483.09 1087.41 L2507.72 1087.41 Z" fill="#000000" fill-rule="nonzero" fill-opacity="1" /><path clip-path="url(#clip840)" d="M2525.18 1049.05 L2513.37 1067.5 L2525.18 1067.5 L2525.18 1049.05 M2523.95 1044.98 L2529.83 1044.98 L2529.83 1067.5 L2534.76 1067.5 L2534.76 1071.39 L2529.83 1071.39 L2529.83 1079.54 L2525.18 1079.54 L2525.18 1071.39 L2509.57 1071.39 L2509.57 1066.88 L2523.95 1044.98 Z" fill="#000000" fill-rule="nonzero" fill-opacity="1" /></svg>
