<?xml version="1.0" encoding="utf-8"?>
<svg xmlns="http://www.w3.org/2000/svg" xmlns:xlink="http://www.w3.org/1999/xlink" width="672" height="480" viewBox="0 0 2688 1920">
<defs>
  <clipPath id="clip870">
    <rect x="0" y="0" width="2688" height="1920"/>
  </clipPath>
</defs>
<path clip-path="url(#clip870)" d="M0 1920 L2688 1920 L2688 -4.26326e-14 L0 -4.26326e-14  Z" fill="#ffffff" fill-rule="evenodd" fill-opacity="1"/>
<defs>
  <clipPath id="clip871">
    <rect x="226" y="127" width="2416" height="1607"/>
  </clipPath>
</defs>
<path clip-path="url(#clip870)" d="M226.141 1734.12 L2640.76 1734.12 L2640.76 127.792 L226.141 127.792  Z" fill="#ffffff" fill-rule="evenodd" fill-opacity="1"/>
<polyline clip-path="url(#clip871)" style="stroke:#000000; stroke-linecap:round; stroke-linejoin:round; stroke-width:2; stroke-opacity:0.1; fill:none" points="538.032,1734.12 538.032,127.792 "/>
<polyline clip-path="url(#clip871)" style="stroke:#000000; stroke-linecap:round; stroke-linejoin:round; stroke-width:2; stroke-opacity:0.1; fill:none" points="985.74,1734.12 985.74,127.792 "/>
<polyline clip-path="url(#clip871)" style="stroke:#000000; stroke-linecap:round; stroke-linejoin:round; stroke-width:2; stroke-opacity:0.1; fill:none" points="1433.45,1734.12 1433.45,127.792 "/>
<polyline clip-path="url(#clip871)" style="stroke:#000000; stroke-linecap:round; stroke-linejoin:round; stroke-width:2; stroke-opacity:0.1; fill:none" points="1881.16,1734.12 1881.16,127.792 "/>
<polyline clip-path="url(#clip871)" style="stroke:#000000; stroke-linecap:round; stroke-linejoin:round; stroke-width:2; stroke-opacity:0.1; fill:none" points="2328.86,1734.12 2328.86,127.792 "/>
<polyline clip-path="url(#clip871)" style="stroke:#000000; stroke-linecap:round; stroke-linejoin:round; stroke-width:2; stroke-opacity:0.1; fill:none" points="226.141,1734.12 2640.76,1734.12 "/>
<polyline clip-path="url(#clip871)" style="stroke:#000000; stroke-linecap:round; stroke-linejoin:round; stroke-width:2; stroke-opacity:0.1; fill:none" points="226.141,1329.35 2640.76,1329.35 "/>
<polyline clip-path="url(#clip871)" style="stroke:#000000; stroke-linecap:round; stroke-linejoin:round; stroke-width:2; stroke-opacity:0.1; fill:none" points="226.141,924.577 2640.76,924.577 "/>
<polyline clip-path="url(#clip871)" style="stroke:#000000; stroke-linecap:round; stroke-linejoin:round; stroke-width:2; stroke-opacity:0.1; fill:none" points="226.141,519.806 2640.76,519.806 "/>
<polyline clip-path="url(#clip870)" style="stroke:#000000; stroke-linecap:round; stroke-linejoin:round; stroke-width:4; stroke-opacity:1; fill:none" points="226.141,1734.12 2640.76,1734.12 "/>
<polyline clip-path="url(#clip870)" style="stroke:#000000; stroke-linecap:round; stroke-linejoin:round; stroke-width:4; stroke-opacity:1; fill:none" points="538.032,1734.12 538.032,1715.22 "/>
<polyline clip-path="url(#clip870)" style="stroke:#000000; stroke-linecap:round; stroke-linejoin:round; stroke-width:4; stroke-opacity:1; fill:none" points="985.74,1734.12 985.74,1715.22 "/>
<polyline clip-path="url(#clip870)" style="stroke:#000000; stroke-linecap:round; stroke-linejoin:round; stroke-width:4; stroke-opacity:1; fill:none" points="1433.45,1734.12 1433.45,1715.22 "/>
<polyline clip-path="url(#clip870)" style="stroke:#000000; stroke-linecap:round; stroke-linejoin:round; stroke-width:4; stroke-opacity:1; fill:none" points="1881.16,1734.12 1881.16,1715.22 "/>
<polyline clip-path="url(#clip870)" style="stroke:#000000; stroke-linecap:round; stroke-linejoin:round; stroke-width:4; stroke-opacity:1; fill:none" points="2328.86,1734.12 2328.86,1715.22 "/>
<path clip-path="url(#clip870)" d="M538.032 1767.34 Q534.421 1767.34 532.592 1770.9 Q530.787 1774.45 530.787 1781.58 Q530.787 1788.68 532.592 1792.25 Q534.421 1795.79 538.032 1795.79 Q541.666 1795.79 543.472 1792.25 Q545.3 1788.68 545.3 1781.58 Q545.3 1774.45 543.472 1770.9 Q541.666 1767.34 538.032 1767.34 M538.032 1763.64 Q543.842 1763.64 546.898 1768.24 Q549.976 1772.83 549.976 1781.58 Q549.976 1790.3 546.898 1794.91 Q543.842 1799.49 538.032 1799.49 Q532.222 1799.49 529.143 1794.91 Q526.088 1790.3 526.088 1781.58 Q526.088 1772.83 529.143 1768.24 Q532.222 1763.64 538.032 1763.64 Z" fill="#000000" fill-rule="nonzero" fill-opacity="1" /><path clip-path="url(#clip870)" d="M976.122 1794.89 L983.761 1794.89 L983.761 1768.52 L975.451 1770.19 L975.451 1765.93 L983.715 1764.26 L988.391 1764.26 L988.391 1794.89 L996.029 1794.89 L996.029 1798.82 L976.122 1798.82 L976.122 1794.89 Z" fill="#000000" fill-rule="nonzero" fill-opacity="1" /><path clip-path="url(#clip870)" d="M1428.1 1794.89 L1444.42 1794.89 L1444.42 1798.82 L1422.48 1798.82 L1422.48 1794.89 Q1425.14 1792.13 1429.72 1787.5 Q1434.33 1782.85 1435.51 1781.51 Q1437.75 1778.98 1438.63 1777.25 Q1439.54 1775.49 1439.54 1773.8 Q1439.54 1771.04 1437.59 1769.31 Q1435.67 1767.57 1432.57 1767.57 Q1430.37 1767.57 1427.92 1768.34 Q1425.49 1769.1 1422.71 1770.65 L1422.71 1765.93 Q1425.53 1764.79 1427.99 1764.21 Q1430.44 1763.64 1432.48 1763.64 Q1437.85 1763.64 1441.04 1766.32 Q1444.24 1769.01 1444.24 1773.5 Q1444.24 1775.63 1443.43 1777.55 Q1442.64 1779.45 1440.53 1782.04 Q1439.95 1782.71 1436.85 1785.93 Q1433.75 1789.12 1428.1 1794.89 Z" fill="#000000" fill-rule="nonzero" fill-opacity="1" /><path clip-path="url(#clip870)" d="M1885.4 1780.19 Q1888.76 1780.9 1890.64 1783.17 Q1892.53 1785.44 1892.53 1788.77 Q1892.53 1793.89 1889.02 1796.69 Q1885.5 1799.49 1879.02 1799.49 Q1876.84 1799.49 1874.52 1799.05 Q1872.23 1798.64 1869.78 1797.78 L1869.78 1793.27 Q1871.72 1794.4 1874.04 1794.98 Q1876.35 1795.56 1878.88 1795.56 Q1883.27 1795.56 1885.57 1793.82 Q1887.88 1792.08 1887.88 1788.77 Q1887.88 1785.72 1885.73 1784.01 Q1883.6 1782.27 1879.78 1782.27 L1875.75 1782.27 L1875.75 1778.43 L1879.96 1778.43 Q1883.41 1778.43 1885.24 1777.06 Q1887.07 1775.67 1887.07 1773.08 Q1887.07 1770.42 1885.17 1769.01 Q1883.3 1767.57 1879.78 1767.57 Q1877.86 1767.57 1875.66 1767.99 Q1873.46 1768.4 1870.82 1769.28 L1870.82 1765.12 Q1873.48 1764.38 1875.8 1764.01 Q1878.14 1763.64 1880.2 1763.64 Q1885.52 1763.64 1888.62 1766.07 Q1891.72 1768.47 1891.72 1772.59 Q1891.72 1775.46 1890.08 1777.46 Q1888.44 1779.42 1885.4 1780.19 Z" fill="#000000" fill-rule="nonzero" fill-opacity="1" /><path clip-path="url(#clip870)" d="M2331.87 1768.34 L2320.07 1786.78 L2331.87 1786.78 L2331.87 1768.34 M2330.65 1764.26 L2336.53 1764.26 L2336.53 1786.78 L2341.46 1786.78 L2341.46 1790.67 L2336.53 1790.67 L2336.53 1798.82 L2331.87 1798.82 L2331.87 1790.67 L2316.27 1790.67 L2316.27 1786.16 L2330.65 1764.26 Z" fill="#000000" fill-rule="nonzero" fill-opacity="1" /><path clip-path="url(#clip870)" d="M934.361 1847.65 L940.217 1847.65 L940.217 1883.3 L934.361 1883.3 L934.361 1847.65 M934.361 1833.78 L940.217 1833.78 L940.217 1841.19 L934.361 1841.19 L934.361 1833.78 Z" fill="#000000" fill-rule="nonzero" fill-opacity="1" /><path clip-path="url(#clip870)" d="M982.104 1861.78 L982.104 1883.3 L976.247 1883.3 L976.247 1861.98 Q976.247 1856.92 974.274 1854.4 Q972.301 1851.89 968.354 1851.89 Q963.611 1851.89 960.874 1854.91 Q958.137 1857.93 958.137 1863.15 L958.137 1883.3 L952.249 1883.3 L952.249 1847.65 L958.137 1847.65 L958.137 1853.19 Q960.238 1849.98 963.07 1848.39 Q965.935 1846.79 969.659 1846.79 Q975.802 1846.79 978.953 1850.61 Q982.104 1854.4 982.104 1861.78 Z" fill="#000000" fill-rule="nonzero" fill-opacity="1" /><path clip-path="url(#clip870)" d="M1011.83 1833.78 L1011.83 1838.65 L1006.23 1838.65 Q1003.08 1838.65 1001.84 1839.92 Q1000.63 1841.19 1000.63 1844.5 L1000.63 1847.65 L1010.27 1847.65 L1010.27 1852.2 L1000.63 1852.2 L1000.63 1883.3 L994.74 1883.3 L994.74 1852.2 L989.138 1852.2 L989.138 1847.65 L994.74 1847.65 L994.74 1845.17 Q994.74 1839.22 997.509 1836.51 Q1000.28 1833.78 1006.29 1833.78 L1011.83 1833.78 Z" fill="#000000" fill-rule="nonzero" fill-opacity="1" /><path clip-path="url(#clip870)" d="M1047.22 1864.01 L1047.22 1866.88 L1020.3 1866.88 Q1020.68 1872.92 1023.93 1876.11 Q1027.2 1879.26 1033.03 1879.26 Q1036.4 1879.26 1039.55 1878.43 Q1042.74 1877.6 1045.86 1875.95 L1045.86 1881.49 Q1042.71 1882.82 1039.4 1883.52 Q1036.08 1884.22 1032.68 1884.22 Q1024.15 1884.22 1019.15 1879.26 Q1014.19 1874.29 1014.19 1865.83 Q1014.19 1857.07 1018.9 1851.95 Q1023.64 1846.79 1031.66 1846.79 Q1038.85 1846.79 1043.02 1851.44 Q1047.22 1856.06 1047.22 1864.01 M1041.37 1862.29 Q1041.3 1857.49 1038.66 1854.62 Q1036.05 1851.76 1031.72 1851.76 Q1026.82 1851.76 1023.86 1854.53 Q1020.93 1857.3 1020.49 1862.33 L1041.37 1862.29 Z" fill="#000000" fill-rule="nonzero" fill-opacity="1" /><path clip-path="url(#clip870)" d="M1082.49 1849.02 L1082.49 1854.5 Q1080.01 1853.13 1077.49 1852.46 Q1075.01 1851.76 1072.46 1851.76 Q1066.77 1851.76 1063.62 1855.39 Q1060.47 1858.98 1060.47 1865.51 Q1060.47 1872.03 1063.62 1875.66 Q1066.77 1879.26 1072.46 1879.26 Q1075.01 1879.26 1077.49 1878.59 Q1080.01 1877.89 1082.49 1876.52 L1082.49 1881.93 Q1080.04 1883.08 1077.4 1883.65 Q1074.79 1884.22 1071.83 1884.22 Q1063.78 1884.22 1059.03 1879.16 Q1054.29 1874.1 1054.29 1865.51 Q1054.29 1856.79 1059.07 1851.79 Q1063.87 1846.79 1072.21 1846.79 Q1074.92 1846.79 1077.49 1847.37 Q1080.07 1847.91 1082.49 1849.02 Z" fill="#000000" fill-rule="nonzero" fill-opacity="1" /><path clip-path="url(#clip870)" d="M1098.47 1837.53 L1098.47 1847.65 L1110.53 1847.65 L1110.53 1852.2 L1098.47 1852.2 L1098.47 1871.56 Q1098.47 1875.92 1099.65 1877.16 Q1100.86 1878.4 1104.52 1878.4 L1110.53 1878.4 L1110.53 1883.3 L1104.52 1883.3 Q1097.74 1883.3 1095.16 1880.79 Q1092.58 1878.24 1092.58 1871.56 L1092.58 1852.2 L1088.28 1852.2 L1088.28 1847.65 L1092.58 1847.65 L1092.58 1837.53 L1098.47 1837.53 Z" fill="#000000" fill-rule="nonzero" fill-opacity="1" /><path clip-path="url(#clip870)" d="M1118.23 1847.65 L1124.09 1847.65 L1124.09 1883.3 L1118.23 1883.3 L1118.23 1847.65 M1118.23 1833.78 L1124.09 1833.78 L1124.09 1841.19 L1118.23 1841.19 L1118.23 1833.78 Z" fill="#000000" fill-rule="nonzero" fill-opacity="1" /><path clip-path="url(#clip870)" d="M1150.16 1851.76 Q1145.45 1851.76 1142.71 1855.45 Q1139.97 1859.11 1139.97 1865.51 Q1139.97 1871.91 1142.68 1875.6 Q1145.42 1879.26 1150.16 1879.26 Q1154.84 1879.26 1157.57 1875.57 Q1160.31 1871.87 1160.31 1865.51 Q1160.31 1859.17 1157.57 1855.48 Q1154.84 1851.76 1150.16 1851.76 M1150.16 1846.79 Q1157.8 1846.79 1162.16 1851.76 Q1166.52 1856.72 1166.52 1865.51 Q1166.52 1874.26 1162.16 1879.26 Q1157.8 1884.22 1150.16 1884.22 Q1142.49 1884.22 1138.13 1879.26 Q1133.8 1874.26 1133.8 1865.51 Q1133.8 1856.72 1138.13 1851.76 Q1142.49 1846.79 1150.16 1846.79 Z" fill="#000000" fill-rule="nonzero" fill-opacity="1" /><path clip-path="url(#clip870)" d="M1205.86 1861.78 L1205.86 1883.3 L1200 1883.3 L1200 1861.98 Q1200 1856.92 1198.03 1854.4 Q1196.06 1851.89 1192.11 1851.89 Q1187.37 1851.89 1184.63 1854.91 Q1181.89 1857.93 1181.89 1863.15 L1181.89 1883.3 L1176 1883.3 L1176 1847.65 L1181.89 1847.65 L1181.89 1853.19 Q1183.99 1849.98 1186.82 1848.39 Q1189.69 1846.79 1193.41 1846.79 Q1199.56 1846.79 1202.71 1850.61 Q1205.86 1854.4 1205.86 1861.78 Z" fill="#000000" fill-rule="nonzero" fill-opacity="1" /><path clip-path="url(#clip870)" d="M1263.91 1849.02 L1263.91 1854.5 Q1261.43 1853.13 1258.92 1852.46 Q1256.43 1851.76 1253.89 1851.76 Q1248.19 1851.76 1245.04 1855.39 Q1241.89 1858.98 1241.89 1865.51 Q1241.89 1872.03 1245.04 1875.66 Q1248.19 1879.26 1253.89 1879.26 Q1256.43 1879.26 1258.92 1878.59 Q1261.43 1877.89 1263.91 1876.52 L1263.91 1881.93 Q1261.46 1883.08 1258.82 1883.65 Q1256.21 1884.22 1253.25 1884.22 Q1245.2 1884.22 1240.46 1879.16 Q1235.71 1874.1 1235.71 1865.51 Q1235.71 1856.79 1240.49 1851.79 Q1245.29 1846.79 1253.63 1846.79 Q1256.34 1846.79 1258.92 1847.37 Q1261.49 1847.91 1263.91 1849.02 Z" fill="#000000" fill-rule="nonzero" fill-opacity="1" /><path clip-path="url(#clip870)" d="M1287.91 1851.76 Q1283.2 1851.76 1280.46 1855.45 Q1277.73 1859.11 1277.73 1865.51 Q1277.73 1871.91 1280.43 1875.6 Q1283.17 1879.26 1287.91 1879.26 Q1292.59 1879.26 1295.33 1875.57 Q1298.07 1871.87 1298.07 1865.51 Q1298.07 1859.17 1295.33 1855.48 Q1292.59 1851.76 1287.91 1851.76 M1287.91 1846.79 Q1295.55 1846.79 1299.91 1851.76 Q1304.27 1856.72 1304.27 1865.51 Q1304.27 1874.26 1299.91 1879.26 Q1295.55 1884.22 1287.91 1884.22 Q1280.24 1884.22 1275.88 1879.26 Q1271.55 1874.26 1271.55 1865.51 Q1271.55 1856.72 1275.88 1851.76 Q1280.24 1846.79 1287.91 1846.79 Z" fill="#000000" fill-rule="nonzero" fill-opacity="1" /><path clip-path="url(#clip870)" d="M1313.38 1869.23 L1313.38 1847.65 L1319.23 1847.65 L1319.23 1869.01 Q1319.23 1874.07 1321.2 1876.62 Q1323.18 1879.13 1327.13 1879.13 Q1331.87 1879.13 1334.6 1876.11 Q1337.37 1873.08 1337.37 1867.86 L1337.37 1847.65 L1343.23 1847.65 L1343.23 1883.3 L1337.37 1883.3 L1337.37 1877.83 Q1335.24 1881.07 1332.41 1882.66 Q1329.61 1884.22 1325.88 1884.22 Q1319.74 1884.22 1316.56 1880.4 Q1313.38 1876.59 1313.38 1869.23 M1328.11 1846.79 L1328.11 1846.79 Z" fill="#000000" fill-rule="nonzero" fill-opacity="1" /><path clip-path="url(#clip870)" d="M1384.93 1861.78 L1384.93 1883.3 L1379.07 1883.3 L1379.07 1861.98 Q1379.07 1856.92 1377.1 1854.4 Q1375.12 1851.89 1371.18 1851.89 Q1366.43 1851.89 1363.7 1854.91 Q1360.96 1857.93 1360.96 1863.15 L1360.96 1883.3 L1355.07 1883.3 L1355.07 1847.65 L1360.96 1847.65 L1360.96 1853.19 Q1363.06 1849.98 1365.89 1848.39 Q1368.76 1846.79 1372.48 1846.79 Q1378.62 1846.79 1381.77 1850.61 Q1384.93 1854.4 1384.93 1861.78 Z" fill="#000000" fill-rule="nonzero" fill-opacity="1" /><path clip-path="url(#clip870)" d="M1402.4 1837.53 L1402.4 1847.65 L1414.46 1847.65 L1414.46 1852.2 L1402.4 1852.2 L1402.4 1871.56 Q1402.4 1875.92 1403.58 1877.16 Q1404.79 1878.4 1408.45 1878.4 L1414.46 1878.4 L1414.46 1883.3 L1408.45 1883.3 Q1401.67 1883.3 1399.09 1880.79 Q1396.51 1878.24 1396.51 1871.56 L1396.51 1852.2 L1392.21 1852.2 L1392.21 1847.65 L1396.51 1847.65 L1396.51 1837.53 L1402.4 1837.53 Z" fill="#000000" fill-rule="nonzero" fill-opacity="1" /><path clip-path="url(#clip870)" d="M1448.55 1877.95 L1448.55 1896.86 L1442.66 1896.86 L1442.66 1847.65 L1448.55 1847.65 L1448.55 1853.06 Q1450.4 1849.88 1453.2 1848.35 Q1456.03 1846.79 1459.95 1846.79 Q1466.44 1846.79 1470.48 1851.95 Q1474.55 1857.11 1474.55 1865.51 Q1474.55 1873.91 1470.48 1879.07 Q1466.44 1884.22 1459.95 1884.22 Q1456.03 1884.22 1453.2 1882.7 Q1450.4 1881.14 1448.55 1877.95 M1468.48 1865.51 Q1468.48 1859.05 1465.8 1855.39 Q1463.16 1851.7 1458.51 1851.7 Q1453.87 1851.7 1451.19 1855.39 Q1448.55 1859.05 1448.55 1865.51 Q1448.55 1871.97 1451.19 1875.66 Q1453.87 1879.32 1458.51 1879.32 Q1463.16 1879.32 1465.8 1875.66 Q1468.48 1871.97 1468.48 1865.51 Z" fill="#000000" fill-rule="nonzero" fill-opacity="1" /><path clip-path="url(#clip870)" d="M1519.05 1833.84 Q1514.79 1841.16 1512.72 1848.32 Q1510.65 1855.48 1510.65 1862.84 Q1510.65 1870.19 1512.72 1877.41 Q1514.82 1884.61 1519.05 1891.89 L1513.96 1891.89 Q1509.18 1884.41 1506.8 1877.19 Q1504.44 1869.96 1504.44 1862.84 Q1504.44 1855.74 1506.8 1848.54 Q1509.15 1841.35 1513.96 1833.84 L1519.05 1833.84 Z" fill="#000000" fill-rule="nonzero" fill-opacity="1" /><path clip-path="url(#clip870)" d="M1556.07 1849.02 L1556.07 1854.5 Q1553.59 1853.13 1551.07 1852.46 Q1548.59 1851.76 1546.04 1851.76 Q1540.34 1851.76 1537.19 1855.39 Q1534.04 1858.98 1534.04 1865.51 Q1534.04 1872.03 1537.19 1875.66 Q1540.34 1879.26 1546.04 1879.26 Q1548.59 1879.26 1551.07 1878.59 Q1553.59 1877.89 1556.07 1876.52 L1556.07 1881.93 Q1553.62 1883.08 1550.98 1883.65 Q1548.37 1884.22 1545.41 1884.22 Q1537.35 1884.22 1532.61 1879.16 Q1527.87 1874.1 1527.87 1865.51 Q1527.87 1856.79 1532.64 1851.79 Q1537.45 1846.79 1545.79 1846.79 Q1548.49 1846.79 1551.07 1847.37 Q1553.65 1847.91 1556.07 1849.02 Z" fill="#000000" fill-rule="nonzero" fill-opacity="1" /><path clip-path="url(#clip870)" d="M1582.45 1865.38 Q1575.36 1865.38 1572.62 1867 Q1569.88 1868.63 1569.88 1872.54 Q1569.88 1875.66 1571.92 1877.51 Q1573.99 1879.32 1577.52 1879.32 Q1582.39 1879.32 1585.32 1875.88 Q1588.28 1872.42 1588.28 1866.69 L1588.28 1865.38 L1582.45 1865.38 M1594.13 1862.96 L1594.13 1883.3 L1588.28 1883.3 L1588.28 1877.89 Q1586.27 1881.14 1583.28 1882.7 Q1580.29 1884.22 1575.96 1884.22 Q1570.49 1884.22 1567.24 1881.17 Q1564.02 1878.08 1564.02 1872.92 Q1564.02 1866.91 1568.04 1863.85 Q1572.08 1860.8 1580.07 1860.8 L1588.28 1860.8 L1588.28 1860.23 Q1588.28 1856.18 1585.6 1853.99 Q1582.96 1851.76 1578.16 1851.76 Q1575.1 1851.76 1572.2 1852.49 Q1569.31 1853.22 1566.63 1854.69 L1566.63 1849.28 Q1569.85 1848.03 1572.87 1847.43 Q1575.9 1846.79 1578.76 1846.79 Q1586.5 1846.79 1590.32 1850.8 Q1594.13 1854.81 1594.13 1862.96 Z" fill="#000000" fill-rule="nonzero" fill-opacity="1" /><path clip-path="url(#clip870)" d="M1611.86 1877.95 L1611.86 1896.86 L1605.97 1896.86 L1605.97 1847.65 L1611.86 1847.65 L1611.86 1853.06 Q1613.71 1849.88 1616.51 1848.35 Q1619.34 1846.79 1623.26 1846.79 Q1629.75 1846.79 1633.79 1851.95 Q1637.87 1857.11 1637.87 1865.51 Q1637.87 1873.91 1633.79 1879.07 Q1629.75 1884.22 1623.26 1884.22 Q1619.34 1884.22 1616.51 1882.7 Q1613.71 1881.14 1611.86 1877.95 M1631.79 1865.51 Q1631.79 1859.05 1629.11 1855.39 Q1626.47 1851.7 1621.83 1851.7 Q1617.18 1851.7 1614.5 1855.39 Q1611.86 1859.05 1611.86 1865.51 Q1611.86 1871.97 1614.5 1875.66 Q1617.18 1879.32 1621.83 1879.32 Q1626.47 1879.32 1629.11 1875.66 Q1631.79 1871.97 1631.79 1865.51 Z" fill="#000000" fill-rule="nonzero" fill-opacity="1" /><path clip-path="url(#clip870)" d="M1653.24 1877.95 L1653.24 1896.86 L1647.35 1896.86 L1647.35 1847.65 L1653.24 1847.65 L1653.24 1853.06 Q1655.09 1849.88 1657.89 1848.35 Q1660.72 1846.79 1664.63 1846.79 Q1671.13 1846.79 1675.17 1851.95 Q1679.24 1857.11 1679.24 1865.51 Q1679.24 1873.91 1675.17 1879.07 Q1671.13 1884.22 1664.63 1884.22 Q1660.72 1884.22 1657.89 1882.7 Q1655.09 1881.14 1653.24 1877.95 M1673.16 1865.51 Q1673.16 1859.05 1670.49 1855.39 Q1667.85 1851.7 1663.2 1851.7 Q1658.56 1851.7 1655.88 1855.39 Q1653.24 1859.05 1653.24 1865.51 Q1653.24 1871.97 1655.88 1875.66 Q1658.56 1879.32 1663.2 1879.32 Q1667.85 1879.32 1670.49 1875.66 Q1673.16 1871.97 1673.16 1865.51 Z" fill="#000000" fill-rule="nonzero" fill-opacity="1" /><path clip-path="url(#clip870)" d="M1719.44 1864.01 L1719.44 1866.88 L1692.52 1866.88 Q1692.9 1872.92 1696.15 1876.11 Q1699.42 1879.26 1705.25 1879.26 Q1708.62 1879.26 1711.77 1878.43 Q1714.96 1877.6 1718.07 1875.95 L1718.07 1881.49 Q1714.92 1882.82 1711.61 1883.52 Q1708.3 1884.22 1704.9 1884.22 Q1696.37 1884.22 1691.37 1879.26 Q1686.41 1874.29 1686.41 1865.83 Q1686.41 1857.07 1691.12 1851.95 Q1695.86 1846.79 1703.88 1846.79 Q1711.07 1846.79 1715.24 1851.44 Q1719.44 1856.06 1719.44 1864.01 M1713.59 1862.29 Q1713.52 1857.49 1710.88 1854.62 Q1708.27 1851.76 1703.94 1851.76 Q1699.04 1851.76 1696.08 1854.53 Q1693.15 1857.3 1692.71 1862.33 L1713.59 1862.29 Z" fill="#000000" fill-rule="nonzero" fill-opacity="1" /><path clip-path="url(#clip870)" d="M1752.51 1853.06 L1752.51 1833.78 L1758.37 1833.78 L1758.37 1883.3 L1752.51 1883.3 L1752.51 1877.95 Q1750.67 1881.14 1747.83 1882.7 Q1745.03 1884.22 1741.09 1884.22 Q1734.63 1884.22 1730.55 1879.07 Q1726.51 1873.91 1726.51 1865.51 Q1726.51 1857.11 1730.55 1851.95 Q1734.63 1846.79 1741.09 1846.79 Q1745.03 1846.79 1747.83 1848.35 Q1750.67 1849.88 1752.51 1853.06 M1732.56 1865.51 Q1732.56 1871.97 1735.2 1875.66 Q1737.87 1879.32 1742.52 1879.32 Q1747.17 1879.32 1749.84 1875.66 Q1752.51 1871.97 1752.51 1865.51 Q1752.51 1859.05 1749.84 1855.39 Q1747.17 1851.7 1742.52 1851.7 Q1737.87 1851.7 1735.2 1855.39 Q1732.56 1859.05 1732.56 1865.51 Z" fill="#000000" fill-rule="nonzero" fill-opacity="1" /><path clip-path="url(#clip870)" d="M1807.35 1865.38 Q1800.26 1865.38 1797.52 1867 Q1794.78 1868.63 1794.78 1872.54 Q1794.78 1875.66 1796.82 1877.51 Q1798.89 1879.32 1802.42 1879.32 Q1807.29 1879.32 1810.22 1875.88 Q1813.18 1872.42 1813.18 1866.69 L1813.18 1865.38 L1807.35 1865.38 M1819.03 1862.96 L1819.03 1883.3 L1813.18 1883.3 L1813.18 1877.89 Q1811.17 1881.14 1808.18 1882.7 Q1805.19 1884.22 1800.86 1884.22 Q1795.39 1884.22 1792.14 1881.17 Q1788.93 1878.08 1788.93 1872.92 Q1788.93 1866.91 1792.94 1863.85 Q1796.98 1860.8 1804.97 1860.8 L1813.18 1860.8 L1813.18 1860.23 Q1813.18 1856.18 1810.5 1853.99 Q1807.86 1851.76 1803.06 1851.76 Q1800 1851.76 1797.11 1852.49 Q1794.21 1853.22 1791.54 1854.69 L1791.54 1849.28 Q1794.75 1848.03 1797.77 1847.43 Q1800.8 1846.79 1803.66 1846.79 Q1811.4 1846.79 1815.22 1850.8 Q1819.03 1854.81 1819.03 1862.96 Z" fill="#000000" fill-rule="nonzero" fill-opacity="1" /><path clip-path="url(#clip870)" d="M1836.89 1837.53 L1836.89 1847.65 L1848.95 1847.65 L1848.95 1852.2 L1836.89 1852.2 L1836.89 1871.56 Q1836.89 1875.92 1838.07 1877.16 Q1839.28 1878.4 1842.94 1878.4 L1848.95 1878.4 L1848.95 1883.3 L1842.94 1883.3 Q1836.16 1883.3 1833.58 1880.79 Q1831 1878.24 1831 1871.56 L1831 1852.2 L1826.71 1852.2 L1826.71 1847.65 L1831 1847.65 L1831 1837.53 L1836.89 1837.53 Z" fill="#000000" fill-rule="nonzero" fill-opacity="1" /><path clip-path="url(#clip870)" d="M1895.87 1841.38 L1879.64 1866.75 L1895.87 1866.75 L1895.87 1841.38 M1894.18 1835.78 L1902.27 1835.78 L1902.27 1866.75 L1909.05 1866.75 L1909.05 1872.1 L1902.27 1872.1 L1902.27 1883.3 L1895.87 1883.3 L1895.87 1872.1 L1874.42 1872.1 L1874.42 1865.89 L1894.18 1835.78 Z" fill="#000000" fill-rule="nonzero" fill-opacity="1" /><path clip-path="url(#clip870)" d="M1917.93 1833.84 L1923.02 1833.84 Q1927.79 1841.35 1930.15 1848.54 Q1932.54 1855.74 1932.54 1862.84 Q1932.54 1869.96 1930.15 1877.19 Q1927.79 1884.41 1923.02 1891.89 L1917.93 1891.89 Q1922.16 1884.61 1924.23 1877.41 Q1926.33 1870.19 1926.33 1862.84 Q1926.33 1855.48 1924.23 1848.32 Q1922.16 1841.16 1917.93 1833.84 Z" fill="#000000" fill-rule="nonzero" fill-opacity="1" /><polyline clip-path="url(#clip870)" style="stroke:#000000; stroke-linecap:round; stroke-linejoin:round; stroke-width:4; stroke-opacity:1; fill:none" points="226.141,1734.12 226.141,127.792 "/>
<polyline clip-path="url(#clip870)" style="stroke:#000000; stroke-linecap:round; stroke-linejoin:round; stroke-width:4; stroke-opacity:1; fill:none" points="226.141,1734.12 245.038,1734.12 "/>
<polyline clip-path="url(#clip870)" style="stroke:#000000; stroke-linecap:round; stroke-linejoin:round; stroke-width:4; stroke-opacity:1; fill:none" points="226.141,1329.35 245.038,1329.35 "/>
<polyline clip-path="url(#clip870)" style="stroke:#000000; stroke-linecap:round; stroke-linejoin:round; stroke-width:4; stroke-opacity:1; fill:none" points="226.141,924.577 245.038,924.577 "/>
<polyline clip-path="url(#clip870)" style="stroke:#000000; stroke-linecap:round; stroke-linejoin:round; stroke-width:4; stroke-opacity:1; fill:none" points="226.141,519.806 245.038,519.806 "/>
<path clip-path="url(#clip870)" d="M128.645 1719.92 Q125.034 1719.92 123.205 1723.48 Q121.4 1727.02 121.4 1734.15 Q121.4 1741.26 123.205 1744.82 Q125.034 1748.36 128.645 1748.36 Q132.279 1748.36 134.085 1744.82 Q135.913 1741.26 135.913 1734.15 Q135.913 1727.02 134.085 1723.48 Q132.279 1719.92 128.645 1719.92 M128.645 1716.21 Q134.455 1716.21 137.511 1720.82 Q140.589 1725.4 140.589 1734.15 Q140.589 1742.88 137.511 1747.48 Q134.455 1752.07 128.645 1752.07 Q122.835 1752.07 119.756 1747.48 Q116.701 1742.88 116.701 1734.15 Q116.701 1725.4 119.756 1720.82 Q122.835 1716.21 128.645 1716.21 Z" fill="#000000" fill-rule="nonzero" fill-opacity="1" /><path clip-path="url(#clip870)" d="M148.807 1745.52 L153.691 1745.52 L153.691 1751.4 L148.807 1751.4 L148.807 1745.52 Z" fill="#000000" fill-rule="nonzero" fill-opacity="1" /><path clip-path="url(#clip870)" d="M173.876 1719.92 Q170.265 1719.92 168.436 1723.48 Q166.631 1727.02 166.631 1734.15 Q166.631 1741.26 168.436 1744.82 Q170.265 1748.36 173.876 1748.36 Q177.51 1748.36 179.316 1744.82 Q181.145 1741.26 181.145 1734.15 Q181.145 1727.02 179.316 1723.48 Q177.51 1719.92 173.876 1719.92 M173.876 1716.21 Q179.686 1716.21 182.742 1720.82 Q185.821 1725.4 185.821 1734.15 Q185.821 1742.88 182.742 1747.48 Q179.686 1752.07 173.876 1752.07 Q168.066 1752.07 164.987 1747.48 Q161.932 1742.88 161.932 1734.15 Q161.932 1725.4 164.987 1720.82 Q168.066 1716.21 173.876 1716.21 Z" fill="#000000" fill-rule="nonzero" fill-opacity="1" /><path clip-path="url(#clip870)" d="M130.242 1315.15 Q126.631 1315.15 124.802 1318.71 Q122.997 1322.25 122.997 1329.38 Q122.997 1336.49 124.802 1340.05 Q126.631 1343.59 130.242 1343.59 Q133.876 1343.59 135.682 1340.05 Q137.511 1336.49 137.511 1329.38 Q137.511 1322.25 135.682 1318.71 Q133.876 1315.15 130.242 1315.15 M130.242 1311.44 Q136.052 1311.44 139.108 1316.05 Q142.187 1320.63 142.187 1329.38 Q142.187 1338.11 139.108 1342.71 Q136.052 1347.3 130.242 1347.3 Q124.432 1347.3 121.353 1342.71 Q118.298 1338.11 118.298 1329.38 Q118.298 1320.63 121.353 1316.05 Q124.432 1311.44 130.242 1311.44 Z" fill="#000000" fill-rule="nonzero" fill-opacity="1" /><path clip-path="url(#clip870)" d="M150.404 1340.75 L155.288 1340.75 L155.288 1346.63 L150.404 1346.63 L150.404 1340.75 Z" fill="#000000" fill-rule="nonzero" fill-opacity="1" /><path clip-path="url(#clip870)" d="M169.501 1342.69 L185.821 1342.69 L185.821 1346.63 L163.876 1346.63 L163.876 1342.69 Q166.538 1339.94 171.122 1335.31 Q175.728 1330.65 176.909 1329.31 Q179.154 1326.79 180.034 1325.05 Q180.936 1323.29 180.936 1321.6 Q180.936 1318.85 178.992 1317.11 Q177.071 1315.38 173.969 1315.38 Q171.77 1315.38 169.316 1316.14 Q166.885 1316.9 164.108 1318.46 L164.108 1313.73 Q166.932 1312.6 169.385 1312.02 Q171.839 1311.44 173.876 1311.44 Q179.247 1311.44 182.441 1314.13 Q185.635 1316.81 185.635 1321.3 Q185.635 1323.43 184.825 1325.35 Q184.038 1327.25 181.932 1329.84 Q181.353 1330.52 178.251 1333.73 Q175.149 1336.93 169.501 1342.69 Z" fill="#000000" fill-rule="nonzero" fill-opacity="1" /><path clip-path="url(#clip870)" d="M128.159 910.375 Q124.548 910.375 122.719 913.94 Q120.913 917.482 120.913 924.611 Q120.913 931.718 122.719 935.283 Q124.548 938.824 128.159 938.824 Q131.793 938.824 133.599 935.283 Q135.427 931.718 135.427 924.611 Q135.427 917.482 133.599 913.94 Q131.793 910.375 128.159 910.375 M128.159 906.672 Q133.969 906.672 137.025 911.278 Q140.103 915.861 140.103 924.611 Q140.103 933.338 137.025 937.945 Q133.969 942.528 128.159 942.528 Q122.349 942.528 119.27 937.945 Q116.214 933.338 116.214 924.611 Q116.214 915.861 119.27 911.278 Q122.349 906.672 128.159 906.672 Z" fill="#000000" fill-rule="nonzero" fill-opacity="1" /><path clip-path="url(#clip870)" d="M148.321 935.977 L153.205 935.977 L153.205 941.857 L148.321 941.857 L148.321 935.977 Z" fill="#000000" fill-rule="nonzero" fill-opacity="1" /><path clip-path="url(#clip870)" d="M176.237 911.371 L164.432 929.82 L176.237 929.82 L176.237 911.371 M175.01 907.297 L180.89 907.297 L180.89 929.82 L185.821 929.82 L185.821 933.708 L180.89 933.708 L180.89 941.857 L176.237 941.857 L176.237 933.708 L160.636 933.708 L160.636 929.195 L175.01 907.297 Z" fill="#000000" fill-rule="nonzero" fill-opacity="1" /><path clip-path="url(#clip870)" d="M128.483 505.605 Q124.872 505.605 123.043 509.17 Q121.238 512.711 121.238 519.841 Q121.238 526.948 123.043 530.512 Q124.872 534.054 128.483 534.054 Q132.117 534.054 133.923 530.512 Q135.751 526.948 135.751 519.841 Q135.751 512.711 133.923 509.17 Q132.117 505.605 128.483 505.605 M128.483 501.901 Q134.293 501.901 137.349 506.508 Q140.427 511.091 140.427 519.841 Q140.427 528.568 137.349 533.174 Q134.293 537.758 128.483 537.758 Q122.673 537.758 119.594 533.174 Q116.539 528.568 116.539 519.841 Q116.539 511.091 119.594 506.508 Q122.673 501.901 128.483 501.901 Z" fill="#000000" fill-rule="nonzero" fill-opacity="1" /><path clip-path="url(#clip870)" d="M148.645 531.207 L153.529 531.207 L153.529 537.086 L148.645 537.086 L148.645 531.207 Z" fill="#000000" fill-rule="nonzero" fill-opacity="1" /><path clip-path="url(#clip870)" d="M174.293 517.943 Q171.145 517.943 169.293 520.096 Q167.464 522.248 167.464 525.998 Q167.464 529.725 169.293 531.901 Q171.145 534.054 174.293 534.054 Q177.441 534.054 179.27 531.901 Q181.122 529.725 181.122 525.998 Q181.122 522.248 179.27 520.096 Q177.441 517.943 174.293 517.943 M183.575 503.29 L183.575 507.549 Q181.816 506.716 180.01 506.276 Q178.228 505.837 176.469 505.837 Q171.839 505.837 169.385 508.961 Q166.955 512.086 166.608 518.406 Q167.973 516.392 170.034 515.327 Q172.094 514.239 174.571 514.239 Q179.779 514.239 182.788 517.411 Q185.821 520.559 185.821 525.998 Q185.821 531.322 182.672 534.54 Q179.524 537.758 174.293 537.758 Q168.297 537.758 165.126 533.174 Q161.955 528.568 161.955 519.841 Q161.955 511.647 165.844 506.786 Q169.733 501.901 176.284 501.901 Q178.043 501.901 179.825 502.249 Q181.631 502.596 183.575 503.29 Z" fill="#000000" fill-rule="nonzero" fill-opacity="1" /><path clip-path="url(#clip870)" d="M56.2912 1228.33 L75.1974 1228.33 L75.1974 1234.22 L25.9905 1234.22 L25.9905 1228.33 L31.4013 1228.33 Q28.2185 1226.48 26.6907 1223.68 Q25.1311 1220.85 25.1311 1216.93 Q25.1311 1210.44 30.2873 1206.4 Q35.4436 1202.32 43.8463 1202.32 Q52.249 1202.32 57.4052 1206.4 Q62.5615 1210.44 62.5615 1216.93 Q62.5615 1220.85 61.0337 1223.68 Q59.4741 1226.48 56.2912 1228.33 M43.8463 1208.4 Q37.3851 1208.4 33.7248 1211.08 Q30.0327 1213.72 30.0327 1218.37 Q30.0327 1223.01 33.7248 1225.69 Q37.3851 1228.33 43.8463 1228.33 Q50.3075 1228.33 53.9996 1225.69 Q57.6599 1223.01 57.6599 1218.37 Q57.6599 1213.72 53.9996 1211.08 Q50.3075 1208.4 43.8463 1208.4 Z" fill="#000000" fill-rule="nonzero" fill-opacity="1" /><path clip-path="url(#clip870)" d="M30.0964 1178.8 Q30.0964 1183.51 33.7885 1186.25 Q37.4488 1188.99 43.8463 1188.99 Q50.2438 1188.99 53.9359 1186.28 Q57.5962 1183.55 57.5962 1178.8 Q57.5962 1174.12 53.9041 1171.39 Q50.212 1168.65 43.8463 1168.65 Q37.5124 1168.65 33.8203 1171.39 Q30.0964 1174.12 30.0964 1178.8 M25.1311 1178.8 Q25.1311 1171.16 30.0964 1166.8 Q35.0616 1162.44 43.8463 1162.44 Q52.5991 1162.44 57.5962 1166.8 Q62.5615 1171.16 62.5615 1178.8 Q62.5615 1186.47 57.5962 1190.83 Q52.5991 1195.16 43.8463 1195.16 Q35.0616 1195.16 30.0964 1190.83 Q25.1311 1186.47 25.1311 1178.8 Z" fill="#000000" fill-rule="nonzero" fill-opacity="1" /><path clip-path="url(#clip870)" d="M56.2912 1147.07 L75.1974 1147.07 L75.1974 1152.96 L25.9905 1152.96 L25.9905 1147.07 L31.4013 1147.07 Q28.2185 1145.22 26.6907 1142.42 Q25.1311 1139.59 25.1311 1135.68 Q25.1311 1129.18 30.2873 1125.14 Q35.4436 1121.07 43.8463 1121.07 Q52.249 1121.07 57.4052 1125.14 Q62.5615 1129.18 62.5615 1135.68 Q62.5615 1139.59 61.0337 1142.42 Q59.4741 1145.22 56.2912 1147.07 M43.8463 1127.15 Q37.3851 1127.15 33.7248 1129.82 Q30.0327 1132.46 30.0327 1137.11 Q30.0327 1141.75 33.7248 1144.43 Q37.3851 1147.07 43.8463 1147.07 Q50.3075 1147.07 53.9996 1144.43 Q57.6599 1141.75 57.6599 1137.11 Q57.6599 1132.46 53.9996 1129.82 Q50.3075 1127.15 43.8463 1127.15 Z" fill="#000000" fill-rule="nonzero" fill-opacity="1" /><path clip-path="url(#clip870)" d="M47.5702 1111.96 L25.9905 1111.96 L25.9905 1106.11 L47.3474 1106.11 Q52.4082 1106.11 54.9545 1104.13 Q57.4689 1102.16 57.4689 1098.21 Q57.4689 1093.47 54.4452 1090.73 Q51.4215 1087.96 46.2016 1087.96 L25.9905 1087.96 L25.9905 1082.11 L61.6384 1082.11 L61.6384 1087.96 L56.1639 1087.96 Q59.4104 1090.1 61.0019 1092.93 Q62.5615 1095.73 62.5615 1099.45 Q62.5615 1105.6 58.742 1108.78 Q54.9226 1111.96 47.5702 1111.96 M25.1311 1097.23 L25.1311 1097.23 Z" fill="#000000" fill-rule="nonzero" fill-opacity="1" /><path clip-path="url(#clip870)" d="M12.1132 1070.05 L12.1132 1064.19 L61.6384 1064.19 L61.6384 1070.05 L12.1132 1070.05 Z" fill="#000000" fill-rule="nonzero" fill-opacity="1" /><path clip-path="url(#clip870)" d="M43.719 1035.73 Q43.719 1042.83 45.3422 1045.57 Q46.9655 1048.31 50.8804 1048.31 Q53.9996 1048.31 55.8457 1046.27 Q57.6599 1044.2 57.6599 1040.67 Q57.6599 1035.8 54.2224 1032.87 Q50.7531 1029.91 45.0239 1029.91 L43.719 1029.91 L43.719 1035.73 M41.3 1024.05 L61.6384 1024.05 L61.6384 1029.91 L56.2276 1029.91 Q59.4741 1031.91 61.0337 1034.91 Q62.5615 1037.9 62.5615 1042.23 Q62.5615 1047.7 59.5059 1050.95 Q56.4186 1054.16 51.2623 1054.16 Q45.2467 1054.16 42.1912 1050.15 Q39.1357 1046.11 39.1357 1038.12 L39.1357 1029.91 L38.5628 1029.91 Q34.5205 1029.91 32.3244 1032.58 Q30.0964 1035.22 30.0964 1040.03 Q30.0964 1043.09 30.8284 1045.98 Q31.5605 1048.88 33.0246 1051.55 L27.6137 1051.55 Q26.3724 1048.34 25.7677 1045.31 Q25.1311 1042.29 25.1311 1039.43 Q25.1311 1031.69 29.1415 1027.87 Q33.1519 1024.05 41.3 1024.05 Z" fill="#000000" fill-rule="nonzero" fill-opacity="1" /><path clip-path="url(#clip870)" d="M15.869 1006.2 L25.9905 1006.2 L25.9905 994.134 L30.542 994.134 L30.542 1006.2 L49.8937 1006.2 Q54.2542 1006.2 55.4955 1005.02 Q56.7368 1003.81 56.7368 1000.15 L56.7368 994.134 L61.6384 994.134 L61.6384 1000.15 Q61.6384 1006.93 59.124 1009.51 Q56.5777 1012.09 49.8937 1012.09 L30.542 1012.09 L30.542 1016.38 L25.9905 1016.38 L25.9905 1012.09 L15.869 1012.09 L15.869 1006.2 Z" fill="#000000" fill-rule="nonzero" fill-opacity="1" /><path clip-path="url(#clip870)" d="M25.9905 986.432 L25.9905 980.575 L61.6384 980.575 L61.6384 986.432 L25.9905 986.432 M12.1132 986.432 L12.1132 980.575 L19.5293 980.575 L19.5293 986.432 L12.1132 986.432 Z" fill="#000000" fill-rule="nonzero" fill-opacity="1" /><path clip-path="url(#clip870)" d="M30.0964 954.508 Q30.0964 959.218 33.7885 961.956 Q37.4488 964.693 43.8463 964.693 Q50.2438 964.693 53.9359 961.987 Q57.5962 959.25 57.5962 954.508 Q57.5962 949.829 53.9041 947.092 Q50.212 944.354 43.8463 944.354 Q37.5124 944.354 33.8203 947.092 Q30.0964 949.829 30.0964 954.508 M25.1311 954.508 Q25.1311 946.869 30.0964 942.508 Q35.0616 938.148 43.8463 938.148 Q52.5991 938.148 57.5962 942.508 Q62.5615 946.869 62.5615 954.508 Q62.5615 962.178 57.5962 966.539 Q52.5991 970.868 43.8463 970.868 Q35.0616 970.868 30.0964 966.539 Q25.1311 962.178 25.1311 954.508 Z" fill="#000000" fill-rule="nonzero" fill-opacity="1" /><path clip-path="url(#clip870)" d="M40.1224 898.808 L61.6384 898.808 L61.6384 904.664 L40.3133 904.664 Q35.2526 904.664 32.7381 906.638 Q30.2237 908.611 30.2237 912.558 Q30.2237 917.3 33.2474 920.037 Q36.2711 922.775 41.491 922.775 L61.6384 922.775 L61.6384 928.663 L25.9905 928.663 L25.9905 922.775 L31.5287 922.775 Q28.314 920.674 26.7225 917.841 Q25.1311 914.977 25.1311 911.253 Q25.1311 905.11 28.9505 901.959 Q32.7381 898.808 40.1224 898.808 Z" fill="#000000" fill-rule="nonzero" fill-opacity="1" /><path clip-path="url(#clip870)" d="M12.1132 848.36 L16.983 848.36 L16.983 853.961 Q16.983 857.112 18.2562 858.354 Q19.5293 859.563 22.8395 859.563 L25.9905 859.563 L25.9905 849.919 L30.542 849.919 L30.542 859.563 L61.6384 859.563 L61.6384 865.451 L30.542 865.451 L30.542 871.053 L25.9905 871.053 L25.9905 865.451 L23.5079 865.451 Q17.5559 865.451 14.8505 862.682 Q12.1132 859.913 12.1132 853.898 L12.1132 848.36 Z" fill="#000000" fill-rule="nonzero" fill-opacity="1" /><path clip-path="url(#clip870)" d="M31.465 822.801 Q30.8921 823.788 30.6375 824.966 Q30.351 826.111 30.351 827.512 Q30.351 832.477 33.5975 835.151 Q36.8122 837.792 42.8596 837.792 L61.6384 837.792 L61.6384 843.681 L25.9905 843.681 L25.9905 837.792 L31.5287 837.792 Q28.2821 835.946 26.7225 832.986 Q25.1311 830.026 25.1311 825.793 Q25.1311 825.188 25.2266 824.456 Q25.2903 823.724 25.4494 822.833 L31.465 822.801 Z" fill="#000000" fill-rule="nonzero" fill-opacity="1" /><path clip-path="url(#clip870)" d="M43.719 800.458 Q43.719 807.555 45.3422 810.293 Q46.9655 813.03 50.8804 813.03 Q53.9996 813.03 55.8457 810.993 Q57.6599 808.924 57.6599 805.391 Q57.6599 800.521 54.2224 797.593 Q50.7531 794.633 45.0239 794.633 L43.719 794.633 L43.719 800.458 M41.3 788.776 L61.6384 788.776 L61.6384 794.633 L56.2276 794.633 Q59.4741 796.638 61.0337 799.63 Q62.5615 802.622 62.5615 806.951 Q62.5615 812.425 59.5059 815.672 Q56.4186 818.886 51.2623 818.886 Q45.2467 818.886 42.1912 814.876 Q39.1357 810.834 39.1357 802.845 L39.1357 794.633 L38.5628 794.633 Q34.5205 794.633 32.3244 797.307 Q30.0964 799.948 30.0964 804.754 Q30.0964 807.81 30.8284 810.706 Q31.5605 813.603 33.0246 816.276 L27.6137 816.276 Q26.3724 813.062 25.7677 810.038 Q25.1311 807.014 25.1311 804.15 Q25.1311 796.415 29.1415 792.596 Q33.1519 788.776 41.3 788.776 Z" fill="#000000" fill-rule="nonzero" fill-opacity="1" /><path clip-path="url(#clip870)" d="M27.3591 751.06 L32.8336 751.06 Q31.465 753.542 30.7966 756.057 Q30.0964 758.539 30.0964 761.086 Q30.0964 766.783 33.7248 769.934 Q37.3214 773.085 43.8463 773.085 Q50.3711 773.085 53.9996 769.934 Q57.5962 766.783 57.5962 761.086 Q57.5962 758.539 56.9278 756.057 Q56.2276 753.542 54.859 751.06 L60.2698 751.06 Q61.4156 753.51 61.9886 756.152 Q62.5615 758.762 62.5615 761.722 Q62.5615 769.775 57.5007 774.517 Q52.44 779.26 43.8463 779.26 Q35.1253 779.26 30.1282 774.485 Q25.1311 769.679 25.1311 761.34 Q25.1311 758.635 25.704 756.057 Q26.2451 753.479 27.3591 751.06 Z" fill="#000000" fill-rule="nonzero" fill-opacity="1" /><path clip-path="url(#clip870)" d="M15.869 735.082 L25.9905 735.082 L25.9905 723.019 L30.542 723.019 L30.542 735.082 L49.8937 735.082 Q54.2542 735.082 55.4955 733.904 Q56.7368 732.695 56.7368 729.034 L56.7368 723.019 L61.6384 723.019 L61.6384 729.034 Q61.6384 735.814 59.124 738.392 Q56.5777 740.97 49.8937 740.97 L30.542 740.97 L30.542 745.267 L25.9905 745.267 L25.9905 740.97 L15.869 740.97 L15.869 735.082 Z" fill="#000000" fill-rule="nonzero" fill-opacity="1" /><path clip-path="url(#clip870)" d="M25.9905 715.316 L25.9905 709.46 L61.6384 709.46 L61.6384 715.316 L25.9905 715.316 M12.1132 715.316 L12.1132 709.46 L19.5293 709.46 L19.5293 715.316 L12.1132 715.316 Z" fill="#000000" fill-rule="nonzero" fill-opacity="1" /><path clip-path="url(#clip870)" d="M30.0964 683.392 Q30.0964 688.103 33.7885 690.84 Q37.4488 693.577 43.8463 693.577 Q50.2438 693.577 53.9359 690.872 Q57.5962 688.135 57.5962 683.392 Q57.5962 678.713 53.9041 675.976 Q50.212 673.239 43.8463 673.239 Q37.5124 673.239 33.8203 675.976 Q30.0964 678.713 30.0964 683.392 M25.1311 683.392 Q25.1311 675.753 30.0964 671.393 Q35.0616 667.032 43.8463 667.032 Q52.5991 667.032 57.5962 671.393 Q62.5615 675.753 62.5615 683.392 Q62.5615 691.063 57.5962 695.423 Q52.5991 699.752 43.8463 699.752 Q35.0616 699.752 30.0964 695.423 Q25.1311 691.063 25.1311 683.392 Z" fill="#000000" fill-rule="nonzero" fill-opacity="1" /><path clip-path="url(#clip870)" d="M40.1224 627.692 L61.6384 627.692 L61.6384 633.549 L40.3133 633.549 Q35.2526 633.549 32.7381 635.522 Q30.2237 637.495 30.2237 641.442 Q30.2237 646.185 33.2474 648.922 Q36.2711 651.659 41.491 651.659 L61.6384 651.659 L61.6384 657.547 L25.9905 657.547 L25.9905 651.659 L31.5287 651.659 Q28.314 649.558 26.7225 646.726 Q25.1311 643.861 25.1311 640.137 Q25.1311 633.994 28.9505 630.843 Q32.7381 627.692 40.1224 627.692 Z" fill="#000000" fill-rule="nonzero" fill-opacity="1" /><path clip-path="url(#clip870)" d="M682.573 44.2197 Q685.206 45.1109 687.677 48.0275 Q690.188 50.9442 692.7 56.0483 L701.004 72.576 L692.214 72.576 L684.477 57.061 Q681.479 50.9847 678.643 48.9997 Q675.848 47.0148 670.987 47.0148 L662.075 47.0148 L662.075 72.576 L653.892 72.576 L653.892 12.096 L672.364 12.096 Q682.735 12.096 687.839 16.4305 Q692.943 20.7649 692.943 29.5149 Q692.943 35.2267 690.269 38.994 Q687.636 42.7613 682.573 44.2197 M662.075 18.8205 L662.075 40.2903 L672.364 40.2903 Q678.279 40.2903 681.276 37.5762 Q684.315 34.8216 684.315 29.5149 Q684.315 24.2082 681.276 21.5346 Q678.279 18.8205 672.364 18.8205 L662.075 18.8205 Z" fill="#000000" fill-rule="nonzero" fill-opacity="1" /><path clip-path="url(#clip870)" d="M746.293 48.0275 L746.293 51.6733 L712.023 51.6733 Q712.509 59.3701 716.641 63.421 Q720.813 67.4314 728.226 67.4314 Q732.52 67.4314 736.531 66.3781 Q740.582 65.3249 744.551 63.2184 L744.551 70.267 Q740.541 71.9684 736.328 72.8596 Q732.115 73.7508 727.781 73.7508 Q716.924 73.7508 710.564 67.4314 Q704.245 61.1119 704.245 50.3365 Q704.245 39.1965 710.24 32.6746 Q716.276 26.1121 726.484 26.1121 Q735.639 26.1121 740.946 32.0264 Q746.293 37.9003 746.293 48.0275 M738.84 45.84 Q738.759 39.7232 735.396 36.0774 Q732.075 32.4315 726.565 32.4315 Q720.327 32.4315 716.56 35.9558 Q712.833 39.4801 712.266 45.8805 L738.84 45.84 Z" fill="#000000" fill-rule="nonzero" fill-opacity="1" /><path clip-path="url(#clip870)" d="M758.527 27.2059 L765.981 27.2059 L765.981 72.576 L758.527 72.576 L758.527 27.2059 M758.527 9.54393 L765.981 9.54393 L765.981 18.9825 L758.527 18.9825 L758.527 9.54393 Z" fill="#000000" fill-rule="nonzero" fill-opacity="1" /><path clip-path="url(#clip870)" d="M819.291 45.1919 L819.291 72.576 L811.837 72.576 L811.837 45.4349 Q811.837 38.994 809.325 35.7938 Q806.814 32.5936 801.791 32.5936 Q795.755 32.5936 792.271 36.4419 Q788.787 40.2903 788.787 46.9338 L788.787 72.576 L781.293 72.576 L781.293 27.2059 L788.787 27.2059 L788.787 34.2544 Q791.461 30.163 795.066 28.1376 Q798.712 26.1121 803.452 26.1121 Q811.27 26.1121 815.28 30.9732 Q819.291 35.7938 819.291 45.1919 Z" fill="#000000" fill-rule="nonzero" fill-opacity="1" /><path clip-path="url(#clip870)" d="M857.126 9.54393 L857.126 15.7418 L849.996 15.7418 Q845.986 15.7418 844.406 17.3622 Q842.867 18.9825 842.867 23.1955 L842.867 27.2059 L855.141 27.2059 L855.141 32.9987 L842.867 32.9987 L842.867 72.576 L835.373 72.576 L835.373 32.9987 L828.243 32.9987 L828.243 27.2059 L835.373 27.2059 L835.373 24.0462 Q835.373 16.471 838.897 13.0277 Q842.421 9.54393 850.078 9.54393 L857.126 9.54393 Z" fill="#000000" fill-rule="nonzero" fill-opacity="1" /><path clip-path="url(#clip870)" d="M902.172 48.0275 L902.172 51.6733 L867.901 51.6733 Q868.388 59.3701 872.52 63.421 Q876.692 67.4314 884.105 67.4314 Q888.399 67.4314 892.409 66.3781 Q896.46 65.3249 900.43 63.2184 L900.43 70.267 Q896.42 71.9684 892.207 72.8596 Q887.994 73.7508 883.66 73.7508 Q872.803 73.7508 866.443 67.4314 Q860.124 61.1119 860.124 50.3365 Q860.124 39.1965 866.119 32.6746 Q872.155 26.1121 882.363 26.1121 Q891.518 26.1121 896.825 32.0264 Q902.172 37.9003 902.172 48.0275 M894.718 45.84 Q894.637 39.7232 891.275 36.0774 Q887.953 32.4315 882.444 32.4315 Q876.206 32.4315 872.439 35.9558 Q868.712 39.4801 868.145 45.8805 L894.718 45.84 Z" fill="#000000" fill-rule="nonzero" fill-opacity="1" /><path clip-path="url(#clip870)" d="M947.056 28.9478 L947.056 35.9153 Q943.896 34.1734 940.696 33.3227 Q937.537 32.4315 934.296 32.4315 Q927.045 32.4315 923.034 37.0496 Q919.024 41.6271 919.024 49.9314 Q919.024 58.2358 923.034 62.8538 Q927.045 67.4314 934.296 67.4314 Q937.537 67.4314 940.696 66.5807 Q943.896 65.6895 947.056 63.9476 L947.056 70.8341 Q943.937 72.2924 940.575 73.0216 Q937.253 73.7508 933.486 73.7508 Q923.237 73.7508 917.201 67.3098 Q911.165 60.8689 911.165 49.9314 Q911.165 38.832 917.242 32.472 Q923.358 26.1121 933.972 26.1121 Q937.415 26.1121 940.696 26.8413 Q943.977 27.5299 947.056 28.9478 Z" fill="#000000" fill-rule="nonzero" fill-opacity="1" /><path clip-path="url(#clip870)" d="M967.392 14.324 L967.392 27.2059 L982.745 27.2059 L982.745 32.9987 L967.392 32.9987 L967.392 57.6282 Q967.392 63.1779 968.891 64.7578 Q970.43 66.3376 975.088 66.3376 L982.745 66.3376 L982.745 72.576 L975.088 72.576 Q966.46 72.576 963.179 69.3758 Q959.898 66.1351 959.898 57.6282 L959.898 32.9987 L954.429 32.9987 L954.429 27.2059 L959.898 27.2059 L959.898 14.324 L967.392 14.324 Z" fill="#000000" fill-rule="nonzero" fill-opacity="1" /><path clip-path="url(#clip870)" d="M992.548 27.2059 L1000 27.2059 L1000 72.576 L992.548 72.576 L992.548 27.2059 M992.548 9.54393 L1000 9.54393 L1000 18.9825 L992.548 18.9825 L992.548 9.54393 Z" fill="#000000" fill-rule="nonzero" fill-opacity="1" /><path clip-path="url(#clip870)" d="M1033.18 32.4315 Q1027.18 32.4315 1023.7 37.1306 Q1020.22 41.7891 1020.22 49.9314 Q1020.22 58.0738 1023.66 62.7728 Q1027.14 67.4314 1033.18 67.4314 Q1039.13 67.4314 1042.62 62.7323 Q1046.1 58.0333 1046.1 49.9314 Q1046.1 41.8701 1042.62 37.1711 Q1039.13 32.4315 1033.18 32.4315 M1033.18 26.1121 Q1042.9 26.1121 1048.45 32.4315 Q1054 38.7509 1054 49.9314 Q1054 61.0714 1048.45 67.4314 Q1042.9 73.7508 1033.18 73.7508 Q1023.42 73.7508 1017.87 67.4314 Q1012.36 61.0714 1012.36 49.9314 Q1012.36 38.7509 1017.87 32.4315 Q1023.42 26.1121 1033.18 26.1121 Z" fill="#000000" fill-rule="nonzero" fill-opacity="1" /><path clip-path="url(#clip870)" d="M1104.07 45.1919 L1104.07 72.576 L1096.62 72.576 L1096.62 45.4349 Q1096.62 38.994 1094.1 35.7938 Q1091.59 32.5936 1086.57 32.5936 Q1080.53 32.5936 1077.05 36.4419 Q1073.57 40.2903 1073.57 46.9338 L1073.57 72.576 L1066.07 72.576 L1066.07 27.2059 L1073.57 27.2059 L1073.57 34.2544 Q1076.24 30.163 1079.84 28.1376 Q1083.49 26.1121 1088.23 26.1121 Q1096.05 26.1121 1100.06 30.9732 Q1104.07 35.7938 1104.07 45.1919 Z" fill="#000000" fill-rule="nonzero" fill-opacity="1" /><path clip-path="url(#clip870)" d="M1115.17 46.5287 L1137 46.5287 L1137 53.1722 L1115.17 53.1722 L1115.17 46.5287 Z" fill="#000000" fill-rule="nonzero" fill-opacity="1" /><path clip-path="url(#clip870)" d="M1181.52 28.9478 L1181.52 35.9153 Q1178.36 34.1734 1175.16 33.3227 Q1172 32.4315 1168.76 32.4315 Q1161.51 32.4315 1157.5 37.0496 Q1153.49 41.6271 1153.49 49.9314 Q1153.49 58.2358 1157.5 62.8538 Q1161.51 67.4314 1168.76 67.4314 Q1172 67.4314 1175.16 66.5807 Q1178.36 65.6895 1181.52 63.9476 L1181.52 70.8341 Q1178.4 72.2924 1175.04 73.0216 Q1171.72 73.7508 1167.95 73.7508 Q1157.7 73.7508 1151.67 67.3098 Q1145.63 60.8689 1145.63 49.9314 Q1145.63 38.832 1151.71 32.472 Q1157.82 26.1121 1168.44 26.1121 Q1171.88 26.1121 1175.16 26.8413 Q1178.44 27.5299 1181.52 28.9478 Z" fill="#000000" fill-rule="nonzero" fill-opacity="1" /><path clip-path="url(#clip870)" d="M1212.07 32.4315 Q1206.07 32.4315 1202.59 37.1306 Q1199.1 41.7891 1199.1 49.9314 Q1199.1 58.0738 1202.55 62.7728 Q1206.03 67.4314 1212.07 67.4314 Q1218.02 67.4314 1221.5 62.7323 Q1224.99 58.0333 1224.99 49.9314 Q1224.99 41.8701 1221.5 37.1711 Q1218.02 32.4315 1212.07 32.4315 M1212.07 26.1121 Q1221.79 26.1121 1227.34 32.4315 Q1232.89 38.7509 1232.89 49.9314 Q1232.89 61.0714 1227.34 67.4314 Q1221.79 73.7508 1212.07 73.7508 Q1202.3 73.7508 1196.75 67.4314 Q1191.24 61.0714 1191.24 49.9314 Q1191.24 38.7509 1196.75 32.4315 Q1202.3 26.1121 1212.07 26.1121 Z" fill="#000000" fill-rule="nonzero" fill-opacity="1" /><path clip-path="url(#clip870)" d="M1244.47 54.671 L1244.47 27.2059 L1251.93 27.2059 L1251.93 54.3874 Q1251.93 60.8284 1254.44 64.0691 Q1256.95 67.2693 1261.97 67.2693 Q1268.01 67.2693 1271.49 63.421 Q1275.02 59.5726 1275.02 52.9291 L1275.02 27.2059 L1282.47 27.2059 L1282.47 72.576 L1275.02 72.576 L1275.02 65.6084 Q1272.3 69.7404 1268.7 71.7658 Q1265.13 73.7508 1260.39 73.7508 Q1252.58 73.7508 1248.52 68.8897 Q1244.47 64.0286 1244.47 54.671 M1263.23 26.1121 L1263.23 26.1121 Z" fill="#000000" fill-rule="nonzero" fill-opacity="1" /><path clip-path="url(#clip870)" d="M1335.54 45.1919 L1335.54 72.576 L1328.08 72.576 L1328.08 45.4349 Q1328.08 38.994 1325.57 35.7938 Q1323.06 32.5936 1318.04 32.5936 Q1312 32.5936 1308.52 36.4419 Q1305.03 40.2903 1305.03 46.9338 L1305.03 72.576 L1297.54 72.576 L1297.54 27.2059 L1305.03 27.2059 L1305.03 34.2544 Q1307.71 30.163 1311.31 28.1376 Q1314.96 26.1121 1319.7 26.1121 Q1327.52 26.1121 1331.53 30.9732 Q1335.54 35.7938 1335.54 45.1919 Z" fill="#000000" fill-rule="nonzero" fill-opacity="1" /><path clip-path="url(#clip870)" d="M1357.78 14.324 L1357.78 27.2059 L1373.13 27.2059 L1373.13 32.9987 L1357.78 32.9987 L1357.78 57.6282 Q1357.78 63.1779 1359.28 64.7578 Q1360.82 66.3376 1365.47 66.3376 L1373.13 66.3376 L1373.13 72.576 L1365.47 72.576 Q1356.85 72.576 1353.56 69.3758 Q1350.28 66.1351 1350.28 57.6282 L1350.28 32.9987 L1344.81 32.9987 L1344.81 27.2059 L1350.28 27.2059 L1350.28 14.324 L1357.78 14.324 Z" fill="#000000" fill-rule="nonzero" fill-opacity="1" /><path clip-path="url(#clip870)" d="M1447.02 45.1919 L1447.02 72.576 L1439.57 72.576 L1439.57 45.4349 Q1439.57 38.994 1437.05 35.7938 Q1434.54 32.5936 1429.52 32.5936 Q1423.48 32.5936 1420 36.4419 Q1416.52 40.2903 1416.52 46.9338 L1416.52 72.576 L1409.02 72.576 L1409.02 9.54393 L1416.52 9.54393 L1416.52 34.2544 Q1419.19 30.163 1422.79 28.1376 Q1426.44 26.1121 1431.18 26.1121 Q1439 26.1121 1443.01 30.9732 Q1447.02 35.7938 1447.02 45.1919 Z" fill="#000000" fill-rule="nonzero" fill-opacity="1" /><path clip-path="url(#clip870)" d="M1461.89 27.2059 L1469.34 27.2059 L1469.34 72.576 L1461.89 72.576 L1461.89 27.2059 M1461.89 9.54393 L1469.34 9.54393 L1469.34 18.9825 L1461.89 18.9825 L1461.89 9.54393 Z" fill="#000000" fill-rule="nonzero" fill-opacity="1" /><path clip-path="url(#clip870)" d="M1513.86 28.5427 L1513.86 35.5912 Q1510.7 33.9709 1507.3 33.1607 Q1503.89 32.3505 1500.25 32.3505 Q1494.7 32.3505 1491.9 34.0519 Q1489.15 35.7533 1489.15 39.156 Q1489.15 41.7486 1491.13 43.2475 Q1493.12 44.7058 1499.11 46.0426 L1501.67 46.6097 Q1509.61 48.3111 1512.93 51.4303 Q1516.29 54.509 1516.29 60.0587 Q1516.29 66.3781 1511.27 70.0644 Q1506.28 73.7508 1497.53 73.7508 Q1493.89 73.7508 1489.92 73.0216 Q1485.99 72.3329 1481.61 70.9151 L1481.61 63.2184 Q1485.75 65.3654 1489.76 66.4591 Q1493.77 67.5124 1497.7 67.5124 Q1502.96 67.5124 1505.8 65.73 Q1508.63 63.9071 1508.63 60.6258 Q1508.63 57.5877 1506.57 55.9673 Q1504.54 54.3469 1497.61 52.8481 L1495.02 52.2405 Q1488.09 50.7821 1485.02 47.7845 Q1481.94 44.7463 1481.94 39.4801 Q1481.94 33.0797 1486.47 29.5959 Q1491.01 26.1121 1499.36 26.1121 Q1503.49 26.1121 1507.13 26.7198 Q1510.78 27.3274 1513.86 28.5427 Z" fill="#000000" fill-rule="nonzero" fill-opacity="1" /><path clip-path="url(#clip870)" d="M1535.53 14.324 L1535.53 27.2059 L1550.88 27.2059 L1550.88 32.9987 L1535.53 32.9987 L1535.53 57.6282 Q1535.53 63.1779 1537.03 64.7578 Q1538.57 66.3376 1543.23 66.3376 L1550.88 66.3376 L1550.88 72.576 L1543.23 72.576 Q1534.6 72.576 1531.32 69.3758 Q1528.04 66.1351 1528.04 57.6282 L1528.04 32.9987 L1522.57 32.9987 L1522.57 27.2059 L1528.04 27.2059 L1528.04 14.324 L1535.53 14.324 Z" fill="#000000" fill-rule="nonzero" fill-opacity="1" /><path clip-path="url(#clip870)" d="M1578.27 32.4315 Q1572.27 32.4315 1568.79 37.1306 Q1565.31 41.7891 1565.31 49.9314 Q1565.31 58.0738 1568.75 62.7728 Q1572.23 67.4314 1578.27 67.4314 Q1584.22 67.4314 1587.71 62.7323 Q1591.19 58.0333 1591.19 49.9314 Q1591.19 41.8701 1587.71 37.1711 Q1584.22 32.4315 1578.27 32.4315 M1578.27 26.1121 Q1587.99 26.1121 1593.54 32.4315 Q1599.09 38.7509 1599.09 49.9314 Q1599.09 61.0714 1593.54 67.4314 Q1587.99 73.7508 1578.27 73.7508 Q1568.51 73.7508 1562.96 67.4314 Q1557.45 61.0714 1557.45 49.9314 Q1557.45 38.7509 1562.96 32.4315 Q1568.51 26.1121 1578.27 26.1121 Z" fill="#000000" fill-rule="nonzero" fill-opacity="1" /><path clip-path="url(#clip870)" d="M1641.3 49.3643 Q1641.3 41.2625 1637.94 36.8065 Q1634.62 32.3505 1628.58 32.3505 Q1622.58 32.3505 1619.22 36.8065 Q1615.9 41.2625 1615.9 49.3643 Q1615.9 57.4256 1619.22 61.8816 Q1622.58 66.3376 1628.58 66.3376 Q1634.62 66.3376 1637.94 61.8816 Q1641.3 57.4256 1641.3 49.3643 M1648.75 66.9452 Q1648.75 78.5308 1643.61 84.1616 Q1638.46 89.8329 1627.85 89.8329 Q1623.92 89.8329 1620.44 89.2252 Q1616.95 88.6581 1613.67 87.4428 L1613.67 80.1917 Q1616.95 81.9741 1620.15 82.8248 Q1623.35 83.6755 1626.68 83.6755 Q1634.01 83.6755 1637.65 79.8271 Q1641.3 76.0193 1641.3 68.282 L1641.3 64.5957 Q1638.99 68.6061 1635.39 70.5911 Q1631.78 72.576 1626.76 72.576 Q1618.41 72.576 1613.31 66.2161 Q1608.2 59.8562 1608.2 49.3643 Q1608.2 38.832 1613.31 32.472 Q1618.41 26.1121 1626.76 26.1121 Q1631.78 26.1121 1635.39 28.0971 Q1638.99 30.082 1641.3 34.0924 L1641.3 27.2059 L1648.75 27.2059 L1648.75 66.9452 Z" fill="#000000" fill-rule="nonzero" fill-opacity="1" /><path clip-path="url(#clip870)" d="M1690.4 34.1734 Q1689.14 33.4443 1687.64 33.1202 Q1686.18 32.7556 1684.4 32.7556 Q1678.08 32.7556 1674.68 36.8875 Q1671.32 40.9789 1671.32 48.6757 L1671.32 72.576 L1663.82 72.576 L1663.82 27.2059 L1671.32 27.2059 L1671.32 34.2544 Q1673.67 30.1225 1677.43 28.1376 Q1681.2 26.1121 1686.59 26.1121 Q1687.36 26.1121 1688.29 26.2337 Q1689.22 26.3147 1690.36 26.5172 L1690.4 34.1734 Z" fill="#000000" fill-rule="nonzero" fill-opacity="1" /><path clip-path="url(#clip870)" d="M1718.83 49.7694 Q1709.8 49.7694 1706.32 51.8354 Q1702.83 53.9013 1702.83 58.8839 Q1702.83 62.8538 1705.43 65.2034 Q1708.06 67.5124 1712.56 67.5124 Q1718.75 67.5124 1722.48 63.1374 Q1726.25 58.7219 1726.25 51.4303 L1726.25 49.7694 L1718.83 49.7694 M1733.7 46.6907 L1733.7 72.576 L1726.25 72.576 L1726.25 65.6895 Q1723.7 69.8214 1719.89 71.8063 Q1716.08 73.7508 1710.57 73.7508 Q1703.6 73.7508 1699.47 69.8619 Q1695.38 65.9325 1695.38 59.3701 Q1695.38 51.7138 1700.48 47.825 Q1705.63 43.9361 1715.8 43.9361 L1726.25 43.9361 L1726.25 43.2069 Q1726.25 38.0623 1722.84 35.2672 Q1719.48 32.4315 1713.37 32.4315 Q1709.48 32.4315 1705.79 33.3632 Q1702.1 34.295 1698.7 36.1584 L1698.7 29.2718 Q1702.79 27.692 1706.64 26.9223 Q1710.49 26.1121 1714.14 26.1121 Q1723.98 26.1121 1728.84 31.2163 Q1733.7 36.3204 1733.7 46.6907 Z" fill="#000000" fill-rule="nonzero" fill-opacity="1" /><path clip-path="url(#clip870)" d="M1784.38 35.9153 Q1787.17 30.8922 1791.06 28.5022 Q1794.95 26.1121 1800.22 26.1121 Q1807.31 26.1121 1811.15 31.0947 Q1815 36.0368 1815 45.1919 L1815 72.576 L1807.51 72.576 L1807.51 45.4349 Q1807.51 38.913 1805.2 35.7533 Q1802.89 32.5936 1798.15 32.5936 Q1792.36 32.5936 1789 36.4419 Q1785.63 40.2903 1785.63 46.9338 L1785.63 72.576 L1778.14 72.576 L1778.14 45.4349 Q1778.14 38.8725 1775.83 35.7533 Q1773.52 32.5936 1768.7 32.5936 Q1762.99 32.5936 1759.63 36.4824 Q1756.26 40.3308 1756.26 46.9338 L1756.26 72.576 L1748.77 72.576 L1748.77 27.2059 L1756.26 27.2059 L1756.26 34.2544 Q1758.82 30.082 1762.38 28.0971 Q1765.95 26.1121 1770.85 26.1121 Q1775.79 26.1121 1779.23 28.6237 Q1782.72 31.1352 1784.38 35.9153 Z" fill="#000000" fill-rule="nonzero" fill-opacity="1" /><path clip-path="url(#clip870)" d="M1876.86 49.7694 Q1867.83 49.7694 1864.34 51.8354 Q1860.86 53.9013 1860.86 58.8839 Q1860.86 62.8538 1863.45 65.2034 Q1866.08 67.5124 1870.58 67.5124 Q1876.78 67.5124 1880.51 63.1374 Q1884.27 58.7219 1884.27 51.4303 L1884.27 49.7694 L1876.86 49.7694 M1891.73 46.6907 L1891.73 72.576 L1884.27 72.576 L1884.27 65.6895 Q1881.72 69.8214 1877.91 71.8063 Q1874.11 73.7508 1868.6 73.7508 Q1861.63 73.7508 1857.5 69.8619 Q1853.41 65.9325 1853.41 59.3701 Q1853.41 51.7138 1858.51 47.825 Q1863.65 43.9361 1873.82 43.9361 L1884.27 43.9361 L1884.27 43.2069 Q1884.27 38.0623 1880.87 35.2672 Q1877.51 32.4315 1871.39 32.4315 Q1867.5 32.4315 1863.82 33.3632 Q1860.13 34.295 1856.73 36.1584 L1856.73 29.2718 Q1860.82 27.692 1864.67 26.9223 Q1868.52 26.1121 1872.16 26.1121 Q1882 26.1121 1886.87 31.2163 Q1891.73 36.3204 1891.73 46.6907 Z" fill="#000000" fill-rule="nonzero" fill-opacity="1" /><path clip-path="url(#clip870)" d="M1914.45 14.324 L1914.45 27.2059 L1929.81 27.2059 L1929.81 32.9987 L1914.45 32.9987 L1914.45 57.6282 Q1914.45 63.1779 1915.95 64.7578 Q1917.49 66.3376 1922.15 66.3376 L1929.81 66.3376 L1929.81 72.576 L1922.15 72.576 Q1913.52 72.576 1910.24 69.3758 Q1906.96 66.1351 1906.96 57.6282 L1906.96 32.9987 L1901.49 32.9987 L1901.49 27.2059 L1906.96 27.2059 L1906.96 14.324 L1914.45 14.324 Z" fill="#000000" fill-rule="nonzero" fill-opacity="1" /><path clip-path="url(#clip870)" d="M1973.35 14.324 L1973.35 27.2059 L1988.71 27.2059 L1988.71 32.9987 L1973.35 32.9987 L1973.35 57.6282 Q1973.35 63.1779 1974.85 64.7578 Q1976.39 66.3376 1981.05 66.3376 L1988.71 66.3376 L1988.71 72.576 L1981.05 72.576 Q1972.42 72.576 1969.14 69.3758 Q1965.86 66.1351 1965.86 57.6282 L1965.86 32.9987 L1960.39 32.9987 L1960.39 27.2059 L1965.86 27.2059 L1965.86 14.324 L1973.35 14.324 Z" fill="#000000" fill-rule="nonzero" fill-opacity="1" /><path clip-path="url(#clip870)" d="M2025.85 34.9026 L2077.79 34.9026 L2077.79 41.7081 L2025.85 41.7081 L2025.85 34.9026 M2025.85 51.4303 L2077.79 51.4303 L2077.79 58.3168 L2025.85 58.3168 L2025.85 51.4303 Z" fill="#000000" fill-rule="nonzero" fill-opacity="1" /><path clip-path="url(#clip870)" d="M2144.3 19.2256 L2123.64 51.5113 L2144.3 51.5113 L2144.3 19.2256 M2142.15 12.096 L2152.44 12.096 L2152.44 51.5113 L2161.07 51.5113 L2161.07 58.3168 L2152.44 58.3168 L2152.44 72.576 L2144.3 72.576 L2144.3 58.3168 L2117 58.3168 L2117 50.4176 L2142.15 12.096 Z" fill="#000000" fill-rule="nonzero" fill-opacity="1" /><path clip-path="url(#clip870)" d="M2192.1 17.4837 Q2185.78 17.4837 2182.58 23.7221 Q2179.42 29.92 2179.42 42.3968 Q2179.42 54.833 2182.58 61.0714 Q2185.78 67.2693 2192.1 67.2693 Q2198.46 67.2693 2201.62 61.0714 Q2204.82 54.833 2204.82 42.3968 Q2204.82 29.92 2201.62 23.7221 Q2198.46 17.4837 2192.1 17.4837 M2192.1 11.0023 Q2202.27 11.0023 2207.62 19.0636 Q2213 27.0843 2213 42.3968 Q2213 57.6687 2207.62 65.73 Q2202.27 73.7508 2192.1 73.7508 Q2181.93 73.7508 2176.55 65.73 Q2171.2 57.6687 2171.2 42.3968 Q2171.2 27.0843 2176.55 19.0636 Q2181.93 11.0023 2192.1 11.0023 Z" fill="#000000" fill-rule="nonzero" fill-opacity="1" /><path clip-path="url(#clip871)" d="M358.949 1734.12 L358.949 1734.12 L717.115 1734.12 L717.115 1734.12 L358.949 1734.12 L358.949 1734.12  Z" fill="#009af9" fill-rule="evenodd" fill-opacity="1"/>
<polyline clip-path="url(#clip871)" style="stroke:#000000; stroke-linecap:round; stroke-linejoin:round; stroke-width:4; stroke-opacity:1; fill:none" points="358.949,1734.12 358.949,1734.12 717.115,1734.12 717.115,1734.12 358.949,1734.12 "/>
<path clip-path="url(#clip871)" d="M806.657 1733.82 L806.657 1734.12 L1164.82 1734.12 L1164.82 1733.82 L806.657 1733.82 L806.657 1733.82  Z" fill="#009af9" fill-rule="evenodd" fill-opacity="1"/>
<polyline clip-path="url(#clip871)" style="stroke:#000000; stroke-linecap:round; stroke-linejoin:round; stroke-width:4; stroke-opacity:1; fill:none" points="806.657,1733.82 806.657,1734.12 1164.82,1734.12 1164.82,1733.82 806.657,1733.82 "/>
<path clip-path="url(#clip871)" d="M1254.36 1731.52 L1254.36 1734.12 L1612.53 1734.12 L1612.53 1731.52 L1254.36 1731.52 L1254.36 1731.52  Z" fill="#009af9" fill-rule="evenodd" fill-opacity="1"/>
<polyline clip-path="url(#clip871)" style="stroke:#000000; stroke-linecap:round; stroke-linejoin:round; stroke-width:4; stroke-opacity:1; fill:none" points="1254.36,1731.52 1254.36,1734.12 1612.53,1734.12 1612.53,1731.52 1254.36,1731.52 "/>
<path clip-path="url(#clip871)" d="M1702.07 1723.65 L1702.07 1734.12 L2060.24 1734.12 L2060.24 1723.65 L1702.07 1723.65 L1702.07 1723.65  Z" fill="#009af9" fill-rule="evenodd" fill-opacity="1"/>
<polyline clip-path="url(#clip871)" style="stroke:#000000; stroke-linecap:round; stroke-linejoin:round; stroke-width:4; stroke-opacity:1; fill:none" points="1702.07,1723.65 1702.07,1734.12 2060.24,1734.12 2060.24,1723.65 1702.07,1723.65 "/>
<path clip-path="url(#clip871)" d="M2149.78 1379.5 L2149.78 1734.12 L2507.95 1734.12 L2507.95 1379.5 L2149.78 1379.5 L2149.78 1379.5  Z" fill="#009af9" fill-rule="evenodd" fill-opacity="1"/>
<polyline clip-path="url(#clip871)" style="stroke:#000000; stroke-linecap:round; stroke-linejoin:round; stroke-width:4; stroke-opacity:1; fill:none" points="2149.78,1379.5 2149.78,1734.12 2507.95,1734.12 2507.95,1379.5 2149.78,1379.5 "/>
<circle clip-path="url(#clip871)" style="fill:#009af9; stroke:none; fill-opacity:0" cx="538.032" cy="1734.12" r="2"/>
<circle clip-path="url(#clip871)" style="fill:#009af9; stroke:none; fill-opacity:0" cx="985.74" cy="1733.82" r="2"/>
<circle clip-path="url(#clip871)" style="fill:#009af9; stroke:none; fill-opacity:0" cx="1433.45" cy="1731.52" r="2"/>
<circle clip-path="url(#clip871)" style="fill:#009af9; stroke:none; fill-opacity:0" cx="1881.16" cy="1723.65" r="2"/>
<circle clip-path="url(#clip871)" style="fill:#009af9; stroke:none; fill-opacity:0" cx="2328.86" cy="1379.5" r="2"/>
<path clip-path="url(#clip871)" d="M358.949 1734.12 L358.949 1734.12 L717.115 1734.12 L717.115 1734.12 L358.949 1734.12 L358.949 1734.12  Z" fill="#e26f46" fill-rule="evenodd" fill-opacity="1"/>
<polyline clip-path="url(#clip871)" style="stroke:#000000; stroke-linecap:round; stroke-linejoin:round; stroke-width:4; stroke-opacity:1; fill:none" points="358.949,1734.12 358.949,1734.12 717.115,1734.12 358.949,1734.12 "/>
<path clip-path="url(#clip871)" d="M806.657 1734.12 L806.657 1734.12 L1164.82 1734.12 L1164.82 1734.12 L806.657 1734.12 L806.657 1734.12  Z" fill="#e26f46" fill-rule="evenodd" fill-opacity="1"/>
<polyline clip-path="url(#clip871)" style="stroke:#000000; stroke-linecap:round; stroke-linejoin:round; stroke-width:4; stroke-opacity:1; fill:none" points="806.657,1734.12 806.657,1734.12 1164.82,1734.12 806.657,1734.12 "/>
<path clip-path="url(#clip871)" d="M1254.36 1734.12 L1254.36 1734.12 L1612.53 1734.12 L1612.53 1734.12 L1254.36 1734.12 L1254.36 1734.12  Z" fill="#e26f46" fill-rule="evenodd" fill-opacity="1"/>
<polyline clip-path="url(#clip871)" style="stroke:#000000; stroke-linecap:round; stroke-linejoin:round; stroke-width:4; stroke-opacity:1; fill:none" points="1254.36,1734.12 1254.36,1734.12 1612.53,1734.12 1254.36,1734.12 "/>
<path clip-path="url(#clip871)" d="M1702.07 1711.85 L1702.07 1734.12 L2060.24 1734.12 L2060.24 1711.85 L1702.07 1711.85 L1702.07 1711.85  Z" fill="#e26f46" fill-rule="evenodd" fill-opacity="1"/>
<polyline clip-path="url(#clip871)" style="stroke:#000000; stroke-linecap:round; stroke-linejoin:round; stroke-width:4; stroke-opacity:1; fill:none" points="1702.07,1711.85 1702.07,1734.12 2060.24,1734.12 2060.24,1711.85 1702.07,1711.85 "/>
<path clip-path="url(#clip871)" d="M2149.78 1311.13 L2149.78 1734.12 L2507.95 1734.12 L2507.95 1311.13 L2149.78 1311.13 L2149.78 1311.13  Z" fill="#e26f46" fill-rule="evenodd" fill-opacity="1"/>
<polyline clip-path="url(#clip871)" style="stroke:#000000; stroke-linecap:round; stroke-linejoin:round; stroke-width:4; stroke-opacity:1; fill:none" points="2149.78,1311.13 2149.78,1734.12 2507.95,1734.12 2507.95,1311.13 2149.78,1311.13 "/>
<circle clip-path="url(#clip871)" style="fill:#e26f46; stroke:none; fill-opacity:0" cx="538.032" cy="1734.12" r="2"/>
<circle clip-path="url(#clip871)" style="fill:#e26f46; stroke:none; fill-opacity:0" cx="985.74" cy="1734.12" r="2"/>
<circle clip-path="url(#clip871)" style="fill:#e26f46; stroke:none; fill-opacity:0" cx="1433.45" cy="1734.12" r="2"/>
<circle clip-path="url(#clip871)" style="fill:#e26f46; stroke:none; fill-opacity:0" cx="1881.16" cy="1711.85" r="2"/>
<circle clip-path="url(#clip871)" style="fill:#e26f46; stroke:none; fill-opacity:0" cx="2328.86" cy="1311.13" r="2"/>
<path clip-path="url(#clip871)" d="M358.949 1734.12 L358.949 1734.12 L717.115 1734.12 L717.115 1734.12 L358.949 1734.12 L358.949 1734.12  Z" fill="#3da44d" fill-rule="evenodd" fill-opacity="1"/>
<polyline clip-path="url(#clip871)" style="stroke:#000000; stroke-linecap:round; stroke-linejoin:round; stroke-width:4; stroke-opacity:1; fill:none" points="358.949,1734.12 358.949,1734.12 717.115,1734.12 358.949,1734.12 "/>
<path clip-path="url(#clip871)" d="M806.657 1733.09 L806.657 1734.12 L1164.82 1734.12 L1164.82 1733.09 L806.657 1733.09 L806.657 1733.09  Z" fill="#3da44d" fill-rule="evenodd" fill-opacity="1"/>
<polyline clip-path="url(#clip871)" style="stroke:#000000; stroke-linecap:round; stroke-linejoin:round; stroke-width:4; stroke-opacity:1; fill:none" points="806.657,1733.09 806.657,1734.12 1164.82,1734.12 1164.82,1733.09 806.657,1733.09 "/>
<path clip-path="url(#clip871)" d="M1254.36 1724.83 L1254.36 1734.12 L1612.53 1734.12 L1612.53 1724.83 L1254.36 1724.83 L1254.36 1724.83  Z" fill="#3da44d" fill-rule="evenodd" fill-opacity="1"/>
<polyline clip-path="url(#clip871)" style="stroke:#000000; stroke-linecap:round; stroke-linejoin:round; stroke-width:4; stroke-opacity:1; fill:none" points="1254.36,1724.83 1254.36,1734.12 1612.53,1734.12 1612.53,1724.83 1254.36,1724.83 "/>
<path clip-path="url(#clip871)" d="M1702.07 1694.88 L1702.07 1734.12 L2060.24 1734.12 L2060.24 1694.88 L1702.07 1694.88 L1702.07 1694.88  Z" fill="#3da44d" fill-rule="evenodd" fill-opacity="1"/>
<polyline clip-path="url(#clip871)" style="stroke:#000000; stroke-linecap:round; stroke-linejoin:round; stroke-width:4; stroke-opacity:1; fill:none" points="1702.07,1694.88 1702.07,1734.12 2060.24,1734.12 2060.24,1694.88 1702.07,1694.88 "/>
<path clip-path="url(#clip871)" d="M2149.78 127.792 L2149.78 1734.12 L2507.95 1734.12 L2507.95 127.792 L2149.78 127.792 L2149.78 127.792  Z" fill="#3da44d" fill-rule="evenodd" fill-opacity="1"/>
<polyline clip-path="url(#clip871)" style="stroke:#000000; stroke-linecap:round; stroke-linejoin:round; stroke-width:4; stroke-opacity:1; fill:none" points="2149.78,127.792 2149.78,1734.12 2507.95,1734.12 2507.95,127.792 2149.78,127.792 "/>
<circle clip-path="url(#clip871)" style="fill:#3da44d; stroke:none; fill-opacity:0" cx="538.032" cy="1734.12" r="2"/>
<circle clip-path="url(#clip871)" style="fill:#3da44d; stroke:none; fill-opacity:0" cx="985.74" cy="1733.09" r="2"/>
<circle clip-path="url(#clip871)" style="fill:#3da44d; stroke:none; fill-opacity:0" cx="1433.45" cy="1724.83" r="2"/>
<circle clip-path="url(#clip871)" style="fill:#3da44d; stroke:none; fill-opacity:0" cx="1881.16" cy="1694.88" r="2"/>
<circle clip-path="url(#clip871)" style="fill:#3da44d; stroke:none; fill-opacity:0" cx="2328.86" cy="127.792" r="2"/>
<path clip-path="url(#clip871)" d="M358.949 1734.12 L358.949 1734.12 L717.115 1734.12 L717.115 1734.12 L358.949 1734.12 L358.949 1734.12  Z" fill="#c271d2" fill-rule="evenodd" fill-opacity="1"/>
<polyline clip-path="url(#clip871)" style="stroke:#000000; stroke-linecap:round; stroke-linejoin:round; stroke-width:4; stroke-opacity:1; fill:none" points="358.949,1734.12 358.949,1734.12 717.115,1734.12 358.949,1734.12 "/>
<path clip-path="url(#clip871)" d="M806.657 1734.12 L806.657 1734.12 L1164.82 1734.12 L1164.82 1734.12 L806.657 1734.12 L806.657 1734.12  Z" fill="#c271d2" fill-rule="evenodd" fill-opacity="1"/>
<polyline clip-path="url(#clip871)" style="stroke:#000000; stroke-linecap:round; stroke-linejoin:round; stroke-width:4; stroke-opacity:1; fill:none" points="806.657,1734.12 806.657,1734.12 1164.82,1734.12 806.657,1734.12 "/>
<path clip-path="url(#clip871)" d="M1254.36 1724 L1254.36 1734.12 L1612.53 1734.12 L1612.53 1724 L1254.36 1724 L1254.36 1724  Z" fill="#c271d2" fill-rule="evenodd" fill-opacity="1"/>
<polyline clip-path="url(#clip871)" style="stroke:#000000; stroke-linecap:round; stroke-linejoin:round; stroke-width:4; stroke-opacity:1; fill:none" points="1254.36,1724 1254.36,1734.12 1612.53,1734.12 1612.53,1724 1254.36,1724 "/>
<path clip-path="url(#clip871)" d="M1702.07 1711.85 L1702.07 1734.12 L2060.24 1734.12 L2060.24 1711.85 L1702.07 1711.85 L1702.07 1711.85  Z" fill="#c271d2" fill-rule="evenodd" fill-opacity="1"/>
<polyline clip-path="url(#clip871)" style="stroke:#000000; stroke-linecap:round; stroke-linejoin:round; stroke-width:4; stroke-opacity:1; fill:none" points="1702.07,1711.85 1702.07,1734.12 2060.24,1734.12 2060.24,1711.85 1702.07,1711.85 "/>
<path clip-path="url(#clip871)" d="M2149.78 187.895 L2149.78 1734.12 L2507.95 1734.12 L2507.95 187.895 L2149.78 187.895 L2149.78 187.895  Z" fill="#c271d2" fill-rule="evenodd" fill-opacity="1"/>
<polyline clip-path="url(#clip871)" style="stroke:#000000; stroke-linecap:round; stroke-linejoin:round; stroke-width:4; stroke-opacity:1; fill:none" points="2149.78,187.895 2149.78,1734.12 2507.95,1734.12 2507.95,187.895 2149.78,187.895 "/>
<circle clip-path="url(#clip871)" style="fill:#c271d2; stroke:none; fill-opacity:0" cx="538.032" cy="1734.12" r="2"/>
<circle clip-path="url(#clip871)" style="fill:#c271d2; stroke:none; fill-opacity:0" cx="985.74" cy="1734.12" r="2"/>
<circle clip-path="url(#clip871)" style="fill:#c271d2; stroke:none; fill-opacity:0" cx="1433.45" cy="1724" r="2"/>
<circle clip-path="url(#clip871)" style="fill:#c271d2; stroke:none; fill-opacity:0" cx="1881.16" cy="1711.85" r="2"/>
<circle clip-path="url(#clip871)" style="fill:#c271d2; stroke:none; fill-opacity:0" cx="2328.86" cy="187.895" r="2"/>
<path clip-path="url(#clip870)" d="M306.628 440.536 L745.565 440.536 L745.565 181.336 L306.628 181.336  Z" fill="#ffffff" fill-rule="evenodd" fill-opacity="1"/>
<polyline clip-path="url(#clip870)" style="stroke:#000000; stroke-linecap:round; stroke-linejoin:round; stroke-width:4; stroke-opacity:1; fill:none" points="306.628,440.536 745.565,440.536 745.565,181.336 306.628,181.336 306.628,440.536 "/>
<path clip-path="url(#clip870)" d="M333.457 253.912 L494.431 253.912 L494.431 212.44 L333.457 212.44 L333.457 253.912  Z" fill="#009af9" fill-rule="evenodd" fill-opacity="1"/>
<polyline clip-path="url(#clip870)" style="stroke:#000000; stroke-linecap:round; stroke-linejoin:round; stroke-width:4; stroke-opacity:1; fill:none" points="333.457,253.912 494.431,253.912 494.431,212.44 333.457,212.44 333.457,253.912 "/>
<path clip-path="url(#clip870)" d="M537.279 219.068 Q532.186 219.068 529.177 222.864 Q526.191 226.66 526.191 233.211 Q526.191 239.739 529.177 243.535 Q532.186 247.331 537.279 247.331 Q542.371 247.331 545.334 243.535 Q548.32 239.739 548.32 233.211 Q548.32 226.66 545.334 222.864 Q542.371 219.068 537.279 219.068 M537.279 215.271 Q544.547 215.271 548.899 220.156 Q553.251 225.017 553.251 233.211 Q553.251 241.382 548.899 246.266 Q544.547 251.128 537.279 251.128 Q529.987 251.128 525.612 246.266 Q521.26 241.405 521.26 233.211 Q521.26 225.017 525.612 220.156 Q529.987 215.271 537.279 215.271 Z" fill="#000000" fill-rule="nonzero" fill-opacity="1" /><path clip-path="url(#clip870)" d="M565.241 219.739 L565.241 246.614 L570.89 246.614 Q578.042 246.614 581.352 243.373 Q584.686 240.132 584.686 233.142 Q584.686 226.197 581.352 222.98 Q578.042 219.739 570.89 219.739 L565.241 219.739 M560.566 215.896 L570.172 215.896 Q580.218 215.896 584.917 220.086 Q589.616 224.253 589.616 233.142 Q589.616 242.077 584.894 246.266 Q580.172 250.456 570.172 250.456 L560.566 250.456 L560.566 215.896 Z" fill="#000000" fill-rule="nonzero" fill-opacity="1" /><path clip-path="url(#clip870)" d="M597.07 215.896 L618.922 215.896 L618.922 219.831 L601.746 219.831 L601.746 230.063 L618.204 230.063 L618.204 233.998 L601.746 233.998 L601.746 246.521 L619.338 246.521 L619.338 250.456 L597.07 250.456 L597.07 215.896 Z" fill="#000000" fill-rule="nonzero" fill-opacity="1" /><path clip-path="url(#clip870)" d="M662.81 217.031 L662.81 221.591 Q660.148 220.318 657.787 219.693 Q655.426 219.068 653.227 219.068 Q649.408 219.068 647.324 220.549 Q645.264 222.031 645.264 224.762 Q645.264 227.054 646.63 228.234 Q648.019 229.392 651.861 230.109 L654.685 230.688 Q659.917 231.683 662.394 234.206 Q664.894 236.706 664.894 240.919 Q664.894 245.942 661.514 248.535 Q658.158 251.128 651.653 251.128 Q649.199 251.128 646.422 250.572 Q643.667 250.016 640.704 248.929 L640.704 244.114 Q643.551 245.711 646.283 246.521 Q649.014 247.331 651.653 247.331 Q655.658 247.331 657.834 245.757 Q660.009 244.183 660.009 241.267 Q660.009 238.72 658.435 237.285 Q656.884 235.85 653.32 235.132 L650.472 234.577 Q645.241 233.535 642.903 231.313 Q640.565 229.091 640.565 225.132 Q640.565 220.549 643.783 217.91 Q647.023 215.271 652.695 215.271 Q655.125 215.271 657.648 215.711 Q660.171 216.151 662.81 217.031 Z" fill="#000000" fill-rule="nonzero" fill-opacity="1" /><path clip-path="url(#clip870)" d="M691.699 258.327 L691.699 261.637 L667.07 261.637 L667.07 258.327 L691.699 258.327 Z" fill="#000000" fill-rule="nonzero" fill-opacity="1" /><path clip-path="url(#clip870)" d="M699.824 246.567 L699.824 260.317 L695.542 260.317 L695.542 224.531 L699.824 224.531 L699.824 228.466 Q701.167 226.151 703.204 225.04 Q705.264 223.906 708.111 223.906 Q712.833 223.906 715.773 227.655 Q718.736 231.405 718.736 237.517 Q718.736 243.628 715.773 247.378 Q712.833 251.128 708.111 251.128 Q705.264 251.128 703.204 250.016 Q701.167 248.882 699.824 246.567 M714.315 237.517 Q714.315 232.817 712.37 230.155 Q710.449 227.47 707.069 227.47 Q703.69 227.47 701.745 230.155 Q699.824 232.817 699.824 237.517 Q699.824 242.216 701.745 244.901 Q703.69 247.563 707.069 247.563 Q710.449 247.563 712.37 244.901 Q714.315 242.216 714.315 237.517 Z" fill="#000000" fill-rule="nonzero" fill-opacity="1" /><path clip-path="url(#clip870)" d="M333.457 305.752 L494.431 305.752 L494.431 264.28 L333.457 264.28 L333.457 305.752  Z" fill="#e26f46" fill-rule="evenodd" fill-opacity="1"/>
<polyline clip-path="url(#clip870)" style="stroke:#000000; stroke-linecap:round; stroke-linejoin:round; stroke-width:4; stroke-opacity:1; fill:none" points="333.457,305.752 494.431,305.752 494.431,264.28 333.457,264.28 333.457,305.752 "/>
<path clip-path="url(#clip870)" d="M543.505 268.871 L543.505 273.431 Q540.843 272.158 538.482 271.533 Q536.121 270.908 533.922 270.908 Q530.103 270.908 528.019 272.389 Q525.959 273.871 525.959 276.602 Q525.959 278.894 527.325 280.074 Q528.714 281.232 532.556 281.949 L535.381 282.528 Q540.612 283.523 543.089 286.046 Q545.589 288.546 545.589 292.759 Q545.589 297.782 542.209 300.375 Q538.853 302.968 532.348 302.968 Q529.894 302.968 527.117 302.412 Q524.362 301.856 521.399 300.769 L521.399 295.954 Q524.246 297.551 526.978 298.361 Q529.709 299.171 532.348 299.171 Q536.353 299.171 538.529 297.597 Q540.705 296.023 540.705 293.107 Q540.705 290.56 539.13 289.125 Q537.58 287.69 534.015 286.972 L531.168 286.417 Q525.936 285.375 523.598 283.153 Q521.26 280.931 521.26 276.972 Q521.26 272.389 524.478 269.75 Q527.719 267.111 533.39 267.111 Q535.82 267.111 538.343 267.551 Q540.867 267.991 543.505 268.871 Z" fill="#000000" fill-rule="nonzero" fill-opacity="1" /><path clip-path="url(#clip870)" d="M573.598 268.871 L573.598 273.431 Q570.936 272.158 568.575 271.533 Q566.214 270.908 564.015 270.908 Q560.195 270.908 558.112 272.389 Q556.052 273.871 556.052 276.602 Q556.052 278.894 557.417 280.074 Q558.806 281.232 562.649 281.949 L565.473 282.528 Q570.704 283.523 573.181 286.046 Q575.681 288.546 575.681 292.759 Q575.681 297.782 572.302 300.375 Q568.945 302.968 562.441 302.968 Q559.987 302.968 557.209 302.412 Q554.454 301.856 551.492 300.769 L551.492 295.954 Q554.339 297.551 557.07 298.361 Q559.802 299.171 562.441 299.171 Q566.445 299.171 568.621 297.597 Q570.797 296.023 570.797 293.107 Q570.797 290.56 569.223 289.125 Q567.672 287.69 564.107 286.972 L561.26 286.417 Q556.029 285.375 553.691 283.153 Q551.353 280.931 551.353 276.972 Q551.353 272.389 554.57 269.75 Q557.811 267.111 563.482 267.111 Q565.913 267.111 568.436 267.551 Q570.959 267.991 573.598 268.871 Z" fill="#000000" fill-rule="nonzero" fill-opacity="1" /><path clip-path="url(#clip870)" d="M595.403 272.343 L589.061 289.542 L601.769 289.542 L595.403 272.343 M592.764 267.736 L598.065 267.736 L611.237 302.296 L606.375 302.296 L603.227 293.431 L587.649 293.431 L584.501 302.296 L579.57 302.296 L592.764 267.736 Z" fill="#000000" fill-rule="nonzero" fill-opacity="1" /><path clip-path="url(#clip870)" d="M652.07 268.871 L652.07 273.431 Q649.408 272.158 647.047 271.533 Q644.685 270.908 642.486 270.908 Q638.667 270.908 636.584 272.389 Q634.523 273.871 634.523 276.602 Q634.523 278.894 635.889 280.074 Q637.278 281.232 641.121 281.949 L643.945 282.528 Q649.176 283.523 651.653 286.046 Q654.153 288.546 654.153 292.759 Q654.153 297.782 650.773 300.375 Q647.417 302.968 640.912 302.968 Q638.459 302.968 635.681 302.412 Q632.926 301.856 629.963 300.769 L629.963 295.954 Q632.811 297.551 635.542 298.361 Q638.273 299.171 640.912 299.171 Q644.917 299.171 647.093 297.597 Q649.269 296.023 649.269 293.107 Q649.269 290.56 647.695 289.125 Q646.144 287.69 642.579 286.972 L639.732 286.417 Q634.5 285.375 632.162 283.153 Q629.824 280.931 629.824 276.972 Q629.824 272.389 633.042 269.75 Q636.283 267.111 641.954 267.111 Q644.385 267.111 646.908 267.551 Q649.431 267.991 652.07 268.871 Z" fill="#000000" fill-rule="nonzero" fill-opacity="1" /><path clip-path="url(#clip870)" d="M680.958 310.167 L680.958 313.477 L656.329 313.477 L656.329 310.167 L680.958 310.167 Z" fill="#000000" fill-rule="nonzero" fill-opacity="1" /><path clip-path="url(#clip870)" d="M689.083 298.407 L689.083 312.157 L684.801 312.157 L684.801 276.371 L689.083 276.371 L689.083 280.306 Q690.426 277.991 692.463 276.88 Q694.523 275.746 697.37 275.746 Q702.093 275.746 705.032 279.495 Q707.995 283.245 707.995 289.357 Q707.995 295.468 705.032 299.218 Q702.093 302.968 697.37 302.968 Q694.523 302.968 692.463 301.856 Q690.426 300.722 689.083 298.407 M703.574 289.357 Q703.574 284.657 701.63 281.995 Q699.708 279.31 696.329 279.31 Q692.949 279.31 691.005 281.995 Q689.083 284.657 689.083 289.357 Q689.083 294.056 691.005 296.741 Q692.949 299.403 696.329 299.403 Q699.708 299.403 701.63 296.741 Q703.574 294.056 703.574 289.357 Z" fill="#000000" fill-rule="nonzero" fill-opacity="1" /><path clip-path="url(#clip870)" d="M333.457 357.592 L494.431 357.592 L494.431 316.12 L333.457 316.12 L333.457 357.592  Z" fill="#3da44d" fill-rule="evenodd" fill-opacity="1"/>
<polyline clip-path="url(#clip870)" style="stroke:#000000; stroke-linecap:round; stroke-linejoin:round; stroke-width:4; stroke-opacity:1; fill:none" points="333.457,357.592 494.431,357.592 494.431,316.12 333.457,316.12 333.457,357.592 "/>
<path clip-path="url(#clip870)" d="M537.279 322.748 Q532.186 322.748 529.177 326.544 Q526.191 330.34 526.191 336.891 Q526.191 343.419 529.177 347.215 Q532.186 351.011 537.279 351.011 Q542.371 351.011 545.334 347.215 Q548.32 343.419 548.32 336.891 Q548.32 330.34 545.334 326.544 Q542.371 322.748 537.279 322.748 M537.279 318.951 Q544.547 318.951 548.899 323.836 Q553.251 328.697 553.251 336.891 Q553.251 345.062 548.899 349.946 Q544.547 354.808 537.279 354.808 Q529.987 354.808 525.612 349.946 Q521.26 345.085 521.26 336.891 Q521.26 328.697 525.612 323.836 Q529.987 318.951 537.279 318.951 Z" fill="#000000" fill-rule="nonzero" fill-opacity="1" /><path clip-path="url(#clip870)" d="M565.241 323.419 L565.241 350.294 L570.89 350.294 Q578.042 350.294 581.352 347.053 Q584.686 343.812 584.686 336.822 Q584.686 329.877 581.352 326.66 Q578.042 323.419 570.89 323.419 L565.241 323.419 M560.566 319.576 L570.172 319.576 Q580.218 319.576 584.917 323.766 Q589.616 327.933 589.616 336.822 Q589.616 345.757 584.894 349.946 Q580.172 354.136 570.172 354.136 L560.566 354.136 L560.566 319.576 Z" fill="#000000" fill-rule="nonzero" fill-opacity="1" /><path clip-path="url(#clip870)" d="M597.07 319.576 L618.922 319.576 L618.922 323.511 L601.746 323.511 L601.746 333.743 L618.204 333.743 L618.204 337.678 L601.746 337.678 L601.746 350.201 L619.338 350.201 L619.338 354.136 L597.07 354.136 L597.07 319.576 Z" fill="#000000" fill-rule="nonzero" fill-opacity="1" /><path clip-path="url(#clip870)" d="M642.093 319.576 L646.769 319.576 L646.769 354.136 L642.093 354.136 L642.093 319.576 Z" fill="#000000" fill-rule="nonzero" fill-opacity="1" /><path clip-path="url(#clip870)" d="M675.588 362.007 L675.588 365.317 L650.959 365.317 L650.959 362.007 L675.588 362.007 Z" fill="#000000" fill-rule="nonzero" fill-opacity="1" /><path clip-path="url(#clip870)" d="M683.713 350.247 L683.713 363.997 L679.431 363.997 L679.431 328.211 L683.713 328.211 L683.713 332.146 Q685.056 329.831 687.093 328.72 Q689.153 327.586 692 327.586 Q696.722 327.586 699.662 331.335 Q702.625 335.085 702.625 341.197 Q702.625 347.308 699.662 351.058 Q696.722 354.808 692 354.808 Q689.153 354.808 687.093 353.696 Q685.056 352.562 683.713 350.247 M698.204 341.197 Q698.204 336.497 696.259 333.835 Q694.338 331.15 690.958 331.15 Q687.579 331.15 685.634 333.835 Q683.713 336.497 683.713 341.197 Q683.713 345.896 685.634 348.581 Q687.579 351.243 690.958 351.243 Q694.338 351.243 696.259 348.581 Q698.204 345.896 698.204 341.197 Z" fill="#000000" fill-rule="nonzero" fill-opacity="1" /><path clip-path="url(#clip870)" d="M333.457 409.432 L494.431 409.432 L494.431 367.96 L333.457 367.96 L333.457 409.432  Z" fill="#c271d2" fill-rule="evenodd" fill-opacity="1"/>
<polyline clip-path="url(#clip870)" style="stroke:#000000; stroke-linecap:round; stroke-linejoin:round; stroke-width:4; stroke-opacity:1; fill:none" points="333.457,409.432 494.431,409.432 494.431,367.96 333.457,367.96 333.457,409.432 "/>
<path clip-path="url(#clip870)" d="M543.505 372.551 L543.505 377.111 Q540.843 375.838 538.482 375.213 Q536.121 374.588 533.922 374.588 Q530.103 374.588 528.019 376.069 Q525.959 377.551 525.959 380.282 Q525.959 382.574 527.325 383.754 Q528.714 384.912 532.556 385.629 L535.381 386.208 Q540.612 387.203 543.089 389.726 Q545.589 392.226 545.589 396.439 Q545.589 401.462 542.209 404.055 Q538.853 406.648 532.348 406.648 Q529.894 406.648 527.117 406.092 Q524.362 405.536 521.399 404.449 L521.399 399.634 Q524.246 401.231 526.978 402.041 Q529.709 402.851 532.348 402.851 Q536.353 402.851 538.529 401.277 Q540.705 399.703 540.705 396.787 Q540.705 394.24 539.13 392.805 Q537.58 391.37 534.015 390.652 L531.168 390.097 Q525.936 389.055 523.598 386.833 Q521.26 384.611 521.26 380.652 Q521.26 376.069 524.478 373.43 Q527.719 370.791 533.39 370.791 Q535.82 370.791 538.343 371.231 Q540.867 371.671 543.505 372.551 Z" fill="#000000" fill-rule="nonzero" fill-opacity="1" /><path clip-path="url(#clip870)" d="M573.598 372.551 L573.598 377.111 Q570.936 375.838 568.575 375.213 Q566.214 374.588 564.015 374.588 Q560.195 374.588 558.112 376.069 Q556.052 377.551 556.052 380.282 Q556.052 382.574 557.417 383.754 Q558.806 384.912 562.649 385.629 L565.473 386.208 Q570.704 387.203 573.181 389.726 Q575.681 392.226 575.681 396.439 Q575.681 401.462 572.302 404.055 Q568.945 406.648 562.441 406.648 Q559.987 406.648 557.209 406.092 Q554.454 405.536 551.492 404.449 L551.492 399.634 Q554.339 401.231 557.07 402.041 Q559.802 402.851 562.441 402.851 Q566.445 402.851 568.621 401.277 Q570.797 399.703 570.797 396.787 Q570.797 394.24 569.223 392.805 Q567.672 391.37 564.107 390.652 L561.26 390.097 Q556.029 389.055 553.691 386.833 Q551.353 384.611 551.353 380.652 Q551.353 376.069 554.57 373.43 Q557.811 370.791 563.482 370.791 Q565.913 370.791 568.436 371.231 Q570.959 371.671 573.598 372.551 Z" fill="#000000" fill-rule="nonzero" fill-opacity="1" /><path clip-path="url(#clip870)" d="M595.403 376.023 L589.061 393.222 L601.769 393.222 L595.403 376.023 M592.764 371.416 L598.065 371.416 L611.237 405.976 L606.375 405.976 L603.227 397.111 L587.649 397.111 L584.501 405.976 L579.57 405.976 L592.764 371.416 Z" fill="#000000" fill-rule="nonzero" fill-opacity="1" /><path clip-path="url(#clip870)" d="M631.352 371.416 L636.028 371.416 L636.028 405.976 L631.352 405.976 L631.352 371.416 Z" fill="#000000" fill-rule="nonzero" fill-opacity="1" /><path clip-path="url(#clip870)" d="M664.847 413.847 L664.847 417.157 L640.218 417.157 L640.218 413.847 L664.847 413.847 Z" fill="#000000" fill-rule="nonzero" fill-opacity="1" /><path clip-path="url(#clip870)" d="M672.972 402.087 L672.972 415.837 L668.69 415.837 L668.69 380.051 L672.972 380.051 L672.972 383.986 Q674.315 381.671 676.352 380.56 Q678.412 379.426 681.259 379.426 Q685.982 379.426 688.921 383.175 Q691.884 386.925 691.884 393.037 Q691.884 399.148 688.921 402.898 Q685.982 406.648 681.259 406.648 Q678.412 406.648 676.352 405.536 Q674.315 404.402 672.972 402.087 M687.463 393.037 Q687.463 388.337 685.519 385.675 Q683.597 382.99 680.218 382.99 Q676.838 382.99 674.894 385.675 Q672.972 388.337 672.972 393.037 Q672.972 397.736 674.894 400.421 Q676.838 403.083 680.218 403.083 Q683.597 403.083 685.519 400.421 Q687.463 397.736 687.463 393.037 Z" fill="#000000" fill-rule="nonzero" fill-opacity="1" /></svg>
