<?xml version="1.0" encoding="utf-8"?>
<svg xmlns="http://www.w3.org/2000/svg" xmlns:xlink="http://www.w3.org/1999/xlink" width="672" height="480" viewBox="0 0 2688 1920">
<defs>
  <clipPath id="clip240">
    <rect x="0" y="0" width="2688" height="1920"/>
  </clipPath>
</defs>
<path clip-path="url(#clip240)" d="M0 1920 L2688 1920 L2688 -4.26326e-14 L0 -4.26326e-14  Z" fill="#ffffff" fill-rule="evenodd" fill-opacity="1"/>
<defs>
  <clipPath id="clip241">
    <rect x="181" y="127" width="2460" height="1607"/>
  </clipPath>
</defs>
<path clip-path="url(#clip240)" d="M181.719 1734.12 L2640.76 1734.12 L2640.76 127.792 L181.719 127.792  Z" fill="#ffffff" fill-rule="evenodd" fill-opacity="1"/>
<polyline clip-path="url(#clip241)" style="stroke:#000000; stroke-linecap:round; stroke-linejoin:round; stroke-width:2; stroke-opacity:0.1; fill:none" points="251.315,1734.12 251.315,127.792 "/>
<polyline clip-path="url(#clip241)" style="stroke:#000000; stroke-linecap:round; stroke-linejoin:round; stroke-width:2; stroke-opacity:0.1; fill:none" points="715.284,1734.12 715.284,127.792 "/>
<polyline clip-path="url(#clip241)" style="stroke:#000000; stroke-linecap:round; stroke-linejoin:round; stroke-width:2; stroke-opacity:0.1; fill:none" points="1179.25,1734.12 1179.25,127.792 "/>
<polyline clip-path="url(#clip241)" style="stroke:#000000; stroke-linecap:round; stroke-linejoin:round; stroke-width:2; stroke-opacity:0.1; fill:none" points="1643.22,1734.12 1643.22,127.792 "/>
<polyline clip-path="url(#clip241)" style="stroke:#000000; stroke-linecap:round; stroke-linejoin:round; stroke-width:2; stroke-opacity:0.1; fill:none" points="2107.19,1734.12 2107.19,127.792 "/>
<polyline clip-path="url(#clip241)" style="stroke:#000000; stroke-linecap:round; stroke-linejoin:round; stroke-width:2; stroke-opacity:0.1; fill:none" points="2571.16,1734.12 2571.16,127.792 "/>
<polyline clip-path="url(#clip241)" style="stroke:#000000; stroke-linecap:round; stroke-linejoin:round; stroke-width:2; stroke-opacity:0.1; fill:none" points="181.719,1688.65 2640.76,1688.65 "/>
<polyline clip-path="url(#clip241)" style="stroke:#000000; stroke-linecap:round; stroke-linejoin:round; stroke-width:2; stroke-opacity:0.1; fill:none" points="181.719,1351.9 2640.76,1351.9 "/>
<polyline clip-path="url(#clip241)" style="stroke:#000000; stroke-linecap:round; stroke-linejoin:round; stroke-width:2; stroke-opacity:0.1; fill:none" points="181.719,1015.14 2640.76,1015.14 "/>
<polyline clip-path="url(#clip241)" style="stroke:#000000; stroke-linecap:round; stroke-linejoin:round; stroke-width:2; stroke-opacity:0.1; fill:none" points="181.719,678.388 2640.76,678.388 "/>
<polyline clip-path="url(#clip241)" style="stroke:#000000; stroke-linecap:round; stroke-linejoin:round; stroke-width:2; stroke-opacity:0.1; fill:none" points="181.719,341.632 2640.76,341.632 "/>
<polyline clip-path="url(#clip240)" style="stroke:#000000; stroke-linecap:round; stroke-linejoin:round; stroke-width:4; stroke-opacity:1; fill:none" points="181.719,1734.12 2640.76,1734.12 "/>
<polyline clip-path="url(#clip240)" style="stroke:#000000; stroke-linecap:round; stroke-linejoin:round; stroke-width:4; stroke-opacity:1; fill:none" points="251.315,1734.12 251.315,1715.22 "/>
<polyline clip-path="url(#clip240)" style="stroke:#000000; stroke-linecap:round; stroke-linejoin:round; stroke-width:4; stroke-opacity:1; fill:none" points="715.284,1734.12 715.284,1715.22 "/>
<polyline clip-path="url(#clip240)" style="stroke:#000000; stroke-linecap:round; stroke-linejoin:round; stroke-width:4; stroke-opacity:1; fill:none" points="1179.25,1734.12 1179.25,1715.22 "/>
<polyline clip-path="url(#clip240)" style="stroke:#000000; stroke-linecap:round; stroke-linejoin:round; stroke-width:4; stroke-opacity:1; fill:none" points="1643.22,1734.12 1643.22,1715.22 "/>
<polyline clip-path="url(#clip240)" style="stroke:#000000; stroke-linecap:round; stroke-linejoin:round; stroke-width:4; stroke-opacity:1; fill:none" points="2107.19,1734.12 2107.19,1715.22 "/>
<polyline clip-path="url(#clip240)" style="stroke:#000000; stroke-linecap:round; stroke-linejoin:round; stroke-width:4; stroke-opacity:1; fill:none" points="2571.16,1734.12 2571.16,1715.22 "/>
<path clip-path="url(#clip240)" d="M251.315 1767.34 Q247.704 1767.34 245.875 1770.9 Q244.07 1774.45 244.07 1781.58 Q244.07 1788.68 245.875 1792.25 Q247.704 1795.79 251.315 1795.79 Q254.949 1795.79 256.755 1792.25 Q258.583 1788.68 258.583 1781.58 Q258.583 1774.45 256.755 1770.9 Q254.949 1767.34 251.315 1767.34 M251.315 1763.64 Q257.125 1763.64 260.181 1768.24 Q263.259 1772.83 263.259 1781.58 Q263.259 1790.3 260.181 1794.91 Q257.125 1799.49 251.315 1799.49 Q245.505 1799.49 242.426 1794.91 Q239.37 1790.3 239.37 1781.58 Q239.37 1772.83 242.426 1768.24 Q245.505 1763.64 251.315 1763.64 Z" fill="#000000" fill-rule="nonzero" fill-opacity="1" /><path clip-path="url(#clip240)" d="M689.972 1794.89 L697.61 1794.89 L697.61 1768.52 L689.3 1770.19 L689.3 1765.93 L697.564 1764.26 L702.24 1764.26 L702.24 1794.89 L709.879 1794.89 L709.879 1798.82 L689.972 1798.82 L689.972 1794.89 Z" fill="#000000" fill-rule="nonzero" fill-opacity="1" /><path clip-path="url(#clip240)" d="M729.323 1767.34 Q725.712 1767.34 723.883 1770.9 Q722.078 1774.45 722.078 1781.58 Q722.078 1788.68 723.883 1792.25 Q725.712 1795.79 729.323 1795.79 Q732.958 1795.79 734.763 1792.25 Q736.592 1788.68 736.592 1781.58 Q736.592 1774.45 734.763 1770.9 Q732.958 1767.34 729.323 1767.34 M729.323 1763.64 Q735.133 1763.64 738.189 1768.24 Q741.268 1772.83 741.268 1781.58 Q741.268 1790.3 738.189 1794.91 Q735.133 1799.49 729.323 1799.49 Q723.513 1799.49 720.434 1794.91 Q717.379 1790.3 717.379 1781.58 Q717.379 1772.83 720.434 1768.24 Q723.513 1763.64 729.323 1763.64 Z" fill="#000000" fill-rule="nonzero" fill-opacity="1" /><path clip-path="url(#clip240)" d="M1158.03 1794.89 L1174.35 1794.89 L1174.35 1798.82 L1152.4 1798.82 L1152.4 1794.89 Q1155.06 1792.13 1159.65 1787.5 Q1164.25 1782.85 1165.43 1781.51 Q1167.68 1778.98 1168.56 1777.25 Q1169.46 1775.49 1169.46 1773.8 Q1169.46 1771.04 1167.52 1769.31 Q1165.6 1767.57 1162.49 1767.57 Q1160.29 1767.57 1157.84 1768.34 Q1155.41 1769.1 1152.63 1770.65 L1152.63 1765.93 Q1155.46 1764.79 1157.91 1764.21 Q1160.36 1763.64 1162.4 1763.64 Q1167.77 1763.64 1170.97 1766.32 Q1174.16 1769.01 1174.16 1773.5 Q1174.16 1775.63 1173.35 1777.55 Q1172.56 1779.45 1170.46 1782.04 Q1169.88 1782.71 1166.78 1785.93 Q1163.67 1789.12 1158.03 1794.89 Z" fill="#000000" fill-rule="nonzero" fill-opacity="1" /><path clip-path="url(#clip240)" d="M1194.16 1767.34 Q1190.55 1767.34 1188.72 1770.9 Q1186.92 1774.45 1186.92 1781.58 Q1186.92 1788.68 1188.72 1792.25 Q1190.55 1795.79 1194.16 1795.79 Q1197.79 1795.79 1199.6 1792.25 Q1201.43 1788.68 1201.43 1781.58 Q1201.43 1774.45 1199.6 1770.9 Q1197.79 1767.34 1194.16 1767.34 M1194.16 1763.64 Q1199.97 1763.64 1203.03 1768.24 Q1206.1 1772.83 1206.1 1781.58 Q1206.1 1790.3 1203.03 1794.91 Q1199.97 1799.49 1194.16 1799.49 Q1188.35 1799.49 1185.27 1794.91 Q1182.22 1790.3 1182.22 1781.58 Q1182.22 1772.83 1185.27 1768.24 Q1188.35 1763.64 1194.16 1763.64 Z" fill="#000000" fill-rule="nonzero" fill-opacity="1" /><path clip-path="url(#clip240)" d="M1632.06 1780.19 Q1635.42 1780.9 1637.3 1783.17 Q1639.19 1785.44 1639.19 1788.77 Q1639.19 1793.89 1635.68 1796.69 Q1632.16 1799.49 1625.68 1799.49 Q1623.5 1799.49 1621.19 1799.05 Q1618.89 1798.64 1616.44 1797.78 L1616.44 1793.27 Q1618.38 1794.4 1620.7 1794.98 Q1623.01 1795.56 1625.54 1795.56 Q1629.94 1795.56 1632.23 1793.82 Q1634.54 1792.08 1634.54 1788.77 Q1634.54 1785.72 1632.39 1784.01 Q1630.26 1782.27 1626.44 1782.27 L1622.41 1782.27 L1622.41 1778.43 L1626.63 1778.43 Q1630.07 1778.43 1631.9 1777.06 Q1633.73 1775.67 1633.73 1773.08 Q1633.73 1770.42 1631.83 1769.01 Q1629.96 1767.57 1626.44 1767.57 Q1624.52 1767.57 1622.32 1767.99 Q1620.12 1768.4 1617.48 1769.28 L1617.48 1765.12 Q1620.14 1764.38 1622.46 1764.01 Q1624.8 1763.64 1626.86 1763.64 Q1632.18 1763.64 1635.28 1766.07 Q1638.38 1768.47 1638.38 1772.59 Q1638.38 1775.46 1636.74 1777.46 Q1635.1 1779.42 1632.06 1780.19 Z" fill="#000000" fill-rule="nonzero" fill-opacity="1" /><path clip-path="url(#clip240)" d="M1658.06 1767.34 Q1654.45 1767.34 1652.62 1770.9 Q1650.81 1774.45 1650.81 1781.58 Q1650.81 1788.68 1652.62 1792.25 Q1654.45 1795.79 1658.06 1795.79 Q1661.69 1795.79 1663.5 1792.25 Q1665.33 1788.68 1665.33 1781.58 Q1665.33 1774.45 1663.5 1770.9 Q1661.69 1767.34 1658.06 1767.34 M1658.06 1763.64 Q1663.87 1763.64 1666.93 1768.24 Q1670 1772.83 1670 1781.58 Q1670 1790.3 1666.93 1794.91 Q1663.87 1799.49 1658.06 1799.49 Q1652.25 1799.49 1649.17 1794.91 Q1646.12 1790.3 1646.12 1781.58 Q1646.12 1772.83 1649.17 1768.24 Q1652.25 1763.64 1658.06 1763.64 Z" fill="#000000" fill-rule="nonzero" fill-opacity="1" /><path clip-path="url(#clip240)" d="M2095.36 1768.34 L2083.56 1786.78 L2095.36 1786.78 L2095.36 1768.34 M2094.14 1764.26 L2100.02 1764.26 L2100.02 1786.78 L2104.95 1786.78 L2104.95 1790.67 L2100.02 1790.67 L2100.02 1798.82 L2095.36 1798.82 L2095.36 1790.67 L2079.76 1790.67 L2079.76 1786.16 L2094.14 1764.26 Z" fill="#000000" fill-rule="nonzero" fill-opacity="1" /><path clip-path="url(#clip240)" d="M2122.68 1767.34 Q2119.07 1767.34 2117.24 1770.9 Q2115.43 1774.45 2115.43 1781.58 Q2115.43 1788.68 2117.24 1792.25 Q2119.07 1795.79 2122.68 1795.79 Q2126.31 1795.79 2128.12 1792.25 Q2129.95 1788.68 2129.95 1781.58 Q2129.95 1774.45 2128.12 1770.9 Q2126.31 1767.34 2122.68 1767.34 M2122.68 1763.64 Q2128.49 1763.64 2131.54 1768.24 Q2134.62 1772.83 2134.62 1781.58 Q2134.62 1790.3 2131.54 1794.91 Q2128.49 1799.49 2122.68 1799.49 Q2116.87 1799.49 2113.79 1794.91 Q2110.73 1790.3 2110.73 1781.58 Q2110.73 1772.83 2113.79 1768.24 Q2116.87 1763.64 2122.68 1763.64 Z" fill="#000000" fill-rule="nonzero" fill-opacity="1" /><path clip-path="url(#clip240)" d="M2545.86 1764.26 L2564.22 1764.26 L2564.22 1768.2 L2550.14 1768.2 L2550.14 1776.67 Q2551.16 1776.32 2552.18 1776.16 Q2553.2 1775.97 2554.22 1775.97 Q2560 1775.97 2563.38 1779.15 Q2566.76 1782.32 2566.76 1787.73 Q2566.76 1793.31 2563.29 1796.41 Q2559.82 1799.49 2553.5 1799.49 Q2551.32 1799.49 2549.05 1799.12 Q2546.81 1798.75 2544.4 1798.01 L2544.4 1793.31 Q2546.48 1794.45 2548.71 1795 Q2550.93 1795.56 2553.41 1795.56 Q2557.41 1795.56 2559.75 1793.45 Q2562.09 1791.34 2562.09 1787.73 Q2562.09 1784.12 2559.75 1782.02 Q2557.41 1779.91 2553.41 1779.91 Q2551.53 1779.91 2549.66 1780.33 Q2547.8 1780.74 2545.86 1781.62 L2545.86 1764.26 Z" fill="#000000" fill-rule="nonzero" fill-opacity="1" /><path clip-path="url(#clip240)" d="M2585.98 1767.34 Q2582.36 1767.34 2580.54 1770.9 Q2578.73 1774.45 2578.73 1781.58 Q2578.73 1788.68 2580.54 1792.25 Q2582.36 1795.79 2585.98 1795.79 Q2589.61 1795.79 2591.42 1792.25 Q2593.24 1788.68 2593.24 1781.58 Q2593.24 1774.45 2591.42 1770.9 Q2589.61 1767.34 2585.98 1767.34 M2585.98 1763.64 Q2591.79 1763.64 2594.84 1768.24 Q2597.92 1772.83 2597.92 1781.58 Q2597.92 1790.3 2594.84 1794.91 Q2591.79 1799.49 2585.98 1799.49 Q2580.17 1799.49 2577.09 1794.91 Q2574.03 1790.3 2574.03 1781.58 Q2574.03 1772.83 2577.09 1768.24 Q2580.17 1763.64 2585.98 1763.64 Z" fill="#000000" fill-rule="nonzero" fill-opacity="1" /><path clip-path="url(#clip240)" d="M1333.11 1835.78 L1373.31 1835.78 L1373.31 1841.19 L1356.44 1841.19 L1356.44 1883.3 L1349.98 1883.3 L1349.98 1841.19 L1333.11 1841.19 L1333.11 1835.78 Z" fill="#000000" fill-rule="nonzero" fill-opacity="1" /><path clip-path="url(#clip240)" d="M1377.26 1847.65 L1383.12 1847.65 L1383.12 1883.3 L1377.26 1883.3 L1377.26 1847.65 M1377.26 1833.78 L1383.12 1833.78 L1383.12 1841.19 L1377.26 1841.19 L1377.26 1833.78 Z" fill="#000000" fill-rule="nonzero" fill-opacity="1" /><path clip-path="url(#clip240)" d="M1423.13 1854.5 Q1425.32 1850.55 1428.38 1848.67 Q1431.43 1846.79 1435.57 1846.79 Q1441.14 1846.79 1444.16 1850.71 Q1447.19 1854.59 1447.19 1861.78 L1447.19 1883.3 L1441.3 1883.3 L1441.3 1861.98 Q1441.3 1856.85 1439.49 1854.37 Q1437.67 1851.89 1433.95 1851.89 Q1429.4 1851.89 1426.75 1854.91 Q1424.11 1857.93 1424.11 1863.15 L1424.11 1883.3 L1418.22 1883.3 L1418.22 1861.98 Q1418.22 1856.82 1416.41 1854.37 Q1414.6 1851.89 1410.81 1851.89 Q1406.32 1851.89 1403.68 1854.94 Q1401.04 1857.97 1401.04 1863.15 L1401.04 1883.3 L1395.15 1883.3 L1395.15 1847.65 L1401.04 1847.65 L1401.04 1853.19 Q1403.04 1849.91 1405.84 1848.35 Q1408.64 1846.79 1412.49 1846.79 Q1416.38 1846.79 1419.08 1848.77 Q1421.82 1850.74 1423.13 1854.5 Z" fill="#000000" fill-rule="nonzero" fill-opacity="1" /><path clip-path="url(#clip240)" d="M1489.36 1864.01 L1489.36 1866.88 L1462.43 1866.88 Q1462.82 1872.92 1466.06 1876.11 Q1469.34 1879.26 1475.17 1879.26 Q1478.54 1879.26 1481.69 1878.43 Q1484.87 1877.6 1487.99 1875.95 L1487.99 1881.49 Q1484.84 1882.82 1481.53 1883.52 Q1478.22 1884.22 1474.82 1884.22 Q1466.29 1884.22 1461.29 1879.26 Q1456.32 1874.29 1456.32 1865.83 Q1456.32 1857.07 1461.03 1851.95 Q1465.78 1846.79 1473.8 1846.79 Q1480.99 1846.79 1485.16 1851.44 Q1489.36 1856.06 1489.36 1864.01 M1483.5 1862.29 Q1483.44 1857.49 1480.8 1854.62 Q1478.19 1851.76 1473.86 1851.76 Q1468.96 1851.76 1466 1854.53 Q1463.07 1857.3 1462.62 1862.33 L1483.5 1862.29 Z" fill="#000000" fill-rule="nonzero" fill-opacity="1" /><polyline clip-path="url(#clip240)" style="stroke:#000000; stroke-linecap:round; stroke-linejoin:round; stroke-width:4; stroke-opacity:1; fill:none" points="181.719,1734.12 181.719,127.792 "/>
<polyline clip-path="url(#clip240)" style="stroke:#000000; stroke-linecap:round; stroke-linejoin:round; stroke-width:4; stroke-opacity:1; fill:none" points="181.719,1688.65 200.617,1688.65 "/>
<polyline clip-path="url(#clip240)" style="stroke:#000000; stroke-linecap:round; stroke-linejoin:round; stroke-width:4; stroke-opacity:1; fill:none" points="181.719,1351.9 200.617,1351.9 "/>
<polyline clip-path="url(#clip240)" style="stroke:#000000; stroke-linecap:round; stroke-linejoin:round; stroke-width:4; stroke-opacity:1; fill:none" points="181.719,1015.14 200.617,1015.14 "/>
<polyline clip-path="url(#clip240)" style="stroke:#000000; stroke-linecap:round; stroke-linejoin:round; stroke-width:4; stroke-opacity:1; fill:none" points="181.719,678.388 200.617,678.388 "/>
<polyline clip-path="url(#clip240)" style="stroke:#000000; stroke-linecap:round; stroke-linejoin:round; stroke-width:4; stroke-opacity:1; fill:none" points="181.719,341.632 200.617,341.632 "/>
<path clip-path="url(#clip240)" d="M129.455 1674.45 Q125.844 1674.45 124.015 1678.02 Q122.21 1681.56 122.21 1688.69 Q122.21 1695.8 124.015 1699.36 Q125.844 1702.9 129.455 1702.9 Q133.089 1702.9 134.895 1699.36 Q136.724 1695.8 136.724 1688.69 Q136.724 1681.56 134.895 1678.02 Q133.089 1674.45 129.455 1674.45 M129.455 1670.75 Q135.265 1670.75 138.321 1675.36 Q141.399 1679.94 141.399 1688.69 Q141.399 1697.42 138.321 1702.02 Q135.265 1706.61 129.455 1706.61 Q123.645 1706.61 120.566 1702.02 Q117.511 1697.42 117.511 1688.69 Q117.511 1679.94 120.566 1675.36 Q123.645 1670.75 129.455 1670.75 Z" fill="#000000" fill-rule="nonzero" fill-opacity="1" /><path clip-path="url(#clip240)" d="M125.08 1365.24 L141.399 1365.24 L141.399 1369.18 L119.455 1369.18 L119.455 1365.24 Q122.117 1362.49 126.7 1357.86 Q131.307 1353.21 132.488 1351.86 Q134.733 1349.34 135.612 1347.61 Q136.515 1345.85 136.515 1344.16 Q136.515 1341.4 134.571 1339.67 Q132.65 1337.93 129.548 1337.93 Q127.349 1337.93 124.895 1338.69 Q122.464 1339.46 119.687 1341.01 L119.687 1336.29 Q122.511 1335.15 124.964 1334.57 Q127.418 1333.99 129.455 1333.99 Q134.825 1333.99 138.02 1336.68 Q141.214 1339.36 141.214 1343.86 Q141.214 1345.98 140.404 1347.91 Q139.617 1349.8 137.511 1352.4 Q136.932 1353.07 133.83 1356.29 Q130.728 1359.48 125.08 1365.24 Z" fill="#000000" fill-rule="nonzero" fill-opacity="1" /><path clip-path="url(#clip240)" d="M131.816 1001.94 L120.011 1020.39 L131.816 1020.39 L131.816 1001.94 M130.589 997.863 L136.469 997.863 L136.469 1020.39 L141.399 1020.39 L141.399 1024.28 L136.469 1024.28 L136.469 1032.42 L131.816 1032.42 L131.816 1024.28 L116.214 1024.28 L116.214 1019.76 L130.589 997.863 Z" fill="#000000" fill-rule="nonzero" fill-opacity="1" /><path clip-path="url(#clip240)" d="M129.872 676.524 Q126.724 676.524 124.872 678.677 Q123.043 680.83 123.043 684.58 Q123.043 688.307 124.872 690.483 Q126.724 692.635 129.872 692.635 Q133.02 692.635 134.849 690.483 Q136.7 688.307 136.7 684.58 Q136.7 680.83 134.849 678.677 Q133.02 676.524 129.872 676.524 M139.154 661.872 L139.154 666.131 Q137.395 665.298 135.589 664.858 Q133.807 664.418 132.048 664.418 Q127.418 664.418 124.964 667.543 Q122.534 670.668 122.187 676.987 Q123.552 674.973 125.613 673.909 Q127.673 672.821 130.15 672.821 Q135.358 672.821 138.367 675.992 Q141.399 679.14 141.399 684.58 Q141.399 689.904 138.251 693.121 Q135.103 696.339 129.872 696.339 Q123.876 696.339 120.705 691.756 Q117.534 687.149 117.534 678.422 Q117.534 670.228 121.423 665.367 Q125.312 660.483 131.863 660.483 Q133.622 660.483 135.404 660.83 Q137.21 661.177 139.154 661.872 Z" fill="#000000" fill-rule="nonzero" fill-opacity="1" /><path clip-path="url(#clip240)" d="M129.548 342.5 Q126.214 342.5 124.293 344.282 Q122.395 346.065 122.395 349.19 Q122.395 352.315 124.293 354.097 Q126.214 355.88 129.548 355.88 Q132.881 355.88 134.802 354.097 Q136.724 352.292 136.724 349.19 Q136.724 346.065 134.802 344.282 Q132.904 342.5 129.548 342.5 M124.872 340.509 Q121.863 339.769 120.173 337.708 Q118.506 335.648 118.506 332.685 Q118.506 328.542 121.446 326.134 Q124.409 323.727 129.548 323.727 Q134.71 323.727 137.65 326.134 Q140.589 328.542 140.589 332.685 Q140.589 335.648 138.9 337.708 Q137.233 339.769 134.247 340.509 Q137.626 341.296 139.501 343.588 Q141.399 345.88 141.399 349.19 Q141.399 354.213 138.321 356.898 Q135.265 359.583 129.548 359.583 Q123.83 359.583 120.751 356.898 Q117.696 354.213 117.696 349.19 Q117.696 345.88 119.594 343.588 Q121.492 341.296 124.872 340.509 M123.159 333.125 Q123.159 335.81 124.826 337.315 Q126.515 338.82 129.548 338.82 Q132.557 338.82 134.247 337.315 Q135.96 335.81 135.96 333.125 Q135.96 330.44 134.247 328.935 Q132.557 327.431 129.548 327.431 Q126.515 327.431 124.826 328.935 Q123.159 330.44 123.159 333.125 Z" fill="#000000" fill-rule="nonzero" fill-opacity="1" /><path clip-path="url(#clip240)" d="M14.1184 1198.76 L14.1184 1190.1 L53.8723 1169.03 L14.1184 1169.03 L14.1184 1162.79 L61.6384 1162.79 L61.6384 1171.45 L21.8846 1192.52 L61.6384 1192.52 L61.6384 1198.76 L14.1184 1198.76 Z" fill="#000000" fill-rule="nonzero" fill-opacity="1" /><path clip-path="url(#clip240)" d="M47.5702 1150.86 L25.9905 1150.86 L25.9905 1145 L47.3474 1145 Q52.4082 1145 54.9545 1143.03 Q57.4689 1141.05 57.4689 1137.11 Q57.4689 1132.37 54.4452 1129.63 Q51.4215 1126.86 46.2016 1126.86 L25.9905 1126.86 L25.9905 1121 L61.6384 1121 L61.6384 1126.86 L56.1639 1126.86 Q59.4104 1128.99 61.0019 1131.82 Q62.5615 1134.63 62.5615 1138.35 Q62.5615 1144.49 58.742 1147.68 Q54.9226 1150.86 47.5702 1150.86 M25.1311 1136.12 L25.1311 1136.12 Z" fill="#000000" fill-rule="nonzero" fill-opacity="1" /><path clip-path="url(#clip240)" d="M32.8336 1081.19 Q28.8869 1078.99 27.009 1075.93 Q25.1311 1072.88 25.1311 1068.74 Q25.1311 1063.17 29.046 1060.15 Q32.9291 1057.12 40.1224 1057.12 L61.6384 1057.12 L61.6384 1063.01 L40.3133 1063.01 Q35.1889 1063.01 32.7063 1064.83 Q30.2237 1066.64 30.2237 1070.36 Q30.2237 1074.92 33.2474 1077.56 Q36.2711 1080.2 41.491 1080.2 L61.6384 1080.2 L61.6384 1086.09 L40.3133 1086.09 Q35.1571 1086.09 32.7063 1087.9 Q30.2237 1089.72 30.2237 1093.5 Q30.2237 1097.99 33.2792 1100.63 Q36.3029 1103.27 41.491 1103.27 L61.6384 1103.27 L61.6384 1109.16 L25.9905 1109.16 L25.9905 1103.27 L31.5287 1103.27 Q28.2503 1101.27 26.6907 1098.47 Q25.1311 1095.67 25.1311 1091.82 Q25.1311 1087.93 27.1045 1085.23 Q29.0779 1082.49 32.8336 1081.19 Z" fill="#000000" fill-rule="nonzero" fill-opacity="1" /><path clip-path="url(#clip240)" d="M43.8463 1019.85 Q37.3851 1019.85 33.7248 1022.53 Q30.0327 1025.17 30.0327 1029.81 Q30.0327 1034.46 33.7248 1037.13 Q37.3851 1039.78 43.8463 1039.78 Q50.3075 1039.78 53.9996 1037.13 Q57.6599 1034.46 57.6599 1029.81 Q57.6599 1025.17 53.9996 1022.53 Q50.3075 1019.85 43.8463 1019.85 M31.4013 1039.78 Q28.2185 1037.93 26.6907 1035.13 Q25.1311 1032.3 25.1311 1028.38 Q25.1311 1021.89 30.2873 1017.85 Q35.4436 1013.77 43.8463 1013.77 Q52.249 1013.77 57.4052 1017.85 Q62.5615 1021.89 62.5615 1028.38 Q62.5615 1032.3 61.0337 1035.13 Q59.4741 1037.93 56.2912 1039.78 L61.6384 1039.78 L61.6384 1045.66 L12.1132 1045.66 L12.1132 1039.78 L31.4013 1039.78 Z" fill="#000000" fill-rule="nonzero" fill-opacity="1" /><path clip-path="url(#clip240)" d="M42.3504 973.573 L45.2149 973.573 L45.2149 1000.5 Q51.2623 1000.12 54.4452 996.871 Q57.5962 993.593 57.5962 987.768 Q57.5962 984.395 56.7687 981.244 Q55.9411 978.061 54.2861 974.942 L59.8242 974.942 Q61.161 978.093 61.8612 981.403 Q62.5615 984.713 62.5615 988.119 Q62.5615 996.649 57.5962 1001.65 Q52.631 1006.61 44.1646 1006.61 Q35.4117 1006.61 30.2873 1001.9 Q25.1311 997.158 25.1311 989.137 Q25.1311 981.944 29.7781 977.774 Q34.3932 973.573 42.3504 973.573 M40.6316 979.429 Q35.8255 979.493 32.9609 982.135 Q30.0964 984.745 30.0964 989.073 Q30.0964 993.975 32.8654 996.935 Q35.6345 999.863 40.6634 1000.31 L40.6316 979.429 Z" fill="#000000" fill-rule="nonzero" fill-opacity="1" /><path clip-path="url(#clip240)" d="M31.465 943.304 Q30.8921 944.291 30.6375 945.468 Q30.351 946.614 30.351 948.015 Q30.351 952.98 33.5975 955.653 Q36.8122 958.295 42.8596 958.295 L61.6384 958.295 L61.6384 964.184 L25.9905 964.184 L25.9905 958.295 L31.5287 958.295 Q28.2821 956.449 26.7225 953.489 Q25.1311 950.529 25.1311 946.296 Q25.1311 945.691 25.2266 944.959 Q25.2903 944.227 25.4494 943.336 L31.465 943.304 Z" fill="#000000" fill-rule="nonzero" fill-opacity="1" /><path clip-path="url(#clip240)" d="M25.9905 916.441 L25.9905 910.584 L61.6384 910.584 L61.6384 916.441 L25.9905 916.441 M12.1132 916.441 L12.1132 910.584 L19.5293 910.584 L19.5293 916.441 L12.1132 916.441 Z" fill="#000000" fill-rule="nonzero" fill-opacity="1" /><path clip-path="url(#clip240)" d="M40.1224 868.698 L61.6384 868.698 L61.6384 874.554 L40.3133 874.554 Q35.2526 874.554 32.7381 876.528 Q30.2237 878.501 30.2237 882.448 Q30.2237 887.19 33.2474 889.928 Q36.2711 892.665 41.491 892.665 L61.6384 892.665 L61.6384 898.553 L25.9905 898.553 L25.9905 892.665 L31.5287 892.665 Q28.314 890.564 26.7225 887.731 Q25.1311 884.867 25.1311 881.143 Q25.1311 875 28.9505 871.849 Q32.7381 868.698 40.1224 868.698 Z" fill="#000000" fill-rule="nonzero" fill-opacity="1" /><path clip-path="url(#clip240)" d="M12.1132 838.97 L16.983 838.97 L16.983 844.572 Q16.983 847.723 18.2562 848.964 Q19.5293 850.174 22.8395 850.174 L25.9905 850.174 L25.9905 840.53 L30.542 840.53 L30.542 850.174 L61.6384 850.174 L61.6384 856.062 L30.542 856.062 L30.542 861.664 L25.9905 861.664 L25.9905 856.062 L23.5079 856.062 Q17.5559 856.062 14.8505 853.293 Q12.1132 850.524 12.1132 844.508 L12.1132 838.97 Z" fill="#000000" fill-rule="nonzero" fill-opacity="1" /><path clip-path="url(#clip240)" d="M42.3504 803.577 L45.2149 803.577 L45.2149 830.504 Q51.2623 830.122 54.4452 826.875 Q57.5962 823.597 57.5962 817.772 Q57.5962 814.398 56.7687 811.247 Q55.9411 808.065 54.2861 804.945 L59.8242 804.945 Q61.161 808.096 61.8612 811.407 Q62.5615 814.717 62.5615 818.122 Q62.5615 826.652 57.5962 831.65 Q52.631 836.615 44.1646 836.615 Q35.4117 836.615 30.2873 831.904 Q25.1311 827.162 25.1311 819.141 Q25.1311 811.948 29.7781 807.778 Q34.3932 803.577 42.3504 803.577 M40.6316 809.433 Q35.8255 809.497 32.9609 812.139 Q30.0964 814.749 30.0964 819.077 Q30.0964 823.979 32.8654 826.939 Q35.6345 829.867 40.6634 830.313 L40.6316 809.433 Z" fill="#000000" fill-rule="nonzero" fill-opacity="1" /><path clip-path="url(#clip240)" d="M27.3591 768.311 L32.8336 768.311 Q31.465 770.793 30.7966 773.308 Q30.0964 775.79 30.0964 778.337 Q30.0964 784.034 33.7248 787.185 Q37.3214 790.336 43.8463 790.336 Q50.3711 790.336 53.9996 787.185 Q57.5962 784.034 57.5962 778.337 Q57.5962 775.79 56.9278 773.308 Q56.2276 770.793 54.859 768.311 L60.2698 768.311 Q61.4156 770.762 61.9886 773.403 Q62.5615 776.013 62.5615 778.973 Q62.5615 787.026 57.5007 791.768 Q52.44 796.511 43.8463 796.511 Q35.1253 796.511 30.1282 791.737 Q25.1311 786.93 25.1311 778.591 Q25.1311 775.886 25.704 773.308 Q26.2451 770.73 27.3591 768.311 Z" fill="#000000" fill-rule="nonzero" fill-opacity="1" /><path clip-path="url(#clip240)" d="M15.869 752.333 L25.9905 752.333 L25.9905 740.27 L30.542 740.27 L30.542 752.333 L49.8937 752.333 Q54.2542 752.333 55.4955 751.155 Q56.7368 749.946 56.7368 746.285 L56.7368 740.27 L61.6384 740.27 L61.6384 746.285 Q61.6384 753.065 59.124 755.643 Q56.5777 758.221 49.8937 758.221 L30.542 758.221 L30.542 762.518 L25.9905 762.518 L25.9905 758.221 L15.869 758.221 L15.869 752.333 Z" fill="#000000" fill-rule="nonzero" fill-opacity="1" /><path clip-path="url(#clip240)" d="M42.3504 702.076 L45.2149 702.076 L45.2149 729.003 Q51.2623 728.621 54.4452 725.374 Q57.5962 722.096 57.5962 716.271 Q57.5962 712.897 56.7687 709.746 Q55.9411 706.563 54.2861 703.444 L59.8242 703.444 Q61.161 706.595 61.8612 709.905 Q62.5615 713.216 62.5615 716.621 Q62.5615 725.151 57.5962 730.148 Q52.631 735.114 44.1646 735.114 Q35.4117 735.114 30.2873 730.403 Q25.1311 725.661 25.1311 717.64 Q25.1311 710.446 29.7781 706.277 Q34.3932 702.076 42.3504 702.076 M40.6316 707.932 Q35.8255 707.996 32.9609 710.637 Q30.0964 713.247 30.0964 717.576 Q30.0964 722.478 32.8654 725.438 Q35.6345 728.366 40.6634 728.812 L40.6316 707.932 Z" fill="#000000" fill-rule="nonzero" fill-opacity="1" /><path clip-path="url(#clip240)" d="M31.4013 669.006 L12.1132 669.006 L12.1132 663.149 L61.6384 663.149 L61.6384 669.006 L56.2912 669.006 Q59.4741 670.852 61.0337 673.685 Q62.5615 676.485 62.5615 680.432 Q62.5615 686.893 57.4052 690.967 Q52.249 695.01 43.8463 695.01 Q35.4436 695.01 30.2873 690.967 Q25.1311 686.893 25.1311 680.432 Q25.1311 676.485 26.6907 673.685 Q28.2185 670.852 31.4013 669.006 M43.8463 688.962 Q50.3075 688.962 53.9996 686.32 Q57.6599 683.647 57.6599 679 Q57.6599 674.353 53.9996 671.679 Q50.3075 669.006 43.8463 669.006 Q37.3851 669.006 33.7248 671.679 Q30.0327 674.353 30.0327 679 Q30.0327 683.647 33.7248 686.32 Q37.3851 688.962 43.8463 688.962 Z" fill="#000000" fill-rule="nonzero" fill-opacity="1" /><path clip-path="url(#clip240)" d="M533.387 12.096 L584.549 12.096 L584.549 18.9825 L563.08 18.9825 L563.08 72.576 L554.856 72.576 L554.856 18.9825 L533.387 18.9825 L533.387 12.096 Z" fill="#000000" fill-rule="nonzero" fill-opacity="1" /><path clip-path="url(#clip240)" d="M606.222 34.1734 Q604.966 33.4443 603.467 33.1202 Q602.009 32.7556 600.226 32.7556 Q593.907 32.7556 590.504 36.8875 Q587.142 40.9789 587.142 48.6757 L587.142 72.576 L579.648 72.576 L579.648 27.2059 L587.142 27.2059 L587.142 34.2544 Q589.492 30.1225 593.259 28.1376 Q597.026 26.1121 602.414 26.1121 Q603.184 26.1121 604.115 26.2337 Q605.047 26.3147 606.181 26.5172 L606.222 34.1734 Z" fill="#000000" fill-rule="nonzero" fill-opacity="1" /><path clip-path="url(#clip240)" d="M651.025 48.0275 L651.025 51.6733 L616.754 51.6733 Q617.24 59.3701 621.372 63.421 Q625.545 67.4314 632.958 67.4314 Q637.252 67.4314 641.262 66.3781 Q645.313 65.3249 649.283 63.2184 L649.283 70.267 Q645.272 71.9684 641.06 72.8596 Q636.847 73.7508 632.512 73.7508 Q621.656 73.7508 615.296 67.4314 Q608.976 61.1119 608.976 50.3365 Q608.976 39.1965 614.972 32.6746 Q621.008 26.1121 631.216 26.1121 Q640.371 26.1121 645.678 32.0264 Q651.025 37.9003 651.025 48.0275 M643.571 45.84 Q643.49 39.7232 640.128 36.0774 Q636.806 32.4315 631.297 32.4315 Q625.058 32.4315 621.291 35.9558 Q617.564 39.4801 616.997 45.8805 L643.571 45.84 Z" fill="#000000" fill-rule="nonzero" fill-opacity="1" /><path clip-path="url(#clip240)" d="M702.066 48.0275 L702.066 51.6733 L667.796 51.6733 Q668.282 59.3701 672.414 63.421 Q676.586 67.4314 683.999 67.4314 Q688.293 67.4314 692.303 66.3781 Q696.354 65.3249 700.324 63.2184 L700.324 70.267 Q696.314 71.9684 692.101 72.8596 Q687.888 73.7508 683.554 73.7508 Q672.697 73.7508 666.337 67.4314 Q660.018 61.1119 660.018 50.3365 Q660.018 39.1965 666.013 32.6746 Q672.049 26.1121 682.257 26.1121 Q691.412 26.1121 696.719 32.0264 Q702.066 37.9003 702.066 48.0275 M694.612 45.84 Q694.531 39.7232 691.169 36.0774 Q687.847 32.4315 682.338 32.4315 Q676.1 32.4315 672.333 35.9558 Q668.606 39.4801 668.039 45.8805 L694.612 45.84 Z" fill="#000000" fill-rule="nonzero" fill-opacity="1" /><path clip-path="url(#clip240)" d="M770.526 49.3643 Q770.526 41.2625 767.164 36.8065 Q763.842 32.3505 757.807 32.3505 Q751.811 32.3505 748.449 36.8065 Q745.127 41.2625 745.127 49.3643 Q745.127 57.4256 748.449 61.8816 Q751.811 66.3376 757.807 66.3376 Q763.842 66.3376 767.164 61.8816 Q770.526 57.4256 770.526 49.3643 M777.98 66.9452 Q777.98 78.5308 772.835 84.1616 Q767.691 89.8329 757.077 89.8329 Q753.148 89.8329 749.664 89.2252 Q746.18 88.6581 742.899 87.4428 L742.899 80.1917 Q746.18 81.9741 749.381 82.8248 Q752.581 83.6755 755.903 83.6755 Q763.235 83.6755 766.881 79.8271 Q770.526 76.0193 770.526 68.282 L770.526 64.5957 Q768.217 68.6061 764.612 70.5911 Q761.007 72.576 755.984 72.576 Q747.639 72.576 742.535 66.2161 Q737.431 59.8562 737.431 49.3643 Q737.431 38.832 742.535 32.472 Q747.639 26.1121 755.984 26.1121 Q761.007 26.1121 764.612 28.0971 Q768.217 30.082 770.526 34.0924 L770.526 27.2059 L777.98 27.2059 L777.98 66.9452 Z" fill="#000000" fill-rule="nonzero" fill-opacity="1" /><path clip-path="url(#clip240)" d="M819.623 34.1734 Q818.368 33.4443 816.869 33.1202 Q815.41 32.7556 813.628 32.7556 Q807.309 32.7556 803.906 36.8875 Q800.544 40.9789 800.544 48.6757 L800.544 72.576 L793.049 72.576 L793.049 27.2059 L800.544 27.2059 L800.544 34.2544 Q802.893 30.1225 806.66 28.1376 Q810.428 26.1121 815.816 26.1121 Q816.585 26.1121 817.517 26.2337 Q818.449 26.3147 819.583 26.5172 L819.623 34.1734 Z" fill="#000000" fill-rule="nonzero" fill-opacity="1" /><path clip-path="url(#clip240)" d="M848.061 49.7694 Q839.027 49.7694 835.543 51.8354 Q832.06 53.9013 832.06 58.8839 Q832.06 62.8538 834.652 65.2034 Q837.285 67.5124 841.782 67.5124 Q847.98 67.5124 851.707 63.1374 Q855.474 58.7219 855.474 51.4303 L855.474 49.7694 L848.061 49.7694 M862.928 46.6907 L862.928 72.576 L855.474 72.576 L855.474 65.6895 Q852.922 69.8214 849.114 71.8063 Q845.306 73.7508 839.797 73.7508 Q832.829 73.7508 828.697 69.8619 Q824.606 65.9325 824.606 59.3701 Q824.606 51.7138 829.71 47.825 Q834.855 43.9361 845.023 43.9361 L855.474 43.9361 L855.474 43.2069 Q855.474 38.0623 852.071 35.2672 Q848.709 32.4315 842.592 32.4315 Q838.703 32.4315 835.017 33.3632 Q831.331 34.295 827.928 36.1584 L827.928 29.2718 Q832.019 27.692 835.868 26.9223 Q839.716 26.1121 843.362 26.1121 Q853.205 26.1121 858.066 31.2163 Q862.928 36.3204 862.928 46.6907 Z" fill="#000000" fill-rule="nonzero" fill-opacity="1" /><path clip-path="url(#clip240)" d="M885.491 65.7705 L885.491 89.8329 L877.997 89.8329 L877.997 27.2059 L885.491 27.2059 L885.491 34.0924 Q887.841 30.0415 891.405 28.0971 Q895.011 26.1121 899.993 26.1121 Q908.257 26.1121 913.402 32.6746 Q918.587 39.2371 918.587 49.9314 Q918.587 60.6258 913.402 67.1883 Q908.257 73.7508 899.993 73.7508 Q895.011 73.7508 891.405 71.8063 Q887.841 69.8214 885.491 65.7705 M910.85 49.9314 Q910.85 41.7081 907.447 37.0496 Q904.085 32.3505 898.17 32.3505 Q892.256 32.3505 888.853 37.0496 Q885.491 41.7081 885.491 49.9314 Q885.491 58.1548 888.853 62.8538 Q892.256 67.5124 898.17 67.5124 Q904.085 67.5124 907.447 62.8538 Q910.85 58.1548 910.85 49.9314 Z" fill="#000000" fill-rule="nonzero" fill-opacity="1" /><path clip-path="url(#clip240)" d="M968.656 45.1919 L968.656 72.576 L961.202 72.576 L961.202 45.4349 Q961.202 38.994 958.691 35.7938 Q956.179 32.5936 951.156 32.5936 Q945.12 32.5936 941.637 36.4419 Q938.153 40.2903 938.153 46.9338 L938.153 72.576 L930.659 72.576 L930.659 9.54393 L938.153 9.54393 L938.153 34.2544 Q940.826 30.163 944.432 28.1376 Q948.078 26.1121 952.817 26.1121 Q960.635 26.1121 964.646 30.9732 Q968.656 35.7938 968.656 45.1919 Z" fill="#000000" fill-rule="nonzero" fill-opacity="1" /><path clip-path="url(#clip240)" d="M1027.8 9.62495 Q1022.37 18.942 1019.74 28.0566 Q1017.1 37.1711 1017.1 46.5287 Q1017.1 55.8863 1019.74 65.0818 Q1022.41 74.2369 1027.8 83.5134 L1021.32 83.5134 Q1015.24 73.9938 1012.2 64.7983 Q1009.21 55.6027 1009.21 46.5287 Q1009.21 37.4952 1012.2 28.3401 Q1015.2 19.1851 1021.32 9.62495 L1027.8 9.62495 Z" fill="#000000" fill-rule="nonzero" fill-opacity="1" /><path clip-path="url(#clip240)" d="M1042.59 12.096 L1053.6 12.096 L1080.42 62.6918 L1080.42 12.096 L1088.36 12.096 L1088.36 72.576 L1077.34 72.576 L1050.52 21.9802 L1050.52 72.576 L1042.59 72.576 L1042.59 12.096 Z" fill="#000000" fill-rule="nonzero" fill-opacity="1" /><path clip-path="url(#clip240)" d="M1105.29 34.9026 L1157.23 34.9026 L1157.23 41.7081 L1105.29 41.7081 L1105.29 34.9026 M1105.29 51.4303 L1157.23 51.4303 L1157.23 58.3168 L1105.29 58.3168 L1105.29 51.4303 Z" fill="#000000" fill-rule="nonzero" fill-opacity="1" /><path clip-path="url(#clip240)" d="M1181.94 65.6895 L1210.5 65.6895 L1210.5 72.576 L1172.09 72.576 L1172.09 65.6895 Q1176.75 60.8689 1184.77 52.7671 Q1192.83 44.6248 1194.9 42.2752 Q1198.83 37.8598 1200.37 34.8216 Q1201.95 31.7429 1201.95 28.7857 Q1201.95 23.9651 1198.54 20.927 Q1195.18 17.8888 1189.75 17.8888 Q1185.91 17.8888 1181.61 19.2256 Q1177.36 20.5624 1172.5 23.2765 L1172.5 15.0127 Q1177.44 13.0277 1181.73 12.015 Q1186.03 11.0023 1189.59 11.0023 Q1198.99 11.0023 1204.58 15.7013 Q1210.17 20.4004 1210.17 28.2591 Q1210.17 31.9859 1208.75 35.3482 Q1207.38 38.6699 1203.69 43.2069 Q1202.68 44.3817 1197.25 50.0125 Q1191.82 55.6027 1181.94 65.6895 Z" fill="#000000" fill-rule="nonzero" fill-opacity="1" /><path clip-path="url(#clip240)" d="M1245.17 17.4837 Q1238.85 17.4837 1235.65 23.7221 Q1232.49 29.92 1232.49 42.3968 Q1232.49 54.833 1235.65 61.0714 Q1238.85 67.2693 1245.17 67.2693 Q1251.53 67.2693 1254.69 61.0714 Q1257.89 54.833 1257.89 42.3968 Q1257.89 29.92 1254.69 23.7221 Q1251.53 17.4837 1245.17 17.4837 M1245.17 11.0023 Q1255.34 11.0023 1260.69 19.0636 Q1266.07 27.0843 1266.07 42.3968 Q1266.07 57.6687 1260.69 65.73 Q1255.34 73.7508 1245.17 73.7508 Q1235 73.7508 1229.62 65.73 Q1224.27 57.6687 1224.27 42.3968 Q1224.27 27.0843 1229.62 19.0636 Q1235 11.0023 1245.17 11.0023 Z" fill="#000000" fill-rule="nonzero" fill-opacity="1" /><path clip-path="url(#clip240)" d="M1278.23 9.62495 L1284.71 9.62495 Q1290.78 19.1851 1293.78 28.3401 Q1296.82 37.4952 1296.82 46.5287 Q1296.82 55.6027 1293.78 64.7983 Q1290.78 73.9938 1284.71 83.5134 L1278.23 83.5134 Q1283.61 74.2369 1286.25 65.0818 Q1288.92 55.8863 1288.92 46.5287 Q1288.92 37.1711 1286.25 28.0566 Q1283.61 18.942 1278.23 9.62495 Z" fill="#000000" fill-rule="nonzero" fill-opacity="1" /><path clip-path="url(#clip240)" d="M1313.67 62.2867 L1322.22 62.2867 L1322.22 72.576 L1313.67 72.576 L1313.67 62.2867 M1313.67 29.6769 L1322.22 29.6769 L1322.22 39.9662 L1313.67 39.9662 L1313.67 29.6769 Z" fill="#000000" fill-rule="nonzero" fill-opacity="1" /><path clip-path="url(#clip240)" d="M1373.3 65.7705 L1373.3 89.8329 L1365.81 89.8329 L1365.81 27.2059 L1373.3 27.2059 L1373.3 34.0924 Q1375.65 30.0415 1379.22 28.0971 Q1382.82 26.1121 1387.8 26.1121 Q1396.07 26.1121 1401.21 32.6746 Q1406.4 39.2371 1406.4 49.9314 Q1406.4 60.6258 1401.21 67.1883 Q1396.07 73.7508 1387.8 73.7508 Q1382.82 73.7508 1379.22 71.8063 Q1375.65 69.8214 1373.3 65.7705 M1398.66 49.9314 Q1398.66 41.7081 1395.26 37.0496 Q1391.89 32.3505 1385.98 32.3505 Q1380.07 32.3505 1376.66 37.0496 Q1373.3 41.7081 1373.3 49.9314 Q1373.3 58.1548 1376.66 62.8538 Q1380.07 67.5124 1385.98 67.5124 Q1391.89 67.5124 1395.26 62.8538 Q1398.66 58.1548 1398.66 49.9314 Z" fill="#000000" fill-rule="nonzero" fill-opacity="1" /><path clip-path="url(#clip240)" d="M1439.37 49.7694 Q1430.34 49.7694 1426.85 51.8354 Q1423.37 53.9013 1423.37 58.8839 Q1423.37 62.8538 1425.96 65.2034 Q1428.6 67.5124 1433.09 67.5124 Q1439.29 67.5124 1443.02 63.1374 Q1446.78 58.7219 1446.78 51.4303 L1446.78 49.7694 L1439.37 49.7694 M1454.24 46.6907 L1454.24 72.576 L1446.78 72.576 L1446.78 65.6895 Q1444.23 69.8214 1440.42 71.8063 Q1436.62 73.7508 1431.11 73.7508 Q1424.14 73.7508 1420.01 69.8619 Q1415.92 65.9325 1415.92 59.3701 Q1415.92 51.7138 1421.02 47.825 Q1426.17 43.9361 1436.33 43.9361 L1446.78 43.9361 L1446.78 43.2069 Q1446.78 38.0623 1443.38 35.2672 Q1440.02 32.4315 1433.9 32.4315 Q1430.01 32.4315 1426.33 33.3632 Q1422.64 34.295 1419.24 36.1584 L1419.24 29.2718 Q1423.33 27.692 1427.18 26.9223 Q1431.03 26.1121 1434.67 26.1121 Q1444.52 26.1121 1449.38 31.2163 Q1454.24 36.3204 1454.24 46.6907 Z" fill="#000000" fill-rule="nonzero" fill-opacity="1" /><path clip-path="url(#clip240)" d="M1469.59 27.2059 L1477.04 27.2059 L1477.04 72.576 L1469.59 72.576 L1469.59 27.2059 M1469.59 9.54393 L1477.04 9.54393 L1477.04 18.9825 L1469.59 18.9825 L1469.59 9.54393 Z" fill="#000000" fill-rule="nonzero" fill-opacity="1" /><path clip-path="url(#clip240)" d="M1518.93 34.1734 Q1517.68 33.4443 1516.18 33.1202 Q1514.72 32.7556 1512.94 32.7556 Q1506.62 32.7556 1503.21 36.8875 Q1499.85 40.9789 1499.85 48.6757 L1499.85 72.576 L1492.36 72.576 L1492.36 27.2059 L1499.85 27.2059 L1499.85 34.2544 Q1502.2 30.1225 1505.97 28.1376 Q1509.74 26.1121 1515.12 26.1121 Q1515.89 26.1121 1516.82 26.2337 Q1517.76 26.3147 1518.89 26.5172 L1518.93 34.1734 Z" fill="#000000" fill-rule="nonzero" fill-opacity="1" /><path clip-path="url(#clip240)" d="M1517.68 46.5287 L1539.51 46.5287 L1539.51 53.1722 L1517.68 53.1722 L1517.68 46.5287 Z" fill="#000000" fill-rule="nonzero" fill-opacity="1" /><path clip-path="url(#clip240)" d="M1583.95 49.9314 Q1583.95 41.7081 1580.55 37.0496 Q1577.18 32.3505 1571.27 32.3505 Q1565.35 32.3505 1561.95 37.0496 Q1558.59 41.7081 1558.59 49.9314 Q1558.59 58.1548 1561.95 62.8538 Q1565.35 67.5124 1571.27 67.5124 Q1577.18 67.5124 1580.55 62.8538 Q1583.95 58.1548 1583.95 49.9314 M1558.59 34.0924 Q1560.94 30.0415 1564.5 28.0971 Q1568.11 26.1121 1573.09 26.1121 Q1581.36 26.1121 1586.5 32.6746 Q1591.69 39.2371 1591.69 49.9314 Q1591.69 60.6258 1586.5 67.1883 Q1581.36 73.7508 1573.09 73.7508 Q1568.11 73.7508 1564.5 71.8063 Q1560.94 69.8214 1558.59 65.7705 L1558.59 72.576 L1551.1 72.576 L1551.1 9.54393 L1558.59 9.54393 L1558.59 34.0924 Z" fill="#000000" fill-rule="nonzero" fill-opacity="1" /><path clip-path="url(#clip240)" d="M1624.66 49.7694 Q1615.63 49.7694 1612.14 51.8354 Q1608.66 53.9013 1608.66 58.8839 Q1608.66 62.8538 1611.25 65.2034 Q1613.88 67.5124 1618.38 67.5124 Q1624.58 67.5124 1628.31 63.1374 Q1632.07 58.7219 1632.07 51.4303 L1632.07 49.7694 L1624.66 49.7694 M1639.53 46.6907 L1639.53 72.576 L1632.07 72.576 L1632.07 65.6895 Q1629.52 69.8214 1625.71 71.8063 Q1621.9 73.7508 1616.4 73.7508 Q1609.43 73.7508 1605.3 69.8619 Q1601.2 65.9325 1601.2 59.3701 Q1601.2 51.7138 1606.31 47.825 Q1611.45 43.9361 1621.62 43.9361 L1632.07 43.9361 L1632.07 43.2069 Q1632.07 38.0623 1628.67 35.2672 Q1625.31 32.4315 1619.19 32.4315 Q1615.3 32.4315 1611.62 33.3632 Q1607.93 34.295 1604.53 36.1584 L1604.53 29.2718 Q1608.62 27.692 1612.47 26.9223 Q1616.31 26.1121 1619.96 26.1121 Q1629.8 26.1121 1634.67 31.2163 Q1639.53 36.3204 1639.53 46.6907 Z" fill="#000000" fill-rule="nonzero" fill-opacity="1" /><path clip-path="url(#clip240)" d="M1683.8 28.5427 L1683.8 35.5912 Q1680.64 33.9709 1677.24 33.1607 Q1673.84 32.3505 1670.19 32.3505 Q1664.64 32.3505 1661.85 34.0519 Q1659.09 35.7533 1659.09 39.156 Q1659.09 41.7486 1661.08 43.2475 Q1663.06 44.7058 1669.06 46.0426 L1671.61 46.6097 Q1679.55 48.3111 1682.87 51.4303 Q1686.23 54.509 1686.23 60.0587 Q1686.23 66.3781 1681.21 70.0644 Q1676.23 73.7508 1667.48 73.7508 Q1663.83 73.7508 1659.86 73.0216 Q1655.93 72.3329 1651.56 70.9151 L1651.56 63.2184 Q1655.69 65.3654 1659.7 66.4591 Q1663.71 67.5124 1667.64 67.5124 Q1672.91 67.5124 1675.74 65.73 Q1678.58 63.9071 1678.58 60.6258 Q1678.58 57.5877 1676.51 55.9673 Q1674.49 54.3469 1667.56 52.8481 L1664.97 52.2405 Q1658.04 50.7821 1654.96 47.7845 Q1651.88 44.7463 1651.88 39.4801 Q1651.88 33.0797 1656.42 29.5959 Q1660.96 26.1121 1669.3 26.1121 Q1673.43 26.1121 1677.08 26.7198 Q1680.72 27.3274 1683.8 28.5427 Z" fill="#000000" fill-rule="nonzero" fill-opacity="1" /><path clip-path="url(#clip240)" d="M1736.91 48.0275 L1736.91 51.6733 L1702.64 51.6733 Q1703.13 59.3701 1707.26 63.421 Q1711.43 67.4314 1718.84 67.4314 Q1723.14 67.4314 1727.15 66.3781 Q1731.2 65.3249 1735.17 63.2184 L1735.17 70.267 Q1731.16 71.9684 1726.94 72.8596 Q1722.73 73.7508 1718.4 73.7508 Q1707.54 73.7508 1701.18 67.4314 Q1694.86 61.1119 1694.86 50.3365 Q1694.86 39.1965 1700.86 32.6746 Q1706.89 26.1121 1717.1 26.1121 Q1726.26 26.1121 1731.56 32.0264 Q1736.91 37.9003 1736.91 48.0275 M1729.46 45.84 Q1729.38 39.7232 1726.01 36.0774 Q1722.69 32.4315 1717.18 32.4315 Q1710.94 32.4315 1707.18 35.9558 Q1703.45 39.4801 1702.88 45.8805 L1729.46 45.84 Z" fill="#000000" fill-rule="nonzero" fill-opacity="1" /><path clip-path="url(#clip240)" d="M1779 34.0924 L1779 9.54393 L1786.45 9.54393 L1786.45 72.576 L1779 72.576 L1779 65.7705 Q1776.65 69.8214 1773.04 71.8063 Q1769.48 73.7508 1764.46 73.7508 Q1756.23 73.7508 1751.05 67.1883 Q1745.9 60.6258 1745.9 49.9314 Q1745.9 39.2371 1751.05 32.6746 Q1756.23 26.1121 1764.46 26.1121 Q1769.48 26.1121 1773.04 28.0971 Q1776.65 30.0415 1779 34.0924 M1753.6 49.9314 Q1753.6 58.1548 1756.96 62.8538 Q1760.36 67.5124 1766.28 67.5124 Q1772.19 67.5124 1775.6 62.8538 Q1779 58.1548 1779 49.9314 Q1779 41.7081 1775.6 37.0496 Q1772.19 32.3505 1766.28 32.3505 Q1760.36 32.3505 1756.96 37.0496 Q1753.6 41.7081 1753.6 49.9314 Z" fill="#000000" fill-rule="nonzero" fill-opacity="1" /><path clip-path="url(#clip240)" d="M1822.83 27.2059 L1830.73 27.2059 L1844.91 65.2844 L1859.09 27.2059 L1866.98 27.2059 L1849.97 72.576 L1839.84 72.576 L1822.83 27.2059 Z" fill="#000000" fill-rule="nonzero" fill-opacity="1" /><path clip-path="url(#clip240)" d="M1906.2 28.5427 L1906.2 35.5912 Q1903.04 33.9709 1899.63 33.1607 Q1896.23 32.3505 1892.59 32.3505 Q1887.04 32.3505 1884.24 34.0519 Q1881.49 35.7533 1881.49 39.156 Q1881.49 41.7486 1883.47 43.2475 Q1885.46 44.7058 1891.45 46.0426 L1894 46.6097 Q1901.94 48.3111 1905.27 51.4303 Q1908.63 54.509 1908.63 60.0587 Q1908.63 66.3781 1903.6 70.0644 Q1898.62 73.7508 1889.87 73.7508 Q1886.23 73.7508 1882.26 73.0216 Q1878.33 72.3329 1873.95 70.9151 L1873.95 63.2184 Q1878.08 65.3654 1882.09 66.4591 Q1886.1 67.5124 1890.03 67.5124 Q1895.3 67.5124 1898.14 65.73 Q1900.97 63.9071 1900.97 60.6258 Q1900.97 57.5877 1898.91 55.9673 Q1896.88 54.3469 1889.95 52.8481 L1887.36 52.2405 Q1880.43 50.7821 1877.35 47.7845 Q1874.28 44.7463 1874.28 39.4801 Q1874.28 33.0797 1878.81 29.5959 Q1883.35 26.1121 1891.7 26.1121 Q1895.83 26.1121 1899.47 26.7198 Q1903.12 27.3274 1906.2 28.5427 Z" fill="#000000" fill-rule="nonzero" fill-opacity="1" /><path clip-path="url(#clip240)" d="M1988.43 63.9476 L1988.43 47.7034 L1975.06 47.7034 L1975.06 40.9789 L1996.53 40.9789 L1996.53 66.9452 Q1991.79 70.3075 1986.08 72.0494 Q1980.37 73.7508 1973.89 73.7508 Q1959.71 73.7508 1951.69 65.4869 Q1943.71 57.1826 1943.71 42.3968 Q1943.71 27.5705 1951.69 19.3066 Q1959.71 11.0023 1973.89 11.0023 Q1979.8 11.0023 1985.11 12.4606 Q1990.46 13.9189 1994.95 16.7545 L1994.95 25.464 Q1990.42 21.6156 1985.31 19.6712 Q1980.21 17.7268 1974.58 17.7268 Q1963.48 17.7268 1957.89 23.9246 Q1952.34 30.1225 1952.34 42.3968 Q1952.34 54.6305 1957.89 60.8284 Q1963.48 67.0263 1974.58 67.0263 Q1978.91 67.0263 1982.31 66.2971 Q1985.72 65.5274 1988.43 63.9476 Z" fill="#000000" fill-rule="nonzero" fill-opacity="1" /><path clip-path="url(#clip240)" d="M2011.16 27.2059 L2018.61 27.2059 L2018.61 72.576 L2011.16 72.576 L2011.16 27.2059 M2011.16 9.54393 L2018.61 9.54393 L2018.61 18.9825 L2011.16 18.9825 L2011.16 9.54393 Z" fill="#000000" fill-rule="nonzero" fill-opacity="1" /><path clip-path="url(#clip240)" d="M2034.21 9.54393 L2041.66 9.54393 L2041.66 72.576 L2034.21 72.576 L2034.21 9.54393 Z" fill="#000000" fill-rule="nonzero" fill-opacity="1" /><path clip-path="url(#clip240)" d="M2057.26 9.54393 L2064.71 9.54393 L2064.71 72.576 L2057.26 72.576 L2057.26 9.54393 Z" fill="#000000" fill-rule="nonzero" fill-opacity="1" /><path clip-path="url(#clip240)" d="M2119.11 48.0275 L2119.11 51.6733 L2084.84 51.6733 Q2085.33 59.3701 2089.46 63.421 Q2093.63 67.4314 2101.05 67.4314 Q2105.34 67.4314 2109.35 66.3781 Q2113.4 65.3249 2117.37 63.2184 L2117.37 70.267 Q2113.36 71.9684 2109.15 72.8596 Q2104.93 73.7508 2100.6 73.7508 Q2089.74 73.7508 2083.38 67.4314 Q2077.06 61.1119 2077.06 50.3365 Q2077.06 39.1965 2083.06 32.6746 Q2089.1 26.1121 2099.3 26.1121 Q2108.46 26.1121 2113.77 32.0264 Q2119.11 37.9003 2119.11 48.0275 M2111.66 45.84 Q2111.58 39.7232 2108.22 36.0774 Q2104.89 32.4315 2099.39 32.4315 Q2093.15 32.4315 2089.38 35.9558 Q2085.65 39.4801 2085.09 45.8805 L2111.66 45.84 Z" fill="#000000" fill-rule="nonzero" fill-opacity="1" /><path clip-path="url(#clip240)" d="M2160.27 28.5427 L2160.27 35.5912 Q2157.11 33.9709 2153.71 33.1607 Q2150.3 32.3505 2146.66 32.3505 Q2141.11 32.3505 2138.31 34.0519 Q2135.56 35.7533 2135.56 39.156 Q2135.56 41.7486 2137.54 43.2475 Q2139.53 44.7058 2145.52 46.0426 L2148.08 46.6097 Q2156.02 48.3111 2159.34 51.4303 Q2162.7 54.509 2162.7 60.0587 Q2162.7 66.3781 2157.68 70.0644 Q2152.69 73.7508 2143.95 73.7508 Q2140.3 73.7508 2136.33 73.0216 Q2132.4 72.3329 2128.02 70.9151 L2128.02 63.2184 Q2132.16 65.3654 2136.17 66.4591 Q2140.18 67.5124 2144.11 67.5124 Q2149.37 67.5124 2152.21 65.73 Q2155.04 63.9071 2155.04 60.6258 Q2155.04 57.5877 2152.98 55.9673 Q2150.95 54.3469 2144.03 52.8481 L2141.43 52.2405 Q2134.51 50.7821 2131.43 47.7845 Q2128.35 44.7463 2128.35 39.4801 Q2128.35 33.0797 2132.89 29.5959 Q2137.42 26.1121 2145.77 26.1121 Q2149.9 26.1121 2153.55 26.7198 Q2157.19 27.3274 2160.27 28.5427 Z" fill="#000000" fill-rule="nonzero" fill-opacity="1" /><path clip-path="url(#clip240)" d="M2181.78 65.7705 L2181.78 89.8329 L2174.29 89.8329 L2174.29 27.2059 L2181.78 27.2059 L2181.78 34.0924 Q2184.13 30.0415 2187.69 28.0971 Q2191.3 26.1121 2196.28 26.1121 Q2204.55 26.1121 2209.69 32.6746 Q2214.88 39.2371 2214.88 49.9314 Q2214.88 60.6258 2209.69 67.1883 Q2204.55 73.7508 2196.28 73.7508 Q2191.3 73.7508 2187.69 71.8063 Q2184.13 69.8214 2181.78 65.7705 M2207.14 49.9314 Q2207.14 41.7081 2203.74 37.0496 Q2200.37 32.3505 2194.46 32.3505 Q2188.55 32.3505 2185.14 37.0496 Q2181.78 41.7081 2181.78 49.9314 Q2181.78 58.1548 2185.14 62.8538 Q2188.55 67.5124 2194.46 67.5124 Q2200.37 67.5124 2203.74 62.8538 Q2207.14 58.1548 2207.14 49.9314 Z" fill="#000000" fill-rule="nonzero" fill-opacity="1" /><path clip-path="url(#clip240)" d="M2227.23 27.2059 L2234.69 27.2059 L2234.69 72.576 L2227.23 72.576 L2227.23 27.2059 M2227.23 9.54393 L2234.69 9.54393 L2234.69 18.9825 L2227.23 18.9825 L2227.23 9.54393 Z" fill="#000000" fill-rule="nonzero" fill-opacity="1" /><path clip-path="url(#clip240)" d="M2289.09 48.0275 L2289.09 51.6733 L2254.82 51.6733 Q2255.3 59.3701 2259.44 63.421 Q2263.61 67.4314 2271.02 67.4314 Q2275.32 67.4314 2279.33 66.3781 Q2283.38 65.3249 2287.35 63.2184 L2287.35 70.267 Q2283.34 71.9684 2279.12 72.8596 Q2274.91 73.7508 2270.58 73.7508 Q2259.72 73.7508 2253.36 67.4314 Q2247.04 61.1119 2247.04 50.3365 Q2247.04 39.1965 2253.04 32.6746 Q2259.07 26.1121 2269.28 26.1121 Q2278.44 26.1121 2283.74 32.0264 Q2289.09 37.9003 2289.09 48.0275 M2281.64 45.84 Q2281.55 39.7232 2278.19 36.0774 Q2274.87 32.4315 2269.36 32.4315 Q2263.12 32.4315 2259.36 35.9558 Q2255.63 39.4801 2255.06 45.8805 L2281.64 45.84 Z" fill="#000000" fill-rule="nonzero" fill-opacity="1" /><polyline clip-path="url(#clip241)" style="stroke:#8b0000; stroke-linecap:round; stroke-linejoin:round; stroke-width:8; stroke-opacity:1; fill:none" points="251.315,1520.28 274.513,1500.96 297.712,1477.69 320.91,1451.9 344.109,1424.86 367.307,1397.61 390.506,1371.03 413.704,1345.77 436.903,1322.31 460.101,1300.99 483.299,1282.01 506.498,1265.47 529.696,1251.39 552.895,1239.73 576.093,1230.4 599.292,1223.28 622.49,1218.23 645.689,1215.09 668.887,1213.7 692.086,1213.91 715.284,1215.55 738.482,1218.48 761.681,1222.55 784.879,1227.63 808.078,1233.59 831.276,1240.32 854.475,1247.71 877.673,1255.67 900.872,1264.11 924.07,1272.94 947.269,1282.11 970.467,1291.54 993.665,1301.18 1016.86,1310.97 1040.06,1320.88 1063.26,1330.85 1086.46,1340.86 1109.66,1350.87 1132.86,1360.85 1156.05,1370.77 1179.25,1380.62 1202.45,1390.37 1225.65,1400.01 1248.85,1409.51 1272.05,1418.87 1295.25,1428.08 1318.44,1437.11 1341.64,1445.97 1364.84,1454.65 1388.04,1463.14 1411.24,1471.43 1434.44,1479.52 1457.63,1487.41 1480.83,1495.09 1504.03,1502.56 1527.23,1509.83 1550.43,1516.88 1573.63,1523.73 1596.83,1530.37 1620.02,1536.8 1643.22,1543.02 1666.42,1549.04 1689.62,1554.86 1712.82,1560.48 1736.02,1565.91 1759.21,1571.14 1782.41,1576.19 1805.61,1581.05 1828.81,1585.73 1852.01,1590.24 1875.21,1594.57 1898.41,1598.74 1921.6,1602.74 1944.8,1606.58 1968,1610.27 1991.2,1613.81 2014.4,1617.2 2037.6,1620.46 2060.79,1623.58 2083.99,1626.56 2107.19,1629.43 2130.39,1632.16 2153.59,1634.78 2176.79,1637.29 2199.99,1639.68 2223.18,1641.98 2246.38,1644.16 2269.58,1646.26 2292.78,1648.25 2315.98,1650.16 2339.18,1651.98 2362.37,1653.72 2385.57,1655.38 2408.77,1656.97 2431.97,1658.48 2455.17,1659.92 2478.37,1661.29 2501.57,1662.6 2524.76,1663.85 2547.96,1665.04 2571.16,1666.18 "/>
<polyline clip-path="url(#clip241)" style="stroke:#000000; stroke-linecap:round; stroke-linejoin:round; stroke-width:8; stroke-opacity:1; fill:none" points="251.315,1520.28 274.513,1479.87 297.712,1473.13 320.91,1452.93 344.109,1425.99 367.307,1409.15 390.506,1378.84 413.704,1328.33 436.903,1264.34 460.101,1240.77 483.299,1220.56 506.498,1244.14 529.696,1230.67 552.895,1207.09 576.093,1217.2 599.292,1213.83 622.49,1193.62 645.689,1180.15 668.887,1170.05 692.086,1156.58 715.284,1149.85 738.482,1136.38 761.681,1156.58 784.879,1166.68 808.078,1183.52 831.276,1190.26 854.475,1217.2 877.673,1244.14 900.872,1247.5 924.07,1264.34 947.269,1281.18 970.467,1284.55 993.665,1281.18 1016.86,1281.18 1040.06,1301.39 1063.26,1311.49 1086.46,1324.96 1109.66,1335.06 1132.86,1348.53 1156.05,1355.27 1179.25,1345.16 1202.45,1362 1225.65,1362 1248.85,1375.47 1272.05,1395.68 1295.25,1388.94 1318.44,1399.05 1341.64,1405.78 1364.84,1412.52 1388.04,1422.62 1411.24,1432.72 1434.44,1442.82 1457.63,1449.56 1480.83,1463.03 1504.03,1476.5 1527.23,1483.23 1550.43,1493.34 1573.63,1500.07 1596.83,1513.54 1620.02,1516.91 1643.22,1523.64 1666.42,1530.38 1689.62,1537.11 1712.82,1543.85 1736.02,1553.95 1759.21,1564.06 1782.41,1570.79 1805.61,1584.26 1828.81,1591 1852.01,1597.73 1875.21,1601.1 1898.41,1611.2 1921.6,1614.57 1944.8,1617.94 1968,1617.94 1991.2,1624.67 2014.4,1628.04 2037.6,1631.41 2060.79,1634.77 2083.99,1638.14 2107.19,1641.51 2130.39,1644.88 2153.59,1644.88 2176.79,1644.88 2199.99,1651.61 2223.18,1651.61 2246.38,1651.61 2269.58,1654.98 2292.78,1661.71 2315.98,1665.08 2339.18,1665.08 2362.37,1665.08 2385.57,1665.08 2408.77,1665.08 2431.97,1665.08 2455.17,1671.82 2478.37,1671.82 2501.57,1671.82 2524.76,1678.55 2547.96,1678.55 2571.16,1678.55 "/>
<path clip-path="url(#clip241)" d="M251.315 1520.28 L274.513 1520.28 L297.712 1688.65 L320.91 1688.65 L344.109 1688.65 L367.307 1688.65 L390.506 1688.65 L413.704 1688.65 L436.903 1688.65 L460.101 1688.65 L483.299 1688.65 L506.498 1688.65 L529.696 1688.65 L552.895 1688.65 L576.093 1688.65 L599.292 1688.65 L622.49 1688.65 L645.689 1688.65 L668.887 1688.65 L692.086 1688.65 L715.284 1688.65 L738.482 1688.65 L761.681 1688.65 L784.879 1688.65 L808.078 1688.65 L831.276 1688.65 L854.475 1688.65 L877.673 1688.65 L900.872 1688.65 L924.07 1688.65 L947.269 1688.65 L970.467 1688.65 L993.665 1688.65 L1016.86 1688.65 L1040.06 1688.65 L1063.26 1688.65 L1086.46 1688.65 L1109.66 1688.65 L1132.86 1688.65 L1156.05 1688.65 L1179.25 1688.65 L1202.45 1688.65 L1225.65 1688.65 L1248.85 1688.65 L1272.05 1688.65 L1295.25 1688.65 L1318.44 1688.65 L1341.64 1688.65 L1364.84 1688.65 L1388.04 1688.65 L1411.24 1688.65 L1434.44 1688.65 L1457.63 1688.65 L1480.83 1688.65 L1504.03 1688.65 L1527.23 1688.65 L1550.43 1688.65 L1573.63 1688.65 L1596.83 1688.65 L1620.02 1688.65 L1643.22 1688.65 L1666.42 1688.65 L1689.62 1688.65 L1712.82 1688.65 L1736.02 1688.65 L1759.21 1688.65 L1782.41 1688.65 L1805.61 1688.65 L1828.81 1688.65 L1852.01 1688.65 L1875.21 1688.65 L1898.41 1688.65 L1921.6 1688.65 L1944.8 1688.65 L1968 1688.65 L1991.2 1688.65 L2014.4 1688.65 L2037.6 1688.65 L2060.79 1688.65 L2083.99 1688.65 L2107.19 1688.65 L2130.39 1688.65 L2153.59 1688.65 L2176.79 1688.65 L2199.99 1688.65 L2223.18 1688.65 L2246.38 1688.65 L2269.58 1688.65 L2292.78 1688.65 L2315.98 1688.65 L2339.18 1688.65 L2362.37 1688.65 L2385.57 1688.65 L2408.77 1688.65 L2431.97 1688.65 L2455.17 1688.65 L2478.37 1688.65 L2501.57 1688.65 L2524.76 1688.65 L2547.96 1688.65 L2571.16 1688.65 L2571.16 1520.28 L2547.96 1520.28 L2524.76 1520.28 L2501.57 1520.28 L2478.37 1520.28 L2455.17 1520.28 L2431.97 1520.28 L2408.77 1520.28 L2385.57 1520.28 L2362.37 1520.28 L2339.18 1520.28 L2315.98 1520.28 L2292.78 1520.28 L2269.58 1520.28 L2246.38 1520.28 L2223.18 1520.28 L2199.99 1520.28 L2176.79 1520.28 L2153.59 1520.28 L2130.39 1520.28 L2107.19 1520.28 L2083.99 1520.28 L2060.79 1520.28 L2037.6 1351.9 L2014.4 1351.9 L1991.2 1351.9 L1968 1351.9 L1944.8 1351.9 L1921.6 1351.9 L1898.41 1351.9 L1875.21 1183.52 L1852.01 1183.52 L1828.81 1183.52 L1805.61 1183.52 L1782.41 1183.52 L1759.21 1183.52 L1736.02 1015.14 L1712.82 1015.14 L1689.62 1015.14 L1666.42 1015.14 L1643.22 1015.14 L1620.02 846.766 L1596.83 846.766 L1573.63 678.388 L1550.43 678.388 L1527.23 678.388 L1504.03 678.388 L1480.83 678.388 L1457.63 678.388 L1434.44 510.01 L1411.24 510.01 L1388.04 510.01 L1364.84 510.01 L1341.64 510.01 L1318.44 341.632 L1295.25 341.632 L1272.05 510.01 L1248.85 510.01 L1225.65 341.632 L1202.45 341.632 L1179.25 341.632 L1156.05 510.01 L1132.86 510.01 L1109.66 510.01 L1086.46 341.632 L1063.26 341.632 L1040.06 510.01 L1016.86 510.01 L993.665 510.01 L970.467 341.632 L947.269 341.632 L924.07 510.01 L900.872 510.01 L877.673 510.01 L854.475 510.01 L831.276 341.632 L808.078 341.632 L784.879 173.254 L761.681 173.254 L738.482 173.254 L715.284 173.254 L692.086 173.254 L668.887 173.254 L645.689 341.632 L622.49 510.01 L599.292 510.01 L576.093 510.01 L552.895 510.01 L529.696 510.01 L506.498 510.01 L483.299 510.01 L460.101 678.388 L436.903 678.388 L413.704 678.388 L390.506 846.766 L367.307 1015.14 L344.109 1015.14 L320.91 1015.14 L297.712 1183.52 L274.513 1351.9 L251.315 1520.28  Z" fill="#000000" fill-rule="evenodd" fill-opacity="0.18"/>
<polyline clip-path="url(#clip241)" style="stroke:#000000; stroke-linecap:round; stroke-linejoin:round; stroke-width:4; stroke-opacity:0; fill:none" points="251.315,1520.28 274.513,1479.87 297.712,1473.13 320.91,1452.93 344.109,1425.99 367.307,1409.15 390.506,1378.84 413.704,1328.33 436.903,1264.34 460.101,1240.77 483.299,1220.56 506.498,1244.14 529.696,1230.67 552.895,1207.09 576.093,1217.2 599.292,1213.83 622.49,1193.62 645.689,1180.15 668.887,1170.05 692.086,1156.58 715.284,1149.85 738.482,1136.38 761.681,1156.58 784.879,1166.68 808.078,1183.52 831.276,1190.26 854.475,1217.2 877.673,1244.14 900.872,1247.5 924.07,1264.34 947.269,1281.18 970.467,1284.55 993.665,1281.18 1016.86,1281.18 1040.06,1301.39 1063.26,1311.49 1086.46,1324.96 1109.66,1335.06 1132.86,1348.53 1156.05,1355.27 1179.25,1345.16 1202.45,1362 1225.65,1362 1248.85,1375.47 1272.05,1395.68 1295.25,1388.94 1318.44,1399.05 1341.64,1405.78 1364.84,1412.52 1388.04,1422.62 1411.24,1432.72 1434.44,1442.82 1457.63,1449.56 1480.83,1463.03 1504.03,1476.5 1527.23,1483.23 1550.43,1493.34 1573.63,1500.07 1596.83,1513.54 1620.02,1516.91 1643.22,1523.64 1666.42,1530.38 1689.62,1537.11 1712.82,1543.85 1736.02,1553.95 1759.21,1564.06 1782.41,1570.79 1805.61,1584.26 1828.81,1591 1852.01,1597.73 1875.21,1601.1 1898.41,1611.2 1921.6,1614.57 1944.8,1617.94 1968,1617.94 1991.2,1624.67 2014.4,1628.04 2037.6,1631.41 2060.79,1634.77 2083.99,1638.14 2107.19,1641.51 2130.39,1644.88 2153.59,1644.88 2176.79,1644.88 2199.99,1651.61 2223.18,1651.61 2246.38,1651.61 2269.58,1654.98 2292.78,1661.71 2315.98,1665.08 2339.18,1665.08 2362.37,1665.08 2385.57,1665.08 2408.77,1665.08 2431.97,1665.08 2455.17,1671.82 2478.37,1671.82 2501.57,1671.82 2524.76,1678.55 2547.96,1678.55 2571.16,1678.55 "/>
<path clip-path="url(#clip240)" d="M1785.41 388.696 L2558.79 388.696 L2558.79 181.336 L1785.41 181.336  Z" fill="#ffffff" fill-rule="evenodd" fill-opacity="1"/>
<polyline clip-path="url(#clip240)" style="stroke:#000000; stroke-linecap:round; stroke-linejoin:round; stroke-width:4; stroke-opacity:1; fill:none" points="1785.41,388.696 2558.79,388.696 2558.79,181.336 1785.41,181.336 1785.41,388.696 "/>
<polyline clip-path="url(#clip240)" style="stroke:#8b0000; stroke-linecap:round; stroke-linejoin:round; stroke-width:8; stroke-opacity:1; fill:none" points="1812.73,233.176 1976.67,233.176 "/>
<path clip-path="url(#clip240)" d="M2008.67 219.739 L2008.67 232.725 L2014.55 232.725 Q2017.81 232.725 2019.59 231.035 Q2021.38 229.345 2021.38 226.22 Q2021.38 223.118 2019.59 221.429 Q2017.81 219.739 2014.55 219.739 L2008.67 219.739 M2003.99 215.896 L2014.55 215.896 Q2020.36 215.896 2023.32 218.535 Q2026.31 221.151 2026.31 226.22 Q2026.31 231.336 2023.32 233.952 Q2020.36 236.567 2014.55 236.567 L2008.67 236.567 L2008.67 250.456 L2003.99 250.456 L2003.99 215.896 Z" fill="#000000" fill-rule="nonzero" fill-opacity="1" /><path clip-path="url(#clip240)" d="M2042.05 237.424 Q2036.88 237.424 2034.89 238.604 Q2032.9 239.785 2032.9 242.632 Q2032.9 244.901 2034.38 246.243 Q2035.89 247.563 2038.46 247.563 Q2042 247.563 2044.13 245.063 Q2046.28 242.54 2046.28 238.373 L2046.28 237.424 L2042.05 237.424 M2050.54 235.665 L2050.54 250.456 L2046.28 250.456 L2046.28 246.521 Q2044.82 248.882 2042.65 250.016 Q2040.47 251.128 2037.32 251.128 Q2033.34 251.128 2030.98 248.905 Q2028.64 246.66 2028.64 242.91 Q2028.64 238.535 2031.56 236.313 Q2034.5 234.091 2040.31 234.091 L2046.28 234.091 L2046.28 233.674 Q2046.28 230.734 2044.34 229.137 Q2042.42 227.517 2038.92 227.517 Q2036.7 227.517 2034.59 228.049 Q2032.49 228.581 2030.54 229.646 L2030.54 225.711 Q2032.88 224.808 2035.08 224.368 Q2037.28 223.906 2039.36 223.906 Q2044.99 223.906 2047.76 226.822 Q2050.54 229.739 2050.54 235.665 Z" fill="#000000" fill-rule="nonzero" fill-opacity="1" /><path clip-path="url(#clip240)" d="M2059.32 224.531 L2063.57 224.531 L2063.57 250.456 L2059.32 250.456 L2059.32 224.531 M2059.32 214.438 L2063.57 214.438 L2063.57 219.831 L2059.32 219.831 L2059.32 214.438 Z" fill="#000000" fill-rule="nonzero" fill-opacity="1" /><path clip-path="url(#clip240)" d="M2087.51 228.512 Q2086.79 228.095 2085.94 227.91 Q2085.1 227.702 2084.08 227.702 Q2080.47 227.702 2078.53 230.063 Q2076.61 232.401 2076.61 236.799 L2076.61 250.456 L2072.32 250.456 L2072.32 224.531 L2076.61 224.531 L2076.61 228.558 Q2077.95 226.197 2080.1 225.063 Q2082.25 223.906 2085.33 223.906 Q2085.77 223.906 2086.31 223.975 Q2086.84 224.021 2087.49 224.137 L2087.51 228.512 Z" fill="#000000" fill-rule="nonzero" fill-opacity="1" /><path clip-path="url(#clip240)" d="M2086.79 235.572 L2099.27 235.572 L2099.27 239.368 L2086.79 239.368 L2086.79 235.572 Z" fill="#000000" fill-rule="nonzero" fill-opacity="1" /><path clip-path="url(#clip240)" d="M2124.66 237.517 Q2124.66 232.817 2122.72 230.155 Q2120.8 227.47 2117.42 227.47 Q2114.04 227.47 2112.09 230.155 Q2110.17 232.817 2110.17 237.517 Q2110.17 242.216 2112.09 244.901 Q2114.04 247.563 2117.42 247.563 Q2120.8 247.563 2122.72 244.901 Q2124.66 242.216 2124.66 237.517 M2110.17 228.466 Q2111.51 226.151 2113.55 225.04 Q2115.61 223.906 2118.46 223.906 Q2123.18 223.906 2126.12 227.655 Q2129.08 231.405 2129.08 237.517 Q2129.08 243.628 2126.12 247.378 Q2123.18 251.128 2118.46 251.128 Q2115.61 251.128 2113.55 250.016 Q2111.51 248.882 2110.17 246.567 L2110.17 250.456 L2105.89 250.456 L2105.89 214.438 L2110.17 214.438 L2110.17 228.466 Z" fill="#000000" fill-rule="nonzero" fill-opacity="1" /><path clip-path="url(#clip240)" d="M2147.93 237.424 Q2142.76 237.424 2140.77 238.604 Q2138.78 239.785 2138.78 242.632 Q2138.78 244.901 2140.26 246.243 Q2141.77 247.563 2144.34 247.563 Q2147.88 247.563 2150.01 245.063 Q2152.16 242.54 2152.16 238.373 L2152.16 237.424 L2147.93 237.424 M2156.42 235.665 L2156.42 250.456 L2152.16 250.456 L2152.16 246.521 Q2150.7 248.882 2148.53 250.016 Q2146.35 251.128 2143.2 251.128 Q2139.22 251.128 2136.86 248.905 Q2134.52 246.66 2134.52 242.91 Q2134.52 238.535 2137.44 236.313 Q2140.38 234.091 2146.19 234.091 L2152.16 234.091 L2152.16 233.674 Q2152.16 230.734 2150.22 229.137 Q2148.3 227.517 2144.8 227.517 Q2142.58 227.517 2140.47 228.049 Q2138.37 228.581 2136.42 229.646 L2136.42 225.711 Q2138.76 224.808 2140.96 224.368 Q2143.16 223.906 2145.24 223.906 Q2150.87 223.906 2153.64 226.822 Q2156.42 229.739 2156.42 235.665 Z" fill="#000000" fill-rule="nonzero" fill-opacity="1" /><path clip-path="url(#clip240)" d="M2181.72 225.294 L2181.72 229.322 Q2179.92 228.396 2177.97 227.933 Q2176.03 227.47 2173.94 227.47 Q2170.77 227.47 2169.18 228.443 Q2167.6 229.415 2167.6 231.359 Q2167.6 232.841 2168.74 233.697 Q2169.87 234.53 2173.3 235.294 L2174.75 235.618 Q2179.29 236.591 2181.19 238.373 Q2183.11 240.132 2183.11 243.304 Q2183.11 246.915 2180.24 249.021 Q2177.39 251.128 2172.39 251.128 Q2170.31 251.128 2168.04 250.711 Q2165.8 250.317 2163.3 249.507 L2163.3 245.109 Q2165.66 246.336 2167.95 246.961 Q2170.24 247.563 2172.49 247.563 Q2175.5 247.563 2177.12 246.544 Q2178.74 245.503 2178.74 243.628 Q2178.74 241.892 2177.56 240.966 Q2176.4 240.04 2172.44 239.183 L2170.96 238.836 Q2167 238.003 2165.24 236.29 Q2163.48 234.554 2163.48 231.544 Q2163.48 227.887 2166.07 225.896 Q2168.67 223.906 2173.43 223.906 Q2175.8 223.906 2177.88 224.253 Q2179.96 224.6 2181.72 225.294 Z" fill="#000000" fill-rule="nonzero" fill-opacity="1" /><path clip-path="url(#clip240)" d="M2212.07 236.429 L2212.07 238.512 L2192.49 238.512 Q2192.76 242.91 2195.12 245.225 Q2197.51 247.516 2201.74 247.516 Q2204.2 247.516 2206.49 246.915 Q2208.81 246.313 2211.07 245.109 L2211.07 249.137 Q2208.78 250.109 2206.37 250.618 Q2203.97 251.128 2201.49 251.128 Q2195.29 251.128 2191.65 247.516 Q2188.04 243.905 2188.04 237.748 Q2188.04 231.382 2191.47 227.655 Q2194.92 223.906 2200.75 223.906 Q2205.98 223.906 2209.01 227.285 Q2212.07 230.642 2212.07 236.429 M2207.81 235.179 Q2207.76 231.683 2205.84 229.6 Q2203.94 227.517 2200.8 227.517 Q2197.23 227.517 2195.08 229.53 Q2192.95 231.544 2192.62 235.202 L2207.81 235.179 Z" fill="#000000" fill-rule="nonzero" fill-opacity="1" /><path clip-path="url(#clip240)" d="M2236.12 228.466 L2236.12 214.438 L2240.38 214.438 L2240.38 250.456 L2236.12 250.456 L2236.12 246.567 Q2234.78 248.882 2232.72 250.016 Q2230.68 251.128 2227.81 251.128 Q2223.11 251.128 2220.15 247.378 Q2217.21 243.628 2217.21 237.517 Q2217.21 231.405 2220.15 227.655 Q2223.11 223.906 2227.81 223.906 Q2230.68 223.906 2232.72 225.04 Q2234.78 226.151 2236.12 228.466 M2221.61 237.517 Q2221.61 242.216 2223.53 244.901 Q2225.47 247.563 2228.85 247.563 Q2232.23 247.563 2234.18 244.901 Q2236.12 242.216 2236.12 237.517 Q2236.12 232.817 2234.18 230.155 Q2232.23 227.47 2228.85 227.47 Q2225.47 227.47 2223.53 230.155 Q2221.61 232.817 2221.61 237.517 Z" fill="#000000" fill-rule="nonzero" fill-opacity="1" /><polyline clip-path="url(#clip240)" style="stroke:#000000; stroke-linecap:round; stroke-linejoin:round; stroke-width:8; stroke-opacity:1; fill:none" points="1812.73,285.016 1976.67,285.016 "/>
<path clip-path="url(#clip240)" d="M2029.55 297.366 L2029.55 288.083 L2021.91 288.083 L2021.91 284.241 L2034.18 284.241 L2034.18 299.079 Q2031.47 301 2028.2 301.995 Q2024.94 302.968 2021.24 302.968 Q2013.13 302.968 2008.55 298.245 Q2003.99 293.5 2003.99 285.051 Q2003.99 276.579 2008.55 271.857 Q2013.13 267.111 2021.24 267.111 Q2024.62 267.111 2027.65 267.945 Q2030.7 268.778 2033.27 270.398 L2033.27 275.375 Q2030.68 273.176 2027.76 272.065 Q2024.85 270.954 2021.63 270.954 Q2015.29 270.954 2012.09 274.496 Q2008.92 278.037 2008.92 285.051 Q2008.92 292.042 2012.09 295.583 Q2015.29 299.125 2021.63 299.125 Q2024.11 299.125 2026.05 298.708 Q2028 298.269 2029.55 297.366 Z" fill="#000000" fill-rule="nonzero" fill-opacity="1" /><path clip-path="url(#clip240)" d="M2042.53 276.371 L2046.79 276.371 L2046.79 302.296 L2042.53 302.296 L2042.53 276.371 M2042.53 266.278 L2046.79 266.278 L2046.79 271.671 L2042.53 271.671 L2042.53 266.278 Z" fill="#000000" fill-rule="nonzero" fill-opacity="1" /><path clip-path="url(#clip240)" d="M2055.7 266.278 L2059.96 266.278 L2059.96 302.296 L2055.7 302.296 L2055.7 266.278 Z" fill="#000000" fill-rule="nonzero" fill-opacity="1" /><path clip-path="url(#clip240)" d="M2068.88 266.278 L2073.13 266.278 L2073.13 302.296 L2068.88 302.296 L2068.88 266.278 Z" fill="#000000" fill-rule="nonzero" fill-opacity="1" /><path clip-path="url(#clip240)" d="M2104.22 288.269 L2104.22 290.352 L2084.64 290.352 Q2084.92 294.75 2087.28 297.065 Q2089.66 299.356 2093.9 299.356 Q2096.35 299.356 2098.64 298.755 Q2100.96 298.153 2103.23 296.949 L2103.23 300.977 Q2100.94 301.949 2098.53 302.458 Q2096.12 302.968 2093.64 302.968 Q2087.44 302.968 2083.81 299.356 Q2080.19 295.745 2080.19 289.588 Q2080.19 283.222 2083.62 279.495 Q2087.07 275.746 2092.9 275.746 Q2098.13 275.746 2101.17 279.125 Q2104.22 282.482 2104.22 288.269 M2099.96 287.019 Q2099.92 283.523 2098 281.44 Q2096.1 279.357 2092.95 279.357 Q2089.38 279.357 2087.23 281.37 Q2085.1 283.384 2084.78 287.042 L2099.96 287.019 Z" fill="#000000" fill-rule="nonzero" fill-opacity="1" /><path clip-path="url(#clip240)" d="M2127.74 277.134 L2127.74 281.162 Q2125.94 280.236 2123.99 279.773 Q2122.05 279.31 2119.96 279.31 Q2116.79 279.31 2115.19 280.283 Q2113.62 281.255 2113.62 283.199 Q2113.62 284.681 2114.75 285.537 Q2115.89 286.37 2119.31 287.134 L2120.77 287.458 Q2125.31 288.431 2127.21 290.213 Q2129.13 291.972 2129.13 295.144 Q2129.13 298.755 2126.26 300.861 Q2123.41 302.968 2118.41 302.968 Q2116.33 302.968 2114.06 302.551 Q2111.81 302.157 2109.31 301.347 L2109.31 296.949 Q2111.68 298.176 2113.97 298.801 Q2116.26 299.403 2118.5 299.403 Q2121.51 299.403 2123.13 298.384 Q2124.75 297.343 2124.75 295.468 Q2124.75 293.732 2123.57 292.806 Q2122.42 291.88 2118.46 291.023 L2116.98 290.676 Q2113.02 289.843 2111.26 288.13 Q2109.5 286.394 2109.5 283.384 Q2109.5 279.727 2112.09 277.736 Q2114.69 275.746 2119.45 275.746 Q2121.81 275.746 2123.9 276.093 Q2125.98 276.44 2127.74 277.134 Z" fill="#000000" fill-rule="nonzero" fill-opacity="1" /><path clip-path="url(#clip240)" d="M2140.03 298.407 L2140.03 312.157 L2135.75 312.157 L2135.75 276.371 L2140.03 276.371 L2140.03 280.306 Q2141.37 277.991 2143.41 276.88 Q2145.47 275.746 2148.32 275.746 Q2153.04 275.746 2155.98 279.495 Q2158.94 283.245 2158.94 289.357 Q2158.94 295.468 2155.98 299.218 Q2153.04 302.968 2148.32 302.968 Q2145.47 302.968 2143.41 301.856 Q2141.37 300.722 2140.03 298.407 M2154.52 289.357 Q2154.52 284.657 2152.58 281.995 Q2150.66 279.31 2147.28 279.31 Q2143.9 279.31 2141.95 281.995 Q2140.03 284.657 2140.03 289.357 Q2140.03 294.056 2141.95 296.741 Q2143.9 299.403 2147.28 299.403 Q2150.66 299.403 2152.58 296.741 Q2154.52 294.056 2154.52 289.357 Z" fill="#000000" fill-rule="nonzero" fill-opacity="1" /><path clip-path="url(#clip240)" d="M2166 276.371 L2170.26 276.371 L2170.26 302.296 L2166 302.296 L2166 276.371 M2166 266.278 L2170.26 266.278 L2170.26 271.671 L2166 271.671 L2166 266.278 Z" fill="#000000" fill-rule="nonzero" fill-opacity="1" /><path clip-path="url(#clip240)" d="M2201.35 288.269 L2201.35 290.352 L2181.77 290.352 Q2182.05 294.75 2184.41 297.065 Q2186.79 299.356 2191.03 299.356 Q2193.48 299.356 2195.77 298.755 Q2198.09 298.153 2200.36 296.949 L2200.36 300.977 Q2198.06 301.949 2195.66 302.458 Q2193.25 302.968 2190.77 302.968 Q2184.57 302.968 2180.93 299.356 Q2177.32 295.745 2177.32 289.588 Q2177.32 283.222 2180.75 279.495 Q2184.2 275.746 2190.03 275.746 Q2195.26 275.746 2198.3 279.125 Q2201.35 282.482 2201.35 288.269 M2197.09 287.019 Q2197.05 283.523 2195.12 281.44 Q2193.23 279.357 2190.08 279.357 Q2186.51 279.357 2184.36 281.37 Q2182.23 283.384 2181.91 287.042 L2197.09 287.019 Z" fill="#000000" fill-rule="nonzero" fill-opacity="1" /><path clip-path="url(#clip240)" d="M2243.6 281.347 Q2245.19 278.477 2247.42 277.111 Q2249.64 275.746 2252.65 275.746 Q2256.7 275.746 2258.9 278.593 Q2261.1 281.417 2261.1 286.648 L2261.1 302.296 L2256.81 302.296 L2256.81 286.787 Q2256.81 283.06 2255.49 281.255 Q2254.18 279.449 2251.47 279.449 Q2248.16 279.449 2246.24 281.648 Q2244.31 283.847 2244.31 287.644 L2244.31 302.296 L2240.03 302.296 L2240.03 286.787 Q2240.03 283.037 2238.71 281.255 Q2237.39 279.449 2234.64 279.449 Q2231.37 279.449 2229.45 281.671 Q2227.53 283.87 2227.53 287.644 L2227.53 302.296 L2223.25 302.296 L2223.25 276.371 L2227.53 276.371 L2227.53 280.398 Q2228.99 278.014 2231.03 276.88 Q2233.06 275.746 2235.87 275.746 Q2238.69 275.746 2240.66 277.181 Q2242.65 278.616 2243.6 281.347 Z" fill="#000000" fill-rule="nonzero" fill-opacity="1" /><path clip-path="url(#clip240)" d="M2291.77 288.269 L2291.77 290.352 L2272.18 290.352 Q2272.46 294.75 2274.82 297.065 Q2277.21 299.356 2281.44 299.356 Q2283.9 299.356 2286.19 298.755 Q2288.5 298.153 2290.77 296.949 L2290.77 300.977 Q2288.48 301.949 2286.07 302.458 Q2283.67 302.968 2281.19 302.968 Q2274.99 302.968 2271.35 299.356 Q2267.74 295.745 2267.74 289.588 Q2267.74 283.222 2271.17 279.495 Q2274.61 275.746 2280.45 275.746 Q2285.68 275.746 2288.71 279.125 Q2291.77 282.482 2291.77 288.269 M2287.51 287.019 Q2287.46 283.523 2285.54 281.44 Q2283.64 279.357 2280.49 279.357 Q2276.93 279.357 2274.78 281.37 Q2272.65 283.384 2272.32 287.042 L2287.51 287.019 Z" fill="#000000" fill-rule="nonzero" fill-opacity="1" /><path clip-path="url(#clip240)" d="M2310.54 289.264 Q2305.38 289.264 2303.39 290.444 Q2301.4 291.625 2301.4 294.472 Q2301.4 296.741 2302.88 298.083 Q2304.38 299.403 2306.95 299.403 Q2310.49 299.403 2312.62 296.903 Q2314.78 294.38 2314.78 290.213 L2314.78 289.264 L2310.54 289.264 M2319.04 287.505 L2319.04 302.296 L2314.78 302.296 L2314.78 298.361 Q2313.32 300.722 2311.14 301.856 Q2308.97 302.968 2305.82 302.968 Q2301.84 302.968 2299.48 300.745 Q2297.14 298.5 2297.14 294.75 Q2297.14 290.375 2300.05 288.153 Q2302.99 285.931 2308.8 285.931 L2314.78 285.931 L2314.78 285.514 Q2314.78 282.574 2312.83 280.977 Q2310.91 279.357 2307.42 279.357 Q2305.19 279.357 2303.09 279.889 Q2300.98 280.421 2299.04 281.486 L2299.04 277.551 Q2301.37 276.648 2303.57 276.208 Q2305.77 275.746 2307.86 275.746 Q2313.48 275.746 2316.26 278.662 Q2319.04 281.579 2319.04 287.505 Z" fill="#000000" fill-rule="nonzero" fill-opacity="1" /><path clip-path="url(#clip240)" d="M2349.36 286.648 L2349.36 302.296 L2345.1 302.296 L2345.1 286.787 Q2345.1 283.107 2343.67 281.278 Q2342.23 279.449 2339.36 279.449 Q2335.91 279.449 2333.92 281.648 Q2331.93 283.847 2331.93 287.644 L2331.93 302.296 L2327.65 302.296 L2327.65 276.371 L2331.93 276.371 L2331.93 280.398 Q2333.46 278.06 2335.52 276.903 Q2337.6 275.746 2340.31 275.746 Q2344.78 275.746 2347.07 278.523 Q2349.36 281.278 2349.36 286.648 Z" fill="#000000" fill-rule="nonzero" fill-opacity="1" /><path clip-path="url(#clip240)" d="M2383.16 266.324 Q2380.05 271.648 2378.55 276.857 Q2377.04 282.065 2377.04 287.412 Q2377.04 292.759 2378.55 298.014 Q2380.08 303.245 2383.16 308.546 L2379.45 308.546 Q2375.98 303.106 2374.24 297.852 Q2372.53 292.597 2372.53 287.412 Q2372.53 282.25 2374.24 277.019 Q2375.96 271.787 2379.45 266.324 L2383.16 266.324 Z" fill="#000000" fill-rule="nonzero" fill-opacity="1" /><path clip-path="url(#clip240)" d="M2412.97 286.648 L2412.97 302.296 L2408.71 302.296 L2408.71 286.787 Q2408.71 283.107 2407.28 281.278 Q2405.84 279.449 2402.97 279.449 Q2399.52 279.449 2397.53 281.648 Q2395.54 283.847 2395.54 287.644 L2395.54 302.296 L2391.26 302.296 L2391.26 276.371 L2395.54 276.371 L2395.54 280.398 Q2397.07 278.06 2399.13 276.903 Q2401.21 275.746 2403.92 275.746 Q2408.39 275.746 2410.68 278.523 Q2412.97 281.278 2412.97 286.648 Z" fill="#000000" fill-rule="nonzero" fill-opacity="1" /><path clip-path="url(#clip240)" d="M2422.02 280.769 L2451.7 280.769 L2451.7 284.657 L2422.02 284.657 L2422.02 280.769 M2422.02 290.213 L2451.7 290.213 L2451.7 294.148 L2422.02 294.148 L2422.02 290.213 Z" fill="#000000" fill-rule="nonzero" fill-opacity="1" /><path clip-path="url(#clip240)" d="M2461.84 267.736 L2480.19 267.736 L2480.19 271.671 L2466.12 271.671 L2466.12 280.144 Q2467.14 279.796 2468.16 279.634 Q2469.17 279.449 2470.19 279.449 Q2475.98 279.449 2479.36 282.62 Q2482.74 285.792 2482.74 291.208 Q2482.74 296.787 2479.27 299.889 Q2475.79 302.968 2469.47 302.968 Q2467.3 302.968 2465.03 302.597 Q2462.79 302.227 2460.38 301.486 L2460.38 296.787 Q2462.46 297.921 2464.68 298.477 Q2466.91 299.032 2469.38 299.032 Q2473.39 299.032 2475.72 296.926 Q2478.06 294.819 2478.06 291.208 Q2478.06 287.597 2475.72 285.491 Q2473.39 283.384 2469.38 283.384 Q2467.51 283.384 2465.63 283.801 Q2463.78 284.218 2461.84 285.097 L2461.84 267.736 Z" fill="#000000" fill-rule="nonzero" fill-opacity="1" /><path clip-path="url(#clip240)" d="M2501.95 270.815 Q2498.34 270.815 2496.51 274.38 Q2494.71 277.921 2494.71 285.051 Q2494.71 292.157 2496.51 295.722 Q2498.34 299.264 2501.95 299.264 Q2505.59 299.264 2507.39 295.722 Q2509.22 292.157 2509.22 285.051 Q2509.22 277.921 2507.39 274.38 Q2505.59 270.815 2501.95 270.815 M2501.95 267.111 Q2507.76 267.111 2510.82 271.718 Q2513.9 276.301 2513.9 285.051 Q2513.9 293.778 2510.82 298.384 Q2507.76 302.968 2501.95 302.968 Q2496.14 302.968 2493.06 298.384 Q2490.01 293.778 2490.01 285.051 Q2490.01 276.301 2493.06 271.718 Q2496.14 267.111 2501.95 267.111 Z" fill="#000000" fill-rule="nonzero" fill-opacity="1" /><path clip-path="url(#clip240)" d="M2520.84 266.324 L2524.54 266.324 Q2528.02 271.787 2529.73 277.019 Q2531.47 282.25 2531.47 287.412 Q2531.47 292.597 2529.73 297.852 Q2528.02 303.106 2524.54 308.546 L2520.84 308.546 Q2523.92 303.245 2525.42 298.014 Q2526.95 292.759 2526.95 287.412 Q2526.95 282.065 2525.42 276.857 Q2523.92 271.648 2520.84 266.324 Z" fill="#000000" fill-rule="nonzero" fill-opacity="1" /><polyline clip-path="url(#clip240)" style="stroke:#000000; stroke-linecap:round; stroke-linejoin:round; stroke-width:4; stroke-opacity:0; fill:none" points="1812.73,336.856 1976.67,336.856 "/>
<path clip-path="url(#clip240)" d="M2029.55 349.206 L2029.55 339.923 L2021.91 339.923 L2021.91 336.081 L2034.18 336.081 L2034.18 350.919 Q2031.47 352.84 2028.2 353.835 Q2024.94 354.808 2021.24 354.808 Q2013.13 354.808 2008.55 350.085 Q2003.99 345.34 2003.99 336.891 Q2003.99 328.419 2008.55 323.697 Q2013.13 318.951 2021.24 318.951 Q2024.62 318.951 2027.65 319.785 Q2030.7 320.618 2033.27 322.238 L2033.27 327.215 Q2030.68 325.016 2027.76 323.905 Q2024.85 322.794 2021.63 322.794 Q2015.29 322.794 2012.09 326.336 Q2008.92 329.877 2008.92 336.891 Q2008.92 343.882 2012.09 347.423 Q2015.29 350.965 2021.63 350.965 Q2024.11 350.965 2026.05 350.548 Q2028 350.109 2029.55 349.206 Z" fill="#000000" fill-rule="nonzero" fill-opacity="1" /><path clip-path="url(#clip240)" d="M2042.53 328.211 L2046.79 328.211 L2046.79 354.136 L2042.53 354.136 L2042.53 328.211 M2042.53 318.118 L2046.79 318.118 L2046.79 323.511 L2042.53 323.511 L2042.53 318.118 Z" fill="#000000" fill-rule="nonzero" fill-opacity="1" /><path clip-path="url(#clip240)" d="M2055.7 318.118 L2059.96 318.118 L2059.96 354.136 L2055.7 354.136 L2055.7 318.118 Z" fill="#000000" fill-rule="nonzero" fill-opacity="1" /><path clip-path="url(#clip240)" d="M2068.88 318.118 L2073.13 318.118 L2073.13 354.136 L2068.88 354.136 L2068.88 318.118 Z" fill="#000000" fill-rule="nonzero" fill-opacity="1" /><path clip-path="url(#clip240)" d="M2104.22 340.109 L2104.22 342.192 L2084.64 342.192 Q2084.92 346.59 2087.28 348.905 Q2089.66 351.196 2093.9 351.196 Q2096.35 351.196 2098.64 350.595 Q2100.96 349.993 2103.23 348.789 L2103.23 352.817 Q2100.94 353.789 2098.53 354.298 Q2096.12 354.808 2093.64 354.808 Q2087.44 354.808 2083.81 351.196 Q2080.19 347.585 2080.19 341.428 Q2080.19 335.062 2083.62 331.335 Q2087.07 327.586 2092.9 327.586 Q2098.13 327.586 2101.17 330.965 Q2104.22 334.322 2104.22 340.109 M2099.96 338.859 Q2099.92 335.363 2098 333.28 Q2096.1 331.197 2092.95 331.197 Q2089.38 331.197 2087.23 333.21 Q2085.1 335.224 2084.78 338.882 L2099.96 338.859 Z" fill="#000000" fill-rule="nonzero" fill-opacity="1" /><path clip-path="url(#clip240)" d="M2127.74 328.974 L2127.74 333.002 Q2125.94 332.076 2123.99 331.613 Q2122.05 331.15 2119.96 331.15 Q2116.79 331.15 2115.19 332.123 Q2113.62 333.095 2113.62 335.039 Q2113.62 336.521 2114.75 337.377 Q2115.89 338.21 2119.31 338.974 L2120.77 339.298 Q2125.31 340.271 2127.21 342.053 Q2129.13 343.812 2129.13 346.984 Q2129.13 350.595 2126.26 352.701 Q2123.41 354.808 2118.41 354.808 Q2116.33 354.808 2114.06 354.391 Q2111.81 353.997 2109.31 353.187 L2109.31 348.789 Q2111.68 350.016 2113.97 350.641 Q2116.26 351.243 2118.5 351.243 Q2121.51 351.243 2123.13 350.224 Q2124.75 349.183 2124.75 347.308 Q2124.75 345.572 2123.57 344.646 Q2122.42 343.72 2118.46 342.863 L2116.98 342.516 Q2113.02 341.683 2111.26 339.97 Q2109.5 338.234 2109.5 335.224 Q2109.5 331.567 2112.09 329.576 Q2114.69 327.586 2119.45 327.586 Q2121.81 327.586 2123.9 327.933 Q2125.98 328.28 2127.74 328.974 Z" fill="#000000" fill-rule="nonzero" fill-opacity="1" /><path clip-path="url(#clip240)" d="M2140.03 350.247 L2140.03 363.997 L2135.75 363.997 L2135.75 328.211 L2140.03 328.211 L2140.03 332.146 Q2141.37 329.831 2143.41 328.72 Q2145.47 327.586 2148.32 327.586 Q2153.04 327.586 2155.98 331.335 Q2158.94 335.085 2158.94 341.197 Q2158.94 347.308 2155.98 351.058 Q2153.04 354.808 2148.32 354.808 Q2145.47 354.808 2143.41 353.696 Q2141.37 352.562 2140.03 350.247 M2154.52 341.197 Q2154.52 336.497 2152.58 333.835 Q2150.66 331.15 2147.28 331.15 Q2143.9 331.15 2141.95 333.835 Q2140.03 336.497 2140.03 341.197 Q2140.03 345.896 2141.95 348.581 Q2143.9 351.243 2147.28 351.243 Q2150.66 351.243 2152.58 348.581 Q2154.52 345.896 2154.52 341.197 Z" fill="#000000" fill-rule="nonzero" fill-opacity="1" /><path clip-path="url(#clip240)" d="M2166 328.211 L2170.26 328.211 L2170.26 354.136 L2166 354.136 L2166 328.211 M2166 318.118 L2170.26 318.118 L2170.26 323.511 L2166 323.511 L2166 318.118 Z" fill="#000000" fill-rule="nonzero" fill-opacity="1" /><path clip-path="url(#clip240)" d="M2201.35 340.109 L2201.35 342.192 L2181.77 342.192 Q2182.05 346.59 2184.41 348.905 Q2186.79 351.196 2191.03 351.196 Q2193.48 351.196 2195.77 350.595 Q2198.09 349.993 2200.36 348.789 L2200.36 352.817 Q2198.06 353.789 2195.66 354.298 Q2193.25 354.808 2190.77 354.808 Q2184.57 354.808 2180.93 351.196 Q2177.32 347.585 2177.32 341.428 Q2177.32 335.062 2180.75 331.335 Q2184.2 327.586 2190.03 327.586 Q2195.26 327.586 2198.3 330.965 Q2201.35 334.322 2201.35 340.109 M2197.09 338.859 Q2197.05 335.363 2195.12 333.28 Q2193.23 331.197 2190.08 331.197 Q2186.51 331.197 2184.36 333.21 Q2182.23 335.224 2181.91 338.882 L2197.09 338.859 Z" fill="#000000" fill-rule="nonzero" fill-opacity="1" /><path clip-path="url(#clip240)" d="M2224.15 353.419 L2224.15 349.159 Q2225.91 349.993 2227.72 350.433 Q2229.52 350.872 2231.26 350.872 Q2235.89 350.872 2238.32 347.771 Q2240.77 344.646 2241.12 338.303 Q2239.78 340.294 2237.72 341.359 Q2235.66 342.423 2233.16 342.423 Q2227.97 342.423 2224.94 339.298 Q2221.93 336.15 2221.93 330.71 Q2221.93 325.386 2225.08 322.169 Q2228.23 318.951 2233.46 318.951 Q2239.45 318.951 2242.6 323.558 Q2245.77 328.141 2245.77 336.891 Q2245.77 345.062 2241.88 349.946 Q2238.02 354.808 2231.47 354.808 Q2229.71 354.808 2227.9 354.46 Q2226.1 354.113 2224.15 353.419 M2233.46 338.766 Q2236.61 338.766 2238.43 336.613 Q2240.29 334.46 2240.29 330.71 Q2240.29 326.984 2238.43 324.831 Q2236.61 322.655 2233.46 322.655 Q2230.31 322.655 2228.46 324.831 Q2226.63 326.984 2226.63 330.71 Q2226.63 334.46 2228.46 336.613 Q2230.31 338.766 2233.46 338.766 Z" fill="#000000" fill-rule="nonzero" fill-opacity="1" /><path clip-path="url(#clip240)" d="M2264.18 322.655 Q2260.56 322.655 2258.74 326.22 Q2256.93 329.761 2256.93 336.891 Q2256.93 343.997 2258.74 347.562 Q2260.56 351.104 2264.18 351.104 Q2267.81 351.104 2269.61 347.562 Q2271.44 343.997 2271.44 336.891 Q2271.44 329.761 2269.61 326.22 Q2267.81 322.655 2264.18 322.655 M2264.18 318.951 Q2269.99 318.951 2273.04 323.558 Q2276.12 328.141 2276.12 336.891 Q2276.12 345.618 2273.04 350.224 Q2269.99 354.808 2264.18 354.808 Q2258.37 354.808 2255.29 350.224 Q2252.23 345.618 2252.23 336.891 Q2252.23 328.141 2255.29 323.558 Q2258.37 318.951 2264.18 318.951 Z" fill="#000000" fill-rule="nonzero" fill-opacity="1" /><path clip-path="url(#clip240)" d="M2313.74 338.928 Q2311.72 338.928 2310.56 340.641 Q2309.43 342.354 2309.43 345.409 Q2309.43 348.419 2310.56 350.155 Q2311.72 351.868 2313.74 351.868 Q2315.7 351.868 2316.84 350.155 Q2317.99 348.419 2317.99 345.409 Q2317.99 342.377 2316.84 340.664 Q2315.7 338.928 2313.74 338.928 M2313.74 335.988 Q2317.39 335.988 2319.55 338.535 Q2321.7 341.081 2321.7 345.409 Q2321.7 349.738 2319.52 352.284 Q2317.37 354.808 2313.74 354.808 Q2310.03 354.808 2307.88 352.284 Q2305.73 349.738 2305.73 345.409 Q2305.73 341.058 2307.88 338.535 Q2310.05 335.988 2313.74 335.988 M2289.85 321.891 Q2287.86 321.891 2286.7 323.627 Q2285.56 325.34 2285.56 328.349 Q2285.56 331.405 2286.7 333.118 Q2287.83 334.831 2289.85 334.831 Q2291.86 334.831 2292.99 333.118 Q2294.15 331.405 2294.15 328.349 Q2294.15 325.363 2292.99 323.627 Q2291.84 321.891 2289.85 321.891 M2310.75 318.951 L2314.45 318.951 L2292.83 354.808 L2289.13 354.808 L2310.75 318.951 M2289.85 318.951 Q2293.5 318.951 2295.68 321.498 Q2297.86 324.021 2297.86 328.349 Q2297.86 332.724 2295.68 335.248 Q2293.53 337.771 2289.85 337.771 Q2286.17 337.771 2284.01 335.248 Q2281.88 332.701 2281.88 328.349 Q2281.88 324.044 2284.04 321.498 Q2286.19 318.951 2289.85 318.951 Z" fill="#000000" fill-rule="nonzero" fill-opacity="1" /><path clip-path="url(#clip240)" d="M2369.92 322.238 L2369.92 327.169 Q2367.55 324.97 2364.87 323.882 Q2362.21 322.794 2359.2 322.794 Q2353.27 322.794 2350.12 326.428 Q2346.98 330.039 2346.98 336.891 Q2346.98 343.72 2350.12 347.354 Q2353.27 350.965 2359.2 350.965 Q2362.21 350.965 2364.87 349.877 Q2367.55 348.789 2369.92 346.59 L2369.92 351.474 Q2367.46 353.141 2364.71 353.974 Q2361.98 354.808 2358.92 354.808 Q2351.07 354.808 2346.56 350.016 Q2342.05 345.201 2342.05 336.891 Q2342.05 328.558 2346.56 323.766 Q2351.07 318.951 2358.92 318.951 Q2362.02 318.951 2364.75 319.785 Q2367.51 320.595 2369.92 322.238 Z" fill="#000000" fill-rule="nonzero" fill-opacity="1" /><path clip-path="url(#clip240)" d="M2377.14 319.576 L2381.81 319.576 L2381.81 354.136 L2377.14 354.136 L2377.14 319.576 Z" fill="#000000" fill-rule="nonzero" fill-opacity="1" /></svg>
