<?xml version="1.0" encoding="utf-8"?>
<svg xmlns="http://www.w3.org/2000/svg" xmlns:xlink="http://www.w3.org/1999/xlink" width="672" height="480" viewBox="0 0 2688 1920">
<defs>
  <clipPath id="clip680">
    <rect x="0" y="0" width="2688" height="1920"/>
  </clipPath>
</defs>
<path clip-path="url(#clip680)" d="M0 1920 L2688 1920 L2688 -4.26326e-14 L0 -4.26326e-14  Z" fill="#ffffff" fill-rule="evenodd" fill-opacity="1"/>
<defs>
  <clipPath id="clip681">
    <rect x="255" y="127" width="2386" height="1607"/>
  </clipPath>
</defs>
<path clip-path="url(#clip680)" d="M255.816 1734.12 L2640.76 1734.12 L2640.76 127.792 L255.816 127.792  Z" fill="#ffffff" fill-rule="evenodd" fill-opacity="1"/>
<polyline clip-path="url(#clip681)" style="stroke:#000000; stroke-linecap:round; stroke-linejoin:round; stroke-width:2; stroke-opacity:0.1; fill:none" points="323.315,1734.12 323.315,127.792 "/>
<polyline clip-path="url(#clip681)" style="stroke:#000000; stroke-linecap:round; stroke-linejoin:round; stroke-width:2; stroke-opacity:0.1; fill:none" points="698.305,1734.12 698.305,127.792 "/>
<polyline clip-path="url(#clip681)" style="stroke:#000000; stroke-linecap:round; stroke-linejoin:round; stroke-width:2; stroke-opacity:0.1; fill:none" points="1073.3,1734.12 1073.3,127.792 "/>
<polyline clip-path="url(#clip681)" style="stroke:#000000; stroke-linecap:round; stroke-linejoin:round; stroke-width:2; stroke-opacity:0.1; fill:none" points="1448.29,1734.12 1448.29,127.792 "/>
<polyline clip-path="url(#clip681)" style="stroke:#000000; stroke-linecap:round; stroke-linejoin:round; stroke-width:2; stroke-opacity:0.1; fill:none" points="1823.28,1734.12 1823.28,127.792 "/>
<polyline clip-path="url(#clip681)" style="stroke:#000000; stroke-linecap:round; stroke-linejoin:round; stroke-width:2; stroke-opacity:0.1; fill:none" points="2198.27,1734.12 2198.27,127.792 "/>
<polyline clip-path="url(#clip681)" style="stroke:#000000; stroke-linecap:round; stroke-linejoin:round; stroke-width:2; stroke-opacity:0.1; fill:none" points="2573.26,1734.12 2573.26,127.792 "/>
<polyline clip-path="url(#clip681)" style="stroke:#000000; stroke-linecap:round; stroke-linejoin:round; stroke-width:2; stroke-opacity:0.1; fill:none" points="255.816,1688.65 2640.76,1688.65 "/>
<polyline clip-path="url(#clip681)" style="stroke:#000000; stroke-linecap:round; stroke-linejoin:round; stroke-width:2; stroke-opacity:0.1; fill:none" points="255.816,1309.8 2640.76,1309.8 "/>
<polyline clip-path="url(#clip681)" style="stroke:#000000; stroke-linecap:round; stroke-linejoin:round; stroke-width:2; stroke-opacity:0.1; fill:none" points="255.816,930.955 2640.76,930.955 "/>
<polyline clip-path="url(#clip681)" style="stroke:#000000; stroke-linecap:round; stroke-linejoin:round; stroke-width:2; stroke-opacity:0.1; fill:none" points="255.816,552.104 2640.76,552.104 "/>
<polyline clip-path="url(#clip681)" style="stroke:#000000; stroke-linecap:round; stroke-linejoin:round; stroke-width:2; stroke-opacity:0.1; fill:none" points="255.816,173.254 2640.76,173.254 "/>
<polyline clip-path="url(#clip680)" style="stroke:#000000; stroke-linecap:round; stroke-linejoin:round; stroke-width:4; stroke-opacity:1; fill:none" points="255.816,1734.12 2640.76,1734.12 "/>
<polyline clip-path="url(#clip680)" style="stroke:#000000; stroke-linecap:round; stroke-linejoin:round; stroke-width:4; stroke-opacity:1; fill:none" points="323.315,1734.12 323.315,1715.22 "/>
<polyline clip-path="url(#clip680)" style="stroke:#000000; stroke-linecap:round; stroke-linejoin:round; stroke-width:4; stroke-opacity:1; fill:none" points="698.305,1734.12 698.305,1715.22 "/>
<polyline clip-path="url(#clip680)" style="stroke:#000000; stroke-linecap:round; stroke-linejoin:round; stroke-width:4; stroke-opacity:1; fill:none" points="1073.3,1734.12 1073.3,1715.22 "/>
<polyline clip-path="url(#clip680)" style="stroke:#000000; stroke-linecap:round; stroke-linejoin:round; stroke-width:4; stroke-opacity:1; fill:none" points="1448.29,1734.12 1448.29,1715.22 "/>
<polyline clip-path="url(#clip680)" style="stroke:#000000; stroke-linecap:round; stroke-linejoin:round; stroke-width:4; stroke-opacity:1; fill:none" points="1823.28,1734.12 1823.28,1715.22 "/>
<polyline clip-path="url(#clip680)" style="stroke:#000000; stroke-linecap:round; stroke-linejoin:round; stroke-width:4; stroke-opacity:1; fill:none" points="2198.27,1734.12 2198.27,1715.22 "/>
<polyline clip-path="url(#clip680)" style="stroke:#000000; stroke-linecap:round; stroke-linejoin:round; stroke-width:4; stroke-opacity:1; fill:none" points="2573.26,1734.12 2573.26,1715.22 "/>
<path clip-path="url(#clip680)" d="M323.315 1767.34 Q319.704 1767.34 317.875 1770.9 Q316.069 1774.45 316.069 1781.58 Q316.069 1788.68 317.875 1792.25 Q319.704 1795.79 323.315 1795.79 Q326.949 1795.79 328.754 1792.25 Q330.583 1788.68 330.583 1781.58 Q330.583 1774.45 328.754 1770.9 Q326.949 1767.34 323.315 1767.34 M323.315 1763.64 Q329.125 1763.64 332.18 1768.24 Q335.259 1772.83 335.259 1781.58 Q335.259 1790.3 332.18 1794.91 Q329.125 1799.49 323.315 1799.49 Q317.504 1799.49 314.426 1794.91 Q311.37 1790.3 311.37 1781.58 Q311.37 1772.83 314.426 1768.24 Q317.504 1763.64 323.315 1763.64 Z" fill="#000000" fill-rule="nonzero" fill-opacity="1" /><path clip-path="url(#clip680)" d="M672.993 1794.89 L680.632 1794.89 L680.632 1768.52 L672.321 1770.19 L672.321 1765.93 L680.585 1764.26 L685.261 1764.26 L685.261 1794.89 L692.9 1794.89 L692.9 1798.82 L672.993 1798.82 L672.993 1794.89 Z" fill="#000000" fill-rule="nonzero" fill-opacity="1" /><path clip-path="url(#clip680)" d="M712.344 1767.34 Q708.733 1767.34 706.905 1770.9 Q705.099 1774.45 705.099 1781.58 Q705.099 1788.68 706.905 1792.25 Q708.733 1795.79 712.344 1795.79 Q715.979 1795.79 717.784 1792.25 Q719.613 1788.68 719.613 1781.58 Q719.613 1774.45 717.784 1770.9 Q715.979 1767.34 712.344 1767.34 M712.344 1763.64 Q718.155 1763.64 721.21 1768.24 Q724.289 1772.83 724.289 1781.58 Q724.289 1790.3 721.21 1794.91 Q718.155 1799.49 712.344 1799.49 Q706.534 1799.49 703.456 1794.91 Q700.4 1790.3 700.4 1781.58 Q700.4 1772.83 703.456 1768.24 Q706.534 1763.64 712.344 1763.64 Z" fill="#000000" fill-rule="nonzero" fill-opacity="1" /><path clip-path="url(#clip680)" d="M1052.07 1794.89 L1068.39 1794.89 L1068.39 1798.82 L1046.44 1798.82 L1046.44 1794.89 Q1049.11 1792.13 1053.69 1787.5 Q1058.3 1782.85 1059.48 1781.51 Q1061.72 1778.98 1062.6 1777.25 Q1063.5 1775.49 1063.5 1773.8 Q1063.5 1771.04 1061.56 1769.31 Q1059.64 1767.57 1056.54 1767.57 Q1054.34 1767.57 1051.88 1768.34 Q1049.45 1769.1 1046.68 1770.65 L1046.68 1765.93 Q1049.5 1764.79 1051.95 1764.21 Q1054.41 1763.64 1056.44 1763.64 Q1061.81 1763.64 1065.01 1766.32 Q1068.2 1769.01 1068.2 1773.5 Q1068.2 1775.63 1067.39 1777.55 Q1066.61 1779.45 1064.5 1782.04 Q1063.92 1782.71 1060.82 1785.93 Q1057.72 1789.12 1052.07 1794.89 Z" fill="#000000" fill-rule="nonzero" fill-opacity="1" /><path clip-path="url(#clip680)" d="M1088.2 1767.34 Q1084.59 1767.34 1082.76 1770.9 Q1080.96 1774.45 1080.96 1781.58 Q1080.96 1788.68 1082.76 1792.25 Q1084.59 1795.79 1088.2 1795.79 Q1091.84 1795.79 1093.64 1792.25 Q1095.47 1788.68 1095.47 1781.58 Q1095.47 1774.45 1093.64 1770.9 Q1091.84 1767.34 1088.2 1767.34 M1088.2 1763.64 Q1094.01 1763.64 1097.07 1768.24 Q1100.15 1772.83 1100.15 1781.58 Q1100.15 1790.3 1097.07 1794.91 Q1094.01 1799.49 1088.2 1799.49 Q1082.39 1799.49 1079.31 1794.91 Q1076.26 1790.3 1076.26 1781.58 Q1076.26 1772.83 1079.31 1768.24 Q1082.39 1763.64 1088.2 1763.64 Z" fill="#000000" fill-rule="nonzero" fill-opacity="1" /><path clip-path="url(#clip680)" d="M1437.13 1780.19 Q1440.49 1780.9 1442.36 1783.17 Q1444.26 1785.44 1444.26 1788.77 Q1444.26 1793.89 1440.74 1796.69 Q1437.22 1799.49 1430.74 1799.49 Q1428.56 1799.49 1426.25 1799.05 Q1423.96 1798.64 1421.5 1797.78 L1421.5 1793.27 Q1423.45 1794.4 1425.76 1794.98 Q1428.08 1795.56 1430.6 1795.56 Q1435 1795.56 1437.29 1793.82 Q1439.61 1792.08 1439.61 1788.77 Q1439.61 1785.72 1437.45 1784.01 Q1435.32 1782.27 1431.5 1782.27 L1427.48 1782.27 L1427.48 1778.43 L1431.69 1778.43 Q1435.14 1778.43 1436.97 1777.06 Q1438.8 1775.67 1438.8 1773.08 Q1438.8 1770.42 1436.9 1769.01 Q1435.02 1767.57 1431.5 1767.57 Q1429.58 1767.57 1427.38 1767.99 Q1425.18 1768.4 1422.55 1769.28 L1422.55 1765.12 Q1425.21 1764.38 1427.52 1764.01 Q1429.86 1763.64 1431.92 1763.64 Q1437.24 1763.64 1440.35 1766.07 Q1443.45 1768.47 1443.45 1772.59 Q1443.45 1775.46 1441.8 1777.46 Q1440.16 1779.42 1437.13 1780.19 Z" fill="#000000" fill-rule="nonzero" fill-opacity="1" /><path clip-path="url(#clip680)" d="M1463.12 1767.34 Q1459.51 1767.34 1457.68 1770.9 Q1455.88 1774.45 1455.88 1781.58 Q1455.88 1788.68 1457.68 1792.25 Q1459.51 1795.79 1463.12 1795.79 Q1466.76 1795.79 1468.56 1792.25 Q1470.39 1788.68 1470.39 1781.58 Q1470.39 1774.45 1468.56 1770.9 Q1466.76 1767.34 1463.12 1767.34 M1463.12 1763.64 Q1468.93 1763.64 1471.99 1768.24 Q1475.07 1772.83 1475.07 1781.58 Q1475.07 1790.3 1471.99 1794.91 Q1468.93 1799.49 1463.12 1799.49 Q1457.31 1799.49 1454.24 1794.91 Q1451.18 1790.3 1451.18 1781.58 Q1451.18 1772.83 1454.24 1768.24 Q1457.31 1763.64 1463.12 1763.64 Z" fill="#000000" fill-rule="nonzero" fill-opacity="1" /><path clip-path="url(#clip680)" d="M1811.45 1768.34 L1799.64 1786.78 L1811.45 1786.78 L1811.45 1768.34 M1810.22 1764.26 L1816.1 1764.26 L1816.1 1786.78 L1821.03 1786.78 L1821.03 1790.67 L1816.1 1790.67 L1816.1 1798.82 L1811.45 1798.82 L1811.45 1790.67 L1795.85 1790.67 L1795.85 1786.16 L1810.22 1764.26 Z" fill="#000000" fill-rule="nonzero" fill-opacity="1" /><path clip-path="url(#clip680)" d="M1838.76 1767.34 Q1835.15 1767.34 1833.32 1770.9 Q1831.52 1774.45 1831.52 1781.58 Q1831.52 1788.68 1833.32 1792.25 Q1835.15 1795.79 1838.76 1795.79 Q1842.4 1795.79 1844.2 1792.25 Q1846.03 1788.68 1846.03 1781.58 Q1846.03 1774.45 1844.2 1770.9 Q1842.4 1767.34 1838.76 1767.34 M1838.76 1763.64 Q1844.57 1763.64 1847.63 1768.24 Q1850.71 1772.83 1850.71 1781.58 Q1850.71 1790.3 1847.63 1794.91 Q1844.57 1799.49 1838.76 1799.49 Q1832.95 1799.49 1829.87 1794.91 Q1826.82 1790.3 1826.82 1781.58 Q1826.82 1772.83 1829.87 1768.24 Q1832.95 1763.64 1838.76 1763.64 Z" fill="#000000" fill-rule="nonzero" fill-opacity="1" /><path clip-path="url(#clip680)" d="M2172.97 1764.26 L2191.32 1764.26 L2191.32 1768.2 L2177.25 1768.2 L2177.25 1776.67 Q2178.27 1776.32 2179.29 1776.16 Q2180.3 1775.97 2181.32 1775.97 Q2187.11 1775.97 2190.49 1779.15 Q2193.87 1782.32 2193.87 1787.73 Q2193.87 1793.31 2190.4 1796.41 Q2186.92 1799.49 2180.61 1799.49 Q2178.43 1799.49 2176.16 1799.12 Q2173.92 1798.75 2171.51 1798.01 L2171.51 1793.31 Q2173.59 1794.45 2175.81 1795 Q2178.04 1795.56 2180.51 1795.56 Q2184.52 1795.56 2186.86 1793.45 Q2189.19 1791.34 2189.19 1787.73 Q2189.19 1784.12 2186.86 1782.02 Q2184.52 1779.91 2180.51 1779.91 Q2178.64 1779.91 2176.76 1780.33 Q2174.91 1780.74 2172.97 1781.62 L2172.97 1764.26 Z" fill="#000000" fill-rule="nonzero" fill-opacity="1" /><path clip-path="url(#clip680)" d="M2213.08 1767.34 Q2209.47 1767.34 2207.64 1770.9 Q2205.84 1774.45 2205.84 1781.58 Q2205.84 1788.68 2207.64 1792.25 Q2209.47 1795.79 2213.08 1795.79 Q2216.72 1795.79 2218.52 1792.25 Q2220.35 1788.68 2220.35 1781.58 Q2220.35 1774.45 2218.52 1770.9 Q2216.72 1767.34 2213.08 1767.34 M2213.08 1763.64 Q2218.89 1763.64 2221.95 1768.24 Q2225.03 1772.83 2225.03 1781.58 Q2225.03 1790.3 2221.95 1794.91 Q2218.89 1799.49 2213.08 1799.49 Q2207.27 1799.49 2204.19 1794.91 Q2201.14 1790.3 2201.14 1781.58 Q2201.14 1772.83 2204.19 1768.24 Q2207.27 1763.64 2213.08 1763.64 Z" fill="#000000" fill-rule="nonzero" fill-opacity="1" /><path clip-path="url(#clip680)" d="M2558.66 1779.68 Q2555.51 1779.68 2553.66 1781.83 Q2551.83 1783.98 2551.83 1787.73 Q2551.83 1791.46 2553.66 1793.64 Q2555.51 1795.79 2558.66 1795.79 Q2561.81 1795.79 2563.64 1793.64 Q2565.49 1791.46 2565.49 1787.73 Q2565.49 1783.98 2563.64 1781.83 Q2561.81 1779.68 2558.66 1779.68 M2567.95 1765.02 L2567.95 1769.28 Q2566.19 1768.45 2564.38 1768.01 Q2562.6 1767.57 2560.84 1767.57 Q2556.21 1767.57 2553.76 1770.7 Q2551.32 1773.82 2550.98 1780.14 Q2552.34 1778.13 2554.4 1777.06 Q2556.46 1775.97 2558.94 1775.97 Q2564.15 1775.97 2567.16 1779.15 Q2570.19 1782.29 2570.19 1787.73 Q2570.19 1793.06 2567.04 1796.27 Q2563.89 1799.49 2558.66 1799.49 Q2552.67 1799.49 2549.5 1794.91 Q2546.32 1790.3 2546.32 1781.58 Q2546.32 1773.38 2550.21 1768.52 Q2554.1 1763.64 2560.65 1763.64 Q2562.41 1763.64 2564.2 1763.98 Q2566 1764.33 2567.95 1765.02 Z" fill="#000000" fill-rule="nonzero" fill-opacity="1" /><path clip-path="url(#clip680)" d="M2588.25 1767.34 Q2584.63 1767.34 2582.81 1770.9 Q2581 1774.45 2581 1781.58 Q2581 1788.68 2582.81 1792.25 Q2584.63 1795.79 2588.25 1795.79 Q2591.88 1795.79 2593.69 1792.25 Q2595.51 1788.68 2595.51 1781.58 Q2595.51 1774.45 2593.69 1770.9 Q2591.88 1767.34 2588.25 1767.34 M2588.25 1763.64 Q2594.06 1763.64 2597.11 1768.24 Q2600.19 1772.83 2600.19 1781.58 Q2600.19 1790.3 2597.11 1794.91 Q2594.06 1799.49 2588.25 1799.49 Q2582.44 1799.49 2579.36 1794.91 Q2576.3 1790.3 2576.3 1781.58 Q2576.3 1772.83 2579.36 1768.24 Q2582.44 1763.64 2588.25 1763.64 Z" fill="#000000" fill-rule="nonzero" fill-opacity="1" /><path clip-path="url(#clip680)" d="M1370.16 1835.78 L1410.36 1835.78 L1410.36 1841.19 L1393.49 1841.19 L1393.49 1883.3 L1387.03 1883.3 L1387.03 1841.19 L1370.16 1841.19 L1370.16 1835.78 Z" fill="#000000" fill-rule="nonzero" fill-opacity="1" /><path clip-path="url(#clip680)" d="M1414.31 1847.65 L1420.17 1847.65 L1420.17 1883.3 L1414.31 1883.3 L1414.31 1847.65 M1414.31 1833.78 L1420.17 1833.78 L1420.17 1841.19 L1414.31 1841.19 L1414.31 1833.78 Z" fill="#000000" fill-rule="nonzero" fill-opacity="1" /><path clip-path="url(#clip680)" d="M1460.17 1854.5 Q1462.37 1850.55 1465.43 1848.67 Q1468.48 1846.79 1472.62 1846.79 Q1478.19 1846.79 1481.21 1850.71 Q1484.24 1854.59 1484.24 1861.78 L1484.24 1883.3 L1478.35 1883.3 L1478.35 1861.98 Q1478.35 1856.85 1476.53 1854.37 Q1474.72 1851.89 1471 1851.89 Q1466.44 1851.89 1463.8 1854.91 Q1461.16 1857.93 1461.16 1863.15 L1461.16 1883.3 L1455.27 1883.3 L1455.27 1861.98 Q1455.27 1856.82 1453.46 1854.37 Q1451.64 1851.89 1447.86 1851.89 Q1443.37 1851.89 1440.73 1854.94 Q1438.09 1857.97 1438.09 1863.15 L1438.09 1883.3 L1432.2 1883.3 L1432.2 1847.65 L1438.09 1847.65 L1438.09 1853.19 Q1440.09 1849.91 1442.89 1848.35 Q1445.69 1846.79 1449.54 1846.79 Q1453.43 1846.79 1456.13 1848.77 Q1458.87 1850.74 1460.17 1854.5 Z" fill="#000000" fill-rule="nonzero" fill-opacity="1" /><path clip-path="url(#clip680)" d="M1526.41 1864.01 L1526.41 1866.88 L1499.48 1866.88 Q1499.86 1872.92 1503.11 1876.11 Q1506.39 1879.26 1512.21 1879.26 Q1515.59 1879.26 1518.74 1878.43 Q1521.92 1877.6 1525.04 1875.95 L1525.04 1881.49 Q1521.89 1882.82 1518.58 1883.52 Q1515.27 1884.22 1511.86 1884.22 Q1503.33 1884.22 1498.34 1879.26 Q1493.37 1874.29 1493.37 1865.83 Q1493.37 1857.07 1498.08 1851.95 Q1502.82 1846.79 1510.85 1846.79 Q1518.04 1846.79 1522.21 1851.44 Q1526.41 1856.06 1526.41 1864.01 M1520.55 1862.29 Q1520.49 1857.49 1517.85 1854.62 Q1515.24 1851.76 1510.91 1851.76 Q1506.01 1851.76 1503.05 1854.53 Q1500.12 1857.3 1499.67 1862.33 L1520.55 1862.29 Z" fill="#000000" fill-rule="nonzero" fill-opacity="1" /><polyline clip-path="url(#clip680)" style="stroke:#000000; stroke-linecap:round; stroke-linejoin:round; stroke-width:4; stroke-opacity:1; fill:none" points="255.816,1734.12 255.816,127.792 "/>
<polyline clip-path="url(#clip680)" style="stroke:#000000; stroke-linecap:round; stroke-linejoin:round; stroke-width:4; stroke-opacity:1; fill:none" points="255.816,1688.65 274.714,1688.65 "/>
<polyline clip-path="url(#clip680)" style="stroke:#000000; stroke-linecap:round; stroke-linejoin:round; stroke-width:4; stroke-opacity:1; fill:none" points="255.816,1309.8 274.714,1309.8 "/>
<polyline clip-path="url(#clip680)" style="stroke:#000000; stroke-linecap:round; stroke-linejoin:round; stroke-width:4; stroke-opacity:1; fill:none" points="255.816,930.955 274.714,930.955 "/>
<polyline clip-path="url(#clip680)" style="stroke:#000000; stroke-linecap:round; stroke-linejoin:round; stroke-width:4; stroke-opacity:1; fill:none" points="255.816,552.104 274.714,552.104 "/>
<polyline clip-path="url(#clip680)" style="stroke:#000000; stroke-linecap:round; stroke-linejoin:round; stroke-width:4; stroke-opacity:1; fill:none" points="255.816,173.254 274.714,173.254 "/>
<path clip-path="url(#clip680)" d="M128.159 1674.45 Q124.548 1674.45 122.719 1678.02 Q120.913 1681.56 120.913 1688.69 Q120.913 1695.8 122.719 1699.36 Q124.548 1702.9 128.159 1702.9 Q131.793 1702.9 133.599 1699.36 Q135.427 1695.8 135.427 1688.69 Q135.427 1681.56 133.599 1678.02 Q131.793 1674.45 128.159 1674.45 M128.159 1670.75 Q133.969 1670.75 137.025 1675.36 Q140.103 1679.94 140.103 1688.69 Q140.103 1697.42 137.025 1702.02 Q133.969 1706.61 128.159 1706.61 Q122.349 1706.61 119.27 1702.02 Q116.214 1697.42 116.214 1688.69 Q116.214 1679.94 119.27 1675.36 Q122.349 1670.75 128.159 1670.75 Z" fill="#000000" fill-rule="nonzero" fill-opacity="1" /><path clip-path="url(#clip680)" d="M148.321 1700.06 L153.205 1700.06 L153.205 1705.93 L148.321 1705.93 L148.321 1700.06 Z" fill="#000000" fill-rule="nonzero" fill-opacity="1" /><path clip-path="url(#clip680)" d="M173.39 1674.45 Q169.779 1674.45 167.95 1678.02 Q166.145 1681.56 166.145 1688.69 Q166.145 1695.8 167.95 1699.36 Q169.779 1702.9 173.39 1702.9 Q177.024 1702.9 178.83 1699.36 Q180.659 1695.8 180.659 1688.69 Q180.659 1681.56 178.83 1678.02 Q177.024 1674.45 173.39 1674.45 M173.39 1670.75 Q179.2 1670.75 182.256 1675.36 Q185.334 1679.94 185.334 1688.69 Q185.334 1697.42 182.256 1702.02 Q179.2 1706.61 173.39 1706.61 Q167.58 1706.61 164.501 1702.02 Q161.446 1697.42 161.446 1688.69 Q161.446 1679.94 164.501 1675.36 Q167.58 1670.75 173.39 1670.75 Z" fill="#000000" fill-rule="nonzero" fill-opacity="1" /><path clip-path="url(#clip680)" d="M203.552 1674.45 Q199.941 1674.45 198.112 1678.02 Q196.307 1681.56 196.307 1688.69 Q196.307 1695.8 198.112 1699.36 Q199.941 1702.9 203.552 1702.9 Q207.186 1702.9 208.992 1699.36 Q210.82 1695.8 210.82 1688.69 Q210.82 1681.56 208.992 1678.02 Q207.186 1674.45 203.552 1674.45 M203.552 1670.75 Q209.362 1670.75 212.418 1675.36 Q215.496 1679.94 215.496 1688.69 Q215.496 1697.42 212.418 1702.02 Q209.362 1706.61 203.552 1706.61 Q197.742 1706.61 194.663 1702.02 Q191.608 1697.42 191.608 1688.69 Q191.608 1679.94 194.663 1675.36 Q197.742 1670.75 203.552 1670.75 Z" fill="#000000" fill-rule="nonzero" fill-opacity="1" /><path clip-path="url(#clip680)" d="M129.154 1295.6 Q125.543 1295.6 123.714 1299.17 Q121.909 1302.71 121.909 1309.84 Q121.909 1316.95 123.714 1320.51 Q125.543 1324.05 129.154 1324.05 Q132.788 1324.05 134.594 1320.51 Q136.423 1316.95 136.423 1309.84 Q136.423 1302.71 134.594 1299.17 Q132.788 1295.6 129.154 1295.6 M129.154 1291.9 Q134.964 1291.9 138.02 1296.51 Q141.099 1301.09 141.099 1309.84 Q141.099 1318.57 138.02 1323.17 Q134.964 1327.76 129.154 1327.76 Q123.344 1327.76 120.265 1323.17 Q117.21 1318.57 117.21 1309.84 Q117.21 1301.09 120.265 1296.51 Q123.344 1291.9 129.154 1291.9 Z" fill="#000000" fill-rule="nonzero" fill-opacity="1" /><path clip-path="url(#clip680)" d="M149.316 1321.21 L154.2 1321.21 L154.2 1327.08 L149.316 1327.08 L149.316 1321.21 Z" fill="#000000" fill-rule="nonzero" fill-opacity="1" /><path clip-path="url(#clip680)" d="M168.413 1323.15 L184.733 1323.15 L184.733 1327.08 L162.788 1327.08 L162.788 1323.15 Q165.45 1320.39 170.034 1315.77 Q174.64 1311.11 175.821 1309.77 Q178.066 1307.25 178.946 1305.51 Q179.848 1303.75 179.848 1302.06 Q179.848 1299.31 177.904 1297.57 Q175.983 1295.83 172.881 1295.83 Q170.682 1295.83 168.228 1296.6 Q165.798 1297.36 163.02 1298.91 L163.02 1294.19 Q165.844 1293.06 168.297 1292.48 Q170.751 1291.9 172.788 1291.9 Q178.159 1291.9 181.353 1294.58 Q184.547 1297.27 184.547 1301.76 Q184.547 1303.89 183.737 1305.81 Q182.95 1307.71 180.844 1310.3 Q180.265 1310.97 177.163 1314.19 Q174.061 1317.39 168.413 1323.15 Z" fill="#000000" fill-rule="nonzero" fill-opacity="1" /><path clip-path="url(#clip680)" d="M194.594 1292.52 L212.95 1292.52 L212.95 1296.46 L198.876 1296.46 L198.876 1304.93 Q199.895 1304.58 200.913 1304.42 Q201.932 1304.24 202.95 1304.24 Q208.737 1304.24 212.117 1307.41 Q215.496 1310.58 215.496 1316 Q215.496 1321.58 212.024 1324.68 Q208.552 1327.76 202.233 1327.76 Q200.057 1327.76 197.788 1327.39 Q195.543 1327.02 193.135 1326.27 L193.135 1321.58 Q195.219 1322.71 197.441 1323.27 Q199.663 1323.82 202.14 1323.82 Q206.145 1323.82 208.482 1321.71 Q210.82 1319.61 210.82 1316 Q210.82 1312.39 208.482 1310.28 Q206.145 1308.17 202.14 1308.17 Q200.265 1308.17 198.39 1308.59 Q196.538 1309.01 194.594 1309.89 L194.594 1292.52 Z" fill="#000000" fill-rule="nonzero" fill-opacity="1" /><path clip-path="url(#clip680)" d="M128.159 916.753 Q124.548 916.753 122.719 920.318 Q120.913 923.86 120.913 930.989 Q120.913 938.096 122.719 941.661 Q124.548 945.202 128.159 945.202 Q131.793 945.202 133.599 941.661 Q135.427 938.096 135.427 930.989 Q135.427 923.86 133.599 920.318 Q131.793 916.753 128.159 916.753 M128.159 913.05 Q133.969 913.05 137.025 917.656 Q140.103 922.239 140.103 930.989 Q140.103 939.716 137.025 944.323 Q133.969 948.906 128.159 948.906 Q122.349 948.906 119.27 944.323 Q116.214 939.716 116.214 930.989 Q116.214 922.239 119.27 917.656 Q122.349 913.05 128.159 913.05 Z" fill="#000000" fill-rule="nonzero" fill-opacity="1" /><path clip-path="url(#clip680)" d="M148.321 942.355 L153.205 942.355 L153.205 948.235 L148.321 948.235 L148.321 942.355 Z" fill="#000000" fill-rule="nonzero" fill-opacity="1" /><path clip-path="url(#clip680)" d="M163.436 913.675 L181.793 913.675 L181.793 917.61 L167.719 917.61 L167.719 926.082 Q168.737 925.735 169.756 925.573 Q170.774 925.387 171.793 925.387 Q177.58 925.387 180.959 928.559 Q184.339 931.73 184.339 937.147 Q184.339 942.725 180.867 945.827 Q177.395 948.906 171.075 948.906 Q168.899 948.906 166.631 948.535 Q164.385 948.165 161.978 947.424 L161.978 942.725 Q164.061 943.86 166.284 944.415 Q168.506 944.971 170.983 944.971 Q174.987 944.971 177.325 942.864 Q179.663 940.758 179.663 937.147 Q179.663 933.536 177.325 931.429 Q174.987 929.323 170.983 929.323 Q169.108 929.323 167.233 929.739 Q165.381 930.156 163.436 931.036 L163.436 913.675 Z" fill="#000000" fill-rule="nonzero" fill-opacity="1" /><path clip-path="url(#clip680)" d="M203.552 916.753 Q199.941 916.753 198.112 920.318 Q196.307 923.86 196.307 930.989 Q196.307 938.096 198.112 941.661 Q199.941 945.202 203.552 945.202 Q207.186 945.202 208.992 941.661 Q210.82 938.096 210.82 930.989 Q210.82 923.86 208.992 920.318 Q207.186 916.753 203.552 916.753 M203.552 913.05 Q209.362 913.05 212.418 917.656 Q215.496 922.239 215.496 930.989 Q215.496 939.716 212.418 944.323 Q209.362 948.906 203.552 948.906 Q197.742 948.906 194.663 944.323 Q191.608 939.716 191.608 930.989 Q191.608 922.239 194.663 917.656 Q197.742 913.05 203.552 913.05 Z" fill="#000000" fill-rule="nonzero" fill-opacity="1" /><path clip-path="url(#clip680)" d="M129.154 537.903 Q125.543 537.903 123.714 541.468 Q121.909 545.009 121.909 552.139 Q121.909 559.246 123.714 562.81 Q125.543 566.352 129.154 566.352 Q132.788 566.352 134.594 562.81 Q136.423 559.246 136.423 552.139 Q136.423 545.009 134.594 541.468 Q132.788 537.903 129.154 537.903 M129.154 534.199 Q134.964 534.199 138.02 538.806 Q141.099 543.389 141.099 552.139 Q141.099 560.866 138.02 565.472 Q134.964 570.056 129.154 570.056 Q123.344 570.056 120.265 565.472 Q117.21 560.866 117.21 552.139 Q117.21 543.389 120.265 538.806 Q123.344 534.199 129.154 534.199 Z" fill="#000000" fill-rule="nonzero" fill-opacity="1" /><path clip-path="url(#clip680)" d="M149.316 563.505 L154.2 563.505 L154.2 569.384 L149.316 569.384 L149.316 563.505 Z" fill="#000000" fill-rule="nonzero" fill-opacity="1" /><path clip-path="url(#clip680)" d="M163.205 534.824 L185.427 534.824 L185.427 536.815 L172.881 569.384 L167.997 569.384 L179.802 538.76 L163.205 538.76 L163.205 534.824 Z" fill="#000000" fill-rule="nonzero" fill-opacity="1" /><path clip-path="url(#clip680)" d="M194.594 534.824 L212.95 534.824 L212.95 538.76 L198.876 538.76 L198.876 547.232 Q199.895 546.884 200.913 546.722 Q201.932 546.537 202.95 546.537 Q208.737 546.537 212.117 549.709 Q215.496 552.88 215.496 558.296 Q215.496 563.875 212.024 566.977 Q208.552 570.056 202.233 570.056 Q200.057 570.056 197.788 569.685 Q195.543 569.315 193.135 568.574 L193.135 563.875 Q195.219 565.009 197.441 565.565 Q199.663 566.12 202.14 566.12 Q206.145 566.12 208.482 564.014 Q210.82 561.908 210.82 558.296 Q210.82 554.685 208.482 552.579 Q206.145 550.472 202.14 550.472 Q200.265 550.472 198.39 550.889 Q196.538 551.306 194.594 552.185 L194.594 534.824 Z" fill="#000000" fill-rule="nonzero" fill-opacity="1" /><path clip-path="url(#clip680)" d="M118.969 186.599 L126.608 186.599 L126.608 160.233 L118.298 161.9 L118.298 157.641 L126.562 155.974 L131.238 155.974 L131.238 186.599 L138.876 186.599 L138.876 190.534 L118.969 190.534 L118.969 186.599 Z" fill="#000000" fill-rule="nonzero" fill-opacity="1" /><path clip-path="url(#clip680)" d="M148.321 184.655 L153.205 184.655 L153.205 190.534 L148.321 190.534 L148.321 184.655 Z" fill="#000000" fill-rule="nonzero" fill-opacity="1" /><path clip-path="url(#clip680)" d="M173.39 159.053 Q169.779 159.053 167.95 162.618 Q166.145 166.159 166.145 173.289 Q166.145 180.395 167.95 183.96 Q169.779 187.502 173.39 187.502 Q177.024 187.502 178.83 183.96 Q180.659 180.395 180.659 173.289 Q180.659 166.159 178.83 162.618 Q177.024 159.053 173.39 159.053 M173.39 155.349 Q179.2 155.349 182.256 159.956 Q185.334 164.539 185.334 173.289 Q185.334 182.016 182.256 186.622 Q179.2 191.205 173.39 191.205 Q167.58 191.205 164.501 186.622 Q161.446 182.016 161.446 173.289 Q161.446 164.539 164.501 159.956 Q167.58 155.349 173.39 155.349 Z" fill="#000000" fill-rule="nonzero" fill-opacity="1" /><path clip-path="url(#clip680)" d="M203.552 159.053 Q199.941 159.053 198.112 162.618 Q196.307 166.159 196.307 173.289 Q196.307 180.395 198.112 183.96 Q199.941 187.502 203.552 187.502 Q207.186 187.502 208.992 183.96 Q210.82 180.395 210.82 173.289 Q210.82 166.159 208.992 162.618 Q207.186 159.053 203.552 159.053 M203.552 155.349 Q209.362 155.349 212.418 159.956 Q215.496 164.539 215.496 173.289 Q215.496 182.016 212.418 186.622 Q209.362 191.205 203.552 191.205 Q197.742 191.205 194.663 186.622 Q191.608 182.016 191.608 173.289 Q191.608 164.539 194.663 159.956 Q197.742 155.349 203.552 155.349 Z" fill="#000000" fill-rule="nonzero" fill-opacity="1" /><path clip-path="url(#clip680)" d="M19.402 1096.29 L37.2578 1096.29 L37.2578 1088.2 Q37.2578 1083.72 34.9343 1081.26 Q32.6108 1078.81 28.314 1078.81 Q24.0489 1078.81 21.7255 1081.26 Q19.402 1083.72 19.402 1088.2 L19.402 1096.29 M14.1184 1102.72 L14.1184 1088.2 Q14.1184 1080.21 17.7469 1076.14 Q21.3435 1072.03 28.314 1072.03 Q35.3481 1072.03 38.9447 1076.14 Q42.5413 1080.21 42.5413 1088.2 L42.5413 1096.29 L61.6384 1096.29 L61.6384 1102.72 L14.1184 1102.72 Z" fill="#000000" fill-rule="nonzero" fill-opacity="1" /><path clip-path="url(#clip680)" d="M12.1769 1049.6 Q19.4975 1053.86 26.6589 1055.93 Q33.8203 1058 41.1727 1058 Q48.5251 1058 55.7502 1055.93 Q62.9434 1053.83 70.2321 1049.6 L70.2321 1054.69 Q62.7524 1059.46 55.5274 1061.85 Q48.3023 1064.2 41.1727 1064.2 Q34.0749 1064.2 26.8817 1061.85 Q19.6884 1059.49 12.1769 1054.69 L12.1769 1049.6 Z" fill="#000000" fill-rule="nonzero" fill-opacity="1" /><path clip-path="url(#clip680)" d="M25.9905 1038.23 L25.9905 1032.38 L61.6384 1032.38 L61.6384 1038.23 L25.9905 1038.23 M12.1132 1038.23 L12.1132 1032.38 L19.5293 1032.38 L19.5293 1038.23 L12.1132 1038.23 Z" fill="#000000" fill-rule="nonzero" fill-opacity="1" /><path clip-path="url(#clip680)" d="M40.1224 990.49 L61.6384 990.49 L61.6384 996.346 L40.3133 996.346 Q35.2526 996.346 32.7381 998.32 Q30.2237 1000.29 30.2237 1004.24 Q30.2237 1008.98 33.2474 1011.72 Q36.2711 1014.46 41.491 1014.46 L61.6384 1014.46 L61.6384 1020.34 L25.9905 1020.34 L25.9905 1014.46 L31.5287 1014.46 Q28.314 1012.36 26.7225 1009.52 Q25.1311 1006.66 25.1311 1002.93 Q25.1311 996.792 28.9505 993.641 Q32.7381 990.49 40.1224 990.49 Z" fill="#000000" fill-rule="nonzero" fill-opacity="1" /><path clip-path="url(#clip680)" d="M12.1132 960.762 L16.983 960.762 L16.983 966.364 Q16.983 969.515 18.2562 970.756 Q19.5293 971.966 22.8395 971.966 L25.9905 971.966 L25.9905 962.322 L30.542 962.322 L30.542 971.966 L61.6384 971.966 L61.6384 977.854 L30.542 977.854 L30.542 983.456 L25.9905 983.456 L25.9905 977.854 L23.5079 977.854 Q17.5559 977.854 14.8505 975.085 Q12.1132 972.316 12.1132 966.3 L12.1132 960.762 Z" fill="#000000" fill-rule="nonzero" fill-opacity="1" /><path clip-path="url(#clip680)" d="M42.3504 925.369 L45.2149 925.369 L45.2149 952.296 Q51.2623 951.914 54.4452 948.667 Q57.5962 945.389 57.5962 939.564 Q57.5962 936.19 56.7687 933.039 Q55.9411 929.856 54.2861 926.737 L59.8242 926.737 Q61.161 929.888 61.8612 933.198 Q62.5615 936.509 62.5615 939.914 Q62.5615 948.444 57.5962 953.441 Q52.631 958.407 44.1646 958.407 Q35.4117 958.407 30.2873 953.696 Q25.1311 948.954 25.1311 940.933 Q25.1311 933.74 29.7781 929.57 Q34.3932 925.369 42.3504 925.369 M40.6316 931.225 Q35.8255 931.289 32.9609 933.931 Q30.0964 936.54 30.0964 940.869 Q30.0964 945.771 32.8654 948.731 Q35.6345 951.659 40.6634 952.105 L40.6316 931.225 Z" fill="#000000" fill-rule="nonzero" fill-opacity="1" /><path clip-path="url(#clip680)" d="M27.3591 890.103 L32.8336 890.103 Q31.465 892.585 30.7966 895.1 Q30.0964 897.582 30.0964 900.129 Q30.0964 905.826 33.7248 908.977 Q37.3214 912.128 43.8463 912.128 Q50.3711 912.128 53.9996 908.977 Q57.5962 905.826 57.5962 900.129 Q57.5962 897.582 56.9278 895.1 Q56.2276 892.585 54.859 890.103 L60.2698 890.103 Q61.4156 892.553 61.9886 895.195 Q62.5615 897.805 62.5615 900.765 Q62.5615 908.818 57.5007 913.56 Q52.44 918.303 43.8463 918.303 Q35.1253 918.303 30.1282 913.528 Q25.1311 908.722 25.1311 900.383 Q25.1311 897.678 25.704 895.1 Q26.2451 892.522 27.3591 890.103 Z" fill="#000000" fill-rule="nonzero" fill-opacity="1" /><path clip-path="url(#clip680)" d="M15.869 874.125 L25.9905 874.125 L25.9905 862.062 L30.542 862.062 L30.542 874.125 L49.8937 874.125 Q54.2542 874.125 55.4955 872.947 Q56.7368 871.738 56.7368 868.077 L56.7368 862.062 L61.6384 862.062 L61.6384 868.077 Q61.6384 874.857 59.124 877.435 Q56.5777 880.013 49.8937 880.013 L30.542 880.013 L30.542 884.31 L25.9905 884.31 L25.9905 880.013 L15.869 880.013 L15.869 874.125 Z" fill="#000000" fill-rule="nonzero" fill-opacity="1" /><path clip-path="url(#clip680)" d="M42.3504 823.867 L45.2149 823.867 L45.2149 850.794 Q51.2623 850.412 54.4452 847.166 Q57.5962 843.888 57.5962 838.063 Q57.5962 834.689 56.7687 831.538 Q55.9411 828.355 54.2861 825.236 L59.8242 825.236 Q61.161 828.387 61.8612 831.697 Q62.5615 835.007 62.5615 838.413 Q62.5615 846.943 57.5962 851.94 Q52.631 856.905 44.1646 856.905 Q35.4117 856.905 30.2873 852.195 Q25.1311 847.452 25.1311 839.432 Q25.1311 832.238 29.7781 828.069 Q34.3932 823.867 42.3504 823.867 M40.6316 829.724 Q35.8255 829.788 32.9609 832.429 Q30.0964 835.039 30.0964 839.368 Q30.0964 844.27 32.8654 847.23 Q35.6345 850.158 40.6634 850.603 L40.6316 829.724 Z" fill="#000000" fill-rule="nonzero" fill-opacity="1" /><path clip-path="url(#clip680)" d="M31.4013 790.798 L12.1132 790.798 L12.1132 784.941 L61.6384 784.941 L61.6384 790.798 L56.2912 790.798 Q59.4741 792.644 61.0337 795.476 Q62.5615 798.277 62.5615 802.224 Q62.5615 808.685 57.4052 812.759 Q52.249 816.802 43.8463 816.802 Q35.4436 816.802 30.2873 812.759 Q25.1311 808.685 25.1311 802.224 Q25.1311 798.277 26.6907 795.476 Q28.2185 792.644 31.4013 790.798 M43.8463 810.754 Q50.3075 810.754 53.9996 808.112 Q57.6599 805.439 57.6599 800.792 Q57.6599 796.145 53.9996 793.471 Q50.3075 790.798 43.8463 790.798 Q37.3851 790.798 33.7248 793.471 Q30.0327 796.145 30.0327 800.792 Q30.0327 805.439 33.7248 808.112 Q37.3851 810.754 43.8463 810.754 Z" fill="#000000" fill-rule="nonzero" fill-opacity="1" /><path clip-path="url(#clip680)" d="M12.1769 773.801 L12.1769 768.709 Q19.6884 763.934 26.8817 761.579 Q34.0749 759.192 41.1727 759.192 Q48.3023 759.192 55.5274 761.579 Q62.7524 763.934 70.2321 768.709 L70.2321 773.801 Q62.9434 769.568 55.7502 767.499 Q48.5251 765.398 41.1727 765.398 Q33.8203 765.398 26.6589 767.499 Q19.4975 769.568 12.1769 773.801 Z" fill="#000000" fill-rule="nonzero" fill-opacity="1" /><path clip-path="url(#clip680)" d="M659.393 18.8205 L659.393 41.5461 L669.682 41.5461 Q675.394 41.5461 678.513 38.5889 Q681.632 35.6318 681.632 30.163 Q681.632 24.7348 678.513 21.7777 Q675.394 18.8205 669.682 18.8205 L659.393 18.8205 M651.21 12.096 L669.682 12.096 Q679.85 12.096 685.035 16.714 Q690.261 21.2916 690.261 30.163 Q690.261 39.1155 685.035 43.6931 Q679.85 48.2706 669.682 48.2706 L659.393 48.2706 L659.393 72.576 L651.21 72.576 L651.21 12.096 Z" fill="#000000" fill-rule="nonzero" fill-opacity="1" /><path clip-path="url(#clip680)" d="M736.765 48.0275 L736.765 51.6733 L702.494 51.6733 Q702.98 59.3701 707.112 63.421 Q711.285 67.4314 718.698 67.4314 Q722.992 67.4314 727.002 66.3781 Q731.053 65.3249 735.023 63.2184 L735.023 70.267 Q731.013 71.9684 726.8 72.8596 Q722.587 73.7508 718.252 73.7508 Q707.396 73.7508 701.036 67.4314 Q694.717 61.1119 694.717 50.3365 Q694.717 39.1965 700.712 32.6746 Q706.748 26.1121 716.956 26.1121 Q726.111 26.1121 731.418 32.0264 Q736.765 37.9003 736.765 48.0275 M729.311 45.84 Q729.23 39.7232 725.868 36.0774 Q722.546 32.4315 717.037 32.4315 Q710.799 32.4315 707.031 35.9558 Q703.305 39.4801 702.737 45.8805 L729.311 45.84 Z" fill="#000000" fill-rule="nonzero" fill-opacity="1" /><path clip-path="url(#clip680)" d="M775.289 34.1734 Q774.033 33.4443 772.535 33.1202 Q771.076 32.7556 769.294 32.7556 Q762.974 32.7556 759.572 36.8875 Q756.209 40.9789 756.209 48.6757 L756.209 72.576 L748.715 72.576 L748.715 27.2059 L756.209 27.2059 L756.209 34.2544 Q758.559 30.1225 762.326 28.1376 Q766.094 26.1121 771.481 26.1121 Q772.251 26.1121 773.183 26.2337 Q774.114 26.3147 775.249 26.5172 L775.289 34.1734 Z" fill="#000000" fill-rule="nonzero" fill-opacity="1" /><path clip-path="url(#clip680)" d="M774.033 46.5287 L795.868 46.5287 L795.868 53.1722 L774.033 53.1722 L774.033 46.5287 Z" fill="#000000" fill-rule="nonzero" fill-opacity="1" /><path clip-path="url(#clip680)" d="M845.451 45.1919 L845.451 72.576 L837.997 72.576 L837.997 45.4349 Q837.997 38.994 835.486 35.7938 Q832.974 32.5936 827.951 32.5936 Q821.915 32.5936 818.431 36.4419 Q814.947 40.2903 814.947 46.9338 L814.947 72.576 L807.453 72.576 L807.453 27.2059 L814.947 27.2059 L814.947 34.2544 Q817.621 30.163 821.226 28.1376 Q824.872 26.1121 829.612 26.1121 Q837.43 26.1121 841.44 30.9732 Q845.451 35.7938 845.451 45.1919 Z" fill="#000000" fill-rule="nonzero" fill-opacity="1" /><path clip-path="url(#clip680)" d="M877.899 32.4315 Q871.903 32.4315 868.419 37.1306 Q864.936 41.7891 864.936 49.9314 Q864.936 58.0738 868.379 62.7728 Q871.863 67.4314 877.899 67.4314 Q883.853 67.4314 887.337 62.7323 Q890.821 58.0333 890.821 49.9314 Q890.821 41.8701 887.337 37.1711 Q883.853 32.4315 877.899 32.4315 M877.899 26.1121 Q887.621 26.1121 893.17 32.4315 Q898.72 38.7509 898.72 49.9314 Q898.72 61.0714 893.17 67.4314 Q887.621 73.7508 877.899 73.7508 Q868.136 73.7508 862.586 67.4314 Q857.077 61.0714 857.077 49.9314 Q857.077 38.7509 862.586 32.4315 Q868.136 26.1121 877.899 26.1121 Z" fill="#000000" fill-rule="nonzero" fill-opacity="1" /><path clip-path="url(#clip680)" d="M940.931 34.0924 L940.931 9.54393 L948.384 9.54393 L948.384 72.576 L940.931 72.576 L940.931 65.7705 Q938.581 69.8214 934.976 71.8063 Q931.411 73.7508 926.388 73.7508 Q918.165 73.7508 912.979 67.1883 Q907.835 60.6258 907.835 49.9314 Q907.835 39.2371 912.979 32.6746 Q918.165 26.1121 926.388 26.1121 Q931.411 26.1121 934.976 28.0971 Q938.581 30.0415 940.931 34.0924 M915.531 49.9314 Q915.531 58.1548 918.894 62.8538 Q922.296 67.5124 928.211 67.5124 Q934.125 67.5124 937.528 62.8538 Q940.931 58.1548 940.931 49.9314 Q940.931 41.7081 937.528 37.0496 Q934.125 32.3505 928.211 32.3505 Q922.296 32.3505 918.894 37.0496 Q915.531 41.7081 915.531 49.9314 Z" fill="#000000" fill-rule="nonzero" fill-opacity="1" /><path clip-path="url(#clip680)" d="M1002.54 48.0275 L1002.54 51.6733 L968.274 51.6733 Q968.76 59.3701 972.892 63.421 Q977.065 67.4314 984.478 67.4314 Q988.772 67.4314 992.782 66.3781 Q996.833 65.3249 1000.8 63.2184 L1000.8 70.267 Q996.793 71.9684 992.58 72.8596 Q988.367 73.7508 984.032 73.7508 Q973.176 73.7508 966.816 67.4314 Q960.496 61.1119 960.496 50.3365 Q960.496 39.1965 966.492 32.6746 Q972.528 26.1121 982.736 26.1121 Q991.891 26.1121 997.198 32.0264 Q1002.54 37.9003 1002.54 48.0275 M995.091 45.84 Q995.01 39.7232 991.648 36.0774 Q988.326 32.4315 982.817 32.4315 Q976.579 32.4315 972.811 35.9558 Q969.084 39.4801 968.517 45.8805 L995.091 45.84 Z" fill="#000000" fill-rule="nonzero" fill-opacity="1" /><path clip-path="url(#clip680)" d="M1041.15 27.2059 L1048.6 27.2059 L1048.6 72.576 L1041.15 72.576 L1041.15 27.2059 M1041.15 9.54393 L1048.6 9.54393 L1048.6 18.9825 L1041.15 18.9825 L1041.15 9.54393 Z" fill="#000000" fill-rule="nonzero" fill-opacity="1" /><path clip-path="url(#clip680)" d="M1101.91 45.1919 L1101.91 72.576 L1094.46 72.576 L1094.46 45.4349 Q1094.46 38.994 1091.95 35.7938 Q1089.44 32.5936 1084.41 32.5936 Q1078.38 32.5936 1074.89 36.4419 Q1071.41 40.2903 1071.41 46.9338 L1071.41 72.576 L1063.92 72.576 L1063.92 27.2059 L1071.41 27.2059 L1071.41 34.2544 Q1074.08 30.163 1077.69 28.1376 Q1081.33 26.1121 1086.07 26.1121 Q1093.89 26.1121 1097.9 30.9732 Q1101.91 35.7938 1101.91 45.1919 Z" fill="#000000" fill-rule="nonzero" fill-opacity="1" /><path clip-path="url(#clip680)" d="M1139.75 9.54393 L1139.75 15.7418 L1132.62 15.7418 Q1128.61 15.7418 1127.03 17.3622 Q1125.49 18.9825 1125.49 23.1955 L1125.49 27.2059 L1137.76 27.2059 L1137.76 32.9987 L1125.49 32.9987 L1125.49 72.576 L1118 72.576 L1118 32.9987 L1110.87 32.9987 L1110.87 27.2059 L1118 27.2059 L1118 24.0462 Q1118 16.471 1121.52 13.0277 Q1125.04 9.54393 1132.7 9.54393 L1139.75 9.54393 Z" fill="#000000" fill-rule="nonzero" fill-opacity="1" /><path clip-path="url(#clip680)" d="M1184.8 48.0275 L1184.8 51.6733 L1150.52 51.6733 Q1151.01 59.3701 1155.14 63.421 Q1159.31 67.4314 1166.73 67.4314 Q1171.02 67.4314 1175.03 66.3781 Q1179.08 65.3249 1183.05 63.2184 L1183.05 70.267 Q1179.04 71.9684 1174.83 72.8596 Q1170.62 73.7508 1166.28 73.7508 Q1155.43 73.7508 1149.07 67.4314 Q1142.75 61.1119 1142.75 50.3365 Q1142.75 39.1965 1148.74 32.6746 Q1154.78 26.1121 1164.99 26.1121 Q1174.14 26.1121 1179.45 32.0264 Q1184.8 37.9003 1184.8 48.0275 M1177.34 45.84 Q1177.26 39.7232 1173.9 36.0774 Q1170.58 32.4315 1165.07 32.4315 Q1158.83 32.4315 1155.06 35.9558 Q1151.33 39.4801 1150.77 45.8805 L1177.34 45.84 Z" fill="#000000" fill-rule="nonzero" fill-opacity="1" /><path clip-path="url(#clip680)" d="M1229.68 28.9478 L1229.68 35.9153 Q1226.52 34.1734 1223.32 33.3227 Q1220.16 32.4315 1216.92 32.4315 Q1209.67 32.4315 1205.66 37.0496 Q1201.65 41.6271 1201.65 49.9314 Q1201.65 58.2358 1205.66 62.8538 Q1209.67 67.4314 1216.92 67.4314 Q1220.16 67.4314 1223.32 66.5807 Q1226.52 65.6895 1229.68 63.9476 L1229.68 70.8341 Q1226.56 72.2924 1223.2 73.0216 Q1219.88 73.7508 1216.11 73.7508 Q1205.86 73.7508 1199.82 67.3098 Q1193.79 60.8689 1193.79 49.9314 Q1193.79 38.832 1199.86 32.472 Q1205.98 26.1121 1216.59 26.1121 Q1220.04 26.1121 1223.32 26.8413 Q1226.6 27.5299 1229.68 28.9478 Z" fill="#000000" fill-rule="nonzero" fill-opacity="1" /><path clip-path="url(#clip680)" d="M1250.01 14.324 L1250.01 27.2059 L1265.37 27.2059 L1265.37 32.9987 L1250.01 32.9987 L1250.01 57.6282 Q1250.01 63.1779 1251.51 64.7578 Q1253.05 66.3376 1257.71 66.3376 L1265.37 66.3376 L1265.37 72.576 L1257.71 72.576 Q1249.08 72.576 1245.8 69.3758 Q1242.52 66.1351 1242.52 57.6282 L1242.52 32.9987 L1237.05 32.9987 L1237.05 27.2059 L1242.52 27.2059 L1242.52 14.324 L1250.01 14.324 Z" fill="#000000" fill-rule="nonzero" fill-opacity="1" /><path clip-path="url(#clip680)" d="M1275.17 27.2059 L1282.62 27.2059 L1282.62 72.576 L1275.17 72.576 L1275.17 27.2059 M1275.17 9.54393 L1282.62 9.54393 L1282.62 18.9825 L1275.17 18.9825 L1275.17 9.54393 Z" fill="#000000" fill-rule="nonzero" fill-opacity="1" /><path clip-path="url(#clip680)" d="M1315.8 32.4315 Q1309.81 32.4315 1306.32 37.1306 Q1302.84 41.7891 1302.84 49.9314 Q1302.84 58.0738 1306.28 62.7728 Q1309.77 67.4314 1315.8 67.4314 Q1321.76 67.4314 1325.24 62.7323 Q1328.72 58.0333 1328.72 49.9314 Q1328.72 41.8701 1325.24 37.1711 Q1321.76 32.4315 1315.8 32.4315 M1315.8 26.1121 Q1325.52 26.1121 1331.07 32.4315 Q1336.62 38.7509 1336.62 49.9314 Q1336.62 61.0714 1331.07 67.4314 Q1325.52 73.7508 1315.8 73.7508 Q1306.04 73.7508 1300.49 67.4314 Q1294.98 61.0714 1294.98 49.9314 Q1294.98 38.7509 1300.49 32.4315 Q1306.04 26.1121 1315.8 26.1121 Z" fill="#000000" fill-rule="nonzero" fill-opacity="1" /><path clip-path="url(#clip680)" d="M1386.69 45.1919 L1386.69 72.576 L1379.24 72.576 L1379.24 45.4349 Q1379.24 38.994 1376.73 35.7938 Q1374.22 32.5936 1369.19 32.5936 Q1363.16 32.5936 1359.67 36.4419 Q1356.19 40.2903 1356.19 46.9338 L1356.19 72.576 L1348.69 72.576 L1348.69 27.2059 L1356.19 27.2059 L1356.19 34.2544 Q1358.86 30.163 1362.47 28.1376 Q1366.11 26.1121 1370.85 26.1121 Q1378.67 26.1121 1382.68 30.9732 Q1386.69 35.7938 1386.69 45.1919 Z" fill="#000000" fill-rule="nonzero" fill-opacity="1" /><path clip-path="url(#clip680)" d="M1435.14 65.7705 L1435.14 89.8329 L1427.65 89.8329 L1427.65 27.2059 L1435.14 27.2059 L1435.14 34.0924 Q1437.49 30.0415 1441.06 28.0971 Q1444.66 26.1121 1449.64 26.1121 Q1457.91 26.1121 1463.05 32.6746 Q1468.24 39.2371 1468.24 49.9314 Q1468.24 60.6258 1463.05 67.1883 Q1457.91 73.7508 1449.64 73.7508 Q1444.66 73.7508 1441.06 71.8063 Q1437.49 69.8214 1435.14 65.7705 M1460.5 49.9314 Q1460.5 41.7081 1457.1 37.0496 Q1453.73 32.3505 1447.82 32.3505 Q1441.91 32.3505 1438.5 37.0496 Q1435.14 41.7081 1435.14 49.9314 Q1435.14 58.1548 1438.5 62.8538 Q1441.91 67.5124 1447.82 67.5124 Q1453.73 67.5124 1457.1 62.8538 Q1460.5 58.1548 1460.5 49.9314 Z" fill="#000000" fill-rule="nonzero" fill-opacity="1" /><path clip-path="url(#clip680)" d="M1506.88 34.1734 Q1505.63 33.4443 1504.13 33.1202 Q1502.67 32.7556 1500.89 32.7556 Q1494.57 32.7556 1491.16 36.8875 Q1487.8 40.9789 1487.8 48.6757 L1487.8 72.576 L1480.31 72.576 L1480.31 27.2059 L1487.8 27.2059 L1487.8 34.2544 Q1490.15 30.1225 1493.92 28.1376 Q1497.69 26.1121 1503.07 26.1121 Q1503.84 26.1121 1504.78 26.2337 Q1505.71 26.3147 1506.84 26.5172 L1506.88 34.1734 Z" fill="#000000" fill-rule="nonzero" fill-opacity="1" /><path clip-path="url(#clip680)" d="M1530.46 32.4315 Q1524.46 32.4315 1520.98 37.1306 Q1517.5 41.7891 1517.5 49.9314 Q1517.5 58.0738 1520.94 62.7728 Q1524.42 67.4314 1530.46 67.4314 Q1536.41 67.4314 1539.9 62.7323 Q1543.38 58.0333 1543.38 49.9314 Q1543.38 41.8701 1539.9 37.1711 Q1536.41 32.4315 1530.46 32.4315 M1530.46 26.1121 Q1540.18 26.1121 1545.73 32.4315 Q1551.28 38.7509 1551.28 49.9314 Q1551.28 61.0714 1545.73 67.4314 Q1540.18 73.7508 1530.46 73.7508 Q1520.7 73.7508 1515.15 67.4314 Q1509.64 61.0714 1509.64 49.9314 Q1509.64 38.7509 1515.15 32.4315 Q1520.7 26.1121 1530.46 26.1121 Z" fill="#000000" fill-rule="nonzero" fill-opacity="1" /><path clip-path="url(#clip680)" d="M1596.2 49.9314 Q1596.2 41.7081 1592.8 37.0496 Q1589.44 32.3505 1583.53 32.3505 Q1577.61 32.3505 1574.21 37.0496 Q1570.85 41.7081 1570.85 49.9314 Q1570.85 58.1548 1574.21 62.8538 Q1577.61 67.5124 1583.53 67.5124 Q1589.44 67.5124 1592.8 62.8538 Q1596.2 58.1548 1596.2 49.9314 M1570.85 34.0924 Q1573.2 30.0415 1576.76 28.0971 Q1580.37 26.1121 1585.35 26.1121 Q1593.61 26.1121 1598.76 32.6746 Q1603.94 39.2371 1603.94 49.9314 Q1603.94 60.6258 1598.76 67.1883 Q1593.61 73.7508 1585.35 73.7508 Q1580.37 73.7508 1576.76 71.8063 Q1573.2 69.8214 1570.85 65.7705 L1570.85 72.576 L1563.35 72.576 L1563.35 9.54393 L1570.85 9.54393 L1570.85 34.0924 Z" fill="#000000" fill-rule="nonzero" fill-opacity="1" /><path clip-path="url(#clip680)" d="M1636.92 49.7694 Q1627.88 49.7694 1624.4 51.8354 Q1620.92 53.9013 1620.92 58.8839 Q1620.92 62.8538 1623.51 65.2034 Q1626.14 67.5124 1630.64 67.5124 Q1636.84 67.5124 1640.56 63.1374 Q1644.33 58.7219 1644.33 51.4303 L1644.33 49.7694 L1636.92 49.7694 M1651.78 46.6907 L1651.78 72.576 L1644.33 72.576 L1644.33 65.6895 Q1641.78 69.8214 1637.97 71.8063 Q1634.16 73.7508 1628.65 73.7508 Q1621.69 73.7508 1617.55 69.8619 Q1613.46 65.9325 1613.46 59.3701 Q1613.46 51.7138 1618.57 47.825 Q1623.71 43.9361 1633.88 43.9361 L1644.33 43.9361 L1644.33 43.2069 Q1644.33 38.0623 1640.93 35.2672 Q1637.56 32.4315 1631.45 32.4315 Q1627.56 32.4315 1623.87 33.3632 Q1620.19 34.295 1616.78 36.1584 L1616.78 29.2718 Q1620.87 27.692 1624.72 26.9223 Q1628.57 26.1121 1632.22 26.1121 Q1642.06 26.1121 1646.92 31.2163 Q1651.78 36.3204 1651.78 46.6907 Z" fill="#000000" fill-rule="nonzero" fill-opacity="1" /><path clip-path="url(#clip680)" d="M1699.71 49.9314 Q1699.71 41.7081 1696.3 37.0496 Q1692.94 32.3505 1687.03 32.3505 Q1681.11 32.3505 1677.71 37.0496 Q1674.35 41.7081 1674.35 49.9314 Q1674.35 58.1548 1677.71 62.8538 Q1681.11 67.5124 1687.03 67.5124 Q1692.94 67.5124 1696.3 62.8538 Q1699.71 58.1548 1699.71 49.9314 M1674.35 34.0924 Q1676.7 30.0415 1680.26 28.0971 Q1683.87 26.1121 1688.85 26.1121 Q1697.11 26.1121 1702.26 32.6746 Q1707.44 39.2371 1707.44 49.9314 Q1707.44 60.6258 1702.26 67.1883 Q1697.11 73.7508 1688.85 73.7508 Q1683.87 73.7508 1680.26 71.8063 Q1676.7 69.8214 1674.35 65.7705 L1674.35 72.576 L1666.85 72.576 L1666.85 9.54393 L1674.35 9.54393 L1674.35 34.0924 Z" fill="#000000" fill-rule="nonzero" fill-opacity="1" /><path clip-path="url(#clip680)" d="M1719.8 27.2059 L1727.25 27.2059 L1727.25 72.576 L1719.8 72.576 L1719.8 27.2059 M1719.8 9.54393 L1727.25 9.54393 L1727.25 18.9825 L1719.8 18.9825 L1719.8 9.54393 Z" fill="#000000" fill-rule="nonzero" fill-opacity="1" /><path clip-path="url(#clip680)" d="M1742.85 9.54393 L1750.3 9.54393 L1750.3 72.576 L1742.85 72.576 L1742.85 9.54393 Z" fill="#000000" fill-rule="nonzero" fill-opacity="1" /><path clip-path="url(#clip680)" d="M1765.9 27.2059 L1773.35 27.2059 L1773.35 72.576 L1765.9 72.576 L1765.9 27.2059 M1765.9 9.54393 L1773.35 9.54393 L1773.35 18.9825 L1765.9 18.9825 L1765.9 9.54393 Z" fill="#000000" fill-rule="nonzero" fill-opacity="1" /><path clip-path="url(#clip680)" d="M1796.32 14.324 L1796.32 27.2059 L1811.67 27.2059 L1811.67 32.9987 L1796.32 32.9987 L1796.32 57.6282 Q1796.32 63.1779 1797.82 64.7578 Q1799.36 66.3376 1804.02 66.3376 L1811.67 66.3376 L1811.67 72.576 L1804.02 72.576 Q1795.39 72.576 1792.11 69.3758 Q1788.83 66.1351 1788.83 57.6282 L1788.83 32.9987 L1783.36 32.9987 L1783.36 27.2059 L1788.83 27.2059 L1788.83 14.324 L1796.32 14.324 Z" fill="#000000" fill-rule="nonzero" fill-opacity="1" /><path clip-path="url(#clip680)" d="M1840.35 76.7889 Q1837.19 84.8907 1834.2 87.3618 Q1831.2 89.8329 1826.17 89.8329 L1820.22 89.8329 L1820.22 83.5945 L1824.59 83.5945 Q1827.67 83.5945 1829.37 82.1361 Q1831.08 80.6778 1833.14 75.2496 L1834.48 71.8468 L1816.13 27.2059 L1824.03 27.2059 L1838.21 62.6918 L1852.38 27.2059 L1860.28 27.2059 L1840.35 76.7889 Z" fill="#000000" fill-rule="nonzero" fill-opacity="1" /><path clip-path="url(#clip680)" d="M1914.85 9.62495 Q1909.42 18.942 1906.79 28.0566 Q1904.15 37.1711 1904.15 46.5287 Q1904.15 55.8863 1906.79 65.0818 Q1909.46 74.2369 1914.85 83.5134 L1908.37 83.5134 Q1902.29 73.9938 1899.25 64.7983 Q1896.26 55.6027 1896.26 46.5287 Q1896.26 37.4952 1899.25 28.3401 Q1902.25 19.1851 1908.37 9.62495 L1914.85 9.62495 Z" fill="#000000" fill-rule="nonzero" fill-opacity="1" /><path clip-path="url(#clip680)" d="M1946.89 32.4315 Q1940.9 32.4315 1937.41 37.1306 Q1933.93 41.7891 1933.93 49.9314 Q1933.93 58.0738 1937.37 62.7728 Q1940.86 67.4314 1946.89 67.4314 Q1952.85 67.4314 1956.33 62.7323 Q1959.81 58.0333 1959.81 49.9314 Q1959.81 41.8701 1956.33 37.1711 Q1952.85 32.4315 1946.89 32.4315 M1946.89 26.1121 Q1956.61 26.1121 1962.16 32.4315 Q1967.71 38.7509 1967.71 49.9314 Q1967.71 61.0714 1962.16 67.4314 Q1956.61 73.7508 1946.89 73.7508 Q1937.13 73.7508 1931.58 67.4314 Q1926.07 61.0714 1926.07 49.9314 Q1926.07 38.7509 1931.58 32.4315 Q1937.13 26.1121 1946.89 26.1121 Z" fill="#000000" fill-rule="nonzero" fill-opacity="1" /><path clip-path="url(#clip680)" d="M2006.36 34.1734 Q2005.1 33.4443 2003.6 33.1202 Q2002.15 32.7556 2000.36 32.7556 Q1994.04 32.7556 1990.64 36.8875 Q1987.28 40.9789 1987.28 48.6757 L1987.28 72.576 L1979.79 72.576 L1979.79 27.2059 L1987.28 27.2059 L1987.28 34.2544 Q1989.63 30.1225 1993.4 28.1376 Q1997.16 26.1121 2002.55 26.1121 Q2003.32 26.1121 2004.25 26.2337 Q2005.18 26.3147 2006.32 26.5172 L2006.36 34.1734 Z" fill="#000000" fill-rule="nonzero" fill-opacity="1" /><path clip-path="url(#clip680)" d="M2042.57 34.0924 L2042.57 9.54393 L2050.03 9.54393 L2050.03 72.576 L2042.57 72.576 L2042.57 65.7705 Q2040.22 69.8214 2036.62 71.8063 Q2033.05 73.7508 2028.03 73.7508 Q2019.81 73.7508 2014.62 67.1883 Q2009.48 60.6258 2009.48 49.9314 Q2009.48 39.2371 2014.62 32.6746 Q2019.81 26.1121 2028.03 26.1121 Q2033.05 26.1121 2036.62 28.0971 Q2040.22 30.0415 2042.57 34.0924 M2017.17 49.9314 Q2017.17 58.1548 2020.54 62.8538 Q2023.94 67.5124 2029.85 67.5124 Q2035.77 67.5124 2039.17 62.8538 Q2042.57 58.1548 2042.57 49.9314 Q2042.57 41.7081 2039.17 37.0496 Q2035.77 32.3505 2029.85 32.3505 Q2023.94 32.3505 2020.54 37.0496 Q2017.17 41.7081 2017.17 49.9314 Z" fill="#000000" fill-rule="nonzero" fill-opacity="1" /><path clip-path="url(#clip680)" d="M2104.19 48.0275 L2104.19 51.6733 L2069.92 51.6733 Q2070.4 59.3701 2074.54 63.421 Q2078.71 67.4314 2086.12 67.4314 Q2090.42 67.4314 2094.43 66.3781 Q2098.48 65.3249 2102.45 63.2184 L2102.45 70.267 Q2098.44 71.9684 2094.22 72.8596 Q2090.01 73.7508 2085.68 73.7508 Q2074.82 73.7508 2068.46 67.4314 Q2062.14 61.1119 2062.14 50.3365 Q2062.14 39.1965 2068.14 32.6746 Q2074.17 26.1121 2084.38 26.1121 Q2093.53 26.1121 2098.84 32.0264 Q2104.19 37.9003 2104.19 48.0275 M2096.73 45.84 Q2096.65 39.7232 2093.29 36.0774 Q2089.97 32.4315 2084.46 32.4315 Q2078.22 32.4315 2074.45 35.9558 Q2070.73 39.4801 2070.16 45.8805 L2096.73 45.84 Z" fill="#000000" fill-rule="nonzero" fill-opacity="1" /><path clip-path="url(#clip680)" d="M2142.71 34.1734 Q2141.46 33.4443 2139.96 33.1202 Q2138.5 32.7556 2136.72 32.7556 Q2130.4 32.7556 2126.99 36.8875 Q2123.63 40.9789 2123.63 48.6757 L2123.63 72.576 L2116.14 72.576 L2116.14 27.2059 L2123.63 27.2059 L2123.63 34.2544 Q2125.98 30.1225 2129.75 28.1376 Q2133.52 26.1121 2138.9 26.1121 Q2139.67 26.1121 2140.61 26.2337 Q2141.54 26.3147 2142.67 26.5172 L2142.71 34.1734 Z" fill="#000000" fill-rule="nonzero" fill-opacity="1" /><path clip-path="url(#clip680)" d="M2141.46 46.5287 L2163.29 46.5287 L2163.29 53.1722 L2141.46 53.1722 L2141.46 46.5287 Z" fill="#000000" fill-rule="nonzero" fill-opacity="1" /><path clip-path="url(#clip680)" d="M2177.63 65.6895 L2191 65.6895 L2191 19.5497 L2176.46 22.4663 L2176.46 15.0127 L2190.92 12.096 L2199.1 12.096 L2199.1 65.6895 L2212.47 65.6895 L2212.47 72.576 L2177.63 72.576 L2177.63 65.6895 Z" fill="#000000" fill-rule="nonzero" fill-opacity="1" /><path clip-path="url(#clip680)" d="M2226.77 9.62495 L2233.25 9.62495 Q2239.33 19.1851 2242.32 28.3401 Q2245.36 37.4952 2245.36 46.5287 Q2245.36 55.6027 2242.32 64.7983 Q2239.33 73.9938 2233.25 83.5134 L2226.77 83.5134 Q2232.16 74.2369 2234.79 65.0818 Q2237.46 55.8863 2237.46 46.5287 Q2237.46 37.1711 2234.79 28.0566 Q2232.16 18.942 2226.77 9.62495 Z" fill="#000000" fill-rule="nonzero" fill-opacity="1" /><polyline clip-path="url(#clip681)" style="stroke:#009af9; stroke-linecap:round; stroke-linejoin:round; stroke-width:6; stroke-opacity:1; fill:none" points="323.315,173.254 342.064,247.161 360.814,317.464 379.563,384.337 398.313,447.95 417.062,508.46 435.812,566.018 454.561,620.77 473.311,672.851 492.06,722.393 510.81,769.518 529.559,814.345 548.309,856.985 567.058,897.546 585.808,936.129 604.557,972.83 623.307,1007.74 642.057,1040.95 660.806,1072.54 679.556,1102.59 698.305,1131.17 717.055,1158.36 735.804,1184.22 754.554,1208.82 773.303,1232.23 792.053,1254.49 810.802,1275.66 829.552,1295.8 848.301,1314.96 867.051,1333.19 885.8,1350.52 904.55,1367.01 923.299,1382.7 942.049,1397.62 960.798,1411.82 979.548,1425.32 998.298,1438.16 1017.05,1450.38 1035.8,1462 1054.55,1473.05 1073.3,1483.57 1092.05,1493.57 1110.79,1503.08 1129.54,1512.13 1148.29,1520.74 1167.04,1528.93 1185.79,1536.72 1204.54,1544.13 1223.29,1551.18 1242.04,1557.89 1260.79,1564.26 1279.54,1570.33 1298.29,1576.1 1317.04,1581.59 1335.79,1586.81 1354.54,1591.78 1373.29,1596.5 1392.04,1601 1410.79,1605.27 1429.54,1609.34 1448.29,1613.21 1467.04,1616.89 1485.79,1620.39 1504.53,1623.72 1523.28,1626.88 1542.03,1629.9 1560.78,1632.76 1579.53,1635.49 1598.28,1638.08 1617.03,1640.55 1635.78,1642.89 1654.53,1645.13 1673.28,1647.25 1692.03,1649.27 1710.78,1651.19 1729.53,1653.02 1748.28,1654.75 1767.03,1656.41 1785.78,1657.98 1804.53,1659.48 1823.28,1660.9 1842.03,1662.25 1860.78,1663.54 1879.53,1664.77 1898.27,1665.93 1917.02,1667.04 1935.77,1668.09 1954.52,1669.1 1973.27,1670.05 1992.02,1670.96 2010.77,1671.82 2029.52,1672.64 2048.27,1673.42 2067.02,1674.17 2085.77,1674.87 2104.52,1675.54 2123.27,1676.18 2142.02,1676.79 2160.77,1677.37 2179.52,1677.92 2198.27,1678.44 2217.02,1678.94 2235.77,1679.42 2254.52,1679.87 2273.27,1680.29 2292.01,1680.7 2310.76,1681.09 2329.51,1681.46 2348.26,1681.81 2367.01,1682.14 2385.76,1682.46 2404.51,1682.76 2423.26,1683.05 2442.01,1683.32 2460.76,1683.58 2479.51,1683.83 2498.26,1684.07 2517.01,1684.29 2535.76,1684.5 2554.51,1684.71 2573.26,1684.9 "/>
<polyline clip-path="url(#clip681)" style="stroke:#e26f46; stroke-linecap:round; stroke-linejoin:round; stroke-width:6; stroke-opacity:1; fill:none" points="323.315,1688.65 342.064,1687.69 360.814,1681.26 379.563,1664.67 398.313,1634.02 417.062,1586.39 435.812,1520.33 454.561,1436.4 473.311,1337.61 492.06,1229.49 510.81,1119.34 529.559,1015 548.309,923.31 567.058,848.946 585.808,793.953 604.557,758.047 623.307,739.296 642.057,734.89 660.806,741.909 679.556,757.546 698.305,779.44 717.055,805.698 735.804,834.813 754.554,865.66 773.303,897.405 792.053,929.425 810.802,961.278 829.552,992.652 848.301,1023.32 867.051,1053.13 885.8,1081.99 904.55,1109.84 923.299,1136.64 942.049,1162.38 960.798,1187.07 979.548,1210.71 998.298,1233.33 1017.05,1254.95 1035.8,1275.6 1054.55,1295.32 1073.3,1314.13 1092.05,1332.08 1110.79,1349.2 1129.54,1365.51 1148.29,1381.06 1167.04,1395.88 1185.79,1410 1204.54,1423.44 1223.29,1436.25 1242.04,1448.44 1260.79,1460.06 1279.54,1471.11 1298.29,1481.64 1317.04,1491.66 1335.79,1501.2 1354.54,1510.29 1373.29,1518.93 1392.04,1527.16 1410.79,1534.99 1429.54,1542.44 1448.29,1549.53 1467.04,1556.28 1485.79,1562.71 1504.53,1568.82 1523.28,1574.63 1542.03,1580.17 1560.78,1585.44 1579.53,1590.45 1598.28,1595.22 1617.03,1599.76 1635.78,1604.08 1654.53,1608.18 1673.28,1612.09 1692.03,1615.81 1710.78,1619.35 1729.53,1622.72 1748.28,1625.92 1767.03,1628.97 1785.78,1631.87 1804.53,1634.63 1823.28,1637.26 1842.03,1639.76 1860.78,1642.13 1879.53,1644.4 1898.27,1646.55 1917.02,1648.59 1935.77,1650.54 1954.52,1652.39 1973.27,1654.16 1992.02,1655.83 2010.77,1657.43 2029.52,1658.95 2048.27,1660.39 2067.02,1661.77 2085.77,1663.08 2104.52,1664.32 2123.27,1665.5 2142.02,1666.63 2160.77,1667.7 2179.52,1668.72 2198.27,1669.69 2217.02,1670.61 2235.77,1671.49 2254.52,1672.32 2273.27,1673.12 2292.01,1673.87 2310.76,1674.59 2329.51,1675.28 2348.26,1675.93 2367.01,1676.55 2385.76,1677.13 2404.51,1677.69 2423.26,1678.23 2442.01,1678.73 2460.76,1679.22 2479.51,1679.68 2498.26,1680.11 2517.01,1680.53 2535.76,1680.92 2554.51,1681.3 2573.26,1681.66 "/>
<polyline clip-path="url(#clip681)" style="stroke:#3da44d; stroke-linecap:round; stroke-linejoin:round; stroke-width:6; stroke-opacity:1; fill:none" points="323.315,1688.65 342.064,1674.68 360.814,1636.81 379.563,1579.93 398.313,1507.76 417.062,1423.48 435.812,1330.35 454.561,1232.12 473.311,1133.23 492.06,1038.61 510.81,953.101 529.559,880.741 548.309,824.118 567.058,784.129 585.808,760.082 604.557,750.233 623.307,752.219 642.057,763.569 660.806,782.022 679.556,805.589 698.305,832.678 717.055,862.046 735.804,892.73 754.554,924.022 773.303,955.401 792.053,986.484 810.802,1017 829.552,1046.78 848.301,1075.67 867.051,1103.61 885.8,1130.54 904.55,1156.44 923.299,1181.3 942.049,1205.13 960.798,1227.95 979.548,1249.77 998.298,1270.63 1017.05,1290.55 1035.8,1309.56 1054.55,1327.71 1073.3,1345.01 1092.05,1361.51 1110.79,1377.24 1129.54,1392.23 1148.29,1406.51 1167.04,1420.12 1185.79,1433.07 1204.54,1445.42 1223.29,1457.17 1242.04,1468.36 1260.79,1479.02 1279.54,1489.16 1298.29,1498.82 1317.04,1508.02 1335.79,1516.77 1354.54,1525.1 1373.29,1533.02 1392.04,1540.57 1410.79,1547.75 1429.54,1554.59 1448.29,1561.09 1467.04,1567.28 1485.79,1573.17 1504.53,1578.78 1523.28,1584.11 1542.03,1589.19 1560.78,1594.02 1579.53,1598.61 1598.28,1602.99 1617.03,1607.15 1635.78,1611.11 1654.53,1614.87 1673.28,1618.46 1692.03,1621.87 1710.78,1625.11 1729.53,1628.2 1748.28,1631.14 1767.03,1633.93 1785.78,1636.59 1804.53,1639.12 1823.28,1641.53 1842.03,1643.82 1860.78,1646 1879.53,1648.08 1898.27,1650.05 1917.02,1651.93 1935.77,1653.71 1954.52,1655.41 1973.27,1657.03 1992.02,1658.56 2010.77,1660.03 2029.52,1661.42 2048.27,1662.74 2067.02,1664 2085.77,1665.2 2104.52,1666.34 2123.27,1667.43 2142.02,1668.46 2160.77,1669.44 2179.52,1670.38 2198.27,1671.26 2217.02,1672.11 2235.77,1672.91 2254.52,1673.68 2273.27,1674.41 2292.01,1675.1 2310.76,1675.76 2329.51,1676.39 2348.26,1676.98 2367.01,1677.55 2385.76,1678.09 2404.51,1678.61 2423.26,1679.09 2442.01,1679.56 2460.76,1680 2479.51,1680.42 2498.26,1680.82 2517.01,1681.2 2535.76,1681.57 2554.51,1681.91 2573.26,1682.24 "/>
<polyline clip-path="url(#clip681)" style="stroke:#c271d2; stroke-linecap:round; stroke-linejoin:round; stroke-width:6; stroke-opacity:1; fill:none" points="323.315,1688.65 342.064,1681.65 360.814,1662.47 379.563,1633 398.313,1594.16 417.062,1546.17 435.812,1488.82 454.561,1421.87 473.311,1345.55 492.06,1261.1 510.81,1171.28 529.559,1080.39 548.309,993.833 567.058,916.928 585.808,853.914 604.557,807.076 623.307,776.709 642.057,761.466 660.806,759.171 679.556,767.253 698.305,783.253 717.055,805.058 735.804,830.892 754.554,859.381 773.303,889.477 792.053,920.385 810.802,951.527 829.552,982.489 848.301,1012.97 867.051,1042.75 885.8,1071.7 904.55,1099.72 923.299,1126.75 942.049,1152.76 960.798,1177.75 979.548,1201.71 998.298,1224.66 1017.05,1246.61 1035.8,1267.6 1054.55,1287.65 1073.3,1306.79 1092.05,1325.05 1110.79,1342.47 1129.54,1359.09 1148.29,1374.92 1167.04,1390.02 1185.79,1404.4 1204.54,1418.11 1223.29,1431.16 1242.04,1443.59 1260.79,1455.43 1279.54,1466.7 1298.29,1477.44 1317.04,1487.66 1335.79,1497.39 1354.54,1506.65 1373.29,1515.47 1392.04,1523.86 1410.79,1531.85 1429.54,1539.45 1448.29,1546.68 1467.04,1553.57 1485.79,1560.12 1504.53,1566.36 1523.28,1572.29 1542.03,1577.94 1560.78,1583.32 1579.53,1588.43 1598.28,1593.3 1617.03,1597.93 1635.78,1602.33 1654.53,1606.53 1673.28,1610.52 1692.03,1614.31 1710.78,1617.92 1729.53,1621.36 1748.28,1624.63 1767.03,1627.74 1785.78,1630.7 1804.53,1633.52 1823.28,1636.2 1842.03,1638.75 1860.78,1641.17 1879.53,1643.48 1898.27,1645.68 1917.02,1647.77 1935.77,1649.75 1954.52,1651.64 1973.27,1653.44 1992.02,1655.15 2010.77,1656.78 2029.52,1658.33 2048.27,1659.81 2067.02,1661.21 2085.77,1662.55 2104.52,1663.81 2123.27,1665.02 2142.02,1666.17 2160.77,1667.26 2179.52,1668.3 2198.27,1669.29 2217.02,1670.23 2235.77,1671.13 2254.52,1671.98 2273.27,1672.79 2292.01,1673.57 2310.76,1674.3 2329.51,1675 2348.26,1675.66 2367.01,1676.29 2385.76,1676.9 2404.51,1677.47 2423.26,1678.01 2442.01,1678.53 2460.76,1679.02 2479.51,1679.49 2498.26,1679.93 2517.01,1680.36 2535.76,1680.76 2554.51,1681.15 2573.26,1681.51 "/>
<polyline clip-path="url(#clip681)" style="stroke:#ac8d18; stroke-linecap:round; stroke-linejoin:round; stroke-width:6; stroke-opacity:1; fill:none" points="323.315,1688.65 342.064,1688.62 360.814,1688.08 379.563,1685.79 398.313,1679.69 417.062,1666.96 435.812,1644.13 454.561,1607.37 473.311,1553.21 492.06,1479.6 510.81,1387.08 529.559,1279.69 548.309,1164.88 567.058,1051.91 585.808,949.861 604.557,865.321 623.307,801.652 642.057,758.949 660.806,735.281 679.556,727.54 698.305,732.352 717.055,746.671 735.804,767.838 754.554,793.756 773.303,822.821 792.053,853.796 810.802,885.782 829.552,918.128 848.301,950.353 867.051,982.12 885.8,1013.2 904.55,1043.43 923.299,1072.7 942.049,1100.96 960.798,1128.15 979.548,1154.28 998.298,1179.34 1017.05,1203.33 1035.8,1226.3 1054.55,1248.25 1073.3,1269.22 1092.05,1289.24 1110.79,1308.35 1129.54,1326.57 1148.29,1343.95 1167.04,1360.52 1185.79,1376.31 1204.54,1391.35 1223.29,1405.69 1242.04,1419.34 1260.79,1432.35 1279.54,1444.73 1298.29,1456.52 1317.04,1467.75 1335.79,1478.44 1354.54,1488.62 1373.29,1498.31 1392.04,1507.53 1410.79,1516.31 1429.54,1524.66 1448.29,1532.61 1467.04,1540.18 1485.79,1547.38 1504.53,1554.24 1523.28,1560.76 1542.03,1566.97 1560.78,1572.87 1579.53,1578.49 1598.28,1583.84 1617.03,1588.93 1635.78,1593.78 1654.53,1598.39 1673.28,1602.77 1692.03,1606.94 1710.78,1610.91 1729.53,1614.69 1748.28,1618.28 1767.03,1621.7 1785.78,1624.96 1804.53,1628.05 1823.28,1631 1842.03,1633.8 1860.78,1636.47 1879.53,1639 1898.27,1641.42 1917.02,1643.71 1935.77,1645.9 1954.52,1647.98 1973.27,1649.95 1992.02,1651.83 2010.77,1653.63 2029.52,1655.33 2048.27,1656.95 2067.02,1658.49 2085.77,1659.96 2104.52,1661.35 2123.27,1662.68 2142.02,1663.94 2160.77,1665.15 2179.52,1666.29 2198.27,1667.38 2217.02,1668.41 2235.77,1669.4 2254.52,1670.33 2273.27,1671.22 2292.01,1672.07 2310.76,1672.88 2329.51,1673.65 2348.26,1674.38 2367.01,1675.07 2385.76,1675.73 2404.51,1676.36 2423.26,1676.96 2442.01,1677.53 2460.76,1678.07 2479.51,1678.58 2498.26,1679.07 2517.01,1679.54 2535.76,1679.98 2554.51,1680.4 2573.26,1680.8 "/>
<path clip-path="url(#clip680)" d="M2131.45 492.376 L2561.26 492.376 L2561.26 181.336 L2131.45 181.336  Z" fill="#ffffff" fill-rule="evenodd" fill-opacity="1"/>
<polyline clip-path="url(#clip680)" style="stroke:#000000; stroke-linecap:round; stroke-linejoin:round; stroke-width:4; stroke-opacity:1; fill:none" points="2131.45,492.376 2561.26,492.376 2561.26,181.336 2131.45,181.336 2131.45,492.376 "/>
<polyline clip-path="url(#clip680)" style="stroke:#009af9; stroke-linecap:round; stroke-linejoin:round; stroke-width:6; stroke-opacity:1; fill:none" points="2157.94,233.176 2316.94,233.176 "/>
<path clip-path="url(#clip680)" d="M2343.44 215.896 L2349.74 215.896 L2365.06 244.808 L2365.06 215.896 L2369.6 215.896 L2369.6 250.456 L2363.3 250.456 L2347.98 221.544 L2347.98 250.456 L2343.44 250.456 L2343.44 215.896 Z" fill="#000000" fill-rule="nonzero" fill-opacity="1" /><path clip-path="url(#clip680)" d="M2388.76 227.517 Q2385.34 227.517 2383.35 230.202 Q2381.36 232.864 2381.36 237.517 Q2381.36 242.169 2383.32 244.854 Q2385.31 247.516 2388.76 247.516 Q2392.17 247.516 2394.16 244.831 Q2396.15 242.146 2396.15 237.517 Q2396.15 232.91 2394.16 230.225 Q2392.17 227.517 2388.76 227.517 M2388.76 223.906 Q2394.32 223.906 2397.49 227.517 Q2400.66 231.128 2400.66 237.517 Q2400.66 243.882 2397.49 247.516 Q2394.32 251.128 2388.76 251.128 Q2383.19 251.128 2380.01 247.516 Q2376.87 243.882 2376.87 237.517 Q2376.87 231.128 2380.01 227.517 Q2383.19 223.906 2388.76 223.906 Z" fill="#000000" fill-rule="nonzero" fill-opacity="1" /><path clip-path="url(#clip680)" d="M2424.78 228.466 L2424.78 214.438 L2429.04 214.438 L2429.04 250.456 L2424.78 250.456 L2424.78 246.567 Q2423.44 248.882 2421.38 250.016 Q2419.34 251.128 2416.47 251.128 Q2411.77 251.128 2408.81 247.378 Q2405.87 243.628 2405.87 237.517 Q2405.87 231.405 2408.81 227.655 Q2411.77 223.906 2416.47 223.906 Q2419.34 223.906 2421.38 225.04 Q2423.44 226.151 2424.78 228.466 M2410.27 237.517 Q2410.27 242.216 2412.19 244.901 Q2414.13 247.563 2417.51 247.563 Q2420.89 247.563 2422.84 244.901 Q2424.78 242.216 2424.78 237.517 Q2424.78 232.817 2422.84 230.155 Q2420.89 227.47 2417.51 227.47 Q2414.13 227.47 2412.19 230.155 Q2410.27 232.817 2410.27 237.517 Z" fill="#000000" fill-rule="nonzero" fill-opacity="1" /><path clip-path="url(#clip680)" d="M2459.99 236.429 L2459.99 238.512 L2440.41 238.512 Q2440.69 242.91 2443.05 245.225 Q2445.43 247.516 2449.67 247.516 Q2452.12 247.516 2454.41 246.915 Q2456.73 246.313 2459 245.109 L2459 249.137 Q2456.7 250.109 2454.3 250.618 Q2451.89 251.128 2449.41 251.128 Q2443.21 251.128 2439.57 247.516 Q2435.96 243.905 2435.96 237.748 Q2435.96 231.382 2439.39 227.655 Q2442.84 223.906 2448.67 223.906 Q2453.9 223.906 2456.93 227.285 Q2459.99 230.642 2459.99 236.429 M2455.73 235.179 Q2455.68 231.683 2453.76 229.6 Q2451.87 227.517 2448.72 227.517 Q2445.15 227.517 2443 229.53 Q2440.87 231.544 2440.55 235.202 L2455.73 235.179 Z" fill="#000000" fill-rule="nonzero" fill-opacity="1" /><path clip-path="url(#clip680)" d="M2483.46 246.521 L2491.1 246.521 L2491.1 220.156 L2482.79 221.822 L2482.79 217.563 L2491.06 215.896 L2495.73 215.896 L2495.73 246.521 L2503.37 246.521 L2503.37 250.456 L2483.46 250.456 L2483.46 246.521 Z" fill="#000000" fill-rule="nonzero" fill-opacity="1" /><polyline clip-path="url(#clip680)" style="stroke:#e26f46; stroke-linecap:round; stroke-linejoin:round; stroke-width:6; stroke-opacity:1; fill:none" points="2157.94,285.016 2316.94,285.016 "/>
<path clip-path="url(#clip680)" d="M2343.44 267.736 L2349.74 267.736 L2365.06 296.648 L2365.06 267.736 L2369.6 267.736 L2369.6 302.296 L2363.3 302.296 L2347.98 273.384 L2347.98 302.296 L2343.44 302.296 L2343.44 267.736 Z" fill="#000000" fill-rule="nonzero" fill-opacity="1" /><path clip-path="url(#clip680)" d="M2388.76 279.357 Q2385.34 279.357 2383.35 282.042 Q2381.36 284.704 2381.36 289.357 Q2381.36 294.009 2383.32 296.694 Q2385.31 299.356 2388.76 299.356 Q2392.17 299.356 2394.16 296.671 Q2396.15 293.986 2396.15 289.357 Q2396.15 284.75 2394.16 282.065 Q2392.17 279.357 2388.76 279.357 M2388.76 275.746 Q2394.32 275.746 2397.49 279.357 Q2400.66 282.968 2400.66 289.357 Q2400.66 295.722 2397.49 299.356 Q2394.32 302.968 2388.76 302.968 Q2383.19 302.968 2380.01 299.356 Q2376.87 295.722 2376.87 289.357 Q2376.87 282.968 2380.01 279.357 Q2383.19 275.746 2388.76 275.746 Z" fill="#000000" fill-rule="nonzero" fill-opacity="1" /><path clip-path="url(#clip680)" d="M2424.78 280.306 L2424.78 266.278 L2429.04 266.278 L2429.04 302.296 L2424.78 302.296 L2424.78 298.407 Q2423.44 300.722 2421.38 301.856 Q2419.34 302.968 2416.47 302.968 Q2411.77 302.968 2408.81 299.218 Q2405.87 295.468 2405.87 289.357 Q2405.87 283.245 2408.81 279.495 Q2411.77 275.746 2416.47 275.746 Q2419.34 275.746 2421.38 276.88 Q2423.44 277.991 2424.78 280.306 M2410.27 289.357 Q2410.27 294.056 2412.19 296.741 Q2414.13 299.403 2417.51 299.403 Q2420.89 299.403 2422.84 296.741 Q2424.78 294.056 2424.78 289.357 Q2424.78 284.657 2422.84 281.995 Q2420.89 279.31 2417.51 279.31 Q2414.13 279.31 2412.19 281.995 Q2410.27 284.657 2410.27 289.357 Z" fill="#000000" fill-rule="nonzero" fill-opacity="1" /><path clip-path="url(#clip680)" d="M2459.99 288.269 L2459.99 290.352 L2440.41 290.352 Q2440.69 294.75 2443.05 297.065 Q2445.43 299.356 2449.67 299.356 Q2452.12 299.356 2454.41 298.755 Q2456.73 298.153 2459 296.949 L2459 300.977 Q2456.7 301.949 2454.3 302.458 Q2451.89 302.968 2449.41 302.968 Q2443.21 302.968 2439.57 299.356 Q2435.96 295.745 2435.96 289.588 Q2435.96 283.222 2439.39 279.495 Q2442.84 275.746 2448.67 275.746 Q2453.9 275.746 2456.93 279.125 Q2459.99 282.482 2459.99 288.269 M2455.73 287.019 Q2455.68 283.523 2453.76 281.44 Q2451.87 279.357 2448.72 279.357 Q2445.15 279.357 2443 281.37 Q2440.87 283.384 2440.55 287.042 L2455.73 287.019 Z" fill="#000000" fill-rule="nonzero" fill-opacity="1" /><path clip-path="url(#clip680)" d="M2482.7 267.736 L2501.06 267.736 L2501.06 271.671 L2486.98 271.671 L2486.98 280.144 Q2488 279.796 2489.02 279.634 Q2490.04 279.449 2491.06 279.449 Q2496.84 279.449 2500.22 282.62 Q2503.6 285.792 2503.6 291.208 Q2503.6 296.787 2500.13 299.889 Q2496.66 302.968 2490.34 302.968 Q2488.16 302.968 2485.89 302.597 Q2483.65 302.227 2481.24 301.486 L2481.24 296.787 Q2483.32 297.921 2485.55 298.477 Q2487.77 299.032 2490.24 299.032 Q2494.25 299.032 2496.59 296.926 Q2498.93 294.819 2498.93 291.208 Q2498.93 287.597 2496.59 285.491 Q2494.25 283.384 2490.24 283.384 Q2488.37 283.384 2486.49 283.801 Q2484.64 284.218 2482.7 285.097 L2482.7 267.736 Z" fill="#000000" fill-rule="nonzero" fill-opacity="1" /><polyline clip-path="url(#clip680)" style="stroke:#3da44d; stroke-linecap:round; stroke-linejoin:round; stroke-width:6; stroke-opacity:1; fill:none" points="2157.94,336.856 2316.94,336.856 "/>
<path clip-path="url(#clip680)" d="M2343.44 319.576 L2349.74 319.576 L2365.06 348.488 L2365.06 319.576 L2369.6 319.576 L2369.6 354.136 L2363.3 354.136 L2347.98 325.224 L2347.98 354.136 L2343.44 354.136 L2343.44 319.576 Z" fill="#000000" fill-rule="nonzero" fill-opacity="1" /><path clip-path="url(#clip680)" d="M2388.76 331.197 Q2385.34 331.197 2383.35 333.882 Q2381.36 336.544 2381.36 341.197 Q2381.36 345.849 2383.32 348.534 Q2385.31 351.196 2388.76 351.196 Q2392.17 351.196 2394.16 348.511 Q2396.15 345.826 2396.15 341.197 Q2396.15 336.59 2394.16 333.905 Q2392.17 331.197 2388.76 331.197 M2388.76 327.586 Q2394.32 327.586 2397.49 331.197 Q2400.66 334.808 2400.66 341.197 Q2400.66 347.562 2397.49 351.196 Q2394.32 354.808 2388.76 354.808 Q2383.19 354.808 2380.01 351.196 Q2376.87 347.562 2376.87 341.197 Q2376.87 334.808 2380.01 331.197 Q2383.19 327.586 2388.76 327.586 Z" fill="#000000" fill-rule="nonzero" fill-opacity="1" /><path clip-path="url(#clip680)" d="M2424.78 332.146 L2424.78 318.118 L2429.04 318.118 L2429.04 354.136 L2424.78 354.136 L2424.78 350.247 Q2423.44 352.562 2421.38 353.696 Q2419.34 354.808 2416.47 354.808 Q2411.77 354.808 2408.81 351.058 Q2405.87 347.308 2405.87 341.197 Q2405.87 335.085 2408.81 331.335 Q2411.77 327.586 2416.47 327.586 Q2419.34 327.586 2421.38 328.72 Q2423.44 329.831 2424.78 332.146 M2410.27 341.197 Q2410.27 345.896 2412.19 348.581 Q2414.13 351.243 2417.51 351.243 Q2420.89 351.243 2422.84 348.581 Q2424.78 345.896 2424.78 341.197 Q2424.78 336.497 2422.84 333.835 Q2420.89 331.15 2417.51 331.15 Q2414.13 331.15 2412.19 333.835 Q2410.27 336.497 2410.27 341.197 Z" fill="#000000" fill-rule="nonzero" fill-opacity="1" /><path clip-path="url(#clip680)" d="M2459.99 340.109 L2459.99 342.192 L2440.41 342.192 Q2440.69 346.59 2443.05 348.905 Q2445.43 351.196 2449.67 351.196 Q2452.12 351.196 2454.41 350.595 Q2456.73 349.993 2459 348.789 L2459 352.817 Q2456.7 353.789 2454.3 354.298 Q2451.89 354.808 2449.41 354.808 Q2443.21 354.808 2439.57 351.196 Q2435.96 347.585 2435.96 341.428 Q2435.96 335.062 2439.39 331.335 Q2442.84 327.586 2448.67 327.586 Q2453.9 327.586 2456.93 330.965 Q2459.99 334.322 2459.99 340.109 M2455.73 338.859 Q2455.68 335.363 2453.76 333.28 Q2451.87 331.197 2448.72 331.197 Q2445.15 331.197 2443 333.21 Q2440.87 335.224 2440.55 338.882 L2455.73 338.859 Z" fill="#000000" fill-rule="nonzero" fill-opacity="1" /><path clip-path="url(#clip680)" d="M2483.46 350.201 L2491.1 350.201 L2491.1 323.836 L2482.79 325.502 L2482.79 321.243 L2491.06 319.576 L2495.73 319.576 L2495.73 350.201 L2503.37 350.201 L2503.37 354.136 L2483.46 354.136 L2483.46 350.201 Z" fill="#000000" fill-rule="nonzero" fill-opacity="1" /><path clip-path="url(#clip680)" d="M2522.81 322.655 Q2519.2 322.655 2517.37 326.22 Q2515.57 329.761 2515.57 336.891 Q2515.57 343.997 2517.37 347.562 Q2519.2 351.104 2522.81 351.104 Q2526.45 351.104 2528.25 347.562 Q2530.08 343.997 2530.08 336.891 Q2530.08 329.761 2528.25 326.22 Q2526.45 322.655 2522.81 322.655 M2522.81 318.951 Q2528.62 318.951 2531.68 323.558 Q2534.76 328.141 2534.76 336.891 Q2534.76 345.618 2531.68 350.224 Q2528.62 354.808 2522.81 354.808 Q2517 354.808 2513.93 350.224 Q2510.87 345.618 2510.87 336.891 Q2510.87 328.141 2513.93 323.558 Q2517 318.951 2522.81 318.951 Z" fill="#000000" fill-rule="nonzero" fill-opacity="1" /><polyline clip-path="url(#clip680)" style="stroke:#c271d2; stroke-linecap:round; stroke-linejoin:round; stroke-width:6; stroke-opacity:1; fill:none" points="2157.94,388.696 2316.94,388.696 "/>
<path clip-path="url(#clip680)" d="M2343.44 371.416 L2349.74 371.416 L2365.06 400.328 L2365.06 371.416 L2369.6 371.416 L2369.6 405.976 L2363.3 405.976 L2347.98 377.064 L2347.98 405.976 L2343.44 405.976 L2343.44 371.416 Z" fill="#000000" fill-rule="nonzero" fill-opacity="1" /><path clip-path="url(#clip680)" d="M2388.76 383.037 Q2385.34 383.037 2383.35 385.722 Q2381.36 388.384 2381.36 393.037 Q2381.36 397.689 2383.32 400.374 Q2385.31 403.036 2388.76 403.036 Q2392.17 403.036 2394.16 400.351 Q2396.15 397.666 2396.15 393.037 Q2396.15 388.43 2394.16 385.745 Q2392.17 383.037 2388.76 383.037 M2388.76 379.426 Q2394.32 379.426 2397.49 383.037 Q2400.66 386.648 2400.66 393.037 Q2400.66 399.402 2397.49 403.036 Q2394.32 406.648 2388.76 406.648 Q2383.19 406.648 2380.01 403.036 Q2376.87 399.402 2376.87 393.037 Q2376.87 386.648 2380.01 383.037 Q2383.19 379.426 2388.76 379.426 Z" fill="#000000" fill-rule="nonzero" fill-opacity="1" /><path clip-path="url(#clip680)" d="M2424.78 383.986 L2424.78 369.958 L2429.04 369.958 L2429.04 405.976 L2424.78 405.976 L2424.78 402.087 Q2423.44 404.402 2421.38 405.536 Q2419.34 406.648 2416.47 406.648 Q2411.77 406.648 2408.81 402.898 Q2405.87 399.148 2405.87 393.037 Q2405.87 386.925 2408.81 383.175 Q2411.77 379.426 2416.47 379.426 Q2419.34 379.426 2421.38 380.56 Q2423.44 381.671 2424.78 383.986 M2410.27 393.037 Q2410.27 397.736 2412.19 400.421 Q2414.13 403.083 2417.51 403.083 Q2420.89 403.083 2422.84 400.421 Q2424.78 397.736 2424.78 393.037 Q2424.78 388.337 2422.84 385.675 Q2420.89 382.99 2417.51 382.99 Q2414.13 382.99 2412.19 385.675 Q2410.27 388.337 2410.27 393.037 Z" fill="#000000" fill-rule="nonzero" fill-opacity="1" /><path clip-path="url(#clip680)" d="M2459.99 391.949 L2459.99 394.032 L2440.41 394.032 Q2440.69 398.43 2443.05 400.745 Q2445.43 403.036 2449.67 403.036 Q2452.12 403.036 2454.41 402.435 Q2456.73 401.833 2459 400.629 L2459 404.657 Q2456.7 405.629 2454.3 406.138 Q2451.89 406.648 2449.41 406.648 Q2443.21 406.648 2439.57 403.036 Q2435.96 399.425 2435.96 393.268 Q2435.96 386.902 2439.39 383.175 Q2442.84 379.426 2448.67 379.426 Q2453.9 379.426 2456.93 382.805 Q2459.99 386.162 2459.99 391.949 M2455.73 390.699 Q2455.68 387.203 2453.76 385.12 Q2451.87 383.037 2448.72 383.037 Q2445.15 383.037 2443 385.05 Q2440.87 387.064 2440.55 390.722 L2455.73 390.699 Z" fill="#000000" fill-rule="nonzero" fill-opacity="1" /><path clip-path="url(#clip680)" d="M2486.68 402.041 L2503 402.041 L2503 405.976 L2481.06 405.976 L2481.06 402.041 Q2483.72 399.287 2488.3 394.657 Q2492.91 390.004 2494.09 388.662 Q2496.33 386.138 2497.21 384.402 Q2498.12 382.643 2498.12 380.953 Q2498.12 378.199 2496.17 376.463 Q2494.25 374.726 2491.15 374.726 Q2488.95 374.726 2486.49 375.49 Q2484.06 376.254 2481.29 377.805 L2481.29 373.083 Q2484.11 371.949 2486.56 371.37 Q2489.02 370.791 2491.06 370.791 Q2496.43 370.791 2499.62 373.476 Q2502.81 376.162 2502.81 380.652 Q2502.81 382.782 2502 384.703 Q2501.22 386.601 2499.11 389.194 Q2498.53 389.865 2495.43 393.083 Q2492.33 396.277 2486.68 402.041 Z" fill="#000000" fill-rule="nonzero" fill-opacity="1" /><path clip-path="url(#clip680)" d="M2522.81 374.495 Q2519.2 374.495 2517.37 378.06 Q2515.57 381.601 2515.57 388.731 Q2515.57 395.837 2517.37 399.402 Q2519.2 402.944 2522.81 402.944 Q2526.45 402.944 2528.25 399.402 Q2530.08 395.837 2530.08 388.731 Q2530.08 381.601 2528.25 378.06 Q2526.45 374.495 2522.81 374.495 M2522.81 370.791 Q2528.62 370.791 2531.68 375.398 Q2534.76 379.981 2534.76 388.731 Q2534.76 397.458 2531.68 402.064 Q2528.62 406.648 2522.81 406.648 Q2517 406.648 2513.93 402.064 Q2510.87 397.458 2510.87 388.731 Q2510.87 379.981 2513.93 375.398 Q2517 370.791 2522.81 370.791 Z" fill="#000000" fill-rule="nonzero" fill-opacity="1" /><polyline clip-path="url(#clip680)" style="stroke:#ac8d18; stroke-linecap:round; stroke-linejoin:round; stroke-width:6; stroke-opacity:1; fill:none" points="2157.94,440.536 2316.94,440.536 "/>
<path clip-path="url(#clip680)" d="M2343.44 423.256 L2349.74 423.256 L2365.06 452.168 L2365.06 423.256 L2369.6 423.256 L2369.6 457.816 L2363.3 457.816 L2347.98 428.904 L2347.98 457.816 L2343.44 457.816 L2343.44 423.256 Z" fill="#000000" fill-rule="nonzero" fill-opacity="1" /><path clip-path="url(#clip680)" d="M2388.76 434.877 Q2385.34 434.877 2383.35 437.562 Q2381.36 440.224 2381.36 444.877 Q2381.36 449.529 2383.32 452.214 Q2385.31 454.876 2388.76 454.876 Q2392.17 454.876 2394.16 452.191 Q2396.15 449.506 2396.15 444.877 Q2396.15 440.27 2394.16 437.585 Q2392.17 434.877 2388.76 434.877 M2388.76 431.266 Q2394.32 431.266 2397.49 434.877 Q2400.66 438.488 2400.66 444.877 Q2400.66 451.242 2397.49 454.876 Q2394.32 458.488 2388.76 458.488 Q2383.19 458.488 2380.01 454.876 Q2376.87 451.242 2376.87 444.877 Q2376.87 438.488 2380.01 434.877 Q2383.19 431.266 2388.76 431.266 Z" fill="#000000" fill-rule="nonzero" fill-opacity="1" /><path clip-path="url(#clip680)" d="M2424.78 435.826 L2424.78 421.798 L2429.04 421.798 L2429.04 457.816 L2424.78 457.816 L2424.78 453.927 Q2423.44 456.242 2421.38 457.376 Q2419.34 458.488 2416.47 458.488 Q2411.77 458.488 2408.81 454.738 Q2405.87 450.988 2405.87 444.877 Q2405.87 438.765 2408.81 435.015 Q2411.77 431.266 2416.47 431.266 Q2419.34 431.266 2421.38 432.4 Q2423.44 433.511 2424.78 435.826 M2410.27 444.877 Q2410.27 449.576 2412.19 452.261 Q2414.13 454.923 2417.51 454.923 Q2420.89 454.923 2422.84 452.261 Q2424.78 449.576 2424.78 444.877 Q2424.78 440.177 2422.84 437.515 Q2420.89 434.83 2417.51 434.83 Q2414.13 434.83 2412.19 437.515 Q2410.27 440.177 2410.27 444.877 Z" fill="#000000" fill-rule="nonzero" fill-opacity="1" /><path clip-path="url(#clip680)" d="M2459.99 443.789 L2459.99 445.872 L2440.41 445.872 Q2440.69 450.27 2443.05 452.585 Q2445.43 454.876 2449.67 454.876 Q2452.12 454.876 2454.41 454.275 Q2456.73 453.673 2459 452.469 L2459 456.497 Q2456.7 457.469 2454.3 457.978 Q2451.89 458.488 2449.41 458.488 Q2443.21 458.488 2439.57 454.876 Q2435.96 451.265 2435.96 445.108 Q2435.96 438.742 2439.39 435.015 Q2442.84 431.266 2448.67 431.266 Q2453.9 431.266 2456.93 434.645 Q2459.99 438.002 2459.99 443.789 M2455.73 442.539 Q2455.68 439.043 2453.76 436.96 Q2451.87 434.877 2448.72 434.877 Q2445.15 434.877 2443 436.89 Q2440.87 438.904 2440.55 442.562 L2455.73 442.539 Z" fill="#000000" fill-rule="nonzero" fill-opacity="1" /><path clip-path="url(#clip680)" d="M2496.82 439.182 Q2500.18 439.9 2502.05 442.168 Q2503.95 444.437 2503.95 447.77 Q2503.95 452.886 2500.43 455.687 Q2496.91 458.488 2490.43 458.488 Q2488.25 458.488 2485.94 458.048 Q2483.65 457.631 2481.19 456.775 L2481.19 452.261 Q2483.14 453.395 2485.45 453.974 Q2487.77 454.552 2490.29 454.552 Q2494.69 454.552 2496.98 452.816 Q2499.3 451.08 2499.3 447.77 Q2499.3 444.715 2497.14 443.002 Q2495.01 441.265 2491.19 441.265 L2487.17 441.265 L2487.17 437.423 L2491.38 437.423 Q2494.83 437.423 2496.66 436.057 Q2498.49 434.668 2498.49 432.076 Q2498.49 429.414 2496.59 428.002 Q2494.71 426.566 2491.19 426.566 Q2489.27 426.566 2487.07 426.983 Q2484.87 427.4 2482.24 428.279 L2482.24 424.113 Q2484.9 423.372 2487.21 423.002 Q2489.55 422.631 2491.61 422.631 Q2496.93 422.631 2500.04 425.062 Q2503.14 427.469 2503.14 431.59 Q2503.14 434.46 2501.49 436.451 Q2499.85 438.418 2496.82 439.182 Z" fill="#000000" fill-rule="nonzero" fill-opacity="1" /><path clip-path="url(#clip680)" d="M2522.81 426.335 Q2519.2 426.335 2517.37 429.9 Q2515.57 433.441 2515.57 440.571 Q2515.57 447.677 2517.37 451.242 Q2519.2 454.784 2522.81 454.784 Q2526.45 454.784 2528.25 451.242 Q2530.08 447.677 2530.08 440.571 Q2530.08 433.441 2528.25 429.9 Q2526.45 426.335 2522.81 426.335 M2522.81 422.631 Q2528.62 422.631 2531.68 427.238 Q2534.76 431.821 2534.76 440.571 Q2534.76 449.298 2531.68 453.904 Q2528.62 458.488 2522.81 458.488 Q2517 458.488 2513.93 453.904 Q2510.87 449.298 2510.87 440.571 Q2510.87 431.821 2513.93 427.238 Q2517 422.631 2522.81 422.631 Z" fill="#000000" fill-rule="nonzero" fill-opacity="1" /></svg>
