<?xml version="1.0" encoding="utf-8"?>
<svg xmlns="http://www.w3.org/2000/svg" xmlns:xlink="http://www.w3.org/1999/xlink" width="672" height="480" viewBox="0 0 2688 1920">
<defs>
  <clipPath id="clip300">
    <rect x="0" y="0" width="2688" height="1920"/>
  </clipPath>
</defs>
<path clip-path="url(#clip300)" d="M0 1920 L2688 1920 L2688 -4.26326e-14 L0 -4.26326e-14  Z" fill="#ffffff" fill-rule="evenodd" fill-opacity="1"/>
<defs>
  <clipPath id="clip301">
    <rect x="225" y="127" width="2416" height="1607"/>
  </clipPath>
</defs>
<path clip-path="url(#clip300)" d="M225.654 1734.12 L2640.76 1734.12 L2640.76 127.792 L225.654 127.792  Z" fill="#ffffff" fill-rule="evenodd" fill-opacity="1"/>
<polyline clip-path="url(#clip301)" style="stroke:#000000; stroke-linecap:round; stroke-linejoin:round; stroke-width:2; stroke-opacity:0.1; fill:none" points="665.551,1734.12 665.551,127.792 "/>
<polyline clip-path="url(#clip301)" style="stroke:#000000; stroke-linecap:round; stroke-linejoin:round; stroke-width:2; stroke-opacity:0.1; fill:none" points="1433.21,1734.12 1433.21,127.792 "/>
<polyline clip-path="url(#clip301)" style="stroke:#000000; stroke-linecap:round; stroke-linejoin:round; stroke-width:2; stroke-opacity:0.1; fill:none" points="2200.86,1734.12 2200.86,127.792 "/>
<polyline clip-path="url(#clip301)" style="stroke:#000000; stroke-linecap:round; stroke-linejoin:round; stroke-width:2; stroke-opacity:0.1; fill:none" points="225.654,1734.12 2640.76,1734.12 "/>
<polyline clip-path="url(#clip301)" style="stroke:#000000; stroke-linecap:round; stroke-linejoin:round; stroke-width:2; stroke-opacity:0.1; fill:none" points="225.654,1304.86 2640.76,1304.86 "/>
<polyline clip-path="url(#clip301)" style="stroke:#000000; stroke-linecap:round; stroke-linejoin:round; stroke-width:2; stroke-opacity:0.1; fill:none" points="225.654,875.598 2640.76,875.598 "/>
<polyline clip-path="url(#clip301)" style="stroke:#000000; stroke-linecap:round; stroke-linejoin:round; stroke-width:2; stroke-opacity:0.1; fill:none" points="225.654,446.338 2640.76,446.338 "/>
<polyline clip-path="url(#clip300)" style="stroke:#000000; stroke-linecap:round; stroke-linejoin:round; stroke-width:4; stroke-opacity:1; fill:none" points="225.654,1734.12 2640.76,1734.12 "/>
<polyline clip-path="url(#clip300)" style="stroke:#000000; stroke-linecap:round; stroke-linejoin:round; stroke-width:4; stroke-opacity:1; fill:none" points="665.551,1734.12 665.551,1715.22 "/>
<polyline clip-path="url(#clip300)" style="stroke:#000000; stroke-linecap:round; stroke-linejoin:round; stroke-width:4; stroke-opacity:1; fill:none" points="1433.21,1734.12 1433.21,1715.22 "/>
<polyline clip-path="url(#clip300)" style="stroke:#000000; stroke-linecap:round; stroke-linejoin:round; stroke-width:4; stroke-opacity:1; fill:none" points="2200.86,1734.12 2200.86,1715.22 "/>
<path clip-path="url(#clip300)" d="M640.25 1764.26 L658.607 1764.26 L658.607 1768.2 L644.533 1768.2 L644.533 1776.67 Q645.551 1776.32 646.57 1776.16 Q647.588 1775.97 648.607 1775.97 Q654.394 1775.97 657.773 1779.15 Q661.153 1782.32 661.153 1787.73 Q661.153 1793.31 657.681 1796.41 Q654.208 1799.49 647.889 1799.49 Q645.713 1799.49 643.445 1799.12 Q641.199 1798.75 638.792 1798.01 L638.792 1793.31 Q640.875 1794.45 643.097 1795 Q645.32 1795.56 647.796 1795.56 Q651.801 1795.56 654.139 1793.45 Q656.477 1791.34 656.477 1787.73 Q656.477 1784.12 654.139 1782.02 Q651.801 1779.91 647.796 1779.91 Q645.921 1779.91 644.046 1780.33 Q642.195 1780.74 640.25 1781.62 L640.25 1764.26 Z" fill="#000000" fill-rule="nonzero" fill-opacity="1" /><path clip-path="url(#clip300)" d="M680.366 1767.34 Q676.755 1767.34 674.926 1770.9 Q673.12 1774.45 673.12 1781.58 Q673.12 1788.68 674.926 1792.25 Q676.755 1795.79 680.366 1795.79 Q684 1795.79 685.806 1792.25 Q687.634 1788.68 687.634 1781.58 Q687.634 1774.45 685.806 1770.9 Q684 1767.34 680.366 1767.34 M680.366 1763.64 Q686.176 1763.64 689.231 1768.24 Q692.31 1772.83 692.31 1781.58 Q692.31 1790.3 689.231 1794.91 Q686.176 1799.49 680.366 1799.49 Q674.556 1799.49 671.477 1794.91 Q668.421 1790.3 668.421 1781.58 Q668.421 1772.83 671.477 1768.24 Q674.556 1763.64 680.366 1763.64 Z" fill="#000000" fill-rule="nonzero" fill-opacity="1" /><path clip-path="url(#clip300)" d="M1392.81 1794.89 L1400.45 1794.89 L1400.45 1768.52 L1392.14 1770.19 L1392.14 1765.93 L1400.4 1764.26 L1405.08 1764.26 L1405.08 1794.89 L1412.72 1794.89 L1412.72 1798.82 L1392.81 1798.82 L1392.81 1794.89 Z" fill="#000000" fill-rule="nonzero" fill-opacity="1" /><path clip-path="url(#clip300)" d="M1432.16 1767.34 Q1428.55 1767.34 1426.72 1770.9 Q1424.92 1774.45 1424.92 1781.58 Q1424.92 1788.68 1426.72 1792.25 Q1428.55 1795.79 1432.16 1795.79 Q1435.8 1795.79 1437.6 1792.25 Q1439.43 1788.68 1439.43 1781.58 Q1439.43 1774.45 1437.6 1770.9 Q1435.8 1767.34 1432.16 1767.34 M1432.16 1763.64 Q1437.97 1763.64 1441.03 1768.24 Q1444.11 1772.83 1444.11 1781.58 Q1444.11 1790.3 1441.03 1794.91 Q1437.97 1799.49 1432.16 1799.49 Q1426.35 1799.49 1423.27 1794.91 Q1420.22 1790.3 1420.22 1781.58 Q1420.22 1772.83 1423.27 1768.24 Q1426.35 1763.64 1432.16 1763.64 Z" fill="#000000" fill-rule="nonzero" fill-opacity="1" /><path clip-path="url(#clip300)" d="M1462.33 1767.34 Q1458.71 1767.34 1456.89 1770.9 Q1455.08 1774.45 1455.08 1781.58 Q1455.08 1788.68 1456.89 1792.25 Q1458.71 1795.79 1462.33 1795.79 Q1465.96 1795.79 1467.77 1792.25 Q1469.59 1788.68 1469.59 1781.58 Q1469.59 1774.45 1467.77 1770.9 Q1465.96 1767.34 1462.33 1767.34 M1462.33 1763.64 Q1468.14 1763.64 1471.19 1768.24 Q1474.27 1772.83 1474.27 1781.58 Q1474.27 1790.3 1471.19 1794.91 Q1468.14 1799.49 1462.33 1799.49 Q1456.52 1799.49 1453.44 1794.91 Q1450.38 1790.3 1450.38 1781.58 Q1450.38 1772.83 1453.44 1768.24 Q1456.52 1763.64 1462.33 1763.64 Z" fill="#000000" fill-rule="nonzero" fill-opacity="1" /><path clip-path="url(#clip300)" d="M2164.55 1794.89 L2180.87 1794.89 L2180.87 1798.82 L2158.93 1798.82 L2158.93 1794.89 Q2161.59 1792.13 2166.17 1787.5 Q2170.78 1782.85 2171.96 1781.51 Q2174.2 1778.98 2175.08 1777.25 Q2175.99 1775.49 2175.99 1773.8 Q2175.99 1771.04 2174.04 1769.31 Q2172.12 1767.57 2169.02 1767.57 Q2166.82 1767.57 2164.37 1768.34 Q2161.94 1769.1 2159.16 1770.65 L2159.16 1765.93 Q2161.98 1764.79 2164.44 1764.21 Q2166.89 1763.64 2168.93 1763.64 Q2174.3 1763.64 2177.49 1766.32 Q2180.69 1769.01 2180.69 1773.5 Q2180.69 1775.63 2179.88 1777.55 Q2179.09 1779.45 2176.98 1782.04 Q2176.4 1782.71 2173.3 1785.93 Q2170.2 1789.12 2164.55 1794.89 Z" fill="#000000" fill-rule="nonzero" fill-opacity="1" /><path clip-path="url(#clip300)" d="M2200.69 1767.34 Q2197.07 1767.34 2195.25 1770.9 Q2193.44 1774.45 2193.44 1781.58 Q2193.44 1788.68 2195.25 1792.25 Q2197.07 1795.79 2200.69 1795.79 Q2204.32 1795.79 2206.13 1792.25 Q2207.95 1788.68 2207.95 1781.58 Q2207.95 1774.45 2206.13 1770.9 Q2204.32 1767.34 2200.69 1767.34 M2200.69 1763.64 Q2206.5 1763.64 2209.55 1768.24 Q2212.63 1772.83 2212.63 1781.58 Q2212.63 1790.3 2209.55 1794.91 Q2206.5 1799.49 2200.69 1799.49 Q2194.88 1799.49 2191.8 1794.91 Q2188.74 1790.3 2188.74 1781.58 Q2188.74 1772.83 2191.8 1768.24 Q2194.88 1763.64 2200.69 1763.64 Z" fill="#000000" fill-rule="nonzero" fill-opacity="1" /><path clip-path="url(#clip300)" d="M2230.85 1767.34 Q2227.24 1767.34 2225.41 1770.9 Q2223.6 1774.45 2223.6 1781.58 Q2223.6 1788.68 2225.41 1792.25 Q2227.24 1795.79 2230.85 1795.79 Q2234.48 1795.79 2236.29 1792.25 Q2238.12 1788.68 2238.12 1781.58 Q2238.12 1774.45 2236.29 1770.9 Q2234.48 1767.34 2230.85 1767.34 M2230.85 1763.64 Q2236.66 1763.64 2239.71 1768.24 Q2242.79 1772.83 2242.79 1781.58 Q2242.79 1790.3 2239.71 1794.91 Q2236.66 1799.49 2230.85 1799.49 Q2225.04 1799.49 2221.96 1794.91 Q2218.9 1790.3 2218.9 1781.58 Q2218.9 1772.83 2221.96 1768.24 Q2225.04 1763.64 2230.85 1763.64 Z" fill="#000000" fill-rule="nonzero" fill-opacity="1" /><path clip-path="url(#clip300)" d="M1265.1 1876.52 L1265.1 1863.76 L1254.6 1863.76 L1254.6 1858.47 L1271.47 1858.47 L1271.47 1878.88 Q1267.74 1881.52 1263.26 1882.89 Q1258.77 1884.22 1253.68 1884.22 Q1242.54 1884.22 1236.23 1877.73 Q1229.96 1871.21 1229.96 1859.59 Q1229.96 1847.94 1236.23 1841.45 Q1242.54 1834.92 1253.68 1834.92 Q1258.32 1834.92 1262.49 1836.07 Q1266.69 1837.21 1270.23 1839.44 L1270.23 1846.28 Q1266.66 1843.26 1262.65 1841.73 Q1258.64 1840.21 1254.22 1840.21 Q1245.5 1840.21 1241.1 1845.07 Q1236.74 1849.94 1236.74 1859.59 Q1236.74 1869.2 1241.1 1874.07 Q1245.5 1878.94 1254.22 1878.94 Q1257.62 1878.94 1260.3 1878.37 Q1262.97 1877.76 1265.1 1876.52 Z" fill="#000000" fill-rule="nonzero" fill-opacity="1" /><path clip-path="url(#clip300)" d="M1303.62 1853.13 Q1302.63 1852.55 1301.45 1852.3 Q1300.31 1852.01 1298.9 1852.01 Q1293.94 1852.01 1291.27 1855.26 Q1288.62 1858.47 1288.62 1864.52 L1288.62 1883.3 L1282.74 1883.3 L1282.74 1847.65 L1288.62 1847.65 L1288.62 1853.19 Q1290.47 1849.94 1293.43 1848.39 Q1296.39 1846.79 1300.62 1846.79 Q1301.23 1846.79 1301.96 1846.89 Q1302.69 1846.95 1303.58 1847.11 L1303.62 1853.13 Z" fill="#000000" fill-rule="nonzero" fill-opacity="1" /><path clip-path="url(#clip300)" d="M1325.96 1865.38 Q1318.86 1865.38 1316.12 1867 Q1313.39 1868.63 1313.39 1872.54 Q1313.39 1875.66 1315.42 1877.51 Q1317.49 1879.32 1321.03 1879.32 Q1325.9 1879.32 1328.82 1875.88 Q1331.78 1872.42 1331.78 1866.69 L1331.78 1865.38 L1325.96 1865.38 M1337.64 1862.96 L1337.64 1883.3 L1331.78 1883.3 L1331.78 1877.89 Q1329.78 1881.14 1326.79 1882.7 Q1323.79 1884.22 1319.47 1884.22 Q1313.99 1884.22 1310.74 1881.17 Q1307.53 1878.08 1307.53 1872.92 Q1307.53 1866.91 1311.54 1863.85 Q1315.58 1860.8 1323.57 1860.8 L1331.78 1860.8 L1331.78 1860.23 Q1331.78 1856.18 1329.11 1853.99 Q1326.47 1851.76 1321.66 1851.76 Q1318.61 1851.76 1315.71 1852.49 Q1312.81 1853.22 1310.14 1854.69 L1310.14 1849.28 Q1313.35 1848.03 1316.38 1847.43 Q1319.4 1846.79 1322.27 1846.79 Q1330 1846.79 1333.82 1850.8 Q1337.64 1854.81 1337.64 1862.96 Z" fill="#000000" fill-rule="nonzero" fill-opacity="1" /><path clip-path="url(#clip300)" d="M1355.37 1877.95 L1355.37 1896.86 L1349.48 1896.86 L1349.48 1847.65 L1355.37 1847.65 L1355.37 1853.06 Q1357.21 1849.88 1360.02 1848.35 Q1362.85 1846.79 1366.76 1846.79 Q1373.26 1846.79 1377.3 1851.95 Q1381.37 1857.11 1381.37 1865.51 Q1381.37 1873.91 1377.3 1879.07 Q1373.26 1884.22 1366.76 1884.22 Q1362.85 1884.22 1360.02 1882.7 Q1357.21 1881.14 1355.37 1877.95 M1375.29 1865.51 Q1375.29 1859.05 1372.62 1855.39 Q1369.98 1851.7 1365.33 1851.7 Q1360.68 1851.7 1358.01 1855.39 Q1355.37 1859.05 1355.37 1865.51 Q1355.37 1871.97 1358.01 1875.66 Q1360.68 1879.32 1365.33 1879.32 Q1369.98 1879.32 1372.62 1875.66 Q1375.29 1871.97 1375.29 1865.51 Z" fill="#000000" fill-rule="nonzero" fill-opacity="1" /><path clip-path="url(#clip300)" d="M1420.71 1861.78 L1420.71 1883.3 L1414.86 1883.3 L1414.86 1861.98 Q1414.86 1856.92 1412.88 1854.4 Q1410.91 1851.89 1406.96 1851.89 Q1402.22 1851.89 1399.48 1854.91 Q1396.75 1857.93 1396.75 1863.15 L1396.75 1883.3 L1390.86 1883.3 L1390.86 1833.78 L1396.75 1833.78 L1396.75 1853.19 Q1398.85 1849.98 1401.68 1848.39 Q1404.54 1846.79 1408.27 1846.79 Q1414.41 1846.79 1417.56 1850.61 Q1420.71 1854.4 1420.71 1861.78 Z" fill="#000000" fill-rule="nonzero" fill-opacity="1" /><path clip-path="url(#clip300)" d="M1475.84 1848.7 L1475.84 1854.24 Q1473.36 1852.97 1470.68 1852.33 Q1468.01 1851.7 1465.15 1851.7 Q1460.78 1851.7 1458.59 1853.03 Q1456.42 1854.37 1456.42 1857.04 Q1456.42 1859.08 1457.98 1860.26 Q1459.54 1861.4 1464.25 1862.45 L1466.26 1862.9 Q1472.5 1864.24 1475.11 1866.69 Q1477.75 1869.11 1477.75 1873.47 Q1477.75 1878.43 1473.8 1881.33 Q1469.89 1884.22 1463.01 1884.22 Q1460.15 1884.22 1457.03 1883.65 Q1453.94 1883.11 1450.5 1882 L1450.5 1875.95 Q1453.75 1877.64 1456.9 1878.49 Q1460.05 1879.32 1463.14 1879.32 Q1467.28 1879.32 1469.51 1877.92 Q1471.73 1876.49 1471.73 1873.91 Q1471.73 1871.52 1470.11 1870.25 Q1468.52 1868.98 1463.08 1867.8 L1461.04 1867.32 Q1455.6 1866.18 1453.18 1863.82 Q1450.76 1861.43 1450.76 1857.3 Q1450.76 1852.27 1454.32 1849.53 Q1457.89 1846.79 1464.44 1846.79 Q1467.69 1846.79 1470.56 1847.27 Q1473.42 1847.75 1475.84 1848.7 Z" fill="#000000" fill-rule="nonzero" fill-opacity="1" /><path clip-path="url(#clip300)" d="M1487.07 1847.65 L1492.93 1847.65 L1492.93 1883.3 L1487.07 1883.3 L1487.07 1847.65 M1487.07 1833.78 L1492.93 1833.78 L1492.93 1841.19 L1487.07 1841.19 L1487.07 1833.78 Z" fill="#000000" fill-rule="nonzero" fill-opacity="1" /><path clip-path="url(#clip300)" d="M1502.64 1847.65 L1530.46 1847.65 L1530.46 1853 L1508.43 1878.62 L1530.46 1878.62 L1530.46 1883.3 L1501.84 1883.3 L1501.84 1877.95 L1523.87 1852.33 L1502.64 1852.33 L1502.64 1847.65 Z" fill="#000000" fill-rule="nonzero" fill-opacity="1" /><path clip-path="url(#clip300)" d="M1569.89 1864.01 L1569.89 1866.88 L1542.97 1866.88 Q1543.35 1872.92 1546.59 1876.11 Q1549.87 1879.26 1555.7 1879.26 Q1559.07 1879.26 1562.22 1878.43 Q1565.4 1877.6 1568.52 1875.95 L1568.52 1881.49 Q1565.37 1882.82 1562.06 1883.52 Q1558.75 1884.22 1555.35 1884.22 Q1546.82 1884.22 1541.82 1879.26 Q1536.85 1874.29 1536.85 1865.83 Q1536.85 1857.07 1541.57 1851.95 Q1546.31 1846.79 1554.33 1846.79 Q1561.52 1846.79 1565.69 1851.44 Q1569.89 1856.06 1569.89 1864.01 M1564.04 1862.29 Q1563.97 1857.49 1561.33 1854.62 Q1558.72 1851.76 1554.39 1851.76 Q1549.49 1851.76 1546.53 1854.53 Q1543.6 1857.3 1543.16 1862.33 L1564.04 1862.29 Z" fill="#000000" fill-rule="nonzero" fill-opacity="1" /><path clip-path="url(#clip300)" d="M1600.48 1835.78 L1609.14 1835.78 L1630.21 1875.53 L1630.21 1835.78 L1636.45 1835.78 L1636.45 1883.3 L1627.79 1883.3 L1606.72 1843.55 L1606.72 1883.3 L1600.48 1883.3 L1600.48 1835.78 Z" fill="#000000" fill-rule="nonzero" fill-opacity="1" /><polyline clip-path="url(#clip300)" style="stroke:#000000; stroke-linecap:round; stroke-linejoin:round; stroke-width:4; stroke-opacity:1; fill:none" points="225.654,1734.12 225.654,127.792 "/>
<polyline clip-path="url(#clip300)" style="stroke:#000000; stroke-linecap:round; stroke-linejoin:round; stroke-width:4; stroke-opacity:1; fill:none" points="225.654,1734.12 244.552,1734.12 "/>
<polyline clip-path="url(#clip300)" style="stroke:#000000; stroke-linecap:round; stroke-linejoin:round; stroke-width:4; stroke-opacity:1; fill:none" points="225.654,1304.86 244.552,1304.86 "/>
<polyline clip-path="url(#clip300)" style="stroke:#000000; stroke-linecap:round; stroke-linejoin:round; stroke-width:4; stroke-opacity:1; fill:none" points="225.654,875.598 244.552,875.598 "/>
<polyline clip-path="url(#clip300)" style="stroke:#000000; stroke-linecap:round; stroke-linejoin:round; stroke-width:4; stroke-opacity:1; fill:none" points="225.654,446.338 244.552,446.338 "/>
<path clip-path="url(#clip300)" d="M128.159 1719.92 Q124.548 1719.92 122.719 1723.48 Q120.913 1727.02 120.913 1734.15 Q120.913 1741.26 122.719 1744.82 Q124.548 1748.36 128.159 1748.36 Q131.793 1748.36 133.599 1744.82 Q135.427 1741.26 135.427 1734.15 Q135.427 1727.02 133.599 1723.48 Q131.793 1719.92 128.159 1719.92 M128.159 1716.21 Q133.969 1716.21 137.025 1720.82 Q140.103 1725.4 140.103 1734.15 Q140.103 1742.88 137.025 1747.48 Q133.969 1752.07 128.159 1752.07 Q122.349 1752.07 119.27 1747.48 Q116.214 1742.88 116.214 1734.15 Q116.214 1725.4 119.27 1720.82 Q122.349 1716.21 128.159 1716.21 Z" fill="#000000" fill-rule="nonzero" fill-opacity="1" /><path clip-path="url(#clip300)" d="M148.321 1745.52 L153.205 1745.52 L153.205 1751.4 L148.321 1751.4 L148.321 1745.52 Z" fill="#000000" fill-rule="nonzero" fill-opacity="1" /><path clip-path="url(#clip300)" d="M173.39 1719.92 Q169.779 1719.92 167.95 1723.48 Q166.145 1727.02 166.145 1734.15 Q166.145 1741.26 167.95 1744.82 Q169.779 1748.36 173.39 1748.36 Q177.024 1748.36 178.83 1744.82 Q180.659 1741.26 180.659 1734.15 Q180.659 1727.02 178.83 1723.48 Q177.024 1719.92 173.39 1719.92 M173.39 1716.21 Q179.2 1716.21 182.256 1720.82 Q185.334 1725.4 185.334 1734.15 Q185.334 1742.88 182.256 1747.48 Q179.2 1752.07 173.39 1752.07 Q167.58 1752.07 164.501 1747.48 Q161.446 1742.88 161.446 1734.15 Q161.446 1725.4 164.501 1720.82 Q167.58 1716.21 173.39 1716.21 Z" fill="#000000" fill-rule="nonzero" fill-opacity="1" /><path clip-path="url(#clip300)" d="M129.386 1290.66 Q125.775 1290.66 123.946 1294.22 Q122.14 1297.76 122.14 1304.89 Q122.14 1312 123.946 1315.56 Q125.775 1319.1 129.386 1319.1 Q133.02 1319.1 134.825 1315.56 Q136.654 1312 136.654 1304.89 Q136.654 1297.76 134.825 1294.22 Q133.02 1290.66 129.386 1290.66 M129.386 1286.95 Q135.196 1286.95 138.251 1291.56 Q141.33 1296.14 141.33 1304.89 Q141.33 1313.62 138.251 1318.23 Q135.196 1322.81 129.386 1322.81 Q123.576 1322.81 120.497 1318.23 Q117.441 1313.62 117.441 1304.89 Q117.441 1296.14 120.497 1291.56 Q123.576 1286.95 129.386 1286.95 Z" fill="#000000" fill-rule="nonzero" fill-opacity="1" /><path clip-path="url(#clip300)" d="M149.548 1316.26 L154.432 1316.26 L154.432 1322.14 L149.548 1322.14 L149.548 1316.26 Z" fill="#000000" fill-rule="nonzero" fill-opacity="1" /><path clip-path="url(#clip300)" d="M165.427 1318.2 L173.066 1318.2 L173.066 1291.84 L164.756 1293.5 L164.756 1289.24 L173.02 1287.58 L177.696 1287.58 L177.696 1318.2 L185.334 1318.2 L185.334 1322.14 L165.427 1322.14 L165.427 1318.2 Z" fill="#000000" fill-rule="nonzero" fill-opacity="1" /><path clip-path="url(#clip300)" d="M129.756 861.396 Q126.145 861.396 124.316 864.961 Q122.511 868.503 122.511 875.633 Q122.511 882.739 124.316 886.304 Q126.145 889.845 129.756 889.845 Q133.39 889.845 135.196 886.304 Q137.025 882.739 137.025 875.633 Q137.025 868.503 135.196 864.961 Q133.39 861.396 129.756 861.396 M129.756 857.693 Q135.566 857.693 138.622 862.299 Q141.7 866.883 141.7 875.633 Q141.7 884.359 138.622 888.966 Q135.566 893.549 129.756 893.549 Q123.946 893.549 120.867 888.966 Q117.812 884.359 117.812 875.633 Q117.812 866.883 120.867 862.299 Q123.946 857.693 129.756 857.693 Z" fill="#000000" fill-rule="nonzero" fill-opacity="1" /><path clip-path="url(#clip300)" d="M149.918 886.998 L154.802 886.998 L154.802 892.878 L149.918 892.878 L149.918 886.998 Z" fill="#000000" fill-rule="nonzero" fill-opacity="1" /><path clip-path="url(#clip300)" d="M169.015 888.943 L185.334 888.943 L185.334 892.878 L163.39 892.878 L163.39 888.943 Q166.052 886.188 170.635 881.558 Q175.242 876.906 176.422 875.563 Q178.668 873.04 179.547 871.304 Q180.45 869.545 180.45 867.855 Q180.45 865.1 178.506 863.364 Q176.584 861.628 173.483 861.628 Q171.284 861.628 168.83 862.392 Q166.399 863.156 163.622 864.707 L163.622 859.984 Q166.446 858.85 168.899 858.271 Q171.353 857.693 173.39 857.693 Q178.76 857.693 181.955 860.378 Q185.149 863.063 185.149 867.554 Q185.149 869.683 184.339 871.605 Q183.552 873.503 181.446 876.095 Q180.867 876.767 177.765 879.984 Q174.663 883.179 169.015 888.943 Z" fill="#000000" fill-rule="nonzero" fill-opacity="1" /><path clip-path="url(#clip300)" d="M128.807 432.137 Q125.196 432.137 123.367 435.702 Q121.562 439.243 121.562 446.373 Q121.562 453.479 123.367 457.044 Q125.196 460.586 128.807 460.586 Q132.441 460.586 134.247 457.044 Q136.075 453.479 136.075 446.373 Q136.075 439.243 134.247 435.702 Q132.441 432.137 128.807 432.137 M128.807 428.433 Q134.617 428.433 137.673 433.04 Q140.751 437.623 140.751 446.373 Q140.751 455.1 137.673 459.706 Q134.617 464.289 128.807 464.289 Q122.997 464.289 119.918 459.706 Q116.863 455.1 116.863 446.373 Q116.863 437.623 119.918 433.04 Q122.997 428.433 128.807 428.433 Z" fill="#000000" fill-rule="nonzero" fill-opacity="1" /><path clip-path="url(#clip300)" d="M148.969 457.739 L153.853 457.739 L153.853 463.618 L148.969 463.618 L148.969 457.739 Z" fill="#000000" fill-rule="nonzero" fill-opacity="1" /><path clip-path="url(#clip300)" d="M178.205 444.984 Q181.561 445.702 183.436 447.97 Q185.334 450.239 185.334 453.572 Q185.334 458.688 181.816 461.489 Q178.297 464.289 171.816 464.289 Q169.64 464.289 167.325 463.85 Q165.034 463.433 162.58 462.577 L162.58 458.063 Q164.524 459.197 166.839 459.776 Q169.154 460.354 171.677 460.354 Q176.075 460.354 178.367 458.618 Q180.682 456.882 180.682 453.572 Q180.682 450.516 178.529 448.803 Q176.399 447.067 172.58 447.067 L168.552 447.067 L168.552 443.225 L172.765 443.225 Q176.214 443.225 178.043 441.859 Q179.872 440.47 179.872 437.878 Q179.872 435.216 177.973 433.804 Q176.098 432.368 172.58 432.368 Q170.659 432.368 168.46 432.785 Q166.26 433.202 163.622 434.081 L163.622 429.915 Q166.284 429.174 168.598 428.804 Q170.936 428.433 172.997 428.433 Q178.321 428.433 181.422 430.864 Q184.524 433.271 184.524 437.391 Q184.524 440.262 182.881 442.253 Q181.237 444.22 178.205 444.984 Z" fill="#000000" fill-rule="nonzero" fill-opacity="1" /><path clip-path="url(#clip300)" d="M14.1184 1173.73 L14.1184 1164.15 L46.4562 1152.02 L14.1184 1139.83 L14.1184 1130.25 L61.6384 1130.25 L61.6384 1136.52 L19.9112 1136.52 L52.5037 1148.77 L52.5037 1155.23 L19.9112 1167.49 L61.6384 1167.49 L61.6384 1173.73 L14.1184 1173.73 Z" fill="#000000" fill-rule="nonzero" fill-opacity="1" /><path clip-path="url(#clip300)" d="M43.719 1101.54 Q43.719 1108.64 45.3422 1111.37 Q46.9655 1114.11 50.8804 1114.11 Q53.9996 1114.11 55.8457 1112.07 Q57.6599 1110.01 57.6599 1106.47 Q57.6599 1101.6 54.2224 1098.68 Q50.7531 1095.71 45.0239 1095.71 L43.719 1095.71 L43.719 1101.54 M41.3 1089.86 L61.6384 1089.86 L61.6384 1095.71 L56.2276 1095.71 Q59.4741 1097.72 61.0337 1100.71 Q62.5615 1103.7 62.5615 1108.03 Q62.5615 1113.51 59.5059 1116.75 Q56.4186 1119.97 51.2623 1119.97 Q45.2467 1119.97 42.1912 1115.96 Q39.1357 1111.92 39.1357 1103.93 L39.1357 1095.71 L38.5628 1095.71 Q34.5205 1095.71 32.3244 1098.39 Q30.0964 1101.03 30.0964 1105.84 Q30.0964 1108.89 30.8284 1111.79 Q31.5605 1114.68 33.0246 1117.36 L27.6137 1117.36 Q26.3724 1114.14 25.7677 1111.12 Q25.1311 1108.1 25.1311 1105.23 Q25.1311 1097.5 29.1415 1093.68 Q33.1519 1089.86 41.3 1089.86 Z" fill="#000000" fill-rule="nonzero" fill-opacity="1" /><path clip-path="url(#clip300)" d="M25.9905 1048.16 L43.337 1061.05 L61.6384 1047.49 L61.6384 1054.4 L47.6339 1064.78 L61.6384 1075.15 L61.6384 1082.06 L42.9869 1068.22 L25.9905 1080.88 L25.9905 1073.98 L38.6901 1064.52 L25.9905 1055.07 L25.9905 1048.16 Z" fill="#000000" fill-rule="nonzero" fill-opacity="1" /><path clip-path="url(#clip300)" d="M11.8268 1010.96 L77.0116 1010.96 L77.0116 1016.37 L11.8268 1016.37 L11.8268 1010.96 Z" fill="#000000" fill-rule="nonzero" fill-opacity="1" /><path clip-path="url(#clip300)" d="M14.1184 996.283 L14.1184 989.853 L61.6384 989.853 L61.6384 996.283 L14.1184 996.283 Z" fill="#000000" fill-rule="nonzero" fill-opacity="1" /><path clip-path="url(#clip300)" d="M58.1373 978.49 L58.1373 971.997 L38.6901 971.997 L39.995 979.095 L36.3029 979.095 L35.0616 971.775 L35.0616 967.414 L58.1373 967.414 L58.1373 960.889 L61.6384 960.889 L61.6384 978.49 L58.1373 978.49 Z" fill="#000000" fill-rule="nonzero" fill-opacity="1" /><path clip-path="url(#clip300)" d="M38.4991 929.697 L38.4991 888.893 L43.91 888.893 L43.91 929.697 L38.4991 929.697 Z" fill="#000000" fill-rule="nonzero" fill-opacity="1" /><path clip-path="url(#clip300)" d="M14.1184 854.868 L14.1184 848.439 L61.6384 848.439 L61.6384 854.868 L14.1184 854.868 Z" fill="#000000" fill-rule="nonzero" fill-opacity="1" /><path clip-path="url(#clip300)" d="M58.01 833.512 L58.01 820.016 L61.6384 820.016 L61.6384 839.05 L58.1373 839.05 Q57.1506 837.967 55.3682 835.962 Q45.6605 825.013 42.6686 825.013 Q40.568 825.013 39.2948 826.668 Q37.9898 828.323 37.9898 831.029 Q37.9898 832.684 38.5628 834.626 Q39.1038 836.567 40.2178 838.859 L36.3029 838.859 Q35.4117 836.408 34.9661 834.307 Q34.5205 832.175 34.5205 830.36 Q34.5205 825.745 36.6212 822.976 Q38.7219 820.207 42.1594 820.207 Q46.5835 820.207 55.6229 830.742 Q57.1506 832.525 58.01 833.512 Z" fill="#000000" fill-rule="nonzero" fill-opacity="1" /><path clip-path="url(#clip300)" d="M11.8268 802.224 L77.0116 802.224 L77.0116 807.635 L11.8268 807.635 L11.8268 802.224 Z" fill="#000000" fill-rule="nonzero" fill-opacity="1" /><path clip-path="url(#clip300)" d="M14.1184 756.677 L14.1184 751.267 L67.6859 767.817 L67.6859 773.228 L14.1184 756.677 Z" fill="#000000" fill-rule="nonzero" fill-opacity="1" /><path clip-path="url(#clip300)" d="M14.1184 724.149 L14.1184 715.491 L53.8723 694.421 L14.1184 694.421 L14.1184 688.182 L61.6384 688.182 L61.6384 696.84 L21.8846 717.91 L61.6384 717.91 L61.6384 724.149 L14.1184 724.149 Z" fill="#000000" fill-rule="nonzero" fill-opacity="1" /><path clip-path="url(#clip300)" d="M606.011 17.6457 Q597.099 17.6457 591.832 24.2892 Q586.607 30.9327 586.607 42.3968 Q586.607 53.8203 591.832 60.4638 Q597.099 67.1073 606.011 67.1073 Q614.923 67.1073 620.108 60.4638 Q625.333 53.8203 625.333 42.3968 Q625.333 30.9327 620.108 24.2892 Q614.923 17.6457 606.011 17.6457 M606.011 11.0023 Q618.73 11.0023 626.346 19.5497 Q633.962 28.0566 633.962 42.3968 Q633.962 56.6965 626.346 65.2439 Q618.73 73.7508 606.011 73.7508 Q593.25 73.7508 585.594 65.2439 Q577.978 56.737 577.978 42.3968 Q577.978 28.0566 585.594 19.5497 Q593.25 11.0023 606.011 11.0023 Z" fill="#000000" fill-rule="nonzero" fill-opacity="1" /><path clip-path="url(#clip300)" d="M672.729 34.1734 Q671.473 33.4443 669.974 33.1202 Q668.516 32.7556 666.734 32.7556 Q660.414 32.7556 657.011 36.8875 Q653.649 40.9789 653.649 48.6757 L653.649 72.576 L646.155 72.576 L646.155 27.2059 L653.649 27.2059 L653.649 34.2544 Q655.999 30.1225 659.766 28.1376 Q663.533 26.1121 668.921 26.1121 Q669.691 26.1121 670.622 26.2337 Q671.554 26.3147 672.688 26.5172 L672.729 34.1734 Z" fill="#000000" fill-rule="nonzero" fill-opacity="1" /><path clip-path="url(#clip300)" d="M708.944 34.0924 L708.944 9.54393 L716.398 9.54393 L716.398 72.576 L708.944 72.576 L708.944 65.7705 Q706.594 69.8214 702.989 71.8063 Q699.424 73.7508 694.401 73.7508 Q686.178 73.7508 680.993 67.1883 Q675.848 60.6258 675.848 49.9314 Q675.848 39.2371 680.993 32.6746 Q686.178 26.1121 694.401 26.1121 Q699.424 26.1121 702.989 28.0971 Q706.594 30.0415 708.944 34.0924 M683.545 49.9314 Q683.545 58.1548 686.907 62.8538 Q690.31 67.5124 696.224 67.5124 Q702.138 67.5124 705.541 62.8538 Q708.944 58.1548 708.944 49.9314 Q708.944 41.7081 705.541 37.0496 Q702.138 32.3505 696.224 32.3505 Q690.31 32.3505 686.907 37.0496 Q683.545 41.7081 683.545 49.9314 Z" fill="#000000" fill-rule="nonzero" fill-opacity="1" /><path clip-path="url(#clip300)" d="M770.558 48.0275 L770.558 51.6733 L736.288 51.6733 Q736.774 59.3701 740.906 63.421 Q745.078 67.4314 752.491 67.4314 Q756.785 67.4314 760.796 66.3781 Q764.846 65.3249 768.816 63.2184 L768.816 70.267 Q764.806 71.9684 760.593 72.8596 Q756.38 73.7508 752.046 73.7508 Q741.189 73.7508 734.829 67.4314 Q728.51 61.1119 728.51 50.3365 Q728.51 39.1965 734.505 32.6746 Q740.541 26.1121 750.749 26.1121 Q759.904 26.1121 765.211 32.0264 Q770.558 37.9003 770.558 48.0275 M763.105 45.84 Q763.024 39.7232 759.661 36.0774 Q756.34 32.4315 750.83 32.4315 Q744.592 32.4315 740.825 35.9558 Q737.098 39.4801 736.531 45.8805 L763.105 45.84 Z" fill="#000000" fill-rule="nonzero" fill-opacity="1" /><path clip-path="url(#clip300)" d="M809.082 34.1734 Q807.827 33.4443 806.328 33.1202 Q804.869 32.7556 803.087 32.7556 Q796.768 32.7556 793.365 36.8875 Q790.003 40.9789 790.003 48.6757 L790.003 72.576 L782.508 72.576 L782.508 27.2059 L790.003 27.2059 L790.003 34.2544 Q792.352 30.1225 796.119 28.1376 Q799.887 26.1121 805.275 26.1121 Q806.044 26.1121 806.976 26.2337 Q807.908 26.3147 809.042 26.5172 L809.082 34.1734 Z" fill="#000000" fill-rule="nonzero" fill-opacity="1" /><path clip-path="url(#clip300)" d="M807.827 46.5287 L829.661 46.5287 L829.661 53.1722 L807.827 53.1722 L807.827 46.5287 Z" fill="#000000" fill-rule="nonzero" fill-opacity="1" /><path clip-path="url(#clip300)" d="M844.001 65.6895 L857.369 65.6895 L857.369 19.5497 L842.826 22.4663 L842.826 15.0127 L857.288 12.096 L865.471 12.096 L865.471 65.6895 L878.839 65.6895 L878.839 72.576 L844.001 72.576 L844.001 65.6895 Z" fill="#000000" fill-rule="nonzero" fill-opacity="1" /><path clip-path="url(#clip300)" d="M915.338 27.2059 L923.237 27.2059 L937.415 65.2844 L951.593 27.2059 L959.492 27.2059 L942.479 72.576 L932.351 72.576 L915.338 27.2059 Z" fill="#000000" fill-rule="nonzero" fill-opacity="1" /><path clip-path="url(#clip300)" d="M998.705 28.5427 L998.705 35.5912 Q995.545 33.9709 992.143 33.1607 Q988.74 32.3505 985.094 32.3505 Q979.544 32.3505 976.749 34.0519 Q973.995 35.7533 973.995 39.156 Q973.995 41.7486 975.98 43.2475 Q977.965 44.7058 983.96 46.0426 L986.512 46.6097 Q994.452 48.3111 997.773 51.4303 Q1001.14 54.509 1001.14 60.0587 Q1001.14 66.3781 996.113 70.0644 Q991.13 73.7508 982.38 73.7508 Q978.734 73.7508 974.764 73.0216 Q970.835 72.3329 966.46 70.9151 L966.46 63.2184 Q970.592 65.3654 974.602 66.4591 Q978.613 67.5124 982.542 67.5124 Q987.808 67.5124 990.644 65.73 Q993.48 63.9071 993.48 60.6258 Q993.48 57.5877 991.414 55.9673 Q989.388 54.3469 982.461 52.8481 L979.868 52.2405 Q972.941 50.7821 969.863 47.7845 Q966.784 44.7463 966.784 39.4801 Q966.784 33.0797 971.321 29.5959 Q975.858 26.1121 984.203 26.1121 Q988.335 26.1121 991.981 26.7198 Q995.627 27.3274 998.705 28.5427 Z" fill="#000000" fill-rule="nonzero" fill-opacity="1" /><path clip-path="url(#clip300)" d="M1056.96 32.4315 Q1050.96 32.4315 1047.48 37.1306 Q1043.99 41.7891 1043.99 49.9314 Q1043.99 58.0738 1047.44 62.7728 Q1050.92 67.4314 1056.96 67.4314 Q1062.91 67.4314 1066.4 62.7323 Q1069.88 58.0333 1069.88 49.9314 Q1069.88 41.8701 1066.4 37.1711 Q1062.91 32.4315 1056.96 32.4315 M1056.96 26.1121 Q1066.68 26.1121 1072.23 32.4315 Q1077.78 38.7509 1077.78 49.9314 Q1077.78 61.0714 1072.23 67.4314 Q1066.68 73.7508 1056.96 73.7508 Q1047.19 73.7508 1041.64 67.4314 Q1036.14 61.0714 1036.14 49.9314 Q1036.14 38.7509 1041.64 32.4315 Q1047.19 26.1121 1056.96 26.1121 Z" fill="#000000" fill-rule="nonzero" fill-opacity="1" /><path clip-path="url(#clip300)" d="M1116.42 34.1734 Q1115.17 33.4443 1113.67 33.1202 Q1112.21 32.7556 1110.43 32.7556 Q1104.11 32.7556 1100.71 36.8875 Q1097.34 40.9789 1097.34 48.6757 L1097.34 72.576 L1089.85 72.576 L1089.85 27.2059 L1097.34 27.2059 L1097.34 34.2544 Q1099.69 30.1225 1103.46 28.1376 Q1107.23 26.1121 1112.62 26.1121 Q1113.39 26.1121 1114.32 26.2337 Q1115.25 26.3147 1116.38 26.5172 L1116.42 34.1734 Z" fill="#000000" fill-rule="nonzero" fill-opacity="1" /><path clip-path="url(#clip300)" d="M1152.64 34.0924 L1152.64 9.54393 L1160.09 9.54393 L1160.09 72.576 L1152.64 72.576 L1152.64 65.7705 Q1150.29 69.8214 1146.68 71.8063 Q1143.12 73.7508 1138.1 73.7508 Q1129.87 73.7508 1124.69 67.1883 Q1119.54 60.6258 1119.54 49.9314 Q1119.54 39.2371 1124.69 32.6746 Q1129.87 26.1121 1138.1 26.1121 Q1143.12 26.1121 1146.68 28.0971 Q1150.29 30.0415 1152.64 34.0924 M1127.24 49.9314 Q1127.24 58.1548 1130.6 62.8538 Q1134.01 67.5124 1139.92 67.5124 Q1145.83 67.5124 1149.24 62.8538 Q1152.64 58.1548 1152.64 49.9314 Q1152.64 41.7081 1149.24 37.0496 Q1145.83 32.3505 1139.92 32.3505 Q1134.01 32.3505 1130.6 37.0496 Q1127.24 41.7081 1127.24 49.9314 Z" fill="#000000" fill-rule="nonzero" fill-opacity="1" /><path clip-path="url(#clip300)" d="M1214.25 48.0275 L1214.25 51.6733 L1179.98 51.6733 Q1180.47 59.3701 1184.6 63.421 Q1188.77 67.4314 1196.19 67.4314 Q1200.48 67.4314 1204.49 66.3781 Q1208.54 65.3249 1212.51 63.2184 L1212.51 70.267 Q1208.5 71.9684 1204.29 72.8596 Q1200.08 73.7508 1195.74 73.7508 Q1184.88 73.7508 1178.52 67.4314 Q1172.21 61.1119 1172.21 50.3365 Q1172.21 39.1965 1178.2 32.6746 Q1184.24 26.1121 1194.44 26.1121 Q1203.6 26.1121 1208.91 32.0264 Q1214.25 37.9003 1214.25 48.0275 M1206.8 45.84 Q1206.72 39.7232 1203.36 36.0774 Q1200.04 32.4315 1194.53 32.4315 Q1188.29 32.4315 1184.52 35.9558 Q1180.79 39.4801 1180.23 45.8805 L1206.8 45.84 Z" fill="#000000" fill-rule="nonzero" fill-opacity="1" /><path clip-path="url(#clip300)" d="M1252.78 34.1734 Q1251.52 33.4443 1250.02 33.1202 Q1248.56 32.7556 1246.78 32.7556 Q1240.46 32.7556 1237.06 36.8875 Q1233.7 40.9789 1233.7 48.6757 L1233.7 72.576 L1226.2 72.576 L1226.2 27.2059 L1233.7 27.2059 L1233.7 34.2544 Q1236.05 30.1225 1239.82 28.1376 Q1243.58 26.1121 1248.97 26.1121 Q1249.74 26.1121 1250.67 26.2337 Q1251.6 26.3147 1252.74 26.5172 L1252.78 34.1734 Z" fill="#000000" fill-rule="nonzero" fill-opacity="1" /><path clip-path="url(#clip300)" d="M1251.52 46.5287 L1273.36 46.5287 L1273.36 53.1722 L1251.52 53.1722 L1251.52 46.5287 Z" fill="#000000" fill-rule="nonzero" fill-opacity="1" /><path clip-path="url(#clip300)" d="M1293.33 65.6895 L1321.89 65.6895 L1321.89 72.576 L1283.48 72.576 L1283.48 65.6895 Q1288.14 60.8689 1296.16 52.7671 Q1304.22 44.6248 1306.29 42.2752 Q1310.22 37.8598 1311.76 34.8216 Q1313.34 31.7429 1313.34 28.7857 Q1313.34 23.9651 1309.94 20.927 Q1306.57 17.8888 1301.15 17.8888 Q1297.3 17.8888 1293 19.2256 Q1288.75 20.5624 1283.89 23.2765 L1283.89 15.0127 Q1288.83 13.0277 1293.12 12.015 Q1297.42 11.0023 1300.98 11.0023 Q1310.38 11.0023 1315.97 15.7013 Q1321.56 20.4004 1321.56 28.2591 Q1321.56 31.9859 1320.14 35.3482 Q1318.77 38.6699 1315.08 43.2069 Q1314.07 44.3817 1308.64 50.0125 Q1303.21 55.6027 1293.33 65.6895 Z" fill="#000000" fill-rule="nonzero" fill-opacity="1" /><path clip-path="url(#clip300)" d="M1394.24 49.3643 Q1394.24 41.2625 1390.87 36.8065 Q1387.55 32.3505 1381.52 32.3505 Q1375.52 32.3505 1372.16 36.8065 Q1368.84 41.2625 1368.84 49.3643 Q1368.84 57.4256 1372.16 61.8816 Q1375.52 66.3376 1381.52 66.3376 Q1387.55 66.3376 1390.87 61.8816 Q1394.24 57.4256 1394.24 49.3643 M1401.69 66.9452 Q1401.69 78.5308 1396.54 84.1616 Q1391.4 89.8329 1380.79 89.8329 Q1376.86 89.8329 1373.37 89.2252 Q1369.89 88.6581 1366.61 87.4428 L1366.61 80.1917 Q1369.89 81.9741 1373.09 82.8248 Q1376.29 83.6755 1379.61 83.6755 Q1386.94 83.6755 1390.59 79.8271 Q1394.24 76.0193 1394.24 68.282 L1394.24 64.5957 Q1391.93 68.6061 1388.32 70.5911 Q1384.72 72.576 1379.69 72.576 Q1371.35 72.576 1366.24 66.2161 Q1361.14 59.8562 1361.14 49.3643 Q1361.14 38.832 1366.24 32.472 Q1371.35 26.1121 1379.69 26.1121 Q1384.72 26.1121 1388.32 28.0971 Q1391.93 30.082 1394.24 34.0924 L1394.24 27.2059 L1401.69 27.2059 L1401.69 66.9452 Z" fill="#000000" fill-rule="nonzero" fill-opacity="1" /><path clip-path="url(#clip300)" d="M1437.66 49.7694 Q1428.63 49.7694 1425.14 51.8354 Q1421.66 53.9013 1421.66 58.8839 Q1421.66 62.8538 1424.25 65.2034 Q1426.89 67.5124 1431.38 67.5124 Q1437.58 67.5124 1441.31 63.1374 Q1445.07 58.7219 1445.07 51.4303 L1445.07 49.7694 L1437.66 49.7694 M1452.53 46.6907 L1452.53 72.576 L1445.07 72.576 L1445.07 65.6895 Q1442.52 69.8214 1438.71 71.8063 Q1434.91 73.7508 1429.4 73.7508 Q1422.43 73.7508 1418.3 69.8619 Q1414.21 65.9325 1414.21 59.3701 Q1414.21 51.7138 1419.31 47.825 Q1424.46 43.9361 1434.62 43.9361 L1445.07 43.9361 L1445.07 43.2069 Q1445.07 38.0623 1441.67 35.2672 Q1438.31 32.4315 1432.19 32.4315 Q1428.3 32.4315 1424.62 33.3632 Q1420.93 34.295 1417.53 36.1584 L1417.53 29.2718 Q1421.62 27.692 1425.47 26.9223 Q1429.32 26.1121 1432.96 26.1121 Q1442.81 26.1121 1447.67 31.2163 Q1452.53 36.3204 1452.53 46.6907 Z" fill="#000000" fill-rule="nonzero" fill-opacity="1" /><path clip-path="url(#clip300)" d="M1475.09 65.7705 L1475.09 89.8329 L1467.6 89.8329 L1467.6 27.2059 L1475.09 27.2059 L1475.09 34.0924 Q1477.44 30.0415 1481.01 28.0971 Q1484.61 26.1121 1489.59 26.1121 Q1497.86 26.1121 1503 32.6746 Q1508.19 39.2371 1508.19 49.9314 Q1508.19 60.6258 1503 67.1883 Q1497.86 73.7508 1489.59 73.7508 Q1484.61 73.7508 1481.01 71.8063 Q1477.44 69.8214 1475.09 65.7705 M1500.45 49.9314 Q1500.45 41.7081 1497.05 37.0496 Q1493.69 32.3505 1487.77 32.3505 Q1481.86 32.3505 1478.45 37.0496 Q1475.09 41.7081 1475.09 49.9314 Q1475.09 58.1548 1478.45 62.8538 Q1481.86 67.5124 1487.77 67.5124 Q1493.69 67.5124 1497.05 62.8538 Q1500.45 58.1548 1500.45 49.9314 Z" fill="#000000" fill-rule="nonzero" fill-opacity="1" /><path clip-path="url(#clip300)" d="M1564.82 9.62495 Q1559.39 18.942 1556.76 28.0566 Q1554.12 37.1711 1554.12 46.5287 Q1554.12 55.8863 1556.76 65.0818 Q1559.43 74.2369 1564.82 83.5134 L1558.34 83.5134 Q1552.26 73.9938 1549.22 64.7983 Q1546.23 55.6027 1546.23 46.5287 Q1546.23 37.4952 1549.22 28.3401 Q1552.22 19.1851 1558.34 9.62495 L1564.82 9.62495 Z" fill="#000000" fill-rule="nonzero" fill-opacity="1" /><path clip-path="url(#clip300)" d="M1602.82 19.2256 L1582.16 51.5113 L1602.82 51.5113 L1602.82 19.2256 M1600.67 12.096 L1610.96 12.096 L1610.96 51.5113 L1619.59 51.5113 L1619.59 58.3168 L1610.96 58.3168 L1610.96 72.576 L1602.82 72.576 L1602.82 58.3168 L1575.51 58.3168 L1575.51 50.4176 L1600.67 12.096 Z" fill="#000000" fill-rule="nonzero" fill-opacity="1" /><path clip-path="url(#clip300)" d="M1628.3 46.5287 L1650.13 46.5287 L1650.13 53.1722 L1628.3 53.1722 L1628.3 46.5287 Z" fill="#000000" fill-rule="nonzero" fill-opacity="1" /><path clip-path="url(#clip300)" d="M1688.29 34.1734 Q1687.03 33.4443 1685.54 33.1202 Q1684.08 32.7556 1682.3 32.7556 Q1675.98 32.7556 1672.57 36.8875 Q1669.21 40.9789 1669.21 48.6757 L1669.21 72.576 L1661.72 72.576 L1661.72 27.2059 L1669.21 27.2059 L1669.21 34.2544 Q1671.56 30.1225 1675.33 28.1376 Q1679.1 26.1121 1684.48 26.1121 Q1685.25 26.1121 1686.18 26.2337 Q1687.12 26.3147 1688.25 26.5172 L1688.29 34.1734 Z" fill="#000000" fill-rule="nonzero" fill-opacity="1" /><path clip-path="url(#clip300)" d="M1733.09 48.0275 L1733.09 51.6733 L1698.82 51.6733 Q1699.31 59.3701 1703.44 63.421 Q1707.61 67.4314 1715.03 67.4314 Q1719.32 67.4314 1723.33 66.3781 Q1727.38 65.3249 1731.35 63.2184 L1731.35 70.267 Q1727.34 71.9684 1723.13 72.8596 Q1718.92 73.7508 1714.58 73.7508 Q1703.72 73.7508 1697.36 67.4314 Q1691.05 61.1119 1691.05 50.3365 Q1691.05 39.1965 1697.04 32.6746 Q1703.08 26.1121 1713.28 26.1121 Q1722.44 26.1121 1727.75 32.0264 Q1733.09 37.9003 1733.09 48.0275 M1725.64 45.84 Q1725.56 39.7232 1722.2 36.0774 Q1718.87 32.4315 1713.37 32.4315 Q1707.13 32.4315 1703.36 35.9558 Q1699.63 39.4801 1699.07 45.8805 L1725.64 45.84 Z" fill="#000000" fill-rule="nonzero" fill-opacity="1" /><path clip-path="url(#clip300)" d="M1775.18 49.3643 Q1775.18 41.2625 1771.82 36.8065 Q1768.5 32.3505 1762.46 32.3505 Q1756.47 32.3505 1753.11 36.8065 Q1749.78 41.2625 1749.78 49.3643 Q1749.78 57.4256 1753.11 61.8816 Q1756.47 66.3376 1762.46 66.3376 Q1768.5 66.3376 1771.82 61.8816 Q1775.18 57.4256 1775.18 49.3643 M1782.64 66.9452 Q1782.64 78.5308 1777.49 84.1616 Q1772.35 89.8329 1761.73 89.8329 Q1757.8 89.8329 1754.32 89.2252 Q1750.84 88.6581 1747.56 87.4428 L1747.56 80.1917 Q1750.84 81.9741 1754.04 82.8248 Q1757.24 83.6755 1760.56 83.6755 Q1767.89 83.6755 1771.54 79.8271 Q1775.18 76.0193 1775.18 68.282 L1775.18 64.5957 Q1772.87 68.6061 1769.27 70.5911 Q1765.66 72.576 1760.64 72.576 Q1752.29 72.576 1747.19 66.2161 Q1742.09 59.8562 1742.09 49.3643 Q1742.09 38.832 1747.19 32.472 Q1752.29 26.1121 1760.64 26.1121 Q1765.66 26.1121 1769.27 28.0971 Q1772.87 30.082 1775.18 34.0924 L1775.18 27.2059 L1782.64 27.2059 L1782.64 66.9452 Z" fill="#000000" fill-rule="nonzero" fill-opacity="1" /><path clip-path="url(#clip300)" d="M1797.22 54.671 L1797.22 27.2059 L1804.67 27.2059 L1804.67 54.3874 Q1804.67 60.8284 1807.18 64.0691 Q1809.7 67.2693 1814.72 67.2693 Q1820.76 67.2693 1824.24 63.421 Q1827.76 59.5726 1827.76 52.9291 L1827.76 27.2059 L1835.22 27.2059 L1835.22 72.576 L1827.76 72.576 L1827.76 65.6084 Q1825.05 69.7404 1821.44 71.7658 Q1817.88 73.7508 1813.14 73.7508 Q1805.32 73.7508 1801.27 68.8897 Q1797.22 64.0286 1797.22 54.671 M1815.98 26.1121 L1815.98 26.1121 Z" fill="#000000" fill-rule="nonzero" fill-opacity="1" /><path clip-path="url(#clip300)" d="M1850.57 9.54393 L1858.02 9.54393 L1858.02 72.576 L1850.57 72.576 L1850.57 9.54393 Z" fill="#000000" fill-rule="nonzero" fill-opacity="1" /><path clip-path="url(#clip300)" d="M1894.24 49.7694 Q1885.21 49.7694 1881.72 51.8354 Q1878.24 53.9013 1878.24 58.8839 Q1878.24 62.8538 1880.83 65.2034 Q1883.46 67.5124 1887.96 67.5124 Q1894.16 67.5124 1897.88 63.1374 Q1901.65 58.7219 1901.65 51.4303 L1901.65 49.7694 L1894.24 49.7694 M1909.11 46.6907 L1909.11 72.576 L1901.65 72.576 L1901.65 65.6895 Q1899.1 69.8214 1895.29 71.8063 Q1891.48 73.7508 1885.97 73.7508 Q1879.01 73.7508 1874.88 69.8619 Q1870.78 65.9325 1870.78 59.3701 Q1870.78 51.7138 1875.89 47.825 Q1881.03 43.9361 1891.2 43.9361 L1901.65 43.9361 L1901.65 43.2069 Q1901.65 38.0623 1898.25 35.2672 Q1894.89 32.4315 1888.77 32.4315 Q1884.88 32.4315 1881.19 33.3632 Q1877.51 34.295 1874.11 36.1584 L1874.11 29.2718 Q1878.2 27.692 1882.05 26.9223 Q1885.89 26.1121 1889.54 26.1121 Q1899.38 26.1121 1904.24 31.2163 Q1909.11 36.3204 1909.11 46.6907 Z" fill="#000000" fill-rule="nonzero" fill-opacity="1" /><path clip-path="url(#clip300)" d="M1950.75 34.1734 Q1949.49 33.4443 1947.99 33.1202 Q1946.54 32.7556 1944.75 32.7556 Q1938.43 32.7556 1935.03 36.8875 Q1931.67 40.9789 1931.67 48.6757 L1931.67 72.576 L1924.17 72.576 L1924.17 27.2059 L1931.67 27.2059 L1931.67 34.2544 Q1934.02 30.1225 1937.79 28.1376 Q1941.55 26.1121 1946.94 26.1121 Q1947.71 26.1121 1948.64 26.2337 Q1949.57 26.3147 1950.71 26.5172 L1950.75 34.1734 Z" fill="#000000" fill-rule="nonzero" fill-opacity="1" /><path clip-path="url(#clip300)" d="M2014.79 49.3643 Q2014.79 41.2625 2011.43 36.8065 Q2008.11 32.3505 2002.07 32.3505 Q1996.08 32.3505 1992.72 36.8065 Q1989.39 41.2625 1989.39 49.3643 Q1989.39 57.4256 1992.72 61.8816 Q1996.08 66.3376 2002.07 66.3376 Q2008.11 66.3376 2011.43 61.8816 Q2014.79 57.4256 2014.79 49.3643 M2022.25 66.9452 Q2022.25 78.5308 2017.1 84.1616 Q2011.96 89.8329 2001.34 89.8329 Q1997.42 89.8329 1993.93 89.2252 Q1990.45 88.6581 1987.17 87.4428 L1987.17 80.1917 Q1990.45 81.9741 1993.65 82.8248 Q1996.85 83.6755 2000.17 83.6755 Q2007.5 83.6755 2011.15 79.8271 Q2014.79 76.0193 2014.79 68.282 L2014.79 64.5957 Q2012.48 68.6061 2008.88 70.5911 Q2005.27 72.576 2000.25 72.576 Q1991.91 72.576 1986.8 66.2161 Q1981.7 59.8562 1981.7 49.3643 Q1981.7 38.832 1986.8 32.472 Q1991.91 26.1121 2000.25 26.1121 Q2005.27 26.1121 2008.88 28.0971 Q2012.48 30.082 2014.79 34.0924 L2014.79 27.2059 L2022.25 27.2059 L2022.25 66.9452 Z" fill="#000000" fill-rule="nonzero" fill-opacity="1" /><path clip-path="url(#clip300)" d="M2063.89 34.1734 Q2062.63 33.4443 2061.14 33.1202 Q2059.68 32.7556 2057.9 32.7556 Q2051.58 32.7556 2048.17 36.8875 Q2044.81 40.9789 2044.81 48.6757 L2044.81 72.576 L2037.32 72.576 L2037.32 27.2059 L2044.81 27.2059 L2044.81 34.2544 Q2047.16 30.1225 2050.93 28.1376 Q2054.69 26.1121 2060.08 26.1121 Q2060.85 26.1121 2061.78 26.2337 Q2062.72 26.3147 2063.85 26.5172 L2063.89 34.1734 Z" fill="#000000" fill-rule="nonzero" fill-opacity="1" /><path clip-path="url(#clip300)" d="M2092.33 49.7694 Q2083.29 49.7694 2079.81 51.8354 Q2076.33 53.9013 2076.33 58.8839 Q2076.33 62.8538 2078.92 65.2034 Q2081.55 67.5124 2086.05 67.5124 Q2092.25 67.5124 2095.97 63.1374 Q2099.74 58.7219 2099.74 51.4303 L2099.74 49.7694 L2092.33 49.7694 M2107.19 46.6907 L2107.19 72.576 L2099.74 72.576 L2099.74 65.6895 Q2097.19 69.8214 2093.38 71.8063 Q2089.57 73.7508 2084.06 73.7508 Q2077.1 73.7508 2072.96 69.8619 Q2068.87 65.9325 2068.87 59.3701 Q2068.87 51.7138 2073.98 47.825 Q2079.12 43.9361 2089.29 43.9361 L2099.74 43.9361 L2099.74 43.2069 Q2099.74 38.0623 2096.34 35.2672 Q2092.98 32.4315 2086.86 32.4315 Q2082.97 32.4315 2079.28 33.3632 Q2075.6 34.295 2072.19 36.1584 L2072.19 29.2718 Q2076.29 27.692 2080.13 26.9223 Q2083.98 26.1121 2087.63 26.1121 Q2097.47 26.1121 2102.33 31.2163 Q2107.19 36.3204 2107.19 46.6907 Z" fill="#000000" fill-rule="nonzero" fill-opacity="1" /><path clip-path="url(#clip300)" d="M2129.76 65.7705 L2129.76 89.8329 L2122.26 89.8329 L2122.26 27.2059 L2129.76 27.2059 L2129.76 34.0924 Q2132.11 30.0415 2135.67 28.0971 Q2139.28 26.1121 2144.26 26.1121 Q2152.52 26.1121 2157.67 32.6746 Q2162.85 39.2371 2162.85 49.9314 Q2162.85 60.6258 2157.67 67.1883 Q2152.52 73.7508 2144.26 73.7508 Q2139.28 73.7508 2135.67 71.8063 Q2132.11 69.8214 2129.76 65.7705 M2155.12 49.9314 Q2155.12 41.7081 2151.71 37.0496 Q2148.35 32.3505 2142.44 32.3505 Q2136.52 32.3505 2133.12 37.0496 Q2129.76 41.7081 2129.76 49.9314 Q2129.76 58.1548 2133.12 62.8538 Q2136.52 67.5124 2142.44 67.5124 Q2148.35 67.5124 2151.71 62.8538 Q2155.12 58.1548 2155.12 49.9314 Z" fill="#000000" fill-rule="nonzero" fill-opacity="1" /><path clip-path="url(#clip300)" d="M2212.92 45.1919 L2212.92 72.576 L2205.47 72.576 L2205.47 45.4349 Q2205.47 38.994 2202.96 35.7938 Q2200.45 32.5936 2195.42 32.5936 Q2189.39 32.5936 2185.9 36.4419 Q2182.42 40.2903 2182.42 46.9338 L2182.42 72.576 L2174.93 72.576 L2174.93 9.54393 L2182.42 9.54393 L2182.42 34.2544 Q2185.09 30.163 2188.7 28.1376 Q2192.34 26.1121 2197.08 26.1121 Q2204.9 26.1121 2208.91 30.9732 Q2212.92 35.7938 2212.92 45.1919 Z" fill="#000000" fill-rule="nonzero" fill-opacity="1" /><path clip-path="url(#clip300)" d="M2256.71 28.5427 L2256.71 35.5912 Q2253.55 33.9709 2250.15 33.1607 Q2246.75 32.3505 2243.1 32.3505 Q2237.55 32.3505 2234.76 34.0519 Q2232 35.7533 2232 39.156 Q2232 41.7486 2233.99 43.2475 Q2235.97 44.7058 2241.97 46.0426 L2244.52 46.6097 Q2252.46 48.3111 2255.78 51.4303 Q2259.14 54.509 2259.14 60.0587 Q2259.14 66.3781 2254.12 70.0644 Q2249.14 73.7508 2240.39 73.7508 Q2236.74 73.7508 2232.77 73.0216 Q2228.84 72.3329 2224.47 70.9151 L2224.47 63.2184 Q2228.6 65.3654 2232.61 66.4591 Q2236.62 67.5124 2240.55 67.5124 Q2245.82 67.5124 2248.65 65.73 Q2251.49 63.9071 2251.49 60.6258 Q2251.49 57.5877 2249.42 55.9673 Q2247.4 54.3469 2240.47 52.8481 L2237.88 52.2405 Q2230.95 50.7821 2227.87 47.7845 Q2224.79 44.7463 2224.79 39.4801 Q2224.79 33.0797 2229.33 29.5959 Q2233.87 26.1121 2242.21 26.1121 Q2246.34 26.1121 2249.99 26.7198 Q2253.63 27.3274 2256.71 28.5427 Z" fill="#000000" fill-rule="nonzero" fill-opacity="1" /><path clip-path="url(#clip300)" d="M2269.84 9.62495 L2276.32 9.62495 Q2282.4 19.1851 2285.39 28.3401 Q2288.43 37.4952 2288.43 46.5287 Q2288.43 55.6027 2285.39 64.7983 Q2282.4 73.9938 2276.32 83.5134 L2269.84 83.5134 Q2275.23 74.2369 2277.86 65.0818 Q2280.53 55.8863 2280.53 46.5287 Q2280.53 37.1711 2277.86 28.0566 Q2275.23 18.942 2269.84 9.62495 Z" fill="#000000" fill-rule="nonzero" fill-opacity="1" /><path clip-path="url(#clip301)" d="M358.489 643.44 L358.489 1734.12 L972.613 1734.12 L972.613 643.44 L358.489 643.44 L358.489 643.44  Z" fill="#4682b4" fill-rule="evenodd" fill-opacity="1"/>
<polyline clip-path="url(#clip301)" style="stroke:#000000; stroke-linecap:round; stroke-linejoin:round; stroke-width:4; stroke-opacity:1; fill:none" points="358.489,643.44 358.489,1734.12 972.613,1734.12 972.613,643.44 358.489,643.44 "/>
<path clip-path="url(#clip301)" d="M1126.14 380.034 L1126.14 1734.12 L1740.27 1734.12 L1740.27 380.034 L1126.14 380.034 L1126.14 380.034  Z" fill="#4682b4" fill-rule="evenodd" fill-opacity="1"/>
<polyline clip-path="url(#clip301)" style="stroke:#000000; stroke-linecap:round; stroke-linejoin:round; stroke-width:4; stroke-opacity:1; fill:none" points="1126.14,380.034 1126.14,1734.12 1740.27,1734.12 1740.27,380.034 1126.14,380.034 "/>
<path clip-path="url(#clip301)" d="M1893.8 127.792 L1893.8 1734.12 L2507.92 1734.12 L2507.92 127.792 L1893.8 127.792 L1893.8 127.792  Z" fill="#4682b4" fill-rule="evenodd" fill-opacity="1"/>
<polyline clip-path="url(#clip301)" style="stroke:#000000; stroke-linecap:round; stroke-linejoin:round; stroke-width:4; stroke-opacity:1; fill:none" points="1893.8,127.792 1893.8,1734.12 2507.92,1734.12 2507.92,127.792 1893.8,127.792 "/>
<circle clip-path="url(#clip301)" style="fill:#4682b4; stroke:none; fill-opacity:0" cx="665.551" cy="643.44" r="2"/>
<circle clip-path="url(#clip301)" style="fill:#4682b4; stroke:none; fill-opacity:0" cx="1433.21" cy="380.034" r="2"/>
<circle clip-path="url(#clip301)" style="fill:#4682b4; stroke:none; fill-opacity:0" cx="2200.86" cy="127.792" r="2"/>
</svg>
