<?xml version="1.0" encoding="utf-8"?>
<svg xmlns="http://www.w3.org/2000/svg" xmlns:xlink="http://www.w3.org/1999/xlink" width="672" height="480" viewBox="0 0 2688 1920">
<defs>
  <clipPath id="clip350">
    <rect x="0" y="0" width="2688" height="1920"/>
  </clipPath>
</defs>
<path clip-path="url(#clip350)" d="M0 1920 L2688 1920 L2688 -4.26326e-14 L0 -4.26326e-14  Z" fill="#ffffff" fill-rule="evenodd" fill-opacity="1"/>
<defs>
  <clipPath id="clip351">
    <rect x="253" y="127" width="2388" height="1607"/>
  </clipPath>
</defs>
<path clip-path="url(#clip350)" d="M253.733 1734.12 L2640.76 1734.12 L2640.76 127.792 L253.733 127.792  Z" fill="#ffffff" fill-rule="evenodd" fill-opacity="1"/>
<polyline clip-path="url(#clip351)" style="stroke:#000000; stroke-linecap:round; stroke-linejoin:round; stroke-width:2; stroke-opacity:0.1; fill:none" points="321.29,1734.12 321.29,127.792 "/>
<polyline clip-path="url(#clip351)" style="stroke:#000000; stroke-linecap:round; stroke-linejoin:round; stroke-width:2; stroke-opacity:0.1; fill:none" points="1071.93,1734.12 1071.93,127.792 "/>
<polyline clip-path="url(#clip351)" style="stroke:#000000; stroke-linecap:round; stroke-linejoin:round; stroke-width:2; stroke-opacity:0.1; fill:none" points="1822.56,1734.12 1822.56,127.792 "/>
<polyline clip-path="url(#clip351)" style="stroke:#000000; stroke-linecap:round; stroke-linejoin:round; stroke-width:2; stroke-opacity:0.1; fill:none" points="2573.2,1734.12 2573.2,127.792 "/>
<polyline clip-path="url(#clip351)" style="stroke:#000000; stroke-linecap:round; stroke-linejoin:round; stroke-width:2; stroke-opacity:0.1; fill:none" points="253.733,1688.65 2640.76,1688.65 "/>
<polyline clip-path="url(#clip351)" style="stroke:#000000; stroke-linecap:round; stroke-linejoin:round; stroke-width:2; stroke-opacity:0.1; fill:none" points="253.733,1418.05 2640.76,1418.05 "/>
<polyline clip-path="url(#clip351)" style="stroke:#000000; stroke-linecap:round; stroke-linejoin:round; stroke-width:2; stroke-opacity:0.1; fill:none" points="253.733,1147.44 2640.76,1147.44 "/>
<polyline clip-path="url(#clip351)" style="stroke:#000000; stroke-linecap:round; stroke-linejoin:round; stroke-width:2; stroke-opacity:0.1; fill:none" points="253.733,876.833 2640.76,876.833 "/>
<polyline clip-path="url(#clip351)" style="stroke:#000000; stroke-linecap:round; stroke-linejoin:round; stroke-width:2; stroke-opacity:0.1; fill:none" points="253.733,606.226 2640.76,606.226 "/>
<polyline clip-path="url(#clip351)" style="stroke:#000000; stroke-linecap:round; stroke-linejoin:round; stroke-width:2; stroke-opacity:0.1; fill:none" points="253.733,335.619 2640.76,335.619 "/>
<polyline clip-path="url(#clip350)" style="stroke:#000000; stroke-linecap:round; stroke-linejoin:round; stroke-width:4; stroke-opacity:1; fill:none" points="253.733,1734.12 2640.76,1734.12 "/>
<polyline clip-path="url(#clip350)" style="stroke:#000000; stroke-linecap:round; stroke-linejoin:round; stroke-width:4; stroke-opacity:1; fill:none" points="321.29,1734.12 321.29,1715.22 "/>
<polyline clip-path="url(#clip350)" style="stroke:#000000; stroke-linecap:round; stroke-linejoin:round; stroke-width:4; stroke-opacity:1; fill:none" points="1071.93,1734.12 1071.93,1715.22 "/>
<polyline clip-path="url(#clip350)" style="stroke:#000000; stroke-linecap:round; stroke-linejoin:round; stroke-width:4; stroke-opacity:1; fill:none" points="1822.56,1734.12 1822.56,1715.22 "/>
<polyline clip-path="url(#clip350)" style="stroke:#000000; stroke-linecap:round; stroke-linejoin:round; stroke-width:4; stroke-opacity:1; fill:none" points="2573.2,1734.12 2573.2,1715.22 "/>
<path clip-path="url(#clip350)" d="M321.29 1767.34 Q317.679 1767.34 315.85 1770.9 Q314.045 1774.45 314.045 1781.58 Q314.045 1788.68 315.85 1792.25 Q317.679 1795.79 321.29 1795.79 Q324.924 1795.79 326.73 1792.25 Q328.559 1788.68 328.559 1781.58 Q328.559 1774.45 326.73 1770.9 Q324.924 1767.34 321.29 1767.34 M321.29 1763.64 Q327.1 1763.64 330.156 1768.24 Q333.235 1772.83 333.235 1781.58 Q333.235 1790.3 330.156 1794.91 Q327.1 1799.49 321.29 1799.49 Q315.48 1799.49 312.401 1794.91 Q309.346 1790.3 309.346 1781.58 Q309.346 1772.83 312.401 1768.24 Q315.48 1763.64 321.29 1763.64 Z" fill="#000000" fill-rule="nonzero" fill-opacity="1" /><path clip-path="url(#clip350)" d="M1046.61 1794.89 L1054.25 1794.89 L1054.25 1768.52 L1045.94 1770.19 L1045.94 1765.93 L1054.21 1764.26 L1058.88 1764.26 L1058.88 1794.89 L1066.52 1794.89 L1066.52 1798.82 L1046.61 1798.82 L1046.61 1794.89 Z" fill="#000000" fill-rule="nonzero" fill-opacity="1" /><path clip-path="url(#clip350)" d="M1085.97 1767.34 Q1082.35 1767.34 1080.53 1770.9 Q1078.72 1774.45 1078.72 1781.58 Q1078.72 1788.68 1080.53 1792.25 Q1082.35 1795.79 1085.97 1795.79 Q1089.6 1795.79 1091.41 1792.25 Q1093.23 1788.68 1093.23 1781.58 Q1093.23 1774.45 1091.41 1770.9 Q1089.6 1767.34 1085.97 1767.34 M1085.97 1763.64 Q1091.78 1763.64 1094.83 1768.24 Q1097.91 1772.83 1097.91 1781.58 Q1097.91 1790.3 1094.83 1794.91 Q1091.78 1799.49 1085.97 1799.49 Q1080.16 1799.49 1077.08 1794.91 Q1074.02 1790.3 1074.02 1781.58 Q1074.02 1772.83 1077.08 1768.24 Q1080.16 1763.64 1085.97 1763.64 Z" fill="#000000" fill-rule="nonzero" fill-opacity="1" /><path clip-path="url(#clip350)" d="M1801.34 1794.89 L1817.66 1794.89 L1817.66 1798.82 L1795.71 1798.82 L1795.71 1794.89 Q1798.37 1792.13 1802.96 1787.5 Q1807.56 1782.85 1808.74 1781.51 Q1810.99 1778.98 1811.87 1777.25 Q1812.77 1775.49 1812.77 1773.8 Q1812.77 1771.04 1810.83 1769.31 Q1808.91 1767.57 1805.8 1767.57 Q1803.6 1767.57 1801.15 1768.34 Q1798.72 1769.1 1795.94 1770.65 L1795.94 1765.93 Q1798.77 1764.79 1801.22 1764.21 Q1803.67 1763.64 1805.71 1763.64 Q1811.08 1763.64 1814.28 1766.32 Q1817.47 1769.01 1817.47 1773.5 Q1817.47 1775.63 1816.66 1777.55 Q1815.87 1779.45 1813.77 1782.04 Q1813.19 1782.71 1810.09 1785.93 Q1806.98 1789.12 1801.34 1794.89 Z" fill="#000000" fill-rule="nonzero" fill-opacity="1" /><path clip-path="url(#clip350)" d="M1837.47 1767.34 Q1833.86 1767.34 1832.03 1770.9 Q1830.22 1774.45 1830.22 1781.58 Q1830.22 1788.68 1832.03 1792.25 Q1833.86 1795.79 1837.47 1795.79 Q1841.1 1795.79 1842.91 1792.25 Q1844.74 1788.68 1844.74 1781.58 Q1844.74 1774.45 1842.91 1770.9 Q1841.1 1767.34 1837.47 1767.34 M1837.47 1763.64 Q1843.28 1763.64 1846.34 1768.24 Q1849.41 1772.83 1849.41 1781.58 Q1849.41 1790.3 1846.34 1794.91 Q1843.28 1799.49 1837.47 1799.49 Q1831.66 1799.49 1828.58 1794.91 Q1825.53 1790.3 1825.53 1781.58 Q1825.53 1772.83 1828.58 1768.24 Q1831.66 1763.64 1837.47 1763.64 Z" fill="#000000" fill-rule="nonzero" fill-opacity="1" /><path clip-path="url(#clip350)" d="M2562.04 1780.19 Q2565.4 1780.9 2567.27 1783.17 Q2569.17 1785.44 2569.17 1788.77 Q2569.17 1793.89 2565.65 1796.69 Q2562.13 1799.49 2555.65 1799.49 Q2553.48 1799.49 2551.16 1799.05 Q2548.87 1798.64 2546.42 1797.78 L2546.42 1793.27 Q2548.36 1794.4 2550.68 1794.98 Q2552.99 1795.56 2555.51 1795.56 Q2559.91 1795.56 2562.2 1793.82 Q2564.52 1792.08 2564.52 1788.77 Q2564.52 1785.72 2562.37 1784.01 Q2560.24 1782.27 2556.42 1782.27 L2552.39 1782.27 L2552.39 1778.43 L2556.6 1778.43 Q2560.05 1778.43 2561.88 1777.06 Q2563.71 1775.67 2563.71 1773.08 Q2563.71 1770.42 2561.81 1769.01 Q2559.93 1767.57 2556.42 1767.57 Q2554.5 1767.57 2552.3 1767.99 Q2550.1 1768.4 2547.46 1769.28 L2547.46 1765.12 Q2550.12 1764.38 2552.43 1764.01 Q2554.77 1763.64 2556.83 1763.64 Q2562.16 1763.64 2565.26 1766.07 Q2568.36 1768.47 2568.36 1772.59 Q2568.36 1775.46 2566.72 1777.46 Q2565.07 1779.42 2562.04 1780.19 Z" fill="#000000" fill-rule="nonzero" fill-opacity="1" /><path clip-path="url(#clip350)" d="M2588.04 1767.34 Q2584.43 1767.34 2582.6 1770.9 Q2580.79 1774.45 2580.79 1781.58 Q2580.79 1788.68 2582.6 1792.25 Q2584.43 1795.79 2588.04 1795.79 Q2591.67 1795.79 2593.48 1792.25 Q2595.31 1788.68 2595.31 1781.58 Q2595.31 1774.45 2593.48 1770.9 Q2591.67 1767.34 2588.04 1767.34 M2588.04 1763.64 Q2593.85 1763.64 2596.9 1768.24 Q2599.98 1772.83 2599.98 1781.58 Q2599.98 1790.3 2596.9 1794.91 Q2593.85 1799.49 2588.04 1799.49 Q2582.23 1799.49 2579.15 1794.91 Q2576.09 1790.3 2576.09 1781.58 Q2576.09 1772.83 2579.15 1768.24 Q2582.23 1763.64 2588.04 1763.64 Z" fill="#000000" fill-rule="nonzero" fill-opacity="1" /><path clip-path="url(#clip350)" d="M1369.12 1835.78 L1409.32 1835.78 L1409.32 1841.19 L1392.45 1841.19 L1392.45 1883.3 L1385.99 1883.3 L1385.99 1841.19 L1369.12 1841.19 L1369.12 1835.78 Z" fill="#000000" fill-rule="nonzero" fill-opacity="1" /><path clip-path="url(#clip350)" d="M1413.27 1847.65 L1419.12 1847.65 L1419.12 1883.3 L1413.27 1883.3 L1413.27 1847.65 M1413.27 1833.78 L1419.12 1833.78 L1419.12 1841.19 L1413.27 1841.19 L1413.27 1833.78 Z" fill="#000000" fill-rule="nonzero" fill-opacity="1" /><path clip-path="url(#clip350)" d="M1459.13 1854.5 Q1461.33 1850.55 1464.38 1848.67 Q1467.44 1846.79 1471.58 1846.79 Q1477.15 1846.79 1480.17 1850.71 Q1483.19 1854.59 1483.19 1861.78 L1483.19 1883.3 L1477.31 1883.3 L1477.31 1861.98 Q1477.31 1856.85 1475.49 1854.37 Q1473.68 1851.89 1469.95 1851.89 Q1465.4 1851.89 1462.76 1854.91 Q1460.12 1857.93 1460.12 1863.15 L1460.12 1883.3 L1454.23 1883.3 L1454.23 1861.98 Q1454.23 1856.82 1452.42 1854.37 Q1450.6 1851.89 1446.81 1851.89 Q1442.33 1851.89 1439.69 1854.94 Q1437.04 1857.97 1437.04 1863.15 L1437.04 1883.3 L1431.16 1883.3 L1431.16 1847.65 L1437.04 1847.65 L1437.04 1853.19 Q1439.05 1849.91 1441.85 1848.35 Q1444.65 1846.79 1448.5 1846.79 Q1452.38 1846.79 1455.09 1848.77 Q1457.83 1850.74 1459.13 1854.5 Z" fill="#000000" fill-rule="nonzero" fill-opacity="1" /><path clip-path="url(#clip350)" d="M1525.37 1864.01 L1525.37 1866.88 L1498.44 1866.88 Q1498.82 1872.92 1502.07 1876.11 Q1505.35 1879.26 1511.17 1879.26 Q1514.55 1879.26 1517.7 1878.43 Q1520.88 1877.6 1524 1875.95 L1524 1881.49 Q1520.85 1882.82 1517.54 1883.52 Q1514.23 1884.22 1510.82 1884.22 Q1502.29 1884.22 1497.29 1879.26 Q1492.33 1874.29 1492.33 1865.83 Q1492.33 1857.07 1497.04 1851.95 Q1501.78 1846.79 1509.8 1846.79 Q1517 1846.79 1521.17 1851.44 Q1525.37 1856.06 1525.37 1864.01 M1519.51 1862.29 Q1519.45 1857.49 1516.81 1854.62 Q1514.2 1851.76 1509.87 1851.76 Q1504.97 1851.76 1502.01 1854.53 Q1499.08 1857.3 1498.63 1862.33 L1519.51 1862.29 Z" fill="#000000" fill-rule="nonzero" fill-opacity="1" /><polyline clip-path="url(#clip350)" style="stroke:#000000; stroke-linecap:round; stroke-linejoin:round; stroke-width:4; stroke-opacity:1; fill:none" points="253.733,1734.12 253.733,127.792 "/>
<polyline clip-path="url(#clip350)" style="stroke:#000000; stroke-linecap:round; stroke-linejoin:round; stroke-width:4; stroke-opacity:1; fill:none" points="253.733,1688.65 272.631,1688.65 "/>
<polyline clip-path="url(#clip350)" style="stroke:#000000; stroke-linecap:round; stroke-linejoin:round; stroke-width:4; stroke-opacity:1; fill:none" points="253.733,1418.05 272.631,1418.05 "/>
<polyline clip-path="url(#clip350)" style="stroke:#000000; stroke-linecap:round; stroke-linejoin:round; stroke-width:4; stroke-opacity:1; fill:none" points="253.733,1147.44 272.631,1147.44 "/>
<polyline clip-path="url(#clip350)" style="stroke:#000000; stroke-linecap:round; stroke-linejoin:round; stroke-width:4; stroke-opacity:1; fill:none" points="253.733,876.833 272.631,876.833 "/>
<polyline clip-path="url(#clip350)" style="stroke:#000000; stroke-linecap:round; stroke-linejoin:round; stroke-width:4; stroke-opacity:1; fill:none" points="253.733,606.226 272.631,606.226 "/>
<polyline clip-path="url(#clip350)" style="stroke:#000000; stroke-linecap:round; stroke-linejoin:round; stroke-width:4; stroke-opacity:1; fill:none" points="253.733,335.619 272.631,335.619 "/>
<path clip-path="url(#clip350)" d="M156.237 1674.45 Q152.626 1674.45 150.798 1678.02 Q148.992 1681.56 148.992 1688.69 Q148.992 1695.8 150.798 1699.36 Q152.626 1702.9 156.237 1702.9 Q159.872 1702.9 161.677 1699.36 Q163.506 1695.8 163.506 1688.69 Q163.506 1681.56 161.677 1678.02 Q159.872 1674.45 156.237 1674.45 M156.237 1670.75 Q162.048 1670.75 165.103 1675.36 Q168.182 1679.94 168.182 1688.69 Q168.182 1697.42 165.103 1702.02 Q162.048 1706.61 156.237 1706.61 Q150.427 1706.61 147.349 1702.02 Q144.293 1697.42 144.293 1688.69 Q144.293 1679.94 147.349 1675.36 Q150.427 1670.75 156.237 1670.75 Z" fill="#000000" fill-rule="nonzero" fill-opacity="1" /><path clip-path="url(#clip350)" d="M176.399 1700.06 L181.284 1700.06 L181.284 1705.93 L176.399 1705.93 L176.399 1700.06 Z" fill="#000000" fill-rule="nonzero" fill-opacity="1" /><path clip-path="url(#clip350)" d="M201.469 1674.45 Q197.858 1674.45 196.029 1678.02 Q194.223 1681.56 194.223 1688.69 Q194.223 1695.8 196.029 1699.36 Q197.858 1702.9 201.469 1702.9 Q205.103 1702.9 206.908 1699.36 Q208.737 1695.8 208.737 1688.69 Q208.737 1681.56 206.908 1678.02 Q205.103 1674.45 201.469 1674.45 M201.469 1670.75 Q207.279 1670.75 210.334 1675.36 Q213.413 1679.94 213.413 1688.69 Q213.413 1697.42 210.334 1702.02 Q207.279 1706.61 201.469 1706.61 Q195.658 1706.61 192.58 1702.02 Q189.524 1697.42 189.524 1688.69 Q189.524 1679.94 192.58 1675.36 Q195.658 1670.75 201.469 1670.75 Z" fill="#000000" fill-rule="nonzero" fill-opacity="1" /><path clip-path="url(#clip350)" d="M151.261 1431.39 L167.58 1431.39 L167.58 1435.33 L145.636 1435.33 L145.636 1431.39 Q148.298 1428.64 152.881 1424.01 Q157.487 1419.36 158.668 1418.01 Q160.913 1415.49 161.793 1413.75 Q162.696 1411.99 162.696 1410.3 Q162.696 1407.55 160.751 1405.81 Q158.83 1404.08 155.728 1404.08 Q153.529 1404.08 151.075 1404.84 Q148.645 1405.61 145.867 1407.16 L145.867 1402.43 Q148.691 1401.3 151.145 1400.72 Q153.599 1400.14 155.636 1400.14 Q161.006 1400.14 164.2 1402.83 Q167.395 1405.51 167.395 1410 Q167.395 1412.13 166.585 1414.05 Q165.798 1415.95 163.691 1418.55 Q163.112 1419.22 160.011 1422.43 Q156.909 1425.63 151.261 1431.39 Z" fill="#000000" fill-rule="nonzero" fill-opacity="1" /><path clip-path="url(#clip350)" d="M177.395 1429.45 L182.279 1429.45 L182.279 1435.33 L177.395 1435.33 L177.395 1429.45 Z" fill="#000000" fill-rule="nonzero" fill-opacity="1" /><path clip-path="url(#clip350)" d="M192.51 1400.77 L210.867 1400.77 L210.867 1404.7 L196.793 1404.7 L196.793 1413.18 Q197.811 1412.83 198.83 1412.67 Q199.848 1412.48 200.867 1412.48 Q206.654 1412.48 210.033 1415.65 Q213.413 1418.82 213.413 1424.24 Q213.413 1429.82 209.941 1432.92 Q206.469 1436 200.149 1436 Q197.973 1436 195.705 1435.63 Q193.459 1435.26 191.052 1434.52 L191.052 1429.82 Q193.135 1430.95 195.358 1431.51 Q197.58 1432.06 200.057 1432.06 Q204.061 1432.06 206.399 1429.96 Q208.737 1427.85 208.737 1424.24 Q208.737 1420.63 206.399 1418.52 Q204.061 1416.42 200.057 1416.42 Q198.182 1416.42 196.307 1416.83 Q194.455 1417.25 192.51 1418.13 L192.51 1400.77 Z" fill="#000000" fill-rule="nonzero" fill-opacity="1" /><path clip-path="url(#clip350)" d="M146.284 1130.16 L164.64 1130.16 L164.64 1134.1 L150.566 1134.1 L150.566 1142.57 Q151.585 1142.22 152.603 1142.06 Q153.622 1141.87 154.64 1141.87 Q160.427 1141.87 163.807 1145.04 Q167.186 1148.22 167.186 1153.63 Q167.186 1159.21 163.714 1162.31 Q160.242 1165.39 153.923 1165.39 Q151.747 1165.39 149.478 1165.02 Q147.233 1164.65 144.825 1163.91 L144.825 1159.21 Q146.909 1160.35 149.131 1160.9 Q151.353 1161.46 153.83 1161.46 Q157.835 1161.46 160.173 1159.35 Q162.51 1157.24 162.51 1153.63 Q162.51 1150.02 160.173 1147.91 Q157.835 1145.81 153.83 1145.81 Q151.955 1145.81 150.08 1146.23 Q148.228 1146.64 146.284 1147.52 L146.284 1130.16 Z" fill="#000000" fill-rule="nonzero" fill-opacity="1" /><path clip-path="url(#clip350)" d="M176.399 1158.84 L181.284 1158.84 L181.284 1164.72 L176.399 1164.72 L176.399 1158.84 Z" fill="#000000" fill-rule="nonzero" fill-opacity="1" /><path clip-path="url(#clip350)" d="M201.469 1133.24 Q197.858 1133.24 196.029 1136.8 Q194.223 1140.35 194.223 1147.48 Q194.223 1154.58 196.029 1158.15 Q197.858 1161.69 201.469 1161.69 Q205.103 1161.69 206.908 1158.15 Q208.737 1154.58 208.737 1147.48 Q208.737 1140.35 206.908 1136.8 Q205.103 1133.24 201.469 1133.24 M201.469 1129.54 Q207.279 1129.54 210.334 1134.14 Q213.413 1138.73 213.413 1147.48 Q213.413 1156.2 210.334 1160.81 Q207.279 1165.39 201.469 1165.39 Q195.658 1165.39 192.58 1160.81 Q189.524 1156.2 189.524 1147.48 Q189.524 1138.73 192.58 1134.14 Q195.658 1129.54 201.469 1129.54 Z" fill="#000000" fill-rule="nonzero" fill-opacity="1" /><path clip-path="url(#clip350)" d="M146.052 859.553 L168.274 859.553 L168.274 861.544 L155.728 894.113 L150.844 894.113 L162.649 863.488 L146.052 863.488 L146.052 859.553 Z" fill="#000000" fill-rule="nonzero" fill-opacity="1" /><path clip-path="url(#clip350)" d="M177.395 888.234 L182.279 888.234 L182.279 894.113 L177.395 894.113 L177.395 888.234 Z" fill="#000000" fill-rule="nonzero" fill-opacity="1" /><path clip-path="url(#clip350)" d="M192.51 859.553 L210.867 859.553 L210.867 863.488 L196.793 863.488 L196.793 871.96 Q197.811 871.613 198.83 871.451 Q199.848 871.266 200.867 871.266 Q206.654 871.266 210.033 874.437 Q213.413 877.609 213.413 883.025 Q213.413 888.604 209.941 891.706 Q206.469 894.784 200.149 894.784 Q197.973 894.784 195.705 894.414 Q193.459 894.044 191.052 893.303 L191.052 888.604 Q193.135 889.738 195.358 890.294 Q197.58 890.849 200.057 890.849 Q204.061 890.849 206.399 888.743 Q208.737 886.636 208.737 883.025 Q208.737 879.414 206.399 877.308 Q204.061 875.201 200.057 875.201 Q198.182 875.201 196.307 875.618 Q194.455 876.034 192.51 876.914 L192.51 859.553 Z" fill="#000000" fill-rule="nonzero" fill-opacity="1" /><path clip-path="url(#clip350)" d="M116.886 619.571 L124.525 619.571 L124.525 593.205 L116.214 594.872 L116.214 590.612 L124.478 588.946 L129.154 588.946 L129.154 619.571 L136.793 619.571 L136.793 623.506 L116.886 623.506 L116.886 619.571 Z" fill="#000000" fill-rule="nonzero" fill-opacity="1" /><path clip-path="url(#clip350)" d="M156.237 592.024 Q152.626 592.024 150.798 595.589 Q148.992 599.131 148.992 606.261 Q148.992 613.367 150.798 616.932 Q152.626 620.473 156.237 620.473 Q159.872 620.473 161.677 616.932 Q163.506 613.367 163.506 606.261 Q163.506 599.131 161.677 595.589 Q159.872 592.024 156.237 592.024 M156.237 588.321 Q162.048 588.321 165.103 592.927 Q168.182 597.511 168.182 606.261 Q168.182 614.987 165.103 619.594 Q162.048 624.177 156.237 624.177 Q150.427 624.177 147.349 619.594 Q144.293 614.987 144.293 606.261 Q144.293 597.511 147.349 592.927 Q150.427 588.321 156.237 588.321 Z" fill="#000000" fill-rule="nonzero" fill-opacity="1" /><path clip-path="url(#clip350)" d="M176.399 617.626 L181.284 617.626 L181.284 623.506 L176.399 623.506 L176.399 617.626 Z" fill="#000000" fill-rule="nonzero" fill-opacity="1" /><path clip-path="url(#clip350)" d="M201.469 592.024 Q197.858 592.024 196.029 595.589 Q194.223 599.131 194.223 606.261 Q194.223 613.367 196.029 616.932 Q197.858 620.473 201.469 620.473 Q205.103 620.473 206.908 616.932 Q208.737 613.367 208.737 606.261 Q208.737 599.131 206.908 595.589 Q205.103 592.024 201.469 592.024 M201.469 588.321 Q207.279 588.321 210.334 592.927 Q213.413 597.511 213.413 606.261 Q213.413 614.987 210.334 619.594 Q207.279 624.177 201.469 624.177 Q195.658 624.177 192.58 619.594 Q189.524 614.987 189.524 606.261 Q189.524 597.511 192.58 592.927 Q195.658 588.321 201.469 588.321 Z" fill="#000000" fill-rule="nonzero" fill-opacity="1" /><path clip-path="url(#clip350)" d="M117.881 348.963 L125.52 348.963 L125.52 322.598 L117.21 324.264 L117.21 320.005 L125.474 318.339 L130.15 318.339 L130.15 348.963 L137.788 348.963 L137.788 352.899 L117.881 352.899 L117.881 348.963 Z" fill="#000000" fill-rule="nonzero" fill-opacity="1" /><path clip-path="url(#clip350)" d="M151.261 348.963 L167.58 348.963 L167.58 352.899 L145.636 352.899 L145.636 348.963 Q148.298 346.209 152.881 341.579 Q157.487 336.926 158.668 335.584 Q160.913 333.061 161.793 331.325 Q162.696 329.565 162.696 327.876 Q162.696 325.121 160.751 323.385 Q158.83 321.649 155.728 321.649 Q153.529 321.649 151.075 322.413 Q148.645 323.176 145.867 324.727 L145.867 320.005 Q148.691 318.871 151.145 318.292 Q153.599 317.714 155.636 317.714 Q161.006 317.714 164.2 320.399 Q167.395 323.084 167.395 327.575 Q167.395 329.704 166.585 331.625 Q165.798 333.524 163.691 336.116 Q163.112 336.787 160.011 340.005 Q156.909 343.2 151.261 348.963 Z" fill="#000000" fill-rule="nonzero" fill-opacity="1" /><path clip-path="url(#clip350)" d="M177.395 347.019 L182.279 347.019 L182.279 352.899 L177.395 352.899 L177.395 347.019 Z" fill="#000000" fill-rule="nonzero" fill-opacity="1" /><path clip-path="url(#clip350)" d="M192.51 318.339 L210.867 318.339 L210.867 322.274 L196.793 322.274 L196.793 330.746 Q197.811 330.399 198.83 330.237 Q199.848 330.051 200.867 330.051 Q206.654 330.051 210.033 333.223 Q213.413 336.394 213.413 341.811 Q213.413 347.389 209.941 350.491 Q206.469 353.57 200.149 353.57 Q197.973 353.57 195.705 353.199 Q193.459 352.829 191.052 352.088 L191.052 347.389 Q193.135 348.524 195.358 349.079 Q197.58 349.635 200.057 349.635 Q204.061 349.635 206.399 347.528 Q208.737 345.422 208.737 341.811 Q208.737 338.2 206.399 336.093 Q204.061 333.987 200.057 333.987 Q198.182 333.987 196.307 334.403 Q194.455 334.82 192.51 335.7 L192.51 318.339 Z" fill="#000000" fill-rule="nonzero" fill-opacity="1" /><path clip-path="url(#clip350)" d="M14.1184 1198.76 L14.1184 1190.1 L53.8723 1169.03 L14.1184 1169.03 L14.1184 1162.79 L61.6384 1162.79 L61.6384 1171.45 L21.8846 1192.52 L61.6384 1192.52 L61.6384 1198.76 L14.1184 1198.76 Z" fill="#000000" fill-rule="nonzero" fill-opacity="1" /><path clip-path="url(#clip350)" d="M47.5702 1150.86 L25.9905 1150.86 L25.9905 1145 L47.3474 1145 Q52.4082 1145 54.9545 1143.03 Q57.4689 1141.05 57.4689 1137.11 Q57.4689 1132.37 54.4452 1129.63 Q51.4215 1126.86 46.2016 1126.86 L25.9905 1126.86 L25.9905 1121 L61.6384 1121 L61.6384 1126.86 L56.1639 1126.86 Q59.4104 1128.99 61.0019 1131.82 Q62.5615 1134.63 62.5615 1138.35 Q62.5615 1144.49 58.742 1147.68 Q54.9226 1150.86 47.5702 1150.86 M25.1311 1136.12 L25.1311 1136.12 Z" fill="#000000" fill-rule="nonzero" fill-opacity="1" /><path clip-path="url(#clip350)" d="M32.8336 1081.19 Q28.8869 1078.99 27.009 1075.93 Q25.1311 1072.88 25.1311 1068.74 Q25.1311 1063.17 29.046 1060.15 Q32.9291 1057.12 40.1224 1057.12 L61.6384 1057.12 L61.6384 1063.01 L40.3133 1063.01 Q35.1889 1063.01 32.7063 1064.83 Q30.2237 1066.64 30.2237 1070.36 Q30.2237 1074.92 33.2474 1077.56 Q36.2711 1080.2 41.491 1080.2 L61.6384 1080.2 L61.6384 1086.09 L40.3133 1086.09 Q35.1571 1086.09 32.7063 1087.9 Q30.2237 1089.72 30.2237 1093.5 Q30.2237 1097.99 33.2792 1100.63 Q36.3029 1103.27 41.491 1103.27 L61.6384 1103.27 L61.6384 1109.16 L25.9905 1109.16 L25.9905 1103.27 L31.5287 1103.27 Q28.2503 1101.27 26.6907 1098.47 Q25.1311 1095.67 25.1311 1091.82 Q25.1311 1087.93 27.1045 1085.23 Q29.0779 1082.49 32.8336 1081.19 Z" fill="#000000" fill-rule="nonzero" fill-opacity="1" /><path clip-path="url(#clip350)" d="M43.8463 1019.85 Q37.3851 1019.85 33.7248 1022.53 Q30.0327 1025.17 30.0327 1029.81 Q30.0327 1034.46 33.7248 1037.13 Q37.3851 1039.78 43.8463 1039.78 Q50.3075 1039.78 53.9996 1037.13 Q57.6599 1034.46 57.6599 1029.81 Q57.6599 1025.17 53.9996 1022.53 Q50.3075 1019.85 43.8463 1019.85 M31.4013 1039.78 Q28.2185 1037.93 26.6907 1035.13 Q25.1311 1032.3 25.1311 1028.38 Q25.1311 1021.89 30.2873 1017.85 Q35.4436 1013.77 43.8463 1013.77 Q52.249 1013.77 57.4052 1017.85 Q62.5615 1021.89 62.5615 1028.38 Q62.5615 1032.3 61.0337 1035.13 Q59.4741 1037.93 56.2912 1039.78 L61.6384 1039.78 L61.6384 1045.66 L12.1132 1045.66 L12.1132 1039.78 L31.4013 1039.78 Z" fill="#000000" fill-rule="nonzero" fill-opacity="1" /><path clip-path="url(#clip350)" d="M42.3504 973.573 L45.2149 973.573 L45.2149 1000.5 Q51.2623 1000.12 54.4452 996.871 Q57.5962 993.593 57.5962 987.768 Q57.5962 984.395 56.7687 981.244 Q55.9411 978.061 54.2861 974.942 L59.8242 974.942 Q61.161 978.093 61.8612 981.403 Q62.5615 984.713 62.5615 988.119 Q62.5615 996.649 57.5962 1001.65 Q52.631 1006.61 44.1646 1006.61 Q35.4117 1006.61 30.2873 1001.9 Q25.1311 997.158 25.1311 989.137 Q25.1311 981.944 29.7781 977.774 Q34.3932 973.573 42.3504 973.573 M40.6316 979.429 Q35.8255 979.493 32.9609 982.135 Q30.0964 984.745 30.0964 989.073 Q30.0964 993.975 32.8654 996.935 Q35.6345 999.863 40.6634 1000.31 L40.6316 979.429 Z" fill="#000000" fill-rule="nonzero" fill-opacity="1" /><path clip-path="url(#clip350)" d="M31.465 943.304 Q30.8921 944.291 30.6375 945.468 Q30.351 946.614 30.351 948.015 Q30.351 952.98 33.5975 955.653 Q36.8122 958.295 42.8596 958.295 L61.6384 958.295 L61.6384 964.184 L25.9905 964.184 L25.9905 958.295 L31.5287 958.295 Q28.2821 956.449 26.7225 953.489 Q25.1311 950.529 25.1311 946.296 Q25.1311 945.691 25.2266 944.959 Q25.2903 944.227 25.4494 943.336 L31.465 943.304 Z" fill="#000000" fill-rule="nonzero" fill-opacity="1" /><path clip-path="url(#clip350)" d="M25.9905 916.441 L25.9905 910.584 L61.6384 910.584 L61.6384 916.441 L25.9905 916.441 M12.1132 916.441 L12.1132 910.584 L19.5293 910.584 L19.5293 916.441 L12.1132 916.441 Z" fill="#000000" fill-rule="nonzero" fill-opacity="1" /><path clip-path="url(#clip350)" d="M40.1224 868.698 L61.6384 868.698 L61.6384 874.554 L40.3133 874.554 Q35.2526 874.554 32.7381 876.528 Q30.2237 878.501 30.2237 882.448 Q30.2237 887.19 33.2474 889.928 Q36.2711 892.665 41.491 892.665 L61.6384 892.665 L61.6384 898.553 L25.9905 898.553 L25.9905 892.665 L31.5287 892.665 Q28.314 890.564 26.7225 887.731 Q25.1311 884.867 25.1311 881.143 Q25.1311 875 28.9505 871.849 Q32.7381 868.698 40.1224 868.698 Z" fill="#000000" fill-rule="nonzero" fill-opacity="1" /><path clip-path="url(#clip350)" d="M12.1132 838.97 L16.983 838.97 L16.983 844.572 Q16.983 847.723 18.2562 848.964 Q19.5293 850.174 22.8395 850.174 L25.9905 850.174 L25.9905 840.53 L30.542 840.53 L30.542 850.174 L61.6384 850.174 L61.6384 856.062 L30.542 856.062 L30.542 861.664 L25.9905 861.664 L25.9905 856.062 L23.5079 856.062 Q17.5559 856.062 14.8505 853.293 Q12.1132 850.524 12.1132 844.508 L12.1132 838.97 Z" fill="#000000" fill-rule="nonzero" fill-opacity="1" /><path clip-path="url(#clip350)" d="M42.3504 803.577 L45.2149 803.577 L45.2149 830.504 Q51.2623 830.122 54.4452 826.875 Q57.5962 823.597 57.5962 817.772 Q57.5962 814.398 56.7687 811.247 Q55.9411 808.065 54.2861 804.945 L59.8242 804.945 Q61.161 808.096 61.8612 811.407 Q62.5615 814.717 62.5615 818.122 Q62.5615 826.652 57.5962 831.65 Q52.631 836.615 44.1646 836.615 Q35.4117 836.615 30.2873 831.904 Q25.1311 827.162 25.1311 819.141 Q25.1311 811.948 29.7781 807.778 Q34.3932 803.577 42.3504 803.577 M40.6316 809.433 Q35.8255 809.497 32.9609 812.139 Q30.0964 814.749 30.0964 819.077 Q30.0964 823.979 32.8654 826.939 Q35.6345 829.867 40.6634 830.313 L40.6316 809.433 Z" fill="#000000" fill-rule="nonzero" fill-opacity="1" /><path clip-path="url(#clip350)" d="M27.3591 768.311 L32.8336 768.311 Q31.465 770.793 30.7966 773.308 Q30.0964 775.79 30.0964 778.337 Q30.0964 784.034 33.7248 787.185 Q37.3214 790.336 43.8463 790.336 Q50.3711 790.336 53.9996 787.185 Q57.5962 784.034 57.5962 778.337 Q57.5962 775.79 56.9278 773.308 Q56.2276 770.793 54.859 768.311 L60.2698 768.311 Q61.4156 770.762 61.9886 773.403 Q62.5615 776.013 62.5615 778.973 Q62.5615 787.026 57.5007 791.768 Q52.44 796.511 43.8463 796.511 Q35.1253 796.511 30.1282 791.737 Q25.1311 786.93 25.1311 778.591 Q25.1311 775.886 25.704 773.308 Q26.2451 770.73 27.3591 768.311 Z" fill="#000000" fill-rule="nonzero" fill-opacity="1" /><path clip-path="url(#clip350)" d="M15.869 752.333 L25.9905 752.333 L25.9905 740.27 L30.542 740.27 L30.542 752.333 L49.8937 752.333 Q54.2542 752.333 55.4955 751.155 Q56.7368 749.946 56.7368 746.285 L56.7368 740.27 L61.6384 740.27 L61.6384 746.285 Q61.6384 753.065 59.124 755.643 Q56.5777 758.221 49.8937 758.221 L30.542 758.221 L30.542 762.518 L25.9905 762.518 L25.9905 758.221 L15.869 758.221 L15.869 752.333 Z" fill="#000000" fill-rule="nonzero" fill-opacity="1" /><path clip-path="url(#clip350)" d="M42.3504 702.076 L45.2149 702.076 L45.2149 729.003 Q51.2623 728.621 54.4452 725.374 Q57.5962 722.096 57.5962 716.271 Q57.5962 712.897 56.7687 709.746 Q55.9411 706.563 54.2861 703.444 L59.8242 703.444 Q61.161 706.595 61.8612 709.905 Q62.5615 713.216 62.5615 716.621 Q62.5615 725.151 57.5962 730.148 Q52.631 735.114 44.1646 735.114 Q35.4117 735.114 30.2873 730.403 Q25.1311 725.661 25.1311 717.64 Q25.1311 710.446 29.7781 706.277 Q34.3932 702.076 42.3504 702.076 M40.6316 707.932 Q35.8255 707.996 32.9609 710.637 Q30.0964 713.247 30.0964 717.576 Q30.0964 722.478 32.8654 725.438 Q35.6345 728.366 40.6634 728.812 L40.6316 707.932 Z" fill="#000000" fill-rule="nonzero" fill-opacity="1" /><path clip-path="url(#clip350)" d="M31.4013 669.006 L12.1132 669.006 L12.1132 663.149 L61.6384 663.149 L61.6384 669.006 L56.2912 669.006 Q59.4741 670.852 61.0337 673.685 Q62.5615 676.485 62.5615 680.432 Q62.5615 686.893 57.4052 690.967 Q52.249 695.01 43.8463 695.01 Q35.4436 695.01 30.2873 690.967 Q25.1311 686.893 25.1311 680.432 Q25.1311 676.485 26.6907 673.685 Q28.2185 670.852 31.4013 669.006 M43.8463 688.962 Q50.3075 688.962 53.9996 686.32 Q57.6599 683.647 57.6599 679 Q57.6599 674.353 53.9996 671.679 Q50.3075 669.006 43.8463 669.006 Q37.3851 669.006 33.7248 671.679 Q30.0327 674.353 30.0327 679 Q30.0327 683.647 33.7248 686.32 Q37.3851 688.962 43.8463 688.962 Z" fill="#000000" fill-rule="nonzero" fill-opacity="1" /><path clip-path="url(#clip350)" d="M597.608 16.7545 L597.608 25.383 Q593.476 21.5346 588.777 19.6307 Q584.118 17.7268 578.852 17.7268 Q568.482 17.7268 562.973 24.0867 Q557.463 30.4061 557.463 42.3968 Q557.463 54.3469 562.973 60.7069 Q568.482 67.0263 578.852 67.0263 Q584.118 67.0263 588.777 65.1223 Q593.476 63.2184 597.608 59.3701 L597.608 67.9175 Q593.314 70.8341 588.493 72.2924 Q583.713 73.7508 578.366 73.7508 Q564.633 73.7508 556.734 65.3654 Q548.835 56.9395 548.835 42.3968 Q548.835 27.8135 556.734 19.4281 Q564.633 11.0023 578.366 11.0023 Q583.794 11.0023 588.574 12.4606 Q593.395 13.8784 597.608 16.7545 Z" fill="#000000" fill-rule="nonzero" fill-opacity="1" /><path clip-path="url(#clip350)" d="M627.503 32.4315 Q621.508 32.4315 618.024 37.1306 Q614.541 41.7891 614.541 49.9314 Q614.541 58.0738 617.984 62.7728 Q621.468 67.4314 627.503 67.4314 Q633.458 67.4314 636.942 62.7323 Q640.426 58.0333 640.426 49.9314 Q640.426 41.8701 636.942 37.1711 Q633.458 32.4315 627.503 32.4315 M627.503 26.1121 Q637.226 26.1121 642.775 32.4315 Q648.325 38.7509 648.325 49.9314 Q648.325 61.0714 642.775 67.4314 Q637.226 73.7508 627.503 73.7508 Q617.741 73.7508 612.191 67.4314 Q606.682 61.0714 606.682 49.9314 Q606.682 38.7509 612.191 32.4315 Q617.741 26.1121 627.503 26.1121 Z" fill="#000000" fill-rule="nonzero" fill-opacity="1" /><path clip-path="url(#clip350)" d="M696.004 35.9153 Q698.799 30.8922 702.688 28.5022 Q706.577 26.1121 711.843 26.1121 Q718.932 26.1121 722.781 31.0947 Q726.629 36.0368 726.629 45.1919 L726.629 72.576 L719.135 72.576 L719.135 45.4349 Q719.135 38.913 716.826 35.7533 Q714.517 32.5936 709.777 32.5936 Q703.985 32.5936 700.622 36.4419 Q697.26 40.2903 697.26 46.9338 L697.26 72.576 L689.766 72.576 L689.766 45.4349 Q689.766 38.8725 687.457 35.7533 Q685.148 32.5936 680.327 32.5936 Q674.615 32.5936 671.253 36.4824 Q667.891 40.3308 667.891 46.9338 L667.891 72.576 L660.397 72.576 L660.397 27.2059 L667.891 27.2059 L667.891 34.2544 Q670.443 30.082 674.008 28.0971 Q677.573 26.1121 682.474 26.1121 Q687.416 26.1121 690.86 28.6237 Q694.343 31.1352 696.004 35.9153 Z" fill="#000000" fill-rule="nonzero" fill-opacity="1" /><path clip-path="url(#clip350)" d="M748.707 65.7705 L748.707 89.8329 L741.212 89.8329 L741.212 27.2059 L748.707 27.2059 L748.707 34.0924 Q751.056 30.0415 754.621 28.0971 Q758.226 26.1121 763.209 26.1121 Q771.473 26.1121 776.617 32.6746 Q781.802 39.2371 781.802 49.9314 Q781.802 60.6258 776.617 67.1883 Q771.473 73.7508 763.209 73.7508 Q758.226 73.7508 754.621 71.8063 Q751.056 69.8214 748.707 65.7705 M774.065 49.9314 Q774.065 41.7081 770.662 37.0496 Q767.3 32.3505 761.386 32.3505 Q755.472 32.3505 752.069 37.0496 Q748.707 41.7081 748.707 49.9314 Q748.707 58.1548 752.069 62.8538 Q755.472 67.5124 761.386 67.5124 Q767.3 67.5124 770.662 62.8538 Q774.065 58.1548 774.065 49.9314 Z" fill="#000000" fill-rule="nonzero" fill-opacity="1" /><path clip-path="url(#clip350)" d="M794.158 9.54393 L801.611 9.54393 L801.611 72.576 L794.158 72.576 L794.158 9.54393 Z" fill="#000000" fill-rule="nonzero" fill-opacity="1" /><path clip-path="url(#clip350)" d="M856.015 48.0275 L856.015 51.6733 L821.744 51.6733 Q822.23 59.3701 826.362 63.421 Q830.535 67.4314 837.948 67.4314 Q842.242 67.4314 846.252 66.3781 Q850.303 65.3249 854.273 63.2184 L854.273 70.267 Q850.263 71.9684 846.05 72.8596 Q841.837 73.7508 837.502 73.7508 Q826.646 73.7508 820.286 67.4314 Q813.967 61.1119 813.967 50.3365 Q813.967 39.1965 819.962 32.6746 Q825.998 26.1121 836.206 26.1121 Q845.361 26.1121 850.668 32.0264 Q856.015 37.9003 856.015 48.0275 M848.561 45.84 Q848.48 39.7232 845.118 36.0774 Q841.796 32.4315 836.287 32.4315 Q830.049 32.4315 826.281 35.9558 Q822.555 39.4801 821.987 45.8805 L848.561 45.84 Z" fill="#000000" fill-rule="nonzero" fill-opacity="1" /><path clip-path="url(#clip350)" d="M875.621 14.324 L875.621 27.2059 L890.974 27.2059 L890.974 32.9987 L875.621 32.9987 L875.621 57.6282 Q875.621 63.1779 877.12 64.7578 Q878.66 66.3376 883.318 66.3376 L890.974 66.3376 L890.974 72.576 L883.318 72.576 Q874.69 72.576 871.408 69.3758 Q868.127 66.1351 868.127 57.6282 L868.127 32.9987 L862.658 32.9987 L862.658 27.2059 L868.127 27.2059 L868.127 14.324 L875.621 14.324 Z" fill="#000000" fill-rule="nonzero" fill-opacity="1" /><path clip-path="url(#clip350)" d="M939.585 48.0275 L939.585 51.6733 L905.314 51.6733 Q905.801 59.3701 909.933 63.421 Q914.105 67.4314 921.518 67.4314 Q925.812 67.4314 929.822 66.3781 Q933.873 65.3249 937.843 63.2184 L937.843 70.267 Q933.833 71.9684 929.62 72.8596 Q925.407 73.7508 921.073 73.7508 Q910.216 73.7508 903.856 67.4314 Q897.537 61.1119 897.537 50.3365 Q897.537 39.1965 903.532 32.6746 Q909.568 26.1121 919.776 26.1121 Q928.931 26.1121 934.238 32.0264 Q939.585 37.9003 939.585 48.0275 M932.131 45.84 Q932.05 39.7232 928.688 36.0774 Q925.366 32.4315 919.857 32.4315 Q913.619 32.4315 909.851 35.9558 Q906.125 39.4801 905.558 45.8805 L932.131 45.84 Z" fill="#000000" fill-rule="nonzero" fill-opacity="1" /><path clip-path="url(#clip350)" d="M1008.05 49.3643 Q1008.05 41.2625 1004.68 36.8065 Q1001.36 32.3505 995.326 32.3505 Q989.33 32.3505 985.968 36.8065 Q982.646 41.2625 982.646 49.3643 Q982.646 57.4256 985.968 61.8816 Q989.33 66.3376 995.326 66.3376 Q1001.36 66.3376 1004.68 61.8816 Q1008.05 57.4256 1008.05 49.3643 M1015.5 66.9452 Q1015.5 78.5308 1010.35 84.1616 Q1005.21 89.8329 994.596 89.8329 Q990.667 89.8329 987.183 89.2252 Q983.699 88.6581 980.418 87.4428 L980.418 80.1917 Q983.699 81.9741 986.9 82.8248 Q990.1 83.6755 993.422 83.6755 Q1000.75 83.6755 1004.4 79.8271 Q1008.05 76.0193 1008.05 68.282 L1008.05 64.5957 Q1005.74 68.6061 1002.13 70.5911 Q998.526 72.576 993.503 72.576 Q985.158 72.576 980.054 66.2161 Q974.95 59.8562 974.95 49.3643 Q974.95 38.832 980.054 32.472 Q985.158 26.1121 993.503 26.1121 Q998.526 26.1121 1002.13 28.0971 Q1005.74 30.082 1008.05 34.0924 L1008.05 27.2059 L1015.5 27.2059 L1015.5 66.9452 Z" fill="#000000" fill-rule="nonzero" fill-opacity="1" /><path clip-path="url(#clip350)" d="M1057.14 34.1734 Q1055.89 33.4443 1054.39 33.1202 Q1052.93 32.7556 1051.15 32.7556 Q1044.83 32.7556 1041.42 36.8875 Q1038.06 40.9789 1038.06 48.6757 L1038.06 72.576 L1030.57 72.576 L1030.57 27.2059 L1038.06 27.2059 L1038.06 34.2544 Q1040.41 30.1225 1044.18 28.1376 Q1047.95 26.1121 1053.33 26.1121 Q1054.1 26.1121 1055.04 26.2337 Q1055.97 26.3147 1057.1 26.5172 L1057.14 34.1734 Z" fill="#000000" fill-rule="nonzero" fill-opacity="1" /><path clip-path="url(#clip350)" d="M1085.58 49.7694 Q1076.55 49.7694 1073.06 51.8354 Q1069.58 53.9013 1069.58 58.8839 Q1069.58 62.8538 1072.17 65.2034 Q1074.8 67.5124 1079.3 67.5124 Q1085.5 67.5124 1089.23 63.1374 Q1092.99 58.7219 1092.99 51.4303 L1092.99 49.7694 L1085.58 49.7694 M1100.45 46.6907 L1100.45 72.576 L1092.99 72.576 L1092.99 65.6895 Q1090.44 69.8214 1086.63 71.8063 Q1082.83 73.7508 1077.32 73.7508 Q1070.35 73.7508 1066.22 69.8619 Q1062.12 65.9325 1062.12 59.3701 Q1062.12 51.7138 1067.23 47.825 Q1072.37 43.9361 1082.54 43.9361 L1092.99 43.9361 L1092.99 43.2069 Q1092.99 38.0623 1089.59 35.2672 Q1086.23 32.4315 1080.11 32.4315 Q1076.22 32.4315 1072.54 33.3632 Q1068.85 34.295 1065.45 36.1584 L1065.45 29.2718 Q1069.54 27.692 1073.39 26.9223 Q1077.23 26.1121 1080.88 26.1121 Q1090.72 26.1121 1095.59 31.2163 Q1100.45 36.3204 1100.45 46.6907 Z" fill="#000000" fill-rule="nonzero" fill-opacity="1" /><path clip-path="url(#clip350)" d="M1123.01 65.7705 L1123.01 89.8329 L1115.52 89.8329 L1115.52 27.2059 L1123.01 27.2059 L1123.01 34.0924 Q1125.36 30.0415 1128.92 28.0971 Q1132.53 26.1121 1137.51 26.1121 Q1145.78 26.1121 1150.92 32.6746 Q1156.11 39.2371 1156.11 49.9314 Q1156.11 60.6258 1150.92 67.1883 Q1145.78 73.7508 1137.51 73.7508 Q1132.53 73.7508 1128.92 71.8063 Q1125.36 69.8214 1123.01 65.7705 M1148.37 49.9314 Q1148.37 41.7081 1144.97 37.0496 Q1141.6 32.3505 1135.69 32.3505 Q1129.78 32.3505 1126.37 37.0496 Q1123.01 41.7081 1123.01 49.9314 Q1123.01 58.1548 1126.37 62.8538 Q1129.78 67.5124 1135.69 67.5124 Q1141.6 67.5124 1144.97 62.8538 Q1148.37 58.1548 1148.37 49.9314 Z" fill="#000000" fill-rule="nonzero" fill-opacity="1" /><path clip-path="url(#clip350)" d="M1206.18 45.1919 L1206.18 72.576 L1198.72 72.576 L1198.72 45.4349 Q1198.72 38.994 1196.21 35.7938 Q1193.7 32.5936 1188.68 32.5936 Q1182.64 32.5936 1179.16 36.4419 Q1175.67 40.2903 1175.67 46.9338 L1175.67 72.576 L1168.18 72.576 L1168.18 9.54393 L1175.67 9.54393 L1175.67 34.2544 Q1178.35 30.163 1181.95 28.1376 Q1185.6 26.1121 1190.34 26.1121 Q1198.15 26.1121 1202.16 30.9732 Q1206.18 35.7938 1206.18 45.1919 Z" fill="#000000" fill-rule="nonzero" fill-opacity="1" /><path clip-path="url(#clip350)" d="M1247.74 12.096 L1255.92 12.096 L1255.92 37.6572 L1283.06 12.096 L1293.59 12.096 L1263.58 40.2903 L1295.74 72.576 L1284.97 72.576 L1255.92 43.45 L1255.92 72.576 L1247.74 72.576 L1247.74 12.096 Z" fill="#000000" fill-rule="nonzero" fill-opacity="1" /><path clip-path="url(#clip350)" d="M1304.86 67.958 L1322.03 67.958 L1322.03 72.576 L1297.81 72.576 L1297.81 68.12 Q1299.18 66.8642 1301.74 64.5957 Q1315.67 52.2405 1315.67 48.4326 Q1315.67 45.759 1313.56 44.1387 Q1311.46 42.4778 1308.01 42.4778 Q1305.91 42.4778 1303.44 43.2069 Q1300.97 43.8956 1298.05 45.3134 L1298.05 40.3308 Q1301.17 39.1965 1303.84 38.6294 Q1306.56 38.0623 1308.87 38.0623 Q1314.74 38.0623 1318.26 40.7359 Q1321.79 43.4095 1321.79 47.7845 Q1321.79 53.4152 1308.38 64.9198 Q1306.11 66.8642 1304.86 67.958 Z" fill="#000000" fill-rule="nonzero" fill-opacity="1" /><path clip-path="url(#clip350)" d="M1350.35 45.1514 Q1348.32 41.6676 1344.23 41.6676 Q1340.14 41.6676 1338.11 45.1514 Q1336.05 48.6352 1336.05 55.6027 Q1336.05 62.6108 1338.11 66.0946 Q1340.14 69.5783 1344.23 69.5783 Q1348.32 69.5783 1350.35 66.0946 Q1352.41 62.6108 1352.41 55.6027 Q1352.41 48.6352 1350.35 45.1514 M1344.23 38.0623 Q1350.75 38.0623 1354.2 42.5588 Q1357.64 47.0553 1357.64 55.6027 Q1357.64 64.1906 1354.2 68.6871 Q1350.75 73.1836 1344.23 73.1836 Q1337.67 73.1836 1334.22 68.6871 Q1330.78 64.1906 1330.78 55.6027 Q1330.78 47.0553 1334.22 42.5588 Q1337.67 38.0623 1344.23 38.0623 Z" fill="#000000" fill-rule="nonzero" fill-opacity="1" /><path clip-path="url(#clip350)" d="M1370.24 62.2867 L1378.78 62.2867 L1378.78 72.576 L1370.24 72.576 L1370.24 62.2867 M1370.24 29.6769 L1378.78 29.6769 L1378.78 39.9662 L1370.24 39.9662 L1370.24 29.6769 Z" fill="#000000" fill-rule="nonzero" fill-opacity="1" /><path clip-path="url(#clip350)" d="M1429.87 65.7705 L1429.87 89.8329 L1422.37 89.8329 L1422.37 27.2059 L1429.87 27.2059 L1429.87 34.0924 Q1432.22 30.0415 1435.78 28.0971 Q1439.39 26.1121 1444.37 26.1121 Q1452.63 26.1121 1457.78 32.6746 Q1462.96 39.2371 1462.96 49.9314 Q1462.96 60.6258 1457.78 67.1883 Q1452.63 73.7508 1444.37 73.7508 Q1439.39 73.7508 1435.78 71.8063 Q1432.22 69.8214 1429.87 65.7705 M1455.22 49.9314 Q1455.22 41.7081 1451.82 37.0496 Q1448.46 32.3505 1442.55 32.3505 Q1436.63 32.3505 1433.23 37.0496 Q1429.87 41.7081 1429.87 49.9314 Q1429.87 58.1548 1433.23 62.8538 Q1436.63 67.5124 1442.55 67.5124 Q1448.46 67.5124 1451.82 62.8538 Q1455.22 58.1548 1455.22 49.9314 Z" fill="#000000" fill-rule="nonzero" fill-opacity="1" /><path clip-path="url(#clip350)" d="M1495.94 49.7694 Q1486.9 49.7694 1483.42 51.8354 Q1479.94 53.9013 1479.94 58.8839 Q1479.94 62.8538 1482.53 65.2034 Q1485.16 67.5124 1489.66 67.5124 Q1495.86 67.5124 1499.58 63.1374 Q1503.35 58.7219 1503.35 51.4303 L1503.35 49.7694 L1495.94 49.7694 M1510.8 46.6907 L1510.8 72.576 L1503.35 72.576 L1503.35 65.6895 Q1500.8 69.8214 1496.99 71.8063 Q1493.18 73.7508 1487.67 73.7508 Q1480.7 73.7508 1476.57 69.8619 Q1472.48 65.9325 1472.48 59.3701 Q1472.48 51.7138 1477.59 47.825 Q1482.73 43.9361 1492.9 43.9361 L1503.35 43.9361 L1503.35 43.2069 Q1503.35 38.0623 1499.95 35.2672 Q1496.58 32.4315 1490.47 32.4315 Q1486.58 32.4315 1482.89 33.3632 Q1479.21 34.295 1475.8 36.1584 L1475.8 29.2718 Q1479.89 27.692 1483.74 26.9223 Q1487.59 26.1121 1491.24 26.1121 Q1501.08 26.1121 1505.94 31.2163 Q1510.8 36.3204 1510.8 46.6907 Z" fill="#000000" fill-rule="nonzero" fill-opacity="1" /><path clip-path="url(#clip350)" d="M1526.16 27.2059 L1533.61 27.2059 L1533.61 72.576 L1526.16 72.576 L1526.16 27.2059 M1526.16 9.54393 L1533.61 9.54393 L1533.61 18.9825 L1526.16 18.9825 L1526.16 9.54393 Z" fill="#000000" fill-rule="nonzero" fill-opacity="1" /><path clip-path="url(#clip350)" d="M1575.5 34.1734 Q1574.24 33.4443 1572.74 33.1202 Q1571.28 32.7556 1569.5 32.7556 Q1563.18 32.7556 1559.78 36.8875 Q1556.42 40.9789 1556.42 48.6757 L1556.42 72.576 L1548.92 72.576 L1548.92 27.2059 L1556.42 27.2059 L1556.42 34.2544 Q1558.77 30.1225 1562.53 28.1376 Q1566.3 26.1121 1571.69 26.1121 Q1572.46 26.1121 1573.39 26.2337 Q1574.32 26.3147 1575.46 26.5172 L1575.5 34.1734 Z" fill="#000000" fill-rule="nonzero" fill-opacity="1" /><path clip-path="url(#clip350)" d="M1574.24 46.5287 L1596.07 46.5287 L1596.07 53.1722 L1574.24 53.1722 L1574.24 46.5287 Z" fill="#000000" fill-rule="nonzero" fill-opacity="1" /><path clip-path="url(#clip350)" d="M1640.51 49.9314 Q1640.51 41.7081 1637.11 37.0496 Q1633.75 32.3505 1627.83 32.3505 Q1621.92 32.3505 1618.52 37.0496 Q1615.15 41.7081 1615.15 49.9314 Q1615.15 58.1548 1618.52 62.8538 Q1621.92 67.5124 1627.83 67.5124 Q1633.75 67.5124 1637.11 62.8538 Q1640.51 58.1548 1640.51 49.9314 M1615.15 34.0924 Q1617.5 30.0415 1621.07 28.0971 Q1624.67 26.1121 1629.66 26.1121 Q1637.92 26.1121 1643.07 32.6746 Q1648.25 39.2371 1648.25 49.9314 Q1648.25 60.6258 1643.07 67.1883 Q1637.92 73.7508 1629.66 73.7508 Q1624.67 73.7508 1621.07 71.8063 Q1617.5 69.8214 1615.15 65.7705 L1615.15 72.576 L1607.66 72.576 L1607.66 9.54393 L1615.15 9.54393 L1615.15 34.0924 Z" fill="#000000" fill-rule="nonzero" fill-opacity="1" /><path clip-path="url(#clip350)" d="M1681.22 49.7694 Q1672.19 49.7694 1668.71 51.8354 Q1665.22 53.9013 1665.22 58.8839 Q1665.22 62.8538 1667.82 65.2034 Q1670.45 67.5124 1674.95 67.5124 Q1681.14 67.5124 1684.87 63.1374 Q1688.64 58.7219 1688.64 51.4303 L1688.64 49.7694 L1681.22 49.7694 M1696.09 46.6907 L1696.09 72.576 L1688.64 72.576 L1688.64 65.6895 Q1686.09 69.8214 1682.28 71.8063 Q1678.47 73.7508 1672.96 73.7508 Q1665.99 73.7508 1661.86 69.8619 Q1657.77 65.9325 1657.77 59.3701 Q1657.77 51.7138 1662.87 47.825 Q1668.02 43.9361 1678.19 43.9361 L1688.64 43.9361 L1688.64 43.2069 Q1688.64 38.0623 1685.24 35.2672 Q1681.87 32.4315 1675.76 32.4315 Q1671.87 32.4315 1668.18 33.3632 Q1664.49 34.295 1661.09 36.1584 L1661.09 29.2718 Q1665.18 27.692 1669.03 26.9223 Q1672.88 26.1121 1676.53 26.1121 Q1686.37 26.1121 1691.23 31.2163 Q1696.09 36.3204 1696.09 46.6907 Z" fill="#000000" fill-rule="nonzero" fill-opacity="1" /><path clip-path="url(#clip350)" d="M1740.37 28.5427 L1740.37 35.5912 Q1737.21 33.9709 1733.81 33.1607 Q1730.4 32.3505 1726.76 32.3505 Q1721.21 32.3505 1718.41 34.0519 Q1715.66 35.7533 1715.66 39.156 Q1715.66 41.7486 1717.64 43.2475 Q1719.63 44.7058 1725.62 46.0426 L1728.17 46.6097 Q1736.11 48.3111 1739.44 51.4303 Q1742.8 54.509 1742.8 60.0587 Q1742.8 66.3781 1737.78 70.0644 Q1732.79 73.7508 1724.04 73.7508 Q1720.4 73.7508 1716.43 73.0216 Q1712.5 72.3329 1708.12 70.9151 L1708.12 63.2184 Q1712.25 65.3654 1716.27 66.4591 Q1720.28 67.5124 1724.2 67.5124 Q1729.47 67.5124 1732.31 65.73 Q1735.14 63.9071 1735.14 60.6258 Q1735.14 57.5877 1733.08 55.9673 Q1731.05 54.3469 1724.12 52.8481 L1721.53 52.2405 Q1714.6 50.7821 1711.53 47.7845 Q1708.45 44.7463 1708.45 39.4801 Q1708.45 33.0797 1712.98 29.5959 Q1717.52 26.1121 1725.87 26.1121 Q1730 26.1121 1733.64 26.7198 Q1737.29 27.3274 1740.37 28.5427 Z" fill="#000000" fill-rule="nonzero" fill-opacity="1" /><path clip-path="url(#clip350)" d="M1793.48 48.0275 L1793.48 51.6733 L1759.2 51.6733 Q1759.69 59.3701 1763.82 63.421 Q1768 67.4314 1775.41 67.4314 Q1779.7 67.4314 1783.71 66.3781 Q1787.76 65.3249 1791.73 63.2184 L1791.73 70.267 Q1787.72 71.9684 1783.51 72.8596 Q1779.3 73.7508 1774.96 73.7508 Q1764.11 73.7508 1757.75 67.4314 Q1751.43 61.1119 1751.43 50.3365 Q1751.43 39.1965 1757.42 32.6746 Q1763.46 26.1121 1773.67 26.1121 Q1782.82 26.1121 1788.13 32.0264 Q1793.48 37.9003 1793.48 48.0275 M1786.02 45.84 Q1785.94 39.7232 1782.58 36.0774 Q1779.26 32.4315 1773.75 32.4315 Q1767.51 32.4315 1763.74 35.9558 Q1760.01 39.4801 1759.45 45.8805 L1786.02 45.84 Z" fill="#000000" fill-rule="nonzero" fill-opacity="1" /><path clip-path="url(#clip350)" d="M1835.56 34.0924 L1835.56 9.54393 L1843.02 9.54393 L1843.02 72.576 L1835.56 72.576 L1835.56 65.7705 Q1833.21 69.8214 1829.61 71.8063 Q1826.04 73.7508 1821.02 73.7508 Q1812.8 73.7508 1807.61 67.1883 Q1802.47 60.6258 1802.47 49.9314 Q1802.47 39.2371 1807.61 32.6746 Q1812.8 26.1121 1821.02 26.1121 Q1826.04 26.1121 1829.61 28.0971 Q1833.21 30.0415 1835.56 34.0924 M1810.16 49.9314 Q1810.16 58.1548 1813.53 62.8538 Q1816.93 67.5124 1822.84 67.5124 Q1828.76 67.5124 1832.16 62.8538 Q1835.56 58.1548 1835.56 49.9314 Q1835.56 41.7081 1832.16 37.0496 Q1828.76 32.3505 1822.84 32.3505 Q1816.93 32.3505 1813.53 37.0496 Q1810.16 41.7081 1810.16 49.9314 Z" fill="#000000" fill-rule="nonzero" fill-opacity="1" /><path clip-path="url(#clip350)" d="M1879.39 27.2059 L1887.29 27.2059 L1901.47 65.2844 L1915.65 27.2059 L1923.55 27.2059 L1906.54 72.576 L1896.41 72.576 L1879.39 27.2059 Z" fill="#000000" fill-rule="nonzero" fill-opacity="1" /><path clip-path="url(#clip350)" d="M1962.76 28.5427 L1962.76 35.5912 Q1959.6 33.9709 1956.2 33.1607 Q1952.8 32.3505 1949.15 32.3505 Q1943.6 32.3505 1940.81 34.0519 Q1938.05 35.7533 1938.05 39.156 Q1938.05 41.7486 1940.04 43.2475 Q1942.02 44.7058 1948.02 46.0426 L1950.57 46.6097 Q1958.51 48.3111 1961.83 51.4303 Q1965.19 54.509 1965.19 60.0587 Q1965.19 66.3781 1960.17 70.0644 Q1955.19 73.7508 1946.44 73.7508 Q1942.79 73.7508 1938.82 73.0216 Q1934.89 72.3329 1930.52 70.9151 L1930.52 63.2184 Q1934.65 65.3654 1938.66 66.4591 Q1942.67 67.5124 1946.6 67.5124 Q1951.87 67.5124 1954.7 65.73 Q1957.54 63.9071 1957.54 60.6258 Q1957.54 57.5877 1955.47 55.9673 Q1953.45 54.3469 1946.52 52.8481 L1943.93 52.2405 Q1937 50.7821 1933.92 47.7845 Q1930.84 44.7463 1930.84 39.4801 Q1930.84 33.0797 1935.38 29.5959 Q1939.92 26.1121 1948.26 26.1121 Q1952.39 26.1121 1956.04 26.7198 Q1959.68 27.3274 1962.76 28.5427 Z" fill="#000000" fill-rule="nonzero" fill-opacity="1" /><path clip-path="url(#clip350)" d="M2045 63.9476 L2045 47.7034 L2031.63 47.7034 L2031.63 40.9789 L2053.1 40.9789 L2053.1 66.9452 Q2048.36 70.3075 2042.65 72.0494 Q2036.93 73.7508 2030.45 73.7508 Q2016.27 73.7508 2008.25 65.4869 Q2000.27 57.1826 2000.27 42.3968 Q2000.27 27.5705 2008.25 19.3066 Q2016.27 11.0023 2030.45 11.0023 Q2036.37 11.0023 2041.67 12.4606 Q2047.02 13.9189 2051.52 16.7545 L2051.52 25.464 Q2046.98 21.6156 2041.88 19.6712 Q2036.77 17.7268 2031.14 17.7268 Q2020.04 17.7268 2014.45 23.9246 Q2008.9 30.1225 2008.9 42.3968 Q2008.9 54.6305 2014.45 60.8284 Q2020.04 67.0263 2031.14 67.0263 Q2035.48 67.0263 2038.88 66.2971 Q2042.28 65.5274 2045 63.9476 Z" fill="#000000" fill-rule="nonzero" fill-opacity="1" /><path clip-path="url(#clip350)" d="M2067.72 27.2059 L2075.18 27.2059 L2075.18 72.576 L2067.72 72.576 L2067.72 27.2059 M2067.72 9.54393 L2075.18 9.54393 L2075.18 18.9825 L2067.72 18.9825 L2067.72 9.54393 Z" fill="#000000" fill-rule="nonzero" fill-opacity="1" /><path clip-path="url(#clip350)" d="M2090.77 9.54393 L2098.22 9.54393 L2098.22 72.576 L2090.77 72.576 L2090.77 9.54393 Z" fill="#000000" fill-rule="nonzero" fill-opacity="1" /><path clip-path="url(#clip350)" d="M2113.82 9.54393 L2121.27 9.54393 L2121.27 72.576 L2113.82 72.576 L2113.82 9.54393 Z" fill="#000000" fill-rule="nonzero" fill-opacity="1" /><path clip-path="url(#clip350)" d="M2175.68 48.0275 L2175.68 51.6733 L2141.41 51.6733 Q2141.89 59.3701 2146.03 63.421 Q2150.2 67.4314 2157.61 67.4314 Q2161.9 67.4314 2165.92 66.3781 Q2169.97 65.3249 2173.94 63.2184 L2173.94 70.267 Q2169.93 71.9684 2165.71 72.8596 Q2161.5 73.7508 2157.17 73.7508 Q2146.31 73.7508 2139.95 67.4314 Q2133.63 61.1119 2133.63 50.3365 Q2133.63 39.1965 2139.63 32.6746 Q2145.66 26.1121 2155.87 26.1121 Q2165.02 26.1121 2170.33 32.0264 Q2175.68 37.9003 2175.68 48.0275 M2168.22 45.84 Q2168.14 39.7232 2164.78 36.0774 Q2161.46 32.4315 2155.95 32.4315 Q2149.71 32.4315 2145.94 35.9558 Q2142.22 39.4801 2141.65 45.8805 L2168.22 45.84 Z" fill="#000000" fill-rule="nonzero" fill-opacity="1" /><path clip-path="url(#clip350)" d="M2216.84 28.5427 L2216.84 35.5912 Q2213.68 33.9709 2210.27 33.1607 Q2206.87 32.3505 2203.22 32.3505 Q2197.67 32.3505 2194.88 34.0519 Q2192.12 35.7533 2192.12 39.156 Q2192.12 41.7486 2194.11 43.2475 Q2196.09 44.7058 2202.09 46.0426 L2204.64 46.6097 Q2212.58 48.3111 2215.9 51.4303 Q2219.27 54.509 2219.27 60.0587 Q2219.27 66.3781 2214.24 70.0644 Q2209.26 73.7508 2200.51 73.7508 Q2196.86 73.7508 2192.89 73.0216 Q2188.97 72.3329 2184.59 70.9151 L2184.59 63.2184 Q2188.72 65.3654 2192.73 66.4591 Q2196.74 67.5124 2200.67 67.5124 Q2205.94 67.5124 2208.77 65.73 Q2211.61 63.9071 2211.61 60.6258 Q2211.61 57.5877 2209.54 55.9673 Q2207.52 54.3469 2200.59 52.8481 L2198 52.2405 Q2191.07 50.7821 2187.99 47.7845 Q2184.91 44.7463 2184.91 39.4801 Q2184.91 33.0797 2189.45 29.5959 Q2193.99 26.1121 2202.33 26.1121 Q2206.46 26.1121 2210.11 26.7198 Q2213.76 27.3274 2216.84 28.5427 Z" fill="#000000" fill-rule="nonzero" fill-opacity="1" /><path clip-path="url(#clip350)" d="M2238.35 65.7705 L2238.35 89.8329 L2230.85 89.8329 L2230.85 27.2059 L2238.35 27.2059 L2238.35 34.0924 Q2240.7 30.0415 2244.26 28.0971 Q2247.87 26.1121 2252.85 26.1121 Q2261.11 26.1121 2266.26 32.6746 Q2271.44 39.2371 2271.44 49.9314 Q2271.44 60.6258 2266.26 67.1883 Q2261.11 73.7508 2252.85 73.7508 Q2247.87 73.7508 2244.26 71.8063 Q2240.7 69.8214 2238.35 65.7705 M2263.7 49.9314 Q2263.7 41.7081 2260.3 37.0496 Q2256.94 32.3505 2251.02 32.3505 Q2245.11 32.3505 2241.71 37.0496 Q2238.35 41.7081 2238.35 49.9314 Q2238.35 58.1548 2241.71 62.8538 Q2245.11 67.5124 2251.02 67.5124 Q2256.94 67.5124 2260.3 62.8538 Q2263.7 58.1548 2263.7 49.9314 Z" fill="#000000" fill-rule="nonzero" fill-opacity="1" /><path clip-path="url(#clip350)" d="M2283.8 27.2059 L2291.25 27.2059 L2291.25 72.576 L2283.8 72.576 L2283.8 27.2059 M2283.8 9.54393 L2291.25 9.54393 L2291.25 18.9825 L2283.8 18.9825 L2283.8 9.54393 Z" fill="#000000" fill-rule="nonzero" fill-opacity="1" /><path clip-path="url(#clip350)" d="M2345.65 48.0275 L2345.65 51.6733 L2311.38 51.6733 Q2311.87 59.3701 2316 63.421 Q2320.17 67.4314 2327.59 67.4314 Q2331.88 67.4314 2335.89 66.3781 Q2339.94 65.3249 2343.91 63.2184 L2343.91 70.267 Q2339.9 71.9684 2335.69 72.8596 Q2331.48 73.7508 2327.14 73.7508 Q2316.28 73.7508 2309.93 67.4314 Q2303.61 61.1119 2303.61 50.3365 Q2303.61 39.1965 2309.6 32.6746 Q2315.64 26.1121 2325.85 26.1121 Q2335 26.1121 2340.31 32.0264 Q2345.65 37.9003 2345.65 48.0275 M2338.2 45.84 Q2338.12 39.7232 2334.76 36.0774 Q2331.44 32.4315 2325.93 32.4315 Q2319.69 32.4315 2315.92 35.9558 Q2312.19 39.4801 2311.63 45.8805 L2338.2 45.84 Z" fill="#000000" fill-rule="nonzero" fill-opacity="1" /><polyline clip-path="url(#clip351)" style="stroke:#8b0000; stroke-linecap:round; stroke-linejoin:round; stroke-width:8; stroke-opacity:1; fill:none" points="321.29,1580.41 340.056,1572.62 358.822,1564.39 377.588,1555.72 396.354,1546.61 415.12,1537.03 433.886,1527 452.652,1516.5 471.417,1505.54 490.183,1494.12 508.949,1482.22 527.715,1469.86 546.481,1457.04 565.247,1443.77 584.013,1430.05 602.779,1415.89 621.545,1401.32 640.311,1386.34 659.077,1370.97 677.842,1355.23 696.608,1339.16 715.374,1322.77 734.14,1306.1 752.906,1289.18 771.672,1272.04 790.438,1254.73 809.204,1237.29 827.97,1219.76 846.736,1202.19 865.501,1184.62 884.267,1167.1 903.033,1149.69 921.799,1132.43 940.565,1115.38 959.331,1098.58 978.097,1082.08 996.863,1065.95 1015.63,1050.23 1034.39,1034.96 1053.16,1020.19 1071.93,1005.96 1090.69,992.316 1109.46,979.285 1128.22,966.906 1146.99,955.213 1165.76,944.229 1184.52,933.973 1203.29,924.464 1222.05,915.713 1240.82,907.734 1259.59,900.534 1278.35,894.117 1297.12,888.486 1315.88,883.641 1334.65,879.581 1353.41,876.298 1372.18,873.771 1390.95,871.978 1409.71,870.897 1428.48,870.506 1447.24,870.785 1466.01,871.714 1484.78,873.271 1503.54,875.438 1522.31,878.194 1541.07,881.521 1559.84,885.389 1578.61,889.762 1597.37,894.609 1616.14,899.904 1634.9,905.617 1653.67,911.723 1672.44,918.196 1691.2,925.01 1709.97,932.142 1728.73,939.569 1747.5,947.269 1766.26,955.215 1785.03,963.385 1803.8,971.758 1822.56,980.311 1841.33,989.026 1860.09,997.884 1878.86,1006.87 1897.63,1015.95 1916.39,1025.13 1935.16,1034.39 1953.92,1043.71 1972.69,1053.08 1991.46,1062.48 2010.22,1071.91 2028.99,1081.35 2047.75,1090.79 2066.52,1100.22 2085.29,1109.63 2104.05,1119.01 2122.82,1128.36 2141.58,1137.66 2160.35,1146.91 2179.11,1156.11 2197.88,1165.24 2216.65,1174.3 2235.41,1183.29 2254.18,1192.19 2272.94,1201.02 2291.71,1209.75 2310.48,1218.4 2329.24,1226.96 2348.01,1235.42 2366.77,1243.78 2385.54,1252.04 2404.31,1260.2 2423.07,1268.25 2441.84,1276.2 2460.6,1284.04 2479.37,1291.77 2498.14,1299.4 2516.9,1306.91 2535.67,1314.31 2554.43,1321.6 2573.2,1328.77 "/>
<polyline clip-path="url(#clip351)" style="stroke:#000000; stroke-linecap:round; stroke-linejoin:round; stroke-width:8; stroke-opacity:1; fill:none" points="321.29,1580.41 340.056,1578.25 358.822,1567.42 377.588,1550.1 396.354,1532.79 415.12,1517.63 433.886,1519.8 452.652,1515.47 471.417,1506.81 490.183,1491.65 508.949,1482.99 527.715,1474.33 546.481,1467.84 565.247,1448.36 584.013,1437.53 602.779,1424.54 621.545,1400.73 640.311,1389.9 659.077,1381.25 677.842,1370.42 696.608,1370.42 715.374,1363.93 734.14,1337.95 752.906,1333.62 771.672,1320.63 790.438,1305.48 809.204,1288.16 827.97,1275.17 846.736,1275.17 865.501,1264.34 884.267,1238.36 903.033,1234.03 921.799,1223.21 940.565,1223.21 959.331,1216.72 978.097,1208.06 996.863,1199.4 1015.63,1188.57 1034.39,1190.74 1053.16,1184.24 1071.93,1182.08 1090.69,1158.26 1109.46,1149.61 1128.22,1143.11 1146.99,1134.45 1165.76,1138.78 1184.52,1134.45 1203.29,1123.63 1222.05,1121.46 1240.82,1117.13 1259.59,1123.63 1278.35,1125.79 1297.12,1121.46 1315.88,1130.12 1334.65,1134.45 1353.41,1130.12 1372.18,1136.62 1390.95,1134.45 1409.71,1138.78 1428.48,1153.93 1447.24,1153.93 1466.01,1147.44 1484.78,1153.93 1503.54,1166.92 1522.31,1175.58 1541.07,1177.75 1559.84,1186.41 1578.61,1184.24 1597.37,1188.57 1616.14,1192.9 1634.9,1199.4 1653.67,1203.73 1672.44,1208.06 1691.2,1212.39 1709.97,1218.88 1728.73,1227.54 1747.5,1231.87 1766.26,1236.2 1785.03,1234.03 1803.8,1249.19 1822.56,1266.51 1841.33,1275.17 1860.09,1279.5 1878.86,1279.5 1897.63,1285.99 1916.39,1298.98 1935.16,1309.8 1953.92,1320.63 1972.69,1318.46 1991.46,1335.78 2010.22,1335.78 2028.99,1329.29 2047.75,1333.62 2066.52,1348.77 2085.29,1355.27 2104.05,1361.76 2122.82,1376.92 2141.58,1383.41 2160.35,1383.41 2179.11,1385.57 2197.88,1389.9 2216.65,1396.4 2235.41,1398.56 2254.18,1402.89 2272.94,1409.39 2291.71,1411.55 2310.48,1420.21 2329.24,1422.38 2348.01,1433.2 2366.77,1437.53 2385.54,1435.37 2404.31,1441.86 2423.07,1450.52 2441.84,1452.69 2460.6,1465.67 2479.37,1470 2498.14,1472.17 2516.9,1472.17 2535.67,1480.83 2554.43,1478.66 2573.2,1482.99 "/>
<path clip-path="url(#clip351)" d="M321.29 1580.41 L340.056 1688.65 L358.822 1688.65 L377.588 1688.65 L396.354 1688.65 L415.12 1688.65 L433.886 1688.65 L452.652 1688.65 L471.417 1688.65 L490.183 1688.65 L508.949 1688.65 L527.715 1688.65 L546.481 1688.65 L565.247 1688.65 L584.013 1688.65 L602.779 1688.65 L621.545 1688.65 L640.311 1688.65 L659.077 1688.65 L677.842 1688.65 L696.608 1688.65 L715.374 1688.65 L734.14 1688.65 L752.906 1688.65 L771.672 1688.65 L790.438 1688.65 L809.204 1688.65 L827.97 1688.65 L846.736 1688.65 L865.501 1688.65 L884.267 1688.65 L903.033 1688.65 L921.799 1688.65 L940.565 1688.65 L959.331 1688.65 L978.097 1688.65 L996.863 1688.65 L1015.63 1688.65 L1034.39 1688.65 L1053.16 1688.65 L1071.93 1688.65 L1090.69 1688.65 L1109.46 1688.65 L1128.22 1688.65 L1146.99 1688.65 L1165.76 1688.65 L1184.52 1688.65 L1203.29 1688.65 L1222.05 1688.65 L1240.82 1688.65 L1259.59 1688.65 L1278.35 1688.65 L1297.12 1688.65 L1315.88 1688.65 L1334.65 1688.65 L1353.41 1688.65 L1372.18 1688.65 L1390.95 1688.65 L1409.71 1688.65 L1428.48 1688.65 L1447.24 1688.65 L1466.01 1688.65 L1484.78 1688.65 L1503.54 1688.65 L1522.31 1688.65 L1541.07 1688.65 L1559.84 1688.65 L1578.61 1688.65 L1597.37 1688.65 L1616.14 1688.65 L1634.9 1688.65 L1653.67 1688.65 L1672.44 1688.65 L1691.2 1688.65 L1709.97 1688.65 L1728.73 1688.65 L1747.5 1688.65 L1766.26 1688.65 L1785.03 1688.65 L1803.8 1688.65 L1822.56 1688.65 L1841.33 1688.65 L1860.09 1688.65 L1878.86 1688.65 L1897.63 1688.65 L1916.39 1688.65 L1935.16 1688.65 L1953.92 1688.65 L1972.69 1688.65 L1991.46 1688.65 L2010.22 1688.65 L2028.99 1688.65 L2047.75 1688.65 L2066.52 1688.65 L2085.29 1688.65 L2104.05 1688.65 L2122.82 1688.65 L2141.58 1688.65 L2160.35 1688.65 L2179.11 1688.65 L2197.88 1688.65 L2216.65 1688.65 L2235.41 1688.65 L2254.18 1688.65 L2272.94 1688.65 L2291.71 1688.65 L2310.48 1688.65 L2329.24 1688.65 L2348.01 1688.65 L2366.77 1688.65 L2385.54 1688.65 L2404.31 1688.65 L2423.07 1688.65 L2441.84 1688.65 L2460.6 1688.65 L2479.37 1688.65 L2498.14 1688.65 L2516.9 1688.65 L2535.67 1688.65 L2554.43 1688.65 L2573.2 1688.65 L2573.2 1147.44 L2554.43 1039.2 L2535.67 1039.2 L2516.9 1039.2 L2498.14 1039.2 L2479.37 1039.2 L2460.6 1039.2 L2441.84 1039.2 L2423.07 1039.2 L2404.31 930.955 L2385.54 1039.2 L2366.77 1039.2 L2348.01 1039.2 L2329.24 930.955 L2310.48 822.712 L2291.71 822.712 L2272.94 822.712 L2254.18 822.712 L2235.41 822.712 L2216.65 822.712 L2197.88 822.712 L2179.11 822.712 L2160.35 822.712 L2141.58 822.712 L2122.82 822.712 L2104.05 714.469 L2085.29 822.712 L2066.52 822.712 L2047.75 822.712 L2028.99 822.712 L2010.22 822.712 L1991.46 822.712 L1972.69 822.712 L1953.92 822.712 L1935.16 822.712 L1916.39 714.469 L1897.63 714.469 L1878.86 714.469 L1860.09 714.469 L1841.33 714.469 L1822.56 714.469 L1803.8 606.226 L1785.03 606.226 L1766.26 606.226 L1747.5 606.226 L1728.73 497.983 L1709.97 497.983 L1691.2 497.983 L1672.44 497.983 L1653.67 497.983 L1634.9 389.74 L1616.14 389.74 L1597.37 389.74 L1578.61 389.74 L1559.84 389.74 L1541.07 281.497 L1522.31 281.497 L1503.54 281.497 L1484.78 281.497 L1466.01 281.497 L1447.24 281.497 L1428.48 389.74 L1409.71 281.497 L1390.95 281.497 L1372.18 389.74 L1353.41 389.74 L1334.65 389.74 L1315.88 281.497 L1297.12 281.497 L1278.35 281.497 L1259.59 173.254 L1240.82 173.254 L1222.05 173.254 L1203.29 173.254 L1184.52 281.497 L1165.76 389.74 L1146.99 389.74 L1128.22 389.74 L1109.46 389.74 L1090.69 389.74 L1071.93 389.74 L1053.16 389.74 L1034.39 389.74 L1015.63 281.497 L996.863 389.74 L978.097 389.74 L959.331 389.74 L940.565 281.497 L921.799 281.497 L903.033 281.497 L884.267 173.254 L865.501 281.497 L846.736 281.497 L827.97 389.74 L809.204 389.74 L790.438 389.74 L771.672 497.983 L752.906 606.226 L734.14 606.226 L715.374 714.469 L696.608 606.226 L677.842 714.469 L659.077 714.469 L640.311 714.469 L621.545 714.469 L602.779 822.712 L584.013 822.712 L565.247 822.712 L546.481 930.955 L527.715 1039.2 L508.949 1039.2 L490.183 1039.2 L471.417 1039.2 L452.652 1147.44 L433.886 1147.44 L415.12 1255.68 L396.354 1363.93 L377.588 1363.93 L358.822 1472.17 L340.056 1472.17 L321.29 1580.41  Z" fill="#808080" fill-rule="evenodd" fill-opacity="0.2"/>
<polyline clip-path="url(#clip351)" style="stroke:#808080; stroke-linecap:round; stroke-linejoin:round; stroke-width:4; stroke-opacity:1; fill:none" points="321.29,1580.41 340.056,1578.25 358.822,1567.42 377.588,1550.1 396.354,1532.79 415.12,1517.63 433.886,1519.8 452.652,1515.47 471.417,1506.81 490.183,1491.65 508.949,1482.99 527.715,1474.33 546.481,1467.84 565.247,1448.36 584.013,1437.53 602.779,1424.54 621.545,1400.73 640.311,1389.9 659.077,1381.25 677.842,1370.42 696.608,1370.42 715.374,1363.93 734.14,1337.95 752.906,1333.62 771.672,1320.63 790.438,1305.48 809.204,1288.16 827.97,1275.17 846.736,1275.17 865.501,1264.34 884.267,1238.36 903.033,1234.03 921.799,1223.21 940.565,1223.21 959.331,1216.72 978.097,1208.06 996.863,1199.4 1015.63,1188.57 1034.39,1190.74 1053.16,1184.24 1071.93,1182.08 1090.69,1158.26 1109.46,1149.61 1128.22,1143.11 1146.99,1134.45 1165.76,1138.78 1184.52,1134.45 1203.29,1123.63 1222.05,1121.46 1240.82,1117.13 1259.59,1123.63 1278.35,1125.79 1297.12,1121.46 1315.88,1130.12 1334.65,1134.45 1353.41,1130.12 1372.18,1136.62 1390.95,1134.45 1409.71,1138.78 1428.48,1153.93 1447.24,1153.93 1466.01,1147.44 1484.78,1153.93 1503.54,1166.92 1522.31,1175.58 1541.07,1177.75 1559.84,1186.41 1578.61,1184.24 1597.37,1188.57 1616.14,1192.9 1634.9,1199.4 1653.67,1203.73 1672.44,1208.06 1691.2,1212.39 1709.97,1218.88 1728.73,1227.54 1747.5,1231.87 1766.26,1236.2 1785.03,1234.03 1803.8,1249.19 1822.56,1266.51 1841.33,1275.17 1860.09,1279.5 1878.86,1279.5 1897.63,1285.99 1916.39,1298.98 1935.16,1309.8 1953.92,1320.63 1972.69,1318.46 1991.46,1335.78 2010.22,1335.78 2028.99,1329.29 2047.75,1333.62 2066.52,1348.77 2085.29,1355.27 2104.05,1361.76 2122.82,1376.92 2141.58,1383.41 2160.35,1383.41 2179.11,1385.57 2197.88,1389.9 2216.65,1396.4 2235.41,1398.56 2254.18,1402.89 2272.94,1409.39 2291.71,1411.55 2310.48,1420.21 2329.24,1422.38 2348.01,1433.2 2366.77,1437.53 2385.54,1435.37 2404.31,1441.86 2423.07,1450.52 2441.84,1452.69 2460.6,1465.67 2479.37,1470 2498.14,1472.17 2516.9,1472.17 2535.67,1480.83 2554.43,1478.66 2573.2,1482.99 "/>
<path clip-path="url(#clip350)" d="M1795.01 388.696 L2561.19 388.696 L2561.19 181.336 L1795.01 181.336  Z" fill="#ffffff" fill-rule="evenodd" fill-opacity="1"/>
<polyline clip-path="url(#clip350)" style="stroke:#000000; stroke-linecap:round; stroke-linejoin:round; stroke-width:4; stroke-opacity:1; fill:none" points="1795.01,388.696 2561.19,388.696 2561.19,181.336 1795.01,181.336 1795.01,388.696 "/>
<polyline clip-path="url(#clip350)" style="stroke:#8b0000; stroke-linecap:round; stroke-linejoin:round; stroke-width:8; stroke-opacity:1; fill:none" points="1821.53,233.176 1980.67,233.176 "/>
<path clip-path="url(#clip350)" d="M2011.87 219.739 L2011.87 232.725 L2017.75 232.725 Q2021.01 232.725 2022.79 231.035 Q2024.58 229.345 2024.58 226.22 Q2024.58 223.118 2022.79 221.429 Q2021.01 219.739 2017.75 219.739 L2011.87 219.739 M2007.19 215.896 L2017.75 215.896 Q2023.56 215.896 2026.52 218.535 Q2029.51 221.151 2029.51 226.22 Q2029.51 231.336 2026.52 233.952 Q2023.56 236.567 2017.75 236.567 L2011.87 236.567 L2011.87 250.456 L2007.19 250.456 L2007.19 215.896 Z" fill="#000000" fill-rule="nonzero" fill-opacity="1" /><path clip-path="url(#clip350)" d="M2045.25 237.424 Q2040.09 237.424 2038.09 238.604 Q2036.1 239.785 2036.1 242.632 Q2036.1 244.901 2037.59 246.243 Q2039.09 247.563 2041.66 247.563 Q2045.2 247.563 2047.33 245.063 Q2049.48 242.54 2049.48 238.373 L2049.48 237.424 L2045.25 237.424 M2053.74 235.665 L2053.74 250.456 L2049.48 250.456 L2049.48 246.521 Q2048.03 248.882 2045.85 250.016 Q2043.67 251.128 2040.53 251.128 Q2036.54 251.128 2034.18 248.905 Q2031.84 246.66 2031.84 242.91 Q2031.84 238.535 2034.76 236.313 Q2037.7 234.091 2043.51 234.091 L2049.48 234.091 L2049.48 233.674 Q2049.48 230.734 2047.54 229.137 Q2045.62 227.517 2042.12 227.517 Q2039.9 227.517 2037.79 228.049 Q2035.69 228.581 2033.74 229.646 L2033.74 225.711 Q2036.08 224.808 2038.28 224.368 Q2040.48 223.906 2042.56 223.906 Q2048.19 223.906 2050.96 226.822 Q2053.74 229.739 2053.74 235.665 Z" fill="#000000" fill-rule="nonzero" fill-opacity="1" /><path clip-path="url(#clip350)" d="M2062.52 224.531 L2066.77 224.531 L2066.77 250.456 L2062.52 250.456 L2062.52 224.531 M2062.52 214.438 L2066.77 214.438 L2066.77 219.831 L2062.52 219.831 L2062.52 214.438 Z" fill="#000000" fill-rule="nonzero" fill-opacity="1" /><path clip-path="url(#clip350)" d="M2090.71 228.512 Q2089.99 228.095 2089.14 227.91 Q2088.3 227.702 2087.28 227.702 Q2083.67 227.702 2081.73 230.063 Q2079.81 232.401 2079.81 236.799 L2079.81 250.456 L2075.52 250.456 L2075.52 224.531 L2079.81 224.531 L2079.81 228.558 Q2081.15 226.197 2083.3 225.063 Q2085.46 223.906 2088.53 223.906 Q2088.97 223.906 2089.51 223.975 Q2090.04 224.021 2090.69 224.137 L2090.71 228.512 Z" fill="#000000" fill-rule="nonzero" fill-opacity="1" /><path clip-path="url(#clip350)" d="M2089.99 235.572 L2102.47 235.572 L2102.47 239.368 L2089.99 239.368 L2089.99 235.572 Z" fill="#000000" fill-rule="nonzero" fill-opacity="1" /><path clip-path="url(#clip350)" d="M2127.86 237.517 Q2127.86 232.817 2125.92 230.155 Q2124 227.47 2120.62 227.47 Q2117.24 227.47 2115.29 230.155 Q2113.37 232.817 2113.37 237.517 Q2113.37 242.216 2115.29 244.901 Q2117.24 247.563 2120.62 247.563 Q2124 247.563 2125.92 244.901 Q2127.86 242.216 2127.86 237.517 M2113.37 228.466 Q2114.71 226.151 2116.75 225.04 Q2118.81 223.906 2121.66 223.906 Q2126.38 223.906 2129.32 227.655 Q2132.28 231.405 2132.28 237.517 Q2132.28 243.628 2129.32 247.378 Q2126.38 251.128 2121.66 251.128 Q2118.81 251.128 2116.75 250.016 Q2114.71 248.882 2113.37 246.567 L2113.37 250.456 L2109.09 250.456 L2109.09 214.438 L2113.37 214.438 L2113.37 228.466 Z" fill="#000000" fill-rule="nonzero" fill-opacity="1" /><path clip-path="url(#clip350)" d="M2151.13 237.424 Q2145.96 237.424 2143.97 238.604 Q2141.98 239.785 2141.98 242.632 Q2141.98 244.901 2143.46 246.243 Q2144.97 247.563 2147.54 247.563 Q2151.08 247.563 2153.21 245.063 Q2155.36 242.54 2155.36 238.373 L2155.36 237.424 L2151.13 237.424 M2159.62 235.665 L2159.62 250.456 L2155.36 250.456 L2155.36 246.521 Q2153.9 248.882 2151.73 250.016 Q2149.55 251.128 2146.4 251.128 Q2142.42 251.128 2140.06 248.905 Q2137.72 246.66 2137.72 242.91 Q2137.72 238.535 2140.64 236.313 Q2143.58 234.091 2149.39 234.091 L2155.36 234.091 L2155.36 233.674 Q2155.36 230.734 2153.42 229.137 Q2151.5 227.517 2148 227.517 Q2145.78 227.517 2143.67 228.049 Q2141.57 228.581 2139.62 229.646 L2139.62 225.711 Q2141.96 224.808 2144.16 224.368 Q2146.36 223.906 2148.44 223.906 Q2154.07 223.906 2156.84 226.822 Q2159.62 229.739 2159.62 235.665 Z" fill="#000000" fill-rule="nonzero" fill-opacity="1" /><path clip-path="url(#clip350)" d="M2184.92 225.294 L2184.92 229.322 Q2183.12 228.396 2181.17 227.933 Q2179.23 227.47 2177.14 227.47 Q2173.97 227.47 2172.38 228.443 Q2170.8 229.415 2170.8 231.359 Q2170.8 232.841 2171.94 233.697 Q2173.07 234.53 2176.5 235.294 L2177.95 235.618 Q2182.49 236.591 2184.39 238.373 Q2186.31 240.132 2186.31 243.304 Q2186.31 246.915 2183.44 249.021 Q2180.59 251.128 2175.59 251.128 Q2173.51 251.128 2171.24 250.711 Q2169 250.317 2166.5 249.507 L2166.5 245.109 Q2168.86 246.336 2171.15 246.961 Q2173.44 247.563 2175.69 247.563 Q2178.7 247.563 2180.32 246.544 Q2181.94 245.503 2181.94 243.628 Q2181.94 241.892 2180.76 240.966 Q2179.6 240.04 2175.64 239.183 L2174.16 238.836 Q2170.2 238.003 2168.44 236.29 Q2166.68 234.554 2166.68 231.544 Q2166.68 227.887 2169.27 225.896 Q2171.87 223.906 2176.64 223.906 Q2179 223.906 2181.08 224.253 Q2183.16 224.6 2184.92 225.294 Z" fill="#000000" fill-rule="nonzero" fill-opacity="1" /><path clip-path="url(#clip350)" d="M2215.27 236.429 L2215.27 238.512 L2195.69 238.512 Q2195.96 242.91 2198.33 245.225 Q2200.71 247.516 2204.95 247.516 Q2207.4 247.516 2209.69 246.915 Q2212.01 246.313 2214.27 245.109 L2214.27 249.137 Q2211.98 250.109 2209.58 250.618 Q2207.17 251.128 2204.69 251.128 Q2198.49 251.128 2194.85 247.516 Q2191.24 243.905 2191.24 237.748 Q2191.24 231.382 2194.67 227.655 Q2198.12 223.906 2203.95 223.906 Q2209.18 223.906 2212.21 227.285 Q2215.27 230.642 2215.27 236.429 M2211.01 235.179 Q2210.96 231.683 2209.04 229.6 Q2207.14 227.517 2204 227.517 Q2200.43 227.517 2198.28 229.53 Q2196.15 231.544 2195.83 235.202 L2211.01 235.179 Z" fill="#000000" fill-rule="nonzero" fill-opacity="1" /><path clip-path="url(#clip350)" d="M2239.32 228.466 L2239.32 214.438 L2243.58 214.438 L2243.58 250.456 L2239.32 250.456 L2239.32 246.567 Q2237.98 248.882 2235.92 250.016 Q2233.88 251.128 2231.01 251.128 Q2226.31 251.128 2223.35 247.378 Q2220.41 243.628 2220.41 237.517 Q2220.41 231.405 2223.35 227.655 Q2226.31 223.906 2231.01 223.906 Q2233.88 223.906 2235.92 225.04 Q2237.98 226.151 2239.32 228.466 M2224.81 237.517 Q2224.81 242.216 2226.73 244.901 Q2228.67 247.563 2232.05 247.563 Q2235.43 247.563 2237.38 244.901 Q2239.32 242.216 2239.32 237.517 Q2239.32 232.817 2237.38 230.155 Q2235.43 227.47 2232.05 227.47 Q2228.67 227.47 2226.73 230.155 Q2224.81 232.817 2224.81 237.517 Z" fill="#000000" fill-rule="nonzero" fill-opacity="1" /><polyline clip-path="url(#clip350)" style="stroke:#000000; stroke-linecap:round; stroke-linejoin:round; stroke-width:8; stroke-opacity:1; fill:none" points="1821.53,285.016 1980.67,285.016 "/>
<path clip-path="url(#clip350)" d="M2032.75 297.366 L2032.75 288.083 L2025.11 288.083 L2025.11 284.241 L2037.38 284.241 L2037.38 299.079 Q2034.67 301 2031.4 301.995 Q2028.14 302.968 2024.44 302.968 Q2016.34 302.968 2011.75 298.245 Q2007.19 293.5 2007.19 285.051 Q2007.19 276.579 2011.75 271.857 Q2016.34 267.111 2024.44 267.111 Q2027.82 267.111 2030.85 267.945 Q2033.9 268.778 2036.47 270.398 L2036.47 275.375 Q2033.88 273.176 2030.96 272.065 Q2028.05 270.954 2024.83 270.954 Q2018.49 270.954 2015.29 274.496 Q2012.12 278.037 2012.12 285.051 Q2012.12 292.042 2015.29 295.583 Q2018.49 299.125 2024.83 299.125 Q2027.31 299.125 2029.25 298.708 Q2031.2 298.269 2032.75 297.366 Z" fill="#000000" fill-rule="nonzero" fill-opacity="1" /><path clip-path="url(#clip350)" d="M2045.73 276.371 L2049.99 276.371 L2049.99 302.296 L2045.73 302.296 L2045.73 276.371 M2045.73 266.278 L2049.99 266.278 L2049.99 271.671 L2045.73 271.671 L2045.73 266.278 Z" fill="#000000" fill-rule="nonzero" fill-opacity="1" /><path clip-path="url(#clip350)" d="M2058.9 266.278 L2063.16 266.278 L2063.16 302.296 L2058.9 302.296 L2058.9 266.278 Z" fill="#000000" fill-rule="nonzero" fill-opacity="1" /><path clip-path="url(#clip350)" d="M2072.08 266.278 L2076.34 266.278 L2076.34 302.296 L2072.08 302.296 L2072.08 266.278 Z" fill="#000000" fill-rule="nonzero" fill-opacity="1" /><path clip-path="url(#clip350)" d="M2107.42 288.269 L2107.42 290.352 L2087.84 290.352 Q2088.12 294.75 2090.48 297.065 Q2092.86 299.356 2097.1 299.356 Q2099.55 299.356 2101.84 298.755 Q2104.16 298.153 2106.43 296.949 L2106.43 300.977 Q2104.14 301.949 2101.73 302.458 Q2099.32 302.968 2096.84 302.968 Q2090.64 302.968 2087.01 299.356 Q2083.4 295.745 2083.4 289.588 Q2083.4 283.222 2086.82 279.495 Q2090.27 275.746 2096.1 275.746 Q2101.33 275.746 2104.37 279.125 Q2107.42 282.482 2107.42 288.269 M2103.16 287.019 Q2103.12 283.523 2101.2 281.44 Q2099.3 279.357 2096.15 279.357 Q2092.59 279.357 2090.43 281.37 Q2088.3 283.384 2087.98 287.042 L2103.16 287.019 Z" fill="#000000" fill-rule="nonzero" fill-opacity="1" /><path clip-path="url(#clip350)" d="M2130.94 277.134 L2130.94 281.162 Q2129.14 280.236 2127.19 279.773 Q2125.25 279.31 2123.16 279.31 Q2119.99 279.31 2118.4 280.283 Q2116.82 281.255 2116.82 283.199 Q2116.82 284.681 2117.96 285.537 Q2119.09 286.37 2122.52 287.134 L2123.97 287.458 Q2128.51 288.431 2130.41 290.213 Q2132.33 291.972 2132.33 295.144 Q2132.33 298.755 2129.46 300.861 Q2126.61 302.968 2121.61 302.968 Q2119.53 302.968 2117.26 302.551 Q2115.02 302.157 2112.52 301.347 L2112.52 296.949 Q2114.88 298.176 2117.17 298.801 Q2119.46 299.403 2121.71 299.403 Q2124.71 299.403 2126.33 298.384 Q2127.96 297.343 2127.96 295.468 Q2127.96 293.732 2126.77 292.806 Q2125.62 291.88 2121.66 291.023 L2120.18 290.676 Q2116.22 289.843 2114.46 288.13 Q2112.7 286.394 2112.7 283.384 Q2112.7 279.727 2115.29 277.736 Q2117.89 275.746 2122.65 275.746 Q2125.02 275.746 2127.1 276.093 Q2129.18 276.44 2130.94 277.134 Z" fill="#000000" fill-rule="nonzero" fill-opacity="1" /><path clip-path="url(#clip350)" d="M2143.23 298.407 L2143.23 312.157 L2138.95 312.157 L2138.95 276.371 L2143.23 276.371 L2143.23 280.306 Q2144.58 277.991 2146.61 276.88 Q2148.67 275.746 2151.52 275.746 Q2156.24 275.746 2159.18 279.495 Q2162.14 283.245 2162.14 289.357 Q2162.14 295.468 2159.18 299.218 Q2156.24 302.968 2151.52 302.968 Q2148.67 302.968 2146.61 301.856 Q2144.58 300.722 2143.23 298.407 M2157.72 289.357 Q2157.72 284.657 2155.78 281.995 Q2153.86 279.31 2150.48 279.31 Q2147.1 279.31 2145.15 281.995 Q2143.23 284.657 2143.23 289.357 Q2143.23 294.056 2145.15 296.741 Q2147.1 299.403 2150.48 299.403 Q2153.86 299.403 2155.78 296.741 Q2157.72 294.056 2157.72 289.357 Z" fill="#000000" fill-rule="nonzero" fill-opacity="1" /><path clip-path="url(#clip350)" d="M2169.2 276.371 L2173.46 276.371 L2173.46 302.296 L2169.2 302.296 L2169.2 276.371 M2169.2 266.278 L2173.46 266.278 L2173.46 271.671 L2169.2 271.671 L2169.2 266.278 Z" fill="#000000" fill-rule="nonzero" fill-opacity="1" /><path clip-path="url(#clip350)" d="M2204.55 288.269 L2204.55 290.352 L2184.97 290.352 Q2185.25 294.75 2187.61 297.065 Q2189.99 299.356 2194.23 299.356 Q2196.68 299.356 2198.97 298.755 Q2201.29 298.153 2203.56 296.949 L2203.56 300.977 Q2201.27 301.949 2198.86 302.458 Q2196.45 302.968 2193.97 302.968 Q2187.77 302.968 2184.14 299.356 Q2180.52 295.745 2180.52 289.588 Q2180.52 283.222 2183.95 279.495 Q2187.4 275.746 2193.23 275.746 Q2198.46 275.746 2201.5 279.125 Q2204.55 282.482 2204.55 288.269 M2200.29 287.019 Q2200.25 283.523 2198.33 281.44 Q2196.43 279.357 2193.28 279.357 Q2189.71 279.357 2187.56 281.37 Q2185.43 283.384 2185.11 287.042 L2200.29 287.019 Z" fill="#000000" fill-rule="nonzero" fill-opacity="1" /><path clip-path="url(#clip350)" d="M2246.8 281.347 Q2248.39 278.477 2250.62 277.111 Q2252.84 275.746 2255.85 275.746 Q2259.9 275.746 2262.1 278.593 Q2264.3 281.417 2264.3 286.648 L2264.3 302.296 L2260.01 302.296 L2260.01 286.787 Q2260.01 283.06 2258.7 281.255 Q2257.38 279.449 2254.67 279.449 Q2251.36 279.449 2249.44 281.648 Q2247.51 283.847 2247.51 287.644 L2247.51 302.296 L2243.23 302.296 L2243.23 286.787 Q2243.23 283.037 2241.91 281.255 Q2240.59 279.449 2237.84 279.449 Q2234.58 279.449 2232.65 281.671 Q2230.73 283.87 2230.73 287.644 L2230.73 302.296 L2226.45 302.296 L2226.45 276.371 L2230.73 276.371 L2230.73 280.398 Q2232.19 278.014 2234.23 276.88 Q2236.26 275.746 2239.07 275.746 Q2241.89 275.746 2243.86 277.181 Q2245.85 278.616 2246.8 281.347 Z" fill="#000000" fill-rule="nonzero" fill-opacity="1" /><path clip-path="url(#clip350)" d="M2294.97 288.269 L2294.97 290.352 L2275.38 290.352 Q2275.66 294.75 2278.02 297.065 Q2280.41 299.356 2284.64 299.356 Q2287.1 299.356 2289.39 298.755 Q2291.7 298.153 2293.97 296.949 L2293.97 300.977 Q2291.68 301.949 2289.27 302.458 Q2286.87 302.968 2284.39 302.968 Q2278.19 302.968 2274.55 299.356 Q2270.94 295.745 2270.94 289.588 Q2270.94 283.222 2274.37 279.495 Q2277.82 275.746 2283.65 275.746 Q2288.88 275.746 2291.91 279.125 Q2294.97 282.482 2294.97 288.269 M2290.71 287.019 Q2290.66 283.523 2288.74 281.44 Q2286.84 279.357 2283.7 279.357 Q2280.13 279.357 2277.98 281.37 Q2275.85 283.384 2275.52 287.042 L2290.71 287.019 Z" fill="#000000" fill-rule="nonzero" fill-opacity="1" /><path clip-path="url(#clip350)" d="M2313.74 289.264 Q2308.58 289.264 2306.59 290.444 Q2304.6 291.625 2304.6 294.472 Q2304.6 296.741 2306.08 298.083 Q2307.58 299.403 2310.15 299.403 Q2313.69 299.403 2315.82 296.903 Q2317.98 294.38 2317.98 290.213 L2317.98 289.264 L2313.74 289.264 M2322.24 287.505 L2322.24 302.296 L2317.98 302.296 L2317.98 298.361 Q2316.52 300.722 2314.34 301.856 Q2312.17 302.968 2309.02 302.968 Q2305.04 302.968 2302.68 300.745 Q2300.34 298.5 2300.34 294.75 Q2300.34 290.375 2303.26 288.153 Q2306.2 285.931 2312.01 285.931 L2317.98 285.931 L2317.98 285.514 Q2317.98 282.574 2316.03 280.977 Q2314.11 279.357 2310.62 279.357 Q2308.39 279.357 2306.29 279.889 Q2304.18 280.421 2302.24 281.486 L2302.24 277.551 Q2304.57 276.648 2306.77 276.208 Q2308.97 275.746 2311.06 275.746 Q2316.68 275.746 2319.46 278.662 Q2322.24 281.579 2322.24 287.505 Z" fill="#000000" fill-rule="nonzero" fill-opacity="1" /><path clip-path="url(#clip350)" d="M2352.56 286.648 L2352.56 302.296 L2348.3 302.296 L2348.3 286.787 Q2348.3 283.107 2346.87 281.278 Q2345.43 279.449 2342.56 279.449 Q2339.11 279.449 2337.12 281.648 Q2335.13 283.847 2335.13 287.644 L2335.13 302.296 L2330.85 302.296 L2330.85 276.371 L2335.13 276.371 L2335.13 280.398 Q2336.66 278.06 2338.72 276.903 Q2340.8 275.746 2343.51 275.746 Q2347.98 275.746 2350.27 278.523 Q2352.56 281.278 2352.56 286.648 Z" fill="#000000" fill-rule="nonzero" fill-opacity="1" /><path clip-path="url(#clip350)" d="M2386.36 266.324 Q2383.25 271.648 2381.75 276.857 Q2380.25 282.065 2380.25 287.412 Q2380.25 292.759 2381.75 298.014 Q2383.28 303.245 2386.36 308.546 L2382.65 308.546 Q2379.18 303.106 2377.44 297.852 Q2375.73 292.597 2375.73 287.412 Q2375.73 282.25 2377.44 277.019 Q2379.16 271.787 2382.65 266.324 L2386.36 266.324 Z" fill="#000000" fill-rule="nonzero" fill-opacity="1" /><path clip-path="url(#clip350)" d="M2416.17 286.648 L2416.17 302.296 L2411.91 302.296 L2411.91 286.787 Q2411.91 283.107 2410.48 281.278 Q2409.04 279.449 2406.17 279.449 Q2402.72 279.449 2400.73 281.648 Q2398.74 283.847 2398.74 287.644 L2398.74 302.296 L2394.46 302.296 L2394.46 276.371 L2398.74 276.371 L2398.74 280.398 Q2400.27 278.06 2402.33 276.903 Q2404.41 275.746 2407.12 275.746 Q2411.59 275.746 2413.88 278.523 Q2416.17 281.278 2416.17 286.648 Z" fill="#000000" fill-rule="nonzero" fill-opacity="1" /><path clip-path="url(#clip350)" d="M2425.22 280.769 L2454.9 280.769 L2454.9 284.657 L2425.22 284.657 L2425.22 280.769 M2425.22 290.213 L2454.9 290.213 L2454.9 294.148 L2425.22 294.148 L2425.22 290.213 Z" fill="#000000" fill-rule="nonzero" fill-opacity="1" /><path clip-path="url(#clip350)" d="M2465.04 267.736 L2483.39 267.736 L2483.39 271.671 L2469.32 271.671 L2469.32 280.144 Q2470.34 279.796 2471.36 279.634 Q2472.37 279.449 2473.39 279.449 Q2479.18 279.449 2482.56 282.62 Q2485.94 285.792 2485.94 291.208 Q2485.94 296.787 2482.47 299.889 Q2479 302.968 2472.68 302.968 Q2470.5 302.968 2468.23 302.597 Q2465.99 302.227 2463.58 301.486 L2463.58 296.787 Q2465.66 297.921 2467.88 298.477 Q2470.11 299.032 2472.58 299.032 Q2476.59 299.032 2478.93 296.926 Q2481.26 294.819 2481.26 291.208 Q2481.26 287.597 2478.93 285.491 Q2476.59 283.384 2472.58 283.384 Q2470.71 283.384 2468.83 283.801 Q2466.98 284.218 2465.04 285.097 L2465.04 267.736 Z" fill="#000000" fill-rule="nonzero" fill-opacity="1" /><path clip-path="url(#clip350)" d="M2505.15 270.815 Q2501.54 270.815 2499.71 274.38 Q2497.91 277.921 2497.91 285.051 Q2497.91 292.157 2499.71 295.722 Q2501.54 299.264 2505.15 299.264 Q2508.79 299.264 2510.59 295.722 Q2512.42 292.157 2512.42 285.051 Q2512.42 277.921 2510.59 274.38 Q2508.79 270.815 2505.15 270.815 M2505.15 267.111 Q2510.96 267.111 2514.02 271.718 Q2517.1 276.301 2517.1 285.051 Q2517.1 293.778 2514.02 298.384 Q2510.96 302.968 2505.15 302.968 Q2499.34 302.968 2496.26 298.384 Q2493.21 293.778 2493.21 285.051 Q2493.21 276.301 2496.26 271.718 Q2499.34 267.111 2505.15 267.111 Z" fill="#000000" fill-rule="nonzero" fill-opacity="1" /><path clip-path="url(#clip350)" d="M2524.04 266.324 L2527.74 266.324 Q2531.22 271.787 2532.93 277.019 Q2534.67 282.25 2534.67 287.412 Q2534.67 292.597 2532.93 297.852 Q2531.22 303.106 2527.74 308.546 L2524.04 308.546 Q2527.12 303.245 2528.62 298.014 Q2530.15 292.759 2530.15 287.412 Q2530.15 282.065 2528.62 276.857 Q2527.12 271.648 2524.04 266.324 Z" fill="#000000" fill-rule="nonzero" fill-opacity="1" /><polyline clip-path="url(#clip350)" style="stroke:#808080; stroke-linecap:round; stroke-linejoin:round; stroke-width:4; stroke-opacity:1; fill:none" points="1821.53,336.856 1980.67,336.856 "/>
<path clip-path="url(#clip350)" d="M2032.75 349.206 L2032.75 339.923 L2025.11 339.923 L2025.11 336.081 L2037.38 336.081 L2037.38 350.919 Q2034.67 352.84 2031.4 353.835 Q2028.14 354.808 2024.44 354.808 Q2016.34 354.808 2011.75 350.085 Q2007.19 345.34 2007.19 336.891 Q2007.19 328.419 2011.75 323.697 Q2016.34 318.951 2024.44 318.951 Q2027.82 318.951 2030.85 319.785 Q2033.9 320.618 2036.47 322.238 L2036.47 327.215 Q2033.88 325.016 2030.96 323.905 Q2028.05 322.794 2024.83 322.794 Q2018.49 322.794 2015.29 326.336 Q2012.12 329.877 2012.12 336.891 Q2012.12 343.882 2015.29 347.423 Q2018.49 350.965 2024.83 350.965 Q2027.31 350.965 2029.25 350.548 Q2031.2 350.109 2032.75 349.206 Z" fill="#000000" fill-rule="nonzero" fill-opacity="1" /><path clip-path="url(#clip350)" d="M2045.73 328.211 L2049.99 328.211 L2049.99 354.136 L2045.73 354.136 L2045.73 328.211 M2045.73 318.118 L2049.99 318.118 L2049.99 323.511 L2045.73 323.511 L2045.73 318.118 Z" fill="#000000" fill-rule="nonzero" fill-opacity="1" /><path clip-path="url(#clip350)" d="M2058.9 318.118 L2063.16 318.118 L2063.16 354.136 L2058.9 354.136 L2058.9 318.118 Z" fill="#000000" fill-rule="nonzero" fill-opacity="1" /><path clip-path="url(#clip350)" d="M2072.08 318.118 L2076.34 318.118 L2076.34 354.136 L2072.08 354.136 L2072.08 318.118 Z" fill="#000000" fill-rule="nonzero" fill-opacity="1" /><path clip-path="url(#clip350)" d="M2107.42 340.109 L2107.42 342.192 L2087.84 342.192 Q2088.12 346.59 2090.48 348.905 Q2092.86 351.196 2097.1 351.196 Q2099.55 351.196 2101.84 350.595 Q2104.16 349.993 2106.43 348.789 L2106.43 352.817 Q2104.14 353.789 2101.73 354.298 Q2099.32 354.808 2096.84 354.808 Q2090.64 354.808 2087.01 351.196 Q2083.4 347.585 2083.4 341.428 Q2083.4 335.062 2086.82 331.335 Q2090.27 327.586 2096.1 327.586 Q2101.33 327.586 2104.37 330.965 Q2107.42 334.322 2107.42 340.109 M2103.16 338.859 Q2103.12 335.363 2101.2 333.28 Q2099.3 331.197 2096.15 331.197 Q2092.59 331.197 2090.43 333.21 Q2088.3 335.224 2087.98 338.882 L2103.16 338.859 Z" fill="#000000" fill-rule="nonzero" fill-opacity="1" /><path clip-path="url(#clip350)" d="M2130.94 328.974 L2130.94 333.002 Q2129.14 332.076 2127.19 331.613 Q2125.25 331.15 2123.16 331.15 Q2119.99 331.15 2118.4 332.123 Q2116.82 333.095 2116.82 335.039 Q2116.82 336.521 2117.96 337.377 Q2119.09 338.21 2122.52 338.974 L2123.97 339.298 Q2128.51 340.271 2130.41 342.053 Q2132.33 343.812 2132.33 346.984 Q2132.33 350.595 2129.46 352.701 Q2126.61 354.808 2121.61 354.808 Q2119.53 354.808 2117.26 354.391 Q2115.02 353.997 2112.52 353.187 L2112.52 348.789 Q2114.88 350.016 2117.17 350.641 Q2119.46 351.243 2121.71 351.243 Q2124.71 351.243 2126.33 350.224 Q2127.96 349.183 2127.96 347.308 Q2127.96 345.572 2126.77 344.646 Q2125.62 343.72 2121.66 342.863 L2120.18 342.516 Q2116.22 341.683 2114.46 339.97 Q2112.7 338.234 2112.7 335.224 Q2112.7 331.567 2115.29 329.576 Q2117.89 327.586 2122.65 327.586 Q2125.02 327.586 2127.1 327.933 Q2129.18 328.28 2130.94 328.974 Z" fill="#000000" fill-rule="nonzero" fill-opacity="1" /><path clip-path="url(#clip350)" d="M2143.23 350.247 L2143.23 363.997 L2138.95 363.997 L2138.95 328.211 L2143.23 328.211 L2143.23 332.146 Q2144.58 329.831 2146.61 328.72 Q2148.67 327.586 2151.52 327.586 Q2156.24 327.586 2159.18 331.335 Q2162.14 335.085 2162.14 341.197 Q2162.14 347.308 2159.18 351.058 Q2156.24 354.808 2151.52 354.808 Q2148.67 354.808 2146.61 353.696 Q2144.58 352.562 2143.23 350.247 M2157.72 341.197 Q2157.72 336.497 2155.78 333.835 Q2153.86 331.15 2150.48 331.15 Q2147.1 331.15 2145.15 333.835 Q2143.23 336.497 2143.23 341.197 Q2143.23 345.896 2145.15 348.581 Q2147.1 351.243 2150.48 351.243 Q2153.86 351.243 2155.78 348.581 Q2157.72 345.896 2157.72 341.197 Z" fill="#000000" fill-rule="nonzero" fill-opacity="1" /><path clip-path="url(#clip350)" d="M2169.2 328.211 L2173.46 328.211 L2173.46 354.136 L2169.2 354.136 L2169.2 328.211 M2169.2 318.118 L2173.46 318.118 L2173.46 323.511 L2169.2 323.511 L2169.2 318.118 Z" fill="#000000" fill-rule="nonzero" fill-opacity="1" /><path clip-path="url(#clip350)" d="M2204.55 340.109 L2204.55 342.192 L2184.97 342.192 Q2185.25 346.59 2187.61 348.905 Q2189.99 351.196 2194.23 351.196 Q2196.68 351.196 2198.97 350.595 Q2201.29 349.993 2203.56 348.789 L2203.56 352.817 Q2201.27 353.789 2198.86 354.298 Q2196.45 354.808 2193.97 354.808 Q2187.77 354.808 2184.14 351.196 Q2180.52 347.585 2180.52 341.428 Q2180.52 335.062 2183.95 331.335 Q2187.4 327.586 2193.23 327.586 Q2198.46 327.586 2201.5 330.965 Q2204.55 334.322 2204.55 340.109 M2200.29 338.859 Q2200.25 335.363 2198.33 333.28 Q2196.43 331.197 2193.28 331.197 Q2189.71 331.197 2187.56 333.21 Q2185.43 335.224 2185.11 338.882 L2200.29 338.859 Z" fill="#000000" fill-rule="nonzero" fill-opacity="1" /><path clip-path="url(#clip350)" d="M2227.35 353.419 L2227.35 349.159 Q2229.11 349.993 2230.92 350.433 Q2232.72 350.872 2234.46 350.872 Q2239.09 350.872 2241.52 347.771 Q2243.97 344.646 2244.32 338.303 Q2242.98 340.294 2240.92 341.359 Q2238.86 342.423 2236.36 342.423 Q2231.17 342.423 2228.14 339.298 Q2225.13 336.15 2225.13 330.71 Q2225.13 325.386 2228.28 322.169 Q2231.43 318.951 2236.66 318.951 Q2242.65 318.951 2245.8 323.558 Q2248.97 328.141 2248.97 336.891 Q2248.97 345.062 2245.08 349.946 Q2241.22 354.808 2234.67 354.808 Q2232.91 354.808 2231.1 354.46 Q2229.3 354.113 2227.35 353.419 M2236.66 338.766 Q2239.81 338.766 2241.64 336.613 Q2243.49 334.46 2243.49 330.71 Q2243.49 326.984 2241.64 324.831 Q2239.81 322.655 2236.66 322.655 Q2233.51 322.655 2231.66 324.831 Q2229.83 326.984 2229.83 330.71 Q2229.83 334.46 2231.66 336.613 Q2233.51 338.766 2236.66 338.766 Z" fill="#000000" fill-rule="nonzero" fill-opacity="1" /><path clip-path="url(#clip350)" d="M2267.38 322.655 Q2263.76 322.655 2261.94 326.22 Q2260.13 329.761 2260.13 336.891 Q2260.13 343.997 2261.94 347.562 Q2263.76 351.104 2267.38 351.104 Q2271.01 351.104 2272.82 347.562 Q2274.64 343.997 2274.64 336.891 Q2274.64 329.761 2272.82 326.22 Q2271.01 322.655 2267.38 322.655 M2267.38 318.951 Q2273.19 318.951 2276.24 323.558 Q2279.32 328.141 2279.32 336.891 Q2279.32 345.618 2276.24 350.224 Q2273.19 354.808 2267.38 354.808 Q2261.57 354.808 2258.49 350.224 Q2255.43 345.618 2255.43 336.891 Q2255.43 328.141 2258.49 323.558 Q2261.57 318.951 2267.38 318.951 Z" fill="#000000" fill-rule="nonzero" fill-opacity="1" /><path clip-path="url(#clip350)" d="M2316.94 338.928 Q2314.92 338.928 2313.76 340.641 Q2312.63 342.354 2312.63 345.409 Q2312.63 348.419 2313.76 350.155 Q2314.92 351.868 2316.94 351.868 Q2318.9 351.868 2320.04 350.155 Q2321.19 348.419 2321.19 345.409 Q2321.19 342.377 2320.04 340.664 Q2318.9 338.928 2316.94 338.928 M2316.94 335.988 Q2320.59 335.988 2322.75 338.535 Q2324.9 341.081 2324.9 345.409 Q2324.9 349.738 2322.72 352.284 Q2320.57 354.808 2316.94 354.808 Q2313.23 354.808 2311.08 352.284 Q2308.93 349.738 2308.93 345.409 Q2308.93 341.058 2311.08 338.535 Q2313.26 335.988 2316.94 335.988 M2293.05 321.891 Q2291.06 321.891 2289.9 323.627 Q2288.76 325.34 2288.76 328.349 Q2288.76 331.405 2289.9 333.118 Q2291.03 334.831 2293.05 334.831 Q2295.06 334.831 2296.2 333.118 Q2297.35 331.405 2297.35 328.349 Q2297.35 325.363 2296.2 323.627 Q2295.04 321.891 2293.05 321.891 M2313.95 318.951 L2317.65 318.951 L2296.03 354.808 L2292.33 354.808 L2313.95 318.951 M2293.05 318.951 Q2296.7 318.951 2298.88 321.498 Q2301.06 324.021 2301.06 328.349 Q2301.06 332.724 2298.88 335.248 Q2296.73 337.771 2293.05 337.771 Q2289.37 337.771 2287.21 335.248 Q2285.08 332.701 2285.08 328.349 Q2285.08 324.044 2287.24 321.498 Q2289.39 318.951 2293.05 318.951 Z" fill="#000000" fill-rule="nonzero" fill-opacity="1" /><path clip-path="url(#clip350)" d="M2373.12 322.238 L2373.12 327.169 Q2370.75 324.97 2368.07 323.882 Q2365.41 322.794 2362.4 322.794 Q2356.47 322.794 2353.32 326.428 Q2350.18 330.039 2350.18 336.891 Q2350.18 343.72 2353.32 347.354 Q2356.47 350.965 2362.4 350.965 Q2365.41 350.965 2368.07 349.877 Q2370.75 348.789 2373.12 346.59 L2373.12 351.474 Q2370.66 353.141 2367.91 353.974 Q2365.18 354.808 2362.12 354.808 Q2354.27 354.808 2349.76 350.016 Q2345.25 345.201 2345.25 336.891 Q2345.25 328.558 2349.76 323.766 Q2354.27 318.951 2362.12 318.951 Q2365.22 318.951 2367.95 319.785 Q2370.71 320.595 2373.12 322.238 Z" fill="#000000" fill-rule="nonzero" fill-opacity="1" /><path clip-path="url(#clip350)" d="M2380.34 319.576 L2385.01 319.576 L2385.01 354.136 L2380.34 354.136 L2380.34 319.576 Z" fill="#000000" fill-rule="nonzero" fill-opacity="1" /></svg>
