<?xml version="1.0" encoding="utf-8"?>
<svg xmlns="http://www.w3.org/2000/svg" xmlns:xlink="http://www.w3.org/1999/xlink" width="672" height="480" viewBox="0 0 2688 1920">
<defs>
  <clipPath id="clip710">
    <rect x="0" y="0" width="2688" height="1920"/>
  </clipPath>
</defs>
<path clip-path="url(#clip710)" d="M0 1920 L2688 1920 L2688 -4.26326e-14 L0 -4.26326e-14  Z" fill="#ffffff" fill-rule="evenodd" fill-opacity="1"/>
<defs>
  <clipPath id="clip711">
    <rect x="208" y="127" width="2433" height="1607"/>
  </clipPath>
</defs>
<path clip-path="url(#clip710)" d="M208.502 1734.12 L2640.76 1734.12 L2640.76 127.792 L208.502 127.792  Z" fill="#ffffff" fill-rule="evenodd" fill-opacity="1"/>
<polyline clip-path="url(#clip711)" style="stroke:#000000; stroke-linecap:round; stroke-linejoin:round; stroke-width:2; stroke-opacity:0.1; fill:none" points="277.339,1734.12 277.339,127.792 "/>
<polyline clip-path="url(#clip711)" style="stroke:#000000; stroke-linecap:round; stroke-linejoin:round; stroke-width:2; stroke-opacity:0.1; fill:none" points="659.769,1734.12 659.769,127.792 "/>
<polyline clip-path="url(#clip711)" style="stroke:#000000; stroke-linecap:round; stroke-linejoin:round; stroke-width:2; stroke-opacity:0.1; fill:none" points="1042.2,1734.12 1042.2,127.792 "/>
<polyline clip-path="url(#clip711)" style="stroke:#000000; stroke-linecap:round; stroke-linejoin:round; stroke-width:2; stroke-opacity:0.1; fill:none" points="1424.63,1734.12 1424.63,127.792 "/>
<polyline clip-path="url(#clip711)" style="stroke:#000000; stroke-linecap:round; stroke-linejoin:round; stroke-width:2; stroke-opacity:0.1; fill:none" points="1807.06,1734.12 1807.06,127.792 "/>
<polyline clip-path="url(#clip711)" style="stroke:#000000; stroke-linecap:round; stroke-linejoin:round; stroke-width:2; stroke-opacity:0.1; fill:none" points="2189.49,1734.12 2189.49,127.792 "/>
<polyline clip-path="url(#clip711)" style="stroke:#000000; stroke-linecap:round; stroke-linejoin:round; stroke-width:2; stroke-opacity:0.1; fill:none" points="2571.92,1734.12 2571.92,127.792 "/>
<polyline clip-path="url(#clip711)" style="stroke:#000000; stroke-linecap:round; stroke-linejoin:round; stroke-width:2; stroke-opacity:0.1; fill:none" points="208.502,1700.12 2640.76,1700.12 "/>
<polyline clip-path="url(#clip711)" style="stroke:#000000; stroke-linecap:round; stroke-linejoin:round; stroke-width:2; stroke-opacity:0.1; fill:none" points="208.502,1280.44 2640.76,1280.44 "/>
<polyline clip-path="url(#clip711)" style="stroke:#000000; stroke-linecap:round; stroke-linejoin:round; stroke-width:2; stroke-opacity:0.1; fill:none" points="208.502,860.763 2640.76,860.763 "/>
<polyline clip-path="url(#clip711)" style="stroke:#000000; stroke-linecap:round; stroke-linejoin:round; stroke-width:2; stroke-opacity:0.1; fill:none" points="208.502,441.086 2640.76,441.086 "/>
<polyline clip-path="url(#clip710)" style="stroke:#000000; stroke-linecap:round; stroke-linejoin:round; stroke-width:4; stroke-opacity:1; fill:none" points="208.502,1734.12 2640.76,1734.12 "/>
<polyline clip-path="url(#clip710)" style="stroke:#000000; stroke-linecap:round; stroke-linejoin:round; stroke-width:4; stroke-opacity:1; fill:none" points="277.339,1734.12 277.339,1715.22 "/>
<polyline clip-path="url(#clip710)" style="stroke:#000000; stroke-linecap:round; stroke-linejoin:round; stroke-width:4; stroke-opacity:1; fill:none" points="659.769,1734.12 659.769,1715.22 "/>
<polyline clip-path="url(#clip710)" style="stroke:#000000; stroke-linecap:round; stroke-linejoin:round; stroke-width:4; stroke-opacity:1; fill:none" points="1042.2,1734.12 1042.2,1715.22 "/>
<polyline clip-path="url(#clip710)" style="stroke:#000000; stroke-linecap:round; stroke-linejoin:round; stroke-width:4; stroke-opacity:1; fill:none" points="1424.63,1734.12 1424.63,1715.22 "/>
<polyline clip-path="url(#clip710)" style="stroke:#000000; stroke-linecap:round; stroke-linejoin:round; stroke-width:4; stroke-opacity:1; fill:none" points="1807.06,1734.12 1807.06,1715.22 "/>
<polyline clip-path="url(#clip710)" style="stroke:#000000; stroke-linecap:round; stroke-linejoin:round; stroke-width:4; stroke-opacity:1; fill:none" points="2189.49,1734.12 2189.49,1715.22 "/>
<polyline clip-path="url(#clip710)" style="stroke:#000000; stroke-linecap:round; stroke-linejoin:round; stroke-width:4; stroke-opacity:1; fill:none" points="2571.92,1734.12 2571.92,1715.22 "/>
<path clip-path="url(#clip710)" d="M277.339 1767.34 Q273.728 1767.34 271.899 1770.9 Q270.094 1774.45 270.094 1781.58 Q270.094 1788.68 271.899 1792.25 Q273.728 1795.79 277.339 1795.79 Q280.973 1795.79 282.779 1792.25 Q284.608 1788.68 284.608 1781.58 Q284.608 1774.45 282.779 1770.9 Q280.973 1767.34 277.339 1767.34 M277.339 1763.64 Q283.149 1763.64 286.205 1768.24 Q289.284 1772.83 289.284 1781.58 Q289.284 1790.3 286.205 1794.91 Q283.149 1799.49 277.339 1799.49 Q271.529 1799.49 268.45 1794.91 Q265.395 1790.3 265.395 1781.58 Q265.395 1772.83 268.45 1768.24 Q271.529 1763.64 277.339 1763.64 Z" fill="#000000" fill-rule="nonzero" fill-opacity="1" /><path clip-path="url(#clip710)" d="M634.457 1794.89 L642.096 1794.89 L642.096 1768.52 L633.785 1770.19 L633.785 1765.93 L642.049 1764.26 L646.725 1764.26 L646.725 1794.89 L654.364 1794.89 L654.364 1798.82 L634.457 1798.82 L634.457 1794.89 Z" fill="#000000" fill-rule="nonzero" fill-opacity="1" /><path clip-path="url(#clip710)" d="M673.808 1767.34 Q670.197 1767.34 668.369 1770.9 Q666.563 1774.45 666.563 1781.58 Q666.563 1788.68 668.369 1792.25 Q670.197 1795.79 673.808 1795.79 Q677.443 1795.79 679.248 1792.25 Q681.077 1788.68 681.077 1781.58 Q681.077 1774.45 679.248 1770.9 Q677.443 1767.34 673.808 1767.34 M673.808 1763.64 Q679.618 1763.64 682.674 1768.24 Q685.753 1772.83 685.753 1781.58 Q685.753 1790.3 682.674 1794.91 Q679.618 1799.49 673.808 1799.49 Q667.998 1799.49 664.919 1794.91 Q661.864 1790.3 661.864 1781.58 Q661.864 1772.83 664.919 1768.24 Q667.998 1763.64 673.808 1763.64 Z" fill="#000000" fill-rule="nonzero" fill-opacity="1" /><path clip-path="url(#clip710)" d="M1020.97 1794.89 L1037.29 1794.89 L1037.29 1798.82 L1015.35 1798.82 L1015.35 1794.89 Q1018.01 1792.13 1022.59 1787.5 Q1027.2 1782.85 1028.38 1781.51 Q1030.62 1778.98 1031.5 1777.25 Q1032.41 1775.49 1032.41 1773.8 Q1032.41 1771.04 1030.46 1769.31 Q1028.54 1767.57 1025.44 1767.57 Q1023.24 1767.57 1020.79 1768.34 Q1018.36 1769.1 1015.58 1770.65 L1015.58 1765.93 Q1018.4 1764.79 1020.86 1764.21 Q1023.31 1763.64 1025.35 1763.64 Q1030.72 1763.64 1033.91 1766.32 Q1037.11 1769.01 1037.11 1773.5 Q1037.11 1775.63 1036.3 1777.55 Q1035.51 1779.45 1033.4 1782.04 Q1032.82 1782.71 1029.72 1785.93 Q1026.62 1789.12 1020.97 1794.89 Z" fill="#000000" fill-rule="nonzero" fill-opacity="1" /><path clip-path="url(#clip710)" d="M1057.11 1767.34 Q1053.5 1767.34 1051.67 1770.9 Q1049.86 1774.45 1049.86 1781.58 Q1049.86 1788.68 1051.67 1792.25 Q1053.5 1795.79 1057.11 1795.79 Q1060.74 1795.79 1062.55 1792.25 Q1064.37 1788.68 1064.37 1781.58 Q1064.37 1774.45 1062.55 1770.9 Q1060.74 1767.34 1057.11 1767.34 M1057.11 1763.64 Q1062.92 1763.64 1065.97 1768.24 Q1069.05 1772.83 1069.05 1781.58 Q1069.05 1790.3 1065.97 1794.91 Q1062.92 1799.49 1057.11 1799.49 Q1051.3 1799.49 1048.22 1794.91 Q1045.16 1790.3 1045.16 1781.58 Q1045.16 1772.83 1048.22 1768.24 Q1051.3 1763.64 1057.11 1763.64 Z" fill="#000000" fill-rule="nonzero" fill-opacity="1" /><path clip-path="url(#clip710)" d="M1413.47 1780.19 Q1416.83 1780.9 1418.7 1783.17 Q1420.6 1785.44 1420.6 1788.77 Q1420.6 1793.89 1417.08 1796.69 Q1413.56 1799.49 1407.08 1799.49 Q1404.91 1799.49 1402.59 1799.05 Q1400.3 1798.64 1397.85 1797.78 L1397.85 1793.27 Q1399.79 1794.4 1402.11 1794.98 Q1404.42 1795.56 1406.94 1795.56 Q1411.34 1795.56 1413.63 1793.82 Q1415.95 1792.08 1415.95 1788.77 Q1415.95 1785.72 1413.8 1784.01 Q1411.67 1782.27 1407.85 1782.27 L1403.82 1782.27 L1403.82 1778.43 L1408.03 1778.43 Q1411.48 1778.43 1413.31 1777.06 Q1415.14 1775.67 1415.14 1773.08 Q1415.14 1770.42 1413.24 1769.01 Q1411.37 1767.57 1407.85 1767.57 Q1405.93 1767.57 1403.73 1767.99 Q1401.53 1768.4 1398.89 1769.28 L1398.89 1765.12 Q1401.55 1764.38 1403.87 1764.01 Q1406.2 1763.64 1408.26 1763.64 Q1413.59 1763.64 1416.69 1766.07 Q1419.79 1768.47 1419.79 1772.59 Q1419.79 1775.46 1418.15 1777.46 Q1416.5 1779.42 1413.47 1780.19 Z" fill="#000000" fill-rule="nonzero" fill-opacity="1" /><path clip-path="url(#clip710)" d="M1439.47 1767.34 Q1435.86 1767.34 1434.03 1770.9 Q1432.22 1774.45 1432.22 1781.58 Q1432.22 1788.68 1434.03 1792.25 Q1435.86 1795.79 1439.47 1795.79 Q1443.1 1795.79 1444.91 1792.25 Q1446.74 1788.68 1446.74 1781.58 Q1446.74 1774.45 1444.91 1770.9 Q1443.1 1767.34 1439.47 1767.34 M1439.47 1763.64 Q1445.28 1763.64 1448.33 1768.24 Q1451.41 1772.83 1451.41 1781.58 Q1451.41 1790.3 1448.33 1794.91 Q1445.28 1799.49 1439.47 1799.49 Q1433.66 1799.49 1430.58 1794.91 Q1427.52 1790.3 1427.52 1781.58 Q1427.52 1772.83 1430.58 1768.24 Q1433.66 1763.64 1439.47 1763.64 Z" fill="#000000" fill-rule="nonzero" fill-opacity="1" /><path clip-path="url(#clip710)" d="M1795.23 1768.34 L1783.42 1786.78 L1795.23 1786.78 L1795.23 1768.34 M1794 1764.26 L1799.88 1764.26 L1799.88 1786.78 L1804.81 1786.78 L1804.81 1790.67 L1799.88 1790.67 L1799.88 1798.82 L1795.23 1798.82 L1795.23 1790.67 L1779.63 1790.67 L1779.63 1786.16 L1794 1764.26 Z" fill="#000000" fill-rule="nonzero" fill-opacity="1" /><path clip-path="url(#clip710)" d="M1822.54 1767.34 Q1818.93 1767.34 1817.1 1770.9 Q1815.3 1774.45 1815.3 1781.58 Q1815.3 1788.68 1817.1 1792.25 Q1818.93 1795.79 1822.54 1795.79 Q1826.18 1795.79 1827.98 1792.25 Q1829.81 1788.68 1829.81 1781.58 Q1829.81 1774.45 1827.98 1770.9 Q1826.18 1767.34 1822.54 1767.34 M1822.54 1763.64 Q1828.35 1763.64 1831.41 1768.24 Q1834.49 1772.83 1834.49 1781.58 Q1834.49 1790.3 1831.41 1794.91 Q1828.35 1799.49 1822.54 1799.49 Q1816.73 1799.49 1813.66 1794.91 Q1810.6 1790.3 1810.6 1781.58 Q1810.6 1772.83 1813.66 1768.24 Q1816.73 1763.64 1822.54 1763.64 Z" fill="#000000" fill-rule="nonzero" fill-opacity="1" /><path clip-path="url(#clip710)" d="M2164.19 1764.26 L2182.54 1764.26 L2182.54 1768.2 L2168.47 1768.2 L2168.47 1776.67 Q2169.49 1776.32 2170.51 1776.16 Q2171.53 1775.97 2172.54 1775.97 Q2178.33 1775.97 2181.71 1779.15 Q2185.09 1782.32 2185.09 1787.73 Q2185.09 1793.31 2181.62 1796.41 Q2178.15 1799.49 2171.83 1799.49 Q2169.65 1799.49 2167.38 1799.12 Q2165.14 1798.75 2162.73 1798.01 L2162.73 1793.31 Q2164.81 1794.45 2167.04 1795 Q2169.26 1795.56 2171.73 1795.56 Q2175.74 1795.56 2178.08 1793.45 Q2180.41 1791.34 2180.41 1787.73 Q2180.41 1784.12 2178.08 1782.02 Q2175.74 1779.91 2171.73 1779.91 Q2169.86 1779.91 2167.98 1780.33 Q2166.13 1780.74 2164.19 1781.62 L2164.19 1764.26 Z" fill="#000000" fill-rule="nonzero" fill-opacity="1" /><path clip-path="url(#clip710)" d="M2204.3 1767.34 Q2200.69 1767.34 2198.86 1770.9 Q2197.06 1774.45 2197.06 1781.58 Q2197.06 1788.68 2198.86 1792.25 Q2200.69 1795.79 2204.3 1795.79 Q2207.94 1795.79 2209.74 1792.25 Q2211.57 1788.68 2211.57 1781.58 Q2211.57 1774.45 2209.74 1770.9 Q2207.94 1767.34 2204.3 1767.34 M2204.3 1763.64 Q2210.11 1763.64 2213.17 1768.24 Q2216.25 1772.83 2216.25 1781.58 Q2216.25 1790.3 2213.17 1794.91 Q2210.11 1799.49 2204.3 1799.49 Q2198.49 1799.49 2195.41 1794.91 Q2192.36 1790.3 2192.36 1781.58 Q2192.36 1772.83 2195.41 1768.24 Q2198.49 1763.64 2204.3 1763.64 Z" fill="#000000" fill-rule="nonzero" fill-opacity="1" /><path clip-path="url(#clip710)" d="M2557.32 1779.68 Q2554.18 1779.68 2552.32 1781.83 Q2550.5 1783.98 2550.5 1787.73 Q2550.5 1791.46 2552.32 1793.64 Q2554.18 1795.79 2557.32 1795.79 Q2560.47 1795.79 2562.3 1793.64 Q2564.15 1791.46 2564.15 1787.73 Q2564.15 1783.98 2562.3 1781.83 Q2560.47 1779.68 2557.32 1779.68 M2566.61 1765.02 L2566.61 1769.28 Q2564.85 1768.45 2563.04 1768.01 Q2561.26 1767.57 2559.5 1767.57 Q2554.87 1767.57 2552.42 1770.7 Q2549.99 1773.82 2549.64 1780.14 Q2551 1778.13 2553.06 1777.06 Q2555.12 1775.97 2557.6 1775.97 Q2562.81 1775.97 2565.82 1779.15 Q2568.85 1782.29 2568.85 1787.73 Q2568.85 1793.06 2565.7 1796.27 Q2562.56 1799.49 2557.32 1799.49 Q2551.33 1799.49 2548.16 1794.91 Q2544.99 1790.3 2544.99 1781.58 Q2544.99 1773.38 2548.87 1768.52 Q2552.76 1763.64 2559.31 1763.64 Q2561.07 1763.64 2562.86 1763.98 Q2564.66 1764.33 2566.61 1765.02 Z" fill="#000000" fill-rule="nonzero" fill-opacity="1" /><path clip-path="url(#clip710)" d="M2586.91 1767.34 Q2583.3 1767.34 2581.47 1770.9 Q2579.66 1774.45 2579.66 1781.58 Q2579.66 1788.68 2581.47 1792.25 Q2583.3 1795.79 2586.91 1795.79 Q2590.54 1795.79 2592.35 1792.25 Q2594.18 1788.68 2594.18 1781.58 Q2594.18 1774.45 2592.35 1770.9 Q2590.54 1767.34 2586.91 1767.34 M2586.91 1763.64 Q2592.72 1763.64 2595.77 1768.24 Q2598.85 1772.83 2598.85 1781.58 Q2598.85 1790.3 2595.77 1794.91 Q2592.72 1799.49 2586.91 1799.49 Q2581.1 1799.49 2578.02 1794.91 Q2574.96 1790.3 2574.96 1781.58 Q2574.96 1772.83 2578.02 1768.24 Q2581.1 1763.64 2586.91 1763.64 Z" fill="#000000" fill-rule="nonzero" fill-opacity="1" /><path clip-path="url(#clip710)" d="M1346.51 1835.78 L1386.71 1835.78 L1386.71 1841.19 L1369.84 1841.19 L1369.84 1883.3 L1363.37 1883.3 L1363.37 1841.19 L1346.51 1841.19 L1346.51 1835.78 Z" fill="#000000" fill-rule="nonzero" fill-opacity="1" /><path clip-path="url(#clip710)" d="M1390.65 1847.65 L1396.51 1847.65 L1396.51 1883.3 L1390.65 1883.3 L1390.65 1847.65 M1390.65 1833.78 L1396.51 1833.78 L1396.51 1841.19 L1390.65 1841.19 L1390.65 1833.78 Z" fill="#000000" fill-rule="nonzero" fill-opacity="1" /><path clip-path="url(#clip710)" d="M1436.52 1854.5 Q1438.71 1850.55 1441.77 1848.67 Q1444.82 1846.79 1448.96 1846.79 Q1454.53 1846.79 1457.56 1850.71 Q1460.58 1854.59 1460.58 1861.78 L1460.58 1883.3 L1454.69 1883.3 L1454.69 1861.98 Q1454.69 1856.85 1452.88 1854.37 Q1451.06 1851.89 1447.34 1851.89 Q1442.79 1851.89 1440.15 1854.91 Q1437.5 1857.93 1437.5 1863.15 L1437.5 1883.3 L1431.62 1883.3 L1431.62 1861.98 Q1431.62 1856.82 1429.8 1854.37 Q1427.99 1851.89 1424.2 1851.89 Q1419.71 1851.89 1417.07 1854.94 Q1414.43 1857.97 1414.43 1863.15 L1414.43 1883.3 L1408.54 1883.3 L1408.54 1847.65 L1414.43 1847.65 L1414.43 1853.19 Q1416.43 1849.91 1419.23 1848.35 Q1422.03 1846.79 1425.89 1846.79 Q1429.77 1846.79 1432.47 1848.77 Q1435.21 1850.74 1436.52 1854.5 Z" fill="#000000" fill-rule="nonzero" fill-opacity="1" /><path clip-path="url(#clip710)" d="M1502.75 1864.01 L1502.75 1866.88 L1475.83 1866.88 Q1476.21 1872.92 1479.45 1876.11 Q1482.73 1879.26 1488.56 1879.26 Q1491.93 1879.26 1495.08 1878.43 Q1498.26 1877.6 1501.38 1875.95 L1501.38 1881.49 Q1498.23 1882.82 1494.92 1883.52 Q1491.61 1884.22 1488.21 1884.22 Q1479.68 1884.22 1474.68 1879.26 Q1469.71 1874.29 1469.71 1865.83 Q1469.71 1857.07 1474.42 1851.95 Q1479.17 1846.79 1487.19 1846.79 Q1494.38 1846.79 1498.55 1851.44 Q1502.75 1856.06 1502.75 1864.01 M1496.9 1862.29 Q1496.83 1857.49 1494.19 1854.62 Q1491.58 1851.76 1487.25 1851.76 Q1482.35 1851.76 1479.39 1854.53 Q1476.46 1857.3 1476.02 1862.33 L1496.9 1862.29 Z" fill="#000000" fill-rule="nonzero" fill-opacity="1" /><polyline clip-path="url(#clip710)" style="stroke:#000000; stroke-linecap:round; stroke-linejoin:round; stroke-width:4; stroke-opacity:1; fill:none" points="208.502,1734.12 208.502,127.792 "/>
<polyline clip-path="url(#clip710)" style="stroke:#000000; stroke-linecap:round; stroke-linejoin:round; stroke-width:4; stroke-opacity:1; fill:none" points="208.502,1700.12 227.399,1700.12 "/>
<polyline clip-path="url(#clip710)" style="stroke:#000000; stroke-linecap:round; stroke-linejoin:round; stroke-width:4; stroke-opacity:1; fill:none" points="208.502,1280.44 227.399,1280.44 "/>
<polyline clip-path="url(#clip710)" style="stroke:#000000; stroke-linecap:round; stroke-linejoin:round; stroke-width:4; stroke-opacity:1; fill:none" points="208.502,860.763 227.399,860.763 "/>
<polyline clip-path="url(#clip710)" style="stroke:#000000; stroke-linecap:round; stroke-linejoin:round; stroke-width:4; stroke-opacity:1; fill:none" points="208.502,441.086 227.399,441.086 "/>
<path clip-path="url(#clip710)" d="M156.237 1685.92 Q152.626 1685.92 150.798 1689.48 Q148.992 1693.02 148.992 1700.15 Q148.992 1707.26 150.798 1710.82 Q152.626 1714.36 156.237 1714.36 Q159.872 1714.36 161.677 1710.82 Q163.506 1707.26 163.506 1700.15 Q163.506 1693.02 161.677 1689.48 Q159.872 1685.92 156.237 1685.92 M156.237 1682.21 Q162.048 1682.21 165.103 1686.82 Q168.182 1691.4 168.182 1700.15 Q168.182 1708.88 165.103 1713.48 Q162.048 1718.07 156.237 1718.07 Q150.427 1718.07 147.349 1713.48 Q144.293 1708.88 144.293 1700.15 Q144.293 1691.4 147.349 1686.82 Q150.427 1682.21 156.237 1682.21 Z" fill="#000000" fill-rule="nonzero" fill-opacity="1" /><path clip-path="url(#clip710)" d="M147.279 1263.16 L165.635 1263.16 L165.635 1267.09 L151.561 1267.09 L151.561 1275.57 Q152.58 1275.22 153.599 1275.06 Q154.617 1274.87 155.636 1274.87 Q161.423 1274.87 164.802 1278.04 Q168.182 1281.22 168.182 1286.63 Q168.182 1292.21 164.71 1295.31 Q161.237 1298.39 154.918 1298.39 Q152.742 1298.39 150.474 1298.02 Q148.228 1297.65 145.821 1296.91 L145.821 1292.21 Q147.904 1293.34 150.126 1293.9 Q152.349 1294.46 154.825 1294.46 Q158.83 1294.46 161.168 1292.35 Q163.506 1290.24 163.506 1286.63 Q163.506 1283.02 161.168 1280.91 Q158.83 1278.81 154.825 1278.81 Q152.95 1278.81 151.075 1279.22 Q149.224 1279.64 147.279 1280.52 L147.279 1263.16 Z" fill="#000000" fill-rule="nonzero" fill-opacity="1" /><path clip-path="url(#clip710)" d="M116.886 874.107 L124.525 874.107 L124.525 847.742 L116.214 849.409 L116.214 845.149 L124.478 843.483 L129.154 843.483 L129.154 874.107 L136.793 874.107 L136.793 878.043 L116.886 878.043 L116.886 874.107 Z" fill="#000000" fill-rule="nonzero" fill-opacity="1" /><path clip-path="url(#clip710)" d="M156.237 846.561 Q152.626 846.561 150.798 850.126 Q148.992 853.668 148.992 860.797 Q148.992 867.904 150.798 871.469 Q152.626 875.01 156.237 875.01 Q159.872 875.01 161.677 871.469 Q163.506 867.904 163.506 860.797 Q163.506 853.668 161.677 850.126 Q159.872 846.561 156.237 846.561 M156.237 842.858 Q162.048 842.858 165.103 847.464 Q168.182 852.047 168.182 860.797 Q168.182 869.524 165.103 874.131 Q162.048 878.714 156.237 878.714 Q150.427 878.714 147.349 874.131 Q144.293 869.524 144.293 860.797 Q144.293 852.047 147.349 847.464 Q150.427 842.858 156.237 842.858 Z" fill="#000000" fill-rule="nonzero" fill-opacity="1" /><path clip-path="url(#clip710)" d="M117.881 454.43 L125.52 454.43 L125.52 428.065 L117.21 429.732 L117.21 425.472 L125.474 423.806 L130.15 423.806 L130.15 454.43 L137.788 454.43 L137.788 458.366 L117.881 458.366 L117.881 454.43 Z" fill="#000000" fill-rule="nonzero" fill-opacity="1" /><path clip-path="url(#clip710)" d="M147.279 423.806 L165.635 423.806 L165.635 427.741 L151.561 427.741 L151.561 436.213 Q152.58 435.866 153.599 435.704 Q154.617 435.519 155.636 435.519 Q161.423 435.519 164.802 438.69 Q168.182 441.861 168.182 447.278 Q168.182 452.856 164.71 455.958 Q161.237 459.037 154.918 459.037 Q152.742 459.037 150.474 458.667 Q148.228 458.296 145.821 457.555 L145.821 452.856 Q147.904 453.991 150.126 454.546 Q152.349 455.102 154.825 455.102 Q158.83 455.102 161.168 452.995 Q163.506 450.889 163.506 447.278 Q163.506 443.667 161.168 441.56 Q158.83 439.454 154.825 439.454 Q152.95 439.454 151.075 439.87 Q149.224 440.287 147.279 441.167 L147.279 423.806 Z" fill="#000000" fill-rule="nonzero" fill-opacity="1" /><path clip-path="url(#clip710)" d="M14.1184 1198.76 L14.1184 1190.1 L53.8723 1169.03 L14.1184 1169.03 L14.1184 1162.79 L61.6384 1162.79 L61.6384 1171.45 L21.8846 1192.52 L61.6384 1192.52 L61.6384 1198.76 L14.1184 1198.76 Z" fill="#000000" fill-rule="nonzero" fill-opacity="1" /><path clip-path="url(#clip710)" d="M47.5702 1150.86 L25.9905 1150.86 L25.9905 1145 L47.3474 1145 Q52.4082 1145 54.9545 1143.03 Q57.4689 1141.05 57.4689 1137.11 Q57.4689 1132.37 54.4452 1129.63 Q51.4215 1126.86 46.2016 1126.86 L25.9905 1126.86 L25.9905 1121 L61.6384 1121 L61.6384 1126.86 L56.1639 1126.86 Q59.4104 1128.99 61.0019 1131.82 Q62.5615 1134.63 62.5615 1138.35 Q62.5615 1144.49 58.742 1147.68 Q54.9226 1150.86 47.5702 1150.86 M25.1311 1136.12 L25.1311 1136.12 Z" fill="#000000" fill-rule="nonzero" fill-opacity="1" /><path clip-path="url(#clip710)" d="M32.8336 1081.19 Q28.8869 1078.99 27.009 1075.93 Q25.1311 1072.88 25.1311 1068.74 Q25.1311 1063.17 29.046 1060.15 Q32.9291 1057.12 40.1224 1057.12 L61.6384 1057.12 L61.6384 1063.01 L40.3133 1063.01 Q35.1889 1063.01 32.7063 1064.83 Q30.2237 1066.64 30.2237 1070.36 Q30.2237 1074.92 33.2474 1077.56 Q36.2711 1080.2 41.491 1080.2 L61.6384 1080.2 L61.6384 1086.09 L40.3133 1086.09 Q35.1571 1086.09 32.7063 1087.9 Q30.2237 1089.72 30.2237 1093.5 Q30.2237 1097.99 33.2792 1100.63 Q36.3029 1103.27 41.491 1103.27 L61.6384 1103.27 L61.6384 1109.16 L25.9905 1109.16 L25.9905 1103.27 L31.5287 1103.27 Q28.2503 1101.27 26.6907 1098.47 Q25.1311 1095.67 25.1311 1091.82 Q25.1311 1087.93 27.1045 1085.23 Q29.0779 1082.49 32.8336 1081.19 Z" fill="#000000" fill-rule="nonzero" fill-opacity="1" /><path clip-path="url(#clip710)" d="M43.8463 1019.85 Q37.3851 1019.85 33.7248 1022.53 Q30.0327 1025.17 30.0327 1029.81 Q30.0327 1034.46 33.7248 1037.13 Q37.3851 1039.78 43.8463 1039.78 Q50.3075 1039.78 53.9996 1037.13 Q57.6599 1034.46 57.6599 1029.81 Q57.6599 1025.17 53.9996 1022.53 Q50.3075 1019.85 43.8463 1019.85 M31.4013 1039.78 Q28.2185 1037.93 26.6907 1035.13 Q25.1311 1032.3 25.1311 1028.38 Q25.1311 1021.89 30.2873 1017.85 Q35.4436 1013.77 43.8463 1013.77 Q52.249 1013.77 57.4052 1017.85 Q62.5615 1021.89 62.5615 1028.38 Q62.5615 1032.3 61.0337 1035.13 Q59.4741 1037.93 56.2912 1039.78 L61.6384 1039.78 L61.6384 1045.66 L12.1132 1045.66 L12.1132 1039.78 L31.4013 1039.78 Z" fill="#000000" fill-rule="nonzero" fill-opacity="1" /><path clip-path="url(#clip710)" d="M42.3504 973.573 L45.2149 973.573 L45.2149 1000.5 Q51.2623 1000.12 54.4452 996.871 Q57.5962 993.593 57.5962 987.768 Q57.5962 984.395 56.7687 981.244 Q55.9411 978.061 54.2861 974.942 L59.8242 974.942 Q61.161 978.093 61.8612 981.403 Q62.5615 984.713 62.5615 988.119 Q62.5615 996.649 57.5962 1001.65 Q52.631 1006.61 44.1646 1006.61 Q35.4117 1006.61 30.2873 1001.9 Q25.1311 997.158 25.1311 989.137 Q25.1311 981.944 29.7781 977.774 Q34.3932 973.573 42.3504 973.573 M40.6316 979.429 Q35.8255 979.493 32.9609 982.135 Q30.0964 984.745 30.0964 989.073 Q30.0964 993.975 32.8654 996.935 Q35.6345 999.863 40.6634 1000.31 L40.6316 979.429 Z" fill="#000000" fill-rule="nonzero" fill-opacity="1" /><path clip-path="url(#clip710)" d="M31.465 943.304 Q30.8921 944.291 30.6375 945.468 Q30.351 946.614 30.351 948.015 Q30.351 952.98 33.5975 955.653 Q36.8122 958.295 42.8596 958.295 L61.6384 958.295 L61.6384 964.184 L25.9905 964.184 L25.9905 958.295 L31.5287 958.295 Q28.2821 956.449 26.7225 953.489 Q25.1311 950.529 25.1311 946.296 Q25.1311 945.691 25.2266 944.959 Q25.2903 944.227 25.4494 943.336 L31.465 943.304 Z" fill="#000000" fill-rule="nonzero" fill-opacity="1" /><path clip-path="url(#clip710)" d="M25.9905 916.441 L25.9905 910.584 L61.6384 910.584 L61.6384 916.441 L25.9905 916.441 M12.1132 916.441 L12.1132 910.584 L19.5293 910.584 L19.5293 916.441 L12.1132 916.441 Z" fill="#000000" fill-rule="nonzero" fill-opacity="1" /><path clip-path="url(#clip710)" d="M40.1224 868.698 L61.6384 868.698 L61.6384 874.554 L40.3133 874.554 Q35.2526 874.554 32.7381 876.528 Q30.2237 878.501 30.2237 882.448 Q30.2237 887.19 33.2474 889.928 Q36.2711 892.665 41.491 892.665 L61.6384 892.665 L61.6384 898.553 L25.9905 898.553 L25.9905 892.665 L31.5287 892.665 Q28.314 890.564 26.7225 887.731 Q25.1311 884.867 25.1311 881.143 Q25.1311 875 28.9505 871.849 Q32.7381 868.698 40.1224 868.698 Z" fill="#000000" fill-rule="nonzero" fill-opacity="1" /><path clip-path="url(#clip710)" d="M12.1132 838.97 L16.983 838.97 L16.983 844.572 Q16.983 847.723 18.2562 848.964 Q19.5293 850.174 22.8395 850.174 L25.9905 850.174 L25.9905 840.53 L30.542 840.53 L30.542 850.174 L61.6384 850.174 L61.6384 856.062 L30.542 856.062 L30.542 861.664 L25.9905 861.664 L25.9905 856.062 L23.5079 856.062 Q17.5559 856.062 14.8505 853.293 Q12.1132 850.524 12.1132 844.508 L12.1132 838.97 Z" fill="#000000" fill-rule="nonzero" fill-opacity="1" /><path clip-path="url(#clip710)" d="M42.3504 803.577 L45.2149 803.577 L45.2149 830.504 Q51.2623 830.122 54.4452 826.875 Q57.5962 823.597 57.5962 817.772 Q57.5962 814.398 56.7687 811.247 Q55.9411 808.065 54.2861 804.945 L59.8242 804.945 Q61.161 808.096 61.8612 811.407 Q62.5615 814.717 62.5615 818.122 Q62.5615 826.652 57.5962 831.65 Q52.631 836.615 44.1646 836.615 Q35.4117 836.615 30.2873 831.904 Q25.1311 827.162 25.1311 819.141 Q25.1311 811.948 29.7781 807.778 Q34.3932 803.577 42.3504 803.577 M40.6316 809.433 Q35.8255 809.497 32.9609 812.139 Q30.0964 814.749 30.0964 819.077 Q30.0964 823.979 32.8654 826.939 Q35.6345 829.867 40.6634 830.313 L40.6316 809.433 Z" fill="#000000" fill-rule="nonzero" fill-opacity="1" /><path clip-path="url(#clip710)" d="M27.3591 768.311 L32.8336 768.311 Q31.465 770.793 30.7966 773.308 Q30.0964 775.79 30.0964 778.337 Q30.0964 784.034 33.7248 787.185 Q37.3214 790.336 43.8463 790.336 Q50.3711 790.336 53.9996 787.185 Q57.5962 784.034 57.5962 778.337 Q57.5962 775.79 56.9278 773.308 Q56.2276 770.793 54.859 768.311 L60.2698 768.311 Q61.4156 770.762 61.9886 773.403 Q62.5615 776.013 62.5615 778.973 Q62.5615 787.026 57.5007 791.768 Q52.44 796.511 43.8463 796.511 Q35.1253 796.511 30.1282 791.737 Q25.1311 786.93 25.1311 778.591 Q25.1311 775.886 25.704 773.308 Q26.2451 770.73 27.3591 768.311 Z" fill="#000000" fill-rule="nonzero" fill-opacity="1" /><path clip-path="url(#clip710)" d="M15.869 752.333 L25.9905 752.333 L25.9905 740.27 L30.542 740.27 L30.542 752.333 L49.8937 752.333 Q54.2542 752.333 55.4955 751.155 Q56.7368 749.946 56.7368 746.285 L56.7368 740.27 L61.6384 740.27 L61.6384 746.285 Q61.6384 753.065 59.124 755.643 Q56.5777 758.221 49.8937 758.221 L30.542 758.221 L30.542 762.518 L25.9905 762.518 L25.9905 758.221 L15.869 758.221 L15.869 752.333 Z" fill="#000000" fill-rule="nonzero" fill-opacity="1" /><path clip-path="url(#clip710)" d="M42.3504 702.076 L45.2149 702.076 L45.2149 729.003 Q51.2623 728.621 54.4452 725.374 Q57.5962 722.096 57.5962 716.271 Q57.5962 712.897 56.7687 709.746 Q55.9411 706.563 54.2861 703.444 L59.8242 703.444 Q61.161 706.595 61.8612 709.905 Q62.5615 713.216 62.5615 716.621 Q62.5615 725.151 57.5962 730.148 Q52.631 735.114 44.1646 735.114 Q35.4117 735.114 30.2873 730.403 Q25.1311 725.661 25.1311 717.64 Q25.1311 710.446 29.7781 706.277 Q34.3932 702.076 42.3504 702.076 M40.6316 707.932 Q35.8255 707.996 32.9609 710.637 Q30.0964 713.247 30.0964 717.576 Q30.0964 722.478 32.8654 725.438 Q35.6345 728.366 40.6634 728.812 L40.6316 707.932 Z" fill="#000000" fill-rule="nonzero" fill-opacity="1" /><path clip-path="url(#clip710)" d="M31.4013 669.006 L12.1132 669.006 L12.1132 663.149 L61.6384 663.149 L61.6384 669.006 L56.2912 669.006 Q59.4741 670.852 61.0337 673.685 Q62.5615 676.485 62.5615 680.432 Q62.5615 686.893 57.4052 690.967 Q52.249 695.01 43.8463 695.01 Q35.4436 695.01 30.2873 690.967 Q25.1311 686.893 25.1311 680.432 Q25.1311 676.485 26.6907 673.685 Q28.2185 670.852 31.4013 669.006 M43.8463 688.962 Q50.3075 688.962 53.9996 686.32 Q57.6599 683.647 57.6599 679 Q57.6599 674.353 53.9996 671.679 Q50.3075 669.006 43.8463 669.006 Q37.3851 669.006 33.7248 671.679 Q30.0327 674.353 30.0327 679 Q30.0327 683.647 33.7248 686.32 Q37.3851 688.962 43.8463 688.962 Z" fill="#000000" fill-rule="nonzero" fill-opacity="1" /><path clip-path="url(#clip710)" d="M699.983 17.6457 Q691.071 17.6457 685.805 24.2892 Q680.579 30.9327 680.579 42.3968 Q680.579 53.8203 685.805 60.4638 Q691.071 67.1073 699.983 67.1073 Q708.895 67.1073 714.08 60.4638 Q719.306 53.8203 719.306 42.3968 Q719.306 30.9327 714.08 24.2892 Q708.895 17.6457 699.983 17.6457 M699.983 11.0023 Q712.703 11.0023 720.318 19.5497 Q727.934 28.0566 727.934 42.3968 Q727.934 56.6965 720.318 65.2439 Q712.703 73.7508 699.983 73.7508 Q687.222 73.7508 679.566 65.2439 Q671.951 56.737 671.951 42.3968 Q671.951 28.0566 679.566 19.5497 Q687.222 11.0023 699.983 11.0023 Z" fill="#000000" fill-rule="nonzero" fill-opacity="1" /><path clip-path="url(#clip710)" d="M766.701 34.1734 Q765.445 33.4443 763.947 33.1202 Q762.488 32.7556 760.706 32.7556 Q754.386 32.7556 750.984 36.8875 Q747.621 40.9789 747.621 48.6757 L747.621 72.576 L740.127 72.576 L740.127 27.2059 L747.621 27.2059 L747.621 34.2544 Q749.971 30.1225 753.738 28.1376 Q757.506 26.1121 762.893 26.1121 Q763.663 26.1121 764.595 26.2337 Q765.526 26.3147 766.661 26.5172 L766.701 34.1734 Z" fill="#000000" fill-rule="nonzero" fill-opacity="1" /><path clip-path="url(#clip710)" d="M802.916 34.0924 L802.916 9.54393 L810.37 9.54393 L810.37 72.576 L802.916 72.576 L802.916 65.7705 Q800.567 69.8214 796.961 71.8063 Q793.397 73.7508 788.374 73.7508 Q780.15 73.7508 774.965 67.1883 Q769.82 60.6258 769.82 49.9314 Q769.82 39.2371 774.965 32.6746 Q780.15 26.1121 788.374 26.1121 Q793.397 26.1121 796.961 28.0971 Q800.567 30.0415 802.916 34.0924 M777.517 49.9314 Q777.517 58.1548 780.879 62.8538 Q784.282 67.5124 790.196 67.5124 Q796.111 67.5124 799.514 62.8538 Q802.916 58.1548 802.916 49.9314 Q802.916 41.7081 799.514 37.0496 Q796.111 32.3505 790.196 32.3505 Q784.282 32.3505 780.879 37.0496 Q777.517 41.7081 777.517 49.9314 Z" fill="#000000" fill-rule="nonzero" fill-opacity="1" /><path clip-path="url(#clip710)" d="M864.531 48.0275 L864.531 51.6733 L830.26 51.6733 Q830.746 59.3701 834.878 63.421 Q839.05 67.4314 846.464 67.4314 Q850.757 67.4314 854.768 66.3781 Q858.819 65.3249 862.789 63.2184 L862.789 70.267 Q858.778 71.9684 854.565 72.8596 Q850.352 73.7508 846.018 73.7508 Q835.162 73.7508 828.802 67.4314 Q822.482 61.1119 822.482 50.3365 Q822.482 39.1965 828.478 32.6746 Q834.513 26.1121 844.722 26.1121 Q853.877 26.1121 859.183 32.0264 Q864.531 37.9003 864.531 48.0275 M857.077 45.84 Q856.996 39.7232 853.634 36.0774 Q850.312 32.4315 844.803 32.4315 Q838.564 32.4315 834.797 35.9558 Q831.07 39.4801 830.503 45.8805 L857.077 45.84 Z" fill="#000000" fill-rule="nonzero" fill-opacity="1" /><path clip-path="url(#clip710)" d="M903.055 34.1734 Q901.799 33.4443 900.3 33.1202 Q898.842 32.7556 897.059 32.7556 Q890.74 32.7556 887.337 36.8875 Q883.975 40.9789 883.975 48.6757 L883.975 72.576 L876.481 72.576 L876.481 27.2059 L883.975 27.2059 L883.975 34.2544 Q886.324 30.1225 890.092 28.1376 Q893.859 26.1121 899.247 26.1121 Q900.016 26.1121 900.948 26.2337 Q901.88 26.3147 903.014 26.5172 L903.055 34.1734 Z" fill="#000000" fill-rule="nonzero" fill-opacity="1" /><path clip-path="url(#clip710)" d="M901.799 46.5287 L923.633 46.5287 L923.633 53.1722 L901.799 53.1722 L901.799 46.5287 Z" fill="#000000" fill-rule="nonzero" fill-opacity="1" /><path clip-path="url(#clip710)" d="M937.973 65.6895 L951.341 65.6895 L951.341 19.5497 L936.799 22.4663 L936.799 15.0127 L951.26 12.096 L959.443 12.096 L959.443 65.6895 L972.811 65.6895 L972.811 72.576 L937.973 72.576 L937.973 65.6895 Z" fill="#000000" fill-rule="nonzero" fill-opacity="1" /><path clip-path="url(#clip710)" d="M1009.31 27.2059 L1017.21 27.2059 L1031.39 65.2844 L1045.57 27.2059 L1053.46 27.2059 L1036.45 72.576 L1026.32 72.576 L1009.31 27.2059 Z" fill="#000000" fill-rule="nonzero" fill-opacity="1" /><path clip-path="url(#clip710)" d="M1092.68 28.5427 L1092.68 35.5912 Q1089.52 33.9709 1086.12 33.1607 Q1082.71 32.3505 1079.07 32.3505 Q1073.52 32.3505 1070.72 34.0519 Q1067.97 35.7533 1067.97 39.156 Q1067.97 41.7486 1069.95 43.2475 Q1071.94 44.7058 1077.93 46.0426 L1080.48 46.6097 Q1088.42 48.3111 1091.75 51.4303 Q1095.11 54.509 1095.11 60.0587 Q1095.11 66.3781 1090.08 70.0644 Q1085.1 73.7508 1076.35 73.7508 Q1072.71 73.7508 1068.74 73.0216 Q1064.81 72.3329 1060.43 70.9151 L1060.43 63.2184 Q1064.56 65.3654 1068.57 66.4591 Q1072.59 67.5124 1076.51 67.5124 Q1081.78 67.5124 1084.62 65.73 Q1087.45 63.9071 1087.45 60.6258 Q1087.45 57.5877 1085.39 55.9673 Q1083.36 54.3469 1076.43 52.8481 L1073.84 52.2405 Q1066.91 50.7821 1063.84 47.7845 Q1060.76 44.7463 1060.76 39.4801 Q1060.76 33.0797 1065.29 29.5959 Q1069.83 26.1121 1078.18 26.1121 Q1082.31 26.1121 1085.95 26.7198 Q1089.6 27.3274 1092.68 28.5427 Z" fill="#000000" fill-rule="nonzero" fill-opacity="1" /><path clip-path="url(#clip710)" d="M1150.93 32.4315 Q1144.93 32.4315 1141.45 37.1306 Q1137.97 41.7891 1137.97 49.9314 Q1137.97 58.0738 1141.41 62.7728 Q1144.89 67.4314 1150.93 67.4314 Q1156.88 67.4314 1160.37 62.7323 Q1163.85 58.0333 1163.85 49.9314 Q1163.85 41.8701 1160.37 37.1711 Q1156.88 32.4315 1150.93 32.4315 M1150.93 26.1121 Q1160.65 26.1121 1166.2 32.4315 Q1171.75 38.7509 1171.75 49.9314 Q1171.75 61.0714 1166.2 67.4314 Q1160.65 73.7508 1150.93 73.7508 Q1141.17 73.7508 1135.62 67.4314 Q1130.11 61.0714 1130.11 49.9314 Q1130.11 38.7509 1135.62 32.4315 Q1141.17 26.1121 1150.93 26.1121 Z" fill="#000000" fill-rule="nonzero" fill-opacity="1" /><path clip-path="url(#clip710)" d="M1210.4 34.1734 Q1209.14 33.4443 1207.64 33.1202 Q1206.18 32.7556 1204.4 32.7556 Q1198.08 32.7556 1194.68 36.8875 Q1191.32 40.9789 1191.32 48.6757 L1191.32 72.576 L1183.82 72.576 L1183.82 27.2059 L1191.32 27.2059 L1191.32 34.2544 Q1193.67 30.1225 1197.43 28.1376 Q1201.2 26.1121 1206.59 26.1121 Q1207.36 26.1121 1208.29 26.2337 Q1209.22 26.3147 1210.36 26.5172 L1210.4 34.1734 Z" fill="#000000" fill-rule="nonzero" fill-opacity="1" /><path clip-path="url(#clip710)" d="M1246.61 34.0924 L1246.61 9.54393 L1254.07 9.54393 L1254.07 72.576 L1246.61 72.576 L1246.61 65.7705 Q1244.26 69.8214 1240.66 71.8063 Q1237.09 73.7508 1232.07 73.7508 Q1223.85 73.7508 1218.66 67.1883 Q1213.52 60.6258 1213.52 49.9314 Q1213.52 39.2371 1218.66 32.6746 Q1223.85 26.1121 1232.07 26.1121 Q1237.09 26.1121 1240.66 28.0971 Q1244.26 30.0415 1246.61 34.0924 M1221.21 49.9314 Q1221.21 58.1548 1224.57 62.8538 Q1227.98 67.5124 1233.89 67.5124 Q1239.81 67.5124 1243.21 62.8538 Q1246.61 58.1548 1246.61 49.9314 Q1246.61 41.7081 1243.21 37.0496 Q1239.81 32.3505 1233.89 32.3505 Q1227.98 32.3505 1224.57 37.0496 Q1221.21 41.7081 1221.21 49.9314 Z" fill="#000000" fill-rule="nonzero" fill-opacity="1" /><path clip-path="url(#clip710)" d="M1308.23 48.0275 L1308.23 51.6733 L1273.96 51.6733 Q1274.44 59.3701 1278.57 63.421 Q1282.75 67.4314 1290.16 67.4314 Q1294.45 67.4314 1298.46 66.3781 Q1302.51 65.3249 1306.48 63.2184 L1306.48 70.267 Q1302.47 71.9684 1298.26 72.8596 Q1294.05 73.7508 1289.71 73.7508 Q1278.86 73.7508 1272.5 67.4314 Q1266.18 61.1119 1266.18 50.3365 Q1266.18 39.1965 1272.17 32.6746 Q1278.21 26.1121 1288.42 26.1121 Q1297.57 26.1121 1302.88 32.0264 Q1308.23 37.9003 1308.23 48.0275 M1300.77 45.84 Q1300.69 39.7232 1297.33 36.0774 Q1294.01 32.4315 1288.5 32.4315 Q1282.26 32.4315 1278.49 35.9558 Q1274.77 39.4801 1274.2 45.8805 L1300.77 45.84 Z" fill="#000000" fill-rule="nonzero" fill-opacity="1" /><path clip-path="url(#clip710)" d="M1346.75 34.1734 Q1345.49 33.4443 1344 33.1202 Q1342.54 32.7556 1340.75 32.7556 Q1334.44 32.7556 1331.03 36.8875 Q1327.67 40.9789 1327.67 48.6757 L1327.67 72.576 L1320.18 72.576 L1320.18 27.2059 L1327.67 27.2059 L1327.67 34.2544 Q1330.02 30.1225 1333.79 28.1376 Q1337.55 26.1121 1342.94 26.1121 Q1343.71 26.1121 1344.64 26.2337 Q1345.58 26.3147 1346.71 26.5172 L1346.75 34.1734 Z" fill="#000000" fill-rule="nonzero" fill-opacity="1" /><path clip-path="url(#clip710)" d="M1345.49 46.5287 L1367.33 46.5287 L1367.33 53.1722 L1345.49 53.1722 L1345.49 46.5287 Z" fill="#000000" fill-rule="nonzero" fill-opacity="1" /><path clip-path="url(#clip710)" d="M1387.3 65.6895 L1415.86 65.6895 L1415.86 72.576 L1377.46 72.576 L1377.46 65.6895 Q1382.11 60.8689 1390.14 52.7671 Q1398.2 44.6248 1400.26 42.2752 Q1404.19 37.8598 1405.73 34.8216 Q1407.31 31.7429 1407.31 28.7857 Q1407.31 23.9651 1403.91 20.927 Q1400.55 17.8888 1395.12 17.8888 Q1391.27 17.8888 1386.98 19.2256 Q1382.72 20.5624 1377.86 23.2765 L1377.86 15.0127 Q1382.8 13.0277 1387.1 12.015 Q1391.39 11.0023 1394.96 11.0023 Q1404.35 11.0023 1409.94 15.7013 Q1415.53 20.4004 1415.53 28.2591 Q1415.53 31.9859 1414.12 35.3482 Q1412.74 38.6699 1409.05 43.2069 Q1408.04 44.3817 1402.61 50.0125 Q1397.18 55.6027 1387.3 65.6895 Z" fill="#000000" fill-rule="nonzero" fill-opacity="1" /><path clip-path="url(#clip710)" d="M1476.26 9.62495 Q1470.83 18.942 1468.2 28.0566 Q1465.56 37.1711 1465.56 46.5287 Q1465.56 55.8863 1468.2 65.0818 Q1470.87 74.2369 1476.26 83.5134 L1469.78 83.5134 Q1463.7 73.9938 1460.66 64.7983 Q1457.66 55.6027 1457.66 46.5287 Q1457.66 37.4952 1460.66 28.3401 Q1463.66 19.1851 1469.78 9.62495 L1476.26 9.62495 Z" fill="#000000" fill-rule="nonzero" fill-opacity="1" /><path clip-path="url(#clip710)" d="M1514.26 19.2256 L1493.6 51.5113 L1514.26 51.5113 L1514.26 19.2256 M1512.11 12.096 L1522.4 12.096 L1522.4 51.5113 L1531.03 51.5113 L1531.03 58.3168 L1522.4 58.3168 L1522.4 72.576 L1514.26 72.576 L1514.26 58.3168 L1486.95 58.3168 L1486.95 50.4176 L1512.11 12.096 Z" fill="#000000" fill-rule="nonzero" fill-opacity="1" /><path clip-path="url(#clip710)" d="M1539.74 46.5287 L1561.57 46.5287 L1561.57 53.1722 L1539.74 53.1722 L1539.74 46.5287 Z" fill="#000000" fill-rule="nonzero" fill-opacity="1" /><path clip-path="url(#clip710)" d="M1599.73 34.1734 Q1598.47 33.4443 1596.97 33.1202 Q1595.52 32.7556 1593.73 32.7556 Q1587.41 32.7556 1584.01 36.8875 Q1580.65 40.9789 1580.65 48.6757 L1580.65 72.576 L1573.16 72.576 L1573.16 27.2059 L1580.65 27.2059 L1580.65 34.2544 Q1583 30.1225 1586.77 28.1376 Q1590.53 26.1121 1595.92 26.1121 Q1596.69 26.1121 1597.62 26.2337 Q1598.55 26.3147 1599.69 26.5172 L1599.73 34.1734 Z" fill="#000000" fill-rule="nonzero" fill-opacity="1" /><path clip-path="url(#clip710)" d="M1644.53 48.0275 L1644.53 51.6733 L1610.26 51.6733 Q1610.75 59.3701 1614.88 63.421 Q1619.05 67.4314 1626.47 67.4314 Q1630.76 67.4314 1634.77 66.3781 Q1638.82 65.3249 1642.79 63.2184 L1642.79 70.267 Q1638.78 71.9684 1634.57 72.8596 Q1630.35 73.7508 1626.02 73.7508 Q1615.16 73.7508 1608.8 67.4314 Q1602.48 61.1119 1602.48 50.3365 Q1602.48 39.1965 1608.48 32.6746 Q1614.51 26.1121 1624.72 26.1121 Q1633.88 26.1121 1639.18 32.0264 Q1644.53 37.9003 1644.53 48.0275 M1637.08 45.84 Q1637 39.7232 1633.64 36.0774 Q1630.31 32.4315 1624.8 32.4315 Q1618.57 32.4315 1614.8 35.9558 Q1611.07 39.4801 1610.5 45.8805 L1637.08 45.84 Z" fill="#000000" fill-rule="nonzero" fill-opacity="1" /><path clip-path="url(#clip710)" d="M1686.62 49.3643 Q1686.62 41.2625 1683.26 36.8065 Q1679.94 32.3505 1673.9 32.3505 Q1667.91 32.3505 1664.54 36.8065 Q1661.22 41.2625 1661.22 49.3643 Q1661.22 57.4256 1664.54 61.8816 Q1667.91 66.3376 1673.9 66.3376 Q1679.94 66.3376 1683.26 61.8816 Q1686.62 57.4256 1686.62 49.3643 M1694.07 66.9452 Q1694.07 78.5308 1688.93 84.1616 Q1683.79 89.8329 1673.17 89.8329 Q1669.24 89.8329 1665.76 89.2252 Q1662.28 88.6581 1658.99 87.4428 L1658.99 80.1917 Q1662.28 81.9741 1665.48 82.8248 Q1668.68 83.6755 1672 83.6755 Q1679.33 83.6755 1682.98 79.8271 Q1686.62 76.0193 1686.62 68.282 L1686.62 64.5957 Q1684.31 68.6061 1680.71 70.5911 Q1677.1 72.576 1672.08 72.576 Q1663.73 72.576 1658.63 66.2161 Q1653.53 59.8562 1653.53 49.3643 Q1653.53 38.832 1658.63 32.472 Q1663.73 26.1121 1672.08 26.1121 Q1677.1 26.1121 1680.71 28.0971 Q1684.31 30.082 1686.62 34.0924 L1686.62 27.2059 L1694.07 27.2059 L1694.07 66.9452 Z" fill="#000000" fill-rule="nonzero" fill-opacity="1" /><path clip-path="url(#clip710)" d="M1708.66 54.671 L1708.66 27.2059 L1716.11 27.2059 L1716.11 54.3874 Q1716.11 60.8284 1718.62 64.0691 Q1721.13 67.2693 1726.16 67.2693 Q1732.19 67.2693 1735.68 63.421 Q1739.2 59.5726 1739.2 52.9291 L1739.2 27.2059 L1746.66 27.2059 L1746.66 72.576 L1739.2 72.576 L1739.2 65.6084 Q1736.49 69.7404 1732.88 71.7658 Q1729.32 73.7508 1724.58 73.7508 Q1716.76 73.7508 1712.71 68.8897 Q1708.66 64.0286 1708.66 54.671 M1727.41 26.1121 L1727.41 26.1121 Z" fill="#000000" fill-rule="nonzero" fill-opacity="1" /><path clip-path="url(#clip710)" d="M1762.01 9.54393 L1769.46 9.54393 L1769.46 72.576 L1762.01 72.576 L1762.01 9.54393 Z" fill="#000000" fill-rule="nonzero" fill-opacity="1" /><path clip-path="url(#clip710)" d="M1805.68 49.7694 Q1796.64 49.7694 1793.16 51.8354 Q1789.68 53.9013 1789.68 58.8839 Q1789.68 62.8538 1792.27 65.2034 Q1794.9 67.5124 1799.4 67.5124 Q1805.6 67.5124 1809.32 63.1374 Q1813.09 58.7219 1813.09 51.4303 L1813.09 49.7694 L1805.68 49.7694 M1820.54 46.6907 L1820.54 72.576 L1813.09 72.576 L1813.09 65.6895 Q1810.54 69.8214 1806.73 71.8063 Q1802.92 73.7508 1797.41 73.7508 Q1790.45 73.7508 1786.31 69.8619 Q1782.22 65.9325 1782.22 59.3701 Q1782.22 51.7138 1787.33 47.825 Q1792.47 43.9361 1802.64 43.9361 L1813.09 43.9361 L1813.09 43.2069 Q1813.09 38.0623 1809.69 35.2672 Q1806.33 32.4315 1800.21 32.4315 Q1796.32 32.4315 1792.63 33.3632 Q1788.95 34.295 1785.54 36.1584 L1785.54 29.2718 Q1789.64 27.692 1793.48 26.9223 Q1797.33 26.1121 1800.98 26.1121 Q1810.82 26.1121 1815.68 31.2163 Q1820.54 36.3204 1820.54 46.6907 Z" fill="#000000" fill-rule="nonzero" fill-opacity="1" /><path clip-path="url(#clip710)" d="M1862.19 34.1734 Q1860.93 33.4443 1859.43 33.1202 Q1857.97 32.7556 1856.19 32.7556 Q1849.87 32.7556 1846.47 36.8875 Q1843.11 40.9789 1843.11 48.6757 L1843.11 72.576 L1835.61 72.576 L1835.61 27.2059 L1843.11 27.2059 L1843.11 34.2544 Q1845.46 30.1225 1849.22 28.1376 Q1852.99 26.1121 1858.38 26.1121 Q1859.15 26.1121 1860.08 26.2337 Q1861.01 26.3147 1862.15 26.5172 L1862.19 34.1734 Z" fill="#000000" fill-rule="nonzero" fill-opacity="1" /><path clip-path="url(#clip710)" d="M1871.91 62.2867 L1880.46 62.2867 L1880.46 69.2543 L1873.81 82.2172 L1868.59 82.2172 L1871.91 69.2543 L1871.91 62.2867 Z" fill="#000000" fill-rule="nonzero" fill-opacity="1" /><path clip-path="url(#clip710)" d="M1923.07 12.096 L1934.09 12.096 L1960.91 62.6918 L1960.91 12.096 L1968.85 12.096 L1968.85 72.576 L1957.83 72.576 L1931.01 21.9802 L1931.01 72.576 L1923.07 72.576 L1923.07 12.096 Z" fill="#000000" fill-rule="nonzero" fill-opacity="1" /><path clip-path="url(#clip710)" d="M1985.78 34.9026 L2037.71 34.9026 L2037.71 41.7081 L1985.78 41.7081 L1985.78 34.9026 M1985.78 51.4303 L2037.71 51.4303 L2037.71 58.3168 L1985.78 58.3168 L1985.78 51.4303 Z" fill="#000000" fill-rule="nonzero" fill-opacity="1" /><path clip-path="url(#clip710)" d="M2080.17 39.9662 Q2086.04 41.222 2089.32 45.1919 Q2092.64 49.1618 2092.64 54.9951 Q2092.64 63.9476 2086.49 68.8492 Q2080.33 73.7508 2068.99 73.7508 Q2065.18 73.7508 2061.13 72.9811 Q2057.12 72.2519 2052.82 70.7531 L2052.82 62.8538 Q2056.23 64.8388 2060.28 65.8515 Q2064.33 66.8642 2068.74 66.8642 Q2076.44 66.8642 2080.45 63.826 Q2084.5 60.7879 2084.5 54.9951 Q2084.5 49.6479 2080.73 46.6502 Q2077.01 43.612 2070.32 43.612 L2063.27 43.612 L2063.27 36.8875 L2070.65 36.8875 Q2076.68 36.8875 2079.88 34.4975 Q2083.08 32.067 2083.08 27.5299 Q2083.08 22.8714 2079.76 20.4004 Q2076.48 17.8888 2070.32 17.8888 Q2066.96 17.8888 2063.11 18.618 Q2059.26 19.3471 2054.65 20.8865 L2054.65 13.5948 Q2059.3 12.2985 2063.36 11.6504 Q2067.45 11.0023 2071.05 11.0023 Q2080.37 11.0023 2085.8 15.2557 Q2091.23 19.4686 2091.23 26.6793 Q2091.23 31.7024 2088.35 35.1862 Q2085.47 38.6294 2080.17 39.9662 Z" fill="#000000" fill-rule="nonzero" fill-opacity="1" /><path clip-path="url(#clip710)" d="M2125.66 17.4837 Q2119.34 17.4837 2116.14 23.7221 Q2112.98 29.92 2112.98 42.3968 Q2112.98 54.833 2116.14 61.0714 Q2119.34 67.2693 2125.66 67.2693 Q2132.02 67.2693 2135.18 61.0714 Q2138.38 54.833 2138.38 42.3968 Q2138.38 29.92 2135.18 23.7221 Q2132.02 17.4837 2125.66 17.4837 M2125.66 11.0023 Q2135.83 11.0023 2141.17 19.0636 Q2146.56 27.0843 2146.56 42.3968 Q2146.56 57.6687 2141.17 65.73 Q2135.83 73.7508 2125.66 73.7508 Q2115.49 73.7508 2110.1 65.73 Q2104.76 57.6687 2104.76 42.3968 Q2104.76 27.0843 2110.1 19.0636 Q2115.49 11.0023 2125.66 11.0023 Z" fill="#000000" fill-rule="nonzero" fill-opacity="1" /><path clip-path="url(#clip710)" d="M2158.71 9.62495 L2165.19 9.62495 Q2171.27 19.1851 2174.27 28.3401 Q2177.31 37.4952 2177.31 46.5287 Q2177.31 55.6027 2174.27 64.7983 Q2171.27 73.9938 2165.19 83.5134 L2158.71 83.5134 Q2164.1 74.2369 2166.73 65.0818 Q2169.41 55.8863 2169.41 46.5287 Q2169.41 37.1711 2166.73 28.0566 Q2164.1 18.942 2158.71 9.62495 Z" fill="#000000" fill-rule="nonzero" fill-opacity="1" /><polyline clip-path="url(#clip711)" style="stroke:#ff0000; stroke-linecap:round; stroke-linejoin:round; stroke-width:8; stroke-opacity:1; fill:none" stroke-dasharray="32, 20" points="277.339,1616.18 296.461,1584.57 315.582,1546.71 334.704,1499.91 353.825,1441.44 372.947,1368.65 392.068,1279.42 411.19,1172.78 430.311,1049.64 449.433,913.404 468.554,770.121 487.676,627.931 506.797,495.802 525.919,381.707 545.04,291.304 564.162,227.092 583.283,188.636 602.405,173.254 621.526,177.255 640.648,196.535 659.769,227.293 678.891,266.324 698.012,310.97 717.134,359.193 736.255,409.461 755.377,460.611 774.498,511.812 793.62,562.47 812.741,612.151 831.862,660.566 850.984,707.522 870.105,752.892 889.227,796.603 908.348,838.621 927.47,878.942 946.591,917.578 965.713,954.557 984.834,989.917 1003.96,1023.7 1023.08,1055.97 1042.2,1086.76 1061.32,1116.14 1080.44,1144.16 1099.56,1170.87 1118.68,1196.33 1137.81,1220.59 1156.93,1243.7 1176.05,1265.72 1195.17,1286.7 1214.29,1306.67 1233.41,1325.69 1252.54,1343.8 1271.66,1361.04 1290.78,1377.45 1309.9,1393.08 1329.02,1407.95 1348.14,1422.11 1367.26,1435.58 1386.39,1448.41 1405.51,1460.62 1424.63,1472.23 1443.75,1483.29 1462.87,1493.81 1481.99,1503.82 1501.11,1513.35 1520.24,1522.42 1539.36,1531.05 1558.48,1539.26 1577.6,1547.07 1596.72,1554.5 1615.84,1561.58 1634.97,1568.31 1654.09,1574.71 1673.21,1580.8 1692.33,1586.6 1711.45,1592.11 1730.57,1597.36 1749.69,1602.36 1768.82,1607.11 1787.94,1611.63 1807.06,1615.93 1826.18,1620.02 1845.3,1623.92 1864.42,1627.62 1883.54,1631.15 1902.67,1634.5 1921.79,1637.69 1940.91,1640.72 1960.03,1643.61 1979.15,1646.36 1998.27,1648.97 2017.4,1651.46 2036.52,1653.82 2055.64,1656.08 2074.76,1658.22 2093.88,1660.26 2113,1662.19 2132.12,1664.04 2151.25,1665.79 2170.37,1667.46 2189.49,1669.05 2208.61,1670.56 2227.73,1672 2246.85,1673.36 2265.97,1674.67 2285.1,1675.9 2304.22,1677.08 2323.34,1678.2 2342.46,1679.27 2361.58,1680.28 2380.7,1681.25 2399.83,1682.16 2418.95,1683.04 2438.07,1683.87 2457.19,1684.66 2476.31,1685.41 2495.43,1686.12 2514.55,1686.81 2533.68,1687.45 2552.8,1688.07 2571.92,1688.65 "/>
<polyline clip-path="url(#clip711)" style="stroke:#8b0000; stroke-linecap:round; stroke-linejoin:round; stroke-width:8; stroke-opacity:1; fill:none" points="277.339,1616.18 296.461,1584.93 315.582,1549.56 334.704,1509.63 353.825,1464.78 372.947,1414.84 392.068,1359.81 411.19,1299.89 430.311,1235.51 449.433,1167.32 468.554,1096.21 487.676,1023.26 506.797,949.732 525.919,877.041 545.04,806.673 564.162,740.125 583.283,678.807 602.405,623.985 621.526,576.68 640.648,537.639 659.769,507.323 678.891,485.777 698.012,472.826 717.134,468.113 736.255,470.949 755.377,480.516 774.498,496.038 793.62,516.652 812.741,541.447 831.862,569.626 850.984,600.47 870.105,633.298 889.227,667.523 908.348,702.652 927.47,738.262 946.591,774.007 965.713,809.601 984.834,844.805 1003.96,879.434 1023.08,913.349 1042.2,946.442 1061.32,978.628 1080.44,1009.84 1099.56,1040.05 1118.68,1069.24 1137.81,1097.38 1156.93,1124.47 1176.05,1150.53 1195.17,1175.56 1214.29,1199.58 1233.41,1222.62 1252.54,1244.7 1271.66,1265.84 1290.78,1286.07 1309.9,1305.42 1329.02,1323.93 1348.14,1341.62 1367.26,1358.52 1386.39,1374.66 1405.51,1390.07 1424.63,1404.78 1443.75,1418.82 1462.87,1432.21 1481.99,1444.99 1501.11,1457.17 1520.24,1468.79 1539.36,1479.87 1558.48,1490.43 1577.6,1500.49 1596.72,1510.08 1615.84,1519.22 1634.97,1527.92 1654.09,1536.22 1673.21,1544.12 1692.33,1551.64 1711.45,1558.81 1730.57,1565.64 1749.69,1572.14 1768.82,1578.33 1787.94,1584.22 1807.06,1589.83 1826.18,1595.17 1845.3,1600.25 1864.42,1605.09 1883.54,1609.7 1902.67,1614.09 1921.79,1618.26 1940.91,1622.23 1960.03,1626.02 1979.15,1629.61 1998.27,1633.04 2017.4,1636.3 2036.52,1639.4 2055.64,1642.35 2074.76,1645.16 2093.88,1647.83 2113,1650.38 2132.12,1652.79 2151.25,1655.1 2170.37,1657.29 2189.49,1659.37 2208.61,1661.35 2227.73,1663.24 2246.85,1665.04 2265.97,1666.75 2285.1,1668.37 2304.22,1669.92 2323.34,1671.39 2342.46,1672.79 2361.58,1674.12 2380.7,1675.38 2399.83,1676.59 2418.95,1677.73 2438.07,1678.83 2457.19,1679.86 2476.31,1680.85 2495.43,1681.79 2514.55,1682.68 2533.68,1683.53 2552.8,1684.34 2571.92,1685.11 "/>
<path clip-path="url(#clip710)" d="M1711.39 336.856 L2559.68 336.856 L2559.68 181.336 L1711.39 181.336  Z" fill="#ffffff" fill-rule="evenodd" fill-opacity="1"/>
<polyline clip-path="url(#clip710)" style="stroke:#000000; stroke-linecap:round; stroke-linejoin:round; stroke-width:4; stroke-opacity:1; fill:none" points="1711.39,336.856 2559.68,336.856 2559.68,181.336 1711.39,181.336 1711.39,336.856 "/>
<polyline clip-path="url(#clip710)" style="stroke:#ff0000; stroke-linecap:round; stroke-linejoin:round; stroke-width:8; stroke-opacity:1; fill:none" stroke-dasharray="32, 20" points="1738.41,233.176 1900.56,233.176 "/>
<path clip-path="url(#clip710)" d="M1927.59 215.896 L1932.27 215.896 L1932.27 250.456 L1927.59 250.456 L1927.59 215.896 Z" fill="#000000" fill-rule="nonzero" fill-opacity="1" /><path clip-path="url(#clip710)" d="M1962.94 234.808 L1962.94 250.456 L1958.68 250.456 L1958.68 234.947 Q1958.68 231.267 1957.24 229.438 Q1955.81 227.609 1952.94 227.609 Q1949.49 227.609 1947.5 229.808 Q1945.51 232.007 1945.51 235.804 L1945.51 250.456 L1941.22 250.456 L1941.22 224.531 L1945.51 224.531 L1945.51 228.558 Q1947.03 226.22 1949.09 225.063 Q1951.18 223.906 1953.89 223.906 Q1958.35 223.906 1960.64 226.683 Q1962.94 229.438 1962.94 234.808 Z" fill="#000000" fill-rule="nonzero" fill-opacity="1" /><path clip-path="url(#clip710)" d="M1988.49 228.466 L1988.49 214.438 L1992.75 214.438 L1992.75 250.456 L1988.49 250.456 L1988.49 246.567 Q1987.15 248.882 1985.09 250.016 Q1983.05 251.128 1980.18 251.128 Q1975.48 251.128 1972.52 247.378 Q1969.58 243.628 1969.58 237.517 Q1969.58 231.405 1972.52 227.655 Q1975.48 223.906 1980.18 223.906 Q1983.05 223.906 1985.09 225.04 Q1987.15 226.151 1988.49 228.466 M1973.98 237.517 Q1973.98 242.216 1975.9 244.901 Q1977.84 247.563 1981.22 247.563 Q1984.6 247.563 1986.55 244.901 Q1988.49 242.216 1988.49 237.517 Q1988.49 232.817 1986.55 230.155 Q1984.6 227.47 1981.22 227.47 Q1977.84 227.47 1975.9 230.155 Q1973.98 232.817 1973.98 237.517 Z" fill="#000000" fill-rule="nonzero" fill-opacity="1" /><path clip-path="url(#clip710)" d="M2001.52 224.531 L2005.78 224.531 L2005.78 250.456 L2001.52 250.456 L2001.52 224.531 M2001.52 214.438 L2005.78 214.438 L2005.78 219.831 L2001.52 219.831 L2001.52 214.438 Z" fill="#000000" fill-rule="nonzero" fill-opacity="1" /><path clip-path="url(#clip710)" d="M2011.64 224.531 L2016.15 224.531 L2024.26 246.29 L2032.36 224.531 L2036.87 224.531 L2027.15 250.456 L2021.36 250.456 L2011.64 224.531 Z" fill="#000000" fill-rule="nonzero" fill-opacity="1" /><path clip-path="url(#clip710)" d="M2042.75 224.531 L2047.01 224.531 L2047.01 250.456 L2042.75 250.456 L2042.75 224.531 M2042.75 214.438 L2047.01 214.438 L2047.01 219.831 L2042.75 219.831 L2042.75 214.438 Z" fill="#000000" fill-rule="nonzero" fill-opacity="1" /><path clip-path="url(#clip710)" d="M2072.98 228.466 L2072.98 214.438 L2077.24 214.438 L2077.24 250.456 L2072.98 250.456 L2072.98 246.567 Q2071.64 248.882 2069.58 250.016 Q2067.54 251.128 2064.67 251.128 Q2059.97 251.128 2057.01 247.378 Q2054.07 243.628 2054.07 237.517 Q2054.07 231.405 2057.01 227.655 Q2059.97 223.906 2064.67 223.906 Q2067.54 223.906 2069.58 225.04 Q2071.64 226.151 2072.98 228.466 M2058.47 237.517 Q2058.47 242.216 2060.39 244.901 Q2062.33 247.563 2065.71 247.563 Q2069.09 247.563 2071.04 244.901 Q2072.98 242.216 2072.98 237.517 Q2072.98 232.817 2071.04 230.155 Q2069.09 227.47 2065.71 227.47 Q2062.33 227.47 2060.39 230.155 Q2058.47 232.817 2058.47 237.517 Z" fill="#000000" fill-rule="nonzero" fill-opacity="1" /><path clip-path="url(#clip710)" d="M2085.57 240.225 L2085.57 224.531 L2089.83 224.531 L2089.83 240.063 Q2089.83 243.743 2091.27 245.595 Q2092.7 247.424 2095.57 247.424 Q2099.02 247.424 2101.01 245.225 Q2103.03 243.026 2103.03 239.229 L2103.03 224.531 L2107.29 224.531 L2107.29 250.456 L2103.03 250.456 L2103.03 246.475 Q2101.48 248.836 2099.42 249.993 Q2097.38 251.128 2094.67 251.128 Q2090.2 251.128 2087.89 248.35 Q2085.57 245.572 2085.57 240.225 M2096.29 223.906 L2096.29 223.906 Z" fill="#000000" fill-rule="nonzero" fill-opacity="1" /><path clip-path="url(#clip710)" d="M2127.84 237.424 Q2122.68 237.424 2120.69 238.604 Q2118.7 239.785 2118.7 242.632 Q2118.7 244.901 2120.18 246.243 Q2121.69 247.563 2124.26 247.563 Q2127.8 247.563 2129.93 245.063 Q2132.08 242.54 2132.08 238.373 L2132.08 237.424 L2127.84 237.424 M2136.34 235.665 L2136.34 250.456 L2132.08 250.456 L2132.08 246.521 Q2130.62 248.882 2128.44 250.016 Q2126.27 251.128 2123.12 251.128 Q2119.14 251.128 2116.78 248.905 Q2114.44 246.66 2114.44 242.91 Q2114.44 238.535 2117.36 236.313 Q2120.3 234.091 2126.11 234.091 L2132.08 234.091 L2132.08 233.674 Q2132.08 230.734 2130.13 229.137 Q2128.21 227.517 2124.72 227.517 Q2122.5 227.517 2120.39 228.049 Q2118.28 228.581 2116.34 229.646 L2116.34 225.711 Q2118.68 224.808 2120.88 224.368 Q2123.07 223.906 2125.16 223.906 Q2130.78 223.906 2133.56 226.822 Q2136.34 229.739 2136.34 235.665 Z" fill="#000000" fill-rule="nonzero" fill-opacity="1" /><path clip-path="url(#clip710)" d="M2145.11 214.438 L2149.37 214.438 L2149.37 250.456 L2145.11 250.456 L2145.11 214.438 Z" fill="#000000" fill-rule="nonzero" fill-opacity="1" /><path clip-path="url(#clip710)" d="M2156.13 235.572 L2168.61 235.572 L2168.61 239.368 L2156.13 239.368 L2156.13 235.572 Z" fill="#000000" fill-rule="nonzero" fill-opacity="1" /><path clip-path="url(#clip710)" d="M2194 237.517 Q2194 232.817 2192.06 230.155 Q2190.13 227.47 2186.75 227.47 Q2183.38 227.47 2181.43 230.155 Q2179.51 232.817 2179.51 237.517 Q2179.51 242.216 2181.43 244.901 Q2183.38 247.563 2186.75 247.563 Q2190.13 247.563 2192.06 244.901 Q2194 242.216 2194 237.517 M2179.51 228.466 Q2180.85 226.151 2182.89 225.04 Q2184.95 223.906 2187.8 223.906 Q2192.52 223.906 2195.46 227.655 Q2198.42 231.405 2198.42 237.517 Q2198.42 243.628 2195.46 247.378 Q2192.52 251.128 2187.8 251.128 Q2184.95 251.128 2182.89 250.016 Q2180.85 248.882 2179.51 246.567 L2179.51 250.456 L2175.23 250.456 L2175.23 214.438 L2179.51 214.438 L2179.51 228.466 Z" fill="#000000" fill-rule="nonzero" fill-opacity="1" /><path clip-path="url(#clip710)" d="M2217.26 237.424 Q2212.1 237.424 2210.11 238.604 Q2208.12 239.785 2208.12 242.632 Q2208.12 244.901 2209.6 246.243 Q2211.11 247.563 2213.68 247.563 Q2217.22 247.563 2219.35 245.063 Q2221.5 242.54 2221.5 238.373 L2221.5 237.424 L2217.26 237.424 M2225.76 235.665 L2225.76 250.456 L2221.5 250.456 L2221.5 246.521 Q2220.04 248.882 2217.87 250.016 Q2215.69 251.128 2212.54 251.128 Q2208.56 251.128 2206.2 248.905 Q2203.86 246.66 2203.86 242.91 Q2203.86 238.535 2206.78 236.313 Q2209.72 234.091 2215.53 234.091 L2221.5 234.091 L2221.5 233.674 Q2221.5 230.734 2219.56 229.137 Q2217.63 227.517 2214.14 227.517 Q2211.92 227.517 2209.81 228.049 Q2207.7 228.581 2205.76 229.646 L2205.76 225.711 Q2208.1 224.808 2210.3 224.368 Q2212.5 223.906 2214.58 223.906 Q2220.2 223.906 2222.98 226.822 Q2225.76 229.739 2225.76 235.665 Z" fill="#000000" fill-rule="nonzero" fill-opacity="1" /><path clip-path="url(#clip710)" d="M2251.06 225.294 L2251.06 229.322 Q2249.25 228.396 2247.31 227.933 Q2245.37 227.47 2243.28 227.47 Q2240.11 227.47 2238.51 228.443 Q2236.94 229.415 2236.94 231.359 Q2236.94 232.841 2238.07 233.697 Q2239.21 234.53 2242.63 235.294 L2244.09 235.618 Q2248.63 236.591 2250.53 238.373 Q2252.45 240.132 2252.45 243.304 Q2252.45 246.915 2249.58 249.021 Q2246.73 251.128 2241.73 251.128 Q2239.65 251.128 2237.38 250.711 Q2235.13 250.317 2232.63 249.507 L2232.63 245.109 Q2235 246.336 2237.29 246.961 Q2239.58 247.563 2241.82 247.563 Q2244.83 247.563 2246.45 246.544 Q2248.07 245.503 2248.07 243.628 Q2248.07 241.892 2246.89 240.966 Q2245.74 240.04 2241.78 239.183 L2240.3 238.836 Q2236.34 238.003 2234.58 236.29 Q2232.82 234.554 2232.82 231.544 Q2232.82 227.887 2235.41 225.896 Q2238 223.906 2242.77 223.906 Q2245.13 223.906 2247.22 224.253 Q2249.3 224.6 2251.06 225.294 Z" fill="#000000" fill-rule="nonzero" fill-opacity="1" /><path clip-path="url(#clip710)" d="M2281.41 236.429 L2281.41 238.512 L2261.82 238.512 Q2262.1 242.91 2264.46 245.225 Q2266.85 247.516 2271.08 247.516 Q2273.54 247.516 2275.83 246.915 Q2278.14 246.313 2280.41 245.109 L2280.41 249.137 Q2278.12 250.109 2275.71 250.618 Q2273.31 251.128 2270.83 251.128 Q2264.62 251.128 2260.99 247.516 Q2257.38 243.905 2257.38 237.748 Q2257.38 231.382 2260.81 227.655 Q2264.25 223.906 2270.09 223.906 Q2275.32 223.906 2278.35 227.285 Q2281.41 230.642 2281.41 236.429 M2277.15 235.179 Q2277.1 231.683 2275.18 229.6 Q2273.28 227.517 2270.13 227.517 Q2266.57 227.517 2264.42 229.53 Q2262.29 231.544 2261.96 235.202 L2277.15 235.179 Z" fill="#000000" fill-rule="nonzero" fill-opacity="1" /><path clip-path="url(#clip710)" d="M2305.46 228.466 L2305.46 214.438 L2309.72 214.438 L2309.72 250.456 L2305.46 250.456 L2305.46 246.567 Q2304.12 248.882 2302.06 250.016 Q2300.02 251.128 2297.15 251.128 Q2292.45 251.128 2289.49 247.378 Q2286.55 243.628 2286.55 237.517 Q2286.55 231.405 2289.49 227.655 Q2292.45 223.906 2297.15 223.906 Q2300.02 223.906 2302.06 225.04 Q2304.12 226.151 2305.46 228.466 M2290.94 237.517 Q2290.94 242.216 2292.87 244.901 Q2294.81 247.563 2298.19 247.563 Q2301.57 247.563 2303.51 244.901 Q2305.46 242.216 2305.46 237.517 Q2305.46 232.817 2303.51 230.155 Q2301.57 227.47 2298.19 227.47 Q2294.81 227.47 2292.87 230.155 Q2290.94 232.817 2290.94 237.517 Z" fill="#000000" fill-rule="nonzero" fill-opacity="1" /><path clip-path="url(#clip710)" d="M2343.79 214.484 Q2340.69 219.808 2339.18 225.017 Q2337.68 230.225 2337.68 235.572 Q2337.68 240.919 2339.18 246.174 Q2340.71 251.405 2343.79 256.706 L2340.09 256.706 Q2336.62 251.266 2334.88 246.012 Q2333.17 240.757 2333.17 235.572 Q2333.17 230.41 2334.88 225.179 Q2336.59 219.947 2340.09 214.484 L2343.79 214.484 Z" fill="#000000" fill-rule="nonzero" fill-opacity="1" /><path clip-path="url(#clip710)" d="M2362.1 227.517 Q2358.68 227.517 2356.68 230.202 Q2354.69 232.864 2354.69 237.517 Q2354.69 242.169 2356.66 244.854 Q2358.65 247.516 2362.1 247.516 Q2365.5 247.516 2367.49 244.831 Q2369.49 242.146 2369.49 237.517 Q2369.49 232.91 2367.49 230.225 Q2365.5 227.517 2362.1 227.517 M2362.1 223.906 Q2367.66 223.906 2370.83 227.517 Q2374 231.128 2374 237.517 Q2374 243.882 2370.83 247.516 Q2367.66 251.128 2362.1 251.128 Q2356.52 251.128 2353.35 247.516 Q2350.2 243.882 2350.2 237.517 Q2350.2 231.128 2353.35 227.517 Q2356.52 223.906 2362.1 223.906 Z" fill="#000000" fill-rule="nonzero" fill-opacity="1" /><path clip-path="url(#clip710)" d="M2396.08 228.512 Q2395.36 228.095 2394.51 227.91 Q2393.67 227.702 2392.66 227.702 Q2389.05 227.702 2387.1 230.063 Q2385.18 232.401 2385.18 236.799 L2385.18 250.456 L2380.9 250.456 L2380.9 224.531 L2385.18 224.531 L2385.18 228.558 Q2386.52 226.197 2388.68 225.063 Q2390.83 223.906 2393.91 223.906 Q2394.35 223.906 2394.88 223.975 Q2395.41 224.021 2396.06 224.137 L2396.08 228.512 Z" fill="#000000" fill-rule="nonzero" fill-opacity="1" /><path clip-path="url(#clip710)" d="M2416.78 228.466 L2416.78 214.438 L2421.04 214.438 L2421.04 250.456 L2416.78 250.456 L2416.78 246.567 Q2415.43 248.882 2413.37 250.016 Q2411.34 251.128 2408.47 251.128 Q2403.77 251.128 2400.8 247.378 Q2397.86 243.628 2397.86 237.517 Q2397.86 231.405 2400.8 227.655 Q2403.77 223.906 2408.47 223.906 Q2411.34 223.906 2413.37 225.04 Q2415.43 226.151 2416.78 228.466 M2402.26 237.517 Q2402.26 242.216 2404.18 244.901 Q2406.13 247.563 2409.51 247.563 Q2412.89 247.563 2414.83 244.901 Q2416.78 242.216 2416.78 237.517 Q2416.78 232.817 2414.83 230.155 Q2412.89 227.47 2409.51 227.47 Q2406.13 227.47 2404.18 230.155 Q2402.26 232.817 2402.26 237.517 Z" fill="#000000" fill-rule="nonzero" fill-opacity="1" /><path clip-path="url(#clip710)" d="M2451.98 236.429 L2451.98 238.512 L2432.4 238.512 Q2432.68 242.91 2435.04 245.225 Q2437.42 247.516 2441.66 247.516 Q2444.11 247.516 2446.41 246.915 Q2448.72 246.313 2450.99 245.109 L2450.99 249.137 Q2448.7 250.109 2446.29 250.618 Q2443.88 251.128 2441.41 251.128 Q2435.2 251.128 2431.57 247.516 Q2427.96 243.905 2427.96 237.748 Q2427.96 231.382 2431.38 227.655 Q2434.83 223.906 2440.67 223.906 Q2445.9 223.906 2448.93 227.285 Q2451.98 230.642 2451.98 236.429 M2447.73 235.179 Q2447.68 231.683 2445.76 229.6 Q2443.86 227.517 2440.71 227.517 Q2437.15 227.517 2434.99 229.53 Q2432.86 231.544 2432.54 235.202 L2447.73 235.179 Z" fill="#000000" fill-rule="nonzero" fill-opacity="1" /><path clip-path="url(#clip710)" d="M2474 228.512 Q2473.28 228.095 2472.42 227.91 Q2471.59 227.702 2470.57 227.702 Q2466.96 227.702 2465.02 230.063 Q2463.1 232.401 2463.1 236.799 L2463.1 250.456 L2458.81 250.456 L2458.81 224.531 L2463.1 224.531 L2463.1 228.558 Q2464.44 226.197 2466.59 225.063 Q2468.74 223.906 2471.82 223.906 Q2472.26 223.906 2472.79 223.975 Q2473.33 224.021 2473.98 224.137 L2474 228.512 Z" fill="#000000" fill-rule="nonzero" fill-opacity="1" /><path clip-path="url(#clip710)" d="M2473.28 235.572 L2485.76 235.572 L2485.76 239.368 L2473.28 239.368 L2473.28 235.572 Z" fill="#000000" fill-rule="nonzero" fill-opacity="1" /><path clip-path="url(#clip710)" d="M2493.95 246.521 L2501.59 246.521 L2501.59 220.156 L2493.28 221.822 L2493.28 217.563 L2501.54 215.896 L2506.22 215.896 L2506.22 246.521 L2513.86 246.521 L2513.86 250.456 L2493.95 250.456 L2493.95 246.521 Z" fill="#000000" fill-rule="nonzero" fill-opacity="1" /><path clip-path="url(#clip710)" d="M2522.03 214.484 L2525.73 214.484 Q2529.21 219.947 2530.92 225.179 Q2532.66 230.41 2532.66 235.572 Q2532.66 240.757 2530.92 246.012 Q2529.21 251.266 2525.73 256.706 L2522.03 256.706 Q2525.11 251.405 2526.61 246.174 Q2528.14 240.919 2528.14 235.572 Q2528.14 230.225 2526.61 225.017 Q2525.11 219.808 2522.03 214.484 Z" fill="#000000" fill-rule="nonzero" fill-opacity="1" /><polyline clip-path="url(#clip710)" style="stroke:#8b0000; stroke-linecap:round; stroke-linejoin:round; stroke-width:8; stroke-opacity:1; fill:none" points="1738.41,285.016 1900.56,285.016 "/>
<path clip-path="url(#clip710)" d="M1932.27 271.579 L1932.27 284.565 L1938.15 284.565 Q1941.41 284.565 1943.19 282.875 Q1944.97 281.185 1944.97 278.06 Q1944.97 274.958 1943.19 273.269 Q1941.41 271.579 1938.15 271.579 L1932.27 271.579 M1927.59 267.736 L1938.15 267.736 Q1943.96 267.736 1946.92 270.375 Q1949.9 272.991 1949.9 278.06 Q1949.9 283.176 1946.92 285.792 Q1943.96 288.407 1938.15 288.407 L1932.27 288.407 L1932.27 302.296 L1927.59 302.296 L1927.59 267.736 Z" fill="#000000" fill-rule="nonzero" fill-opacity="1" /><path clip-path="url(#clip710)" d="M1965.64 289.264 Q1960.48 289.264 1958.49 290.444 Q1956.5 291.625 1956.5 294.472 Q1956.5 296.741 1957.98 298.083 Q1959.49 299.403 1962.06 299.403 Q1965.6 299.403 1967.73 296.903 Q1969.88 294.38 1969.88 290.213 L1969.88 289.264 L1965.64 289.264 M1974.14 287.505 L1974.14 302.296 L1969.88 302.296 L1969.88 298.361 Q1968.42 300.722 1966.25 301.856 Q1964.07 302.968 1960.92 302.968 Q1956.94 302.968 1954.58 300.745 Q1952.24 298.5 1952.24 294.75 Q1952.24 290.375 1955.16 288.153 Q1958.1 285.931 1963.91 285.931 L1969.88 285.931 L1969.88 285.514 Q1969.88 282.574 1967.94 280.977 Q1966.02 279.357 1962.52 279.357 Q1960.3 279.357 1958.19 279.889 Q1956.08 280.421 1954.14 281.486 L1954.14 277.551 Q1956.48 276.648 1958.68 276.208 Q1960.88 275.746 1962.96 275.746 Q1968.58 275.746 1971.36 278.662 Q1974.14 281.579 1974.14 287.505 Z" fill="#000000" fill-rule="nonzero" fill-opacity="1" /><path clip-path="url(#clip710)" d="M1982.91 276.371 L1987.17 276.371 L1987.17 302.296 L1982.91 302.296 L1982.91 276.371 M1982.91 266.278 L1987.17 266.278 L1987.17 271.671 L1982.91 271.671 L1982.91 266.278 Z" fill="#000000" fill-rule="nonzero" fill-opacity="1" /><path clip-path="url(#clip710)" d="M2011.11 280.352 Q2010.39 279.935 2009.53 279.75 Q2008.7 279.542 2007.68 279.542 Q2004.07 279.542 2002.13 281.903 Q2000.2 284.241 2000.2 288.639 L2000.2 302.296 L1995.92 302.296 L1995.92 276.371 L2000.2 276.371 L2000.2 280.398 Q2001.55 278.037 2003.7 276.903 Q2005.85 275.746 2008.93 275.746 Q2009.37 275.746 2009.9 275.815 Q2010.44 275.861 2011.08 275.977 L2011.11 280.352 Z" fill="#000000" fill-rule="nonzero" fill-opacity="1" /><path clip-path="url(#clip710)" d="M2010.39 287.412 L2022.87 287.412 L2022.87 291.208 L2010.39 291.208 L2010.39 287.412 Z" fill="#000000" fill-rule="nonzero" fill-opacity="1" /><path clip-path="url(#clip710)" d="M2048.26 289.357 Q2048.26 284.657 2046.32 281.995 Q2044.39 279.31 2041.01 279.31 Q2037.64 279.31 2035.69 281.995 Q2033.77 284.657 2033.77 289.357 Q2033.77 294.056 2035.69 296.741 Q2037.64 299.403 2041.01 299.403 Q2044.39 299.403 2046.32 296.741 Q2048.26 294.056 2048.26 289.357 M2033.77 280.306 Q2035.11 277.991 2037.15 276.88 Q2039.21 275.746 2042.06 275.746 Q2046.78 275.746 2049.72 279.495 Q2052.68 283.245 2052.68 289.357 Q2052.68 295.468 2049.72 299.218 Q2046.78 302.968 2042.06 302.968 Q2039.21 302.968 2037.15 301.856 Q2035.11 300.722 2033.77 298.407 L2033.77 302.296 L2029.49 302.296 L2029.49 266.278 L2033.77 266.278 L2033.77 280.306 Z" fill="#000000" fill-rule="nonzero" fill-opacity="1" /><path clip-path="url(#clip710)" d="M2071.52 289.264 Q2066.36 289.264 2064.37 290.444 Q2062.38 291.625 2062.38 294.472 Q2062.38 296.741 2063.86 298.083 Q2065.37 299.403 2067.94 299.403 Q2071.48 299.403 2073.61 296.903 Q2075.76 294.38 2075.76 290.213 L2075.76 289.264 L2071.52 289.264 M2080.02 287.505 L2080.02 302.296 L2075.76 302.296 L2075.76 298.361 Q2074.3 300.722 2072.13 301.856 Q2069.95 302.968 2066.8 302.968 Q2062.82 302.968 2060.46 300.745 Q2058.12 298.5 2058.12 294.75 Q2058.12 290.375 2061.04 288.153 Q2063.98 285.931 2069.79 285.931 L2075.76 285.931 L2075.76 285.514 Q2075.76 282.574 2073.82 280.977 Q2071.89 279.357 2068.4 279.357 Q2066.18 279.357 2064.07 279.889 Q2061.96 280.421 2060.02 281.486 L2060.02 277.551 Q2062.36 276.648 2064.56 276.208 Q2066.76 275.746 2068.84 275.746 Q2074.46 275.746 2077.24 278.662 Q2080.02 281.579 2080.02 287.505 Z" fill="#000000" fill-rule="nonzero" fill-opacity="1" /><path clip-path="url(#clip710)" d="M2105.32 277.134 L2105.32 281.162 Q2103.51 280.236 2101.57 279.773 Q2099.63 279.31 2097.54 279.31 Q2094.37 279.31 2092.77 280.283 Q2091.2 281.255 2091.2 283.199 Q2091.2 284.681 2092.33 285.537 Q2093.47 286.37 2096.89 287.134 L2098.35 287.458 Q2102.89 288.431 2104.79 290.213 Q2106.71 291.972 2106.71 295.144 Q2106.71 298.755 2103.84 300.861 Q2100.99 302.968 2095.99 302.968 Q2093.91 302.968 2091.64 302.551 Q2089.39 302.157 2086.89 301.347 L2086.89 296.949 Q2089.26 298.176 2091.55 298.801 Q2093.84 299.403 2096.08 299.403 Q2099.09 299.403 2100.71 298.384 Q2102.33 297.343 2102.33 295.468 Q2102.33 293.732 2101.15 292.806 Q2100 291.88 2096.04 291.023 L2094.56 290.676 Q2090.6 289.843 2088.84 288.13 Q2087.08 286.394 2087.08 283.384 Q2087.08 279.727 2089.67 277.736 Q2092.26 275.746 2097.03 275.746 Q2099.39 275.746 2101.48 276.093 Q2103.56 276.44 2105.32 277.134 Z" fill="#000000" fill-rule="nonzero" fill-opacity="1" /><path clip-path="url(#clip710)" d="M2135.67 288.269 L2135.67 290.352 L2116.08 290.352 Q2116.36 294.75 2118.72 297.065 Q2121.11 299.356 2125.34 299.356 Q2127.8 299.356 2130.09 298.755 Q2132.4 298.153 2134.67 296.949 L2134.67 300.977 Q2132.38 301.949 2129.97 302.458 Q2127.57 302.968 2125.09 302.968 Q2118.88 302.968 2115.25 299.356 Q2111.64 295.745 2111.64 289.588 Q2111.64 283.222 2115.07 279.495 Q2118.51 275.746 2124.35 275.746 Q2129.58 275.746 2132.61 279.125 Q2135.67 282.482 2135.67 288.269 M2131.41 287.019 Q2131.36 283.523 2129.44 281.44 Q2127.54 279.357 2124.39 279.357 Q2120.83 279.357 2118.68 281.37 Q2116.55 283.384 2116.22 287.042 L2131.41 287.019 Z" fill="#000000" fill-rule="nonzero" fill-opacity="1" /><path clip-path="url(#clip710)" d="M2159.72 280.306 L2159.72 266.278 L2163.98 266.278 L2163.98 302.296 L2159.72 302.296 L2159.72 298.407 Q2158.38 300.722 2156.32 301.856 Q2154.28 302.968 2151.41 302.968 Q2146.71 302.968 2143.75 299.218 Q2140.81 295.468 2140.81 289.357 Q2140.81 283.245 2143.75 279.495 Q2146.71 275.746 2151.41 275.746 Q2154.28 275.746 2156.32 276.88 Q2158.38 277.991 2159.72 280.306 M2145.2 289.357 Q2145.2 294.056 2147.13 296.741 Q2149.07 299.403 2152.45 299.403 Q2155.83 299.403 2157.77 296.741 Q2159.72 294.056 2159.72 289.357 Q2159.72 284.657 2157.77 281.995 Q2155.83 279.31 2152.45 279.31 Q2149.07 279.31 2147.13 281.995 Q2145.2 284.657 2145.2 289.357 Z" fill="#000000" fill-rule="nonzero" fill-opacity="1" /><path clip-path="url(#clip710)" d="M2198.05 266.324 Q2194.95 271.648 2193.44 276.857 Q2191.94 282.065 2191.94 287.412 Q2191.94 292.759 2193.44 298.014 Q2194.97 303.245 2198.05 308.546 L2194.35 308.546 Q2190.88 303.106 2189.14 297.852 Q2187.43 292.597 2187.43 287.412 Q2187.43 282.25 2189.14 277.019 Q2190.85 271.787 2194.35 266.324 L2198.05 266.324 Z" fill="#000000" fill-rule="nonzero" fill-opacity="1" /><path clip-path="url(#clip710)" d="M2216.36 279.357 Q2212.94 279.357 2210.94 282.042 Q2208.95 284.704 2208.95 289.357 Q2208.95 294.009 2210.92 296.694 Q2212.91 299.356 2216.36 299.356 Q2219.76 299.356 2221.75 296.671 Q2223.75 293.986 2223.75 289.357 Q2223.75 284.75 2221.75 282.065 Q2219.76 279.357 2216.36 279.357 M2216.36 275.746 Q2221.92 275.746 2225.09 279.357 Q2228.26 282.968 2228.26 289.357 Q2228.26 295.722 2225.09 299.356 Q2221.92 302.968 2216.36 302.968 Q2210.78 302.968 2207.61 299.356 Q2204.46 295.722 2204.46 289.357 Q2204.46 282.968 2207.61 279.357 Q2210.78 275.746 2216.36 275.746 Z" fill="#000000" fill-rule="nonzero" fill-opacity="1" /><path clip-path="url(#clip710)" d="M2250.34 280.352 Q2249.62 279.935 2248.77 279.75 Q2247.94 279.542 2246.92 279.542 Q2243.31 279.542 2241.36 281.903 Q2239.44 284.241 2239.44 288.639 L2239.44 302.296 L2235.16 302.296 L2235.16 276.371 L2239.44 276.371 L2239.44 280.398 Q2240.78 278.037 2242.94 276.903 Q2245.09 275.746 2248.17 275.746 Q2248.61 275.746 2249.14 275.815 Q2249.67 275.861 2250.32 275.977 L2250.34 280.352 Z" fill="#000000" fill-rule="nonzero" fill-opacity="1" /><path clip-path="url(#clip710)" d="M2271.04 280.306 L2271.04 266.278 L2275.3 266.278 L2275.3 302.296 L2271.04 302.296 L2271.04 298.407 Q2269.69 300.722 2267.63 301.856 Q2265.6 302.968 2262.73 302.968 Q2258.03 302.968 2255.06 299.218 Q2252.12 295.468 2252.12 289.357 Q2252.12 283.245 2255.06 279.495 Q2258.03 275.746 2262.73 275.746 Q2265.6 275.746 2267.63 276.88 Q2269.69 277.991 2271.04 280.306 M2256.52 289.357 Q2256.52 294.056 2258.44 296.741 Q2260.39 299.403 2263.77 299.403 Q2267.15 299.403 2269.09 296.741 Q2271.04 294.056 2271.04 289.357 Q2271.04 284.657 2269.09 281.995 Q2267.15 279.31 2263.77 279.31 Q2260.39 279.31 2258.44 281.995 Q2256.52 284.657 2256.52 289.357 Z" fill="#000000" fill-rule="nonzero" fill-opacity="1" /><path clip-path="url(#clip710)" d="M2306.24 288.269 L2306.24 290.352 L2286.66 290.352 Q2286.94 294.75 2289.3 297.065 Q2291.68 299.356 2295.92 299.356 Q2298.37 299.356 2300.67 298.755 Q2302.98 298.153 2305.25 296.949 L2305.25 300.977 Q2302.96 301.949 2300.55 302.458 Q2298.14 302.968 2295.67 302.968 Q2289.46 302.968 2285.83 299.356 Q2282.22 295.745 2282.22 289.588 Q2282.22 283.222 2285.64 279.495 Q2289.09 275.746 2294.93 275.746 Q2300.16 275.746 2303.19 279.125 Q2306.24 282.482 2306.24 288.269 M2301.99 287.019 Q2301.94 283.523 2300.02 281.44 Q2298.12 279.357 2294.97 279.357 Q2291.41 279.357 2289.25 281.37 Q2287.12 283.384 2286.8 287.042 L2301.99 287.019 Z" fill="#000000" fill-rule="nonzero" fill-opacity="1" /><path clip-path="url(#clip710)" d="M2328.26 280.352 Q2327.54 279.935 2326.68 279.75 Q2325.85 279.542 2324.83 279.542 Q2321.22 279.542 2319.28 281.903 Q2317.36 284.241 2317.36 288.639 L2317.36 302.296 L2313.07 302.296 L2313.07 276.371 L2317.36 276.371 L2317.36 280.398 Q2318.7 278.037 2320.85 276.903 Q2323 275.746 2326.08 275.746 Q2326.52 275.746 2327.05 275.815 Q2327.59 275.861 2328.24 275.977 L2328.26 280.352 Z" fill="#000000" fill-rule="nonzero" fill-opacity="1" /><path clip-path="url(#clip710)" d="M2327.54 287.412 L2340.02 287.412 L2340.02 291.208 L2327.54 291.208 L2327.54 287.412 Z" fill="#000000" fill-rule="nonzero" fill-opacity="1" /><path clip-path="url(#clip710)" d="M2351.43 298.361 L2367.75 298.361 L2367.75 302.296 L2345.8 302.296 L2345.8 298.361 Q2348.47 295.607 2353.05 290.977 Q2357.66 286.324 2358.84 284.982 Q2361.08 282.458 2361.96 280.722 Q2362.86 278.963 2362.86 277.273 Q2362.86 274.519 2360.92 272.783 Q2359 271.046 2355.9 271.046 Q2353.7 271.046 2351.24 271.81 Q2348.81 272.574 2346.04 274.125 L2346.04 269.403 Q2348.86 268.269 2351.31 267.69 Q2353.77 267.111 2355.8 267.111 Q2361.18 267.111 2364.37 269.796 Q2367.56 272.482 2367.56 276.972 Q2367.56 279.102 2366.75 281.023 Q2365.97 282.921 2363.86 285.514 Q2363.28 286.185 2360.18 289.403 Q2357.08 292.597 2351.43 298.361 Z" fill="#000000" fill-rule="nonzero" fill-opacity="1" /><path clip-path="url(#clip710)" d="M2376.29 266.324 L2379.99 266.324 Q2383.47 271.787 2385.18 277.019 Q2386.92 282.25 2386.92 287.412 Q2386.92 292.597 2385.18 297.852 Q2383.47 303.106 2379.99 308.546 L2376.29 308.546 Q2379.37 303.245 2380.87 298.014 Q2382.4 292.759 2382.4 287.412 Q2382.4 282.065 2380.87 276.857 Q2379.37 271.648 2376.29 266.324 Z" fill="#000000" fill-rule="nonzero" fill-opacity="1" /></svg>
