<?xml version="1.0" encoding="utf-8"?>
<svg xmlns="http://www.w3.org/2000/svg" xmlns:xlink="http://www.w3.org/1999/xlink" width="528" height="336" viewBox="0 0 2112 1344">
<defs>
  <clipPath id="clip870">
    <rect x="0" y="0" width="2112" height="1344"/>
  </clipPath>
</defs>
<path clip-path="url(#clip870)" d="M0 1344 L2112 1344 L2112 2.13163e-14 L0 2.13163e-14  Z" fill="#ffffff" fill-rule="evenodd" fill-opacity="1"/>
<defs>
  <clipPath id="clip871">
    <rect x="200" y="120" width="1866" height="1054"/>
  </clipPath>
</defs>
<path clip-path="url(#clip870)" d="M200.081 1173.47 L2064.76 1173.47 L2064.76 120.723 L200.081 120.723  Z" fill="#ffffff" fill-rule="evenodd" fill-opacity="1"/>
<polyline clip-path="url(#clip871)" style="stroke:#000000; stroke-linecap:round; stroke-linejoin:round; stroke-width:2; stroke-opacity:0.1; fill:none" points="201.036,1173.47 201.036,120.723 "/>
<polyline clip-path="url(#clip871)" style="stroke:#000000; stroke-linecap:round; stroke-linejoin:round; stroke-width:2; stroke-opacity:0.1; fill:none" points="539.721,1173.47 539.721,120.723 "/>
<polyline clip-path="url(#clip871)" style="stroke:#000000; stroke-linecap:round; stroke-linejoin:round; stroke-width:2; stroke-opacity:0.1; fill:none" points="878.405,1173.47 878.405,120.723 "/>
<polyline clip-path="url(#clip871)" style="stroke:#000000; stroke-linecap:round; stroke-linejoin:round; stroke-width:2; stroke-opacity:0.1; fill:none" points="1217.09,1173.47 1217.09,120.723 "/>
<polyline clip-path="url(#clip871)" style="stroke:#000000; stroke-linecap:round; stroke-linejoin:round; stroke-width:2; stroke-opacity:0.1; fill:none" points="1555.77,1173.47 1555.77,120.723 "/>
<polyline clip-path="url(#clip871)" style="stroke:#000000; stroke-linecap:round; stroke-linejoin:round; stroke-width:2; stroke-opacity:0.1; fill:none" points="1894.46,1173.47 1894.46,120.723 "/>
<polyline clip-path="url(#clip871)" style="stroke:#000000; stroke-linecap:round; stroke-linejoin:round; stroke-width:2; stroke-opacity:0.1; fill:none" points="200.081,1173.47 2064.76,1173.47 "/>
<polyline clip-path="url(#clip871)" style="stroke:#000000; stroke-linecap:round; stroke-linejoin:round; stroke-width:2; stroke-opacity:0.1; fill:none" points="200.081,913.533 2064.76,913.533 "/>
<polyline clip-path="url(#clip871)" style="stroke:#000000; stroke-linecap:round; stroke-linejoin:round; stroke-width:2; stroke-opacity:0.1; fill:none" points="200.081,653.595 2064.76,653.595 "/>
<polyline clip-path="url(#clip871)" style="stroke:#000000; stroke-linecap:round; stroke-linejoin:round; stroke-width:2; stroke-opacity:0.1; fill:none" points="200.081,393.658 2064.76,393.658 "/>
<polyline clip-path="url(#clip871)" style="stroke:#000000; stroke-linecap:round; stroke-linejoin:round; stroke-width:2; stroke-opacity:0.1; fill:none" points="200.081,133.72 2064.76,133.72 "/>
<polyline clip-path="url(#clip870)" style="stroke:#000000; stroke-linecap:round; stroke-linejoin:round; stroke-width:4; stroke-opacity:1; fill:none" points="200.081,1173.47 2064.76,1173.47 "/>
<polyline clip-path="url(#clip870)" style="stroke:#000000; stroke-linecap:round; stroke-linejoin:round; stroke-width:4; stroke-opacity:1; fill:none" points="201.036,1173.47 201.036,1154.57 "/>
<polyline clip-path="url(#clip870)" style="stroke:#000000; stroke-linecap:round; stroke-linejoin:round; stroke-width:4; stroke-opacity:1; fill:none" points="539.721,1173.47 539.721,1154.57 "/>
<polyline clip-path="url(#clip870)" style="stroke:#000000; stroke-linecap:round; stroke-linejoin:round; stroke-width:4; stroke-opacity:1; fill:none" points="878.405,1173.47 878.405,1154.57 "/>
<polyline clip-path="url(#clip870)" style="stroke:#000000; stroke-linecap:round; stroke-linejoin:round; stroke-width:4; stroke-opacity:1; fill:none" points="1217.09,1173.47 1217.09,1154.57 "/>
<polyline clip-path="url(#clip870)" style="stroke:#000000; stroke-linecap:round; stroke-linejoin:round; stroke-width:4; stroke-opacity:1; fill:none" points="1555.77,1173.47 1555.77,1154.57 "/>
<polyline clip-path="url(#clip870)" style="stroke:#000000; stroke-linecap:round; stroke-linejoin:round; stroke-width:4; stroke-opacity:1; fill:none" points="1894.46,1173.47 1894.46,1154.57 "/>
<path clip-path="url(#clip870)" d="M201.036 1202.09 Q197.425 1202.09 195.596 1205.65 Q193.791 1209.19 193.791 1216.32 Q193.791 1223.43 195.596 1226.99 Q197.425 1230.53 201.036 1230.53 Q204.67 1230.53 206.476 1226.99 Q208.305 1223.43 208.305 1216.32 Q208.305 1209.19 206.476 1205.65 Q204.67 1202.09 201.036 1202.09 M201.036 1198.38 Q206.846 1198.38 209.902 1202.99 Q212.98 1207.57 212.98 1216.32 Q212.98 1225.05 209.902 1229.65 Q206.846 1234.24 201.036 1234.24 Q195.226 1234.24 192.147 1229.65 Q189.092 1225.05 189.092 1216.32 Q189.092 1207.57 192.147 1202.99 Q195.226 1198.38 201.036 1198.38 Z" fill="#000000" fill-rule="nonzero" fill-opacity="1" /><path clip-path="url(#clip870)" d="M514.408 1229.63 L522.047 1229.63 L522.047 1203.27 L513.737 1204.93 L513.737 1200.67 L522.001 1199.01 L526.677 1199.01 L526.677 1229.63 L534.316 1229.63 L534.316 1233.57 L514.408 1233.57 L514.408 1229.63 Z" fill="#000000" fill-rule="nonzero" fill-opacity="1" /><path clip-path="url(#clip870)" d="M553.76 1202.09 Q550.149 1202.09 548.32 1205.65 Q546.515 1209.19 546.515 1216.32 Q546.515 1223.43 548.32 1226.99 Q550.149 1230.53 553.76 1230.53 Q557.394 1230.53 559.2 1226.99 Q561.028 1223.43 561.028 1216.32 Q561.028 1209.19 559.2 1205.65 Q557.394 1202.09 553.76 1202.09 M553.76 1198.38 Q559.57 1198.38 562.626 1202.99 Q565.704 1207.57 565.704 1216.32 Q565.704 1225.05 562.626 1229.65 Q559.57 1234.24 553.76 1234.24 Q547.95 1234.24 544.871 1229.65 Q541.815 1225.05 541.815 1216.32 Q541.815 1207.57 544.871 1202.99 Q547.95 1198.38 553.76 1198.38 Z" fill="#000000" fill-rule="nonzero" fill-opacity="1" /><path clip-path="url(#clip870)" d="M857.178 1229.63 L873.498 1229.63 L873.498 1233.57 L851.553 1233.57 L851.553 1229.63 Q854.215 1226.88 858.799 1222.25 Q863.405 1217.59 864.586 1216.25 Q866.831 1213.73 867.711 1211.99 Q868.613 1210.23 868.613 1208.54 Q868.613 1205.79 866.669 1204.05 Q864.748 1202.32 861.646 1202.32 Q859.447 1202.32 856.993 1203.08 Q854.563 1203.84 851.785 1205.4 L851.785 1200.67 Q854.609 1199.54 857.063 1198.96 Q859.516 1198.38 861.553 1198.38 Q866.924 1198.38 870.118 1201.07 Q873.312 1203.75 873.312 1208.24 Q873.312 1210.37 872.502 1212.29 Q871.715 1214.19 869.609 1216.78 Q869.03 1217.46 865.928 1220.67 Q862.826 1223.87 857.178 1229.63 Z" fill="#000000" fill-rule="nonzero" fill-opacity="1" /><path clip-path="url(#clip870)" d="M893.312 1202.09 Q889.701 1202.09 887.873 1205.65 Q886.067 1209.19 886.067 1216.32 Q886.067 1223.43 887.873 1226.99 Q889.701 1230.53 893.312 1230.53 Q896.947 1230.53 898.752 1226.99 Q900.581 1223.43 900.581 1216.32 Q900.581 1209.19 898.752 1205.65 Q896.947 1202.09 893.312 1202.09 M893.312 1198.38 Q899.123 1198.38 902.178 1202.99 Q905.257 1207.57 905.257 1216.32 Q905.257 1225.05 902.178 1229.65 Q899.123 1234.24 893.312 1234.24 Q887.502 1234.24 884.424 1229.65 Q881.368 1225.05 881.368 1216.32 Q881.368 1207.57 884.424 1202.99 Q887.502 1198.38 893.312 1198.38 Z" fill="#000000" fill-rule="nonzero" fill-opacity="1" /><path clip-path="url(#clip870)" d="M1205.93 1214.93 Q1209.29 1215.65 1211.16 1217.92 Q1213.06 1220.19 1213.06 1223.52 Q1213.06 1228.64 1209.54 1231.44 Q1206.02 1234.24 1199.54 1234.24 Q1197.37 1234.24 1195.05 1233.8 Q1192.76 1233.38 1190.31 1232.53 L1190.31 1228.01 Q1192.25 1229.15 1194.57 1229.72 Q1196.88 1230.3 1199.4 1230.3 Q1203.8 1230.3 1206.09 1228.57 Q1208.41 1226.83 1208.41 1223.52 Q1208.41 1220.46 1206.26 1218.75 Q1204.13 1217.02 1200.31 1217.02 L1196.28 1217.02 L1196.28 1213.17 L1200.49 1213.17 Q1203.94 1213.17 1205.77 1211.81 Q1207.6 1210.42 1207.6 1207.83 Q1207.6 1205.16 1205.7 1203.75 Q1203.83 1202.32 1200.31 1202.32 Q1198.39 1202.32 1196.19 1202.73 Q1193.99 1203.15 1191.35 1204.03 L1191.35 1199.86 Q1194.01 1199.12 1196.33 1198.75 Q1198.66 1198.38 1200.72 1198.38 Q1206.05 1198.38 1209.15 1200.81 Q1212.25 1203.22 1212.25 1207.34 Q1212.25 1210.21 1210.61 1212.2 Q1208.96 1214.17 1205.93 1214.93 Z" fill="#000000" fill-rule="nonzero" fill-opacity="1" /><path clip-path="url(#clip870)" d="M1231.93 1202.09 Q1228.32 1202.09 1226.49 1205.65 Q1224.68 1209.19 1224.68 1216.32 Q1224.68 1223.43 1226.49 1226.99 Q1228.32 1230.53 1231.93 1230.53 Q1235.56 1230.53 1237.37 1226.99 Q1239.2 1223.43 1239.2 1216.32 Q1239.2 1209.19 1237.37 1205.65 Q1235.56 1202.09 1231.93 1202.09 M1231.93 1198.38 Q1237.74 1198.38 1240.79 1202.99 Q1243.87 1207.57 1243.87 1216.32 Q1243.87 1225.05 1240.79 1229.65 Q1237.74 1234.24 1231.93 1234.24 Q1226.12 1234.24 1223.04 1229.65 Q1219.98 1225.05 1219.98 1216.32 Q1219.98 1207.57 1223.04 1202.99 Q1226.12 1198.38 1231.93 1198.38 Z" fill="#000000" fill-rule="nonzero" fill-opacity="1" /><path clip-path="url(#clip870)" d="M1543.95 1203.08 L1532.14 1221.53 L1543.95 1221.53 L1543.95 1203.08 M1542.72 1199.01 L1548.6 1199.01 L1548.6 1221.53 L1553.53 1221.53 L1553.53 1225.42 L1548.6 1225.42 L1548.6 1233.57 L1543.95 1233.57 L1543.95 1225.42 L1528.34 1225.42 L1528.34 1220.9 L1542.72 1199.01 Z" fill="#000000" fill-rule="nonzero" fill-opacity="1" /><path clip-path="url(#clip870)" d="M1571.26 1202.09 Q1567.65 1202.09 1565.82 1205.65 Q1564.01 1209.19 1564.01 1216.32 Q1564.01 1223.43 1565.82 1226.99 Q1567.65 1230.53 1571.26 1230.53 Q1574.89 1230.53 1576.7 1226.99 Q1578.53 1223.43 1578.53 1216.32 Q1578.53 1209.19 1576.7 1205.65 Q1574.89 1202.09 1571.26 1202.09 M1571.26 1198.38 Q1577.07 1198.38 1580.13 1202.99 Q1583.2 1207.57 1583.2 1216.32 Q1583.2 1225.05 1580.13 1229.65 Q1577.07 1234.24 1571.26 1234.24 Q1565.45 1234.24 1562.37 1229.65 Q1559.32 1225.05 1559.32 1216.32 Q1559.32 1207.57 1562.37 1202.99 Q1565.45 1198.38 1571.26 1198.38 Z" fill="#000000" fill-rule="nonzero" fill-opacity="1" /><path clip-path="url(#clip870)" d="M1869.16 1199.01 L1887.51 1199.01 L1887.51 1202.94 L1873.44 1202.94 L1873.44 1211.41 Q1874.46 1211.07 1875.48 1210.9 Q1876.5 1210.72 1877.51 1210.72 Q1883.3 1210.72 1886.68 1213.89 Q1890.06 1217.06 1890.06 1222.48 Q1890.06 1228.06 1886.59 1231.16 Q1883.12 1234.24 1876.8 1234.24 Q1874.62 1234.24 1872.35 1233.87 Q1870.11 1233.5 1867.7 1232.76 L1867.7 1228.06 Q1869.78 1229.19 1872 1229.75 Q1874.23 1230.3 1876.7 1230.3 Q1880.71 1230.3 1883.05 1228.2 Q1885.38 1226.09 1885.38 1222.48 Q1885.38 1218.87 1883.05 1216.76 Q1880.71 1214.65 1876.7 1214.65 Q1874.83 1214.65 1872.95 1215.07 Q1871.1 1215.49 1869.16 1216.37 L1869.16 1199.01 Z" fill="#000000" fill-rule="nonzero" fill-opacity="1" /><path clip-path="url(#clip870)" d="M1909.27 1202.09 Q1905.66 1202.09 1903.83 1205.65 Q1902.03 1209.19 1902.03 1216.32 Q1902.03 1223.43 1903.83 1226.99 Q1905.66 1230.53 1909.27 1230.53 Q1912.91 1230.53 1914.71 1226.99 Q1916.54 1223.43 1916.54 1216.32 Q1916.54 1209.19 1914.71 1205.65 Q1912.91 1202.09 1909.27 1202.09 M1909.27 1198.38 Q1915.08 1198.38 1918.14 1202.99 Q1921.22 1207.57 1921.22 1216.32 Q1921.22 1225.05 1918.14 1229.65 Q1915.08 1234.24 1909.27 1234.24 Q1903.46 1234.24 1900.38 1229.65 Q1897.33 1225.05 1897.33 1216.32 Q1897.33 1207.57 1900.38 1202.99 Q1903.46 1198.38 1909.27 1198.38 Z" fill="#000000" fill-rule="nonzero" fill-opacity="1" /><path clip-path="url(#clip870)" d="M1025.16 1271.78 L1025.16 1308.73 L1032.92 1308.73 Q1042.76 1308.73 1047.31 1304.28 Q1051.89 1299.82 1051.89 1290.21 Q1051.89 1280.66 1047.31 1276.23 Q1042.76 1271.78 1032.92 1271.78 L1025.16 1271.78 M1018.73 1266.49 L1031.94 1266.49 Q1045.75 1266.49 1052.21 1272.26 Q1058.67 1277.98 1058.67 1290.21 Q1058.67 1302.49 1052.18 1308.25 Q1045.69 1314.01 1031.94 1314.01 L1018.73 1314.01 L1018.73 1266.49 Z" fill="#000000" fill-rule="nonzero" fill-opacity="1" /><path clip-path="url(#clip870)" d="M1099.16 1294.73 L1099.16 1297.59 L1072.23 1297.59 Q1072.61 1303.64 1075.86 1306.82 Q1079.14 1309.97 1084.96 1309.97 Q1088.34 1309.97 1091.49 1309.14 Q1094.67 1308.32 1097.79 1306.66 L1097.79 1312.2 Q1094.64 1313.54 1091.33 1314.24 Q1088.02 1314.94 1084.61 1314.94 Q1076.08 1314.94 1071.08 1309.97 Q1066.12 1305.01 1066.12 1296.54 Q1066.12 1287.79 1070.83 1282.66 Q1075.57 1277.51 1083.59 1277.51 Q1090.79 1277.51 1094.96 1282.15 Q1099.16 1286.77 1099.16 1294.73 M1093.3 1293.01 Q1093.24 1288.2 1090.6 1285.34 Q1087.99 1282.47 1083.66 1282.47 Q1078.76 1282.47 1075.8 1285.24 Q1072.87 1288.01 1072.42 1293.04 L1093.3 1293.01 Z" fill="#000000" fill-rule="nonzero" fill-opacity="1" /><path clip-path="url(#clip870)" d="M1132.23 1295.78 Q1132.23 1289.41 1129.59 1285.91 Q1126.98 1282.41 1122.23 1282.41 Q1117.52 1282.41 1114.88 1285.91 Q1112.27 1289.41 1112.27 1295.78 Q1112.27 1302.11 1114.88 1305.61 Q1117.52 1309.11 1122.23 1309.11 Q1126.98 1309.11 1129.59 1305.61 Q1132.23 1302.11 1132.23 1295.78 M1138.08 1309.59 Q1138.08 1318.69 1134.04 1323.12 Q1130 1327.57 1121.66 1327.57 Q1118.57 1327.57 1115.84 1327.1 Q1113.1 1326.65 1110.52 1325.7 L1110.52 1320 Q1113.1 1321.4 1115.61 1322.07 Q1118.13 1322.74 1120.74 1322.74 Q1126.5 1322.74 1129.36 1319.71 Q1132.23 1316.72 1132.23 1310.64 L1132.23 1307.74 Q1130.41 1310.9 1127.58 1312.46 Q1124.75 1314.01 1120.8 1314.01 Q1114.24 1314.01 1110.23 1309.02 Q1106.22 1304.02 1106.22 1295.78 Q1106.22 1287.5 1110.23 1282.5 Q1114.24 1277.51 1120.8 1277.51 Q1124.75 1277.51 1127.58 1279.07 Q1130.41 1280.63 1132.23 1283.78 L1132.23 1278.37 L1138.08 1278.37 L1138.08 1309.59 Z" fill="#000000" fill-rule="nonzero" fill-opacity="1" /><path clip-path="url(#clip870)" d="M1170.8 1283.84 Q1169.82 1283.27 1168.64 1283.01 Q1167.49 1282.73 1166.09 1282.73 Q1161.13 1282.73 1158.45 1285.97 Q1155.81 1289.19 1155.81 1295.24 L1155.81 1314.01 L1149.92 1314.01 L1149.92 1278.37 L1155.81 1278.37 L1155.81 1283.9 Q1157.66 1280.66 1160.62 1279.1 Q1163.58 1277.51 1167.81 1277.51 Q1168.42 1277.51 1169.15 1277.6 Q1169.88 1277.67 1170.77 1277.83 L1170.8 1283.84 Z" fill="#000000" fill-rule="nonzero" fill-opacity="1" /><path clip-path="url(#clip870)" d="M1206.01 1294.73 L1206.01 1297.59 L1179.08 1297.59 Q1179.46 1303.64 1182.71 1306.82 Q1185.99 1309.97 1191.81 1309.97 Q1195.18 1309.97 1198.34 1309.14 Q1201.52 1308.32 1204.64 1306.66 L1204.64 1312.2 Q1201.49 1313.54 1198.18 1314.24 Q1194.87 1314.94 1191.46 1314.94 Q1182.93 1314.94 1177.93 1309.97 Q1172.97 1305.01 1172.97 1296.54 Q1172.97 1287.79 1177.68 1282.66 Q1182.42 1277.51 1190.44 1277.51 Q1197.64 1277.51 1201.8 1282.15 Q1206.01 1286.77 1206.01 1294.73 M1200.15 1293.01 Q1200.09 1288.2 1197.44 1285.34 Q1194.83 1282.47 1190.51 1282.47 Q1185.6 1282.47 1182.64 1285.24 Q1179.72 1288.01 1179.27 1293.04 L1200.15 1293.01 Z" fill="#000000" fill-rule="nonzero" fill-opacity="1" /><path clip-path="url(#clip870)" d="M1246.11 1294.73 L1246.11 1297.59 L1219.18 1297.59 Q1219.56 1303.64 1222.81 1306.82 Q1226.09 1309.97 1231.91 1309.97 Q1235.29 1309.97 1238.44 1309.14 Q1241.62 1308.32 1244.74 1306.66 L1244.74 1312.2 Q1241.59 1313.54 1238.28 1314.24 Q1234.97 1314.94 1231.56 1314.94 Q1223.03 1314.94 1218.04 1309.97 Q1213.07 1305.01 1213.07 1296.54 Q1213.07 1287.79 1217.78 1282.66 Q1222.53 1277.51 1230.55 1277.51 Q1237.74 1277.51 1241.91 1282.15 Q1246.11 1286.77 1246.11 1294.73 M1240.25 1293.01 Q1240.19 1288.2 1237.55 1285.34 Q1234.94 1282.47 1230.61 1282.47 Q1225.71 1282.47 1222.75 1285.24 Q1219.82 1288.01 1219.37 1293.04 L1240.25 1293.01 Z" fill="#000000" fill-rule="nonzero" fill-opacity="1" /><polyline clip-path="url(#clip870)" style="stroke:#000000; stroke-linecap:round; stroke-linejoin:round; stroke-width:4; stroke-opacity:1; fill:none" points="200.081,1173.47 200.081,120.723 "/>
<polyline clip-path="url(#clip870)" style="stroke:#000000; stroke-linecap:round; stroke-linejoin:round; stroke-width:4; stroke-opacity:1; fill:none" points="200.081,1173.47 218.979,1173.47 "/>
<polyline clip-path="url(#clip870)" style="stroke:#000000; stroke-linecap:round; stroke-linejoin:round; stroke-width:4; stroke-opacity:1; fill:none" points="200.081,913.533 218.979,913.533 "/>
<polyline clip-path="url(#clip870)" style="stroke:#000000; stroke-linecap:round; stroke-linejoin:round; stroke-width:4; stroke-opacity:1; fill:none" points="200.081,653.595 218.979,653.595 "/>
<polyline clip-path="url(#clip870)" style="stroke:#000000; stroke-linecap:round; stroke-linejoin:round; stroke-width:4; stroke-opacity:1; fill:none" points="200.081,393.658 218.979,393.658 "/>
<polyline clip-path="url(#clip870)" style="stroke:#000000; stroke-linecap:round; stroke-linejoin:round; stroke-width:4; stroke-opacity:1; fill:none" points="200.081,133.72 218.979,133.72 "/>
<path clip-path="url(#clip870)" d="M156.457 1159.27 Q152.846 1159.27 151.017 1162.83 Q149.211 1166.38 149.211 1173.51 Q149.211 1180.61 151.017 1184.18 Q152.846 1187.72 156.457 1187.72 Q160.091 1187.72 161.896 1184.18 Q163.725 1180.61 163.725 1173.51 Q163.725 1166.38 161.896 1162.83 Q160.091 1159.27 156.457 1159.27 M156.457 1155.57 Q162.267 1155.57 165.322 1160.17 Q168.401 1164.76 168.401 1173.51 Q168.401 1182.23 165.322 1186.84 Q162.267 1191.42 156.457 1191.42 Q150.646 1191.42 147.568 1186.84 Q144.512 1182.23 144.512 1173.51 Q144.512 1164.76 147.568 1160.17 Q150.646 1155.57 156.457 1155.57 Z" fill="#000000" fill-rule="nonzero" fill-opacity="1" /><path clip-path="url(#clip870)" d="M120.323 926.878 L136.642 926.878 L136.642 930.813 L114.698 930.813 L114.698 926.878 Q117.36 924.123 121.943 919.494 Q126.549 914.841 127.73 913.498 Q129.975 910.975 130.855 909.239 Q131.758 907.48 131.758 905.79 Q131.758 903.035 129.813 901.299 Q127.892 899.563 124.79 899.563 Q122.591 899.563 120.137 900.327 Q117.707 901.091 114.929 902.642 L114.929 897.92 Q117.753 896.785 120.207 896.207 Q122.66 895.628 124.698 895.628 Q130.068 895.628 133.262 898.313 Q136.457 900.998 136.457 905.489 Q136.457 907.619 135.647 909.54 Q134.859 911.438 132.753 914.031 Q132.174 914.702 129.072 917.92 Q125.971 921.114 120.323 926.878 Z" fill="#000000" fill-rule="nonzero" fill-opacity="1" /><path clip-path="url(#clip870)" d="M156.457 899.332 Q152.846 899.332 151.017 902.897 Q149.211 906.438 149.211 913.568 Q149.211 920.674 151.017 924.239 Q152.846 927.781 156.457 927.781 Q160.091 927.781 161.896 924.239 Q163.725 920.674 163.725 913.568 Q163.725 906.438 161.896 902.897 Q160.091 899.332 156.457 899.332 M156.457 895.628 Q162.267 895.628 165.322 900.235 Q168.401 904.818 168.401 913.568 Q168.401 922.295 165.322 926.901 Q162.267 931.484 156.457 931.484 Q150.646 931.484 147.568 926.901 Q144.512 922.295 144.512 913.568 Q144.512 904.818 147.568 900.235 Q150.646 895.628 156.457 895.628 Z" fill="#000000" fill-rule="nonzero" fill-opacity="1" /><path clip-path="url(#clip870)" d="M129.142 640.389 L117.336 658.838 L129.142 658.838 L129.142 640.389 M127.915 636.315 L133.795 636.315 L133.795 658.838 L138.725 658.838 L138.725 662.727 L133.795 662.727 L133.795 670.875 L129.142 670.875 L129.142 662.727 L113.54 662.727 L113.54 658.213 L127.915 636.315 Z" fill="#000000" fill-rule="nonzero" fill-opacity="1" /><path clip-path="url(#clip870)" d="M156.457 639.394 Q152.846 639.394 151.017 642.959 Q149.211 646.5 149.211 653.63 Q149.211 660.737 151.017 664.301 Q152.846 667.843 156.457 667.843 Q160.091 667.843 161.896 664.301 Q163.725 660.737 163.725 653.63 Q163.725 646.5 161.896 642.959 Q160.091 639.394 156.457 639.394 M156.457 635.69 Q162.267 635.69 165.322 640.297 Q168.401 644.88 168.401 653.63 Q168.401 662.357 165.322 666.963 Q162.267 671.547 156.457 671.547 Q150.646 671.547 147.568 666.963 Q144.512 662.357 144.512 653.63 Q144.512 644.88 147.568 640.297 Q150.646 635.69 156.457 635.69 Z" fill="#000000" fill-rule="nonzero" fill-opacity="1" /><path clip-path="url(#clip870)" d="M126.873 391.794 Q123.725 391.794 121.873 393.947 Q120.045 396.1 120.045 399.85 Q120.045 403.577 121.873 405.752 Q123.725 407.905 126.873 407.905 Q130.022 407.905 131.85 405.752 Q133.702 403.577 133.702 399.85 Q133.702 396.1 131.85 393.947 Q130.022 391.794 126.873 391.794 M136.156 377.142 L136.156 381.401 Q134.397 380.567 132.591 380.128 Q130.809 379.688 129.049 379.688 Q124.42 379.688 121.966 382.813 Q119.535 385.938 119.188 392.257 Q120.554 390.243 122.614 389.178 Q124.674 388.091 127.151 388.091 Q132.36 388.091 135.369 391.262 Q138.401 394.41 138.401 399.85 Q138.401 405.174 135.253 408.391 Q132.105 411.609 126.873 411.609 Q120.878 411.609 117.707 407.026 Q114.536 402.419 114.536 393.692 Q114.536 385.498 118.424 380.637 Q122.313 375.753 128.864 375.753 Q130.623 375.753 132.406 376.1 Q134.211 376.447 136.156 377.142 Z" fill="#000000" fill-rule="nonzero" fill-opacity="1" /><path clip-path="url(#clip870)" d="M156.457 379.456 Q152.846 379.456 151.017 383.021 Q149.211 386.563 149.211 393.692 Q149.211 400.799 151.017 404.364 Q152.846 407.905 156.457 407.905 Q160.091 407.905 161.896 404.364 Q163.725 400.799 163.725 393.692 Q163.725 386.563 161.896 383.021 Q160.091 379.456 156.457 379.456 M156.457 375.753 Q162.267 375.753 165.322 380.359 Q168.401 384.942 168.401 393.692 Q168.401 402.419 165.322 407.026 Q162.267 411.609 156.457 411.609 Q150.646 411.609 147.568 407.026 Q144.512 402.419 144.512 393.692 Q144.512 384.942 147.568 380.359 Q150.646 375.753 156.457 375.753 Z" fill="#000000" fill-rule="nonzero" fill-opacity="1" /><path clip-path="url(#clip870)" d="M126.295 134.588 Q122.961 134.588 121.04 136.37 Q119.142 138.153 119.142 141.278 Q119.142 144.403 121.04 146.185 Q122.961 147.968 126.295 147.968 Q129.628 147.968 131.549 146.185 Q133.471 144.38 133.471 141.278 Q133.471 138.153 131.549 136.37 Q129.651 134.588 126.295 134.588 M121.619 132.597 Q118.61 131.857 116.92 129.796 Q115.253 127.736 115.253 124.773 Q115.253 120.63 118.193 118.222 Q121.156 115.815 126.295 115.815 Q131.457 115.815 134.397 118.222 Q137.336 120.63 137.336 124.773 Q137.336 127.736 135.647 129.796 Q133.98 131.857 130.994 132.597 Q134.373 133.384 136.248 135.676 Q138.147 137.968 138.147 141.278 Q138.147 146.301 135.068 148.986 Q132.012 151.671 126.295 151.671 Q120.577 151.671 117.498 148.986 Q114.443 146.301 114.443 141.278 Q114.443 137.968 116.341 135.676 Q118.239 133.384 121.619 132.597 M119.906 125.213 Q119.906 127.898 121.573 129.403 Q123.262 130.907 126.295 130.907 Q129.304 130.907 130.994 129.403 Q132.707 127.898 132.707 125.213 Q132.707 122.528 130.994 121.023 Q129.304 119.519 126.295 119.519 Q123.262 119.519 121.573 121.023 Q119.906 122.528 119.906 125.213 Z" fill="#000000" fill-rule="nonzero" fill-opacity="1" /><path clip-path="url(#clip870)" d="M156.457 119.519 Q152.846 119.519 151.017 123.083 Q149.211 126.625 149.211 133.755 Q149.211 140.861 151.017 144.426 Q152.846 147.968 156.457 147.968 Q160.091 147.968 161.896 144.426 Q163.725 140.861 163.725 133.755 Q163.725 126.625 161.896 123.083 Q160.091 119.519 156.457 119.519 M156.457 115.815 Q162.267 115.815 165.322 120.421 Q168.401 125.005 168.401 133.755 Q168.401 142.481 165.322 147.088 Q162.267 151.671 156.457 151.671 Q150.646 151.671 147.568 147.088 Q144.512 142.481 144.512 133.755 Q144.512 125.005 147.568 120.421 Q150.646 115.815 156.457 115.815 Z" fill="#000000" fill-rule="nonzero" fill-opacity="1" /><path clip-path="url(#clip870)" d="M23.7444 702.956 L30.5239 702.956 Q27.5002 706.202 26.0043 709.895 Q24.5083 713.555 24.5083 717.693 Q24.5083 725.841 29.5054 730.169 Q34.4707 734.498 43.8919 734.498 Q53.2813 734.498 58.2784 730.169 Q63.2436 725.841 63.2436 717.693 Q63.2436 713.555 61.7477 709.895 Q60.2518 706.202 57.2281 702.956 L63.9439 702.956 Q66.2355 706.33 67.3814 710.117 Q68.5272 713.873 68.5272 718.075 Q68.5272 728.864 61.9387 735.071 Q55.3183 741.278 43.8919 741.278 Q32.4336 741.278 25.8451 735.071 Q19.2248 728.864 19.2248 718.075 Q19.2248 713.809 20.3706 710.054 Q21.4846 706.266 23.7444 702.956 Z" fill="#000000" fill-rule="nonzero" fill-opacity="1" /><path clip-path="url(#clip870)" d="M36.0621 679.467 Q36.0621 684.177 39.7542 686.914 Q43.4145 689.652 49.812 689.652 Q56.2095 689.652 59.9017 686.946 Q63.5619 684.209 63.5619 679.467 Q63.5619 674.788 59.8698 672.05 Q56.1777 669.313 49.812 669.313 Q43.4781 669.313 39.786 672.05 Q36.0621 674.788 36.0621 679.467 M31.0968 679.467 Q31.0968 671.828 36.0621 667.467 Q41.0273 663.107 49.812 663.107 Q58.5649 663.107 63.5619 667.467 Q68.5272 671.828 68.5272 679.467 Q68.5272 687.137 63.5619 691.498 Q58.5649 695.826 49.812 695.826 Q41.0273 695.826 36.0621 691.498 Q31.0968 687.137 31.0968 679.467 Z" fill="#000000" fill-rule="nonzero" fill-opacity="1" /><path clip-path="url(#clip870)" d="M53.5359 654.004 L31.9562 654.004 L31.9562 648.147 L53.3131 648.147 Q58.3739 648.147 60.9202 646.174 Q63.4346 644.2 63.4346 640.254 Q63.4346 635.511 60.4109 632.774 Q57.3872 630.005 52.1673 630.005 L31.9562 630.005 L31.9562 624.149 L67.6042 624.149 L67.6042 630.005 L62.1296 630.005 Q65.3762 632.137 66.9676 634.97 Q68.5272 637.771 68.5272 641.495 Q68.5272 647.638 64.7078 650.821 Q60.8883 654.004 53.5359 654.004 M31.0968 639.267 L31.0968 639.267 Z" fill="#000000" fill-rule="nonzero" fill-opacity="1" /><path clip-path="url(#clip870)" d="M46.0881 582.453 L67.6042 582.453 L67.6042 588.31 L46.279 588.31 Q41.2183 588.31 38.7038 590.283 Q36.1894 592.256 36.1894 596.203 Q36.1894 600.946 39.2131 603.683 Q42.2368 606.42 47.4567 606.42 L67.6042 606.42 L67.6042 612.308 L31.9562 612.308 L31.9562 606.42 L37.4944 606.42 Q34.2797 604.319 32.6883 601.487 Q31.0968 598.622 31.0968 594.898 Q31.0968 588.755 34.9163 585.604 Q38.7038 582.453 46.0881 582.453 Z" fill="#000000" fill-rule="nonzero" fill-opacity="1" /><path clip-path="url(#clip870)" d="M21.8347 564.979 L31.9562 564.979 L31.9562 552.916 L36.5077 552.916 L36.5077 564.979 L55.8594 564.979 Q60.2199 564.979 61.4613 563.802 Q62.7026 562.592 62.7026 558.932 L62.7026 552.916 L67.6042 552.916 L67.6042 558.932 Q67.6042 565.711 65.0897 568.289 Q62.5434 570.868 55.8594 570.868 L36.5077 570.868 L36.5077 575.164 L31.9562 575.164 L31.9562 570.868 L21.8347 570.868 L21.8347 564.979 Z" fill="#000000" fill-rule="nonzero" fill-opacity="1" /><path clip-path="url(#clip870)" d="M683.234 43.6931 L683.234 65.8515 L696.359 65.8515 Q702.962 65.8515 706.122 63.1374 Q709.322 60.3828 709.322 54.752 Q709.322 49.0808 706.122 46.4072 Q702.962 43.6931 696.359 43.6931 L683.234 43.6931 M683.234 18.8205 L683.234 37.0496 L695.346 37.0496 Q701.341 37.0496 704.258 34.8216 Q707.215 32.5531 707.215 27.935 Q707.215 23.3575 704.258 21.089 Q701.341 18.8205 695.346 18.8205 L683.234 18.8205 M675.051 12.096 L695.954 12.096 Q705.311 12.096 710.375 15.9849 Q715.439 19.8737 715.439 27.0438 Q715.439 32.5936 712.846 35.8748 Q710.253 39.156 705.23 39.9662 Q711.266 41.2625 714.588 45.3944 Q717.95 49.4858 717.95 55.6432 Q717.95 63.745 712.441 68.1605 Q706.932 72.576 696.764 72.576 L675.051 72.576 L675.051 12.096 Z" fill="#000000" fill-rule="nonzero" fill-opacity="1" /><path clip-path="url(#clip870)" d="M752.18 20.1573 L741.081 50.2555 L763.32 50.2555 L752.18 20.1573 M747.562 12.096 L756.839 12.096 L779.889 72.576 L771.382 72.576 L765.872 57.061 L738.61 57.061 L733.101 72.576 L724.472 72.576 L747.562 12.096 Z" fill="#000000" fill-rule="nonzero" fill-opacity="1" /><path clip-path="url(#clip870)" d="M844.622 34.0924 L844.622 9.54393 L852.076 9.54393 L852.076 72.576 L844.622 72.576 L844.622 65.7705 Q842.272 69.8214 838.667 71.8063 Q835.102 73.7508 830.079 73.7508 Q821.856 73.7508 816.671 67.1883 Q811.526 60.6258 811.526 49.9314 Q811.526 39.2371 816.671 32.6746 Q821.856 26.1121 830.079 26.1121 Q835.102 26.1121 838.667 28.0971 Q842.272 30.0415 844.622 34.0924 M819.223 49.9314 Q819.223 58.1548 822.585 62.8538 Q825.988 67.5124 831.902 67.5124 Q837.816 67.5124 841.219 62.8538 Q844.622 58.1548 844.622 49.9314 Q844.622 41.7081 841.219 37.0496 Q837.816 32.3505 831.902 32.3505 Q825.988 32.3505 822.585 37.0496 Q819.223 41.7081 819.223 49.9314 Z" fill="#000000" fill-rule="nonzero" fill-opacity="1" /><path clip-path="url(#clip870)" d="M906.236 48.0275 L906.236 51.6733 L871.966 51.6733 Q872.452 59.3701 876.584 63.421 Q880.756 67.4314 888.169 67.4314 Q892.463 67.4314 896.474 66.3781 Q900.524 65.3249 904.494 63.2184 L904.494 70.267 Q900.484 71.9684 896.271 72.8596 Q892.058 73.7508 887.724 73.7508 Q876.867 73.7508 870.507 67.4314 Q864.188 61.1119 864.188 50.3365 Q864.188 39.1965 870.183 32.6746 Q876.219 26.1121 886.427 26.1121 Q895.582 26.1121 900.889 32.0264 Q906.236 37.9003 906.236 48.0275 M898.783 45.84 Q898.702 39.7232 895.339 36.0774 Q892.018 32.4315 886.508 32.4315 Q880.27 32.4315 876.503 35.9558 Q872.776 39.4801 872.209 45.8805 L898.783 45.84 Z" fill="#000000" fill-rule="nonzero" fill-opacity="1" /><path clip-path="url(#clip870)" d="M948.325 49.3643 Q948.325 41.2625 944.963 36.8065 Q941.641 32.3505 935.605 32.3505 Q929.61 32.3505 926.248 36.8065 Q922.926 41.2625 922.926 49.3643 Q922.926 57.4256 926.248 61.8816 Q929.61 66.3376 935.605 66.3376 Q941.641 66.3376 944.963 61.8816 Q948.325 57.4256 948.325 49.3643 M955.779 66.9452 Q955.779 78.5308 950.634 84.1616 Q945.489 89.8329 934.876 89.8329 Q930.947 89.8329 927.463 89.2252 Q923.979 88.6581 920.698 87.4428 L920.698 80.1917 Q923.979 81.9741 927.179 82.8248 Q930.38 83.6755 933.701 83.6755 Q941.033 83.6755 944.679 79.8271 Q948.325 76.0193 948.325 68.282 L948.325 64.5957 Q946.016 68.6061 942.411 70.5911 Q938.805 72.576 933.782 72.576 Q925.437 72.576 920.333 66.2161 Q915.229 59.8562 915.229 49.3643 Q915.229 38.832 920.333 32.472 Q925.437 26.1121 933.782 26.1121 Q938.805 26.1121 942.411 28.0971 Q946.016 30.082 948.325 34.0924 L948.325 27.2059 L955.779 27.2059 L955.779 66.9452 Z" fill="#000000" fill-rule="nonzero" fill-opacity="1" /><path clip-path="url(#clip870)" d="M997.422 34.1734 Q996.166 33.4443 994.667 33.1202 Q993.209 32.7556 991.427 32.7556 Q985.107 32.7556 981.705 36.8875 Q978.342 40.9789 978.342 48.6757 L978.342 72.576 L970.848 72.576 L970.848 27.2059 L978.342 27.2059 L978.342 34.2544 Q980.692 30.1225 984.459 28.1376 Q988.227 26.1121 993.614 26.1121 Q994.384 26.1121 995.316 26.2337 Q996.247 26.3147 997.382 26.5172 L997.422 34.1734 Z" fill="#000000" fill-rule="nonzero" fill-opacity="1" /><path clip-path="url(#clip870)" d="M1042.23 48.0275 L1042.23 51.6733 L1007.95 51.6733 Q1008.44 59.3701 1012.57 63.421 Q1016.74 67.4314 1024.16 67.4314 Q1028.45 67.4314 1032.46 66.3781 Q1036.51 65.3249 1040.48 63.2184 L1040.48 70.267 Q1036.47 71.9684 1032.26 72.8596 Q1028.05 73.7508 1023.71 73.7508 Q1012.86 73.7508 1006.5 67.4314 Q1000.18 61.1119 1000.18 50.3365 Q1000.18 39.1965 1006.17 32.6746 Q1012.21 26.1121 1022.42 26.1121 Q1031.57 26.1121 1036.88 32.0264 Q1042.23 37.9003 1042.23 48.0275 M1034.77 45.84 Q1034.69 39.7232 1031.33 36.0774 Q1028.01 32.4315 1022.5 32.4315 Q1016.26 32.4315 1012.49 35.9558 Q1008.76 39.4801 1008.2 45.8805 L1034.77 45.84 Z" fill="#000000" fill-rule="nonzero" fill-opacity="1" /><path clip-path="url(#clip870)" d="M1093.27 48.0275 L1093.27 51.6733 L1059 51.6733 Q1059.48 59.3701 1063.61 63.421 Q1067.79 67.4314 1075.2 67.4314 Q1079.49 67.4314 1083.5 66.3781 Q1087.55 65.3249 1091.52 63.2184 L1091.52 70.267 Q1087.51 71.9684 1083.3 72.8596 Q1079.09 73.7508 1074.75 73.7508 Q1063.9 73.7508 1057.54 67.4314 Q1051.22 61.1119 1051.22 50.3365 Q1051.22 39.1965 1057.21 32.6746 Q1063.25 26.1121 1073.46 26.1121 Q1082.61 26.1121 1087.92 32.0264 Q1093.27 37.9003 1093.27 48.0275 M1085.81 45.84 Q1085.73 39.7232 1082.37 36.0774 Q1079.05 32.4315 1073.54 32.4315 Q1067.3 32.4315 1063.53 35.9558 Q1059.81 39.4801 1059.24 45.8805 L1085.81 45.84 Z" fill="#000000" fill-rule="nonzero" fill-opacity="1" /><path clip-path="url(#clip870)" d="M1161.73 34.0924 L1161.73 9.54393 L1169.18 9.54393 L1169.18 72.576 L1161.73 72.576 L1161.73 65.7705 Q1159.38 69.8214 1155.77 71.8063 Q1152.21 73.7508 1147.18 73.7508 Q1138.96 73.7508 1133.78 67.1883 Q1128.63 60.6258 1128.63 49.9314 Q1128.63 39.2371 1133.78 32.6746 Q1138.96 26.1121 1147.18 26.1121 Q1152.21 26.1121 1155.77 28.0971 Q1159.38 30.0415 1161.73 34.0924 M1136.33 49.9314 Q1136.33 58.1548 1139.69 62.8538 Q1143.09 67.5124 1149.01 67.5124 Q1154.92 67.5124 1158.32 62.8538 Q1161.73 58.1548 1161.73 49.9314 Q1161.73 41.7081 1158.32 37.0496 Q1154.92 32.3505 1149.01 32.3505 Q1143.09 32.3505 1139.69 37.0496 Q1136.33 41.7081 1136.33 49.9314 Z" fill="#000000" fill-rule="nonzero" fill-opacity="1" /><path clip-path="url(#clip870)" d="M1184.53 27.2059 L1191.99 27.2059 L1191.99 72.576 L1184.53 72.576 L1184.53 27.2059 M1184.53 9.54393 L1191.99 9.54393 L1191.99 18.9825 L1184.53 18.9825 L1184.53 9.54393 Z" fill="#000000" fill-rule="nonzero" fill-opacity="1" /><path clip-path="url(#clip870)" d="M1236.51 28.5427 L1236.51 35.5912 Q1233.35 33.9709 1229.94 33.1607 Q1226.54 32.3505 1222.9 32.3505 Q1217.35 32.3505 1214.55 34.0519 Q1211.8 35.7533 1211.8 39.156 Q1211.8 41.7486 1213.78 43.2475 Q1215.77 44.7058 1221.76 46.0426 L1224.31 46.6097 Q1232.25 48.3111 1235.57 51.4303 Q1238.94 54.509 1238.94 60.0587 Q1238.94 66.3781 1233.91 70.0644 Q1228.93 73.7508 1220.18 73.7508 Q1216.54 73.7508 1212.57 73.0216 Q1208.64 72.3329 1204.26 70.9151 L1204.26 63.2184 Q1208.39 65.3654 1212.4 66.4591 Q1216.41 67.5124 1220.34 67.5124 Q1225.61 67.5124 1228.45 65.73 Q1231.28 63.9071 1231.28 60.6258 Q1231.28 57.5877 1229.21 55.9673 Q1227.19 54.3469 1220.26 52.8481 L1217.67 52.2405 Q1210.74 50.7821 1207.66 47.7845 Q1204.59 44.7463 1204.59 39.4801 Q1204.59 33.0797 1209.12 29.5959 Q1213.66 26.1121 1222 26.1121 Q1226.14 26.1121 1229.78 26.7198 Q1233.43 27.3274 1236.51 28.5427 Z" fill="#000000" fill-rule="nonzero" fill-opacity="1" /><path clip-path="url(#clip870)" d="M1258.18 14.324 L1258.18 27.2059 L1273.53 27.2059 L1273.53 32.9987 L1258.18 32.9987 L1258.18 57.6282 Q1258.18 63.1779 1259.68 64.7578 Q1261.22 66.3376 1265.88 66.3376 L1273.53 66.3376 L1273.53 72.576 L1265.88 72.576 Q1257.25 72.576 1253.97 69.3758 Q1250.68 66.1351 1250.68 57.6282 L1250.68 32.9987 L1245.22 32.9987 L1245.22 27.2059 L1250.68 27.2059 L1250.68 14.324 L1258.18 14.324 Z" fill="#000000" fill-rule="nonzero" fill-opacity="1" /><path clip-path="url(#clip870)" d="M1309.63 34.1734 Q1308.37 33.4443 1306.87 33.1202 Q1305.41 32.7556 1303.63 32.7556 Q1297.31 32.7556 1293.91 36.8875 Q1290.55 40.9789 1290.55 48.6757 L1290.55 72.576 L1283.05 72.576 L1283.05 27.2059 L1290.55 27.2059 L1290.55 34.2544 Q1292.9 30.1225 1296.66 28.1376 Q1300.43 26.1121 1305.82 26.1121 Q1306.59 26.1121 1307.52 26.2337 Q1308.45 26.3147 1309.58 26.5172 L1309.63 34.1734 Z" fill="#000000" fill-rule="nonzero" fill-opacity="1" /><path clip-path="url(#clip870)" d="M1317.44 27.2059 L1324.9 27.2059 L1324.9 72.576 L1317.44 72.576 L1317.44 27.2059 M1317.44 9.54393 L1324.9 9.54393 L1324.9 18.9825 L1317.44 18.9825 L1317.44 9.54393 Z" fill="#000000" fill-rule="nonzero" fill-opacity="1" /><path clip-path="url(#clip870)" d="M1373.06 49.9314 Q1373.06 41.7081 1369.66 37.0496 Q1366.3 32.3505 1360.38 32.3505 Q1354.47 32.3505 1351.07 37.0496 Q1347.7 41.7081 1347.7 49.9314 Q1347.7 58.1548 1351.07 62.8538 Q1354.47 67.5124 1360.38 67.5124 Q1366.3 67.5124 1369.66 62.8538 Q1373.06 58.1548 1373.06 49.9314 M1347.7 34.0924 Q1350.05 30.0415 1353.62 28.0971 Q1357.22 26.1121 1362.21 26.1121 Q1370.47 26.1121 1375.61 32.6746 Q1380.8 39.2371 1380.8 49.9314 Q1380.8 60.6258 1375.61 67.1883 Q1370.47 73.7508 1362.21 73.7508 Q1357.22 73.7508 1353.62 71.8063 Q1350.05 69.8214 1347.7 65.7705 L1347.7 72.576 L1340.21 72.576 L1340.21 9.54393 L1347.7 9.54393 L1347.7 34.0924 Z" fill="#000000" fill-rule="nonzero" fill-opacity="1" /><path clip-path="url(#clip870)" d="M1392.39 54.671 L1392.39 27.2059 L1399.84 27.2059 L1399.84 54.3874 Q1399.84 60.8284 1402.35 64.0691 Q1404.86 67.2693 1409.89 67.2693 Q1415.92 67.2693 1419.4 63.421 Q1422.93 59.5726 1422.93 52.9291 L1422.93 27.2059 L1430.38 27.2059 L1430.38 72.576 L1422.93 72.576 L1422.93 65.6084 Q1420.21 69.7404 1416.61 71.7658 Q1413.04 73.7508 1408.31 73.7508 Q1400.49 73.7508 1396.44 68.8897 Q1392.39 64.0286 1392.39 54.671 M1411.14 26.1121 L1411.14 26.1121 Z" fill="#000000" fill-rule="nonzero" fill-opacity="1" /><path clip-path="url(#clip870)" d="M1453.11 14.324 L1453.11 27.2059 L1468.46 27.2059 L1468.46 32.9987 L1453.11 32.9987 L1453.11 57.6282 Q1453.11 63.1779 1454.61 64.7578 Q1456.15 66.3376 1460.8 66.3376 L1468.46 66.3376 L1468.46 72.576 L1460.8 72.576 Q1452.18 72.576 1448.9 69.3758 Q1445.61 66.1351 1445.61 57.6282 L1445.61 32.9987 L1440.15 32.9987 L1440.15 27.2059 L1445.61 27.2059 L1445.61 14.324 L1453.11 14.324 Z" fill="#000000" fill-rule="nonzero" fill-opacity="1" /><path clip-path="url(#clip870)" d="M1478.26 27.2059 L1485.72 27.2059 L1485.72 72.576 L1478.26 72.576 L1478.26 27.2059 M1478.26 9.54393 L1485.72 9.54393 L1485.72 18.9825 L1478.26 18.9825 L1478.26 9.54393 Z" fill="#000000" fill-rule="nonzero" fill-opacity="1" /><path clip-path="url(#clip870)" d="M1518.89 32.4315 Q1512.9 32.4315 1509.42 37.1306 Q1505.93 41.7891 1505.93 49.9314 Q1505.93 58.0738 1509.38 62.7728 Q1512.86 67.4314 1518.89 67.4314 Q1524.85 67.4314 1528.33 62.7323 Q1531.82 58.0333 1531.82 49.9314 Q1531.82 41.8701 1528.33 37.1711 Q1524.85 32.4315 1518.89 32.4315 M1518.89 26.1121 Q1528.62 26.1121 1534.17 32.4315 Q1539.72 38.7509 1539.72 49.9314 Q1539.72 61.0714 1534.17 67.4314 Q1528.62 73.7508 1518.89 73.7508 Q1509.13 73.7508 1503.58 67.4314 Q1498.07 61.0714 1498.07 49.9314 Q1498.07 38.7509 1503.58 32.4315 Q1509.13 26.1121 1518.89 26.1121 Z" fill="#000000" fill-rule="nonzero" fill-opacity="1" /><path clip-path="url(#clip870)" d="M1589.79 45.1919 L1589.79 72.576 L1582.33 72.576 L1582.33 45.4349 Q1582.33 38.994 1579.82 35.7938 Q1577.31 32.5936 1572.29 32.5936 Q1566.25 32.5936 1562.77 36.4419 Q1559.28 40.2903 1559.28 46.9338 L1559.28 72.576 L1551.79 72.576 L1551.79 27.2059 L1559.28 27.2059 L1559.28 34.2544 Q1561.96 30.163 1565.56 28.1376 Q1569.21 26.1121 1573.95 26.1121 Q1581.76 26.1121 1585.78 30.9732 Q1589.79 35.7938 1589.79 45.1919 Z" fill="#000000" fill-rule="nonzero" fill-opacity="1" /><path clip-path="url(#clip871)" d="M302.641 120.723 L302.641 1173.47 L336.51 1173.47 L336.51 120.723 L302.641 120.723 L302.641 120.723  Z" fill="#4682b4" fill-rule="evenodd" fill-opacity="1"/>
<polyline clip-path="url(#clip871)" style="stroke:#000000; stroke-linecap:round; stroke-linejoin:round; stroke-width:4; stroke-opacity:1; fill:none" points="302.641,120.723 302.641,1173.47 336.51,1173.47 336.51,120.723 302.641,120.723 "/>
<path clip-path="url(#clip871)" d="M336.51 640.598 L336.51 1173.47 L370.378 1173.47 L370.378 640.598 L336.51 640.598 L336.51 640.598  Z" fill="#4682b4" fill-rule="evenodd" fill-opacity="1"/>
<polyline clip-path="url(#clip871)" style="stroke:#000000; stroke-linecap:round; stroke-linejoin:round; stroke-width:4; stroke-opacity:1; fill:none" points="336.51,640.598 336.51,1173.47 370.378,1173.47 370.378,640.598 336.51,640.598 "/>
<path clip-path="url(#clip871)" d="M370.378 926.53 L370.378 1173.47 L404.247 1173.47 L404.247 926.53 L370.378 926.53 L370.378 926.53  Z" fill="#4682b4" fill-rule="evenodd" fill-opacity="1"/>
<polyline clip-path="url(#clip871)" style="stroke:#000000; stroke-linecap:round; stroke-linejoin:round; stroke-width:4; stroke-opacity:1; fill:none" points="370.378,926.53 370.378,1173.47 404.247,1173.47 404.247,926.53 370.378,926.53 "/>
<path clip-path="url(#clip871)" d="M404.247 913.533 L404.247 1173.47 L438.115 1173.47 L438.115 913.533 L404.247 913.533 L404.247 913.533  Z" fill="#4682b4" fill-rule="evenodd" fill-opacity="1"/>
<polyline clip-path="url(#clip871)" style="stroke:#000000; stroke-linecap:round; stroke-linejoin:round; stroke-width:4; stroke-opacity:1; fill:none" points="404.247,913.533 404.247,1173.47 438.115,1173.47 438.115,913.533 404.247,913.533 "/>
<path clip-path="url(#clip871)" d="M438.115 1069.5 L438.115 1173.47 L471.984 1173.47 L471.984 1069.5 L438.115 1069.5 L438.115 1069.5  Z" fill="#4682b4" fill-rule="evenodd" fill-opacity="1"/>
<polyline clip-path="url(#clip871)" style="stroke:#000000; stroke-linecap:round; stroke-linejoin:round; stroke-width:4; stroke-opacity:1; fill:none" points="438.115,1069.5 438.115,1173.47 471.984,1173.47 471.984,1069.5 438.115,1069.5 "/>
<path clip-path="url(#clip871)" d="M471.984 1121.48 L471.984 1173.47 L505.852 1173.47 L505.852 1121.48 L471.984 1121.48 L471.984 1121.48  Z" fill="#4682b4" fill-rule="evenodd" fill-opacity="1"/>
<polyline clip-path="url(#clip871)" style="stroke:#000000; stroke-linecap:round; stroke-linejoin:round; stroke-width:4; stroke-opacity:1; fill:none" points="471.984,1121.48 471.984,1173.47 505.852,1173.47 505.852,1121.48 471.984,1121.48 "/>
<path clip-path="url(#clip871)" d="M505.852 1108.49 L505.852 1173.47 L539.721 1173.47 L539.721 1108.49 L505.852 1108.49 L505.852 1108.49  Z" fill="#4682b4" fill-rule="evenodd" fill-opacity="1"/>
<polyline clip-path="url(#clip871)" style="stroke:#000000; stroke-linecap:round; stroke-linejoin:round; stroke-width:4; stroke-opacity:1; fill:none" points="505.852,1108.49 505.852,1173.47 539.721,1173.47 539.721,1108.49 505.852,1108.49 "/>
<path clip-path="url(#clip871)" d="M539.721 1147.48 L539.721 1173.47 L573.589 1173.47 L573.589 1147.48 L539.721 1147.48 L539.721 1147.48  Z" fill="#4682b4" fill-rule="evenodd" fill-opacity="1"/>
<polyline clip-path="url(#clip871)" style="stroke:#000000; stroke-linecap:round; stroke-linejoin:round; stroke-width:4; stroke-opacity:1; fill:none" points="539.721,1147.48 539.721,1173.47 573.589,1173.47 573.589,1147.48 539.721,1147.48 "/>
<path clip-path="url(#clip871)" d="M573.589 1121.48 L573.589 1173.47 L607.457 1173.47 L607.457 1121.48 L573.589 1121.48 L573.589 1121.48  Z" fill="#4682b4" fill-rule="evenodd" fill-opacity="1"/>
<polyline clip-path="url(#clip871)" style="stroke:#000000; stroke-linecap:round; stroke-linejoin:round; stroke-width:4; stroke-opacity:1; fill:none" points="573.589,1121.48 573.589,1173.47 607.457,1173.47 607.457,1121.48 573.589,1121.48 "/>
<path clip-path="url(#clip871)" d="M607.457 1160.47 L607.457 1173.47 L641.326 1173.47 L641.326 1160.47 L607.457 1160.47 L607.457 1160.47  Z" fill="#4682b4" fill-rule="evenodd" fill-opacity="1"/>
<polyline clip-path="url(#clip871)" style="stroke:#000000; stroke-linecap:round; stroke-linejoin:round; stroke-width:4; stroke-opacity:1; fill:none" points="607.457,1160.47 607.457,1173.47 641.326,1173.47 641.326,1160.47 607.457,1160.47 "/>
<path clip-path="url(#clip871)" d="M641.326 1121.48 L641.326 1173.47 L675.194 1173.47 L675.194 1121.48 L641.326 1121.48 L641.326 1121.48  Z" fill="#4682b4" fill-rule="evenodd" fill-opacity="1"/>
<polyline clip-path="url(#clip871)" style="stroke:#000000; stroke-linecap:round; stroke-linejoin:round; stroke-width:4; stroke-opacity:1; fill:none" points="641.326,1121.48 641.326,1173.47 675.194,1173.47 675.194,1121.48 641.326,1121.48 "/>
<path clip-path="url(#clip871)" d="M675.194 1173.47 L675.194 1173.47 L709.063 1173.47 L709.063 1173.47 L675.194 1173.47 L675.194 1173.47  Z" fill="#4682b4" fill-rule="evenodd" fill-opacity="1"/>
<polyline clip-path="url(#clip871)" style="stroke:#000000; stroke-linecap:round; stroke-linejoin:round; stroke-width:4; stroke-opacity:1; fill:none" points="675.194,1173.47 675.194,1173.47 709.063,1173.47 675.194,1173.47 "/>
<path clip-path="url(#clip871)" d="M709.063 1173.47 L709.063 1173.47 L742.931 1173.47 L742.931 1173.47 L709.063 1173.47 L709.063 1173.47  Z" fill="#4682b4" fill-rule="evenodd" fill-opacity="1"/>
<polyline clip-path="url(#clip871)" style="stroke:#000000; stroke-linecap:round; stroke-linejoin:round; stroke-width:4; stroke-opacity:1; fill:none" points="709.063,1173.47 709.063,1173.47 742.931,1173.47 709.063,1173.47 "/>
<path clip-path="url(#clip871)" d="M742.931 1173.47 L742.931 1173.47 L776.8 1173.47 L776.8 1173.47 L742.931 1173.47 L742.931 1173.47  Z" fill="#4682b4" fill-rule="evenodd" fill-opacity="1"/>
<polyline clip-path="url(#clip871)" style="stroke:#000000; stroke-linecap:round; stroke-linejoin:round; stroke-width:4; stroke-opacity:1; fill:none" points="742.931,1173.47 742.931,1173.47 776.8,1173.47 742.931,1173.47 "/>
<path clip-path="url(#clip871)" d="M776.8 1160.47 L776.8 1173.47 L810.668 1173.47 L810.668 1160.47 L776.8 1160.47 L776.8 1160.47  Z" fill="#4682b4" fill-rule="evenodd" fill-opacity="1"/>
<polyline clip-path="url(#clip871)" style="stroke:#000000; stroke-linecap:round; stroke-linejoin:round; stroke-width:4; stroke-opacity:1; fill:none" points="776.8,1160.47 776.8,1173.47 810.668,1173.47 810.668,1160.47 776.8,1160.47 "/>
<path clip-path="url(#clip871)" d="M810.668 1173.47 L810.668 1173.47 L844.537 1173.47 L844.537 1173.47 L810.668 1173.47 L810.668 1173.47  Z" fill="#4682b4" fill-rule="evenodd" fill-opacity="1"/>
<polyline clip-path="url(#clip871)" style="stroke:#000000; stroke-linecap:round; stroke-linejoin:round; stroke-width:4; stroke-opacity:1; fill:none" points="810.668,1173.47 810.668,1173.47 844.537,1173.47 810.668,1173.47 "/>
<path clip-path="url(#clip871)" d="M844.537 1173.47 L844.537 1173.47 L878.405 1173.47 L878.405 1173.47 L844.537 1173.47 L844.537 1173.47  Z" fill="#4682b4" fill-rule="evenodd" fill-opacity="1"/>
<polyline clip-path="url(#clip871)" style="stroke:#000000; stroke-linecap:round; stroke-linejoin:round; stroke-width:4; stroke-opacity:1; fill:none" points="844.537,1173.47 844.537,1173.47 878.405,1173.47 844.537,1173.47 "/>
<path clip-path="url(#clip871)" d="M878.405 1147.48 L878.405 1173.47 L912.274 1173.47 L912.274 1147.48 L878.405 1147.48 L878.405 1147.48  Z" fill="#4682b4" fill-rule="evenodd" fill-opacity="1"/>
<polyline clip-path="url(#clip871)" style="stroke:#000000; stroke-linecap:round; stroke-linejoin:round; stroke-width:4; stroke-opacity:1; fill:none" points="878.405,1147.48 878.405,1173.47 912.274,1173.47 912.274,1147.48 878.405,1147.48 "/>
<path clip-path="url(#clip871)" d="M912.274 1173.47 L912.274 1173.47 L946.142 1173.47 L946.142 1173.47 L912.274 1173.47 L912.274 1173.47  Z" fill="#4682b4" fill-rule="evenodd" fill-opacity="1"/>
<polyline clip-path="url(#clip871)" style="stroke:#000000; stroke-linecap:round; stroke-linejoin:round; stroke-width:4; stroke-opacity:1; fill:none" points="912.274,1173.47 912.274,1173.47 946.142,1173.47 912.274,1173.47 "/>
<path clip-path="url(#clip871)" d="M946.142 1173.47 L946.142 1173.47 L980.01 1173.47 L980.01 1173.47 L946.142 1173.47 L946.142 1173.47  Z" fill="#4682b4" fill-rule="evenodd" fill-opacity="1"/>
<polyline clip-path="url(#clip871)" style="stroke:#000000; stroke-linecap:round; stroke-linejoin:round; stroke-width:4; stroke-opacity:1; fill:none" points="946.142,1173.47 946.142,1173.47 980.01,1173.47 946.142,1173.47 "/>
<path clip-path="url(#clip871)" d="M980.01 1147.48 L980.01 1173.47 L1013.88 1173.47 L1013.88 1147.48 L980.01 1147.48 L980.01 1147.48  Z" fill="#4682b4" fill-rule="evenodd" fill-opacity="1"/>
<polyline clip-path="url(#clip871)" style="stroke:#000000; stroke-linecap:round; stroke-linejoin:round; stroke-width:4; stroke-opacity:1; fill:none" points="980.01,1147.48 980.01,1173.47 1013.88,1173.47 1013.88,1147.48 980.01,1147.48 "/>
<path clip-path="url(#clip871)" d="M1013.88 1173.47 L1013.88 1173.47 L1047.75 1173.47 L1047.75 1173.47 L1013.88 1173.47 L1013.88 1173.47  Z" fill="#4682b4" fill-rule="evenodd" fill-opacity="1"/>
<polyline clip-path="url(#clip871)" style="stroke:#000000; stroke-linecap:round; stroke-linejoin:round; stroke-width:4; stroke-opacity:1; fill:none" points="1013.88,1173.47 1013.88,1173.47 1047.75,1173.47 1013.88,1173.47 "/>
<path clip-path="url(#clip871)" d="M1047.75 1173.47 L1047.75 1173.47 L1081.62 1173.47 L1081.62 1173.47 L1047.75 1173.47 L1047.75 1173.47  Z" fill="#4682b4" fill-rule="evenodd" fill-opacity="1"/>
<polyline clip-path="url(#clip871)" style="stroke:#000000; stroke-linecap:round; stroke-linejoin:round; stroke-width:4; stroke-opacity:1; fill:none" points="1047.75,1173.47 1047.75,1173.47 1081.62,1173.47 1047.75,1173.47 "/>
<path clip-path="url(#clip871)" d="M1081.62 1147.48 L1081.62 1173.47 L1115.48 1173.47 L1115.48 1147.48 L1081.62 1147.48 L1081.62 1147.48  Z" fill="#4682b4" fill-rule="evenodd" fill-opacity="1"/>
<polyline clip-path="url(#clip871)" style="stroke:#000000; stroke-linecap:round; stroke-linejoin:round; stroke-width:4; stroke-opacity:1; fill:none" points="1081.62,1147.48 1081.62,1173.47 1115.48,1173.47 1115.48,1147.48 1081.62,1147.48 "/>
<path clip-path="url(#clip871)" d="M1115.48 1160.47 L1115.48 1173.47 L1149.35 1173.47 L1149.35 1160.47 L1115.48 1160.47 L1115.48 1160.47  Z" fill="#4682b4" fill-rule="evenodd" fill-opacity="1"/>
<polyline clip-path="url(#clip871)" style="stroke:#000000; stroke-linecap:round; stroke-linejoin:round; stroke-width:4; stroke-opacity:1; fill:none" points="1115.48,1160.47 1115.48,1173.47 1149.35,1173.47 1149.35,1160.47 1115.48,1160.47 "/>
<path clip-path="url(#clip871)" d="M1149.35 1173.47 L1149.35 1173.47 L1183.22 1173.47 L1183.22 1173.47 L1149.35 1173.47 L1149.35 1173.47  Z" fill="#4682b4" fill-rule="evenodd" fill-opacity="1"/>
<polyline clip-path="url(#clip871)" style="stroke:#000000; stroke-linecap:round; stroke-linejoin:round; stroke-width:4; stroke-opacity:1; fill:none" points="1149.35,1173.47 1149.35,1173.47 1183.22,1173.47 1149.35,1173.47 "/>
<path clip-path="url(#clip871)" d="M1183.22 1173.47 L1183.22 1173.47 L1217.09 1173.47 L1217.09 1173.47 L1183.22 1173.47 L1183.22 1173.47  Z" fill="#4682b4" fill-rule="evenodd" fill-opacity="1"/>
<polyline clip-path="url(#clip871)" style="stroke:#000000; stroke-linecap:round; stroke-linejoin:round; stroke-width:4; stroke-opacity:1; fill:none" points="1183.22,1173.47 1183.22,1173.47 1217.09,1173.47 1183.22,1173.47 "/>
<path clip-path="url(#clip871)" d="M1217.09 1160.47 L1217.09 1173.47 L1250.96 1173.47 L1250.96 1160.47 L1217.09 1160.47 L1217.09 1160.47  Z" fill="#4682b4" fill-rule="evenodd" fill-opacity="1"/>
<polyline clip-path="url(#clip871)" style="stroke:#000000; stroke-linecap:round; stroke-linejoin:round; stroke-width:4; stroke-opacity:1; fill:none" points="1217.09,1160.47 1217.09,1173.47 1250.96,1173.47 1250.96,1160.47 1217.09,1160.47 "/>
<path clip-path="url(#clip871)" d="M1250.96 1173.47 L1250.96 1173.47 L1284.83 1173.47 L1284.83 1173.47 L1250.96 1173.47 L1250.96 1173.47  Z" fill="#4682b4" fill-rule="evenodd" fill-opacity="1"/>
<polyline clip-path="url(#clip871)" style="stroke:#000000; stroke-linecap:round; stroke-linejoin:round; stroke-width:4; stroke-opacity:1; fill:none" points="1250.96,1173.47 1250.96,1173.47 1284.83,1173.47 1250.96,1173.47 "/>
<path clip-path="url(#clip871)" d="M1284.83 1173.47 L1284.83 1173.47 L1318.69 1173.47 L1318.69 1173.47 L1284.83 1173.47 L1284.83 1173.47  Z" fill="#4682b4" fill-rule="evenodd" fill-opacity="1"/>
<polyline clip-path="url(#clip871)" style="stroke:#000000; stroke-linecap:round; stroke-linejoin:round; stroke-width:4; stroke-opacity:1; fill:none" points="1284.83,1173.47 1284.83,1173.47 1318.69,1173.47 1284.83,1173.47 "/>
<path clip-path="url(#clip871)" d="M1318.69 1173.47 L1318.69 1173.47 L1352.56 1173.47 L1352.56 1173.47 L1318.69 1173.47 L1318.69 1173.47  Z" fill="#4682b4" fill-rule="evenodd" fill-opacity="1"/>
<polyline clip-path="url(#clip871)" style="stroke:#000000; stroke-linecap:round; stroke-linejoin:round; stroke-width:4; stroke-opacity:1; fill:none" points="1318.69,1173.47 1318.69,1173.47 1352.56,1173.47 1318.69,1173.47 "/>
<path clip-path="url(#clip871)" d="M1352.56 1173.47 L1352.56 1173.47 L1386.43 1173.47 L1386.43 1173.47 L1352.56 1173.47 L1352.56 1173.47  Z" fill="#4682b4" fill-rule="evenodd" fill-opacity="1"/>
<polyline clip-path="url(#clip871)" style="stroke:#000000; stroke-linecap:round; stroke-linejoin:round; stroke-width:4; stroke-opacity:1; fill:none" points="1352.56,1173.47 1352.56,1173.47 1386.43,1173.47 1352.56,1173.47 "/>
<path clip-path="url(#clip871)" d="M1386.43 1173.47 L1386.43 1173.47 L1420.3 1173.47 L1420.3 1173.47 L1386.43 1173.47 L1386.43 1173.47  Z" fill="#4682b4" fill-rule="evenodd" fill-opacity="1"/>
<polyline clip-path="url(#clip871)" style="stroke:#000000; stroke-linecap:round; stroke-linejoin:round; stroke-width:4; stroke-opacity:1; fill:none" points="1386.43,1173.47 1386.43,1173.47 1420.3,1173.47 1386.43,1173.47 "/>
<path clip-path="url(#clip871)" d="M1420.3 1160.47 L1420.3 1173.47 L1454.17 1173.47 L1454.17 1160.47 L1420.3 1160.47 L1420.3 1160.47  Z" fill="#4682b4" fill-rule="evenodd" fill-opacity="1"/>
<polyline clip-path="url(#clip871)" style="stroke:#000000; stroke-linecap:round; stroke-linejoin:round; stroke-width:4; stroke-opacity:1; fill:none" points="1420.3,1160.47 1420.3,1173.47 1454.17,1173.47 1454.17,1160.47 1420.3,1160.47 "/>
<path clip-path="url(#clip871)" d="M1454.17 1173.47 L1454.17 1173.47 L1488.04 1173.47 L1488.04 1173.47 L1454.17 1173.47 L1454.17 1173.47  Z" fill="#4682b4" fill-rule="evenodd" fill-opacity="1"/>
<polyline clip-path="url(#clip871)" style="stroke:#000000; stroke-linecap:round; stroke-linejoin:round; stroke-width:4; stroke-opacity:1; fill:none" points="1454.17,1173.47 1454.17,1173.47 1488.04,1173.47 1454.17,1173.47 "/>
<path clip-path="url(#clip871)" d="M1488.04 1173.47 L1488.04 1173.47 L1521.91 1173.47 L1521.91 1173.47 L1488.04 1173.47 L1488.04 1173.47  Z" fill="#4682b4" fill-rule="evenodd" fill-opacity="1"/>
<polyline clip-path="url(#clip871)" style="stroke:#000000; stroke-linecap:round; stroke-linejoin:round; stroke-width:4; stroke-opacity:1; fill:none" points="1488.04,1173.47 1488.04,1173.47 1521.91,1173.47 1488.04,1173.47 "/>
<path clip-path="url(#clip871)" d="M1521.91 1173.47 L1521.91 1173.47 L1555.77 1173.47 L1555.77 1173.47 L1521.91 1173.47 L1521.91 1173.47  Z" fill="#4682b4" fill-rule="evenodd" fill-opacity="1"/>
<polyline clip-path="url(#clip871)" style="stroke:#000000; stroke-linecap:round; stroke-linejoin:round; stroke-width:4; stroke-opacity:1; fill:none" points="1521.91,1173.47 1521.91,1173.47 1555.77,1173.47 1521.91,1173.47 "/>
<path clip-path="url(#clip871)" d="M1555.77 1173.47 L1555.77 1173.47 L1589.64 1173.47 L1589.64 1173.47 L1555.77 1173.47 L1555.77 1173.47  Z" fill="#4682b4" fill-rule="evenodd" fill-opacity="1"/>
<polyline clip-path="url(#clip871)" style="stroke:#000000; stroke-linecap:round; stroke-linejoin:round; stroke-width:4; stroke-opacity:1; fill:none" points="1555.77,1173.47 1555.77,1173.47 1589.64,1173.47 1555.77,1173.47 "/>
<path clip-path="url(#clip871)" d="M1589.64 1173.47 L1589.64 1173.47 L1623.51 1173.47 L1623.51 1173.47 L1589.64 1173.47 L1589.64 1173.47  Z" fill="#4682b4" fill-rule="evenodd" fill-opacity="1"/>
<polyline clip-path="url(#clip871)" style="stroke:#000000; stroke-linecap:round; stroke-linejoin:round; stroke-width:4; stroke-opacity:1; fill:none" points="1589.64,1173.47 1589.64,1173.47 1623.51,1173.47 1589.64,1173.47 "/>
<path clip-path="url(#clip871)" d="M1623.51 1173.47 L1623.51 1173.47 L1657.38 1173.47 L1657.38 1173.47 L1623.51 1173.47 L1623.51 1173.47  Z" fill="#4682b4" fill-rule="evenodd" fill-opacity="1"/>
<polyline clip-path="url(#clip871)" style="stroke:#000000; stroke-linecap:round; stroke-linejoin:round; stroke-width:4; stroke-opacity:1; fill:none" points="1623.51,1173.47 1623.51,1173.47 1657.38,1173.47 1623.51,1173.47 "/>
<path clip-path="url(#clip871)" d="M1657.38 1173.47 L1657.38 1173.47 L1691.25 1173.47 L1691.25 1173.47 L1657.38 1173.47 L1657.38 1173.47  Z" fill="#4682b4" fill-rule="evenodd" fill-opacity="1"/>
<polyline clip-path="url(#clip871)" style="stroke:#000000; stroke-linecap:round; stroke-linejoin:round; stroke-width:4; stroke-opacity:1; fill:none" points="1657.38,1173.47 1657.38,1173.47 1691.25,1173.47 1657.38,1173.47 "/>
<path clip-path="url(#clip871)" d="M1691.25 1173.47 L1691.25 1173.47 L1725.12 1173.47 L1725.12 1173.47 L1691.25 1173.47 L1691.25 1173.47  Z" fill="#4682b4" fill-rule="evenodd" fill-opacity="1"/>
<polyline clip-path="url(#clip871)" style="stroke:#000000; stroke-linecap:round; stroke-linejoin:round; stroke-width:4; stroke-opacity:1; fill:none" points="1691.25,1173.47 1691.25,1173.47 1725.12,1173.47 1691.25,1173.47 "/>
<path clip-path="url(#clip871)" d="M1725.12 1173.47 L1725.12 1173.47 L1758.98 1173.47 L1758.98 1173.47 L1725.12 1173.47 L1725.12 1173.47  Z" fill="#4682b4" fill-rule="evenodd" fill-opacity="1"/>
<polyline clip-path="url(#clip871)" style="stroke:#000000; stroke-linecap:round; stroke-linejoin:round; stroke-width:4; stroke-opacity:1; fill:none" points="1725.12,1173.47 1725.12,1173.47 1758.98,1173.47 1725.12,1173.47 "/>
<path clip-path="url(#clip871)" d="M1758.98 1173.47 L1758.98 1173.47 L1792.85 1173.47 L1792.85 1173.47 L1758.98 1173.47 L1758.98 1173.47  Z" fill="#4682b4" fill-rule="evenodd" fill-opacity="1"/>
<polyline clip-path="url(#clip871)" style="stroke:#000000; stroke-linecap:round; stroke-linejoin:round; stroke-width:4; stroke-opacity:1; fill:none" points="1758.98,1173.47 1758.98,1173.47 1792.85,1173.47 1758.98,1173.47 "/>
<path clip-path="url(#clip871)" d="M1792.85 1173.47 L1792.85 1173.47 L1826.72 1173.47 L1826.72 1173.47 L1792.85 1173.47 L1792.85 1173.47  Z" fill="#4682b4" fill-rule="evenodd" fill-opacity="1"/>
<polyline clip-path="url(#clip871)" style="stroke:#000000; stroke-linecap:round; stroke-linejoin:round; stroke-width:4; stroke-opacity:1; fill:none" points="1792.85,1173.47 1792.85,1173.47 1826.72,1173.47 1792.85,1173.47 "/>
<path clip-path="url(#clip871)" d="M1826.72 1173.47 L1826.72 1173.47 L1860.59 1173.47 L1860.59 1173.47 L1826.72 1173.47 L1826.72 1173.47  Z" fill="#4682b4" fill-rule="evenodd" fill-opacity="1"/>
<polyline clip-path="url(#clip871)" style="stroke:#000000; stroke-linecap:round; stroke-linejoin:round; stroke-width:4; stroke-opacity:1; fill:none" points="1826.72,1173.47 1826.72,1173.47 1860.59,1173.47 1826.72,1173.47 "/>
<path clip-path="url(#clip871)" d="M1860.59 1173.47 L1860.59 1173.47 L1894.46 1173.47 L1894.46 1173.47 L1860.59 1173.47 L1860.59 1173.47  Z" fill="#4682b4" fill-rule="evenodd" fill-opacity="1"/>
<polyline clip-path="url(#clip871)" style="stroke:#000000; stroke-linecap:round; stroke-linejoin:round; stroke-width:4; stroke-opacity:1; fill:none" points="1860.59,1173.47 1860.59,1173.47 1894.46,1173.47 1860.59,1173.47 "/>
<path clip-path="url(#clip871)" d="M1894.46 1173.47 L1894.46 1173.47 L1928.33 1173.47 L1928.33 1173.47 L1894.46 1173.47 L1894.46 1173.47  Z" fill="#4682b4" fill-rule="evenodd" fill-opacity="1"/>
<polyline clip-path="url(#clip871)" style="stroke:#000000; stroke-linecap:round; stroke-linejoin:round; stroke-width:4; stroke-opacity:1; fill:none" points="1894.46,1173.47 1894.46,1173.47 1928.33,1173.47 1894.46,1173.47 "/>
<path clip-path="url(#clip871)" d="M1928.33 1160.47 L1928.33 1173.47 L1962.2 1173.47 L1962.2 1160.47 L1928.33 1160.47 L1928.33 1160.47  Z" fill="#4682b4" fill-rule="evenodd" fill-opacity="1"/>
<polyline clip-path="url(#clip871)" style="stroke:#000000; stroke-linecap:round; stroke-linejoin:round; stroke-width:4; stroke-opacity:1; fill:none" points="1928.33,1160.47 1928.33,1173.47 1962.2,1173.47 1962.2,1160.47 1928.33,1160.47 "/>
<circle clip-path="url(#clip871)" style="fill:#4682b4; stroke:none; fill-opacity:0" cx="319.576" cy="120.723" r="2"/>
<circle clip-path="url(#clip871)" style="fill:#4682b4; stroke:none; fill-opacity:0" cx="353.444" cy="640.598" r="2"/>
<circle clip-path="url(#clip871)" style="fill:#4682b4; stroke:none; fill-opacity:0" cx="387.313" cy="926.53" r="2"/>
<circle clip-path="url(#clip871)" style="fill:#4682b4; stroke:none; fill-opacity:0" cx="421.181" cy="913.533" r="2"/>
<circle clip-path="url(#clip871)" style="fill:#4682b4; stroke:none; fill-opacity:0" cx="455.049" cy="1069.5" r="2"/>
<circle clip-path="url(#clip871)" style="fill:#4682b4; stroke:none; fill-opacity:0" cx="488.918" cy="1121.48" r="2"/>
<circle clip-path="url(#clip871)" style="fill:#4682b4; stroke:none; fill-opacity:0" cx="522.786" cy="1108.49" r="2"/>
<circle clip-path="url(#clip871)" style="fill:#4682b4; stroke:none; fill-opacity:0" cx="556.655" cy="1147.48" r="2"/>
<circle clip-path="url(#clip871)" style="fill:#4682b4; stroke:none; fill-opacity:0" cx="590.523" cy="1121.48" r="2"/>
<circle clip-path="url(#clip871)" style="fill:#4682b4; stroke:none; fill-opacity:0" cx="624.392" cy="1160.47" r="2"/>
<circle clip-path="url(#clip871)" style="fill:#4682b4; stroke:none; fill-opacity:0" cx="658.26" cy="1121.48" r="2"/>
<circle clip-path="url(#clip871)" style="fill:#4682b4; stroke:none; fill-opacity:0" cx="692.129" cy="1173.47" r="2"/>
<circle clip-path="url(#clip871)" style="fill:#4682b4; stroke:none; fill-opacity:0" cx="725.997" cy="1173.47" r="2"/>
<circle clip-path="url(#clip871)" style="fill:#4682b4; stroke:none; fill-opacity:0" cx="759.865" cy="1173.47" r="2"/>
<circle clip-path="url(#clip871)" style="fill:#4682b4; stroke:none; fill-opacity:0" cx="793.734" cy="1160.47" r="2"/>
<circle clip-path="url(#clip871)" style="fill:#4682b4; stroke:none; fill-opacity:0" cx="827.602" cy="1173.47" r="2"/>
<circle clip-path="url(#clip871)" style="fill:#4682b4; stroke:none; fill-opacity:0" cx="861.471" cy="1173.47" r="2"/>
<circle clip-path="url(#clip871)" style="fill:#4682b4; stroke:none; fill-opacity:0" cx="895.339" cy="1147.48" r="2"/>
<circle clip-path="url(#clip871)" style="fill:#4682b4; stroke:none; fill-opacity:0" cx="929.208" cy="1173.47" r="2"/>
<circle clip-path="url(#clip871)" style="fill:#4682b4; stroke:none; fill-opacity:0" cx="963.076" cy="1173.47" r="2"/>
<circle clip-path="url(#clip871)" style="fill:#4682b4; stroke:none; fill-opacity:0" cx="996.945" cy="1147.48" r="2"/>
<circle clip-path="url(#clip871)" style="fill:#4682b4; stroke:none; fill-opacity:0" cx="1030.81" cy="1173.47" r="2"/>
<circle clip-path="url(#clip871)" style="fill:#4682b4; stroke:none; fill-opacity:0" cx="1064.68" cy="1173.47" r="2"/>
<circle clip-path="url(#clip871)" style="fill:#4682b4; stroke:none; fill-opacity:0" cx="1098.55" cy="1147.48" r="2"/>
<circle clip-path="url(#clip871)" style="fill:#4682b4; stroke:none; fill-opacity:0" cx="1132.42" cy="1160.47" r="2"/>
<circle clip-path="url(#clip871)" style="fill:#4682b4; stroke:none; fill-opacity:0" cx="1166.29" cy="1173.47" r="2"/>
<circle clip-path="url(#clip871)" style="fill:#4682b4; stroke:none; fill-opacity:0" cx="1200.16" cy="1173.47" r="2"/>
<circle clip-path="url(#clip871)" style="fill:#4682b4; stroke:none; fill-opacity:0" cx="1234.02" cy="1160.47" r="2"/>
<circle clip-path="url(#clip871)" style="fill:#4682b4; stroke:none; fill-opacity:0" cx="1267.89" cy="1173.47" r="2"/>
<circle clip-path="url(#clip871)" style="fill:#4682b4; stroke:none; fill-opacity:0" cx="1301.76" cy="1173.47" r="2"/>
<circle clip-path="url(#clip871)" style="fill:#4682b4; stroke:none; fill-opacity:0" cx="1335.63" cy="1173.47" r="2"/>
<circle clip-path="url(#clip871)" style="fill:#4682b4; stroke:none; fill-opacity:0" cx="1369.5" cy="1173.47" r="2"/>
<circle clip-path="url(#clip871)" style="fill:#4682b4; stroke:none; fill-opacity:0" cx="1403.37" cy="1173.47" r="2"/>
<circle clip-path="url(#clip871)" style="fill:#4682b4; stroke:none; fill-opacity:0" cx="1437.23" cy="1160.47" r="2"/>
<circle clip-path="url(#clip871)" style="fill:#4682b4; stroke:none; fill-opacity:0" cx="1471.1" cy="1173.47" r="2"/>
<circle clip-path="url(#clip871)" style="fill:#4682b4; stroke:none; fill-opacity:0" cx="1504.97" cy="1173.47" r="2"/>
<circle clip-path="url(#clip871)" style="fill:#4682b4; stroke:none; fill-opacity:0" cx="1538.84" cy="1173.47" r="2"/>
<circle clip-path="url(#clip871)" style="fill:#4682b4; stroke:none; fill-opacity:0" cx="1572.71" cy="1173.47" r="2"/>
<circle clip-path="url(#clip871)" style="fill:#4682b4; stroke:none; fill-opacity:0" cx="1606.58" cy="1173.47" r="2"/>
<circle clip-path="url(#clip871)" style="fill:#4682b4; stroke:none; fill-opacity:0" cx="1640.45" cy="1173.47" r="2"/>
<circle clip-path="url(#clip871)" style="fill:#4682b4; stroke:none; fill-opacity:0" cx="1674.31" cy="1173.47" r="2"/>
<circle clip-path="url(#clip871)" style="fill:#4682b4; stroke:none; fill-opacity:0" cx="1708.18" cy="1173.47" r="2"/>
<circle clip-path="url(#clip871)" style="fill:#4682b4; stroke:none; fill-opacity:0" cx="1742.05" cy="1173.47" r="2"/>
<circle clip-path="url(#clip871)" style="fill:#4682b4; stroke:none; fill-opacity:0" cx="1775.92" cy="1173.47" r="2"/>
<circle clip-path="url(#clip871)" style="fill:#4682b4; stroke:none; fill-opacity:0" cx="1809.79" cy="1173.47" r="2"/>
<circle clip-path="url(#clip871)" style="fill:#4682b4; stroke:none; fill-opacity:0" cx="1843.66" cy="1173.47" r="2"/>
<circle clip-path="url(#clip871)" style="fill:#4682b4; stroke:none; fill-opacity:0" cx="1877.52" cy="1173.47" r="2"/>
<circle clip-path="url(#clip871)" style="fill:#4682b4; stroke:none; fill-opacity:0" cx="1911.39" cy="1173.47" r="2"/>
<circle clip-path="url(#clip871)" style="fill:#4682b4; stroke:none; fill-opacity:0" cx="1945.26" cy="1160.47" r="2"/>
</svg>
