<?xml version="1.0" encoding="utf-8"?>
<svg xmlns="http://www.w3.org/2000/svg" xmlns:xlink="http://www.w3.org/1999/xlink" width="528" height="336" viewBox="0 0 2112 1344">
<defs>
  <clipPath id="clip900">
    <rect x="0" y="0" width="2112" height="1344"/>
  </clipPath>
</defs>
<path clip-path="url(#clip900)" d="M0 1344 L2112 1344 L2112 2.13163e-14 L0 2.13163e-14  Z" fill="#ffffff" fill-rule="evenodd" fill-opacity="1"/>
<defs>
  <clipPath id="clip901">
    <rect x="214" y="120" width="1851" height="1054"/>
  </clipPath>
</defs>
<path clip-path="url(#clip900)" d="M214.826 1173.47 L2064.76 1173.47 L2064.76 120.723 L214.826 120.723  Z" fill="#ffffff" fill-rule="evenodd" fill-opacity="1"/>
<polyline clip-path="url(#clip901)" style="stroke:#000000; stroke-linecap:round; stroke-linejoin:round; stroke-width:2; stroke-opacity:0.1; fill:none" points="267.183,1173.47 267.183,120.723 "/>
<polyline clip-path="url(#clip901)" style="stroke:#000000; stroke-linecap:round; stroke-linejoin:round; stroke-width:2; stroke-opacity:0.1; fill:none" points="703.487,1173.47 703.487,120.723 "/>
<polyline clip-path="url(#clip901)" style="stroke:#000000; stroke-linecap:round; stroke-linejoin:round; stroke-width:2; stroke-opacity:0.1; fill:none" points="1139.79,1173.47 1139.79,120.723 "/>
<polyline clip-path="url(#clip901)" style="stroke:#000000; stroke-linecap:round; stroke-linejoin:round; stroke-width:2; stroke-opacity:0.1; fill:none" points="1576.1,1173.47 1576.1,120.723 "/>
<polyline clip-path="url(#clip901)" style="stroke:#000000; stroke-linecap:round; stroke-linejoin:round; stroke-width:2; stroke-opacity:0.1; fill:none" points="2012.4,1173.47 2012.4,120.723 "/>
<polyline clip-path="url(#clip901)" style="stroke:#000000; stroke-linecap:round; stroke-linejoin:round; stroke-width:2; stroke-opacity:0.1; fill:none" points="214.826,1143.82 2064.76,1143.82 "/>
<polyline clip-path="url(#clip901)" style="stroke:#000000; stroke-linecap:round; stroke-linejoin:round; stroke-width:2; stroke-opacity:0.1; fill:none" points="214.826,978.462 2064.76,978.462 "/>
<polyline clip-path="url(#clip901)" style="stroke:#000000; stroke-linecap:round; stroke-linejoin:round; stroke-width:2; stroke-opacity:0.1; fill:none" points="214.826,813.1 2064.76,813.1 "/>
<polyline clip-path="url(#clip901)" style="stroke:#000000; stroke-linecap:round; stroke-linejoin:round; stroke-width:2; stroke-opacity:0.1; fill:none" points="214.826,647.738 2064.76,647.738 "/>
<polyline clip-path="url(#clip901)" style="stroke:#000000; stroke-linecap:round; stroke-linejoin:round; stroke-width:2; stroke-opacity:0.1; fill:none" points="214.826,482.376 2064.76,482.376 "/>
<polyline clip-path="url(#clip901)" style="stroke:#000000; stroke-linecap:round; stroke-linejoin:round; stroke-width:2; stroke-opacity:0.1; fill:none" points="214.826,317.014 2064.76,317.014 "/>
<polyline clip-path="url(#clip901)" style="stroke:#000000; stroke-linecap:round; stroke-linejoin:round; stroke-width:2; stroke-opacity:0.1; fill:none" points="214.826,151.652 2064.76,151.652 "/>
<polyline clip-path="url(#clip900)" style="stroke:#000000; stroke-linecap:round; stroke-linejoin:round; stroke-width:4; stroke-opacity:1; fill:none" points="214.826,1173.47 2064.76,1173.47 "/>
<polyline clip-path="url(#clip900)" style="stroke:#000000; stroke-linecap:round; stroke-linejoin:round; stroke-width:4; stroke-opacity:1; fill:none" points="267.183,1173.47 267.183,1154.57 "/>
<polyline clip-path="url(#clip900)" style="stroke:#000000; stroke-linecap:round; stroke-linejoin:round; stroke-width:4; stroke-opacity:1; fill:none" points="703.487,1173.47 703.487,1154.57 "/>
<polyline clip-path="url(#clip900)" style="stroke:#000000; stroke-linecap:round; stroke-linejoin:round; stroke-width:4; stroke-opacity:1; fill:none" points="1139.79,1173.47 1139.79,1154.57 "/>
<polyline clip-path="url(#clip900)" style="stroke:#000000; stroke-linecap:round; stroke-linejoin:round; stroke-width:4; stroke-opacity:1; fill:none" points="1576.1,1173.47 1576.1,1154.57 "/>
<polyline clip-path="url(#clip900)" style="stroke:#000000; stroke-linecap:round; stroke-linejoin:round; stroke-width:4; stroke-opacity:1; fill:none" points="2012.4,1173.47 2012.4,1154.57 "/>
<path clip-path="url(#clip900)" d="M267.183 1202.09 Q263.572 1202.09 261.743 1205.65 Q259.937 1209.19 259.937 1216.32 Q259.937 1223.43 261.743 1226.99 Q263.572 1230.53 267.183 1230.53 Q270.817 1230.53 272.623 1226.99 Q274.451 1223.43 274.451 1216.32 Q274.451 1209.19 272.623 1205.65 Q270.817 1202.09 267.183 1202.09 M267.183 1198.38 Q272.993 1198.38 276.048 1202.99 Q279.127 1207.57 279.127 1216.32 Q279.127 1225.05 276.048 1229.65 Q272.993 1234.24 267.183 1234.24 Q261.373 1234.24 258.294 1229.65 Q255.238 1225.05 255.238 1216.32 Q255.238 1207.57 258.294 1202.99 Q261.373 1198.38 267.183 1198.38 Z" fill="#000000" fill-rule="nonzero" fill-opacity="1" /><path clip-path="url(#clip900)" d="M682.758 1229.63 L699.077 1229.63 L699.077 1233.57 L677.133 1233.57 L677.133 1229.63 Q679.795 1226.88 684.378 1222.25 Q688.985 1217.59 690.165 1216.25 Q692.411 1213.73 693.29 1211.99 Q694.193 1210.23 694.193 1208.54 Q694.193 1205.79 692.249 1204.05 Q690.327 1202.32 687.225 1202.32 Q685.026 1202.32 682.573 1203.08 Q680.142 1203.84 677.364 1205.4 L677.364 1200.67 Q680.188 1199.54 682.642 1198.96 Q685.096 1198.38 687.133 1198.38 Q692.503 1198.38 695.698 1201.07 Q698.892 1203.75 698.892 1208.24 Q698.892 1210.37 698.082 1212.29 Q697.295 1214.19 695.188 1216.78 Q694.61 1217.46 691.508 1220.67 Q688.406 1223.87 682.758 1229.63 Z" fill="#000000" fill-rule="nonzero" fill-opacity="1" /><path clip-path="url(#clip900)" d="M708.938 1199.01 L727.295 1199.01 L727.295 1202.94 L713.221 1202.94 L713.221 1211.41 Q714.239 1211.07 715.258 1210.9 Q716.276 1210.72 717.295 1210.72 Q723.082 1210.72 726.461 1213.89 Q729.841 1217.06 729.841 1222.48 Q729.841 1228.06 726.369 1231.16 Q722.897 1234.24 716.577 1234.24 Q714.401 1234.24 712.133 1233.87 Q709.887 1233.5 707.48 1232.76 L707.48 1228.06 Q709.563 1229.19 711.785 1229.75 Q714.008 1230.3 716.485 1230.3 Q720.489 1230.3 722.827 1228.2 Q725.165 1226.09 725.165 1222.48 Q725.165 1218.87 722.827 1216.76 Q720.489 1214.65 716.485 1214.65 Q714.61 1214.65 712.735 1215.07 Q710.883 1215.49 708.938 1216.37 L708.938 1199.01 Z" fill="#000000" fill-rule="nonzero" fill-opacity="1" /><path clip-path="url(#clip900)" d="M1114.49 1199.01 L1132.85 1199.01 L1132.85 1202.94 L1118.77 1202.94 L1118.77 1211.41 Q1119.79 1211.07 1120.81 1210.9 Q1121.83 1210.72 1122.85 1210.72 Q1128.63 1210.72 1132.01 1213.89 Q1135.39 1217.06 1135.39 1222.48 Q1135.39 1228.06 1131.92 1231.16 Q1128.45 1234.24 1122.13 1234.24 Q1119.95 1234.24 1117.68 1233.87 Q1115.44 1233.5 1113.03 1232.76 L1113.03 1228.06 Q1115.12 1229.19 1117.34 1229.75 Q1119.56 1230.3 1122.04 1230.3 Q1126.04 1230.3 1128.38 1228.2 Q1130.72 1226.09 1130.72 1222.48 Q1130.72 1218.87 1128.38 1216.76 Q1126.04 1214.65 1122.04 1214.65 Q1120.16 1214.65 1118.29 1215.07 Q1116.43 1215.49 1114.49 1216.37 L1114.49 1199.01 Z" fill="#000000" fill-rule="nonzero" fill-opacity="1" /><path clip-path="url(#clip900)" d="M1154.61 1202.09 Q1150.99 1202.09 1149.17 1205.65 Q1147.36 1209.19 1147.36 1216.32 Q1147.36 1223.43 1149.17 1226.99 Q1150.99 1230.53 1154.61 1230.53 Q1158.24 1230.53 1160.05 1226.99 Q1161.87 1223.43 1161.87 1216.32 Q1161.87 1209.19 1160.05 1205.65 Q1158.24 1202.09 1154.61 1202.09 M1154.61 1198.38 Q1160.42 1198.38 1163.47 1202.99 Q1166.55 1207.57 1166.55 1216.32 Q1166.55 1225.05 1163.47 1229.65 Q1160.42 1234.24 1154.61 1234.24 Q1148.8 1234.24 1145.72 1229.65 Q1142.66 1225.05 1142.66 1216.32 Q1142.66 1207.57 1145.72 1202.99 Q1148.8 1198.38 1154.61 1198.38 Z" fill="#000000" fill-rule="nonzero" fill-opacity="1" /><path clip-path="url(#clip900)" d="M1549.95 1199.01 L1572.17 1199.01 L1572.17 1201 L1559.63 1233.57 L1554.74 1233.57 L1566.55 1202.94 L1549.95 1202.94 L1549.95 1199.01 Z" fill="#000000" fill-rule="nonzero" fill-opacity="1" /><path clip-path="url(#clip900)" d="M1581.34 1199.01 L1599.69 1199.01 L1599.69 1202.94 L1585.62 1202.94 L1585.62 1211.41 Q1586.64 1211.07 1587.66 1210.9 Q1588.68 1210.72 1589.69 1210.72 Q1595.48 1210.72 1598.86 1213.89 Q1602.24 1217.06 1602.24 1222.48 Q1602.24 1228.06 1598.77 1231.16 Q1595.3 1234.24 1588.98 1234.24 Q1586.8 1234.24 1584.53 1233.87 Q1582.29 1233.5 1579.88 1232.76 L1579.88 1228.06 Q1581.96 1229.19 1584.19 1229.75 Q1586.41 1230.3 1588.88 1230.3 Q1592.89 1230.3 1595.23 1228.2 Q1597.57 1226.09 1597.57 1222.48 Q1597.57 1218.87 1595.23 1216.76 Q1592.89 1214.65 1588.88 1214.65 Q1587.01 1214.65 1585.13 1215.07 Q1583.28 1215.49 1581.34 1216.37 L1581.34 1199.01 Z" fill="#000000" fill-rule="nonzero" fill-opacity="1" /><path clip-path="url(#clip900)" d="M1972.01 1229.63 L1979.64 1229.63 L1979.64 1203.27 L1971.33 1204.93 L1971.33 1200.67 L1979.6 1199.01 L1984.27 1199.01 L1984.27 1229.63 L1991.91 1229.63 L1991.91 1233.57 L1972.01 1233.57 L1972.01 1229.63 Z" fill="#000000" fill-rule="nonzero" fill-opacity="1" /><path clip-path="url(#clip900)" d="M2011.36 1202.09 Q2007.75 1202.09 2005.92 1205.65 Q2004.11 1209.19 2004.11 1216.32 Q2004.11 1223.43 2005.92 1226.99 Q2007.75 1230.53 2011.36 1230.53 Q2014.99 1230.53 2016.8 1226.99 Q2018.63 1223.43 2018.63 1216.32 Q2018.63 1209.19 2016.8 1205.65 Q2014.99 1202.09 2011.36 1202.09 M2011.36 1198.38 Q2017.17 1198.38 2020.22 1202.99 Q2023.3 1207.57 2023.3 1216.32 Q2023.3 1225.05 2020.22 1229.65 Q2017.17 1234.24 2011.36 1234.24 Q2005.55 1234.24 2002.47 1229.65 Q1999.41 1225.05 1999.41 1216.32 Q1999.41 1207.57 2002.47 1202.99 Q2005.55 1198.38 2011.36 1198.38 Z" fill="#000000" fill-rule="nonzero" fill-opacity="1" /><path clip-path="url(#clip900)" d="M2041.52 1202.09 Q2037.91 1202.09 2036.08 1205.65 Q2034.27 1209.19 2034.27 1216.32 Q2034.27 1223.43 2036.08 1226.99 Q2037.91 1230.53 2041.52 1230.53 Q2045.15 1230.53 2046.96 1226.99 Q2048.79 1223.43 2048.79 1216.32 Q2048.79 1209.19 2046.96 1205.65 Q2045.15 1202.09 2041.52 1202.09 M2041.52 1198.38 Q2047.33 1198.38 2050.39 1202.99 Q2053.46 1207.57 2053.46 1216.32 Q2053.46 1225.05 2050.39 1229.65 Q2047.33 1234.24 2041.52 1234.24 Q2035.71 1234.24 2032.63 1229.65 Q2029.58 1225.05 2029.58 1216.32 Q2029.58 1207.57 2032.63 1202.99 Q2035.71 1198.38 2041.52 1198.38 Z" fill="#000000" fill-rule="nonzero" fill-opacity="1" /><path clip-path="url(#clip900)" d="M1061.67 1266.49 L1101.87 1266.49 L1101.87 1271.91 L1085 1271.91 L1085 1314.01 L1078.54 1314.01 L1078.54 1271.91 L1061.67 1271.91 L1061.67 1266.49 Z" fill="#000000" fill-rule="nonzero" fill-opacity="1" /><path clip-path="url(#clip900)" d="M1105.81 1278.37 L1111.67 1278.37 L1111.67 1314.01 L1105.81 1314.01 L1105.81 1278.37 M1105.81 1264.49 L1111.67 1264.49 L1111.67 1271.91 L1105.81 1271.91 L1105.81 1264.49 Z" fill="#000000" fill-rule="nonzero" fill-opacity="1" /><path clip-path="url(#clip900)" d="M1151.68 1285.21 Q1153.88 1281.26 1156.93 1279.39 Q1159.99 1277.51 1164.12 1277.51 Q1169.69 1277.51 1172.72 1281.42 Q1175.74 1285.31 1175.74 1292.5 L1175.74 1314.01 L1169.85 1314.01 L1169.85 1292.69 Q1169.85 1287.57 1168.04 1285.08 Q1166.22 1282.6 1162.5 1282.6 Q1157.95 1282.6 1155.31 1285.62 Q1152.67 1288.65 1152.67 1293.87 L1152.67 1314.01 L1146.78 1314.01 L1146.78 1292.69 Q1146.78 1287.53 1144.96 1285.08 Q1143.15 1282.6 1139.36 1282.6 Q1134.87 1282.6 1132.23 1285.66 Q1129.59 1288.68 1129.59 1293.87 L1129.59 1314.01 L1123.7 1314.01 L1123.7 1278.37 L1129.59 1278.37 L1129.59 1283.9 Q1131.6 1280.63 1134.4 1279.07 Q1137.2 1277.51 1141.05 1277.51 Q1144.93 1277.51 1147.64 1279.48 Q1150.37 1281.45 1151.68 1285.21 Z" fill="#000000" fill-rule="nonzero" fill-opacity="1" /><path clip-path="url(#clip900)" d="M1217.91 1294.73 L1217.91 1297.59 L1190.99 1297.59 Q1191.37 1303.64 1194.62 1306.82 Q1197.89 1309.97 1203.72 1309.97 Q1207.09 1309.97 1210.24 1309.14 Q1213.43 1308.32 1216.55 1306.66 L1216.55 1312.2 Q1213.39 1313.54 1210.08 1314.24 Q1206.77 1314.94 1203.37 1314.94 Q1194.84 1314.94 1189.84 1309.97 Q1184.88 1305.01 1184.88 1296.54 Q1184.88 1287.79 1189.59 1282.66 Q1194.33 1277.51 1202.35 1277.51 Q1209.54 1277.51 1213.71 1282.15 Q1217.91 1286.77 1217.91 1294.73 M1212.06 1293.01 Q1211.99 1288.2 1209.35 1285.34 Q1206.74 1282.47 1202.41 1282.47 Q1197.51 1282.47 1194.55 1285.24 Q1191.62 1288.01 1191.18 1293.04 L1212.06 1293.01 Z" fill="#000000" fill-rule="nonzero" fill-opacity="1" /><polyline clip-path="url(#clip900)" style="stroke:#000000; stroke-linecap:round; stroke-linejoin:round; stroke-width:4; stroke-opacity:1; fill:none" points="214.826,1173.47 214.826,120.723 "/>
<polyline clip-path="url(#clip900)" style="stroke:#000000; stroke-linecap:round; stroke-linejoin:round; stroke-width:4; stroke-opacity:1; fill:none" points="214.826,1143.82 233.724,1143.82 "/>
<polyline clip-path="url(#clip900)" style="stroke:#000000; stroke-linecap:round; stroke-linejoin:round; stroke-width:4; stroke-opacity:1; fill:none" points="214.826,978.462 233.724,978.462 "/>
<polyline clip-path="url(#clip900)" style="stroke:#000000; stroke-linecap:round; stroke-linejoin:round; stroke-width:4; stroke-opacity:1; fill:none" points="214.826,813.1 233.724,813.1 "/>
<polyline clip-path="url(#clip900)" style="stroke:#000000; stroke-linecap:round; stroke-linejoin:round; stroke-width:4; stroke-opacity:1; fill:none" points="214.826,647.738 233.724,647.738 "/>
<polyline clip-path="url(#clip900)" style="stroke:#000000; stroke-linecap:round; stroke-linejoin:round; stroke-width:4; stroke-opacity:1; fill:none" points="214.826,482.376 233.724,482.376 "/>
<polyline clip-path="url(#clip900)" style="stroke:#000000; stroke-linecap:round; stroke-linejoin:round; stroke-width:4; stroke-opacity:1; fill:none" points="214.826,317.014 233.724,317.014 "/>
<polyline clip-path="url(#clip900)" style="stroke:#000000; stroke-linecap:round; stroke-linejoin:round; stroke-width:4; stroke-opacity:1; fill:none" points="214.826,151.652 233.724,151.652 "/>
<path clip-path="url(#clip900)" d="M125.971 1129.62 Q122.36 1129.62 120.531 1133.19 Q118.725 1136.73 118.725 1143.86 Q118.725 1150.97 120.531 1154.53 Q122.36 1158.07 125.971 1158.07 Q129.605 1158.07 131.41 1154.53 Q133.239 1150.97 133.239 1143.86 Q133.239 1136.73 131.41 1133.19 Q129.605 1129.62 125.971 1129.62 M125.971 1125.92 Q131.781 1125.92 134.836 1130.53 Q137.915 1135.11 137.915 1143.86 Q137.915 1152.59 134.836 1157.19 Q131.781 1161.78 125.971 1161.78 Q120.16 1161.78 117.082 1157.19 Q114.026 1152.59 114.026 1143.86 Q114.026 1135.11 117.082 1130.53 Q120.16 1125.92 125.971 1125.92 Z" fill="#000000" fill-rule="nonzero" fill-opacity="1" /><path clip-path="url(#clip900)" d="M146.133 1155.22 L151.017 1155.22 L151.017 1161.1 L146.133 1161.1 L146.133 1155.22 Z" fill="#000000" fill-rule="nonzero" fill-opacity="1" /><path clip-path="url(#clip900)" d="M171.202 1129.62 Q167.591 1129.62 165.762 1133.19 Q163.957 1136.73 163.957 1143.86 Q163.957 1150.97 165.762 1154.53 Q167.591 1158.07 171.202 1158.07 Q174.836 1158.07 176.642 1154.53 Q178.47 1150.97 178.47 1143.86 Q178.47 1136.73 176.642 1133.19 Q174.836 1129.62 171.202 1129.62 M171.202 1125.92 Q177.012 1125.92 180.068 1130.53 Q183.146 1135.11 183.146 1143.86 Q183.146 1152.59 180.068 1157.19 Q177.012 1161.78 171.202 1161.78 Q165.392 1161.78 162.313 1157.19 Q159.258 1152.59 159.258 1143.86 Q159.258 1135.11 162.313 1130.53 Q165.392 1125.92 171.202 1125.92 Z" fill="#000000" fill-rule="nonzero" fill-opacity="1" /><path clip-path="url(#clip900)" d="M127.197 964.261 Q123.586 964.261 121.758 967.826 Q119.952 971.367 119.952 978.497 Q119.952 985.603 121.758 989.168 Q123.586 992.71 127.197 992.71 Q130.832 992.71 132.637 989.168 Q134.466 985.603 134.466 978.497 Q134.466 971.367 132.637 967.826 Q130.832 964.261 127.197 964.261 M127.197 960.557 Q133.008 960.557 136.063 965.164 Q139.142 969.747 139.142 978.497 Q139.142 987.224 136.063 991.83 Q133.008 996.413 127.197 996.413 Q121.387 996.413 118.309 991.83 Q115.253 987.224 115.253 978.497 Q115.253 969.747 118.309 965.164 Q121.387 960.557 127.197 960.557 Z" fill="#000000" fill-rule="nonzero" fill-opacity="1" /><path clip-path="url(#clip900)" d="M147.359 989.863 L152.244 989.863 L152.244 995.742 L147.359 995.742 L147.359 989.863 Z" fill="#000000" fill-rule="nonzero" fill-opacity="1" /><path clip-path="url(#clip900)" d="M163.239 991.807 L170.878 991.807 L170.878 965.441 L162.568 967.108 L162.568 962.849 L170.832 961.182 L175.507 961.182 L175.507 991.807 L183.146 991.807 L183.146 995.742 L163.239 995.742 L163.239 991.807 Z" fill="#000000" fill-rule="nonzero" fill-opacity="1" /><path clip-path="url(#clip900)" d="M127.568 798.899 Q123.957 798.899 122.128 802.464 Q120.323 806.005 120.323 813.135 Q120.323 820.241 122.128 823.806 Q123.957 827.348 127.568 827.348 Q131.202 827.348 133.008 823.806 Q134.836 820.241 134.836 813.135 Q134.836 806.005 133.008 802.464 Q131.202 798.899 127.568 798.899 M127.568 795.195 Q133.378 795.195 136.434 799.802 Q139.512 804.385 139.512 813.135 Q139.512 821.862 136.434 826.468 Q133.378 831.051 127.568 831.051 Q121.758 831.051 118.679 826.468 Q115.623 821.862 115.623 813.135 Q115.623 804.385 118.679 799.802 Q121.758 795.195 127.568 795.195 Z" fill="#000000" fill-rule="nonzero" fill-opacity="1" /><path clip-path="url(#clip900)" d="M147.73 824.501 L152.614 824.501 L152.614 830.38 L147.73 830.38 L147.73 824.501 Z" fill="#000000" fill-rule="nonzero" fill-opacity="1" /><path clip-path="url(#clip900)" d="M166.827 826.445 L183.146 826.445 L183.146 830.38 L161.202 830.38 L161.202 826.445 Q163.864 823.69 168.447 819.061 Q173.054 814.408 174.234 813.065 Q176.48 810.542 177.359 808.806 Q178.262 807.047 178.262 805.357 Q178.262 802.602 176.318 800.866 Q174.396 799.13 171.294 799.13 Q169.095 799.13 166.642 799.894 Q164.211 800.658 161.433 802.209 L161.433 797.487 Q164.257 796.353 166.711 795.774 Q169.165 795.195 171.202 795.195 Q176.572 795.195 179.767 797.88 Q182.961 800.565 182.961 805.056 Q182.961 807.186 182.151 809.107 Q181.364 811.005 179.257 813.598 Q178.679 814.269 175.577 817.487 Q172.475 820.681 166.827 826.445 Z" fill="#000000" fill-rule="nonzero" fill-opacity="1" /><path clip-path="url(#clip900)" d="M126.619 633.537 Q123.008 633.537 121.179 637.102 Q119.373 640.643 119.373 647.773 Q119.373 654.879 121.179 658.444 Q123.008 661.986 126.619 661.986 Q130.253 661.986 132.059 658.444 Q133.887 654.879 133.887 647.773 Q133.887 640.643 132.059 637.102 Q130.253 633.537 126.619 633.537 M126.619 629.833 Q132.429 629.833 135.484 634.44 Q138.563 639.023 138.563 647.773 Q138.563 656.5 135.484 661.106 Q132.429 665.689 126.619 665.689 Q120.809 665.689 117.73 661.106 Q114.674 656.5 114.674 647.773 Q114.674 639.023 117.73 634.44 Q120.809 629.833 126.619 629.833 Z" fill="#000000" fill-rule="nonzero" fill-opacity="1" /><path clip-path="url(#clip900)" d="M146.781 659.139 L151.665 659.139 L151.665 665.018 L146.781 665.018 L146.781 659.139 Z" fill="#000000" fill-rule="nonzero" fill-opacity="1" /><path clip-path="url(#clip900)" d="M176.017 646.384 Q179.373 647.102 181.248 649.37 Q183.146 651.639 183.146 654.972 Q183.146 660.088 179.628 662.888 Q176.109 665.689 169.628 665.689 Q167.452 665.689 165.137 665.25 Q162.845 664.833 160.392 663.976 L160.392 659.463 Q162.336 660.597 164.651 661.176 Q166.966 661.754 169.489 661.754 Q173.887 661.754 176.179 660.018 Q178.494 658.282 178.494 654.972 Q178.494 651.916 176.341 650.203 Q174.211 648.467 170.392 648.467 L166.364 648.467 L166.364 644.625 L170.577 644.625 Q174.026 644.625 175.855 643.259 Q177.683 641.87 177.683 639.278 Q177.683 636.615 175.785 635.203 Q173.91 633.768 170.392 633.768 Q168.47 633.768 166.271 634.185 Q164.072 634.602 161.433 635.481 L161.433 631.315 Q164.095 630.574 166.41 630.203 Q168.748 629.833 170.808 629.833 Q176.132 629.833 179.234 632.264 Q182.336 634.671 182.336 638.791 Q182.336 641.662 180.693 643.652 Q179.049 645.62 176.017 646.384 Z" fill="#000000" fill-rule="nonzero" fill-opacity="1" /><path clip-path="url(#clip900)" d="M125.485 468.175 Q121.873 468.175 120.045 471.74 Q118.239 475.281 118.239 482.411 Q118.239 489.517 120.045 493.082 Q121.873 496.624 125.485 496.624 Q129.119 496.624 130.924 493.082 Q132.753 489.517 132.753 482.411 Q132.753 475.281 130.924 471.74 Q129.119 468.175 125.485 468.175 M125.485 464.471 Q131.295 464.471 134.35 469.078 Q137.429 473.661 137.429 482.411 Q137.429 491.138 134.35 495.744 Q131.295 500.327 125.485 500.327 Q119.674 500.327 116.596 495.744 Q113.54 491.138 113.54 482.411 Q113.54 473.661 116.596 469.078 Q119.674 464.471 125.485 464.471 Z" fill="#000000" fill-rule="nonzero" fill-opacity="1" /><path clip-path="url(#clip900)" d="M145.646 493.776 L150.531 493.776 L150.531 499.656 L145.646 499.656 L145.646 493.776 Z" fill="#000000" fill-rule="nonzero" fill-opacity="1" /><path clip-path="url(#clip900)" d="M173.563 469.17 L161.757 487.619 L173.563 487.619 L173.563 469.17 M172.336 465.096 L178.216 465.096 L178.216 487.619 L183.146 487.619 L183.146 491.508 L178.216 491.508 L178.216 499.656 L173.563 499.656 L173.563 491.508 L157.961 491.508 L157.961 486.994 L172.336 465.096 Z" fill="#000000" fill-rule="nonzero" fill-opacity="1" /><path clip-path="url(#clip900)" d="M126.966 302.813 Q123.355 302.813 121.526 306.378 Q119.721 309.919 119.721 317.049 Q119.721 324.155 121.526 327.72 Q123.355 331.262 126.966 331.262 Q130.6 331.262 132.406 327.72 Q134.234 324.155 134.234 317.049 Q134.234 309.919 132.406 306.378 Q130.6 302.813 126.966 302.813 M126.966 299.109 Q132.776 299.109 135.832 303.716 Q138.91 308.299 138.91 317.049 Q138.91 325.776 135.832 330.382 Q132.776 334.965 126.966 334.965 Q121.156 334.965 118.077 330.382 Q115.022 325.776 115.022 317.049 Q115.022 308.299 118.077 303.716 Q121.156 299.109 126.966 299.109 Z" fill="#000000" fill-rule="nonzero" fill-opacity="1" /><path clip-path="url(#clip900)" d="M147.128 328.414 L152.012 328.414 L152.012 334.294 L147.128 334.294 L147.128 328.414 Z" fill="#000000" fill-rule="nonzero" fill-opacity="1" /><path clip-path="url(#clip900)" d="M162.244 299.734 L180.6 299.734 L180.6 303.669 L166.526 303.669 L166.526 312.141 Q167.544 311.794 168.563 311.632 Q169.582 311.447 170.6 311.447 Q176.387 311.447 179.767 314.618 Q183.146 317.79 183.146 323.206 Q183.146 328.785 179.674 331.887 Q176.202 334.965 169.882 334.965 Q167.707 334.965 165.438 334.595 Q163.193 334.225 160.785 333.484 L160.785 328.785 Q162.869 329.919 165.091 330.475 Q167.313 331.03 169.79 331.03 Q173.794 331.03 176.132 328.924 Q178.47 326.817 178.47 323.206 Q178.47 319.595 176.132 317.489 Q173.794 315.382 169.79 315.382 Q167.915 315.382 166.04 315.799 Q164.188 316.215 162.244 317.095 L162.244 299.734 Z" fill="#000000" fill-rule="nonzero" fill-opacity="1" /><path clip-path="url(#clip900)" d="M125.809 137.451 Q122.198 137.451 120.369 141.016 Q118.563 144.557 118.563 151.687 Q118.563 158.793 120.369 162.358 Q122.198 165.9 125.809 165.9 Q129.443 165.9 131.248 162.358 Q133.077 158.793 133.077 151.687 Q133.077 144.557 131.248 141.016 Q129.443 137.451 125.809 137.451 M125.809 133.747 Q131.619 133.747 134.674 138.354 Q137.753 142.937 137.753 151.687 Q137.753 160.414 134.674 165.02 Q131.619 169.603 125.809 169.603 Q119.998 169.603 116.92 165.02 Q113.864 160.414 113.864 151.687 Q113.864 142.937 116.92 138.354 Q119.998 133.747 125.809 133.747 Z" fill="#000000" fill-rule="nonzero" fill-opacity="1" /><path clip-path="url(#clip900)" d="M145.971 163.052 L150.855 163.052 L150.855 168.932 L145.971 168.932 L145.971 163.052 Z" fill="#000000" fill-rule="nonzero" fill-opacity="1" /><path clip-path="url(#clip900)" d="M171.619 149.789 Q168.47 149.789 166.619 151.941 Q164.79 154.094 164.79 157.844 Q164.79 161.571 166.619 163.747 Q168.47 165.9 171.619 165.9 Q174.767 165.9 176.595 163.747 Q178.447 161.571 178.447 157.844 Q178.447 154.094 176.595 151.941 Q174.767 149.789 171.619 149.789 M180.901 135.136 L180.901 139.395 Q179.142 138.562 177.336 138.122 Q175.554 137.682 173.794 137.682 Q169.165 137.682 166.711 140.807 Q164.281 143.932 163.933 150.252 Q165.299 148.238 167.359 147.173 Q169.419 146.085 171.896 146.085 Q177.105 146.085 180.114 149.256 Q183.146 152.404 183.146 157.844 Q183.146 163.168 179.998 166.386 Q176.85 169.603 171.619 169.603 Q165.623 169.603 162.452 165.02 Q159.281 160.414 159.281 151.687 Q159.281 143.492 163.17 138.631 Q167.058 133.747 173.609 133.747 Q175.369 133.747 177.151 134.094 Q178.956 134.442 180.901 135.136 Z" fill="#000000" fill-rule="nonzero" fill-opacity="1" /><path clip-path="url(#clip900)" d="M20.0842 991.1 L20.0842 984.67 L67.6042 984.67 L67.6042 991.1 L20.0842 991.1 Z" fill="#000000" fill-rule="nonzero" fill-opacity="1" /><path clip-path="url(#clip900)" d="M46.0881 942.498 L67.6042 942.498 L67.6042 948.354 L46.279 948.354 Q41.2183 948.354 38.7038 950.327 Q36.1894 952.301 36.1894 956.247 Q36.1894 960.99 39.2131 963.727 Q42.2368 966.464 47.4567 966.464 L67.6042 966.464 L67.6042 972.353 L31.9562 972.353 L31.9562 966.464 L37.4944 966.464 Q34.2797 964.364 32.6883 961.531 Q31.0968 958.666 31.0968 954.942 Q31.0968 948.8 34.9163 945.649 Q38.7038 942.498 46.0881 942.498 Z" fill="#000000" fill-rule="nonzero" fill-opacity="1" /><path clip-path="url(#clip900)" d="M18.079 912.77 L22.9487 912.77 L22.9487 918.371 Q22.9487 921.523 24.2219 922.764 Q25.495 923.973 28.8052 923.973 L31.9562 923.973 L31.9562 914.329 L36.5077 914.329 L36.5077 923.973 L67.6042 923.973 L67.6042 929.862 L36.5077 929.862 L36.5077 935.463 L31.9562 935.463 L31.9562 929.862 L29.4736 929.862 Q23.5216 929.862 20.8162 927.092 Q18.079 924.323 18.079 918.308 L18.079 912.77 Z" fill="#000000" fill-rule="nonzero" fill-opacity="1" /><path clip-path="url(#clip900)" d="M48.3161 877.376 L51.1806 877.376 L51.1806 904.303 Q57.2281 903.921 60.4109 900.675 Q63.5619 897.396 63.5619 891.572 Q63.5619 888.198 62.7344 885.047 Q61.9069 881.864 60.2518 878.745 L65.7899 878.745 Q67.1267 881.896 67.827 885.206 Q68.5272 888.516 68.5272 891.922 Q68.5272 900.452 63.5619 905.449 Q58.5967 910.414 50.1303 910.414 Q41.3774 910.414 36.2531 905.704 Q31.0968 900.961 31.0968 892.94 Q31.0968 885.747 35.7438 881.578 Q40.3589 877.376 48.3161 877.376 M46.5973 883.233 Q41.7912 883.296 38.9266 885.938 Q36.0621 888.548 36.0621 892.877 Q36.0621 897.778 38.8312 900.738 Q41.6002 903.667 46.6292 904.112 L46.5973 883.233 Z" fill="#000000" fill-rule="nonzero" fill-opacity="1" /><path clip-path="url(#clip900)" d="M33.3248 842.11 L38.7993 842.11 Q37.4307 844.593 36.7623 847.107 Q36.0621 849.59 36.0621 852.136 Q36.0621 857.834 39.6905 860.985 Q43.2872 864.136 49.812 864.136 Q56.3369 864.136 59.9653 860.985 Q63.5619 857.834 63.5619 852.136 Q63.5619 849.59 62.8935 847.107 Q62.1933 844.593 60.8247 842.11 L66.2355 842.11 Q67.3814 844.561 67.9543 847.203 Q68.5272 849.813 68.5272 852.773 Q68.5272 860.825 63.4664 865.568 Q58.4057 870.31 49.812 870.31 Q41.091 870.31 36.0939 865.536 Q31.0968 860.73 31.0968 852.391 Q31.0968 849.686 31.6697 847.107 Q32.2108 844.529 33.3248 842.11 Z" fill="#000000" fill-rule="nonzero" fill-opacity="1" /><path clip-path="url(#clip900)" d="M21.8347 826.132 L31.9562 826.132 L31.9562 814.069 L36.5077 814.069 L36.5077 826.132 L55.8594 826.132 Q60.2199 826.132 61.4613 824.955 Q62.7026 823.745 62.7026 820.085 L62.7026 814.069 L67.6042 814.069 L67.6042 820.085 Q67.6042 826.864 65.0897 829.443 Q62.5434 832.021 55.8594 832.021 L36.5077 832.021 L36.5077 836.318 L31.9562 836.318 L31.9562 832.021 L21.8347 832.021 L21.8347 826.132 Z" fill="#000000" fill-rule="nonzero" fill-opacity="1" /><path clip-path="url(#clip900)" d="M48.3161 775.875 L51.1806 775.875 L51.1806 802.802 Q57.2281 802.42 60.4109 799.174 Q63.5619 795.895 63.5619 790.071 Q63.5619 786.697 62.7344 783.546 Q61.9069 780.363 60.2518 777.244 L65.7899 777.244 Q67.1267 780.395 67.827 783.705 Q68.5272 787.015 68.5272 790.421 Q68.5272 798.951 63.5619 803.948 Q58.5967 808.913 50.1303 808.913 Q41.3774 808.913 36.2531 804.203 Q31.0968 799.46 31.0968 791.439 Q31.0968 784.246 35.7438 780.077 Q40.3589 775.875 48.3161 775.875 M46.5973 781.732 Q41.7912 781.795 38.9266 784.437 Q36.0621 787.047 36.0621 791.376 Q36.0621 796.277 38.8312 799.237 Q41.6002 802.166 46.6292 802.611 L46.5973 781.732 Z" fill="#000000" fill-rule="nonzero" fill-opacity="1" /><path clip-path="url(#clip900)" d="M37.3671 742.805 L18.079 742.805 L18.079 736.949 L67.6042 736.949 L67.6042 742.805 L62.257 742.805 Q65.4398 744.651 66.9994 747.484 Q68.5272 750.285 68.5272 754.232 Q68.5272 760.693 63.371 764.767 Q58.2147 768.809 49.812 768.809 Q41.4093 768.809 36.2531 764.767 Q31.0968 760.693 31.0968 754.232 Q31.0968 750.285 32.6564 747.484 Q34.1842 744.651 37.3671 742.805 M49.812 762.762 Q56.2732 762.762 59.9653 760.12 Q63.6256 757.446 63.6256 752.799 Q63.6256 748.152 59.9653 745.479 Q56.2732 742.805 49.812 742.805 Q43.3508 742.805 39.6905 745.479 Q35.9984 748.152 35.9984 752.799 Q35.9984 757.446 39.6905 760.12 Q43.3508 762.762 49.812 762.762 Z" fill="#000000" fill-rule="nonzero" fill-opacity="1" /><path clip-path="url(#clip900)" d="M18.1426 690.097 Q25.4632 694.362 32.6246 696.431 Q39.786 698.5 47.1384 698.5 Q54.4908 698.5 61.7159 696.431 Q68.9091 694.33 76.1979 690.097 L76.1979 695.19 Q68.7182 699.964 61.4931 702.351 Q54.268 704.707 47.1384 704.707 Q40.0406 704.707 32.8474 702.351 Q25.6542 699.996 18.1426 695.19 L18.1426 690.097 Z" fill="#000000" fill-rule="nonzero" fill-opacity="1" /><path clip-path="url(#clip900)" d="M46.0881 649.102 L67.6042 649.102 L67.6042 654.959 L46.279 654.959 Q41.2183 654.959 38.7038 656.932 Q36.1894 658.905 36.1894 662.852 Q36.1894 667.594 39.2131 670.332 Q42.2368 673.069 47.4567 673.069 L67.6042 673.069 L67.6042 678.957 L31.9562 678.957 L31.9562 673.069 L37.4944 673.069 Q34.2797 670.968 32.6883 668.136 Q31.0968 665.271 31.0968 661.547 Q31.0968 655.404 34.9163 652.253 Q38.7038 649.102 46.0881 649.102 Z" fill="#000000" fill-rule="nonzero" fill-opacity="1" /><path clip-path="url(#clip900)" d="M36.0621 623.607 Q36.0621 628.318 39.7542 631.055 Q43.4145 633.793 49.812 633.793 Q56.2095 633.793 59.9017 631.087 Q63.5619 628.35 63.5619 623.607 Q63.5619 618.929 59.8698 616.191 Q56.1777 613.454 49.812 613.454 Q43.4781 613.454 39.786 616.191 Q36.0621 618.929 36.0621 623.607 M31.0968 623.607 Q31.0968 615.969 36.0621 611.608 Q41.0273 607.248 49.812 607.248 Q58.5649 607.248 63.5619 611.608 Q68.5272 615.969 68.5272 623.607 Q68.5272 631.278 63.5619 635.639 Q58.5649 639.967 49.812 639.967 Q41.0273 639.967 36.0621 635.639 Q31.0968 631.278 31.0968 623.607 Z" fill="#000000" fill-rule="nonzero" fill-opacity="1" /><path clip-path="url(#clip900)" d="M37.4307 576.883 Q36.8578 577.87 36.6032 579.047 Q36.3167 580.193 36.3167 581.594 Q36.3167 586.559 39.5632 589.233 Q42.7779 591.874 48.8253 591.874 L67.6042 591.874 L67.6042 597.763 L31.9562 597.763 L31.9562 591.874 L37.4944 591.874 Q34.2479 590.028 32.6883 587.068 Q31.0968 584.108 31.0968 579.875 Q31.0968 579.27 31.1923 578.538 Q31.256 577.806 31.4151 576.915 L37.4307 576.883 Z" fill="#000000" fill-rule="nonzero" fill-opacity="1" /><path clip-path="url(#clip900)" d="M38.7993 544.132 Q34.8526 541.935 32.9747 538.88 Q31.0968 535.824 31.0968 531.687 Q31.0968 526.117 35.0117 523.093 Q38.8948 520.069 46.0881 520.069 L67.6042 520.069 L67.6042 525.957 L46.279 525.957 Q41.1546 525.957 38.672 527.772 Q36.1894 529.586 36.1894 533.31 Q36.1894 537.861 39.2131 540.503 Q42.2368 543.145 47.4567 543.145 L67.6042 543.145 L67.6042 549.033 L46.279 549.033 Q41.1228 549.033 38.672 550.847 Q36.1894 552.662 36.1894 556.449 Q36.1894 560.937 39.2449 563.579 Q42.2686 566.221 47.4567 566.221 L67.6042 566.221 L67.6042 572.109 L31.9562 572.109 L31.9562 566.221 L37.4944 566.221 Q34.216 564.215 32.6564 561.414 Q31.0968 558.614 31.0968 554.762 Q31.0968 550.879 33.0702 548.174 Q35.0436 545.437 38.7993 544.132 Z" fill="#000000" fill-rule="nonzero" fill-opacity="1" /><path clip-path="url(#clip900)" d="M49.6847 492.187 Q49.6847 499.285 51.3079 502.022 Q52.9312 504.76 56.8461 504.76 Q59.9653 504.76 61.8114 502.723 Q63.6256 500.654 63.6256 497.121 Q63.6256 492.251 60.1881 489.323 Q56.7188 486.363 50.9897 486.363 L49.6847 486.363 L49.6847 492.187 M47.2657 480.506 L67.6042 480.506 L67.6042 486.363 L62.1933 486.363 Q65.4398 488.368 66.9994 491.36 Q68.5272 494.352 68.5272 498.68 Q68.5272 504.155 65.4716 507.401 Q62.3843 510.616 57.2281 510.616 Q51.2125 510.616 48.1569 506.606 Q45.1014 502.564 45.1014 494.575 L45.1014 486.363 L44.5285 486.363 Q40.4862 486.363 38.2901 489.036 Q36.0621 491.678 36.0621 496.484 Q36.0621 499.54 36.7941 502.436 Q37.5262 505.333 38.9903 508.006 L33.5795 508.006 Q32.3381 504.792 31.7334 501.768 Q31.0968 498.744 31.0968 495.88 Q31.0968 488.145 35.1072 484.326 Q39.1176 480.506 47.2657 480.506 Z" fill="#000000" fill-rule="nonzero" fill-opacity="1" /><path clip-path="url(#clip900)" d="M18.079 468.443 L18.079 462.587 L67.6042 462.587 L67.6042 468.443 L18.079 468.443 Z" fill="#000000" fill-rule="nonzero" fill-opacity="1" /><path clip-path="url(#clip900)" d="M31.9562 450.333 L31.9562 444.476 L67.6042 444.476 L67.6042 450.333 L31.9562 450.333 M18.079 450.333 L18.079 444.476 L25.495 444.476 L25.495 450.333 L18.079 450.333 Z" fill="#000000" fill-rule="nonzero" fill-opacity="1" /><path clip-path="url(#clip900)" d="M33.0065 409.497 L38.5447 409.497 Q37.2716 411.98 36.635 414.653 Q35.9984 417.327 35.9984 420.191 Q35.9984 424.552 37.3352 426.748 Q38.672 428.912 41.3456 428.912 Q43.3826 428.912 44.5603 427.353 Q45.7061 425.793 46.7565 421.082 L47.2021 419.077 Q48.5389 412.839 50.9897 410.229 Q53.4086 407.587 57.7691 407.587 Q62.7344 407.587 65.6308 411.534 Q68.5272 415.449 68.5272 422.324 Q68.5272 425.188 67.9543 428.308 Q67.4132 431.395 66.2992 434.832 L60.2518 434.832 Q61.9387 431.586 62.798 428.435 Q63.6256 425.284 63.6256 422.196 Q63.6256 418.059 62.2251 415.831 Q60.7929 413.603 58.2147 413.603 Q55.8276 413.603 54.5545 415.226 Q53.2813 416.817 52.1037 422.26 L51.6262 424.297 Q50.4804 429.74 48.1251 432.159 Q45.738 434.578 41.6002 434.578 Q36.5713 434.578 33.8341 431.013 Q31.0968 427.448 31.0968 420.892 Q31.0968 417.645 31.5743 414.78 Q32.0517 411.916 33.0065 409.497 Z" fill="#000000" fill-rule="nonzero" fill-opacity="1" /><path clip-path="url(#clip900)" d="M48.3161 367.77 L51.1806 367.77 L51.1806 394.697 Q57.2281 394.315 60.4109 391.068 Q63.5619 387.79 63.5619 381.965 Q63.5619 378.591 62.7344 375.44 Q61.9069 372.258 60.2518 369.138 L65.7899 369.138 Q67.1267 372.289 67.827 375.6 Q68.5272 378.91 68.5272 382.315 Q68.5272 390.845 63.5619 395.842 Q58.5967 400.808 50.1303 400.808 Q41.3774 400.808 36.2531 396.097 Q31.0968 391.355 31.0968 383.334 Q31.0968 376.141 35.7438 371.971 Q40.3589 367.77 48.3161 367.77 M46.5973 373.626 Q41.7912 373.69 38.9266 376.332 Q36.0621 378.942 36.0621 383.27 Q36.0621 388.172 38.8312 391.132 Q41.6002 394.06 46.6292 394.506 L46.5973 373.626 Z" fill="#000000" fill-rule="nonzero" fill-opacity="1" /><path clip-path="url(#clip900)" d="M37.3671 334.7 L18.079 334.7 L18.079 328.843 L67.6042 328.843 L67.6042 334.7 L62.257 334.7 Q65.4398 336.546 66.9994 339.379 Q68.5272 342.18 68.5272 346.126 Q68.5272 352.587 63.371 356.662 Q58.2147 360.704 49.812 360.704 Q41.4093 360.704 36.2531 356.662 Q31.0968 352.587 31.0968 346.126 Q31.0968 342.18 32.6564 339.379 Q34.1842 336.546 37.3671 334.7 M49.812 354.656 Q56.2732 354.656 59.9653 352.015 Q63.6256 349.341 63.6256 344.694 Q63.6256 340.047 59.9653 337.373 Q56.2732 334.7 49.812 334.7 Q43.3508 334.7 39.6905 337.373 Q35.9984 340.047 35.9984 344.694 Q35.9984 349.341 39.6905 352.015 Q43.3508 354.656 49.812 354.656 Z" fill="#000000" fill-rule="nonzero" fill-opacity="1" /><path clip-path="url(#clip900)" d="M18.1426 317.703 L18.1426 312.611 Q25.6542 307.837 32.8474 305.481 Q40.0406 303.094 47.1384 303.094 Q54.268 303.094 61.4931 305.481 Q68.7182 307.837 76.1979 312.611 L76.1979 317.703 Q68.9091 313.47 61.7159 311.401 Q54.4908 309.301 47.1384 309.301 Q39.786 309.301 32.6246 311.401 Q25.4632 313.47 18.1426 317.703 Z" fill="#000000" fill-rule="nonzero" fill-opacity="1" /><path clip-path="url(#clip900)" d="M233.239 12.096 L271.48 12.096 L271.48 18.9825 L241.422 18.9825 L241.422 36.8875 L270.224 36.8875 L270.224 43.7741 L241.422 43.7741 L241.422 65.6895 L272.209 65.6895 L272.209 72.576 L233.239 72.576 L233.239 12.096 Z" fill="#000000" fill-rule="nonzero" fill-opacity="1" /><path clip-path="url(#clip900)" d="M292.544 65.7705 L292.544 89.8329 L285.05 89.8329 L285.05 27.2059 L292.544 27.2059 L292.544 34.0924 Q294.894 30.0415 298.459 28.0971 Q302.064 26.1121 307.047 26.1121 Q315.311 26.1121 320.455 32.6746 Q325.64 39.2371 325.64 49.9314 Q325.64 60.6258 320.455 67.1883 Q315.311 73.7508 307.047 73.7508 Q302.064 73.7508 298.459 71.8063 Q294.894 69.8214 292.544 65.7705 M317.903 49.9314 Q317.903 41.7081 314.5 37.0496 Q311.138 32.3505 305.224 32.3505 Q299.309 32.3505 295.907 37.0496 Q292.544 41.7081 292.544 49.9314 Q292.544 58.1548 295.907 62.8538 Q299.309 67.5124 305.224 67.5124 Q311.138 67.5124 314.5 62.8538 Q317.903 58.1548 317.903 49.9314 Z" fill="#000000" fill-rule="nonzero" fill-opacity="1" /><path clip-path="url(#clip900)" d="M337.996 27.2059 L345.449 27.2059 L345.449 72.576 L337.996 72.576 L337.996 27.2059 M337.996 9.54393 L345.449 9.54393 L345.449 18.9825 L337.996 18.9825 L337.996 9.54393 Z" fill="#000000" fill-rule="nonzero" fill-opacity="1" /><path clip-path="url(#clip900)" d="M390.9 34.0924 L390.9 9.54393 L398.354 9.54393 L398.354 72.576 L390.9 72.576 L390.9 65.7705 Q388.551 69.8214 384.946 71.8063 Q381.381 73.7508 376.358 73.7508 Q368.134 73.7508 362.949 67.1883 Q357.805 60.6258 357.805 49.9314 Q357.805 39.2371 362.949 32.6746 Q368.134 26.1121 376.358 26.1121 Q381.381 26.1121 384.946 28.0971 Q388.551 30.0415 390.9 34.0924 M365.501 49.9314 Q365.501 58.1548 368.864 62.8538 Q372.266 67.5124 378.181 67.5124 Q384.095 67.5124 387.498 62.8538 Q390.9 58.1548 390.9 49.9314 Q390.9 41.7081 387.498 37.0496 Q384.095 32.3505 378.181 32.3505 Q372.266 32.3505 368.864 37.0496 Q365.501 41.7081 365.501 49.9314 Z" fill="#000000" fill-rule="nonzero" fill-opacity="1" /><path clip-path="url(#clip900)" d="M452.515 48.0275 L452.515 51.6733 L418.244 51.6733 Q418.73 59.3701 422.862 63.421 Q427.034 67.4314 434.448 67.4314 Q438.742 67.4314 442.752 66.3781 Q446.803 65.3249 450.773 63.2184 L450.773 70.267 Q446.762 71.9684 442.549 72.8596 Q438.337 73.7508 434.002 73.7508 Q423.146 73.7508 416.786 67.4314 Q410.466 61.1119 410.466 50.3365 Q410.466 39.1965 416.462 32.6746 Q422.497 26.1121 432.706 26.1121 Q441.861 26.1121 447.167 32.0264 Q452.515 37.9003 452.515 48.0275 M445.061 45.84 Q444.98 39.7232 441.618 36.0774 Q438.296 32.4315 432.787 32.4315 Q426.548 32.4315 422.781 35.9558 Q419.054 39.4801 418.487 45.8805 L445.061 45.84 Z" fill="#000000" fill-rule="nonzero" fill-opacity="1" /><path clip-path="url(#clip900)" d="M500.072 35.9153 Q502.867 30.8922 506.756 28.5022 Q510.645 26.1121 515.911 26.1121 Q523 26.1121 526.849 31.0947 Q530.697 36.0368 530.697 45.1919 L530.697 72.576 L523.203 72.576 L523.203 45.4349 Q523.203 38.913 520.894 35.7533 Q518.585 32.5936 513.845 32.5936 Q508.053 32.5936 504.69 36.4419 Q501.328 40.2903 501.328 46.9338 L501.328 72.576 L493.834 72.576 L493.834 45.4349 Q493.834 38.8725 491.525 35.7533 Q489.216 32.5936 484.395 32.5936 Q478.684 32.5936 475.321 36.4824 Q471.959 40.3308 471.959 46.9338 L471.959 72.576 L464.465 72.576 L464.465 27.2059 L471.959 27.2059 L471.959 34.2544 Q474.511 30.082 478.076 28.0971 Q481.641 26.1121 486.542 26.1121 Q491.484 26.1121 494.928 28.6237 Q498.411 31.1352 500.072 35.9153 Z" fill="#000000" fill-rule="nonzero" fill-opacity="1" /><path clip-path="url(#clip900)" d="M545.564 27.2059 L553.018 27.2059 L553.018 72.576 L545.564 72.576 L545.564 27.2059 M545.564 9.54393 L553.018 9.54393 L553.018 18.9825 L545.564 18.9825 L545.564 9.54393 Z" fill="#000000" fill-rule="nonzero" fill-opacity="1" /><path clip-path="url(#clip900)" d="M601.264 28.9478 L601.264 35.9153 Q598.104 34.1734 594.904 33.3227 Q591.744 32.4315 588.504 32.4315 Q581.252 32.4315 577.242 37.0496 Q573.232 41.6271 573.232 49.9314 Q573.232 58.2358 577.242 62.8538 Q581.252 67.4314 588.504 67.4314 Q591.744 67.4314 594.904 66.5807 Q598.104 65.6895 601.264 63.9476 L601.264 70.8341 Q598.145 72.2924 594.782 73.0216 Q591.461 73.7508 587.693 73.7508 Q577.445 73.7508 571.409 67.3098 Q565.373 60.8689 565.373 49.9314 Q565.373 38.832 571.449 32.472 Q577.566 26.1121 588.179 26.1121 Q591.623 26.1121 594.904 26.8413 Q598.185 27.5299 601.264 28.9478 Z" fill="#000000" fill-rule="nonzero" fill-opacity="1" /><path clip-path="url(#clip900)" d="M658.179 32.4315 Q652.184 32.4315 648.7 37.1306 Q645.216 41.7891 645.216 49.9314 Q645.216 58.0738 648.659 62.7728 Q652.143 67.4314 658.179 67.4314 Q664.134 67.4314 667.618 62.7323 Q671.101 58.0333 671.101 49.9314 Q671.101 41.8701 667.618 37.1711 Q664.134 32.4315 658.179 32.4315 M658.179 26.1121 Q667.901 26.1121 673.451 32.4315 Q679.001 38.7509 679.001 49.9314 Q679.001 61.0714 673.451 67.4314 Q667.901 73.7508 658.179 73.7508 Q648.416 73.7508 642.867 67.4314 Q637.357 61.0714 637.357 49.9314 Q637.357 38.7509 642.867 32.4315 Q648.416 26.1121 658.179 26.1121 Z" fill="#000000" fill-rule="nonzero" fill-opacity="1" /><path clip-path="url(#clip900)" d="M729.07 45.1919 L729.07 72.576 L721.616 72.576 L721.616 45.4349 Q721.616 38.994 719.105 35.7938 Q716.593 32.5936 711.57 32.5936 Q705.534 32.5936 702.05 36.4419 Q698.567 40.2903 698.567 46.9338 L698.567 72.576 L691.072 72.576 L691.072 27.2059 L698.567 27.2059 L698.567 34.2544 Q701.24 30.163 704.845 28.1376 Q708.491 26.1121 713.231 26.1121 Q721.049 26.1121 725.06 30.9732 Q729.07 35.7938 729.07 45.1919 Z" fill="#000000" fill-rule="nonzero" fill-opacity="1" /><path clip-path="url(#clip900)" d="M778.815 43.6931 L778.815 65.8515 L791.94 65.8515 Q798.543 65.8515 801.703 63.1374 Q804.903 60.3828 804.903 54.752 Q804.903 49.0808 801.703 46.4072 Q798.543 43.6931 791.94 43.6931 L778.815 43.6931 M778.815 18.8205 L778.815 37.0496 L790.927 37.0496 Q796.923 37.0496 799.839 34.8216 Q802.796 32.5531 802.796 27.935 Q802.796 23.3575 799.839 21.089 Q796.923 18.8205 790.927 18.8205 L778.815 18.8205 M770.632 12.096 L791.535 12.096 Q800.892 12.096 805.956 15.9849 Q811.02 19.8737 811.02 27.0438 Q811.02 32.5936 808.427 35.8748 Q805.835 39.156 800.811 39.9662 Q806.847 41.2625 810.169 45.3944 Q813.531 49.4858 813.531 55.6432 Q813.531 63.745 808.022 68.1605 Q802.513 72.576 792.345 72.576 L770.632 72.576 L770.632 12.096 Z" fill="#000000" fill-rule="nonzero" fill-opacity="1" /><path clip-path="url(#clip900)" d="M847.842 49.7694 Q838.809 49.7694 835.325 51.8354 Q831.841 53.9013 831.841 58.8839 Q831.841 62.8538 834.434 65.2034 Q837.067 67.5124 841.564 67.5124 Q847.761 67.5124 851.488 63.1374 Q855.256 58.7219 855.256 51.4303 L855.256 49.7694 L847.842 49.7694 M862.709 46.6907 L862.709 72.576 L855.256 72.576 L855.256 65.6895 Q852.704 69.8214 848.896 71.8063 Q845.088 73.7508 839.579 73.7508 Q832.611 73.7508 828.479 69.8619 Q824.388 65.9325 824.388 59.3701 Q824.388 51.7138 829.492 47.825 Q834.636 43.9361 844.804 43.9361 L855.256 43.9361 L855.256 43.2069 Q855.256 38.0623 851.853 35.2672 Q848.491 32.4315 842.374 32.4315 Q838.485 32.4315 834.799 33.3632 Q831.112 34.295 827.709 36.1584 L827.709 29.2718 Q831.801 27.692 835.649 26.9223 Q839.498 26.1121 843.143 26.1121 Q852.987 26.1121 857.848 31.2163 Q862.709 36.3204 862.709 46.6907 Z" fill="#000000" fill-rule="nonzero" fill-opacity="1" /><path clip-path="url(#clip900)" d="M904.353 34.1734 Q903.097 33.4443 901.598 33.1202 Q900.14 32.7556 898.357 32.7556 Q892.038 32.7556 888.635 36.8875 Q885.273 40.9789 885.273 48.6757 L885.273 72.576 L877.779 72.576 L877.779 27.2059 L885.273 27.2059 L885.273 34.2544 Q887.622 30.1225 891.39 28.1376 Q895.157 26.1121 900.545 26.1121 Q901.314 26.1121 902.246 26.2337 Q903.178 26.3147 904.312 26.5172 L904.353 34.1734 Z" fill="#000000" fill-rule="nonzero" fill-opacity="1" /><path clip-path="url(#clip900)" d="M932.79 49.7694 Q923.756 49.7694 920.273 51.8354 Q916.789 53.9013 916.789 58.8839 Q916.789 62.8538 919.381 65.2034 Q922.014 67.5124 926.511 67.5124 Q932.709 67.5124 936.436 63.1374 Q940.203 58.7219 940.203 51.4303 L940.203 49.7694 L932.79 49.7694 M947.657 46.6907 L947.657 72.576 L940.203 72.576 L940.203 65.6895 Q937.651 69.8214 933.843 71.8063 Q930.035 73.7508 924.526 73.7508 Q917.558 73.7508 913.427 69.8619 Q909.335 65.9325 909.335 59.3701 Q909.335 51.7138 914.439 47.825 Q919.584 43.9361 929.752 43.9361 L940.203 43.9361 L940.203 43.2069 Q940.203 38.0623 936.8 35.2672 Q933.438 32.4315 927.321 32.4315 Q923.432 32.4315 919.746 33.3632 Q916.06 34.295 912.657 36.1584 L912.657 29.2718 Q916.748 27.692 920.597 26.9223 Q924.445 26.1121 928.091 26.1121 Q937.935 26.1121 942.796 31.2163 Q947.657 36.3204 947.657 46.6907 Z" fill="#000000" fill-rule="nonzero" fill-opacity="1" /><path clip-path="url(#clip900)" d="M995.579 49.9314 Q995.579 41.7081 992.176 37.0496 Q988.814 32.3505 982.9 32.3505 Q976.985 32.3505 973.582 37.0496 Q970.22 41.7081 970.22 49.9314 Q970.22 58.1548 973.582 62.8538 Q976.985 67.5124 982.9 67.5124 Q988.814 67.5124 992.176 62.8538 Q995.579 58.1548 995.579 49.9314 M970.22 34.0924 Q972.57 30.0415 976.135 28.0971 Q979.74 26.1121 984.722 26.1121 Q992.986 26.1121 998.131 32.6746 Q1003.32 39.2371 1003.32 49.9314 Q1003.32 60.6258 998.131 67.1883 Q992.986 73.7508 984.722 73.7508 Q979.74 73.7508 976.135 71.8063 Q972.57 69.8214 970.22 65.7705 L970.22 72.576 L962.726 72.576 L962.726 9.54393 L970.22 9.54393 L970.22 34.0924 Z" fill="#000000" fill-rule="nonzero" fill-opacity="1" /><path clip-path="url(#clip900)" d="M1036.29 49.7694 Q1027.26 49.7694 1023.77 51.8354 Q1020.29 53.9013 1020.29 58.8839 Q1020.29 62.8538 1022.88 65.2034 Q1025.52 67.5124 1030.01 67.5124 Q1036.21 67.5124 1039.94 63.1374 Q1043.7 58.7219 1043.7 51.4303 L1043.7 49.7694 L1036.29 49.7694 M1051.16 46.6907 L1051.16 72.576 L1043.7 72.576 L1043.7 65.6895 Q1041.15 69.8214 1037.34 71.8063 Q1033.54 73.7508 1028.03 73.7508 Q1021.06 73.7508 1016.93 69.8619 Q1012.84 65.9325 1012.84 59.3701 Q1012.84 51.7138 1017.94 47.825 Q1023.08 43.9361 1033.25 43.9361 L1043.7 43.9361 L1043.7 43.2069 Q1043.7 38.0623 1040.3 35.2672 Q1036.94 32.4315 1030.82 32.4315 Q1026.93 32.4315 1023.25 33.3632 Q1019.56 34.295 1016.16 36.1584 L1016.16 29.2718 Q1020.25 27.692 1024.1 26.9223 Q1027.95 26.1121 1031.59 26.1121 Q1041.44 26.1121 1046.3 31.2163 Q1051.16 36.3204 1051.16 46.6907 M1037.55 6.22219 L1045.61 6.22219 L1032.4 21.4536 L1026.2 21.4536 L1037.55 6.22219 Z" fill="#000000" fill-rule="nonzero" fill-opacity="1" /><path clip-path="url(#clip900)" d="M1095.43 28.5427 L1095.43 35.5912 Q1092.27 33.9709 1088.87 33.1607 Q1085.47 32.3505 1081.82 32.3505 Q1076.27 32.3505 1073.48 34.0519 Q1070.72 35.7533 1070.72 39.156 Q1070.72 41.7486 1072.71 43.2475 Q1074.69 44.7058 1080.69 46.0426 L1083.24 46.6097 Q1091.18 48.3111 1094.5 51.4303 Q1097.86 54.509 1097.86 60.0587 Q1097.86 66.3781 1092.84 70.0644 Q1087.86 73.7508 1079.11 73.7508 Q1075.46 73.7508 1071.49 73.0216 Q1067.56 72.3329 1063.19 70.9151 L1063.19 63.2184 Q1067.32 65.3654 1071.33 66.4591 Q1075.34 67.5124 1079.27 67.5124 Q1084.54 67.5124 1087.37 65.73 Q1090.21 63.9071 1090.21 60.6258 Q1090.21 57.5877 1088.14 55.9673 Q1086.12 54.3469 1079.19 52.8481 L1076.6 52.2405 Q1069.67 50.7821 1066.59 47.7845 Q1063.51 44.7463 1063.51 39.4801 Q1063.51 33.0797 1068.05 29.5959 Q1072.59 26.1121 1080.93 26.1121 Q1085.06 26.1121 1088.71 26.7198 Q1092.35 27.3274 1095.43 28.5427 Z" fill="#000000" fill-rule="nonzero" fill-opacity="1" /><path clip-path="url(#clip900)" d="M1109.73 27.2059 L1117.19 27.2059 L1117.19 72.576 L1109.73 72.576 L1109.73 27.2059 M1109.73 9.54393 L1117.19 9.54393 L1117.19 18.9825 L1109.73 18.9825 L1109.73 9.54393 Z" fill="#000000" fill-rule="nonzero" fill-opacity="1" /><path clip-path="url(#clip900)" d="M1129.02 46.5287 L1150.85 46.5287 L1150.85 53.1722 L1129.02 53.1722 L1129.02 46.5287 Z" fill="#000000" fill-rule="nonzero" fill-opacity="1" /><path clip-path="url(#clip900)" d="M1181.43 20.1573 L1170.33 50.2555 L1192.57 50.2555 L1181.43 20.1573 M1176.82 12.096 L1186.09 12.096 L1209.14 72.576 L1200.64 72.576 L1195.13 57.061 L1167.86 57.061 L1162.35 72.576 L1153.73 72.576 L1176.82 12.096 Z" fill="#000000" fill-rule="nonzero" fill-opacity="1" /><path clip-path="url(#clip900)" d="M1217.65 9.54393 L1225.1 9.54393 L1225.1 72.576 L1217.65 72.576 L1217.65 9.54393 Z" fill="#000000" fill-rule="nonzero" fill-opacity="1" /><path clip-path="url(#clip900)" d="M1273.27 49.9314 Q1273.27 41.7081 1269.87 37.0496 Q1266.5 32.3505 1260.59 32.3505 Q1254.67 32.3505 1251.27 37.0496 Q1247.91 41.7081 1247.91 49.9314 Q1247.91 58.1548 1251.27 62.8538 Q1254.67 67.5124 1260.59 67.5124 Q1266.5 67.5124 1269.87 62.8538 Q1273.27 58.1548 1273.27 49.9314 M1247.91 34.0924 Q1250.26 30.0415 1253.82 28.0971 Q1257.43 26.1121 1262.41 26.1121 Q1270.68 26.1121 1275.82 32.6746 Q1281.01 39.2371 1281.01 49.9314 Q1281.01 60.6258 1275.82 67.1883 Q1270.68 73.7508 1262.41 73.7508 Q1257.43 73.7508 1253.82 71.8063 Q1250.26 69.8214 1247.91 65.7705 L1247.91 72.576 L1240.42 72.576 L1240.42 9.54393 L1247.91 9.54393 L1247.91 34.0924 Z" fill="#000000" fill-rule="nonzero" fill-opacity="1" /><path clip-path="url(#clip900)" d="M1332.17 48.0275 L1332.17 51.6733 L1297.9 51.6733 Q1298.38 59.3701 1302.52 63.421 Q1306.69 67.4314 1314.1 67.4314 Q1318.4 67.4314 1322.41 66.3781 Q1326.46 65.3249 1330.43 63.2184 L1330.43 70.267 Q1326.42 71.9684 1322.2 72.8596 Q1317.99 73.7508 1313.66 73.7508 Q1302.8 73.7508 1296.44 67.4314 Q1290.12 61.1119 1290.12 50.3365 Q1290.12 39.1965 1296.12 32.6746 Q1302.15 26.1121 1312.36 26.1121 Q1321.51 26.1121 1326.82 32.0264 Q1332.17 37.9003 1332.17 48.0275 M1324.71 45.84 Q1324.63 39.7232 1321.27 36.0774 Q1317.95 32.4315 1312.44 32.4315 Q1306.2 32.4315 1302.43 35.9558 Q1298.71 39.4801 1298.14 45.8805 L1324.71 45.84 Z" fill="#000000" fill-rule="nonzero" fill-opacity="1" /><path clip-path="url(#clip900)" d="M1370.69 34.1734 Q1369.44 33.4443 1367.94 33.1202 Q1366.48 32.7556 1364.7 32.7556 Q1358.38 32.7556 1354.98 36.8875 Q1351.61 40.9789 1351.61 48.6757 L1351.61 72.576 L1344.12 72.576 L1344.12 27.2059 L1351.61 27.2059 L1351.61 34.2544 Q1353.96 30.1225 1357.73 28.1376 Q1361.5 26.1121 1366.88 26.1121 Q1367.65 26.1121 1368.59 26.2337 Q1369.52 26.3147 1370.65 26.5172 L1370.69 34.1734 Z" fill="#000000" fill-rule="nonzero" fill-opacity="1" /><path clip-path="url(#clip900)" d="M1385.88 14.324 L1385.88 27.2059 L1401.24 27.2059 L1401.24 32.9987 L1385.88 32.9987 L1385.88 57.6282 Q1385.88 63.1779 1387.38 64.7578 Q1388.92 66.3376 1393.58 66.3376 L1401.24 66.3376 L1401.24 72.576 L1393.58 72.576 Q1384.95 72.576 1381.67 69.3758 Q1378.39 66.1351 1378.39 57.6282 L1378.39 32.9987 L1372.92 32.9987 L1372.92 27.2059 L1378.39 27.2059 L1378.39 14.324 L1385.88 14.324 Z" fill="#000000" fill-rule="nonzero" fill-opacity="1" /><path clip-path="url(#clip900)" d="M1467.27 49.3643 Q1467.27 41.2625 1463.9 36.8065 Q1460.58 32.3505 1454.55 32.3505 Q1448.55 32.3505 1445.19 36.8065 Q1441.87 41.2625 1441.87 49.3643 Q1441.87 57.4256 1445.19 61.8816 Q1448.55 66.3376 1454.55 66.3376 Q1460.58 66.3376 1463.9 61.8816 Q1467.27 57.4256 1467.27 49.3643 M1474.72 66.9452 Q1474.72 78.5308 1469.58 84.1616 Q1464.43 89.8329 1453.82 89.8329 Q1449.89 89.8329 1446.4 89.2252 Q1442.92 88.6581 1439.64 87.4428 L1439.64 80.1917 Q1442.92 81.9741 1446.12 82.8248 Q1449.32 83.6755 1452.64 83.6755 Q1459.97 83.6755 1463.62 79.8271 Q1467.27 76.0193 1467.27 68.282 L1467.27 64.5957 Q1464.96 68.6061 1461.35 70.5911 Q1457.75 72.576 1452.72 72.576 Q1444.38 72.576 1439.27 66.2161 Q1434.17 59.8562 1434.17 49.3643 Q1434.17 38.832 1439.27 32.472 Q1444.38 26.1121 1452.72 26.1121 Q1457.75 26.1121 1461.35 28.0971 Q1464.96 30.082 1467.27 34.0924 L1467.27 27.2059 L1474.72 27.2059 L1474.72 66.9452 Z" fill="#000000" fill-rule="nonzero" fill-opacity="1" /><path clip-path="url(#clip900)" d="M1516.36 34.1734 Q1515.11 33.4443 1513.61 33.1202 Q1512.15 32.7556 1510.37 32.7556 Q1504.05 32.7556 1500.65 36.8875 Q1497.28 40.9789 1497.28 48.6757 L1497.28 72.576 L1489.79 72.576 L1489.79 27.2059 L1497.28 27.2059 L1497.28 34.2544 Q1499.63 30.1225 1503.4 28.1376 Q1507.17 26.1121 1512.56 26.1121 Q1513.32 26.1121 1514.26 26.2337 Q1515.19 26.3147 1516.32 26.5172 L1516.36 34.1734 Z" fill="#000000" fill-rule="nonzero" fill-opacity="1" /><path clip-path="url(#clip900)" d="M1544.8 49.7694 Q1535.77 49.7694 1532.28 51.8354 Q1528.8 53.9013 1528.8 58.8839 Q1528.8 62.8538 1531.39 65.2034 Q1534.03 67.5124 1538.52 67.5124 Q1544.72 67.5124 1548.45 63.1374 Q1552.21 58.7219 1552.21 51.4303 L1552.21 49.7694 L1544.8 49.7694 M1559.67 46.6907 L1559.67 72.576 L1552.21 72.576 L1552.21 65.6895 Q1549.66 69.8214 1545.85 71.8063 Q1542.05 73.7508 1536.54 73.7508 Q1529.57 73.7508 1525.44 69.8619 Q1521.35 65.9325 1521.35 59.3701 Q1521.35 51.7138 1526.45 47.825 Q1531.59 43.9361 1541.76 43.9361 L1552.21 43.9361 L1552.21 43.2069 Q1552.21 38.0623 1548.81 35.2672 Q1545.45 32.4315 1539.33 32.4315 Q1535.44 32.4315 1531.76 33.3632 Q1528.07 34.295 1524.67 36.1584 L1524.67 29.2718 Q1528.76 27.692 1532.61 26.9223 Q1536.46 26.1121 1540.1 26.1121 Q1549.95 26.1121 1554.81 31.2163 Q1559.67 36.3204 1559.67 46.6907 Z" fill="#000000" fill-rule="nonzero" fill-opacity="1" /><path clip-path="url(#clip900)" d="M1582.23 65.7705 L1582.23 89.8329 L1574.74 89.8329 L1574.74 27.2059 L1582.23 27.2059 L1582.23 34.0924 Q1584.58 30.0415 1588.15 28.0971 Q1591.75 26.1121 1596.73 26.1121 Q1605 26.1121 1610.14 32.6746 Q1615.33 39.2371 1615.33 49.9314 Q1615.33 60.6258 1610.14 67.1883 Q1605 73.7508 1596.73 73.7508 Q1591.75 73.7508 1588.15 71.8063 Q1584.58 69.8214 1582.23 65.7705 M1607.59 49.9314 Q1607.59 41.7081 1604.19 37.0496 Q1600.82 32.3505 1594.91 32.3505 Q1589 32.3505 1585.59 37.0496 Q1582.23 41.7081 1582.23 49.9314 Q1582.23 58.1548 1585.59 62.8538 Q1589 67.5124 1594.91 67.5124 Q1600.82 67.5124 1604.19 62.8538 Q1607.59 58.1548 1607.59 49.9314 Z" fill="#000000" fill-rule="nonzero" fill-opacity="1" /><path clip-path="url(#clip900)" d="M1665.4 45.1919 L1665.4 72.576 L1657.94 72.576 L1657.94 45.4349 Q1657.94 38.994 1655.43 35.7938 Q1652.92 32.5936 1647.9 32.5936 Q1641.86 32.5936 1638.38 36.4419 Q1634.89 40.2903 1634.89 46.9338 L1634.89 72.576 L1627.4 72.576 L1627.4 9.54393 L1634.89 9.54393 L1634.89 34.2544 Q1637.57 30.163 1641.17 28.1376 Q1644.82 26.1121 1649.56 26.1121 Q1657.38 26.1121 1661.39 30.9732 Q1665.4 35.7938 1665.4 45.1919 Z" fill="#000000" fill-rule="nonzero" fill-opacity="1" /><path clip-path="url(#clip900)" d="M1724.54 9.62495 Q1719.11 18.942 1716.48 28.0566 Q1713.84 37.1711 1713.84 46.5287 Q1713.84 55.8863 1716.48 65.0818 Q1719.15 74.2369 1724.54 83.5134 L1718.06 83.5134 Q1711.98 73.9938 1708.94 64.7983 Q1705.95 55.6027 1705.95 46.5287 Q1705.95 37.4952 1708.94 28.3401 Q1711.94 19.1851 1718.06 9.62495 L1724.54 9.62495 Z" fill="#000000" fill-rule="nonzero" fill-opacity="1" /><path clip-path="url(#clip900)" d="M1739.32 12.096 L1750.34 12.096 L1777.16 62.6918 L1777.16 12.096 L1785.1 12.096 L1785.1 72.576 L1774.08 72.576 L1747.26 21.9802 L1747.26 72.576 L1739.32 72.576 L1739.32 12.096 Z" fill="#000000" fill-rule="nonzero" fill-opacity="1" /><path clip-path="url(#clip900)" d="M1802.03 34.9026 L1853.97 34.9026 L1853.97 41.7081 L1802.03 41.7081 L1802.03 34.9026 M1802.03 51.4303 L1853.97 51.4303 L1853.97 58.3168 L1802.03 58.3168 L1802.03 51.4303 Z" fill="#000000" fill-rule="nonzero" fill-opacity="1" /><path clip-path="url(#clip900)" d="M1878.68 65.6895 L1907.23 65.6895 L1907.23 72.576 L1868.83 72.576 L1868.83 65.6895 Q1873.49 60.8689 1881.51 52.7671 Q1889.57 44.6248 1891.64 42.2752 Q1895.57 37.8598 1897.11 34.8216 Q1898.69 31.7429 1898.69 28.7857 Q1898.69 23.9651 1895.28 20.927 Q1891.92 17.8888 1886.49 17.8888 Q1882.65 17.8888 1878.35 19.2256 Q1874.1 20.5624 1869.24 23.2765 L1869.24 15.0127 Q1874.18 13.0277 1878.47 12.015 Q1882.77 11.0023 1886.33 11.0023 Q1895.73 11.0023 1901.32 15.7013 Q1906.91 20.4004 1906.91 28.2591 Q1906.91 31.9859 1905.49 35.3482 Q1904.12 38.6699 1900.43 43.2069 Q1899.42 44.3817 1893.99 50.0125 Q1888.56 55.6027 1878.68 65.6895 Z" fill="#000000" fill-rule="nonzero" fill-opacity="1" /><path clip-path="url(#clip900)" d="M1941.91 17.4837 Q1935.59 17.4837 1932.39 23.7221 Q1929.23 29.92 1929.23 42.3968 Q1929.23 54.833 1932.39 61.0714 Q1935.59 67.2693 1941.91 67.2693 Q1948.27 67.2693 1951.43 61.0714 Q1954.63 54.833 1954.63 42.3968 Q1954.63 29.92 1951.43 23.7221 Q1948.27 17.4837 1941.91 17.4837 M1941.91 11.0023 Q1952.08 11.0023 1957.43 19.0636 Q1962.81 27.0843 1962.81 42.3968 Q1962.81 57.6687 1957.43 65.73 Q1952.08 73.7508 1941.91 73.7508 Q1931.74 73.7508 1926.36 65.73 Q1921.01 57.6687 1921.01 42.3968 Q1921.01 27.0843 1926.36 19.0636 Q1931.74 11.0023 1941.91 11.0023 Z" fill="#000000" fill-rule="nonzero" fill-opacity="1" /><path clip-path="url(#clip900)" d="M1994.69 17.4837 Q1988.37 17.4837 1985.17 23.7221 Q1982.01 29.92 1982.01 42.3968 Q1982.01 54.833 1985.17 61.0714 Q1988.37 67.2693 1994.69 67.2693 Q2001.05 67.2693 2004.21 61.0714 Q2007.41 54.833 2007.41 42.3968 Q2007.41 29.92 2004.21 23.7221 Q2001.05 17.4837 1994.69 17.4837 M1994.69 11.0023 Q2004.86 11.0023 2010.21 19.0636 Q2015.6 27.0843 2015.6 42.3968 Q2015.6 57.6687 2010.21 65.73 Q2004.86 73.7508 1994.69 73.7508 Q1984.53 73.7508 1979.14 65.73 Q1973.79 57.6687 1973.79 42.3968 Q1973.79 27.0843 1979.14 19.0636 Q1984.53 11.0023 1994.69 11.0023 Z" fill="#000000" fill-rule="nonzero" fill-opacity="1" /><path clip-path="url(#clip900)" d="M2027.75 9.62495 L2034.23 9.62495 Q2040.31 19.1851 2043.3 28.3401 Q2046.34 37.4952 2046.34 46.5287 Q2046.34 55.6027 2043.3 64.7983 Q2040.31 73.9938 2034.23 83.5134 L2027.75 83.5134 Q2033.14 74.2369 2035.77 65.0818 Q2038.44 55.8863 2038.44 46.5287 Q2038.44 37.1711 2035.77 28.0566 Q2033.14 18.942 2027.75 9.62495 Z" fill="#000000" fill-rule="nonzero" fill-opacity="1" /><polyline clip-path="url(#clip901)" style="stroke:#ff0000; stroke-linecap:round; stroke-linejoin:round; stroke-width:8; stroke-opacity:1; fill:none" stroke-dasharray="32, 20" points="267.183,1135.56 275.909,1116.95 284.635,1083.72 293.361,1026.38 302.087,937.109 310.813,817.746 319.539,682.098 328.265,547.912 336.991,428.564 345.718,330.871 354.444,256.573 363.17,204.365 371.896,171.457 380.622,154.571 389.348,150.518 398.074,156.466 406.8,170.036 415.526,189.29 424.252,212.684 432.978,239.007 441.704,267.312 450.431,296.869 459.157,327.116 467.883,357.621 476.609,388.055 485.335,418.169 494.061,447.778 502.787,476.743 511.513,504.964 520.239,532.369 528.965,558.912 537.691,584.562 546.417,609.303 555.144,633.13 563.87,656.048 572.596,678.065 581.322,699.196 590.048,719.461 598.774,738.881 607.5,757.48 616.226,775.282 624.952,792.312 633.678,808.599 642.404,824.168 651.13,839.046 659.857,853.259 668.583,866.833 677.309,879.794 686.035,892.167 694.761,903.977 703.487,915.246 712.213,925.998 720.939,936.255 729.665,946.039 738.391,955.371 747.117,964.27 755.843,972.755 764.57,980.844 773.296,988.557 782.022,995.909 790.748,1002.92 799.474,1009.6 808.2,1015.96 816.926,1022.03 825.652,1027.81 834.378,1033.32 843.104,1038.57 851.83,1043.58 860.556,1048.34 869.283,1052.88 878.009,1057.21 886.735,1061.33 895.461,1065.26 904.187,1069 912.913,1072.56 921.639,1075.96 930.365,1079.19 939.091,1082.27 947.817,1085.21 956.543,1088 965.269,1090.66 973.996,1093.2 982.722,1095.61 991.448,1097.91 1000.17,1100.11 1008.9,1102.19 1017.63,1104.18 1026.35,1106.07 1035.08,1107.87 1043.8,1109.59 1052.53,1111.23 1061.26,1112.78 1069.98,1114.26 1078.71,1115.68 1087.43,1117.02 1096.16,1118.3 1104.89,1119.52 1113.61,1120.68 1122.34,1121.79 1131.07,1122.84 1139.79,1123.84 1148.52,1124.8 1157.24,1125.71 1165.97,1126.57 1174.7,1127.4 1183.42,1128.18 1192.15,1128.93 1200.87,1129.64 1209.6,1130.32 1218.33,1130.97 1227.05,1131.58 1235.78,1132.17 1244.5,1132.72 1253.23,1133.26 1261.96,1133.76 1270.68,1134.24 1279.41,1134.7 1288.13,1135.14 1296.86,1135.55 1305.59,1135.95 1314.31,1136.32 1323.04,1136.68 1331.76,1137.02 1340.49,1137.35 1349.22,1137.66 1357.94,1137.96 1366.67,1138.24 1375.4,1138.5 1384.12,1138.76 1392.85,1139 1401.57,1139.23 1410.3,1139.45 1419.03,1139.66 1427.75,1139.86 1436.48,1140.05 1445.2,1140.23 1453.93,1140.4 1462.66,1140.57 1471.38,1140.72 1480.11,1140.87 1488.83,1141.01 1497.56,1141.15 1506.29,1141.27 1515.01,1141.4 1523.74,1141.51 1532.46,1141.62 1541.19,1141.73 1549.92,1141.83 1558.64,1141.92 1567.37,1142.02 1576.1,1142.1 1584.82,1142.18 1593.55,1142.26 1602.27,1142.34 1611,1142.41 1619.73,1142.48 1628.45,1142.54 1637.18,1142.6 1645.9,1142.66 1654.63,1142.72 1663.36,1142.77 1672.08,1142.82 1680.81,1142.87 1689.53,1142.91 1698.26,1142.96 1706.99,1143 1715.71,1143.04 1724.44,1143.08 1733.16,1143.11 1741.89,1143.15 1750.62,1143.18 1759.34,1143.21 1768.07,1143.24 1776.8,1143.27 1785.52,1143.29 1794.25,1143.32 1802.97,1143.34 1811.7,1143.37 1820.43,1143.39 1829.15,1143.41 1837.88,1143.43 1846.6,1143.45 1855.33,1143.47 1864.06,1143.48 1872.78,1143.5 1881.51,1143.51 1890.23,1143.53 1898.96,1143.54 1907.69,1143.56 1916.41,1143.57 1925.14,1143.58 1933.86,1143.59 1942.59,1143.6 1951.32,1143.62 1960.04,1143.63 1968.77,1143.63 1977.5,1143.64 1986.22,1143.65 1994.95,1143.66 2003.67,1143.67 2012.4,1143.68 "/>
<polyline clip-path="url(#clip901)" style="stroke:#0000ff; stroke-linecap:round; stroke-linejoin:round; stroke-width:8; stroke-opacity:1; fill:none" points="267.183,1135.56 275.909,1117.3 284.635,1087.29 293.361,1040.77 302.087,973.739 310.813,885.386 319.539,780.178 328.265,667.299 336.991,557.339 345.718,458.764 354.444,376.454 363.17,312.069 371.896,265.093 380.622,233.815 389.348,216.024 398.074,209.435 406.8,211.909 415.526,221.558 424.252,236.775 432.978,256.224 441.704,278.811 "/>
<path clip-path="url(#clip900)" d="M1435.97 311.335 L2003.09 311.335 L2003.09 155.815 L1435.97 155.815  Z" fill="#ffffff" fill-rule="evenodd" fill-opacity="1"/>
<polyline clip-path="url(#clip900)" style="stroke:#000000; stroke-linecap:round; stroke-linejoin:round; stroke-width:4; stroke-opacity:1; fill:none" points="1435.97,311.335 2003.09,311.335 2003.09,155.815 1435.97,155.815 1435.97,311.335 "/>
<polyline clip-path="url(#clip900)" style="stroke:#ff0000; stroke-linecap:round; stroke-linejoin:round; stroke-width:8; stroke-opacity:1; fill:none" stroke-dasharray="32, 20" points="1456.53,207.655 1579.85,207.655 "/>
<path clip-path="url(#clip900)" d="M1600.41 190.375 L1605.09 190.375 L1605.09 224.935 L1600.41 224.935 L1600.41 190.375 Z" fill="#000000" fill-rule="nonzero" fill-opacity="1" /><path clip-path="url(#clip900)" d="M1635.76 209.287 L1635.76 224.935 L1631.5 224.935 L1631.5 209.425 Q1631.5 205.745 1630.06 203.916 Q1628.63 202.088 1625.76 202.088 Q1622.31 202.088 1620.32 204.287 Q1618.33 206.486 1618.33 210.282 L1618.33 224.935 L1614.04 224.935 L1614.04 199.009 L1618.33 199.009 L1618.33 203.037 Q1619.85 200.699 1621.91 199.541 Q1624 198.384 1626.71 198.384 Q1631.17 198.384 1633.46 201.162 Q1635.76 203.916 1635.76 209.287 Z" fill="#000000" fill-rule="nonzero" fill-opacity="1" /><path clip-path="url(#clip900)" d="M1661.31 202.944 L1661.31 188.916 L1665.57 188.916 L1665.57 224.935 L1661.31 224.935 L1661.31 221.046 Q1659.97 223.361 1657.91 224.495 Q1655.87 225.606 1653 225.606 Q1648.3 225.606 1645.34 221.856 Q1642.4 218.106 1642.4 211.995 Q1642.4 205.884 1645.34 202.134 Q1648.3 198.384 1653 198.384 Q1655.87 198.384 1657.91 199.518 Q1659.97 200.629 1661.31 202.944 M1646.8 211.995 Q1646.8 216.694 1648.72 219.379 Q1650.66 222.041 1654.04 222.041 Q1657.42 222.041 1659.37 219.379 Q1661.31 216.694 1661.31 211.995 Q1661.31 207.296 1659.37 204.634 Q1657.42 201.949 1654.04 201.949 Q1650.66 201.949 1648.72 204.634 Q1646.8 207.296 1646.8 211.995 Z" fill="#000000" fill-rule="nonzero" fill-opacity="1" /><path clip-path="url(#clip900)" d="M1674.34 199.009 L1678.6 199.009 L1678.6 224.935 L1674.34 224.935 L1674.34 199.009 M1674.34 188.916 L1678.6 188.916 L1678.6 194.31 L1674.34 194.31 L1674.34 188.916 Z" fill="#000000" fill-rule="nonzero" fill-opacity="1" /><path clip-path="url(#clip900)" d="M1684.46 199.009 L1688.97 199.009 L1697.08 220.768 L1705.18 199.009 L1709.69 199.009 L1699.97 224.935 L1694.18 224.935 L1684.46 199.009 Z" fill="#000000" fill-rule="nonzero" fill-opacity="1" /><path clip-path="url(#clip900)" d="M1715.57 199.009 L1719.83 199.009 L1719.83 224.935 L1715.57 224.935 L1715.57 199.009 M1715.57 188.916 L1719.83 188.916 L1719.83 194.31 L1715.57 194.31 L1715.57 188.916 Z" fill="#000000" fill-rule="nonzero" fill-opacity="1" /><path clip-path="url(#clip900)" d="M1745.8 202.944 L1745.8 188.916 L1750.06 188.916 L1750.06 224.935 L1745.8 224.935 L1745.8 221.046 Q1744.46 223.361 1742.4 224.495 Q1740.36 225.606 1737.49 225.606 Q1732.79 225.606 1729.83 221.856 Q1726.89 218.106 1726.89 211.995 Q1726.89 205.884 1729.83 202.134 Q1732.79 198.384 1737.49 198.384 Q1740.36 198.384 1742.4 199.518 Q1744.46 200.629 1745.8 202.944 M1731.29 211.995 Q1731.29 216.694 1733.21 219.379 Q1735.15 222.041 1738.53 222.041 Q1741.91 222.041 1743.86 219.379 Q1745.8 216.694 1745.8 211.995 Q1745.8 207.296 1743.86 204.634 Q1741.91 201.949 1738.53 201.949 Q1735.15 201.949 1733.21 204.634 Q1731.29 207.296 1731.29 211.995 Z" fill="#000000" fill-rule="nonzero" fill-opacity="1" /><path clip-path="url(#clip900)" d="M1758.39 214.703 L1758.39 199.009 L1762.65 199.009 L1762.65 214.541 Q1762.65 218.222 1764.09 220.074 Q1765.52 221.902 1768.39 221.902 Q1771.84 221.902 1773.83 219.703 Q1775.85 217.504 1775.85 213.708 L1775.85 199.009 L1780.11 199.009 L1780.11 224.935 L1775.85 224.935 L1775.85 220.953 Q1774.3 223.314 1772.24 224.472 Q1770.2 225.606 1767.49 225.606 Q1763.02 225.606 1760.71 222.828 Q1758.39 220.05 1758.39 214.703 M1769.11 198.384 L1769.11 198.384 Z" fill="#000000" fill-rule="nonzero" fill-opacity="1" /><path clip-path="url(#clip900)" d="M1800.66 211.902 Q1795.5 211.902 1793.51 213.083 Q1791.52 214.263 1791.52 217.111 Q1791.52 219.379 1793 220.722 Q1794.51 222.041 1797.07 222.041 Q1800.62 222.041 1802.75 219.541 Q1804.9 217.018 1804.9 212.851 L1804.9 211.902 L1800.66 211.902 M1809.16 210.143 L1809.16 224.935 L1804.9 224.935 L1804.9 220.999 Q1803.44 223.361 1801.26 224.495 Q1799.09 225.606 1795.94 225.606 Q1791.96 225.606 1789.6 223.384 Q1787.26 221.138 1787.26 217.388 Q1787.26 213.013 1790.18 210.791 Q1793.12 208.569 1798.93 208.569 L1804.9 208.569 L1804.9 208.152 Q1804.9 205.213 1802.95 203.615 Q1801.03 201.995 1797.54 201.995 Q1795.32 201.995 1793.21 202.527 Q1791.1 203.06 1789.16 204.125 L1789.16 200.189 Q1791.5 199.287 1793.7 198.847 Q1795.89 198.384 1797.98 198.384 Q1803.6 198.384 1806.38 201.3 Q1809.16 204.217 1809.16 210.143 Z" fill="#000000" fill-rule="nonzero" fill-opacity="1" /><path clip-path="url(#clip900)" d="M1817.93 188.916 L1822.19 188.916 L1822.19 224.935 L1817.93 224.935 L1817.93 188.916 Z" fill="#000000" fill-rule="nonzero" fill-opacity="1" /><path clip-path="url(#clip900)" d="M1828.95 210.05 L1841.43 210.05 L1841.43 213.847 L1828.95 213.847 L1828.95 210.05 Z" fill="#000000" fill-rule="nonzero" fill-opacity="1" /><path clip-path="url(#clip900)" d="M1866.82 211.995 Q1866.82 207.296 1864.88 204.634 Q1862.95 201.949 1859.57 201.949 Q1856.19 201.949 1854.25 204.634 Q1852.33 207.296 1852.33 211.995 Q1852.33 216.694 1854.25 219.379 Q1856.19 222.041 1859.57 222.041 Q1862.95 222.041 1864.88 219.379 Q1866.82 216.694 1866.82 211.995 M1852.33 202.944 Q1853.67 200.629 1855.71 199.518 Q1857.77 198.384 1860.62 198.384 Q1865.34 198.384 1868.28 202.134 Q1871.24 205.884 1871.24 211.995 Q1871.24 218.106 1868.28 221.856 Q1865.34 225.606 1860.62 225.606 Q1857.77 225.606 1855.71 224.495 Q1853.67 223.361 1852.33 221.046 L1852.33 224.935 L1848.05 224.935 L1848.05 188.916 L1852.33 188.916 L1852.33 202.944 Z" fill="#000000" fill-rule="nonzero" fill-opacity="1" /><path clip-path="url(#clip900)" d="M1890.08 211.902 Q1884.92 211.902 1882.93 213.083 Q1880.94 214.263 1880.94 217.111 Q1880.94 219.379 1882.42 220.722 Q1883.93 222.041 1886.5 222.041 Q1890.04 222.041 1892.17 219.541 Q1894.32 217.018 1894.32 212.851 L1894.32 211.902 L1890.08 211.902 M1898.58 210.143 L1898.58 224.935 L1894.32 224.935 L1894.32 220.999 Q1892.86 223.361 1890.69 224.495 Q1888.51 225.606 1885.36 225.606 Q1881.38 225.606 1879.02 223.384 Q1876.68 221.138 1876.68 217.388 Q1876.68 213.013 1879.6 210.791 Q1882.54 208.569 1888.35 208.569 L1894.32 208.569 L1894.32 208.152 Q1894.32 205.213 1892.38 203.615 Q1890.45 201.995 1886.96 201.995 Q1884.74 201.995 1882.63 202.527 Q1880.52 203.06 1878.58 204.125 L1878.58 200.189 Q1880.92 199.287 1883.12 198.847 Q1885.32 198.384 1887.4 198.384 Q1893.02 198.384 1895.8 201.3 Q1898.58 204.217 1898.58 210.143 Z" fill="#000000" fill-rule="nonzero" fill-opacity="1" /><path clip-path="url(#clip900)" d="M1923.88 199.773 L1923.88 203.8 Q1922.07 202.875 1920.13 202.412 Q1918.19 201.949 1916.1 201.949 Q1912.93 201.949 1911.33 202.921 Q1909.76 203.893 1909.76 205.838 Q1909.76 207.319 1910.89 208.175 Q1912.03 209.009 1915.45 209.773 L1916.91 210.097 Q1921.45 211.069 1923.35 212.851 Q1925.27 214.611 1925.27 217.782 Q1925.27 221.393 1922.4 223.499 Q1919.55 225.606 1914.55 225.606 Q1912.47 225.606 1910.2 225.189 Q1907.95 224.796 1905.45 223.986 L1905.45 219.587 Q1907.81 220.814 1910.11 221.439 Q1912.4 222.041 1914.64 222.041 Q1917.65 222.041 1919.27 221.023 Q1920.89 219.981 1920.89 218.106 Q1920.89 216.37 1919.71 215.444 Q1918.56 214.518 1914.6 213.662 L1913.12 213.314 Q1909.16 212.481 1907.4 210.768 Q1905.64 209.032 1905.64 206.023 Q1905.64 202.365 1908.23 200.375 Q1910.82 198.384 1915.59 198.384 Q1917.95 198.384 1920.04 198.731 Q1922.12 199.078 1923.88 199.773 Z" fill="#000000" fill-rule="nonzero" fill-opacity="1" /><path clip-path="url(#clip900)" d="M1954.23 210.907 L1954.23 212.99 L1934.64 212.99 Q1934.92 217.388 1937.28 219.703 Q1939.67 221.995 1943.9 221.995 Q1946.36 221.995 1948.65 221.393 Q1950.96 220.791 1953.23 219.587 L1953.23 223.615 Q1950.94 224.587 1948.53 225.097 Q1946.12 225.606 1943.65 225.606 Q1937.44 225.606 1933.81 221.995 Q1930.2 218.384 1930.2 212.226 Q1930.2 205.861 1933.63 202.134 Q1937.07 198.384 1942.91 198.384 Q1948.14 198.384 1951.17 201.763 Q1954.23 205.12 1954.23 210.907 M1949.97 209.657 Q1949.92 206.162 1948 204.078 Q1946.1 201.995 1942.95 201.995 Q1939.39 201.995 1937.24 204.009 Q1935.11 206.023 1934.78 209.68 L1949.97 209.657 Z" fill="#000000" fill-rule="nonzero" fill-opacity="1" /><path clip-path="url(#clip900)" d="M1978.28 202.944 L1978.28 188.916 L1982.54 188.916 L1982.54 224.935 L1978.28 224.935 L1978.28 221.046 Q1976.93 223.361 1974.87 224.495 Q1972.84 225.606 1969.97 225.606 Q1965.27 225.606 1962.31 221.856 Q1959.37 218.106 1959.37 211.995 Q1959.37 205.884 1962.31 202.134 Q1965.27 198.384 1969.97 198.384 Q1972.84 198.384 1974.87 199.518 Q1976.93 200.629 1978.28 202.944 M1963.76 211.995 Q1963.76 216.694 1965.69 219.379 Q1967.63 222.041 1971.01 222.041 Q1974.39 222.041 1976.33 219.379 Q1978.28 216.694 1978.28 211.995 Q1978.28 207.296 1976.33 204.634 Q1974.39 201.949 1971.01 201.949 Q1967.63 201.949 1965.69 204.634 Q1963.76 207.296 1963.76 211.995 Z" fill="#000000" fill-rule="nonzero" fill-opacity="1" /><polyline clip-path="url(#clip900)" style="stroke:#0000ff; stroke-linecap:round; stroke-linejoin:round; stroke-width:8; stroke-opacity:1; fill:none" points="1456.53,259.495 1579.85,259.495 "/>
<path clip-path="url(#clip900)" d="M1605.09 246.057 L1605.09 259.043 L1610.96 259.043 Q1614.23 259.043 1616.01 257.353 Q1617.79 255.664 1617.79 252.539 Q1617.79 249.437 1616.01 247.747 Q1614.23 246.057 1610.96 246.057 L1605.09 246.057 M1600.41 242.215 L1610.96 242.215 Q1616.77 242.215 1619.74 244.854 Q1622.72 247.469 1622.72 252.539 Q1622.72 257.654 1619.74 260.27 Q1616.77 262.886 1610.96 262.886 L1605.09 262.886 L1605.09 276.775 L1600.41 276.775 L1600.41 242.215 Z" fill="#000000" fill-rule="nonzero" fill-opacity="1" /><path clip-path="url(#clip900)" d="M1638.46 263.742 Q1633.3 263.742 1631.31 264.923 Q1629.32 266.103 1629.32 268.951 Q1629.32 271.219 1630.8 272.562 Q1632.31 273.881 1634.88 273.881 Q1638.42 273.881 1640.55 271.381 Q1642.7 268.858 1642.7 264.691 L1642.7 263.742 L1638.46 263.742 M1646.96 261.983 L1646.96 276.775 L1642.7 276.775 L1642.7 272.839 Q1641.24 275.201 1639.07 276.335 Q1636.89 277.446 1633.74 277.446 Q1629.76 277.446 1627.4 275.224 Q1625.06 272.978 1625.06 269.228 Q1625.06 264.853 1627.98 262.631 Q1630.92 260.409 1636.73 260.409 L1642.7 260.409 L1642.7 259.992 Q1642.7 257.053 1640.76 255.455 Q1638.83 253.835 1635.34 253.835 Q1633.12 253.835 1631.01 254.367 Q1628.9 254.9 1626.96 255.965 L1626.96 252.029 Q1629.3 251.127 1631.5 250.687 Q1633.7 250.224 1635.78 250.224 Q1641.4 250.224 1644.18 253.14 Q1646.96 256.057 1646.96 261.983 Z" fill="#000000" fill-rule="nonzero" fill-opacity="1" /><path clip-path="url(#clip900)" d="M1655.73 250.849 L1659.99 250.849 L1659.99 276.775 L1655.73 276.775 L1655.73 250.849 M1655.73 240.756 L1659.99 240.756 L1659.99 246.15 L1655.73 246.15 L1655.73 240.756 Z" fill="#000000" fill-rule="nonzero" fill-opacity="1" /><path clip-path="url(#clip900)" d="M1683.93 254.83 Q1683.21 254.414 1682.35 254.228 Q1681.52 254.02 1680.5 254.02 Q1676.89 254.02 1674.95 256.381 Q1673.02 258.719 1673.02 263.117 L1673.02 276.775 L1668.74 276.775 L1668.74 250.849 L1673.02 250.849 L1673.02 254.877 Q1674.37 252.515 1676.52 251.381 Q1678.67 250.224 1681.75 250.224 Q1682.19 250.224 1682.72 250.293 Q1683.26 250.34 1683.9 250.455 L1683.93 254.83 Z" fill="#000000" fill-rule="nonzero" fill-opacity="1" /><path clip-path="url(#clip900)" d="M1683.21 261.89 L1695.69 261.89 L1695.69 265.687 L1683.21 265.687 L1683.21 261.89 Z" fill="#000000" fill-rule="nonzero" fill-opacity="1" /><path clip-path="url(#clip900)" d="M1721.08 263.835 Q1721.08 259.136 1719.14 256.474 Q1717.21 253.789 1713.83 253.789 Q1710.45 253.789 1708.51 256.474 Q1706.59 259.136 1706.59 263.835 Q1706.59 268.534 1708.51 271.219 Q1710.45 273.881 1713.83 273.881 Q1717.21 273.881 1719.14 271.219 Q1721.08 268.534 1721.08 263.835 M1706.59 254.784 Q1707.93 252.469 1709.97 251.358 Q1712.03 250.224 1714.88 250.224 Q1719.6 250.224 1722.54 253.974 Q1725.5 257.724 1725.5 263.835 Q1725.5 269.946 1722.54 273.696 Q1719.6 277.446 1714.88 277.446 Q1712.03 277.446 1709.97 276.335 Q1707.93 275.201 1706.59 272.886 L1706.59 276.775 L1702.31 276.775 L1702.31 240.756 L1706.59 240.756 L1706.59 254.784 Z" fill="#000000" fill-rule="nonzero" fill-opacity="1" /><path clip-path="url(#clip900)" d="M1744.34 263.742 Q1739.18 263.742 1737.19 264.923 Q1735.2 266.103 1735.2 268.951 Q1735.2 271.219 1736.68 272.562 Q1738.19 273.881 1740.76 273.881 Q1744.3 273.881 1746.43 271.381 Q1748.58 268.858 1748.58 264.691 L1748.58 263.742 L1744.34 263.742 M1752.84 261.983 L1752.84 276.775 L1748.58 276.775 L1748.58 272.839 Q1747.12 275.201 1744.95 276.335 Q1742.77 277.446 1739.62 277.446 Q1735.64 277.446 1733.28 275.224 Q1730.94 272.978 1730.94 269.228 Q1730.94 264.853 1733.86 262.631 Q1736.8 260.409 1742.61 260.409 L1748.58 260.409 L1748.58 259.992 Q1748.58 257.053 1746.64 255.455 Q1744.71 253.835 1741.22 253.835 Q1739 253.835 1736.89 254.367 Q1734.78 254.9 1732.84 255.965 L1732.84 252.029 Q1735.18 251.127 1737.38 250.687 Q1739.58 250.224 1741.66 250.224 Q1747.28 250.224 1750.06 253.14 Q1752.84 256.057 1752.84 261.983 Z" fill="#000000" fill-rule="nonzero" fill-opacity="1" /><path clip-path="url(#clip900)" d="M1778.14 251.613 L1778.14 255.64 Q1776.33 254.715 1774.39 254.252 Q1772.45 253.789 1770.36 253.789 Q1767.19 253.789 1765.59 254.761 Q1764.02 255.733 1764.02 257.678 Q1764.02 259.159 1765.15 260.015 Q1766.29 260.849 1769.71 261.613 L1771.17 261.937 Q1775.71 262.909 1777.61 264.691 Q1779.53 266.451 1779.53 269.622 Q1779.53 273.233 1776.66 275.339 Q1773.81 277.446 1768.81 277.446 Q1766.73 277.446 1764.46 277.029 Q1762.21 276.636 1759.71 275.826 L1759.71 271.427 Q1762.08 272.654 1764.37 273.279 Q1766.66 273.881 1768.9 273.881 Q1771.91 273.881 1773.53 272.863 Q1775.15 271.821 1775.15 269.946 Q1775.15 268.21 1773.97 267.284 Q1772.82 266.358 1768.86 265.502 L1767.38 265.154 Q1763.42 264.321 1761.66 262.608 Q1759.9 260.872 1759.9 257.863 Q1759.9 254.205 1762.49 252.215 Q1765.08 250.224 1769.85 250.224 Q1772.21 250.224 1774.3 250.571 Q1776.38 250.918 1778.14 251.613 Z" fill="#000000" fill-rule="nonzero" fill-opacity="1" /><path clip-path="url(#clip900)" d="M1808.49 262.747 L1808.49 264.83 L1788.9 264.83 Q1789.18 269.228 1791.54 271.543 Q1793.93 273.835 1798.16 273.835 Q1800.62 273.835 1802.91 273.233 Q1805.22 272.631 1807.49 271.427 L1807.49 275.455 Q1805.2 276.427 1802.79 276.937 Q1800.39 277.446 1797.91 277.446 Q1791.7 277.446 1788.07 273.835 Q1784.46 270.224 1784.46 264.066 Q1784.46 257.701 1787.89 253.974 Q1791.33 250.224 1797.17 250.224 Q1802.4 250.224 1805.43 253.603 Q1808.49 256.96 1808.49 262.747 M1804.23 261.497 Q1804.18 258.002 1802.26 255.918 Q1800.36 253.835 1797.21 253.835 Q1793.65 253.835 1791.5 255.849 Q1789.37 257.863 1789.04 261.52 L1804.23 261.497 Z" fill="#000000" fill-rule="nonzero" fill-opacity="1" /><path clip-path="url(#clip900)" d="M1832.54 254.784 L1832.54 240.756 L1836.8 240.756 L1836.8 276.775 L1832.54 276.775 L1832.54 272.886 Q1831.2 275.201 1829.13 276.335 Q1827.1 277.446 1824.23 277.446 Q1819.53 277.446 1816.57 273.696 Q1813.63 269.946 1813.63 263.835 Q1813.63 257.724 1816.57 253.974 Q1819.53 250.224 1824.23 250.224 Q1827.1 250.224 1829.13 251.358 Q1831.2 252.469 1832.54 254.784 M1818.02 263.835 Q1818.02 268.534 1819.95 271.219 Q1821.89 273.881 1825.27 273.881 Q1828.65 273.881 1830.59 271.219 Q1832.54 268.534 1832.54 263.835 Q1832.54 259.136 1830.59 256.474 Q1828.65 253.789 1825.27 253.789 Q1821.89 253.789 1819.95 256.474 Q1818.02 259.136 1818.02 263.835 Z" fill="#000000" fill-rule="nonzero" fill-opacity="1" /></svg>
