<?xml version="1.0" encoding="utf-8"?>
<svg xmlns="http://www.w3.org/2000/svg" xmlns:xlink="http://www.w3.org/1999/xlink" width="672" height="480" viewBox="0 0 2688 1920">
<defs>
  <clipPath id="clip810">
    <rect x="0" y="0" width="2688" height="1920"/>
  </clipPath>
</defs>
<path clip-path="url(#clip810)" d="M0 1920 L2688 1920 L2688 -4.26326e-14 L0 -4.26326e-14  Z" fill="#ffffff" fill-rule="evenodd" fill-opacity="1"/>
<defs>
  <clipPath id="clip811">
    <rect x="226" y="127" width="2416" height="1607"/>
  </clipPath>
</defs>
<path clip-path="url(#clip810)" d="M226.141 1734.12 L2640.76 1734.12 L2640.76 127.792 L226.141 127.792  Z" fill="#ffffff" fill-rule="evenodd" fill-opacity="1"/>
<polyline clip-path="url(#clip811)" style="stroke:#000000; stroke-linecap:round; stroke-linejoin:round; stroke-width:2; stroke-opacity:0.1; fill:none" points="294.479,1734.12 294.479,127.792 "/>
<polyline clip-path="url(#clip811)" style="stroke:#000000; stroke-linecap:round; stroke-linejoin:round; stroke-width:2; stroke-opacity:0.1; fill:none" points="863.963,1734.12 863.963,127.792 "/>
<polyline clip-path="url(#clip811)" style="stroke:#000000; stroke-linecap:round; stroke-linejoin:round; stroke-width:2; stroke-opacity:0.1; fill:none" points="1433.45,1734.12 1433.45,127.792 "/>
<polyline clip-path="url(#clip811)" style="stroke:#000000; stroke-linecap:round; stroke-linejoin:round; stroke-width:2; stroke-opacity:0.1; fill:none" points="2002.93,1734.12 2002.93,127.792 "/>
<polyline clip-path="url(#clip811)" style="stroke:#000000; stroke-linecap:round; stroke-linejoin:round; stroke-width:2; stroke-opacity:0.1; fill:none" points="2572.42,1734.12 2572.42,127.792 "/>
<polyline clip-path="url(#clip811)" style="stroke:#000000; stroke-linecap:round; stroke-linejoin:round; stroke-width:2; stroke-opacity:0.1; fill:none" points="226.141,1706.65 2640.76,1706.65 "/>
<polyline clip-path="url(#clip811)" style="stroke:#000000; stroke-linecap:round; stroke-linejoin:round; stroke-width:2; stroke-opacity:0.1; fill:none" points="226.141,1346.7 2640.76,1346.7 "/>
<polyline clip-path="url(#clip811)" style="stroke:#000000; stroke-linecap:round; stroke-linejoin:round; stroke-width:2; stroke-opacity:0.1; fill:none" points="226.141,986.747 2640.76,986.747 "/>
<polyline clip-path="url(#clip811)" style="stroke:#000000; stroke-linecap:round; stroke-linejoin:round; stroke-width:2; stroke-opacity:0.1; fill:none" points="226.141,626.795 2640.76,626.795 "/>
<polyline clip-path="url(#clip811)" style="stroke:#000000; stroke-linecap:round; stroke-linejoin:round; stroke-width:2; stroke-opacity:0.1; fill:none" points="226.141,266.842 2640.76,266.842 "/>
<polyline clip-path="url(#clip810)" style="stroke:#000000; stroke-linecap:round; stroke-linejoin:round; stroke-width:4; stroke-opacity:1; fill:none" points="226.141,1734.12 2640.76,1734.12 "/>
<polyline clip-path="url(#clip810)" style="stroke:#000000; stroke-linecap:round; stroke-linejoin:round; stroke-width:4; stroke-opacity:1; fill:none" points="294.479,1734.12 294.479,1715.22 "/>
<polyline clip-path="url(#clip810)" style="stroke:#000000; stroke-linecap:round; stroke-linejoin:round; stroke-width:4; stroke-opacity:1; fill:none" points="863.963,1734.12 863.963,1715.22 "/>
<polyline clip-path="url(#clip810)" style="stroke:#000000; stroke-linecap:round; stroke-linejoin:round; stroke-width:4; stroke-opacity:1; fill:none" points="1433.45,1734.12 1433.45,1715.22 "/>
<polyline clip-path="url(#clip810)" style="stroke:#000000; stroke-linecap:round; stroke-linejoin:round; stroke-width:4; stroke-opacity:1; fill:none" points="2002.93,1734.12 2002.93,1715.22 "/>
<polyline clip-path="url(#clip810)" style="stroke:#000000; stroke-linecap:round; stroke-linejoin:round; stroke-width:4; stroke-opacity:1; fill:none" points="2572.42,1734.12 2572.42,1715.22 "/>
<path clip-path="url(#clip810)" d="M294.479 1767.34 Q290.868 1767.34 289.039 1770.9 Q287.233 1774.45 287.233 1781.58 Q287.233 1788.68 289.039 1792.25 Q290.868 1795.79 294.479 1795.79 Q298.113 1795.79 299.919 1792.25 Q301.747 1788.68 301.747 1781.58 Q301.747 1774.45 299.919 1770.9 Q298.113 1767.34 294.479 1767.34 M294.479 1763.64 Q300.289 1763.64 303.344 1768.24 Q306.423 1772.83 306.423 1781.58 Q306.423 1790.3 303.344 1794.91 Q300.289 1799.49 294.479 1799.49 Q288.669 1799.49 285.59 1794.91 Q282.534 1790.3 282.534 1781.58 Q282.534 1772.83 285.59 1768.24 Q288.669 1763.64 294.479 1763.64 Z" fill="#000000" fill-rule="nonzero" fill-opacity="1" /><path clip-path="url(#clip810)" d="M838.651 1794.89 L846.29 1794.89 L846.29 1768.52 L837.98 1770.19 L837.98 1765.93 L846.244 1764.26 L850.92 1764.26 L850.92 1794.89 L858.558 1794.89 L858.558 1798.82 L838.651 1798.82 L838.651 1794.89 Z" fill="#000000" fill-rule="nonzero" fill-opacity="1" /><path clip-path="url(#clip810)" d="M878.003 1767.34 Q874.392 1767.34 872.563 1770.9 Q870.757 1774.45 870.757 1781.58 Q870.757 1788.68 872.563 1792.25 Q874.392 1795.79 878.003 1795.79 Q881.637 1795.79 883.443 1792.25 Q885.271 1788.68 885.271 1781.58 Q885.271 1774.45 883.443 1770.9 Q881.637 1767.34 878.003 1767.34 M878.003 1763.64 Q883.813 1763.64 886.868 1768.24 Q889.947 1772.83 889.947 1781.58 Q889.947 1790.3 886.868 1794.91 Q883.813 1799.49 878.003 1799.49 Q872.193 1799.49 869.114 1794.91 Q866.058 1790.3 866.058 1781.58 Q866.058 1772.83 869.114 1768.24 Q872.193 1763.64 878.003 1763.64 Z" fill="#000000" fill-rule="nonzero" fill-opacity="1" /><path clip-path="url(#clip810)" d="M1412.22 1794.89 L1428.54 1794.89 L1428.54 1798.82 L1406.6 1798.82 L1406.6 1794.89 Q1409.26 1792.13 1413.84 1787.5 Q1418.45 1782.85 1419.63 1781.51 Q1421.87 1778.98 1422.75 1777.25 Q1423.66 1775.49 1423.66 1773.8 Q1423.66 1771.04 1421.71 1769.31 Q1419.79 1767.57 1416.69 1767.57 Q1414.49 1767.57 1412.04 1768.34 Q1409.61 1769.1 1406.83 1770.65 L1406.83 1765.93 Q1409.65 1764.79 1412.11 1764.21 Q1414.56 1763.64 1416.6 1763.64 Q1421.97 1763.64 1425.16 1766.32 Q1428.36 1769.01 1428.36 1773.5 Q1428.36 1775.63 1427.55 1777.55 Q1426.76 1779.45 1424.65 1782.04 Q1424.07 1782.71 1420.97 1785.93 Q1417.87 1789.12 1412.22 1794.89 Z" fill="#000000" fill-rule="nonzero" fill-opacity="1" /><path clip-path="url(#clip810)" d="M1448.36 1767.34 Q1444.74 1767.34 1442.92 1770.9 Q1441.11 1774.45 1441.11 1781.58 Q1441.11 1788.68 1442.92 1792.25 Q1444.74 1795.79 1448.36 1795.79 Q1451.99 1795.79 1453.8 1792.25 Q1455.62 1788.68 1455.62 1781.58 Q1455.62 1774.45 1453.8 1770.9 Q1451.99 1767.34 1448.36 1767.34 M1448.36 1763.64 Q1454.17 1763.64 1457.22 1768.24 Q1460.3 1772.83 1460.3 1781.58 Q1460.3 1790.3 1457.22 1794.91 Q1454.17 1799.49 1448.36 1799.49 Q1442.55 1799.49 1439.47 1794.91 Q1436.41 1790.3 1436.41 1781.58 Q1436.41 1772.83 1439.47 1768.24 Q1442.55 1763.64 1448.36 1763.64 Z" fill="#000000" fill-rule="nonzero" fill-opacity="1" /><path clip-path="url(#clip810)" d="M1991.78 1780.19 Q1995.13 1780.9 1997.01 1783.17 Q1998.91 1785.44 1998.91 1788.77 Q1998.91 1793.89 1995.39 1796.69 Q1991.87 1799.49 1985.39 1799.49 Q1983.21 1799.49 1980.9 1799.05 Q1978.6 1798.64 1976.15 1797.78 L1976.15 1793.27 Q1978.1 1794.4 1980.41 1794.98 Q1982.72 1795.56 1985.25 1795.56 Q1989.65 1795.56 1991.94 1793.82 Q1994.25 1792.08 1994.25 1788.77 Q1994.25 1785.72 1992.1 1784.01 Q1989.97 1782.27 1986.15 1782.27 L1982.12 1782.27 L1982.12 1778.43 L1986.34 1778.43 Q1989.78 1778.43 1991.61 1777.06 Q1993.44 1775.67 1993.44 1773.08 Q1993.44 1770.42 1991.54 1769.01 Q1989.67 1767.57 1986.15 1767.57 Q1984.23 1767.57 1982.03 1767.99 Q1979.83 1768.4 1977.19 1769.28 L1977.19 1765.12 Q1979.85 1764.38 1982.17 1764.01 Q1984.51 1763.64 1986.57 1763.64 Q1991.89 1763.64 1994.99 1766.07 Q1998.1 1768.47 1998.1 1772.59 Q1998.1 1775.46 1996.45 1777.46 Q1994.81 1779.42 1991.78 1780.19 Z" fill="#000000" fill-rule="nonzero" fill-opacity="1" /><path clip-path="url(#clip810)" d="M2017.77 1767.34 Q2014.16 1767.34 2012.33 1770.9 Q2010.53 1774.45 2010.53 1781.58 Q2010.53 1788.68 2012.33 1792.25 Q2014.16 1795.79 2017.77 1795.79 Q2021.41 1795.79 2023.21 1792.25 Q2025.04 1788.68 2025.04 1781.58 Q2025.04 1774.45 2023.21 1770.9 Q2021.41 1767.34 2017.77 1767.34 M2017.77 1763.64 Q2023.58 1763.64 2026.64 1768.24 Q2029.72 1772.83 2029.72 1781.58 Q2029.72 1790.3 2026.64 1794.91 Q2023.58 1799.49 2017.77 1799.49 Q2011.96 1799.49 2008.88 1794.91 Q2005.83 1790.3 2005.83 1781.58 Q2005.83 1772.83 2008.88 1768.24 Q2011.96 1763.64 2017.77 1763.64 Z" fill="#000000" fill-rule="nonzero" fill-opacity="1" /><path clip-path="url(#clip810)" d="M2560.59 1768.34 L2548.78 1786.78 L2560.59 1786.78 L2560.59 1768.34 M2559.36 1764.26 L2565.24 1764.26 L2565.24 1786.78 L2570.17 1786.78 L2570.17 1790.67 L2565.24 1790.67 L2565.24 1798.82 L2560.59 1798.82 L2560.59 1790.67 L2544.99 1790.67 L2544.99 1786.16 L2559.36 1764.26 Z" fill="#000000" fill-rule="nonzero" fill-opacity="1" /><path clip-path="url(#clip810)" d="M2587.9 1767.34 Q2584.29 1767.34 2582.46 1770.9 Q2580.66 1774.45 2580.66 1781.58 Q2580.66 1788.68 2582.46 1792.25 Q2584.29 1795.79 2587.9 1795.79 Q2591.54 1795.79 2593.34 1792.25 Q2595.17 1788.68 2595.17 1781.58 Q2595.17 1774.45 2593.34 1770.9 Q2591.54 1767.34 2587.9 1767.34 M2587.9 1763.64 Q2593.71 1763.64 2596.77 1768.24 Q2599.85 1772.83 2599.85 1781.58 Q2599.85 1790.3 2596.77 1794.91 Q2593.71 1799.49 2587.9 1799.49 Q2582.09 1799.49 2579.01 1794.91 Q2575.96 1790.3 2575.96 1781.58 Q2575.96 1772.83 2579.01 1768.24 Q2582.09 1763.64 2587.9 1763.64 Z" fill="#000000" fill-rule="nonzero" fill-opacity="1" /><path clip-path="url(#clip810)" d="M1372.61 1837.53 L1372.61 1847.65 L1384.67 1847.65 L1384.67 1852.2 L1372.61 1852.2 L1372.61 1871.56 Q1372.61 1875.92 1373.79 1877.16 Q1375 1878.4 1378.66 1878.4 L1384.67 1878.4 L1384.67 1883.3 L1378.66 1883.3 Q1371.88 1883.3 1369.3 1880.79 Q1366.72 1878.24 1366.72 1871.56 L1366.72 1852.2 L1362.42 1852.2 L1362.42 1847.65 L1366.72 1847.65 L1366.72 1837.53 L1372.61 1837.53 Z" fill="#000000" fill-rule="nonzero" fill-opacity="1" /><path clip-path="url(#clip810)" d="M1392.37 1847.65 L1398.23 1847.65 L1398.23 1883.3 L1392.37 1883.3 L1392.37 1847.65 M1392.37 1833.78 L1398.23 1833.78 L1398.23 1841.19 L1392.37 1841.19 L1392.37 1833.78 Z" fill="#000000" fill-rule="nonzero" fill-opacity="1" /><path clip-path="url(#clip810)" d="M1438.24 1854.5 Q1440.43 1850.55 1443.49 1848.67 Q1446.55 1846.79 1450.68 1846.79 Q1456.25 1846.79 1459.28 1850.71 Q1462.3 1854.59 1462.3 1861.78 L1462.3 1883.3 L1456.41 1883.3 L1456.41 1861.98 Q1456.41 1856.85 1454.6 1854.37 Q1452.78 1851.89 1449.06 1851.89 Q1444.51 1851.89 1441.87 1854.91 Q1439.23 1857.93 1439.23 1863.15 L1439.23 1883.3 L1433.34 1883.3 L1433.34 1861.98 Q1433.34 1856.82 1431.52 1854.37 Q1429.71 1851.89 1425.92 1851.89 Q1421.43 1851.89 1418.79 1854.94 Q1416.15 1857.97 1416.15 1863.15 L1416.15 1883.3 L1410.26 1883.3 L1410.26 1847.65 L1416.15 1847.65 L1416.15 1853.19 Q1418.15 1849.91 1420.96 1848.35 Q1423.76 1846.79 1427.61 1846.79 Q1431.49 1846.79 1434.2 1848.77 Q1436.93 1850.74 1438.24 1854.5 Z" fill="#000000" fill-rule="nonzero" fill-opacity="1" /><path clip-path="url(#clip810)" d="M1504.47 1864.01 L1504.47 1866.88 L1477.55 1866.88 Q1477.93 1872.92 1481.18 1876.11 Q1484.45 1879.26 1490.28 1879.26 Q1493.65 1879.26 1496.8 1878.43 Q1499.99 1877.6 1503.1 1875.95 L1503.1 1881.49 Q1499.95 1882.82 1496.64 1883.52 Q1493.33 1884.22 1489.93 1884.22 Q1481.4 1884.22 1476.4 1879.26 Q1471.44 1874.29 1471.44 1865.83 Q1471.44 1857.07 1476.15 1851.95 Q1480.89 1846.79 1488.91 1846.79 Q1496.1 1846.79 1500.27 1851.44 Q1504.47 1856.06 1504.47 1864.01 M1498.62 1862.29 Q1498.55 1857.49 1495.91 1854.62 Q1493.3 1851.76 1488.97 1851.76 Q1484.07 1851.76 1481.11 1854.53 Q1478.18 1857.3 1477.74 1862.33 L1498.62 1862.29 Z" fill="#000000" fill-rule="nonzero" fill-opacity="1" /><polyline clip-path="url(#clip810)" style="stroke:#000000; stroke-linecap:round; stroke-linejoin:round; stroke-width:4; stroke-opacity:1; fill:none" points="226.141,1734.12 226.141,127.792 "/>
<polyline clip-path="url(#clip810)" style="stroke:#000000; stroke-linecap:round; stroke-linejoin:round; stroke-width:4; stroke-opacity:1; fill:none" points="226.141,1706.65 245.038,1706.65 "/>
<polyline clip-path="url(#clip810)" style="stroke:#000000; stroke-linecap:round; stroke-linejoin:round; stroke-width:4; stroke-opacity:1; fill:none" points="226.141,1346.7 245.038,1346.7 "/>
<polyline clip-path="url(#clip810)" style="stroke:#000000; stroke-linecap:round; stroke-linejoin:round; stroke-width:4; stroke-opacity:1; fill:none" points="226.141,986.747 245.038,986.747 "/>
<polyline clip-path="url(#clip810)" style="stroke:#000000; stroke-linecap:round; stroke-linejoin:round; stroke-width:4; stroke-opacity:1; fill:none" points="226.141,626.795 245.038,626.795 "/>
<polyline clip-path="url(#clip810)" style="stroke:#000000; stroke-linecap:round; stroke-linejoin:round; stroke-width:4; stroke-opacity:1; fill:none" points="226.141,266.842 245.038,266.842 "/>
<path clip-path="url(#clip810)" d="M128.645 1692.45 Q125.034 1692.45 123.205 1696.02 Q121.4 1699.56 121.4 1706.69 Q121.4 1713.79 123.205 1717.36 Q125.034 1720.9 128.645 1720.9 Q132.279 1720.9 134.085 1717.36 Q135.913 1713.79 135.913 1706.69 Q135.913 1699.56 134.085 1696.02 Q132.279 1692.45 128.645 1692.45 M128.645 1688.75 Q134.455 1688.75 137.511 1693.35 Q140.589 1697.94 140.589 1706.69 Q140.589 1715.41 137.511 1720.02 Q134.455 1724.6 128.645 1724.6 Q122.835 1724.6 119.756 1720.02 Q116.701 1715.41 116.701 1706.69 Q116.701 1697.94 119.756 1693.35 Q122.835 1688.75 128.645 1688.75 Z" fill="#000000" fill-rule="nonzero" fill-opacity="1" /><path clip-path="url(#clip810)" d="M148.807 1718.05 L153.691 1718.05 L153.691 1723.93 L148.807 1723.93 L148.807 1718.05 Z" fill="#000000" fill-rule="nonzero" fill-opacity="1" /><path clip-path="url(#clip810)" d="M173.876 1692.45 Q170.265 1692.45 168.436 1696.02 Q166.631 1699.56 166.631 1706.69 Q166.631 1713.79 168.436 1717.36 Q170.265 1720.9 173.876 1720.9 Q177.51 1720.9 179.316 1717.36 Q181.145 1713.79 181.145 1706.69 Q181.145 1699.56 179.316 1696.02 Q177.51 1692.45 173.876 1692.45 M173.876 1688.75 Q179.686 1688.75 182.742 1693.35 Q185.821 1697.94 185.821 1706.69 Q185.821 1715.41 182.742 1720.02 Q179.686 1724.6 173.876 1724.6 Q168.066 1724.6 164.987 1720.02 Q161.932 1715.41 161.932 1706.69 Q161.932 1697.94 164.987 1693.35 Q168.066 1688.75 173.876 1688.75 Z" fill="#000000" fill-rule="nonzero" fill-opacity="1" /><path clip-path="url(#clip810)" d="M130.242 1332.5 Q126.631 1332.5 124.802 1336.06 Q122.997 1339.61 122.997 1346.73 Q122.997 1353.84 124.802 1357.41 Q126.631 1360.95 130.242 1360.95 Q133.876 1360.95 135.682 1357.41 Q137.511 1353.84 137.511 1346.73 Q137.511 1339.61 135.682 1336.06 Q133.876 1332.5 130.242 1332.5 M130.242 1328.79 Q136.052 1328.79 139.108 1333.4 Q142.187 1337.98 142.187 1346.73 Q142.187 1355.46 139.108 1360.07 Q136.052 1364.65 130.242 1364.65 Q124.432 1364.65 121.353 1360.07 Q118.298 1355.46 118.298 1346.73 Q118.298 1337.98 121.353 1333.4 Q124.432 1328.79 130.242 1328.79 Z" fill="#000000" fill-rule="nonzero" fill-opacity="1" /><path clip-path="url(#clip810)" d="M150.404 1358.1 L155.288 1358.1 L155.288 1363.98 L150.404 1363.98 L150.404 1358.1 Z" fill="#000000" fill-rule="nonzero" fill-opacity="1" /><path clip-path="url(#clip810)" d="M169.501 1360.04 L185.821 1360.04 L185.821 1363.98 L163.876 1363.98 L163.876 1360.04 Q166.538 1357.29 171.122 1352.66 Q175.728 1348.01 176.909 1346.67 Q179.154 1344.14 180.034 1342.41 Q180.936 1340.65 180.936 1338.96 Q180.936 1336.2 178.992 1334.47 Q177.071 1332.73 173.969 1332.73 Q171.77 1332.73 169.316 1333.49 Q166.885 1334.26 164.108 1335.81 L164.108 1331.09 Q166.932 1329.95 169.385 1329.37 Q171.839 1328.79 173.876 1328.79 Q179.247 1328.79 182.441 1331.48 Q185.635 1334.17 185.635 1338.66 Q185.635 1340.79 184.825 1342.71 Q184.038 1344.61 181.932 1347.2 Q181.353 1347.87 178.251 1351.09 Q175.149 1354.28 169.501 1360.04 Z" fill="#000000" fill-rule="nonzero" fill-opacity="1" /><path clip-path="url(#clip810)" d="M128.159 972.546 Q124.548 972.546 122.719 976.111 Q120.913 979.652 120.913 986.782 Q120.913 993.888 122.719 997.453 Q124.548 1000.99 128.159 1000.99 Q131.793 1000.99 133.599 997.453 Q135.427 993.888 135.427 986.782 Q135.427 979.652 133.599 976.111 Q131.793 972.546 128.159 972.546 M128.159 968.842 Q133.969 968.842 137.025 973.449 Q140.103 978.032 140.103 986.782 Q140.103 995.509 137.025 1000.12 Q133.969 1004.7 128.159 1004.7 Q122.349 1004.7 119.27 1000.12 Q116.214 995.509 116.214 986.782 Q116.214 978.032 119.27 973.449 Q122.349 968.842 128.159 968.842 Z" fill="#000000" fill-rule="nonzero" fill-opacity="1" /><path clip-path="url(#clip810)" d="M148.321 998.148 L153.205 998.148 L153.205 1004.03 L148.321 1004.03 L148.321 998.148 Z" fill="#000000" fill-rule="nonzero" fill-opacity="1" /><path clip-path="url(#clip810)" d="M176.237 973.541 L164.432 991.99 L176.237 991.99 L176.237 973.541 M175.01 969.467 L180.89 969.467 L180.89 991.99 L185.821 991.99 L185.821 995.879 L180.89 995.879 L180.89 1004.03 L176.237 1004.03 L176.237 995.879 L160.636 995.879 L160.636 991.365 L175.01 969.467 Z" fill="#000000" fill-rule="nonzero" fill-opacity="1" /><path clip-path="url(#clip810)" d="M128.483 612.593 Q124.872 612.593 123.043 616.158 Q121.238 619.7 121.238 626.829 Q121.238 633.936 123.043 637.5 Q124.872 641.042 128.483 641.042 Q132.117 641.042 133.923 637.5 Q135.751 633.936 135.751 626.829 Q135.751 619.7 133.923 616.158 Q132.117 612.593 128.483 612.593 M128.483 608.89 Q134.293 608.89 137.349 613.496 Q140.427 618.079 140.427 626.829 Q140.427 635.556 137.349 640.163 Q134.293 644.746 128.483 644.746 Q122.673 644.746 119.594 640.163 Q116.539 635.556 116.539 626.829 Q116.539 618.079 119.594 613.496 Q122.673 608.89 128.483 608.89 Z" fill="#000000" fill-rule="nonzero" fill-opacity="1" /><path clip-path="url(#clip810)" d="M148.645 638.195 L153.529 638.195 L153.529 644.075 L148.645 644.075 L148.645 638.195 Z" fill="#000000" fill-rule="nonzero" fill-opacity="1" /><path clip-path="url(#clip810)" d="M174.293 624.931 Q171.145 624.931 169.293 627.084 Q167.464 629.237 167.464 632.987 Q167.464 636.713 169.293 638.889 Q171.145 641.042 174.293 641.042 Q177.441 641.042 179.27 638.889 Q181.122 636.713 181.122 632.987 Q181.122 629.237 179.27 627.084 Q177.441 624.931 174.293 624.931 M183.575 610.278 L183.575 614.538 Q181.816 613.704 180.01 613.265 Q178.228 612.825 176.469 612.825 Q171.839 612.825 169.385 615.95 Q166.955 619.075 166.608 625.394 Q167.973 623.38 170.034 622.315 Q172.094 621.227 174.571 621.227 Q179.779 621.227 182.788 624.399 Q185.821 627.547 185.821 632.987 Q185.821 638.311 182.672 641.528 Q179.524 644.746 174.293 644.746 Q168.297 644.746 165.126 640.163 Q161.955 635.556 161.955 626.829 Q161.955 618.635 165.844 613.774 Q169.733 608.89 176.284 608.89 Q178.043 608.89 179.825 609.237 Q181.631 609.584 183.575 610.278 Z" fill="#000000" fill-rule="nonzero" fill-opacity="1" /><path clip-path="url(#clip810)" d="M128.738 252.641 Q125.126 252.641 123.298 256.205 Q121.492 259.747 121.492 266.877 Q121.492 273.983 123.298 277.548 Q125.126 281.089 128.738 281.089 Q132.372 281.089 134.177 277.548 Q136.006 273.983 136.006 266.877 Q136.006 259.747 134.177 256.205 Q132.372 252.641 128.738 252.641 M128.738 248.937 Q134.548 248.937 137.603 253.543 Q140.682 258.127 140.682 266.877 Q140.682 275.603 137.603 280.21 Q134.548 284.793 128.738 284.793 Q122.927 284.793 119.849 280.21 Q116.793 275.603 116.793 266.877 Q116.793 258.127 119.849 253.543 Q122.927 248.937 128.738 248.937 Z" fill="#000000" fill-rule="nonzero" fill-opacity="1" /><path clip-path="url(#clip810)" d="M148.899 278.242 L153.784 278.242 L153.784 284.122 L148.899 284.122 L148.899 278.242 Z" fill="#000000" fill-rule="nonzero" fill-opacity="1" /><path clip-path="url(#clip810)" d="M173.969 267.71 Q170.635 267.71 168.714 269.492 Q166.816 271.275 166.816 274.4 Q166.816 277.525 168.714 279.307 Q170.635 281.089 173.969 281.089 Q177.302 281.089 179.223 279.307 Q181.145 277.502 181.145 274.4 Q181.145 271.275 179.223 269.492 Q177.325 267.71 173.969 267.71 M169.293 265.719 Q166.284 264.978 164.594 262.918 Q162.927 260.858 162.927 257.895 Q162.927 253.752 165.867 251.344 Q168.83 248.937 173.969 248.937 Q179.131 248.937 182.071 251.344 Q185.01 253.752 185.01 257.895 Q185.01 260.858 183.321 262.918 Q181.654 264.978 178.668 265.719 Q182.047 266.506 183.922 268.798 Q185.821 271.09 185.821 274.4 Q185.821 279.423 182.742 282.108 Q179.686 284.793 173.969 284.793 Q168.251 284.793 165.173 282.108 Q162.117 279.423 162.117 274.4 Q162.117 271.09 164.015 268.798 Q165.913 266.506 169.293 265.719 M167.58 258.335 Q167.58 261.02 169.247 262.525 Q170.936 264.029 173.969 264.029 Q176.978 264.029 178.668 262.525 Q180.381 261.02 180.381 258.335 Q180.381 255.65 178.668 254.145 Q176.978 252.641 173.969 252.641 Q170.936 252.641 169.247 254.145 Q167.58 255.65 167.58 258.335 Z" fill="#000000" fill-rule="nonzero" fill-opacity="1" /><path clip-path="url(#clip810)" d="M14.1184 1126.41 L14.1184 1119.98 L61.6384 1119.98 L61.6384 1126.41 L14.1184 1126.41 Z" fill="#000000" fill-rule="nonzero" fill-opacity="1" /><path clip-path="url(#clip810)" d="M56.2912 1081.06 L75.1974 1081.06 L75.1974 1086.95 L25.9905 1086.95 L25.9905 1081.06 L31.4013 1081.06 Q28.2185 1079.21 26.6907 1076.41 Q25.1311 1073.58 25.1311 1069.66 Q25.1311 1063.17 30.2873 1059.13 Q35.4436 1055.05 43.8463 1055.05 Q52.249 1055.05 57.4052 1059.13 Q62.5615 1063.17 62.5615 1069.66 Q62.5615 1073.58 61.0337 1076.41 Q59.4741 1079.21 56.2912 1081.06 M43.8463 1061.13 Q37.3851 1061.13 33.7248 1063.81 Q30.0327 1066.45 30.0327 1071.1 Q30.0327 1075.74 33.7248 1078.42 Q37.3851 1081.06 43.8463 1081.06 Q50.3075 1081.06 53.9996 1078.42 Q57.6599 1075.74 57.6599 1071.1 Q57.6599 1066.45 53.9996 1063.81 Q50.3075 1061.13 43.8463 1061.13 Z" fill="#000000" fill-rule="nonzero" fill-opacity="1" /><path clip-path="url(#clip810)" d="M31.465 1024.69 Q30.8921 1025.68 30.6375 1026.85 Q30.351 1028 30.351 1029.4 Q30.351 1034.37 33.5975 1037.04 Q36.8122 1039.68 42.8596 1039.68 L61.6384 1039.68 L61.6384 1045.57 L25.9905 1045.57 L25.9905 1039.68 L31.5287 1039.68 Q28.2821 1037.83 26.7225 1034.87 Q25.1311 1031.91 25.1311 1027.68 Q25.1311 1027.08 25.2266 1026.34 Q25.2903 1025.61 25.4494 1024.72 L31.465 1024.69 Z" fill="#000000" fill-rule="nonzero" fill-opacity="1" /><path clip-path="url(#clip810)" d="M42.3504 989.487 L45.2149 989.487 L45.2149 1016.41 Q51.2623 1016.03 54.4452 1012.79 Q57.5962 1009.51 57.5962 1003.68 Q57.5962 1000.31 56.7687 997.158 Q55.9411 993.975 54.2861 990.856 L59.8242 990.856 Q61.161 994.007 61.8612 997.317 Q62.5615 1000.63 62.5615 1004.03 Q62.5615 1012.56 57.5962 1017.56 Q52.631 1022.53 44.1646 1022.53 Q35.4117 1022.53 30.2873 1017.81 Q25.1311 1013.07 25.1311 1005.05 Q25.1311 997.858 29.7781 993.689 Q34.3932 989.487 42.3504 989.487 M40.6316 995.344 Q35.8255 995.407 32.9609 998.049 Q30.0964 1000.66 30.0964 1004.99 Q30.0964 1009.89 32.8654 1012.85 Q35.6345 1015.78 40.6634 1016.22 L40.6316 995.344 Z" fill="#000000" fill-rule="nonzero" fill-opacity="1" /><path clip-path="url(#clip810)" d="M25.9905 984.076 L25.9905 977.87 L55.9093 966.73 L25.9905 955.59 L25.9905 949.383 L61.6384 962.751 L61.6384 970.708 L25.9905 984.076 Z" fill="#000000" fill-rule="nonzero" fill-opacity="1" /><path clip-path="url(#clip810)" d="M43.719 925.098 Q43.719 932.196 45.3422 934.933 Q46.9655 937.67 50.8804 937.67 Q53.9996 937.67 55.8457 935.633 Q57.6599 933.564 57.6599 930.032 Q57.6599 925.162 54.2224 922.234 Q50.7531 919.273 45.0239 919.273 L43.719 919.273 L43.719 925.098 M41.3 913.417 L61.6384 913.417 L61.6384 919.273 L56.2276 919.273 Q59.4741 921.279 61.0337 924.271 Q62.5615 927.262 62.5615 931.591 Q62.5615 937.066 59.5059 940.312 Q56.4186 943.527 51.2623 943.527 Q45.2467 943.527 42.1912 939.516 Q39.1357 935.474 39.1357 927.485 L39.1357 919.273 L38.5628 919.273 Q34.5205 919.273 32.3244 921.947 Q30.0964 924.589 30.0964 929.395 Q30.0964 932.45 30.8284 935.347 Q31.5605 938.243 33.0246 940.917 L27.6137 940.917 Q26.3724 937.702 25.7677 934.678 Q25.1311 931.655 25.1311 928.79 Q25.1311 921.056 29.1415 917.236 Q33.1519 913.417 41.3 913.417 Z" fill="#000000" fill-rule="nonzero" fill-opacity="1" /><path clip-path="url(#clip810)" d="M12.1132 901.354 L12.1132 895.498 L61.6384 895.498 L61.6384 901.354 L12.1132 901.354 Z" fill="#000000" fill-rule="nonzero" fill-opacity="1" /><path clip-path="url(#clip810)" d="M42.3504 852.752 L45.2149 852.752 L45.2149 879.679 Q51.2623 879.297 54.4452 876.05 Q57.5962 872.772 57.5962 866.947 Q57.5962 863.574 56.7687 860.423 Q55.9411 857.24 54.2861 854.12 L59.8242 854.12 Q61.161 857.272 61.8612 860.582 Q62.5615 863.892 62.5615 867.297 Q62.5615 875.828 57.5962 880.825 Q52.631 885.79 44.1646 885.79 Q35.4117 885.79 30.2873 881.079 Q25.1311 876.337 25.1311 868.316 Q25.1311 861.123 29.7781 856.953 Q34.3932 852.752 42.3504 852.752 M40.6316 858.608 Q35.8255 858.672 32.9609 861.314 Q30.0964 863.924 30.0964 868.252 Q30.0964 873.154 32.8654 876.114 Q35.6345 879.042 40.6634 879.488 L40.6316 858.608 Z" fill="#000000" fill-rule="nonzero" fill-opacity="1" /><path clip-path="url(#clip810)" d="M40.1224 813.507 L61.6384 813.507 L61.6384 819.364 L40.3133 819.364 Q35.2526 819.364 32.7381 821.337 Q30.2237 823.31 30.2237 827.257 Q30.2237 832 33.2474 834.737 Q36.2711 837.474 41.491 837.474 L61.6384 837.474 L61.6384 843.362 L25.9905 843.362 L25.9905 837.474 L31.5287 837.474 Q28.314 835.373 26.7225 832.541 Q25.1311 829.676 25.1311 825.952 Q25.1311 819.809 28.9505 816.658 Q32.7381 813.507 40.1224 813.507 Z" fill="#000000" fill-rule="nonzero" fill-opacity="1" /><path clip-path="url(#clip810)" d="M27.3591 776.172 L32.8336 776.172 Q31.465 778.655 30.7966 781.169 Q30.0964 783.652 30.0964 786.198 Q30.0964 791.896 33.7248 795.047 Q37.3214 798.198 43.8463 798.198 Q50.3711 798.198 53.9996 795.047 Q57.5962 791.896 57.5962 786.198 Q57.5962 783.652 56.9278 781.169 Q56.2276 778.655 54.859 776.172 L60.2698 776.172 Q61.4156 778.623 61.9886 781.265 Q62.5615 783.875 62.5615 786.835 Q62.5615 794.888 57.5007 799.63 Q52.44 804.372 43.8463 804.372 Q35.1253 804.372 30.1282 799.598 Q25.1311 794.792 25.1311 786.453 Q25.1311 783.748 25.704 781.169 Q26.2451 778.591 27.3591 776.172 Z" fill="#000000" fill-rule="nonzero" fill-opacity="1" /><path clip-path="url(#clip810)" d="M42.3504 735.496 L45.2149 735.496 L45.2149 762.422 Q51.2623 762.041 54.4452 758.794 Q57.5962 755.516 57.5962 749.691 Q57.5962 746.317 56.7687 743.166 Q55.9411 739.983 54.2861 736.864 L59.8242 736.864 Q61.161 740.015 61.8612 743.325 Q62.5615 746.636 62.5615 750.041 Q62.5615 758.571 57.5962 763.568 Q52.631 768.534 44.1646 768.534 Q35.4117 768.534 30.2873 763.823 Q25.1311 759.08 25.1311 751.06 Q25.1311 743.866 29.7781 739.697 Q34.3932 735.496 42.3504 735.496 M40.6316 741.352 Q35.8255 741.416 32.9609 744.057 Q30.0964 746.667 30.0964 750.996 Q30.0964 755.898 32.8654 758.858 Q35.6345 761.786 40.6634 762.232 L40.6316 741.352 Z" fill="#000000" fill-rule="nonzero" fill-opacity="1" /><path clip-path="url(#clip810)" d="M581.665 14.0809 L581.665 22.0612 Q577.006 19.8332 572.874 18.7395 Q568.742 17.6457 564.894 17.6457 Q558.21 17.6457 554.564 20.2383 Q550.959 22.8309 550.959 27.611 Q550.959 31.6214 553.349 33.6873 Q555.779 35.7128 562.504 36.9686 L567.446 37.9813 Q576.601 39.7232 580.935 44.1387 Q585.31 48.5136 585.31 55.8863 Q585.31 64.6767 579.396 69.2137 Q573.522 73.7508 562.139 73.7508 Q557.845 73.7508 552.984 72.7785 Q548.164 71.8063 542.978 69.9024 L542.978 61.4765 Q547.961 64.2716 552.741 65.6895 Q557.521 67.1073 562.139 67.1073 Q569.147 67.1073 572.955 64.3527 Q576.763 61.598 576.763 56.4939 Q576.763 52.0379 574.008 49.5264 Q571.294 47.0148 565.056 45.759 L560.073 44.7868 Q550.918 42.9639 546.827 39.075 Q542.735 35.1862 542.735 28.2591 Q542.735 20.2383 548.366 15.6203 Q554.037 11.0023 563.962 11.0023 Q568.216 11.0023 572.631 11.7719 Q577.047 12.5416 581.665 14.0809 Z" fill="#000000" fill-rule="nonzero" fill-opacity="1" /><path clip-path="url(#clip810)" d="M598.071 12.096 L606.254 12.096 L606.254 72.576 L598.071 72.576 L598.071 12.096 Z" fill="#000000" fill-rule="nonzero" fill-opacity="1" /><path clip-path="url(#clip810)" d="M658.794 14.0809 L658.794 22.0612 Q654.135 19.8332 650.003 18.7395 Q645.871 17.6457 642.023 17.6457 Q635.339 17.6457 631.693 20.2383 Q628.088 22.8309 628.088 27.611 Q628.088 31.6214 630.478 33.6873 Q632.909 35.7128 639.633 36.9686 L644.575 37.9813 Q653.73 39.7232 658.065 44.1387 Q662.44 48.5136 662.44 55.8863 Q662.44 64.6767 656.525 69.2137 Q650.651 73.7508 639.268 73.7508 Q634.974 73.7508 630.113 72.7785 Q625.293 71.8063 620.108 69.9024 L620.108 61.4765 Q625.09 64.2716 629.87 65.6895 Q634.65 67.1073 639.268 67.1073 Q646.277 67.1073 650.084 64.3527 Q653.892 61.598 653.892 56.4939 Q653.892 52.0379 651.138 49.5264 Q648.423 47.0148 642.185 45.759 L637.202 44.7868 Q628.047 42.9639 623.956 39.075 Q619.865 35.1862 619.865 28.2591 Q619.865 20.2383 625.495 15.6203 Q631.167 11.0023 641.091 11.0023 Q645.345 11.0023 649.76 11.7719 Q654.176 12.5416 658.794 14.0809 Z" fill="#000000" fill-rule="nonzero" fill-opacity="1" /><path clip-path="url(#clip810)" d="M718.828 32.4315 Q712.833 32.4315 709.349 37.1306 Q705.865 41.7891 705.865 49.9314 Q705.865 58.0738 709.309 62.7728 Q712.792 67.4314 718.828 67.4314 Q724.783 67.4314 728.267 62.7323 Q731.751 58.0333 731.751 49.9314 Q731.751 41.8701 728.267 37.1711 Q724.783 32.4315 718.828 32.4315 M718.828 26.1121 Q728.55 26.1121 734.1 32.4315 Q739.65 38.7509 739.65 49.9314 Q739.65 61.0714 734.1 67.4314 Q728.55 73.7508 718.828 73.7508 Q709.066 73.7508 703.516 67.4314 Q698.007 61.0714 698.007 49.9314 Q698.007 38.7509 703.516 32.4315 Q709.066 26.1121 718.828 26.1121 Z" fill="#000000" fill-rule="nonzero" fill-opacity="1" /><path clip-path="url(#clip810)" d="M789.719 45.1919 L789.719 72.576 L782.265 72.576 L782.265 45.4349 Q782.265 38.994 779.754 35.7938 Q777.242 32.5936 772.219 32.5936 Q766.183 32.5936 762.7 36.4419 Q759.216 40.2903 759.216 46.9338 L759.216 72.576 L751.722 72.576 L751.722 27.2059 L759.216 27.2059 L759.216 34.2544 Q761.889 30.163 765.495 28.1376 Q769.14 26.1121 773.88 26.1121 Q781.698 26.1121 785.709 30.9732 Q789.719 35.7938 789.719 45.1919 Z" fill="#000000" fill-rule="nonzero" fill-opacity="1" /><path clip-path="url(#clip810)" d="M856.802 39.9662 Q862.676 41.222 865.957 45.1919 Q869.279 49.1618 869.279 54.9951 Q869.279 63.9476 863.121 68.8492 Q856.964 73.7508 845.622 73.7508 Q841.814 73.7508 837.763 72.9811 Q833.752 72.2519 829.458 70.7531 L829.458 62.8538 Q832.861 64.8388 836.912 65.8515 Q840.963 66.8642 845.378 66.8642 Q853.075 66.8642 857.086 63.826 Q861.136 60.7879 861.136 54.9951 Q861.136 49.6479 857.369 46.6502 Q853.642 43.612 846.958 43.612 L839.91 43.612 L839.91 36.8875 L847.282 36.8875 Q853.318 36.8875 856.518 34.4975 Q859.719 32.067 859.719 27.5299 Q859.719 22.8714 856.397 20.4004 Q853.116 17.8888 846.958 17.8888 Q843.596 17.8888 839.748 18.618 Q835.899 19.3471 831.281 20.8865 L831.281 13.5948 Q835.94 12.2985 839.991 11.6504 Q844.082 11.0023 847.687 11.0023 Q857.005 11.0023 862.433 15.2557 Q867.861 19.4686 867.861 26.6793 Q867.861 31.7024 864.985 35.1862 Q862.109 38.6294 856.802 39.9662 Z" fill="#000000" fill-rule="nonzero" fill-opacity="1" /><path clip-path="url(#clip810)" d="M879.973 46.5287 L901.808 46.5287 L901.808 53.1722 L879.973 53.1722 L879.973 46.5287 Z" fill="#000000" fill-rule="nonzero" fill-opacity="1" /><path clip-path="url(#clip810)" d="M939.967 34.1734 Q938.711 33.4443 937.212 33.1202 Q935.754 32.7556 933.972 32.7556 Q927.652 32.7556 924.25 36.8875 Q920.887 40.9789 920.887 48.6757 L920.887 72.576 L913.393 72.576 L913.393 27.2059 L920.887 27.2059 L920.887 34.2544 Q923.237 30.1225 927.004 28.1376 Q930.772 26.1121 936.159 26.1121 Q936.929 26.1121 937.861 26.2337 Q938.792 26.3147 939.927 26.5172 L939.967 34.1734 Z" fill="#000000" fill-rule="nonzero" fill-opacity="1" /><path clip-path="url(#clip810)" d="M984.77 48.0275 L984.77 51.6733 L950.499 51.6733 Q950.986 59.3701 955.117 63.421 Q959.29 67.4314 966.703 67.4314 Q970.997 67.4314 975.007 66.3781 Q979.058 65.3249 983.028 63.2184 L983.028 70.267 Q979.018 71.9684 974.805 72.8596 Q970.592 73.7508 966.257 73.7508 Q955.401 73.7508 949.041 67.4314 Q942.722 61.1119 942.722 50.3365 Q942.722 39.1965 948.717 32.6746 Q954.753 26.1121 964.961 26.1121 Q974.116 26.1121 979.423 32.0264 Q984.77 37.9003 984.77 48.0275 M977.316 45.84 Q977.235 39.7232 973.873 36.0774 Q970.551 32.4315 965.042 32.4315 Q958.804 32.4315 955.036 35.9558 Q951.31 39.4801 950.742 45.8805 L977.316 45.84 Z" fill="#000000" fill-rule="nonzero" fill-opacity="1" /><path clip-path="url(#clip810)" d="M1026.86 49.3643 Q1026.86 41.2625 1023.5 36.8065 Q1020.17 32.3505 1014.14 32.3505 Q1008.14 32.3505 1004.78 36.8065 Q1001.46 41.2625 1001.46 49.3643 Q1001.46 57.4256 1004.78 61.8816 Q1008.14 66.3376 1014.14 66.3376 Q1020.17 66.3376 1023.5 61.8816 Q1026.86 57.4256 1026.86 49.3643 M1034.31 66.9452 Q1034.31 78.5308 1029.17 84.1616 Q1024.02 89.8329 1013.41 89.8329 Q1009.48 89.8329 1006 89.2252 Q1002.51 88.6581 999.232 87.4428 L999.232 80.1917 Q1002.51 81.9741 1005.71 82.8248 Q1008.91 83.6755 1012.24 83.6755 Q1019.57 83.6755 1023.21 79.8271 Q1026.86 76.0193 1026.86 68.282 L1026.86 64.5957 Q1024.55 68.6061 1020.94 70.5911 Q1017.34 72.576 1012.32 72.576 Q1003.97 72.576 998.867 66.2161 Q993.763 59.8562 993.763 49.3643 Q993.763 38.832 998.867 32.472 Q1003.97 26.1121 1012.32 26.1121 Q1017.34 26.1121 1020.94 28.0971 Q1024.55 30.082 1026.86 34.0924 L1026.86 27.2059 L1034.31 27.2059 L1034.31 66.9452 Z" fill="#000000" fill-rule="nonzero" fill-opacity="1" /><path clip-path="url(#clip810)" d="M1048.9 54.671 L1048.9 27.2059 L1056.35 27.2059 L1056.35 54.3874 Q1056.35 60.8284 1058.86 64.0691 Q1061.37 67.2693 1066.4 67.2693 Q1072.43 67.2693 1075.92 63.421 Q1079.44 59.5726 1079.44 52.9291 L1079.44 27.2059 L1086.89 27.2059 L1086.89 72.576 L1079.44 72.576 L1079.44 65.6084 Q1076.73 69.7404 1073.12 71.7658 Q1069.56 73.7508 1064.82 73.7508 Q1057 73.7508 1052.95 68.8897 Q1048.9 64.0286 1048.9 54.671 M1067.65 26.1121 L1067.65 26.1121 Z" fill="#000000" fill-rule="nonzero" fill-opacity="1" /><path clip-path="url(#clip810)" d="M1102.25 9.54393 L1109.7 9.54393 L1109.7 72.576 L1102.25 72.576 L1102.25 9.54393 Z" fill="#000000" fill-rule="nonzero" fill-opacity="1" /><path clip-path="url(#clip810)" d="M1145.92 49.7694 Q1136.88 49.7694 1133.4 51.8354 Q1129.91 53.9013 1129.91 58.8839 Q1129.91 62.8538 1132.51 65.2034 Q1135.14 67.5124 1139.64 67.5124 Q1145.83 67.5124 1149.56 63.1374 Q1153.33 58.7219 1153.33 51.4303 L1153.33 49.7694 L1145.92 49.7694 M1160.78 46.6907 L1160.78 72.576 L1153.33 72.576 L1153.33 65.6895 Q1150.78 69.8214 1146.97 71.8063 Q1143.16 73.7508 1137.65 73.7508 Q1130.68 73.7508 1126.55 69.8619 Q1122.46 65.9325 1122.46 59.3701 Q1122.46 51.7138 1127.56 47.825 Q1132.71 43.9361 1142.88 43.9361 L1153.33 43.9361 L1153.33 43.2069 Q1153.33 38.0623 1149.93 35.2672 Q1146.56 32.4315 1140.45 32.4315 Q1136.56 32.4315 1132.87 33.3632 Q1129.18 34.295 1125.78 36.1584 L1125.78 29.2718 Q1129.87 27.692 1133.72 26.9223 Q1137.57 26.1121 1141.22 26.1121 Q1151.06 26.1121 1155.92 31.2163 Q1160.78 36.3204 1160.78 46.6907 Z" fill="#000000" fill-rule="nonzero" fill-opacity="1" /><path clip-path="url(#clip810)" d="M1202.43 34.1734 Q1201.17 33.4443 1199.67 33.1202 Q1198.21 32.7556 1196.43 32.7556 Q1190.11 32.7556 1186.71 36.8875 Q1183.35 40.9789 1183.35 48.6757 L1183.35 72.576 L1175.85 72.576 L1175.85 27.2059 L1183.35 27.2059 L1183.35 34.2544 Q1185.69 30.1225 1189.46 28.1376 Q1193.23 26.1121 1198.62 26.1121 Q1199.39 26.1121 1200.32 26.2337 Q1201.25 26.3147 1202.38 26.5172 L1202.43 34.1734 Z" fill="#000000" fill-rule="nonzero" fill-opacity="1" /><path clip-path="url(#clip810)" d="M1274.33 45.1919 L1274.33 72.576 L1266.88 72.576 L1266.88 45.4349 Q1266.88 38.994 1264.36 35.7938 Q1261.85 32.5936 1256.83 32.5936 Q1250.79 32.5936 1247.31 36.4419 Q1243.83 40.2903 1243.83 46.9338 L1243.83 72.576 L1236.33 72.576 L1236.33 27.2059 L1243.83 27.2059 L1243.83 34.2544 Q1246.5 30.163 1250.1 28.1376 Q1253.75 26.1121 1258.49 26.1121 Q1266.31 26.1121 1270.32 30.9732 Q1274.33 35.7938 1274.33 45.1919 Z" fill="#000000" fill-rule="nonzero" fill-opacity="1" /><path clip-path="url(#clip810)" d="M1328 48.0275 L1328 51.6733 L1293.73 51.6733 Q1294.22 59.3701 1298.35 63.421 Q1302.52 67.4314 1309.94 67.4314 Q1314.23 67.4314 1318.24 66.3781 Q1322.29 65.3249 1326.26 63.2184 L1326.26 70.267 Q1322.25 71.9684 1318.04 72.8596 Q1313.83 73.7508 1309.49 73.7508 Q1298.63 73.7508 1292.27 67.4314 Q1285.95 61.1119 1285.95 50.3365 Q1285.95 39.1965 1291.95 32.6746 Q1297.99 26.1121 1308.19 26.1121 Q1317.35 26.1121 1322.66 32.0264 Q1328 37.9003 1328 48.0275 M1320.55 45.84 Q1320.47 39.7232 1317.11 36.0774 Q1313.78 32.4315 1308.28 32.4315 Q1302.04 32.4315 1298.27 35.9558 Q1294.54 39.4801 1293.98 45.8805 L1320.55 45.84 Z" fill="#000000" fill-rule="nonzero" fill-opacity="1" /><path clip-path="url(#clip810)" d="M1347.61 14.324 L1347.61 27.2059 L1362.96 27.2059 L1362.96 32.9987 L1347.61 32.9987 L1347.61 57.6282 Q1347.61 63.1779 1349.11 64.7578 Q1350.65 66.3376 1355.31 66.3376 L1362.96 66.3376 L1362.96 72.576 L1355.31 72.576 Q1346.68 72.576 1343.4 69.3758 Q1340.12 66.1351 1340.12 57.6282 L1340.12 32.9987 L1334.65 32.9987 L1334.65 27.2059 L1340.12 27.2059 L1340.12 14.324 L1347.61 14.324 Z" fill="#000000" fill-rule="nonzero" fill-opacity="1" /><path clip-path="url(#clip810)" d="M1368.43 27.2059 L1375.88 27.2059 L1385.2 62.6108 L1394.48 27.2059 L1403.27 27.2059 L1412.59 62.6108 L1421.86 27.2059 L1429.32 27.2059 L1417.45 72.576 L1408.66 72.576 L1398.89 35.3887 L1389.09 72.576 L1380.3 72.576 L1368.43 27.2059 Z" fill="#000000" fill-rule="nonzero" fill-opacity="1" /><path clip-path="url(#clip810)" d="M1458.2 32.4315 Q1452.2 32.4315 1448.72 37.1306 Q1445.24 41.7891 1445.24 49.9314 Q1445.24 58.0738 1448.68 62.7728 Q1452.16 67.4314 1458.2 67.4314 Q1464.15 67.4314 1467.64 62.7323 Q1471.12 58.0333 1471.12 49.9314 Q1471.12 41.8701 1467.64 37.1711 Q1464.15 32.4315 1458.2 32.4315 M1458.2 26.1121 Q1467.92 26.1121 1473.47 32.4315 Q1479.02 38.7509 1479.02 49.9314 Q1479.02 61.0714 1473.47 67.4314 Q1467.92 73.7508 1458.2 73.7508 Q1448.44 73.7508 1442.89 67.4314 Q1437.38 61.0714 1437.38 49.9314 Q1437.38 38.7509 1442.89 32.4315 Q1448.44 26.1121 1458.2 26.1121 Z" fill="#000000" fill-rule="nonzero" fill-opacity="1" /><path clip-path="url(#clip810)" d="M1517.67 34.1734 Q1516.41 33.4443 1514.91 33.1202 Q1513.45 32.7556 1511.67 32.7556 Q1505.35 32.7556 1501.95 36.8875 Q1498.59 40.9789 1498.59 48.6757 L1498.59 72.576 L1491.09 72.576 L1491.09 27.2059 L1498.59 27.2059 L1498.59 34.2544 Q1500.94 30.1225 1504.7 28.1376 Q1508.47 26.1121 1513.86 26.1121 Q1514.63 26.1121 1515.56 26.2337 Q1516.49 26.3147 1517.63 26.5172 L1517.67 34.1734 Z" fill="#000000" fill-rule="nonzero" fill-opacity="1" /><path clip-path="url(#clip810)" d="M1525.2 9.54393 L1532.7 9.54393 L1532.7 46.7717 L1554.93 27.2059 L1564.45 27.2059 L1540.39 48.4326 L1565.47 72.576 L1555.75 72.576 L1532.7 50.4176 L1532.7 72.576 L1525.2 72.576 L1525.2 9.54393 Z" fill="#000000" fill-rule="nonzero" fill-opacity="1" /><path clip-path="url(#clip810)" d="M1575.43 62.2867 L1583.98 62.2867 L1583.98 69.2543 L1577.34 82.2172 L1572.11 82.2172 L1575.43 69.2543 L1575.43 62.2867 Z" fill="#000000" fill-rule="nonzero" fill-opacity="1" /><path clip-path="url(#clip810)" d="M1648.51 64.3122 Q1649.97 66.2566 1654.34 66.2566 L1657.95 66.2566 L1657.95 72.576 L1653.45 72.576 Q1646.16 72.576 1642.84 68.6871 Q1639.52 64.7172 1639.52 56.1293 L1639.52 34.6595 L1622.5 34.6595 L1622.5 27.2059 L1664.35 27.2059 L1664.35 34.6595 L1647.13 34.6595 L1647.13 56.5749 Q1647.13 62.4487 1648.51 64.3122 Z" fill="#000000" fill-rule="nonzero" fill-opacity="1" /><path clip-path="url(#clip810)" d="M1703.56 34.9026 L1755.5 34.9026 L1755.5 41.7081 L1703.56 41.7081 L1703.56 34.9026 M1703.56 51.4303 L1755.5 51.4303 L1755.5 58.3168 L1703.56 58.3168 L1703.56 51.4303 Z" fill="#000000" fill-rule="nonzero" fill-opacity="1" /><path clip-path="url(#clip810)" d="M1817.03 17.4837 Q1810.71 17.4837 1807.51 23.7221 Q1804.35 29.92 1804.35 42.3968 Q1804.35 54.833 1807.51 61.0714 Q1810.71 67.2693 1817.03 67.2693 Q1823.39 67.2693 1826.55 61.0714 Q1829.75 54.833 1829.75 42.3968 Q1829.75 29.92 1826.55 23.7221 Q1823.39 17.4837 1817.03 17.4837 M1817.03 11.0023 Q1827.2 11.0023 1832.54 19.0636 Q1837.93 27.0843 1837.93 42.3968 Q1837.93 57.6687 1832.54 65.73 Q1827.2 73.7508 1817.03 73.7508 Q1806.86 73.7508 1801.47 65.73 Q1796.13 57.6687 1796.13 42.3968 Q1796.13 27.0843 1801.47 19.0636 Q1806.86 11.0023 1817.03 11.0023 Z" fill="#000000" fill-rule="nonzero" fill-opacity="1" /><path clip-path="url(#clip810)" d="M1852.31 62.2867 L1860.86 62.2867 L1860.86 72.576 L1852.31 72.576 L1852.31 62.2867 Z" fill="#000000" fill-rule="nonzero" fill-opacity="1" /><path clip-path="url(#clip810)" d="M1878.76 12.096 L1910.89 12.096 L1910.89 18.9825 L1886.26 18.9825 L1886.26 33.8088 Q1888.04 33.2012 1889.82 32.9176 Q1891.61 32.5936 1893.39 32.5936 Q1903.52 32.5936 1909.43 38.1433 Q1915.34 43.6931 1915.34 53.1722 Q1915.34 62.9348 1909.27 68.3631 Q1903.19 73.7508 1892.13 73.7508 Q1888.32 73.7508 1884.35 73.1026 Q1880.43 72.4545 1876.21 71.1582 L1876.21 62.9348 Q1879.86 64.9198 1883.75 65.892 Q1887.64 66.8642 1891.97 66.8642 Q1898.98 66.8642 1903.07 63.1779 Q1907.16 59.4916 1907.16 53.1722 Q1907.16 46.8528 1903.07 43.1664 Q1898.98 39.4801 1891.97 39.4801 Q1888.69 39.4801 1885.41 40.2093 Q1882.17 40.9384 1878.76 42.4778 L1878.76 12.096 Z" fill="#000000" fill-rule="nonzero" fill-opacity="1" /><path clip-path="url(#clip810)" d="M1932.32 62.2867 L1940.86 62.2867 L1940.86 69.2543 L1934.22 82.2172 L1929 82.2172 L1932.32 69.2543 L1932.32 62.2867 Z" fill="#000000" fill-rule="nonzero" fill-opacity="1" /><path clip-path="url(#clip810)" d="M1989.96 34.3355 L1999.89 62.3677 L2014.06 27.2059 L2021.96 27.2059 L2003.61 72.576 L2003.61 89.8329 L1996.16 89.8329 L1996.16 72.576 L1984.25 38.7104 Q1982.47 33.6063 1978.62 33.6063 L1976.63 33.6063 L1976.63 27.2059 L1979.47 27.2059 Q1987.45 27.2059 1989.96 34.3355 Z" fill="#000000" fill-rule="nonzero" fill-opacity="1" /><path clip-path="url(#clip810)" d="M2059.6 34.9026 L2111.53 34.9026 L2111.53 41.7081 L2059.6 41.7081 L2059.6 34.9026 M2059.6 51.4303 L2111.53 51.4303 L2111.53 58.3168 L2059.6 58.3168 L2059.6 51.4303 Z" fill="#000000" fill-rule="nonzero" fill-opacity="1" /><path clip-path="url(#clip810)" d="M2173.06 17.4837 Q2166.74 17.4837 2163.54 23.7221 Q2160.38 29.92 2160.38 42.3968 Q2160.38 54.833 2163.54 61.0714 Q2166.74 67.2693 2173.06 67.2693 Q2179.42 67.2693 2182.58 61.0714 Q2185.78 54.833 2185.78 42.3968 Q2185.78 29.92 2182.58 23.7221 Q2179.42 17.4837 2173.06 17.4837 M2173.06 11.0023 Q2183.23 11.0023 2188.58 19.0636 Q2193.96 27.0843 2193.96 42.3968 Q2193.96 57.6687 2188.58 65.73 Q2183.23 73.7508 2173.06 73.7508 Q2162.89 73.7508 2157.51 65.73 Q2152.16 57.6687 2152.16 42.3968 Q2152.16 27.0843 2157.51 19.0636 Q2162.89 11.0023 2173.06 11.0023 Z" fill="#000000" fill-rule="nonzero" fill-opacity="1" /><path clip-path="url(#clip810)" d="M2208.35 62.2867 L2216.89 62.2867 L2216.89 72.576 L2208.35 72.576 L2208.35 62.2867 Z" fill="#000000" fill-rule="nonzero" fill-opacity="1" /><path clip-path="url(#clip810)" d="M2241.77 65.6895 L2270.32 65.6895 L2270.32 72.576 L2231.92 72.576 L2231.92 65.6895 Q2236.58 60.8689 2244.6 52.7671 Q2252.66 44.6248 2254.73 42.2752 Q2258.66 37.8598 2260.2 34.8216 Q2261.78 31.7429 2261.78 28.7857 Q2261.78 23.9651 2258.37 20.927 Q2255.01 17.8888 2249.58 17.8888 Q2245.74 17.8888 2241.44 19.2256 Q2237.19 20.5624 2232.33 23.2765 L2232.33 15.0127 Q2237.27 13.0277 2241.56 12.015 Q2245.86 11.0023 2249.42 11.0023 Q2258.82 11.0023 2264.41 15.7013 Q2270 20.4004 2270 28.2591 Q2270 31.9859 2268.58 35.3482 Q2267.21 38.6699 2263.52 43.2069 Q2262.51 44.3817 2257.08 50.0125 Q2251.65 55.6027 2241.77 65.6895 Z" fill="#000000" fill-rule="nonzero" fill-opacity="1" /><path clip-path="url(#clip810)" d="M2287.58 12.096 L2319.71 12.096 L2319.71 18.9825 L2295.08 18.9825 L2295.08 33.8088 Q2296.86 33.2012 2298.64 32.9176 Q2300.42 32.5936 2302.21 32.5936 Q2312.33 32.5936 2318.25 38.1433 Q2324.16 43.6931 2324.16 53.1722 Q2324.16 62.9348 2318.08 68.3631 Q2312.01 73.7508 2300.95 73.7508 Q2297.14 73.7508 2293.17 73.1026 Q2289.24 72.4545 2285.03 71.1582 L2285.03 62.9348 Q2288.68 64.9198 2292.56 65.892 Q2296.45 66.8642 2300.79 66.8642 Q2307.8 66.8642 2311.89 63.1779 Q2315.98 59.4916 2315.98 53.1722 Q2315.98 46.8528 2311.89 43.1664 Q2307.8 39.4801 2300.79 39.4801 Q2297.51 39.4801 2294.22 40.2093 Q2290.98 40.9384 2287.58 42.4778 L2287.58 12.096 Z" fill="#000000" fill-rule="nonzero" fill-opacity="1" /><path clip-path="url(#clip811)" d="M294.479 1688.65 L322.953 1686.86 L351.427 1681.46 L379.901 1677.86 L408.376 1670.66 L436.85 1656.26 L465.324 1649.06 L493.798 1638.26 L522.273 1625.66 L550.747 1605.87 L579.221 1586.07 L607.695 1557.27 L636.17 1521.28 L664.644 1487.08 L693.118 1445.69 L721.592 1395.29 L750.067 1328.7 L778.541 1262.11 L807.015 1213.52 L835.489 1130.73 L863.963 1047.94 L892.438 984.947 L920.912 869.763 L949.386 776.175 L977.86 716.783 L1006.33 628.594 L1034.81 545.805 L1063.28 504.411 L1091.76 450.418 L1120.23 391.026 L1148.71 349.631 L1177.18 333.433 L1205.65 319.035 L1234.13 302.837 L1262.6 283.04 L1291.08 290.239 L1319.55 279.44 L1348.03 275.841 L1376.5 288.439 L1404.97 283.04 L1433.45 272.241 L1461.92 279.44 L1490.4 274.041 L1518.87 275.841 L1547.35 277.64 L1575.82 283.04 L1604.29 281.24 L1632.77 292.039 L1661.24 265.042 L1689.72 275.841 L1718.19 283.04 L1746.66 281.24 L1775.14 284.839 L1803.61 293.838 L1832.09 274.041 L1860.56 270.441 L1889.04 275.841 L1917.51 275.841 L1945.98 266.842 L1974.46 266.842 L2002.93 274.041 L2031.41 284.839 L2059.88 279.44 L2088.36 274.041 L2116.83 281.24 L2145.3 275.841 L2173.78 275.841 L2202.25 281.24 L2230.73 283.04 L2259.2 292.039 L2287.68 268.642 L2316.15 268.642 L2344.62 270.441 L2373.1 270.441 L2401.57 272.241 L2430.05 281.24 L2458.52 277.64 L2487 277.64 L2515.47 290.239 L2543.94 284.839 L2572.42 275.841 L2572.42 198.451 L2543.94 200.251 L2515.47 194.851 L2487 200.251 L2458.52 191.252 L2430.05 198.451 L2401.57 193.052 L2373.1 189.452 L2344.62 191.252 L2316.15 198.451 L2287.68 194.851 L2259.2 211.049 L2230.73 211.049 L2202.25 198.451 L2173.78 200.251 L2145.3 193.052 L2116.83 198.451 L2088.36 198.451 L2059.88 200.251 L2031.41 207.45 L2002.93 198.451 L1974.46 196.651 L1945.98 198.451 L1917.51 202.05 L1889.04 193.052 L1860.56 196.651 L1832.09 196.651 L1803.61 196.651 L1775.14 173.254 L1746.66 194.851 L1718.19 187.652 L1689.72 191.252 L1661.24 182.253 L1632.77 196.651 L1604.29 198.451 L1575.82 202.05 L1547.35 205.65 L1518.87 196.651 L1490.4 194.851 L1461.92 203.85 L1433.45 202.05 L1404.97 198.451 L1376.5 194.851 L1348.03 198.451 L1319.55 202.05 L1291.08 200.251 L1262.6 200.251 L1234.13 202.05 L1205.65 209.249 L1177.18 193.052 L1148.71 212.849 L1120.23 230.847 L1091.76 238.046 L1063.28 241.645 L1034.81 261.443 L1006.33 279.44 L977.86 302.837 L949.386 344.232 L920.912 392.825 L892.438 446.818 L863.963 515.209 L835.489 587.2 L807.015 653.791 L778.541 754.578 L750.067 835.567 L721.592 947.152 L693.118 1038.94 L664.644 1116.33 L636.17 1199.12 L607.695 1245.91 L579.221 1339.5 L550.747 1380.9 L522.273 1442.09 L493.798 1487.08 L465.324 1530.28 L436.85 1566.27 L408.376 1591.47 L379.901 1620.26 L351.427 1649.06 L322.953 1667.06 L294.479 1688.65  Z" fill="#000000" fill-rule="evenodd" fill-opacity="0.15"/>
<polyline clip-path="url(#clip811)" style="stroke:#000000; stroke-linecap:round; stroke-linejoin:round; stroke-width:8; stroke-opacity:1; fill:none" points="294.479,1688.65 322.953,1677.02 351.427,1665.23 379.901,1651.49 408.376,1633.97 436.85,1613.96 465.324,1589.91 493.798,1563 522.273,1529.02 550.747,1490.23 579.221,1446.44 607.695,1395.41 636.17,1339.14 664.644,1275.43 693.118,1200.5 721.592,1122.63 750.067,1041.94 778.541,957.171 807.015,870.213 835.489,787.783 863.963,707.004 892.438,634.654 920.912,563.113 949.386,499.851 977.86,447.148 1006.33,400.864 1034.81,360.43 1063.28,330.733 1091.76,308.746 1120.23,289.159 1148.71,271.611 1177.18,261.203 1205.65,252.534 1234.13,244.195 1262.6,242.065 1291.08,239.635 1319.55,239.395 1348.03,234.686 1376.5,237.926 1404.97,233.456 1433.45,234.296 1461.92,233.366 1490.4,234.326 1518.87,237.146 1547.35,236.576 1575.82,236.606 1604.29,237.116 1632.77,235.436 1661.24,230.667 1689.72,235.196 1718.19,236.066 1746.66,235.076 1775.14,236.666 1803.61,237.176 1832.09,233.306 1860.56,235.166 1889.04,232.706 1917.51,234.326 1945.98,232.196 1974.46,234.836 2002.93,236.006 2031.41,239.036 2059.88,232.796 2088.36,236.126 2116.83,230.997 2145.3,233.936 2173.78,239.545 2202.25,237.026 2230.73,244.615 2259.2,239.065 2287.68,232.526 2316.15,232.286 2344.62,231.447 2373.1,235.016 2401.57,233.576 2430.05,234.386 2458.52,231.027 2487,238.916 2515.47,237.296 2543.94,237.896 2572.42,238.256 "/>
<polyline clip-path="url(#clip811)" style="stroke:#e26f46; stroke-linecap:round; stroke-linejoin:round; stroke-width:8; stroke-opacity:1; fill:none" stroke-dasharray="32, 20" points="294.479,1688.65 296.515,1687.86 303.12,1685.27 312.878,1681.4 324.425,1676.69 338.294,1670.78 355.065,1663.13 374.541,1653.31 393.004,1642.82 412.754,1630.03 432.435,1615.35 452.472,1598.05 472.438,1578.04 492.366,1554.9 512.102,1528.42 531.621,1498.31 550.865,1464.4 569.82,1426.53 588.472,1384.63 606.829,1338.69 624.91,1288.78 642.747,1235.03 660.395,1177.63 677.933,1116.75 695.496,1052.51 713.344,984.596 732.256,910.811 752,833.207 768.701,768.319 785.21,705.942 800.554,650.383 815.382,599.57 829.556,554.132 843.299,513.337 856.643,477.004 869.703,444.676 882.54,416.024 895.235,390.679 907.851,368.325 920.456,348.655 933.113,331.398 945.883,316.303 958.83,303.144 972.017,291.717 985.51,281.838 999.38,273.34 1013.7,266.072 1028.54,259.897 1044,254.691 1060.15,250.339 1077.11,246.737 1094.97,243.79 1113.85,241.41 1133.9,239.515 1155.25,238.032 1178.06,236.892 1202.52,236.035 1228.8,235.406 1257.08,234.957 1287.56,234.647 1320.44,234.44 1355.92,234.306 1394.3,234.223 1435.97,234.174 1481.44,234.147 1531.41,234.132 1586.85,234.124 1649.25,234.121 1721.2,234.12 1810.5,234.119 1902.88,234.119 2015.17,234.119 2134.36,234.119 2282.52,234.119 2450.05,234.119 2572.42,234.119 "/>
<polyline clip-path="url(#clip811)" style="stroke:#3da44d; stroke-linecap:round; stroke-linejoin:round; stroke-width:8; stroke-opacity:1; fill:none" stroke-dasharray="4, 8" points="294.479,1688.65 296.592,1687.83 301.098,1686.06 306.921,1683.77 313.743,1681.05 322.352,1677.55 332.303,1673.39 342.248,1669.07 353.236,1664.08 364.818,1658.54 377.315,1652.18 390.685,1644.9 405.144,1636.4 420.897,1626.31 438.503,1613.9 459.988,1596.95 478.899,1580.19 499.269,1560.01 519.146,1537.97 539.48,1512.82 559.728,1484.92 580.109,1453.77 600.47,1419.39 620.861,1381.53 641.246,1340.16 661.651,1295.16 682.089,1246.53 702.602,1194.26 723.249,1138.4 744.121,1078.99 765.366,1016 787.256,949.182 810.353,877.554 834.065,804.05 855.973,737.362 877.399,674.353 897.909,616.989 917.823,564.77 937.085,518.045 955.82,476.525 974.061,440.009 991.888,408.116 1009.36,380.461 1026.54,356.62 1043.49,336.181 1060.27,318.744 1066.76,312.702 1069.35,310.394 1080.18,301.346 1091.01,293.231 1103.39,285.005 1116.29,277.522 1130.15,270.589 1144.59,264.439 1159.74,259.021 1175.44,254.358 1191.72,250.393 1208.51,247.077 1225.8,244.338 1243.57,242.103 1261.84,240.299 1280.65,238.856 1300.03,237.713 1320.07,236.815 1340.84,236.117 1362.42,235.58 1384.91,235.172 1408.37,234.866 1432.88,234.641 1458.52,234.477 1485.4,234.359 1513.62,234.277 1543.35,234.221 1574.77,234.183 1608.11,234.158 1643.67,234.142 1681.8,234.132 1722.95,234.126 1767.72,234.122 1816.89,234.121 1871.58,234.12 1933.59,234.119 2006.56,234.119 2103.37,234.119 2200.17,234.119 2319.2,234.119 2446.14,234.119 2572.42,234.119 "/>
<polyline clip-path="url(#clip811)" style="stroke:#c271d2; stroke-linecap:round; stroke-linejoin:round; stroke-width:8; stroke-opacity:1; fill:none" points="294.479,1688.65 296.88,1687.72 302.039,1685.7 308.826,1683.01 316.701,1679.86 326.265,1675.93 336.693,1671.5 348.056,1666.46 360.307,1660.73 373.517,1654.16 387.74,1646.55 403.087,1637.65 419.676,1627.13 437.583,1614.6 456.682,1599.73 476.689,1582.31 497.381,1562.09 518.559,1538.83 540.062,1512.31 561.772,1482.31 583.608,1448.62 605.516,1411.06 605.551,1411 605.902,1410.36 608.319,1405.97 616.175,1391.37 627.327,1369.75 638.479,1347.08 652.225,1317.69 665.971,1286.69 681.893,1248.81 697.815,1208.87 713.737,1166.97 729.659,1123.26 745.581,1077.92 761.504,1031.19 777.426,983.354 793.348,934.724 809.27,885.66 825.192,836.55 841.114,787.798 857.036,739.82 872.958,693.026 888.881,647.808 904.803,604.528 920.725,563.503 936.647,524.998 936.672,524.939 936.927,524.345 938.605,520.447 944.686,506.582 953.584,487.031 963.502,466.299 974.81,444.043 986.118,423.272 999.027,401.371 1011.94,381.372 1024.84,363.222 1037.75,346.851 1037.77,346.826 1037.98,346.578 1039.35,344.94 1045.01,338.4 1053.6,329.053 1063.32,319.315 1074.44,309.216 1085.55,300.145 1098.45,290.807 1111.35,282.639 1125.78,274.745 1140.22,268.02 1154.65,262.32 1169.09,257.512 1183.52,253.472 1199.66,249.733 1215.8,246.684 1231.93,244.207 1248.07,242.201 1266,240.424 1283.94,239.029 1301.87,237.937 1319.81,237.085 1339.94,236.351 1360.08,235.798 1382.46,235.342 1404.84,235.011 1427.22,234.771 1452.29,234.579 1477.36,234.446 1505.36,234.344 1533.36,234.276 1561.36,234.23 1589.36,234.2 1617.36,234.179 1648.48,234.164 1679.59,234.154 1710.71,234.147 1741.83,234.143 1772.95,234.139 1804.07,234.137 1835.19,234.135 1866.3,234.133 1897.42,234.132 1932.1,234.131 1966.77,234.13 2001.45,234.129 2036.12,234.128 2070.8,234.128 2105.47,234.127 2140.15,234.126 2178.73,234.126 2217.31,234.125 2255.89,234.124 2294.48,234.124 2333.06,234.123 2371.64,234.123 2414.63,234.123 2457.62,234.122 2500.61,234.122 2543.6,234.121 2572.42,234.121 "/>
<path clip-path="url(#clip810)" d="M1598.83 1680.57 L2560.27 1680.57 L2560.27 1421.37 L1598.83 1421.37  Z" fill="#ffffff" fill-rule="evenodd" fill-opacity="1"/>
<polyline clip-path="url(#clip810)" style="stroke:#000000; stroke-linecap:round; stroke-linejoin:round; stroke-width:4; stroke-opacity:1; fill:none" points="1598.83,1680.57 2560.27,1680.57 2560.27,1421.37 1598.83,1421.37 1598.83,1680.57 "/>
<polyline clip-path="url(#clip810)" style="stroke:#000000; stroke-linecap:round; stroke-linejoin:round; stroke-width:8; stroke-opacity:1; fill:none" points="1625.66,1473.21 1786.64,1473.21 "/>
<path clip-path="url(#clip810)" d="M1839.02 1485.56 L1839.02 1476.28 L1831.38 1476.28 L1831.38 1472.44 L1843.65 1472.44 L1843.65 1487.28 Q1840.94 1489.2 1837.68 1490.19 Q1834.42 1491.16 1830.71 1491.16 Q1822.61 1491.16 1818.03 1486.44 Q1813.47 1481.7 1813.47 1473.25 Q1813.47 1464.78 1818.03 1460.05 Q1822.61 1455.31 1830.71 1455.31 Q1834.09 1455.31 1837.12 1456.14 Q1840.18 1456.97 1842.75 1458.59 L1842.75 1463.57 Q1840.16 1461.37 1837.24 1460.26 Q1834.32 1459.15 1831.11 1459.15 Q1824.76 1459.15 1821.57 1462.69 Q1818.4 1466.23 1818.4 1473.25 Q1818.4 1480.24 1821.57 1483.78 Q1824.76 1487.32 1831.11 1487.32 Q1833.58 1487.32 1835.53 1486.9 Q1837.47 1486.47 1839.02 1485.56 Z" fill="#000000" fill-rule="nonzero" fill-opacity="1" /><path clip-path="url(#clip810)" d="M1852.01 1464.57 L1856.27 1464.57 L1856.27 1490.49 L1852.01 1490.49 L1852.01 1464.57 M1852.01 1454.47 L1856.27 1454.47 L1856.27 1459.87 L1852.01 1459.87 L1852.01 1454.47 Z" fill="#000000" fill-rule="nonzero" fill-opacity="1" /><path clip-path="url(#clip810)" d="M1865.18 1454.47 L1869.44 1454.47 L1869.44 1490.49 L1865.18 1490.49 L1865.18 1454.47 Z" fill="#000000" fill-rule="nonzero" fill-opacity="1" /><path clip-path="url(#clip810)" d="M1878.35 1454.47 L1882.61 1454.47 L1882.61 1490.49 L1878.35 1490.49 L1878.35 1454.47 Z" fill="#000000" fill-rule="nonzero" fill-opacity="1" /><path clip-path="url(#clip810)" d="M1913.7 1476.47 L1913.7 1478.55 L1894.11 1478.55 Q1894.39 1482.95 1896.75 1485.26 Q1899.14 1487.55 1903.37 1487.55 Q1905.83 1487.55 1908.12 1486.95 Q1910.43 1486.35 1912.7 1485.15 L1912.7 1489.17 Q1910.41 1490.15 1908 1490.65 Q1905.6 1491.16 1903.12 1491.16 Q1896.92 1491.16 1893.28 1487.55 Q1889.67 1483.94 1889.67 1477.78 Q1889.67 1471.42 1893.1 1467.69 Q1896.54 1463.94 1902.38 1463.94 Q1907.61 1463.94 1910.64 1467.32 Q1913.7 1470.68 1913.7 1476.47 M1909.44 1475.22 Q1909.39 1471.72 1907.47 1469.64 Q1905.57 1467.55 1902.42 1467.55 Q1898.86 1467.55 1896.71 1469.57 Q1894.58 1471.58 1894.25 1475.24 L1909.44 1475.22 Z" fill="#000000" fill-rule="nonzero" fill-opacity="1" /><path clip-path="url(#clip810)" d="M1937.22 1465.33 L1937.22 1469.36 Q1935.41 1468.43 1933.47 1467.97 Q1931.52 1467.51 1929.44 1467.51 Q1926.27 1467.51 1924.67 1468.48 Q1923.1 1469.45 1923.1 1471.4 Q1923.1 1472.88 1924.23 1473.73 Q1925.36 1474.57 1928.79 1475.33 L1930.25 1475.65 Q1934.79 1476.63 1936.68 1478.41 Q1938.6 1480.17 1938.6 1483.34 Q1938.6 1486.95 1935.73 1489.06 Q1932.89 1491.16 1927.89 1491.16 Q1925.8 1491.16 1923.54 1490.75 Q1921.29 1490.35 1918.79 1489.54 L1918.79 1485.15 Q1921.15 1486.37 1923.44 1487 Q1925.73 1487.6 1927.98 1487.6 Q1930.99 1487.6 1932.61 1486.58 Q1934.23 1485.54 1934.23 1483.66 Q1934.23 1481.93 1933.05 1481 Q1931.89 1480.08 1927.93 1479.22 L1926.45 1478.87 Q1922.49 1478.04 1920.73 1476.33 Q1918.98 1474.59 1918.98 1471.58 Q1918.98 1467.92 1921.57 1465.93 Q1924.16 1463.94 1928.93 1463.94 Q1931.29 1463.94 1933.37 1464.29 Q1935.46 1464.64 1937.22 1465.33 Z" fill="#000000" fill-rule="nonzero" fill-opacity="1" /><path clip-path="url(#clip810)" d="M1949.51 1486.6 L1949.51 1500.35 L1945.23 1500.35 L1945.23 1464.57 L1949.51 1464.57 L1949.51 1468.5 Q1950.85 1466.19 1952.89 1465.08 Q1954.95 1463.94 1957.79 1463.94 Q1962.52 1463.94 1965.46 1467.69 Q1968.42 1471.44 1968.42 1477.55 Q1968.42 1483.66 1965.46 1487.41 Q1962.52 1491.16 1957.79 1491.16 Q1954.95 1491.16 1952.89 1490.05 Q1950.85 1488.92 1949.51 1486.6 M1964 1477.55 Q1964 1472.85 1962.05 1470.19 Q1960.13 1467.51 1956.75 1467.51 Q1953.37 1467.51 1951.43 1470.19 Q1949.51 1472.85 1949.51 1477.55 Q1949.51 1482.25 1951.43 1484.94 Q1953.37 1487.6 1956.75 1487.6 Q1960.13 1487.6 1962.05 1484.94 Q1964 1482.25 1964 1477.55 Z" fill="#000000" fill-rule="nonzero" fill-opacity="1" /><path clip-path="url(#clip810)" d="M1975.48 1464.57 L1979.74 1464.57 L1979.74 1490.49 L1975.48 1490.49 L1975.48 1464.57 M1975.48 1454.47 L1979.74 1454.47 L1979.74 1459.87 L1975.48 1459.87 L1975.48 1454.47 Z" fill="#000000" fill-rule="nonzero" fill-opacity="1" /><path clip-path="url(#clip810)" d="M2010.83 1476.47 L2010.83 1478.55 L1991.24 1478.55 Q1991.52 1482.95 1993.88 1485.26 Q1996.27 1487.55 2000.5 1487.55 Q2002.96 1487.55 2005.25 1486.95 Q2007.56 1486.35 2009.83 1485.15 L2009.83 1489.17 Q2007.54 1490.15 2005.13 1490.65 Q2002.72 1491.16 2000.25 1491.16 Q1994.04 1491.16 1990.41 1487.55 Q1986.8 1483.94 1986.8 1477.78 Q1986.8 1471.42 1990.22 1467.69 Q1993.67 1463.94 1999.51 1463.94 Q2004.74 1463.94 2007.77 1467.32 Q2010.83 1470.68 2010.83 1476.47 M2006.57 1475.22 Q2006.52 1471.72 2004.6 1469.64 Q2002.7 1467.55 1999.55 1467.55 Q1995.99 1467.55 1993.84 1469.57 Q1991.71 1471.58 1991.38 1475.24 L2006.57 1475.22 Z" fill="#000000" fill-rule="nonzero" fill-opacity="1" /><path clip-path="url(#clip810)" d="M2053.79 1457.07 L2053.79 1461.63 Q2051.13 1460.35 2048.77 1459.73 Q2046.41 1459.1 2044.21 1459.1 Q2040.39 1459.1 2038.3 1460.59 Q2036.24 1462.07 2036.24 1464.8 Q2036.24 1467.09 2037.61 1468.27 Q2039 1469.43 2042.84 1470.15 L2045.66 1470.72 Q2050.9 1471.72 2053.37 1474.24 Q2055.87 1476.74 2055.87 1480.96 Q2055.87 1485.98 2052.49 1488.57 Q2049.14 1491.16 2042.63 1491.16 Q2040.18 1491.16 2037.4 1490.61 Q2034.65 1490.05 2031.68 1488.97 L2031.68 1484.15 Q2034.53 1485.75 2037.26 1486.56 Q2039.99 1487.37 2042.63 1487.37 Q2046.64 1487.37 2048.81 1485.79 Q2050.99 1484.22 2050.99 1481.3 Q2050.99 1478.76 2049.41 1477.32 Q2047.86 1475.89 2044.3 1475.17 L2041.45 1474.61 Q2036.22 1473.57 2033.88 1471.35 Q2031.54 1469.13 2031.54 1465.17 Q2031.54 1460.59 2034.76 1457.95 Q2038 1455.31 2043.67 1455.31 Q2046.1 1455.31 2048.63 1455.75 Q2051.15 1456.19 2053.79 1457.07 Z" fill="#000000" fill-rule="nonzero" fill-opacity="1" /><path clip-path="url(#clip810)" d="M2083.88 1457.07 L2083.88 1461.63 Q2081.22 1460.35 2078.86 1459.73 Q2076.5 1459.1 2074.3 1459.1 Q2070.48 1459.1 2068.4 1460.59 Q2066.34 1462.07 2066.34 1464.8 Q2066.34 1467.09 2067.7 1468.27 Q2069.09 1469.43 2072.93 1470.15 L2075.76 1470.72 Q2080.99 1471.72 2083.47 1474.24 Q2085.97 1476.74 2085.97 1480.96 Q2085.97 1485.98 2082.59 1488.57 Q2079.23 1491.16 2072.72 1491.16 Q2070.27 1491.16 2067.49 1490.61 Q2064.74 1490.05 2061.78 1488.97 L2061.78 1484.15 Q2064.62 1485.75 2067.35 1486.56 Q2070.09 1487.37 2072.72 1487.37 Q2076.73 1487.37 2078.91 1485.79 Q2081.08 1484.22 2081.08 1481.3 Q2081.08 1478.76 2079.51 1477.32 Q2077.96 1475.89 2074.39 1475.17 L2071.54 1474.61 Q2066.31 1473.57 2063.97 1471.35 Q2061.64 1469.13 2061.64 1465.17 Q2061.64 1460.59 2064.85 1457.95 Q2068.09 1455.31 2073.77 1455.31 Q2076.2 1455.31 2078.72 1455.75 Q2081.24 1456.19 2083.88 1457.07 Z" fill="#000000" fill-rule="nonzero" fill-opacity="1" /><path clip-path="url(#clip810)" d="M2105.69 1460.54 L2099.34 1477.74 L2112.05 1477.74 L2105.69 1460.54 M2103.05 1455.93 L2108.35 1455.93 L2121.52 1490.49 L2116.66 1490.49 L2113.51 1481.63 L2097.93 1481.63 L2094.78 1490.49 L2089.85 1490.49 L2103.05 1455.93 Z" fill="#000000" fill-rule="nonzero" fill-opacity="1" /><path clip-path="url(#clip810)" d="M2151.68 1454.52 Q2148.58 1459.84 2147.08 1465.05 Q2145.57 1470.26 2145.57 1475.61 Q2145.57 1480.96 2147.08 1486.21 Q2148.6 1491.44 2151.68 1496.74 L2147.98 1496.74 Q2144.51 1491.3 2142.77 1486.05 Q2141.06 1480.79 2141.06 1475.61 Q2141.06 1470.45 2142.77 1465.22 Q2144.48 1459.98 2147.98 1454.52 L2151.68 1454.52 Z" fill="#000000" fill-rule="nonzero" fill-opacity="1" /><path clip-path="url(#clip810)" d="M2180.13 1469.54 Q2181.73 1466.67 2183.95 1465.31 Q2186.17 1463.94 2189.18 1463.94 Q2193.23 1463.94 2195.43 1466.79 Q2197.63 1469.61 2197.63 1474.84 L2197.63 1490.49 L2193.35 1490.49 L2193.35 1474.98 Q2193.35 1471.26 2192.03 1469.45 Q2190.71 1467.65 2188 1467.65 Q2184.69 1467.65 2182.77 1469.84 Q2180.85 1472.04 2180.85 1475.84 L2180.85 1490.49 L2176.57 1490.49 L2176.57 1474.98 Q2176.57 1471.23 2175.25 1469.45 Q2173.93 1467.65 2171.17 1467.65 Q2167.91 1467.65 2165.99 1469.87 Q2164.07 1472.07 2164.07 1475.84 L2164.07 1490.49 L2159.78 1490.49 L2159.78 1464.57 L2164.07 1464.57 L2164.07 1468.59 Q2165.52 1466.21 2167.56 1465.08 Q2169.6 1463.94 2172.4 1463.94 Q2175.22 1463.94 2177.19 1465.38 Q2179.18 1466.81 2180.13 1469.54 Z" fill="#000000" fill-rule="nonzero" fill-opacity="1" /><path clip-path="url(#clip810)" d="M2228.3 1476.47 L2228.3 1478.55 L2208.72 1478.55 Q2209 1482.95 2211.36 1485.26 Q2213.74 1487.55 2217.98 1487.55 Q2220.43 1487.55 2222.72 1486.95 Q2225.04 1486.35 2227.31 1485.15 L2227.31 1489.17 Q2225.02 1490.15 2222.61 1490.65 Q2220.2 1491.16 2217.72 1491.16 Q2211.52 1491.16 2207.89 1487.55 Q2204.27 1483.94 2204.27 1477.78 Q2204.27 1471.42 2207.7 1467.69 Q2211.15 1463.94 2216.98 1463.94 Q2222.21 1463.94 2225.25 1467.32 Q2228.3 1470.68 2228.3 1476.47 M2224.04 1475.22 Q2224 1471.72 2222.08 1469.64 Q2220.18 1467.55 2217.03 1467.55 Q2213.46 1467.55 2211.31 1469.57 Q2209.18 1471.58 2208.86 1475.24 L2224.04 1475.22 Z" fill="#000000" fill-rule="nonzero" fill-opacity="1" /><path clip-path="url(#clip810)" d="M2247.08 1477.46 Q2241.91 1477.46 2239.92 1478.64 Q2237.93 1479.82 2237.93 1482.67 Q2237.93 1484.94 2239.41 1486.28 Q2240.92 1487.6 2243.49 1487.6 Q2247.03 1487.6 2249.16 1485.1 Q2251.31 1482.58 2251.31 1478.41 L2251.31 1477.46 L2247.08 1477.46 M2255.57 1475.7 L2255.57 1490.49 L2251.31 1490.49 L2251.31 1486.56 Q2249.85 1488.92 2247.68 1490.05 Q2245.5 1491.16 2242.35 1491.16 Q2238.37 1491.16 2236.01 1488.94 Q2233.67 1486.7 2233.67 1482.95 Q2233.67 1478.57 2236.59 1476.35 Q2239.53 1474.13 2245.34 1474.13 L2251.31 1474.13 L2251.31 1473.71 Q2251.31 1470.77 2249.37 1469.17 Q2247.45 1467.55 2243.95 1467.55 Q2241.73 1467.55 2239.62 1468.09 Q2237.52 1468.62 2235.57 1469.68 L2235.57 1465.75 Q2237.91 1464.84 2240.11 1464.41 Q2242.31 1463.94 2244.39 1463.94 Q2250.02 1463.94 2252.79 1466.86 Q2255.57 1469.78 2255.57 1475.7 Z" fill="#000000" fill-rule="nonzero" fill-opacity="1" /><path clip-path="url(#clip810)" d="M2285.89 1474.84 L2285.89 1490.49 L2281.64 1490.49 L2281.64 1474.98 Q2281.64 1471.3 2280.2 1469.47 Q2278.77 1467.65 2275.89 1467.65 Q2272.45 1467.65 2270.45 1469.84 Q2268.46 1472.04 2268.46 1475.84 L2268.46 1490.49 L2264.18 1490.49 L2264.18 1464.57 L2268.46 1464.57 L2268.46 1468.59 Q2269.99 1466.26 2272.05 1465.1 Q2274.14 1463.94 2276.84 1463.94 Q2281.31 1463.94 2283.6 1466.72 Q2285.89 1469.47 2285.89 1474.84 Z" fill="#000000" fill-rule="nonzero" fill-opacity="1" /><path clip-path="url(#clip810)" d="M2326.8 1460.77 L2326.8 1469.73 L2339.69 1469.73 L2339.69 1473.66 L2326.8 1473.66 L2326.8 1482.62 L2322.91 1482.62 L2322.91 1473.66 L2310.01 1473.66 L2310.01 1469.73 L2322.91 1469.73 L2322.91 1460.77 L2326.8 1460.77 M2310.01 1486.56 L2339.69 1486.56 L2339.69 1490.49 L2310.01 1490.49 L2310.01 1486.56 Z" fill="#000000" fill-rule="nonzero" fill-opacity="1" /><path clip-path="url(#clip810)" d="M2364.9 1455.93 L2383.26 1455.93 L2383.26 1459.87 L2369.18 1459.87 L2369.18 1468.34 Q2370.2 1467.99 2371.22 1467.83 Q2372.24 1467.65 2373.26 1467.65 Q2379.04 1467.65 2382.42 1470.82 Q2385.8 1473.99 2385.8 1479.4 Q2385.8 1484.98 2382.33 1488.09 Q2378.86 1491.16 2372.54 1491.16 Q2370.36 1491.16 2368.09 1490.79 Q2365.85 1490.42 2363.44 1489.68 L2363.44 1484.98 Q2365.52 1486.12 2367.75 1486.67 Q2369.97 1487.23 2372.45 1487.23 Q2376.45 1487.23 2378.79 1485.12 Q2381.13 1483.02 2381.13 1479.4 Q2381.13 1475.79 2378.79 1473.69 Q2376.45 1471.58 2372.45 1471.58 Q2370.57 1471.58 2368.7 1472 Q2366.84 1472.41 2364.9 1473.29 L2364.9 1455.93 Z" fill="#000000" fill-rule="nonzero" fill-opacity="1" /><path clip-path="url(#clip810)" d="M2392.26 1475.84 L2411.33 1475.84 L2411.33 1479.17 L2392.26 1479.17 L2392.26 1475.84 Z" fill="#000000" fill-rule="nonzero" fill-opacity="1" /><path clip-path="url(#clip810)" d="M2418.86 1489.78 L2418.86 1485.52 Q2420.62 1486.35 2422.42 1486.79 Q2424.23 1487.23 2425.96 1487.23 Q2430.59 1487.23 2433.02 1484.13 Q2435.48 1481 2435.82 1474.66 Q2434.48 1476.65 2432.42 1477.72 Q2430.36 1478.78 2427.86 1478.78 Q2422.68 1478.78 2419.64 1475.65 Q2416.63 1472.51 2416.63 1467.07 Q2416.63 1461.74 2419.78 1458.53 Q2422.93 1455.31 2428.16 1455.31 Q2434.16 1455.31 2437.31 1459.91 Q2440.48 1464.5 2440.48 1473.25 Q2440.48 1481.42 2436.59 1486.3 Q2432.72 1491.16 2426.17 1491.16 Q2424.41 1491.16 2422.61 1490.82 Q2420.8 1490.47 2418.86 1489.78 M2428.16 1475.12 Q2431.31 1475.12 2433.14 1472.97 Q2434.99 1470.82 2434.99 1467.07 Q2434.99 1463.34 2433.14 1461.19 Q2431.31 1459.01 2428.16 1459.01 Q2425.01 1459.01 2423.16 1461.19 Q2421.33 1463.34 2421.33 1467.07 Q2421.33 1470.82 2423.16 1472.97 Q2425.01 1475.12 2428.16 1475.12 Z" fill="#000000" fill-rule="nonzero" fill-opacity="1" /><path clip-path="url(#clip810)" d="M2448.93 1455.93 L2467.28 1455.93 L2467.28 1459.87 L2453.21 1459.87 L2453.21 1468.34 Q2454.23 1467.99 2455.25 1467.83 Q2456.26 1467.65 2457.28 1467.65 Q2463.07 1467.65 2466.45 1470.82 Q2469.83 1473.99 2469.83 1479.4 Q2469.83 1484.98 2466.36 1488.09 Q2462.88 1491.16 2456.57 1491.16 Q2454.39 1491.16 2452.12 1490.79 Q2449.88 1490.42 2447.47 1489.68 L2447.47 1484.98 Q2449.55 1486.12 2451.77 1486.67 Q2454 1487.23 2456.47 1487.23 Q2460.48 1487.23 2462.82 1485.12 Q2465.15 1483.02 2465.15 1479.4 Q2465.15 1475.79 2462.82 1473.69 Q2460.48 1471.58 2456.47 1471.58 Q2454.6 1471.58 2452.72 1472 Q2450.87 1472.41 2448.93 1473.29 L2448.93 1455.93 Z" fill="#000000" fill-rule="nonzero" fill-opacity="1" /><path clip-path="url(#clip810)" d="M2508.44 1475.28 Q2506.43 1475.28 2505.27 1477 Q2504.13 1478.71 2504.13 1481.77 Q2504.13 1484.78 2505.27 1486.51 Q2506.43 1488.22 2508.44 1488.22 Q2510.41 1488.22 2511.54 1486.51 Q2512.7 1484.78 2512.7 1481.77 Q2512.7 1478.73 2511.54 1477.02 Q2510.41 1475.28 2508.44 1475.28 M2508.44 1472.34 Q2512.1 1472.34 2514.25 1474.89 Q2516.4 1477.44 2516.4 1481.77 Q2516.4 1486.09 2514.23 1488.64 Q2512.07 1491.16 2508.44 1491.16 Q2504.74 1491.16 2502.58 1488.64 Q2500.43 1486.09 2500.43 1481.77 Q2500.43 1477.41 2502.58 1474.89 Q2504.76 1472.34 2508.44 1472.34 M2484.55 1458.25 Q2482.56 1458.25 2481.4 1459.98 Q2480.27 1461.7 2480.27 1464.71 Q2480.27 1467.76 2481.4 1469.47 Q2482.54 1471.19 2484.55 1471.19 Q2486.56 1471.19 2487.7 1469.47 Q2488.86 1467.76 2488.86 1464.71 Q2488.86 1461.72 2487.7 1459.98 Q2486.54 1458.25 2484.55 1458.25 M2505.45 1455.31 L2509.16 1455.31 L2487.54 1491.16 L2483.83 1491.16 L2505.45 1455.31 M2484.55 1455.31 Q2488.21 1455.31 2490.38 1457.85 Q2492.56 1460.38 2492.56 1464.71 Q2492.56 1469.08 2490.38 1471.6 Q2488.23 1474.13 2484.55 1474.13 Q2480.87 1474.13 2478.72 1471.6 Q2476.59 1469.06 2476.59 1464.71 Q2476.59 1460.4 2478.74 1457.85 Q2480.89 1455.31 2484.55 1455.31 Z" fill="#000000" fill-rule="nonzero" fill-opacity="1" /><path clip-path="url(#clip810)" d="M2522.81 1454.52 L2526.52 1454.52 Q2529.99 1459.98 2531.7 1465.22 Q2533.44 1470.45 2533.44 1475.61 Q2533.44 1480.79 2531.7 1486.05 Q2529.99 1491.3 2526.52 1496.74 L2522.81 1496.74 Q2525.89 1491.44 2527.4 1486.21 Q2528.93 1480.96 2528.93 1475.61 Q2528.93 1470.26 2527.4 1465.05 Q2525.89 1459.84 2522.81 1454.52 Z" fill="#000000" fill-rule="nonzero" fill-opacity="1" /><polyline clip-path="url(#clip810)" style="stroke:#e26f46; stroke-linecap:round; stroke-linejoin:round; stroke-width:8; stroke-opacity:1; fill:none" stroke-dasharray="32, 20" points="1625.66,1525.05 1786.64,1525.05 "/>
<path clip-path="url(#clip810)" d="M1835.71 1508.91 L1835.71 1513.47 Q1833.05 1512.19 1830.69 1511.57 Q1828.33 1510.94 1826.13 1510.94 Q1822.31 1510.94 1820.23 1512.43 Q1818.17 1513.91 1818.17 1516.64 Q1818.17 1518.93 1819.53 1520.11 Q1820.92 1521.27 1824.76 1521.99 L1827.59 1522.56 Q1832.82 1523.56 1835.3 1526.08 Q1837.8 1528.58 1837.8 1532.8 Q1837.8 1537.82 1834.42 1540.41 Q1831.06 1543 1824.55 1543 Q1822.1 1543 1819.32 1542.45 Q1816.57 1541.89 1813.61 1540.81 L1813.61 1535.99 Q1816.45 1537.59 1819.18 1538.4 Q1821.92 1539.21 1824.55 1539.21 Q1828.56 1539.21 1830.74 1537.63 Q1832.91 1536.06 1832.91 1533.14 Q1832.91 1530.6 1831.34 1529.16 Q1829.79 1527.73 1826.22 1527.01 L1823.37 1526.45 Q1818.14 1525.41 1815.8 1523.19 Q1813.47 1520.97 1813.47 1517.01 Q1813.47 1512.43 1816.68 1509.79 Q1819.92 1507.15 1825.6 1507.15 Q1828.03 1507.15 1830.55 1507.59 Q1833.07 1508.03 1835.71 1508.91 Z" fill="#000000" fill-rule="nonzero" fill-opacity="1" /><path clip-path="url(#clip810)" d="M1849.11 1509.05 L1849.11 1516.41 L1857.89 1516.41 L1857.89 1519.72 L1849.11 1519.72 L1849.11 1533.79 Q1849.11 1536.96 1849.97 1537.87 Q1850.85 1538.77 1853.51 1538.77 L1857.89 1538.77 L1857.89 1542.33 L1853.51 1542.33 Q1848.58 1542.33 1846.71 1540.5 Q1844.83 1538.65 1844.83 1533.79 L1844.83 1519.72 L1841.71 1519.72 L1841.71 1516.41 L1844.83 1516.41 L1844.83 1509.05 L1849.11 1509.05 Z" fill="#000000" fill-rule="nonzero" fill-opacity="1" /><path clip-path="url(#clip810)" d="M1875.27 1529.3 Q1870.11 1529.3 1868.12 1530.48 Q1866.13 1531.66 1866.13 1534.51 Q1866.13 1536.78 1867.61 1538.12 Q1869.11 1539.44 1871.68 1539.44 Q1875.23 1539.44 1877.36 1536.94 Q1879.51 1534.42 1879.51 1530.25 L1879.51 1529.3 L1875.27 1529.3 M1883.77 1527.54 L1883.77 1542.33 L1879.51 1542.33 L1879.51 1538.4 Q1878.05 1540.76 1875.87 1541.89 Q1873.7 1543 1870.55 1543 Q1866.57 1543 1864.21 1540.78 Q1861.87 1538.54 1861.87 1534.79 Q1861.87 1530.41 1864.79 1528.19 Q1867.73 1525.97 1873.54 1525.97 L1879.51 1525.97 L1879.51 1525.55 Q1879.51 1522.61 1877.56 1521.01 Q1875.64 1519.39 1872.15 1519.39 Q1869.92 1519.39 1867.82 1519.93 Q1865.71 1520.46 1863.77 1521.52 L1863.77 1517.59 Q1866.11 1516.68 1868.3 1516.25 Q1870.5 1515.78 1872.59 1515.78 Q1878.21 1515.78 1880.99 1518.7 Q1883.77 1521.62 1883.77 1527.54 Z" fill="#000000" fill-rule="nonzero" fill-opacity="1" /><path clip-path="url(#clip810)" d="M1914.09 1526.68 L1914.09 1542.33 L1909.83 1542.33 L1909.83 1526.82 Q1909.83 1523.14 1908.4 1521.31 Q1906.96 1519.49 1904.09 1519.49 Q1900.64 1519.49 1898.65 1521.68 Q1896.66 1523.88 1896.66 1527.68 L1896.66 1542.33 L1892.38 1542.33 L1892.38 1516.41 L1896.66 1516.41 L1896.66 1520.43 Q1898.19 1518.1 1900.25 1516.94 Q1902.33 1515.78 1905.04 1515.78 Q1909.51 1515.78 1911.8 1518.56 Q1914.09 1521.31 1914.09 1526.68 Z" fill="#000000" fill-rule="nonzero" fill-opacity="1" /><path clip-path="url(#clip810)" d="M1939.65 1520.34 L1939.65 1506.31 L1943.91 1506.31 L1943.91 1542.33 L1939.65 1542.33 L1939.65 1538.44 Q1938.3 1540.76 1936.24 1541.89 Q1934.21 1543 1931.34 1543 Q1926.64 1543 1923.67 1539.25 Q1920.73 1535.5 1920.73 1529.39 Q1920.73 1523.28 1923.67 1519.53 Q1926.64 1515.78 1931.34 1515.78 Q1934.21 1515.78 1936.24 1516.92 Q1938.3 1518.03 1939.65 1520.34 M1925.13 1529.39 Q1925.13 1534.09 1927.05 1536.78 Q1929 1539.44 1932.38 1539.44 Q1935.76 1539.44 1937.7 1536.78 Q1939.65 1534.09 1939.65 1529.39 Q1939.65 1524.69 1937.7 1522.03 Q1935.76 1519.35 1932.38 1519.35 Q1929 1519.35 1927.05 1522.03 Q1925.13 1524.69 1925.13 1529.39 Z" fill="#000000" fill-rule="nonzero" fill-opacity="1" /><path clip-path="url(#clip810)" d="M1964.46 1529.3 Q1959.3 1529.3 1957.31 1530.48 Q1955.32 1531.66 1955.32 1534.51 Q1955.32 1536.78 1956.8 1538.12 Q1958.3 1539.44 1960.87 1539.44 Q1964.41 1539.44 1966.54 1536.94 Q1968.7 1534.42 1968.7 1530.25 L1968.7 1529.3 L1964.46 1529.3 M1972.96 1527.54 L1972.96 1542.33 L1968.7 1542.33 L1968.7 1538.4 Q1967.24 1540.76 1965.06 1541.89 Q1962.89 1543 1959.74 1543 Q1955.76 1543 1953.4 1540.78 Q1951.06 1538.54 1951.06 1534.79 Q1951.06 1530.41 1953.98 1528.19 Q1956.91 1525.97 1962.73 1525.97 L1968.7 1525.97 L1968.7 1525.55 Q1968.7 1522.61 1966.75 1521.01 Q1964.83 1519.39 1961.34 1519.39 Q1959.11 1519.39 1957.01 1519.93 Q1954.9 1520.46 1952.96 1521.52 L1952.96 1517.59 Q1955.29 1516.68 1957.49 1516.25 Q1959.69 1515.78 1961.78 1515.78 Q1967.4 1515.78 1970.18 1518.7 Q1972.96 1521.62 1972.96 1527.54 Z" fill="#000000" fill-rule="nonzero" fill-opacity="1" /><path clip-path="url(#clip810)" d="M1996.75 1520.39 Q1996.04 1519.97 1995.18 1519.79 Q1994.35 1519.58 1993.33 1519.58 Q1989.72 1519.58 1987.77 1521.94 Q1985.85 1524.28 1985.85 1528.68 L1985.85 1542.33 L1981.57 1542.33 L1981.57 1516.41 L1985.85 1516.41 L1985.85 1520.43 Q1987.19 1518.07 1989.35 1516.94 Q1991.5 1515.78 1994.58 1515.78 Q1995.02 1515.78 1995.55 1515.85 Q1996.08 1515.9 1996.73 1516.01 L1996.75 1520.39 Z" fill="#000000" fill-rule="nonzero" fill-opacity="1" /><path clip-path="url(#clip810)" d="M2017.45 1520.34 L2017.45 1506.31 L2021.71 1506.31 L2021.71 1542.33 L2017.45 1542.33 L2017.45 1538.44 Q2016.1 1540.76 2014.04 1541.89 Q2012.01 1543 2009.14 1543 Q2004.44 1543 2001.47 1539.25 Q1998.54 1535.5 1998.54 1529.39 Q1998.54 1523.28 2001.47 1519.53 Q2004.44 1515.78 2009.14 1515.78 Q2012.01 1515.78 2014.04 1516.92 Q2016.1 1518.03 2017.45 1520.34 M2002.93 1529.39 Q2002.93 1534.09 2004.85 1536.78 Q2006.8 1539.44 2010.18 1539.44 Q2013.56 1539.44 2015.5 1536.78 Q2017.45 1534.09 2017.45 1529.39 Q2017.45 1524.69 2015.5 1522.03 Q2013.56 1519.35 2010.18 1519.35 Q2006.8 1519.35 2004.85 1522.03 Q2002.93 1524.69 2002.93 1529.39 Z" fill="#000000" fill-rule="nonzero" fill-opacity="1" /><path clip-path="url(#clip810)" d="M2049.67 1538.44 L2049.67 1552.19 L2045.39 1552.19 L2045.39 1516.41 L2049.67 1516.41 L2049.67 1520.34 Q2051.01 1518.03 2053.05 1516.92 Q2055.11 1515.78 2057.96 1515.78 Q2062.68 1515.78 2065.62 1519.53 Q2068.58 1523.28 2068.58 1529.39 Q2068.58 1535.5 2065.62 1539.25 Q2062.68 1543 2057.96 1543 Q2055.11 1543 2053.05 1541.89 Q2051.01 1540.76 2049.67 1538.44 M2064.16 1529.39 Q2064.16 1524.69 2062.22 1522.03 Q2060.29 1519.35 2056.91 1519.35 Q2053.53 1519.35 2051.59 1522.03 Q2049.67 1524.69 2049.67 1529.39 Q2049.67 1534.09 2051.59 1536.78 Q2053.53 1539.44 2056.91 1539.44 Q2060.29 1539.44 2062.22 1536.78 Q2064.16 1534.09 2064.16 1529.39 Z" fill="#000000" fill-rule="nonzero" fill-opacity="1" /><path clip-path="url(#clip810)" d="M2087.42 1529.3 Q2082.26 1529.3 2080.27 1530.48 Q2078.28 1531.66 2078.28 1534.51 Q2078.28 1536.78 2079.76 1538.12 Q2081.27 1539.44 2083.84 1539.44 Q2087.38 1539.44 2089.51 1536.94 Q2091.66 1534.42 2091.66 1530.25 L2091.66 1529.3 L2087.42 1529.3 M2095.92 1527.54 L2095.92 1542.33 L2091.66 1542.33 L2091.66 1538.4 Q2090.2 1540.76 2088.03 1541.89 Q2085.85 1543 2082.7 1543 Q2078.72 1543 2076.36 1540.78 Q2074.02 1538.54 2074.02 1534.79 Q2074.02 1530.41 2076.94 1528.19 Q2079.88 1525.97 2085.69 1525.97 L2091.66 1525.97 L2091.66 1525.55 Q2091.66 1522.61 2089.72 1521.01 Q2087.79 1519.39 2084.3 1519.39 Q2082.08 1519.39 2079.97 1519.93 Q2077.86 1520.46 2075.92 1521.52 L2075.92 1517.59 Q2078.26 1516.68 2080.46 1516.25 Q2082.66 1515.78 2084.74 1515.78 Q2090.36 1515.78 2093.14 1518.7 Q2095.92 1521.62 2095.92 1527.54 Z" fill="#000000" fill-rule="nonzero" fill-opacity="1" /><path clip-path="url(#clip810)" d="M2104.69 1516.41 L2108.95 1516.41 L2108.95 1542.33 L2104.69 1542.33 L2104.69 1516.41 M2104.69 1506.31 L2108.95 1506.31 L2108.95 1511.71 L2104.69 1511.71 L2104.69 1506.31 Z" fill="#000000" fill-rule="nonzero" fill-opacity="1" /><path clip-path="url(#clip810)" d="M2132.89 1520.39 Q2132.17 1519.97 2131.31 1519.79 Q2130.48 1519.58 2129.46 1519.58 Q2125.85 1519.58 2123.9 1521.94 Q2121.98 1524.28 2121.98 1528.68 L2121.98 1542.33 L2117.7 1542.33 L2117.7 1516.41 L2121.98 1516.41 L2121.98 1520.43 Q2123.33 1518.07 2125.48 1516.94 Q2127.63 1515.78 2130.71 1515.78 Q2131.15 1515.78 2131.68 1515.85 Q2132.21 1515.9 2132.86 1516.01 L2132.89 1520.39 Z" fill="#000000" fill-rule="nonzero" fill-opacity="1" /><path clip-path="url(#clip810)" d="M2134.88 1516.41 L2139.14 1516.41 L2144.46 1536.64 L2149.76 1516.41 L2154.78 1516.41 L2160.11 1536.64 L2165.41 1516.41 L2169.67 1516.41 L2162.89 1542.33 L2157.86 1542.33 L2152.28 1521.08 L2146.68 1542.33 L2141.66 1542.33 L2134.88 1516.41 Z" fill="#000000" fill-rule="nonzero" fill-opacity="1" /><path clip-path="url(#clip810)" d="M2176.13 1516.41 L2180.39 1516.41 L2180.39 1542.33 L2176.13 1542.33 L2176.13 1516.41 M2176.13 1506.31 L2180.39 1506.31 L2180.39 1511.71 L2176.13 1511.71 L2176.13 1506.31 Z" fill="#000000" fill-rule="nonzero" fill-opacity="1" /><path clip-path="url(#clip810)" d="M2205.83 1517.17 L2205.83 1521.2 Q2204.02 1520.27 2202.08 1519.81 Q2200.13 1519.35 2198.05 1519.35 Q2194.88 1519.35 2193.28 1520.32 Q2191.71 1521.29 2191.71 1523.24 Q2191.71 1524.72 2192.84 1525.57 Q2193.97 1526.41 2197.4 1527.17 L2198.86 1527.49 Q2203.4 1528.47 2205.29 1530.25 Q2207.21 1532.01 2207.21 1535.18 Q2207.21 1538.79 2204.34 1540.9 Q2201.5 1543 2196.5 1543 Q2194.41 1543 2192.15 1542.59 Q2189.9 1542.19 2187.4 1541.38 L2187.4 1536.99 Q2189.76 1538.21 2192.05 1538.84 Q2194.34 1539.44 2196.59 1539.44 Q2199.6 1539.44 2201.22 1538.42 Q2202.84 1537.38 2202.84 1535.5 Q2202.84 1533.77 2201.66 1532.84 Q2200.5 1531.92 2196.54 1531.06 L2195.06 1530.71 Q2191.1 1529.88 2189.34 1528.17 Q2187.59 1526.43 2187.59 1523.42 Q2187.59 1519.76 2190.18 1517.77 Q2192.77 1515.78 2197.54 1515.78 Q2199.9 1515.78 2201.98 1516.13 Q2204.07 1516.48 2205.83 1517.17 Z" fill="#000000" fill-rule="nonzero" fill-opacity="1" /><path clip-path="url(#clip810)" d="M2236.17 1528.31 L2236.17 1530.39 L2216.59 1530.39 Q2216.87 1534.79 2219.23 1537.1 Q2221.61 1539.39 2225.85 1539.39 Q2228.3 1539.39 2230.59 1538.79 Q2232.91 1538.19 2235.18 1536.99 L2235.18 1541.01 Q2232.89 1541.99 2230.48 1542.49 Q2228.07 1543 2225.59 1543 Q2219.39 1543 2215.76 1539.39 Q2212.15 1535.78 2212.15 1529.62 Q2212.15 1523.26 2215.57 1519.53 Q2219.02 1515.78 2224.85 1515.78 Q2230.08 1515.78 2233.12 1519.16 Q2236.17 1522.52 2236.17 1528.31 M2231.91 1527.06 Q2231.87 1523.56 2229.95 1521.48 Q2228.05 1519.39 2224.9 1519.39 Q2221.33 1519.39 2219.18 1521.41 Q2217.05 1523.42 2216.73 1527.08 L2231.91 1527.06 Z" fill="#000000" fill-rule="nonzero" fill-opacity="1" /><path clip-path="url(#clip810)" d="M2268.46 1506.36 Q2265.36 1511.68 2263.86 1516.89 Q2262.35 1522.1 2262.35 1527.45 Q2262.35 1532.8 2263.86 1538.05 Q2265.39 1543.28 2268.46 1548.58 L2264.76 1548.58 Q2261.29 1543.14 2259.55 1537.89 Q2257.84 1532.63 2257.84 1527.45 Q2257.84 1522.29 2259.55 1517.06 Q2261.27 1511.82 2264.76 1506.36 L2268.46 1506.36 Z" fill="#000000" fill-rule="nonzero" fill-opacity="1" /><path clip-path="url(#clip810)" d="M2276.91 1507.77 L2281.59 1507.77 L2281.59 1538.4 L2298.42 1538.4 L2298.42 1542.33 L2276.91 1542.33 L2276.91 1507.77 Z" fill="#000000" fill-rule="nonzero" fill-opacity="1" /><path clip-path="url(#clip810)" d="M2318.76 1520.81 L2348.44 1520.81 L2348.44 1524.69 L2318.76 1524.69 L2318.76 1520.81 M2318.76 1530.25 L2348.44 1530.25 L2348.44 1534.18 L2318.76 1534.18 L2318.76 1530.25 Z" fill="#000000" fill-rule="nonzero" fill-opacity="1" /><path clip-path="url(#clip810)" d="M2383.6 1510.85 Q2379.99 1510.85 2378.16 1514.42 Q2376.36 1517.96 2376.36 1525.09 Q2376.36 1532.19 2378.16 1535.76 Q2379.99 1539.3 2383.6 1539.3 Q2387.24 1539.3 2389.04 1535.76 Q2390.87 1532.19 2390.87 1525.09 Q2390.87 1517.96 2389.04 1514.42 Q2387.24 1510.85 2383.6 1510.85 M2383.6 1507.15 Q2389.41 1507.15 2392.47 1511.75 Q2395.55 1516.34 2395.55 1525.09 Q2395.55 1533.81 2392.47 1538.42 Q2389.41 1543 2383.6 1543 Q2377.79 1543 2374.71 1538.42 Q2371.66 1533.81 2371.66 1525.09 Q2371.66 1516.34 2374.71 1511.75 Q2377.79 1507.15 2383.6 1507.15 Z" fill="#000000" fill-rule="nonzero" fill-opacity="1" /><path clip-path="url(#clip810)" d="M2402.49 1506.36 L2406.19 1506.36 Q2409.67 1511.82 2411.38 1517.06 Q2413.12 1522.29 2413.12 1527.45 Q2413.12 1532.63 2411.38 1537.89 Q2409.67 1543.14 2406.19 1548.58 L2402.49 1548.58 Q2405.57 1543.28 2407.07 1538.05 Q2408.6 1532.8 2408.6 1527.45 Q2408.6 1522.1 2407.07 1516.89 Q2405.57 1511.68 2402.49 1506.36 Z" fill="#000000" fill-rule="nonzero" fill-opacity="1" /><polyline clip-path="url(#clip810)" style="stroke:#3da44d; stroke-linecap:round; stroke-linejoin:round; stroke-width:8; stroke-opacity:1; fill:none" stroke-dasharray="4, 8" points="1625.66,1576.89 1786.64,1576.89 "/>
<path clip-path="url(#clip810)" d="M1829.86 1577.97 Q1831.36 1578.48 1832.77 1580.15 Q1834.21 1581.81 1835.64 1584.73 L1840.39 1594.17 L1835.36 1594.17 L1830.94 1585.31 Q1829.23 1581.83 1827.61 1580.7 Q1826.01 1579.57 1823.24 1579.57 L1818.14 1579.57 L1818.14 1594.17 L1813.47 1594.17 L1813.47 1559.61 L1824.02 1559.61 Q1829.95 1559.61 1832.86 1562.09 Q1835.78 1564.57 1835.78 1569.57 Q1835.78 1572.83 1834.25 1574.98 Q1832.75 1577.14 1829.86 1577.97 M1818.14 1563.46 L1818.14 1575.72 L1824.02 1575.72 Q1827.4 1575.72 1829.11 1574.17 Q1830.85 1572.6 1830.85 1569.57 Q1830.85 1566.53 1829.11 1565.01 Q1827.4 1563.46 1824.02 1563.46 L1818.14 1563.46 Z" fill="#000000" fill-rule="nonzero" fill-opacity="1" /><path clip-path="url(#clip810)" d="M1866.27 1580.15 L1866.27 1582.23 L1846.68 1582.23 Q1846.96 1586.63 1849.32 1588.94 Q1851.71 1591.23 1855.94 1591.23 Q1858.4 1591.23 1860.69 1590.63 Q1863 1590.03 1865.27 1588.83 L1865.27 1592.85 Q1862.98 1593.83 1860.57 1594.33 Q1858.17 1594.84 1855.69 1594.84 Q1849.48 1594.84 1845.85 1591.23 Q1842.24 1587.62 1842.24 1581.46 Q1842.24 1575.1 1845.67 1571.37 Q1849.11 1567.62 1854.95 1567.62 Q1860.18 1567.62 1863.21 1571 Q1866.27 1574.36 1866.27 1580.15 M1862.01 1578.9 Q1861.96 1575.4 1860.04 1573.32 Q1858.14 1571.23 1854.99 1571.23 Q1851.43 1571.23 1849.28 1573.25 Q1847.15 1575.26 1846.82 1578.92 L1862.01 1578.9 Z" fill="#000000" fill-rule="nonzero" fill-opacity="1" /><path clip-path="url(#clip810)" d="M1873.26 1568.25 L1877.52 1568.25 L1877.52 1594.17 L1873.26 1594.17 L1873.26 1568.25 M1873.26 1558.15 L1877.52 1558.15 L1877.52 1563.55 L1873.26 1563.55 L1873.26 1558.15 Z" fill="#000000" fill-rule="nonzero" fill-opacity="1" /><path clip-path="url(#clip810)" d="M1907.98 1578.52 L1907.98 1594.17 L1903.72 1594.17 L1903.72 1578.66 Q1903.72 1574.98 1902.29 1573.15 Q1900.85 1571.33 1897.98 1571.33 Q1894.53 1571.33 1892.54 1573.52 Q1890.55 1575.72 1890.55 1579.52 L1890.55 1594.17 L1886.27 1594.17 L1886.27 1568.25 L1890.55 1568.25 L1890.55 1572.27 Q1892.08 1569.94 1894.14 1568.78 Q1896.22 1567.62 1898.93 1567.62 Q1903.4 1567.62 1905.69 1570.4 Q1907.98 1573.15 1907.98 1578.52 Z" fill="#000000" fill-rule="nonzero" fill-opacity="1" /><path clip-path="url(#clip810)" d="M1929.6 1558.15 L1929.6 1561.7 L1925.53 1561.7 Q1923.23 1561.7 1922.33 1562.62 Q1921.45 1563.55 1921.45 1565.96 L1921.45 1568.25 L1928.47 1568.25 L1928.47 1571.56 L1921.45 1571.56 L1921.45 1594.17 L1917.17 1594.17 L1917.17 1571.56 L1913.1 1571.56 L1913.1 1568.25 L1917.17 1568.25 L1917.17 1566.44 Q1917.17 1562.11 1919.18 1560.15 Q1921.2 1558.15 1925.57 1558.15 L1929.6 1558.15 Z" fill="#000000" fill-rule="nonzero" fill-opacity="1" /><path clip-path="url(#clip810)" d="M1955.34 1580.15 L1955.34 1582.23 L1935.76 1582.23 Q1936.04 1586.63 1938.4 1588.94 Q1940.78 1591.23 1945.02 1591.23 Q1947.47 1591.23 1949.76 1590.63 Q1952.08 1590.03 1954.35 1588.83 L1954.35 1592.85 Q1952.05 1593.83 1949.65 1594.33 Q1947.24 1594.84 1944.76 1594.84 Q1938.56 1594.84 1934.92 1591.23 Q1931.31 1587.62 1931.31 1581.46 Q1931.31 1575.1 1934.74 1571.37 Q1938.19 1567.62 1944.02 1567.62 Q1949.25 1567.62 1952.29 1571 Q1955.34 1574.36 1955.34 1580.15 M1951.08 1578.9 Q1951.04 1575.4 1949.11 1573.32 Q1947.22 1571.23 1944.07 1571.23 Q1940.5 1571.23 1938.35 1573.25 Q1936.22 1575.26 1935.9 1578.92 L1951.08 1578.9 Z" fill="#000000" fill-rule="nonzero" fill-opacity="1" /><path clip-path="url(#clip810)" d="M1980.99 1569.24 L1980.99 1573.22 Q1979.18 1572.23 1977.35 1571.74 Q1975.55 1571.23 1973.7 1571.23 Q1969.55 1571.23 1967.26 1573.87 Q1964.97 1576.49 1964.97 1581.23 Q1964.97 1585.98 1967.26 1588.62 Q1969.55 1591.23 1973.7 1591.23 Q1975.55 1591.23 1977.35 1590.75 Q1979.18 1590.24 1980.99 1589.24 L1980.99 1593.18 Q1979.21 1594.01 1977.29 1594.43 Q1975.39 1594.84 1973.23 1594.84 Q1967.38 1594.84 1963.93 1591.16 Q1960.48 1587.48 1960.48 1581.23 Q1960.48 1574.89 1963.95 1571.26 Q1967.45 1567.62 1973.51 1567.62 Q1975.48 1567.62 1977.35 1568.04 Q1979.23 1568.43 1980.99 1569.24 Z" fill="#000000" fill-rule="nonzero" fill-opacity="1" /><path clip-path="url(#clip810)" d="M1992.61 1560.89 L1992.61 1568.25 L2001.38 1568.25 L2001.38 1571.56 L1992.61 1571.56 L1992.61 1585.63 Q1992.61 1588.8 1993.47 1589.71 Q1994.35 1590.61 1997.01 1590.61 L2001.38 1590.61 L2001.38 1594.17 L1997.01 1594.17 Q1992.08 1594.17 1990.2 1592.34 Q1988.33 1590.49 1988.33 1585.63 L1988.33 1571.56 L1985.2 1571.56 L1985.2 1568.25 L1988.33 1568.25 L1988.33 1560.89 L1992.61 1560.89 Z" fill="#000000" fill-rule="nonzero" fill-opacity="1" /><path clip-path="url(#clip810)" d="M2006.98 1568.25 L2011.24 1568.25 L2011.24 1594.17 L2006.98 1594.17 L2006.98 1568.25 M2006.98 1558.15 L2011.24 1558.15 L2011.24 1563.55 L2006.98 1563.55 L2006.98 1558.15 Z" fill="#000000" fill-rule="nonzero" fill-opacity="1" /><path clip-path="url(#clip810)" d="M2030.2 1571.23 Q2026.78 1571.23 2024.78 1573.92 Q2022.79 1576.58 2022.79 1581.23 Q2022.79 1585.89 2024.76 1588.57 Q2026.75 1591.23 2030.2 1591.23 Q2033.6 1591.23 2035.6 1588.55 Q2037.59 1585.86 2037.59 1581.23 Q2037.59 1576.63 2035.6 1573.94 Q2033.6 1571.23 2030.2 1571.23 M2030.2 1567.62 Q2035.76 1567.62 2038.93 1571.23 Q2042.1 1574.84 2042.1 1581.23 Q2042.1 1587.6 2038.93 1591.23 Q2035.76 1594.84 2030.2 1594.84 Q2024.62 1594.84 2021.45 1591.23 Q2018.3 1587.6 2018.3 1581.23 Q2018.3 1574.84 2021.45 1571.23 Q2024.62 1567.62 2030.2 1567.62 Z" fill="#000000" fill-rule="nonzero" fill-opacity="1" /><path clip-path="url(#clip810)" d="M2070.71 1578.52 L2070.71 1594.17 L2066.45 1594.17 L2066.45 1578.66 Q2066.45 1574.98 2065.02 1573.15 Q2063.58 1571.33 2060.71 1571.33 Q2057.26 1571.33 2055.27 1573.52 Q2053.28 1575.72 2053.28 1579.52 L2053.28 1594.17 L2049 1594.17 L2049 1568.25 L2053.28 1568.25 L2053.28 1572.27 Q2054.81 1569.94 2056.87 1568.78 Q2058.95 1567.62 2061.66 1567.62 Q2066.13 1567.62 2068.42 1570.4 Q2070.71 1573.15 2070.71 1578.52 Z" fill="#000000" fill-rule="nonzero" fill-opacity="1" /><path clip-path="url(#clip810)" d="M2094.46 1559.61 L2099.14 1559.61 L2099.14 1590.24 L2115.97 1590.24 L2115.97 1594.17 L2094.46 1594.17 L2094.46 1559.61 Z" fill="#000000" fill-rule="nonzero" fill-opacity="1" /><path clip-path="url(#clip810)" d="M2136.31 1572.65 L2165.99 1572.65 L2165.99 1576.53 L2136.31 1576.53 L2136.31 1572.65 M2136.31 1582.09 L2165.99 1582.09 L2165.99 1586.02 L2136.31 1586.02 L2136.31 1582.09 Z" fill="#000000" fill-rule="nonzero" fill-opacity="1" /><path clip-path="url(#clip810)" d="M2191.96 1590.24 L2199.6 1590.24 L2199.6 1563.87 L2191.29 1565.54 L2191.29 1561.28 L2199.55 1559.61 L2204.23 1559.61 L2204.23 1590.24 L2211.87 1590.24 L2211.87 1594.17 L2191.96 1594.17 L2191.96 1590.24 Z" fill="#000000" fill-rule="nonzero" fill-opacity="1" /><polyline clip-path="url(#clip810)" style="stroke:#c271d2; stroke-linecap:round; stroke-linejoin:round; stroke-width:8; stroke-opacity:1; fill:none" points="1625.66,1628.73 1786.64,1628.73 "/>
<path clip-path="url(#clip810)" d="M1829.86 1629.81 Q1831.36 1630.32 1832.77 1631.99 Q1834.21 1633.65 1835.64 1636.57 L1840.39 1646.01 L1835.36 1646.01 L1830.94 1637.15 Q1829.23 1633.67 1827.61 1632.54 Q1826.01 1631.41 1823.24 1631.41 L1818.14 1631.41 L1818.14 1646.01 L1813.47 1646.01 L1813.47 1611.45 L1824.02 1611.45 Q1829.95 1611.45 1832.86 1613.93 Q1835.78 1616.41 1835.78 1621.41 Q1835.78 1624.67 1834.25 1626.82 Q1832.75 1628.98 1829.86 1629.81 M1818.14 1615.3 L1818.14 1627.56 L1824.02 1627.56 Q1827.4 1627.56 1829.11 1626.01 Q1830.85 1624.44 1830.85 1621.41 Q1830.85 1618.37 1829.11 1616.85 Q1827.4 1615.3 1824.02 1615.3 L1818.14 1615.3 Z" fill="#000000" fill-rule="nonzero" fill-opacity="1" /><path clip-path="url(#clip810)" d="M1866.27 1631.99 L1866.27 1634.07 L1846.68 1634.07 Q1846.96 1638.47 1849.32 1640.78 Q1851.71 1643.07 1855.94 1643.07 Q1858.4 1643.07 1860.69 1642.47 Q1863 1641.87 1865.27 1640.67 L1865.27 1644.69 Q1862.98 1645.67 1860.57 1646.17 Q1858.17 1646.68 1855.69 1646.68 Q1849.48 1646.68 1845.85 1643.07 Q1842.24 1639.46 1842.24 1633.3 Q1842.24 1626.94 1845.67 1623.21 Q1849.11 1619.46 1854.95 1619.46 Q1860.18 1619.46 1863.21 1622.84 Q1866.27 1626.2 1866.27 1631.99 M1862.01 1630.74 Q1861.96 1627.24 1860.04 1625.16 Q1858.14 1623.07 1854.99 1623.07 Q1851.43 1623.07 1849.28 1625.09 Q1847.15 1627.1 1846.82 1630.76 L1862.01 1630.74 Z" fill="#000000" fill-rule="nonzero" fill-opacity="1" /><path clip-path="url(#clip810)" d="M1873.26 1620.09 L1877.52 1620.09 L1877.52 1646.01 L1873.26 1646.01 L1873.26 1620.09 M1873.26 1609.99 L1877.52 1609.99 L1877.52 1615.39 L1873.26 1615.39 L1873.26 1609.99 Z" fill="#000000" fill-rule="nonzero" fill-opacity="1" /><path clip-path="url(#clip810)" d="M1907.98 1630.36 L1907.98 1646.01 L1903.72 1646.01 L1903.72 1630.5 Q1903.72 1626.82 1902.29 1624.99 Q1900.85 1623.17 1897.98 1623.17 Q1894.53 1623.17 1892.54 1625.36 Q1890.55 1627.56 1890.55 1631.36 L1890.55 1646.01 L1886.27 1646.01 L1886.27 1620.09 L1890.55 1620.09 L1890.55 1624.11 Q1892.08 1621.78 1894.14 1620.62 Q1896.22 1619.46 1898.93 1619.46 Q1903.4 1619.46 1905.69 1622.24 Q1907.98 1624.99 1907.98 1630.36 Z" fill="#000000" fill-rule="nonzero" fill-opacity="1" /><path clip-path="url(#clip810)" d="M1929.6 1609.99 L1929.6 1613.54 L1925.53 1613.54 Q1923.23 1613.54 1922.33 1614.46 Q1921.45 1615.39 1921.45 1617.8 L1921.45 1620.09 L1928.47 1620.09 L1928.47 1623.4 L1921.45 1623.4 L1921.45 1646.01 L1917.17 1646.01 L1917.17 1623.4 L1913.1 1623.4 L1913.1 1620.09 L1917.17 1620.09 L1917.17 1618.28 Q1917.17 1613.95 1919.18 1611.99 Q1921.2 1609.99 1925.57 1609.99 L1929.6 1609.99 Z" fill="#000000" fill-rule="nonzero" fill-opacity="1" /><path clip-path="url(#clip810)" d="M1955.34 1631.99 L1955.34 1634.07 L1935.76 1634.07 Q1936.04 1638.47 1938.4 1640.78 Q1940.78 1643.07 1945.02 1643.07 Q1947.47 1643.07 1949.76 1642.47 Q1952.08 1641.87 1954.35 1640.67 L1954.35 1644.69 Q1952.05 1645.67 1949.65 1646.17 Q1947.24 1646.68 1944.76 1646.68 Q1938.56 1646.68 1934.92 1643.07 Q1931.31 1639.46 1931.31 1633.3 Q1931.31 1626.94 1934.74 1623.21 Q1938.19 1619.46 1944.02 1619.46 Q1949.25 1619.46 1952.29 1622.84 Q1955.34 1626.2 1955.34 1631.99 M1951.08 1630.74 Q1951.04 1627.24 1949.11 1625.16 Q1947.22 1623.07 1944.07 1623.07 Q1940.5 1623.07 1938.35 1625.09 Q1936.22 1627.1 1935.9 1630.76 L1951.08 1630.74 Z" fill="#000000" fill-rule="nonzero" fill-opacity="1" /><path clip-path="url(#clip810)" d="M1980.99 1621.08 L1980.99 1625.06 Q1979.18 1624.07 1977.35 1623.58 Q1975.55 1623.07 1973.7 1623.07 Q1969.55 1623.07 1967.26 1625.71 Q1964.97 1628.33 1964.97 1633.07 Q1964.97 1637.82 1967.26 1640.46 Q1969.55 1643.07 1973.7 1643.07 Q1975.55 1643.07 1977.35 1642.59 Q1979.18 1642.08 1980.99 1641.08 L1980.99 1645.02 Q1979.21 1645.85 1977.29 1646.27 Q1975.39 1646.68 1973.23 1646.68 Q1967.38 1646.68 1963.93 1643 Q1960.48 1639.32 1960.48 1633.07 Q1960.48 1626.73 1963.95 1623.1 Q1967.45 1619.46 1973.51 1619.46 Q1975.48 1619.46 1977.35 1619.88 Q1979.23 1620.27 1980.99 1621.08 Z" fill="#000000" fill-rule="nonzero" fill-opacity="1" /><path clip-path="url(#clip810)" d="M1992.61 1612.73 L1992.61 1620.09 L2001.38 1620.09 L2001.38 1623.4 L1992.61 1623.4 L1992.61 1637.47 Q1992.61 1640.64 1993.47 1641.55 Q1994.35 1642.45 1997.01 1642.45 L2001.38 1642.45 L2001.38 1646.01 L1997.01 1646.01 Q1992.08 1646.01 1990.2 1644.18 Q1988.33 1642.33 1988.33 1637.47 L1988.33 1623.4 L1985.2 1623.4 L1985.2 1620.09 L1988.33 1620.09 L1988.33 1612.73 L1992.61 1612.73 Z" fill="#000000" fill-rule="nonzero" fill-opacity="1" /><path clip-path="url(#clip810)" d="M2006.98 1620.09 L2011.24 1620.09 L2011.24 1646.01 L2006.98 1646.01 L2006.98 1620.09 M2006.98 1609.99 L2011.24 1609.99 L2011.24 1615.39 L2006.98 1615.39 L2006.98 1609.99 Z" fill="#000000" fill-rule="nonzero" fill-opacity="1" /><path clip-path="url(#clip810)" d="M2030.2 1623.07 Q2026.78 1623.07 2024.78 1625.76 Q2022.79 1628.42 2022.79 1633.07 Q2022.79 1637.73 2024.76 1640.41 Q2026.75 1643.07 2030.2 1643.07 Q2033.6 1643.07 2035.6 1640.39 Q2037.59 1637.7 2037.59 1633.07 Q2037.59 1628.47 2035.6 1625.78 Q2033.6 1623.07 2030.2 1623.07 M2030.2 1619.46 Q2035.76 1619.46 2038.93 1623.07 Q2042.1 1626.68 2042.1 1633.07 Q2042.1 1639.44 2038.93 1643.07 Q2035.76 1646.68 2030.2 1646.68 Q2024.62 1646.68 2021.45 1643.07 Q2018.3 1639.44 2018.3 1633.07 Q2018.3 1626.68 2021.45 1623.07 Q2024.62 1619.46 2030.2 1619.46 Z" fill="#000000" fill-rule="nonzero" fill-opacity="1" /><path clip-path="url(#clip810)" d="M2070.71 1630.36 L2070.71 1646.01 L2066.45 1646.01 L2066.45 1630.5 Q2066.45 1626.82 2065.02 1624.99 Q2063.58 1623.17 2060.71 1623.17 Q2057.26 1623.17 2055.27 1625.36 Q2053.28 1627.56 2053.28 1631.36 L2053.28 1646.01 L2049 1646.01 L2049 1620.09 L2053.28 1620.09 L2053.28 1624.11 Q2054.81 1621.78 2056.87 1620.62 Q2058.95 1619.46 2061.66 1619.46 Q2066.13 1619.46 2068.42 1622.24 Q2070.71 1624.99 2070.71 1630.36 Z" fill="#000000" fill-rule="nonzero" fill-opacity="1" /><path clip-path="url(#clip810)" d="M2094.46 1611.45 L2099.14 1611.45 L2099.14 1642.08 L2115.97 1642.08 L2115.97 1646.01 L2094.46 1646.01 L2094.46 1611.45 Z" fill="#000000" fill-rule="nonzero" fill-opacity="1" /><path clip-path="url(#clip810)" d="M2136.31 1624.49 L2165.99 1624.49 L2165.99 1628.37 L2136.31 1628.37 L2136.31 1624.49 M2136.31 1633.93 L2165.99 1633.93 L2165.99 1637.86 L2136.31 1637.86 L2136.31 1633.93 Z" fill="#000000" fill-rule="nonzero" fill-opacity="1" /><path clip-path="url(#clip810)" d="M2204 1615.53 L2192.19 1633.98 L2204 1633.98 L2204 1615.53 M2202.77 1611.45 L2208.65 1611.45 L2208.65 1633.98 L2213.58 1633.98 L2213.58 1637.86 L2208.65 1637.86 L2208.65 1646.01 L2204 1646.01 L2204 1637.86 L2188.4 1637.86 L2188.4 1633.35 L2202.77 1611.45 Z" fill="#000000" fill-rule="nonzero" fill-opacity="1" /></svg>
