<?xml version="1.0" encoding="utf-8"?>
<svg xmlns="http://www.w3.org/2000/svg" xmlns:xlink="http://www.w3.org/1999/xlink" width="672" height="480" viewBox="0 0 2688 1920">
<defs>
  <clipPath id="clip910">
    <rect x="0" y="0" width="2688" height="1920"/>
  </clipPath>
</defs>
<path clip-path="url(#clip910)" d="M0 1920 L2688 1920 L2688 -4.26326e-14 L0 -4.26326e-14  Z" fill="#ffffff" fill-rule="evenodd" fill-opacity="1"/>
<defs>
  <clipPath id="clip911">
    <rect x="226" y="127" width="2416" height="1607"/>
  </clipPath>
</defs>
<path clip-path="url(#clip910)" d="M226.141 1734.12 L2640.76 1734.12 L2640.76 127.792 L226.141 127.792  Z" fill="#ffffff" fill-rule="evenodd" fill-opacity="1"/>
<polyline clip-path="url(#clip911)" style="stroke:#000000; stroke-linecap:round; stroke-linejoin:round; stroke-width:2; stroke-opacity:0.1; fill:none" points="501.564,1734.12 501.564,127.792 "/>
<polyline clip-path="url(#clip911)" style="stroke:#000000; stroke-linecap:round; stroke-linejoin:round; stroke-width:2; stroke-opacity:0.1; fill:none" points="1019.28,1734.12 1019.28,127.792 "/>
<polyline clip-path="url(#clip911)" style="stroke:#000000; stroke-linecap:round; stroke-linejoin:round; stroke-width:2; stroke-opacity:0.1; fill:none" points="1536.99,1734.12 1536.99,127.792 "/>
<polyline clip-path="url(#clip911)" style="stroke:#000000; stroke-linecap:round; stroke-linejoin:round; stroke-width:2; stroke-opacity:0.1; fill:none" points="2054.7,1734.12 2054.7,127.792 "/>
<polyline clip-path="url(#clip911)" style="stroke:#000000; stroke-linecap:round; stroke-linejoin:round; stroke-width:2; stroke-opacity:0.1; fill:none" points="2572.42,1734.12 2572.42,127.792 "/>
<polyline clip-path="url(#clip911)" style="stroke:#000000; stroke-linecap:round; stroke-linejoin:round; stroke-width:2; stroke-opacity:0.1; fill:none" points="226.141,1688.65 2640.76,1688.65 "/>
<polyline clip-path="url(#clip911)" style="stroke:#000000; stroke-linecap:round; stroke-linejoin:round; stroke-width:2; stroke-opacity:0.1; fill:none" points="226.141,1284.55 2640.76,1284.55 "/>
<polyline clip-path="url(#clip911)" style="stroke:#000000; stroke-linecap:round; stroke-linejoin:round; stroke-width:2; stroke-opacity:0.1; fill:none" points="226.141,880.441 2640.76,880.441 "/>
<polyline clip-path="url(#clip911)" style="stroke:#000000; stroke-linecap:round; stroke-linejoin:round; stroke-width:2; stroke-opacity:0.1; fill:none" points="226.141,476.334 2640.76,476.334 "/>
<polyline clip-path="url(#clip910)" style="stroke:#000000; stroke-linecap:round; stroke-linejoin:round; stroke-width:4; stroke-opacity:1; fill:none" points="226.141,1734.12 2640.76,1734.12 "/>
<polyline clip-path="url(#clip910)" style="stroke:#000000; stroke-linecap:round; stroke-linejoin:round; stroke-width:4; stroke-opacity:1; fill:none" points="501.564,1734.12 501.564,1715.22 "/>
<polyline clip-path="url(#clip910)" style="stroke:#000000; stroke-linecap:round; stroke-linejoin:round; stroke-width:4; stroke-opacity:1; fill:none" points="1019.28,1734.12 1019.28,1715.22 "/>
<polyline clip-path="url(#clip910)" style="stroke:#000000; stroke-linecap:round; stroke-linejoin:round; stroke-width:4; stroke-opacity:1; fill:none" points="1536.99,1734.12 1536.99,1715.22 "/>
<polyline clip-path="url(#clip910)" style="stroke:#000000; stroke-linecap:round; stroke-linejoin:round; stroke-width:4; stroke-opacity:1; fill:none" points="2054.7,1734.12 2054.7,1715.22 "/>
<polyline clip-path="url(#clip910)" style="stroke:#000000; stroke-linecap:round; stroke-linejoin:round; stroke-width:4; stroke-opacity:1; fill:none" points="2572.42,1734.12 2572.42,1715.22 "/>
<path clip-path="url(#clip910)" d="M463.868 1767.34 Q460.256 1767.34 458.428 1770.9 Q456.622 1774.45 456.622 1781.58 Q456.622 1788.68 458.428 1792.25 Q460.256 1795.79 463.868 1795.79 Q467.502 1795.79 469.307 1792.25 Q471.136 1788.68 471.136 1781.58 Q471.136 1774.45 469.307 1770.9 Q467.502 1767.34 463.868 1767.34 M463.868 1763.64 Q469.678 1763.64 472.733 1768.24 Q475.812 1772.83 475.812 1781.58 Q475.812 1790.3 472.733 1794.91 Q469.678 1799.49 463.868 1799.49 Q458.057 1799.49 454.979 1794.91 Q451.923 1790.3 451.923 1781.58 Q451.923 1772.83 454.979 1768.24 Q458.057 1763.64 463.868 1763.64 Z" fill="#000000" fill-rule="nonzero" fill-opacity="1" /><path clip-path="url(#clip910)" d="M484.029 1792.94 L488.914 1792.94 L488.914 1798.82 L484.029 1798.82 L484.029 1792.94 Z" fill="#000000" fill-rule="nonzero" fill-opacity="1" /><path clip-path="url(#clip910)" d="M499.145 1764.26 L517.502 1764.26 L517.502 1768.2 L503.428 1768.2 L503.428 1776.67 Q504.446 1776.32 505.465 1776.16 Q506.483 1775.97 507.502 1775.97 Q513.289 1775.97 516.668 1779.15 Q520.048 1782.32 520.048 1787.73 Q520.048 1793.31 516.576 1796.41 Q513.103 1799.49 506.784 1799.49 Q504.608 1799.49 502.34 1799.12 Q500.094 1798.75 497.687 1798.01 L497.687 1793.31 Q499.77 1794.45 501.992 1795 Q504.215 1795.56 506.691 1795.56 Q510.696 1795.56 513.034 1793.45 Q515.372 1791.34 515.372 1787.73 Q515.372 1784.12 513.034 1782.02 Q510.696 1779.91 506.691 1779.91 Q504.816 1779.91 502.941 1780.33 Q501.09 1780.74 499.145 1781.62 L499.145 1764.26 Z" fill="#000000" fill-rule="nonzero" fill-opacity="1" /><path clip-path="url(#clip910)" d="M539.261 1767.34 Q535.65 1767.34 533.821 1770.9 Q532.015 1774.45 532.015 1781.58 Q532.015 1788.68 533.821 1792.25 Q535.65 1795.79 539.261 1795.79 Q542.895 1795.79 544.7 1792.25 Q546.529 1788.68 546.529 1781.58 Q546.529 1774.45 544.7 1770.9 Q542.895 1767.34 539.261 1767.34 M539.261 1763.64 Q545.071 1763.64 548.126 1768.24 Q551.205 1772.83 551.205 1781.58 Q551.205 1790.3 548.126 1794.91 Q545.071 1799.49 539.261 1799.49 Q533.45 1799.49 530.372 1794.91 Q527.316 1790.3 527.316 1781.58 Q527.316 1772.83 530.372 1768.24 Q533.45 1763.64 539.261 1763.64 Z" fill="#000000" fill-rule="nonzero" fill-opacity="1" /><path clip-path="url(#clip910)" d="M982.079 1767.34 Q978.468 1767.34 976.639 1770.9 Q974.833 1774.45 974.833 1781.58 Q974.833 1788.68 976.639 1792.25 Q978.468 1795.79 982.079 1795.79 Q985.713 1795.79 987.518 1792.25 Q989.347 1788.68 989.347 1781.58 Q989.347 1774.45 987.518 1770.9 Q985.713 1767.34 982.079 1767.34 M982.079 1763.64 Q987.889 1763.64 990.944 1768.24 Q994.023 1772.83 994.023 1781.58 Q994.023 1790.3 990.944 1794.91 Q987.889 1799.49 982.079 1799.49 Q976.268 1799.49 973.19 1794.91 Q970.134 1790.3 970.134 1781.58 Q970.134 1772.83 973.19 1768.24 Q976.268 1763.64 982.079 1763.64 Z" fill="#000000" fill-rule="nonzero" fill-opacity="1" /><path clip-path="url(#clip910)" d="M1002.24 1792.94 L1007.12 1792.94 L1007.12 1798.82 L1002.24 1798.82 L1002.24 1792.94 Z" fill="#000000" fill-rule="nonzero" fill-opacity="1" /><path clip-path="url(#clip910)" d="M1016.13 1764.26 L1038.35 1764.26 L1038.35 1766.25 L1025.81 1798.82 L1020.92 1798.82 L1032.73 1768.2 L1016.13 1768.2 L1016.13 1764.26 Z" fill="#000000" fill-rule="nonzero" fill-opacity="1" /><path clip-path="url(#clip910)" d="M1047.52 1764.26 L1065.87 1764.26 L1065.87 1768.2 L1051.8 1768.2 L1051.8 1776.67 Q1052.82 1776.32 1053.84 1776.16 Q1054.86 1775.97 1055.87 1775.97 Q1061.66 1775.97 1065.04 1779.15 Q1068.42 1782.32 1068.42 1787.73 Q1068.42 1793.31 1064.95 1796.41 Q1061.48 1799.49 1055.16 1799.49 Q1052.98 1799.49 1050.71 1799.12 Q1048.47 1798.75 1046.06 1798.01 L1046.06 1793.31 Q1048.14 1794.45 1050.37 1795 Q1052.59 1795.56 1055.06 1795.56 Q1059.07 1795.56 1061.41 1793.45 Q1063.74 1791.34 1063.74 1787.73 Q1063.74 1784.12 1061.41 1782.02 Q1059.07 1779.91 1055.06 1779.91 Q1053.19 1779.91 1051.31 1780.33 Q1049.46 1780.74 1047.52 1781.62 L1047.52 1764.26 Z" fill="#000000" fill-rule="nonzero" fill-opacity="1" /><path clip-path="url(#clip910)" d="M1489.06 1794.89 L1496.7 1794.89 L1496.7 1768.52 L1488.39 1770.19 L1488.39 1765.93 L1496.66 1764.26 L1501.33 1764.26 L1501.33 1794.89 L1508.97 1794.89 L1508.97 1798.82 L1489.06 1798.82 L1489.06 1794.89 Z" fill="#000000" fill-rule="nonzero" fill-opacity="1" /><path clip-path="url(#clip910)" d="M1518.41 1792.94 L1523.3 1792.94 L1523.3 1798.82 L1518.41 1798.82 L1518.41 1792.94 Z" fill="#000000" fill-rule="nonzero" fill-opacity="1" /><path clip-path="url(#clip910)" d="M1543.48 1767.34 Q1539.87 1767.34 1538.04 1770.9 Q1536.24 1774.45 1536.24 1781.58 Q1536.24 1788.68 1538.04 1792.25 Q1539.87 1795.79 1543.48 1795.79 Q1547.12 1795.79 1548.92 1792.25 Q1550.75 1788.68 1550.75 1781.58 Q1550.75 1774.45 1548.92 1770.9 Q1547.12 1767.34 1543.48 1767.34 M1543.48 1763.64 Q1549.29 1763.64 1552.35 1768.24 Q1555.43 1772.83 1555.43 1781.58 Q1555.43 1790.3 1552.35 1794.91 Q1549.29 1799.49 1543.48 1799.49 Q1537.67 1799.49 1534.6 1794.91 Q1531.54 1790.3 1531.54 1781.58 Q1531.54 1772.83 1534.6 1768.24 Q1537.67 1763.64 1543.48 1763.64 Z" fill="#000000" fill-rule="nonzero" fill-opacity="1" /><path clip-path="url(#clip910)" d="M1573.65 1767.34 Q1570.03 1767.34 1568.21 1770.9 Q1566.4 1774.45 1566.4 1781.58 Q1566.4 1788.68 1568.21 1792.25 Q1570.03 1795.79 1573.65 1795.79 Q1577.28 1795.79 1579.09 1792.25 Q1580.91 1788.68 1580.91 1781.58 Q1580.91 1774.45 1579.09 1770.9 Q1577.28 1767.34 1573.65 1767.34 M1573.65 1763.64 Q1579.46 1763.64 1582.51 1768.24 Q1585.59 1772.83 1585.59 1781.58 Q1585.59 1790.3 1582.51 1794.91 Q1579.46 1799.49 1573.65 1799.49 Q1567.84 1799.49 1564.76 1794.91 Q1561.7 1790.3 1561.7 1781.58 Q1561.7 1772.83 1564.76 1768.24 Q1567.84 1763.64 1573.65 1763.64 Z" fill="#000000" fill-rule="nonzero" fill-opacity="1" /><path clip-path="url(#clip910)" d="M2007.27 1794.89 L2014.91 1794.89 L2014.91 1768.52 L2006.6 1770.19 L2006.6 1765.93 L2014.87 1764.26 L2019.54 1764.26 L2019.54 1794.89 L2027.18 1794.89 L2027.18 1798.82 L2007.27 1798.82 L2007.27 1794.89 Z" fill="#000000" fill-rule="nonzero" fill-opacity="1" /><path clip-path="url(#clip910)" d="M2036.63 1792.94 L2041.51 1792.94 L2041.51 1798.82 L2036.63 1798.82 L2036.63 1792.94 Z" fill="#000000" fill-rule="nonzero" fill-opacity="1" /><path clip-path="url(#clip910)" d="M2055.72 1794.89 L2072.04 1794.89 L2072.04 1798.82 L2050.1 1798.82 L2050.1 1794.89 Q2052.76 1792.13 2057.34 1787.5 Q2061.95 1782.85 2063.13 1781.51 Q2065.38 1778.98 2066.26 1777.25 Q2067.16 1775.49 2067.16 1773.8 Q2067.16 1771.04 2065.21 1769.31 Q2063.29 1767.57 2060.19 1767.57 Q2057.99 1767.57 2055.54 1768.34 Q2053.11 1769.1 2050.33 1770.65 L2050.33 1765.93 Q2053.15 1764.79 2055.61 1764.21 Q2058.06 1763.64 2060.1 1763.64 Q2065.47 1763.64 2068.66 1766.32 Q2071.86 1769.01 2071.86 1773.5 Q2071.86 1775.63 2071.05 1777.55 Q2070.26 1779.45 2068.15 1782.04 Q2067.57 1782.71 2064.47 1785.93 Q2061.37 1789.12 2055.72 1794.89 Z" fill="#000000" fill-rule="nonzero" fill-opacity="1" /><path clip-path="url(#clip910)" d="M2081.9 1764.26 L2100.26 1764.26 L2100.26 1768.2 L2086.19 1768.2 L2086.19 1776.67 Q2087.2 1776.32 2088.22 1776.16 Q2089.24 1775.97 2090.26 1775.97 Q2096.05 1775.97 2099.43 1779.15 Q2102.81 1782.32 2102.81 1787.73 Q2102.81 1793.31 2099.33 1796.41 Q2095.86 1799.49 2089.54 1799.49 Q2087.37 1799.49 2085.1 1799.12 Q2082.85 1798.75 2080.44 1798.01 L2080.44 1793.31 Q2082.53 1794.45 2084.75 1795 Q2086.97 1795.56 2089.45 1795.56 Q2093.45 1795.56 2095.79 1793.45 Q2098.13 1791.34 2098.13 1787.73 Q2098.13 1784.12 2095.79 1782.02 Q2093.45 1779.91 2089.45 1779.91 Q2087.57 1779.91 2085.7 1780.33 Q2083.85 1780.74 2081.9 1781.62 L2081.9 1764.26 Z" fill="#000000" fill-rule="nonzero" fill-opacity="1" /><path clip-path="url(#clip910)" d="M2524.49 1794.89 L2532.13 1794.89 L2532.13 1768.52 L2523.82 1770.19 L2523.82 1765.93 L2532.08 1764.26 L2536.76 1764.26 L2536.76 1794.89 L2544.4 1794.89 L2544.4 1798.82 L2524.49 1798.82 L2524.49 1794.89 Z" fill="#000000" fill-rule="nonzero" fill-opacity="1" /><path clip-path="url(#clip910)" d="M2553.84 1792.94 L2558.73 1792.94 L2558.73 1798.82 L2553.84 1798.82 L2553.84 1792.94 Z" fill="#000000" fill-rule="nonzero" fill-opacity="1" /><path clip-path="url(#clip910)" d="M2568.96 1764.26 L2587.31 1764.26 L2587.31 1768.2 L2573.24 1768.2 L2573.24 1776.67 Q2574.26 1776.32 2575.28 1776.16 Q2576.3 1775.97 2577.31 1775.97 Q2583.1 1775.97 2586.48 1779.15 Q2589.86 1782.32 2589.86 1787.73 Q2589.86 1793.31 2586.39 1796.41 Q2582.92 1799.49 2576.6 1799.49 Q2574.42 1799.49 2572.15 1799.12 Q2569.91 1798.75 2567.5 1798.01 L2567.5 1793.31 Q2569.58 1794.45 2571.8 1795 Q2574.03 1795.56 2576.5 1795.56 Q2580.51 1795.56 2582.85 1793.45 Q2585.18 1791.34 2585.18 1787.73 Q2585.18 1784.12 2582.85 1782.02 Q2580.51 1779.91 2576.5 1779.91 Q2574.63 1779.91 2572.75 1780.33 Q2570.9 1780.74 2568.96 1781.62 L2568.96 1764.26 Z" fill="#000000" fill-rule="nonzero" fill-opacity="1" /><path clip-path="url(#clip910)" d="M2609.07 1767.34 Q2605.46 1767.34 2603.63 1770.9 Q2601.83 1774.45 2601.83 1781.58 Q2601.83 1788.68 2603.63 1792.25 Q2605.46 1795.79 2609.07 1795.79 Q2612.71 1795.79 2614.51 1792.25 Q2616.34 1788.68 2616.34 1781.58 Q2616.34 1774.45 2614.51 1770.9 Q2612.71 1767.34 2609.07 1767.34 M2609.07 1763.64 Q2614.88 1763.64 2617.94 1768.24 Q2621.02 1772.83 2621.02 1781.58 Q2621.02 1790.3 2617.94 1794.91 Q2614.88 1799.49 2609.07 1799.49 Q2603.26 1799.49 2600.18 1794.91 Q2597.13 1790.3 2597.13 1781.58 Q2597.13 1772.83 2600.18 1768.24 Q2603.26 1763.64 2609.07 1763.64 Z" fill="#000000" fill-rule="nonzero" fill-opacity="1" /><path clip-path="url(#clip910)" d="M962.434 1876.81 Q963.58 1878.34 967.017 1878.34 L969.85 1878.34 L969.85 1883.3 L966.317 1883.3 Q960.588 1883.3 957.978 1880.25 Q955.368 1877.13 955.368 1870.38 L955.368 1853.51 L942 1853.51 L942 1847.65 L974.879 1847.65 L974.879 1853.51 L961.352 1853.51 L961.352 1870.73 Q961.352 1875.34 962.434 1876.81 Z" fill="#000000" fill-rule="nonzero" fill-opacity="1" /><path clip-path="url(#clip910)" d="M1018.99 1833.84 Q1014.73 1841.16 1012.66 1848.32 Q1010.59 1855.48 1010.59 1862.84 Q1010.59 1870.19 1012.66 1877.41 Q1014.76 1884.61 1018.99 1891.89 L1013.9 1891.89 Q1009.13 1884.41 1006.74 1877.19 Q1004.38 1869.96 1004.38 1862.84 Q1004.38 1855.74 1006.74 1848.54 Q1009.09 1841.35 1013.9 1833.84 L1018.99 1833.84 Z" fill="#000000" fill-rule="nonzero" fill-opacity="1" /><path clip-path="url(#clip910)" d="M1036.02 1877.95 L1036.02 1896.86 L1030.13 1896.86 L1030.13 1847.65 L1036.02 1847.65 L1036.02 1853.06 Q1037.87 1849.88 1040.67 1848.35 Q1043.5 1846.79 1047.42 1846.79 Q1053.91 1846.79 1057.95 1851.95 Q1062.03 1857.11 1062.03 1865.51 Q1062.03 1873.91 1057.95 1879.07 Q1053.91 1884.22 1047.42 1884.22 Q1043.5 1884.22 1040.67 1882.7 Q1037.87 1881.14 1036.02 1877.95 M1055.95 1865.51 Q1055.95 1859.05 1053.27 1855.39 Q1050.63 1851.7 1045.98 1851.7 Q1041.34 1851.7 1038.66 1855.39 Q1036.02 1859.05 1036.02 1865.51 Q1036.02 1871.97 1038.66 1875.66 Q1041.34 1879.32 1045.98 1879.32 Q1050.63 1879.32 1053.27 1875.66 Q1055.95 1871.97 1055.95 1865.51 Z" fill="#000000" fill-rule="nonzero" fill-opacity="1" /><path clip-path="url(#clip910)" d="M1102.22 1864.01 L1102.22 1866.88 L1075.3 1866.88 Q1075.68 1872.92 1078.93 1876.11 Q1082.2 1879.26 1088.03 1879.26 Q1091.4 1879.26 1094.55 1878.43 Q1097.74 1877.6 1100.86 1875.95 L1100.86 1881.49 Q1097.7 1882.82 1094.39 1883.52 Q1091.08 1884.22 1087.68 1884.22 Q1079.15 1884.22 1074.15 1879.26 Q1069.19 1874.29 1069.19 1865.83 Q1069.19 1857.07 1073.9 1851.95 Q1078.64 1846.79 1086.66 1846.79 Q1093.85 1846.79 1098.02 1851.44 Q1102.22 1856.06 1102.22 1864.01 M1096.37 1862.29 Q1096.3 1857.49 1093.66 1854.62 Q1091.05 1851.76 1086.72 1851.76 Q1081.82 1851.76 1078.86 1854.53 Q1075.93 1857.3 1075.49 1862.33 L1096.37 1862.29 Z" fill="#000000" fill-rule="nonzero" fill-opacity="1" /><path clip-path="url(#clip910)" d="M1132.49 1853.13 Q1131.51 1852.55 1130.33 1852.3 Q1129.18 1852.01 1127.78 1852.01 Q1122.82 1852.01 1120.14 1855.26 Q1117.5 1858.47 1117.5 1864.52 L1117.5 1883.3 L1111.61 1883.3 L1111.61 1847.65 L1117.5 1847.65 L1117.5 1853.19 Q1119.35 1849.94 1122.31 1848.39 Q1125.27 1846.79 1129.5 1846.79 Q1130.11 1846.79 1130.84 1846.89 Q1131.57 1846.95 1132.46 1847.11 L1132.49 1853.13 Z" fill="#000000" fill-rule="nonzero" fill-opacity="1" /><path clip-path="url(#clip910)" d="M1131.51 1862.84 L1148.66 1862.84 L1148.66 1868.06 L1131.51 1868.06 L1131.51 1862.84 Z" fill="#000000" fill-rule="nonzero" fill-opacity="1" /><path clip-path="url(#clip910)" d="M1188.48 1864.01 L1188.48 1866.88 L1161.55 1866.88 Q1161.93 1872.92 1165.18 1876.11 Q1168.46 1879.26 1174.28 1879.26 Q1177.66 1879.26 1180.81 1878.43 Q1183.99 1877.6 1187.11 1875.95 L1187.11 1881.49 Q1183.96 1882.82 1180.65 1883.52 Q1177.34 1884.22 1173.93 1884.22 Q1165.4 1884.22 1160.41 1879.26 Q1155.44 1874.29 1155.44 1865.83 Q1155.44 1857.07 1160.15 1851.95 Q1164.89 1846.79 1172.92 1846.79 Q1180.11 1846.79 1184.28 1851.44 Q1188.48 1856.06 1188.48 1864.01 M1182.62 1862.29 Q1182.56 1857.49 1179.92 1854.62 Q1177.31 1851.76 1172.98 1851.76 Q1168.08 1851.76 1165.12 1854.53 Q1162.19 1857.3 1161.74 1862.33 L1182.62 1862.29 Z" fill="#000000" fill-rule="nonzero" fill-opacity="1" /><path clip-path="url(#clip910)" d="M1221.55 1853.06 L1221.55 1833.78 L1227.41 1833.78 L1227.41 1883.3 L1221.55 1883.3 L1221.55 1877.95 Q1219.7 1881.14 1216.87 1882.7 Q1214.07 1884.22 1210.12 1884.22 Q1203.66 1884.22 1199.59 1879.07 Q1195.55 1873.91 1195.55 1865.51 Q1195.55 1857.11 1199.59 1851.95 Q1203.66 1846.79 1210.12 1846.79 Q1214.07 1846.79 1216.87 1848.35 Q1219.7 1849.88 1221.55 1853.06 M1201.59 1865.51 Q1201.59 1871.97 1204.24 1875.66 Q1206.91 1879.32 1211.56 1879.32 Q1216.2 1879.32 1218.88 1875.66 Q1221.55 1871.97 1221.55 1865.51 Q1221.55 1859.05 1218.88 1855.39 Q1216.2 1851.7 1211.56 1851.7 Q1206.91 1851.7 1204.24 1855.39 Q1201.59 1859.05 1201.59 1865.51 Z" fill="#000000" fill-rule="nonzero" fill-opacity="1" /><path clip-path="url(#clip910)" d="M1262.93 1865.06 Q1262.93 1858.7 1260.29 1855.2 Q1257.68 1851.7 1252.93 1851.7 Q1248.22 1851.7 1245.58 1855.2 Q1242.97 1858.7 1242.97 1865.06 Q1242.97 1871.4 1245.58 1874.9 Q1248.22 1878.4 1252.93 1878.4 Q1257.68 1878.4 1260.29 1874.9 Q1262.93 1871.4 1262.93 1865.06 M1268.78 1878.88 Q1268.78 1887.98 1264.74 1892.4 Q1260.7 1896.86 1252.36 1896.86 Q1249.27 1896.86 1246.54 1896.38 Q1243.8 1895.94 1241.22 1894.98 L1241.22 1889.28 Q1243.8 1890.69 1246.31 1891.35 Q1248.83 1892.02 1251.44 1892.02 Q1257.2 1892.02 1260.06 1889 Q1262.93 1886.01 1262.93 1879.93 L1262.93 1877.03 Q1261.11 1880.18 1258.28 1881.74 Q1255.45 1883.3 1251.5 1883.3 Q1244.94 1883.3 1240.93 1878.3 Q1236.92 1873.31 1236.92 1865.06 Q1236.92 1856.79 1240.93 1851.79 Q1244.94 1846.79 1251.5 1846.79 Q1255.45 1846.79 1258.28 1848.35 Q1261.11 1849.91 1262.93 1853.06 L1262.93 1847.65 L1268.78 1847.65 L1268.78 1878.88 Z" fill="#000000" fill-rule="nonzero" fill-opacity="1" /><path clip-path="url(#clip910)" d="M1311.34 1864.01 L1311.34 1866.88 L1284.41 1866.88 Q1284.79 1872.92 1288.04 1876.11 Q1291.32 1879.26 1297.14 1879.26 Q1300.52 1879.26 1303.67 1878.43 Q1306.85 1877.6 1309.97 1875.95 L1309.97 1881.49 Q1306.82 1882.82 1303.51 1883.52 Q1300.2 1884.22 1296.79 1884.22 Q1288.26 1884.22 1283.27 1879.26 Q1278.3 1874.29 1278.3 1865.83 Q1278.3 1857.07 1283.01 1851.95 Q1287.75 1846.79 1295.77 1846.79 Q1302.97 1846.79 1307.14 1851.44 Q1311.34 1856.06 1311.34 1864.01 M1305.48 1862.29 Q1305.42 1857.49 1302.78 1854.62 Q1300.17 1851.76 1295.84 1851.76 Q1290.94 1851.76 1287.98 1854.53 Q1285.05 1857.3 1284.6 1862.33 L1305.48 1862.29 Z" fill="#000000" fill-rule="nonzero" fill-opacity="1" /><path clip-path="url(#clip910)" d="M1347.46 1837.53 L1347.46 1847.65 L1359.53 1847.65 L1359.53 1852.2 L1347.46 1852.2 L1347.46 1871.56 Q1347.46 1875.92 1348.64 1877.16 Q1349.85 1878.4 1353.51 1878.4 L1359.53 1878.4 L1359.53 1883.3 L1353.51 1883.3 Q1346.73 1883.3 1344.15 1880.79 Q1341.58 1878.24 1341.58 1871.56 L1341.58 1852.2 L1337.28 1852.2 L1337.28 1847.65 L1341.58 1847.65 L1341.58 1837.53 L1347.46 1837.53 Z" fill="#000000" fill-rule="nonzero" fill-opacity="1" /><path clip-path="url(#clip910)" d="M1387.89 1853.13 Q1386.9 1852.55 1385.72 1852.3 Q1384.58 1852.01 1383.18 1852.01 Q1378.21 1852.01 1375.54 1855.26 Q1372.89 1858.47 1372.89 1864.52 L1372.89 1883.3 L1367.01 1883.3 L1367.01 1847.65 L1372.89 1847.65 L1372.89 1853.19 Q1374.74 1849.94 1377.7 1848.39 Q1380.66 1846.79 1384.89 1846.79 Q1385.5 1846.79 1386.23 1846.89 Q1386.96 1846.95 1387.85 1847.11 L1387.89 1853.13 Z" fill="#000000" fill-rule="nonzero" fill-opacity="1" /><path clip-path="url(#clip910)" d="M1410.23 1865.38 Q1403.13 1865.38 1400.39 1867 Q1397.66 1868.63 1397.66 1872.54 Q1397.66 1875.66 1399.69 1877.51 Q1401.76 1879.32 1405.3 1879.32 Q1410.17 1879.32 1413.09 1875.88 Q1416.05 1872.42 1416.05 1866.69 L1416.05 1865.38 L1410.23 1865.38 M1421.91 1862.96 L1421.91 1883.3 L1416.05 1883.3 L1416.05 1877.89 Q1414.05 1881.14 1411.06 1882.7 Q1408.06 1884.22 1403.74 1884.22 Q1398.26 1884.22 1395.02 1881.17 Q1391.8 1878.08 1391.8 1872.92 Q1391.8 1866.91 1395.81 1863.85 Q1399.85 1860.8 1407.84 1860.8 L1416.05 1860.8 L1416.05 1860.23 Q1416.05 1856.18 1413.38 1853.99 Q1410.74 1851.76 1405.93 1851.76 Q1402.88 1851.76 1399.98 1852.49 Q1397.08 1853.22 1394.41 1854.69 L1394.41 1849.28 Q1397.63 1848.03 1400.65 1847.43 Q1403.67 1846.79 1406.54 1846.79 Q1414.27 1846.79 1418.09 1850.8 Q1421.91 1854.81 1421.91 1862.96 Z" fill="#000000" fill-rule="nonzero" fill-opacity="1" /><path clip-path="url(#clip910)" d="M1463.61 1861.78 L1463.61 1883.3 L1457.75 1883.3 L1457.75 1861.98 Q1457.75 1856.92 1455.78 1854.4 Q1453.8 1851.89 1449.86 1851.89 Q1445.11 1851.89 1442.38 1854.91 Q1439.64 1857.93 1439.64 1863.15 L1439.64 1883.3 L1433.75 1883.3 L1433.75 1847.65 L1439.64 1847.65 L1439.64 1853.19 Q1441.74 1849.98 1444.57 1848.39 Q1447.44 1846.79 1451.16 1846.79 Q1457.3 1846.79 1460.45 1850.61 Q1463.61 1854.4 1463.61 1861.78 Z" fill="#000000" fill-rule="nonzero" fill-opacity="1" /><path clip-path="url(#clip910)" d="M1498.01 1848.7 L1498.01 1854.24 Q1495.53 1852.97 1492.86 1852.33 Q1490.18 1851.7 1487.32 1851.7 Q1482.96 1851.7 1480.76 1853.03 Q1478.6 1854.37 1478.6 1857.04 Q1478.6 1859.08 1480.16 1860.26 Q1481.72 1861.4 1486.43 1862.45 L1488.43 1862.9 Q1494.67 1864.24 1497.28 1866.69 Q1499.92 1869.11 1499.92 1873.47 Q1499.92 1878.43 1495.98 1881.33 Q1492.06 1884.22 1485.19 1884.22 Q1482.32 1884.22 1479.2 1883.65 Q1476.11 1883.11 1472.68 1882 L1472.68 1875.95 Q1475.92 1877.64 1479.07 1878.49 Q1482.23 1879.32 1485.31 1879.32 Q1489.45 1879.32 1491.68 1877.92 Q1493.91 1876.49 1493.91 1873.91 Q1493.91 1871.52 1492.28 1870.25 Q1490.69 1868.98 1485.25 1867.8 L1483.21 1867.32 Q1477.77 1866.18 1475.35 1863.82 Q1472.93 1861.43 1472.93 1857.3 Q1472.93 1852.27 1476.5 1849.53 Q1480.06 1846.79 1486.62 1846.79 Q1489.86 1846.79 1492.73 1847.27 Q1495.59 1847.75 1498.01 1848.7 Z" fill="#000000" fill-rule="nonzero" fill-opacity="1" /><path clip-path="url(#clip910)" d="M1537 1854.5 Q1539.2 1850.55 1542.25 1848.67 Q1545.31 1846.79 1549.45 1846.79 Q1555.02 1846.79 1558.04 1850.71 Q1561.06 1854.59 1561.06 1861.78 L1561.06 1883.3 L1555.18 1883.3 L1555.18 1861.98 Q1555.18 1856.85 1553.36 1854.37 Q1551.55 1851.89 1547.82 1851.89 Q1543.27 1851.89 1540.63 1854.91 Q1537.99 1857.93 1537.99 1863.15 L1537.99 1883.3 L1532.1 1883.3 L1532.1 1861.98 Q1532.1 1856.82 1530.29 1854.37 Q1528.47 1851.89 1524.68 1851.89 Q1520.2 1851.89 1517.56 1854.94 Q1514.91 1857.97 1514.91 1863.15 L1514.91 1883.3 L1509.03 1883.3 L1509.03 1847.65 L1514.91 1847.65 L1514.91 1853.19 Q1516.92 1849.91 1519.72 1848.35 Q1522.52 1846.79 1526.37 1846.79 Q1530.25 1846.79 1532.96 1848.77 Q1535.7 1850.74 1537 1854.5 Z" fill="#000000" fill-rule="nonzero" fill-opacity="1" /><path clip-path="url(#clip910)" d="M1572.75 1847.65 L1578.6 1847.65 L1578.6 1883.3 L1572.75 1883.3 L1572.75 1847.65 M1572.75 1833.78 L1578.6 1833.78 L1578.6 1841.19 L1572.75 1841.19 L1572.75 1833.78 Z" fill="#000000" fill-rule="nonzero" fill-opacity="1" /><path clip-path="url(#clip910)" d="M1613.58 1848.7 L1613.58 1854.24 Q1611.1 1852.97 1608.43 1852.33 Q1605.75 1851.7 1602.89 1851.7 Q1598.53 1851.7 1596.33 1853.03 Q1594.17 1854.37 1594.17 1857.04 Q1594.17 1859.08 1595.73 1860.26 Q1597.29 1861.4 1602 1862.45 L1604 1862.9 Q1610.24 1864.24 1612.85 1866.69 Q1615.49 1869.11 1615.49 1873.47 Q1615.49 1878.43 1611.54 1881.33 Q1607.63 1884.22 1600.75 1884.22 Q1597.89 1884.22 1594.77 1883.65 Q1591.68 1883.11 1588.25 1882 L1588.25 1875.95 Q1591.49 1877.64 1594.64 1878.49 Q1597.79 1879.32 1600.88 1879.32 Q1605.02 1879.32 1607.25 1877.92 Q1609.48 1876.49 1609.48 1873.91 Q1609.48 1871.52 1607.85 1870.25 Q1606.26 1868.98 1600.82 1867.8 L1598.78 1867.32 Q1593.34 1866.18 1590.92 1863.82 Q1588.5 1861.43 1588.5 1857.3 Q1588.5 1852.27 1592.07 1849.53 Q1595.63 1846.79 1602.19 1846.79 Q1605.43 1846.79 1608.3 1847.27 Q1611.16 1847.75 1613.58 1848.7 Z" fill="#000000" fill-rule="nonzero" fill-opacity="1" /><path clip-path="url(#clip910)" d="M1647.54 1848.7 L1647.54 1854.24 Q1645.06 1852.97 1642.39 1852.33 Q1639.71 1851.7 1636.85 1851.7 Q1632.49 1851.7 1630.29 1853.03 Q1628.13 1854.37 1628.13 1857.04 Q1628.13 1859.08 1629.69 1860.26 Q1631.25 1861.4 1635.96 1862.45 L1637.96 1862.9 Q1644.2 1864.24 1646.81 1866.69 Q1649.45 1869.11 1649.45 1873.47 Q1649.45 1878.43 1645.51 1881.33 Q1641.59 1884.22 1634.72 1884.22 Q1631.85 1884.22 1628.73 1883.65 Q1625.64 1883.11 1622.21 1882 L1622.21 1875.95 Q1625.45 1877.64 1628.6 1878.49 Q1631.76 1879.32 1634.84 1879.32 Q1638.98 1879.32 1641.21 1877.92 Q1643.44 1876.49 1643.44 1873.91 Q1643.44 1871.52 1641.81 1870.25 Q1640.22 1868.98 1634.78 1867.8 L1632.74 1867.32 Q1627.3 1866.18 1624.88 1863.82 Q1622.46 1861.43 1622.46 1857.3 Q1622.46 1852.27 1626.03 1849.53 Q1629.59 1846.79 1636.15 1846.79 Q1639.39 1846.79 1642.26 1847.27 Q1645.12 1847.75 1647.54 1848.7 Z" fill="#000000" fill-rule="nonzero" fill-opacity="1" /><path clip-path="url(#clip910)" d="M1658.78 1847.65 L1664.63 1847.65 L1664.63 1883.3 L1658.78 1883.3 L1658.78 1847.65 M1658.78 1833.78 L1664.63 1833.78 L1664.63 1841.19 L1658.78 1841.19 L1658.78 1833.78 Z" fill="#000000" fill-rule="nonzero" fill-opacity="1" /><path clip-path="url(#clip910)" d="M1690.7 1851.76 Q1685.99 1851.76 1683.25 1855.45 Q1680.52 1859.11 1680.52 1865.51 Q1680.52 1871.91 1683.22 1875.6 Q1685.96 1879.26 1690.7 1879.26 Q1695.38 1879.26 1698.12 1875.57 Q1700.86 1871.87 1700.86 1865.51 Q1700.86 1859.17 1698.12 1855.48 Q1695.38 1851.76 1690.7 1851.76 M1690.7 1846.79 Q1698.34 1846.79 1702.7 1851.76 Q1707.06 1856.72 1707.06 1865.51 Q1707.06 1874.26 1702.7 1879.26 Q1698.34 1884.22 1690.7 1884.22 Q1683.03 1884.22 1678.67 1879.26 Q1674.34 1874.26 1674.34 1865.51 Q1674.34 1856.72 1678.67 1851.76 Q1683.03 1846.79 1690.7 1846.79 Z" fill="#000000" fill-rule="nonzero" fill-opacity="1" /><path clip-path="url(#clip910)" d="M1746.4 1861.78 L1746.4 1883.3 L1740.55 1883.3 L1740.55 1861.98 Q1740.55 1856.92 1738.57 1854.4 Q1736.6 1851.89 1732.65 1851.89 Q1727.91 1851.89 1725.17 1854.91 Q1722.44 1857.93 1722.44 1863.15 L1722.44 1883.3 L1716.55 1883.3 L1716.55 1847.65 L1722.44 1847.65 L1722.44 1853.19 Q1724.54 1849.98 1727.37 1848.39 Q1730.23 1846.79 1733.96 1846.79 Q1740.1 1846.79 1743.25 1850.61 Q1746.4 1854.4 1746.4 1861.78 Z" fill="#000000" fill-rule="nonzero" fill-opacity="1" /><path clip-path="url(#clip910)" d="M1799.46 1853.13 Q1798.47 1852.55 1797.3 1852.3 Q1796.15 1852.01 1794.75 1852.01 Q1789.78 1852.01 1787.11 1855.26 Q1784.47 1858.47 1784.47 1864.52 L1784.47 1883.3 L1778.58 1883.3 L1778.58 1847.65 L1784.47 1847.65 L1784.47 1853.19 Q1786.32 1849.94 1789.28 1848.39 Q1792.24 1846.79 1796.47 1846.79 Q1797.07 1846.79 1797.81 1846.89 Q1798.54 1846.95 1799.43 1847.11 L1799.46 1853.13 Z" fill="#000000" fill-rule="nonzero" fill-opacity="1" /><path clip-path="url(#clip910)" d="M1821.8 1865.38 Q1814.71 1865.38 1811.97 1867 Q1809.23 1868.63 1809.23 1872.54 Q1809.23 1875.66 1811.27 1877.51 Q1813.34 1879.32 1816.87 1879.32 Q1821.74 1879.32 1824.67 1875.88 Q1827.63 1872.42 1827.63 1866.69 L1827.63 1865.38 L1821.8 1865.38 M1833.49 1862.96 L1833.49 1883.3 L1827.63 1883.3 L1827.63 1877.89 Q1825.62 1881.14 1822.63 1882.7 Q1819.64 1884.22 1815.31 1884.22 Q1809.84 1884.22 1806.59 1881.17 Q1803.38 1878.08 1803.38 1872.92 Q1803.38 1866.91 1807.39 1863.85 Q1811.43 1860.8 1819.42 1860.8 L1827.63 1860.8 L1827.63 1860.23 Q1827.63 1856.18 1824.96 1853.99 Q1822.31 1851.76 1817.51 1851.76 Q1814.45 1851.76 1811.56 1852.49 Q1808.66 1853.22 1805.99 1854.69 L1805.99 1849.28 Q1809.2 1848.03 1812.22 1847.43 Q1815.25 1846.79 1818.11 1846.79 Q1825.85 1846.79 1829.67 1850.8 Q1833.49 1854.81 1833.49 1862.96 Z" fill="#000000" fill-rule="nonzero" fill-opacity="1" /><path clip-path="url(#clip910)" d="M1851.34 1837.53 L1851.34 1847.65 L1863.4 1847.65 L1863.4 1852.2 L1851.34 1852.2 L1851.34 1871.56 Q1851.34 1875.92 1852.52 1877.16 Q1853.73 1878.4 1857.39 1878.4 L1863.4 1878.4 L1863.4 1883.3 L1857.39 1883.3 Q1850.61 1883.3 1848.03 1880.79 Q1845.45 1878.24 1845.45 1871.56 L1845.45 1852.2 L1841.16 1852.2 L1841.16 1847.65 L1845.45 1847.65 L1845.45 1837.53 L1851.34 1837.53 Z" fill="#000000" fill-rule="nonzero" fill-opacity="1" /><path clip-path="url(#clip910)" d="M1901.6 1864.01 L1901.6 1866.88 L1874.67 1866.88 Q1875.05 1872.92 1878.3 1876.11 Q1881.58 1879.26 1887.4 1879.26 Q1890.78 1879.26 1893.93 1878.43 Q1897.11 1877.6 1900.23 1875.95 L1900.23 1881.49 Q1897.08 1882.82 1893.77 1883.52 Q1890.46 1884.22 1887.05 1884.22 Q1878.52 1884.22 1873.53 1879.26 Q1868.56 1874.29 1868.56 1865.83 Q1868.56 1857.07 1873.27 1851.95 Q1878.01 1846.79 1886.03 1846.79 Q1893.23 1846.79 1897.4 1851.44 Q1901.6 1856.06 1901.6 1864.01 M1895.74 1862.29 Q1895.68 1857.49 1893.04 1854.62 Q1890.43 1851.76 1886.1 1851.76 Q1881.2 1851.76 1878.24 1854.53 Q1875.31 1857.3 1874.86 1862.33 L1895.74 1862.29 Z" fill="#000000" fill-rule="nonzero" fill-opacity="1" /><path clip-path="url(#clip910)" d="M1910.29 1833.84 L1915.38 1833.84 Q1920.15 1841.35 1922.51 1848.54 Q1924.9 1855.74 1924.9 1862.84 Q1924.9 1869.96 1922.51 1877.19 Q1920.15 1884.41 1915.38 1891.89 L1910.29 1891.89 Q1914.52 1884.61 1916.59 1877.41 Q1918.69 1870.19 1918.69 1862.84 Q1918.69 1855.48 1916.59 1848.32 Q1914.52 1841.16 1910.29 1833.84 Z" fill="#000000" fill-rule="nonzero" fill-opacity="1" /><polyline clip-path="url(#clip910)" style="stroke:#000000; stroke-linecap:round; stroke-linejoin:round; stroke-width:4; stroke-opacity:1; fill:none" points="226.141,1734.12 226.141,127.792 "/>
<polyline clip-path="url(#clip910)" style="stroke:#000000; stroke-linecap:round; stroke-linejoin:round; stroke-width:4; stroke-opacity:1; fill:none" points="226.141,1688.65 245.038,1688.65 "/>
<polyline clip-path="url(#clip910)" style="stroke:#000000; stroke-linecap:round; stroke-linejoin:round; stroke-width:4; stroke-opacity:1; fill:none" points="226.141,1284.55 245.038,1284.55 "/>
<polyline clip-path="url(#clip910)" style="stroke:#000000; stroke-linecap:round; stroke-linejoin:round; stroke-width:4; stroke-opacity:1; fill:none" points="226.141,880.441 245.038,880.441 "/>
<polyline clip-path="url(#clip910)" style="stroke:#000000; stroke-linecap:round; stroke-linejoin:round; stroke-width:4; stroke-opacity:1; fill:none" points="226.141,476.334 245.038,476.334 "/>
<path clip-path="url(#clip910)" d="M128.645 1674.45 Q125.034 1674.45 123.205 1678.02 Q121.4 1681.56 121.4 1688.69 Q121.4 1695.8 123.205 1699.36 Q125.034 1702.9 128.645 1702.9 Q132.279 1702.9 134.085 1699.36 Q135.913 1695.8 135.913 1688.69 Q135.913 1681.56 134.085 1678.02 Q132.279 1674.45 128.645 1674.45 M128.645 1670.75 Q134.455 1670.75 137.511 1675.36 Q140.589 1679.94 140.589 1688.69 Q140.589 1697.42 137.511 1702.02 Q134.455 1706.61 128.645 1706.61 Q122.835 1706.61 119.756 1702.02 Q116.701 1697.42 116.701 1688.69 Q116.701 1679.94 119.756 1675.36 Q122.835 1670.75 128.645 1670.75 Z" fill="#000000" fill-rule="nonzero" fill-opacity="1" /><path clip-path="url(#clip910)" d="M148.807 1700.06 L153.691 1700.06 L153.691 1705.93 L148.807 1705.93 L148.807 1700.06 Z" fill="#000000" fill-rule="nonzero" fill-opacity="1" /><path clip-path="url(#clip910)" d="M173.876 1674.45 Q170.265 1674.45 168.436 1678.02 Q166.631 1681.56 166.631 1688.69 Q166.631 1695.8 168.436 1699.36 Q170.265 1702.9 173.876 1702.9 Q177.51 1702.9 179.316 1699.36 Q181.145 1695.8 181.145 1688.69 Q181.145 1681.56 179.316 1678.02 Q177.51 1674.45 173.876 1674.45 M173.876 1670.75 Q179.686 1670.75 182.742 1675.36 Q185.821 1679.94 185.821 1688.69 Q185.821 1697.42 182.742 1702.02 Q179.686 1706.61 173.876 1706.61 Q168.066 1706.61 164.987 1702.02 Q161.932 1697.42 161.932 1688.69 Q161.932 1679.94 164.987 1675.36 Q168.066 1670.75 173.876 1670.75 Z" fill="#000000" fill-rule="nonzero" fill-opacity="1" /><path clip-path="url(#clip910)" d="M130.242 1270.35 Q126.631 1270.35 124.802 1273.91 Q122.997 1277.45 122.997 1284.58 Q122.997 1291.69 124.802 1295.25 Q126.631 1298.8 130.242 1298.8 Q133.876 1298.8 135.682 1295.25 Q137.511 1291.69 137.511 1284.58 Q137.511 1277.45 135.682 1273.91 Q133.876 1270.35 130.242 1270.35 M130.242 1266.64 Q136.052 1266.64 139.108 1271.25 Q142.187 1275.83 142.187 1284.58 Q142.187 1293.31 139.108 1297.92 Q136.052 1302.5 130.242 1302.5 Q124.432 1302.5 121.353 1297.92 Q118.298 1293.31 118.298 1284.58 Q118.298 1275.83 121.353 1271.25 Q124.432 1266.64 130.242 1266.64 Z" fill="#000000" fill-rule="nonzero" fill-opacity="1" /><path clip-path="url(#clip910)" d="M150.404 1295.95 L155.288 1295.95 L155.288 1301.83 L150.404 1301.83 L150.404 1295.95 Z" fill="#000000" fill-rule="nonzero" fill-opacity="1" /><path clip-path="url(#clip910)" d="M169.501 1297.89 L185.821 1297.89 L185.821 1301.83 L163.876 1301.83 L163.876 1297.89 Q166.538 1295.14 171.122 1290.51 Q175.728 1285.86 176.909 1284.51 Q179.154 1281.99 180.034 1280.25 Q180.936 1278.49 180.936 1276.81 Q180.936 1274.05 178.992 1272.31 Q177.071 1270.58 173.969 1270.58 Q171.77 1270.58 169.316 1271.34 Q166.885 1272.11 164.108 1273.66 L164.108 1268.93 Q166.932 1267.8 169.385 1267.22 Q171.839 1266.64 173.876 1266.64 Q179.247 1266.64 182.441 1269.33 Q185.635 1272.01 185.635 1276.5 Q185.635 1278.63 184.825 1280.56 Q184.038 1282.45 181.932 1285.05 Q181.353 1285.72 178.251 1288.93 Q175.149 1292.13 169.501 1297.89 Z" fill="#000000" fill-rule="nonzero" fill-opacity="1" /><path clip-path="url(#clip910)" d="M128.159 866.24 Q124.548 866.24 122.719 869.805 Q120.913 873.346 120.913 880.476 Q120.913 887.582 122.719 891.147 Q124.548 894.689 128.159 894.689 Q131.793 894.689 133.599 891.147 Q135.427 887.582 135.427 880.476 Q135.427 873.346 133.599 869.805 Q131.793 866.24 128.159 866.24 M128.159 862.536 Q133.969 862.536 137.025 867.143 Q140.103 871.726 140.103 880.476 Q140.103 889.203 137.025 893.809 Q133.969 898.392 128.159 898.392 Q122.349 898.392 119.27 893.809 Q116.214 889.203 116.214 880.476 Q116.214 871.726 119.27 867.143 Q122.349 862.536 128.159 862.536 Z" fill="#000000" fill-rule="nonzero" fill-opacity="1" /><path clip-path="url(#clip910)" d="M148.321 891.842 L153.205 891.842 L153.205 897.721 L148.321 897.721 L148.321 891.842 Z" fill="#000000" fill-rule="nonzero" fill-opacity="1" /><path clip-path="url(#clip910)" d="M176.237 867.235 L164.432 885.684 L176.237 885.684 L176.237 867.235 M175.01 863.161 L180.89 863.161 L180.89 885.684 L185.821 885.684 L185.821 889.573 L180.89 889.573 L180.89 897.721 L176.237 897.721 L176.237 889.573 L160.636 889.573 L160.636 885.059 L175.01 863.161 Z" fill="#000000" fill-rule="nonzero" fill-opacity="1" /><path clip-path="url(#clip910)" d="M128.483 462.133 Q124.872 462.133 123.043 465.698 Q121.238 469.239 121.238 476.369 Q121.238 483.475 123.043 487.04 Q124.872 490.582 128.483 490.582 Q132.117 490.582 133.923 487.04 Q135.751 483.475 135.751 476.369 Q135.751 469.239 133.923 465.698 Q132.117 462.133 128.483 462.133 M128.483 458.429 Q134.293 458.429 137.349 463.036 Q140.427 467.619 140.427 476.369 Q140.427 485.096 137.349 489.702 Q134.293 494.286 128.483 494.286 Q122.673 494.286 119.594 489.702 Q116.539 485.096 116.539 476.369 Q116.539 467.619 119.594 463.036 Q122.673 458.429 128.483 458.429 Z" fill="#000000" fill-rule="nonzero" fill-opacity="1" /><path clip-path="url(#clip910)" d="M148.645 487.735 L153.529 487.735 L153.529 493.614 L148.645 493.614 L148.645 487.735 Z" fill="#000000" fill-rule="nonzero" fill-opacity="1" /><path clip-path="url(#clip910)" d="M174.293 474.471 Q171.145 474.471 169.293 476.624 Q167.464 478.776 167.464 482.526 Q167.464 486.253 169.293 488.429 Q171.145 490.582 174.293 490.582 Q177.441 490.582 179.27 488.429 Q181.122 486.253 181.122 482.526 Q181.122 478.776 179.27 476.624 Q177.441 474.471 174.293 474.471 M183.575 459.818 L183.575 464.077 Q181.816 463.244 180.01 462.804 Q178.228 462.364 176.469 462.364 Q171.839 462.364 169.385 465.489 Q166.955 468.614 166.608 474.934 Q167.973 472.92 170.034 471.855 Q172.094 470.767 174.571 470.767 Q179.779 470.767 182.788 473.938 Q185.821 477.087 185.821 482.526 Q185.821 487.85 182.672 491.068 Q179.524 494.286 174.293 494.286 Q168.297 494.286 165.126 489.702 Q161.955 485.096 161.955 476.369 Q161.955 468.175 165.844 463.314 Q169.733 458.429 176.284 458.429 Q178.043 458.429 179.825 458.777 Q181.631 459.124 183.575 459.818 Z" fill="#000000" fill-rule="nonzero" fill-opacity="1" /><path clip-path="url(#clip910)" d="M14.1184 1120.6 L14.1184 1090.56 L19.5293 1090.56 L19.5293 1114.18 L33.5975 1114.18 L33.5975 1091.55 L39.0084 1091.55 L39.0084 1114.18 L56.2276 1114.18 L56.2276 1089.99 L61.6384 1089.99 L61.6384 1120.6 L14.1184 1120.6 Z" fill="#000000" fill-rule="nonzero" fill-opacity="1" /><path clip-path="url(#clip910)" d="M40.1224 1050.04 L61.6384 1050.04 L61.6384 1055.9 L40.3133 1055.9 Q35.2526 1055.9 32.7381 1057.87 Q30.2237 1059.84 30.2237 1063.79 Q30.2237 1068.53 33.2474 1071.27 Q36.2711 1074.01 41.491 1074.01 L61.6384 1074.01 L61.6384 1079.9 L25.9905 1079.9 L25.9905 1074.01 L31.5287 1074.01 Q28.314 1071.91 26.7225 1069.07 Q25.1311 1066.21 25.1311 1062.49 Q25.1311 1056.34 28.9505 1053.19 Q32.7381 1050.04 40.1224 1050.04 Z" fill="#000000" fill-rule="nonzero" fill-opacity="1" /><path clip-path="url(#clip910)" d="M31.4013 1014.9 L12.1132 1014.9 L12.1132 1009.05 L61.6384 1009.05 L61.6384 1014.9 L56.2912 1014.9 Q59.4741 1016.75 61.0337 1019.58 Q62.5615 1022.38 62.5615 1026.33 Q62.5615 1032.79 57.4052 1036.86 Q52.249 1040.91 43.8463 1040.91 Q35.4436 1040.91 30.2873 1036.86 Q25.1311 1032.79 25.1311 1026.33 Q25.1311 1022.38 26.6907 1019.58 Q28.2185 1016.75 31.4013 1014.9 M43.8463 1034.86 Q50.3075 1034.86 53.9996 1032.22 Q57.6599 1029.54 57.6599 1024.9 Q57.6599 1020.25 53.9996 1017.58 Q50.3075 1014.9 43.8463 1014.9 Q37.3851 1014.9 33.7248 1017.58 Q30.0327 1020.25 30.0327 1024.9 Q30.0327 1029.54 33.7248 1032.22 Q37.3851 1034.86 43.8463 1034.86 Z" fill="#000000" fill-rule="nonzero" fill-opacity="1" /><path clip-path="url(#clip910)" d="M42.3504 966.491 L45.2149 966.491 L45.2149 993.418 Q51.2623 993.036 54.4452 989.79 Q57.5962 986.511 57.5962 980.687 Q57.5962 977.313 56.7687 974.162 Q55.9411 970.979 54.2861 967.86 L59.8242 967.86 Q61.161 971.011 61.8612 974.321 Q62.5615 977.631 62.5615 981.037 Q62.5615 989.567 57.5962 994.564 Q52.631 999.529 44.1646 999.529 Q35.4117 999.529 30.2873 994.819 Q25.1311 990.076 25.1311 982.055 Q25.1311 974.862 29.7781 970.692 Q34.3932 966.491 42.3504 966.491 M40.6316 972.348 Q35.8255 972.411 32.9609 975.053 Q30.0964 977.663 30.0964 981.992 Q30.0964 986.893 32.8654 989.853 Q35.6345 992.781 40.6634 993.227 L40.6316 972.348 Z" fill="#000000" fill-rule="nonzero" fill-opacity="1" /><path clip-path="url(#clip910)" d="M32.8336 929.124 Q28.8869 926.928 27.009 923.873 Q25.1311 920.817 25.1311 916.679 Q25.1311 911.109 29.046 908.086 Q32.9291 905.062 40.1224 905.062 L61.6384 905.062 L61.6384 910.95 L40.3133 910.95 Q35.1889 910.95 32.7063 912.765 Q30.2237 914.579 30.2237 918.303 Q30.2237 922.854 33.2474 925.496 Q36.2711 928.138 41.491 928.138 L61.6384 928.138 L61.6384 934.026 L40.3133 934.026 Q35.1571 934.026 32.7063 935.84 Q30.2237 937.654 30.2237 941.442 Q30.2237 945.93 33.2792 948.572 Q36.3029 951.213 41.491 951.213 L61.6384 951.213 L61.6384 957.102 L25.9905 957.102 L25.9905 951.213 L31.5287 951.213 Q28.2503 949.208 26.6907 946.407 Q25.1311 943.606 25.1311 939.755 Q25.1311 935.872 27.1045 933.167 Q29.0779 930.429 32.8336 929.124 Z" fill="#000000" fill-rule="nonzero" fill-opacity="1" /><path clip-path="url(#clip910)" d="M25.9905 893.381 L25.9905 887.525 L61.6384 887.525 L61.6384 893.381 L25.9905 893.381 M12.1132 893.381 L12.1132 887.525 L19.5293 887.525 L19.5293 893.381 L12.1132 893.381 Z" fill="#000000" fill-rule="nonzero" fill-opacity="1" /><path clip-path="url(#clip910)" d="M27.3591 849.617 L32.8336 849.617 Q31.465 852.099 30.7966 854.614 Q30.0964 857.096 30.0964 859.643 Q30.0964 865.34 33.7248 868.491 Q37.3214 871.642 43.8463 871.642 Q50.3711 871.642 53.9996 868.491 Q57.5962 865.34 57.5962 859.643 Q57.5962 857.096 56.9278 854.614 Q56.2276 852.099 54.859 849.617 L60.2698 849.617 Q61.4156 852.068 61.9886 854.709 Q62.5615 857.319 62.5615 860.279 Q62.5615 868.332 57.5007 873.074 Q52.44 877.817 43.8463 877.817 Q35.1253 877.817 30.1282 873.043 Q25.1311 868.236 25.1311 859.897 Q25.1311 857.192 25.704 854.614 Q26.2451 852.036 27.3591 849.617 Z" fill="#000000" fill-rule="nonzero" fill-opacity="1" /><path clip-path="url(#clip910)" d="M14.1184 818.457 L14.1184 812.027 L61.6384 812.027 L61.6384 818.457 L14.1184 818.457 Z" fill="#000000" fill-rule="nonzero" fill-opacity="1" /><path clip-path="url(#clip910)" d="M14.1184 789.079 L14.1184 783.668 L67.6859 800.219 L67.6859 805.63 L14.1184 789.079 Z" fill="#000000" fill-rule="nonzero" fill-opacity="1" /><path clip-path="url(#clip910)" d="M14.1184 777.27 L14.1184 768.613 L53.8723 747.543 L14.1184 747.543 L14.1184 741.304 L61.6384 741.304 L61.6384 749.962 L21.8846 771.032 L61.6384 771.032 L61.6384 777.27 L14.1184 777.27 Z" fill="#000000" fill-rule="nonzero" fill-opacity="1" /><path clip-path="url(#clip910)" d="M624.827 44.2197 Q627.46 45.1109 629.931 48.0275 Q632.443 50.9442 634.954 56.0483 L643.259 72.576 L634.468 72.576 L626.731 57.061 Q623.733 50.9847 620.898 48.9997 Q618.102 47.0148 613.241 47.0148 L604.329 47.0148 L604.329 72.576 L596.147 72.576 L596.147 12.096 L614.619 12.096 Q624.989 12.096 630.093 16.4305 Q635.197 20.7649 635.197 29.5149 Q635.197 35.2267 632.524 38.994 Q629.891 42.7613 624.827 44.2197 M604.329 18.8205 L604.329 40.2903 L614.619 40.2903 Q620.533 40.2903 623.531 37.5762 Q626.569 34.8216 626.569 29.5149 Q626.569 24.2082 623.531 21.5346 Q620.533 18.8205 614.619 18.8205 L604.329 18.8205 Z" fill="#000000" fill-rule="nonzero" fill-opacity="1" /><path clip-path="url(#clip910)" d="M688.548 48.0275 L688.548 51.6733 L654.277 51.6733 Q654.763 59.3701 658.895 63.421 Q663.068 67.4314 670.481 67.4314 Q674.775 67.4314 678.785 66.3781 Q682.836 65.3249 686.806 63.2184 L686.806 70.267 Q682.795 71.9684 678.582 72.8596 Q674.37 73.7508 670.035 73.7508 Q659.179 73.7508 652.819 67.4314 Q646.499 61.1119 646.499 50.3365 Q646.499 39.1965 652.495 32.6746 Q658.531 26.1121 668.739 26.1121 Q677.894 26.1121 683.201 32.0264 Q688.548 37.9003 688.548 48.0275 M681.094 45.84 Q681.013 39.7232 677.651 36.0774 Q674.329 32.4315 668.82 32.4315 Q662.581 32.4315 658.814 35.9558 Q655.087 39.4801 654.52 45.8805 L681.094 45.84 Z" fill="#000000" fill-rule="nonzero" fill-opacity="1" /><path clip-path="url(#clip910)" d="M707.992 65.7705 L707.992 89.8329 L700.498 89.8329 L700.498 27.2059 L707.992 27.2059 L707.992 34.0924 Q710.342 30.0415 713.906 28.0971 Q717.512 26.1121 722.494 26.1121 Q730.758 26.1121 735.903 32.6746 Q741.088 39.2371 741.088 49.9314 Q741.088 60.6258 735.903 67.1883 Q730.758 73.7508 722.494 73.7508 Q717.512 73.7508 713.906 71.8063 Q710.342 69.8214 707.992 65.7705 M733.351 49.9314 Q733.351 41.7081 729.948 37.0496 Q726.586 32.3505 720.671 32.3505 Q714.757 32.3505 711.354 37.0496 Q707.992 41.7081 707.992 49.9314 Q707.992 58.1548 711.354 62.8538 Q714.757 67.5124 720.671 67.5124 Q726.586 67.5124 729.948 62.8538 Q733.351 58.1548 733.351 49.9314 Z" fill="#000000" fill-rule="nonzero" fill-opacity="1" /><path clip-path="url(#clip910)" d="M779.734 34.1734 Q778.478 33.4443 776.979 33.1202 Q775.521 32.7556 773.738 32.7556 Q767.419 32.7556 764.016 36.8875 Q760.654 40.9789 760.654 48.6757 L760.654 72.576 L753.16 72.576 L753.16 27.2059 L760.654 27.2059 L760.654 34.2544 Q763.003 30.1225 766.771 28.1376 Q770.538 26.1121 775.926 26.1121 Q776.695 26.1121 777.627 26.2337 Q778.559 26.3147 779.693 26.5172 L779.734 34.1734 Z" fill="#000000" fill-rule="nonzero" fill-opacity="1" /><path clip-path="url(#clip910)" d="M803.31 32.4315 Q797.314 32.4315 793.831 37.1306 Q790.347 41.7891 790.347 49.9314 Q790.347 58.0738 793.79 62.7728 Q797.274 67.4314 803.31 67.4314 Q809.265 67.4314 812.748 62.7323 Q816.232 58.0333 816.232 49.9314 Q816.232 41.8701 812.748 37.1711 Q809.265 32.4315 803.31 32.4315 M803.31 26.1121 Q813.032 26.1121 818.582 32.4315 Q824.131 38.7509 824.131 49.9314 Q824.131 61.0714 818.582 67.4314 Q813.032 73.7508 803.31 73.7508 Q793.547 73.7508 787.997 67.4314 Q782.488 61.0714 782.488 49.9314 Q782.488 38.7509 787.997 32.4315 Q793.547 26.1121 803.31 26.1121 Z" fill="#000000" fill-rule="nonzero" fill-opacity="1" /><path clip-path="url(#clip910)" d="M866.342 34.0924 L866.342 9.54393 L873.796 9.54393 L873.796 72.576 L866.342 72.576 L866.342 65.7705 Q863.992 69.8214 860.387 71.8063 Q856.822 73.7508 851.799 73.7508 Q843.576 73.7508 838.391 67.1883 Q833.246 60.6258 833.246 49.9314 Q833.246 39.2371 838.391 32.6746 Q843.576 26.1121 851.799 26.1121 Q856.822 26.1121 860.387 28.0971 Q863.992 30.0415 866.342 34.0924 M840.943 49.9314 Q840.943 58.1548 844.305 62.8538 Q847.708 67.5124 853.622 67.5124 Q859.536 67.5124 862.939 62.8538 Q866.342 58.1548 866.342 49.9314 Q866.342 41.7081 862.939 37.0496 Q859.536 32.3505 853.622 32.3505 Q847.708 32.3505 844.305 37.0496 Q840.943 41.7081 840.943 49.9314 Z" fill="#000000" fill-rule="nonzero" fill-opacity="1" /><path clip-path="url(#clip910)" d="M888.379 54.671 L888.379 27.2059 L895.832 27.2059 L895.832 54.3874 Q895.832 60.8284 898.344 64.0691 Q900.856 67.2693 905.879 67.2693 Q911.915 67.2693 915.398 63.421 Q918.923 59.5726 918.923 52.9291 L918.923 27.2059 L926.376 27.2059 L926.376 72.576 L918.923 72.576 L918.923 65.6084 Q916.209 69.7404 912.603 71.7658 Q909.038 73.7508 904.299 73.7508 Q896.481 73.7508 892.43 68.8897 Q888.379 64.0286 888.379 54.671 M907.134 26.1121 L907.134 26.1121 Z" fill="#000000" fill-rule="nonzero" fill-opacity="1" /><path clip-path="url(#clip910)" d="M974.38 28.9478 L974.38 35.9153 Q971.22 34.1734 968.02 33.3227 Q964.86 32.4315 961.619 32.4315 Q954.368 32.4315 950.358 37.0496 Q946.347 41.6271 946.347 49.9314 Q946.347 58.2358 950.358 62.8538 Q954.368 67.4314 961.619 67.4314 Q964.86 67.4314 968.02 66.5807 Q971.22 65.6895 974.38 63.9476 L974.38 70.8341 Q971.26 72.2924 967.898 73.0216 Q964.576 73.7508 960.809 73.7508 Q950.56 73.7508 944.524 67.3098 Q938.488 60.8689 938.488 49.9314 Q938.488 38.832 944.565 32.472 Q950.682 26.1121 961.295 26.1121 Q964.738 26.1121 968.02 26.8413 Q971.301 27.5299 974.38 28.9478 Z" fill="#000000" fill-rule="nonzero" fill-opacity="1" /><path clip-path="url(#clip910)" d="M994.715 14.324 L994.715 27.2059 L1010.07 27.2059 L1010.07 32.9987 L994.715 32.9987 L994.715 57.6282 Q994.715 63.1779 996.214 64.7578 Q997.753 66.3376 1002.41 66.3376 L1010.07 66.3376 L1010.07 72.576 L1002.41 72.576 Q993.783 72.576 990.502 69.3758 Q987.221 66.1351 987.221 57.6282 L987.221 32.9987 L981.752 32.9987 L981.752 27.2059 L987.221 27.2059 L987.221 14.324 L994.715 14.324 Z" fill="#000000" fill-rule="nonzero" fill-opacity="1" /><path clip-path="url(#clip910)" d="M1019.87 27.2059 L1027.32 27.2059 L1027.32 72.576 L1019.87 72.576 L1019.87 27.2059 M1019.87 9.54393 L1027.32 9.54393 L1027.32 18.9825 L1019.87 18.9825 L1019.87 9.54393 Z" fill="#000000" fill-rule="nonzero" fill-opacity="1" /><path clip-path="url(#clip910)" d="M1060.5 32.4315 Q1054.51 32.4315 1051.02 37.1306 Q1047.54 41.7891 1047.54 49.9314 Q1047.54 58.0738 1050.98 62.7728 Q1054.47 67.4314 1060.5 67.4314 Q1066.46 67.4314 1069.94 62.7323 Q1073.42 58.0333 1073.42 49.9314 Q1073.42 41.8701 1069.94 37.1711 Q1066.46 32.4315 1060.5 32.4315 M1060.5 26.1121 Q1070.22 26.1121 1075.77 32.4315 Q1081.32 38.7509 1081.32 49.9314 Q1081.32 61.0714 1075.77 67.4314 Q1070.22 73.7508 1060.5 73.7508 Q1050.74 73.7508 1045.19 67.4314 Q1039.68 61.0714 1039.68 49.9314 Q1039.68 38.7509 1045.19 32.4315 Q1050.74 26.1121 1060.5 26.1121 Z" fill="#000000" fill-rule="nonzero" fill-opacity="1" /><path clip-path="url(#clip910)" d="M1131.39 45.1919 L1131.39 72.576 L1123.94 72.576 L1123.94 45.4349 Q1123.94 38.994 1121.43 35.7938 Q1118.92 32.5936 1113.89 32.5936 Q1107.86 32.5936 1104.37 36.4419 Q1100.89 40.2903 1100.89 46.9338 L1100.89 72.576 L1093.4 72.576 L1093.4 27.2059 L1100.89 27.2059 L1100.89 34.2544 Q1103.56 30.163 1107.17 28.1376 Q1110.81 26.1121 1115.55 26.1121 Q1123.37 26.1121 1127.38 30.9732 Q1131.39 35.7938 1131.39 45.1919 Z" fill="#000000" fill-rule="nonzero" fill-opacity="1" /><path clip-path="url(#clip910)" d="M1190.21 32.4315 Q1184.22 32.4315 1180.73 37.1306 Q1177.25 41.7891 1177.25 49.9314 Q1177.25 58.0738 1180.69 62.7728 Q1184.18 67.4314 1190.21 67.4314 Q1196.17 67.4314 1199.65 62.7323 Q1203.13 58.0333 1203.13 49.9314 Q1203.13 41.8701 1199.65 37.1711 Q1196.17 32.4315 1190.21 32.4315 M1190.21 26.1121 Q1199.93 26.1121 1205.48 32.4315 Q1211.03 38.7509 1211.03 49.9314 Q1211.03 61.0714 1205.48 67.4314 Q1199.93 73.7508 1190.21 73.7508 Q1180.45 73.7508 1174.9 67.4314 Q1169.39 61.0714 1169.39 49.9314 Q1169.39 38.7509 1174.9 32.4315 Q1180.45 26.1121 1190.21 26.1121 Z" fill="#000000" fill-rule="nonzero" fill-opacity="1" /><path clip-path="url(#clip910)" d="M1246.36 9.54393 L1246.36 15.7418 L1239.23 15.7418 Q1235.22 15.7418 1233.64 17.3622 Q1232.1 18.9825 1232.1 23.1955 L1232.1 27.2059 L1244.37 27.2059 L1244.37 32.9987 L1232.1 32.9987 L1232.1 72.576 L1224.6 72.576 L1224.6 32.9987 L1217.47 32.9987 L1217.47 27.2059 L1224.6 27.2059 L1224.6 24.0462 Q1224.6 16.471 1228.13 13.0277 Q1231.65 9.54393 1239.31 9.54393 L1246.36 9.54393 Z" fill="#000000" fill-rule="nonzero" fill-opacity="1" /><path clip-path="url(#clip910)" d="M1286.18 65.7705 L1286.18 89.8329 L1278.68 89.8329 L1278.68 27.2059 L1286.18 27.2059 L1286.18 34.0924 Q1288.53 30.0415 1292.09 28.0971 Q1295.7 26.1121 1300.68 26.1121 Q1308.94 26.1121 1314.09 32.6746 Q1319.27 39.2371 1319.27 49.9314 Q1319.27 60.6258 1314.09 67.1883 Q1308.94 73.7508 1300.68 73.7508 Q1295.7 73.7508 1292.09 71.8063 Q1288.53 69.8214 1286.18 65.7705 M1311.54 49.9314 Q1311.54 41.7081 1308.13 37.0496 Q1304.77 32.3505 1298.86 32.3505 Q1292.94 32.3505 1289.54 37.0496 Q1286.18 41.7081 1286.18 49.9314 Q1286.18 58.1548 1289.54 62.8538 Q1292.94 67.5124 1298.86 67.5124 Q1304.77 67.5124 1308.13 62.8538 Q1311.54 58.1548 1311.54 49.9314 Z" fill="#000000" fill-rule="nonzero" fill-opacity="1" /><path clip-path="url(#clip910)" d="M1352.25 49.7694 Q1343.21 49.7694 1339.73 51.8354 Q1336.25 53.9013 1336.25 58.8839 Q1336.25 62.8538 1338.84 65.2034 Q1341.47 67.5124 1345.97 67.5124 Q1352.17 67.5124 1355.89 63.1374 Q1359.66 58.7219 1359.66 51.4303 L1359.66 49.7694 L1352.25 49.7694 M1367.11 46.6907 L1367.11 72.576 L1359.66 72.576 L1359.66 65.6895 Q1357.11 69.8214 1353.3 71.8063 Q1349.49 73.7508 1343.98 73.7508 Q1337.02 73.7508 1332.88 69.8619 Q1328.79 65.9325 1328.79 59.3701 Q1328.79 51.7138 1333.9 47.825 Q1339.04 43.9361 1349.21 43.9361 L1359.66 43.9361 L1359.66 43.2069 Q1359.66 38.0623 1356.26 35.2672 Q1352.9 32.4315 1346.78 32.4315 Q1342.89 32.4315 1339.2 33.3632 Q1335.52 34.295 1332.11 36.1584 L1332.11 29.2718 Q1336.21 27.692 1340.05 26.9223 Q1343.9 26.1121 1347.55 26.1121 Q1357.39 26.1121 1362.25 31.2163 Q1367.11 36.3204 1367.11 46.6907 Z" fill="#000000" fill-rule="nonzero" fill-opacity="1" /><path clip-path="url(#clip910)" d="M1389.68 65.7705 L1389.68 89.8329 L1382.18 89.8329 L1382.18 27.2059 L1389.68 27.2059 L1389.68 34.0924 Q1392.03 30.0415 1395.59 28.0971 Q1399.2 26.1121 1404.18 26.1121 Q1412.44 26.1121 1417.59 32.6746 Q1422.77 39.2371 1422.77 49.9314 Q1422.77 60.6258 1417.59 67.1883 Q1412.44 73.7508 1404.18 73.7508 Q1399.2 73.7508 1395.59 71.8063 Q1392.03 69.8214 1389.68 65.7705 M1415.04 49.9314 Q1415.04 41.7081 1411.63 37.0496 Q1408.27 32.3505 1402.36 32.3505 Q1396.44 32.3505 1393.04 37.0496 Q1389.68 41.7081 1389.68 49.9314 Q1389.68 58.1548 1393.04 62.8538 Q1396.44 67.5124 1402.36 67.5124 Q1408.27 67.5124 1411.63 62.8538 Q1415.04 58.1548 1415.04 49.9314 Z" fill="#000000" fill-rule="nonzero" fill-opacity="1" /><path clip-path="url(#clip910)" d="M1473.94 48.0275 L1473.94 51.6733 L1439.67 51.6733 Q1440.15 59.3701 1444.28 63.421 Q1448.46 67.4314 1455.87 67.4314 Q1460.16 67.4314 1464.17 66.3781 Q1468.23 65.3249 1472.2 63.2184 L1472.2 70.267 Q1468.18 71.9684 1463.97 72.8596 Q1459.76 73.7508 1455.42 73.7508 Q1444.57 73.7508 1438.21 67.4314 Q1431.89 61.1119 1431.89 50.3365 Q1431.89 39.1965 1437.88 32.6746 Q1443.92 26.1121 1454.13 26.1121 Q1463.28 26.1121 1468.59 32.0264 Q1473.94 37.9003 1473.94 48.0275 M1466.48 45.84 Q1466.4 39.7232 1463.04 36.0774 Q1459.72 32.4315 1454.21 32.4315 Q1447.97 32.4315 1444.2 35.9558 Q1440.48 39.4801 1439.91 45.8805 L1466.48 45.84 Z" fill="#000000" fill-rule="nonzero" fill-opacity="1" /><path clip-path="url(#clip910)" d="M1512.46 34.1734 Q1511.21 33.4443 1509.71 33.1202 Q1508.25 32.7556 1506.47 32.7556 Q1500.15 32.7556 1496.74 36.8875 Q1493.38 40.9789 1493.38 48.6757 L1493.38 72.576 L1485.89 72.576 L1485.89 27.2059 L1493.38 27.2059 L1493.38 34.2544 Q1495.73 30.1225 1499.5 28.1376 Q1503.27 26.1121 1508.65 26.1121 Q1509.42 26.1121 1510.35 26.2337 Q1511.29 26.3147 1512.42 26.5172 L1512.46 34.1734 Z" fill="#000000" fill-rule="nonzero" fill-opacity="1" /><path clip-path="url(#clip910)" d="M1546.97 12.096 L1581.73 12.096 L1581.73 18.9825 L1555.16 18.9825 L1555.16 36.8065 L1579.14 36.8065 L1579.14 43.6931 L1555.16 43.6931 L1555.16 72.576 L1546.97 72.576 L1546.97 12.096 Z" fill="#000000" fill-rule="nonzero" fill-opacity="1" /><path clip-path="url(#clip910)" d="M1588.33 27.2059 L1595.79 27.2059 L1595.79 72.576 L1588.33 72.576 L1588.33 27.2059 M1588.33 9.54393 L1595.79 9.54393 L1595.79 18.9825 L1588.33 18.9825 L1588.33 9.54393 Z" fill="#000000" fill-rule="nonzero" fill-opacity="1" /><path clip-path="url(#clip910)" d="M1641.24 49.3643 Q1641.24 41.2625 1637.88 36.8065 Q1634.56 32.3505 1628.52 32.3505 Q1622.52 32.3505 1619.16 36.8065 Q1615.84 41.2625 1615.84 49.3643 Q1615.84 57.4256 1619.16 61.8816 Q1622.52 66.3376 1628.52 66.3376 Q1634.56 66.3376 1637.88 61.8816 Q1641.24 57.4256 1641.24 49.3643 M1648.69 66.9452 Q1648.69 78.5308 1643.55 84.1616 Q1638.4 89.8329 1627.79 89.8329 Q1623.86 89.8329 1620.38 89.2252 Q1616.89 88.6581 1613.61 87.4428 L1613.61 80.1917 Q1616.89 81.9741 1620.09 82.8248 Q1623.29 83.6755 1626.62 83.6755 Q1633.95 83.6755 1637.59 79.8271 Q1641.24 76.0193 1641.24 68.282 L1641.24 64.5957 Q1638.93 68.6061 1635.33 70.5911 Q1631.72 72.576 1626.7 72.576 Q1618.35 72.576 1613.25 66.2161 Q1608.14 59.8562 1608.14 49.3643 Q1608.14 38.832 1613.25 32.472 Q1618.35 26.1121 1626.7 26.1121 Q1631.72 26.1121 1635.33 28.0971 Q1638.93 30.082 1641.24 34.0924 L1641.24 27.2059 L1648.69 27.2059 L1648.69 66.9452 Z" fill="#000000" fill-rule="nonzero" fill-opacity="1" /><path clip-path="url(#clip910)" d="M1691.55 12.096 L1723.68 12.096 L1723.68 18.9825 L1699.05 18.9825 L1699.05 33.8088 Q1700.83 33.2012 1702.61 32.9176 Q1704.39 32.5936 1706.18 32.5936 Q1716.3 32.5936 1722.22 38.1433 Q1728.13 43.6931 1728.13 53.1722 Q1728.13 62.9348 1722.05 68.3631 Q1715.98 73.7508 1704.92 73.7508 Q1701.11 73.7508 1697.14 73.1026 Q1693.21 72.4545 1689 71.1582 L1689 62.9348 Q1692.65 64.9198 1696.53 65.892 Q1700.42 66.8642 1704.76 66.8642 Q1711.77 66.8642 1715.86 63.1779 Q1719.95 59.4916 1719.95 53.1722 Q1719.95 46.8528 1715.86 43.1664 Q1711.77 39.4801 1704.76 39.4801 Q1701.48 39.4801 1698.2 40.2093 Q1694.95 40.9384 1691.55 42.4778 L1691.55 12.096 Z" fill="#000000" fill-rule="nonzero" fill-opacity="1" /><path clip-path="url(#clip910)" d="M1751.71 43.6931 L1751.71 65.8515 L1764.83 65.8515 Q1771.44 65.8515 1774.6 63.1374 Q1777.8 60.3828 1777.8 54.752 Q1777.8 49.0808 1774.6 46.4072 Q1771.44 43.6931 1764.83 43.6931 L1751.71 43.6931 M1751.71 18.8205 L1751.71 37.0496 L1763.82 37.0496 Q1769.82 37.0496 1772.73 34.8216 Q1775.69 32.5531 1775.69 27.935 Q1775.69 23.3575 1772.73 21.089 Q1769.82 18.8205 1763.82 18.8205 L1751.71 18.8205 M1743.52 12.096 L1764.43 12.096 Q1773.78 12.096 1778.85 15.9849 Q1783.91 19.8737 1783.91 27.0438 Q1783.91 32.5936 1781.32 35.8748 Q1778.73 39.156 1773.7 39.9662 Q1779.74 41.2625 1783.06 45.3944 Q1786.42 49.4858 1786.42 55.6432 Q1786.42 63.745 1780.91 68.1605 Q1775.41 72.576 1765.24 72.576 L1743.52 72.576 L1743.52 12.096 Z" fill="#000000" fill-rule="nonzero" fill-opacity="1" /><path clip-path="url(#clip910)" d="M1844.39 9.62495 Q1838.96 18.942 1836.33 28.0566 Q1833.7 37.1711 1833.7 46.5287 Q1833.7 55.8863 1836.33 65.0818 Q1839 74.2369 1844.39 83.5134 L1837.91 83.5134 Q1831.83 73.9938 1828.8 64.7983 Q1825.8 55.6027 1825.8 46.5287 Q1825.8 37.4952 1828.8 28.3401 Q1831.79 19.1851 1837.91 9.62495 L1844.39 9.62495 Z" fill="#000000" fill-rule="nonzero" fill-opacity="1" /><path clip-path="url(#clip910)" d="M1858.57 9.54393 L1866.06 9.54393 L1866.06 46.7717 L1888.3 27.2059 L1897.82 27.2059 L1873.76 48.4326 L1898.84 72.576 L1889.11 72.576 L1866.06 50.4176 L1866.06 72.576 L1858.57 72.576 L1858.57 9.54393 Z" fill="#000000" fill-rule="nonzero" fill-opacity="1" /><path clip-path="url(#clip910)" d="M1907.87 34.9026 L1959.8 34.9026 L1959.8 41.7081 L1907.87 41.7081 L1907.87 34.9026 M1907.87 51.4303 L1959.8 51.4303 L1959.8 58.3168 L1907.87 58.3168 L1907.87 51.4303 Z" fill="#000000" fill-rule="nonzero" fill-opacity="1" /><path clip-path="url(#clip910)" d="M2002.26 39.9662 Q2008.13 41.222 2011.41 45.1919 Q2014.73 49.1618 2014.73 54.9951 Q2014.73 63.9476 2008.58 68.8492 Q2002.42 73.7508 1991.08 73.7508 Q1987.27 73.7508 1983.22 72.9811 Q1979.21 72.2519 1974.91 70.7531 L1974.91 62.8538 Q1978.32 64.8388 1982.37 65.8515 Q1986.42 66.8642 1990.83 66.8642 Q1998.53 66.8642 2002.54 63.826 Q2006.59 60.7879 2006.59 54.9951 Q2006.59 49.6479 2002.82 46.6502 Q1999.1 43.612 1992.41 43.612 L1985.36 43.612 L1985.36 36.8875 L1992.74 36.8875 Q1998.77 36.8875 2001.97 34.4975 Q2005.17 32.067 2005.17 27.5299 Q2005.17 22.8714 2001.85 20.4004 Q1998.57 17.8888 1992.41 17.8888 Q1989.05 17.8888 1985.2 18.618 Q1981.35 19.3471 1976.74 20.8865 L1976.74 13.5948 Q1981.39 12.2985 1985.44 11.6504 Q1989.54 11.0023 1993.14 11.0023 Q2002.46 11.0023 2007.89 15.2557 Q2013.31 19.4686 2013.31 26.6793 Q2013.31 31.7024 2010.44 35.1862 Q2007.56 38.6294 2002.26 39.9662 Z" fill="#000000" fill-rule="nonzero" fill-opacity="1" /><path clip-path="url(#clip910)" d="M2031.1 62.2867 L2039.65 62.2867 L2039.65 69.2543 L2033 82.2172 L2027.78 82.2172 L2031.1 69.2543 L2031.1 62.2867 Z" fill="#000000" fill-rule="nonzero" fill-opacity="1" /><path clip-path="url(#clip910)" d="M2088.74 34.3355 L2098.67 62.3677 L2112.85 27.2059 L2120.74 27.2059 L2102.39 72.576 L2102.39 89.8329 L2094.94 89.8329 L2094.94 72.576 L2083.03 38.7104 Q2081.25 33.6063 2077.4 33.6063 L2075.42 33.6063 L2075.42 27.2059 L2078.25 27.2059 Q2086.23 27.2059 2088.74 34.3355 Z" fill="#000000" fill-rule="nonzero" fill-opacity="1" /><path clip-path="url(#clip910)" d="M2132.01 34.9026 L2183.94 34.9026 L2183.94 41.7081 L2132.01 41.7081 L2132.01 34.9026 M2132.01 51.4303 L2183.94 51.4303 L2183.94 58.3168 L2132.01 58.3168 L2132.01 51.4303 Z" fill="#000000" fill-rule="nonzero" fill-opacity="1" /><path clip-path="url(#clip910)" d="M2203.02 65.6895 L2216.39 65.6895 L2216.39 19.5497 L2201.84 22.4663 L2201.84 15.0127 L2216.31 12.096 L2224.49 12.096 L2224.49 65.6895 L2237.86 65.6895 L2237.86 72.576 L2203.02 72.576 L2203.02 65.6895 Z" fill="#000000" fill-rule="nonzero" fill-opacity="1" /><path clip-path="url(#clip910)" d="M2252.16 9.62495 L2258.64 9.62495 Q2264.71 19.1851 2267.71 28.3401 Q2270.75 37.4952 2270.75 46.5287 Q2270.75 55.6027 2267.71 64.7983 Q2264.71 73.9938 2258.64 83.5134 L2252.16 83.5134 Q2257.54 74.2369 2260.18 65.0818 Q2262.85 55.8863 2262.85 46.5287 Q2262.85 37.1711 2260.18 28.0566 Q2257.54 18.942 2252.16 9.62495 Z" fill="#000000" fill-rule="nonzero" fill-opacity="1" /><polyline clip-path="url(#clip911)" style="stroke:#00008b; stroke-linecap:round; stroke-linejoin:round; stroke-width:10; stroke-opacity:1; fill:none" points="294.479,1688.65 501.564,1688.64 708.649,1326.84 915.735,989.255 1122.82,767.451 1329.91,610.224 1536.99,492.782 1744.08,401.632 1951.16,328.783 2158.25,269.198 2365.33,219.539 2572.42,177.505 "/>
<circle clip-path="url(#clip911)" cx="294.479" cy="1688.65" r="14.4" fill="#00008b" fill-rule="evenodd" fill-opacity="1" stroke="#000000" stroke-opacity="1" stroke-width="3.84"/>
<circle clip-path="url(#clip911)" cx="501.564" cy="1688.64" r="14.4" fill="#00008b" fill-rule="evenodd" fill-opacity="1" stroke="#000000" stroke-opacity="1" stroke-width="3.84"/>
<circle clip-path="url(#clip911)" cx="708.649" cy="1326.84" r="14.4" fill="#00008b" fill-rule="evenodd" fill-opacity="1" stroke="#000000" stroke-opacity="1" stroke-width="3.84"/>
<circle clip-path="url(#clip911)" cx="915.735" cy="989.255" r="14.4" fill="#00008b" fill-rule="evenodd" fill-opacity="1" stroke="#000000" stroke-opacity="1" stroke-width="3.84"/>
<circle clip-path="url(#clip911)" cx="1122.82" cy="767.451" r="14.4" fill="#00008b" fill-rule="evenodd" fill-opacity="1" stroke="#000000" stroke-opacity="1" stroke-width="3.84"/>
<circle clip-path="url(#clip911)" cx="1329.91" cy="610.224" r="14.4" fill="#00008b" fill-rule="evenodd" fill-opacity="1" stroke="#000000" stroke-opacity="1" stroke-width="3.84"/>
<circle clip-path="url(#clip911)" cx="1536.99" cy="492.782" r="14.4" fill="#00008b" fill-rule="evenodd" fill-opacity="1" stroke="#000000" stroke-opacity="1" stroke-width="3.84"/>
<circle clip-path="url(#clip911)" cx="1744.08" cy="401.632" r="14.4" fill="#00008b" fill-rule="evenodd" fill-opacity="1" stroke="#000000" stroke-opacity="1" stroke-width="3.84"/>
<circle clip-path="url(#clip911)" cx="1951.16" cy="328.783" r="14.4" fill="#00008b" fill-rule="evenodd" fill-opacity="1" stroke="#000000" stroke-opacity="1" stroke-width="3.84"/>
<circle clip-path="url(#clip911)" cx="2158.25" cy="269.198" r="14.4" fill="#00008b" fill-rule="evenodd" fill-opacity="1" stroke="#000000" stroke-opacity="1" stroke-width="3.84"/>
<circle clip-path="url(#clip911)" cx="2365.33" cy="219.539" r="14.4" fill="#00008b" fill-rule="evenodd" fill-opacity="1" stroke="#000000" stroke-opacity="1" stroke-width="3.84"/>
<circle clip-path="url(#clip911)" cx="2572.42" cy="177.505" r="14.4" fill="#00008b" fill-rule="evenodd" fill-opacity="1" stroke="#000000" stroke-opacity="1" stroke-width="3.84"/>
<polyline clip-path="url(#clip911)" style="stroke:#808080; stroke-linecap:round; stroke-linejoin:round; stroke-width:4; stroke-opacity:1; fill:none" stroke-dasharray="16, 10" points="501.564,3340.44 501.564,-1478.53 "/>
<path clip-path="url(#clip911)" d="M501.564 1656.65 L494.044 1678.29 L471.132 1678.77 L489.404 1692.62 L482.748 1714.54 L501.564 1701.45 L520.38 1714.54 L513.724 1692.62 L531.996 1678.77 L509.084 1678.29 L501.564 1656.65 Z" fill="#ff0000" fill-rule="evenodd" fill-opacity="1" stroke="#000000" stroke-opacity="1" stroke-width="3.84"/>
<path clip-path="url(#clip911)" d="M708.649 1252.55 L701.129 1274.18 L678.217 1274.66 L696.489 1288.52 L689.833 1310.44 L708.649 1297.35 L727.465 1310.44 L720.809 1288.52 L739.081 1274.66 L716.169 1274.18 L708.649 1252.55 Z" fill="#ff0000" fill-rule="evenodd" fill-opacity="1" stroke="#000000" stroke-opacity="1" stroke-width="3.84"/>
<path clip-path="url(#clip911)" d="M915.735 949.468 L908.215 971.1 L885.303 971.58 L903.575 985.436 L896.919 1007.36 L915.735 994.268 L934.551 1007.36 L927.895 985.436 L946.167 971.58 L923.255 971.1 L915.735 949.468 Z" fill="#ff0000" fill-rule="evenodd" fill-opacity="1" stroke="#000000" stroke-opacity="1" stroke-width="3.84"/>
<path clip-path="url(#clip911)" d="M1536.99 464.54 L1529.47 486.172 L1506.56 486.652 L1524.83 500.508 L1518.17 522.428 L1536.99 509.34 L1555.81 522.428 L1549.15 500.508 L1567.42 486.652 L1544.51 486.172 L1536.99 464.54 Z" fill="#ff0000" fill-rule="evenodd" fill-opacity="1" stroke="#000000" stroke-opacity="1" stroke-width="3.84"/>
<path clip-path="url(#clip911)" d="M2572.42 141.254 L2564.9 162.886 L2541.99 163.366 L2560.26 177.222 L2553.6 199.142 L2572.42 186.054 L2591.23 199.142 L2584.58 177.222 L2602.85 163.366 L2579.94 162.886 L2572.42 141.254 Z" fill="#ff0000" fill-rule="evenodd" fill-opacity="1" stroke="#000000" stroke-opacity="1" stroke-width="3.84"/>
<path clip-path="url(#clip910)" d="M1843.12 1680.57 L2560.27 1680.57 L2560.27 1473.21 L1843.12 1473.21  Z" fill="#ffffff" fill-rule="evenodd" fill-opacity="1"/>
<polyline clip-path="url(#clip910)" style="stroke:#000000; stroke-linecap:round; stroke-linejoin:round; stroke-width:4; stroke-opacity:1; fill:none" points="1843.12,1680.57 2560.27,1680.57 2560.27,1473.21 1843.12,1473.21 1843.12,1680.57 "/>
<polyline clip-path="url(#clip910)" style="stroke:#00008b; stroke-linecap:round; stroke-linejoin:round; stroke-width:10; stroke-opacity:1; fill:none" points="1869.94,1525.05 2030.92,1525.05 "/>
<circle clip-path="url(#clip910)" cx="1950.43" cy="1525.05" r="20.48" fill="#00008b" fill-rule="evenodd" fill-opacity="1" stroke="#000000" stroke-opacity="1" stroke-width="5.46133"/>
<path clip-path="url(#clip910)" d="M2057.75 1507.77 L2064.04 1507.77 L2079.37 1536.68 L2079.37 1507.77 L2083.91 1507.77 L2083.91 1542.33 L2077.61 1542.33 L2062.28 1513.42 L2062.28 1542.33 L2057.75 1542.33 L2057.75 1507.77 Z" fill="#000000" fill-rule="nonzero" fill-opacity="1" /><path clip-path="url(#clip910)" d="M2115.2 1528.31 L2115.2 1530.39 L2095.62 1530.39 Q2095.9 1534.79 2098.26 1537.1 Q2100.64 1539.39 2104.88 1539.39 Q2107.33 1539.39 2109.62 1538.79 Q2111.94 1538.19 2114.21 1536.99 L2114.21 1541.01 Q2111.91 1541.99 2109.51 1542.49 Q2107.1 1543 2104.62 1543 Q2098.42 1543 2094.78 1539.39 Q2091.17 1535.78 2091.17 1529.62 Q2091.17 1523.26 2094.6 1519.53 Q2098.05 1515.78 2103.88 1515.78 Q2109.11 1515.78 2112.15 1519.16 Q2115.2 1522.52 2115.2 1528.31 M2110.94 1527.06 Q2110.9 1523.56 2108.97 1521.48 Q2107.08 1519.39 2103.93 1519.39 Q2100.36 1519.39 2098.21 1521.41 Q2096.08 1523.42 2095.76 1527.08 L2110.94 1527.06 Z" fill="#000000" fill-rule="nonzero" fill-opacity="1" /><path clip-path="url(#clip910)" d="M2122.19 1516.41 L2126.45 1516.41 L2126.45 1542.33 L2122.19 1542.33 L2122.19 1516.41 M2122.19 1506.31 L2126.45 1506.31 L2126.45 1511.71 L2122.19 1511.71 L2122.19 1506.31 Z" fill="#000000" fill-rule="nonzero" fill-opacity="1" /><path clip-path="url(#clip910)" d="M2152.42 1529.07 Q2152.42 1524.44 2150.5 1521.89 Q2148.6 1519.35 2145.15 1519.35 Q2141.73 1519.35 2139.81 1521.89 Q2137.91 1524.44 2137.91 1529.07 Q2137.91 1533.68 2139.81 1536.22 Q2141.73 1538.77 2145.15 1538.77 Q2148.6 1538.77 2150.5 1536.22 Q2152.42 1533.68 2152.42 1529.07 M2156.68 1539.12 Q2156.68 1545.74 2153.74 1548.95 Q2150.8 1552.19 2144.74 1552.19 Q2142.49 1552.19 2140.5 1551.85 Q2138.51 1551.52 2136.64 1550.83 L2136.64 1546.68 Q2138.51 1547.7 2140.34 1548.19 Q2142.17 1548.68 2144.07 1548.68 Q2148.26 1548.68 2150.34 1546.48 Q2152.42 1544.3 2152.42 1539.88 L2152.42 1537.77 Q2151.1 1540.06 2149.04 1541.2 Q2146.98 1542.33 2144.11 1542.33 Q2139.34 1542.33 2136.43 1538.7 Q2133.51 1535.06 2133.51 1529.07 Q2133.51 1523.05 2136.43 1519.42 Q2139.34 1515.78 2144.11 1515.78 Q2146.98 1515.78 2149.04 1516.92 Q2151.1 1518.05 2152.42 1520.34 L2152.42 1516.41 L2156.68 1516.41 L2156.68 1539.12 Z" fill="#000000" fill-rule="nonzero" fill-opacity="1" /><path clip-path="url(#clip910)" d="M2187.01 1526.68 L2187.01 1542.33 L2182.75 1542.33 L2182.75 1526.82 Q2182.75 1523.14 2181.31 1521.31 Q2179.88 1519.49 2177.01 1519.49 Q2173.56 1519.49 2171.57 1521.68 Q2169.58 1523.88 2169.58 1527.68 L2169.58 1542.33 L2165.29 1542.33 L2165.29 1506.31 L2169.58 1506.31 L2169.58 1520.43 Q2171.1 1518.1 2173.16 1516.94 Q2175.25 1515.78 2177.96 1515.78 Q2182.42 1515.78 2184.71 1518.56 Q2187.01 1521.31 2187.01 1526.68 Z" fill="#000000" fill-rule="nonzero" fill-opacity="1" /><path clip-path="url(#clip910)" d="M2214.11 1529.39 Q2214.11 1524.69 2212.17 1522.03 Q2210.25 1519.35 2206.87 1519.35 Q2203.49 1519.35 2201.54 1522.03 Q2199.62 1524.69 2199.62 1529.39 Q2199.62 1534.09 2201.54 1536.78 Q2203.49 1539.44 2206.87 1539.44 Q2210.25 1539.44 2212.17 1536.78 Q2214.11 1534.09 2214.11 1529.39 M2199.62 1520.34 Q2200.96 1518.03 2203 1516.92 Q2205.06 1515.78 2207.91 1515.78 Q2212.63 1515.78 2215.57 1519.53 Q2218.53 1523.28 2218.53 1529.39 Q2218.53 1535.5 2215.57 1539.25 Q2212.63 1543 2207.91 1543 Q2205.06 1543 2203 1541.89 Q2200.96 1540.76 2199.62 1538.44 L2199.62 1542.33 L2195.34 1542.33 L2195.34 1506.31 L2199.62 1506.31 L2199.62 1520.34 Z" fill="#000000" fill-rule="nonzero" fill-opacity="1" /><path clip-path="url(#clip910)" d="M2235.64 1519.39 Q2232.21 1519.39 2230.22 1522.08 Q2228.23 1524.74 2228.23 1529.39 Q2228.23 1534.05 2230.2 1536.73 Q2232.19 1539.39 2235.64 1539.39 Q2239.04 1539.39 2241.03 1536.71 Q2243.02 1534.02 2243.02 1529.39 Q2243.02 1524.79 2241.03 1522.1 Q2239.04 1519.39 2235.64 1519.39 M2235.64 1515.78 Q2241.2 1515.78 2244.37 1519.39 Q2247.54 1523 2247.54 1529.39 Q2247.54 1535.76 2244.37 1539.39 Q2241.2 1543 2235.64 1543 Q2230.06 1543 2226.89 1539.39 Q2223.74 1535.76 2223.74 1529.39 Q2223.74 1523 2226.89 1519.39 Q2230.06 1515.78 2235.64 1515.78 Z" fill="#000000" fill-rule="nonzero" fill-opacity="1" /><path clip-path="url(#clip910)" d="M2254.16 1532.1 L2254.16 1516.41 L2258.42 1516.41 L2258.42 1531.94 Q2258.42 1535.62 2259.85 1537.47 Q2261.29 1539.3 2264.16 1539.3 Q2267.61 1539.3 2269.6 1537.1 Q2271.61 1534.9 2271.61 1531.11 L2271.61 1516.41 L2275.87 1516.41 L2275.87 1542.33 L2271.61 1542.33 L2271.61 1538.35 Q2270.06 1540.71 2268 1541.87 Q2265.96 1543 2263.26 1543 Q2258.79 1543 2256.47 1540.23 Q2254.16 1537.45 2254.16 1532.1 M2264.88 1515.78 L2264.88 1515.78 Z" fill="#000000" fill-rule="nonzero" fill-opacity="1" /><path clip-path="url(#clip910)" d="M2299.67 1520.39 Q2298.95 1519.97 2298.09 1519.79 Q2297.26 1519.58 2296.24 1519.58 Q2292.63 1519.58 2290.69 1521.94 Q2288.77 1524.28 2288.77 1528.68 L2288.77 1542.33 L2284.48 1542.33 L2284.48 1516.41 L2288.77 1516.41 L2288.77 1520.43 Q2290.11 1518.07 2292.26 1516.94 Q2294.41 1515.78 2297.49 1515.78 Q2297.93 1515.78 2298.46 1515.85 Q2299 1515.9 2299.64 1516.01 L2299.67 1520.39 Z" fill="#000000" fill-rule="nonzero" fill-opacity="1" /><path clip-path="url(#clip910)" d="M2324.85 1526.68 L2324.85 1542.33 L2320.59 1542.33 L2320.59 1526.82 Q2320.59 1523.14 2319.16 1521.31 Q2317.72 1519.49 2314.85 1519.49 Q2311.4 1519.49 2309.41 1521.68 Q2307.42 1523.88 2307.42 1527.68 L2307.42 1542.33 L2303.14 1542.33 L2303.14 1506.31 L2307.42 1506.31 L2307.42 1520.43 Q2308.95 1518.1 2311.01 1516.94 Q2313.09 1515.78 2315.8 1515.78 Q2320.27 1515.78 2322.56 1518.56 Q2324.85 1521.31 2324.85 1526.68 Z" fill="#000000" fill-rule="nonzero" fill-opacity="1" /><path clip-path="url(#clip910)" d="M2343.39 1519.39 Q2339.97 1519.39 2337.98 1522.08 Q2335.99 1524.74 2335.99 1529.39 Q2335.99 1534.05 2337.95 1536.73 Q2339.95 1539.39 2343.39 1539.39 Q2346.8 1539.39 2348.79 1536.71 Q2350.78 1534.02 2350.78 1529.39 Q2350.78 1524.79 2348.79 1522.1 Q2346.8 1519.39 2343.39 1519.39 M2343.39 1515.78 Q2348.95 1515.78 2352.12 1519.39 Q2355.29 1523 2355.29 1529.39 Q2355.29 1535.76 2352.12 1539.39 Q2348.95 1543 2343.39 1543 Q2337.82 1543 2334.64 1539.39 Q2331.5 1535.76 2331.5 1529.39 Q2331.5 1523 2334.64 1519.39 Q2337.82 1515.78 2343.39 1515.78 Z" fill="#000000" fill-rule="nonzero" fill-opacity="1" /><path clip-path="url(#clip910)" d="M2372.4 1519.39 Q2368.97 1519.39 2366.98 1522.08 Q2364.99 1524.74 2364.99 1529.39 Q2364.99 1534.05 2366.96 1536.73 Q2368.95 1539.39 2372.4 1539.39 Q2375.8 1539.39 2377.79 1536.71 Q2379.78 1534.02 2379.78 1529.39 Q2379.78 1524.79 2377.79 1522.1 Q2375.8 1519.39 2372.4 1519.39 M2372.4 1515.78 Q2377.95 1515.78 2381.13 1519.39 Q2384.3 1523 2384.3 1529.39 Q2384.3 1535.76 2381.13 1539.39 Q2377.95 1543 2372.4 1543 Q2366.82 1543 2363.65 1539.39 Q2360.5 1535.76 2360.5 1529.39 Q2360.5 1523 2363.65 1519.39 Q2366.82 1515.78 2372.4 1515.78 Z" fill="#000000" fill-rule="nonzero" fill-opacity="1" /><path clip-path="url(#clip910)" d="M2408.42 1520.34 L2408.42 1506.31 L2412.68 1506.31 L2412.68 1542.33 L2408.42 1542.33 L2408.42 1538.44 Q2407.07 1540.76 2405.01 1541.89 Q2402.98 1543 2400.11 1543 Q2395.41 1543 2392.45 1539.25 Q2389.51 1535.5 2389.51 1529.39 Q2389.51 1523.28 2392.45 1519.53 Q2395.41 1515.78 2400.11 1515.78 Q2402.98 1515.78 2405.01 1516.92 Q2407.07 1518.03 2408.42 1520.34 M2393.9 1529.39 Q2393.9 1534.09 2395.82 1536.78 Q2397.77 1539.44 2401.15 1539.44 Q2404.53 1539.44 2406.47 1536.78 Q2408.42 1534.09 2408.42 1529.39 Q2408.42 1524.69 2406.47 1522.03 Q2404.53 1519.35 2401.15 1519.35 Q2397.77 1519.35 2395.82 1522.03 Q2393.9 1524.69 2393.9 1529.39 Z" fill="#000000" fill-rule="nonzero" fill-opacity="1" /><path clip-path="url(#clip910)" d="M2458.07 1526.68 L2458.07 1542.33 L2453.81 1542.33 L2453.81 1526.82 Q2453.81 1523.14 2452.38 1521.31 Q2450.94 1519.49 2448.07 1519.49 Q2444.62 1519.49 2442.63 1521.68 Q2440.64 1523.88 2440.64 1527.68 L2440.64 1542.33 L2436.36 1542.33 L2436.36 1516.41 L2440.64 1516.41 L2440.64 1520.43 Q2442.17 1518.1 2444.23 1516.94 Q2446.31 1515.78 2449.02 1515.78 Q2453.49 1515.78 2455.78 1518.56 Q2458.07 1521.31 2458.07 1526.68 Z" fill="#000000" fill-rule="nonzero" fill-opacity="1" /><path clip-path="url(#clip910)" d="M2467.12 1520.81 L2496.8 1520.81 L2496.8 1524.69 L2467.12 1524.69 L2467.12 1520.81 M2467.12 1530.25 L2496.8 1530.25 L2496.8 1534.18 L2467.12 1534.18 L2467.12 1530.25 Z" fill="#000000" fill-rule="nonzero" fill-opacity="1" /><path clip-path="url(#clip910)" d="M2510.92 1538.4 L2527.24 1538.4 L2527.24 1542.33 L2505.29 1542.33 L2505.29 1538.4 Q2507.95 1535.64 2512.54 1531.01 Q2517.14 1526.36 2518.32 1525.02 Q2520.57 1522.49 2521.45 1520.76 Q2522.35 1519 2522.35 1517.31 Q2522.35 1514.56 2520.41 1512.82 Q2518.49 1511.08 2515.38 1511.08 Q2513.19 1511.08 2510.73 1511.85 Q2508.3 1512.61 2505.52 1514.16 L2505.52 1509.44 Q2508.35 1508.31 2510.8 1507.73 Q2513.25 1507.15 2515.29 1507.15 Q2520.66 1507.15 2523.86 1509.83 Q2527.05 1512.52 2527.05 1517.01 Q2527.05 1519.14 2526.24 1521.06 Q2525.45 1522.96 2523.35 1525.55 Q2522.77 1526.22 2519.67 1529.44 Q2516.56 1532.63 2510.92 1538.4 Z" fill="#000000" fill-rule="nonzero" fill-opacity="1" /><polyline clip-path="url(#clip910)" style="stroke:#808080; stroke-linecap:round; stroke-linejoin:round; stroke-width:4; stroke-opacity:1; fill:none" stroke-dasharray="16, 10" points="1869.94,1576.89 2030.92,1576.89 "/>
<path clip-path="url(#clip910)" d="M2062.03 1590.28 L2062.03 1604.03 L2057.75 1604.03 L2057.75 1568.25 L2062.03 1568.25 L2062.03 1572.18 Q2063.37 1569.87 2065.41 1568.76 Q2067.47 1567.62 2070.32 1567.62 Q2075.04 1567.62 2077.98 1571.37 Q2080.94 1575.12 2080.94 1581.23 Q2080.94 1587.34 2077.98 1591.09 Q2075.04 1594.84 2070.32 1594.84 Q2067.47 1594.84 2065.41 1593.73 Q2063.37 1592.6 2062.03 1590.28 M2076.52 1581.23 Q2076.52 1576.53 2074.58 1573.87 Q2072.66 1571.19 2069.28 1571.19 Q2065.9 1571.19 2063.95 1573.87 Q2062.03 1576.53 2062.03 1581.23 Q2062.03 1585.93 2063.95 1588.62 Q2065.9 1591.28 2069.28 1591.28 Q2072.66 1591.28 2074.58 1588.62 Q2076.52 1585.93 2076.52 1581.23 Z" fill="#000000" fill-rule="nonzero" fill-opacity="1" /><path clip-path="url(#clip910)" d="M2099.78 1581.14 Q2094.62 1581.14 2092.63 1582.32 Q2090.64 1583.5 2090.64 1586.35 Q2090.64 1588.62 2092.12 1589.96 Q2093.63 1591.28 2096.2 1591.28 Q2099.74 1591.28 2101.87 1588.78 Q2104.02 1586.26 2104.02 1582.09 L2104.02 1581.14 L2099.78 1581.14 M2108.28 1579.38 L2108.28 1594.17 L2104.02 1594.17 L2104.02 1590.24 Q2102.56 1592.6 2100.39 1593.73 Q2098.21 1594.84 2095.06 1594.84 Q2091.08 1594.84 2088.72 1592.62 Q2086.38 1590.38 2086.38 1586.63 Q2086.38 1582.25 2089.3 1580.03 Q2092.24 1577.81 2098.05 1577.81 L2104.02 1577.81 L2104.02 1577.39 Q2104.02 1574.45 2102.08 1572.85 Q2100.15 1571.23 2096.66 1571.23 Q2094.44 1571.23 2092.33 1571.77 Q2090.22 1572.3 2088.28 1573.36 L2088.28 1569.43 Q2090.62 1568.52 2092.82 1568.09 Q2095.02 1567.62 2097.1 1567.62 Q2102.72 1567.62 2105.5 1570.54 Q2108.28 1573.46 2108.28 1579.38 Z" fill="#000000" fill-rule="nonzero" fill-opacity="1" /><path clip-path="url(#clip910)" d="M2117.05 1568.25 L2121.31 1568.25 L2121.31 1594.17 L2117.05 1594.17 L2117.05 1568.25 M2117.05 1558.15 L2121.31 1558.15 L2121.31 1563.55 L2117.05 1563.55 L2117.05 1558.15 Z" fill="#000000" fill-rule="nonzero" fill-opacity="1" /><path clip-path="url(#clip910)" d="M2145.25 1572.23 Q2144.53 1571.81 2143.67 1571.63 Q2142.84 1571.42 2141.82 1571.42 Q2138.21 1571.42 2136.27 1573.78 Q2134.34 1576.12 2134.34 1580.52 L2134.34 1594.17 L2130.06 1594.17 L2130.06 1568.25 L2134.34 1568.25 L2134.34 1572.27 Q2135.69 1569.91 2137.84 1568.78 Q2139.99 1567.62 2143.07 1567.62 Q2143.51 1567.62 2144.04 1567.69 Q2144.58 1567.74 2145.22 1567.85 L2145.25 1572.23 Z" fill="#000000" fill-rule="nonzero" fill-opacity="1" /><path clip-path="url(#clip910)" d="M2147.24 1568.25 L2151.5 1568.25 L2156.82 1588.48 L2162.12 1568.25 L2167.15 1568.25 L2172.47 1588.48 L2177.77 1568.25 L2182.03 1568.25 L2175.25 1594.17 L2170.22 1594.17 L2164.65 1572.92 L2159.04 1594.17 L2154.02 1594.17 L2147.24 1568.25 Z" fill="#000000" fill-rule="nonzero" fill-opacity="1" /><path clip-path="url(#clip910)" d="M2188.49 1568.25 L2192.75 1568.25 L2192.75 1594.17 L2188.49 1594.17 L2188.49 1568.25 M2188.49 1558.15 L2192.75 1558.15 L2192.75 1563.55 L2188.49 1563.55 L2188.49 1558.15 Z" fill="#000000" fill-rule="nonzero" fill-opacity="1" /><path clip-path="url(#clip910)" d="M2218.19 1569.01 L2218.19 1573.04 Q2216.38 1572.11 2214.44 1571.65 Q2212.49 1571.19 2210.41 1571.19 Q2207.24 1571.19 2205.64 1572.16 Q2204.07 1573.13 2204.07 1575.08 Q2204.07 1576.56 2205.2 1577.41 Q2206.33 1578.25 2209.76 1579.01 L2211.22 1579.33 Q2215.76 1580.31 2217.65 1582.09 Q2219.58 1583.85 2219.58 1587.02 Q2219.58 1590.63 2216.71 1592.74 Q2213.86 1594.84 2208.86 1594.84 Q2206.77 1594.84 2204.51 1594.43 Q2202.26 1594.03 2199.76 1593.22 L2199.76 1588.83 Q2202.12 1590.05 2204.41 1590.68 Q2206.71 1591.28 2208.95 1591.28 Q2211.96 1591.28 2213.58 1590.26 Q2215.2 1589.22 2215.2 1587.34 Q2215.2 1585.61 2214.02 1584.68 Q2212.86 1583.76 2208.9 1582.9 L2207.42 1582.55 Q2203.46 1581.72 2201.71 1580.01 Q2199.95 1578.27 2199.95 1575.26 Q2199.95 1571.6 2202.54 1569.61 Q2205.13 1567.62 2209.9 1567.62 Q2212.26 1567.62 2214.34 1567.97 Q2216.43 1568.32 2218.19 1569.01 Z" fill="#000000" fill-rule="nonzero" fill-opacity="1" /><path clip-path="url(#clip910)" d="M2248.53 1580.15 L2248.53 1582.23 L2228.95 1582.23 Q2229.23 1586.63 2231.59 1588.94 Q2233.97 1591.23 2238.21 1591.23 Q2240.66 1591.23 2242.96 1590.63 Q2245.27 1590.03 2247.54 1588.83 L2247.54 1592.85 Q2245.25 1593.83 2242.84 1594.33 Q2240.43 1594.84 2237.96 1594.84 Q2231.75 1594.84 2228.12 1591.23 Q2224.51 1587.62 2224.51 1581.46 Q2224.51 1575.1 2227.93 1571.37 Q2231.38 1567.62 2237.21 1567.62 Q2242.45 1567.62 2245.48 1571 Q2248.53 1574.36 2248.53 1580.15 M2244.27 1578.9 Q2244.23 1575.4 2242.31 1573.32 Q2240.41 1571.23 2237.26 1571.23 Q2233.7 1571.23 2231.54 1573.25 Q2229.41 1575.26 2229.09 1578.92 L2244.27 1578.9 Z" fill="#000000" fill-rule="nonzero" fill-opacity="1" /><path clip-path="url(#clip910)" d="M2283.3 1589.45 Q2284.14 1590.56 2286.64 1590.56 L2288.7 1590.56 L2288.7 1594.17 L2286.13 1594.17 Q2281.96 1594.17 2280.06 1591.95 Q2278.16 1589.68 2278.16 1584.77 L2278.16 1572.51 L2268.44 1572.51 L2268.44 1568.25 L2292.35 1568.25 L2292.35 1572.51 L2282.52 1572.51 L2282.52 1585.03 Q2282.52 1588.39 2283.3 1589.45 Z" fill="#000000" fill-rule="nonzero" fill-opacity="1" /><path clip-path="url(#clip910)" d="M2318.83 1602.04 L2318.83 1605.35 L2294.2 1605.35 L2294.2 1602.04 L2318.83 1602.04 Z" fill="#000000" fill-rule="nonzero" fill-opacity="1" /><path clip-path="url(#clip910)" d="M2348.9 1562.27 L2348.9 1567.21 Q2346.54 1565.01 2343.86 1563.92 Q2341.2 1562.83 2338.19 1562.83 Q2332.26 1562.83 2329.11 1566.46 Q2325.96 1570.08 2325.96 1576.93 Q2325.96 1583.76 2329.11 1587.39 Q2332.26 1591 2338.19 1591 Q2341.2 1591 2343.86 1589.91 Q2346.54 1588.83 2348.9 1586.63 L2348.9 1591.51 Q2346.45 1593.18 2343.7 1594.01 Q2340.96 1594.84 2337.91 1594.84 Q2330.06 1594.84 2325.55 1590.05 Q2321.03 1585.24 2321.03 1576.93 Q2321.03 1568.59 2325.55 1563.8 Q2330.06 1558.99 2337.91 1558.99 Q2341.01 1558.99 2343.74 1559.82 Q2346.5 1560.63 2348.9 1562.27 Z" fill="#000000" fill-rule="nonzero" fill-opacity="1" /><path clip-path="url(#clip910)" d="M2401.24 1579.75 L2401.24 1583.9 Q2398.81 1585.7 2396.73 1586.51 Q2394.67 1587.3 2392.42 1587.3 Q2389.88 1587.3 2386.5 1585.93 Q2386.26 1585.84 2386.1 1585.77 Q2385.96 1585.72 2385.62 1585.58 Q2382.03 1584.17 2379.85 1584.17 Q2377.82 1584.17 2375.82 1585.05 Q2373.83 1585.93 2371.57 1587.88 L2371.57 1583.73 Q2374 1581.93 2376.06 1581.14 Q2378.14 1580.33 2380.38 1580.33 Q2382.93 1580.33 2386.33 1581.7 Q2386.59 1581.81 2386.7 1581.86 Q2386.84 1581.9 2387.19 1582.04 Q2390.78 1583.46 2392.95 1583.46 Q2394.95 1583.46 2396.89 1582.6 Q2398.86 1581.72 2401.24 1579.75 M2401.24 1570.75 L2401.24 1574.87 Q2398.81 1576.7 2396.73 1577.51 Q2394.67 1578.29 2392.42 1578.29 Q2389.88 1578.29 2386.5 1576.93 Q2386.26 1576.83 2386.1 1576.77 Q2385.96 1576.72 2385.62 1576.58 Q2382.03 1575.17 2379.85 1575.17 Q2377.82 1575.17 2375.82 1576.05 Q2373.83 1576.93 2371.57 1578.85 L2371.57 1574.73 Q2374 1572.92 2376.06 1572.14 Q2378.14 1571.33 2380.38 1571.33 Q2382.93 1571.33 2386.33 1572.69 Q2386.57 1572.78 2386.68 1572.83 Q2386.84 1572.9 2387.19 1573.04 Q2390.78 1574.45 2392.95 1574.45 Q2394.95 1574.45 2396.89 1573.59 Q2398.86 1572.71 2401.24 1570.75 Z" fill="#000000" fill-rule="nonzero" fill-opacity="1" /><path clip-path="url(#clip910)" d="M2436.4 1562.69 Q2432.79 1562.69 2430.96 1566.26 Q2429.16 1569.8 2429.16 1576.93 Q2429.16 1584.03 2430.96 1587.6 Q2432.79 1591.14 2436.4 1591.14 Q2440.04 1591.14 2441.84 1587.6 Q2443.67 1584.03 2443.67 1576.93 Q2443.67 1569.8 2441.84 1566.26 Q2440.04 1562.69 2436.4 1562.69 M2436.4 1558.99 Q2442.21 1558.99 2445.27 1563.59 Q2448.35 1568.18 2448.35 1576.93 Q2448.35 1585.65 2445.27 1590.26 Q2442.21 1594.84 2436.4 1594.84 Q2430.59 1594.84 2427.51 1590.26 Q2424.46 1585.65 2424.46 1576.93 Q2424.46 1568.18 2427.51 1563.59 Q2430.59 1558.99 2436.4 1558.99 Z" fill="#000000" fill-rule="nonzero" fill-opacity="1" /><path clip-path="url(#clip910)" d="M2456.57 1588.29 L2461.45 1588.29 L2461.45 1594.17 L2456.57 1594.17 L2456.57 1588.29 Z" fill="#000000" fill-rule="nonzero" fill-opacity="1" /><path clip-path="url(#clip910)" d="M2471.68 1559.61 L2490.04 1559.61 L2490.04 1563.55 L2475.96 1563.55 L2475.96 1572.02 Q2476.98 1571.67 2478 1571.51 Q2479.02 1571.33 2480.04 1571.33 Q2485.82 1571.33 2489.2 1574.5 Q2492.58 1577.67 2492.58 1583.08 Q2492.58 1588.66 2489.11 1591.77 Q2485.64 1594.84 2479.32 1594.84 Q2477.14 1594.84 2474.88 1594.47 Q2472.63 1594.1 2470.22 1593.36 L2470.22 1588.66 Q2472.31 1589.8 2474.53 1590.35 Q2476.75 1590.91 2479.23 1590.91 Q2483.23 1590.91 2485.57 1588.8 Q2487.91 1586.7 2487.91 1583.08 Q2487.91 1579.47 2485.57 1577.37 Q2483.23 1575.26 2479.23 1575.26 Q2477.35 1575.26 2475.48 1575.68 Q2473.63 1576.09 2471.68 1576.97 L2471.68 1559.61 Z" fill="#000000" fill-rule="nonzero" fill-opacity="1" /><path clip-path="url(#clip910)" d="M1950.43 1604.64 L1944.77 1620.93 L1927.52 1621.29 L1941.28 1631.72 L1936.26 1648.22 L1950.43 1638.37 L1964.6 1648.22 L1959.59 1631.72 L1973.35 1621.29 L1956.09 1620.93 L1950.43 1604.64 Z" fill="#ff0000" fill-rule="evenodd" fill-opacity="1" stroke="#000000" stroke-opacity="1" stroke-width="2.89129"/>
<path clip-path="url(#clip910)" d="M2062.42 1615.3 L2062.42 1628.28 L2068.3 1628.28 Q2071.57 1628.28 2073.35 1626.59 Q2075.13 1624.9 2075.13 1621.78 Q2075.13 1618.68 2073.35 1616.99 Q2071.57 1615.3 2068.3 1615.3 L2062.42 1615.3 M2057.75 1611.45 L2068.3 1611.45 Q2074.11 1611.45 2077.08 1614.09 Q2080.06 1616.71 2080.06 1621.78 Q2080.06 1626.89 2077.08 1629.51 Q2074.11 1632.12 2068.3 1632.12 L2062.42 1632.12 L2062.42 1646.01 L2057.75 1646.01 L2057.75 1611.45 Z" fill="#000000" fill-rule="nonzero" fill-opacity="1" /><path clip-path="url(#clip910)" d="M2095.8 1632.98 Q2090.64 1632.98 2088.65 1634.16 Q2086.66 1635.34 2086.66 1638.19 Q2086.66 1640.46 2088.14 1641.8 Q2089.65 1643.12 2092.22 1643.12 Q2095.76 1643.12 2097.89 1640.62 Q2100.04 1638.1 2100.04 1633.93 L2100.04 1632.98 L2095.8 1632.98 M2104.3 1631.22 L2104.3 1646.01 L2100.04 1646.01 L2100.04 1642.08 Q2098.58 1644.44 2096.4 1645.57 Q2094.23 1646.68 2091.08 1646.68 Q2087.1 1646.68 2084.74 1644.46 Q2082.4 1642.22 2082.4 1638.47 Q2082.4 1634.09 2085.32 1631.87 Q2088.26 1629.65 2094.07 1629.65 L2100.04 1629.65 L2100.04 1629.23 Q2100.04 1626.29 2098.09 1624.69 Q2096.17 1623.07 2092.68 1623.07 Q2090.46 1623.07 2088.35 1623.61 Q2086.24 1624.14 2084.3 1625.2 L2084.3 1621.27 Q2086.64 1620.36 2088.84 1619.93 Q2091.03 1619.46 2093.12 1619.46 Q2098.74 1619.46 2101.52 1622.38 Q2104.3 1625.3 2104.3 1631.22 Z" fill="#000000" fill-rule="nonzero" fill-opacity="1" /><path clip-path="url(#clip910)" d="M2117.19 1642.12 L2117.19 1655.87 L2112.91 1655.87 L2112.91 1620.09 L2117.19 1620.09 L2117.19 1624.02 Q2118.53 1621.71 2120.57 1620.6 Q2122.63 1619.46 2125.48 1619.46 Q2130.2 1619.46 2133.14 1623.21 Q2136.1 1626.96 2136.1 1633.07 Q2136.1 1639.18 2133.14 1642.93 Q2130.2 1646.68 2125.48 1646.68 Q2122.63 1646.68 2120.57 1645.57 Q2118.53 1644.44 2117.19 1642.12 M2131.68 1633.07 Q2131.68 1628.37 2129.74 1625.71 Q2127.82 1623.03 2124.44 1623.03 Q2121.06 1623.03 2119.11 1625.71 Q2117.19 1628.37 2117.19 1633.07 Q2117.19 1637.77 2119.11 1640.46 Q2121.06 1643.12 2124.44 1643.12 Q2127.82 1643.12 2129.74 1640.46 Q2131.68 1637.77 2131.68 1633.07 Z" fill="#000000" fill-rule="nonzero" fill-opacity="1" /><path clip-path="url(#clip910)" d="M2165.34 1631.99 L2165.34 1634.07 L2145.76 1634.07 Q2146.03 1638.47 2148.4 1640.78 Q2150.78 1643.07 2155.02 1643.07 Q2157.47 1643.07 2159.76 1642.47 Q2162.08 1641.87 2164.34 1640.67 L2164.34 1644.69 Q2162.05 1645.67 2159.65 1646.17 Q2157.24 1646.68 2154.76 1646.68 Q2148.56 1646.68 2144.92 1643.07 Q2141.31 1639.46 2141.31 1633.3 Q2141.31 1626.94 2144.74 1623.21 Q2148.19 1619.46 2154.02 1619.46 Q2159.25 1619.46 2162.28 1622.84 Q2165.34 1626.2 2165.34 1631.99 M2161.08 1630.74 Q2161.03 1627.24 2159.11 1625.16 Q2157.21 1623.07 2154.07 1623.07 Q2150.5 1623.07 2148.35 1625.09 Q2146.22 1627.1 2145.9 1630.76 L2161.08 1630.74 Z" fill="#000000" fill-rule="nonzero" fill-opacity="1" /><path clip-path="url(#clip910)" d="M2187.35 1624.07 Q2186.64 1623.65 2185.78 1623.47 Q2184.95 1623.26 2183.93 1623.26 Q2180.32 1623.26 2178.37 1625.62 Q2176.45 1627.96 2176.45 1632.36 L2176.45 1646.01 L2172.17 1646.01 L2172.17 1620.09 L2176.45 1620.09 L2176.45 1624.11 Q2177.79 1621.75 2179.95 1620.62 Q2182.1 1619.46 2185.18 1619.46 Q2185.62 1619.46 2186.15 1619.53 Q2186.68 1619.58 2187.33 1619.69 L2187.35 1624.07 Z" fill="#000000" fill-rule="nonzero" fill-opacity="1" /><path clip-path="url(#clip910)" d="M2207.08 1611.45 L2226.94 1611.45 L2226.94 1615.39 L2211.75 1615.39 L2211.75 1625.57 L2225.46 1625.57 L2225.46 1629.51 L2211.75 1629.51 L2211.75 1646.01 L2207.08 1646.01 L2207.08 1611.45 Z" fill="#000000" fill-rule="nonzero" fill-opacity="1" /><path clip-path="url(#clip910)" d="M2230.71 1620.09 L2234.97 1620.09 L2234.97 1646.01 L2230.71 1646.01 L2230.71 1620.09 M2230.71 1609.99 L2234.97 1609.99 L2234.97 1615.39 L2230.71 1615.39 L2230.71 1609.99 Z" fill="#000000" fill-rule="nonzero" fill-opacity="1" /><path clip-path="url(#clip910)" d="M2260.94 1632.75 Q2260.94 1628.12 2259.02 1625.57 Q2257.12 1623.03 2253.67 1623.03 Q2250.25 1623.03 2248.33 1625.57 Q2246.43 1628.12 2246.43 1632.75 Q2246.43 1637.36 2248.33 1639.9 Q2250.25 1642.45 2253.67 1642.45 Q2257.12 1642.45 2259.02 1639.9 Q2260.94 1637.36 2260.94 1632.75 M2265.2 1642.8 Q2265.2 1649.42 2262.26 1652.63 Q2259.32 1655.87 2253.26 1655.87 Q2251.01 1655.87 2249.02 1655.53 Q2247.03 1655.2 2245.15 1654.51 L2245.15 1650.36 Q2247.03 1651.38 2248.86 1651.87 Q2250.69 1652.36 2252.58 1652.36 Q2256.77 1652.36 2258.86 1650.16 Q2260.94 1647.98 2260.94 1643.56 L2260.94 1641.45 Q2259.62 1643.74 2257.56 1644.88 Q2255.5 1646.01 2252.63 1646.01 Q2247.86 1646.01 2244.95 1642.38 Q2242.03 1638.74 2242.03 1632.75 Q2242.03 1626.73 2244.95 1623.1 Q2247.86 1619.46 2252.63 1619.46 Q2255.5 1619.46 2257.56 1620.6 Q2259.62 1621.73 2260.94 1624.02 L2260.94 1620.09 L2265.2 1620.09 L2265.2 1642.8 Z" fill="#000000" fill-rule="nonzero" fill-opacity="1" /><path clip-path="url(#clip910)" d="M2289.69 1611.45 L2308.05 1611.45 L2308.05 1615.39 L2293.97 1615.39 L2293.97 1623.86 Q2294.99 1623.51 2296.01 1623.35 Q2297.03 1623.17 2298.05 1623.17 Q2303.83 1623.17 2307.21 1626.34 Q2310.59 1629.51 2310.59 1634.92 Q2310.59 1640.5 2307.12 1643.61 Q2303.65 1646.68 2297.33 1646.68 Q2295.15 1646.68 2292.89 1646.31 Q2290.64 1645.94 2288.23 1645.2 L2288.23 1640.5 Q2290.32 1641.64 2292.54 1642.19 Q2294.76 1642.75 2297.24 1642.75 Q2301.24 1642.75 2303.58 1640.64 Q2305.92 1638.54 2305.92 1634.92 Q2305.92 1631.31 2303.58 1629.21 Q2301.24 1627.1 2297.24 1627.1 Q2295.36 1627.1 2293.49 1627.52 Q2291.64 1627.93 2289.69 1628.81 L2289.69 1611.45 Z" fill="#000000" fill-rule="nonzero" fill-opacity="1" /><path clip-path="url(#clip910)" d="M2324.07 1629.51 L2324.07 1642.17 L2331.57 1642.17 Q2335.34 1642.17 2337.14 1640.62 Q2338.97 1639.05 2338.97 1635.83 Q2338.97 1632.59 2337.14 1631.06 Q2335.34 1629.51 2331.57 1629.51 L2324.07 1629.51 M2324.07 1615.3 L2324.07 1625.71 L2330.99 1625.71 Q2334.41 1625.71 2336.08 1624.44 Q2337.77 1623.14 2337.77 1620.5 Q2337.77 1617.89 2336.08 1616.59 Q2334.41 1615.3 2330.99 1615.3 L2324.07 1615.3 M2319.39 1611.45 L2331.33 1611.45 Q2336.68 1611.45 2339.57 1613.68 Q2342.47 1615.9 2342.47 1619.99 Q2342.47 1623.17 2340.99 1625.04 Q2339.51 1626.92 2336.64 1627.38 Q2340.08 1628.12 2341.98 1630.48 Q2343.9 1632.82 2343.9 1636.34 Q2343.9 1640.97 2340.76 1643.49 Q2337.61 1646.01 2331.8 1646.01 L2319.39 1646.01 L2319.39 1611.45 Z" fill="#000000" fill-rule="nonzero" fill-opacity="1" /><path clip-path="url(#clip910)" d="M2377.03 1610.04 Q2373.93 1615.36 2372.42 1620.57 Q2370.92 1625.78 2370.92 1631.13 Q2370.92 1636.48 2372.42 1641.73 Q2373.95 1646.96 2377.03 1652.26 L2373.32 1652.26 Q2369.85 1646.82 2368.12 1641.57 Q2366.4 1636.31 2366.4 1631.13 Q2366.4 1625.97 2368.12 1620.74 Q2369.83 1615.5 2373.32 1610.04 L2377.03 1610.04 Z" fill="#000000" fill-rule="nonzero" fill-opacity="1" /><path clip-path="url(#clip910)" d="M2382.24 1620.09 L2386.75 1620.09 L2394.85 1641.85 L2402.95 1620.09 L2407.47 1620.09 L2397.75 1646.01 L2391.96 1646.01 L2382.24 1620.09 Z" fill="#000000" fill-rule="nonzero" fill-opacity="1" /><path clip-path="url(#clip910)" d="M2413.35 1620.09 L2417.61 1620.09 L2417.61 1646.01 L2413.35 1646.01 L2413.35 1620.09 M2413.35 1609.99 L2417.61 1609.99 L2417.61 1615.39 L2413.35 1615.39 L2413.35 1609.99 Z" fill="#000000" fill-rule="nonzero" fill-opacity="1" /><path clip-path="url(#clip910)" d="M2443.05 1620.85 L2443.05 1624.88 Q2441.24 1623.95 2439.3 1623.49 Q2437.35 1623.03 2435.27 1623.03 Q2432.1 1623.03 2430.5 1624 Q2428.93 1624.97 2428.93 1626.92 Q2428.93 1628.4 2430.06 1629.25 Q2431.19 1630.09 2434.62 1630.85 L2436.08 1631.17 Q2440.62 1632.15 2442.51 1633.93 Q2444.44 1635.69 2444.44 1638.86 Q2444.44 1642.47 2441.57 1644.58 Q2438.72 1646.68 2433.72 1646.68 Q2431.63 1646.68 2429.37 1646.27 Q2427.12 1645.87 2424.62 1645.06 L2424.62 1640.67 Q2426.98 1641.89 2429.27 1642.52 Q2431.57 1643.12 2433.81 1643.12 Q2436.82 1643.12 2438.44 1642.1 Q2440.06 1641.06 2440.06 1639.18 Q2440.06 1637.45 2438.88 1636.52 Q2437.72 1635.6 2433.76 1634.74 L2432.28 1634.39 Q2428.32 1633.56 2426.57 1631.85 Q2424.81 1630.11 2424.81 1627.1 Q2424.81 1623.44 2427.4 1621.45 Q2429.99 1619.46 2434.76 1619.46 Q2437.12 1619.46 2439.2 1619.81 Q2441.29 1620.16 2443.05 1620.85 Z" fill="#000000" fill-rule="nonzero" fill-opacity="1" /><path clip-path="url(#clip910)" d="M2450.78 1635.78 L2450.78 1620.09 L2455.04 1620.09 L2455.04 1635.62 Q2455.04 1639.3 2456.47 1641.15 Q2457.91 1642.98 2460.78 1642.98 Q2464.23 1642.98 2466.22 1640.78 Q2468.23 1638.58 2468.23 1634.79 L2468.23 1620.09 L2472.49 1620.09 L2472.49 1646.01 L2468.23 1646.01 L2468.23 1642.03 Q2466.68 1644.39 2464.62 1645.55 Q2462.58 1646.68 2459.88 1646.68 Q2455.41 1646.68 2453.09 1643.91 Q2450.78 1641.13 2450.78 1635.78 M2461.5 1619.46 L2461.5 1619.46 Z" fill="#000000" fill-rule="nonzero" fill-opacity="1" /><path clip-path="url(#clip910)" d="M2493.05 1632.98 Q2487.88 1632.98 2485.89 1634.16 Q2483.9 1635.34 2483.9 1638.19 Q2483.9 1640.46 2485.38 1641.8 Q2486.89 1643.12 2489.46 1643.12 Q2493 1643.12 2495.13 1640.62 Q2497.28 1638.1 2497.28 1633.93 L2497.28 1632.98 L2493.05 1632.98 M2501.54 1631.22 L2501.54 1646.01 L2497.28 1646.01 L2497.28 1642.08 Q2495.82 1644.44 2493.65 1645.57 Q2491.47 1646.68 2488.32 1646.68 Q2484.34 1646.68 2481.98 1644.46 Q2479.64 1642.22 2479.64 1638.47 Q2479.64 1634.09 2482.56 1631.87 Q2485.5 1629.65 2491.31 1629.65 L2497.28 1629.65 L2497.28 1629.23 Q2497.28 1626.29 2495.34 1624.69 Q2493.42 1623.07 2489.92 1623.07 Q2487.7 1623.07 2485.59 1623.61 Q2483.49 1624.14 2481.54 1625.2 L2481.54 1621.27 Q2483.88 1620.36 2486.08 1619.93 Q2488.28 1619.46 2490.36 1619.46 Q2495.99 1619.46 2498.76 1622.38 Q2501.54 1625.3 2501.54 1631.22 Z" fill="#000000" fill-rule="nonzero" fill-opacity="1" /><path clip-path="url(#clip910)" d="M2510.31 1609.99 L2514.57 1609.99 L2514.57 1646.01 L2510.31 1646.01 L2510.31 1609.99 Z" fill="#000000" fill-rule="nonzero" fill-opacity="1" /><path clip-path="url(#clip910)" d="M2522.81 1610.04 L2526.52 1610.04 Q2529.99 1615.5 2531.7 1620.74 Q2533.44 1625.97 2533.44 1631.13 Q2533.44 1636.31 2531.7 1641.57 Q2529.99 1646.82 2526.52 1652.26 L2522.81 1652.26 Q2525.89 1646.96 2527.4 1641.73 Q2528.93 1636.48 2528.93 1631.13 Q2528.93 1625.78 2527.4 1620.57 Q2525.89 1615.36 2522.81 1610.04 Z" fill="#000000" fill-rule="nonzero" fill-opacity="1" /></svg>
