<?xml version="1.0" encoding="utf-8"?>
<svg xmlns="http://www.w3.org/2000/svg" xmlns:xlink="http://www.w3.org/1999/xlink" width="672" height="480" viewBox="0 0 2688 1920">
<defs>
  <clipPath id="clip880">
    <rect x="0" y="0" width="2688" height="1920"/>
  </clipPath>
</defs>
<path clip-path="url(#clip880)" d="M0 1920 L2688 1920 L2688 -4.26326e-14 L0 -4.26326e-14  Z" fill="#ffffff" fill-rule="evenodd" fill-opacity="1"/>
<defs>
  <clipPath id="clip881">
    <rect x="226" y="127" width="2416" height="1607"/>
  </clipPath>
</defs>
<path clip-path="url(#clip880)" d="M226.141 1734.12 L2640.76 1734.12 L2640.76 127.792 L226.141 127.792  Z" fill="#ffffff" fill-rule="evenodd" fill-opacity="1"/>
<polyline clip-path="url(#clip881)" style="stroke:#000000; stroke-linecap:round; stroke-linejoin:round; stroke-width:2; stroke-opacity:0.1; fill:none" points="294.479,1734.12 294.479,127.792 "/>
<polyline clip-path="url(#clip881)" style="stroke:#000000; stroke-linecap:round; stroke-linejoin:round; stroke-width:2; stroke-opacity:0.1; fill:none" points="1053.79,1734.12 1053.79,127.792 "/>
<polyline clip-path="url(#clip881)" style="stroke:#000000; stroke-linecap:round; stroke-linejoin:round; stroke-width:2; stroke-opacity:0.1; fill:none" points="1813.1,1734.12 1813.1,127.792 "/>
<polyline clip-path="url(#clip881)" style="stroke:#000000; stroke-linecap:round; stroke-linejoin:round; stroke-width:2; stroke-opacity:0.1; fill:none" points="2572.42,1734.12 2572.42,127.792 "/>
<polyline clip-path="url(#clip881)" style="stroke:#000000; stroke-linecap:round; stroke-linejoin:round; stroke-width:2; stroke-opacity:0.1; fill:none" points="226.141,1688.68 2640.76,1688.68 "/>
<polyline clip-path="url(#clip881)" style="stroke:#000000; stroke-linecap:round; stroke-linejoin:round; stroke-width:2; stroke-opacity:0.1; fill:none" points="226.141,1325.23 2640.76,1325.23 "/>
<polyline clip-path="url(#clip881)" style="stroke:#000000; stroke-linecap:round; stroke-linejoin:round; stroke-width:2; stroke-opacity:0.1; fill:none" points="226.141,961.779 2640.76,961.779 "/>
<polyline clip-path="url(#clip881)" style="stroke:#000000; stroke-linecap:round; stroke-linejoin:round; stroke-width:2; stroke-opacity:0.1; fill:none" points="226.141,598.33 2640.76,598.33 "/>
<polyline clip-path="url(#clip881)" style="stroke:#000000; stroke-linecap:round; stroke-linejoin:round; stroke-width:2; stroke-opacity:0.1; fill:none" points="226.141,234.88 2640.76,234.88 "/>
<polyline clip-path="url(#clip880)" style="stroke:#000000; stroke-linecap:round; stroke-linejoin:round; stroke-width:4; stroke-opacity:1; fill:none" points="226.141,1734.12 2640.76,1734.12 "/>
<polyline clip-path="url(#clip880)" style="stroke:#000000; stroke-linecap:round; stroke-linejoin:round; stroke-width:4; stroke-opacity:1; fill:none" points="294.479,1734.12 294.479,1715.22 "/>
<polyline clip-path="url(#clip880)" style="stroke:#000000; stroke-linecap:round; stroke-linejoin:round; stroke-width:4; stroke-opacity:1; fill:none" points="1053.79,1734.12 1053.79,1715.22 "/>
<polyline clip-path="url(#clip880)" style="stroke:#000000; stroke-linecap:round; stroke-linejoin:round; stroke-width:4; stroke-opacity:1; fill:none" points="1813.1,1734.12 1813.1,1715.22 "/>
<polyline clip-path="url(#clip880)" style="stroke:#000000; stroke-linecap:round; stroke-linejoin:round; stroke-width:4; stroke-opacity:1; fill:none" points="2572.42,1734.12 2572.42,1715.22 "/>
<path clip-path="url(#clip880)" d="M294.479 1767.34 Q290.868 1767.34 289.039 1770.9 Q287.233 1774.45 287.233 1781.58 Q287.233 1788.68 289.039 1792.25 Q290.868 1795.79 294.479 1795.79 Q298.113 1795.79 299.919 1792.25 Q301.747 1788.68 301.747 1781.58 Q301.747 1774.45 299.919 1770.9 Q298.113 1767.34 294.479 1767.34 M294.479 1763.64 Q300.289 1763.64 303.344 1768.24 Q306.423 1772.83 306.423 1781.58 Q306.423 1790.3 303.344 1794.91 Q300.289 1799.49 294.479 1799.49 Q288.669 1799.49 285.59 1794.91 Q282.534 1790.3 282.534 1781.58 Q282.534 1772.83 285.59 1768.24 Q288.669 1763.64 294.479 1763.64 Z" fill="#000000" fill-rule="nonzero" fill-opacity="1" /><path clip-path="url(#clip880)" d="M1028.48 1794.89 L1036.12 1794.89 L1036.12 1768.52 L1027.81 1770.19 L1027.81 1765.93 L1036.07 1764.26 L1040.75 1764.26 L1040.75 1794.89 L1048.39 1794.89 L1048.39 1798.82 L1028.48 1798.82 L1028.48 1794.89 Z" fill="#000000" fill-rule="nonzero" fill-opacity="1" /><path clip-path="url(#clip880)" d="M1067.83 1767.34 Q1064.22 1767.34 1062.39 1770.9 Q1060.59 1774.45 1060.59 1781.58 Q1060.59 1788.68 1062.39 1792.25 Q1064.22 1795.79 1067.83 1795.79 Q1071.47 1795.79 1073.27 1792.25 Q1075.1 1788.68 1075.1 1781.58 Q1075.1 1774.45 1073.27 1770.9 Q1071.47 1767.34 1067.83 1767.34 M1067.83 1763.64 Q1073.64 1763.64 1076.7 1768.24 Q1079.78 1772.83 1079.78 1781.58 Q1079.78 1790.3 1076.7 1794.91 Q1073.64 1799.49 1067.83 1799.49 Q1062.02 1799.49 1058.94 1794.91 Q1055.89 1790.3 1055.89 1781.58 Q1055.89 1772.83 1058.94 1768.24 Q1062.02 1763.64 1067.83 1763.64 Z" fill="#000000" fill-rule="nonzero" fill-opacity="1" /><path clip-path="url(#clip880)" d="M1791.88 1794.89 L1808.2 1794.89 L1808.2 1798.82 L1786.25 1798.82 L1786.25 1794.89 Q1788.92 1792.13 1793.5 1787.5 Q1798.1 1782.85 1799.29 1781.51 Q1801.53 1778.98 1802.41 1777.25 Q1803.31 1775.49 1803.31 1773.8 Q1803.31 1771.04 1801.37 1769.31 Q1799.45 1767.57 1796.35 1767.57 Q1794.15 1767.57 1791.69 1768.34 Q1789.26 1769.1 1786.48 1770.65 L1786.48 1765.93 Q1789.31 1764.79 1791.76 1764.21 Q1794.22 1763.64 1796.25 1763.64 Q1801.62 1763.64 1804.82 1766.32 Q1808.01 1769.01 1808.01 1773.5 Q1808.01 1775.63 1807.2 1777.55 Q1806.41 1779.45 1804.31 1782.04 Q1803.73 1782.71 1800.63 1785.93 Q1797.53 1789.12 1791.88 1794.89 Z" fill="#000000" fill-rule="nonzero" fill-opacity="1" /><path clip-path="url(#clip880)" d="M1828.01 1767.34 Q1824.4 1767.34 1822.57 1770.9 Q1820.77 1774.45 1820.77 1781.58 Q1820.77 1788.68 1822.57 1792.25 Q1824.4 1795.79 1828.01 1795.79 Q1831.65 1795.79 1833.45 1792.25 Q1835.28 1788.68 1835.28 1781.58 Q1835.28 1774.45 1833.45 1770.9 Q1831.65 1767.34 1828.01 1767.34 M1828.01 1763.64 Q1833.82 1763.64 1836.88 1768.24 Q1839.96 1772.83 1839.96 1781.58 Q1839.96 1790.3 1836.88 1794.91 Q1833.82 1799.49 1828.01 1799.49 Q1822.2 1799.49 1819.12 1794.91 Q1816.07 1790.3 1816.07 1781.58 Q1816.07 1772.83 1819.12 1768.24 Q1822.2 1763.64 1828.01 1763.64 Z" fill="#000000" fill-rule="nonzero" fill-opacity="1" /><path clip-path="url(#clip880)" d="M2561.26 1780.19 Q2564.62 1780.9 2566.49 1783.17 Q2568.39 1785.44 2568.39 1788.77 Q2568.39 1793.89 2564.87 1796.69 Q2561.35 1799.49 2554.87 1799.49 Q2552.7 1799.49 2550.38 1799.05 Q2548.09 1798.64 2545.64 1797.78 L2545.64 1793.27 Q2547.58 1794.4 2549.89 1794.98 Q2552.21 1795.56 2554.73 1795.56 Q2559.13 1795.56 2561.42 1793.82 Q2563.74 1792.08 2563.74 1788.77 Q2563.74 1785.72 2561.58 1784.01 Q2559.45 1782.27 2555.64 1782.27 L2551.61 1782.27 L2551.61 1778.43 L2555.82 1778.43 Q2559.27 1778.43 2561.1 1777.06 Q2562.93 1775.67 2562.93 1773.08 Q2562.93 1770.42 2561.03 1769.01 Q2559.15 1767.57 2555.64 1767.57 Q2553.71 1767.57 2551.52 1767.99 Q2549.32 1768.4 2546.68 1769.28 L2546.68 1765.12 Q2549.34 1764.38 2551.65 1764.01 Q2553.99 1763.64 2556.05 1763.64 Q2561.38 1763.64 2564.48 1766.07 Q2567.58 1768.47 2567.58 1772.59 Q2567.58 1775.46 2565.94 1777.46 Q2564.29 1779.42 2561.26 1780.19 Z" fill="#000000" fill-rule="nonzero" fill-opacity="1" /><path clip-path="url(#clip880)" d="M2587.26 1767.34 Q2583.64 1767.34 2581.82 1770.9 Q2580.01 1774.45 2580.01 1781.58 Q2580.01 1788.68 2581.82 1792.25 Q2583.64 1795.79 2587.26 1795.79 Q2590.89 1795.79 2592.7 1792.25 Q2594.52 1788.68 2594.52 1781.58 Q2594.52 1774.45 2592.7 1770.9 Q2590.89 1767.34 2587.26 1767.34 M2587.26 1763.64 Q2593.07 1763.64 2596.12 1768.24 Q2599.2 1772.83 2599.2 1781.58 Q2599.2 1790.3 2596.12 1794.91 Q2593.07 1799.49 2587.26 1799.49 Q2581.45 1799.49 2578.37 1794.91 Q2575.31 1790.3 2575.31 1781.58 Q2575.31 1772.83 2578.37 1768.24 Q2581.45 1763.64 2587.26 1763.64 Z" fill="#000000" fill-rule="nonzero" fill-opacity="1" /><path clip-path="url(#clip880)" d="M1355.33 1835.78 L1395.52 1835.78 L1395.52 1841.19 L1378.66 1841.19 L1378.66 1883.3 L1372.19 1883.3 L1372.19 1841.19 L1355.33 1841.19 L1355.33 1835.78 Z" fill="#000000" fill-rule="nonzero" fill-opacity="1" /><path clip-path="url(#clip880)" d="M1399.47 1847.65 L1405.33 1847.65 L1405.33 1883.3 L1399.47 1883.3 L1399.47 1847.65 M1399.47 1833.78 L1405.33 1833.78 L1405.33 1841.19 L1399.47 1841.19 L1399.47 1833.78 Z" fill="#000000" fill-rule="nonzero" fill-opacity="1" /><path clip-path="url(#clip880)" d="M1445.34 1854.5 Q1447.53 1850.55 1450.59 1848.67 Q1453.64 1846.79 1457.78 1846.79 Q1463.35 1846.79 1466.37 1850.71 Q1469.4 1854.59 1469.4 1861.78 L1469.4 1883.3 L1463.51 1883.3 L1463.51 1861.98 Q1463.51 1856.85 1461.7 1854.37 Q1459.88 1851.89 1456.16 1851.89 Q1451.61 1851.89 1448.96 1854.91 Q1446.32 1857.93 1446.32 1863.15 L1446.32 1883.3 L1440.43 1883.3 L1440.43 1861.98 Q1440.43 1856.82 1438.62 1854.37 Q1436.81 1851.89 1433.02 1851.89 Q1428.53 1851.89 1425.89 1854.94 Q1423.25 1857.97 1423.25 1863.15 L1423.25 1883.3 L1417.36 1883.3 L1417.36 1847.65 L1423.25 1847.65 L1423.25 1853.19 Q1425.25 1849.91 1428.05 1848.35 Q1430.85 1846.79 1434.71 1846.79 Q1438.59 1846.79 1441.29 1848.77 Q1444.03 1850.74 1445.34 1854.5 Z" fill="#000000" fill-rule="nonzero" fill-opacity="1" /><path clip-path="url(#clip880)" d="M1511.57 1864.01 L1511.57 1866.88 L1484.64 1866.88 Q1485.03 1872.92 1488.27 1876.11 Q1491.55 1879.26 1497.38 1879.26 Q1500.75 1879.26 1503.9 1878.43 Q1507.08 1877.6 1510.2 1875.95 L1510.2 1881.49 Q1507.05 1882.82 1503.74 1883.52 Q1500.43 1884.22 1497.03 1884.22 Q1488.5 1884.22 1483.5 1879.26 Q1478.53 1874.29 1478.53 1865.83 Q1478.53 1857.07 1483.24 1851.95 Q1487.99 1846.79 1496.01 1846.79 Q1503.2 1846.79 1507.37 1851.44 Q1511.57 1856.06 1511.57 1864.01 M1505.71 1862.29 Q1505.65 1857.49 1503.01 1854.62 Q1500.4 1851.76 1496.07 1851.76 Q1491.17 1851.76 1488.21 1854.53 Q1485.28 1857.3 1484.84 1862.33 L1505.71 1862.29 Z" fill="#000000" fill-rule="nonzero" fill-opacity="1" /><polyline clip-path="url(#clip880)" style="stroke:#000000; stroke-linecap:round; stroke-linejoin:round; stroke-width:4; stroke-opacity:1; fill:none" points="226.141,1734.12 226.141,127.792 "/>
<polyline clip-path="url(#clip880)" style="stroke:#000000; stroke-linecap:round; stroke-linejoin:round; stroke-width:4; stroke-opacity:1; fill:none" points="226.141,1688.68 245.038,1688.68 "/>
<polyline clip-path="url(#clip880)" style="stroke:#000000; stroke-linecap:round; stroke-linejoin:round; stroke-width:4; stroke-opacity:1; fill:none" points="226.141,1325.23 245.038,1325.23 "/>
<polyline clip-path="url(#clip880)" style="stroke:#000000; stroke-linecap:round; stroke-linejoin:round; stroke-width:4; stroke-opacity:1; fill:none" points="226.141,961.779 245.038,961.779 "/>
<polyline clip-path="url(#clip880)" style="stroke:#000000; stroke-linecap:round; stroke-linejoin:round; stroke-width:4; stroke-opacity:1; fill:none" points="226.141,598.33 245.038,598.33 "/>
<polyline clip-path="url(#clip880)" style="stroke:#000000; stroke-linecap:round; stroke-linejoin:round; stroke-width:4; stroke-opacity:1; fill:none" points="226.141,234.88 245.038,234.88 "/>
<path clip-path="url(#clip880)" d="M128.645 1674.48 Q125.034 1674.48 123.205 1678.04 Q121.4 1681.58 121.4 1688.71 Q121.4 1695.82 123.205 1699.38 Q125.034 1702.93 128.645 1702.93 Q132.279 1702.93 134.085 1699.38 Q135.913 1695.82 135.913 1688.71 Q135.913 1681.58 134.085 1678.04 Q132.279 1674.48 128.645 1674.48 M128.645 1670.77 Q134.455 1670.77 137.511 1675.38 Q140.589 1679.96 140.589 1688.71 Q140.589 1697.44 137.511 1702.05 Q134.455 1706.63 128.645 1706.63 Q122.835 1706.63 119.756 1702.05 Q116.701 1697.44 116.701 1688.71 Q116.701 1679.96 119.756 1675.38 Q122.835 1670.77 128.645 1670.77 Z" fill="#000000" fill-rule="nonzero" fill-opacity="1" /><path clip-path="url(#clip880)" d="M148.807 1700.08 L153.691 1700.08 L153.691 1705.96 L148.807 1705.96 L148.807 1700.08 Z" fill="#000000" fill-rule="nonzero" fill-opacity="1" /><path clip-path="url(#clip880)" d="M173.876 1674.48 Q170.265 1674.48 168.436 1678.04 Q166.631 1681.58 166.631 1688.71 Q166.631 1695.82 168.436 1699.38 Q170.265 1702.93 173.876 1702.93 Q177.51 1702.93 179.316 1699.38 Q181.145 1695.82 181.145 1688.71 Q181.145 1681.58 179.316 1678.04 Q177.51 1674.48 173.876 1674.48 M173.876 1670.77 Q179.686 1670.77 182.742 1675.38 Q185.821 1679.96 185.821 1688.71 Q185.821 1697.44 182.742 1702.05 Q179.686 1706.63 173.876 1706.63 Q168.066 1706.63 164.987 1702.05 Q161.932 1697.44 161.932 1688.71 Q161.932 1679.96 164.987 1675.38 Q168.066 1670.77 173.876 1670.77 Z" fill="#000000" fill-rule="nonzero" fill-opacity="1" /><path clip-path="url(#clip880)" d="M129.872 1311.03 Q126.261 1311.03 124.432 1314.59 Q122.626 1318.13 122.626 1325.26 Q122.626 1332.37 124.432 1335.93 Q126.261 1339.48 129.872 1339.48 Q133.506 1339.48 135.312 1335.93 Q137.14 1332.37 137.14 1325.26 Q137.14 1318.13 135.312 1314.59 Q133.506 1311.03 129.872 1311.03 M129.872 1307.32 Q135.682 1307.32 138.737 1311.93 Q141.816 1316.51 141.816 1325.26 Q141.816 1333.99 138.737 1338.6 Q135.682 1343.18 129.872 1343.18 Q124.062 1343.18 120.983 1338.6 Q117.927 1333.99 117.927 1325.26 Q117.927 1316.51 120.983 1311.93 Q124.062 1307.32 129.872 1307.32 Z" fill="#000000" fill-rule="nonzero" fill-opacity="1" /><path clip-path="url(#clip880)" d="M150.034 1336.63 L154.918 1336.63 L154.918 1342.51 L150.034 1342.51 L150.034 1336.63 Z" fill="#000000" fill-rule="nonzero" fill-opacity="1" /><path clip-path="url(#clip880)" d="M165.913 1338.57 L173.552 1338.57 L173.552 1312.21 L165.242 1313.87 L165.242 1309.61 L173.506 1307.95 L178.182 1307.95 L178.182 1338.57 L185.821 1338.57 L185.821 1342.51 L165.913 1342.51 L165.913 1338.57 Z" fill="#000000" fill-rule="nonzero" fill-opacity="1" /><path clip-path="url(#clip880)" d="M130.242 947.578 Q126.631 947.578 124.802 951.142 Q122.997 954.684 122.997 961.814 Q122.997 968.92 124.802 972.485 Q126.631 976.027 130.242 976.027 Q133.876 976.027 135.682 972.485 Q137.511 968.92 137.511 961.814 Q137.511 954.684 135.682 951.142 Q133.876 947.578 130.242 947.578 M130.242 943.874 Q136.052 943.874 139.108 948.48 Q142.187 953.064 142.187 961.814 Q142.187 970.54 139.108 975.147 Q136.052 979.73 130.242 979.73 Q124.432 979.73 121.353 975.147 Q118.298 970.54 118.298 961.814 Q118.298 953.064 121.353 948.48 Q124.432 943.874 130.242 943.874 Z" fill="#000000" fill-rule="nonzero" fill-opacity="1" /><path clip-path="url(#clip880)" d="M150.404 973.179 L155.288 973.179 L155.288 979.059 L150.404 979.059 L150.404 973.179 Z" fill="#000000" fill-rule="nonzero" fill-opacity="1" /><path clip-path="url(#clip880)" d="M169.501 975.124 L185.821 975.124 L185.821 979.059 L163.876 979.059 L163.876 975.124 Q166.538 972.369 171.122 967.74 Q175.728 963.087 176.909 961.744 Q179.154 959.221 180.034 957.485 Q180.936 955.726 180.936 954.036 Q180.936 951.281 178.992 949.545 Q177.071 947.809 173.969 947.809 Q171.77 947.809 169.316 948.573 Q166.885 949.337 164.108 950.888 L164.108 946.166 Q166.932 945.031 169.385 944.453 Q171.839 943.874 173.876 943.874 Q179.247 943.874 182.441 946.559 Q185.635 949.244 185.635 953.735 Q185.635 955.865 184.825 957.786 Q184.038 959.684 181.932 962.277 Q181.353 962.948 178.251 966.165 Q175.149 969.36 169.501 975.124 Z" fill="#000000" fill-rule="nonzero" fill-opacity="1" /><path clip-path="url(#clip880)" d="M129.293 584.128 Q125.682 584.128 123.853 587.693 Q122.048 591.235 122.048 598.364 Q122.048 605.471 123.853 609.036 Q125.682 612.577 129.293 612.577 Q132.927 612.577 134.733 609.036 Q136.562 605.471 136.562 598.364 Q136.562 591.235 134.733 587.693 Q132.927 584.128 129.293 584.128 M129.293 580.425 Q135.103 580.425 138.159 585.031 Q141.237 589.614 141.237 598.364 Q141.237 607.091 138.159 611.698 Q135.103 616.281 129.293 616.281 Q123.483 616.281 120.404 611.698 Q117.349 607.091 117.349 598.364 Q117.349 589.614 120.404 585.031 Q123.483 580.425 129.293 580.425 Z" fill="#000000" fill-rule="nonzero" fill-opacity="1" /><path clip-path="url(#clip880)" d="M149.455 609.73 L154.339 609.73 L154.339 615.61 L149.455 615.61 L149.455 609.73 Z" fill="#000000" fill-rule="nonzero" fill-opacity="1" /><path clip-path="url(#clip880)" d="M178.691 596.975 Q182.047 597.693 183.922 599.961 Q185.821 602.23 185.821 605.563 Q185.821 610.679 182.302 613.48 Q178.784 616.281 172.302 616.281 Q170.126 616.281 167.811 615.841 Q165.52 615.424 163.066 614.568 L163.066 610.054 Q165.01 611.188 167.325 611.767 Q169.64 612.346 172.163 612.346 Q176.561 612.346 178.853 610.61 Q181.168 608.873 181.168 605.563 Q181.168 602.508 179.015 600.795 Q176.885 599.059 173.066 599.059 L169.038 599.059 L169.038 595.216 L173.251 595.216 Q176.7 595.216 178.529 593.85 Q180.358 592.462 180.358 589.869 Q180.358 587.207 178.459 585.795 Q176.584 584.36 173.066 584.36 Q171.145 584.36 168.946 584.776 Q166.747 585.193 164.108 586.073 L164.108 581.906 Q166.77 581.165 169.085 580.795 Q171.422 580.425 173.483 580.425 Q178.807 580.425 181.909 582.855 Q185.01 585.262 185.01 589.383 Q185.01 592.253 183.367 594.244 Q181.723 596.212 178.691 596.975 Z" fill="#000000" fill-rule="nonzero" fill-opacity="1" /><path clip-path="url(#clip880)" d="M128.159 220.679 Q124.548 220.679 122.719 224.244 Q120.913 227.785 120.913 234.915 Q120.913 242.021 122.719 245.586 Q124.548 249.128 128.159 249.128 Q131.793 249.128 133.599 245.586 Q135.427 242.021 135.427 234.915 Q135.427 227.785 133.599 224.244 Q131.793 220.679 128.159 220.679 M128.159 216.975 Q133.969 216.975 137.025 221.582 Q140.103 226.165 140.103 234.915 Q140.103 243.642 137.025 248.248 Q133.969 252.831 128.159 252.831 Q122.349 252.831 119.27 248.248 Q116.214 243.642 116.214 234.915 Q116.214 226.165 119.27 221.582 Q122.349 216.975 128.159 216.975 Z" fill="#000000" fill-rule="nonzero" fill-opacity="1" /><path clip-path="url(#clip880)" d="M148.321 246.281 L153.205 246.281 L153.205 252.16 L148.321 252.16 L148.321 246.281 Z" fill="#000000" fill-rule="nonzero" fill-opacity="1" /><path clip-path="url(#clip880)" d="M176.237 221.674 L164.432 240.123 L176.237 240.123 L176.237 221.674 M175.01 217.6 L180.89 217.6 L180.89 240.123 L185.821 240.123 L185.821 244.012 L180.89 244.012 L180.89 252.16 L176.237 252.16 L176.237 244.012 L160.636 244.012 L160.636 239.498 L175.01 217.6 Z" fill="#000000" fill-rule="nonzero" fill-opacity="1" /><path clip-path="url(#clip880)" d="M15.678 1266.48 L21.9483 1266.48 Q20.1977 1270.14 19.3383 1273.38 Q18.479 1276.63 18.479 1279.65 Q18.479 1284.9 20.516 1287.77 Q22.553 1290.6 26.3088 1290.6 Q29.4598 1290.6 31.0831 1288.72 Q32.6745 1286.81 33.6612 1281.53 L34.4569 1277.65 Q35.8255 1270.45 39.2948 1267.05 Q42.7323 1263.61 48.5251 1263.61 Q55.4319 1263.61 58.9967 1268.26 Q62.5615 1272.87 62.5615 1281.82 Q62.5615 1285.19 61.7976 1289.01 Q61.0337 1292.8 59.5378 1296.87 L52.9174 1296.87 Q55.1136 1292.96 56.2276 1289.2 Q57.3416 1285.44 57.3416 1281.82 Q57.3416 1276.31 55.1773 1273.32 Q53.0129 1270.33 49.0025 1270.33 Q45.5014 1270.33 43.528 1272.49 Q41.5546 1274.62 40.568 1279.52 L39.8041 1283.44 Q38.3718 1290.63 35.3162 1293.85 Q32.2607 1297.06 26.818 1297.06 Q20.516 1297.06 16.8875 1292.64 Q13.2591 1288.18 13.2591 1280.38 Q13.2591 1277.04 13.8638 1273.57 Q14.4686 1270.1 15.678 1266.48 Z" fill="#000000" fill-rule="nonzero" fill-opacity="1" /><path clip-path="url(#clip880)" d="M47.5702 1254.44 L25.9905 1254.44 L25.9905 1248.59 L47.3474 1248.59 Q52.4082 1248.59 54.9545 1246.61 Q57.4689 1244.64 57.4689 1240.69 Q57.4689 1235.95 54.4452 1233.21 Q51.4215 1230.45 46.2016 1230.45 L25.9905 1230.45 L25.9905 1224.59 L61.6384 1224.59 L61.6384 1230.45 L56.1639 1230.45 Q59.4104 1232.58 61.0019 1235.41 Q62.5615 1238.21 62.5615 1241.94 Q62.5615 1248.08 58.742 1251.26 Q54.9226 1254.44 47.5702 1254.44 M25.1311 1239.71 L25.1311 1239.71 Z" fill="#000000" fill-rule="nonzero" fill-opacity="1" /><path clip-path="url(#clip880)" d="M43.8463 1186.94 Q37.3851 1186.94 33.7248 1189.61 Q30.0327 1192.25 30.0327 1196.9 Q30.0327 1201.54 33.7248 1204.22 Q37.3851 1206.86 43.8463 1206.86 Q50.3075 1206.86 53.9996 1204.22 Q57.6599 1201.54 57.6599 1196.9 Q57.6599 1192.25 53.9996 1189.61 Q50.3075 1186.94 43.8463 1186.94 M31.4013 1206.86 Q28.2185 1205.01 26.6907 1202.21 Q25.1311 1199.38 25.1311 1195.47 Q25.1311 1188.97 30.2873 1184.93 Q35.4436 1180.86 43.8463 1180.86 Q52.249 1180.86 57.4052 1184.93 Q62.5615 1188.97 62.5615 1195.47 Q62.5615 1199.38 61.0337 1202.21 Q59.4741 1205.01 56.2912 1206.86 L61.6384 1206.86 L61.6384 1212.75 L12.1132 1212.75 L12.1132 1206.86 L31.4013 1206.86 Z" fill="#000000" fill-rule="nonzero" fill-opacity="1" /><path clip-path="url(#clip880)" d="M56.2912 1165.48 L75.1974 1165.48 L75.1974 1171.37 L25.9905 1171.37 L25.9905 1165.48 L31.4013 1165.48 Q28.2185 1163.64 26.6907 1160.84 Q25.1311 1158 25.1311 1154.09 Q25.1311 1147.6 30.2873 1143.55 Q35.4436 1139.48 43.8463 1139.48 Q52.249 1139.48 57.4052 1143.55 Q62.5615 1147.6 62.5615 1154.09 Q62.5615 1158 61.0337 1160.84 Q59.4741 1163.64 56.2912 1165.48 M43.8463 1145.56 Q37.3851 1145.56 33.7248 1148.23 Q30.0327 1150.87 30.0327 1155.52 Q30.0327 1160.17 33.7248 1162.84 Q37.3851 1165.48 43.8463 1165.48 Q50.3075 1165.48 53.9996 1162.84 Q57.6599 1160.17 57.6599 1155.52 Q57.6599 1150.87 53.9996 1148.23 Q50.3075 1145.56 43.8463 1145.56 Z" fill="#000000" fill-rule="nonzero" fill-opacity="1" /><path clip-path="url(#clip880)" d="M30.0964 1115.96 Q30.0964 1120.67 33.7885 1123.41 Q37.4488 1126.14 43.8463 1126.14 Q50.2438 1126.14 53.9359 1123.44 Q57.5962 1120.7 57.5962 1115.96 Q57.5962 1111.28 53.9041 1108.54 Q50.212 1105.8 43.8463 1105.8 Q37.5124 1105.8 33.8203 1108.54 Q30.0964 1111.28 30.0964 1115.96 M25.1311 1115.96 Q25.1311 1108.32 30.0964 1103.96 Q35.0616 1099.6 43.8463 1099.6 Q52.5991 1099.6 57.5962 1103.96 Q62.5615 1108.32 62.5615 1115.96 Q62.5615 1123.63 57.5962 1127.99 Q52.5991 1132.32 43.8463 1132.32 Q35.0616 1132.32 30.0964 1127.99 Q25.1311 1123.63 25.1311 1115.96 Z" fill="#000000" fill-rule="nonzero" fill-opacity="1" /><path clip-path="url(#clip880)" d="M56.2912 1084.22 L75.1974 1084.22 L75.1974 1090.11 L25.9905 1090.11 L25.9905 1084.22 L31.4013 1084.22 Q28.2185 1082.38 26.6907 1079.58 Q25.1311 1076.75 25.1311 1072.83 Q25.1311 1066.34 30.2873 1062.29 Q35.4436 1058.22 43.8463 1058.22 Q52.249 1058.22 57.4052 1062.29 Q62.5615 1066.34 62.5615 1072.83 Q62.5615 1076.75 61.0337 1079.58 Q59.4741 1082.38 56.2912 1084.22 M43.8463 1064.3 Q37.3851 1064.3 33.7248 1066.97 Q30.0327 1069.62 30.0327 1074.26 Q30.0327 1078.91 33.7248 1081.58 Q37.3851 1084.22 43.8463 1084.22 Q50.3075 1084.22 53.9996 1081.58 Q57.6599 1078.91 57.6599 1074.26 Q57.6599 1069.62 53.9996 1066.97 Q50.3075 1064.3 43.8463 1064.3 Z" fill="#000000" fill-rule="nonzero" fill-opacity="1" /><path clip-path="url(#clip880)" d="M47.5702 1049.12 L25.9905 1049.12 L25.9905 1043.26 L47.3474 1043.26 Q52.4082 1043.26 54.9545 1041.29 Q57.4689 1039.31 57.4689 1035.37 Q57.4689 1030.63 54.4452 1027.89 Q51.4215 1025.12 46.2016 1025.12 L25.9905 1025.12 L25.9905 1019.26 L61.6384 1019.26 L61.6384 1025.12 L56.1639 1025.12 Q59.4104 1027.25 61.0019 1030.08 Q62.5615 1032.89 62.5615 1036.61 Q62.5615 1042.75 58.742 1045.94 Q54.9226 1049.12 47.5702 1049.12 M25.1311 1034.38 L25.1311 1034.38 Z" fill="#000000" fill-rule="nonzero" fill-opacity="1" /><path clip-path="url(#clip880)" d="M12.1132 1007.2 L12.1132 1001.34 L61.6384 1001.34 L61.6384 1007.2 L12.1132 1007.2 Z" fill="#000000" fill-rule="nonzero" fill-opacity="1" /><path clip-path="url(#clip880)" d="M43.719 972.889 Q43.719 979.986 45.3422 982.724 Q46.9655 985.461 50.8804 985.461 Q53.9996 985.461 55.8457 983.424 Q57.6599 981.355 57.6599 977.822 Q57.6599 972.952 54.2224 970.024 Q50.7531 967.064 45.0239 967.064 L43.719 967.064 L43.719 972.889 M41.3 961.208 L61.6384 961.208 L61.6384 967.064 L56.2276 967.064 Q59.4741 969.069 61.0337 972.061 Q62.5615 975.053 62.5615 979.382 Q62.5615 984.856 59.5059 988.103 Q56.4186 991.317 51.2623 991.317 Q45.2467 991.317 42.1912 987.307 Q39.1357 983.265 39.1357 975.276 L39.1357 967.064 L38.5628 967.064 Q34.5205 967.064 32.3244 969.738 Q30.0964 972.379 30.0964 977.186 Q30.0964 980.241 30.8284 983.137 Q31.5605 986.034 33.0246 988.707 L27.6137 988.707 Q26.3724 985.493 25.7677 982.469 Q25.1311 979.445 25.1311 976.581 Q25.1311 968.846 29.1415 965.027 Q33.1519 961.208 41.3 961.208 Z" fill="#000000" fill-rule="nonzero" fill-opacity="1" /><path clip-path="url(#clip880)" d="M15.869 943.352 L25.9905 943.352 L25.9905 931.289 L30.542 931.289 L30.542 943.352 L49.8937 943.352 Q54.2542 943.352 55.4955 942.174 Q56.7368 940.965 56.7368 937.304 L56.7368 931.289 L61.6384 931.289 L61.6384 937.304 Q61.6384 944.084 59.124 946.662 Q56.5777 949.24 49.8937 949.24 L30.542 949.24 L30.542 953.537 L25.9905 953.537 L25.9905 949.24 L15.869 949.24 L15.869 943.352 Z" fill="#000000" fill-rule="nonzero" fill-opacity="1" /><path clip-path="url(#clip880)" d="M25.9905 923.586 L25.9905 917.73 L61.6384 917.73 L61.6384 923.586 L25.9905 923.586 M12.1132 923.586 L12.1132 917.73 L19.5293 917.73 L19.5293 923.586 L12.1132 923.586 Z" fill="#000000" fill-rule="nonzero" fill-opacity="1" /><path clip-path="url(#clip880)" d="M30.0964 891.662 Q30.0964 896.373 33.7885 899.11 Q37.4488 901.847 43.8463 901.847 Q50.2438 901.847 53.9359 899.142 Q57.5962 896.405 57.5962 891.662 Q57.5962 886.983 53.9041 884.246 Q50.212 881.509 43.8463 881.509 Q37.5124 881.509 33.8203 884.246 Q30.0964 886.983 30.0964 891.662 M25.1311 891.662 Q25.1311 884.023 30.0964 879.663 Q35.0616 875.302 43.8463 875.302 Q52.5991 875.302 57.5962 879.663 Q62.5615 884.023 62.5615 891.662 Q62.5615 899.333 57.5962 903.693 Q52.5991 908.022 43.8463 908.022 Q35.0616 908.022 30.0964 903.693 Q25.1311 899.333 25.1311 891.662 Z" fill="#000000" fill-rule="nonzero" fill-opacity="1" /><path clip-path="url(#clip880)" d="M40.1224 835.962 L61.6384 835.962 L61.6384 841.819 L40.3133 841.819 Q35.2526 841.819 32.7381 843.792 Q30.2237 845.765 30.2237 849.712 Q30.2237 854.455 33.2474 857.192 Q36.2711 859.929 41.491 859.929 L61.6384 859.929 L61.6384 865.817 L25.9905 865.817 L25.9905 859.929 L31.5287 859.929 Q28.314 857.829 26.7225 854.996 Q25.1311 852.131 25.1311 848.407 Q25.1311 842.264 28.9505 839.113 Q32.7381 835.962 40.1224 835.962 Z" fill="#000000" fill-rule="nonzero" fill-opacity="1" /><path clip-path="url(#clip880)" d="M12.1132 785.514 L16.983 785.514 L16.983 791.116 Q16.983 794.267 18.2562 795.508 Q19.5293 796.718 22.8395 796.718 L25.9905 796.718 L25.9905 787.074 L30.542 787.074 L30.542 796.718 L61.6384 796.718 L61.6384 802.606 L30.542 802.606 L30.542 808.208 L25.9905 808.208 L25.9905 802.606 L23.5079 802.606 Q17.5559 802.606 14.8505 799.837 Q12.1132 797.068 12.1132 791.052 L12.1132 785.514 Z" fill="#000000" fill-rule="nonzero" fill-opacity="1" /><path clip-path="url(#clip880)" d="M31.465 759.956 Q30.8921 760.942 30.6375 762.12 Q30.351 763.266 30.351 764.666 Q30.351 769.632 33.5975 772.305 Q36.8122 774.947 42.8596 774.947 L61.6384 774.947 L61.6384 780.835 L25.9905 780.835 L25.9905 774.947 L31.5287 774.947 Q28.2821 773.101 26.7225 770.141 Q25.1311 767.181 25.1311 762.948 Q25.1311 762.343 25.2266 761.611 Q25.2903 760.879 25.4494 759.988 L31.465 759.956 Z" fill="#000000" fill-rule="nonzero" fill-opacity="1" /><path clip-path="url(#clip880)" d="M43.719 737.612 Q43.719 744.71 45.3422 747.447 Q46.9655 750.184 50.8804 750.184 Q53.9996 750.184 55.8457 748.147 Q57.6599 746.079 57.6599 742.546 Q57.6599 737.676 54.2224 734.748 Q50.7531 731.788 45.0239 731.788 L43.719 731.788 L43.719 737.612 M41.3 725.931 L61.6384 725.931 L61.6384 731.788 L56.2276 731.788 Q59.4741 733.793 61.0337 736.785 Q62.5615 739.776 62.5615 744.105 Q62.5615 749.58 59.5059 752.826 Q56.4186 756.041 51.2623 756.041 Q45.2467 756.041 42.1912 752.03 Q39.1357 747.988 39.1357 739.999 L39.1357 731.788 L38.5628 731.788 Q34.5205 731.788 32.3244 734.461 Q30.0964 737.103 30.0964 741.909 Q30.0964 744.965 30.8284 747.861 Q31.5605 750.757 33.0246 753.431 L27.6137 753.431 Q26.3724 750.216 25.7677 747.193 Q25.1311 744.169 25.1311 741.304 Q25.1311 733.57 29.1415 729.75 Q33.1519 725.931 41.3 725.931 Z" fill="#000000" fill-rule="nonzero" fill-opacity="1" /><path clip-path="url(#clip880)" d="M27.3591 688.214 L32.8336 688.214 Q31.465 690.697 30.7966 693.211 Q30.0964 695.694 30.0964 698.24 Q30.0964 703.938 33.7248 707.089 Q37.3214 710.24 43.8463 710.24 Q50.3711 710.24 53.9996 707.089 Q57.5962 703.938 57.5962 698.24 Q57.5962 695.694 56.9278 693.211 Q56.2276 690.697 54.859 688.214 L60.2698 688.214 Q61.4156 690.665 61.9886 693.307 Q62.5615 695.917 62.5615 698.877 Q62.5615 706.929 57.5007 711.672 Q52.44 716.414 43.8463 716.414 Q35.1253 716.414 30.1282 711.64 Q25.1311 706.834 25.1311 698.495 Q25.1311 695.789 25.704 693.211 Q26.2451 690.633 27.3591 688.214 Z" fill="#000000" fill-rule="nonzero" fill-opacity="1" /><path clip-path="url(#clip880)" d="M15.869 672.236 L25.9905 672.236 L25.9905 660.173 L30.542 660.173 L30.542 672.236 L49.8937 672.236 Q54.2542 672.236 55.4955 671.059 Q56.7368 669.849 56.7368 666.189 L56.7368 660.173 L61.6384 660.173 L61.6384 666.189 Q61.6384 672.968 59.124 675.546 Q56.5777 678.125 49.8937 678.125 L30.542 678.125 L30.542 682.421 L25.9905 682.421 L25.9905 678.125 L15.869 678.125 L15.869 672.236 Z" fill="#000000" fill-rule="nonzero" fill-opacity="1" /><path clip-path="url(#clip880)" d="M25.9905 652.471 L25.9905 646.614 L61.6384 646.614 L61.6384 652.471 L25.9905 652.471 M12.1132 652.471 L12.1132 646.614 L19.5293 646.614 L19.5293 652.471 L12.1132 652.471 Z" fill="#000000" fill-rule="nonzero" fill-opacity="1" /><path clip-path="url(#clip880)" d="M30.0964 620.547 Q30.0964 625.257 33.7885 627.995 Q37.4488 630.732 43.8463 630.732 Q50.2438 630.732 53.9359 628.026 Q57.5962 625.289 57.5962 620.547 Q57.5962 615.868 53.9041 613.131 Q50.212 610.393 43.8463 610.393 Q37.5124 610.393 33.8203 613.131 Q30.0964 615.868 30.0964 620.547 M25.1311 620.547 Q25.1311 612.908 30.0964 608.547 Q35.0616 604.187 43.8463 604.187 Q52.5991 604.187 57.5962 608.547 Q62.5615 612.908 62.5615 620.547 Q62.5615 628.217 57.5962 632.578 Q52.5991 636.907 43.8463 636.907 Q35.0616 636.907 30.0964 632.578 Q25.1311 628.217 25.1311 620.547 Z" fill="#000000" fill-rule="nonzero" fill-opacity="1" /><path clip-path="url(#clip880)" d="M40.1224 564.847 L61.6384 564.847 L61.6384 570.703 L40.3133 570.703 Q35.2526 570.703 32.7381 572.677 Q30.2237 574.65 30.2237 578.597 Q30.2237 583.339 33.2474 586.076 Q36.2711 588.814 41.491 588.814 L61.6384 588.814 L61.6384 594.702 L25.9905 594.702 L25.9905 588.814 L31.5287 588.814 Q28.314 586.713 26.7225 583.88 Q25.1311 581.016 25.1311 577.292 Q25.1311 571.149 28.9505 567.998 Q32.7381 564.847 40.1224 564.847 Z" fill="#000000" fill-rule="nonzero" fill-opacity="1" /><path clip-path="url(#clip880)" d="M885.158 18.8205 L885.158 41.5461 L895.448 41.5461 Q901.159 41.5461 904.279 38.5889 Q907.398 35.6318 907.398 30.163 Q907.398 24.7348 904.279 21.7777 Q901.159 18.8205 895.448 18.8205 L885.158 18.8205 M876.976 12.096 L895.448 12.096 Q905.615 12.096 910.801 16.714 Q916.026 21.2916 916.026 30.163 Q916.026 39.1155 910.801 43.6931 Q905.615 48.2706 895.448 48.2706 L885.158 48.2706 L885.158 72.576 L876.976 72.576 L876.976 12.096 Z" fill="#000000" fill-rule="nonzero" fill-opacity="1" /><path clip-path="url(#clip880)" d="M962.531 48.0275 L962.531 51.6733 L928.26 51.6733 Q928.746 59.3701 932.878 63.421 Q937.05 67.4314 944.464 67.4314 Q948.758 67.4314 952.768 66.3781 Q956.819 65.3249 960.789 63.2184 L960.789 70.267 Q956.778 71.9684 952.565 72.8596 Q948.352 73.7508 944.018 73.7508 Q933.162 73.7508 926.802 67.4314 Q920.482 61.1119 920.482 50.3365 Q920.482 39.1965 926.478 32.6746 Q932.513 26.1121 942.722 26.1121 Q951.877 26.1121 957.183 32.0264 Q962.531 37.9003 962.531 48.0275 M955.077 45.84 Q954.996 39.7232 951.634 36.0774 Q948.312 32.4315 942.803 32.4315 Q936.564 32.4315 932.797 35.9558 Q929.07 39.4801 928.503 45.8805 L955.077 45.84 Z" fill="#000000" fill-rule="nonzero" fill-opacity="1" /><path clip-path="url(#clip880)" d="M1001.05 34.1734 Q999.799 33.4443 998.3 33.1202 Q996.842 32.7556 995.059 32.7556 Q988.74 32.7556 985.337 36.8875 Q981.975 40.9789 981.975 48.6757 L981.975 72.576 L974.481 72.576 L974.481 27.2059 L981.975 27.2059 L981.975 34.2544 Q984.324 30.1225 988.092 28.1376 Q991.859 26.1121 997.247 26.1121 Q998.017 26.1121 998.948 26.2337 Q999.88 26.3147 1001.01 26.5172 L1001.05 34.1734 Z" fill="#000000" fill-rule="nonzero" fill-opacity="1" /><path clip-path="url(#clip880)" d="M999.799 46.5287 L1021.63 46.5287 L1021.63 53.1722 L999.799 53.1722 L999.799 46.5287 Z" fill="#000000" fill-rule="nonzero" fill-opacity="1" /><path clip-path="url(#clip880)" d="M1050.92 76.7889 Q1047.76 84.8907 1044.76 87.3618 Q1041.77 89.8329 1036.74 89.8329 L1030.79 89.8329 L1030.79 83.5945 L1035.16 83.5945 Q1038.24 83.5945 1039.94 82.1361 Q1041.64 80.6778 1043.71 75.2496 L1045.05 71.8468 L1026.7 27.2059 L1034.6 27.2059 L1048.77 62.6918 L1062.95 27.2059 L1070.85 27.2059 L1050.92 76.7889 Z" fill="#000000" fill-rule="nonzero" fill-opacity="1" /><path clip-path="url(#clip880)" d="M1145.23 45.1919 L1145.23 72.576 L1137.77 72.576 L1137.77 45.4349 Q1137.77 38.994 1135.26 35.7938 Q1132.75 32.5936 1127.73 32.5936 Q1121.69 32.5936 1118.21 36.4419 Q1114.72 40.2903 1114.72 46.9338 L1114.72 72.576 L1107.23 72.576 L1107.23 27.2059 L1114.72 27.2059 L1114.72 34.2544 Q1117.4 30.163 1121 28.1376 Q1124.65 26.1121 1129.39 26.1121 Q1137.21 26.1121 1141.22 30.9732 Q1145.23 35.7938 1145.23 45.1919 Z" fill="#000000" fill-rule="nonzero" fill-opacity="1" /><path clip-path="url(#clip880)" d="M1198.9 48.0275 L1198.9 51.6733 L1164.63 51.6733 Q1165.12 59.3701 1169.25 63.421 Q1173.42 67.4314 1180.83 67.4314 Q1185.13 67.4314 1189.14 66.3781 Q1193.19 65.3249 1197.16 63.2184 L1197.16 70.267 Q1193.15 71.9684 1188.94 72.8596 Q1184.72 73.7508 1180.39 73.7508 Q1169.53 73.7508 1163.17 67.4314 Q1156.85 61.1119 1156.85 50.3365 Q1156.85 39.1965 1162.85 32.6746 Q1168.88 26.1121 1179.09 26.1121 Q1188.25 26.1121 1193.55 32.0264 Q1198.9 37.9003 1198.9 48.0275 M1191.45 45.84 Q1191.37 39.7232 1188 36.0774 Q1184.68 32.4315 1179.17 32.4315 Q1172.93 32.4315 1169.17 35.9558 Q1165.44 39.4801 1164.87 45.8805 L1191.45 45.84 Z" fill="#000000" fill-rule="nonzero" fill-opacity="1" /><path clip-path="url(#clip880)" d="M1211.13 27.2059 L1218.59 27.2059 L1218.59 72.576 L1211.13 72.576 L1211.13 27.2059 M1211.13 9.54393 L1218.59 9.54393 L1218.59 18.9825 L1211.13 18.9825 L1211.13 9.54393 Z" fill="#000000" fill-rule="nonzero" fill-opacity="1" /><path clip-path="url(#clip880)" d="M1264.04 49.3643 Q1264.04 41.2625 1260.68 36.8065 Q1257.36 32.3505 1251.32 32.3505 Q1245.32 32.3505 1241.96 36.8065 Q1238.64 41.2625 1238.64 49.3643 Q1238.64 57.4256 1241.96 61.8816 Q1245.32 66.3376 1251.32 66.3376 Q1257.36 66.3376 1260.68 61.8816 Q1264.04 57.4256 1264.04 49.3643 M1271.49 66.9452 Q1271.49 78.5308 1266.35 84.1616 Q1261.2 89.8329 1250.59 89.8329 Q1246.66 89.8329 1243.18 89.2252 Q1239.69 88.6581 1236.41 87.4428 L1236.41 80.1917 Q1239.69 81.9741 1242.89 82.8248 Q1246.09 83.6755 1249.42 83.6755 Q1256.75 83.6755 1260.39 79.8271 Q1264.04 76.0193 1264.04 68.282 L1264.04 64.5957 Q1261.73 68.6061 1258.13 70.5911 Q1254.52 72.576 1249.5 72.576 Q1241.15 72.576 1236.05 66.2161 Q1230.94 59.8562 1230.94 49.3643 Q1230.94 38.832 1236.05 32.472 Q1241.15 26.1121 1249.5 26.1121 Q1254.52 26.1121 1258.13 28.0971 Q1261.73 30.082 1264.04 34.0924 L1264.04 27.2059 L1271.49 27.2059 L1271.49 66.9452 Z" fill="#000000" fill-rule="nonzero" fill-opacity="1" /><path clip-path="url(#clip880)" d="M1324.56 45.1919 L1324.56 72.576 L1317.11 72.576 L1317.11 45.4349 Q1317.11 38.994 1314.59 35.7938 Q1312.08 32.5936 1307.06 32.5936 Q1301.02 32.5936 1297.54 36.4419 Q1294.06 40.2903 1294.06 46.9338 L1294.06 72.576 L1286.56 72.576 L1286.56 9.54393 L1294.06 9.54393 L1294.06 34.2544 Q1296.73 30.163 1300.34 28.1376 Q1303.98 26.1121 1308.72 26.1121 Q1316.54 26.1121 1320.55 30.9732 Q1324.56 35.7938 1324.56 45.1919 Z" fill="#000000" fill-rule="nonzero" fill-opacity="1" /><path clip-path="url(#clip880)" d="M1372 49.9314 Q1372 41.7081 1368.59 37.0496 Q1365.23 32.3505 1359.32 32.3505 Q1353.4 32.3505 1350 37.0496 Q1346.64 41.7081 1346.64 49.9314 Q1346.64 58.1548 1350 62.8538 Q1353.4 67.5124 1359.32 67.5124 Q1365.23 67.5124 1368.59 62.8538 Q1372 58.1548 1372 49.9314 M1346.64 34.0924 Q1348.99 30.0415 1352.55 28.0971 Q1356.16 26.1121 1361.14 26.1121 Q1369.4 26.1121 1374.55 32.6746 Q1379.73 39.2371 1379.73 49.9314 Q1379.73 60.6258 1374.55 67.1883 Q1369.4 73.7508 1361.14 73.7508 Q1356.16 73.7508 1352.55 71.8063 Q1348.99 69.8214 1346.64 65.7705 L1346.64 72.576 L1339.14 72.576 L1339.14 9.54393 L1346.64 9.54393 L1346.64 34.0924 Z" fill="#000000" fill-rule="nonzero" fill-opacity="1" /><path clip-path="url(#clip880)" d="M1409.67 32.4315 Q1403.67 32.4315 1400.19 37.1306 Q1396.71 41.7891 1396.71 49.9314 Q1396.71 58.0738 1400.15 62.7728 Q1403.63 67.4314 1409.67 67.4314 Q1415.62 67.4314 1419.11 62.7323 Q1422.59 58.0333 1422.59 49.9314 Q1422.59 41.8701 1419.11 37.1711 Q1415.62 32.4315 1409.67 32.4315 M1409.67 26.1121 Q1419.39 26.1121 1424.94 32.4315 Q1430.49 38.7509 1430.49 49.9314 Q1430.49 61.0714 1424.94 67.4314 Q1419.39 73.7508 1409.67 73.7508 Q1399.91 73.7508 1394.36 67.4314 Q1388.85 61.0714 1388.85 49.9314 Q1388.85 38.7509 1394.36 32.4315 Q1399.91 26.1121 1409.67 26.1121 Z" fill="#000000" fill-rule="nonzero" fill-opacity="1" /><path clip-path="url(#clip880)" d="M1442.08 54.671 L1442.08 27.2059 L1449.53 27.2059 L1449.53 54.3874 Q1449.53 60.8284 1452.04 64.0691 Q1454.55 67.2693 1459.58 67.2693 Q1465.61 67.2693 1469.1 63.421 Q1472.62 59.5726 1472.62 52.9291 L1472.62 27.2059 L1480.07 27.2059 L1480.07 72.576 L1472.62 72.576 L1472.62 65.6084 Q1469.91 69.7404 1466.3 71.7658 Q1462.74 73.7508 1458 73.7508 Q1450.18 73.7508 1446.13 68.8897 Q1442.08 64.0286 1442.08 54.671 M1460.83 26.1121 L1460.83 26.1121 Z" fill="#000000" fill-rule="nonzero" fill-opacity="1" /><path clip-path="url(#clip880)" d="M1521.72 34.1734 Q1520.46 33.4443 1518.96 33.1202 Q1517.5 32.7556 1515.72 32.7556 Q1509.4 32.7556 1506 36.8875 Q1502.64 40.9789 1502.64 48.6757 L1502.64 72.576 L1495.14 72.576 L1495.14 27.2059 L1502.64 27.2059 L1502.64 34.2544 Q1504.99 30.1225 1508.75 28.1376 Q1512.52 26.1121 1517.91 26.1121 Q1518.68 26.1121 1519.61 26.2337 Q1520.54 26.3147 1521.68 26.5172 L1521.72 34.1734 Z" fill="#000000" fill-rule="nonzero" fill-opacity="1" /><path clip-path="url(#clip880)" d="M1565.79 45.1919 L1565.79 72.576 L1558.34 72.576 L1558.34 45.4349 Q1558.34 38.994 1555.83 35.7938 Q1553.31 32.5936 1548.29 32.5936 Q1542.26 32.5936 1538.77 36.4419 Q1535.29 40.2903 1535.29 46.9338 L1535.29 72.576 L1527.79 72.576 L1527.79 9.54393 L1535.29 9.54393 L1535.29 34.2544 Q1537.96 30.163 1541.57 28.1376 Q1545.21 26.1121 1549.95 26.1121 Q1557.77 26.1121 1561.78 30.9732 Q1565.79 35.7938 1565.79 45.1919 Z" fill="#000000" fill-rule="nonzero" fill-opacity="1" /><path clip-path="url(#clip880)" d="M1598.24 32.4315 Q1592.24 32.4315 1588.76 37.1306 Q1585.28 41.7891 1585.28 49.9314 Q1585.28 58.0738 1588.72 62.7728 Q1592.2 67.4314 1598.24 67.4314 Q1604.19 67.4314 1607.68 62.7323 Q1611.16 58.0333 1611.16 49.9314 Q1611.16 41.8701 1607.68 37.1711 Q1604.19 32.4315 1598.24 32.4315 M1598.24 26.1121 Q1607.96 26.1121 1613.51 32.4315 Q1619.06 38.7509 1619.06 49.9314 Q1619.06 61.0714 1613.51 67.4314 Q1607.96 73.7508 1598.24 73.7508 Q1588.48 73.7508 1582.93 67.4314 Q1577.42 61.0714 1577.42 49.9314 Q1577.42 38.7509 1582.93 32.4315 Q1588.48 26.1121 1598.24 26.1121 Z" fill="#000000" fill-rule="nonzero" fill-opacity="1" /><path clip-path="url(#clip880)" d="M1649 32.4315 Q1643 32.4315 1639.52 37.1306 Q1636.03 41.7891 1636.03 49.9314 Q1636.03 58.0738 1639.48 62.7728 Q1642.96 67.4314 1649 67.4314 Q1654.95 67.4314 1658.44 62.7323 Q1661.92 58.0333 1661.92 49.9314 Q1661.92 41.8701 1658.44 37.1711 Q1654.95 32.4315 1649 32.4315 M1649 26.1121 Q1658.72 26.1121 1664.27 32.4315 Q1669.82 38.7509 1669.82 49.9314 Q1669.82 61.0714 1664.27 67.4314 Q1658.72 73.7508 1649 73.7508 Q1639.23 73.7508 1633.68 67.4314 Q1628.18 61.0714 1628.18 49.9314 Q1628.18 38.7509 1633.68 32.4315 Q1639.23 26.1121 1649 26.1121 Z" fill="#000000" fill-rule="nonzero" fill-opacity="1" /><path clip-path="url(#clip880)" d="M1712.03 34.0924 L1712.03 9.54393 L1719.48 9.54393 L1719.48 72.576 L1712.03 72.576 L1712.03 65.7705 Q1709.68 69.8214 1706.07 71.8063 Q1702.51 73.7508 1697.49 73.7508 Q1689.26 73.7508 1684.08 67.1883 Q1678.93 60.6258 1678.93 49.9314 Q1678.93 39.2371 1684.08 32.6746 Q1689.26 26.1121 1697.49 26.1121 Q1702.51 26.1121 1706.07 28.0971 Q1709.68 30.0415 1712.03 34.0924 M1686.63 49.9314 Q1686.63 58.1548 1689.99 62.8538 Q1693.39 67.5124 1699.31 67.5124 Q1705.22 67.5124 1708.63 62.8538 Q1712.03 58.1548 1712.03 49.9314 Q1712.03 41.7081 1708.63 37.0496 Q1705.22 32.3505 1699.31 32.3505 Q1693.39 32.3505 1689.99 37.0496 Q1686.63 41.7081 1686.63 49.9314 Z" fill="#000000" fill-rule="nonzero" fill-opacity="1" /><path clip-path="url(#clip880)" d="M1790.13 28.5427 L1790.13 35.5912 Q1786.97 33.9709 1783.57 33.1607 Q1780.17 32.3505 1776.52 32.3505 Q1770.97 32.3505 1768.17 34.0519 Q1765.42 35.7533 1765.42 39.156 Q1765.42 41.7486 1767.4 43.2475 Q1769.39 44.7058 1775.39 46.0426 L1777.94 46.6097 Q1785.88 48.3111 1789.2 51.4303 Q1792.56 54.509 1792.56 60.0587 Q1792.56 66.3781 1787.54 70.0644 Q1782.56 73.7508 1773.81 73.7508 Q1770.16 73.7508 1766.19 73.0216 Q1762.26 72.3329 1757.89 70.9151 L1757.89 63.2184 Q1762.02 65.3654 1766.03 66.4591 Q1770.04 67.5124 1773.97 67.5124 Q1779.23 67.5124 1782.07 65.73 Q1784.9 63.9071 1784.9 60.6258 Q1784.9 57.5877 1782.84 55.9673 Q1780.81 54.3469 1773.89 52.8481 L1771.29 52.2405 Q1764.37 50.7821 1761.29 47.7845 Q1758.21 44.7463 1758.21 39.4801 Q1758.21 33.0797 1762.75 29.5959 Q1767.28 26.1121 1775.63 26.1121 Q1779.76 26.1121 1783.41 26.7198 Q1787.05 27.3274 1790.13 28.5427 Z" fill="#000000" fill-rule="nonzero" fill-opacity="1" /><path clip-path="url(#clip880)" d="M1811.8 14.324 L1811.8 27.2059 L1827.16 27.2059 L1827.16 32.9987 L1811.8 32.9987 L1811.8 57.6282 Q1811.8 63.1779 1813.3 64.7578 Q1814.84 66.3376 1819.5 66.3376 L1827.16 66.3376 L1827.16 72.576 L1819.5 72.576 Q1810.87 72.576 1807.59 69.3758 Q1804.31 66.1351 1804.31 57.6282 L1804.31 32.9987 L1798.84 32.9987 L1798.84 27.2059 L1804.31 27.2059 L1804.31 14.324 L1811.8 14.324 Z" fill="#000000" fill-rule="nonzero" fill-opacity="1" /><path clip-path="url(#clip880)" d="M1863.25 34.1734 Q1861.99 33.4443 1860.49 33.1202 Q1859.04 32.7556 1857.25 32.7556 Q1850.93 32.7556 1847.53 36.8875 Q1844.17 40.9789 1844.17 48.6757 L1844.17 72.576 L1836.68 72.576 L1836.68 27.2059 L1844.17 27.2059 L1844.17 34.2544 Q1846.52 30.1225 1850.29 28.1376 Q1854.05 26.1121 1859.44 26.1121 Q1860.21 26.1121 1861.14 26.2337 Q1862.07 26.3147 1863.21 26.5172 L1863.25 34.1734 Z" fill="#000000" fill-rule="nonzero" fill-opacity="1" /><path clip-path="url(#clip880)" d="M1891.69 49.7694 Q1882.65 49.7694 1879.17 51.8354 Q1875.69 53.9013 1875.69 58.8839 Q1875.69 62.8538 1878.28 65.2034 Q1880.91 67.5124 1885.41 67.5124 Q1891.61 67.5124 1895.33 63.1374 Q1899.1 58.7219 1899.1 51.4303 L1899.1 49.7694 L1891.69 49.7694 M1906.55 46.6907 L1906.55 72.576 L1899.1 72.576 L1899.1 65.6895 Q1896.55 69.8214 1892.74 71.8063 Q1888.93 73.7508 1883.42 73.7508 Q1876.46 73.7508 1872.32 69.8619 Q1868.23 65.9325 1868.23 59.3701 Q1868.23 51.7138 1873.34 47.825 Q1878.48 43.9361 1888.65 43.9361 L1899.1 43.9361 L1899.1 43.2069 Q1899.1 38.0623 1895.7 35.2672 Q1892.33 32.4315 1886.22 32.4315 Q1882.33 32.4315 1878.64 33.3632 Q1874.96 34.295 1871.55 36.1584 L1871.55 29.2718 Q1875.64 27.692 1879.49 26.9223 Q1883.34 26.1121 1886.99 26.1121 Q1896.83 26.1121 1901.69 31.2163 Q1906.55 36.3204 1906.55 46.6907 Z" fill="#000000" fill-rule="nonzero" fill-opacity="1" /><path clip-path="url(#clip880)" d="M1929.28 14.324 L1929.28 27.2059 L1944.63 27.2059 L1944.63 32.9987 L1929.28 32.9987 L1929.28 57.6282 Q1929.28 63.1779 1930.78 64.7578 Q1932.32 66.3376 1936.98 66.3376 L1944.63 66.3376 L1944.63 72.576 L1936.98 72.576 Q1928.35 72.576 1925.07 69.3758 Q1921.78 66.1351 1921.78 57.6282 L1921.78 32.9987 L1916.32 32.9987 L1916.32 27.2059 L1921.78 27.2059 L1921.78 14.324 L1929.28 14.324 Z" fill="#000000" fill-rule="nonzero" fill-opacity="1" /><path clip-path="url(#clip880)" d="M1975.05 49.7694 Q1966.02 49.7694 1962.54 51.8354 Q1959.05 53.9013 1959.05 58.8839 Q1959.05 62.8538 1961.65 65.2034 Q1964.28 67.5124 1968.78 67.5124 Q1974.97 67.5124 1978.7 63.1374 Q1982.47 58.7219 1982.47 51.4303 L1982.47 49.7694 L1975.05 49.7694 M1989.92 46.6907 L1989.92 72.576 L1982.47 72.576 L1982.47 65.6895 Q1979.92 69.8214 1976.11 71.8063 Q1972.3 73.7508 1966.79 73.7508 Q1959.82 73.7508 1955.69 69.8619 Q1951.6 65.9325 1951.6 59.3701 Q1951.6 51.7138 1956.7 47.825 Q1961.85 43.9361 1972.02 43.9361 L1982.47 43.9361 L1982.47 43.2069 Q1982.47 38.0623 1979.06 35.2672 Q1975.7 32.4315 1969.59 32.4315 Q1965.7 32.4315 1962.01 33.3632 Q1958.32 34.295 1954.92 36.1584 L1954.92 29.2718 Q1959.01 27.692 1962.86 26.9223 Q1966.71 26.1121 1970.36 26.1121 Q1980.2 26.1121 1985.06 31.2163 Q1989.92 36.3204 1989.92 46.6907 Z" fill="#000000" fill-rule="nonzero" fill-opacity="1" /><polyline clip-path="url(#clip881)" style="stroke:#440154; stroke-linecap:round; stroke-linejoin:round; stroke-width:8; stroke-opacity:1; fill:none" points="294.479,1532.87 332.444,1634.33 370.41,1653.51 408.376,1655.27 446.341,1653.15 484.307,1650.47 522.273,1648.4 560.238,1647.55 598.204,1648.21 636.17,1650.33 674.135,1653.49 712.101,1657.09 750.067,1660.57 788.032,1663.52 825.998,1665.79 863.963,1667.43 901.929,1668.53 939.895,1669.25 977.86,1669.7 1015.83,1669.98 1053.79,1670.15 1091.76,1670.26 1129.72,1670.32 1167.69,1670.36 1205.65,1670.38 1243.62,1670.39 1281.59,1670.4 1319.55,1670.4 1357.52,1670.41 1395.48,1670.41 1433.45,1670.41 1471.41,1670.41 1509.38,1670.41 1547.35,1670.41 1585.31,1670.41 1623.28,1670.41 1661.24,1670.41 1699.21,1670.41 1737.17,1670.41 1775.14,1670.41 1813.1,1670.41 1851.07,1670.41 1889.04,1670.41 1927,1670.41 1964.97,1670.41 2002.93,1670.41 2040.9,1670.41 2078.86,1670.41 2116.83,1670.41 2154.8,1670.41 2192.76,1670.41 2230.73,1670.41 2268.69,1670.41 2306.66,1670.41 2344.62,1670.41 2382.59,1670.41 2420.56,1670.41 2458.52,1670.41 2496.49,1670.41 2534.45,1670.41 2572.42,1670.41 "/>
<polyline clip-path="url(#clip881)" style="stroke:#30678d; stroke-linecap:round; stroke-linejoin:round; stroke-width:8; stroke-opacity:1; fill:none" points="294.479,1664.08 332.444,1511.73 370.41,1463.22 408.376,1424.91 446.341,1386.16 484.307,1348.95 522.273,1317.48 560.238,1296.09 598.204,1287.79 636.17,1293.09 674.135,1309.61 712.101,1332.83 750.067,1357.71 788.032,1380.31 825.998,1398.56 863.963,1412.03 901.929,1421.34 939.895,1427.47 977.86,1431.37 1015.83,1433.8 1053.79,1435.28 1091.76,1436.18 1129.72,1436.71 1167.69,1437.04 1205.65,1437.23 1243.62,1437.35 1281.59,1437.41 1319.55,1437.45 1357.52,1437.48 1395.48,1437.49 1433.45,1437.5 1471.41,1437.51 1509.38,1437.51 1547.35,1437.51 1585.31,1437.51 1623.28,1437.51 1661.24,1437.51 1699.21,1437.51 1737.17,1437.51 1775.14,1437.51 1813.1,1437.51 1851.07,1437.51 1889.04,1437.51 1927,1437.51 1964.97,1437.51 2002.93,1437.51 2040.9,1437.51 2078.86,1437.51 2116.83,1437.51 2154.8,1437.51 2192.76,1437.51 2230.73,1437.51 2268.69,1437.51 2306.66,1437.51 2344.62,1437.51 2382.59,1437.51 2420.56,1437.51 2458.52,1437.51 2496.49,1437.51 2534.45,1437.51 2572.42,1437.51 "/>
<polyline clip-path="url(#clip881)" style="stroke:#35b778; stroke-linecap:round; stroke-linejoin:round; stroke-width:8; stroke-opacity:1; fill:none" points="294.479,1687.38 332.444,1607.45 370.41,1518.67 408.376,1432.45 446.341,1340.17 484.307,1238.12 522.273,1127.08 560.238,1011.57 598.204,899.122 636.17,798.727 674.135,718.127 712.101,661.138 750.067,626.524 788.032,609.188 825.998,602.762 863.963,601.879 901.929,603.11 939.895,604.737 977.86,606.113 1015.83,607.104 1053.79,607.763 1091.76,608.182 1129.72,608.44 1167.69,608.598 1205.65,608.693 1243.62,608.75 1281.59,608.784 1319.55,608.805 1357.52,608.817 1395.48,608.824 1433.45,608.828 1471.41,608.831 1509.38,608.832 1547.35,608.833 1585.31,608.834 1623.28,608.834 1661.24,608.834 1699.21,608.835 1737.17,608.835 1775.14,608.835 1813.1,608.835 1851.07,608.835 1889.04,608.835 1927,608.835 1964.97,608.835 2002.93,608.835 2040.9,608.835 2078.86,608.835 2116.83,608.835 2154.8,608.835 2192.76,608.835 2230.73,608.835 2268.69,608.835 2306.66,608.835 2344.62,608.835 2382.59,608.835 2420.56,608.835 2458.52,608.835 2496.49,608.835 2534.45,608.835 2572.42,608.835 "/>
<polyline clip-path="url(#clip881)" style="stroke:#fde724; stroke-linecap:round; stroke-linejoin:round; stroke-width:8; stroke-opacity:1; fill:none" points="294.479,1688.65 332.444,1676.59 370.41,1643.74 408.376,1597.07 446.341,1538.2 484.307,1465.41 522.273,1375.97 560.238,1267.75 598.204,1140.6 636.17,997.839 674.135,846.793 712.101,697.914 750.067,562.198 788.032,448.022 825.998,359.082 863.963,294.412 901.929,250.013 939.895,220.867 977.86,202.354 1015.83,190.863 1053.79,183.841 1091.76,179.592 1129.72,177.039 1167.69,175.511 1205.65,174.598 1243.62,174.054 1281.59,173.73 1319.55,173.537 1357.52,173.423 1395.48,173.354 1433.45,173.314 1471.41,173.29 1509.38,173.275 1547.35,173.267 1585.31,173.262 1623.28,173.259 1661.24,173.257 1699.21,173.256 1737.17,173.255 1775.14,173.255 1813.1,173.254 1851.07,173.254 1889.04,173.254 1927,173.254 1964.97,173.254 2002.93,173.254 2040.9,173.254 2078.86,173.254 2116.83,173.254 2154.8,173.254 2192.76,173.254 2230.73,173.254 2268.69,173.254 2306.66,173.254 2344.62,173.254 2382.59,173.254 2420.56,173.254 2458.52,173.254 2496.49,173.254 2534.45,173.254 2572.42,173.254 "/>
<path clip-path="url(#clip880)" d="M2258.76 1088.18 L2560.27 1088.18 L2560.27 828.979 L2258.76 828.979  Z" fill="#ffffff" fill-rule="evenodd" fill-opacity="1"/>
<polyline clip-path="url(#clip880)" style="stroke:#000000; stroke-linecap:round; stroke-linejoin:round; stroke-width:4; stroke-opacity:1; fill:none" points="2258.76,1088.18 2560.27,1088.18 2560.27,828.979 2258.76,828.979 2258.76,1088.18 "/>
<polyline clip-path="url(#clip880)" style="stroke:#440154; stroke-linecap:round; stroke-linejoin:round; stroke-width:8; stroke-opacity:1; fill:none" points="2285.59,880.819 2446.56,880.819 "/>
<path clip-path="url(#clip880)" d="M2473.39 863.539 L2478.07 863.539 L2478.07 898.099 L2473.39 898.099 L2473.39 863.539 Z" fill="#000000" fill-rule="nonzero" fill-opacity="1" /><path clip-path="url(#clip880)" d="M2506.89 905.969 L2506.89 909.279 L2482.26 909.279 L2482.26 905.969 L2506.89 905.969 Z" fill="#000000" fill-rule="nonzero" fill-opacity="1" /><path clip-path="url(#clip880)" d="M2521.5 866.617 Q2517.88 866.617 2516.06 870.182 Q2514.25 873.724 2514.25 880.853 Q2514.25 887.96 2516.06 891.525 Q2517.88 895.066 2521.5 895.066 Q2525.13 895.066 2526.94 891.525 Q2528.76 887.96 2528.76 880.853 Q2528.76 873.724 2526.94 870.182 Q2525.13 866.617 2521.5 866.617 M2521.5 862.914 Q2527.31 862.914 2530.36 867.52 Q2533.44 872.103 2533.44 880.853 Q2533.44 889.58 2530.36 894.187 Q2527.31 898.77 2521.5 898.77 Q2515.69 898.77 2512.61 894.187 Q2509.55 889.58 2509.55 880.853 Q2509.55 872.103 2512.61 867.52 Q2515.69 862.914 2521.5 862.914 Z" fill="#000000" fill-rule="nonzero" fill-opacity="1" /><polyline clip-path="url(#clip880)" style="stroke:#30678d; stroke-linecap:round; stroke-linejoin:round; stroke-width:8; stroke-opacity:1; fill:none" points="2285.59,932.659 2446.56,932.659 "/>
<path clip-path="url(#clip880)" d="M2473.39 915.379 L2478.07 915.379 L2478.07 949.939 L2473.39 949.939 L2473.39 915.379 Z" fill="#000000" fill-rule="nonzero" fill-opacity="1" /><path clip-path="url(#clip880)" d="M2506.89 957.809 L2506.89 961.119 L2482.26 961.119 L2482.26 957.809 L2506.89 957.809 Z" fill="#000000" fill-rule="nonzero" fill-opacity="1" /><path clip-path="url(#clip880)" d="M2512.31 946.004 L2519.94 946.004 L2519.94 919.638 L2511.63 921.305 L2511.63 917.045 L2519.9 915.379 L2524.57 915.379 L2524.57 946.004 L2532.21 946.004 L2532.21 949.939 L2512.31 949.939 L2512.31 946.004 Z" fill="#000000" fill-rule="nonzero" fill-opacity="1" /><polyline clip-path="url(#clip880)" style="stroke:#35b778; stroke-linecap:round; stroke-linejoin:round; stroke-width:8; stroke-opacity:1; fill:none" points="2285.59,984.499 2446.56,984.499 "/>
<path clip-path="url(#clip880)" d="M2473.39 967.219 L2478.07 967.219 L2478.07 1001.78 L2473.39 1001.78 L2473.39 967.219 Z" fill="#000000" fill-rule="nonzero" fill-opacity="1" /><path clip-path="url(#clip880)" d="M2506.89 1009.65 L2506.89 1012.96 L2482.26 1012.96 L2482.26 1009.65 L2506.89 1009.65 Z" fill="#000000" fill-rule="nonzero" fill-opacity="1" /><path clip-path="url(#clip880)" d="M2515.52 997.844 L2531.84 997.844 L2531.84 1001.78 L2509.9 1001.78 L2509.9 997.844 Q2512.56 995.089 2517.14 990.459 Q2521.75 985.807 2522.93 984.464 Q2525.18 981.941 2526.06 980.205 Q2526.96 978.446 2526.96 976.756 Q2526.96 974.001 2525.01 972.265 Q2523.09 970.529 2519.99 970.529 Q2517.79 970.529 2515.34 971.293 Q2512.91 972.057 2510.13 973.608 L2510.13 968.885 Q2512.95 967.751 2515.41 967.172 Q2517.86 966.594 2519.9 966.594 Q2525.27 966.594 2528.46 969.279 Q2531.66 971.964 2531.66 976.455 Q2531.66 978.584 2530.85 980.506 Q2530.06 982.404 2527.95 984.996 Q2527.37 985.668 2524.27 988.885 Q2521.17 992.08 2515.52 997.844 Z" fill="#000000" fill-rule="nonzero" fill-opacity="1" /><polyline clip-path="url(#clip880)" style="stroke:#fde724; stroke-linecap:round; stroke-linejoin:round; stroke-width:8; stroke-opacity:1; fill:none" points="2285.59,1036.34 2446.56,1036.34 "/>
<path clip-path="url(#clip880)" d="M2473.39 1019.06 L2478.07 1019.06 L2478.07 1053.62 L2473.39 1053.62 L2473.39 1019.06 Z" fill="#000000" fill-rule="nonzero" fill-opacity="1" /><path clip-path="url(#clip880)" d="M2506.89 1061.49 L2506.89 1064.8 L2482.26 1064.8 L2482.26 1061.49 L2506.89 1061.49 Z" fill="#000000" fill-rule="nonzero" fill-opacity="1" /><path clip-path="url(#clip880)" d="M2525.66 1034.98 Q2529.02 1035.7 2530.89 1037.97 Q2532.79 1040.24 2532.79 1043.57 Q2532.79 1048.69 2529.27 1051.49 Q2525.75 1054.29 2519.27 1054.29 Q2517.1 1054.29 2514.78 1053.85 Q2512.49 1053.43 2510.04 1052.58 L2510.04 1048.06 Q2511.98 1049.2 2514.3 1049.78 Q2516.61 1050.35 2519.13 1050.35 Q2523.53 1050.35 2525.82 1048.62 Q2528.14 1046.88 2528.14 1043.57 Q2528.14 1040.52 2525.99 1038.8 Q2523.86 1037.07 2520.04 1037.07 L2516.01 1037.07 L2516.01 1033.23 L2520.22 1033.23 Q2523.67 1033.23 2525.5 1031.86 Q2527.33 1030.47 2527.33 1027.88 Q2527.33 1025.22 2525.43 1023.8 Q2523.56 1022.37 2520.04 1022.37 Q2518.12 1022.37 2515.92 1022.79 Q2513.72 1023.2 2511.08 1024.08 L2511.08 1019.92 Q2513.74 1019.17 2516.06 1018.8 Q2518.39 1018.43 2520.45 1018.43 Q2525.78 1018.43 2528.88 1020.86 Q2531.98 1023.27 2531.98 1027.39 Q2531.98 1030.26 2530.34 1032.25 Q2528.69 1034.22 2525.66 1034.98 Z" fill="#000000" fill-rule="nonzero" fill-opacity="1" /></svg>
