<?xml version="1.0" encoding="utf-8"?>
<svg xmlns="http://www.w3.org/2000/svg" xmlns:xlink="http://www.w3.org/1999/xlink" width="672" height="480" viewBox="0 0 2688 1920">
<defs>
  <clipPath id="clip850">
    <rect x="0" y="0" width="2688" height="1920"/>
  </clipPath>
</defs>
<path clip-path="url(#clip850)" d="M0 1920 L2688 1920 L2688 -4.26326e-14 L0 -4.26326e-14  Z" fill="#ffffff" fill-rule="evenodd" fill-opacity="1"/>
<defs>
  <clipPath id="clip851">
    <rect x="226" y="127" width="2416" height="1607"/>
  </clipPath>
</defs>
<path clip-path="url(#clip850)" d="M226.141 1734.12 L2640.76 1734.12 L2640.76 127.792 L226.141 127.792  Z" fill="#ffffff" fill-rule="evenodd" fill-opacity="1"/>
<polyline clip-path="url(#clip851)" style="stroke:#000000; stroke-linecap:round; stroke-linejoin:round; stroke-width:2; stroke-opacity:0.1; fill:none" points="294.479,1734.12 294.479,127.792 "/>
<polyline clip-path="url(#clip851)" style="stroke:#000000; stroke-linecap:round; stroke-linejoin:round; stroke-width:2; stroke-opacity:0.1; fill:none" points="1053.79,1734.12 1053.79,127.792 "/>
<polyline clip-path="url(#clip851)" style="stroke:#000000; stroke-linecap:round; stroke-linejoin:round; stroke-width:2; stroke-opacity:0.1; fill:none" points="1813.1,1734.12 1813.1,127.792 "/>
<polyline clip-path="url(#clip851)" style="stroke:#000000; stroke-linecap:round; stroke-linejoin:round; stroke-width:2; stroke-opacity:0.1; fill:none" points="2572.42,1734.12 2572.42,127.792 "/>
<polyline clip-path="url(#clip851)" style="stroke:#000000; stroke-linecap:round; stroke-linejoin:round; stroke-width:2; stroke-opacity:0.1; fill:none" points="226.141,1436.09 2640.76,1436.09 "/>
<polyline clip-path="url(#clip851)" style="stroke:#000000; stroke-linecap:round; stroke-linejoin:round; stroke-width:2; stroke-opacity:0.1; fill:none" points="226.141,1099.33 2640.76,1099.33 "/>
<polyline clip-path="url(#clip851)" style="stroke:#000000; stroke-linecap:round; stroke-linejoin:round; stroke-width:2; stroke-opacity:0.1; fill:none" points="226.141,762.577 2640.76,762.577 "/>
<polyline clip-path="url(#clip851)" style="stroke:#000000; stroke-linecap:round; stroke-linejoin:round; stroke-width:2; stroke-opacity:0.1; fill:none" points="226.141,425.821 2640.76,425.821 "/>
<polyline clip-path="url(#clip850)" style="stroke:#000000; stroke-linecap:round; stroke-linejoin:round; stroke-width:4; stroke-opacity:1; fill:none" points="226.141,1734.12 2640.76,1734.12 "/>
<polyline clip-path="url(#clip850)" style="stroke:#000000; stroke-linecap:round; stroke-linejoin:round; stroke-width:4; stroke-opacity:1; fill:none" points="294.479,1734.12 294.479,1715.22 "/>
<polyline clip-path="url(#clip850)" style="stroke:#000000; stroke-linecap:round; stroke-linejoin:round; stroke-width:4; stroke-opacity:1; fill:none" points="1053.79,1734.12 1053.79,1715.22 "/>
<polyline clip-path="url(#clip850)" style="stroke:#000000; stroke-linecap:round; stroke-linejoin:round; stroke-width:4; stroke-opacity:1; fill:none" points="1813.1,1734.12 1813.1,1715.22 "/>
<polyline clip-path="url(#clip850)" style="stroke:#000000; stroke-linecap:round; stroke-linejoin:round; stroke-width:4; stroke-opacity:1; fill:none" points="2572.42,1734.12 2572.42,1715.22 "/>
<path clip-path="url(#clip850)" d="M294.479 1767.34 Q290.868 1767.34 289.039 1770.9 Q287.233 1774.45 287.233 1781.58 Q287.233 1788.68 289.039 1792.25 Q290.868 1795.79 294.479 1795.79 Q298.113 1795.79 299.919 1792.25 Q301.747 1788.68 301.747 1781.58 Q301.747 1774.45 299.919 1770.9 Q298.113 1767.34 294.479 1767.34 M294.479 1763.64 Q300.289 1763.64 303.344 1768.24 Q306.423 1772.83 306.423 1781.58 Q306.423 1790.3 303.344 1794.91 Q300.289 1799.49 294.479 1799.49 Q288.669 1799.49 285.59 1794.91 Q282.534 1790.3 282.534 1781.58 Q282.534 1772.83 285.59 1768.24 Q288.669 1763.64 294.479 1763.64 Z" fill="#000000" fill-rule="nonzero" fill-opacity="1" /><path clip-path="url(#clip850)" d="M1028.48 1794.89 L1036.12 1794.89 L1036.12 1768.52 L1027.81 1770.19 L1027.81 1765.93 L1036.07 1764.26 L1040.75 1764.26 L1040.75 1794.89 L1048.39 1794.89 L1048.39 1798.82 L1028.48 1798.82 L1028.48 1794.89 Z" fill="#000000" fill-rule="nonzero" fill-opacity="1" /><path clip-path="url(#clip850)" d="M1067.83 1767.34 Q1064.22 1767.34 1062.39 1770.9 Q1060.59 1774.45 1060.59 1781.58 Q1060.59 1788.68 1062.39 1792.25 Q1064.22 1795.79 1067.83 1795.79 Q1071.47 1795.79 1073.27 1792.25 Q1075.1 1788.68 1075.1 1781.58 Q1075.1 1774.45 1073.27 1770.9 Q1071.47 1767.34 1067.83 1767.34 M1067.83 1763.64 Q1073.64 1763.64 1076.7 1768.24 Q1079.78 1772.83 1079.78 1781.58 Q1079.78 1790.3 1076.7 1794.91 Q1073.64 1799.49 1067.83 1799.49 Q1062.02 1799.49 1058.94 1794.91 Q1055.89 1790.3 1055.89 1781.58 Q1055.89 1772.83 1058.94 1768.24 Q1062.02 1763.64 1067.83 1763.64 Z" fill="#000000" fill-rule="nonzero" fill-opacity="1" /><path clip-path="url(#clip850)" d="M1791.88 1794.89 L1808.2 1794.89 L1808.2 1798.82 L1786.25 1798.82 L1786.25 1794.89 Q1788.92 1792.13 1793.5 1787.5 Q1798.1 1782.85 1799.29 1781.51 Q1801.53 1778.98 1802.41 1777.25 Q1803.31 1775.49 1803.31 1773.8 Q1803.31 1771.04 1801.37 1769.31 Q1799.45 1767.57 1796.35 1767.57 Q1794.15 1767.57 1791.69 1768.34 Q1789.26 1769.1 1786.48 1770.65 L1786.48 1765.93 Q1789.31 1764.79 1791.76 1764.21 Q1794.22 1763.64 1796.25 1763.64 Q1801.62 1763.64 1804.82 1766.32 Q1808.01 1769.01 1808.01 1773.5 Q1808.01 1775.63 1807.2 1777.55 Q1806.41 1779.45 1804.31 1782.04 Q1803.73 1782.71 1800.63 1785.93 Q1797.53 1789.12 1791.88 1794.89 Z" fill="#000000" fill-rule="nonzero" fill-opacity="1" /><path clip-path="url(#clip850)" d="M1828.01 1767.34 Q1824.4 1767.34 1822.57 1770.9 Q1820.77 1774.45 1820.77 1781.58 Q1820.77 1788.68 1822.57 1792.25 Q1824.4 1795.79 1828.01 1795.79 Q1831.65 1795.79 1833.45 1792.25 Q1835.28 1788.68 1835.28 1781.58 Q1835.28 1774.45 1833.45 1770.9 Q1831.65 1767.34 1828.01 1767.34 M1828.01 1763.64 Q1833.82 1763.64 1836.88 1768.24 Q1839.96 1772.83 1839.96 1781.58 Q1839.96 1790.3 1836.88 1794.91 Q1833.82 1799.49 1828.01 1799.49 Q1822.2 1799.49 1819.12 1794.91 Q1816.07 1790.3 1816.07 1781.58 Q1816.07 1772.83 1819.12 1768.24 Q1822.2 1763.64 1828.01 1763.64 Z" fill="#000000" fill-rule="nonzero" fill-opacity="1" /><path clip-path="url(#clip850)" d="M2561.26 1780.19 Q2564.62 1780.9 2566.49 1783.17 Q2568.39 1785.44 2568.39 1788.77 Q2568.39 1793.89 2564.87 1796.69 Q2561.35 1799.49 2554.87 1799.49 Q2552.7 1799.49 2550.38 1799.05 Q2548.09 1798.64 2545.64 1797.78 L2545.64 1793.27 Q2547.58 1794.4 2549.89 1794.98 Q2552.21 1795.56 2554.73 1795.56 Q2559.13 1795.56 2561.42 1793.82 Q2563.74 1792.08 2563.74 1788.77 Q2563.74 1785.72 2561.58 1784.01 Q2559.45 1782.27 2555.64 1782.27 L2551.61 1782.27 L2551.61 1778.43 L2555.82 1778.43 Q2559.27 1778.43 2561.1 1777.06 Q2562.93 1775.67 2562.93 1773.08 Q2562.93 1770.42 2561.03 1769.01 Q2559.15 1767.57 2555.64 1767.57 Q2553.71 1767.57 2551.52 1767.99 Q2549.32 1768.4 2546.68 1769.28 L2546.68 1765.12 Q2549.34 1764.38 2551.65 1764.01 Q2553.99 1763.64 2556.05 1763.64 Q2561.38 1763.64 2564.48 1766.07 Q2567.58 1768.47 2567.58 1772.59 Q2567.58 1775.46 2565.94 1777.46 Q2564.29 1779.42 2561.26 1780.19 Z" fill="#000000" fill-rule="nonzero" fill-opacity="1" /><path clip-path="url(#clip850)" d="M2587.26 1767.34 Q2583.64 1767.34 2581.82 1770.9 Q2580.01 1774.45 2580.01 1781.58 Q2580.01 1788.68 2581.82 1792.25 Q2583.64 1795.79 2587.26 1795.79 Q2590.89 1795.79 2592.7 1792.25 Q2594.52 1788.68 2594.52 1781.58 Q2594.52 1774.45 2592.7 1770.9 Q2590.89 1767.34 2587.26 1767.34 M2587.26 1763.64 Q2593.07 1763.64 2596.12 1768.24 Q2599.2 1772.83 2599.2 1781.58 Q2599.2 1790.3 2596.12 1794.91 Q2593.07 1799.49 2587.26 1799.49 Q2581.45 1799.49 2578.37 1794.91 Q2575.31 1790.3 2575.31 1781.58 Q2575.31 1772.83 2578.37 1768.24 Q2581.45 1763.64 2587.26 1763.64 Z" fill="#000000" fill-rule="nonzero" fill-opacity="1" /><path clip-path="url(#clip850)" d="M1355.33 1835.78 L1395.52 1835.78 L1395.52 1841.19 L1378.66 1841.19 L1378.66 1883.3 L1372.19 1883.3 L1372.19 1841.19 L1355.33 1841.19 L1355.33 1835.78 Z" fill="#000000" fill-rule="nonzero" fill-opacity="1" /><path clip-path="url(#clip850)" d="M1399.47 1847.65 L1405.33 1847.65 L1405.33 1883.3 L1399.47 1883.3 L1399.47 1847.65 M1399.47 1833.78 L1405.33 1833.78 L1405.33 1841.19 L1399.47 1841.19 L1399.47 1833.78 Z" fill="#000000" fill-rule="nonzero" fill-opacity="1" /><path clip-path="url(#clip850)" d="M1445.34 1854.5 Q1447.53 1850.55 1450.59 1848.67 Q1453.64 1846.79 1457.78 1846.79 Q1463.35 1846.79 1466.37 1850.71 Q1469.4 1854.59 1469.4 1861.78 L1469.4 1883.3 L1463.51 1883.3 L1463.51 1861.98 Q1463.51 1856.85 1461.7 1854.37 Q1459.88 1851.89 1456.16 1851.89 Q1451.61 1851.89 1448.96 1854.91 Q1446.32 1857.93 1446.32 1863.15 L1446.32 1883.3 L1440.43 1883.3 L1440.43 1861.98 Q1440.43 1856.82 1438.62 1854.37 Q1436.81 1851.89 1433.02 1851.89 Q1428.53 1851.89 1425.89 1854.94 Q1423.25 1857.97 1423.25 1863.15 L1423.25 1883.3 L1417.36 1883.3 L1417.36 1847.65 L1423.25 1847.65 L1423.25 1853.19 Q1425.25 1849.91 1428.05 1848.35 Q1430.85 1846.79 1434.71 1846.79 Q1438.59 1846.79 1441.29 1848.77 Q1444.03 1850.74 1445.34 1854.5 Z" fill="#000000" fill-rule="nonzero" fill-opacity="1" /><path clip-path="url(#clip850)" d="M1511.57 1864.01 L1511.57 1866.88 L1484.64 1866.88 Q1485.03 1872.92 1488.27 1876.11 Q1491.55 1879.26 1497.38 1879.26 Q1500.75 1879.26 1503.9 1878.43 Q1507.08 1877.6 1510.2 1875.95 L1510.2 1881.49 Q1507.05 1882.82 1503.74 1883.52 Q1500.43 1884.22 1497.03 1884.22 Q1488.5 1884.22 1483.5 1879.26 Q1478.53 1874.29 1478.53 1865.83 Q1478.53 1857.07 1483.24 1851.95 Q1487.99 1846.79 1496.01 1846.79 Q1503.2 1846.79 1507.37 1851.44 Q1511.57 1856.06 1511.57 1864.01 M1505.71 1862.29 Q1505.65 1857.49 1503.01 1854.62 Q1500.4 1851.76 1496.07 1851.76 Q1491.17 1851.76 1488.21 1854.53 Q1485.28 1857.3 1484.84 1862.33 L1505.71 1862.29 Z" fill="#000000" fill-rule="nonzero" fill-opacity="1" /><polyline clip-path="url(#clip850)" style="stroke:#000000; stroke-linecap:round; stroke-linejoin:round; stroke-width:4; stroke-opacity:1; fill:none" points="226.141,1734.12 226.141,127.792 "/>
<polyline clip-path="url(#clip850)" style="stroke:#000000; stroke-linecap:round; stroke-linejoin:round; stroke-width:4; stroke-opacity:1; fill:none" points="226.141,1436.09 245.038,1436.09 "/>
<polyline clip-path="url(#clip850)" style="stroke:#000000; stroke-linecap:round; stroke-linejoin:round; stroke-width:4; stroke-opacity:1; fill:none" points="226.141,1099.33 245.038,1099.33 "/>
<polyline clip-path="url(#clip850)" style="stroke:#000000; stroke-linecap:round; stroke-linejoin:round; stroke-width:4; stroke-opacity:1; fill:none" points="226.141,762.577 245.038,762.577 "/>
<polyline clip-path="url(#clip850)" style="stroke:#000000; stroke-linecap:round; stroke-linejoin:round; stroke-width:4; stroke-opacity:1; fill:none" points="226.141,425.821 245.038,425.821 "/>
<path clip-path="url(#clip850)" d="M130.242 1421.89 Q126.631 1421.89 124.802 1425.45 Q122.997 1428.99 122.997 1436.12 Q122.997 1443.23 124.802 1446.79 Q126.631 1450.34 130.242 1450.34 Q133.876 1450.34 135.682 1446.79 Q137.511 1443.23 137.511 1436.12 Q137.511 1428.99 135.682 1425.45 Q133.876 1421.89 130.242 1421.89 M130.242 1418.18 Q136.052 1418.18 139.108 1422.79 Q142.187 1427.37 142.187 1436.12 Q142.187 1444.85 139.108 1449.46 Q136.052 1454.04 130.242 1454.04 Q124.432 1454.04 121.353 1449.46 Q118.298 1444.85 118.298 1436.12 Q118.298 1427.37 121.353 1422.79 Q124.432 1418.18 130.242 1418.18 Z" fill="#000000" fill-rule="nonzero" fill-opacity="1" /><path clip-path="url(#clip850)" d="M150.404 1447.49 L155.288 1447.49 L155.288 1453.37 L150.404 1453.37 L150.404 1447.49 Z" fill="#000000" fill-rule="nonzero" fill-opacity="1" /><path clip-path="url(#clip850)" d="M169.501 1449.43 L185.821 1449.43 L185.821 1453.37 L163.876 1453.37 L163.876 1449.43 Q166.538 1446.68 171.122 1442.05 Q175.728 1437.4 176.909 1436.05 Q179.154 1433.53 180.034 1431.79 Q180.936 1430.03 180.936 1428.35 Q180.936 1425.59 178.992 1423.85 Q177.071 1422.12 173.969 1422.12 Q171.77 1422.12 169.316 1422.88 Q166.885 1423.65 164.108 1425.2 L164.108 1420.47 Q166.932 1419.34 169.385 1418.76 Q171.839 1418.18 173.876 1418.18 Q179.247 1418.18 182.441 1420.87 Q185.635 1423.55 185.635 1428.04 Q185.635 1430.17 184.825 1432.1 Q184.038 1433.99 181.932 1436.59 Q181.353 1437.26 178.251 1440.47 Q175.149 1443.67 169.501 1449.43 Z" fill="#000000" fill-rule="nonzero" fill-opacity="1" /><path clip-path="url(#clip850)" d="M128.159 1085.13 Q124.548 1085.13 122.719 1088.7 Q120.913 1092.24 120.913 1099.37 Q120.913 1106.47 122.719 1110.04 Q124.548 1113.58 128.159 1113.58 Q131.793 1113.58 133.599 1110.04 Q135.427 1106.47 135.427 1099.37 Q135.427 1092.24 133.599 1088.7 Q131.793 1085.13 128.159 1085.13 M128.159 1081.43 Q133.969 1081.43 137.025 1086.03 Q140.103 1090.62 140.103 1099.37 Q140.103 1108.09 137.025 1112.7 Q133.969 1117.28 128.159 1117.28 Q122.349 1117.28 119.27 1112.7 Q116.214 1108.09 116.214 1099.37 Q116.214 1090.62 119.27 1086.03 Q122.349 1081.43 128.159 1081.43 Z" fill="#000000" fill-rule="nonzero" fill-opacity="1" /><path clip-path="url(#clip850)" d="M148.321 1110.73 L153.205 1110.73 L153.205 1116.61 L148.321 1116.61 L148.321 1110.73 Z" fill="#000000" fill-rule="nonzero" fill-opacity="1" /><path clip-path="url(#clip850)" d="M176.237 1086.13 L164.432 1104.58 L176.237 1104.58 L176.237 1086.13 M175.01 1082.05 L180.89 1082.05 L180.89 1104.58 L185.821 1104.58 L185.821 1108.46 L180.89 1108.46 L180.89 1116.61 L176.237 1116.61 L176.237 1108.46 L160.636 1108.46 L160.636 1103.95 L175.01 1082.05 Z" fill="#000000" fill-rule="nonzero" fill-opacity="1" /><path clip-path="url(#clip850)" d="M128.483 748.375 Q124.872 748.375 123.043 751.94 Q121.238 755.482 121.238 762.611 Q121.238 769.718 123.043 773.283 Q124.872 776.824 128.483 776.824 Q132.117 776.824 133.923 773.283 Q135.751 769.718 135.751 762.611 Q135.751 755.482 133.923 751.94 Q132.117 748.375 128.483 748.375 M128.483 744.672 Q134.293 744.672 137.349 749.278 Q140.427 753.861 140.427 762.611 Q140.427 771.338 137.349 775.945 Q134.293 780.528 128.483 780.528 Q122.673 780.528 119.594 775.945 Q116.539 771.338 116.539 762.611 Q116.539 753.861 119.594 749.278 Q122.673 744.672 128.483 744.672 Z" fill="#000000" fill-rule="nonzero" fill-opacity="1" /><path clip-path="url(#clip850)" d="M148.645 773.977 L153.529 773.977 L153.529 779.857 L148.645 779.857 L148.645 773.977 Z" fill="#000000" fill-rule="nonzero" fill-opacity="1" /><path clip-path="url(#clip850)" d="M174.293 760.713 Q171.145 760.713 169.293 762.866 Q167.464 765.019 167.464 768.769 Q167.464 772.496 169.293 774.672 Q171.145 776.824 174.293 776.824 Q177.441 776.824 179.27 774.672 Q181.122 772.496 181.122 768.769 Q181.122 765.019 179.27 762.866 Q177.441 760.713 174.293 760.713 M183.575 746.061 L183.575 750.32 Q181.816 749.486 180.01 749.047 Q178.228 748.607 176.469 748.607 Q171.839 748.607 169.385 751.732 Q166.955 754.857 166.608 761.176 Q167.973 759.162 170.034 758.098 Q172.094 757.01 174.571 757.01 Q179.779 757.01 182.788 760.181 Q185.821 763.329 185.821 768.769 Q185.821 774.093 182.672 777.31 Q179.524 780.528 174.293 780.528 Q168.297 780.528 165.126 775.945 Q161.955 771.338 161.955 762.611 Q161.955 754.417 165.844 749.556 Q169.733 744.672 176.284 744.672 Q178.043 744.672 179.825 745.019 Q181.631 745.366 183.575 746.061 Z" fill="#000000" fill-rule="nonzero" fill-opacity="1" /><path clip-path="url(#clip850)" d="M128.738 411.62 Q125.126 411.62 123.298 415.184 Q121.492 418.726 121.492 425.856 Q121.492 432.962 123.298 436.527 Q125.126 440.069 128.738 440.069 Q132.372 440.069 134.177 436.527 Q136.006 432.962 136.006 425.856 Q136.006 418.726 134.177 415.184 Q132.372 411.62 128.738 411.62 M128.738 407.916 Q134.548 407.916 137.603 412.522 Q140.682 417.106 140.682 425.856 Q140.682 434.582 137.603 439.189 Q134.548 443.772 128.738 443.772 Q122.927 443.772 119.849 439.189 Q116.793 434.582 116.793 425.856 Q116.793 417.106 119.849 412.522 Q122.927 407.916 128.738 407.916 Z" fill="#000000" fill-rule="nonzero" fill-opacity="1" /><path clip-path="url(#clip850)" d="M148.899 437.221 L153.784 437.221 L153.784 443.101 L148.899 443.101 L148.899 437.221 Z" fill="#000000" fill-rule="nonzero" fill-opacity="1" /><path clip-path="url(#clip850)" d="M173.969 426.689 Q170.635 426.689 168.714 428.471 Q166.816 430.254 166.816 433.379 Q166.816 436.504 168.714 438.286 Q170.635 440.069 173.969 440.069 Q177.302 440.069 179.223 438.286 Q181.145 436.481 181.145 433.379 Q181.145 430.254 179.223 428.471 Q177.325 426.689 173.969 426.689 M169.293 424.698 Q166.284 423.958 164.594 421.897 Q162.927 419.837 162.927 416.874 Q162.927 412.731 165.867 410.323 Q168.83 407.916 173.969 407.916 Q179.131 407.916 182.071 410.323 Q185.01 412.731 185.01 416.874 Q185.01 419.837 183.321 421.897 Q181.654 423.958 178.668 424.698 Q182.047 425.485 183.922 427.777 Q185.821 430.069 185.821 433.379 Q185.821 438.402 182.742 441.087 Q179.686 443.772 173.969 443.772 Q168.251 443.772 165.173 441.087 Q162.117 438.402 162.117 433.379 Q162.117 430.069 164.015 427.777 Q165.913 425.485 169.293 424.698 M167.58 417.314 Q167.58 419.999 169.247 421.504 Q170.936 423.008 173.969 423.008 Q176.978 423.008 178.668 421.504 Q180.381 419.999 180.381 417.314 Q180.381 414.629 178.668 413.124 Q176.978 411.62 173.969 411.62 Q170.936 411.62 169.247 413.124 Q167.58 414.629 167.58 417.314 Z" fill="#000000" fill-rule="nonzero" fill-opacity="1" /><path clip-path="url(#clip850)" d="M19.402 1225.35 L37.2578 1225.35 L37.2578 1217.27 Q37.2578 1212.78 34.9343 1210.33 Q32.6108 1207.88 28.314 1207.88 Q24.0489 1207.88 21.7255 1210.33 Q19.402 1212.78 19.402 1217.27 L19.402 1225.35 M14.1184 1231.78 L14.1184 1217.27 Q14.1184 1209.28 17.7469 1205.21 Q21.3435 1201.1 28.314 1201.1 Q35.3481 1201.1 38.9447 1205.21 Q42.5413 1209.28 42.5413 1217.27 L42.5413 1225.35 L61.6384 1225.35 L61.6384 1231.78 L14.1184 1231.78 Z" fill="#000000" fill-rule="nonzero" fill-opacity="1" /><path clip-path="url(#clip850)" d="M30.0964 1181.24 Q30.0964 1185.95 33.7885 1188.69 Q37.4488 1191.42 43.8463 1191.42 Q50.2438 1191.42 53.9359 1188.72 Q57.5962 1185.98 57.5962 1181.24 Q57.5962 1176.56 53.9041 1173.82 Q50.212 1171.08 43.8463 1171.08 Q37.5124 1171.08 33.8203 1173.82 Q30.0964 1176.56 30.0964 1181.24 M25.1311 1181.24 Q25.1311 1173.6 30.0964 1169.24 Q35.0616 1164.88 43.8463 1164.88 Q52.5991 1164.88 57.5962 1169.24 Q62.5615 1173.6 62.5615 1181.24 Q62.5615 1188.91 57.5962 1193.27 Q52.5991 1197.6 43.8463 1197.6 Q35.0616 1197.6 30.0964 1193.27 Q25.1311 1188.91 25.1311 1181.24 Z" fill="#000000" fill-rule="nonzero" fill-opacity="1" /><path clip-path="url(#clip850)" d="M56.2912 1149.51 L75.1974 1149.51 L75.1974 1155.39 L25.9905 1155.39 L25.9905 1149.51 L31.4013 1149.51 Q28.2185 1147.66 26.6907 1144.86 Q25.1311 1142.03 25.1311 1138.11 Q25.1311 1131.62 30.2873 1127.58 Q35.4436 1123.5 43.8463 1123.5 Q52.249 1123.5 57.4052 1127.58 Q62.5615 1131.62 62.5615 1138.11 Q62.5615 1142.03 61.0337 1144.86 Q59.4741 1147.66 56.2912 1149.51 M43.8463 1129.58 Q37.3851 1129.58 33.7248 1132.25 Q30.0327 1134.9 30.0327 1139.54 Q30.0327 1144.19 33.7248 1146.86 Q37.3851 1149.51 43.8463 1149.51 Q50.3075 1149.51 53.9996 1146.86 Q57.6599 1144.19 57.6599 1139.54 Q57.6599 1134.9 53.9996 1132.25 Q50.3075 1129.58 43.8463 1129.58 Z" fill="#000000" fill-rule="nonzero" fill-opacity="1" /><path clip-path="url(#clip850)" d="M47.5702 1114.4 L25.9905 1114.4 L25.9905 1108.54 L47.3474 1108.54 Q52.4082 1108.54 54.9545 1106.57 Q57.4689 1104.6 57.4689 1100.65 Q57.4689 1095.91 54.4452 1093.17 Q51.4215 1090.4 46.2016 1090.4 L25.9905 1090.4 L25.9905 1084.54 L61.6384 1084.54 L61.6384 1090.4 L56.1639 1090.4 Q59.4104 1092.53 61.0019 1095.36 Q62.5615 1098.17 62.5615 1101.89 Q62.5615 1108.03 58.742 1111.22 Q54.9226 1114.4 47.5702 1114.4 M25.1311 1099.66 L25.1311 1099.66 Z" fill="#000000" fill-rule="nonzero" fill-opacity="1" /><path clip-path="url(#clip850)" d="M12.1132 1072.48 L12.1132 1066.62 L61.6384 1066.62 L61.6384 1072.48 L12.1132 1072.48 Z" fill="#000000" fill-rule="nonzero" fill-opacity="1" /><path clip-path="url(#clip850)" d="M43.719 1038.17 Q43.719 1045.27 45.3422 1048 Q46.9655 1050.74 50.8804 1050.74 Q53.9996 1050.74 55.8457 1048.7 Q57.6599 1046.64 57.6599 1043.1 Q57.6599 1038.23 54.2224 1035.3 Q50.7531 1032.34 45.0239 1032.34 L43.719 1032.34 L43.719 1038.17 M41.3 1026.49 L61.6384 1026.49 L61.6384 1032.34 L56.2276 1032.34 Q59.4741 1034.35 61.0337 1037.34 Q62.5615 1040.33 62.5615 1044.66 Q62.5615 1050.14 59.5059 1053.38 Q56.4186 1056.6 51.2623 1056.6 Q45.2467 1056.6 42.1912 1052.59 Q39.1357 1048.55 39.1357 1040.56 L39.1357 1032.34 L38.5628 1032.34 Q34.5205 1032.34 32.3244 1035.02 Q30.0964 1037.66 30.0964 1042.47 Q30.0964 1045.52 30.8284 1048.42 Q31.5605 1051.31 33.0246 1053.99 L27.6137 1053.99 Q26.3724 1050.77 25.7677 1047.75 Q25.1311 1044.73 25.1311 1041.86 Q25.1311 1034.13 29.1415 1030.31 Q33.1519 1026.49 41.3 1026.49 Z" fill="#000000" fill-rule="nonzero" fill-opacity="1" /><path clip-path="url(#clip850)" d="M15.869 1008.63 L25.9905 1008.63 L25.9905 996.569 L30.542 996.569 L30.542 1008.63 L49.8937 1008.63 Q54.2542 1008.63 55.4955 1007.45 Q56.7368 1006.24 56.7368 1002.58 L56.7368 996.569 L61.6384 996.569 L61.6384 1002.58 Q61.6384 1009.36 59.124 1011.94 Q56.5777 1014.52 49.8937 1014.52 L30.542 1014.52 L30.542 1018.82 L25.9905 1018.82 L25.9905 1014.52 L15.869 1014.52 L15.869 1008.63 Z" fill="#000000" fill-rule="nonzero" fill-opacity="1" /><path clip-path="url(#clip850)" d="M25.9905 988.867 L25.9905 983.01 L61.6384 983.01 L61.6384 988.867 L25.9905 988.867 M12.1132 988.867 L12.1132 983.01 L19.5293 983.01 L19.5293 988.867 L12.1132 988.867 Z" fill="#000000" fill-rule="nonzero" fill-opacity="1" /><path clip-path="url(#clip850)" d="M30.0964 956.943 Q30.0964 961.653 33.7885 964.39 Q37.4488 967.128 43.8463 967.128 Q50.2438 967.128 53.9359 964.422 Q57.5962 961.685 57.5962 956.943 Q57.5962 952.264 53.9041 949.527 Q50.212 946.789 43.8463 946.789 Q37.5124 946.789 33.8203 949.527 Q30.0964 952.264 30.0964 956.943 M25.1311 956.943 Q25.1311 949.304 30.0964 944.943 Q35.0616 940.583 43.8463 940.583 Q52.5991 940.583 57.5962 944.943 Q62.5615 949.304 62.5615 956.943 Q62.5615 964.613 57.5962 968.974 Q52.5991 973.302 43.8463 973.302 Q35.0616 973.302 30.0964 968.974 Q25.1311 964.613 25.1311 956.943 Z" fill="#000000" fill-rule="nonzero" fill-opacity="1" /><path clip-path="url(#clip850)" d="M40.1224 901.243 L61.6384 901.243 L61.6384 907.099 L40.3133 907.099 Q35.2526 907.099 32.7381 909.072 Q30.2237 911.046 30.2237 914.993 Q30.2237 919.735 33.2474 922.472 Q36.2711 925.21 41.491 925.21 L61.6384 925.21 L61.6384 931.098 L25.9905 931.098 L25.9905 925.21 L31.5287 925.21 Q28.314 923.109 26.7225 920.276 Q25.1311 917.412 25.1311 913.688 Q25.1311 907.545 28.9505 904.394 Q32.7381 901.243 40.1224 901.243 Z" fill="#000000" fill-rule="nonzero" fill-opacity="1" /><path clip-path="url(#clip850)" d="M12.1132 850.794 L16.983 850.794 L16.983 856.396 Q16.983 859.547 18.2562 860.789 Q19.5293 861.998 22.8395 861.998 L25.9905 861.998 L25.9905 852.354 L30.542 852.354 L30.542 861.998 L61.6384 861.998 L61.6384 867.886 L30.542 867.886 L30.542 873.488 L25.9905 873.488 L25.9905 867.886 L23.5079 867.886 Q17.5559 867.886 14.8505 865.117 Q12.1132 862.348 12.1132 856.333 L12.1132 850.794 Z" fill="#000000" fill-rule="nonzero" fill-opacity="1" /><path clip-path="url(#clip850)" d="M31.465 825.236 Q30.8921 826.223 30.6375 827.4 Q30.351 828.546 30.351 829.947 Q30.351 834.912 33.5975 837.586 Q36.8122 840.227 42.8596 840.227 L61.6384 840.227 L61.6384 846.116 L25.9905 846.116 L25.9905 840.227 L31.5287 840.227 Q28.2821 838.381 26.7225 835.421 Q25.1311 832.461 25.1311 828.228 Q25.1311 827.623 25.2266 826.891 Q25.2903 826.159 25.4494 825.268 L31.465 825.236 Z" fill="#000000" fill-rule="nonzero" fill-opacity="1" /><path clip-path="url(#clip850)" d="M43.719 802.892 Q43.719 809.99 45.3422 812.727 Q46.9655 815.465 50.8804 815.465 Q53.9996 815.465 55.8457 813.428 Q57.6599 811.359 57.6599 807.826 Q57.6599 802.956 54.2224 800.028 Q50.7531 797.068 45.0239 797.068 L43.719 797.068 L43.719 802.892 M41.3 791.211 L61.6384 791.211 L61.6384 797.068 L56.2276 797.068 Q59.4741 799.073 61.0337 802.065 Q62.5615 805.057 62.5615 809.385 Q62.5615 814.86 59.5059 818.106 Q56.4186 821.321 51.2623 821.321 Q45.2467 821.321 42.1912 817.311 Q39.1357 813.269 39.1357 805.28 L39.1357 797.068 L38.5628 797.068 Q34.5205 797.068 32.3244 799.741 Q30.0964 802.383 30.0964 807.189 Q30.0964 810.245 30.8284 813.141 Q31.5605 816.038 33.0246 818.711 L27.6137 818.711 Q26.3724 815.497 25.7677 812.473 Q25.1311 809.449 25.1311 806.585 Q25.1311 798.85 29.1415 795.031 Q33.1519 791.211 41.3 791.211 Z" fill="#000000" fill-rule="nonzero" fill-opacity="1" /><path clip-path="url(#clip850)" d="M27.3591 753.495 L32.8336 753.495 Q31.465 755.977 30.7966 758.492 Q30.0964 760.974 30.0964 763.521 Q30.0964 769.218 33.7248 772.369 Q37.3214 775.52 43.8463 775.52 Q50.3711 775.52 53.9996 772.369 Q57.5962 769.218 57.5962 763.521 Q57.5962 760.974 56.9278 758.492 Q56.2276 755.977 54.859 753.495 L60.2698 753.495 Q61.4156 755.945 61.9886 758.587 Q62.5615 761.197 62.5615 764.157 Q62.5615 772.21 57.5007 776.952 Q52.44 781.695 43.8463 781.695 Q35.1253 781.695 30.1282 776.92 Q25.1311 772.114 25.1311 763.775 Q25.1311 761.07 25.704 758.492 Q26.2451 755.914 27.3591 753.495 Z" fill="#000000" fill-rule="nonzero" fill-opacity="1" /><path clip-path="url(#clip850)" d="M15.869 737.517 L25.9905 737.517 L25.9905 725.454 L30.542 725.454 L30.542 737.517 L49.8937 737.517 Q54.2542 737.517 55.4955 736.339 Q56.7368 735.13 56.7368 731.469 L56.7368 725.454 L61.6384 725.454 L61.6384 731.469 Q61.6384 738.249 59.124 740.827 Q56.5777 743.405 49.8937 743.405 L30.542 743.405 L30.542 747.702 L25.9905 747.702 L25.9905 743.405 L15.869 743.405 L15.869 737.517 Z" fill="#000000" fill-rule="nonzero" fill-opacity="1" /><path clip-path="url(#clip850)" d="M25.9905 717.751 L25.9905 711.895 L61.6384 711.895 L61.6384 717.751 L25.9905 717.751 M12.1132 717.751 L12.1132 711.895 L19.5293 711.895 L19.5293 717.751 L12.1132 717.751 Z" fill="#000000" fill-rule="nonzero" fill-opacity="1" /><path clip-path="url(#clip850)" d="M30.0964 685.827 Q30.0964 690.538 33.7885 693.275 Q37.4488 696.012 43.8463 696.012 Q50.2438 696.012 53.9359 693.307 Q57.5962 690.57 57.5962 685.827 Q57.5962 681.148 53.9041 678.411 Q50.212 675.674 43.8463 675.674 Q37.5124 675.674 33.8203 678.411 Q30.0964 681.148 30.0964 685.827 M25.1311 685.827 Q25.1311 678.188 30.0964 673.828 Q35.0616 669.467 43.8463 669.467 Q52.5991 669.467 57.5962 673.828 Q62.5615 678.188 62.5615 685.827 Q62.5615 693.498 57.5962 697.858 Q52.5991 702.187 43.8463 702.187 Q35.0616 702.187 30.0964 697.858 Q25.1311 693.498 25.1311 685.827 Z" fill="#000000" fill-rule="nonzero" fill-opacity="1" /><path clip-path="url(#clip850)" d="M40.1224 630.127 L61.6384 630.127 L61.6384 635.984 L40.3133 635.984 Q35.2526 635.984 32.7381 637.957 Q30.2237 639.93 30.2237 643.877 Q30.2237 648.62 33.2474 651.357 Q36.2711 654.094 41.491 654.094 L61.6384 654.094 L61.6384 659.982 L25.9905 659.982 L25.9905 654.094 L31.5287 654.094 Q28.314 651.993 26.7225 649.161 Q25.1311 646.296 25.1311 642.572 Q25.1311 636.429 28.9505 633.278 Q32.7381 630.127 40.1224 630.127 Z" fill="#000000" fill-rule="nonzero" fill-opacity="1" /><path clip-path="url(#clip850)" d="M493.618 12.096 L504.637 12.096 L531.454 62.6918 L531.454 12.096 L539.393 12.096 L539.393 72.576 L528.375 72.576 L501.558 21.9802 L501.558 72.576 L493.618 72.576 L493.618 12.096 Z" fill="#000000" fill-rule="nonzero" fill-opacity="1" /><path clip-path="url(#clip850)" d="M594.162 48.0275 L594.162 51.6733 L559.891 51.6733 Q560.377 59.3701 564.509 63.421 Q568.681 67.4314 576.095 67.4314 Q580.389 67.4314 584.399 66.3781 Q588.45 65.3249 592.42 63.2184 L592.42 70.267 Q588.409 71.9684 584.196 72.8596 Q579.983 73.7508 575.649 73.7508 Q564.793 73.7508 558.433 67.4314 Q552.113 61.1119 552.113 50.3365 Q552.113 39.1965 558.109 32.6746 Q564.144 26.1121 574.353 26.1121 Q583.508 26.1121 588.814 32.0264 Q594.162 37.9003 594.162 48.0275 M586.708 45.84 Q586.627 39.7232 583.265 36.0774 Q579.943 32.4315 574.434 32.4315 Q568.195 32.4315 564.428 35.9558 Q560.701 39.4801 560.134 45.8805 L586.708 45.84 Z" fill="#000000" fill-rule="nonzero" fill-opacity="1" /><path clip-path="url(#clip850)" d="M606.395 27.2059 L613.849 27.2059 L613.849 72.576 L606.395 72.576 L606.395 27.2059 M606.395 9.54393 L613.849 9.54393 L613.849 18.9825 L606.395 18.9825 L606.395 9.54393 Z" fill="#000000" fill-rule="nonzero" fill-opacity="1" /><path clip-path="url(#clip850)" d="M659.3 49.3643 Q659.3 41.2625 655.938 36.8065 Q652.616 32.3505 646.58 32.3505 Q640.585 32.3505 637.223 36.8065 Q633.901 41.2625 633.901 49.3643 Q633.901 57.4256 637.223 61.8816 Q640.585 66.3376 646.58 66.3376 Q652.616 66.3376 655.938 61.8816 Q659.3 57.4256 659.3 49.3643 M666.754 66.9452 Q666.754 78.5308 661.609 84.1616 Q656.465 89.8329 645.851 89.8329 Q641.922 89.8329 638.438 89.2252 Q634.954 88.6581 631.673 87.4428 L631.673 80.1917 Q634.954 81.9741 638.154 82.8248 Q641.355 83.6755 644.676 83.6755 Q652.009 83.6755 655.654 79.8271 Q659.3 76.0193 659.3 68.282 L659.3 64.5957 Q656.991 68.6061 653.386 70.5911 Q649.781 72.576 644.757 72.576 Q636.413 72.576 631.308 66.2161 Q626.204 59.8562 626.204 49.3643 Q626.204 38.832 631.308 32.472 Q636.413 26.1121 644.757 26.1121 Q649.781 26.1121 653.386 28.0971 Q656.991 30.082 659.3 34.0924 L659.3 27.2059 L666.754 27.2059 L666.754 66.9452 Z" fill="#000000" fill-rule="nonzero" fill-opacity="1" /><path clip-path="url(#clip850)" d="M719.821 45.1919 L719.821 72.576 L712.367 72.576 L712.367 45.4349 Q712.367 38.994 709.855 35.7938 Q707.344 32.5936 702.321 32.5936 Q696.285 32.5936 692.801 36.4419 Q689.317 40.2903 689.317 46.9338 L689.317 72.576 L681.823 72.576 L681.823 9.54393 L689.317 9.54393 L689.317 34.2544 Q691.991 30.163 695.596 28.1376 Q699.242 26.1121 703.982 26.1121 Q711.8 26.1121 715.81 30.9732 Q719.821 35.7938 719.821 45.1919 Z" fill="#000000" fill-rule="nonzero" fill-opacity="1" /><path clip-path="url(#clip850)" d="M767.257 49.9314 Q767.257 41.7081 763.854 37.0496 Q760.492 32.3505 754.577 32.3505 Q748.663 32.3505 745.26 37.0496 Q741.898 41.7081 741.898 49.9314 Q741.898 58.1548 745.26 62.8538 Q748.663 67.5124 754.577 67.5124 Q760.492 67.5124 763.854 62.8538 Q767.257 58.1548 767.257 49.9314 M741.898 34.0924 Q744.248 30.0415 747.812 28.0971 Q751.418 26.1121 756.4 26.1121 Q764.664 26.1121 769.809 32.6746 Q774.994 39.2371 774.994 49.9314 Q774.994 60.6258 769.809 67.1883 Q764.664 73.7508 756.4 73.7508 Q751.418 73.7508 747.812 71.8063 Q744.248 69.8214 741.898 65.7705 L741.898 72.576 L734.404 72.576 L734.404 9.54393 L741.898 9.54393 L741.898 34.0924 Z" fill="#000000" fill-rule="nonzero" fill-opacity="1" /><path clip-path="url(#clip850)" d="M804.93 32.4315 Q798.935 32.4315 795.451 37.1306 Q791.967 41.7891 791.967 49.9314 Q791.967 58.0738 795.411 62.7728 Q798.894 67.4314 804.93 67.4314 Q810.885 67.4314 814.369 62.7323 Q817.853 58.0333 817.853 49.9314 Q817.853 41.8701 814.369 37.1711 Q810.885 32.4315 804.93 32.4315 M804.93 26.1121 Q814.652 26.1121 820.202 32.4315 Q825.752 38.7509 825.752 49.9314 Q825.752 61.0714 820.202 67.4314 Q814.652 73.7508 804.93 73.7508 Q795.168 73.7508 789.618 67.4314 Q784.109 61.0714 784.109 49.9314 Q784.109 38.7509 789.618 32.4315 Q795.168 26.1121 804.93 26.1121 Z" fill="#000000" fill-rule="nonzero" fill-opacity="1" /><path clip-path="url(#clip850)" d="M837.337 54.671 L837.337 27.2059 L844.791 27.2059 L844.791 54.3874 Q844.791 60.8284 847.303 64.0691 Q849.814 67.2693 854.837 67.2693 Q860.873 67.2693 864.357 63.421 Q867.881 59.5726 867.881 52.9291 L867.881 27.2059 L875.335 27.2059 L875.335 72.576 L867.881 72.576 L867.881 65.6084 Q865.167 69.7404 861.562 71.7658 Q857.997 73.7508 853.257 73.7508 Q845.439 73.7508 841.388 68.8897 Q837.337 64.0286 837.337 54.671 M856.093 26.1121 L856.093 26.1121 Z" fill="#000000" fill-rule="nonzero" fill-opacity="1" /><path clip-path="url(#clip850)" d="M916.978 34.1734 Q915.722 33.4443 914.224 33.1202 Q912.765 32.7556 910.983 32.7556 Q904.663 32.7556 901.261 36.8875 Q897.898 40.9789 897.898 48.6757 L897.898 72.576 L890.404 72.576 L890.404 27.2059 L897.898 27.2059 L897.898 34.2544 Q900.248 30.1225 904.015 28.1376 Q907.783 26.1121 913.17 26.1121 Q913.94 26.1121 914.872 26.2337 Q915.803 26.3147 916.938 26.5172 L916.978 34.1734 Z" fill="#000000" fill-rule="nonzero" fill-opacity="1" /><path clip-path="url(#clip850)" d="M961.052 45.1919 L961.052 72.576 L953.598 72.576 L953.598 45.4349 Q953.598 38.994 951.087 35.7938 Q948.575 32.5936 943.552 32.5936 Q937.516 32.5936 934.033 36.4419 Q930.549 40.2903 930.549 46.9338 L930.549 72.576 L923.055 72.576 L923.055 9.54393 L930.549 9.54393 L930.549 34.2544 Q933.222 30.163 936.828 28.1376 Q940.473 26.1121 945.213 26.1121 Q953.031 26.1121 957.042 30.9732 Q961.052 35.7938 961.052 45.1919 Z" fill="#000000" fill-rule="nonzero" fill-opacity="1" /><path clip-path="url(#clip850)" d="M993.5 32.4315 Q987.504 32.4315 984.021 37.1306 Q980.537 41.7891 980.537 49.9314 Q980.537 58.0738 983.98 62.7728 Q987.464 67.4314 993.5 67.4314 Q999.455 67.4314 1002.94 62.7323 Q1006.42 58.0333 1006.42 49.9314 Q1006.42 41.8701 1002.94 37.1711 Q999.455 32.4315 993.5 32.4315 M993.5 26.1121 Q1003.22 26.1121 1008.77 32.4315 Q1014.32 38.7509 1014.32 49.9314 Q1014.32 61.0714 1008.77 67.4314 Q1003.22 73.7508 993.5 73.7508 Q983.737 73.7508 978.187 67.4314 Q972.678 61.0714 972.678 49.9314 Q972.678 38.7509 978.187 32.4315 Q983.737 26.1121 993.5 26.1121 Z" fill="#000000" fill-rule="nonzero" fill-opacity="1" /><path clip-path="url(#clip850)" d="M1044.26 32.4315 Q1038.26 32.4315 1034.78 37.1306 Q1031.29 41.7891 1031.29 49.9314 Q1031.29 58.0738 1034.74 62.7728 Q1038.22 67.4314 1044.26 67.4314 Q1050.21 67.4314 1053.7 62.7323 Q1057.18 58.0333 1057.18 49.9314 Q1057.18 41.8701 1053.7 37.1711 Q1050.21 32.4315 1044.26 32.4315 M1044.26 26.1121 Q1053.98 26.1121 1059.53 32.4315 Q1065.08 38.7509 1065.08 49.9314 Q1065.08 61.0714 1059.53 67.4314 Q1053.98 73.7508 1044.26 73.7508 Q1034.49 73.7508 1028.95 67.4314 Q1023.44 61.0714 1023.44 49.9314 Q1023.44 38.7509 1028.95 32.4315 Q1034.49 26.1121 1044.26 26.1121 Z" fill="#000000" fill-rule="nonzero" fill-opacity="1" /><path clip-path="url(#clip850)" d="M1107.29 34.0924 L1107.29 9.54393 L1114.74 9.54393 L1114.74 72.576 L1107.29 72.576 L1107.29 65.7705 Q1104.94 69.8214 1101.33 71.8063 Q1097.77 73.7508 1092.75 73.7508 Q1084.52 73.7508 1079.34 67.1883 Q1074.19 60.6258 1074.19 49.9314 Q1074.19 39.2371 1079.34 32.6746 Q1084.52 26.1121 1092.75 26.1121 Q1097.77 26.1121 1101.33 28.0971 Q1104.94 30.0415 1107.29 34.0924 M1081.89 49.9314 Q1081.89 58.1548 1085.25 62.8538 Q1088.66 67.5124 1094.57 67.5124 Q1100.48 67.5124 1103.89 62.8538 Q1107.29 58.1548 1107.29 49.9314 Q1107.29 41.7081 1103.89 37.0496 Q1100.48 32.3505 1094.57 32.3505 Q1088.66 32.3505 1085.25 37.0496 Q1081.89 41.7081 1081.89 49.9314 Z" fill="#000000" fill-rule="nonzero" fill-opacity="1" /><path clip-path="url(#clip850)" d="M1174.37 9.62495 Q1168.94 18.942 1166.31 28.0566 Q1163.68 37.1711 1163.68 46.5287 Q1163.68 55.8863 1166.31 65.0818 Q1168.98 74.2369 1174.37 83.5134 L1167.89 83.5134 Q1161.81 73.9938 1158.78 64.7983 Q1155.78 55.6027 1155.78 46.5287 Q1155.78 37.4952 1158.78 28.3401 Q1161.77 19.1851 1167.89 9.62495 L1174.37 9.62495 Z" fill="#000000" fill-rule="nonzero" fill-opacity="1" /><path clip-path="url(#clip850)" d="M1226.55 45.1919 L1226.55 72.576 L1219.09 72.576 L1219.09 45.4349 Q1219.09 38.994 1216.58 35.7938 Q1214.07 32.5936 1209.05 32.5936 Q1203.01 32.5936 1199.53 36.4419 Q1196.04 40.2903 1196.04 46.9338 L1196.04 72.576 L1188.55 72.576 L1188.55 27.2059 L1196.04 27.2059 L1196.04 34.2544 Q1198.72 30.163 1202.32 28.1376 Q1205.97 26.1121 1210.71 26.1121 Q1218.53 26.1121 1222.54 30.9732 Q1226.55 35.7938 1226.55 45.1919 Z" fill="#000000" fill-rule="nonzero" fill-opacity="1" /><path clip-path="url(#clip850)" d="M1242.39 34.9026 L1294.32 34.9026 L1294.32 41.7081 L1242.39 41.7081 L1242.39 34.9026 M1242.39 51.4303 L1294.32 51.4303 L1294.32 58.3168 L1242.39 58.3168 L1242.39 51.4303 Z" fill="#000000" fill-rule="nonzero" fill-opacity="1" /><path clip-path="url(#clip850)" d="M1319.03 65.6895 L1347.59 65.6895 L1347.59 72.576 L1309.19 72.576 L1309.19 65.6895 Q1313.85 60.8689 1321.87 52.7671 Q1329.93 44.6248 1331.99 42.2752 Q1335.92 37.8598 1337.46 34.8216 Q1339.04 31.7429 1339.04 28.7857 Q1339.04 23.9651 1335.64 20.927 Q1332.28 17.8888 1326.85 17.8888 Q1323 17.8888 1318.71 19.2256 Q1314.45 20.5624 1309.59 23.2765 L1309.59 15.0127 Q1314.53 13.0277 1318.83 12.015 Q1323.12 11.0023 1326.69 11.0023 Q1336.08 11.0023 1341.67 15.7013 Q1347.27 20.4004 1347.27 28.2591 Q1347.27 31.9859 1345.85 35.3482 Q1344.47 38.6699 1340.78 43.2069 Q1339.77 44.3817 1334.34 50.0125 Q1328.91 55.6027 1319.03 65.6895 Z" fill="#000000" fill-rule="nonzero" fill-opacity="1" /><path clip-path="url(#clip850)" d="M1362.54 9.62495 L1369.02 9.62495 Q1375.09 19.1851 1378.09 28.3401 Q1381.13 37.4952 1381.13 46.5287 Q1381.13 55.6027 1378.09 64.7983 Q1375.09 73.9938 1369.02 83.5134 L1362.54 83.5134 Q1367.92 74.2369 1370.56 65.0818 Q1373.23 55.8863 1373.23 46.5287 Q1373.23 37.1711 1370.56 28.0566 Q1367.92 18.942 1362.54 9.62495 Z" fill="#000000" fill-rule="nonzero" fill-opacity="1" /><path clip-path="url(#clip850)" d="M1459.03 14.0809 L1459.03 22.0612 Q1454.37 19.8332 1450.24 18.7395 Q1446.11 17.6457 1442.26 17.6457 Q1435.57 17.6457 1431.93 20.2383 Q1428.32 22.8309 1428.32 27.611 Q1428.32 31.6214 1430.71 33.6873 Q1433.14 35.7128 1439.87 36.9686 L1444.81 37.9813 Q1453.97 39.7232 1458.3 44.1387 Q1462.68 48.5136 1462.68 55.8863 Q1462.68 64.6767 1456.76 69.2137 Q1450.89 73.7508 1439.5 73.7508 Q1435.21 73.7508 1430.35 72.7785 Q1425.53 71.8063 1420.34 69.9024 L1420.34 61.4765 Q1425.33 64.2716 1430.11 65.6895 Q1434.89 67.1073 1439.5 67.1073 Q1446.51 67.1073 1450.32 64.3527 Q1454.13 61.598 1454.13 56.4939 Q1454.13 52.0379 1451.37 49.5264 Q1448.66 47.0148 1442.42 45.759 L1437.44 44.7868 Q1428.28 42.9639 1424.19 39.075 Q1420.1 35.1862 1420.1 28.2591 Q1420.1 20.2383 1425.73 15.6203 Q1431.4 11.0023 1441.33 11.0023 Q1445.58 11.0023 1450 11.7719 Q1454.41 12.5416 1459.03 14.0809 Z" fill="#000000" fill-rule="nonzero" fill-opacity="1" /><path clip-path="url(#clip850)" d="M1475.44 12.096 L1483.62 12.096 L1483.62 72.576 L1475.44 72.576 L1475.44 12.096 Z" fill="#000000" fill-rule="nonzero" fill-opacity="1" /><path clip-path="url(#clip850)" d="M1536.16 14.0809 L1536.16 22.0612 Q1531.5 19.8332 1527.37 18.7395 Q1523.24 17.6457 1519.39 17.6457 Q1512.7 17.6457 1509.06 20.2383 Q1505.45 22.8309 1505.45 27.611 Q1505.45 31.6214 1507.84 33.6873 Q1510.27 35.7128 1517 36.9686 L1521.94 37.9813 Q1531.1 39.7232 1535.43 44.1387 Q1539.8 48.5136 1539.8 55.8863 Q1539.8 64.6767 1533.89 69.2137 Q1528.02 73.7508 1516.63 73.7508 Q1512.34 73.7508 1507.48 72.7785 Q1502.66 71.8063 1497.47 69.9024 L1497.47 61.4765 Q1502.46 64.2716 1507.24 65.6895 Q1512.02 67.1073 1516.63 67.1073 Q1523.64 67.1073 1527.45 64.3527 Q1531.26 61.598 1531.26 56.4939 Q1531.26 52.0379 1528.5 49.5264 Q1525.79 47.0148 1519.55 45.759 L1514.57 44.7868 Q1505.41 42.9639 1501.32 39.075 Q1497.23 35.1862 1497.23 28.2591 Q1497.23 20.2383 1502.86 15.6203 Q1508.53 11.0023 1518.46 11.0023 Q1522.71 11.0023 1527.13 11.7719 Q1531.54 12.5416 1536.16 14.0809 Z" fill="#000000" fill-rule="nonzero" fill-opacity="1" /><path clip-path="url(#clip850)" d="M1554.14 62.2867 L1562.69 62.2867 L1562.69 69.2543 L1556.05 82.2172 L1550.82 82.2172 L1554.14 69.2543 L1554.14 62.2867 Z" fill="#000000" fill-rule="nonzero" fill-opacity="1" /><path clip-path="url(#clip850)" d="M1604.7 9.54393 L1612.19 9.54393 L1612.19 46.7717 L1634.43 27.2059 L1643.95 27.2059 L1619.89 48.4326 L1644.97 72.576 L1635.24 72.576 L1612.19 50.4176 L1612.19 72.576 L1604.7 72.576 L1604.7 9.54393 Z" fill="#000000" fill-rule="nonzero" fill-opacity="1" /><path clip-path="url(#clip850)" d="M1654 34.9026 L1705.93 34.9026 L1705.93 41.7081 L1654 41.7081 L1654 34.9026 M1654 51.4303 L1705.93 51.4303 L1705.93 58.3168 L1654 58.3168 L1654 51.4303 Z" fill="#000000" fill-rule="nonzero" fill-opacity="1" /><path clip-path="url(#clip850)" d="M1748.39 39.9662 Q1754.26 41.222 1757.54 45.1919 Q1760.86 49.1618 1760.86 54.9951 Q1760.86 63.9476 1754.71 68.8492 Q1748.55 73.7508 1737.21 73.7508 Q1733.4 73.7508 1729.35 72.9811 Q1725.34 72.2519 1721.04 70.7531 L1721.04 62.8538 Q1724.44 64.8388 1728.5 65.8515 Q1732.55 66.8642 1736.96 66.8642 Q1744.66 66.8642 1748.67 63.826 Q1752.72 60.7879 1752.72 54.9951 Q1752.72 49.6479 1748.95 46.6502 Q1745.23 43.612 1738.54 43.612 L1731.49 43.612 L1731.49 36.8875 L1738.87 36.8875 Q1744.9 36.8875 1748.1 34.4975 Q1751.3 32.067 1751.3 27.5299 Q1751.3 22.8714 1747.98 20.4004 Q1744.7 17.8888 1738.54 17.8888 Q1735.18 17.8888 1731.33 18.618 Q1727.48 19.3471 1722.87 20.8865 L1722.87 13.5948 Q1727.52 12.2985 1731.57 11.6504 Q1735.67 11.0023 1739.27 11.0023 Q1748.59 11.0023 1754.02 15.2557 Q1759.44 19.4686 1759.44 26.6793 Q1759.44 31.7024 1756.57 35.1862 Q1753.69 38.6294 1748.39 39.9662 Z" fill="#000000" fill-rule="nonzero" fill-opacity="1" /><path clip-path="url(#clip850)" d="M1777.23 62.2867 L1785.78 62.2867 L1785.78 69.2543 L1779.13 82.2172 L1773.91 82.2172 L1777.23 69.2543 L1777.23 62.2867 Z" fill="#000000" fill-rule="nonzero" fill-opacity="1" /><path clip-path="url(#clip850)" d="M1835.52 69.7809 L1835.52 89.8329 L1828.03 89.8329 L1828.03 27.4894 Q1828.03 9.01731 1845.28 9.01731 Q1862.86 9.01731 1862.86 24.6133 Q1862.86 35.7128 1855.9 39.7637 Q1867.24 43.4095 1867.24 54.2254 Q1867.24 73.4267 1847.71 73.4267 Q1839.13 73.4267 1835.52 69.7809 M1835.52 60.0587 Q1840.02 67.0668 1848 67.0668 Q1859.66 67.0668 1859.66 54.3469 Q1859.66 42.9234 1840.87 43.8146 L1840.87 36.928 Q1855.57 36.928 1855.57 23.9651 Q1855.57 15.0937 1846.09 15.0937 Q1835.52 15.0937 1835.52 27.7325 L1835.52 60.0587 Z" fill="#000000" fill-rule="nonzero" fill-opacity="1" /><path clip-path="url(#clip850)" d="M1881.98 34.9026 L1933.92 34.9026 L1933.92 41.7081 L1881.98 41.7081 L1881.98 34.9026 M1881.98 51.4303 L1933.92 51.4303 L1933.92 58.3168 L1881.98 58.3168 L1881.98 51.4303 Z" fill="#000000" fill-rule="nonzero" fill-opacity="1" /><path clip-path="url(#clip850)" d="M1969.08 17.4837 Q1962.76 17.4837 1959.56 23.7221 Q1956.4 29.92 1956.4 42.3968 Q1956.4 54.833 1959.56 61.0714 Q1962.76 67.2693 1969.08 67.2693 Q1975.44 67.2693 1978.6 61.0714 Q1981.8 54.833 1981.8 42.3968 Q1981.8 29.92 1978.6 23.7221 Q1975.44 17.4837 1969.08 17.4837 M1969.08 11.0023 Q1979.25 11.0023 1984.59 19.0636 Q1989.98 27.0843 1989.98 42.3968 Q1989.98 57.6687 1984.59 65.73 Q1979.25 73.7508 1969.08 73.7508 Q1958.91 73.7508 1953.52 65.73 Q1948.18 57.6687 1948.18 42.3968 Q1948.18 27.0843 1953.52 19.0636 Q1958.91 11.0023 1969.08 11.0023 Z" fill="#000000" fill-rule="nonzero" fill-opacity="1" /><path clip-path="url(#clip850)" d="M2004.36 62.2867 L2012.91 62.2867 L2012.91 72.576 L2004.36 72.576 L2004.36 62.2867 Z" fill="#000000" fill-rule="nonzero" fill-opacity="1" /><path clip-path="url(#clip850)" d="M2028.67 12.096 L2067.56 12.096 L2067.56 15.5798 L2045.6 72.576 L2037.05 72.576 L2057.71 18.9825 L2028.67 18.9825 L2028.67 12.096 Z" fill="#000000" fill-rule="nonzero" fill-opacity="1" /><path clip-path="url(#clip850)" d="M2084.37 62.2867 L2092.92 62.2867 L2092.92 69.2543 L2086.27 82.2172 L2081.05 82.2172 L2084.37 69.2543 L2084.37 62.2867 Z" fill="#000000" fill-rule="nonzero" fill-opacity="1" /><path clip-path="url(#clip850)" d="M2142.01 34.3355 L2151.94 62.3677 L2166.12 27.2059 L2174.01 27.2059 L2155.66 72.576 L2155.66 89.8329 L2148.21 89.8329 L2148.21 72.576 L2136.3 38.7104 Q2134.52 33.6063 2130.67 33.6063 L2128.68 33.6063 L2128.68 27.2059 L2131.52 27.2059 Q2139.5 27.2059 2142.01 34.3355 Z" fill="#000000" fill-rule="nonzero" fill-opacity="1" /><path clip-path="url(#clip850)" d="M2185.28 34.9026 L2237.21 34.9026 L2237.21 41.7081 L2185.28 41.7081 L2185.28 34.9026 M2185.28 51.4303 L2237.21 51.4303 L2237.21 58.3168 L2185.28 58.3168 L2185.28 51.4303 Z" fill="#000000" fill-rule="nonzero" fill-opacity="1" /><path clip-path="url(#clip850)" d="M2272.37 17.4837 Q2266.05 17.4837 2262.85 23.7221 Q2259.69 29.92 2259.69 42.3968 Q2259.69 54.833 2262.85 61.0714 Q2266.05 67.2693 2272.37 67.2693 Q2278.73 67.2693 2281.89 61.0714 Q2285.09 54.833 2285.09 42.3968 Q2285.09 29.92 2281.89 23.7221 Q2278.73 17.4837 2272.37 17.4837 M2272.37 11.0023 Q2282.54 11.0023 2287.89 19.0636 Q2293.27 27.0843 2293.27 42.3968 Q2293.27 57.6687 2287.89 65.73 Q2282.54 73.7508 2272.37 73.7508 Q2262.2 73.7508 2256.81 65.73 Q2251.47 57.6687 2251.47 42.3968 Q2251.47 27.0843 2256.81 19.0636 Q2262.2 11.0023 2272.37 11.0023 Z" fill="#000000" fill-rule="nonzero" fill-opacity="1" /><path clip-path="url(#clip850)" d="M2307.65 62.2867 L2316.2 62.2867 L2316.2 72.576 L2307.65 72.576 L2307.65 62.2867 Z" fill="#000000" fill-rule="nonzero" fill-opacity="1" /><path clip-path="url(#clip850)" d="M2356.51 19.2256 L2335.85 51.5113 L2356.51 51.5113 L2356.51 19.2256 M2354.36 12.096 L2364.65 12.096 L2364.65 51.5113 L2373.28 51.5113 L2373.28 58.3168 L2364.65 58.3168 L2364.65 72.576 L2356.51 72.576 L2356.51 58.3168 L2329.2 58.3168 L2329.2 50.4176 L2354.36 12.096 Z" fill="#000000" fill-rule="nonzero" fill-opacity="1" /><polyline clip-path="url(#clip851)" style="stroke:#009af9; stroke-linecap:round; stroke-linejoin:round; stroke-width:8; stroke-opacity:1; fill:none" points="294.479,173.254 332.444,239.448 370.41,309.39 408.376,387.89 446.341,476.839 484.307,576.322 522.273,684.733 560.238,798.695 598.204,913.232 636.17,1022.44 674.135,1120.64 712.101,1203.59 750.067,1269.36 788.032,1318.45 825.998,1353.12 863.963,1376.49 901.929,1391.67 939.895,1401.24 977.86,1407.17 1015.83,1410.78 1053.79,1412.96 1091.76,1414.27 1129.72,1415.06 1167.69,1415.52 1205.65,1415.8 1243.62,1415.97 1281.59,1416.07 1319.55,1416.13 1357.52,1416.16 1395.48,1416.18 1433.45,1416.2 1471.41,1416.2 1509.38,1416.21 1547.35,1416.21 1585.31,1416.21 1623.28,1416.21 1661.24,1416.21 1699.21,1416.21 1737.17,1416.21 1775.14,1416.21 1813.1,1416.21 1851.07,1416.21 1889.04,1416.21 1927,1416.21 1964.97,1416.21 2002.93,1416.21 2040.9,1416.21 2078.86,1416.21 2116.83,1416.21 2154.8,1416.21 2192.76,1416.21 2230.73,1416.21 2268.69,1416.21 2306.66,1416.21 2344.62,1416.21 2382.59,1416.21 2420.56,1416.21 2458.52,1416.21 2496.49,1416.21 2534.45,1416.21 2572.42,1416.21 "/>
<polyline clip-path="url(#clip851)" style="stroke:#e26f46; stroke-linecap:round; stroke-linejoin:round; stroke-width:8; stroke-opacity:1; fill:none" points="294.479,1688.65 332.444,1622.46 370.41,1552.52 408.376,1474.02 446.341,1385.07 484.307,1285.59 522.273,1177.18 560.238,1063.21 598.204,948.677 636.17,839.466 674.135,741.269 712.101,658.321 750.067,592.546 788.032,543.459 825.998,508.786 863.963,485.415 901.929,470.241 939.895,460.665 977.86,454.742 1015.83,451.13 1053.79,448.948 1091.76,447.637 1129.72,446.853 1167.69,446.384 1205.65,446.105 1243.62,445.939 1281.59,445.84 1319.55,445.781 1357.52,445.746 1395.48,445.725 1433.45,445.713 1471.41,445.706 1509.38,445.701 1547.35,445.699 1585.31,445.697 1623.28,445.696 1661.24,445.696 1699.21,445.695 1737.17,445.695 1775.14,445.695 1813.1,445.695 1851.07,445.695 1889.04,445.695 1927,445.695 1964.97,445.695 2002.93,445.695 2040.9,445.695 2078.86,445.695 2116.83,445.695 2154.8,445.695 2192.76,445.695 2230.73,445.695 2268.69,445.695 2306.66,445.695 2344.62,445.695 2382.59,445.695 2420.56,445.695 2458.52,445.695 2496.49,445.695 2534.45,445.695 2572.42,445.695 "/>
<path clip-path="url(#clip850)" d="M2294.48 1036.34 L2560.27 1036.34 L2560.27 880.819 L2294.48 880.819  Z" fill="#ffffff" fill-rule="evenodd" fill-opacity="1"/>
<polyline clip-path="url(#clip850)" style="stroke:#000000; stroke-linecap:round; stroke-linejoin:round; stroke-width:4; stroke-opacity:1; fill:none" points="2294.48,1036.34 2560.27,1036.34 2560.27,880.819 2294.48,880.819 2294.48,1036.34 "/>
<polyline clip-path="url(#clip850)" style="stroke:#009af9; stroke-linecap:round; stroke-linejoin:round; stroke-width:8; stroke-opacity:1; fill:none" points="2321.31,932.659 2482.28,932.659 "/>
<path clip-path="url(#clip850)" d="M2531.36 916.513 L2531.36 921.073 Q2528.69 919.8 2526.33 919.175 Q2523.97 918.55 2521.77 918.55 Q2517.95 918.55 2515.87 920.031 Q2513.81 921.513 2513.81 924.244 Q2513.81 926.536 2515.18 927.717 Q2516.56 928.874 2520.41 929.592 L2523.23 930.17 Q2528.46 931.166 2530.94 933.689 Q2533.44 936.189 2533.44 940.402 Q2533.44 945.425 2530.06 948.017 Q2526.7 950.61 2520.2 950.61 Q2517.75 950.61 2514.97 950.054 Q2512.21 949.499 2509.25 948.411 L2509.25 943.596 Q2512.1 945.193 2514.83 946.004 Q2517.56 946.814 2520.2 946.814 Q2524.2 946.814 2526.38 945.24 Q2528.56 943.666 2528.56 940.749 Q2528.56 938.203 2526.98 936.767 Q2525.43 935.332 2521.87 934.615 L2519.02 934.059 Q2513.79 933.018 2511.45 930.795 Q2509.11 928.573 2509.11 924.615 Q2509.11 920.031 2512.33 917.393 Q2515.57 914.754 2521.24 914.754 Q2523.67 914.754 2526.19 915.194 Q2528.72 915.633 2531.36 916.513 Z" fill="#000000" fill-rule="nonzero" fill-opacity="1" /><polyline clip-path="url(#clip850)" style="stroke:#e26f46; stroke-linecap:round; stroke-linejoin:round; stroke-width:8; stroke-opacity:1; fill:none" points="2321.31,984.499 2482.28,984.499 "/>
<path clip-path="url(#clip850)" d="M2509.11 967.219 L2513.79 967.219 L2513.79 1001.78 L2509.11 1001.78 L2509.11 967.219 Z" fill="#000000" fill-rule="nonzero" fill-opacity="1" /></svg>
