<?xml version="1.0" encoding="utf-8"?>
<svg xmlns="http://www.w3.org/2000/svg" xmlns:xlink="http://www.w3.org/1999/xlink" width="672" height="480" viewBox="0 0 2688 1920">
<defs>
  <clipPath id="clip630">
    <rect x="0" y="0" width="2688" height="1920"/>
  </clipPath>
</defs>
<path clip-path="url(#clip630)" d="M0 1920 L2688 1920 L2688 -4.26326e-14 L0 -4.26326e-14  Z" fill="#ffffff" fill-rule="evenodd" fill-opacity="1"/>
<defs>
  <clipPath id="clip631">
    <rect x="225" y="127" width="2416" height="1607"/>
  </clipPath>
</defs>
<path clip-path="url(#clip630)" d="M225.654 1734.12 L2640.76 1734.12 L2640.76 127.792 L225.654 127.792  Z" fill="#ffffff" fill-rule="evenodd" fill-opacity="1"/>
<polyline clip-path="url(#clip631)" style="stroke:#000000; stroke-linecap:round; stroke-linejoin:round; stroke-width:2; stroke-opacity:0.1; fill:none" points="294.006,1734.12 294.006,127.792 "/>
<polyline clip-path="url(#clip631)" style="stroke:#000000; stroke-linecap:round; stroke-linejoin:round; stroke-width:2; stroke-opacity:0.1; fill:none" points="673.739,1734.12 673.739,127.792 "/>
<polyline clip-path="url(#clip631)" style="stroke:#000000; stroke-linecap:round; stroke-linejoin:round; stroke-width:2; stroke-opacity:0.1; fill:none" points="1053.47,1734.12 1053.47,127.792 "/>
<polyline clip-path="url(#clip631)" style="stroke:#000000; stroke-linecap:round; stroke-linejoin:round; stroke-width:2; stroke-opacity:0.1; fill:none" points="1433.21,1734.12 1433.21,127.792 "/>
<polyline clip-path="url(#clip631)" style="stroke:#000000; stroke-linecap:round; stroke-linejoin:round; stroke-width:2; stroke-opacity:0.1; fill:none" points="1812.94,1734.12 1812.94,127.792 "/>
<polyline clip-path="url(#clip631)" style="stroke:#000000; stroke-linecap:round; stroke-linejoin:round; stroke-width:2; stroke-opacity:0.1; fill:none" points="2192.67,1734.12 2192.67,127.792 "/>
<polyline clip-path="url(#clip631)" style="stroke:#000000; stroke-linecap:round; stroke-linejoin:round; stroke-width:2; stroke-opacity:0.1; fill:none" points="2572.4,1734.12 2572.4,127.792 "/>
<polyline clip-path="url(#clip631)" style="stroke:#000000; stroke-linecap:round; stroke-linejoin:round; stroke-width:2; stroke-opacity:0.1; fill:none" points="225.654,1732.17 2640.76,1732.17 "/>
<polyline clip-path="url(#clip631)" style="stroke:#000000; stroke-linecap:round; stroke-linejoin:round; stroke-width:2; stroke-opacity:0.1; fill:none" points="225.654,1433.21 2640.76,1433.21 "/>
<polyline clip-path="url(#clip631)" style="stroke:#000000; stroke-linecap:round; stroke-linejoin:round; stroke-width:2; stroke-opacity:0.1; fill:none" points="225.654,1134.25 2640.76,1134.25 "/>
<polyline clip-path="url(#clip631)" style="stroke:#000000; stroke-linecap:round; stroke-linejoin:round; stroke-width:2; stroke-opacity:0.1; fill:none" points="225.654,835.289 2640.76,835.289 "/>
<polyline clip-path="url(#clip631)" style="stroke:#000000; stroke-linecap:round; stroke-linejoin:round; stroke-width:2; stroke-opacity:0.1; fill:none" points="225.654,536.33 2640.76,536.33 "/>
<polyline clip-path="url(#clip631)" style="stroke:#000000; stroke-linecap:round; stroke-linejoin:round; stroke-width:2; stroke-opacity:0.1; fill:none" points="225.654,237.37 2640.76,237.37 "/>
<polyline clip-path="url(#clip630)" style="stroke:#000000; stroke-linecap:round; stroke-linejoin:round; stroke-width:4; stroke-opacity:1; fill:none" points="225.654,1734.12 2640.76,1734.12 "/>
<polyline clip-path="url(#clip630)" style="stroke:#000000; stroke-linecap:round; stroke-linejoin:round; stroke-width:4; stroke-opacity:1; fill:none" points="294.006,1734.12 294.006,1715.22 "/>
<polyline clip-path="url(#clip630)" style="stroke:#000000; stroke-linecap:round; stroke-linejoin:round; stroke-width:4; stroke-opacity:1; fill:none" points="673.739,1734.12 673.739,1715.22 "/>
<polyline clip-path="url(#clip630)" style="stroke:#000000; stroke-linecap:round; stroke-linejoin:round; stroke-width:4; stroke-opacity:1; fill:none" points="1053.47,1734.12 1053.47,1715.22 "/>
<polyline clip-path="url(#clip630)" style="stroke:#000000; stroke-linecap:round; stroke-linejoin:round; stroke-width:4; stroke-opacity:1; fill:none" points="1433.21,1734.12 1433.21,1715.22 "/>
<polyline clip-path="url(#clip630)" style="stroke:#000000; stroke-linecap:round; stroke-linejoin:round; stroke-width:4; stroke-opacity:1; fill:none" points="1812.94,1734.12 1812.94,1715.22 "/>
<polyline clip-path="url(#clip630)" style="stroke:#000000; stroke-linecap:round; stroke-linejoin:round; stroke-width:4; stroke-opacity:1; fill:none" points="2192.67,1734.12 2192.67,1715.22 "/>
<polyline clip-path="url(#clip630)" style="stroke:#000000; stroke-linecap:round; stroke-linejoin:round; stroke-width:4; stroke-opacity:1; fill:none" points="2572.4,1734.12 2572.4,1715.22 "/>
<path clip-path="url(#clip630)" d="M294.006 1767.34 Q290.395 1767.34 288.567 1770.9 Q286.761 1774.45 286.761 1781.58 Q286.761 1788.68 288.567 1792.25 Q290.395 1795.79 294.006 1795.79 Q297.641 1795.79 299.446 1792.25 Q301.275 1788.68 301.275 1781.58 Q301.275 1774.45 299.446 1770.9 Q297.641 1767.34 294.006 1767.34 M294.006 1763.64 Q299.817 1763.64 302.872 1768.24 Q305.951 1772.83 305.951 1781.58 Q305.951 1790.3 302.872 1794.91 Q299.817 1799.49 294.006 1799.49 Q288.196 1799.49 285.118 1794.91 Q282.062 1790.3 282.062 1781.58 Q282.062 1772.83 285.118 1768.24 Q288.196 1763.64 294.006 1763.64 Z" fill="#000000" fill-rule="nonzero" fill-opacity="1" /><path clip-path="url(#clip630)" d="M648.427 1794.89 L656.066 1794.89 L656.066 1768.52 L647.756 1770.19 L647.756 1765.93 L656.019 1764.26 L660.695 1764.26 L660.695 1794.89 L668.334 1794.89 L668.334 1798.82 L648.427 1798.82 L648.427 1794.89 Z" fill="#000000" fill-rule="nonzero" fill-opacity="1" /><path clip-path="url(#clip630)" d="M687.779 1767.34 Q684.167 1767.34 682.339 1770.9 Q680.533 1774.45 680.533 1781.58 Q680.533 1788.68 682.339 1792.25 Q684.167 1795.79 687.779 1795.79 Q691.413 1795.79 693.218 1792.25 Q695.047 1788.68 695.047 1781.58 Q695.047 1774.45 693.218 1770.9 Q691.413 1767.34 687.779 1767.34 M687.779 1763.64 Q693.589 1763.64 696.644 1768.24 Q699.723 1772.83 699.723 1781.58 Q699.723 1790.3 696.644 1794.91 Q693.589 1799.49 687.779 1799.49 Q681.968 1799.49 678.89 1794.91 Q675.834 1790.3 675.834 1781.58 Q675.834 1772.83 678.89 1768.24 Q681.968 1763.64 687.779 1763.64 Z" fill="#000000" fill-rule="nonzero" fill-opacity="1" /><path clip-path="url(#clip630)" d="M1032.25 1794.89 L1048.56 1794.89 L1048.56 1798.82 L1026.62 1798.82 L1026.62 1794.89 Q1029.28 1792.13 1033.87 1787.5 Q1038.47 1782.85 1039.65 1781.51 Q1041.9 1778.98 1042.78 1777.25 Q1043.68 1775.49 1043.68 1773.8 Q1043.68 1771.04 1041.74 1769.31 Q1039.81 1767.57 1036.71 1767.57 Q1034.51 1767.57 1032.06 1768.34 Q1029.63 1769.1 1026.85 1770.65 L1026.85 1765.93 Q1029.68 1764.79 1032.13 1764.21 Q1034.58 1763.64 1036.62 1763.64 Q1041.99 1763.64 1045.19 1766.32 Q1048.38 1769.01 1048.38 1773.5 Q1048.38 1775.63 1047.57 1777.55 Q1046.78 1779.45 1044.68 1782.04 Q1044.1 1782.71 1041 1785.93 Q1037.89 1789.12 1032.25 1794.89 Z" fill="#000000" fill-rule="nonzero" fill-opacity="1" /><path clip-path="url(#clip630)" d="M1068.38 1767.34 Q1064.77 1767.34 1062.94 1770.9 Q1061.13 1774.45 1061.13 1781.58 Q1061.13 1788.68 1062.94 1792.25 Q1064.77 1795.79 1068.38 1795.79 Q1072.01 1795.79 1073.82 1792.25 Q1075.65 1788.68 1075.65 1781.58 Q1075.65 1774.45 1073.82 1770.9 Q1072.01 1767.34 1068.38 1767.34 M1068.38 1763.64 Q1074.19 1763.64 1077.25 1768.24 Q1080.32 1772.83 1080.32 1781.58 Q1080.32 1790.3 1077.25 1794.91 Q1074.19 1799.49 1068.38 1799.49 Q1062.57 1799.49 1059.49 1794.91 Q1056.44 1790.3 1056.44 1781.58 Q1056.44 1772.83 1059.49 1768.24 Q1062.57 1763.64 1068.38 1763.64 Z" fill="#000000" fill-rule="nonzero" fill-opacity="1" /><path clip-path="url(#clip630)" d="M1422.05 1780.19 Q1425.4 1780.9 1427.28 1783.17 Q1429.18 1785.44 1429.18 1788.77 Q1429.18 1793.89 1425.66 1796.69 Q1422.14 1799.49 1415.66 1799.49 Q1413.48 1799.49 1411.17 1799.05 Q1408.88 1798.64 1406.42 1797.78 L1406.42 1793.27 Q1408.37 1794.4 1410.68 1794.98 Q1413 1795.56 1415.52 1795.56 Q1419.92 1795.56 1422.21 1793.82 Q1424.52 1792.08 1424.52 1788.77 Q1424.52 1785.72 1422.37 1784.01 Q1420.24 1782.27 1416.42 1782.27 L1412.4 1782.27 L1412.4 1778.43 L1416.61 1778.43 Q1420.06 1778.43 1421.89 1777.06 Q1423.71 1775.67 1423.71 1773.08 Q1423.71 1770.42 1421.82 1769.01 Q1419.94 1767.57 1416.42 1767.57 Q1414.5 1767.57 1412.3 1767.99 Q1410.1 1768.4 1407.46 1769.28 L1407.46 1765.12 Q1410.13 1764.38 1412.44 1764.01 Q1414.78 1763.64 1416.84 1763.64 Q1422.16 1763.64 1425.27 1766.07 Q1428.37 1768.47 1428.37 1772.59 Q1428.37 1775.46 1426.72 1777.46 Q1425.08 1779.42 1422.05 1780.19 Z" fill="#000000" fill-rule="nonzero" fill-opacity="1" /><path clip-path="url(#clip630)" d="M1448.04 1767.34 Q1444.43 1767.34 1442.6 1770.9 Q1440.8 1774.45 1440.8 1781.58 Q1440.8 1788.68 1442.6 1792.25 Q1444.43 1795.79 1448.04 1795.79 Q1451.68 1795.79 1453.48 1792.25 Q1455.31 1788.68 1455.31 1781.58 Q1455.31 1774.45 1453.48 1770.9 Q1451.68 1767.34 1448.04 1767.34 M1448.04 1763.64 Q1453.85 1763.64 1456.91 1768.24 Q1459.99 1772.83 1459.99 1781.58 Q1459.99 1790.3 1456.91 1794.91 Q1453.85 1799.49 1448.04 1799.49 Q1442.23 1799.49 1439.15 1794.91 Q1436.1 1790.3 1436.1 1781.58 Q1436.1 1772.83 1439.15 1768.24 Q1442.23 1763.64 1448.04 1763.64 Z" fill="#000000" fill-rule="nonzero" fill-opacity="1" /><path clip-path="url(#clip630)" d="M1801.11 1768.34 L1789.3 1786.78 L1801.11 1786.78 L1801.11 1768.34 M1799.88 1764.26 L1805.76 1764.26 L1805.76 1786.78 L1810.69 1786.78 L1810.69 1790.67 L1805.76 1790.67 L1805.76 1798.82 L1801.11 1798.82 L1801.11 1790.67 L1785.51 1790.67 L1785.51 1786.16 L1799.88 1764.26 Z" fill="#000000" fill-rule="nonzero" fill-opacity="1" /><path clip-path="url(#clip630)" d="M1828.42 1767.34 Q1824.81 1767.34 1822.98 1770.9 Q1821.18 1774.45 1821.18 1781.58 Q1821.18 1788.68 1822.98 1792.25 Q1824.81 1795.79 1828.42 1795.79 Q1832.06 1795.79 1833.86 1792.25 Q1835.69 1788.68 1835.69 1781.58 Q1835.69 1774.45 1833.86 1770.9 Q1832.06 1767.34 1828.42 1767.34 M1828.42 1763.64 Q1834.23 1763.64 1837.29 1768.24 Q1840.37 1772.83 1840.37 1781.58 Q1840.37 1790.3 1837.29 1794.91 Q1834.23 1799.49 1828.42 1799.49 Q1822.61 1799.49 1819.54 1794.91 Q1816.48 1790.3 1816.48 1781.58 Q1816.48 1772.83 1819.54 1768.24 Q1822.61 1763.64 1828.42 1763.64 Z" fill="#000000" fill-rule="nonzero" fill-opacity="1" /><path clip-path="url(#clip630)" d="M2167.37 1764.26 L2185.73 1764.26 L2185.73 1768.2 L2171.65 1768.2 L2171.65 1776.67 Q2172.67 1776.32 2173.69 1776.16 Q2174.71 1775.97 2175.73 1775.97 Q2181.51 1775.97 2184.89 1779.15 Q2188.27 1782.32 2188.27 1787.73 Q2188.27 1793.31 2184.8 1796.41 Q2181.33 1799.49 2175.01 1799.49 Q2172.83 1799.49 2170.56 1799.12 Q2168.32 1798.75 2165.91 1798.01 L2165.91 1793.31 Q2168 1794.45 2170.22 1795 Q2172.44 1795.56 2174.92 1795.56 Q2178.92 1795.56 2181.26 1793.45 Q2183.6 1791.34 2183.6 1787.73 Q2183.6 1784.12 2181.26 1782.02 Q2178.92 1779.91 2174.92 1779.91 Q2173.04 1779.91 2171.17 1780.33 Q2169.31 1780.74 2167.37 1781.62 L2167.37 1764.26 Z" fill="#000000" fill-rule="nonzero" fill-opacity="1" /><path clip-path="url(#clip630)" d="M2207.49 1767.34 Q2203.87 1767.34 2202.05 1770.9 Q2200.24 1774.45 2200.24 1781.58 Q2200.24 1788.68 2202.05 1792.25 Q2203.87 1795.79 2207.49 1795.79 Q2211.12 1795.79 2212.93 1792.25 Q2214.75 1788.68 2214.75 1781.58 Q2214.75 1774.45 2212.93 1770.9 Q2211.12 1767.34 2207.49 1767.34 M2207.49 1763.64 Q2213.3 1763.64 2216.35 1768.24 Q2219.43 1772.83 2219.43 1781.58 Q2219.43 1790.3 2216.35 1794.91 Q2213.3 1799.49 2207.49 1799.49 Q2201.68 1799.49 2198.6 1794.91 Q2195.54 1790.3 2195.54 1781.58 Q2195.54 1772.83 2198.6 1768.24 Q2201.68 1763.64 2207.49 1763.64 Z" fill="#000000" fill-rule="nonzero" fill-opacity="1" /><path clip-path="url(#clip630)" d="M2557.81 1779.68 Q2554.66 1779.68 2552.81 1781.83 Q2550.98 1783.98 2550.98 1787.73 Q2550.98 1791.46 2552.81 1793.64 Q2554.66 1795.79 2557.81 1795.79 Q2560.96 1795.79 2562.79 1793.64 Q2564.64 1791.46 2564.64 1787.73 Q2564.64 1783.98 2562.79 1781.83 Q2560.96 1779.68 2557.81 1779.68 M2567.09 1765.02 L2567.09 1769.28 Q2565.33 1768.45 2563.53 1768.01 Q2561.74 1767.57 2559.99 1767.57 Q2555.36 1767.57 2552.9 1770.7 Q2550.47 1773.82 2550.12 1780.14 Q2551.49 1778.13 2553.55 1777.06 Q2555.61 1775.97 2558.09 1775.97 Q2563.3 1775.97 2566.3 1779.15 Q2569.34 1782.29 2569.34 1787.73 Q2569.34 1793.06 2566.19 1796.27 Q2563.04 1799.49 2557.81 1799.49 Q2551.81 1799.49 2548.64 1794.91 Q2545.47 1790.3 2545.47 1781.58 Q2545.47 1773.38 2549.36 1768.52 Q2553.25 1763.64 2559.8 1763.64 Q2561.56 1763.64 2563.34 1763.98 Q2565.15 1764.33 2567.09 1765.02 Z" fill="#000000" fill-rule="nonzero" fill-opacity="1" /><path clip-path="url(#clip630)" d="M2587.39 1767.34 Q2583.78 1767.34 2581.95 1770.9 Q2580.15 1774.45 2580.15 1781.58 Q2580.15 1788.68 2581.95 1792.25 Q2583.78 1795.79 2587.39 1795.79 Q2591.03 1795.79 2592.83 1792.25 Q2594.66 1788.68 2594.66 1781.58 Q2594.66 1774.45 2592.83 1770.9 Q2591.03 1767.34 2587.39 1767.34 M2587.39 1763.64 Q2593.2 1763.64 2596.26 1768.24 Q2599.34 1772.83 2599.34 1781.58 Q2599.34 1790.3 2596.26 1794.91 Q2593.2 1799.49 2587.39 1799.49 Q2581.58 1799.49 2578.5 1794.91 Q2575.45 1790.3 2575.45 1781.58 Q2575.45 1772.83 2578.5 1768.24 Q2581.58 1763.64 2587.39 1763.64 Z" fill="#000000" fill-rule="nonzero" fill-opacity="1" /><path clip-path="url(#clip630)" d="M1355.08 1835.78 L1395.28 1835.78 L1395.28 1841.19 L1378.41 1841.19 L1378.41 1883.3 L1371.95 1883.3 L1371.95 1841.19 L1355.08 1841.19 L1355.08 1835.78 Z" fill="#000000" fill-rule="nonzero" fill-opacity="1" /><path clip-path="url(#clip630)" d="M1399.23 1847.65 L1405.08 1847.65 L1405.08 1883.3 L1399.23 1883.3 L1399.23 1847.65 M1399.23 1833.78 L1405.08 1833.78 L1405.08 1841.19 L1399.23 1841.19 L1399.23 1833.78 Z" fill="#000000" fill-rule="nonzero" fill-opacity="1" /><path clip-path="url(#clip630)" d="M1445.09 1854.5 Q1447.29 1850.55 1450.34 1848.67 Q1453.4 1846.79 1457.54 1846.79 Q1463.11 1846.79 1466.13 1850.71 Q1469.16 1854.59 1469.16 1861.78 L1469.16 1883.3 L1463.27 1883.3 L1463.27 1861.98 Q1463.27 1856.85 1461.45 1854.37 Q1459.64 1851.89 1455.91 1851.89 Q1451.36 1851.89 1448.72 1854.91 Q1446.08 1857.93 1446.08 1863.15 L1446.08 1883.3 L1440.19 1883.3 L1440.19 1861.98 Q1440.19 1856.82 1438.38 1854.37 Q1436.56 1851.89 1432.78 1851.89 Q1428.29 1851.89 1425.65 1854.94 Q1423 1857.97 1423 1863.15 L1423 1883.3 L1417.12 1883.3 L1417.12 1847.65 L1423 1847.65 L1423 1853.19 Q1425.01 1849.91 1427.81 1848.35 Q1430.61 1846.79 1434.46 1846.79 Q1438.35 1846.79 1441.05 1848.77 Q1443.79 1850.74 1445.09 1854.5 Z" fill="#000000" fill-rule="nonzero" fill-opacity="1" /><path clip-path="url(#clip630)" d="M1511.33 1864.01 L1511.33 1866.88 L1484.4 1866.88 Q1484.78 1872.92 1488.03 1876.11 Q1491.31 1879.26 1497.13 1879.26 Q1500.51 1879.26 1503.66 1878.43 Q1506.84 1877.6 1509.96 1875.95 L1509.96 1881.49 Q1506.81 1882.82 1503.5 1883.52 Q1500.19 1884.22 1496.78 1884.22 Q1488.25 1884.22 1483.26 1879.26 Q1478.29 1874.29 1478.29 1865.83 Q1478.29 1857.07 1483 1851.95 Q1487.74 1846.79 1495.76 1846.79 Q1502.96 1846.79 1507.13 1851.44 Q1511.33 1856.06 1511.33 1864.01 M1505.47 1862.29 Q1505.41 1857.49 1502.77 1854.62 Q1500.16 1851.76 1495.83 1851.76 Q1490.93 1851.76 1487.97 1854.53 Q1485.04 1857.3 1484.59 1862.33 L1505.47 1862.29 Z" fill="#000000" fill-rule="nonzero" fill-opacity="1" /><polyline clip-path="url(#clip630)" style="stroke:#000000; stroke-linecap:round; stroke-linejoin:round; stroke-width:4; stroke-opacity:1; fill:none" points="225.654,1734.12 225.654,127.792 "/>
<polyline clip-path="url(#clip630)" style="stroke:#000000; stroke-linecap:round; stroke-linejoin:round; stroke-width:4; stroke-opacity:1; fill:none" points="225.654,1732.17 244.552,1732.17 "/>
<polyline clip-path="url(#clip630)" style="stroke:#000000; stroke-linecap:round; stroke-linejoin:round; stroke-width:4; stroke-opacity:1; fill:none" points="225.654,1433.21 244.552,1433.21 "/>
<polyline clip-path="url(#clip630)" style="stroke:#000000; stroke-linecap:round; stroke-linejoin:round; stroke-width:4; stroke-opacity:1; fill:none" points="225.654,1134.25 244.552,1134.25 "/>
<polyline clip-path="url(#clip630)" style="stroke:#000000; stroke-linecap:round; stroke-linejoin:round; stroke-width:4; stroke-opacity:1; fill:none" points="225.654,835.289 244.552,835.289 "/>
<polyline clip-path="url(#clip630)" style="stroke:#000000; stroke-linecap:round; stroke-linejoin:round; stroke-width:4; stroke-opacity:1; fill:none" points="225.654,536.33 244.552,536.33 "/>
<polyline clip-path="url(#clip630)" style="stroke:#000000; stroke-linecap:round; stroke-linejoin:round; stroke-width:4; stroke-opacity:1; fill:none" points="225.654,237.37 244.552,237.37 "/>
<path clip-path="url(#clip630)" d="M128.159 1717.97 Q124.548 1717.97 122.719 1721.53 Q120.913 1725.07 120.913 1732.2 Q120.913 1739.31 122.719 1742.87 Q124.548 1746.42 128.159 1746.42 Q131.793 1746.42 133.599 1742.87 Q135.427 1739.31 135.427 1732.2 Q135.427 1725.07 133.599 1721.53 Q131.793 1717.97 128.159 1717.97 M128.159 1714.26 Q133.969 1714.26 137.025 1718.87 Q140.103 1723.45 140.103 1732.2 Q140.103 1740.93 137.025 1745.54 Q133.969 1750.12 128.159 1750.12 Q122.349 1750.12 119.27 1745.54 Q116.214 1740.93 116.214 1732.2 Q116.214 1723.45 119.27 1718.87 Q122.349 1714.26 128.159 1714.26 Z" fill="#000000" fill-rule="nonzero" fill-opacity="1" /><path clip-path="url(#clip630)" d="M148.321 1743.57 L153.205 1743.57 L153.205 1749.45 L148.321 1749.45 L148.321 1743.57 Z" fill="#000000" fill-rule="nonzero" fill-opacity="1" /><path clip-path="url(#clip630)" d="M173.39 1717.97 Q169.779 1717.97 167.95 1721.53 Q166.145 1725.07 166.145 1732.2 Q166.145 1739.31 167.95 1742.87 Q169.779 1746.42 173.39 1746.42 Q177.024 1746.42 178.83 1742.87 Q180.659 1739.31 180.659 1732.2 Q180.659 1725.07 178.83 1721.53 Q177.024 1717.97 173.39 1717.97 M173.39 1714.26 Q179.2 1714.26 182.256 1718.87 Q185.334 1723.45 185.334 1732.2 Q185.334 1740.93 182.256 1745.54 Q179.2 1750.12 173.39 1750.12 Q167.58 1750.12 164.501 1745.54 Q161.446 1740.93 161.446 1732.2 Q161.446 1723.45 164.501 1718.87 Q167.58 1714.26 173.39 1714.26 Z" fill="#000000" fill-rule="nonzero" fill-opacity="1" /><path clip-path="url(#clip630)" d="M129.154 1419.01 Q125.543 1419.01 123.714 1422.57 Q121.909 1426.11 121.909 1433.24 Q121.909 1440.35 123.714 1443.91 Q125.543 1447.46 129.154 1447.46 Q132.788 1447.46 134.594 1443.91 Q136.423 1440.35 136.423 1433.24 Q136.423 1426.11 134.594 1422.57 Q132.788 1419.01 129.154 1419.01 M129.154 1415.3 Q134.964 1415.3 138.02 1419.91 Q141.099 1424.49 141.099 1433.24 Q141.099 1441.97 138.02 1446.58 Q134.964 1451.16 129.154 1451.16 Q123.344 1451.16 120.265 1446.58 Q117.21 1441.97 117.21 1433.24 Q117.21 1424.49 120.265 1419.91 Q123.344 1415.3 129.154 1415.3 Z" fill="#000000" fill-rule="nonzero" fill-opacity="1" /><path clip-path="url(#clip630)" d="M149.316 1444.61 L154.2 1444.61 L154.2 1450.49 L149.316 1450.49 L149.316 1444.61 Z" fill="#000000" fill-rule="nonzero" fill-opacity="1" /><path clip-path="url(#clip630)" d="M164.432 1415.93 L182.788 1415.93 L182.788 1419.86 L168.714 1419.86 L168.714 1428.34 Q169.733 1427.99 170.751 1427.83 Q171.77 1427.64 172.788 1427.64 Q178.575 1427.64 181.955 1430.81 Q185.334 1433.98 185.334 1439.4 Q185.334 1444.98 181.862 1448.08 Q178.39 1451.16 172.071 1451.16 Q169.895 1451.16 167.626 1450.79 Q165.381 1450.42 162.973 1449.68 L162.973 1444.98 Q165.057 1446.11 167.279 1446.67 Q169.501 1447.22 171.978 1447.22 Q175.983 1447.22 178.321 1445.12 Q180.659 1443.01 180.659 1439.4 Q180.659 1435.79 178.321 1433.68 Q175.983 1431.58 171.978 1431.58 Q170.103 1431.58 168.228 1431.99 Q166.376 1432.41 164.432 1433.29 L164.432 1415.93 Z" fill="#000000" fill-rule="nonzero" fill-opacity="1" /><path clip-path="url(#clip630)" d="M118.969 1147.59 L126.608 1147.59 L126.608 1121.23 L118.298 1122.89 L118.298 1118.64 L126.562 1116.97 L131.238 1116.97 L131.238 1147.59 L138.876 1147.59 L138.876 1151.53 L118.969 1151.53 L118.969 1147.59 Z" fill="#000000" fill-rule="nonzero" fill-opacity="1" /><path clip-path="url(#clip630)" d="M148.321 1145.65 L153.205 1145.65 L153.205 1151.53 L148.321 1151.53 L148.321 1145.65 Z" fill="#000000" fill-rule="nonzero" fill-opacity="1" /><path clip-path="url(#clip630)" d="M173.39 1120.05 Q169.779 1120.05 167.95 1123.61 Q166.145 1127.15 166.145 1134.28 Q166.145 1141.39 167.95 1144.95 Q169.779 1148.5 173.39 1148.5 Q177.024 1148.5 178.83 1144.95 Q180.659 1141.39 180.659 1134.28 Q180.659 1127.15 178.83 1123.61 Q177.024 1120.05 173.39 1120.05 M173.39 1116.34 Q179.2 1116.34 182.256 1120.95 Q185.334 1125.53 185.334 1134.28 Q185.334 1143.01 182.256 1147.62 Q179.2 1152.2 173.39 1152.2 Q167.58 1152.2 164.501 1147.62 Q161.446 1143.01 161.446 1134.28 Q161.446 1125.53 164.501 1120.95 Q167.58 1116.34 173.39 1116.34 Z" fill="#000000" fill-rule="nonzero" fill-opacity="1" /><path clip-path="url(#clip630)" d="M119.964 848.634 L127.603 848.634 L127.603 822.268 L119.293 823.935 L119.293 819.676 L127.557 818.009 L132.233 818.009 L132.233 848.634 L139.872 848.634 L139.872 852.569 L119.964 852.569 L119.964 848.634 Z" fill="#000000" fill-rule="nonzero" fill-opacity="1" /><path clip-path="url(#clip630)" d="M149.316 846.69 L154.2 846.69 L154.2 852.569 L149.316 852.569 L149.316 846.69 Z" fill="#000000" fill-rule="nonzero" fill-opacity="1" /><path clip-path="url(#clip630)" d="M164.432 818.009 L182.788 818.009 L182.788 821.944 L168.714 821.944 L168.714 830.417 Q169.733 830.069 170.751 829.907 Q171.77 829.722 172.788 829.722 Q178.575 829.722 181.955 832.893 Q185.334 836.065 185.334 841.481 Q185.334 847.06 181.862 850.162 Q178.39 853.24 172.071 853.24 Q169.895 853.24 167.626 852.87 Q165.381 852.5 162.973 851.759 L162.973 847.06 Q165.057 848.194 167.279 848.75 Q169.501 849.305 171.978 849.305 Q175.983 849.305 178.321 847.199 Q180.659 845.092 180.659 841.481 Q180.659 837.87 178.321 835.764 Q175.983 833.657 171.978 833.657 Q170.103 833.657 168.228 834.074 Q166.376 834.491 164.432 835.37 L164.432 818.009 Z" fill="#000000" fill-rule="nonzero" fill-opacity="1" /><path clip-path="url(#clip630)" d="M122.187 549.674 L138.506 549.674 L138.506 553.61 L116.562 553.61 L116.562 549.674 Q119.224 546.92 123.807 542.29 Q128.413 537.637 129.594 536.295 Q131.839 533.772 132.719 532.036 Q133.622 530.276 133.622 528.587 Q133.622 525.832 131.677 524.096 Q129.756 522.36 126.654 522.36 Q124.455 522.36 122.001 523.124 Q119.571 523.887 116.793 525.438 L116.793 520.716 Q119.617 519.582 122.071 519.003 Q124.525 518.425 126.562 518.425 Q131.932 518.425 135.126 521.11 Q138.321 523.795 138.321 528.286 Q138.321 530.415 137.511 532.337 Q136.724 534.235 134.617 536.827 Q134.038 537.499 130.937 540.716 Q127.835 543.911 122.187 549.674 Z" fill="#000000" fill-rule="nonzero" fill-opacity="1" /><path clip-path="url(#clip630)" d="M148.321 547.73 L153.205 547.73 L153.205 553.61 L148.321 553.61 L148.321 547.73 Z" fill="#000000" fill-rule="nonzero" fill-opacity="1" /><path clip-path="url(#clip630)" d="M173.39 522.128 Q169.779 522.128 167.95 525.693 Q166.145 529.235 166.145 536.364 Q166.145 543.471 167.95 547.035 Q169.779 550.577 173.39 550.577 Q177.024 550.577 178.83 547.035 Q180.659 543.471 180.659 536.364 Q180.659 529.235 178.83 525.693 Q177.024 522.128 173.39 522.128 M173.39 518.425 Q179.2 518.425 182.256 523.031 Q185.334 527.614 185.334 536.364 Q185.334 545.091 182.256 549.698 Q179.2 554.281 173.39 554.281 Q167.58 554.281 164.501 549.698 Q161.446 545.091 161.446 536.364 Q161.446 527.614 164.501 523.031 Q167.58 518.425 173.39 518.425 Z" fill="#000000" fill-rule="nonzero" fill-opacity="1" /><path clip-path="url(#clip630)" d="M123.182 250.715 L139.501 250.715 L139.501 254.65 L117.557 254.65 L117.557 250.715 Q120.219 247.96 124.802 243.331 Q129.409 238.678 130.589 237.335 Q132.835 234.812 133.714 233.076 Q134.617 231.317 134.617 229.627 Q134.617 226.872 132.673 225.136 Q130.751 223.4 127.65 223.4 Q125.451 223.4 122.997 224.164 Q120.566 224.928 117.789 226.479 L117.789 221.757 Q120.613 220.622 123.066 220.044 Q125.52 219.465 127.557 219.465 Q132.927 219.465 136.122 222.15 Q139.316 224.835 139.316 229.326 Q139.316 231.456 138.506 233.377 Q137.719 235.275 135.612 237.868 Q135.034 238.539 131.932 241.756 Q128.83 244.951 123.182 250.715 Z" fill="#000000" fill-rule="nonzero" fill-opacity="1" /><path clip-path="url(#clip630)" d="M149.316 248.77 L154.2 248.77 L154.2 254.65 L149.316 254.65 L149.316 248.77 Z" fill="#000000" fill-rule="nonzero" fill-opacity="1" /><path clip-path="url(#clip630)" d="M164.432 220.09 L182.788 220.09 L182.788 224.025 L168.714 224.025 L168.714 232.497 Q169.733 232.15 170.751 231.988 Q171.77 231.803 172.788 231.803 Q178.575 231.803 181.955 234.974 Q185.334 238.145 185.334 243.562 Q185.334 249.141 181.862 252.242 Q178.39 255.321 172.071 255.321 Q169.895 255.321 167.626 254.951 Q165.381 254.58 162.973 253.84 L162.973 249.141 Q165.057 250.275 167.279 250.83 Q169.501 251.386 171.978 251.386 Q175.983 251.386 178.321 249.28 Q180.659 247.173 180.659 243.562 Q180.659 239.951 178.321 237.844 Q175.983 235.738 171.978 235.738 Q170.103 235.738 168.228 236.155 Q166.376 236.571 164.432 237.451 L164.432 220.09 Z" fill="#000000" fill-rule="nonzero" fill-opacity="1" /><path clip-path="url(#clip630)" d="M14.1184 1198.76 L14.1184 1190.1 L53.8723 1169.03 L14.1184 1169.03 L14.1184 1162.79 L61.6384 1162.79 L61.6384 1171.45 L21.8846 1192.52 L61.6384 1192.52 L61.6384 1198.76 L14.1184 1198.76 Z" fill="#000000" fill-rule="nonzero" fill-opacity="1" /><path clip-path="url(#clip630)" d="M47.5702 1150.86 L25.9905 1150.86 L25.9905 1145 L47.3474 1145 Q52.4082 1145 54.9545 1143.03 Q57.4689 1141.05 57.4689 1137.11 Q57.4689 1132.37 54.4452 1129.63 Q51.4215 1126.86 46.2016 1126.86 L25.9905 1126.86 L25.9905 1121 L61.6384 1121 L61.6384 1126.86 L56.1639 1126.86 Q59.4104 1128.99 61.0019 1131.82 Q62.5615 1134.63 62.5615 1138.35 Q62.5615 1144.49 58.742 1147.68 Q54.9226 1150.86 47.5702 1150.86 M25.1311 1136.12 L25.1311 1136.12 Z" fill="#000000" fill-rule="nonzero" fill-opacity="1" /><path clip-path="url(#clip630)" d="M32.8336 1081.19 Q28.8869 1078.99 27.009 1075.93 Q25.1311 1072.88 25.1311 1068.74 Q25.1311 1063.17 29.046 1060.15 Q32.9291 1057.12 40.1224 1057.12 L61.6384 1057.12 L61.6384 1063.01 L40.3133 1063.01 Q35.1889 1063.01 32.7063 1064.83 Q30.2237 1066.64 30.2237 1070.36 Q30.2237 1074.92 33.2474 1077.56 Q36.2711 1080.2 41.491 1080.2 L61.6384 1080.2 L61.6384 1086.09 L40.3133 1086.09 Q35.1571 1086.09 32.7063 1087.9 Q30.2237 1089.72 30.2237 1093.5 Q30.2237 1097.99 33.2792 1100.63 Q36.3029 1103.27 41.491 1103.27 L61.6384 1103.27 L61.6384 1109.16 L25.9905 1109.16 L25.9905 1103.27 L31.5287 1103.27 Q28.2503 1101.27 26.6907 1098.47 Q25.1311 1095.67 25.1311 1091.82 Q25.1311 1087.93 27.1045 1085.23 Q29.0779 1082.49 32.8336 1081.19 Z" fill="#000000" fill-rule="nonzero" fill-opacity="1" /><path clip-path="url(#clip630)" d="M43.8463 1019.85 Q37.3851 1019.85 33.7248 1022.53 Q30.0327 1025.17 30.0327 1029.81 Q30.0327 1034.46 33.7248 1037.13 Q37.3851 1039.78 43.8463 1039.78 Q50.3075 1039.78 53.9996 1037.13 Q57.6599 1034.46 57.6599 1029.81 Q57.6599 1025.17 53.9996 1022.53 Q50.3075 1019.85 43.8463 1019.85 M31.4013 1039.78 Q28.2185 1037.93 26.6907 1035.13 Q25.1311 1032.3 25.1311 1028.38 Q25.1311 1021.89 30.2873 1017.85 Q35.4436 1013.77 43.8463 1013.77 Q52.249 1013.77 57.4052 1017.85 Q62.5615 1021.89 62.5615 1028.38 Q62.5615 1032.3 61.0337 1035.13 Q59.4741 1037.93 56.2912 1039.78 L61.6384 1039.78 L61.6384 1045.66 L12.1132 1045.66 L12.1132 1039.78 L31.4013 1039.78 Z" fill="#000000" fill-rule="nonzero" fill-opacity="1" /><path clip-path="url(#clip630)" d="M42.3504 973.573 L45.2149 973.573 L45.2149 1000.5 Q51.2623 1000.12 54.4452 996.871 Q57.5962 993.593 57.5962 987.768 Q57.5962 984.395 56.7687 981.244 Q55.9411 978.061 54.2861 974.942 L59.8242 974.942 Q61.161 978.093 61.8612 981.403 Q62.5615 984.713 62.5615 988.119 Q62.5615 996.649 57.5962 1001.65 Q52.631 1006.61 44.1646 1006.61 Q35.4117 1006.61 30.2873 1001.9 Q25.1311 997.158 25.1311 989.137 Q25.1311 981.944 29.7781 977.774 Q34.3932 973.573 42.3504 973.573 M40.6316 979.429 Q35.8255 979.493 32.9609 982.135 Q30.0964 984.745 30.0964 989.073 Q30.0964 993.975 32.8654 996.935 Q35.6345 999.863 40.6634 1000.31 L40.6316 979.429 Z" fill="#000000" fill-rule="nonzero" fill-opacity="1" /><path clip-path="url(#clip630)" d="M31.465 943.304 Q30.8921 944.291 30.6375 945.468 Q30.351 946.614 30.351 948.015 Q30.351 952.98 33.5975 955.653 Q36.8122 958.295 42.8596 958.295 L61.6384 958.295 L61.6384 964.184 L25.9905 964.184 L25.9905 958.295 L31.5287 958.295 Q28.2821 956.449 26.7225 953.489 Q25.1311 950.529 25.1311 946.296 Q25.1311 945.691 25.2266 944.959 Q25.2903 944.227 25.4494 943.336 L31.465 943.304 Z" fill="#000000" fill-rule="nonzero" fill-opacity="1" /><path clip-path="url(#clip630)" d="M25.9905 916.441 L25.9905 910.584 L61.6384 910.584 L61.6384 916.441 L25.9905 916.441 M12.1132 916.441 L12.1132 910.584 L19.5293 910.584 L19.5293 916.441 L12.1132 916.441 Z" fill="#000000" fill-rule="nonzero" fill-opacity="1" /><path clip-path="url(#clip630)" d="M40.1224 868.698 L61.6384 868.698 L61.6384 874.554 L40.3133 874.554 Q35.2526 874.554 32.7381 876.528 Q30.2237 878.501 30.2237 882.448 Q30.2237 887.19 33.2474 889.928 Q36.2711 892.665 41.491 892.665 L61.6384 892.665 L61.6384 898.553 L25.9905 898.553 L25.9905 892.665 L31.5287 892.665 Q28.314 890.564 26.7225 887.731 Q25.1311 884.867 25.1311 881.143 Q25.1311 875 28.9505 871.849 Q32.7381 868.698 40.1224 868.698 Z" fill="#000000" fill-rule="nonzero" fill-opacity="1" /><path clip-path="url(#clip630)" d="M12.1132 838.97 L16.983 838.97 L16.983 844.572 Q16.983 847.723 18.2562 848.964 Q19.5293 850.174 22.8395 850.174 L25.9905 850.174 L25.9905 840.53 L30.542 840.53 L30.542 850.174 L61.6384 850.174 L61.6384 856.062 L30.542 856.062 L30.542 861.664 L25.9905 861.664 L25.9905 856.062 L23.5079 856.062 Q17.5559 856.062 14.8505 853.293 Q12.1132 850.524 12.1132 844.508 L12.1132 838.97 Z" fill="#000000" fill-rule="nonzero" fill-opacity="1" /><path clip-path="url(#clip630)" d="M42.3504 803.577 L45.2149 803.577 L45.2149 830.504 Q51.2623 830.122 54.4452 826.875 Q57.5962 823.597 57.5962 817.772 Q57.5962 814.398 56.7687 811.247 Q55.9411 808.065 54.2861 804.945 L59.8242 804.945 Q61.161 808.096 61.8612 811.407 Q62.5615 814.717 62.5615 818.122 Q62.5615 826.652 57.5962 831.65 Q52.631 836.615 44.1646 836.615 Q35.4117 836.615 30.2873 831.904 Q25.1311 827.162 25.1311 819.141 Q25.1311 811.948 29.7781 807.778 Q34.3932 803.577 42.3504 803.577 M40.6316 809.433 Q35.8255 809.497 32.9609 812.139 Q30.0964 814.749 30.0964 819.077 Q30.0964 823.979 32.8654 826.939 Q35.6345 829.867 40.6634 830.313 L40.6316 809.433 Z" fill="#000000" fill-rule="nonzero" fill-opacity="1" /><path clip-path="url(#clip630)" d="M27.3591 768.311 L32.8336 768.311 Q31.465 770.793 30.7966 773.308 Q30.0964 775.79 30.0964 778.337 Q30.0964 784.034 33.7248 787.185 Q37.3214 790.336 43.8463 790.336 Q50.3711 790.336 53.9996 787.185 Q57.5962 784.034 57.5962 778.337 Q57.5962 775.79 56.9278 773.308 Q56.2276 770.793 54.859 768.311 L60.2698 768.311 Q61.4156 770.762 61.9886 773.403 Q62.5615 776.013 62.5615 778.973 Q62.5615 787.026 57.5007 791.768 Q52.44 796.511 43.8463 796.511 Q35.1253 796.511 30.1282 791.737 Q25.1311 786.93 25.1311 778.591 Q25.1311 775.886 25.704 773.308 Q26.2451 770.73 27.3591 768.311 Z" fill="#000000" fill-rule="nonzero" fill-opacity="1" /><path clip-path="url(#clip630)" d="M15.869 752.333 L25.9905 752.333 L25.9905 740.27 L30.542 740.27 L30.542 752.333 L49.8937 752.333 Q54.2542 752.333 55.4955 751.155 Q56.7368 749.946 56.7368 746.285 L56.7368 740.27 L61.6384 740.27 L61.6384 746.285 Q61.6384 753.065 59.124 755.643 Q56.5777 758.221 49.8937 758.221 L30.542 758.221 L30.542 762.518 L25.9905 762.518 L25.9905 758.221 L15.869 758.221 L15.869 752.333 Z" fill="#000000" fill-rule="nonzero" fill-opacity="1" /><path clip-path="url(#clip630)" d="M42.3504 702.076 L45.2149 702.076 L45.2149 729.003 Q51.2623 728.621 54.4452 725.374 Q57.5962 722.096 57.5962 716.271 Q57.5962 712.897 56.7687 709.746 Q55.9411 706.563 54.2861 703.444 L59.8242 703.444 Q61.161 706.595 61.8612 709.905 Q62.5615 713.216 62.5615 716.621 Q62.5615 725.151 57.5962 730.148 Q52.631 735.114 44.1646 735.114 Q35.4117 735.114 30.2873 730.403 Q25.1311 725.661 25.1311 717.64 Q25.1311 710.446 29.7781 706.277 Q34.3932 702.076 42.3504 702.076 M40.6316 707.932 Q35.8255 707.996 32.9609 710.637 Q30.0964 713.247 30.0964 717.576 Q30.0964 722.478 32.8654 725.438 Q35.6345 728.366 40.6634 728.812 L40.6316 707.932 Z" fill="#000000" fill-rule="nonzero" fill-opacity="1" /><path clip-path="url(#clip630)" d="M31.4013 669.006 L12.1132 669.006 L12.1132 663.149 L61.6384 663.149 L61.6384 669.006 L56.2912 669.006 Q59.4741 670.852 61.0337 673.685 Q62.5615 676.485 62.5615 680.432 Q62.5615 686.893 57.4052 690.967 Q52.249 695.01 43.8463 695.01 Q35.4436 695.01 30.2873 690.967 Q25.1311 686.893 25.1311 680.432 Q25.1311 676.485 26.6907 673.685 Q28.2185 670.852 31.4013 669.006 M43.8463 688.962 Q50.3075 688.962 53.9996 686.32 Q57.6599 683.647 57.6599 679 Q57.6599 674.353 53.9996 671.679 Q50.3075 669.006 43.8463 669.006 Q37.3851 669.006 33.7248 671.679 Q30.0327 674.353 30.0327 679 Q30.0327 683.647 33.7248 686.32 Q37.3851 688.962 43.8463 688.962 Z" fill="#000000" fill-rule="nonzero" fill-opacity="1" /><path clip-path="url(#clip630)" d="M1006.36 12.096 L1057.52 12.096 L1057.52 18.9825 L1036.05 18.9825 L1036.05 72.576 L1027.83 72.576 L1027.83 18.9825 L1006.36 18.9825 L1006.36 12.096 Z" fill="#000000" fill-rule="nonzero" fill-opacity="1" /><path clip-path="url(#clip630)" d="M1079.2 34.1734 Q1077.94 33.4443 1076.44 33.1202 Q1074.98 32.7556 1073.2 32.7556 Q1066.88 32.7556 1063.48 36.8875 Q1060.12 40.9789 1060.12 48.6757 L1060.12 72.576 L1052.62 72.576 L1052.62 27.2059 L1060.12 27.2059 L1060.12 34.2544 Q1062.47 30.1225 1066.23 28.1376 Q1070 26.1121 1075.39 26.1121 Q1076.16 26.1121 1077.09 26.2337 Q1078.02 26.3147 1079.16 26.5172 L1079.2 34.1734 Z" fill="#000000" fill-rule="nonzero" fill-opacity="1" /><path clip-path="url(#clip630)" d="M1124 48.0275 L1124 51.6733 L1089.73 51.6733 Q1090.22 59.3701 1094.35 63.421 Q1098.52 67.4314 1105.93 67.4314 Q1110.23 67.4314 1114.24 66.3781 Q1118.29 65.3249 1122.26 63.2184 L1122.26 70.267 Q1118.25 71.9684 1114.03 72.8596 Q1109.82 73.7508 1105.49 73.7508 Q1094.63 73.7508 1088.27 67.4314 Q1081.95 61.1119 1081.95 50.3365 Q1081.95 39.1965 1087.95 32.6746 Q1093.98 26.1121 1104.19 26.1121 Q1113.35 26.1121 1118.65 32.0264 Q1124 37.9003 1124 48.0275 M1116.55 45.84 Q1116.46 39.7232 1113.1 36.0774 Q1109.78 32.4315 1104.27 32.4315 Q1098.03 32.4315 1094.27 35.9558 Q1090.54 39.4801 1089.97 45.8805 L1116.55 45.84 Z" fill="#000000" fill-rule="nonzero" fill-opacity="1" /><path clip-path="url(#clip630)" d="M1175.04 48.0275 L1175.04 51.6733 L1140.77 51.6733 Q1141.26 59.3701 1145.39 63.421 Q1149.56 67.4314 1156.97 67.4314 Q1161.27 67.4314 1165.28 66.3781 Q1169.33 65.3249 1173.3 63.2184 L1173.3 70.267 Q1169.29 71.9684 1165.08 72.8596 Q1160.86 73.7508 1156.53 73.7508 Q1145.67 73.7508 1139.31 67.4314 Q1132.99 61.1119 1132.99 50.3365 Q1132.99 39.1965 1138.99 32.6746 Q1145.02 26.1121 1155.23 26.1121 Q1164.39 26.1121 1169.69 32.0264 Q1175.04 37.9003 1175.04 48.0275 M1167.59 45.84 Q1167.51 39.7232 1164.14 36.0774 Q1160.82 32.4315 1155.31 32.4315 Q1149.07 32.4315 1145.31 35.9558 Q1141.58 39.4801 1141.01 45.8805 L1167.59 45.84 Z" fill="#000000" fill-rule="nonzero" fill-opacity="1" /><path clip-path="url(#clip630)" d="M1208.3 27.2059 L1216.2 27.2059 L1230.38 65.2844 L1244.55 27.2059 L1252.45 27.2059 L1235.44 72.576 L1225.31 72.576 L1208.3 27.2059 Z" fill="#000000" fill-rule="nonzero" fill-opacity="1" /><path clip-path="url(#clip630)" d="M1291.67 28.5427 L1291.67 35.5912 Q1288.51 33.9709 1285.1 33.1607 Q1281.7 32.3505 1278.06 32.3505 Q1272.51 32.3505 1269.71 34.0519 Q1266.96 35.7533 1266.96 39.156 Q1266.96 41.7486 1268.94 43.2475 Q1270.93 44.7058 1276.92 46.0426 L1279.47 46.6097 Q1287.41 48.3111 1290.73 51.4303 Q1294.1 54.509 1294.1 60.0587 Q1294.1 66.3781 1289.07 70.0644 Q1284.09 73.7508 1275.34 73.7508 Q1271.7 73.7508 1267.73 73.0216 Q1263.8 72.3329 1259.42 70.9151 L1259.42 63.2184 Q1263.55 65.3654 1267.56 66.4591 Q1271.57 67.5124 1275.5 67.5124 Q1280.77 67.5124 1283.61 65.73 Q1286.44 63.9071 1286.44 60.6258 Q1286.44 57.5877 1284.37 55.9673 Q1282.35 54.3469 1275.42 52.8481 L1272.83 52.2405 Q1265.9 50.7821 1262.82 47.7845 Q1259.75 44.7463 1259.75 39.4801 Q1259.75 33.0797 1264.28 29.5959 Q1268.82 26.1121 1277.16 26.1121 Q1281.3 26.1121 1284.94 26.7198 Q1288.59 27.3274 1291.67 28.5427 Z" fill="#000000" fill-rule="nonzero" fill-opacity="1" /><path clip-path="url(#clip630)" d="M1364.99 28.9478 L1364.99 35.9153 Q1361.83 34.1734 1358.63 33.3227 Q1355.47 32.4315 1352.23 32.4315 Q1344.98 32.4315 1340.97 37.0496 Q1336.96 41.6271 1336.96 49.9314 Q1336.96 58.2358 1340.97 62.8538 Q1344.98 67.4314 1352.23 67.4314 Q1355.47 67.4314 1358.63 66.5807 Q1361.83 65.6895 1364.99 63.9476 L1364.99 70.8341 Q1361.87 72.2924 1358.51 73.0216 Q1355.18 73.7508 1351.42 73.7508 Q1341.17 73.7508 1335.13 67.3098 Q1329.1 60.8689 1329.1 49.9314 Q1329.1 38.832 1335.17 32.472 Q1341.29 26.1121 1351.9 26.1121 Q1355.35 26.1121 1358.63 26.8413 Q1361.91 27.5299 1364.99 28.9478 Z" fill="#000000" fill-rule="nonzero" fill-opacity="1" /><path clip-path="url(#clip630)" d="M1396.83 76.7889 Q1393.67 84.8907 1390.67 87.3618 Q1387.67 89.8329 1382.65 89.8329 L1376.7 89.8329 L1376.7 83.5945 L1381.07 83.5945 Q1384.15 83.5945 1385.85 82.1361 Q1387.55 80.6778 1389.62 75.2496 L1390.95 71.8468 L1372.6 27.2059 L1380.5 27.2059 L1394.68 62.6918 L1408.86 27.2059 L1416.76 27.2059 L1396.83 76.7889 Z" fill="#000000" fill-rule="nonzero" fill-opacity="1" /><path clip-path="url(#clip630)" d="M1459.7 28.9478 L1459.7 35.9153 Q1456.54 34.1734 1453.34 33.3227 Q1450.18 32.4315 1446.94 32.4315 Q1439.69 32.4315 1435.68 37.0496 Q1431.67 41.6271 1431.67 49.9314 Q1431.67 58.2358 1435.68 62.8538 Q1439.69 67.4314 1446.94 67.4314 Q1450.18 67.4314 1453.34 66.5807 Q1456.54 65.6895 1459.7 63.9476 L1459.7 70.8341 Q1456.58 72.2924 1453.22 73.0216 Q1449.89 73.7508 1446.13 73.7508 Q1435.88 73.7508 1429.84 67.3098 Q1423.81 60.8689 1423.81 49.9314 Q1423.81 38.832 1429.88 32.472 Q1436 26.1121 1446.61 26.1121 Q1450.06 26.1121 1453.34 26.8413 Q1456.62 27.5299 1459.7 28.9478 Z" fill="#000000" fill-rule="nonzero" fill-opacity="1" /><path clip-path="url(#clip630)" d="M1472.66 9.54393 L1480.11 9.54393 L1480.11 72.576 L1472.66 72.576 L1472.66 9.54393 Z" fill="#000000" fill-rule="nonzero" fill-opacity="1" /><path clip-path="url(#clip630)" d="M1534.52 48.0275 L1534.52 51.6733 L1500.25 51.6733 Q1500.73 59.3701 1504.87 63.421 Q1509.04 67.4314 1516.45 67.4314 Q1520.75 67.4314 1524.76 66.3781 Q1528.81 65.3249 1532.78 63.2184 L1532.78 70.267 Q1528.77 71.9684 1524.55 72.8596 Q1520.34 73.7508 1516.01 73.7508 Q1505.15 73.7508 1498.79 67.4314 Q1492.47 61.1119 1492.47 50.3365 Q1492.47 39.1965 1498.47 32.6746 Q1504.5 26.1121 1514.71 26.1121 Q1523.86 26.1121 1529.17 32.0264 Q1534.52 37.9003 1534.52 48.0275 M1527.06 45.84 Q1526.98 39.7232 1523.62 36.0774 Q1520.3 32.4315 1514.79 32.4315 Q1508.55 32.4315 1504.78 35.9558 Q1501.06 39.4801 1500.49 45.8805 L1527.06 45.84 Z" fill="#000000" fill-rule="nonzero" fill-opacity="1" /><path clip-path="url(#clip630)" d="M1591.03 9.62495 Q1585.6 18.942 1582.97 28.0566 Q1580.33 37.1711 1580.33 46.5287 Q1580.33 55.8863 1582.97 65.0818 Q1585.64 74.2369 1591.03 83.5134 L1584.55 83.5134 Q1578.47 73.9938 1575.43 64.7983 Q1572.43 55.6027 1572.43 46.5287 Q1572.43 37.4952 1575.43 28.3401 Q1578.43 19.1851 1584.55 9.62495 L1591.03 9.62495 Z" fill="#000000" fill-rule="nonzero" fill-opacity="1" /><path clip-path="url(#clip630)" d="M1605.81 12.096 L1616.83 12.096 L1643.65 62.6918 L1643.65 12.096 L1651.59 12.096 L1651.59 72.576 L1640.57 72.576 L1613.75 21.9802 L1613.75 72.576 L1605.81 72.576 L1605.81 12.096 Z" fill="#000000" fill-rule="nonzero" fill-opacity="1" /><path clip-path="url(#clip630)" d="M1668.52 34.9026 L1720.45 34.9026 L1720.45 41.7081 L1668.52 41.7081 L1668.52 34.9026 M1668.52 51.4303 L1720.45 51.4303 L1720.45 58.3168 L1668.52 58.3168 L1668.52 51.4303 Z" fill="#000000" fill-rule="nonzero" fill-opacity="1" /><path clip-path="url(#clip630)" d="M1762.91 39.9662 Q1768.78 41.222 1772.06 45.1919 Q1775.39 49.1618 1775.39 54.9951 Q1775.39 63.9476 1769.23 68.8492 Q1763.07 73.7508 1751.73 73.7508 Q1747.92 73.7508 1743.87 72.9811 Q1739.86 72.2519 1735.56 70.7531 L1735.56 62.8538 Q1738.97 64.8388 1743.02 65.8515 Q1747.07 66.8642 1751.48 66.8642 Q1759.18 66.8642 1763.19 63.826 Q1767.24 60.7879 1767.24 54.9951 Q1767.24 49.6479 1763.48 46.6502 Q1759.75 43.612 1753.06 43.612 L1746.02 43.612 L1746.02 36.8875 L1753.39 36.8875 Q1759.42 36.8875 1762.62 34.4975 Q1765.82 32.067 1765.82 27.5299 Q1765.82 22.8714 1762.5 20.4004 Q1759.22 17.8888 1753.06 17.8888 Q1749.7 17.8888 1745.85 18.618 Q1742.01 19.3471 1737.39 20.8865 L1737.39 13.5948 Q1742.05 12.2985 1746.1 11.6504 Q1750.19 11.0023 1753.79 11.0023 Q1763.11 11.0023 1768.54 15.2557 Q1773.97 19.4686 1773.97 26.6793 Q1773.97 31.7024 1771.09 35.1862 Q1768.21 38.6294 1762.91 39.9662 Z" fill="#000000" fill-rule="nonzero" fill-opacity="1" /><path clip-path="url(#clip630)" d="M1808.4 17.4837 Q1802.08 17.4837 1798.88 23.7221 Q1795.72 29.92 1795.72 42.3968 Q1795.72 54.833 1798.88 61.0714 Q1802.08 67.2693 1808.4 67.2693 Q1814.76 67.2693 1817.92 61.0714 Q1821.12 54.833 1821.12 42.3968 Q1821.12 29.92 1817.92 23.7221 Q1814.76 17.4837 1808.4 17.4837 M1808.4 11.0023 Q1818.57 11.0023 1823.91 19.0636 Q1829.3 27.0843 1829.3 42.3968 Q1829.3 57.6687 1823.91 65.73 Q1818.57 73.7508 1808.4 73.7508 Q1798.23 73.7508 1792.84 65.73 Q1787.5 57.6687 1787.5 42.3968 Q1787.5 27.0843 1792.84 19.0636 Q1798.23 11.0023 1808.4 11.0023 Z" fill="#000000" fill-rule="nonzero" fill-opacity="1" /><path clip-path="url(#clip630)" d="M1841.46 9.62495 L1847.94 9.62495 Q1854.01 19.1851 1857.01 28.3401 Q1860.05 37.4952 1860.05 46.5287 Q1860.05 55.6027 1857.01 64.7983 Q1854.01 73.9938 1847.94 83.5134 L1841.46 83.5134 Q1846.84 74.2369 1849.48 65.0818 Q1852.15 55.8863 1852.15 46.5287 Q1852.15 37.1711 1849.48 28.0566 Q1846.84 18.942 1841.46 9.62495 Z" fill="#000000" fill-rule="nonzero" fill-opacity="1" /><polyline clip-path="url(#clip631)" style="stroke:#228b22; stroke-linecap:round; stroke-linejoin:round; stroke-width:8; stroke-opacity:1; fill:none" points="294.006,1134.25 312.993,998.575 331.98,886.51 350.966,793.125 369.953,714.637 388.94,648.134 407.926,591.367 426.913,542.598 445.9,500.485 464.886,463.995 483.873,432.337 502.859,404.91 521.846,381.267 540.833,361.067 559.819,344.064 578.806,330.08 597.793,318.973 616.779,310.643 635.766,305.011 654.753,302.001 673.739,301.54 692.726,303.562 711.713,307.991 730.699,314.738 749.686,323.703 768.673,334.785 787.659,347.869 806.646,362.832 825.632,379.538 844.619,397.853 863.606,417.636 882.592,438.745 901.579,461.038 920.566,484.372 939.552,508.609 958.539,533.614 977.526,559.258 996.512,585.418 1015.5,611.981 1034.49,638.836 1053.47,665.881 1072.46,693.025 1091.45,720.183 1110.43,747.28 1129.42,774.246 1148.41,801.02 1167.39,827.547 1186.38,853.778 1205.37,879.674 1224.35,905.2 1243.34,930.324 1262.33,955.022 1281.31,979.273 1300.3,1003.06 1319.29,1026.37 1338.27,1049.19 1357.26,1071.51 1376.25,1093.33 1395.23,1114.65 1414.22,1135.46 1433.21,1155.77 1452.19,1175.57 1471.18,1194.87 1490.17,1213.67 1509.15,1231.97 1528.14,1249.79 1547.13,1267.12 1566.11,1283.97 1585.1,1300.36 1604.08,1316.27 1623.07,1331.73 1642.06,1346.73 1661.04,1361.29 1680.03,1375.41 1699.02,1389.1 1718,1402.37 1736.99,1415.22 1755.98,1427.67 1774.96,1439.71 1793.95,1451.36 1812.94,1462.63 1831.92,1473.52 1850.91,1484.04 1869.9,1494.21 1888.88,1504.02 1907.87,1513.49 1926.86,1522.62 1945.84,1531.42 1964.83,1539.91 1983.82,1548.08 2002.8,1555.95 2021.79,1563.52 2040.78,1570.81 2059.76,1577.82 2078.75,1584.56 2097.74,1591.03 2116.72,1597.26 2135.71,1603.23 2154.7,1608.96 2173.68,1614.47 2192.67,1619.75 2211.66,1624.81 2230.64,1629.66 2249.63,1634.31 2268.62,1638.76 2287.6,1643.03 2306.59,1647.12 2325.58,1651.03 2344.56,1654.77 2363.55,1658.35 2382.54,1661.77 2401.52,1665.04 2420.51,1668.17 2439.5,1671.16 2458.48,1674.02 2477.47,1676.75 2496.46,1679.36 2515.44,1681.85 2534.43,1684.22 2553.42,1686.49 2572.4,1688.65 "/>
<polyline clip-path="url(#clip631)" style="stroke:#ff7f50; stroke-linecap:round; stroke-linejoin:round; stroke-width:8; stroke-opacity:1; fill:none" points="294.006,1134.25 312.993,992.782 331.98,866.537 350.966,754.364 369.953,655.191 388.94,568.018 407.926,491.91 426.913,425.994 445.9,369.457 464.886,321.542 483.873,281.543 502.859,248.8 521.846,222.701 540.833,202.676 559.819,188.195 578.806,178.764 597.793,173.926 616.779,173.254 635.766,176.355 654.753,182.861 673.739,192.432 692.726,204.756 711.713,219.54 730.699,236.515 749.686,255.431 768.673,276.06 787.659,298.19 806.646,321.625 825.632,346.184 844.619,371.703 863.606,398.03 882.592,425.024 901.579,452.559 920.566,480.517 939.552,508.792 958.539,537.286 977.526,565.911 996.512,594.585 1015.5,623.237 1034.49,651.799 1053.47,680.213 1072.46,708.426 1091.45,736.39 1110.43,764.06 1129.42,791.4 1148.41,818.376 1167.39,844.958 1186.38,871.122 1205.37,896.844 1224.35,922.105 1243.34,946.889 1262.33,971.183 1281.31,994.976 1300.3,1018.26 1319.29,1041.02 1338.27,1063.27 1357.26,1084.99 1376.25,1106.18 1395.23,1126.84 1414.22,1146.98 1433.21,1166.6 1452.19,1185.7 1471.18,1204.28 1490.17,1222.34 1509.15,1239.91 1528.14,1256.97 1547.13,1273.55 1566.11,1289.63 1585.1,1305.25 1604.08,1320.39 1623.07,1335.07 1642.06,1349.31 1661.04,1363.1 1680.03,1376.46 1699.02,1389.39 1718,1401.92 1736.99,1414.04 1755.98,1425.76 1774.96,1437.1 1793.95,1448.07 1812.94,1458.67 1831.92,1468.91 1850.91,1478.81 1869.9,1488.37 1888.88,1497.6 1907.87,1506.52 1926.86,1515.13 1945.84,1523.43 1964.83,1531.45 1983.82,1539.18 2002.8,1546.63 2021.79,1553.82 2040.78,1560.76 2059.76,1567.44 2078.75,1573.88 2097.74,1580.09 2116.72,1586.07 2135.71,1591.83 2154.7,1597.38 2173.68,1602.72 2192.67,1607.86 2211.66,1612.82 2230.64,1617.58 2249.63,1622.17 2268.62,1626.59 2287.6,1630.84 2306.59,1634.92 2325.58,1638.85 2344.56,1642.64 2363.55,1646.27 2382.54,1649.77 2401.52,1653.13 2420.51,1656.36 2439.5,1659.47 2458.48,1662.45 2477.47,1665.32 2496.46,1668.08 2515.44,1670.73 2534.43,1673.27 2553.42,1675.71 2572.4,1678.06 "/>
<path clip-path="url(#clip630)" d="M2194.37 336.856 L2560.25 336.856 L2560.25 181.336 L2194.37 181.336  Z" fill="#ffffff" fill-rule="evenodd" fill-opacity="1"/>
<polyline clip-path="url(#clip630)" style="stroke:#000000; stroke-linecap:round; stroke-linejoin:round; stroke-width:4; stroke-opacity:1; fill:none" points="2194.37,336.856 2560.25,336.856 2560.25,181.336 2194.37,181.336 2194.37,336.856 "/>
<polyline clip-path="url(#clip630)" style="stroke:#228b22; stroke-linecap:round; stroke-linejoin:round; stroke-width:8; stroke-opacity:1; fill:none" points="2221.2,233.176 2382.21,233.176 "/>
<path clip-path="url(#clip630)" d="M2409.04 215.896 L2438.28 215.896 L2438.28 219.831 L2426.01 219.831 L2426.01 250.456 L2421.31 250.456 L2421.31 219.831 L2409.04 219.831 L2409.04 215.896 Z" fill="#000000" fill-rule="nonzero" fill-opacity="1" /><path clip-path="url(#clip630)" d="M2450.66 228.512 Q2449.95 228.095 2449.09 227.91 Q2448.26 227.702 2447.24 227.702 Q2443.63 227.702 2441.68 230.063 Q2439.76 232.401 2439.76 236.799 L2439.76 250.456 L2435.48 250.456 L2435.48 224.531 L2439.76 224.531 L2439.76 228.558 Q2441.1 226.197 2443.26 225.063 Q2445.41 223.906 2448.49 223.906 Q2448.93 223.906 2449.46 223.975 Q2449.99 224.021 2450.64 224.137 L2450.66 228.512 Z" fill="#000000" fill-rule="nonzero" fill-opacity="1" /><path clip-path="url(#clip630)" d="M2476.27 236.429 L2476.27 238.512 L2456.68 238.512 Q2456.96 242.91 2459.32 245.225 Q2461.71 247.516 2465.94 247.516 Q2468.4 247.516 2470.69 246.915 Q2473 246.313 2475.27 245.109 L2475.27 249.137 Q2472.98 250.109 2470.57 250.618 Q2468.16 251.128 2465.69 251.128 Q2459.48 251.128 2455.85 247.516 Q2452.24 243.905 2452.24 237.748 Q2452.24 231.382 2455.66 227.655 Q2459.11 223.906 2464.95 223.906 Q2470.18 223.906 2473.21 227.285 Q2476.27 230.642 2476.27 236.429 M2472.01 235.179 Q2471.96 231.683 2470.04 229.6 Q2468.14 227.517 2464.99 227.517 Q2461.43 227.517 2459.27 229.53 Q2457.15 231.544 2456.82 235.202 L2472.01 235.179 Z" fill="#000000" fill-rule="nonzero" fill-opacity="1" /><path clip-path="url(#clip630)" d="M2505.43 236.429 L2505.43 238.512 L2485.85 238.512 Q2486.13 242.91 2488.49 245.225 Q2490.87 247.516 2495.11 247.516 Q2497.56 247.516 2499.85 246.915 Q2502.17 246.313 2504.44 245.109 L2504.44 249.137 Q2502.15 250.109 2499.74 250.618 Q2497.33 251.128 2494.85 251.128 Q2488.65 251.128 2485.02 247.516 Q2481.4 243.905 2481.4 237.748 Q2481.4 231.382 2484.83 227.655 Q2488.28 223.906 2494.11 223.906 Q2499.34 223.906 2502.38 227.285 Q2505.43 230.642 2505.43 236.429 M2501.17 235.179 Q2501.13 231.683 2499.21 229.6 Q2497.31 227.517 2494.16 227.517 Q2490.59 227.517 2488.44 229.53 Q2486.31 231.544 2485.99 235.202 L2501.17 235.179 Z" fill="#000000" fill-rule="nonzero" fill-opacity="1" /><polyline clip-path="url(#clip630)" style="stroke:#ff7f50; stroke-linecap:round; stroke-linejoin:round; stroke-width:8; stroke-opacity:1; fill:none" points="2221.2,285.016 2382.21,285.016 "/>
<path clip-path="url(#clip630)" d="M2436.91 270.398 L2436.91 275.329 Q2434.55 273.13 2431.87 272.042 Q2429.21 270.954 2426.2 270.954 Q2420.27 270.954 2417.12 274.588 Q2413.97 278.199 2413.97 285.051 Q2413.97 291.88 2417.12 295.514 Q2420.27 299.125 2426.2 299.125 Q2429.21 299.125 2431.87 298.037 Q2434.55 296.949 2436.91 294.75 L2436.91 299.634 Q2434.46 301.301 2431.71 302.134 Q2428.97 302.968 2425.92 302.968 Q2418.07 302.968 2413.56 298.176 Q2409.04 293.361 2409.04 285.051 Q2409.04 276.718 2413.56 271.926 Q2418.07 267.111 2425.92 267.111 Q2429.02 267.111 2431.75 267.945 Q2434.51 268.755 2436.91 270.398 Z" fill="#000000" fill-rule="nonzero" fill-opacity="1" /><path clip-path="url(#clip630)" d="M2454.74 304.704 Q2452.93 309.333 2451.22 310.745 Q2449.51 312.157 2446.64 312.157 L2443.23 312.157 L2443.23 308.593 L2445.73 308.593 Q2447.49 308.593 2448.46 307.759 Q2449.44 306.926 2450.62 303.824 L2451.38 301.88 L2440.9 276.371 L2445.41 276.371 L2453.51 296.648 L2461.61 276.371 L2466.13 276.371 L2454.74 304.704 Z" fill="#000000" fill-rule="nonzero" fill-opacity="1" /><path clip-path="url(#clip630)" d="M2490.66 277.366 L2490.66 281.347 Q2488.86 280.352 2487.03 279.866 Q2485.22 279.357 2483.37 279.357 Q2479.23 279.357 2476.94 281.995 Q2474.65 284.611 2474.65 289.357 Q2474.65 294.102 2476.94 296.741 Q2479.23 299.356 2483.37 299.356 Q2485.22 299.356 2487.03 298.87 Q2488.86 298.361 2490.66 297.366 L2490.66 301.301 Q2488.88 302.134 2486.96 302.551 Q2485.06 302.968 2482.91 302.968 Q2477.05 302.968 2473.6 299.287 Q2470.15 295.607 2470.15 289.357 Q2470.15 283.014 2473.63 279.38 Q2477.12 275.746 2483.19 275.746 Q2485.15 275.746 2487.03 276.162 Q2488.9 276.556 2490.66 277.366 Z" fill="#000000" fill-rule="nonzero" fill-opacity="1" /><path clip-path="url(#clip630)" d="M2498.07 266.278 L2502.33 266.278 L2502.33 302.296 L2498.07 302.296 L2498.07 266.278 Z" fill="#000000" fill-rule="nonzero" fill-opacity="1" /><path clip-path="url(#clip630)" d="M2533.42 288.269 L2533.42 290.352 L2513.83 290.352 Q2514.11 294.75 2516.47 297.065 Q2518.86 299.356 2523.09 299.356 Q2525.55 299.356 2527.84 298.755 Q2530.15 298.153 2532.42 296.949 L2532.42 300.977 Q2530.13 301.949 2527.72 302.458 Q2525.32 302.968 2522.84 302.968 Q2516.64 302.968 2513 299.356 Q2509.39 295.745 2509.39 289.588 Q2509.39 283.222 2512.82 279.495 Q2516.27 275.746 2522.1 275.746 Q2527.33 275.746 2530.36 279.125 Q2533.42 282.482 2533.42 288.269 M2529.16 287.019 Q2529.11 283.523 2527.19 281.44 Q2525.29 279.357 2522.14 279.357 Q2518.58 279.357 2516.43 281.37 Q2514.3 283.384 2513.97 287.042 L2529.16 287.019 Z" fill="#000000" fill-rule="nonzero" fill-opacity="1" /></svg>
