<?xml version="1.0" encoding="utf-8"?>
<svg xmlns="http://www.w3.org/2000/svg" xmlns:xlink="http://www.w3.org/1999/xlink" width="672" height="480" viewBox="0 0 2688 1920">
<defs>
  <clipPath id="clip730">
    <rect x="0" y="0" width="2688" height="1920"/>
  </clipPath>
</defs>
<path clip-path="url(#clip730)" d="M0 1920 L2688 1920 L2688 -4.26326e-14 L0 -4.26326e-14  Z" fill="#ffffff" fill-rule="evenodd" fill-opacity="1"/>
<defs>
  <clipPath id="clip731">
    <rect x="225" y="127" width="2416" height="1607"/>
  </clipPath>
</defs>
<path clip-path="url(#clip730)" d="M225.816 1734.12 L2640.76 1734.12 L2640.76 127.792 L225.816 127.792  Z" fill="#ffffff" fill-rule="evenodd" fill-opacity="1"/>
<polyline clip-path="url(#clip731)" style="stroke:#000000; stroke-linecap:round; stroke-linejoin:round; stroke-width:2; stroke-opacity:0.1; fill:none" points="294.164,1734.12 294.164,127.792 "/>
<polyline clip-path="url(#clip731)" style="stroke:#000000; stroke-linecap:round; stroke-linejoin:round; stroke-width:2; stroke-opacity:0.1; fill:none" points="673.871,1734.12 673.871,127.792 "/>
<polyline clip-path="url(#clip731)" style="stroke:#000000; stroke-linecap:round; stroke-linejoin:round; stroke-width:2; stroke-opacity:0.1; fill:none" points="1053.58,1734.12 1053.58,127.792 "/>
<polyline clip-path="url(#clip731)" style="stroke:#000000; stroke-linecap:round; stroke-linejoin:round; stroke-width:2; stroke-opacity:0.1; fill:none" points="1433.29,1734.12 1433.29,127.792 "/>
<polyline clip-path="url(#clip731)" style="stroke:#000000; stroke-linecap:round; stroke-linejoin:round; stroke-width:2; stroke-opacity:0.1; fill:none" points="1812.99,1734.12 1812.99,127.792 "/>
<polyline clip-path="url(#clip731)" style="stroke:#000000; stroke-linecap:round; stroke-linejoin:round; stroke-width:2; stroke-opacity:0.1; fill:none" points="2192.7,1734.12 2192.7,127.792 "/>
<polyline clip-path="url(#clip731)" style="stroke:#000000; stroke-linecap:round; stroke-linejoin:round; stroke-width:2; stroke-opacity:0.1; fill:none" points="2572.41,1734.12 2572.41,127.792 "/>
<polyline clip-path="url(#clip731)" style="stroke:#000000; stroke-linecap:round; stroke-linejoin:round; stroke-width:2; stroke-opacity:0.1; fill:none" points="225.816,1732.27 2640.76,1732.27 "/>
<polyline clip-path="url(#clip731)" style="stroke:#000000; stroke-linecap:round; stroke-linejoin:round; stroke-width:2; stroke-opacity:0.1; fill:none" points="225.816,1466.57 2640.76,1466.57 "/>
<polyline clip-path="url(#clip731)" style="stroke:#000000; stroke-linecap:round; stroke-linejoin:round; stroke-width:2; stroke-opacity:0.1; fill:none" points="225.816,1200.86 2640.76,1200.86 "/>
<polyline clip-path="url(#clip731)" style="stroke:#000000; stroke-linecap:round; stroke-linejoin:round; stroke-width:2; stroke-opacity:0.1; fill:none" points="225.816,935.161 2640.76,935.161 "/>
<polyline clip-path="url(#clip731)" style="stroke:#000000; stroke-linecap:round; stroke-linejoin:round; stroke-width:2; stroke-opacity:0.1; fill:none" points="225.816,669.459 2640.76,669.459 "/>
<polyline clip-path="url(#clip731)" style="stroke:#000000; stroke-linecap:round; stroke-linejoin:round; stroke-width:2; stroke-opacity:0.1; fill:none" points="225.816,403.757 2640.76,403.757 "/>
<polyline clip-path="url(#clip731)" style="stroke:#000000; stroke-linecap:round; stroke-linejoin:round; stroke-width:2; stroke-opacity:0.1; fill:none" points="225.816,138.055 2640.76,138.055 "/>
<polyline clip-path="url(#clip730)" style="stroke:#000000; stroke-linecap:round; stroke-linejoin:round; stroke-width:4; stroke-opacity:1; fill:none" points="225.816,1734.12 2640.76,1734.12 "/>
<polyline clip-path="url(#clip730)" style="stroke:#000000; stroke-linecap:round; stroke-linejoin:round; stroke-width:4; stroke-opacity:1; fill:none" points="294.164,1734.12 294.164,1715.22 "/>
<polyline clip-path="url(#clip730)" style="stroke:#000000; stroke-linecap:round; stroke-linejoin:round; stroke-width:4; stroke-opacity:1; fill:none" points="673.871,1734.12 673.871,1715.22 "/>
<polyline clip-path="url(#clip730)" style="stroke:#000000; stroke-linecap:round; stroke-linejoin:round; stroke-width:4; stroke-opacity:1; fill:none" points="1053.58,1734.12 1053.58,1715.22 "/>
<polyline clip-path="url(#clip730)" style="stroke:#000000; stroke-linecap:round; stroke-linejoin:round; stroke-width:4; stroke-opacity:1; fill:none" points="1433.29,1734.12 1433.29,1715.22 "/>
<polyline clip-path="url(#clip730)" style="stroke:#000000; stroke-linecap:round; stroke-linejoin:round; stroke-width:4; stroke-opacity:1; fill:none" points="1812.99,1734.12 1812.99,1715.22 "/>
<polyline clip-path="url(#clip730)" style="stroke:#000000; stroke-linecap:round; stroke-linejoin:round; stroke-width:4; stroke-opacity:1; fill:none" points="2192.7,1734.12 2192.7,1715.22 "/>
<polyline clip-path="url(#clip730)" style="stroke:#000000; stroke-linecap:round; stroke-linejoin:round; stroke-width:4; stroke-opacity:1; fill:none" points="2572.41,1734.12 2572.41,1715.22 "/>
<path clip-path="url(#clip730)" d="M271.548 1767.34 Q267.937 1767.34 266.108 1770.9 Q264.303 1774.45 264.303 1781.58 Q264.303 1788.68 266.108 1792.25 Q267.937 1795.79 271.548 1795.79 Q275.182 1795.79 276.988 1792.25 Q278.817 1788.68 278.817 1781.58 Q278.817 1774.45 276.988 1770.9 Q275.182 1767.34 271.548 1767.34 M271.548 1763.64 Q277.358 1763.64 280.414 1768.24 Q283.493 1772.83 283.493 1781.58 Q283.493 1790.3 280.414 1794.91 Q277.358 1799.49 271.548 1799.49 Q265.738 1799.49 262.659 1794.91 Q259.604 1790.3 259.604 1781.58 Q259.604 1772.83 262.659 1768.24 Q265.738 1763.64 271.548 1763.64 Z" fill="#000000" fill-rule="nonzero" fill-opacity="1" /><path clip-path="url(#clip730)" d="M291.71 1792.94 L296.594 1792.94 L296.594 1798.82 L291.71 1798.82 L291.71 1792.94 Z" fill="#000000" fill-rule="nonzero" fill-opacity="1" /><path clip-path="url(#clip730)" d="M316.779 1767.34 Q313.168 1767.34 311.34 1770.9 Q309.534 1774.45 309.534 1781.58 Q309.534 1788.68 311.34 1792.25 Q313.168 1795.79 316.779 1795.79 Q320.414 1795.79 322.219 1792.25 Q324.048 1788.68 324.048 1781.58 Q324.048 1774.45 322.219 1770.9 Q320.414 1767.34 316.779 1767.34 M316.779 1763.64 Q322.59 1763.64 325.645 1768.24 Q328.724 1772.83 328.724 1781.58 Q328.724 1790.3 325.645 1794.91 Q322.59 1799.49 316.779 1799.49 Q310.969 1799.49 307.891 1794.91 Q304.835 1790.3 304.835 1781.58 Q304.835 1772.83 307.891 1768.24 Q310.969 1763.64 316.779 1763.64 Z" fill="#000000" fill-rule="nonzero" fill-opacity="1" /><path clip-path="url(#clip730)" d="M651.869 1767.34 Q648.258 1767.34 646.429 1770.9 Q644.624 1774.45 644.624 1781.58 Q644.624 1788.68 646.429 1792.25 Q648.258 1795.79 651.869 1795.79 Q655.503 1795.79 657.309 1792.25 Q659.138 1788.68 659.138 1781.58 Q659.138 1774.45 657.309 1770.9 Q655.503 1767.34 651.869 1767.34 M651.869 1763.64 Q657.679 1763.64 660.735 1768.24 Q663.813 1772.83 663.813 1781.58 Q663.813 1790.3 660.735 1794.91 Q657.679 1799.49 651.869 1799.49 Q646.059 1799.49 642.98 1794.91 Q639.925 1790.3 639.925 1781.58 Q639.925 1772.83 642.98 1768.24 Q646.059 1763.64 651.869 1763.64 Z" fill="#000000" fill-rule="nonzero" fill-opacity="1" /><path clip-path="url(#clip730)" d="M672.031 1792.94 L676.915 1792.94 L676.915 1798.82 L672.031 1798.82 L672.031 1792.94 Z" fill="#000000" fill-rule="nonzero" fill-opacity="1" /><path clip-path="url(#clip730)" d="M687.911 1794.89 L695.549 1794.89 L695.549 1768.52 L687.239 1770.19 L687.239 1765.93 L695.503 1764.26 L700.179 1764.26 L700.179 1794.89 L707.818 1794.89 L707.818 1798.82 L687.911 1798.82 L687.911 1794.89 Z" fill="#000000" fill-rule="nonzero" fill-opacity="1" /><path clip-path="url(#clip730)" d="M1031.76 1767.34 Q1028.15 1767.34 1026.32 1770.9 Q1024.52 1774.45 1024.52 1781.58 Q1024.52 1788.68 1026.32 1792.25 Q1028.15 1795.79 1031.76 1795.79 Q1035.4 1795.79 1037.2 1792.25 Q1039.03 1788.68 1039.03 1781.58 Q1039.03 1774.45 1037.2 1770.9 Q1035.4 1767.34 1031.76 1767.34 M1031.76 1763.64 Q1037.57 1763.64 1040.63 1768.24 Q1043.71 1772.83 1043.71 1781.58 Q1043.71 1790.3 1040.63 1794.91 Q1037.57 1799.49 1031.76 1799.49 Q1025.95 1799.49 1022.87 1794.91 Q1019.82 1790.3 1019.82 1781.58 Q1019.82 1772.83 1022.87 1768.24 Q1025.95 1763.64 1031.76 1763.64 Z" fill="#000000" fill-rule="nonzero" fill-opacity="1" /><path clip-path="url(#clip730)" d="M1051.92 1792.94 L1056.81 1792.94 L1056.81 1798.82 L1051.92 1798.82 L1051.92 1792.94 Z" fill="#000000" fill-rule="nonzero" fill-opacity="1" /><path clip-path="url(#clip730)" d="M1071.02 1794.89 L1087.34 1794.89 L1087.34 1798.82 L1065.4 1798.82 L1065.4 1794.89 Q1068.06 1792.13 1072.64 1787.5 Q1077.25 1782.85 1078.43 1781.51 Q1080.67 1778.98 1081.55 1777.25 Q1082.46 1775.49 1082.46 1773.8 Q1082.46 1771.04 1080.51 1769.31 Q1078.59 1767.57 1075.49 1767.57 Q1073.29 1767.57 1070.84 1768.34 Q1068.41 1769.1 1065.63 1770.65 L1065.63 1765.93 Q1068.45 1764.79 1070.91 1764.21 Q1073.36 1763.64 1075.4 1763.64 Q1080.77 1763.64 1083.96 1766.32 Q1087.15 1769.01 1087.15 1773.5 Q1087.15 1775.63 1086.34 1777.55 Q1085.56 1779.45 1083.45 1782.04 Q1082.87 1782.71 1079.77 1785.93 Q1076.67 1789.12 1071.02 1794.89 Z" fill="#000000" fill-rule="nonzero" fill-opacity="1" /><path clip-path="url(#clip730)" d="M1410.99 1767.34 Q1407.38 1767.34 1405.55 1770.9 Q1403.75 1774.45 1403.75 1781.58 Q1403.75 1788.68 1405.55 1792.25 Q1407.38 1795.79 1410.99 1795.79 Q1414.63 1795.79 1416.43 1792.25 Q1418.26 1788.68 1418.26 1781.58 Q1418.26 1774.45 1416.43 1770.9 Q1414.63 1767.34 1410.99 1767.34 M1410.99 1763.64 Q1416.8 1763.64 1419.86 1768.24 Q1422.94 1772.83 1422.94 1781.58 Q1422.94 1790.3 1419.86 1794.91 Q1416.8 1799.49 1410.99 1799.49 Q1405.18 1799.49 1402.11 1794.91 Q1399.05 1790.3 1399.05 1781.58 Q1399.05 1772.83 1402.11 1768.24 Q1405.18 1763.64 1410.99 1763.64 Z" fill="#000000" fill-rule="nonzero" fill-opacity="1" /><path clip-path="url(#clip730)" d="M1431.16 1792.94 L1436.04 1792.94 L1436.04 1798.82 L1431.16 1798.82 L1431.16 1792.94 Z" fill="#000000" fill-rule="nonzero" fill-opacity="1" /><path clip-path="url(#clip730)" d="M1460.39 1780.19 Q1463.75 1780.9 1465.62 1783.17 Q1467.52 1785.44 1467.52 1788.77 Q1467.52 1793.89 1464 1796.69 Q1460.49 1799.49 1454 1799.49 Q1451.83 1799.49 1449.51 1799.05 Q1447.22 1798.64 1444.77 1797.78 L1444.77 1793.27 Q1446.71 1794.4 1449.03 1794.98 Q1451.34 1795.56 1453.86 1795.56 Q1458.26 1795.56 1460.55 1793.82 Q1462.87 1792.08 1462.87 1788.77 Q1462.87 1785.72 1460.72 1784.01 Q1458.59 1782.27 1454.77 1782.27 L1450.74 1782.27 L1450.74 1778.43 L1454.95 1778.43 Q1458.4 1778.43 1460.23 1777.06 Q1462.06 1775.67 1462.06 1773.08 Q1462.06 1770.42 1460.16 1769.01 Q1458.29 1767.57 1454.77 1767.57 Q1452.85 1767.57 1450.65 1767.99 Q1448.45 1768.4 1445.81 1769.28 L1445.81 1765.12 Q1448.47 1764.38 1450.79 1764.01 Q1453.12 1763.64 1455.18 1763.64 Q1460.51 1763.64 1463.61 1766.07 Q1466.71 1768.47 1466.71 1772.59 Q1466.71 1775.46 1465.07 1777.46 Q1463.42 1779.42 1460.39 1780.19 Z" fill="#000000" fill-rule="nonzero" fill-opacity="1" /><path clip-path="url(#clip730)" d="M1790.13 1767.34 Q1786.52 1767.34 1784.7 1770.9 Q1782.89 1774.45 1782.89 1781.58 Q1782.89 1788.68 1784.7 1792.25 Q1786.52 1795.79 1790.13 1795.79 Q1793.77 1795.79 1795.57 1792.25 Q1797.4 1788.68 1797.4 1781.58 Q1797.4 1774.45 1795.57 1770.9 Q1793.77 1767.34 1790.13 1767.34 M1790.13 1763.64 Q1795.95 1763.64 1799 1768.24 Q1802.08 1772.83 1802.08 1781.58 Q1802.08 1790.3 1799 1794.91 Q1795.95 1799.49 1790.13 1799.49 Q1784.32 1799.49 1781.25 1794.91 Q1778.19 1790.3 1778.19 1781.58 Q1778.19 1772.83 1781.25 1768.24 Q1784.32 1763.64 1790.13 1763.64 Z" fill="#000000" fill-rule="nonzero" fill-opacity="1" /><path clip-path="url(#clip730)" d="M1810.3 1792.94 L1815.18 1792.94 L1815.18 1798.82 L1810.3 1798.82 L1810.3 1792.94 Z" fill="#000000" fill-rule="nonzero" fill-opacity="1" /><path clip-path="url(#clip730)" d="M1838.21 1768.34 L1826.41 1786.78 L1838.21 1786.78 L1838.21 1768.34 M1836.99 1764.26 L1842.87 1764.26 L1842.87 1786.78 L1847.8 1786.78 L1847.8 1790.67 L1842.87 1790.67 L1842.87 1798.82 L1838.21 1798.82 L1838.21 1790.67 L1822.61 1790.67 L1822.61 1786.16 L1836.99 1764.26 Z" fill="#000000" fill-rule="nonzero" fill-opacity="1" /><path clip-path="url(#clip730)" d="M2170.58 1767.34 Q2166.97 1767.34 2165.14 1770.9 Q2163.34 1774.45 2163.34 1781.58 Q2163.34 1788.68 2165.14 1792.25 Q2166.97 1795.79 2170.58 1795.79 Q2174.22 1795.79 2176.02 1792.25 Q2177.85 1788.68 2177.85 1781.58 Q2177.85 1774.45 2176.02 1770.9 Q2174.22 1767.34 2170.58 1767.34 M2170.58 1763.64 Q2176.39 1763.64 2179.45 1768.24 Q2182.53 1772.83 2182.53 1781.58 Q2182.53 1790.3 2179.45 1794.91 Q2176.39 1799.49 2170.58 1799.49 Q2164.77 1799.49 2161.69 1794.91 Q2158.64 1790.3 2158.64 1781.58 Q2158.64 1772.83 2161.69 1768.24 Q2164.77 1763.64 2170.58 1763.64 Z" fill="#000000" fill-rule="nonzero" fill-opacity="1" /><path clip-path="url(#clip730)" d="M2190.75 1792.94 L2195.63 1792.94 L2195.63 1798.82 L2190.75 1798.82 L2190.75 1792.94 Z" fill="#000000" fill-rule="nonzero" fill-opacity="1" /><path clip-path="url(#clip730)" d="M2205.86 1764.26 L2224.22 1764.26 L2224.22 1768.2 L2210.14 1768.2 L2210.14 1776.67 Q2211.16 1776.32 2212.18 1776.16 Q2213.2 1775.97 2214.22 1775.97 Q2220 1775.97 2223.38 1779.15 Q2226.76 1782.32 2226.76 1787.73 Q2226.76 1793.31 2223.29 1796.41 Q2219.82 1799.49 2213.5 1799.49 Q2211.32 1799.49 2209.06 1799.12 Q2206.81 1798.75 2204.4 1798.01 L2204.4 1793.31 Q2206.49 1794.45 2208.71 1795 Q2210.93 1795.56 2213.41 1795.56 Q2217.41 1795.56 2219.75 1793.45 Q2222.09 1791.34 2222.09 1787.73 Q2222.09 1784.12 2219.75 1782.02 Q2217.41 1779.91 2213.41 1779.91 Q2211.53 1779.91 2209.66 1780.33 Q2207.81 1780.74 2205.86 1781.62 L2205.86 1764.26 Z" fill="#000000" fill-rule="nonzero" fill-opacity="1" /><path clip-path="url(#clip730)" d="M2549.71 1767.34 Q2546.1 1767.34 2544.27 1770.9 Q2542.47 1774.45 2542.47 1781.58 Q2542.47 1788.68 2544.27 1792.25 Q2546.1 1795.79 2549.71 1795.79 Q2553.35 1795.79 2555.15 1792.25 Q2556.98 1788.68 2556.98 1781.58 Q2556.98 1774.45 2555.15 1770.9 Q2553.35 1767.34 2549.71 1767.34 M2549.71 1763.64 Q2555.52 1763.64 2558.58 1768.24 Q2561.66 1772.83 2561.66 1781.58 Q2561.66 1790.3 2558.58 1794.91 Q2555.52 1799.49 2549.71 1799.49 Q2543.9 1799.49 2540.82 1794.91 Q2537.77 1790.3 2537.77 1781.58 Q2537.77 1772.83 2540.82 1768.24 Q2543.9 1763.64 2549.71 1763.64 Z" fill="#000000" fill-rule="nonzero" fill-opacity="1" /><path clip-path="url(#clip730)" d="M2569.87 1792.94 L2574.76 1792.94 L2574.76 1798.82 L2569.87 1798.82 L2569.87 1792.94 Z" fill="#000000" fill-rule="nonzero" fill-opacity="1" /><path clip-path="url(#clip730)" d="M2595.52 1779.68 Q2592.37 1779.68 2590.52 1781.83 Q2588.69 1783.98 2588.69 1787.73 Q2588.69 1791.46 2590.52 1793.64 Q2592.37 1795.79 2595.52 1795.79 Q2598.67 1795.79 2600.5 1793.64 Q2602.35 1791.46 2602.35 1787.73 Q2602.35 1783.98 2600.5 1781.83 Q2598.67 1779.68 2595.52 1779.68 M2604.8 1765.02 L2604.8 1769.28 Q2603.04 1768.45 2601.24 1768.01 Q2599.46 1767.57 2597.7 1767.57 Q2593.07 1767.57 2590.61 1770.7 Q2588.18 1773.82 2587.84 1780.14 Q2589.2 1778.13 2591.26 1777.06 Q2593.32 1775.97 2595.8 1775.97 Q2601.01 1775.97 2604.02 1779.15 Q2607.05 1782.29 2607.05 1787.73 Q2607.05 1793.06 2603.9 1796.27 Q2600.75 1799.49 2595.52 1799.49 Q2589.53 1799.49 2586.36 1794.91 Q2583.18 1790.3 2583.18 1781.58 Q2583.18 1773.38 2587.07 1768.52 Q2590.96 1763.64 2597.51 1763.64 Q2599.27 1763.64 2601.05 1763.98 Q2602.86 1764.33 2604.8 1765.02 Z" fill="#000000" fill-rule="nonzero" fill-opacity="1" /><path clip-path="url(#clip730)" d="M1436.2 1833.78 L1436.2 1846.92 Q1442.53 1846.92 1446.77 1851.79 Q1451.13 1856.76 1451.13 1865.51 Q1451.13 1874.26 1446.77 1879.23 Q1442.53 1884.1 1436.2 1884.1 L1436.2 1896.86 L1430.37 1896.86 L1430.37 1884.1 Q1424.04 1884.1 1419.77 1879.23 Q1415.45 1874.26 1415.45 1865.51 Q1415.45 1856.76 1419.77 1851.79 Q1424.04 1846.92 1430.37 1846.92 L1430.37 1833.78 L1436.2 1833.78 M1436.2 1878.88 Q1439.8 1878.88 1442.25 1875.6 Q1444.92 1871.94 1444.95 1865.51 Q1444.98 1859.14 1442.25 1855.42 Q1439.8 1852.14 1436.2 1852.14 L1436.2 1878.88 M1430.37 1878.88 L1430.37 1852.14 Q1426.78 1852.14 1424.36 1855.42 Q1421.59 1859.14 1421.62 1865.51 Q1421.65 1871.94 1424.36 1875.6 Q1426.78 1878.88 1430.37 1878.88 Z" fill="#000000" fill-rule="nonzero" fill-opacity="1" /><polyline clip-path="url(#clip730)" style="stroke:#000000; stroke-linecap:round; stroke-linejoin:round; stroke-width:4; stroke-opacity:1; fill:none" points="225.816,1734.12 225.816,127.792 "/>
<polyline clip-path="url(#clip730)" style="stroke:#000000; stroke-linecap:round; stroke-linejoin:round; stroke-width:4; stroke-opacity:1; fill:none" points="225.816,1732.27 244.714,1732.27 "/>
<polyline clip-path="url(#clip730)" style="stroke:#000000; stroke-linecap:round; stroke-linejoin:round; stroke-width:4; stroke-opacity:1; fill:none" points="225.816,1466.57 244.714,1466.57 "/>
<polyline clip-path="url(#clip730)" style="stroke:#000000; stroke-linecap:round; stroke-linejoin:round; stroke-width:4; stroke-opacity:1; fill:none" points="225.816,1200.86 244.714,1200.86 "/>
<polyline clip-path="url(#clip730)" style="stroke:#000000; stroke-linecap:round; stroke-linejoin:round; stroke-width:4; stroke-opacity:1; fill:none" points="225.816,935.161 244.714,935.161 "/>
<polyline clip-path="url(#clip730)" style="stroke:#000000; stroke-linecap:round; stroke-linejoin:round; stroke-width:4; stroke-opacity:1; fill:none" points="225.816,669.459 244.714,669.459 "/>
<polyline clip-path="url(#clip730)" style="stroke:#000000; stroke-linecap:round; stroke-linejoin:round; stroke-width:4; stroke-opacity:1; fill:none" points="225.816,403.757 244.714,403.757 "/>
<polyline clip-path="url(#clip730)" style="stroke:#000000; stroke-linecap:round; stroke-linejoin:round; stroke-width:4; stroke-opacity:1; fill:none" points="225.816,138.055 244.714,138.055 "/>
<path clip-path="url(#clip730)" d="M129.316 1718.07 Q125.705 1718.07 123.876 1721.63 Q122.071 1725.17 122.071 1732.3 Q122.071 1739.41 123.876 1742.97 Q125.705 1746.52 129.316 1746.52 Q132.95 1746.52 134.756 1742.97 Q136.585 1739.41 136.585 1732.3 Q136.585 1725.17 134.756 1721.63 Q132.95 1718.07 129.316 1718.07 M129.316 1714.36 Q135.126 1714.36 138.182 1718.97 Q141.261 1723.55 141.261 1732.3 Q141.261 1741.03 138.182 1745.64 Q135.126 1750.22 129.316 1750.22 Q123.506 1750.22 120.427 1745.64 Q117.372 1741.03 117.372 1732.3 Q117.372 1723.55 120.427 1718.97 Q123.506 1714.36 129.316 1714.36 Z" fill="#000000" fill-rule="nonzero" fill-opacity="1" /><path clip-path="url(#clip730)" d="M149.478 1743.67 L154.362 1743.67 L154.362 1749.55 L149.478 1749.55 L149.478 1743.67 Z" fill="#000000" fill-rule="nonzero" fill-opacity="1" /><path clip-path="url(#clip730)" d="M164.594 1714.99 L182.95 1714.99 L182.95 1718.92 L168.876 1718.92 L168.876 1727.39 Q169.895 1727.05 170.913 1726.89 Q171.932 1726.7 172.95 1726.7 Q178.737 1726.7 182.117 1729.87 Q185.496 1733.04 185.496 1738.46 Q185.496 1744.04 182.024 1747.14 Q178.552 1750.22 172.233 1750.22 Q170.057 1750.22 167.788 1749.85 Q165.543 1749.48 163.135 1748.74 L163.135 1744.04 Q165.219 1745.17 167.441 1745.73 Q169.663 1746.28 172.14 1746.28 Q176.145 1746.28 178.483 1744.18 Q180.821 1742.07 180.821 1738.46 Q180.821 1734.85 178.483 1732.74 Q176.145 1730.64 172.14 1730.64 Q170.265 1730.64 168.39 1731.05 Q166.538 1731.47 164.594 1732.35 L164.594 1714.99 Z" fill="#000000" fill-rule="nonzero" fill-opacity="1" /><path clip-path="url(#clip730)" d="M128.159 1452.36 Q124.548 1452.36 122.719 1455.93 Q120.913 1459.47 120.913 1466.6 Q120.913 1473.71 122.719 1477.27 Q124.548 1480.81 128.159 1480.81 Q131.793 1480.81 133.599 1477.27 Q135.427 1473.71 135.427 1466.6 Q135.427 1459.47 133.599 1455.93 Q131.793 1452.36 128.159 1452.36 M128.159 1448.66 Q133.969 1448.66 137.025 1453.27 Q140.103 1457.85 140.103 1466.6 Q140.103 1475.33 137.025 1479.93 Q133.969 1484.52 128.159 1484.52 Q122.349 1484.52 119.27 1479.93 Q116.214 1475.33 116.214 1466.6 Q116.214 1457.85 119.27 1453.27 Q122.349 1448.66 128.159 1448.66 Z" fill="#000000" fill-rule="nonzero" fill-opacity="1" /><path clip-path="url(#clip730)" d="M148.321 1477.97 L153.205 1477.97 L153.205 1483.85 L148.321 1483.85 L148.321 1477.97 Z" fill="#000000" fill-rule="nonzero" fill-opacity="1" /><path clip-path="url(#clip730)" d="M173.969 1464.7 Q170.821 1464.7 168.969 1466.85 Q167.14 1469.01 167.14 1472.76 Q167.14 1476.48 168.969 1478.66 Q170.821 1480.81 173.969 1480.81 Q177.117 1480.81 178.946 1478.66 Q180.797 1476.48 180.797 1472.76 Q180.797 1469.01 178.946 1466.85 Q177.117 1464.7 173.969 1464.7 M183.251 1450.05 L183.251 1454.31 Q181.492 1453.48 179.686 1453.04 Q177.904 1452.6 176.145 1452.6 Q171.515 1452.6 169.061 1455.72 Q166.631 1458.85 166.284 1465.16 Q167.649 1463.15 169.71 1462.09 Q171.77 1461 174.247 1461 Q179.455 1461 182.464 1464.17 Q185.496 1467.32 185.496 1472.76 Q185.496 1478.08 182.348 1481.3 Q179.2 1484.52 173.969 1484.52 Q167.973 1484.52 164.802 1479.93 Q161.631 1475.33 161.631 1466.6 Q161.631 1458.41 165.52 1453.54 Q169.409 1448.66 175.959 1448.66 Q177.719 1448.66 179.501 1449.01 Q181.307 1449.35 183.251 1450.05 Z" fill="#000000" fill-rule="nonzero" fill-opacity="1" /><path clip-path="url(#clip730)" d="M129.224 1186.66 Q125.613 1186.66 123.784 1190.23 Q121.978 1193.77 121.978 1200.9 Q121.978 1208 123.784 1211.57 Q125.613 1215.11 129.224 1215.11 Q132.858 1215.11 134.663 1211.57 Q136.492 1208 136.492 1200.9 Q136.492 1193.77 134.663 1190.23 Q132.858 1186.66 129.224 1186.66 M129.224 1182.96 Q135.034 1182.96 138.089 1187.56 Q141.168 1192.15 141.168 1200.9 Q141.168 1209.62 138.089 1214.23 Q135.034 1218.81 129.224 1218.81 Q123.413 1218.81 120.335 1214.23 Q117.279 1209.62 117.279 1200.9 Q117.279 1192.15 120.335 1187.56 Q123.413 1182.96 129.224 1182.96 Z" fill="#000000" fill-rule="nonzero" fill-opacity="1" /><path clip-path="url(#clip730)" d="M149.386 1212.26 L154.27 1212.26 L154.27 1218.14 L149.386 1218.14 L149.386 1212.26 Z" fill="#000000" fill-rule="nonzero" fill-opacity="1" /><path clip-path="url(#clip730)" d="M163.274 1183.58 L185.496 1183.58 L185.496 1185.57 L172.95 1218.14 L168.066 1218.14 L179.872 1187.52 L163.274 1187.52 L163.274 1183.58 Z" fill="#000000" fill-rule="nonzero" fill-opacity="1" /><path clip-path="url(#clip730)" d="M128.413 920.96 Q124.802 920.96 122.974 924.525 Q121.168 928.066 121.168 935.196 Q121.168 942.302 122.974 945.867 Q124.802 949.409 128.413 949.409 Q132.048 949.409 133.853 945.867 Q135.682 942.302 135.682 935.196 Q135.682 928.066 133.853 924.525 Q132.048 920.96 128.413 920.96 M128.413 917.256 Q134.224 917.256 137.279 921.863 Q140.358 926.446 140.358 935.196 Q140.358 943.923 137.279 948.529 Q134.224 953.112 128.413 953.112 Q122.603 953.112 119.525 948.529 Q116.469 943.923 116.469 935.196 Q116.469 926.446 119.525 921.863 Q122.603 917.256 128.413 917.256 Z" fill="#000000" fill-rule="nonzero" fill-opacity="1" /><path clip-path="url(#clip730)" d="M148.575 946.561 L153.46 946.561 L153.46 952.441 L148.575 952.441 L148.575 946.561 Z" fill="#000000" fill-rule="nonzero" fill-opacity="1" /><path clip-path="url(#clip730)" d="M173.645 936.029 Q170.311 936.029 168.39 937.812 Q166.492 939.594 166.492 942.719 Q166.492 945.844 168.39 947.626 Q170.311 949.409 173.645 949.409 Q176.978 949.409 178.899 947.626 Q180.821 945.821 180.821 942.719 Q180.821 939.594 178.899 937.812 Q177.001 936.029 173.645 936.029 M168.969 934.038 Q165.96 933.298 164.27 931.237 Q162.603 929.177 162.603 926.214 Q162.603 922.071 165.543 919.663 Q168.506 917.256 173.645 917.256 Q178.807 917.256 181.746 919.663 Q184.686 922.071 184.686 926.214 Q184.686 929.177 182.996 931.237 Q181.33 933.298 178.344 934.038 Q181.723 934.825 183.598 937.117 Q185.496 939.409 185.496 942.719 Q185.496 947.742 182.418 950.427 Q179.362 953.112 173.645 953.112 Q167.927 953.112 164.848 950.427 Q161.793 947.742 161.793 942.719 Q161.793 939.409 163.691 937.117 Q165.589 934.825 168.969 934.038 M167.256 926.654 Q167.256 929.339 168.922 930.844 Q170.612 932.349 173.645 932.349 Q176.654 932.349 178.344 930.844 Q180.057 929.339 180.057 926.654 Q180.057 923.969 178.344 922.464 Q176.654 920.96 173.645 920.96 Q170.612 920.96 168.922 922.464 Q167.256 923.969 167.256 926.654 Z" fill="#000000" fill-rule="nonzero" fill-opacity="1" /><path clip-path="url(#clip730)" d="M128.506 655.258 Q124.895 655.258 123.066 658.822 Q121.261 662.364 121.261 669.494 Q121.261 676.6 123.066 680.165 Q124.895 683.707 128.506 683.707 Q132.14 683.707 133.946 680.165 Q135.775 676.6 135.775 669.494 Q135.775 662.364 133.946 658.822 Q132.14 655.258 128.506 655.258 M128.506 651.554 Q134.316 651.554 137.372 656.16 Q140.45 660.744 140.45 669.494 Q140.45 678.22 137.372 682.827 Q134.316 687.41 128.506 687.41 Q122.696 687.41 119.617 682.827 Q116.562 678.22 116.562 669.494 Q116.562 660.744 119.617 656.16 Q122.696 651.554 128.506 651.554 Z" fill="#000000" fill-rule="nonzero" fill-opacity="1" /><path clip-path="url(#clip730)" d="M148.668 680.859 L153.552 680.859 L153.552 686.739 L148.668 686.739 L148.668 680.859 Z" fill="#000000" fill-rule="nonzero" fill-opacity="1" /><path clip-path="url(#clip730)" d="M163.876 686.021 L163.876 681.762 Q165.635 682.595 167.441 683.035 Q169.247 683.475 170.983 683.475 Q175.612 683.475 178.043 680.373 Q180.497 677.248 180.844 670.906 Q179.501 672.896 177.441 673.961 Q175.381 675.026 172.881 675.026 Q167.696 675.026 164.663 671.901 Q161.654 668.753 161.654 663.313 Q161.654 657.989 164.802 654.772 Q167.95 651.554 173.182 651.554 Q179.177 651.554 182.325 656.16 Q185.496 660.744 185.496 669.494 Q185.496 677.665 181.608 682.549 Q177.742 687.41 171.191 687.41 Q169.432 687.41 167.626 687.063 Q165.821 686.716 163.876 686.021 M173.182 671.369 Q176.33 671.369 178.159 669.216 Q180.01 667.063 180.01 663.313 Q180.01 659.586 178.159 657.434 Q176.33 655.258 173.182 655.258 Q170.034 655.258 168.182 657.434 Q166.353 659.586 166.353 663.313 Q166.353 667.063 168.182 669.216 Q170.034 671.369 173.182 671.369 Z" fill="#000000" fill-rule="nonzero" fill-opacity="1" /><path clip-path="url(#clip730)" d="M119.131 417.102 L126.77 417.102 L126.77 390.736 L118.46 392.403 L118.46 388.143 L126.724 386.477 L131.4 386.477 L131.4 417.102 L139.038 417.102 L139.038 421.037 L119.131 421.037 L119.131 417.102 Z" fill="#000000" fill-rule="nonzero" fill-opacity="1" /><path clip-path="url(#clip730)" d="M148.483 415.157 L153.367 415.157 L153.367 421.037 L148.483 421.037 L148.483 415.157 Z" fill="#000000" fill-rule="nonzero" fill-opacity="1" /><path clip-path="url(#clip730)" d="M173.552 389.555 Q169.941 389.555 168.112 393.12 Q166.307 396.662 166.307 403.792 Q166.307 410.898 168.112 414.463 Q169.941 418.004 173.552 418.004 Q177.186 418.004 178.992 414.463 Q180.821 410.898 180.821 403.792 Q180.821 396.662 178.992 393.12 Q177.186 389.555 173.552 389.555 M173.552 385.852 Q179.362 385.852 182.418 390.458 Q185.496 395.042 185.496 403.792 Q185.496 412.518 182.418 417.125 Q179.362 421.708 173.552 421.708 Q167.742 421.708 164.663 417.125 Q161.608 412.518 161.608 403.792 Q161.608 395.042 164.663 390.458 Q167.742 385.852 173.552 385.852 Z" fill="#000000" fill-rule="nonzero" fill-opacity="1" /><path clip-path="url(#clip730)" d="M120.358 151.4 L127.997 151.4 L127.997 125.034 L119.687 126.701 L119.687 122.441 L127.95 120.775 L132.626 120.775 L132.626 151.4 L140.265 151.4 L140.265 155.335 L120.358 155.335 L120.358 151.4 Z" fill="#000000" fill-rule="nonzero" fill-opacity="1" /><path clip-path="url(#clip730)" d="M149.71 149.455 L154.594 149.455 L154.594 155.335 L149.71 155.335 L149.71 149.455 Z" fill="#000000" fill-rule="nonzero" fill-opacity="1" /><path clip-path="url(#clip730)" d="M165.589 151.4 L173.228 151.4 L173.228 125.034 L164.918 126.701 L164.918 122.441 L173.182 120.775 L177.858 120.775 L177.858 151.4 L185.496 151.4 L185.496 155.335 L165.589 155.335 L165.589 151.4 Z" fill="#000000" fill-rule="nonzero" fill-opacity="1" /><path clip-path="url(#clip730)" d="M39.3585 977.647 Q40.0587 975.578 42.3504 973.637 Q44.642 971.663 48.6524 969.69 L61.6384 963.165 L61.6384 970.072 L49.4481 976.151 Q44.6738 978.506 43.1142 980.734 Q41.5546 982.931 41.5546 986.75 L41.5546 993.752 L61.6384 993.752 L61.6384 1000.18 L14.1184 1000.18 L14.1184 985.668 Q14.1184 977.52 17.5241 973.509 Q20.9297 969.499 27.8047 969.499 Q32.2925 969.499 35.2526 971.6 Q38.2126 973.668 39.3585 977.647 M19.402 993.752 L36.2711 993.752 L36.2711 985.668 Q36.2711 981.021 34.1386 978.666 Q31.9743 976.278 27.8047 976.278 Q23.6352 976.278 21.5345 978.666 Q19.402 981.021 19.402 985.668 L19.402 993.752 Z" fill="#000000" fill-rule="nonzero" fill-opacity="1" /><path clip-path="url(#clip730)" d="M12.1769 941.076 Q19.4975 945.341 26.6589 947.41 Q33.8203 949.479 41.1727 949.479 Q48.5251 949.479 55.7502 947.41 Q62.9434 945.309 70.2321 941.076 L70.2321 946.169 Q62.7524 950.943 55.5274 953.33 Q48.3023 955.685 41.1727 955.685 Q34.0749 955.685 26.8817 953.33 Q19.6884 950.975 12.1769 946.169 L12.1769 941.076 Z" fill="#000000" fill-rule="nonzero" fill-opacity="1" /><path clip-path="url(#clip730)" d="M50.5303 906.16 Q49.3845 907.147 46.7109 908.706 Q50.5303 910.839 52.2172 912.717 Q54.2542 915.072 54.2542 918.732 Q54.2542 923.029 51.0395 925.862 Q47.6657 928.854 42.0957 928.854 Q36.7485 928.854 33.1201 925.862 Q29.9054 923.188 29.9054 918.669 Q29.9054 916.345 30.8603 914.627 Q31.9106 912.621 33.7248 911.253 Q35.3481 909.98 37.5442 908.706 Q33.7248 906.574 32.0379 904.696 Q30.0009 902.341 30.0009 898.68 Q30.0009 894.384 33.2156 891.551 Q36.5894 888.559 42.1594 888.559 Q47.5066 888.559 51.135 891.551 Q54.3497 894.224 54.3497 898.744 Q54.3497 901.068 53.3949 902.786 Q52.5355 904.505 50.5303 906.16 M50.0847 919.083 Q50.0847 913.831 42.4458 910.68 Q34.1068 914.722 34.1068 919.083 Q34.1068 922.265 36.3984 923.889 Q38.8492 925.639 42.0957 925.639 Q45.6605 925.639 47.8567 923.889 Q50.0847 922.106 50.0847 919.083 M34.1704 898.33 Q34.1704 903.073 41.8093 906.733 Q50.1483 902.723 50.1483 898.33 Q50.1483 895.147 47.8567 893.524 Q45.4059 891.774 42.1594 891.774 Q38.5946 891.774 36.3984 893.524 Q34.1704 895.307 34.1704 898.33 Z" fill="#000000" fill-rule="nonzero" fill-opacity="1" /><path clip-path="url(#clip730)" d="M12.1769 876.337 L12.1769 871.244 Q19.6884 866.47 26.8817 864.115 Q34.0749 861.727 41.1727 861.727 Q48.3023 861.727 55.5274 864.115 Q62.7524 866.47 70.2321 871.244 L70.2321 876.337 Q62.9434 872.104 55.7502 870.035 Q48.5251 867.934 41.1727 867.934 Q33.8203 867.934 26.6589 870.035 Q19.4975 872.104 12.1769 876.337 Z" fill="#000000" fill-rule="nonzero" fill-opacity="1" /><path clip-path="url(#clip730)" d="M755.185 16.7545 L755.185 25.383 Q751.053 21.5346 746.354 19.6307 Q741.696 17.7268 736.429 17.7268 Q726.059 17.7268 720.55 24.0867 Q715.041 30.4061 715.041 42.3968 Q715.041 54.3469 720.55 60.7069 Q726.059 67.0263 736.429 67.0263 Q741.696 67.0263 746.354 65.1223 Q751.053 63.2184 755.185 59.3701 L755.185 67.9175 Q750.891 70.8341 746.071 72.2924 Q741.29 73.7508 735.943 73.7508 Q722.211 73.7508 714.311 65.3654 Q706.412 56.9395 706.412 42.3968 Q706.412 27.8135 714.311 19.4281 Q722.211 11.0023 735.943 11.0023 Q741.371 11.0023 746.152 12.4606 Q750.972 13.8784 755.185 16.7545 Z" fill="#000000" fill-rule="nonzero" fill-opacity="1" /><path clip-path="url(#clip730)" d="M767.5 9.54393 L774.953 9.54393 L774.953 72.576 L767.5 72.576 L767.5 9.54393 Z" fill="#000000" fill-rule="nonzero" fill-opacity="1" /><path clip-path="url(#clip730)" d="M808.13 32.4315 Q802.135 32.4315 798.651 37.1306 Q795.168 41.7891 795.168 49.9314 Q795.168 58.0738 798.611 62.7728 Q802.095 67.4314 808.13 67.4314 Q814.085 67.4314 817.569 62.7323 Q821.053 58.0333 821.053 49.9314 Q821.053 41.8701 817.569 37.1711 Q814.085 32.4315 808.13 32.4315 M808.13 26.1121 Q817.853 26.1121 823.402 32.4315 Q828.952 38.7509 828.952 49.9314 Q828.952 61.0714 823.402 67.4314 Q817.853 73.7508 808.13 73.7508 Q798.368 73.7508 792.818 67.4314 Q787.309 61.0714 787.309 49.9314 Q787.309 38.7509 792.818 32.4315 Q798.368 26.1121 808.13 26.1121 Z" fill="#000000" fill-rule="nonzero" fill-opacity="1" /><path clip-path="url(#clip730)" d="M870.231 28.5427 L870.231 35.5912 Q867.071 33.9709 863.668 33.1607 Q860.266 32.3505 856.62 32.3505 Q851.07 32.3505 848.275 34.0519 Q845.52 35.7533 845.52 39.156 Q845.52 41.7486 847.505 43.2475 Q849.49 44.7058 855.485 46.0426 L858.038 46.6097 Q865.977 48.3111 869.299 51.4303 Q872.661 54.509 872.661 60.0587 Q872.661 66.3781 867.638 70.0644 Q862.656 73.7508 853.906 73.7508 Q850.26 73.7508 846.29 73.0216 Q842.361 72.3329 837.986 70.9151 L837.986 63.2184 Q842.117 65.3654 846.128 66.4591 Q850.138 67.5124 854.068 67.5124 Q859.334 67.5124 862.169 65.73 Q865.005 63.9071 865.005 60.6258 Q865.005 57.5877 862.939 55.9673 Q860.914 54.3469 853.987 52.8481 L851.394 52.2405 Q844.467 50.7821 841.388 47.7845 Q838.31 44.7463 838.31 39.4801 Q838.31 33.0797 842.847 29.5959 Q847.384 26.1121 855.729 26.1121 Q859.86 26.1121 863.506 26.7198 Q867.152 27.3274 870.231 28.5427 Z" fill="#000000" fill-rule="nonzero" fill-opacity="1" /><path clip-path="url(#clip730)" d="M883.761 54.671 L883.761 27.2059 L891.214 27.2059 L891.214 54.3874 Q891.214 60.8284 893.726 64.0691 Q896.238 67.2693 901.261 67.2693 Q907.297 67.2693 910.78 63.421 Q914.305 59.5726 914.305 52.9291 L914.305 27.2059 L921.758 27.2059 L921.758 72.576 L914.305 72.576 L914.305 65.6084 Q911.59 69.7404 907.985 71.7658 Q904.42 73.7508 899.681 73.7508 Q891.863 73.7508 887.812 68.8897 Q883.761 64.0286 883.761 54.671 M902.516 26.1121 L902.516 26.1121 Z" fill="#000000" fill-rule="nonzero" fill-opacity="1" /><path clip-path="url(#clip730)" d="M963.402 34.1734 Q962.146 33.4443 960.647 33.1202 Q959.189 32.7556 957.406 32.7556 Q951.087 32.7556 947.684 36.8875 Q944.322 40.9789 944.322 48.6757 L944.322 72.576 L936.828 72.576 L936.828 27.2059 L944.322 27.2059 L944.322 34.2544 Q946.671 30.1225 950.439 28.1376 Q954.206 26.1121 959.594 26.1121 Q960.363 26.1121 961.295 26.2337 Q962.227 26.3147 963.361 26.5172 L963.402 34.1734 Z" fill="#000000" fill-rule="nonzero" fill-opacity="1" /><path clip-path="url(#clip730)" d="M1008.2 48.0275 L1008.2 51.6733 L973.934 51.6733 Q974.42 59.3701 978.552 63.421 Q982.724 67.4314 990.138 67.4314 Q994.431 67.4314 998.442 66.3781 Q1002.49 65.3249 1006.46 63.2184 L1006.46 70.267 Q1002.45 71.9684 998.239 72.8596 Q994.026 73.7508 989.692 73.7508 Q978.836 73.7508 972.476 67.4314 Q966.156 61.1119 966.156 50.3365 Q966.156 39.1965 972.152 32.6746 Q978.187 26.1121 988.396 26.1121 Q997.551 26.1121 1002.86 32.0264 Q1008.2 37.9003 1008.2 48.0275 M1000.75 45.84 Q1000.67 39.7232 997.308 36.0774 Q993.986 32.4315 988.477 32.4315 Q982.238 32.4315 978.471 35.9558 Q974.744 39.4801 974.177 45.8805 L1000.75 45.84 Z" fill="#000000" fill-rule="nonzero" fill-opacity="1" /><path clip-path="url(#clip730)" d="M1079.46 28.9478 L1079.46 35.9153 Q1076.3 34.1734 1073.1 33.3227 Q1069.94 32.4315 1066.7 32.4315 Q1059.45 32.4315 1055.44 37.0496 Q1051.43 41.6271 1051.43 49.9314 Q1051.43 58.2358 1055.44 62.8538 Q1059.45 67.4314 1066.7 67.4314 Q1069.94 67.4314 1073.1 66.5807 Q1076.3 65.6895 1079.46 63.9476 L1079.46 70.8341 Q1076.34 72.2924 1072.98 73.0216 Q1069.66 73.7508 1065.89 73.7508 Q1055.64 73.7508 1049.6 67.3098 Q1043.57 60.8689 1043.57 49.9314 Q1043.57 38.832 1049.65 32.472 Q1055.76 26.1121 1066.38 26.1121 Q1069.82 26.1121 1073.1 26.8413 Q1076.38 27.5299 1079.46 28.9478 Z" fill="#000000" fill-rule="nonzero" fill-opacity="1" /><path clip-path="url(#clip730)" d="M1130.14 45.1919 L1130.14 72.576 L1122.68 72.576 L1122.68 45.4349 Q1122.68 38.994 1120.17 35.7938 Q1117.66 32.5936 1112.64 32.5936 Q1106.6 32.5936 1103.12 36.4419 Q1099.63 40.2903 1099.63 46.9338 L1099.63 72.576 L1092.14 72.576 L1092.14 9.54393 L1099.63 9.54393 L1099.63 34.2544 Q1102.31 30.163 1105.91 28.1376 Q1109.56 26.1121 1114.3 26.1121 Q1122.12 26.1121 1126.13 30.9732 Q1130.14 35.7938 1130.14 45.1919 Z" fill="#000000" fill-rule="nonzero" fill-opacity="1" /><path clip-path="url(#clip730)" d="M1162.58 32.4315 Q1156.59 32.4315 1153.11 37.1306 Q1149.62 41.7891 1149.62 49.9314 Q1149.62 58.0738 1153.06 62.7728 Q1156.55 67.4314 1162.58 67.4314 Q1168.54 67.4314 1172.02 62.7323 Q1175.51 58.0333 1175.51 49.9314 Q1175.51 41.8701 1172.02 37.1711 Q1168.54 32.4315 1162.58 32.4315 M1162.58 26.1121 Q1172.31 26.1121 1177.86 32.4315 Q1183.41 38.7509 1183.41 49.9314 Q1183.41 61.0714 1177.86 67.4314 Q1172.31 73.7508 1162.58 73.7508 Q1152.82 73.7508 1147.27 67.4314 Q1141.76 61.0714 1141.76 49.9314 Q1141.76 38.7509 1147.27 32.4315 Q1152.82 26.1121 1162.58 26.1121 Z" fill="#000000" fill-rule="nonzero" fill-opacity="1" /><path clip-path="url(#clip730)" d="M1195.76 27.2059 L1203.22 27.2059 L1203.22 72.576 L1195.76 72.576 L1195.76 27.2059 M1195.76 9.54393 L1203.22 9.54393 L1203.22 18.9825 L1195.76 18.9825 L1195.76 9.54393 Z" fill="#000000" fill-rule="nonzero" fill-opacity="1" /><path clip-path="url(#clip730)" d="M1251.46 28.9478 L1251.46 35.9153 Q1248.3 34.1734 1245.1 33.3227 Q1241.94 32.4315 1238.7 32.4315 Q1231.45 32.4315 1227.44 37.0496 Q1223.43 41.6271 1223.43 49.9314 Q1223.43 58.2358 1227.44 62.8538 Q1231.45 67.4314 1238.7 67.4314 Q1241.94 67.4314 1245.1 66.5807 Q1248.3 65.6895 1251.46 63.9476 L1251.46 70.8341 Q1248.34 72.2924 1244.98 73.0216 Q1241.66 73.7508 1237.89 73.7508 Q1227.64 73.7508 1221.61 67.3098 Q1215.57 60.8689 1215.57 49.9314 Q1215.57 38.832 1221.65 32.472 Q1227.76 26.1121 1238.38 26.1121 Q1241.82 26.1121 1245.1 26.8413 Q1248.38 27.5299 1251.46 28.9478 Z" fill="#000000" fill-rule="nonzero" fill-opacity="1" /><path clip-path="url(#clip730)" d="M1303.23 48.0275 L1303.23 51.6733 L1268.96 51.6733 Q1269.45 59.3701 1273.58 63.421 Q1277.75 67.4314 1285.16 67.4314 Q1289.46 67.4314 1293.47 66.3781 Q1297.52 65.3249 1301.49 63.2184 L1301.49 70.267 Q1297.48 71.9684 1293.27 72.8596 Q1289.05 73.7508 1284.72 73.7508 Q1273.86 73.7508 1267.5 67.4314 Q1261.18 61.1119 1261.18 50.3365 Q1261.18 39.1965 1267.18 32.6746 Q1273.21 26.1121 1283.42 26.1121 Q1292.58 26.1121 1297.88 32.0264 Q1303.23 37.9003 1303.23 48.0275 M1295.78 45.84 Q1295.7 39.7232 1292.33 36.0774 Q1289.01 32.4315 1283.5 32.4315 Q1277.27 32.4315 1273.5 35.9558 Q1269.77 39.4801 1269.2 45.8805 L1295.78 45.84 Z" fill="#000000" fill-rule="nonzero" fill-opacity="1" /><path clip-path="url(#clip730)" d="M1377.16 35.9153 Q1379.96 30.8922 1383.84 28.5022 Q1387.73 26.1121 1393 26.1121 Q1400.09 26.1121 1403.94 31.0947 Q1407.79 36.0368 1407.79 45.1919 L1407.79 72.576 L1400.29 72.576 L1400.29 45.4349 Q1400.29 38.913 1397.98 35.7533 Q1395.67 32.5936 1390.93 32.5936 Q1385.14 32.5936 1381.78 36.4419 Q1378.42 40.2903 1378.42 46.9338 L1378.42 72.576 L1370.92 72.576 L1370.92 45.4349 Q1370.92 38.8725 1368.61 35.7533 Q1366.3 32.5936 1361.48 32.5936 Q1355.77 32.5936 1352.41 36.4824 Q1349.05 40.3308 1349.05 46.9338 L1349.05 72.576 L1341.55 72.576 L1341.55 27.2059 L1349.05 27.2059 L1349.05 34.2544 Q1351.6 30.082 1355.16 28.0971 Q1358.73 26.1121 1363.63 26.1121 Q1368.57 26.1121 1372.02 28.6237 Q1375.5 31.1352 1377.16 35.9153 Z" fill="#000000" fill-rule="nonzero" fill-opacity="1" /><path clip-path="url(#clip730)" d="M1443.27 49.7694 Q1434.24 49.7694 1430.75 51.8354 Q1427.27 53.9013 1427.27 58.8839 Q1427.27 62.8538 1429.86 65.2034 Q1432.5 67.5124 1436.99 67.5124 Q1443.19 67.5124 1446.92 63.1374 Q1450.68 58.7219 1450.68 51.4303 L1450.68 49.7694 L1443.27 49.7694 M1458.14 46.6907 L1458.14 72.576 L1450.68 72.576 L1450.68 65.6895 Q1448.13 69.8214 1444.32 71.8063 Q1440.52 73.7508 1435.01 73.7508 Q1428.04 73.7508 1423.91 69.8619 Q1419.82 65.9325 1419.82 59.3701 Q1419.82 51.7138 1424.92 47.825 Q1430.07 43.9361 1440.23 43.9361 L1450.68 43.9361 L1450.68 43.2069 Q1450.68 38.0623 1447.28 35.2672 Q1443.92 32.4315 1437.8 32.4315 Q1433.91 32.4315 1430.23 33.3632 Q1426.54 34.295 1423.14 36.1584 L1423.14 29.2718 Q1427.23 27.692 1431.08 26.9223 Q1434.93 26.1121 1438.57 26.1121 Q1448.42 26.1121 1453.28 31.2163 Q1458.14 36.3204 1458.14 46.6907 Z" fill="#000000" fill-rule="nonzero" fill-opacity="1" /><path clip-path="url(#clip730)" d="M1480.86 14.324 L1480.86 27.2059 L1496.22 27.2059 L1496.22 32.9987 L1480.86 32.9987 L1480.86 57.6282 Q1480.86 63.1779 1482.36 64.7578 Q1483.9 66.3376 1488.56 66.3376 L1496.22 66.3376 L1496.22 72.576 L1488.56 72.576 Q1479.93 72.576 1476.65 69.3758 Q1473.37 66.1351 1473.37 57.6282 L1473.37 32.9987 L1467.9 32.9987 L1467.9 27.2059 L1473.37 27.2059 L1473.37 14.324 L1480.86 14.324 Z" fill="#000000" fill-rule="nonzero" fill-opacity="1" /><path clip-path="url(#clip730)" d="M1513.39 14.324 L1513.39 27.2059 L1528.75 27.2059 L1528.75 32.9987 L1513.39 32.9987 L1513.39 57.6282 Q1513.39 63.1779 1514.89 64.7578 Q1516.43 66.3376 1521.09 66.3376 L1528.75 66.3376 L1528.75 72.576 L1521.09 72.576 Q1512.46 72.576 1509.18 69.3758 Q1505.9 66.1351 1505.9 57.6282 L1505.9 32.9987 L1500.43 32.9987 L1500.43 27.2059 L1505.9 27.2059 L1505.9 14.324 L1513.39 14.324 Z" fill="#000000" fill-rule="nonzero" fill-opacity="1" /><path clip-path="url(#clip730)" d="M1577.36 48.0275 L1577.36 51.6733 L1543.09 51.6733 Q1543.57 59.3701 1547.7 63.421 Q1551.88 67.4314 1559.29 67.4314 Q1563.58 67.4314 1567.59 66.3781 Q1571.64 65.3249 1575.61 63.2184 L1575.61 70.267 Q1571.6 71.9684 1567.39 72.8596 Q1563.18 73.7508 1558.84 73.7508 Q1547.99 73.7508 1541.63 67.4314 Q1535.31 61.1119 1535.31 50.3365 Q1535.31 39.1965 1541.3 32.6746 Q1547.34 26.1121 1557.55 26.1121 Q1566.7 26.1121 1572.01 32.0264 Q1577.36 37.9003 1577.36 48.0275 M1569.9 45.84 Q1569.82 39.7232 1566.46 36.0774 Q1563.14 32.4315 1557.63 32.4315 Q1551.39 32.4315 1547.62 35.9558 Q1543.9 39.4801 1543.33 45.8805 L1569.9 45.84 Z" fill="#000000" fill-rule="nonzero" fill-opacity="1" /><path clip-path="url(#clip730)" d="M1615.88 34.1734 Q1614.62 33.4443 1613.13 33.1202 Q1611.67 32.7556 1609.89 32.7556 Q1603.57 32.7556 1600.16 36.8875 Q1596.8 40.9789 1596.8 48.6757 L1596.8 72.576 L1589.31 72.576 L1589.31 27.2059 L1596.8 27.2059 L1596.8 34.2544 Q1599.15 30.1225 1602.92 28.1376 Q1606.69 26.1121 1612.07 26.1121 Q1612.84 26.1121 1613.77 26.2337 Q1614.71 26.3147 1615.84 26.5172 L1615.88 34.1734 Z" fill="#000000" fill-rule="nonzero" fill-opacity="1" /><path clip-path="url(#clip730)" d="M1652.62 28.5427 L1652.62 35.5912 Q1649.46 33.9709 1646.06 33.1607 Q1642.66 32.3505 1639.01 32.3505 Q1633.46 32.3505 1630.67 34.0519 Q1627.91 35.7533 1627.91 39.156 Q1627.91 41.7486 1629.9 43.2475 Q1631.88 44.7058 1637.88 46.0426 L1640.43 46.6097 Q1648.37 48.3111 1651.69 51.4303 Q1655.05 54.509 1655.05 60.0587 Q1655.05 66.3781 1650.03 70.0644 Q1645.05 73.7508 1636.3 73.7508 Q1632.65 73.7508 1628.68 73.0216 Q1624.75 72.3329 1620.38 70.9151 L1620.38 63.2184 Q1624.51 65.3654 1628.52 66.4591 Q1632.53 67.5124 1636.46 67.5124 Q1641.73 67.5124 1644.56 65.73 Q1647.4 63.9071 1647.4 60.6258 Q1647.4 57.5877 1645.33 55.9673 Q1643.31 54.3469 1636.38 52.8481 L1633.79 52.2405 Q1626.86 50.7821 1623.78 47.7845 Q1620.7 44.7463 1620.7 39.4801 Q1620.7 33.0797 1625.24 29.5959 Q1629.78 26.1121 1638.12 26.1121 Q1642.25 26.1121 1645.9 26.7198 Q1649.54 27.3274 1652.62 28.5427 Z" fill="#000000" fill-rule="nonzero" fill-opacity="1" /><path clip-path="url(#clip730)" d="M1688.96 27.2059 L1696.41 27.2059 L1705.73 62.6108 L1715.01 27.2059 L1723.8 27.2059 L1733.11 62.6108 L1742.39 27.2059 L1749.84 27.2059 L1737.97 72.576 L1729.18 72.576 L1719.42 35.3887 L1709.62 72.576 L1700.83 72.576 L1688.96 27.2059 Z" fill="#000000" fill-rule="nonzero" fill-opacity="1" /><path clip-path="url(#clip730)" d="M1798.86 45.1919 L1798.86 72.576 L1791.41 72.576 L1791.41 45.4349 Q1791.41 38.994 1788.89 35.7938 Q1786.38 32.5936 1781.36 32.5936 Q1775.32 32.5936 1771.84 36.4419 Q1768.36 40.2903 1768.36 46.9338 L1768.36 72.576 L1760.86 72.576 L1760.86 9.54393 L1768.36 9.54393 L1768.36 34.2544 Q1771.03 30.163 1774.64 28.1376 Q1778.28 26.1121 1783.02 26.1121 Q1790.84 26.1121 1794.85 30.9732 Q1798.86 35.7938 1798.86 45.1919 Z" fill="#000000" fill-rule="nonzero" fill-opacity="1" /><path clip-path="url(#clip730)" d="M1852.53 48.0275 L1852.53 51.6733 L1818.26 51.6733 Q1818.75 59.3701 1822.88 63.421 Q1827.05 67.4314 1834.47 67.4314 Q1838.76 67.4314 1842.77 66.3781 Q1846.82 65.3249 1850.79 63.2184 L1850.79 70.267 Q1846.78 71.9684 1842.57 72.8596 Q1838.36 73.7508 1834.02 73.7508 Q1823.17 73.7508 1816.81 67.4314 Q1810.49 61.1119 1810.49 50.3365 Q1810.49 39.1965 1816.48 32.6746 Q1822.52 26.1121 1832.73 26.1121 Q1841.88 26.1121 1847.19 32.0264 Q1852.53 37.9003 1852.53 48.0275 M1845.08 45.84 Q1845 39.7232 1841.64 36.0774 Q1838.32 32.4315 1832.81 32.4315 Q1826.57 32.4315 1822.8 35.9558 Q1819.07 39.4801 1818.51 45.8805 L1845.08 45.84 Z" fill="#000000" fill-rule="nonzero" fill-opacity="1" /><path clip-path="url(#clip730)" d="M1902.48 45.1919 L1902.48 72.576 L1895.03 72.576 L1895.03 45.4349 Q1895.03 38.994 1892.52 35.7938 Q1890.01 32.5936 1884.98 32.5936 Q1878.95 32.5936 1875.46 36.4419 Q1871.98 40.2903 1871.98 46.9338 L1871.98 72.576 L1864.48 72.576 L1864.48 27.2059 L1871.98 27.2059 L1871.98 34.2544 Q1874.65 30.163 1878.26 28.1376 Q1881.9 26.1121 1886.64 26.1121 Q1894.46 26.1121 1898.47 30.9732 Q1902.48 35.7938 1902.48 45.1919 Z" fill="#000000" fill-rule="nonzero" fill-opacity="1" /><path clip-path="url(#clip730)" d="M1966.85 9.54393 L1966.85 26.2742 Q1974.91 26.2742 1980.3 32.472 Q1985.85 38.7915 1985.85 49.9314 Q1985.85 61.0714 1980.3 67.3908 Q1974.91 73.5887 1966.85 73.5887 L1966.85 89.8329 L1959.44 89.8329 L1959.44 73.5887 Q1951.38 73.5887 1945.95 67.3908 Q1940.44 61.0714 1940.44 49.9314 Q1940.44 38.7915 1945.95 32.472 Q1951.38 26.2742 1959.44 26.2742 L1959.44 9.54393 L1966.85 9.54393 M1966.85 66.9452 Q1971.43 66.9452 1974.55 62.7728 Q1977.95 58.1143 1977.99 49.9314 Q1978.03 41.8296 1974.55 37.0901 Q1971.43 32.9176 1966.85 32.9176 L1966.85 66.9452 M1959.44 66.9452 L1959.44 32.9176 Q1954.86 32.9176 1951.78 37.0901 Q1948.26 41.8296 1948.3 49.9314 Q1948.34 58.1143 1951.78 62.7728 Q1954.86 66.9452 1959.44 66.9452 Z" fill="#000000" fill-rule="nonzero" fill-opacity="1" /><path clip-path="url(#clip730)" d="M2025.79 31.7429 L2025.79 24.3702 L2077.72 43.2069 L2077.72 49.9314 L2025.79 68.7682 L2025.79 61.3955 L2067.52 46.6097 L2025.79 31.7429 Z" fill="#000000" fill-rule="nonzero" fill-opacity="1" /><path clip-path="url(#clip730)" d="M2139.26 17.4837 Q2132.94 17.4837 2129.74 23.7221 Q2126.58 29.92 2126.58 42.3968 Q2126.58 54.833 2129.74 61.0714 Q2132.94 67.2693 2139.26 67.2693 Q2145.62 67.2693 2148.78 61.0714 Q2151.98 54.833 2151.98 42.3968 Q2151.98 29.92 2148.78 23.7221 Q2145.62 17.4837 2139.26 17.4837 M2139.26 11.0023 Q2149.43 11.0023 2154.77 19.0636 Q2160.16 27.0843 2160.16 42.3968 Q2160.16 57.6687 2154.77 65.73 Q2149.43 73.7508 2139.26 73.7508 Q2129.09 73.7508 2123.7 65.73 Q2118.35 57.6687 2118.35 42.3968 Q2118.35 27.0843 2123.7 19.0636 Q2129.09 11.0023 2139.26 11.0023 Z" fill="#000000" fill-rule="nonzero" fill-opacity="1" /><polyline clip-path="url(#clip731)" style="stroke:#009af9; stroke-linecap:round; stroke-linejoin:round; stroke-width:8; stroke-opacity:1; fill:none" stroke-dasharray="32, 20" points="294.164,407.553 484.018,407.553 673.871,407.553 863.725,407.553 1053.58,407.553 1243.43,407.553 1433.29,407.553 1623.14,407.553 1812.99,407.553 2002.85,407.553 2192.7,407.553 2382.55,407.553 2572.41,407.553 "/>
<polyline clip-path="url(#clip731)" style="stroke:#e26f46; stroke-linecap:round; stroke-linejoin:round; stroke-width:8; stroke-opacity:1; fill:none" points="294.164,407.553 484.018,407.308 673.871,407.023 863.725,406.703 1053.58,406.358 1243.43,406.003 1433.29,405.658 1623.14,405.343 1812.99,405.076 2002.85,404.871 2192.7,404.737 2382.55,404.684 2572.41,404.738 "/>
<polyline clip-path="url(#clip731)" style="stroke:#3da44d; stroke-linecap:round; stroke-linejoin:round; stroke-width:8; stroke-opacity:1; fill:none" points="294.164,407.553 484.018,407.239 673.871,406.737 863.725,405.988 1053.58,404.984 1243.43,403.989 1433.29,403.757 1623.14,403.757 1812.99,402.411 2002.85,173.254 2192.7,1267.73 2382.55,1688.65 2572.41,1546.96 "/>
<path clip-path="url(#clip730)" d="M306.314 1680.57 L1224.33 1680.57 L1224.33 1473.21 L306.314 1473.21  Z" fill="#ffffff" fill-rule="evenodd" fill-opacity="1"/>
<polyline clip-path="url(#clip730)" style="stroke:#000000; stroke-linecap:round; stroke-linejoin:round; stroke-width:4; stroke-opacity:1; fill:none" points="306.314,1680.57 1224.33,1680.57 1224.33,1473.21 306.314,1473.21 306.314,1680.57 "/>
<polyline clip-path="url(#clip730)" style="stroke:#009af9; stroke-linecap:round; stroke-linejoin:round; stroke-width:8; stroke-opacity:1; fill:none" stroke-dasharray="32, 20" points="333.147,1525.05 494.143,1525.05 "/>
<path clip-path="url(#clip730)" d="M525.652 1525.83 L525.652 1538.49 L533.152 1538.49 Q536.925 1538.49 538.73 1536.94 Q540.559 1535.37 540.559 1532.15 Q540.559 1528.91 538.73 1527.38 Q536.925 1525.83 533.152 1525.83 L525.652 1525.83 M525.652 1511.62 L525.652 1522.03 L532.573 1522.03 Q535.999 1522.03 537.665 1520.76 Q539.355 1519.46 539.355 1516.82 Q539.355 1514.21 537.665 1512.91 Q535.999 1511.62 532.573 1511.62 L525.652 1511.62 M520.976 1507.77 L532.92 1507.77 Q538.267 1507.77 541.161 1510 Q544.054 1512.22 544.054 1516.31 Q544.054 1519.49 542.573 1521.36 Q541.091 1523.24 538.221 1523.7 Q541.67 1524.44 543.568 1526.8 Q545.49 1529.14 545.49 1532.66 Q545.49 1537.29 542.341 1539.81 Q539.193 1542.33 533.383 1542.33 L520.976 1542.33 L520.976 1507.77 Z" fill="#000000" fill-rule="nonzero" fill-opacity="1" /><path clip-path="url(#clip730)" d="M575.489 1528.31 L575.489 1530.39 L555.906 1530.39 Q556.184 1534.79 558.545 1537.1 Q560.929 1539.39 565.165 1539.39 Q567.619 1539.39 569.911 1538.79 Q572.225 1538.19 574.494 1536.99 L574.494 1541.01 Q572.202 1541.99 569.795 1542.49 Q567.388 1543 564.911 1543 Q558.707 1543 555.073 1539.39 Q551.462 1535.78 551.462 1529.62 Q551.462 1523.26 554.888 1519.53 Q558.337 1515.78 564.17 1515.78 Q569.401 1515.78 572.434 1519.16 Q575.489 1522.52 575.489 1528.31 M571.23 1527.06 Q571.184 1523.56 569.263 1521.48 Q567.364 1519.39 564.216 1519.39 Q560.651 1519.39 558.499 1521.41 Q556.369 1523.42 556.045 1527.08 L571.23 1527.06 Z" fill="#000000" fill-rule="nonzero" fill-opacity="1" /><path clip-path="url(#clip730)" d="M597.503 1520.39 Q596.786 1519.97 595.929 1519.79 Q595.096 1519.58 594.077 1519.58 Q590.466 1519.58 588.522 1521.94 Q586.6 1524.28 586.6 1528.68 L586.6 1542.33 L582.318 1542.33 L582.318 1516.41 L586.6 1516.41 L586.6 1520.43 Q587.943 1518.07 590.096 1516.94 Q592.249 1515.78 595.327 1515.78 Q595.767 1515.78 596.299 1515.85 Q596.832 1515.9 597.48 1516.01 L597.503 1520.39 Z" fill="#000000" fill-rule="nonzero" fill-opacity="1" /><path clip-path="url(#clip730)" d="M622.688 1526.68 L622.688 1542.33 L618.429 1542.33 L618.429 1526.82 Q618.429 1523.14 616.994 1521.31 Q615.559 1519.49 612.688 1519.49 Q609.239 1519.49 607.248 1521.68 Q605.258 1523.88 605.258 1527.68 L605.258 1542.33 L600.975 1542.33 L600.975 1516.41 L605.258 1516.41 L605.258 1520.43 Q606.785 1518.1 608.846 1516.94 Q610.929 1515.78 613.637 1515.78 Q618.105 1515.78 620.397 1518.56 Q622.688 1521.31 622.688 1526.68 Z" fill="#000000" fill-rule="nonzero" fill-opacity="1" /><path clip-path="url(#clip730)" d="M641.23 1519.39 Q637.804 1519.39 635.813 1522.08 Q633.822 1524.74 633.822 1529.39 Q633.822 1534.05 635.79 1536.73 Q637.781 1539.39 641.23 1539.39 Q644.632 1539.39 646.623 1536.71 Q648.614 1534.02 648.614 1529.39 Q648.614 1524.79 646.623 1522.1 Q644.632 1519.39 641.23 1519.39 M641.23 1515.78 Q646.785 1515.78 649.957 1519.39 Q653.128 1523 653.128 1529.39 Q653.128 1535.76 649.957 1539.39 Q646.785 1543 641.23 1543 Q635.651 1543 632.48 1539.39 Q629.332 1535.76 629.332 1529.39 Q629.332 1523 632.48 1519.39 Q635.651 1515.78 641.23 1515.78 Z" fill="#000000" fill-rule="nonzero" fill-opacity="1" /><path clip-path="url(#clip730)" d="M659.748 1532.1 L659.748 1516.41 L664.007 1516.41 L664.007 1531.94 Q664.007 1535.62 665.443 1537.47 Q666.878 1539.3 669.748 1539.3 Q673.197 1539.3 675.188 1537.1 Q677.202 1534.9 677.202 1531.11 L677.202 1516.41 L681.461 1516.41 L681.461 1542.33 L677.202 1542.33 L677.202 1538.35 Q675.651 1540.71 673.591 1541.87 Q671.554 1543 668.845 1543 Q664.378 1543 662.063 1540.23 Q659.748 1537.45 659.748 1532.1 M670.466 1515.78 L670.466 1515.78 Z" fill="#000000" fill-rule="nonzero" fill-opacity="1" /><path clip-path="url(#clip730)" d="M690.234 1506.31 L694.493 1506.31 L694.493 1542.33 L690.234 1542.33 L690.234 1506.31 Z" fill="#000000" fill-rule="nonzero" fill-opacity="1" /><path clip-path="url(#clip730)" d="M703.405 1506.31 L707.665 1506.31 L707.665 1542.33 L703.405 1542.33 L703.405 1506.31 Z" fill="#000000" fill-rule="nonzero" fill-opacity="1" /><path clip-path="url(#clip730)" d="M716.577 1516.41 L720.836 1516.41 L720.836 1542.33 L716.577 1542.33 L716.577 1516.41 M716.577 1506.31 L720.836 1506.31 L720.836 1511.71 L716.577 1511.71 L716.577 1506.31 Z" fill="#000000" fill-rule="nonzero" fill-opacity="1" /><path clip-path="url(#clip730)" d="M755.049 1506.36 Q751.947 1511.68 750.442 1516.89 Q748.937 1522.1 748.937 1527.45 Q748.937 1532.8 750.442 1538.05 Q751.97 1543.28 755.049 1548.58 L751.345 1548.58 Q747.873 1543.14 746.137 1537.89 Q744.424 1532.63 744.424 1527.45 Q744.424 1522.29 746.137 1517.06 Q747.85 1511.82 751.345 1506.36 L755.049 1506.36 Z" fill="#000000" fill-rule="nonzero" fill-opacity="1" /><path clip-path="url(#clip730)" d="M763.312 1516.41 L767.572 1516.41 L767.572 1542.33 L763.312 1542.33 L763.312 1516.41 M763.312 1506.31 L767.572 1506.31 L767.572 1511.71 L763.312 1511.71 L763.312 1506.31 Z" fill="#000000" fill-rule="nonzero" fill-opacity="1" /><path clip-path="url(#clip730)" d="M793.544 1529.07 Q793.544 1524.44 791.622 1521.89 Q789.724 1519.35 786.275 1519.35 Q782.849 1519.35 780.928 1521.89 Q779.03 1524.44 779.03 1529.07 Q779.03 1533.68 780.928 1536.22 Q782.849 1538.77 786.275 1538.77 Q789.724 1538.77 791.622 1536.22 Q793.544 1533.68 793.544 1529.07 M797.803 1539.12 Q797.803 1545.74 794.863 1548.95 Q791.923 1552.19 785.859 1552.19 Q783.613 1552.19 781.622 1551.85 Q779.632 1551.52 777.757 1550.83 L777.757 1546.68 Q779.632 1547.7 781.46 1548.19 Q783.289 1548.68 785.187 1548.68 Q789.377 1548.68 791.46 1546.48 Q793.544 1544.3 793.544 1539.88 L793.544 1537.77 Q792.224 1540.06 790.164 1541.2 Q788.104 1542.33 785.234 1542.33 Q780.465 1542.33 777.548 1538.7 Q774.632 1535.06 774.632 1529.07 Q774.632 1523.05 777.548 1519.42 Q780.465 1515.78 785.234 1515.78 Q788.104 1515.78 790.164 1516.92 Q792.224 1518.05 793.544 1520.34 L793.544 1516.41 L797.803 1516.41 L797.803 1539.12 Z" fill="#000000" fill-rule="nonzero" fill-opacity="1" /><path clip-path="url(#clip730)" d="M828.127 1526.68 L828.127 1542.33 L823.868 1542.33 L823.868 1526.82 Q823.868 1523.14 822.432 1521.31 Q820.997 1519.49 818.127 1519.49 Q814.678 1519.49 812.687 1521.68 Q810.696 1523.88 810.696 1527.68 L810.696 1542.33 L806.414 1542.33 L806.414 1516.41 L810.696 1516.41 L810.696 1520.43 Q812.224 1518.1 814.284 1516.94 Q816.368 1515.78 819.076 1515.78 Q823.544 1515.78 825.835 1518.56 Q828.127 1521.31 828.127 1526.68 Z" fill="#000000" fill-rule="nonzero" fill-opacity="1" /><path clip-path="url(#clip730)" d="M846.668 1519.39 Q843.243 1519.39 841.252 1522.08 Q839.261 1524.74 839.261 1529.39 Q839.261 1534.05 841.229 1536.73 Q843.219 1539.39 846.668 1539.39 Q850.071 1539.39 852.062 1536.71 Q854.053 1534.02 854.053 1529.39 Q854.053 1524.79 852.062 1522.1 Q850.071 1519.39 846.668 1519.39 M846.668 1515.78 Q852.224 1515.78 855.395 1519.39 Q858.567 1523 858.567 1529.39 Q858.567 1535.76 855.395 1539.39 Q852.224 1543 846.668 1543 Q841.09 1543 837.918 1539.39 Q834.77 1535.76 834.77 1529.39 Q834.77 1523 837.918 1519.39 Q841.09 1515.78 846.668 1515.78 Z" fill="#000000" fill-rule="nonzero" fill-opacity="1" /><path clip-path="url(#clip730)" d="M880.65 1520.39 Q879.932 1519.97 879.076 1519.79 Q878.242 1519.58 877.224 1519.58 Q873.613 1519.58 871.668 1521.94 Q869.747 1524.28 869.747 1528.68 L869.747 1542.33 L865.465 1542.33 L865.465 1516.41 L869.747 1516.41 L869.747 1520.43 Q871.09 1518.07 873.242 1516.94 Q875.395 1515.78 878.474 1515.78 Q878.914 1515.78 879.446 1515.85 Q879.978 1515.9 880.627 1516.01 L880.65 1520.39 Z" fill="#000000" fill-rule="nonzero" fill-opacity="1" /><path clip-path="url(#clip730)" d="M906.251 1528.31 L906.251 1530.39 L886.668 1530.39 Q886.946 1534.79 889.307 1537.1 Q891.691 1539.39 895.927 1539.39 Q898.381 1539.39 900.673 1538.79 Q902.988 1538.19 905.256 1536.99 L905.256 1541.01 Q902.964 1541.99 900.557 1542.49 Q898.15 1543 895.673 1543 Q889.469 1543 885.835 1539.39 Q882.224 1535.78 882.224 1529.62 Q882.224 1523.26 885.65 1519.53 Q889.099 1515.78 894.932 1515.78 Q900.164 1515.78 903.196 1519.16 Q906.251 1522.52 906.251 1528.31 M901.992 1527.06 Q901.946 1523.56 900.025 1521.48 Q898.126 1519.39 894.978 1519.39 Q891.414 1519.39 889.261 1521.41 Q887.131 1523.42 886.807 1527.08 L901.992 1527.06 Z" fill="#000000" fill-rule="nonzero" fill-opacity="1" /><path clip-path="url(#clip730)" d="M929.77 1517.17 L929.77 1521.2 Q927.964 1520.27 926.02 1519.81 Q924.075 1519.35 921.992 1519.35 Q918.821 1519.35 917.224 1520.32 Q915.65 1521.29 915.65 1523.24 Q915.65 1524.72 916.784 1525.57 Q917.918 1526.41 921.344 1527.17 L922.802 1527.49 Q927.339 1528.47 929.237 1530.25 Q931.159 1532.01 931.159 1535.18 Q931.159 1538.79 928.288 1540.9 Q925.441 1543 920.441 1543 Q918.358 1543 916.089 1542.59 Q913.844 1542.19 911.344 1541.38 L911.344 1536.99 Q913.705 1538.21 915.997 1538.84 Q918.288 1539.44 920.534 1539.44 Q923.543 1539.44 925.163 1538.42 Q926.784 1537.38 926.784 1535.5 Q926.784 1533.77 925.603 1532.84 Q924.446 1531.92 920.487 1531.06 L919.006 1530.71 Q915.048 1529.88 913.288 1528.17 Q911.529 1526.43 911.529 1523.42 Q911.529 1519.76 914.122 1517.77 Q916.714 1515.78 921.483 1515.78 Q923.844 1515.78 925.927 1516.13 Q928.011 1516.48 929.77 1517.17 Z" fill="#000000" fill-rule="nonzero" fill-opacity="1" /><path clip-path="url(#clip730)" d="M971.668 1517.4 L971.668 1521.38 Q969.862 1520.39 968.034 1519.9 Q966.228 1519.39 964.376 1519.39 Q960.233 1519.39 957.941 1522.03 Q955.649 1524.65 955.649 1529.39 Q955.649 1534.14 957.941 1536.78 Q960.233 1539.39 964.376 1539.39 Q966.228 1539.39 968.034 1538.91 Q969.862 1538.4 971.668 1537.4 L971.668 1541.34 Q969.885 1542.17 967.964 1542.59 Q966.066 1543 963.913 1543 Q958.057 1543 954.608 1539.32 Q951.159 1535.64 951.159 1529.39 Q951.159 1523.05 954.631 1519.42 Q958.126 1515.78 964.191 1515.78 Q966.159 1515.78 968.034 1516.2 Q969.909 1516.59 971.668 1517.4 Z" fill="#000000" fill-rule="nonzero" fill-opacity="1" /><path clip-path="url(#clip730)" d="M979.075 1506.31 L983.334 1506.31 L983.334 1542.33 L979.075 1542.33 L979.075 1506.31 Z" fill="#000000" fill-rule="nonzero" fill-opacity="1" /><path clip-path="url(#clip730)" d="M991.807 1532.1 L991.807 1516.41 L996.066 1516.41 L996.066 1531.94 Q996.066 1535.62 997.501 1537.47 Q998.936 1539.3 1001.81 1539.3 Q1005.26 1539.3 1007.25 1537.1 Q1009.26 1534.9 1009.26 1531.11 L1009.26 1516.41 L1013.52 1516.41 L1013.52 1542.33 L1009.26 1542.33 L1009.26 1538.35 Q1007.71 1540.71 1005.65 1541.87 Q1003.61 1543 1000.9 1543 Q996.436 1543 994.121 1540.23 Q991.807 1537.45 991.807 1532.1 M1002.52 1515.78 L1002.52 1515.78 Z" fill="#000000" fill-rule="nonzero" fill-opacity="1" /><path clip-path="url(#clip730)" d="M1038.82 1517.17 L1038.82 1521.2 Q1037.01 1520.27 1035.07 1519.81 Q1033.13 1519.35 1031.04 1519.35 Q1027.87 1519.35 1026.27 1520.32 Q1024.7 1521.29 1024.7 1523.24 Q1024.7 1524.72 1025.83 1525.57 Q1026.97 1526.41 1030.39 1527.17 L1031.85 1527.49 Q1036.39 1528.47 1038.29 1530.25 Q1040.21 1532.01 1040.21 1535.18 Q1040.21 1538.79 1037.34 1540.9 Q1034.49 1543 1029.49 1543 Q1027.41 1543 1025.14 1542.59 Q1022.89 1542.19 1020.39 1541.38 L1020.39 1536.99 Q1022.76 1538.21 1025.05 1538.84 Q1027.34 1539.44 1029.58 1539.44 Q1032.59 1539.44 1034.21 1538.42 Q1035.83 1537.38 1035.83 1535.5 Q1035.83 1533.77 1034.65 1532.84 Q1033.5 1531.92 1029.54 1531.06 L1028.06 1530.71 Q1024.1 1529.88 1022.34 1528.17 Q1020.58 1526.43 1020.58 1523.42 Q1020.58 1519.76 1023.17 1517.77 Q1025.76 1515.78 1030.53 1515.78 Q1032.89 1515.78 1034.98 1516.13 Q1037.06 1516.48 1038.82 1517.17 Z" fill="#000000" fill-rule="nonzero" fill-opacity="1" /><path clip-path="url(#clip730)" d="M1051.2 1509.05 L1051.2 1516.41 L1059.98 1516.41 L1059.98 1519.72 L1051.2 1519.72 L1051.2 1533.79 Q1051.2 1536.96 1052.06 1537.87 Q1052.94 1538.77 1055.6 1538.77 L1059.98 1538.77 L1059.98 1542.33 L1055.6 1542.33 Q1050.67 1542.33 1048.8 1540.5 Q1046.92 1538.65 1046.92 1533.79 L1046.92 1519.72 L1043.8 1519.72 L1043.8 1516.41 L1046.92 1516.41 L1046.92 1509.05 L1051.2 1509.05 Z" fill="#000000" fill-rule="nonzero" fill-opacity="1" /><path clip-path="url(#clip730)" d="M1087.76 1528.31 L1087.76 1530.39 L1068.17 1530.39 Q1068.45 1534.79 1070.81 1537.1 Q1073.2 1539.39 1077.43 1539.39 Q1079.88 1539.39 1082.18 1538.79 Q1084.49 1538.19 1086.76 1536.99 L1086.76 1541.01 Q1084.47 1541.99 1082.06 1542.49 Q1079.65 1543 1077.18 1543 Q1070.97 1543 1067.34 1539.39 Q1063.73 1535.78 1063.73 1529.62 Q1063.73 1523.26 1067.15 1519.53 Q1070.6 1515.78 1076.44 1515.78 Q1081.67 1515.78 1084.7 1519.16 Q1087.76 1522.52 1087.76 1528.31 M1083.5 1527.06 Q1083.45 1523.56 1081.53 1521.48 Q1079.63 1519.39 1076.48 1519.39 Q1072.92 1519.39 1070.76 1521.41 Q1068.63 1523.42 1068.31 1527.08 L1083.5 1527.06 Z" fill="#000000" fill-rule="nonzero" fill-opacity="1" /><path clip-path="url(#clip730)" d="M1109.77 1520.39 Q1109.05 1519.97 1108.19 1519.79 Q1107.36 1519.58 1106.34 1519.58 Q1102.73 1519.58 1100.79 1521.94 Q1098.87 1524.28 1098.87 1528.68 L1098.87 1542.33 L1094.58 1542.33 L1094.58 1516.41 L1098.87 1516.41 L1098.87 1520.43 Q1100.21 1518.07 1102.36 1516.94 Q1104.51 1515.78 1107.59 1515.78 Q1108.03 1515.78 1108.57 1515.85 Q1109.1 1515.9 1109.75 1516.01 L1109.77 1520.39 Z" fill="#000000" fill-rule="nonzero" fill-opacity="1" /><path clip-path="url(#clip730)" d="M1114.24 1516.41 L1118.5 1516.41 L1118.5 1542.33 L1114.24 1542.33 L1114.24 1516.41 M1114.24 1506.31 L1118.5 1506.31 L1118.5 1511.71 L1114.24 1511.71 L1114.24 1506.31 Z" fill="#000000" fill-rule="nonzero" fill-opacity="1" /><path clip-path="url(#clip730)" d="M1148.96 1526.68 L1148.96 1542.33 L1144.7 1542.33 L1144.7 1526.82 Q1144.7 1523.14 1143.26 1521.31 Q1141.83 1519.49 1138.96 1519.49 Q1135.51 1519.49 1133.52 1521.68 Q1131.53 1523.88 1131.53 1527.68 L1131.53 1542.33 L1127.25 1542.33 L1127.25 1516.41 L1131.53 1516.41 L1131.53 1520.43 Q1133.06 1518.1 1135.12 1516.94 Q1137.2 1515.78 1139.91 1515.78 Q1144.38 1515.78 1146.67 1518.56 Q1148.96 1521.31 1148.96 1526.68 Z" fill="#000000" fill-rule="nonzero" fill-opacity="1" /><path clip-path="url(#clip730)" d="M1174.51 1529.07 Q1174.51 1524.44 1172.59 1521.89 Q1170.69 1519.35 1167.25 1519.35 Q1163.82 1519.35 1161.9 1521.89 Q1160 1524.44 1160 1529.07 Q1160 1533.68 1161.9 1536.22 Q1163.82 1538.77 1167.25 1538.77 Q1170.69 1538.77 1172.59 1536.22 Q1174.51 1533.68 1174.51 1529.07 M1178.77 1539.12 Q1178.77 1545.74 1175.83 1548.95 Q1172.89 1552.19 1166.83 1552.19 Q1164.58 1552.19 1162.59 1551.85 Q1160.6 1551.52 1158.73 1550.83 L1158.73 1546.68 Q1160.6 1547.7 1162.43 1548.19 Q1164.26 1548.68 1166.16 1548.68 Q1170.35 1548.68 1172.43 1546.48 Q1174.51 1544.3 1174.51 1539.88 L1174.51 1537.77 Q1173.19 1540.06 1171.13 1541.2 Q1169.07 1542.33 1166.2 1542.33 Q1161.44 1542.33 1158.52 1538.7 Q1155.6 1535.06 1155.6 1529.07 Q1155.6 1523.05 1158.52 1519.42 Q1161.44 1515.78 1166.2 1515.78 Q1169.07 1515.78 1171.13 1516.92 Q1173.19 1518.05 1174.51 1520.34 L1174.51 1516.41 L1178.77 1516.41 L1178.77 1539.12 Z" fill="#000000" fill-rule="nonzero" fill-opacity="1" /><path clip-path="url(#clip730)" d="M1186.87 1506.36 L1190.58 1506.36 Q1194.05 1511.82 1195.76 1517.06 Q1197.5 1522.29 1197.5 1527.45 Q1197.5 1532.63 1195.76 1537.89 Q1194.05 1543.14 1190.58 1548.58 L1186.87 1548.58 Q1189.95 1543.28 1191.46 1538.05 Q1192.99 1532.8 1192.99 1527.45 Q1192.99 1522.1 1191.46 1516.89 Q1189.95 1511.68 1186.87 1506.36 Z" fill="#000000" fill-rule="nonzero" fill-opacity="1" /><polyline clip-path="url(#clip730)" style="stroke:#e26f46; stroke-linecap:round; stroke-linejoin:round; stroke-width:8; stroke-opacity:1; fill:none" points="333.147,1576.89 494.143,1576.89 "/>
<path clip-path="url(#clip730)" d="M520.976 1559.61 L525.652 1559.61 L525.652 1574.22 L541.161 1559.61 L547.179 1559.61 L530.027 1575.72 L548.406 1594.17 L542.249 1594.17 L525.652 1577.53 L525.652 1594.17 L520.976 1594.17 L520.976 1559.61 Z" fill="#000000" fill-rule="nonzero" fill-opacity="1" /><path clip-path="url(#clip730)" d="M571.693 1580.15 L571.693 1582.23 L552.11 1582.23 Q552.388 1586.63 554.749 1588.94 Q557.133 1591.23 561.369 1591.23 Q563.823 1591.23 566.114 1590.63 Q568.429 1590.03 570.698 1588.83 L570.698 1592.85 Q568.406 1593.83 565.999 1594.33 Q563.591 1594.84 561.114 1594.84 Q554.911 1594.84 551.277 1591.23 Q547.665 1587.62 547.665 1581.46 Q547.665 1575.1 551.091 1571.37 Q554.54 1567.62 560.374 1567.62 Q565.605 1567.62 568.638 1571 Q571.693 1574.36 571.693 1580.15 M567.434 1578.9 Q567.388 1575.4 565.466 1573.32 Q563.568 1571.23 560.42 1571.23 Q556.855 1571.23 554.702 1573.25 Q552.573 1575.26 552.249 1578.92 L567.434 1578.9 Z" fill="#000000" fill-rule="nonzero" fill-opacity="1" /><path clip-path="url(#clip730)" d="M600.86 1580.15 L600.86 1582.23 L581.276 1582.23 Q581.554 1586.63 583.915 1588.94 Q586.299 1591.23 590.536 1591.23 Q592.989 1591.23 595.281 1590.63 Q597.596 1590.03 599.864 1588.83 L599.864 1592.85 Q597.573 1593.83 595.165 1594.33 Q592.758 1594.84 590.281 1594.84 Q584.077 1594.84 580.443 1591.23 Q576.832 1587.62 576.832 1581.46 Q576.832 1575.1 580.258 1571.37 Q583.707 1567.62 589.54 1567.62 Q594.772 1567.62 597.804 1571 Q600.86 1574.36 600.86 1580.15 M596.6 1578.9 Q596.554 1575.4 594.633 1573.32 Q592.735 1571.23 589.586 1571.23 Q586.022 1571.23 583.869 1573.25 Q581.739 1575.26 581.415 1578.92 L596.6 1578.9 Z" fill="#000000" fill-rule="nonzero" fill-opacity="1" /><path clip-path="url(#clip730)" d="M607.85 1558.15 L612.11 1558.15 L612.11 1594.17 L607.85 1594.17 L607.85 1558.15 Z" fill="#000000" fill-rule="nonzero" fill-opacity="1" /><path clip-path="url(#clip730)" d="M621.022 1568.25 L625.281 1568.25 L625.281 1594.17 L621.022 1594.17 L621.022 1568.25 M621.022 1558.15 L625.281 1558.15 L625.281 1563.55 L621.022 1563.55 L621.022 1558.15 Z" fill="#000000" fill-rule="nonzero" fill-opacity="1" /><path clip-path="url(#clip730)" d="M655.744 1578.52 L655.744 1594.17 L651.484 1594.17 L651.484 1578.66 Q651.484 1574.98 650.049 1573.15 Q648.614 1571.33 645.744 1571.33 Q642.295 1571.33 640.304 1573.52 Q638.313 1575.72 638.313 1579.52 L638.313 1594.17 L634.031 1594.17 L634.031 1568.25 L638.313 1568.25 L638.313 1572.27 Q639.841 1569.94 641.901 1568.78 Q643.984 1567.62 646.693 1567.62 Q651.16 1567.62 653.452 1570.4 Q655.744 1573.15 655.744 1578.52 Z" fill="#000000" fill-rule="nonzero" fill-opacity="1" /><path clip-path="url(#clip730)" d="M681.299 1580.91 Q681.299 1576.28 679.378 1573.73 Q677.48 1571.19 674.03 1571.19 Q670.605 1571.19 668.683 1573.73 Q666.785 1576.28 666.785 1580.91 Q666.785 1585.52 668.683 1588.06 Q670.605 1590.61 674.03 1590.61 Q677.48 1590.61 679.378 1588.06 Q681.299 1585.52 681.299 1580.91 M685.558 1590.96 Q685.558 1597.58 682.618 1600.79 Q679.679 1604.03 673.614 1604.03 Q671.368 1604.03 669.378 1603.69 Q667.387 1603.36 665.512 1602.67 L665.512 1598.52 Q667.387 1599.54 669.216 1600.03 Q671.044 1600.52 672.943 1600.52 Q677.132 1600.52 679.216 1598.32 Q681.299 1596.14 681.299 1591.72 L681.299 1589.61 Q679.98 1591.9 677.919 1593.04 Q675.859 1594.17 672.989 1594.17 Q668.22 1594.17 665.304 1590.54 Q662.387 1586.9 662.387 1580.91 Q662.387 1574.89 665.304 1571.26 Q668.22 1567.62 672.989 1567.62 Q675.859 1567.62 677.919 1568.76 Q679.98 1569.89 681.299 1572.18 L681.299 1568.25 L685.558 1568.25 L685.558 1590.96 Z" fill="#000000" fill-rule="nonzero" fill-opacity="1" /><polyline clip-path="url(#clip730)" style="stroke:#3da44d; stroke-linecap:round; stroke-linejoin:round; stroke-width:8; stroke-opacity:1; fill:none" points="333.147,1628.73 494.143,1628.73 "/>
<path clip-path="url(#clip730)" d="M525.652 1629.51 L525.652 1642.17 L533.152 1642.17 Q536.925 1642.17 538.73 1640.62 Q540.559 1639.05 540.559 1635.83 Q540.559 1632.59 538.73 1631.06 Q536.925 1629.51 533.152 1629.51 L525.652 1629.51 M525.652 1615.3 L525.652 1625.71 L532.573 1625.71 Q535.999 1625.71 537.665 1624.44 Q539.355 1623.14 539.355 1620.5 Q539.355 1617.89 537.665 1616.59 Q535.999 1615.3 532.573 1615.3 L525.652 1615.3 M520.976 1611.45 L532.92 1611.45 Q538.267 1611.45 541.161 1613.68 Q544.054 1615.9 544.054 1619.99 Q544.054 1623.17 542.573 1625.04 Q541.091 1626.92 538.221 1627.38 Q541.67 1628.12 543.568 1630.48 Q545.49 1632.82 545.49 1636.34 Q545.49 1640.97 542.341 1643.49 Q539.193 1646.01 533.383 1646.01 L520.976 1646.01 L520.976 1611.45 Z" fill="#000000" fill-rule="nonzero" fill-opacity="1" /><path clip-path="url(#clip730)" d="M565.096 1632.98 Q559.934 1632.98 557.943 1634.16 Q555.952 1635.34 555.952 1638.19 Q555.952 1640.46 557.434 1641.8 Q558.939 1643.12 561.508 1643.12 Q565.05 1643.12 567.179 1640.62 Q569.332 1638.1 569.332 1633.93 L569.332 1632.98 L565.096 1632.98 M573.591 1631.22 L573.591 1646.01 L569.332 1646.01 L569.332 1642.08 Q567.874 1644.44 565.698 1645.57 Q563.522 1646.68 560.374 1646.68 Q556.392 1646.68 554.031 1644.46 Q551.693 1642.22 551.693 1638.47 Q551.693 1634.09 554.61 1631.87 Q557.55 1629.65 563.36 1629.65 L569.332 1629.65 L569.332 1629.23 Q569.332 1626.29 567.388 1624.69 Q565.466 1623.07 561.971 1623.07 Q559.749 1623.07 557.642 1623.61 Q555.536 1624.14 553.591 1625.2 L553.591 1621.27 Q555.929 1620.36 558.128 1619.93 Q560.327 1619.46 562.411 1619.46 Q568.036 1619.46 570.813 1622.38 Q573.591 1625.3 573.591 1631.22 Z" fill="#000000" fill-rule="nonzero" fill-opacity="1" /><path clip-path="url(#clip730)" d="M597.387 1624.07 Q596.67 1623.65 595.813 1623.47 Q594.98 1623.26 593.961 1623.26 Q590.35 1623.26 588.406 1625.62 Q586.485 1627.96 586.485 1632.36 L586.485 1646.01 L582.202 1646.01 L582.202 1620.09 L586.485 1620.09 L586.485 1624.11 Q587.827 1621.75 589.98 1620.62 Q592.133 1619.46 595.211 1619.46 Q595.651 1619.46 596.184 1619.53 Q596.716 1619.58 597.364 1619.69 L597.387 1624.07 Z" fill="#000000" fill-rule="nonzero" fill-opacity="1" /><path clip-path="url(#clip730)" d="M622.572 1630.36 L622.572 1646.01 L618.313 1646.01 L618.313 1630.5 Q618.313 1626.82 616.878 1624.99 Q615.443 1623.17 612.572 1623.17 Q609.123 1623.17 607.133 1625.36 Q605.142 1627.56 605.142 1631.36 L605.142 1646.01 L600.86 1646.01 L600.86 1620.09 L605.142 1620.09 L605.142 1624.11 Q606.67 1621.78 608.73 1620.62 Q610.813 1619.46 613.522 1619.46 Q617.989 1619.46 620.281 1622.24 Q622.572 1624.99 622.572 1630.36 Z" fill="#000000" fill-rule="nonzero" fill-opacity="1" /><path clip-path="url(#clip730)" d="M642.85 1632.98 Q637.688 1632.98 635.697 1634.16 Q633.707 1635.34 633.707 1638.19 Q633.707 1640.46 635.188 1641.8 Q636.693 1643.12 639.262 1643.12 Q642.804 1643.12 644.933 1640.62 Q647.086 1638.1 647.086 1633.93 L647.086 1632.98 L642.85 1632.98 M651.345 1631.22 L651.345 1646.01 L647.086 1646.01 L647.086 1642.08 Q645.628 1644.44 643.452 1645.57 Q641.276 1646.68 638.128 1646.68 Q634.146 1646.68 631.785 1644.46 Q629.447 1642.22 629.447 1638.47 Q629.447 1634.09 632.364 1631.87 Q635.304 1629.65 641.114 1629.65 L647.086 1629.65 L647.086 1629.23 Q647.086 1626.29 645.142 1624.69 Q643.22 1623.07 639.725 1623.07 Q637.503 1623.07 635.396 1623.61 Q633.29 1624.14 631.346 1625.2 L631.346 1621.27 Q633.683 1620.36 635.883 1619.93 Q638.082 1619.46 640.165 1619.46 Q645.79 1619.46 648.568 1622.38 Q651.345 1625.3 651.345 1631.22 Z" fill="#000000" fill-rule="nonzero" fill-opacity="1" /><path clip-path="url(#clip730)" d="M675.142 1624.07 Q674.424 1623.65 673.568 1623.47 Q672.734 1623.26 671.716 1623.26 Q668.105 1623.26 666.16 1625.62 Q664.239 1627.96 664.239 1632.36 L664.239 1646.01 L659.956 1646.01 L659.956 1620.09 L664.239 1620.09 L664.239 1624.11 Q665.581 1621.75 667.734 1620.62 Q669.887 1619.46 672.966 1619.46 Q673.405 1619.46 673.938 1619.53 Q674.47 1619.58 675.118 1619.69 L675.142 1624.07 Z" fill="#000000" fill-rule="nonzero" fill-opacity="1" /><path clip-path="url(#clip730)" d="M695.836 1624.02 L695.836 1609.99 L700.095 1609.99 L700.095 1646.01 L695.836 1646.01 L695.836 1642.12 Q694.493 1644.44 692.433 1645.57 Q690.396 1646.68 687.526 1646.68 Q682.827 1646.68 679.864 1642.93 Q676.924 1639.18 676.924 1633.07 Q676.924 1626.96 679.864 1623.21 Q682.827 1619.46 687.526 1619.46 Q690.396 1619.46 692.433 1620.6 Q694.493 1621.71 695.836 1624.02 M681.322 1633.07 Q681.322 1637.77 683.243 1640.46 Q685.188 1643.12 688.567 1643.12 Q691.947 1643.12 693.891 1640.46 Q695.836 1637.77 695.836 1633.07 Q695.836 1628.37 693.891 1625.71 Q691.947 1623.03 688.567 1623.03 Q685.188 1623.03 683.243 1625.71 Q681.322 1628.37 681.322 1633.07 Z" fill="#000000" fill-rule="nonzero" fill-opacity="1" /></svg>
