<?xml version="1.0" encoding="utf-8"?>
<svg xmlns="http://www.w3.org/2000/svg" xmlns:xlink="http://www.w3.org/1999/xlink" width="672" height="480" viewBox="0 0 2688 1920">
<defs>
  <clipPath id="clip700">
    <rect x="0" y="0" width="2688" height="1920"/>
  </clipPath>
</defs>
<path clip-path="url(#clip700)" d="M0 1920 L2688 1920 L2688 -4.26326e-14 L0 -4.26326e-14  Z" fill="#ffffff" fill-rule="evenodd" fill-opacity="1"/>
<defs>
  <clipPath id="clip701">
    <rect x="225" y="127" width="2416" height="1607"/>
  </clipPath>
</defs>
<path clip-path="url(#clip700)" d="M225.816 1734.12 L2640.76 1734.12 L2640.76 127.792 L225.816 127.792  Z" fill="#ffffff" fill-rule="evenodd" fill-opacity="1"/>
<polyline clip-path="url(#clip701)" style="stroke:#000000; stroke-linecap:round; stroke-linejoin:round; stroke-width:2; stroke-opacity:0.1; fill:none" points="294.164,1734.12 294.164,127.792 "/>
<polyline clip-path="url(#clip701)" style="stroke:#000000; stroke-linecap:round; stroke-linejoin:round; stroke-width:2; stroke-opacity:0.1; fill:none" points="673.871,1734.12 673.871,127.792 "/>
<polyline clip-path="url(#clip701)" style="stroke:#000000; stroke-linecap:round; stroke-linejoin:round; stroke-width:2; stroke-opacity:0.1; fill:none" points="1053.58,1734.12 1053.58,127.792 "/>
<polyline clip-path="url(#clip701)" style="stroke:#000000; stroke-linecap:round; stroke-linejoin:round; stroke-width:2; stroke-opacity:0.1; fill:none" points="1433.29,1734.12 1433.29,127.792 "/>
<polyline clip-path="url(#clip701)" style="stroke:#000000; stroke-linecap:round; stroke-linejoin:round; stroke-width:2; stroke-opacity:0.1; fill:none" points="1812.99,1734.12 1812.99,127.792 "/>
<polyline clip-path="url(#clip701)" style="stroke:#000000; stroke-linecap:round; stroke-linejoin:round; stroke-width:2; stroke-opacity:0.1; fill:none" points="2192.7,1734.12 2192.7,127.792 "/>
<polyline clip-path="url(#clip701)" style="stroke:#000000; stroke-linecap:round; stroke-linejoin:round; stroke-width:2; stroke-opacity:0.1; fill:none" points="2572.41,1734.12 2572.41,127.792 "/>
<polyline clip-path="url(#clip701)" style="stroke:#000000; stroke-linecap:round; stroke-linejoin:round; stroke-width:2; stroke-opacity:0.1; fill:none" points="225.816,1732.27 2640.76,1732.27 "/>
<polyline clip-path="url(#clip701)" style="stroke:#000000; stroke-linecap:round; stroke-linejoin:round; stroke-width:2; stroke-opacity:0.1; fill:none" points="225.816,1466.57 2640.76,1466.57 "/>
<polyline clip-path="url(#clip701)" style="stroke:#000000; stroke-linecap:round; stroke-linejoin:round; stroke-width:2; stroke-opacity:0.1; fill:none" points="225.816,1200.86 2640.76,1200.86 "/>
<polyline clip-path="url(#clip701)" style="stroke:#000000; stroke-linecap:round; stroke-linejoin:round; stroke-width:2; stroke-opacity:0.1; fill:none" points="225.816,935.161 2640.76,935.161 "/>
<polyline clip-path="url(#clip701)" style="stroke:#000000; stroke-linecap:round; stroke-linejoin:round; stroke-width:2; stroke-opacity:0.1; fill:none" points="225.816,669.459 2640.76,669.459 "/>
<polyline clip-path="url(#clip701)" style="stroke:#000000; stroke-linecap:round; stroke-linejoin:round; stroke-width:2; stroke-opacity:0.1; fill:none" points="225.816,403.757 2640.76,403.757 "/>
<polyline clip-path="url(#clip701)" style="stroke:#000000; stroke-linecap:round; stroke-linejoin:round; stroke-width:2; stroke-opacity:0.1; fill:none" points="225.816,138.055 2640.76,138.055 "/>
<polyline clip-path="url(#clip700)" style="stroke:#000000; stroke-linecap:round; stroke-linejoin:round; stroke-width:4; stroke-opacity:1; fill:none" points="225.816,1734.12 2640.76,1734.12 "/>
<polyline clip-path="url(#clip700)" style="stroke:#000000; stroke-linecap:round; stroke-linejoin:round; stroke-width:4; stroke-opacity:1; fill:none" points="294.164,1734.12 294.164,1715.22 "/>
<polyline clip-path="url(#clip700)" style="stroke:#000000; stroke-linecap:round; stroke-linejoin:round; stroke-width:4; stroke-opacity:1; fill:none" points="673.871,1734.12 673.871,1715.22 "/>
<polyline clip-path="url(#clip700)" style="stroke:#000000; stroke-linecap:round; stroke-linejoin:round; stroke-width:4; stroke-opacity:1; fill:none" points="1053.58,1734.12 1053.58,1715.22 "/>
<polyline clip-path="url(#clip700)" style="stroke:#000000; stroke-linecap:round; stroke-linejoin:round; stroke-width:4; stroke-opacity:1; fill:none" points="1433.29,1734.12 1433.29,1715.22 "/>
<polyline clip-path="url(#clip700)" style="stroke:#000000; stroke-linecap:round; stroke-linejoin:round; stroke-width:4; stroke-opacity:1; fill:none" points="1812.99,1734.12 1812.99,1715.22 "/>
<polyline clip-path="url(#clip700)" style="stroke:#000000; stroke-linecap:round; stroke-linejoin:round; stroke-width:4; stroke-opacity:1; fill:none" points="2192.7,1734.12 2192.7,1715.22 "/>
<polyline clip-path="url(#clip700)" style="stroke:#000000; stroke-linecap:round; stroke-linejoin:round; stroke-width:4; stroke-opacity:1; fill:none" points="2572.41,1734.12 2572.41,1715.22 "/>
<path clip-path="url(#clip700)" d="M271.548 1767.34 Q267.937 1767.34 266.108 1770.9 Q264.303 1774.45 264.303 1781.58 Q264.303 1788.68 266.108 1792.25 Q267.937 1795.79 271.548 1795.79 Q275.182 1795.79 276.988 1792.25 Q278.817 1788.68 278.817 1781.58 Q278.817 1774.45 276.988 1770.9 Q275.182 1767.34 271.548 1767.34 M271.548 1763.64 Q277.358 1763.64 280.414 1768.24 Q283.493 1772.83 283.493 1781.58 Q283.493 1790.3 280.414 1794.91 Q277.358 1799.49 271.548 1799.49 Q265.738 1799.49 262.659 1794.91 Q259.604 1790.3 259.604 1781.58 Q259.604 1772.83 262.659 1768.24 Q265.738 1763.64 271.548 1763.64 Z" fill="#000000" fill-rule="nonzero" fill-opacity="1" /><path clip-path="url(#clip700)" d="M291.71 1792.94 L296.594 1792.94 L296.594 1798.82 L291.71 1798.82 L291.71 1792.94 Z" fill="#000000" fill-rule="nonzero" fill-opacity="1" /><path clip-path="url(#clip700)" d="M316.779 1767.34 Q313.168 1767.34 311.34 1770.9 Q309.534 1774.45 309.534 1781.58 Q309.534 1788.68 311.34 1792.25 Q313.168 1795.79 316.779 1795.79 Q320.414 1795.79 322.219 1792.25 Q324.048 1788.68 324.048 1781.58 Q324.048 1774.45 322.219 1770.9 Q320.414 1767.34 316.779 1767.34 M316.779 1763.64 Q322.59 1763.64 325.645 1768.24 Q328.724 1772.83 328.724 1781.58 Q328.724 1790.3 325.645 1794.91 Q322.59 1799.49 316.779 1799.49 Q310.969 1799.49 307.891 1794.91 Q304.835 1790.3 304.835 1781.58 Q304.835 1772.83 307.891 1768.24 Q310.969 1763.64 316.779 1763.64 Z" fill="#000000" fill-rule="nonzero" fill-opacity="1" /><path clip-path="url(#clip700)" d="M651.869 1767.34 Q648.258 1767.34 646.429 1770.9 Q644.624 1774.45 644.624 1781.58 Q644.624 1788.68 646.429 1792.25 Q648.258 1795.79 651.869 1795.79 Q655.503 1795.79 657.309 1792.25 Q659.138 1788.68 659.138 1781.58 Q659.138 1774.45 657.309 1770.9 Q655.503 1767.34 651.869 1767.34 M651.869 1763.64 Q657.679 1763.64 660.735 1768.24 Q663.813 1772.83 663.813 1781.58 Q663.813 1790.3 660.735 1794.91 Q657.679 1799.49 651.869 1799.49 Q646.059 1799.49 642.98 1794.91 Q639.925 1790.3 639.925 1781.58 Q639.925 1772.83 642.98 1768.24 Q646.059 1763.64 651.869 1763.64 Z" fill="#000000" fill-rule="nonzero" fill-opacity="1" /><path clip-path="url(#clip700)" d="M672.031 1792.94 L676.915 1792.94 L676.915 1798.82 L672.031 1798.82 L672.031 1792.94 Z" fill="#000000" fill-rule="nonzero" fill-opacity="1" /><path clip-path="url(#clip700)" d="M687.911 1794.89 L695.549 1794.89 L695.549 1768.52 L687.239 1770.19 L687.239 1765.93 L695.503 1764.26 L700.179 1764.26 L700.179 1794.89 L707.818 1794.89 L707.818 1798.82 L687.911 1798.82 L687.911 1794.89 Z" fill="#000000" fill-rule="nonzero" fill-opacity="1" /><path clip-path="url(#clip700)" d="M1031.76 1767.34 Q1028.15 1767.34 1026.32 1770.9 Q1024.52 1774.45 1024.52 1781.58 Q1024.52 1788.68 1026.32 1792.25 Q1028.15 1795.79 1031.76 1795.79 Q1035.4 1795.79 1037.2 1792.25 Q1039.03 1788.68 1039.03 1781.58 Q1039.03 1774.45 1037.2 1770.9 Q1035.4 1767.34 1031.76 1767.34 M1031.76 1763.64 Q1037.57 1763.64 1040.63 1768.24 Q1043.71 1772.83 1043.71 1781.58 Q1043.71 1790.3 1040.63 1794.91 Q1037.57 1799.49 1031.76 1799.49 Q1025.95 1799.49 1022.87 1794.91 Q1019.82 1790.3 1019.82 1781.58 Q1019.82 1772.83 1022.87 1768.24 Q1025.95 1763.64 1031.76 1763.64 Z" fill="#000000" fill-rule="nonzero" fill-opacity="1" /><path clip-path="url(#clip700)" d="M1051.92 1792.94 L1056.81 1792.94 L1056.81 1798.82 L1051.92 1798.82 L1051.92 1792.94 Z" fill="#000000" fill-rule="nonzero" fill-opacity="1" /><path clip-path="url(#clip700)" d="M1071.02 1794.89 L1087.34 1794.89 L1087.34 1798.82 L1065.4 1798.82 L1065.4 1794.89 Q1068.06 1792.13 1072.64 1787.5 Q1077.25 1782.85 1078.43 1781.51 Q1080.67 1778.98 1081.55 1777.25 Q1082.46 1775.49 1082.46 1773.8 Q1082.46 1771.04 1080.51 1769.31 Q1078.59 1767.57 1075.49 1767.57 Q1073.29 1767.57 1070.84 1768.34 Q1068.41 1769.1 1065.63 1770.65 L1065.63 1765.93 Q1068.45 1764.79 1070.91 1764.21 Q1073.36 1763.64 1075.4 1763.64 Q1080.77 1763.64 1083.96 1766.32 Q1087.15 1769.01 1087.15 1773.5 Q1087.15 1775.63 1086.34 1777.55 Q1085.56 1779.45 1083.45 1782.04 Q1082.87 1782.71 1079.77 1785.93 Q1076.67 1789.12 1071.02 1794.89 Z" fill="#000000" fill-rule="nonzero" fill-opacity="1" /><path clip-path="url(#clip700)" d="M1410.99 1767.34 Q1407.38 1767.34 1405.55 1770.9 Q1403.75 1774.45 1403.75 1781.58 Q1403.75 1788.68 1405.55 1792.25 Q1407.38 1795.79 1410.99 1795.79 Q1414.63 1795.79 1416.43 1792.25 Q1418.26 1788.68 1418.26 1781.58 Q1418.26 1774.45 1416.43 1770.9 Q1414.63 1767.34 1410.99 1767.34 M1410.99 1763.64 Q1416.8 1763.64 1419.86 1768.24 Q1422.94 1772.83 1422.94 1781.58 Q1422.94 1790.3 1419.86 1794.91 Q1416.8 1799.49 1410.99 1799.49 Q1405.18 1799.49 1402.11 1794.91 Q1399.05 1790.3 1399.05 1781.58 Q1399.05 1772.83 1402.11 1768.24 Q1405.18 1763.64 1410.99 1763.64 Z" fill="#000000" fill-rule="nonzero" fill-opacity="1" /><path clip-path="url(#clip700)" d="M1431.16 1792.94 L1436.04 1792.94 L1436.04 1798.82 L1431.16 1798.82 L1431.16 1792.94 Z" fill="#000000" fill-rule="nonzero" fill-opacity="1" /><path clip-path="url(#clip700)" d="M1460.39 1780.19 Q1463.75 1780.9 1465.62 1783.17 Q1467.52 1785.44 1467.52 1788.77 Q1467.52 1793.89 1464 1796.69 Q1460.49 1799.49 1454 1799.49 Q1451.83 1799.49 1449.51 1799.05 Q1447.22 1798.64 1444.77 1797.78 L1444.77 1793.27 Q1446.71 1794.4 1449.03 1794.98 Q1451.34 1795.56 1453.86 1795.56 Q1458.26 1795.56 1460.55 1793.82 Q1462.87 1792.08 1462.87 1788.77 Q1462.87 1785.72 1460.72 1784.01 Q1458.59 1782.27 1454.77 1782.27 L1450.74 1782.27 L1450.74 1778.43 L1454.95 1778.43 Q1458.4 1778.43 1460.23 1777.06 Q1462.06 1775.67 1462.06 1773.08 Q1462.06 1770.42 1460.16 1769.01 Q1458.29 1767.57 1454.77 1767.57 Q1452.85 1767.57 1450.65 1767.99 Q1448.45 1768.4 1445.81 1769.28 L1445.81 1765.12 Q1448.47 1764.38 1450.79 1764.01 Q1453.12 1763.64 1455.18 1763.64 Q1460.51 1763.64 1463.61 1766.07 Q1466.71 1768.47 1466.71 1772.59 Q1466.71 1775.46 1465.07 1777.46 Q1463.42 1779.42 1460.39 1780.19 Z" fill="#000000" fill-rule="nonzero" fill-opacity="1" /><path clip-path="url(#clip700)" d="M1790.13 1767.34 Q1786.52 1767.34 1784.7 1770.9 Q1782.89 1774.45 1782.89 1781.58 Q1782.89 1788.68 1784.7 1792.25 Q1786.52 1795.79 1790.13 1795.79 Q1793.77 1795.79 1795.57 1792.25 Q1797.4 1788.68 1797.4 1781.58 Q1797.4 1774.45 1795.57 1770.9 Q1793.77 1767.34 1790.13 1767.34 M1790.13 1763.64 Q1795.95 1763.64 1799 1768.24 Q1802.08 1772.83 1802.08 1781.58 Q1802.08 1790.3 1799 1794.91 Q1795.95 1799.49 1790.13 1799.49 Q1784.32 1799.49 1781.25 1794.91 Q1778.19 1790.3 1778.19 1781.58 Q1778.19 1772.83 1781.25 1768.24 Q1784.32 1763.64 1790.13 1763.64 Z" fill="#000000" fill-rule="nonzero" fill-opacity="1" /><path clip-path="url(#clip700)" d="M1810.3 1792.94 L1815.18 1792.94 L1815.18 1798.82 L1810.3 1798.82 L1810.3 1792.94 Z" fill="#000000" fill-rule="nonzero" fill-opacity="1" /><path clip-path="url(#clip700)" d="M1838.21 1768.34 L1826.41 1786.78 L1838.21 1786.78 L1838.21 1768.34 M1836.99 1764.26 L1842.87 1764.26 L1842.87 1786.78 L1847.8 1786.78 L1847.8 1790.67 L1842.87 1790.67 L1842.87 1798.82 L1838.21 1798.82 L1838.21 1790.67 L1822.61 1790.67 L1822.61 1786.16 L1836.99 1764.26 Z" fill="#000000" fill-rule="nonzero" fill-opacity="1" /><path clip-path="url(#clip700)" d="M2170.58 1767.34 Q2166.97 1767.34 2165.14 1770.9 Q2163.34 1774.45 2163.34 1781.58 Q2163.34 1788.68 2165.14 1792.25 Q2166.97 1795.79 2170.58 1795.79 Q2174.22 1795.79 2176.02 1792.25 Q2177.85 1788.68 2177.85 1781.58 Q2177.85 1774.45 2176.02 1770.9 Q2174.22 1767.34 2170.58 1767.34 M2170.58 1763.64 Q2176.39 1763.64 2179.45 1768.24 Q2182.53 1772.83 2182.53 1781.58 Q2182.53 1790.3 2179.45 1794.91 Q2176.39 1799.49 2170.58 1799.49 Q2164.77 1799.49 2161.69 1794.91 Q2158.64 1790.3 2158.64 1781.58 Q2158.64 1772.83 2161.69 1768.24 Q2164.77 1763.64 2170.58 1763.64 Z" fill="#000000" fill-rule="nonzero" fill-opacity="1" /><path clip-path="url(#clip700)" d="M2190.75 1792.94 L2195.63 1792.94 L2195.63 1798.82 L2190.75 1798.82 L2190.75 1792.94 Z" fill="#000000" fill-rule="nonzero" fill-opacity="1" /><path clip-path="url(#clip700)" d="M2205.86 1764.26 L2224.22 1764.26 L2224.22 1768.2 L2210.14 1768.2 L2210.14 1776.67 Q2211.16 1776.32 2212.18 1776.16 Q2213.2 1775.97 2214.22 1775.97 Q2220 1775.97 2223.38 1779.15 Q2226.76 1782.32 2226.76 1787.73 Q2226.76 1793.31 2223.29 1796.41 Q2219.82 1799.49 2213.5 1799.49 Q2211.32 1799.49 2209.06 1799.12 Q2206.81 1798.75 2204.4 1798.01 L2204.4 1793.31 Q2206.49 1794.45 2208.71 1795 Q2210.93 1795.56 2213.41 1795.56 Q2217.41 1795.56 2219.75 1793.45 Q2222.09 1791.34 2222.09 1787.73 Q2222.09 1784.12 2219.75 1782.02 Q2217.41 1779.91 2213.41 1779.91 Q2211.53 1779.91 2209.66 1780.33 Q2207.81 1780.74 2205.86 1781.62 L2205.86 1764.26 Z" fill="#000000" fill-rule="nonzero" fill-opacity="1" /><path clip-path="url(#clip700)" d="M2549.71 1767.34 Q2546.1 1767.34 2544.27 1770.9 Q2542.47 1774.45 2542.47 1781.58 Q2542.47 1788.68 2544.27 1792.25 Q2546.1 1795.79 2549.71 1795.79 Q2553.35 1795.79 2555.15 1792.25 Q2556.98 1788.68 2556.98 1781.58 Q2556.98 1774.45 2555.15 1770.9 Q2553.35 1767.34 2549.71 1767.34 M2549.71 1763.64 Q2555.52 1763.64 2558.58 1768.24 Q2561.66 1772.83 2561.66 1781.58 Q2561.66 1790.3 2558.58 1794.91 Q2555.52 1799.49 2549.71 1799.49 Q2543.9 1799.49 2540.82 1794.91 Q2537.77 1790.3 2537.77 1781.58 Q2537.77 1772.83 2540.82 1768.24 Q2543.9 1763.64 2549.71 1763.64 Z" fill="#000000" fill-rule="nonzero" fill-opacity="1" /><path clip-path="url(#clip700)" d="M2569.87 1792.94 L2574.76 1792.94 L2574.76 1798.82 L2569.87 1798.82 L2569.87 1792.94 Z" fill="#000000" fill-rule="nonzero" fill-opacity="1" /><path clip-path="url(#clip700)" d="M2595.52 1779.68 Q2592.37 1779.68 2590.52 1781.83 Q2588.69 1783.98 2588.69 1787.73 Q2588.69 1791.46 2590.52 1793.64 Q2592.37 1795.79 2595.52 1795.79 Q2598.67 1795.79 2600.5 1793.64 Q2602.35 1791.46 2602.35 1787.73 Q2602.35 1783.98 2600.5 1781.83 Q2598.67 1779.68 2595.52 1779.68 M2604.8 1765.02 L2604.8 1769.28 Q2603.04 1768.45 2601.24 1768.01 Q2599.46 1767.57 2597.7 1767.57 Q2593.07 1767.57 2590.61 1770.7 Q2588.18 1773.82 2587.84 1780.14 Q2589.2 1778.13 2591.26 1777.06 Q2593.32 1775.97 2595.8 1775.97 Q2601.01 1775.97 2604.02 1779.15 Q2607.05 1782.29 2607.05 1787.73 Q2607.05 1793.06 2603.9 1796.27 Q2600.75 1799.49 2595.52 1799.49 Q2589.53 1799.49 2586.36 1794.91 Q2583.18 1790.3 2583.18 1781.58 Q2583.18 1773.38 2587.07 1768.52 Q2590.96 1763.64 2597.51 1763.64 Q2599.27 1763.64 2601.05 1763.98 Q2602.86 1764.33 2604.8 1765.02 Z" fill="#000000" fill-rule="nonzero" fill-opacity="1" /><path clip-path="url(#clip700)" d="M1096.64 1839.44 L1096.64 1846.22 Q1093.39 1843.2 1089.7 1841.7 Q1086.04 1840.21 1081.9 1840.21 Q1073.75 1840.21 1069.42 1845.2 Q1065.09 1850.17 1065.09 1859.59 Q1065.09 1868.98 1069.42 1873.98 Q1073.75 1878.94 1081.9 1878.94 Q1086.04 1878.94 1089.7 1877.44 Q1093.39 1875.95 1096.64 1872.92 L1096.64 1879.64 Q1093.26 1881.93 1089.47 1883.08 Q1085.72 1884.22 1081.52 1884.22 Q1070.73 1884.22 1064.52 1877.64 Q1058.31 1871.02 1058.31 1859.59 Q1058.31 1848.13 1064.52 1841.54 Q1070.73 1834.92 1081.52 1834.92 Q1085.78 1834.92 1089.54 1836.07 Q1093.33 1837.18 1096.64 1839.44 Z" fill="#000000" fill-rule="nonzero" fill-opacity="1" /><path clip-path="url(#clip700)" d="M1106.31 1833.78 L1112.17 1833.78 L1112.17 1883.3 L1106.31 1883.3 L1106.31 1833.78 Z" fill="#000000" fill-rule="nonzero" fill-opacity="1" /><path clip-path="url(#clip700)" d="M1123.82 1869.23 L1123.82 1847.65 L1129.67 1847.65 L1129.67 1869.01 Q1129.67 1874.07 1131.65 1876.62 Q1133.62 1879.13 1137.57 1879.13 Q1142.31 1879.13 1145.05 1876.11 Q1147.82 1873.08 1147.82 1867.86 L1147.82 1847.65 L1153.67 1847.65 L1153.67 1883.3 L1147.82 1883.3 L1147.82 1877.83 Q1145.68 1881.07 1142.85 1882.66 Q1140.05 1884.22 1136.33 1884.22 Q1130.18 1884.22 1127 1880.4 Q1123.82 1876.59 1123.82 1869.23 M1138.55 1846.79 L1138.55 1846.79 Z" fill="#000000" fill-rule="nonzero" fill-opacity="1" /><path clip-path="url(#clip700)" d="M1188.46 1848.7 L1188.46 1854.24 Q1185.98 1852.97 1183.3 1852.33 Q1180.63 1851.7 1177.77 1851.7 Q1173.41 1851.7 1171.21 1853.03 Q1169.05 1854.37 1169.05 1857.04 Q1169.05 1859.08 1170.61 1860.26 Q1172.16 1861.4 1176.88 1862.45 L1178.88 1862.9 Q1185.12 1864.24 1187.73 1866.69 Q1190.37 1869.11 1190.37 1873.47 Q1190.37 1878.43 1186.42 1881.33 Q1182.51 1884.22 1175.63 1884.22 Q1172.77 1884.22 1169.65 1883.65 Q1166.56 1883.11 1163.13 1882 L1163.13 1875.95 Q1166.37 1877.64 1169.52 1878.49 Q1172.67 1879.32 1175.76 1879.32 Q1179.9 1879.32 1182.13 1877.92 Q1184.36 1876.49 1184.36 1873.91 Q1184.36 1871.52 1182.73 1870.25 Q1181.14 1868.98 1175.7 1867.8 L1173.66 1867.32 Q1168.22 1866.18 1165.8 1863.82 Q1163.38 1861.43 1163.38 1857.3 Q1163.38 1852.27 1166.95 1849.53 Q1170.51 1846.79 1177.07 1846.79 Q1180.31 1846.79 1183.18 1847.27 Q1186.04 1847.75 1188.46 1848.7 Z" fill="#000000" fill-rule="nonzero" fill-opacity="1" /><path clip-path="url(#clip700)" d="M1205.49 1837.53 L1205.49 1847.65 L1217.55 1847.65 L1217.55 1852.2 L1205.49 1852.2 L1205.49 1871.56 Q1205.49 1875.92 1206.67 1877.16 Q1207.88 1878.4 1211.54 1878.4 L1217.55 1878.4 L1217.55 1883.3 L1211.54 1883.3 Q1204.76 1883.3 1202.18 1880.79 Q1199.6 1878.24 1199.6 1871.56 L1199.6 1852.2 L1195.3 1852.2 L1195.3 1847.65 L1199.6 1847.65 L1199.6 1837.53 L1205.49 1837.53 Z" fill="#000000" fill-rule="nonzero" fill-opacity="1" /><path clip-path="url(#clip700)" d="M1255.75 1864.01 L1255.75 1866.88 L1228.82 1866.88 Q1229.2 1872.92 1232.45 1876.11 Q1235.73 1879.26 1241.55 1879.26 Q1244.92 1879.26 1248.08 1878.43 Q1251.26 1877.6 1254.38 1875.95 L1254.38 1881.49 Q1251.23 1882.82 1247.92 1883.52 Q1244.61 1884.22 1241.2 1884.22 Q1232.67 1884.22 1227.67 1879.26 Q1222.71 1874.29 1222.71 1865.83 Q1222.71 1857.07 1227.42 1851.95 Q1232.16 1846.79 1240.18 1846.79 Q1247.38 1846.79 1251.55 1851.44 Q1255.75 1856.06 1255.75 1864.01 M1249.89 1862.29 Q1249.83 1857.49 1247.18 1854.62 Q1244.57 1851.76 1240.25 1851.76 Q1235.34 1851.76 1232.38 1854.53 Q1229.46 1857.3 1229.01 1862.33 L1249.89 1862.29 Z" fill="#000000" fill-rule="nonzero" fill-opacity="1" /><path clip-path="url(#clip700)" d="M1286.02 1853.13 Q1285.03 1852.55 1283.85 1852.3 Q1282.71 1852.01 1281.3 1852.01 Q1276.34 1852.01 1273.67 1855.26 Q1271.02 1858.47 1271.02 1864.52 L1271.02 1883.3 L1265.14 1883.3 L1265.14 1847.65 L1271.02 1847.65 L1271.02 1853.19 Q1272.87 1849.94 1275.83 1848.39 Q1278.79 1846.79 1283.02 1846.79 Q1283.63 1846.79 1284.36 1846.89 Q1285.09 1846.95 1285.98 1847.11 L1286.02 1853.13 Z" fill="#000000" fill-rule="nonzero" fill-opacity="1" /><path clip-path="url(#clip700)" d="M1292.16 1847.65 L1298.01 1847.65 L1298.01 1883.3 L1292.16 1883.3 L1292.16 1847.65 M1292.16 1833.78 L1298.01 1833.78 L1298.01 1841.19 L1292.16 1841.19 L1292.16 1833.78 Z" fill="#000000" fill-rule="nonzero" fill-opacity="1" /><path clip-path="url(#clip700)" d="M1339.9 1861.78 L1339.9 1883.3 L1334.04 1883.3 L1334.04 1861.98 Q1334.04 1856.92 1332.07 1854.4 Q1330.1 1851.89 1326.15 1851.89 Q1321.41 1851.89 1318.67 1854.91 Q1315.93 1857.93 1315.93 1863.15 L1315.93 1883.3 L1310.05 1883.3 L1310.05 1847.65 L1315.93 1847.65 L1315.93 1853.19 Q1318.04 1849.98 1320.87 1848.39 Q1323.73 1846.79 1327.46 1846.79 Q1333.6 1846.79 1336.75 1850.61 Q1339.9 1854.4 1339.9 1861.78 Z" fill="#000000" fill-rule="nonzero" fill-opacity="1" /><path clip-path="url(#clip700)" d="M1375.04 1865.06 Q1375.04 1858.7 1372.4 1855.2 Q1369.79 1851.7 1365.05 1851.7 Q1360.34 1851.7 1357.69 1855.2 Q1355.08 1858.7 1355.08 1865.06 Q1355.08 1871.4 1357.69 1874.9 Q1360.34 1878.4 1365.05 1878.4 Q1369.79 1878.4 1372.4 1874.9 Q1375.04 1871.4 1375.04 1865.06 M1380.9 1878.88 Q1380.9 1887.98 1376.85 1892.4 Q1372.81 1896.86 1364.47 1896.86 Q1361.39 1896.86 1358.65 1896.38 Q1355.91 1895.94 1353.33 1894.98 L1353.33 1889.28 Q1355.91 1890.69 1358.43 1891.35 Q1360.94 1892.02 1363.55 1892.02 Q1369.31 1892.02 1372.18 1889 Q1375.04 1886.01 1375.04 1879.93 L1375.04 1877.03 Q1373.23 1880.18 1370.39 1881.74 Q1367.56 1883.3 1363.61 1883.3 Q1357.06 1883.3 1353.05 1878.3 Q1349.04 1873.31 1349.04 1865.06 Q1349.04 1856.79 1353.05 1851.79 Q1357.06 1846.79 1363.61 1846.79 Q1367.56 1846.79 1370.39 1848.35 Q1373.23 1849.91 1375.04 1853.06 L1375.04 1847.65 L1380.9 1847.65 L1380.9 1878.88 Z" fill="#000000" fill-rule="nonzero" fill-opacity="1" /><path clip-path="url(#clip700)" d="M1439.33 1849.02 L1439.33 1854.5 Q1436.85 1853.13 1434.34 1852.46 Q1431.85 1851.76 1429.31 1851.76 Q1423.61 1851.76 1420.46 1855.39 Q1417.31 1858.98 1417.31 1865.51 Q1417.31 1872.03 1420.46 1875.66 Q1423.61 1879.26 1429.31 1879.26 Q1431.85 1879.26 1434.34 1878.59 Q1436.85 1877.89 1439.33 1876.52 L1439.33 1881.93 Q1436.88 1883.08 1434.24 1883.65 Q1431.63 1884.22 1428.67 1884.22 Q1420.62 1884.22 1415.88 1879.16 Q1411.13 1874.1 1411.13 1865.51 Q1411.13 1856.79 1415.91 1851.79 Q1420.71 1846.79 1429.05 1846.79 Q1431.76 1846.79 1434.34 1847.37 Q1436.91 1847.91 1439.33 1849.02 Z" fill="#000000" fill-rule="nonzero" fill-opacity="1" /><path clip-path="url(#clip700)" d="M1463.33 1851.76 Q1458.62 1851.76 1455.88 1855.45 Q1453.15 1859.11 1453.15 1865.51 Q1453.15 1871.91 1455.85 1875.6 Q1458.59 1879.26 1463.33 1879.26 Q1468.01 1879.26 1470.75 1875.57 Q1473.49 1871.87 1473.49 1865.51 Q1473.49 1859.17 1470.75 1855.48 Q1468.01 1851.76 1463.33 1851.76 M1463.33 1846.79 Q1470.97 1846.79 1475.33 1851.76 Q1479.69 1856.72 1479.69 1865.51 Q1479.69 1874.26 1475.33 1879.26 Q1470.97 1884.22 1463.33 1884.22 Q1455.66 1884.22 1451.3 1879.26 Q1446.97 1874.26 1446.97 1865.51 Q1446.97 1856.72 1451.3 1851.76 Q1455.66 1846.79 1463.33 1846.79 Z" fill="#000000" fill-rule="nonzero" fill-opacity="1" /><path clip-path="url(#clip700)" d="M1519.89 1864.01 L1519.89 1866.88 L1492.96 1866.88 Q1493.35 1872.92 1496.59 1876.11 Q1499.87 1879.26 1505.7 1879.26 Q1509.07 1879.26 1512.22 1878.43 Q1515.4 1877.6 1518.52 1875.95 L1518.52 1881.49 Q1515.37 1882.82 1512.06 1883.52 Q1508.75 1884.22 1505.35 1884.22 Q1496.82 1884.22 1491.82 1879.26 Q1486.85 1874.29 1486.85 1865.83 Q1486.85 1857.07 1491.56 1851.95 Q1496.31 1846.79 1504.33 1846.79 Q1511.52 1846.79 1515.69 1851.44 Q1519.89 1856.06 1519.89 1864.01 M1514.04 1862.29 Q1513.97 1857.49 1511.33 1854.62 Q1508.72 1851.76 1504.39 1851.76 Q1499.49 1851.76 1496.53 1854.53 Q1493.6 1857.3 1493.16 1862.33 L1514.04 1862.29 Z" fill="#000000" fill-rule="nonzero" fill-opacity="1" /><path clip-path="url(#clip700)" d="M1547.55 1833.78 L1547.55 1838.65 L1541.95 1838.65 Q1538.8 1838.65 1537.56 1839.92 Q1536.35 1841.19 1536.35 1844.5 L1536.35 1847.65 L1545.99 1847.65 L1545.99 1852.2 L1536.35 1852.2 L1536.35 1883.3 L1530.46 1883.3 L1530.46 1852.2 L1524.86 1852.2 L1524.86 1847.65 L1530.46 1847.65 L1530.46 1845.17 Q1530.46 1839.22 1533.23 1836.51 Q1536 1833.78 1542.01 1833.78 L1547.55 1833.78 Z" fill="#000000" fill-rule="nonzero" fill-opacity="1" /><path clip-path="url(#clip700)" d="M1570.5 1833.78 L1570.5 1838.65 L1564.9 1838.65 Q1561.75 1838.65 1560.5 1839.92 Q1559.3 1841.19 1559.3 1844.5 L1559.3 1847.65 L1568.94 1847.65 L1568.94 1852.2 L1559.3 1852.2 L1559.3 1883.3 L1553.41 1883.3 L1553.41 1852.2 L1547.81 1852.2 L1547.81 1847.65 L1553.41 1847.65 L1553.41 1845.17 Q1553.41 1839.22 1556.18 1836.51 Q1558.95 1833.78 1564.96 1833.78 L1570.5 1833.78 Z" fill="#000000" fill-rule="nonzero" fill-opacity="1" /><path clip-path="url(#clip700)" d="M1575.4 1847.65 L1581.26 1847.65 L1581.26 1883.3 L1575.4 1883.3 L1575.4 1847.65 M1575.4 1833.78 L1581.26 1833.78 L1581.26 1841.19 L1575.4 1841.19 L1575.4 1833.78 Z" fill="#000000" fill-rule="nonzero" fill-opacity="1" /><path clip-path="url(#clip700)" d="M1619.16 1849.02 L1619.16 1854.5 Q1616.68 1853.13 1614.17 1852.46 Q1611.69 1851.76 1609.14 1851.76 Q1603.44 1851.76 1600.29 1855.39 Q1597.14 1858.98 1597.14 1865.51 Q1597.14 1872.03 1600.29 1875.66 Q1603.44 1879.26 1609.14 1879.26 Q1611.69 1879.26 1614.17 1878.59 Q1616.68 1877.89 1619.16 1876.52 L1619.16 1881.93 Q1616.71 1883.08 1614.07 1883.65 Q1611.46 1884.22 1608.5 1884.22 Q1600.45 1884.22 1595.71 1879.16 Q1590.96 1874.1 1590.96 1865.51 Q1590.96 1856.79 1595.74 1851.79 Q1600.55 1846.79 1608.88 1846.79 Q1611.59 1846.79 1614.17 1847.37 Q1616.75 1847.91 1619.16 1849.02 Z" fill="#000000" fill-rule="nonzero" fill-opacity="1" /><path clip-path="url(#clip700)" d="M1629.35 1847.65 L1635.21 1847.65 L1635.21 1883.3 L1629.35 1883.3 L1629.35 1847.65 M1629.35 1833.78 L1635.21 1833.78 L1635.21 1841.19 L1629.35 1841.19 L1629.35 1833.78 Z" fill="#000000" fill-rule="nonzero" fill-opacity="1" /><path clip-path="url(#clip700)" d="M1677.95 1864.01 L1677.95 1866.88 L1651.03 1866.88 Q1651.41 1872.92 1654.65 1876.11 Q1657.93 1879.26 1663.76 1879.26 Q1667.13 1879.26 1670.28 1878.43 Q1673.46 1877.6 1676.58 1875.95 L1676.58 1881.49 Q1673.43 1882.82 1670.12 1883.52 Q1666.81 1884.22 1663.41 1884.22 Q1654.88 1884.22 1649.88 1879.26 Q1644.91 1874.29 1644.91 1865.83 Q1644.91 1857.07 1649.62 1851.95 Q1654.37 1846.79 1662.39 1846.79 Q1669.58 1846.79 1673.75 1851.44 Q1677.95 1856.06 1677.95 1864.01 M1672.1 1862.29 Q1672.03 1857.49 1669.39 1854.62 Q1666.78 1851.76 1662.45 1851.76 Q1657.55 1851.76 1654.59 1854.53 Q1651.66 1857.3 1651.22 1862.33 L1672.1 1862.29 Z" fill="#000000" fill-rule="nonzero" fill-opacity="1" /><path clip-path="url(#clip700)" d="M1717.2 1861.78 L1717.2 1883.3 L1711.34 1883.3 L1711.34 1861.98 Q1711.34 1856.92 1709.37 1854.4 Q1707.39 1851.89 1703.45 1851.89 Q1698.7 1851.89 1695.97 1854.91 Q1693.23 1857.93 1693.23 1863.15 L1693.23 1883.3 L1687.34 1883.3 L1687.34 1847.65 L1693.23 1847.65 L1693.23 1853.19 Q1695.33 1849.98 1698.16 1848.39 Q1701.03 1846.79 1704.75 1846.79 Q1710.89 1846.79 1714.05 1850.61 Q1717.2 1854.4 1717.2 1861.78 Z" fill="#000000" fill-rule="nonzero" fill-opacity="1" /><path clip-path="url(#clip700)" d="M1734.67 1837.53 L1734.67 1847.65 L1746.73 1847.65 L1746.73 1852.2 L1734.67 1852.2 L1734.67 1871.56 Q1734.67 1875.92 1735.85 1877.16 Q1737.06 1878.4 1740.72 1878.4 L1746.73 1878.4 L1746.73 1883.3 L1740.72 1883.3 Q1733.94 1883.3 1731.36 1880.79 Q1728.78 1878.24 1728.78 1871.56 L1728.78 1852.2 L1724.49 1852.2 L1724.49 1847.65 L1728.78 1847.65 L1728.78 1837.53 L1734.67 1837.53 Z" fill="#000000" fill-rule="nonzero" fill-opacity="1" /><path clip-path="url(#clip700)" d="M1793.33 1833.78 L1793.33 1846.92 Q1799.66 1846.92 1803.9 1851.79 Q1808.26 1856.76 1808.26 1865.51 Q1808.26 1874.26 1803.9 1879.23 Q1799.66 1884.1 1793.33 1884.1 L1793.33 1896.86 L1787.51 1896.86 L1787.51 1884.1 Q1781.17 1884.1 1776.91 1879.23 Q1772.58 1874.26 1772.58 1865.51 Q1772.58 1856.76 1776.91 1851.79 Q1781.17 1846.92 1787.51 1846.92 L1787.51 1833.78 L1793.33 1833.78 M1793.33 1878.88 Q1796.93 1878.88 1799.38 1875.6 Q1802.05 1871.94 1802.08 1865.51 Q1802.12 1859.14 1799.38 1855.42 Q1796.93 1852.14 1793.33 1852.14 L1793.33 1878.88 M1787.51 1878.88 L1787.51 1852.14 Q1783.91 1852.14 1781.49 1855.42 Q1778.72 1859.14 1778.75 1865.51 Q1778.78 1871.94 1781.49 1875.6 Q1783.91 1878.88 1787.51 1878.88 Z" fill="#000000" fill-rule="nonzero" fill-opacity="1" /><polyline clip-path="url(#clip700)" style="stroke:#000000; stroke-linecap:round; stroke-linejoin:round; stroke-width:4; stroke-opacity:1; fill:none" points="225.816,1734.12 225.816,127.792 "/>
<polyline clip-path="url(#clip700)" style="stroke:#000000; stroke-linecap:round; stroke-linejoin:round; stroke-width:4; stroke-opacity:1; fill:none" points="225.816,1732.27 244.714,1732.27 "/>
<polyline clip-path="url(#clip700)" style="stroke:#000000; stroke-linecap:round; stroke-linejoin:round; stroke-width:4; stroke-opacity:1; fill:none" points="225.816,1466.57 244.714,1466.57 "/>
<polyline clip-path="url(#clip700)" style="stroke:#000000; stroke-linecap:round; stroke-linejoin:round; stroke-width:4; stroke-opacity:1; fill:none" points="225.816,1200.86 244.714,1200.86 "/>
<polyline clip-path="url(#clip700)" style="stroke:#000000; stroke-linecap:round; stroke-linejoin:round; stroke-width:4; stroke-opacity:1; fill:none" points="225.816,935.161 244.714,935.161 "/>
<polyline clip-path="url(#clip700)" style="stroke:#000000; stroke-linecap:round; stroke-linejoin:round; stroke-width:4; stroke-opacity:1; fill:none" points="225.816,669.459 244.714,669.459 "/>
<polyline clip-path="url(#clip700)" style="stroke:#000000; stroke-linecap:round; stroke-linejoin:round; stroke-width:4; stroke-opacity:1; fill:none" points="225.816,403.757 244.714,403.757 "/>
<polyline clip-path="url(#clip700)" style="stroke:#000000; stroke-linecap:round; stroke-linejoin:round; stroke-width:4; stroke-opacity:1; fill:none" points="225.816,138.055 244.714,138.055 "/>
<path clip-path="url(#clip700)" d="M129.316 1718.07 Q125.705 1718.07 123.876 1721.63 Q122.071 1725.17 122.071 1732.3 Q122.071 1739.41 123.876 1742.97 Q125.705 1746.52 129.316 1746.52 Q132.95 1746.52 134.756 1742.97 Q136.585 1739.41 136.585 1732.3 Q136.585 1725.17 134.756 1721.63 Q132.95 1718.07 129.316 1718.07 M129.316 1714.36 Q135.126 1714.36 138.182 1718.97 Q141.261 1723.55 141.261 1732.3 Q141.261 1741.03 138.182 1745.64 Q135.126 1750.22 129.316 1750.22 Q123.506 1750.22 120.427 1745.64 Q117.372 1741.03 117.372 1732.3 Q117.372 1723.55 120.427 1718.97 Q123.506 1714.36 129.316 1714.36 Z" fill="#000000" fill-rule="nonzero" fill-opacity="1" /><path clip-path="url(#clip700)" d="M149.478 1743.67 L154.362 1743.67 L154.362 1749.55 L149.478 1749.55 L149.478 1743.67 Z" fill="#000000" fill-rule="nonzero" fill-opacity="1" /><path clip-path="url(#clip700)" d="M164.594 1714.99 L182.95 1714.99 L182.95 1718.92 L168.876 1718.92 L168.876 1727.39 Q169.895 1727.05 170.913 1726.89 Q171.932 1726.7 172.95 1726.7 Q178.737 1726.7 182.117 1729.87 Q185.496 1733.04 185.496 1738.46 Q185.496 1744.04 182.024 1747.14 Q178.552 1750.22 172.233 1750.22 Q170.057 1750.22 167.788 1749.85 Q165.543 1749.48 163.135 1748.74 L163.135 1744.04 Q165.219 1745.17 167.441 1745.73 Q169.663 1746.28 172.14 1746.28 Q176.145 1746.28 178.483 1744.18 Q180.821 1742.07 180.821 1738.46 Q180.821 1734.85 178.483 1732.74 Q176.145 1730.64 172.14 1730.64 Q170.265 1730.64 168.39 1731.05 Q166.538 1731.47 164.594 1732.35 L164.594 1714.99 Z" fill="#000000" fill-rule="nonzero" fill-opacity="1" /><path clip-path="url(#clip700)" d="M128.159 1452.36 Q124.548 1452.36 122.719 1455.93 Q120.913 1459.47 120.913 1466.6 Q120.913 1473.71 122.719 1477.27 Q124.548 1480.81 128.159 1480.81 Q131.793 1480.81 133.599 1477.27 Q135.427 1473.71 135.427 1466.6 Q135.427 1459.47 133.599 1455.93 Q131.793 1452.36 128.159 1452.36 M128.159 1448.66 Q133.969 1448.66 137.025 1453.27 Q140.103 1457.85 140.103 1466.6 Q140.103 1475.33 137.025 1479.93 Q133.969 1484.52 128.159 1484.52 Q122.349 1484.52 119.27 1479.93 Q116.214 1475.33 116.214 1466.6 Q116.214 1457.85 119.27 1453.27 Q122.349 1448.66 128.159 1448.66 Z" fill="#000000" fill-rule="nonzero" fill-opacity="1" /><path clip-path="url(#clip700)" d="M148.321 1477.97 L153.205 1477.97 L153.205 1483.85 L148.321 1483.85 L148.321 1477.97 Z" fill="#000000" fill-rule="nonzero" fill-opacity="1" /><path clip-path="url(#clip700)" d="M173.969 1464.7 Q170.821 1464.7 168.969 1466.85 Q167.14 1469.01 167.14 1472.76 Q167.14 1476.48 168.969 1478.66 Q170.821 1480.81 173.969 1480.81 Q177.117 1480.81 178.946 1478.66 Q180.797 1476.48 180.797 1472.76 Q180.797 1469.01 178.946 1466.85 Q177.117 1464.7 173.969 1464.7 M183.251 1450.05 L183.251 1454.31 Q181.492 1453.48 179.686 1453.04 Q177.904 1452.6 176.145 1452.6 Q171.515 1452.6 169.061 1455.72 Q166.631 1458.85 166.284 1465.16 Q167.649 1463.15 169.71 1462.09 Q171.77 1461 174.247 1461 Q179.455 1461 182.464 1464.17 Q185.496 1467.32 185.496 1472.76 Q185.496 1478.08 182.348 1481.3 Q179.2 1484.52 173.969 1484.52 Q167.973 1484.52 164.802 1479.93 Q161.631 1475.33 161.631 1466.6 Q161.631 1458.41 165.52 1453.54 Q169.409 1448.66 175.959 1448.66 Q177.719 1448.66 179.501 1449.01 Q181.307 1449.35 183.251 1450.05 Z" fill="#000000" fill-rule="nonzero" fill-opacity="1" /><path clip-path="url(#clip700)" d="M129.224 1186.66 Q125.613 1186.66 123.784 1190.23 Q121.978 1193.77 121.978 1200.9 Q121.978 1208 123.784 1211.57 Q125.613 1215.11 129.224 1215.11 Q132.858 1215.11 134.663 1211.57 Q136.492 1208 136.492 1200.9 Q136.492 1193.77 134.663 1190.23 Q132.858 1186.66 129.224 1186.66 M129.224 1182.96 Q135.034 1182.96 138.089 1187.56 Q141.168 1192.15 141.168 1200.9 Q141.168 1209.62 138.089 1214.23 Q135.034 1218.81 129.224 1218.81 Q123.413 1218.81 120.335 1214.23 Q117.279 1209.62 117.279 1200.9 Q117.279 1192.15 120.335 1187.56 Q123.413 1182.96 129.224 1182.96 Z" fill="#000000" fill-rule="nonzero" fill-opacity="1" /><path clip-path="url(#clip700)" d="M149.386 1212.26 L154.27 1212.26 L154.27 1218.14 L149.386 1218.14 L149.386 1212.26 Z" fill="#000000" fill-rule="nonzero" fill-opacity="1" /><path clip-path="url(#clip700)" d="M163.274 1183.58 L185.496 1183.58 L185.496 1185.57 L172.95 1218.14 L168.066 1218.14 L179.872 1187.52 L163.274 1187.52 L163.274 1183.58 Z" fill="#000000" fill-rule="nonzero" fill-opacity="1" /><path clip-path="url(#clip700)" d="M128.413 920.96 Q124.802 920.96 122.974 924.525 Q121.168 928.066 121.168 935.196 Q121.168 942.302 122.974 945.867 Q124.802 949.409 128.413 949.409 Q132.048 949.409 133.853 945.867 Q135.682 942.302 135.682 935.196 Q135.682 928.066 133.853 924.525 Q132.048 920.96 128.413 920.96 M128.413 917.256 Q134.224 917.256 137.279 921.863 Q140.358 926.446 140.358 935.196 Q140.358 943.923 137.279 948.529 Q134.224 953.112 128.413 953.112 Q122.603 953.112 119.525 948.529 Q116.469 943.923 116.469 935.196 Q116.469 926.446 119.525 921.863 Q122.603 917.256 128.413 917.256 Z" fill="#000000" fill-rule="nonzero" fill-opacity="1" /><path clip-path="url(#clip700)" d="M148.575 946.561 L153.46 946.561 L153.46 952.441 L148.575 952.441 L148.575 946.561 Z" fill="#000000" fill-rule="nonzero" fill-opacity="1" /><path clip-path="url(#clip700)" d="M173.645 936.029 Q170.311 936.029 168.39 937.812 Q166.492 939.594 166.492 942.719 Q166.492 945.844 168.39 947.626 Q170.311 949.409 173.645 949.409 Q176.978 949.409 178.899 947.626 Q180.821 945.821 180.821 942.719 Q180.821 939.594 178.899 937.812 Q177.001 936.029 173.645 936.029 M168.969 934.038 Q165.96 933.298 164.27 931.237 Q162.603 929.177 162.603 926.214 Q162.603 922.071 165.543 919.663 Q168.506 917.256 173.645 917.256 Q178.807 917.256 181.746 919.663 Q184.686 922.071 184.686 926.214 Q184.686 929.177 182.996 931.237 Q181.33 933.298 178.344 934.038 Q181.723 934.825 183.598 937.117 Q185.496 939.409 185.496 942.719 Q185.496 947.742 182.418 950.427 Q179.362 953.112 173.645 953.112 Q167.927 953.112 164.848 950.427 Q161.793 947.742 161.793 942.719 Q161.793 939.409 163.691 937.117 Q165.589 934.825 168.969 934.038 M167.256 926.654 Q167.256 929.339 168.922 930.844 Q170.612 932.349 173.645 932.349 Q176.654 932.349 178.344 930.844 Q180.057 929.339 180.057 926.654 Q180.057 923.969 178.344 922.464 Q176.654 920.96 173.645 920.96 Q170.612 920.96 168.922 922.464 Q167.256 923.969 167.256 926.654 Z" fill="#000000" fill-rule="nonzero" fill-opacity="1" /><path clip-path="url(#clip700)" d="M128.506 655.258 Q124.895 655.258 123.066 658.822 Q121.261 662.364 121.261 669.494 Q121.261 676.6 123.066 680.165 Q124.895 683.707 128.506 683.707 Q132.14 683.707 133.946 680.165 Q135.775 676.6 135.775 669.494 Q135.775 662.364 133.946 658.822 Q132.14 655.258 128.506 655.258 M128.506 651.554 Q134.316 651.554 137.372 656.16 Q140.45 660.744 140.45 669.494 Q140.45 678.22 137.372 682.827 Q134.316 687.41 128.506 687.41 Q122.696 687.41 119.617 682.827 Q116.562 678.22 116.562 669.494 Q116.562 660.744 119.617 656.16 Q122.696 651.554 128.506 651.554 Z" fill="#000000" fill-rule="nonzero" fill-opacity="1" /><path clip-path="url(#clip700)" d="M148.668 680.859 L153.552 680.859 L153.552 686.739 L148.668 686.739 L148.668 680.859 Z" fill="#000000" fill-rule="nonzero" fill-opacity="1" /><path clip-path="url(#clip700)" d="M163.876 686.021 L163.876 681.762 Q165.635 682.595 167.441 683.035 Q169.247 683.475 170.983 683.475 Q175.612 683.475 178.043 680.373 Q180.497 677.248 180.844 670.906 Q179.501 672.896 177.441 673.961 Q175.381 675.026 172.881 675.026 Q167.696 675.026 164.663 671.901 Q161.654 668.753 161.654 663.313 Q161.654 657.989 164.802 654.772 Q167.95 651.554 173.182 651.554 Q179.177 651.554 182.325 656.16 Q185.496 660.744 185.496 669.494 Q185.496 677.665 181.608 682.549 Q177.742 687.41 171.191 687.41 Q169.432 687.41 167.626 687.063 Q165.821 686.716 163.876 686.021 M173.182 671.369 Q176.33 671.369 178.159 669.216 Q180.01 667.063 180.01 663.313 Q180.01 659.586 178.159 657.434 Q176.33 655.258 173.182 655.258 Q170.034 655.258 168.182 657.434 Q166.353 659.586 166.353 663.313 Q166.353 667.063 168.182 669.216 Q170.034 671.369 173.182 671.369 Z" fill="#000000" fill-rule="nonzero" fill-opacity="1" /><path clip-path="url(#clip700)" d="M119.131 417.102 L126.77 417.102 L126.77 390.736 L118.46 392.403 L118.46 388.143 L126.724 386.477 L131.4 386.477 L131.4 417.102 L139.038 417.102 L139.038 421.037 L119.131 421.037 L119.131 417.102 Z" fill="#000000" fill-rule="nonzero" fill-opacity="1" /><path clip-path="url(#clip700)" d="M148.483 415.157 L153.367 415.157 L153.367 421.037 L148.483 421.037 L148.483 415.157 Z" fill="#000000" fill-rule="nonzero" fill-opacity="1" /><path clip-path="url(#clip700)" d="M173.552 389.555 Q169.941 389.555 168.112 393.12 Q166.307 396.662 166.307 403.792 Q166.307 410.898 168.112 414.463 Q169.941 418.004 173.552 418.004 Q177.186 418.004 178.992 414.463 Q180.821 410.898 180.821 403.792 Q180.821 396.662 178.992 393.12 Q177.186 389.555 173.552 389.555 M173.552 385.852 Q179.362 385.852 182.418 390.458 Q185.496 395.042 185.496 403.792 Q185.496 412.518 182.418 417.125 Q179.362 421.708 173.552 421.708 Q167.742 421.708 164.663 417.125 Q161.608 412.518 161.608 403.792 Q161.608 395.042 164.663 390.458 Q167.742 385.852 173.552 385.852 Z" fill="#000000" fill-rule="nonzero" fill-opacity="1" /><path clip-path="url(#clip700)" d="M120.358 151.4 L127.997 151.4 L127.997 125.034 L119.687 126.701 L119.687 122.441 L127.95 120.775 L132.626 120.775 L132.626 151.4 L140.265 151.4 L140.265 155.335 L120.358 155.335 L120.358 151.4 Z" fill="#000000" fill-rule="nonzero" fill-opacity="1" /><path clip-path="url(#clip700)" d="M149.71 149.455 L154.594 149.455 L154.594 155.335 L149.71 155.335 L149.71 149.455 Z" fill="#000000" fill-rule="nonzero" fill-opacity="1" /><path clip-path="url(#clip700)" d="M165.589 151.4 L173.228 151.4 L173.228 125.034 L164.918 126.701 L164.918 122.441 L173.182 120.775 L177.858 120.775 L177.858 151.4 L185.496 151.4 L185.496 155.335 L165.589 155.335 L165.589 151.4 Z" fill="#000000" fill-rule="nonzero" fill-opacity="1" /><path clip-path="url(#clip700)" d="M14.1184 1271.87 L14.1184 1244.56 L19.5293 1244.56 L19.5293 1265.44 L33.5338 1265.44 L33.5338 1246.6 L38.9447 1246.6 L38.9447 1265.44 L61.6384 1265.44 L61.6384 1271.87 L14.1184 1271.87 Z" fill="#000000" fill-rule="nonzero" fill-opacity="1" /><path clip-path="url(#clip700)" d="M25.9905 1239.37 L25.9905 1233.52 L61.6384 1233.52 L61.6384 1239.37 L25.9905 1239.37 M12.1132 1239.37 L12.1132 1233.52 L19.5293 1233.52 L19.5293 1239.37 L12.1132 1239.37 Z" fill="#000000" fill-rule="nonzero" fill-opacity="1" /><path clip-path="url(#clip700)" d="M40.1224 1191.63 L61.6384 1191.63 L61.6384 1197.49 L40.3133 1197.49 Q35.2526 1197.49 32.7381 1199.46 Q30.2237 1201.43 30.2237 1205.38 Q30.2237 1210.12 33.2474 1212.86 Q36.2711 1215.6 41.491 1215.6 L61.6384 1215.6 L61.6384 1221.49 L25.9905 1221.49 L25.9905 1215.6 L31.5287 1215.6 Q28.314 1213.5 26.7225 1210.66 Q25.1311 1207.8 25.1311 1204.08 Q25.1311 1197.93 28.9505 1194.78 Q32.7381 1191.63 40.1224 1191.63 Z" fill="#000000" fill-rule="nonzero" fill-opacity="1" /><path clip-path="url(#clip700)" d="M43.719 1163.75 Q43.719 1170.85 45.3422 1173.58 Q46.9655 1176.32 50.8804 1176.32 Q53.9996 1176.32 55.8457 1174.28 Q57.6599 1172.21 57.6599 1168.68 Q57.6599 1163.81 54.2224 1160.88 Q50.7531 1157.92 45.0239 1157.92 L43.719 1157.92 L43.719 1163.75 M41.3 1152.07 L61.6384 1152.07 L61.6384 1157.92 L56.2276 1157.92 Q59.4741 1159.93 61.0337 1162.92 Q62.5615 1165.91 62.5615 1170.24 Q62.5615 1175.72 59.5059 1178.96 Q56.4186 1182.18 51.2623 1182.18 Q45.2467 1182.18 42.1912 1178.17 Q39.1357 1174.12 39.1357 1166.14 L39.1357 1157.92 L38.5628 1157.92 Q34.5205 1157.92 32.3244 1160.6 Q30.0964 1163.24 30.0964 1168.05 Q30.0964 1171.1 30.8284 1174 Q31.5605 1176.89 33.0246 1179.57 L27.6137 1179.57 Q26.3724 1176.35 25.7677 1173.33 Q25.1311 1170.31 25.1311 1167.44 Q25.1311 1159.71 29.1415 1155.89 Q33.1519 1152.07 41.3 1152.07 Z" fill="#000000" fill-rule="nonzero" fill-opacity="1" /><path clip-path="url(#clip700)" d="M12.1132 1140 L12.1132 1134.15 L61.6384 1134.15 L61.6384 1140 L12.1132 1140 Z" fill="#000000" fill-rule="nonzero" fill-opacity="1" /><path clip-path="url(#clip700)" d="M43.719 1084.97 Q43.719 1092.07 45.3422 1094.81 Q46.9655 1097.55 50.8804 1097.55 Q53.9996 1097.55 55.8457 1095.51 Q57.6599 1093.44 57.6599 1089.91 Q57.6599 1085.04 54.2224 1082.11 Q50.7531 1079.15 45.0239 1079.15 L43.719 1079.15 L43.719 1084.97 M41.3 1073.29 L61.6384 1073.29 L61.6384 1079.15 L56.2276 1079.15 Q59.4741 1081.15 61.0337 1084.15 Q62.5615 1087.14 62.5615 1091.47 Q62.5615 1096.94 59.5059 1100.19 Q56.4186 1103.4 51.2623 1103.4 Q45.2467 1103.4 42.1912 1099.39 Q39.1357 1095.35 39.1357 1087.36 L39.1357 1079.15 L38.5628 1079.15 Q34.5205 1079.15 32.3244 1081.82 Q30.0964 1084.46 30.0964 1089.27 Q30.0964 1092.33 30.8284 1095.22 Q31.5605 1098.12 33.0246 1100.79 L27.6137 1100.79 Q26.3724 1097.58 25.7677 1094.55 Q25.1311 1091.53 25.1311 1088.66 Q25.1311 1080.93 29.1415 1077.11 Q33.1519 1073.29 41.3 1073.29 Z" fill="#000000" fill-rule="nonzero" fill-opacity="1" /><path clip-path="url(#clip700)" d="M15.869 1055.44 L25.9905 1055.44 L25.9905 1043.37 L30.542 1043.37 L30.542 1055.44 L49.8937 1055.44 Q54.2542 1055.44 55.4955 1054.26 Q56.7368 1053.05 56.7368 1049.39 L56.7368 1043.37 L61.6384 1043.37 L61.6384 1049.39 Q61.6384 1056.17 59.124 1058.75 Q56.5777 1061.32 49.8937 1061.32 L30.542 1061.32 L30.542 1065.62 L25.9905 1065.62 L25.9905 1061.32 L15.869 1061.32 L15.869 1055.44 Z" fill="#000000" fill-rule="nonzero" fill-opacity="1" /><path clip-path="url(#clip700)" d="M15.869 1029.88 L25.9905 1029.88 L25.9905 1017.81 L30.542 1017.81 L30.542 1029.88 L49.8937 1029.88 Q54.2542 1029.88 55.4955 1028.7 Q56.7368 1027.49 56.7368 1023.83 L56.7368 1017.81 L61.6384 1017.81 L61.6384 1023.83 Q61.6384 1030.61 59.124 1033.19 Q56.5777 1035.77 49.8937 1035.77 L30.542 1035.77 L30.542 1040.06 L25.9905 1040.06 L25.9905 1035.77 L15.869 1035.77 L15.869 1029.88 Z" fill="#000000" fill-rule="nonzero" fill-opacity="1" /><path clip-path="url(#clip700)" d="M43.719 993.911 Q43.719 1001.01 45.3422 1003.75 Q46.9655 1006.48 50.8804 1006.48 Q53.9996 1006.48 55.8457 1004.45 Q57.6599 1002.38 57.6599 998.845 Q57.6599 993.975 54.2224 991.047 Q50.7531 988.087 45.0239 988.087 L43.719 988.087 L43.719 993.911 M41.3 982.23 L61.6384 982.23 L61.6384 988.087 L56.2276 988.087 Q59.4741 990.092 61.0337 993.084 Q62.5615 996.076 62.5615 1000.4 Q62.5615 1005.88 59.5059 1009.13 Q56.4186 1012.34 51.2623 1012.34 Q45.2467 1012.34 42.1912 1008.33 Q39.1357 1004.29 39.1357 996.299 L39.1357 988.087 L38.5628 988.087 Q34.5205 988.087 32.3244 990.76 Q30.0964 993.402 30.0964 998.208 Q30.0964 1001.26 30.8284 1004.16 Q31.5605 1007.06 33.0246 1009.73 L27.6137 1009.73 Q26.3724 1006.52 25.7677 1003.49 Q25.1311 1000.47 25.1311 997.604 Q25.1311 989.869 29.1415 986.05 Q33.1519 982.23 41.3 982.23 Z" fill="#000000" fill-rule="nonzero" fill-opacity="1" /><path clip-path="url(#clip700)" d="M27.3591 944.514 L32.8336 944.514 Q31.465 946.996 30.7966 949.511 Q30.0964 951.993 30.0964 954.539 Q30.0964 960.237 33.7248 963.388 Q37.3214 966.539 43.8463 966.539 Q50.3711 966.539 53.9996 963.388 Q57.5962 960.237 57.5962 954.539 Q57.5962 951.993 56.9278 949.511 Q56.2276 946.996 54.859 944.514 L60.2698 944.514 Q61.4156 946.964 61.9886 949.606 Q62.5615 952.216 62.5615 955.176 Q62.5615 963.229 57.5007 967.971 Q52.44 972.714 43.8463 972.714 Q35.1253 972.714 30.1282 967.939 Q25.1311 963.133 25.1311 954.794 Q25.1311 952.089 25.704 949.511 Q26.2451 946.932 27.3591 944.514 Z" fill="#000000" fill-rule="nonzero" fill-opacity="1" /><path clip-path="url(#clip700)" d="M12.1132 934.551 L12.1132 928.663 L41.3637 928.663 L25.9905 911.189 L25.9905 903.709 L42.6686 922.615 L61.6384 902.914 L61.6384 910.552 L44.2282 928.663 L61.6384 928.663 L61.6384 934.551 L12.1132 934.551 Z" fill="#000000" fill-rule="nonzero" fill-opacity="1" /><path clip-path="url(#clip700)" d="M27.0408 853.134 L32.579 853.134 Q31.3059 855.616 30.6693 858.29 Q30.0327 860.964 30.0327 863.828 Q30.0327 868.189 31.3695 870.385 Q32.7063 872.549 35.3799 872.549 Q37.4169 872.549 38.5946 870.99 Q39.7404 869.43 40.7908 864.719 L41.2364 862.714 Q42.5732 856.476 45.0239 853.866 Q47.4429 851.224 51.8034 851.224 Q56.7687 851.224 59.6651 855.171 Q62.5615 859.086 62.5615 865.961 Q62.5615 868.825 61.9886 871.944 Q61.4475 875.032 60.3335 878.469 L54.2861 878.469 Q55.973 875.223 56.8323 872.072 Q57.6599 868.921 57.6599 865.833 Q57.6599 861.696 56.2594 859.468 Q54.8271 857.24 52.249 857.24 Q49.8619 857.24 48.5887 858.863 Q47.3156 860.454 46.1379 865.897 L45.6605 867.934 Q44.5147 873.377 42.1594 875.796 Q39.7722 878.215 35.6345 878.215 Q30.6056 878.215 27.8684 874.65 Q25.1311 871.085 25.1311 864.528 Q25.1311 861.282 25.6085 858.417 Q26.086 855.553 27.0408 853.134 Z" fill="#000000" fill-rule="nonzero" fill-opacity="1" /><path clip-path="url(#clip700)" d="M25.9905 841.898 L25.9905 836.042 L61.6384 836.042 L61.6384 841.898 L25.9905 841.898 M12.1132 841.898 L12.1132 836.042 L19.5293 836.042 L19.5293 841.898 L12.1132 841.898 Z" fill="#000000" fill-rule="nonzero" fill-opacity="1" /><path clip-path="url(#clip700)" d="M25.9905 826.334 L25.9905 798.516 L31.3377 798.516 L56.9596 820.541 L56.9596 798.516 L61.6384 798.516 L61.6384 827.13 L56.2912 827.13 L30.6693 805.105 L30.6693 826.334 L25.9905 826.334 Z" fill="#000000" fill-rule="nonzero" fill-opacity="1" /><path clip-path="url(#clip700)" d="M42.3504 759.08 L45.2149 759.08 L45.2149 786.007 Q51.2623 785.625 54.4452 782.379 Q57.5962 779.101 57.5962 773.276 Q57.5962 769.902 56.7687 766.751 Q55.9411 763.568 54.2861 760.449 L59.8242 760.449 Q61.161 763.6 61.8612 766.91 Q62.5615 770.22 62.5615 773.626 Q62.5615 782.156 57.5962 787.153 Q52.631 792.118 44.1646 792.118 Q35.4117 792.118 30.2873 787.408 Q25.1311 782.665 25.1311 774.645 Q25.1311 767.451 29.7781 763.282 Q34.3932 759.08 42.3504 759.08 M40.6316 764.937 Q35.8255 765.001 32.9609 767.642 Q30.0964 770.252 30.0964 774.581 Q30.0964 779.483 32.8654 782.443 Q35.6345 785.371 40.6634 785.816 L40.6316 764.937 Z" fill="#000000" fill-rule="nonzero" fill-opacity="1" /><path clip-path="url(#clip700)" d="M39.3585 705.959 Q40.0587 703.89 42.3504 701.948 Q44.642 699.975 48.6524 698.002 L61.6384 691.477 L61.6384 698.383 L49.4481 704.463 Q44.6738 706.818 43.1142 709.046 Q41.5546 711.242 41.5546 715.062 L41.5546 722.064 L61.6384 722.064 L61.6384 728.493 L14.1184 728.493 L14.1184 713.979 Q14.1184 705.831 17.5241 701.821 Q20.9297 697.811 27.8047 697.811 Q32.2925 697.811 35.2526 699.911 Q38.2126 701.98 39.3585 705.959 M19.402 722.064 L36.2711 722.064 L36.2711 713.979 Q36.2711 709.332 34.1386 706.977 Q31.9743 704.59 27.8047 704.59 Q23.6352 704.59 21.5345 706.977 Q19.402 709.332 19.402 713.979 L19.402 722.064 Z" fill="#000000" fill-rule="nonzero" fill-opacity="1" /><path clip-path="url(#clip700)" d="M12.1769 669.388 Q19.4975 673.653 26.6589 675.722 Q33.8203 677.79 41.1727 677.79 Q48.5251 677.79 55.7502 675.722 Q62.9434 673.621 70.2321 669.388 L70.2321 674.48 Q62.7524 679.255 55.5274 681.642 Q48.3023 683.997 41.1727 683.997 Q34.0749 683.997 26.8817 681.642 Q19.6884 679.286 12.1769 674.48 L12.1769 669.388 Z" fill="#000000" fill-rule="nonzero" fill-opacity="1" /><path clip-path="url(#clip700)" d="M50.5303 634.472 Q49.3845 635.458 46.7109 637.018 Q50.5303 639.151 52.2172 641.028 Q54.2542 643.384 54.2542 647.044 Q54.2542 651.341 51.0395 654.174 Q47.6657 657.166 42.0957 657.166 Q36.7485 657.166 33.1201 654.174 Q29.9054 651.5 29.9054 646.98 Q29.9054 644.657 30.8603 642.938 Q31.9106 640.933 33.7248 639.564 Q35.3481 638.291 37.5442 637.018 Q33.7248 634.886 32.0379 633.008 Q30.0009 630.652 30.0009 626.992 Q30.0009 622.695 33.2156 619.862 Q36.5894 616.871 42.1594 616.871 Q47.5066 616.871 51.135 619.862 Q54.3497 622.536 54.3497 627.056 Q54.3497 629.379 53.3949 631.098 Q52.5355 632.817 50.5303 634.472 M50.0847 647.394 Q50.0847 642.142 42.4458 638.991 Q34.1068 643.034 34.1068 647.394 Q34.1068 650.577 36.3984 652.2 Q38.8492 653.951 42.0957 653.951 Q45.6605 653.951 47.8567 652.2 Q50.0847 650.418 50.0847 647.394 M34.1704 626.642 Q34.1704 631.384 41.8093 635.045 Q50.1483 631.034 50.1483 626.642 Q50.1483 623.459 47.8567 621.836 Q45.4059 620.085 42.1594 620.085 Q38.5946 620.085 36.3984 621.836 Q34.1704 623.618 34.1704 626.642 Z" fill="#000000" fill-rule="nonzero" fill-opacity="1" /><path clip-path="url(#clip700)" d="M12.1769 604.648 L12.1769 599.556 Q19.6884 594.782 26.8817 592.426 Q34.0749 590.039 41.1727 590.039 Q48.3023 590.039 55.5274 592.426 Q62.7524 594.782 70.2321 599.556 L70.2321 604.648 Q62.9434 600.415 55.7502 598.346 Q48.5251 596.246 41.1727 596.246 Q33.8203 596.246 26.6589 598.346 Q19.4975 600.415 12.1769 604.648 Z" fill="#000000" fill-rule="nonzero" fill-opacity="1" /><path clip-path="url(#clip700)" d="M259.861 12.096 L311.024 12.096 L311.024 18.9825 L289.554 18.9825 L289.554 72.576 L281.331 72.576 L281.331 18.9825 L259.861 18.9825 L259.861 12.096 Z" fill="#000000" fill-rule="nonzero" fill-opacity="1" /><path clip-path="url(#clip700)" d="M332.696 34.1734 Q331.44 33.4443 329.941 33.1202 Q328.483 32.7556 326.701 32.7556 Q320.381 32.7556 316.979 36.8875 Q313.616 40.9789 313.616 48.6757 L313.616 72.576 L306.122 72.576 L306.122 27.2059 L313.616 27.2059 L313.616 34.2544 Q315.966 30.1225 319.733 28.1376 Q323.5 26.1121 328.888 26.1121 Q329.658 26.1121 330.59 26.2337 Q331.521 26.3147 332.656 26.5172 L332.696 34.1734 Z" fill="#000000" fill-rule="nonzero" fill-opacity="1" /><path clip-path="url(#clip700)" d="M340.514 27.2059 L347.968 27.2059 L347.968 72.576 L340.514 72.576 L340.514 27.2059 M340.514 9.54393 L347.968 9.54393 L347.968 18.9825 L340.514 18.9825 L340.514 9.54393 Z" fill="#000000" fill-rule="nonzero" fill-opacity="1" /><path clip-path="url(#clip700)" d="M384.183 49.7694 Q375.15 49.7694 371.666 51.8354 Q368.182 53.9013 368.182 58.8839 Q368.182 62.8538 370.775 65.2034 Q373.408 67.5124 377.904 67.5124 Q384.102 67.5124 387.829 63.1374 Q391.596 58.7219 391.596 51.4303 L391.596 49.7694 L384.183 49.7694 M399.05 46.6907 L399.05 72.576 L391.596 72.576 L391.596 65.6895 Q389.044 69.8214 385.236 71.8063 Q381.428 73.7508 375.919 73.7508 Q368.952 73.7508 364.82 69.8619 Q360.728 65.9325 360.728 59.3701 Q360.728 51.7138 365.832 47.825 Q370.977 43.9361 381.145 43.9361 L391.596 43.9361 L391.596 43.2069 Q391.596 38.0623 388.193 35.2672 Q384.831 32.4315 378.714 32.4315 Q374.825 32.4315 371.139 33.3632 Q367.453 34.295 364.05 36.1584 L364.05 29.2718 Q368.141 27.692 371.99 26.9223 Q375.838 26.1121 379.484 26.1121 Q389.328 26.1121 394.189 31.2163 Q399.05 36.3204 399.05 46.6907 Z" fill="#000000" fill-rule="nonzero" fill-opacity="1" /><path clip-path="url(#clip700)" d="M452.117 45.1919 L452.117 72.576 L444.663 72.576 L444.663 45.4349 Q444.663 38.994 442.151 35.7938 Q439.64 32.5936 434.617 32.5936 Q428.581 32.5936 425.097 36.4419 Q421.613 40.2903 421.613 46.9338 L421.613 72.576 L414.119 72.576 L414.119 27.2059 L421.613 27.2059 L421.613 34.2544 Q424.287 30.163 427.892 28.1376 Q431.538 26.1121 436.278 26.1121 Q444.096 26.1121 448.106 30.9732 Q452.117 35.7938 452.117 45.1919 Z" fill="#000000" fill-rule="nonzero" fill-opacity="1" /><path clip-path="url(#clip700)" d="M496.839 49.3643 Q496.839 41.2625 493.476 36.8065 Q490.155 32.3505 484.119 32.3505 Q478.123 32.3505 474.761 36.8065 Q471.439 41.2625 471.439 49.3643 Q471.439 57.4256 474.761 61.8816 Q478.123 66.3376 484.119 66.3376 Q490.155 66.3376 493.476 61.8816 Q496.839 57.4256 496.839 49.3643 M504.292 66.9452 Q504.292 78.5308 499.148 84.1616 Q494.003 89.8329 483.39 89.8329 Q479.46 89.8329 475.977 89.2252 Q472.493 88.6581 469.211 87.4428 L469.211 80.1917 Q472.493 81.9741 475.693 82.8248 Q478.893 83.6755 482.215 83.6755 Q489.547 83.6755 493.193 79.8271 Q496.839 76.0193 496.839 68.282 L496.839 64.5957 Q494.53 68.6061 490.924 70.5911 Q487.319 72.576 482.296 72.576 Q473.951 72.576 468.847 66.2161 Q463.743 59.8562 463.743 49.3643 Q463.743 38.832 468.847 32.472 Q473.951 26.1121 482.296 26.1121 Q487.319 26.1121 490.924 28.0971 Q494.53 30.082 496.839 34.0924 L496.839 27.2059 L504.292 27.2059 L504.292 66.9452 Z" fill="#000000" fill-rule="nonzero" fill-opacity="1" /><path clip-path="url(#clip700)" d="M519.645 9.54393 L527.099 9.54393 L527.099 72.576 L519.645 72.576 L519.645 9.54393 Z" fill="#000000" fill-rule="nonzero" fill-opacity="1" /><path clip-path="url(#clip700)" d="M581.503 48.0275 L581.503 51.6733 L547.232 51.6733 Q547.718 59.3701 551.85 63.421 Q556.022 67.4314 563.436 67.4314 Q567.729 67.4314 571.74 66.3781 Q575.791 65.3249 579.761 63.2184 L579.761 70.267 Q575.75 71.9684 571.537 72.8596 Q567.324 73.7508 562.99 73.7508 Q552.134 73.7508 545.774 67.4314 Q539.454 61.1119 539.454 50.3365 Q539.454 39.1965 545.45 32.6746 Q551.485 26.1121 561.694 26.1121 Q570.849 26.1121 576.155 32.0264 Q581.503 37.9003 581.503 48.0275 M574.049 45.84 Q573.968 39.7232 570.606 36.0774 Q567.284 32.4315 561.775 32.4315 Q555.536 32.4315 551.769 35.9558 Q548.042 39.4801 547.475 45.8805 L574.049 45.84 Z" fill="#000000" fill-rule="nonzero" fill-opacity="1" /><path clip-path="url(#clip700)" d="M649.963 34.0924 L649.963 9.54393 L657.417 9.54393 L657.417 72.576 L649.963 72.576 L649.963 65.7705 Q647.613 69.8214 644.008 71.8063 Q640.443 73.7508 635.42 73.7508 Q627.197 73.7508 622.012 67.1883 Q616.867 60.6258 616.867 49.9314 Q616.867 39.2371 622.012 32.6746 Q627.197 26.1121 635.42 26.1121 Q640.443 26.1121 644.008 28.0971 Q647.613 30.0415 649.963 34.0924 M624.564 49.9314 Q624.564 58.1548 627.926 62.8538 Q631.329 67.5124 637.243 67.5124 Q643.157 67.5124 646.56 62.8538 Q649.963 58.1548 649.963 49.9314 Q649.963 41.7081 646.56 37.0496 Q643.157 32.3505 637.243 32.3505 Q631.329 32.3505 627.926 37.0496 Q624.564 41.7081 624.564 49.9314 Z" fill="#000000" fill-rule="nonzero" fill-opacity="1" /><path clip-path="url(#clip700)" d="M711.577 48.0275 L711.577 51.6733 L677.306 51.6733 Q677.793 59.3701 681.924 63.421 Q686.097 67.4314 693.51 67.4314 Q697.804 67.4314 701.814 66.3781 Q705.865 65.3249 709.835 63.2184 L709.835 70.267 Q705.825 71.9684 701.612 72.8596 Q697.399 73.7508 693.064 73.7508 Q682.208 73.7508 675.848 67.4314 Q669.529 61.1119 669.529 50.3365 Q669.529 39.1965 675.524 32.6746 Q681.56 26.1121 691.768 26.1121 Q700.923 26.1121 706.23 32.0264 Q711.577 37.9003 711.577 48.0275 M704.123 45.84 Q704.042 39.7232 700.68 36.0774 Q697.358 32.4315 691.849 32.4315 Q685.611 32.4315 681.843 35.9558 Q678.117 39.4801 677.55 45.8805 L704.123 45.84 Z" fill="#000000" fill-rule="nonzero" fill-opacity="1" /><path clip-path="url(#clip700)" d="M761.525 45.1919 L761.525 72.576 L754.071 72.576 L754.071 45.4349 Q754.071 38.994 751.56 35.7938 Q749.048 32.5936 744.025 32.5936 Q737.989 32.5936 734.505 36.4419 Q731.021 40.2903 731.021 46.9338 L731.021 72.576 L723.527 72.576 L723.527 27.2059 L731.021 27.2059 L731.021 34.2544 Q733.695 30.163 737.3 28.1376 Q740.946 26.1121 745.686 26.1121 Q753.504 26.1121 757.514 30.9732 Q761.525 35.7938 761.525 45.1919 Z" fill="#000000" fill-rule="nonzero" fill-opacity="1" /><path clip-path="url(#clip700)" d="M805.315 28.5427 L805.315 35.5912 Q802.155 33.9709 798.753 33.1607 Q795.35 32.3505 791.704 32.3505 Q786.154 32.3505 783.359 34.0519 Q780.605 35.7533 780.605 39.156 Q780.605 41.7486 782.589 43.2475 Q784.574 44.7058 790.57 46.0426 L793.122 46.6097 Q801.062 48.3111 804.383 51.4303 Q807.746 54.509 807.746 60.0587 Q807.746 66.3781 802.722 70.0644 Q797.74 73.7508 788.99 73.7508 Q785.344 73.7508 781.374 73.0216 Q777.445 72.3329 773.07 70.9151 L773.07 63.2184 Q777.202 65.3654 781.212 66.4591 Q785.223 67.5124 789.152 67.5124 Q794.418 67.5124 797.254 65.73 Q800.089 63.9071 800.089 60.6258 Q800.089 57.5877 798.023 55.9673 Q795.998 54.3469 789.071 52.8481 L786.478 52.2405 Q779.551 50.7821 776.473 47.7845 Q773.394 44.7463 773.394 39.4801 Q773.394 33.0797 777.931 29.5959 Q782.468 26.1121 790.813 26.1121 Q794.945 26.1121 798.591 26.7198 Q802.236 27.3274 805.315 28.5427 Z" fill="#000000" fill-rule="nonzero" fill-opacity="1" /><path clip-path="url(#clip700)" d="M819.615 27.2059 L827.068 27.2059 L827.068 72.576 L819.615 72.576 L819.615 27.2059 M819.615 9.54393 L827.068 9.54393 L827.068 18.9825 L819.615 18.9825 L819.615 9.54393 Z" fill="#000000" fill-rule="nonzero" fill-opacity="1" /><path clip-path="url(#clip700)" d="M850.037 14.324 L850.037 27.2059 L865.39 27.2059 L865.39 32.9987 L850.037 32.9987 L850.037 57.6282 Q850.037 63.1779 851.536 64.7578 Q853.075 66.3376 857.734 66.3376 L865.39 66.3376 L865.39 72.576 L857.734 72.576 Q849.105 72.576 845.824 69.3758 Q842.543 66.1351 842.543 57.6282 L842.543 32.9987 L837.074 32.9987 L837.074 27.2059 L842.543 27.2059 L842.543 14.324 L850.037 14.324 Z" fill="#000000" fill-rule="nonzero" fill-opacity="1" /><path clip-path="url(#clip700)" d="M894.07 76.7889 Q890.911 84.8907 887.913 87.3618 Q884.915 89.8329 879.892 89.8329 L873.937 89.8329 L873.937 83.5945 L878.312 83.5945 Q881.391 83.5945 883.092 82.1361 Q884.794 80.6778 886.86 75.2496 L888.197 71.8468 L869.846 27.2059 L877.745 27.2059 L891.923 62.6918 L906.102 27.2059 L914.001 27.2059 L894.07 76.7889 Z" fill="#000000" fill-rule="nonzero" fill-opacity="1" /><path clip-path="url(#clip700)" d="M976.952 34.1734 Q975.696 33.4443 974.197 33.1202 Q972.739 32.7556 970.956 32.7556 Q964.637 32.7556 961.234 36.8875 Q957.872 40.9789 957.872 48.6757 L957.872 72.576 L950.378 72.576 L950.378 27.2059 L957.872 27.2059 L957.872 34.2544 Q960.222 30.1225 963.989 28.1376 Q967.756 26.1121 973.144 26.1121 Q973.914 26.1121 974.845 26.2337 Q975.777 26.3147 976.911 26.5172 L976.952 34.1734 Z" fill="#000000" fill-rule="nonzero" fill-opacity="1" /><path clip-path="url(#clip700)" d="M1021.75 48.0275 L1021.75 51.6733 L987.484 51.6733 Q987.97 59.3701 992.102 63.421 Q996.275 67.4314 1003.69 67.4314 Q1007.98 67.4314 1011.99 66.3781 Q1016.04 65.3249 1020.01 63.2184 L1020.01 70.267 Q1016 71.9684 1011.79 72.8596 Q1007.58 73.7508 1003.24 73.7508 Q992.386 73.7508 986.026 67.4314 Q979.706 61.1119 979.706 50.3365 Q979.706 39.1965 985.702 32.6746 Q991.738 26.1121 1001.95 26.1121 Q1011.1 26.1121 1016.41 32.0264 Q1021.75 37.9003 1021.75 48.0275 M1014.3 45.84 Q1014.22 39.7232 1010.86 36.0774 Q1007.54 32.4315 1002.03 32.4315 Q995.789 32.4315 992.021 35.9558 Q988.294 39.4801 987.727 45.8805 L1014.3 45.84 Z" fill="#000000" fill-rule="nonzero" fill-opacity="1" /><path clip-path="url(#clip700)" d="M1063.84 34.0924 L1063.84 9.54393 L1071.3 9.54393 L1071.3 72.576 L1063.84 72.576 L1063.84 65.7705 Q1061.49 69.8214 1057.89 71.8063 Q1054.32 73.7508 1049.3 73.7508 Q1041.08 73.7508 1035.89 67.1883 Q1030.75 60.6258 1030.75 49.9314 Q1030.75 39.2371 1035.89 32.6746 Q1041.08 26.1121 1049.3 26.1121 Q1054.32 26.1121 1057.89 28.0971 Q1061.49 30.0415 1063.84 34.0924 M1038.44 49.9314 Q1038.44 58.1548 1041.81 62.8538 Q1045.21 67.5124 1051.12 67.5124 Q1057.04 67.5124 1060.44 62.8538 Q1063.84 58.1548 1063.84 49.9314 Q1063.84 41.7081 1060.44 37.0496 Q1057.04 32.3505 1051.12 32.3505 Q1045.21 32.3505 1041.81 37.0496 Q1038.44 41.7081 1038.44 49.9314 Z" fill="#000000" fill-rule="nonzero" fill-opacity="1" /><path clip-path="url(#clip700)" d="M1085.88 54.671 L1085.88 27.2059 L1093.33 27.2059 L1093.33 54.3874 Q1093.33 60.8284 1095.85 64.0691 Q1098.36 67.2693 1103.38 67.2693 Q1109.42 67.2693 1112.9 63.421 Q1116.42 59.5726 1116.42 52.9291 L1116.42 27.2059 L1123.88 27.2059 L1123.88 72.576 L1116.42 72.576 L1116.42 65.6084 Q1113.71 69.7404 1110.11 71.7658 Q1106.54 73.7508 1101.8 73.7508 Q1093.98 73.7508 1089.93 68.8897 Q1085.88 64.0286 1085.88 54.671 M1104.64 26.1121 L1104.64 26.1121 Z" fill="#000000" fill-rule="nonzero" fill-opacity="1" /><path clip-path="url(#clip700)" d="M1171.88 28.9478 L1171.88 35.9153 Q1168.72 34.1734 1165.52 33.3227 Q1162.36 32.4315 1159.12 32.4315 Q1151.87 32.4315 1147.86 37.0496 Q1143.85 41.6271 1143.85 49.9314 Q1143.85 58.2358 1147.86 62.8538 Q1151.87 67.4314 1159.12 67.4314 Q1162.36 67.4314 1165.52 66.5807 Q1168.72 65.6895 1171.88 63.9476 L1171.88 70.8341 Q1168.76 72.2924 1165.4 73.0216 Q1162.08 73.7508 1158.31 73.7508 Q1148.06 73.7508 1142.03 67.3098 Q1135.99 60.8689 1135.99 49.9314 Q1135.99 38.832 1142.07 32.472 Q1148.18 26.1121 1158.8 26.1121 Q1162.24 26.1121 1165.52 26.8413 Q1168.8 27.5299 1171.88 28.9478 Z" fill="#000000" fill-rule="nonzero" fill-opacity="1" /><path clip-path="url(#clip700)" d="M1223.65 48.0275 L1223.65 51.6733 L1189.38 51.6733 Q1189.87 59.3701 1194 63.421 Q1198.17 67.4314 1205.58 67.4314 Q1209.88 67.4314 1213.89 66.3781 Q1217.94 65.3249 1221.91 63.2184 L1221.91 70.267 Q1217.9 71.9684 1213.69 72.8596 Q1209.47 73.7508 1205.14 73.7508 Q1194.28 73.7508 1187.92 67.4314 Q1181.6 61.1119 1181.6 50.3365 Q1181.6 39.1965 1187.6 32.6746 Q1193.63 26.1121 1203.84 26.1121 Q1213 26.1121 1218.3 32.0264 Q1223.65 37.9003 1223.65 48.0275 M1216.2 45.84 Q1216.12 39.7232 1212.75 36.0774 Q1209.43 32.4315 1203.92 32.4315 Q1197.69 32.4315 1193.92 35.9558 Q1190.19 39.4801 1189.62 45.8805 L1216.2 45.84 Z" fill="#000000" fill-rule="nonzero" fill-opacity="1" /><path clip-path="url(#clip700)" d="M1264.81 28.5427 L1264.81 35.5912 Q1261.65 33.9709 1258.25 33.1607 Q1254.84 32.3505 1251.2 32.3505 Q1245.65 32.3505 1242.85 34.0519 Q1240.1 35.7533 1240.1 39.156 Q1240.1 41.7486 1242.08 43.2475 Q1244.07 44.7058 1250.06 46.0426 L1252.62 46.6097 Q1260.56 48.3111 1263.88 51.4303 Q1267.24 54.509 1267.24 60.0587 Q1267.24 66.3781 1262.22 70.0644 Q1257.23 73.7508 1248.48 73.7508 Q1244.84 73.7508 1240.87 73.0216 Q1236.94 72.3329 1232.56 70.9151 L1232.56 63.2184 Q1236.7 65.3654 1240.71 66.4591 Q1244.72 67.5124 1248.65 67.5124 Q1253.91 67.5124 1256.75 65.73 Q1259.58 63.9071 1259.58 60.6258 Q1259.58 57.5877 1257.52 55.9673 Q1255.49 54.3469 1248.56 52.8481 L1245.97 52.2405 Q1239.05 50.7821 1235.97 47.7845 Q1232.89 44.7463 1232.89 39.4801 Q1232.89 33.0797 1237.42 29.5959 Q1241.96 26.1121 1250.31 26.1121 Q1254.44 26.1121 1258.08 26.7198 Q1261.73 27.3274 1264.81 28.5427 Z" fill="#000000" fill-rule="nonzero" fill-opacity="1" /><path clip-path="url(#clip700)" d="M1328.45 9.54393 L1328.45 15.7418 L1321.32 15.7418 Q1317.31 15.7418 1315.73 17.3622 Q1314.19 18.9825 1314.19 23.1955 L1314.19 27.2059 L1326.46 27.2059 L1326.46 32.9987 L1314.19 32.9987 L1314.19 72.576 L1306.7 72.576 L1306.7 32.9987 L1299.57 32.9987 L1299.57 27.2059 L1306.7 27.2059 L1306.7 24.0462 Q1306.7 16.471 1310.22 13.0277 Q1313.74 9.54393 1321.4 9.54393 L1328.45 9.54393 Z" fill="#000000" fill-rule="nonzero" fill-opacity="1" /><path clip-path="url(#clip700)" d="M1334.69 27.2059 L1342.14 27.2059 L1342.14 72.576 L1334.69 72.576 L1334.69 27.2059 M1334.69 9.54393 L1342.14 9.54393 L1342.14 18.9825 L1334.69 18.9825 L1334.69 9.54393 Z" fill="#000000" fill-rule="nonzero" fill-opacity="1" /><path clip-path="url(#clip700)" d="M1395.45 45.1919 L1395.45 72.576 L1388 72.576 L1388 45.4349 Q1388 38.994 1385.49 35.7938 Q1382.97 32.5936 1377.95 32.5936 Q1371.91 32.5936 1368.43 36.4419 Q1364.95 40.2903 1364.95 46.9338 L1364.95 72.576 L1357.45 72.576 L1357.45 27.2059 L1364.95 27.2059 L1364.95 34.2544 Q1367.62 30.163 1371.23 28.1376 Q1374.87 26.1121 1379.61 26.1121 Q1387.43 26.1121 1391.44 30.9732 Q1395.45 35.7938 1395.45 45.1919 Z" fill="#000000" fill-rule="nonzero" fill-opacity="1" /><path clip-path="url(#clip700)" d="M1430.94 49.7694 Q1421.9 49.7694 1418.42 51.8354 Q1414.94 53.9013 1414.94 58.8839 Q1414.94 62.8538 1417.53 65.2034 Q1420.16 67.5124 1424.66 67.5124 Q1430.86 67.5124 1434.58 63.1374 Q1438.35 58.7219 1438.35 51.4303 L1438.35 49.7694 L1430.94 49.7694 M1445.8 46.6907 L1445.8 72.576 L1438.35 72.576 L1438.35 65.6895 Q1435.8 69.8214 1431.99 71.8063 Q1428.18 73.7508 1422.67 73.7508 Q1415.71 73.7508 1411.57 69.8619 Q1407.48 65.9325 1407.48 59.3701 Q1407.48 51.7138 1412.59 47.825 Q1417.73 43.9361 1427.9 43.9361 L1438.35 43.9361 L1438.35 43.2069 Q1438.35 38.0623 1434.95 35.2672 Q1431.58 32.4315 1425.47 32.4315 Q1421.58 32.4315 1417.89 33.3632 Q1414.21 34.295 1410.8 36.1584 L1410.8 29.2718 Q1414.9 27.692 1418.74 26.9223 Q1422.59 26.1121 1426.24 26.1121 Q1436.08 26.1121 1440.94 31.2163 Q1445.8 36.3204 1445.8 46.6907 Z" fill="#000000" fill-rule="nonzero" fill-opacity="1" /><path clip-path="url(#clip700)" d="M1461.16 9.54393 L1468.61 9.54393 L1468.61 72.576 L1461.16 72.576 L1461.16 9.54393 Z" fill="#000000" fill-rule="nonzero" fill-opacity="1" /><path clip-path="url(#clip700)" d="M1539.5 28.5427 L1539.5 35.5912 Q1536.34 33.9709 1532.94 33.1607 Q1529.54 32.3505 1525.89 32.3505 Q1520.34 32.3505 1517.55 34.0519 Q1514.79 35.7533 1514.79 39.156 Q1514.79 41.7486 1516.78 43.2475 Q1518.76 44.7058 1524.76 46.0426 L1527.31 46.6097 Q1535.25 48.3111 1538.57 51.4303 Q1541.93 54.509 1541.93 60.0587 Q1541.93 66.3781 1536.91 70.0644 Q1531.93 73.7508 1523.18 73.7508 Q1519.53 73.7508 1515.56 73.0216 Q1511.63 72.3329 1507.26 70.9151 L1507.26 63.2184 Q1511.39 65.3654 1515.4 66.4591 Q1519.41 67.5124 1523.34 67.5124 Q1528.6 67.5124 1531.44 65.73 Q1534.28 63.9071 1534.28 60.6258 Q1534.28 57.5877 1532.21 55.9673 Q1530.18 54.3469 1523.26 52.8481 L1520.66 52.2405 Q1513.74 50.7821 1510.66 47.7845 Q1507.58 44.7463 1507.58 39.4801 Q1507.58 33.0797 1512.12 29.5959 Q1516.65 26.1121 1525 26.1121 Q1529.13 26.1121 1532.78 26.7198 Q1536.42 27.3274 1539.5 28.5427 Z" fill="#000000" fill-rule="nonzero" fill-opacity="1" /><path clip-path="url(#clip700)" d="M1553.8 27.2059 L1561.25 27.2059 L1561.25 72.576 L1553.8 72.576 L1553.8 27.2059 M1553.8 9.54393 L1561.25 9.54393 L1561.25 18.9825 L1553.8 18.9825 L1553.8 9.54393 Z" fill="#000000" fill-rule="nonzero" fill-opacity="1" /><path clip-path="url(#clip700)" d="M1573.61 27.2059 L1609.01 27.2059 L1609.01 34.0114 L1580.98 66.6212 L1609.01 66.6212 L1609.01 72.576 L1572.6 72.576 L1572.6 65.7705 L1600.63 33.1607 L1573.61 33.1607 L1573.61 27.2059 Z" fill="#000000" fill-rule="nonzero" fill-opacity="1" /><path clip-path="url(#clip700)" d="M1659.21 48.0275 L1659.21 51.6733 L1624.93 51.6733 Q1625.42 59.3701 1629.55 63.421 Q1633.72 67.4314 1641.14 67.4314 Q1645.43 67.4314 1649.44 66.3781 Q1653.49 65.3249 1657.46 63.2184 L1657.46 70.267 Q1653.45 71.9684 1649.24 72.8596 Q1645.03 73.7508 1640.69 73.7508 Q1629.84 73.7508 1623.48 67.4314 Q1617.16 61.1119 1617.16 50.3365 Q1617.16 39.1965 1623.15 32.6746 Q1629.19 26.1121 1639.4 26.1121 Q1648.55 26.1121 1653.86 32.0264 Q1659.21 37.9003 1659.21 48.0275 M1651.75 45.84 Q1651.67 39.7232 1648.31 36.0774 Q1644.99 32.4315 1639.48 32.4315 Q1633.24 32.4315 1629.47 35.9558 Q1625.74 39.4801 1625.18 45.8805 L1651.75 45.84 Z" fill="#000000" fill-rule="nonzero" fill-opacity="1" /><path clip-path="url(#clip700)" d="M1673.34 62.2867 L1681.89 62.2867 L1681.89 69.2543 L1675.25 82.2172 L1670.02 82.2172 L1673.34 69.2543 L1673.34 62.2867 Z" fill="#000000" fill-rule="nonzero" fill-opacity="1" /><path clip-path="url(#clip700)" d="M1743.75 39.075 Q1738.24 39.075 1735 42.8424 Q1731.8 46.6097 1731.8 53.1722 Q1731.8 59.6941 1735 63.502 Q1738.24 67.2693 1743.75 67.2693 Q1749.26 67.2693 1752.46 63.502 Q1755.7 59.6941 1755.7 53.1722 Q1755.7 46.6097 1752.46 42.8424 Q1749.26 39.075 1743.75 39.075 M1759.99 13.4328 L1759.99 20.8865 Q1756.91 19.4281 1753.75 18.6585 Q1750.63 17.8888 1747.56 17.8888 Q1739.45 17.8888 1735.16 23.3575 Q1730.91 28.8262 1730.3 39.8852 Q1732.69 36.3609 1736.29 34.4975 Q1739.9 32.5936 1744.23 32.5936 Q1753.35 32.5936 1758.61 38.1433 Q1763.92 43.6525 1763.92 53.1722 Q1763.92 62.4892 1758.41 68.12 Q1752.9 73.7508 1743.75 73.7508 Q1733.26 73.7508 1727.71 65.73 Q1722.16 57.6687 1722.16 42.3968 Q1722.16 28.0566 1728.96 19.5497 Q1735.77 11.0023 1747.23 11.0023 Q1750.31 11.0023 1753.43 11.6099 Q1756.59 12.2175 1759.99 13.4328 Z" fill="#000000" fill-rule="nonzero" fill-opacity="1" /><path clip-path="url(#clip700)" d="M1773.2 46.5287 L1795.03 46.5287 L1795.03 53.1722 L1773.2 53.1722 L1773.2 46.5287 Z" fill="#000000" fill-rule="nonzero" fill-opacity="1" /><path clip-path="url(#clip700)" d="M1833.19 34.1734 Q1831.94 33.4443 1830.44 33.1202 Q1828.98 32.7556 1827.2 32.7556 Q1820.88 32.7556 1817.47 36.8875 Q1814.11 40.9789 1814.11 48.6757 L1814.11 72.576 L1806.62 72.576 L1806.62 27.2059 L1814.11 27.2059 L1814.11 34.2544 Q1816.46 30.1225 1820.23 28.1376 Q1824 26.1121 1829.38 26.1121 Q1830.15 26.1121 1831.08 26.2337 Q1832.02 26.3147 1833.15 26.5172 L1833.19 34.1734 Z" fill="#000000" fill-rule="nonzero" fill-opacity="1" /><path clip-path="url(#clip700)" d="M1877.99 48.0275 L1877.99 51.6733 L1843.72 51.6733 Q1844.21 59.3701 1848.34 63.421 Q1852.51 67.4314 1859.93 67.4314 Q1864.22 67.4314 1868.23 66.3781 Q1872.28 65.3249 1876.25 63.2184 L1876.25 70.267 Q1872.24 71.9684 1868.03 72.8596 Q1863.82 73.7508 1859.48 73.7508 Q1848.63 73.7508 1842.27 67.4314 Q1835.95 61.1119 1835.95 50.3365 Q1835.95 39.1965 1841.94 32.6746 Q1847.98 26.1121 1858.19 26.1121 Q1867.34 26.1121 1872.65 32.0264 Q1877.99 37.9003 1877.99 48.0275 M1870.54 45.84 Q1870.46 39.7232 1867.1 36.0774 Q1863.78 32.4315 1858.27 32.4315 Q1852.03 32.4315 1848.26 35.9558 Q1844.53 39.4801 1843.97 45.8805 L1870.54 45.84 Z" fill="#000000" fill-rule="nonzero" fill-opacity="1" /><path clip-path="url(#clip700)" d="M1920.08 49.3643 Q1920.08 41.2625 1916.72 36.8065 Q1913.4 32.3505 1907.36 32.3505 Q1901.37 32.3505 1898.01 36.8065 Q1894.68 41.2625 1894.68 49.3643 Q1894.68 57.4256 1898.01 61.8816 Q1901.37 66.3376 1907.36 66.3376 Q1913.4 66.3376 1916.72 61.8816 Q1920.08 57.4256 1920.08 49.3643 M1927.54 66.9452 Q1927.54 78.5308 1922.39 84.1616 Q1917.25 89.8329 1906.63 89.8329 Q1902.7 89.8329 1899.22 89.2252 Q1895.74 88.6581 1892.46 87.4428 L1892.46 80.1917 Q1895.74 81.9741 1898.94 82.8248 Q1902.14 83.6755 1905.46 83.6755 Q1912.79 83.6755 1916.44 79.8271 Q1920.08 76.0193 1920.08 68.282 L1920.08 64.5957 Q1917.77 68.6061 1914.17 70.5911 Q1910.56 72.576 1905.54 72.576 Q1897.2 72.576 1892.09 66.2161 Q1886.99 59.8562 1886.99 49.3643 Q1886.99 38.832 1892.09 32.472 Q1897.2 26.1121 1905.54 26.1121 Q1910.56 26.1121 1914.17 28.0971 Q1917.77 30.082 1920.08 34.0924 L1920.08 27.2059 L1927.54 27.2059 L1927.54 66.9452 Z" fill="#000000" fill-rule="nonzero" fill-opacity="1" /><path clip-path="url(#clip700)" d="M1942.12 54.671 L1942.12 27.2059 L1949.57 27.2059 L1949.57 54.3874 Q1949.57 60.8284 1952.09 64.0691 Q1954.6 67.2693 1959.62 67.2693 Q1965.66 67.2693 1969.14 63.421 Q1972.66 59.5726 1972.66 52.9291 L1972.66 27.2059 L1980.12 27.2059 L1980.12 72.576 L1972.66 72.576 L1972.66 65.6084 Q1969.95 69.7404 1966.34 71.7658 Q1962.78 73.7508 1958.04 73.7508 Q1950.22 73.7508 1946.17 68.8897 Q1942.12 64.0286 1942.12 54.671 M1960.88 26.1121 L1960.88 26.1121 Z" fill="#000000" fill-rule="nonzero" fill-opacity="1" /><path clip-path="url(#clip700)" d="M1995.47 9.54393 L2002.92 9.54393 L2002.92 72.576 L1995.47 72.576 L1995.47 9.54393 Z" fill="#000000" fill-rule="nonzero" fill-opacity="1" /><path clip-path="url(#clip700)" d="M2039.14 49.7694 Q2030.11 49.7694 2026.62 51.8354 Q2023.14 53.9013 2023.14 58.8839 Q2023.14 62.8538 2025.73 65.2034 Q2028.36 67.5124 2032.86 67.5124 Q2039.06 67.5124 2042.79 63.1374 Q2046.55 58.7219 2046.55 51.4303 L2046.55 49.7694 L2039.14 49.7694 M2054.01 46.6907 L2054.01 72.576 L2046.55 72.576 L2046.55 65.6895 Q2044 69.8214 2040.19 71.8063 Q2036.38 73.7508 2030.88 73.7508 Q2023.91 73.7508 2019.78 69.8619 Q2015.68 65.9325 2015.68 59.3701 Q2015.68 51.7138 2020.79 47.825 Q2025.93 43.9361 2036.1 43.9361 L2046.55 43.9361 L2046.55 43.2069 Q2046.55 38.0623 2043.15 35.2672 Q2039.79 32.4315 2033.67 32.4315 Q2029.78 32.4315 2026.1 33.3632 Q2022.41 34.295 2019.01 36.1584 L2019.01 29.2718 Q2023.1 27.692 2026.95 26.9223 Q2030.79 26.1121 2034.44 26.1121 Q2044.28 26.1121 2049.15 31.2163 Q2054.01 36.3204 2054.01 46.6907 Z" fill="#000000" fill-rule="nonzero" fill-opacity="1" /><path clip-path="url(#clip700)" d="M2095.65 34.1734 Q2094.39 33.4443 2092.89 33.1202 Q2091.44 32.7556 2089.65 32.7556 Q2083.33 32.7556 2079.93 36.8875 Q2076.57 40.9789 2076.57 48.6757 L2076.57 72.576 L2069.08 72.576 L2069.08 27.2059 L2076.57 27.2059 L2076.57 34.2544 Q2078.92 30.1225 2082.69 28.1376 Q2086.45 26.1121 2091.84 26.1121 Q2092.61 26.1121 2093.54 26.2337 Q2094.47 26.3147 2095.61 26.5172 L2095.65 34.1734 Z" fill="#000000" fill-rule="nonzero" fill-opacity="1" /><path clip-path="url(#clip700)" d="M2166.42 14.0809 L2166.42 22.0612 Q2161.76 19.8332 2157.63 18.7395 Q2153.5 17.6457 2149.65 17.6457 Q2142.96 17.6457 2139.32 20.2383 Q2135.71 22.8309 2135.71 27.611 Q2135.71 31.6214 2138.1 33.6873 Q2140.53 35.7128 2147.26 36.9686 L2152.2 37.9813 Q2161.36 39.7232 2165.69 44.1387 Q2170.06 48.5136 2170.06 55.8863 Q2170.06 64.6767 2164.15 69.2137 Q2158.28 73.7508 2146.89 73.7508 Q2142.6 73.7508 2137.74 72.7785 Q2132.92 71.8063 2127.73 69.9024 L2127.73 61.4765 Q2132.72 64.2716 2137.5 65.6895 Q2142.28 67.1073 2146.89 67.1073 Q2153.9 67.1073 2157.71 64.3527 Q2161.52 61.598 2161.52 56.4939 Q2161.52 52.0379 2158.76 49.5264 Q2156.05 47.0148 2149.81 45.759 L2144.83 44.7868 Q2135.67 42.9639 2131.58 39.075 Q2127.49 35.1862 2127.49 28.2591 Q2127.49 20.2383 2133.12 15.6203 Q2138.79 11.0023 2148.72 11.0023 Q2152.97 11.0023 2157.39 11.7719 Q2161.8 12.5416 2166.42 14.0809 Z" fill="#000000" fill-rule="nonzero" fill-opacity="1" /><path clip-path="url(#clip700)" d="M2182.83 12.096 L2191.01 12.096 L2191.01 72.576 L2182.83 72.576 L2182.83 12.096 Z" fill="#000000" fill-rule="nonzero" fill-opacity="1" /><path clip-path="url(#clip700)" d="M2235.97 44.2197 Q2238.61 45.1109 2241.08 48.0275 Q2243.59 50.9442 2246.1 56.0483 L2254.4 72.576 L2245.61 72.576 L2237.88 57.061 Q2234.88 50.9847 2232.04 48.9997 Q2229.25 47.0148 2224.39 47.0148 L2215.48 47.0148 L2215.48 72.576 L2207.29 72.576 L2207.29 12.096 L2225.76 12.096 Q2236.13 12.096 2241.24 16.4305 Q2246.34 20.7649 2246.34 29.5149 Q2246.34 35.2267 2243.67 38.994 Q2241.04 42.7613 2235.97 44.2197 M2215.48 18.8205 L2215.48 40.2903 L2225.76 40.2903 Q2231.68 40.2903 2234.68 37.5762 Q2237.71 34.8216 2237.71 29.5149 Q2237.71 24.2082 2234.68 21.5346 Q2231.68 18.8205 2225.76 18.8205 L2215.48 18.8205 Z" fill="#000000" fill-rule="nonzero" fill-opacity="1" /><path clip-path="url(#clip700)" d="M2308.89 9.62495 Q2303.46 18.942 2300.83 28.0566 Q2298.19 37.1711 2298.19 46.5287 Q2298.19 55.8863 2300.83 65.0818 Q2303.5 74.2369 2308.89 83.5134 L2302.41 83.5134 Q2296.33 73.9938 2293.29 64.7983 Q2290.3 55.6027 2290.3 46.5287 Q2290.3 37.4952 2293.29 28.3401 Q2296.29 19.1851 2302.41 9.62495 L2308.89 9.62495 Z" fill="#000000" fill-rule="nonzero" fill-opacity="1" /><path clip-path="url(#clip700)" d="M2352.36 44.2197 Q2354.99 45.1109 2357.46 48.0275 Q2359.97 50.9442 2362.48 56.0483 L2370.79 72.576 L2362 72.576 L2354.26 57.061 Q2351.26 50.9847 2348.43 48.9997 Q2345.63 47.0148 2340.77 47.0148 L2331.86 47.0148 L2331.86 72.576 L2323.67 72.576 L2323.67 12.096 L2342.15 12.096 Q2352.52 12.096 2357.62 16.4305 Q2362.73 20.7649 2362.73 29.5149 Q2362.73 35.2267 2360.05 38.994 Q2357.42 42.7613 2352.36 44.2197 M2331.86 18.8205 L2331.86 40.2903 L2342.15 40.2903 Q2348.06 40.2903 2351.06 37.5762 Q2354.1 34.8216 2354.1 29.5149 Q2354.1 24.2082 2351.06 21.5346 Q2348.06 18.8205 2342.15 18.8205 L2331.86 18.8205 Z" fill="#000000" fill-rule="nonzero" fill-opacity="1" /><path clip-path="url(#clip700)" d="M2396.27 45.1514 Q2394.24 41.6676 2390.15 41.6676 Q2386.06 41.6676 2384.03 45.1514 Q2381.97 48.6352 2381.97 55.6027 Q2381.97 62.6108 2384.03 66.0946 Q2386.06 69.5783 2390.15 69.5783 Q2394.24 69.5783 2396.27 66.0946 Q2398.33 62.6108 2398.33 55.6027 Q2398.33 48.6352 2396.27 45.1514 M2390.15 38.0623 Q2396.67 38.0623 2400.12 42.5588 Q2403.56 47.0553 2403.56 55.6027 Q2403.56 64.1906 2400.12 68.6871 Q2396.67 73.1836 2390.15 73.1836 Q2383.59 73.1836 2380.14 68.6871 Q2376.7 64.1906 2376.7 55.6027 Q2376.7 47.0553 2380.14 42.5588 Q2383.59 38.0623 2390.15 38.0623 Z" fill="#000000" fill-rule="nonzero" fill-opacity="1" /><path clip-path="url(#clip700)" d="M2441.6 34.9026 L2493.53 34.9026 L2493.53 41.7081 L2441.6 41.7081 L2441.6 34.9026 M2441.6 51.4303 L2493.53 51.4303 L2493.53 58.3168 L2441.6 58.3168 L2441.6 51.4303 Z" fill="#000000" fill-rule="nonzero" fill-opacity="1" /><path clip-path="url(#clip700)" d="M2555.06 43.8551 Q2549.23 43.8551 2545.87 46.9743 Q2542.55 50.0935 2542.55 55.5622 Q2542.55 61.0309 2545.87 64.1501 Q2549.23 67.2693 2555.06 67.2693 Q2560.9 67.2693 2564.26 64.1501 Q2567.62 60.9904 2567.62 55.5622 Q2567.62 50.0935 2564.26 46.9743 Q2560.94 43.8551 2555.06 43.8551 M2546.88 40.3713 Q2541.61 39.075 2538.66 35.4697 Q2535.74 31.8644 2535.74 26.6793 Q2535.74 19.4281 2540.88 15.2152 Q2546.07 11.0023 2555.06 11.0023 Q2564.1 11.0023 2569.24 15.2152 Q2574.39 19.4281 2574.39 26.6793 Q2574.39 31.8644 2571.43 35.4697 Q2568.51 39.075 2563.29 40.3713 Q2569.2 41.7486 2572.48 45.759 Q2575.8 49.7694 2575.8 55.5622 Q2575.8 64.3527 2570.42 69.0517 Q2565.07 73.7508 2555.06 73.7508 Q2545.06 73.7508 2539.67 69.0517 Q2534.32 64.3527 2534.32 55.5622 Q2534.32 49.7694 2537.64 45.759 Q2540.97 41.7486 2546.88 40.3713 M2543.88 27.4489 Q2543.88 32.148 2546.8 34.7811 Q2549.76 37.4142 2555.06 37.4142 Q2560.33 37.4142 2563.29 34.7811 Q2566.28 32.148 2566.28 27.4489 Q2566.28 22.7499 2563.29 20.1168 Q2560.33 17.4837 2555.06 17.4837 Q2549.76 17.4837 2546.8 20.1168 Q2543.88 22.7499 2543.88 27.4489 Z" fill="#000000" fill-rule="nonzero" fill-opacity="1" /><path clip-path="url(#clip700)" d="M2588.12 9.62495 L2594.6 9.62495 Q2600.68 19.1851 2603.67 28.3401 Q2606.71 37.4952 2606.71 46.5287 Q2606.71 55.6027 2603.67 64.7983 Q2600.68 73.9938 2594.6 83.5134 L2588.12 83.5134 Q2593.51 74.2369 2596.14 65.0818 Q2598.81 55.8863 2598.81 46.5287 Q2598.81 37.1711 2596.14 28.0566 Q2593.51 18.942 2588.12 9.62495 Z" fill="#000000" fill-rule="nonzero" fill-opacity="1" /><polyline clip-path="url(#clip701)" style="stroke:#009af9; stroke-linecap:round; stroke-linejoin:round; stroke-width:8; stroke-opacity:1; fill:none" points="294.164,407.553 484.018,407.308 673.871,407.023 863.725,406.703 1053.58,406.358 1243.43,406.003 1433.29,405.658 1623.14,405.343 1812.99,405.076 2002.85,404.871 2192.7,404.737 2382.55,404.684 2572.41,404.738 "/>
<circle clip-path="url(#clip701)" cx="294.164" cy="407.553" r="14.4" fill="#009af9" fill-rule="evenodd" fill-opacity="1" stroke="#000000" stroke-opacity="1" stroke-width="3.84"/>
<circle clip-path="url(#clip701)" cx="484.018" cy="407.308" r="14.4" fill="#009af9" fill-rule="evenodd" fill-opacity="1" stroke="#000000" stroke-opacity="1" stroke-width="3.84"/>
<circle clip-path="url(#clip701)" cx="673.871" cy="407.023" r="14.4" fill="#009af9" fill-rule="evenodd" fill-opacity="1" stroke="#000000" stroke-opacity="1" stroke-width="3.84"/>
<circle clip-path="url(#clip701)" cx="863.725" cy="406.703" r="14.4" fill="#009af9" fill-rule="evenodd" fill-opacity="1" stroke="#000000" stroke-opacity="1" stroke-width="3.84"/>
<circle clip-path="url(#clip701)" cx="1053.58" cy="406.358" r="14.4" fill="#009af9" fill-rule="evenodd" fill-opacity="1" stroke="#000000" stroke-opacity="1" stroke-width="3.84"/>
<circle clip-path="url(#clip701)" cx="1243.43" cy="406.003" r="14.4" fill="#009af9" fill-rule="evenodd" fill-opacity="1" stroke="#000000" stroke-opacity="1" stroke-width="3.84"/>
<circle clip-path="url(#clip701)" cx="1433.29" cy="405.658" r="14.4" fill="#009af9" fill-rule="evenodd" fill-opacity="1" stroke="#000000" stroke-opacity="1" stroke-width="3.84"/>
<circle clip-path="url(#clip701)" cx="1623.14" cy="405.343" r="14.4" fill="#009af9" fill-rule="evenodd" fill-opacity="1" stroke="#000000" stroke-opacity="1" stroke-width="3.84"/>
<circle clip-path="url(#clip701)" cx="1812.99" cy="405.076" r="14.4" fill="#009af9" fill-rule="evenodd" fill-opacity="1" stroke="#000000" stroke-opacity="1" stroke-width="3.84"/>
<circle clip-path="url(#clip701)" cx="2002.85" cy="404.871" r="14.4" fill="#009af9" fill-rule="evenodd" fill-opacity="1" stroke="#000000" stroke-opacity="1" stroke-width="3.84"/>
<circle clip-path="url(#clip701)" cx="2192.7" cy="404.737" r="14.4" fill="#009af9" fill-rule="evenodd" fill-opacity="1" stroke="#000000" stroke-opacity="1" stroke-width="3.84"/>
<circle clip-path="url(#clip701)" cx="2382.55" cy="404.684" r="14.4" fill="#009af9" fill-rule="evenodd" fill-opacity="1" stroke="#000000" stroke-opacity="1" stroke-width="3.84"/>
<circle clip-path="url(#clip701)" cx="2572.41" cy="404.738" r="14.4" fill="#009af9" fill-rule="evenodd" fill-opacity="1" stroke="#000000" stroke-opacity="1" stroke-width="3.84"/>
<polyline clip-path="url(#clip701)" style="stroke:#e26f46; stroke-linecap:round; stroke-linejoin:round; stroke-width:8; stroke-opacity:1; fill:none" points="294.164,407.553 484.018,407.239 673.871,406.737 863.725,405.988 1053.58,404.984 1243.43,403.989 1433.29,403.757 1623.14,403.757 1812.99,402.411 2002.85,173.254 2192.7,1267.73 2382.55,1688.65 2572.41,1546.96 "/>
<path clip-path="url(#clip701)" d="M294.164 391.553 L278.164 407.553 L294.164 423.553 L310.164 407.553 L294.164 391.553 Z" fill="#e26f46" fill-rule="evenodd" fill-opacity="1" stroke="#000000" stroke-opacity="1" stroke-width="3.84"/>
<path clip-path="url(#clip701)" d="M484.018 391.239 L468.018 407.239 L484.018 423.239 L500.018 407.239 L484.018 391.239 Z" fill="#e26f46" fill-rule="evenodd" fill-opacity="1" stroke="#000000" stroke-opacity="1" stroke-width="3.84"/>
<path clip-path="url(#clip701)" d="M673.871 390.737 L657.871 406.737 L673.871 422.737 L689.871 406.737 L673.871 390.737 Z" fill="#e26f46" fill-rule="evenodd" fill-opacity="1" stroke="#000000" stroke-opacity="1" stroke-width="3.84"/>
<path clip-path="url(#clip701)" d="M863.725 389.988 L847.725 405.988 L863.725 421.988 L879.725 405.988 L863.725 389.988 Z" fill="#e26f46" fill-rule="evenodd" fill-opacity="1" stroke="#000000" stroke-opacity="1" stroke-width="3.84"/>
<path clip-path="url(#clip701)" d="M1053.58 388.984 L1037.58 404.984 L1053.58 420.984 L1069.58 404.984 L1053.58 388.984 Z" fill="#e26f46" fill-rule="evenodd" fill-opacity="1" stroke="#000000" stroke-opacity="1" stroke-width="3.84"/>
<path clip-path="url(#clip701)" d="M1243.43 387.989 L1227.43 403.989 L1243.43 419.989 L1259.43 403.989 L1243.43 387.989 Z" fill="#e26f46" fill-rule="evenodd" fill-opacity="1" stroke="#000000" stroke-opacity="1" stroke-width="3.84"/>
<path clip-path="url(#clip701)" d="M1433.29 387.757 L1417.29 403.757 L1433.29 419.757 L1449.29 403.757 L1433.29 387.757 Z" fill="#e26f46" fill-rule="evenodd" fill-opacity="1" stroke="#000000" stroke-opacity="1" stroke-width="3.84"/>
<path clip-path="url(#clip701)" d="M1623.14 387.757 L1607.14 403.757 L1623.14 419.757 L1639.14 403.757 L1623.14 387.757 Z" fill="#e26f46" fill-rule="evenodd" fill-opacity="1" stroke="#000000" stroke-opacity="1" stroke-width="3.84"/>
<path clip-path="url(#clip701)" d="M1812.99 386.411 L1796.99 402.411 L1812.99 418.411 L1828.99 402.411 L1812.99 386.411 Z" fill="#e26f46" fill-rule="evenodd" fill-opacity="1" stroke="#000000" stroke-opacity="1" stroke-width="3.84"/>
<path clip-path="url(#clip701)" d="M2002.85 157.254 L1986.85 173.254 L2002.85 189.254 L2018.85 173.254 L2002.85 157.254 Z" fill="#e26f46" fill-rule="evenodd" fill-opacity="1" stroke="#000000" stroke-opacity="1" stroke-width="3.84"/>
<path clip-path="url(#clip701)" d="M2192.7 1251.73 L2176.7 1267.73 L2192.7 1283.73 L2208.7 1267.73 L2192.7 1251.73 Z" fill="#e26f46" fill-rule="evenodd" fill-opacity="1" stroke="#000000" stroke-opacity="1" stroke-width="3.84"/>
<path clip-path="url(#clip701)" d="M2382.55 1672.65 L2366.55 1688.65 L2382.55 1704.65 L2398.55 1688.65 L2382.55 1672.65 Z" fill="#e26f46" fill-rule="evenodd" fill-opacity="1" stroke="#000000" stroke-opacity="1" stroke-width="3.84"/>
<path clip-path="url(#clip701)" d="M2572.41 1530.96 L2556.41 1546.96 L2572.41 1562.96 L2588.41 1546.96 L2572.41 1530.96 Z" fill="#e26f46" fill-rule="evenodd" fill-opacity="1" stroke="#000000" stroke-opacity="1" stroke-width="3.84"/>
<path clip-path="url(#clip700)" d="M306.314 1680.57 L726.928 1680.57 L726.928 1525.05 L306.314 1525.05  Z" fill="#ffffff" fill-rule="evenodd" fill-opacity="1"/>
<polyline clip-path="url(#clip700)" style="stroke:#000000; stroke-linecap:round; stroke-linejoin:round; stroke-width:4; stroke-opacity:1; fill:none" points="306.314,1680.57 726.928,1680.57 726.928,1525.05 306.314,1525.05 306.314,1680.57 "/>
<polyline clip-path="url(#clip700)" style="stroke:#009af9; stroke-linecap:round; stroke-linejoin:round; stroke-width:8; stroke-opacity:1; fill:none" points="333.147,1576.89 494.143,1576.89 "/>
<circle clip-path="url(#clip700)" cx="413.645" cy="1576.89" r="20.48" fill="#009af9" fill-rule="evenodd" fill-opacity="1" stroke="#000000" stroke-opacity="1" stroke-width="5.46133"/>
<path clip-path="url(#clip700)" d="M520.976 1559.61 L525.652 1559.61 L525.652 1574.22 L541.161 1559.61 L547.179 1559.61 L530.027 1575.72 L548.406 1594.17 L542.249 1594.17 L525.652 1577.53 L525.652 1594.17 L520.976 1594.17 L520.976 1559.61 Z" fill="#000000" fill-rule="nonzero" fill-opacity="1" /><path clip-path="url(#clip700)" d="M571.693 1580.15 L571.693 1582.23 L552.11 1582.23 Q552.388 1586.63 554.749 1588.94 Q557.133 1591.23 561.369 1591.23 Q563.823 1591.23 566.114 1590.63 Q568.429 1590.03 570.698 1588.83 L570.698 1592.85 Q568.406 1593.83 565.999 1594.33 Q563.591 1594.84 561.114 1594.84 Q554.911 1594.84 551.277 1591.23 Q547.665 1587.62 547.665 1581.46 Q547.665 1575.1 551.091 1571.37 Q554.54 1567.62 560.374 1567.62 Q565.605 1567.62 568.638 1571 Q571.693 1574.36 571.693 1580.15 M567.434 1578.9 Q567.388 1575.4 565.466 1573.32 Q563.568 1571.23 560.42 1571.23 Q556.855 1571.23 554.702 1573.25 Q552.573 1575.26 552.249 1578.92 L567.434 1578.9 Z" fill="#000000" fill-rule="nonzero" fill-opacity="1" /><path clip-path="url(#clip700)" d="M600.86 1580.15 L600.86 1582.23 L581.276 1582.23 Q581.554 1586.63 583.915 1588.94 Q586.299 1591.23 590.536 1591.23 Q592.989 1591.23 595.281 1590.63 Q597.596 1590.03 599.864 1588.83 L599.864 1592.85 Q597.573 1593.83 595.165 1594.33 Q592.758 1594.84 590.281 1594.84 Q584.077 1594.84 580.443 1591.23 Q576.832 1587.62 576.832 1581.46 Q576.832 1575.1 580.258 1571.37 Q583.707 1567.62 589.54 1567.62 Q594.772 1567.62 597.804 1571 Q600.86 1574.36 600.86 1580.15 M596.6 1578.9 Q596.554 1575.4 594.633 1573.32 Q592.735 1571.23 589.586 1571.23 Q586.022 1571.23 583.869 1573.25 Q581.739 1575.26 581.415 1578.92 L596.6 1578.9 Z" fill="#000000" fill-rule="nonzero" fill-opacity="1" /><path clip-path="url(#clip700)" d="M607.85 1558.15 L612.11 1558.15 L612.11 1594.17 L607.85 1594.17 L607.85 1558.15 Z" fill="#000000" fill-rule="nonzero" fill-opacity="1" /><path clip-path="url(#clip700)" d="M621.022 1568.25 L625.281 1568.25 L625.281 1594.17 L621.022 1594.17 L621.022 1568.25 M621.022 1558.15 L625.281 1558.15 L625.281 1563.55 L621.022 1563.55 L621.022 1558.15 Z" fill="#000000" fill-rule="nonzero" fill-opacity="1" /><path clip-path="url(#clip700)" d="M655.744 1578.52 L655.744 1594.17 L651.484 1594.17 L651.484 1578.66 Q651.484 1574.98 650.049 1573.15 Q648.614 1571.33 645.744 1571.33 Q642.295 1571.33 640.304 1573.52 Q638.313 1575.72 638.313 1579.52 L638.313 1594.17 L634.031 1594.17 L634.031 1568.25 L638.313 1568.25 L638.313 1572.27 Q639.841 1569.94 641.901 1568.78 Q643.984 1567.62 646.693 1567.62 Q651.16 1567.62 653.452 1570.4 Q655.744 1573.15 655.744 1578.52 Z" fill="#000000" fill-rule="nonzero" fill-opacity="1" /><path clip-path="url(#clip700)" d="M681.299 1580.91 Q681.299 1576.28 679.378 1573.73 Q677.48 1571.19 674.03 1571.19 Q670.605 1571.19 668.683 1573.73 Q666.785 1576.28 666.785 1580.91 Q666.785 1585.52 668.683 1588.06 Q670.605 1590.61 674.03 1590.61 Q677.48 1590.61 679.378 1588.06 Q681.299 1585.52 681.299 1580.91 M685.558 1590.96 Q685.558 1597.58 682.618 1600.79 Q679.679 1604.03 673.614 1604.03 Q671.368 1604.03 669.378 1603.69 Q667.387 1603.36 665.512 1602.67 L665.512 1598.52 Q667.387 1599.54 669.216 1600.03 Q671.044 1600.52 672.943 1600.52 Q677.132 1600.52 679.216 1598.32 Q681.299 1596.14 681.299 1591.72 L681.299 1589.61 Q679.98 1591.9 677.919 1593.04 Q675.859 1594.17 672.989 1594.17 Q668.22 1594.17 665.304 1590.54 Q662.387 1586.9 662.387 1580.91 Q662.387 1574.89 665.304 1571.26 Q668.22 1567.62 672.989 1567.62 Q675.859 1567.62 677.919 1568.76 Q679.98 1569.89 681.299 1572.18 L681.299 1568.25 L685.558 1568.25 L685.558 1590.96 Z" fill="#000000" fill-rule="nonzero" fill-opacity="1" /><polyline clip-path="url(#clip700)" style="stroke:#e26f46; stroke-linecap:round; stroke-linejoin:round; stroke-width:8; stroke-opacity:1; fill:none" points="333.147,1628.73 494.143,1628.73 "/>
<path clip-path="url(#clip700)" d="M413.645 1605.98 L390.89 1628.73 L413.645 1651.49 L436.401 1628.73 L413.645 1605.98 Z" fill="#e26f46" fill-rule="evenodd" fill-opacity="1" stroke="#000000" stroke-opacity="1" stroke-width="5.46133"/>
<path clip-path="url(#clip700)" d="M525.652 1629.51 L525.652 1642.17 L533.152 1642.17 Q536.925 1642.17 538.73 1640.62 Q540.559 1639.05 540.559 1635.83 Q540.559 1632.59 538.73 1631.06 Q536.925 1629.51 533.152 1629.51 L525.652 1629.51 M525.652 1615.3 L525.652 1625.71 L532.573 1625.71 Q535.999 1625.71 537.665 1624.44 Q539.355 1623.14 539.355 1620.5 Q539.355 1617.89 537.665 1616.59 Q535.999 1615.3 532.573 1615.3 L525.652 1615.3 M520.976 1611.45 L532.92 1611.45 Q538.267 1611.45 541.161 1613.68 Q544.054 1615.9 544.054 1619.99 Q544.054 1623.17 542.573 1625.04 Q541.091 1626.92 538.221 1627.38 Q541.67 1628.12 543.568 1630.48 Q545.49 1632.82 545.49 1636.34 Q545.49 1640.97 542.341 1643.49 Q539.193 1646.01 533.383 1646.01 L520.976 1646.01 L520.976 1611.45 Z" fill="#000000" fill-rule="nonzero" fill-opacity="1" /><path clip-path="url(#clip700)" d="M565.096 1632.98 Q559.934 1632.98 557.943 1634.16 Q555.952 1635.34 555.952 1638.19 Q555.952 1640.46 557.434 1641.8 Q558.939 1643.12 561.508 1643.12 Q565.05 1643.12 567.179 1640.62 Q569.332 1638.1 569.332 1633.93 L569.332 1632.98 L565.096 1632.98 M573.591 1631.22 L573.591 1646.01 L569.332 1646.01 L569.332 1642.08 Q567.874 1644.44 565.698 1645.57 Q563.522 1646.68 560.374 1646.68 Q556.392 1646.68 554.031 1644.46 Q551.693 1642.22 551.693 1638.47 Q551.693 1634.09 554.61 1631.87 Q557.55 1629.65 563.36 1629.65 L569.332 1629.65 L569.332 1629.23 Q569.332 1626.29 567.388 1624.69 Q565.466 1623.07 561.971 1623.07 Q559.749 1623.07 557.642 1623.61 Q555.536 1624.14 553.591 1625.2 L553.591 1621.27 Q555.929 1620.36 558.128 1619.93 Q560.327 1619.46 562.411 1619.46 Q568.036 1619.46 570.813 1622.38 Q573.591 1625.3 573.591 1631.22 Z" fill="#000000" fill-rule="nonzero" fill-opacity="1" /><path clip-path="url(#clip700)" d="M597.387 1624.07 Q596.67 1623.65 595.813 1623.47 Q594.98 1623.26 593.961 1623.26 Q590.35 1623.26 588.406 1625.62 Q586.485 1627.96 586.485 1632.36 L586.485 1646.01 L582.202 1646.01 L582.202 1620.09 L586.485 1620.09 L586.485 1624.11 Q587.827 1621.75 589.98 1620.62 Q592.133 1619.46 595.211 1619.46 Q595.651 1619.46 596.184 1619.53 Q596.716 1619.58 597.364 1619.69 L597.387 1624.07 Z" fill="#000000" fill-rule="nonzero" fill-opacity="1" /><path clip-path="url(#clip700)" d="M622.572 1630.36 L622.572 1646.01 L618.313 1646.01 L618.313 1630.5 Q618.313 1626.82 616.878 1624.99 Q615.443 1623.17 612.572 1623.17 Q609.123 1623.17 607.133 1625.36 Q605.142 1627.56 605.142 1631.36 L605.142 1646.01 L600.86 1646.01 L600.86 1620.09 L605.142 1620.09 L605.142 1624.11 Q606.67 1621.78 608.73 1620.62 Q610.813 1619.46 613.522 1619.46 Q617.989 1619.46 620.281 1622.24 Q622.572 1624.99 622.572 1630.36 Z" fill="#000000" fill-rule="nonzero" fill-opacity="1" /><path clip-path="url(#clip700)" d="M642.85 1632.98 Q637.688 1632.98 635.697 1634.16 Q633.707 1635.34 633.707 1638.19 Q633.707 1640.46 635.188 1641.8 Q636.693 1643.12 639.262 1643.12 Q642.804 1643.12 644.933 1640.62 Q647.086 1638.1 647.086 1633.93 L647.086 1632.98 L642.85 1632.98 M651.345 1631.22 L651.345 1646.01 L647.086 1646.01 L647.086 1642.08 Q645.628 1644.44 643.452 1645.57 Q641.276 1646.68 638.128 1646.68 Q634.146 1646.68 631.785 1644.46 Q629.447 1642.22 629.447 1638.47 Q629.447 1634.09 632.364 1631.87 Q635.304 1629.65 641.114 1629.65 L647.086 1629.65 L647.086 1629.23 Q647.086 1626.29 645.142 1624.69 Q643.22 1623.07 639.725 1623.07 Q637.503 1623.07 635.396 1623.61 Q633.29 1624.14 631.346 1625.2 L631.346 1621.27 Q633.683 1620.36 635.883 1619.93 Q638.082 1619.46 640.165 1619.46 Q645.79 1619.46 648.568 1622.38 Q651.345 1625.3 651.345 1631.22 Z" fill="#000000" fill-rule="nonzero" fill-opacity="1" /><path clip-path="url(#clip700)" d="M675.142 1624.07 Q674.424 1623.65 673.568 1623.47 Q672.734 1623.26 671.716 1623.26 Q668.105 1623.26 666.16 1625.62 Q664.239 1627.96 664.239 1632.36 L664.239 1646.01 L659.956 1646.01 L659.956 1620.09 L664.239 1620.09 L664.239 1624.11 Q665.581 1621.75 667.734 1620.62 Q669.887 1619.46 672.966 1619.46 Q673.405 1619.46 673.938 1619.53 Q674.47 1619.58 675.118 1619.69 L675.142 1624.07 Z" fill="#000000" fill-rule="nonzero" fill-opacity="1" /><path clip-path="url(#clip700)" d="M695.836 1624.02 L695.836 1609.99 L700.095 1609.99 L700.095 1646.01 L695.836 1646.01 L695.836 1642.12 Q694.493 1644.44 692.433 1645.57 Q690.396 1646.68 687.526 1646.68 Q682.827 1646.68 679.864 1642.93 Q676.924 1639.18 676.924 1633.07 Q676.924 1626.96 679.864 1623.21 Q682.827 1619.46 687.526 1619.46 Q690.396 1619.46 692.433 1620.6 Q694.493 1621.71 695.836 1624.02 M681.322 1633.07 Q681.322 1637.77 683.243 1640.46 Q685.188 1643.12 688.567 1643.12 Q691.947 1643.12 693.891 1640.46 Q695.836 1637.77 695.836 1633.07 Q695.836 1628.37 693.891 1625.71 Q691.947 1623.03 688.567 1623.03 Q685.188 1623.03 683.243 1625.71 Q681.322 1628.37 681.322 1633.07 Z" fill="#000000" fill-rule="nonzero" fill-opacity="1" /></svg>
