<?xml version="1.0" encoding="utf-8"?>
<svg xmlns="http://www.w3.org/2000/svg" xmlns:xlink="http://www.w3.org/1999/xlink" width="672" height="480" viewBox="0 0 2688 1920">
<defs>
  <clipPath id="clip470">
    <rect x="0" y="0" width="2688" height="1920"/>
  </clipPath>
</defs>
<path clip-path="url(#clip470)" d="M0 1920 L2688 1920 L2688 -4.26326e-14 L0 -4.26326e-14  Z" fill="#ffffff" fill-rule="evenodd" fill-opacity="1"/>
<defs>
  <clipPath id="clip471">
    <rect x="238" y="127" width="2403" height="1607"/>
  </clipPath>
</defs>
<path clip-path="url(#clip470)" d="M238.664 1734.12 L2640.76 1734.12 L2640.76 127.792 L238.664 127.792  Z" fill="#ffffff" fill-rule="evenodd" fill-opacity="1"/>
<polyline clip-path="url(#clip471)" style="stroke:#000000; stroke-linecap:round; stroke-linejoin:round; stroke-width:2; stroke-opacity:0.1; fill:none" points="306.647,1734.12 306.647,127.792 "/>
<polyline clip-path="url(#clip471)" style="stroke:#000000; stroke-linecap:round; stroke-linejoin:round; stroke-width:2; stroke-opacity:0.1; fill:none" points="1062.02,1734.12 1062.02,127.792 "/>
<polyline clip-path="url(#clip471)" style="stroke:#000000; stroke-linecap:round; stroke-linejoin:round; stroke-width:2; stroke-opacity:0.1; fill:none" points="1817.4,1734.12 1817.4,127.792 "/>
<polyline clip-path="url(#clip471)" style="stroke:#000000; stroke-linecap:round; stroke-linejoin:round; stroke-width:2; stroke-opacity:0.1; fill:none" points="2572.77,1734.12 2572.77,127.792 "/>
<polyline clip-path="url(#clip471)" style="stroke:#000000; stroke-linecap:round; stroke-linejoin:round; stroke-width:2; stroke-opacity:0.1; fill:none" points="238.664,1688.65 2640.76,1688.65 "/>
<polyline clip-path="url(#clip471)" style="stroke:#000000; stroke-linecap:round; stroke-linejoin:round; stroke-width:2; stroke-opacity:0.1; fill:none" points="238.664,1309.43 2640.76,1309.43 "/>
<polyline clip-path="url(#clip471)" style="stroke:#000000; stroke-linecap:round; stroke-linejoin:round; stroke-width:2; stroke-opacity:0.1; fill:none" points="238.664,930.196 2640.76,930.196 "/>
<polyline clip-path="url(#clip471)" style="stroke:#000000; stroke-linecap:round; stroke-linejoin:round; stroke-width:2; stroke-opacity:0.1; fill:none" points="238.664,550.967 2640.76,550.967 "/>
<polyline clip-path="url(#clip471)" style="stroke:#000000; stroke-linecap:round; stroke-linejoin:round; stroke-width:2; stroke-opacity:0.1; fill:none" points="238.664,171.737 2640.76,171.737 "/>
<polyline clip-path="url(#clip470)" style="stroke:#000000; stroke-linecap:round; stroke-linejoin:round; stroke-width:4; stroke-opacity:1; fill:none" points="238.664,1734.12 2640.76,1734.12 "/>
<polyline clip-path="url(#clip470)" style="stroke:#000000; stroke-linecap:round; stroke-linejoin:round; stroke-width:4; stroke-opacity:1; fill:none" points="306.647,1734.12 306.647,1715.22 "/>
<polyline clip-path="url(#clip470)" style="stroke:#000000; stroke-linecap:round; stroke-linejoin:round; stroke-width:4; stroke-opacity:1; fill:none" points="1062.02,1734.12 1062.02,1715.22 "/>
<polyline clip-path="url(#clip470)" style="stroke:#000000; stroke-linecap:round; stroke-linejoin:round; stroke-width:4; stroke-opacity:1; fill:none" points="1817.4,1734.12 1817.4,1715.22 "/>
<polyline clip-path="url(#clip470)" style="stroke:#000000; stroke-linecap:round; stroke-linejoin:round; stroke-width:4; stroke-opacity:1; fill:none" points="2572.77,1734.12 2572.77,1715.22 "/>
<path clip-path="url(#clip470)" d="M306.647 1767.34 Q303.036 1767.34 301.208 1770.9 Q299.402 1774.45 299.402 1781.58 Q299.402 1788.68 301.208 1792.25 Q303.036 1795.79 306.647 1795.79 Q310.282 1795.79 312.087 1792.25 Q313.916 1788.68 313.916 1781.58 Q313.916 1774.45 312.087 1770.9 Q310.282 1767.34 306.647 1767.34 M306.647 1763.64 Q312.458 1763.64 315.513 1768.24 Q318.592 1772.83 318.592 1781.58 Q318.592 1790.3 315.513 1794.91 Q312.458 1799.49 306.647 1799.49 Q300.837 1799.49 297.759 1794.91 Q294.703 1790.3 294.703 1781.58 Q294.703 1772.83 297.759 1768.24 Q300.837 1763.64 306.647 1763.64 Z" fill="#000000" fill-rule="nonzero" fill-opacity="1" /><path clip-path="url(#clip470)" d="M1036.71 1794.89 L1044.35 1794.89 L1044.35 1768.52 L1036.04 1770.19 L1036.04 1765.93 L1044.3 1764.26 L1048.98 1764.26 L1048.98 1794.89 L1056.62 1794.89 L1056.62 1798.82 L1036.71 1798.82 L1036.71 1794.89 Z" fill="#000000" fill-rule="nonzero" fill-opacity="1" /><path clip-path="url(#clip470)" d="M1076.06 1767.34 Q1072.45 1767.34 1070.62 1770.9 Q1068.82 1774.45 1068.82 1781.58 Q1068.82 1788.68 1070.62 1792.25 Q1072.45 1795.79 1076.06 1795.79 Q1079.7 1795.79 1081.5 1792.25 Q1083.33 1788.68 1083.33 1781.58 Q1083.33 1774.45 1081.5 1770.9 Q1079.7 1767.34 1076.06 1767.34 M1076.06 1763.64 Q1081.87 1763.64 1084.93 1768.24 Q1088.01 1772.83 1088.01 1781.58 Q1088.01 1790.3 1084.93 1794.91 Q1081.87 1799.49 1076.06 1799.49 Q1070.25 1799.49 1067.17 1794.91 Q1064.12 1790.3 1064.12 1781.58 Q1064.12 1772.83 1067.17 1768.24 Q1070.25 1763.64 1076.06 1763.64 Z" fill="#000000" fill-rule="nonzero" fill-opacity="1" /><path clip-path="url(#clip470)" d="M1796.17 1794.89 L1812.49 1794.89 L1812.49 1798.82 L1790.55 1798.82 L1790.55 1794.89 Q1793.21 1792.13 1797.79 1787.5 Q1802.4 1782.85 1803.58 1781.51 Q1805.82 1778.98 1806.7 1777.25 Q1807.61 1775.49 1807.61 1773.8 Q1807.61 1771.04 1805.66 1769.31 Q1803.74 1767.57 1800.64 1767.57 Q1798.44 1767.57 1795.99 1768.34 Q1793.55 1769.1 1790.78 1770.65 L1790.78 1765.93 Q1793.6 1764.79 1796.05 1764.21 Q1798.51 1763.64 1800.55 1763.64 Q1805.92 1763.64 1809.11 1766.32 Q1812.3 1769.01 1812.3 1773.5 Q1812.3 1775.63 1811.49 1777.55 Q1810.71 1779.45 1808.6 1782.04 Q1808.02 1782.71 1804.92 1785.93 Q1801.82 1789.12 1796.17 1794.89 Z" fill="#000000" fill-rule="nonzero" fill-opacity="1" /><path clip-path="url(#clip470)" d="M1832.3 1767.34 Q1828.69 1767.34 1826.86 1770.9 Q1825.06 1774.45 1825.06 1781.58 Q1825.06 1788.68 1826.86 1792.25 Q1828.69 1795.79 1832.3 1795.79 Q1835.94 1795.79 1837.74 1792.25 Q1839.57 1788.68 1839.57 1781.58 Q1839.57 1774.45 1837.74 1770.9 Q1835.94 1767.34 1832.3 1767.34 M1832.3 1763.64 Q1838.11 1763.64 1841.17 1768.24 Q1844.25 1772.83 1844.25 1781.58 Q1844.25 1790.3 1841.17 1794.91 Q1838.11 1799.49 1832.3 1799.49 Q1826.49 1799.49 1823.42 1794.91 Q1820.36 1790.3 1820.36 1781.58 Q1820.36 1772.83 1823.42 1768.24 Q1826.49 1763.64 1832.3 1763.64 Z" fill="#000000" fill-rule="nonzero" fill-opacity="1" /><path clip-path="url(#clip470)" d="M2561.61 1780.19 Q2564.97 1780.9 2566.85 1783.17 Q2568.74 1785.44 2568.74 1788.77 Q2568.74 1793.89 2565.23 1796.69 Q2561.71 1799.49 2555.23 1799.49 Q2553.05 1799.49 2550.74 1799.05 Q2548.44 1798.64 2545.99 1797.78 L2545.99 1793.27 Q2547.93 1794.4 2550.25 1794.98 Q2552.56 1795.56 2555.09 1795.56 Q2559.49 1795.56 2561.78 1793.82 Q2564.09 1792.08 2564.09 1788.77 Q2564.09 1785.72 2561.94 1784.01 Q2559.81 1782.27 2555.99 1782.27 L2551.96 1782.27 L2551.96 1778.43 L2556.18 1778.43 Q2559.62 1778.43 2561.45 1777.06 Q2563.28 1775.67 2563.28 1773.08 Q2563.28 1770.42 2561.38 1769.01 Q2559.51 1767.57 2555.99 1767.57 Q2554.07 1767.57 2551.87 1767.99 Q2549.67 1768.4 2547.03 1769.28 L2547.03 1765.12 Q2549.69 1764.38 2552.01 1764.01 Q2554.35 1763.64 2556.41 1763.64 Q2561.73 1763.64 2564.83 1766.07 Q2567.93 1768.47 2567.93 1772.59 Q2567.93 1775.46 2566.29 1777.46 Q2564.65 1779.42 2561.61 1780.19 Z" fill="#000000" fill-rule="nonzero" fill-opacity="1" /><path clip-path="url(#clip470)" d="M2587.61 1767.34 Q2584 1767.34 2582.17 1770.9 Q2580.36 1774.45 2580.36 1781.58 Q2580.36 1788.68 2582.17 1792.25 Q2584 1795.79 2587.61 1795.79 Q2591.24 1795.79 2593.05 1792.25 Q2594.88 1788.68 2594.88 1781.58 Q2594.88 1774.45 2593.05 1770.9 Q2591.24 1767.34 2587.61 1767.34 M2587.61 1763.64 Q2593.42 1763.64 2596.48 1768.24 Q2599.55 1772.83 2599.55 1781.58 Q2599.55 1790.3 2596.48 1794.91 Q2593.42 1799.49 2587.61 1799.49 Q2581.8 1799.49 2578.72 1794.91 Q2575.67 1790.3 2575.67 1781.58 Q2575.67 1772.83 2578.72 1768.24 Q2581.8 1763.64 2587.61 1763.64 Z" fill="#000000" fill-rule="nonzero" fill-opacity="1" /><path clip-path="url(#clip470)" d="M1361.59 1835.78 L1401.79 1835.78 L1401.79 1841.19 L1384.92 1841.19 L1384.92 1883.3 L1378.46 1883.3 L1378.46 1841.19 L1361.59 1841.19 L1361.59 1835.78 Z" fill="#000000" fill-rule="nonzero" fill-opacity="1" /><path clip-path="url(#clip470)" d="M1405.73 1847.65 L1411.59 1847.65 L1411.59 1883.3 L1405.73 1883.3 L1405.73 1847.65 M1405.73 1833.78 L1411.59 1833.78 L1411.59 1841.19 L1405.73 1841.19 L1405.73 1833.78 Z" fill="#000000" fill-rule="nonzero" fill-opacity="1" /><path clip-path="url(#clip470)" d="M1451.6 1854.5 Q1453.79 1850.55 1456.85 1848.67 Q1459.9 1846.79 1464.04 1846.79 Q1469.61 1846.79 1472.64 1850.71 Q1475.66 1854.59 1475.66 1861.78 L1475.66 1883.3 L1469.77 1883.3 L1469.77 1861.98 Q1469.77 1856.85 1467.96 1854.37 Q1466.14 1851.89 1462.42 1851.89 Q1457.87 1851.89 1455.23 1854.91 Q1452.58 1857.93 1452.58 1863.15 L1452.58 1883.3 L1446.7 1883.3 L1446.7 1861.98 Q1446.7 1856.82 1444.88 1854.37 Q1443.07 1851.89 1439.28 1851.89 Q1434.79 1851.89 1432.15 1854.94 Q1429.51 1857.97 1429.51 1863.15 L1429.51 1883.3 L1423.62 1883.3 L1423.62 1847.65 L1429.51 1847.65 L1429.51 1853.19 Q1431.51 1849.91 1434.31 1848.35 Q1437.12 1846.79 1440.97 1846.79 Q1444.85 1846.79 1447.56 1848.77 Q1450.29 1850.74 1451.6 1854.5 Z" fill="#000000" fill-rule="nonzero" fill-opacity="1" /><path clip-path="url(#clip470)" d="M1517.83 1864.01 L1517.83 1866.88 L1490.91 1866.88 Q1491.29 1872.92 1494.53 1876.11 Q1497.81 1879.26 1503.64 1879.26 Q1507.01 1879.26 1510.16 1878.43 Q1513.35 1877.6 1516.46 1875.95 L1516.46 1881.49 Q1513.31 1882.82 1510 1883.52 Q1506.69 1884.22 1503.29 1884.22 Q1494.76 1884.22 1489.76 1879.26 Q1484.79 1874.29 1484.79 1865.83 Q1484.79 1857.07 1489.51 1851.95 Q1494.25 1846.79 1502.27 1846.79 Q1509.46 1846.79 1513.63 1851.44 Q1517.83 1856.06 1517.83 1864.01 M1511.98 1862.29 Q1511.91 1857.49 1509.27 1854.62 Q1506.66 1851.76 1502.33 1851.76 Q1497.43 1851.76 1494.47 1854.53 Q1491.54 1857.3 1491.1 1862.33 L1511.98 1862.29 Z" fill="#000000" fill-rule="nonzero" fill-opacity="1" /><polyline clip-path="url(#clip470)" style="stroke:#000000; stroke-linecap:round; stroke-linejoin:round; stroke-width:4; stroke-opacity:1; fill:none" points="238.664,1734.12 238.664,127.792 "/>
<polyline clip-path="url(#clip470)" style="stroke:#000000; stroke-linecap:round; stroke-linejoin:round; stroke-width:4; stroke-opacity:1; fill:none" points="238.664,1688.65 257.561,1688.65 "/>
<polyline clip-path="url(#clip470)" style="stroke:#000000; stroke-linecap:round; stroke-linejoin:round; stroke-width:4; stroke-opacity:1; fill:none" points="238.664,1309.43 257.561,1309.43 "/>
<polyline clip-path="url(#clip470)" style="stroke:#000000; stroke-linecap:round; stroke-linejoin:round; stroke-width:4; stroke-opacity:1; fill:none" points="238.664,930.196 257.561,930.196 "/>
<polyline clip-path="url(#clip470)" style="stroke:#000000; stroke-linecap:round; stroke-linejoin:round; stroke-width:4; stroke-opacity:1; fill:none" points="238.664,550.967 257.561,550.967 "/>
<polyline clip-path="url(#clip470)" style="stroke:#000000; stroke-linecap:round; stroke-linejoin:round; stroke-width:4; stroke-opacity:1; fill:none" points="238.664,171.737 257.561,171.737 "/>
<path clip-path="url(#clip470)" d="M186.399 1674.45 Q182.788 1674.45 180.959 1678.02 Q179.154 1681.56 179.154 1688.69 Q179.154 1695.8 180.959 1699.36 Q182.788 1702.9 186.399 1702.9 Q190.033 1702.9 191.839 1699.36 Q193.668 1695.8 193.668 1688.69 Q193.668 1681.56 191.839 1678.02 Q190.033 1674.45 186.399 1674.45 M186.399 1670.75 Q192.209 1670.75 195.265 1675.36 Q198.344 1679.94 198.344 1688.69 Q198.344 1697.42 195.265 1702.02 Q192.209 1706.61 186.399 1706.61 Q180.589 1706.61 177.51 1702.02 Q174.455 1697.42 174.455 1688.69 Q174.455 1679.94 177.51 1675.36 Q180.589 1670.75 186.399 1670.75 Z" fill="#000000" fill-rule="nonzero" fill-opacity="1" /><path clip-path="url(#clip470)" d="M151.261 1322.77 L167.58 1322.77 L167.58 1326.71 L145.636 1326.71 L145.636 1322.77 Q148.298 1320.02 152.881 1315.39 Q157.487 1310.73 158.668 1309.39 Q160.913 1306.87 161.793 1305.13 Q162.696 1303.37 162.696 1301.68 Q162.696 1298.93 160.751 1297.19 Q158.83 1295.46 155.728 1295.46 Q153.529 1295.46 151.075 1296.22 Q148.645 1296.98 145.867 1298.53 L145.867 1293.81 Q148.691 1292.68 151.145 1292.1 Q153.599 1291.52 155.636 1291.52 Q161.006 1291.52 164.2 1294.21 Q167.395 1296.89 167.395 1301.38 Q167.395 1303.51 166.585 1305.43 Q165.798 1307.33 163.691 1309.92 Q163.112 1310.59 160.011 1313.81 Q156.909 1317.01 151.261 1322.77 Z" fill="#000000" fill-rule="nonzero" fill-opacity="1" /><path clip-path="url(#clip470)" d="M177.441 1292.15 L195.797 1292.15 L195.797 1296.08 L181.723 1296.08 L181.723 1304.55 Q182.742 1304.21 183.76 1304.04 Q184.779 1303.86 185.797 1303.86 Q191.584 1303.86 194.964 1307.03 Q198.344 1310.2 198.344 1315.62 Q198.344 1321.2 194.871 1324.3 Q191.399 1327.38 185.08 1327.38 Q182.904 1327.38 180.635 1327.01 Q178.39 1326.64 175.983 1325.9 L175.983 1321.2 Q178.066 1322.33 180.288 1322.89 Q182.51 1323.44 184.987 1323.44 Q188.992 1323.44 191.33 1321.34 Q193.668 1319.23 193.668 1315.62 Q193.668 1312.01 191.33 1309.9 Q188.992 1307.79 184.987 1307.79 Q183.112 1307.79 181.237 1308.21 Q179.385 1308.63 177.441 1309.51 L177.441 1292.15 Z" fill="#000000" fill-rule="nonzero" fill-opacity="1" /><path clip-path="url(#clip470)" d="M146.284 912.916 L164.64 912.916 L164.64 916.851 L150.566 916.851 L150.566 925.323 Q151.585 924.976 152.603 924.814 Q153.622 924.629 154.64 924.629 Q160.427 924.629 163.807 927.8 Q167.186 930.972 167.186 936.388 Q167.186 941.967 163.714 945.069 Q160.242 948.147 153.923 948.147 Q151.747 948.147 149.478 947.777 Q147.233 947.407 144.825 946.666 L144.825 941.967 Q146.909 943.101 149.131 943.657 Q151.353 944.212 153.83 944.212 Q157.835 944.212 160.173 942.106 Q162.51 939.999 162.51 936.388 Q162.51 932.777 160.173 930.671 Q157.835 928.564 153.83 928.564 Q151.955 928.564 150.08 928.981 Q148.228 929.397 146.284 930.277 L146.284 912.916 Z" fill="#000000" fill-rule="nonzero" fill-opacity="1" /><path clip-path="url(#clip470)" d="M186.399 915.995 Q182.788 915.995 180.959 919.56 Q179.154 923.101 179.154 930.231 Q179.154 937.337 180.959 940.902 Q182.788 944.444 186.399 944.444 Q190.033 944.444 191.839 940.902 Q193.668 937.337 193.668 930.231 Q193.668 923.101 191.839 919.56 Q190.033 915.995 186.399 915.995 M186.399 912.291 Q192.209 912.291 195.265 916.898 Q198.344 921.481 198.344 930.231 Q198.344 938.958 195.265 943.564 Q192.209 948.147 186.399 948.147 Q180.589 948.147 177.51 943.564 Q174.455 938.958 174.455 930.231 Q174.455 921.481 177.51 916.898 Q180.589 912.291 186.399 912.291 Z" fill="#000000" fill-rule="nonzero" fill-opacity="1" /><path clip-path="url(#clip470)" d="M146.052 533.687 L168.274 533.687 L168.274 535.677 L155.728 568.247 L150.844 568.247 L162.649 537.622 L146.052 537.622 L146.052 533.687 Z" fill="#000000" fill-rule="nonzero" fill-opacity="1" /><path clip-path="url(#clip470)" d="M177.441 533.687 L195.797 533.687 L195.797 537.622 L181.723 537.622 L181.723 546.094 Q182.742 545.747 183.76 545.585 Q184.779 545.4 185.797 545.4 Q191.584 545.4 194.964 548.571 Q198.344 551.742 198.344 557.159 Q198.344 562.737 194.871 565.839 Q191.399 568.918 185.08 568.918 Q182.904 568.918 180.635 568.548 Q178.39 568.177 175.983 567.436 L175.983 562.737 Q178.066 563.872 180.288 564.427 Q182.51 564.983 184.987 564.983 Q188.992 564.983 191.33 562.876 Q193.668 560.77 193.668 557.159 Q193.668 553.548 191.33 551.441 Q188.992 549.335 184.987 549.335 Q183.112 549.335 181.237 549.751 Q179.385 550.168 177.441 551.048 L177.441 533.687 Z" fill="#000000" fill-rule="nonzero" fill-opacity="1" /><path clip-path="url(#clip470)" d="M116.886 185.082 L124.525 185.082 L124.525 158.716 L116.214 160.383 L116.214 156.124 L124.478 154.457 L129.154 154.457 L129.154 185.082 L136.793 185.082 L136.793 189.017 L116.886 189.017 L116.886 185.082 Z" fill="#000000" fill-rule="nonzero" fill-opacity="1" /><path clip-path="url(#clip470)" d="M156.237 157.536 Q152.626 157.536 150.798 161.101 Q148.992 164.642 148.992 171.772 Q148.992 178.878 150.798 182.443 Q152.626 185.985 156.237 185.985 Q159.872 185.985 161.677 182.443 Q163.506 178.878 163.506 171.772 Q163.506 164.642 161.677 161.101 Q159.872 157.536 156.237 157.536 M156.237 153.832 Q162.048 153.832 165.103 158.439 Q168.182 163.022 168.182 171.772 Q168.182 180.499 165.103 185.105 Q162.048 189.689 156.237 189.689 Q150.427 189.689 147.349 185.105 Q144.293 180.499 144.293 171.772 Q144.293 163.022 147.349 158.439 Q150.427 153.832 156.237 153.832 Z" fill="#000000" fill-rule="nonzero" fill-opacity="1" /><path clip-path="url(#clip470)" d="M186.399 157.536 Q182.788 157.536 180.959 161.101 Q179.154 164.642 179.154 171.772 Q179.154 178.878 180.959 182.443 Q182.788 185.985 186.399 185.985 Q190.033 185.985 191.839 182.443 Q193.668 178.878 193.668 171.772 Q193.668 164.642 191.839 161.101 Q190.033 157.536 186.399 157.536 M186.399 153.832 Q192.209 153.832 195.265 158.439 Q198.344 163.022 198.344 171.772 Q198.344 180.499 195.265 185.105 Q192.209 189.689 186.399 189.689 Q180.589 189.689 177.51 185.105 Q174.455 180.499 174.455 171.772 Q174.455 163.022 177.51 158.439 Q180.589 153.832 186.399 153.832 Z" fill="#000000" fill-rule="nonzero" fill-opacity="1" /><path clip-path="url(#clip470)" d="M15.678 1267.86 L21.9483 1267.86 Q20.1977 1271.52 19.3383 1274.77 Q18.479 1278.01 18.479 1281.04 Q18.479 1286.29 20.516 1289.15 Q22.553 1291.99 26.3088 1291.99 Q29.4598 1291.99 31.0831 1290.11 Q32.6745 1288.2 33.6612 1282.91 L34.4569 1279.03 Q35.8255 1271.84 39.2948 1268.43 Q42.7323 1265 48.5251 1265 Q55.4319 1265 58.9967 1269.64 Q62.5615 1274.26 62.5615 1283.2 Q62.5615 1286.57 61.7976 1290.39 Q61.0337 1294.18 59.5378 1298.26 L52.9174 1298.26 Q55.1136 1294.34 56.2276 1290.59 Q57.3416 1286.83 57.3416 1283.2 Q57.3416 1277.69 55.1773 1274.7 Q53.0129 1271.71 49.0025 1271.71 Q45.5014 1271.71 43.528 1273.88 Q41.5546 1276.01 40.568 1280.91 L39.8041 1284.82 Q38.3718 1292.02 35.3162 1295.23 Q32.2607 1298.45 26.818 1298.45 Q20.516 1298.45 16.8875 1294.02 Q13.2591 1289.57 13.2591 1281.77 Q13.2591 1278.43 13.8638 1274.96 Q14.4686 1271.49 15.678 1267.86 Z" fill="#000000" fill-rule="nonzero" fill-opacity="1" /><path clip-path="url(#clip470)" d="M47.5702 1255.83 L25.9905 1255.83 L25.9905 1249.97 L47.3474 1249.97 Q52.4082 1249.97 54.9545 1248 Q57.4689 1246.03 57.4689 1242.08 Q57.4689 1237.34 54.4452 1234.6 Q51.4215 1231.83 46.2016 1231.83 L25.9905 1231.83 L25.9905 1225.97 L61.6384 1225.97 L61.6384 1231.83 L56.1639 1231.83 Q59.4104 1233.96 61.0019 1236.79 Q62.5615 1239.6 62.5615 1243.32 Q62.5615 1249.46 58.742 1252.65 Q54.9226 1255.83 47.5702 1255.83 M25.1311 1241.09 L25.1311 1241.09 Z" fill="#000000" fill-rule="nonzero" fill-opacity="1" /><path clip-path="url(#clip470)" d="M27.0408 1191.18 L32.579 1191.18 Q31.3059 1193.67 30.6693 1196.34 Q30.0327 1199.01 30.0327 1201.88 Q30.0327 1206.24 31.3695 1208.44 Q32.7063 1210.6 35.3799 1210.6 Q37.4169 1210.6 38.5946 1209.04 Q39.7404 1207.48 40.7908 1202.77 L41.2364 1200.77 Q42.5732 1194.53 45.0239 1191.92 Q47.4429 1189.27 51.8034 1189.27 Q56.7687 1189.27 59.6651 1193.22 Q62.5615 1197.14 62.5615 1204.01 Q62.5615 1206.88 61.9886 1210 Q61.4475 1213.08 60.3335 1216.52 L54.2861 1216.52 Q55.973 1213.27 56.8323 1210.12 Q57.6599 1206.97 57.6599 1203.88 Q57.6599 1199.75 56.2594 1197.52 Q54.8271 1195.29 52.249 1195.29 Q49.8619 1195.29 48.5887 1196.91 Q47.3156 1198.51 46.1379 1203.95 L45.6605 1205.98 Q44.5147 1211.43 42.1594 1213.85 Q39.7722 1216.27 35.6345 1216.27 Q30.6056 1216.27 27.8684 1212.7 Q25.1311 1209.14 25.1311 1202.58 Q25.1311 1199.33 25.6085 1196.47 Q26.086 1193.6 27.0408 1191.18 Z" fill="#000000" fill-rule="nonzero" fill-opacity="1" /><path clip-path="url(#clip470)" d="M27.3591 1154.3 L32.8336 1154.3 Q31.465 1156.78 30.7966 1159.29 Q30.0964 1161.78 30.0964 1164.32 Q30.0964 1170.02 33.7248 1173.17 Q37.3214 1176.32 43.8463 1176.32 Q50.3711 1176.32 53.9996 1173.17 Q57.5962 1170.02 57.5962 1164.32 Q57.5962 1161.78 56.9278 1159.29 Q56.2276 1156.78 54.859 1154.3 L60.2698 1154.3 Q61.4156 1156.75 61.9886 1159.39 Q62.5615 1162 62.5615 1164.96 Q62.5615 1173.01 57.5007 1177.75 Q52.44 1182.5 43.8463 1182.5 Q35.1253 1182.5 30.1282 1177.72 Q25.1311 1172.92 25.1311 1164.58 Q25.1311 1161.87 25.704 1159.29 Q26.2451 1156.71 27.3591 1154.3 Z" fill="#000000" fill-rule="nonzero" fill-opacity="1" /><path clip-path="url(#clip470)" d="M42.3504 1113.62 L45.2149 1113.62 L45.2149 1140.55 Q51.2623 1140.16 54.4452 1136.92 Q57.5962 1133.64 57.5962 1127.81 Q57.5962 1124.44 56.7687 1121.29 Q55.9411 1118.11 54.2861 1114.99 L59.8242 1114.99 Q61.161 1118.14 61.8612 1121.45 Q62.5615 1124.76 62.5615 1128.16 Q62.5615 1136.69 57.5962 1141.69 Q52.631 1146.66 44.1646 1146.66 Q35.4117 1146.66 30.2873 1141.95 Q25.1311 1137.2 25.1311 1129.18 Q25.1311 1121.99 29.7781 1117.82 Q34.3932 1113.62 42.3504 1113.62 M40.6316 1119.47 Q35.8255 1119.54 32.9609 1122.18 Q30.0964 1124.79 30.0964 1129.12 Q30.0964 1134.02 32.8654 1136.98 Q35.6345 1139.91 40.6634 1140.35 L40.6316 1119.47 Z" fill="#000000" fill-rule="nonzero" fill-opacity="1" /><path clip-path="url(#clip470)" d="M56.2912 1098.34 L75.1974 1098.34 L75.1974 1104.23 L25.9905 1104.23 L25.9905 1098.34 L31.4013 1098.34 Q28.2185 1096.49 26.6907 1093.69 Q25.1311 1090.86 25.1311 1086.95 Q25.1311 1080.45 30.2873 1076.41 Q35.4436 1072.34 43.8463 1072.34 Q52.249 1072.34 57.4052 1076.41 Q62.5615 1080.45 62.5615 1086.95 Q62.5615 1090.86 61.0337 1093.69 Q59.4741 1096.49 56.2912 1098.34 M43.8463 1078.42 Q37.3851 1078.42 33.7248 1081.09 Q30.0327 1083.73 30.0327 1088.38 Q30.0327 1093.03 33.7248 1095.7 Q37.3851 1098.34 43.8463 1098.34 Q50.3075 1098.34 53.9996 1095.7 Q57.6599 1093.03 57.6599 1088.38 Q57.6599 1083.73 53.9996 1081.09 Q50.3075 1078.42 43.8463 1078.42 Z" fill="#000000" fill-rule="nonzero" fill-opacity="1" /><path clip-path="url(#clip470)" d="M15.869 1056.84 L25.9905 1056.84 L25.9905 1044.77 L30.542 1044.77 L30.542 1056.84 L49.8937 1056.84 Q54.2542 1056.84 55.4955 1055.66 Q56.7368 1054.45 56.7368 1050.79 L56.7368 1044.77 L61.6384 1044.77 L61.6384 1050.79 Q61.6384 1057.57 59.124 1060.15 Q56.5777 1062.72 49.8937 1062.72 L30.542 1062.72 L30.542 1067.02 L25.9905 1067.02 L25.9905 1062.72 L15.869 1062.72 L15.869 1056.84 Z" fill="#000000" fill-rule="nonzero" fill-opacity="1" /><path clip-path="url(#clip470)" d="M25.9905 1037.07 L25.9905 1031.21 L61.6384 1031.21 L61.6384 1037.07 L25.9905 1037.07 M12.1132 1037.07 L12.1132 1031.21 L19.5293 1031.21 L19.5293 1037.07 L12.1132 1037.07 Z" fill="#000000" fill-rule="nonzero" fill-opacity="1" /><path clip-path="url(#clip470)" d="M43.8463 993.37 Q37.3851 993.37 33.7248 996.044 Q30.0327 998.686 30.0327 1003.33 Q30.0327 1007.98 33.7248 1010.65 Q37.3851 1013.29 43.8463 1013.29 Q50.3075 1013.29 53.9996 1010.65 Q57.6599 1007.98 57.6599 1003.33 Q57.6599 998.686 53.9996 996.044 Q50.3075 993.37 43.8463 993.37 M31.4013 1013.29 Q28.2185 1011.45 26.6907 1008.65 Q25.1311 1005.82 25.1311 1001.9 Q25.1311 995.407 30.2873 991.365 Q35.4436 987.291 43.8463 987.291 Q52.249 987.291 57.4052 991.365 Q62.5615 995.407 62.5615 1001.9 Q62.5615 1005.82 61.0337 1008.65 Q59.4741 1011.45 56.2912 1013.29 L61.6384 1013.29 L61.6384 1019.18 L12.1132 1019.18 L12.1132 1013.29 L31.4013 1013.29 Z" fill="#000000" fill-rule="nonzero" fill-opacity="1" /><path clip-path="url(#clip470)" d="M12.1132 977.583 L12.1132 971.727 L61.6384 971.727 L61.6384 977.583 L12.1132 977.583 Z" fill="#000000" fill-rule="nonzero" fill-opacity="1" /><path clip-path="url(#clip470)" d="M42.3504 928.981 L45.2149 928.981 L45.2149 955.908 Q51.2623 955.526 54.4452 952.28 Q57.5962 949.001 57.5962 943.177 Q57.5962 939.803 56.7687 936.652 Q55.9411 933.469 54.2861 930.35 L59.8242 930.35 Q61.161 933.501 61.8612 936.811 Q62.5615 940.121 62.5615 943.527 Q62.5615 952.057 57.5962 957.054 Q52.631 962.019 44.1646 962.019 Q35.4117 962.019 30.2873 957.309 Q25.1311 952.566 25.1311 944.545 Q25.1311 937.352 29.7781 933.183 Q34.3932 928.981 42.3504 928.981 M40.6316 934.838 Q35.8255 934.901 32.9609 937.543 Q30.0964 940.153 30.0964 944.482 Q30.0964 949.383 32.8654 952.343 Q35.6345 955.272 40.6634 955.717 L40.6316 934.838 Z" fill="#000000" fill-rule="nonzero" fill-opacity="1" /><path clip-path="url(#clip470)" d="M56.2912 892.983 L75.1974 892.983 L75.1974 898.871 L25.9905 898.871 L25.9905 892.983 L31.4013 892.983 Q28.2185 891.137 26.6907 888.336 Q25.1311 885.503 25.1311 881.589 Q25.1311 875.095 30.2873 871.053 Q35.4436 866.979 43.8463 866.979 Q52.249 866.979 57.4052 871.053 Q62.5615 875.095 62.5615 881.589 Q62.5615 885.503 61.0337 888.336 Q59.4741 891.137 56.2912 892.983 M43.8463 873.058 Q37.3851 873.058 33.7248 875.732 Q30.0327 878.374 30.0327 883.021 Q30.0327 887.668 33.7248 890.341 Q37.3851 892.983 43.8463 892.983 Q50.3075 892.983 53.9996 890.341 Q57.6599 887.668 57.6599 883.021 Q57.6599 878.374 53.9996 875.732 Q50.3075 873.058 43.8463 873.058 Z" fill="#000000" fill-rule="nonzero" fill-opacity="1" /><path clip-path="url(#clip470)" d="M30.0964 843.458 Q30.0964 848.169 33.7885 850.906 Q37.4488 853.643 43.8463 853.643 Q50.2438 853.643 53.9359 850.938 Q57.5962 848.2 57.5962 843.458 Q57.5962 838.779 53.9041 836.042 Q50.212 833.305 43.8463 833.305 Q37.5124 833.305 33.8203 836.042 Q30.0964 838.779 30.0964 843.458 M25.1311 843.458 Q25.1311 835.819 30.0964 831.459 Q35.0616 827.098 43.8463 827.098 Q52.5991 827.098 57.5962 831.459 Q62.5615 835.819 62.5615 843.458 Q62.5615 851.129 57.5962 855.489 Q52.5991 859.818 43.8463 859.818 Q35.0616 859.818 30.0964 855.489 Q25.1311 851.129 25.1311 843.458 Z" fill="#000000" fill-rule="nonzero" fill-opacity="1" /><path clip-path="url(#clip470)" d="M56.2912 811.725 L75.1974 811.725 L75.1974 817.613 L25.9905 817.613 L25.9905 811.725 L31.4013 811.725 Q28.2185 809.879 26.6907 807.078 Q25.1311 804.245 25.1311 800.33 Q25.1311 793.837 30.2873 789.795 Q35.4436 785.721 43.8463 785.721 Q52.249 785.721 57.4052 789.795 Q62.5615 793.837 62.5615 800.33 Q62.5615 804.245 61.0337 807.078 Q59.4741 809.879 56.2912 811.725 M43.8463 791.8 Q37.3851 791.8 33.7248 794.474 Q30.0327 797.116 30.0327 801.763 Q30.0327 806.41 33.7248 809.083 Q37.3851 811.725 43.8463 811.725 Q50.3075 811.725 53.9996 809.083 Q57.6599 806.41 57.6599 801.763 Q57.6599 797.116 53.9996 794.474 Q50.3075 791.8 43.8463 791.8 Z" fill="#000000" fill-rule="nonzero" fill-opacity="1" /><path clip-path="url(#clip470)" d="M47.5702 776.618 L25.9905 776.618 L25.9905 770.762 L47.3474 770.762 Q52.4082 770.762 54.9545 768.788 Q57.4689 766.815 57.4689 762.868 Q57.4689 758.126 54.4452 755.388 Q51.4215 752.619 46.2016 752.619 L25.9905 752.619 L25.9905 746.763 L61.6384 746.763 L61.6384 752.619 L56.1639 752.619 Q59.4104 754.752 61.0019 757.585 Q62.5615 760.385 62.5615 764.109 Q62.5615 770.252 58.742 773.435 Q54.9226 776.618 47.5702 776.618 M25.1311 761.881 L25.1311 761.881 Z" fill="#000000" fill-rule="nonzero" fill-opacity="1" /><path clip-path="url(#clip470)" d="M12.1132 734.7 L12.1132 728.843 L61.6384 728.843 L61.6384 734.7 L12.1132 734.7 Z" fill="#000000" fill-rule="nonzero" fill-opacity="1" /><path clip-path="url(#clip470)" d="M43.719 700.389 Q43.719 707.486 45.3422 710.224 Q46.9655 712.961 50.8804 712.961 Q53.9996 712.961 55.8457 710.924 Q57.6599 708.855 57.6599 705.322 Q57.6599 700.452 54.2224 697.524 Q50.7531 694.564 45.0239 694.564 L43.719 694.564 L43.719 700.389 M41.3 688.708 L61.6384 688.708 L61.6384 694.564 L56.2276 694.564 Q59.4741 696.569 61.0337 699.561 Q62.5615 702.553 62.5615 706.882 Q62.5615 712.356 59.5059 715.603 Q56.4186 718.817 51.2623 718.817 Q45.2467 718.817 42.1912 714.807 Q39.1357 710.765 39.1357 702.776 L39.1357 694.564 L38.5628 694.564 Q34.5205 694.564 32.3244 697.238 Q30.0964 699.879 30.0964 704.686 Q30.0964 707.741 30.8284 710.637 Q31.5605 713.534 33.0246 716.207 L27.6137 716.207 Q26.3724 712.993 25.7677 709.969 Q25.1311 706.945 25.1311 704.081 Q25.1311 696.346 29.1415 692.527 Q33.1519 688.708 41.3 688.708 Z" fill="#000000" fill-rule="nonzero" fill-opacity="1" /><path clip-path="url(#clip470)" d="M15.869 670.852 L25.9905 670.852 L25.9905 658.789 L30.542 658.789 L30.542 670.852 L49.8937 670.852 Q54.2542 670.852 55.4955 669.674 Q56.7368 668.465 56.7368 664.804 L56.7368 658.789 L61.6384 658.789 L61.6384 664.804 Q61.6384 671.584 59.124 674.162 Q56.5777 676.74 49.8937 676.74 L30.542 676.74 L30.542 681.037 L25.9905 681.037 L25.9905 676.74 L15.869 676.74 L15.869 670.852 Z" fill="#000000" fill-rule="nonzero" fill-opacity="1" /><path clip-path="url(#clip470)" d="M25.9905 651.086 L25.9905 645.23 L61.6384 645.23 L61.6384 651.086 L25.9905 651.086 M12.1132 651.086 L12.1132 645.23 L19.5293 645.23 L19.5293 651.086 L12.1132 651.086 Z" fill="#000000" fill-rule="nonzero" fill-opacity="1" /><path clip-path="url(#clip470)" d="M30.0964 619.162 Q30.0964 623.873 33.7885 626.61 Q37.4488 629.347 43.8463 629.347 Q50.2438 629.347 53.9359 626.642 Q57.5962 623.905 57.5962 619.162 Q57.5962 614.483 53.9041 611.746 Q50.212 609.009 43.8463 609.009 Q37.5124 609.009 33.8203 611.746 Q30.0964 614.483 30.0964 619.162 M25.1311 619.162 Q25.1311 611.523 30.0964 607.163 Q35.0616 602.802 43.8463 602.802 Q52.5991 602.802 57.5962 607.163 Q62.5615 611.523 62.5615 619.162 Q62.5615 626.833 57.5962 631.193 Q52.5991 635.522 43.8463 635.522 Q35.0616 635.522 30.0964 631.193 Q25.1311 626.833 25.1311 619.162 Z" fill="#000000" fill-rule="nonzero" fill-opacity="1" /><path clip-path="url(#clip470)" d="M40.1224 563.462 L61.6384 563.462 L61.6384 569.319 L40.3133 569.319 Q35.2526 569.319 32.7381 571.292 Q30.2237 573.266 30.2237 577.212 Q30.2237 581.955 33.2474 584.692 Q36.2711 587.429 41.491 587.429 L61.6384 587.429 L61.6384 593.317 L25.9905 593.317 L25.9905 587.429 L31.5287 587.429 Q28.314 585.329 26.7225 582.496 Q25.1311 579.631 25.1311 575.907 Q25.1311 569.764 28.9505 566.613 Q32.7381 563.462 40.1224 563.462 Z" fill="#000000" fill-rule="nonzero" fill-opacity="1" /><path clip-path="url(#clip470)" d="M200.741 16.7545 L200.741 25.383 Q196.609 21.5346 191.91 19.6307 Q187.251 17.7268 181.985 17.7268 Q171.615 17.7268 166.105 24.0867 Q160.596 30.4061 160.596 42.3968 Q160.596 54.3469 166.105 60.7069 Q171.615 67.0263 181.985 67.0263 Q187.251 67.0263 191.91 65.1223 Q196.609 63.2184 200.741 59.3701 L200.741 67.9175 Q196.447 70.8341 191.626 72.2924 Q186.846 73.7508 181.499 73.7508 Q167.766 73.7508 159.867 65.3654 Q151.968 56.9395 151.968 42.3968 Q151.968 27.8135 159.867 19.4281 Q167.766 11.0023 181.499 11.0023 Q186.927 11.0023 191.707 12.4606 Q196.528 13.8784 200.741 16.7545 Z" fill="#000000" fill-rule="nonzero" fill-opacity="1" /><path clip-path="url(#clip470)" d="M213.055 9.54393 L220.509 9.54393 L220.509 72.576 L213.055 72.576 L213.055 9.54393 Z" fill="#000000" fill-rule="nonzero" fill-opacity="1" /><path clip-path="url(#clip470)" d="M235.335 54.671 L235.335 27.2059 L242.789 27.2059 L242.789 54.3874 Q242.789 60.8284 245.301 64.0691 Q247.812 67.2693 252.835 67.2693 Q258.871 67.2693 262.355 63.421 Q265.879 59.5726 265.879 52.9291 L265.879 27.2059 L273.333 27.2059 L273.333 72.576 L265.879 72.576 L265.879 65.6084 Q263.165 69.7404 259.56 71.7658 Q255.995 73.7508 251.255 73.7508 Q243.437 73.7508 239.386 68.8897 Q235.335 64.0286 235.335 54.671 M254.091 26.1121 L254.091 26.1121 Z" fill="#000000" fill-rule="nonzero" fill-opacity="1" /><path clip-path="url(#clip470)" d="M317.609 28.5427 L317.609 35.5912 Q314.45 33.9709 311.047 33.1607 Q307.644 32.3505 303.998 32.3505 Q298.449 32.3505 295.653 34.0519 Q292.899 35.7533 292.899 39.156 Q292.899 41.7486 294.884 43.2475 Q296.869 44.7058 302.864 46.0426 L305.416 46.6097 Q313.356 48.3111 316.678 51.4303 Q320.04 54.509 320.04 60.0587 Q320.04 66.3781 315.017 70.0644 Q310.034 73.7508 301.284 73.7508 Q297.638 73.7508 293.668 73.0216 Q289.739 72.3329 285.364 70.9151 L285.364 63.2184 Q289.496 65.3654 293.506 66.4591 Q297.517 67.5124 301.446 67.5124 Q306.712 67.5124 309.548 65.73 Q312.384 63.9071 312.384 60.6258 Q312.384 57.5877 310.318 55.9673 Q308.292 54.3469 301.365 52.8481 L298.773 52.2405 Q291.846 50.7821 288.767 47.7845 Q285.688 44.7463 285.688 39.4801 Q285.688 33.0797 290.225 29.5959 Q294.762 26.1121 303.107 26.1121 Q307.239 26.1121 310.885 26.7198 Q314.531 27.3274 317.609 28.5427 Z" fill="#000000" fill-rule="nonzero" fill-opacity="1" /><path clip-path="url(#clip470)" d="M339.282 14.324 L339.282 27.2059 L354.635 27.2059 L354.635 32.9987 L339.282 32.9987 L339.282 57.6282 Q339.282 63.1779 340.78 64.7578 Q342.32 66.3376 346.978 66.3376 L354.635 66.3376 L354.635 72.576 L346.978 72.576 Q338.35 72.576 335.069 69.3758 Q331.787 66.1351 331.787 57.6282 L331.787 32.9987 L326.319 32.9987 L326.319 27.2059 L331.787 27.2059 L331.787 14.324 L339.282 14.324 Z" fill="#000000" fill-rule="nonzero" fill-opacity="1" /><path clip-path="url(#clip470)" d="M403.245 48.0275 L403.245 51.6733 L368.975 51.6733 Q369.461 59.3701 373.593 63.421 Q377.765 67.4314 385.178 67.4314 Q389.472 67.4314 393.483 66.3781 Q397.534 65.3249 401.504 63.2184 L401.504 70.267 Q397.493 71.9684 393.28 72.8596 Q389.067 73.7508 384.733 73.7508 Q373.876 73.7508 367.516 67.4314 Q361.197 61.1119 361.197 50.3365 Q361.197 39.1965 367.192 32.6746 Q373.228 26.1121 383.436 26.1121 Q392.592 26.1121 397.898 32.0264 Q403.245 37.9003 403.245 48.0275 M395.792 45.84 Q395.711 39.7232 392.348 36.0774 Q389.027 32.4315 383.518 32.4315 Q377.279 32.4315 373.512 35.9558 Q369.785 39.4801 369.218 45.8805 L395.792 45.84 Z" fill="#000000" fill-rule="nonzero" fill-opacity="1" /><path clip-path="url(#clip470)" d="M441.77 34.1734 Q440.514 33.4443 439.015 33.1202 Q437.557 32.7556 435.774 32.7556 Q429.455 32.7556 426.052 36.8875 Q422.69 40.9789 422.69 48.6757 L422.69 72.576 L415.196 72.576 L415.196 27.2059 L422.69 27.2059 L422.69 34.2544 Q425.039 30.1225 428.807 28.1376 Q432.574 26.1121 437.962 26.1121 Q438.731 26.1121 439.663 26.2337 Q440.595 26.3147 441.729 26.5172 L441.77 34.1734 Z" fill="#000000" fill-rule="nonzero" fill-opacity="1" /><path clip-path="url(#clip470)" d="M486.573 48.0275 L486.573 51.6733 L452.302 51.6733 Q452.788 59.3701 456.92 63.421 Q461.092 67.4314 468.505 67.4314 Q472.799 67.4314 476.81 66.3781 Q480.861 65.3249 484.831 63.2184 L484.831 70.267 Q480.82 71.9684 476.607 72.8596 Q472.394 73.7508 468.06 73.7508 Q457.203 73.7508 450.844 67.4314 Q444.524 61.1119 444.524 50.3365 Q444.524 39.1965 450.519 32.6746 Q456.555 26.1121 466.764 26.1121 Q475.919 26.1121 481.225 32.0264 Q486.573 37.9003 486.573 48.0275 M479.119 45.84 Q479.038 39.7232 475.676 36.0774 Q472.354 32.4315 466.845 32.4315 Q460.606 32.4315 456.839 35.9558 Q453.112 39.4801 452.545 45.8805 L479.119 45.84 Z" fill="#000000" fill-rule="nonzero" fill-opacity="1" /><path clip-path="url(#clip470)" d="M528.661 34.0924 L528.661 9.54393 L536.115 9.54393 L536.115 72.576 L528.661 72.576 L528.661 65.7705 Q526.312 69.8214 522.707 71.8063 Q519.142 73.7508 514.119 73.7508 Q505.895 73.7508 500.71 67.1883 Q495.566 60.6258 495.566 49.9314 Q495.566 39.2371 500.71 32.6746 Q505.895 26.1121 514.119 26.1121 Q519.142 26.1121 522.707 28.0971 Q526.312 30.0415 528.661 34.0924 M503.262 49.9314 Q503.262 58.1548 506.624 62.8538 Q510.027 67.5124 515.942 67.5124 Q521.856 67.5124 525.259 62.8538 Q528.661 58.1548 528.661 49.9314 Q528.661 41.7081 525.259 37.0496 Q521.856 32.3505 515.942 32.3505 Q510.027 32.3505 506.624 37.0496 Q503.262 41.7081 503.262 49.9314 Z" fill="#000000" fill-rule="nonzero" fill-opacity="1" /><path clip-path="url(#clip470)" d="M585.05 65.7705 L585.05 89.8329 L577.556 89.8329 L577.556 27.2059 L585.05 27.2059 L585.05 34.0924 Q587.4 30.0415 590.964 28.0971 Q594.57 26.1121 599.552 26.1121 Q607.816 26.1121 612.961 32.6746 Q618.146 39.2371 618.146 49.9314 Q618.146 60.6258 612.961 67.1883 Q607.816 73.7508 599.552 73.7508 Q594.57 73.7508 590.964 71.8063 Q587.4 69.8214 585.05 65.7705 M610.409 49.9314 Q610.409 41.7081 607.006 37.0496 Q603.644 32.3505 597.729 32.3505 Q591.815 32.3505 588.412 37.0496 Q585.05 41.7081 585.05 49.9314 Q585.05 58.1548 588.412 62.8538 Q591.815 67.5124 597.729 67.5124 Q603.644 67.5124 607.006 62.8538 Q610.409 58.1548 610.409 49.9314 Z" fill="#000000" fill-rule="nonzero" fill-opacity="1" /><path clip-path="url(#clip470)" d="M648.082 32.4315 Q642.087 32.4315 638.603 37.1306 Q635.119 41.7891 635.119 49.9314 Q635.119 58.0738 638.562 62.7728 Q642.046 67.4314 648.082 67.4314 Q654.037 67.4314 657.521 62.7323 Q661.004 58.0333 661.004 49.9314 Q661.004 41.8701 657.521 37.1711 Q654.037 32.4315 648.082 32.4315 M648.082 26.1121 Q657.804 26.1121 663.354 32.4315 Q668.904 38.7509 668.904 49.9314 Q668.904 61.0714 663.354 67.4314 Q657.804 73.7508 648.082 73.7508 Q638.319 73.7508 632.77 67.4314 Q627.26 61.0714 627.26 49.9314 Q627.26 38.7509 632.77 32.4315 Q638.319 26.1121 648.082 26.1121 Z" fill="#000000" fill-rule="nonzero" fill-opacity="1" /><path clip-path="url(#clip470)" d="M688.47 65.7705 L688.47 89.8329 L680.975 89.8329 L680.975 27.2059 L688.47 27.2059 L688.47 34.0924 Q690.819 30.0415 694.384 28.0971 Q697.989 26.1121 702.972 26.1121 Q711.236 26.1121 716.38 32.6746 Q721.565 39.2371 721.565 49.9314 Q721.565 60.6258 716.38 67.1883 Q711.236 73.7508 702.972 73.7508 Q697.989 73.7508 694.384 71.8063 Q690.819 69.8214 688.47 65.7705 M713.828 49.9314 Q713.828 41.7081 710.425 37.0496 Q707.063 32.3505 701.149 32.3505 Q695.235 32.3505 691.832 37.0496 Q688.47 41.7081 688.47 49.9314 Q688.47 58.1548 691.832 62.8538 Q695.235 67.5124 701.149 67.5124 Q707.063 67.5124 710.425 62.8538 Q713.828 58.1548 713.828 49.9314 Z" fill="#000000" fill-rule="nonzero" fill-opacity="1" /><path clip-path="url(#clip470)" d="M733.151 54.671 L733.151 27.2059 L740.605 27.2059 L740.605 54.3874 Q740.605 60.8284 743.116 64.0691 Q745.628 67.2693 750.651 67.2693 Q756.687 67.2693 760.171 63.421 Q763.695 59.5726 763.695 52.9291 L763.695 27.2059 L771.149 27.2059 L771.149 72.576 L763.695 72.576 L763.695 65.6084 Q760.981 69.7404 757.375 71.7658 Q753.811 73.7508 749.071 73.7508 Q741.253 73.7508 737.202 68.8897 Q733.151 64.0286 733.151 54.671 M751.907 26.1121 L751.907 26.1121 Z" fill="#000000" fill-rule="nonzero" fill-opacity="1" /><path clip-path="url(#clip470)" d="M786.501 9.54393 L793.955 9.54393 L793.955 72.576 L786.501 72.576 L786.501 9.54393 Z" fill="#000000" fill-rule="nonzero" fill-opacity="1" /><path clip-path="url(#clip470)" d="M830.17 49.7694 Q821.137 49.7694 817.653 51.8354 Q814.169 53.9013 814.169 58.8839 Q814.169 62.8538 816.762 65.2034 Q819.395 67.5124 823.891 67.5124 Q830.089 67.5124 833.816 63.1374 Q837.583 58.7219 837.583 51.4303 L837.583 49.7694 L830.17 49.7694 M845.037 46.6907 L845.037 72.576 L837.583 72.576 L837.583 65.6895 Q835.031 69.8214 831.223 71.8063 Q827.416 73.7508 821.906 73.7508 Q814.939 73.7508 810.807 69.8619 Q806.715 65.9325 806.715 59.3701 Q806.715 51.7138 811.82 47.825 Q816.964 43.9361 827.132 43.9361 L837.583 43.9361 L837.583 43.2069 Q837.583 38.0623 834.181 35.2672 Q830.818 32.4315 824.701 32.4315 Q820.813 32.4315 817.126 33.3632 Q813.44 34.295 810.037 36.1584 L810.037 29.2718 Q814.129 27.692 817.977 26.9223 Q821.825 26.1121 825.471 26.1121 Q835.315 26.1121 840.176 31.2163 Q845.037 36.3204 845.037 46.6907 Z" fill="#000000" fill-rule="nonzero" fill-opacity="1" /><path clip-path="url(#clip470)" d="M867.763 14.324 L867.763 27.2059 L883.116 27.2059 L883.116 32.9987 L867.763 32.9987 L867.763 57.6282 Q867.763 63.1779 869.261 64.7578 Q870.801 66.3376 875.459 66.3376 L883.116 66.3376 L883.116 72.576 L875.459 72.576 Q866.831 72.576 863.55 69.3758 Q860.268 66.1351 860.268 57.6282 L860.268 32.9987 L854.8 32.9987 L854.8 27.2059 L860.268 27.2059 L860.268 14.324 L867.763 14.324 Z" fill="#000000" fill-rule="nonzero" fill-opacity="1" /><path clip-path="url(#clip470)" d="M892.919 27.2059 L900.372 27.2059 L900.372 72.576 L892.919 72.576 L892.919 27.2059 M892.919 9.54393 L900.372 9.54393 L900.372 18.9825 L892.919 18.9825 L892.919 9.54393 Z" fill="#000000" fill-rule="nonzero" fill-opacity="1" /><path clip-path="url(#clip470)" d="M933.549 32.4315 Q927.554 32.4315 924.07 37.1306 Q920.586 41.7891 920.586 49.9314 Q920.586 58.0738 924.03 62.7728 Q927.513 67.4314 933.549 67.4314 Q939.504 67.4314 942.988 62.7323 Q946.472 58.0333 946.472 49.9314 Q946.472 41.8701 942.988 37.1711 Q939.504 32.4315 933.549 32.4315 M933.549 26.1121 Q943.271 26.1121 948.821 32.4315 Q954.371 38.7509 954.371 49.9314 Q954.371 61.0714 948.821 67.4314 Q943.271 73.7508 933.549 73.7508 Q923.787 73.7508 918.237 67.4314 Q912.728 61.0714 912.728 49.9314 Q912.728 38.7509 918.237 32.4315 Q923.787 26.1121 933.549 26.1121 Z" fill="#000000" fill-rule="nonzero" fill-opacity="1" /><path clip-path="url(#clip470)" d="M1004.44 45.1919 L1004.44 72.576 L996.986 72.576 L996.986 45.4349 Q996.986 38.994 994.475 35.7938 Q991.963 32.5936 986.94 32.5936 Q980.904 32.5936 977.421 36.4419 Q973.937 40.2903 973.937 46.9338 L973.937 72.576 L966.443 72.576 L966.443 27.2059 L973.937 27.2059 L973.937 34.2544 Q976.61 30.163 980.216 28.1376 Q983.862 26.1121 988.601 26.1121 Q996.419 26.1121 1000.43 30.9732 Q1004.44 35.7938 1004.44 45.1919 Z" fill="#000000" fill-rule="nonzero" fill-opacity="1" /><path clip-path="url(#clip470)" d="M1052.89 65.7705 L1052.89 89.8329 L1045.39 89.8329 L1045.39 27.2059 L1052.89 27.2059 L1052.89 34.0924 Q1055.24 30.0415 1058.8 28.0971 Q1062.41 26.1121 1067.39 26.1121 Q1075.66 26.1121 1080.8 32.6746 Q1085.98 39.2371 1085.98 49.9314 Q1085.98 60.6258 1080.8 67.1883 Q1075.66 73.7508 1067.39 73.7508 Q1062.41 73.7508 1058.8 71.8063 Q1055.24 69.8214 1052.89 65.7705 M1078.25 49.9314 Q1078.25 41.7081 1074.84 37.0496 Q1071.48 32.3505 1065.57 32.3505 Q1059.65 32.3505 1056.25 37.0496 Q1052.89 41.7081 1052.89 49.9314 Q1052.89 58.1548 1056.25 62.8538 Q1059.65 67.5124 1065.57 67.5124 Q1071.48 67.5124 1074.84 62.8538 Q1078.25 58.1548 1078.25 49.9314 Z" fill="#000000" fill-rule="nonzero" fill-opacity="1" /><path clip-path="url(#clip470)" d="M1118.96 49.7694 Q1109.93 49.7694 1106.44 51.8354 Q1102.96 53.9013 1102.96 58.8839 Q1102.96 62.8538 1105.55 65.2034 Q1108.18 67.5124 1112.68 67.5124 Q1118.88 67.5124 1122.6 63.1374 Q1126.37 58.7219 1126.37 51.4303 L1126.37 49.7694 L1118.96 49.7694 M1133.83 46.6907 L1133.83 72.576 L1126.37 72.576 L1126.37 65.6895 Q1123.82 69.8214 1120.01 71.8063 Q1116.2 73.7508 1110.7 73.7508 Q1103.73 73.7508 1099.6 69.8619 Q1095.5 65.9325 1095.5 59.3701 Q1095.5 51.7138 1100.61 47.825 Q1105.75 43.9361 1115.92 43.9361 L1126.37 43.9361 L1126.37 43.2069 Q1126.37 38.0623 1122.97 35.2672 Q1119.61 32.4315 1113.49 32.4315 Q1109.6 32.4315 1105.92 33.3632 Q1102.23 34.295 1098.83 36.1584 L1098.83 29.2718 Q1102.92 27.692 1106.77 26.9223 Q1110.61 26.1121 1114.26 26.1121 Q1124.1 26.1121 1128.96 31.2163 Q1133.83 36.3204 1133.83 46.6907 Z" fill="#000000" fill-rule="nonzero" fill-opacity="1" /><path clip-path="url(#clip470)" d="M1149.18 27.2059 L1156.63 27.2059 L1156.63 72.576 L1149.18 72.576 L1149.18 27.2059 M1149.18 9.54393 L1156.63 9.54393 L1156.63 18.9825 L1149.18 18.9825 L1149.18 9.54393 Z" fill="#000000" fill-rule="nonzero" fill-opacity="1" /><path clip-path="url(#clip470)" d="M1198.52 34.1734 Q1197.26 33.4443 1195.76 33.1202 Q1194.31 32.7556 1192.52 32.7556 Q1186.2 32.7556 1182.8 36.8875 Q1179.44 40.9789 1179.44 48.6757 L1179.44 72.576 L1171.95 72.576 L1171.95 27.2059 L1179.44 27.2059 L1179.44 34.2544 Q1181.79 30.1225 1185.56 28.1376 Q1189.32 26.1121 1194.71 26.1121 Q1195.48 26.1121 1196.41 26.2337 Q1197.34 26.3147 1198.48 26.5172 L1198.52 34.1734 Z" fill="#000000" fill-rule="nonzero" fill-opacity="1" /><path clip-path="url(#clip470)" d="M1202 27.2059 L1209.46 27.2059 L1218.77 62.6108 L1228.05 27.2059 L1236.84 27.2059 L1246.16 62.6108 L1255.43 27.2059 L1262.89 27.2059 L1251.02 72.576 L1242.23 72.576 L1232.47 35.3887 L1222.66 72.576 L1213.87 72.576 L1202 27.2059 Z" fill="#000000" fill-rule="nonzero" fill-opacity="1" /><path clip-path="url(#clip470)" d="M1274.19 27.2059 L1281.64 27.2059 L1281.64 72.576 L1274.19 72.576 L1274.19 27.2059 M1274.19 9.54393 L1281.64 9.54393 L1281.64 18.9825 L1274.19 18.9825 L1274.19 9.54393 Z" fill="#000000" fill-rule="nonzero" fill-opacity="1" /><path clip-path="url(#clip470)" d="M1326.16 28.5427 L1326.16 35.5912 Q1323 33.9709 1319.6 33.1607 Q1316.2 32.3505 1312.55 32.3505 Q1307 32.3505 1304.21 34.0519 Q1301.45 35.7533 1301.45 39.156 Q1301.45 41.7486 1303.44 43.2475 Q1305.42 44.7058 1311.42 46.0426 L1313.97 46.6097 Q1321.91 48.3111 1325.23 51.4303 Q1328.59 54.509 1328.59 60.0587 Q1328.59 66.3781 1323.57 70.0644 Q1318.59 73.7508 1309.84 73.7508 Q1306.19 73.7508 1302.22 73.0216 Q1298.29 72.3329 1293.92 70.9151 L1293.92 63.2184 Q1298.05 65.3654 1302.06 66.4591 Q1306.07 67.5124 1310 67.5124 Q1315.27 67.5124 1318.1 65.73 Q1320.94 63.9071 1320.94 60.6258 Q1320.94 57.5877 1318.87 55.9673 Q1316.85 54.3469 1309.92 52.8481 L1307.33 52.2405 Q1300.4 50.7821 1297.32 47.7845 Q1294.24 44.7463 1294.24 39.4801 Q1294.24 33.0797 1298.78 29.5959 Q1303.32 26.1121 1311.66 26.1121 Q1315.79 26.1121 1319.44 26.7198 Q1323.08 27.3274 1326.16 28.5427 Z" fill="#000000" fill-rule="nonzero" fill-opacity="1" /><path clip-path="url(#clip470)" d="M1379.27 48.0275 L1379.27 51.6733 L1345 51.6733 Q1345.49 59.3701 1349.62 63.421 Q1353.79 67.4314 1361.2 67.4314 Q1365.5 67.4314 1369.51 66.3781 Q1373.56 65.3249 1377.53 63.2184 L1377.53 70.267 Q1373.52 71.9684 1369.31 72.8596 Q1365.09 73.7508 1360.76 73.7508 Q1349.9 73.7508 1343.54 67.4314 Q1337.22 61.1119 1337.22 50.3365 Q1337.22 39.1965 1343.22 32.6746 Q1349.25 26.1121 1359.46 26.1121 Q1368.62 26.1121 1373.92 32.0264 Q1379.27 37.9003 1379.27 48.0275 M1371.82 45.84 Q1371.74 39.7232 1368.37 36.0774 Q1365.05 32.4315 1359.54 32.4315 Q1353.3 32.4315 1349.54 35.9558 Q1345.81 39.4801 1345.24 45.8805 L1371.82 45.84 Z" fill="#000000" fill-rule="nonzero" fill-opacity="1" /><path clip-path="url(#clip470)" d="M1450.53 28.9478 L1450.53 35.9153 Q1447.37 34.1734 1444.17 33.3227 Q1441.01 32.4315 1437.77 32.4315 Q1430.51 32.4315 1426.5 37.0496 Q1422.49 41.6271 1422.49 49.9314 Q1422.49 58.2358 1426.5 62.8538 Q1430.51 67.4314 1437.77 67.4314 Q1441.01 67.4314 1444.17 66.5807 Q1447.37 65.6895 1450.53 63.9476 L1450.53 70.8341 Q1447.41 72.2924 1444.04 73.0216 Q1440.72 73.7508 1436.96 73.7508 Q1426.71 73.7508 1420.67 67.3098 Q1414.63 60.8689 1414.63 49.9314 Q1414.63 38.832 1420.71 32.472 Q1426.83 26.1121 1437.44 26.1121 Q1440.88 26.1121 1444.17 26.8413 Q1447.45 27.5299 1450.53 28.9478 Z" fill="#000000" fill-rule="nonzero" fill-opacity="1" /><path clip-path="url(#clip470)" d="M1463.49 9.54393 L1470.94 9.54393 L1470.94 72.576 L1463.49 72.576 L1463.49 9.54393 Z" fill="#000000" fill-rule="nonzero" fill-opacity="1" /><path clip-path="url(#clip470)" d="M1504.12 32.4315 Q1498.12 32.4315 1494.64 37.1306 Q1491.16 41.7891 1491.16 49.9314 Q1491.16 58.0738 1494.6 62.7728 Q1498.08 67.4314 1504.12 67.4314 Q1510.07 67.4314 1513.56 62.7323 Q1517.04 58.0333 1517.04 49.9314 Q1517.04 41.8701 1513.56 37.1711 Q1510.07 32.4315 1504.12 32.4315 M1504.12 26.1121 Q1513.84 26.1121 1519.39 32.4315 Q1524.94 38.7509 1524.94 49.9314 Q1524.94 61.0714 1519.39 67.4314 Q1513.84 73.7508 1504.12 73.7508 Q1494.36 73.7508 1488.81 67.4314 Q1483.3 61.0714 1483.3 49.9314 Q1483.3 38.7509 1488.81 32.4315 Q1494.36 26.1121 1504.12 26.1121 Z" fill="#000000" fill-rule="nonzero" fill-opacity="1" /><path clip-path="url(#clip470)" d="M1566.22 28.5427 L1566.22 35.5912 Q1563.06 33.9709 1559.66 33.1607 Q1556.25 32.3505 1552.61 32.3505 Q1547.06 32.3505 1544.26 34.0519 Q1541.51 35.7533 1541.51 39.156 Q1541.51 41.7486 1543.49 43.2475 Q1545.48 44.7058 1551.47 46.0426 L1554.03 46.6097 Q1561.97 48.3111 1565.29 51.4303 Q1568.65 54.509 1568.65 60.0587 Q1568.65 66.3781 1563.63 70.0644 Q1558.64 73.7508 1549.89 73.7508 Q1546.25 73.7508 1542.28 73.0216 Q1538.35 72.3329 1533.97 70.9151 L1533.97 63.2184 Q1538.11 65.3654 1542.12 66.4591 Q1546.13 67.5124 1550.06 67.5124 Q1555.32 67.5124 1558.16 65.73 Q1560.99 63.9071 1560.99 60.6258 Q1560.99 57.5877 1558.93 55.9673 Q1556.9 54.3469 1549.98 52.8481 L1547.38 52.2405 Q1540.46 50.7821 1537.38 47.7845 Q1534.3 44.7463 1534.3 39.4801 Q1534.3 33.0797 1538.84 29.5959 Q1543.37 26.1121 1551.72 26.1121 Q1555.85 26.1121 1559.5 26.7198 Q1563.14 27.3274 1566.22 28.5427 Z" fill="#000000" fill-rule="nonzero" fill-opacity="1" /><path clip-path="url(#clip470)" d="M1579.75 54.671 L1579.75 27.2059 L1587.2 27.2059 L1587.2 54.3874 Q1587.2 60.8284 1589.71 64.0691 Q1592.23 67.2693 1597.25 67.2693 Q1603.29 67.2693 1606.77 63.421 Q1610.29 59.5726 1610.29 52.9291 L1610.29 27.2059 L1617.75 27.2059 L1617.75 72.576 L1610.29 72.576 L1610.29 65.6084 Q1607.58 69.7404 1603.97 71.7658 Q1600.41 73.7508 1595.67 73.7508 Q1587.85 73.7508 1583.8 68.8897 Q1579.75 64.0286 1579.75 54.671 M1598.51 26.1121 L1598.51 26.1121 Z" fill="#000000" fill-rule="nonzero" fill-opacity="1" /><path clip-path="url(#clip470)" d="M1659.39 34.1734 Q1658.13 33.4443 1656.64 33.1202 Q1655.18 32.7556 1653.39 32.7556 Q1647.08 32.7556 1643.67 36.8875 Q1640.31 40.9789 1640.31 48.6757 L1640.31 72.576 L1632.82 72.576 L1632.82 27.2059 L1640.31 27.2059 L1640.31 34.2544 Q1642.66 30.1225 1646.43 28.1376 Q1650.19 26.1121 1655.58 26.1121 Q1656.35 26.1121 1657.28 26.2337 Q1658.22 26.3147 1659.35 26.5172 L1659.39 34.1734 Z" fill="#000000" fill-rule="nonzero" fill-opacity="1" /><path clip-path="url(#clip470)" d="M1704.19 48.0275 L1704.19 51.6733 L1669.92 51.6733 Q1670.41 59.3701 1674.54 63.421 Q1678.71 67.4314 1686.13 67.4314 Q1690.42 67.4314 1694.43 66.3781 Q1698.48 65.3249 1702.45 63.2184 L1702.45 70.267 Q1698.44 71.9684 1694.23 72.8596 Q1690.02 73.7508 1685.68 73.7508 Q1674.82 73.7508 1668.46 67.4314 Q1662.14 61.1119 1662.14 50.3365 Q1662.14 39.1965 1668.14 32.6746 Q1674.18 26.1121 1684.38 26.1121 Q1693.54 26.1121 1698.85 32.0264 Q1704.19 37.9003 1704.19 48.0275 M1696.74 45.84 Q1696.66 39.7232 1693.3 36.0774 Q1689.97 32.4315 1684.47 32.4315 Q1678.23 32.4315 1674.46 35.9558 Q1670.73 39.4801 1670.17 45.8805 L1696.74 45.84 Z" fill="#000000" fill-rule="nonzero" fill-opacity="1" /><path clip-path="url(#clip470)" d="M1745.35 28.5427 L1745.35 35.5912 Q1742.19 33.9709 1738.79 33.1607 Q1735.39 32.3505 1731.74 32.3505 Q1726.19 32.3505 1723.39 34.0519 Q1720.64 35.7533 1720.64 39.156 Q1720.64 41.7486 1722.62 43.2475 Q1724.61 44.7058 1730.61 46.0426 L1733.16 46.6097 Q1741.1 48.3111 1744.42 51.4303 Q1747.78 54.509 1747.78 60.0587 Q1747.78 66.3781 1742.76 70.0644 Q1737.78 73.7508 1729.03 73.7508 Q1725.38 73.7508 1721.41 73.0216 Q1717.48 72.3329 1713.11 70.9151 L1713.11 63.2184 Q1717.24 65.3654 1721.25 66.4591 Q1725.26 67.5124 1729.19 67.5124 Q1734.45 67.5124 1737.29 65.73 Q1740.12 63.9071 1740.12 60.6258 Q1740.12 57.5877 1738.06 55.9673 Q1736.03 54.3469 1729.11 52.8481 L1726.51 52.2405 Q1719.59 50.7821 1716.51 47.7845 Q1713.43 44.7463 1713.43 39.4801 Q1713.43 33.0797 1717.97 29.5959 Q1722.5 26.1121 1730.85 26.1121 Q1734.98 26.1121 1738.63 26.7198 Q1742.27 27.3274 1745.35 28.5427 Z" fill="#000000" fill-rule="nonzero" fill-opacity="1" /><path clip-path="url(#clip470)" d="M1803.6 32.4315 Q1797.61 32.4315 1794.12 37.1306 Q1790.64 41.7891 1790.64 49.9314 Q1790.64 58.0738 1794.08 62.7728 Q1797.57 67.4314 1803.6 67.4314 Q1809.56 67.4314 1813.04 62.7323 Q1816.52 58.0333 1816.52 49.9314 Q1816.52 41.8701 1813.04 37.1711 Q1809.56 32.4315 1803.6 32.4315 M1803.6 26.1121 Q1813.32 26.1121 1818.87 32.4315 Q1824.42 38.7509 1824.42 49.9314 Q1824.42 61.0714 1818.87 67.4314 Q1813.32 73.7508 1803.6 73.7508 Q1793.84 73.7508 1788.29 67.4314 Q1782.78 61.0714 1782.78 49.9314 Q1782.78 38.7509 1788.29 32.4315 Q1793.84 26.1121 1803.6 26.1121 Z" fill="#000000" fill-rule="nonzero" fill-opacity="1" /><path clip-path="url(#clip470)" d="M1874.49 45.1919 L1874.49 72.576 L1867.04 72.576 L1867.04 45.4349 Q1867.04 38.994 1864.53 35.7938 Q1862.02 32.5936 1856.99 32.5936 Q1850.96 32.5936 1847.47 36.4419 Q1843.99 40.2903 1843.99 46.9338 L1843.99 72.576 L1836.5 72.576 L1836.5 27.2059 L1843.99 27.2059 L1843.99 34.2544 Q1846.66 30.163 1850.27 28.1376 Q1853.91 26.1121 1858.65 26.1121 Q1866.47 26.1121 1870.48 30.9732 Q1874.49 35.7938 1874.49 45.1919 Z" fill="#000000" fill-rule="nonzero" fill-opacity="1" /><path clip-path="url(#clip470)" d="M1936.35 49.7694 Q1927.32 49.7694 1923.83 51.8354 Q1920.35 53.9013 1920.35 58.8839 Q1920.35 62.8538 1922.94 65.2034 Q1925.58 67.5124 1930.07 67.5124 Q1936.27 67.5124 1940 63.1374 Q1943.76 58.7219 1943.76 51.4303 L1943.76 49.7694 L1936.35 49.7694 M1951.22 46.6907 L1951.22 72.576 L1943.76 72.576 L1943.76 65.6895 Q1941.21 69.8214 1937.4 71.8063 Q1933.6 73.7508 1928.09 73.7508 Q1921.12 73.7508 1916.99 69.8619 Q1912.9 65.9325 1912.9 59.3701 Q1912.9 51.7138 1918 47.825 Q1923.14 43.9361 1933.31 43.9361 L1943.76 43.9361 L1943.76 43.2069 Q1943.76 38.0623 1940.36 35.2672 Q1937 32.4315 1930.88 32.4315 Q1926.99 32.4315 1923.31 33.3632 Q1919.62 34.295 1916.22 36.1584 L1916.22 29.2718 Q1920.31 27.692 1924.16 26.9223 Q1928.01 26.1121 1931.65 26.1121 Q1941.5 26.1121 1946.36 31.2163 Q1951.22 36.3204 1951.22 46.6907 Z" fill="#000000" fill-rule="nonzero" fill-opacity="1" /><path clip-path="url(#clip470)" d="M2012.51 39.075 Q2007 39.075 2003.76 42.8424 Q2000.56 46.6097 2000.56 53.1722 Q2000.56 59.6941 2003.76 63.502 Q2007 67.2693 2012.51 67.2693 Q2018.02 67.2693 2021.22 63.502 Q2024.46 59.6941 2024.46 53.1722 Q2024.46 46.6097 2021.22 42.8424 Q2018.02 39.075 2012.51 39.075 M2028.75 13.4328 L2028.75 20.8865 Q2025.67 19.4281 2022.51 18.6585 Q2019.39 17.8888 2016.32 17.8888 Q2008.21 17.8888 2003.92 23.3575 Q1999.67 28.8262 1999.06 39.8852 Q2001.45 36.3609 2005.05 34.4975 Q2008.66 32.5936 2012.99 32.5936 Q2022.11 32.5936 2027.37 38.1433 Q2032.68 43.6525 2032.68 53.1722 Q2032.68 62.4892 2027.17 68.12 Q2021.66 73.7508 2012.51 73.7508 Q2002.02 73.7508 1996.47 65.73 Q1990.92 57.6687 1990.92 42.3968 Q1990.92 28.0566 1997.72 19.5497 Q2004.53 11.0023 2015.99 11.0023 Q2019.07 11.0023 2022.19 11.6099 Q2025.35 12.2175 2028.75 13.4328 Z" fill="#000000" fill-rule="nonzero" fill-opacity="1" /><path clip-path="url(#clip470)" d="M2041.96 46.5287 L2063.79 46.5287 L2063.79 53.1722 L2041.96 53.1722 L2041.96 46.5287 Z" fill="#000000" fill-rule="nonzero" fill-opacity="1" /><path clip-path="url(#clip470)" d="M2101.95 34.1734 Q2100.7 33.4443 2099.2 33.1202 Q2097.74 32.7556 2095.96 32.7556 Q2089.64 32.7556 2086.23 36.8875 Q2082.87 40.9789 2082.87 48.6757 L2082.87 72.576 L2075.38 72.576 L2075.38 27.2059 L2082.87 27.2059 L2082.87 34.2544 Q2085.22 30.1225 2088.99 28.1376 Q2092.76 26.1121 2098.14 26.1121 Q2098.91 26.1121 2099.85 26.2337 Q2100.78 26.3147 2101.91 26.5172 L2101.95 34.1734 Z" fill="#000000" fill-rule="nonzero" fill-opacity="1" /><path clip-path="url(#clip470)" d="M2146.75 48.0275 L2146.75 51.6733 L2112.48 51.6733 Q2112.97 59.3701 2117.1 63.421 Q2121.27 67.4314 2128.69 67.4314 Q2132.98 67.4314 2136.99 66.3781 Q2141.04 65.3249 2145.01 63.2184 L2145.01 70.267 Q2141 71.9684 2136.79 72.8596 Q2132.58 73.7508 2128.24 73.7508 Q2117.39 73.7508 2111.03 67.4314 Q2104.71 61.1119 2104.71 50.3365 Q2104.71 39.1965 2110.7 32.6746 Q2116.74 26.1121 2126.95 26.1121 Q2136.1 26.1121 2141.41 32.0264 Q2146.75 37.9003 2146.75 48.0275 M2139.3 45.84 Q2139.22 39.7232 2135.86 36.0774 Q2132.54 32.4315 2127.03 32.4315 Q2120.79 32.4315 2117.02 35.9558 Q2113.29 39.4801 2112.73 45.8805 L2139.3 45.84 Z" fill="#000000" fill-rule="nonzero" fill-opacity="1" /><path clip-path="url(#clip470)" d="M2188.84 49.3643 Q2188.84 41.2625 2185.48 36.8065 Q2182.16 32.3505 2176.12 32.3505 Q2170.13 32.3505 2166.77 36.8065 Q2163.44 41.2625 2163.44 49.3643 Q2163.44 57.4256 2166.77 61.8816 Q2170.13 66.3376 2176.12 66.3376 Q2182.16 66.3376 2185.48 61.8816 Q2188.84 57.4256 2188.84 49.3643 M2196.3 66.9452 Q2196.3 78.5308 2191.15 84.1616 Q2186.01 89.8329 2175.39 89.8329 Q2171.47 89.8329 2167.98 89.2252 Q2164.5 88.6581 2161.22 87.4428 L2161.22 80.1917 Q2164.5 81.9741 2167.7 82.8248 Q2170.9 83.6755 2174.22 83.6755 Q2181.55 83.6755 2185.2 79.8271 Q2188.84 76.0193 2188.84 68.282 L2188.84 64.5957 Q2186.53 68.6061 2182.93 70.5911 Q2179.32 72.576 2174.3 72.576 Q2165.96 72.576 2160.85 66.2161 Q2155.75 59.8562 2155.75 49.3643 Q2155.75 38.832 2160.85 32.472 Q2165.96 26.1121 2174.3 26.1121 Q2179.32 26.1121 2182.93 28.0971 Q2186.53 30.082 2188.84 34.0924 L2188.84 27.2059 L2196.3 27.2059 L2196.3 66.9452 Z" fill="#000000" fill-rule="nonzero" fill-opacity="1" /><path clip-path="url(#clip470)" d="M2210.88 54.671 L2210.88 27.2059 L2218.33 27.2059 L2218.33 54.3874 Q2218.33 60.8284 2220.85 64.0691 Q2223.36 67.2693 2228.38 67.2693 Q2234.42 67.2693 2237.9 63.421 Q2241.42 59.5726 2241.42 52.9291 L2241.42 27.2059 L2248.88 27.2059 L2248.88 72.576 L2241.42 72.576 L2241.42 65.6084 Q2238.71 69.7404 2235.1 71.7658 Q2231.54 73.7508 2226.8 73.7508 Q2218.98 73.7508 2214.93 68.8897 Q2210.88 64.0286 2210.88 54.671 M2229.64 26.1121 L2229.64 26.1121 Z" fill="#000000" fill-rule="nonzero" fill-opacity="1" /><path clip-path="url(#clip470)" d="M2264.23 9.54393 L2271.68 9.54393 L2271.68 72.576 L2264.23 72.576 L2264.23 9.54393 Z" fill="#000000" fill-rule="nonzero" fill-opacity="1" /><path clip-path="url(#clip470)" d="M2307.9 49.7694 Q2298.87 49.7694 2295.38 51.8354 Q2291.9 53.9013 2291.9 58.8839 Q2291.9 62.8538 2294.49 65.2034 Q2297.12 67.5124 2301.62 67.5124 Q2307.82 67.5124 2311.55 63.1374 Q2315.31 58.7219 2315.31 51.4303 L2315.31 49.7694 L2307.9 49.7694 M2322.77 46.6907 L2322.77 72.576 L2315.31 72.576 L2315.31 65.6895 Q2312.76 69.8214 2308.95 71.8063 Q2305.14 73.7508 2299.64 73.7508 Q2292.67 73.7508 2288.54 69.8619 Q2284.44 65.9325 2284.44 59.3701 Q2284.44 51.7138 2289.55 47.825 Q2294.69 43.9361 2304.86 43.9361 L2315.31 43.9361 L2315.31 43.2069 Q2315.31 38.0623 2311.91 35.2672 Q2308.55 32.4315 2302.43 32.4315 Q2298.54 32.4315 2294.86 33.3632 Q2291.17 34.295 2287.77 36.1584 L2287.77 29.2718 Q2291.86 27.692 2295.71 26.9223 Q2299.55 26.1121 2303.2 26.1121 Q2313.04 26.1121 2317.91 31.2163 Q2322.77 36.3204 2322.77 46.6907 Z" fill="#000000" fill-rule="nonzero" fill-opacity="1" /><path clip-path="url(#clip470)" d="M2364.41 34.1734 Q2363.15 33.4443 2361.66 33.1202 Q2360.2 32.7556 2358.41 32.7556 Q2352.09 32.7556 2348.69 36.8875 Q2345.33 40.9789 2345.33 48.6757 L2345.33 72.576 L2337.84 72.576 L2337.84 27.2059 L2345.33 27.2059 L2345.33 34.2544 Q2347.68 30.1225 2351.45 28.1376 Q2355.21 26.1121 2360.6 26.1121 Q2361.37 26.1121 2362.3 26.2337 Q2363.23 26.3147 2364.37 26.5172 L2364.41 34.1734 Z" fill="#000000" fill-rule="nonzero" fill-opacity="1" /><path clip-path="url(#clip470)" d="M2436.31 45.1919 L2436.31 72.576 L2428.86 72.576 L2428.86 45.4349 Q2428.86 38.994 2426.35 35.7938 Q2423.84 32.5936 2418.81 32.5936 Q2412.78 32.5936 2409.29 36.4419 Q2405.81 40.2903 2405.81 46.9338 L2405.81 72.576 L2398.32 72.576 L2398.32 27.2059 L2405.81 27.2059 L2405.81 34.2544 Q2408.48 30.163 2412.09 28.1376 Q2415.73 26.1121 2420.47 26.1121 Q2428.29 26.1121 2432.3 30.9732 Q2436.31 35.7938 2436.31 45.1919 Z" fill="#000000" fill-rule="nonzero" fill-opacity="1" /><path clip-path="url(#clip470)" d="M2489.99 48.0275 L2489.99 51.6733 L2455.72 51.6733 Q2456.2 59.3701 2460.34 63.421 Q2464.51 67.4314 2471.92 67.4314 Q2476.21 67.4314 2480.23 66.3781 Q2484.28 65.3249 2488.25 63.2184 L2488.25 70.267 Q2484.24 71.9684 2480.02 72.8596 Q2475.81 73.7508 2471.48 73.7508 Q2460.62 73.7508 2454.26 67.4314 Q2447.94 61.1119 2447.94 50.3365 Q2447.94 39.1965 2453.93 32.6746 Q2459.97 26.1121 2470.18 26.1121 Q2479.33 26.1121 2484.64 32.0264 Q2489.99 37.9003 2489.99 48.0275 M2482.53 45.84 Q2482.45 39.7232 2479.09 36.0774 Q2475.77 32.4315 2470.26 32.4315 Q2464.02 32.4315 2460.25 35.9558 Q2456.53 39.4801 2455.96 45.8805 L2482.53 45.84 Z" fill="#000000" fill-rule="nonzero" fill-opacity="1" /><path clip-path="url(#clip470)" d="M2509.59 14.324 L2509.59 27.2059 L2524.95 27.2059 L2524.95 32.9987 L2509.59 32.9987 L2509.59 57.6282 Q2509.59 63.1779 2511.09 64.7578 Q2512.63 66.3376 2517.29 66.3376 L2524.95 66.3376 L2524.95 72.576 L2517.29 72.576 Q2508.66 72.576 2505.38 69.3758 Q2502.1 66.1351 2502.1 57.6282 L2502.1 32.9987 L2496.63 32.9987 L2496.63 27.2059 L2502.1 27.2059 L2502.1 14.324 L2509.59 14.324 Z" fill="#000000" fill-rule="nonzero" fill-opacity="1" /><path clip-path="url(#clip470)" d="M2530.42 27.2059 L2537.87 27.2059 L2547.19 62.6108 L2556.46 27.2059 L2565.25 27.2059 L2574.57 62.6108 L2583.85 27.2059 L2591.3 27.2059 L2579.43 72.576 L2570.64 72.576 L2560.88 35.3887 L2551.08 72.576 L2542.28 72.576 L2530.42 27.2059 Z" fill="#000000" fill-rule="nonzero" fill-opacity="1" /><path clip-path="url(#clip470)" d="M2620.18 32.4315 Q2614.19 32.4315 2610.7 37.1306 Q2607.22 41.7891 2607.22 49.9314 Q2607.22 58.0738 2610.66 62.7728 Q2614.15 67.4314 2620.18 67.4314 Q2626.14 67.4314 2629.62 62.7323 Q2633.11 58.0333 2633.11 49.9314 Q2633.11 41.8701 2629.62 37.1711 Q2626.14 32.4315 2620.18 32.4315 M2620.18 26.1121 Q2629.91 26.1121 2635.46 32.4315 Q2641.01 38.7509 2641.01 49.9314 Q2641.01 61.0714 2635.46 67.4314 Q2629.91 73.7508 2620.18 73.7508 Q2610.42 73.7508 2604.87 67.4314 Q2599.36 61.0714 2599.36 49.9314 Q2599.36 38.7509 2604.87 32.4315 Q2610.42 26.1121 2620.18 26.1121 Z" fill="#000000" fill-rule="nonzero" fill-opacity="1" /><path clip-path="url(#clip470)" d="M2679.65 34.1734 Q2678.4 33.4443 2676.9 33.1202 Q2675.44 32.7556 2673.66 32.7556 Q2667.34 32.7556 2663.93 36.8875 Q2660.57 40.9789 2660.57 48.6757 L2660.57 72.576 L2653.08 72.576 L2653.08 27.2059 L2660.57 27.2059 L2660.57 34.2544 Q2662.92 30.1225 2666.69 28.1376 Q2670.46 26.1121 2675.84 26.1121 Q2676.61 26.1121 2677.54 26.2337 Q2678.48 26.3147 2679.61 26.5172 L2679.65 34.1734 Z" fill="#000000" fill-rule="nonzero" fill-opacity="1" /><path clip-path="url(#clip470)" d="M2687.19 9.54393 L2694.68 9.54393 L2694.68 46.7717 L2716.92 27.2059 L2726.44 27.2059 L2702.38 48.4326 L2727.45 72.576 L2717.73 72.576 L2694.68 50.4176 L2694.68 72.576 L2687.19 72.576 L2687.19 9.54393 Z" fill="#000000" fill-rule="nonzero" fill-opacity="1" /><polyline clip-path="url(#clip471)" style="stroke:#009af9; stroke-linecap:round; stroke-linejoin:round; stroke-width:8; stroke-opacity:1; fill:none" points="306.647,173.254 344.416,174.688 382.185,176.933 419.954,180.442 457.722,185.916 495.491,194.433 533.26,207.62 571.029,227.895 608.797,258.726 646.566,304.832 684.335,372.069 722.104,466.569 759.872,592.606 797.641,749.166 835.41,926.776 873.179,1107.79 910.947,1272.15 948.716,1405.52 986.485,1503.63 1024.25,1570.48 1062.02,1613.69 1099.79,1640.79 1137.56,1657.57 1175.33,1667.97 1213.1,1674.49 1250.87,1678.64 1288.63,1681.35 1326.4,1683.15 1364.17,1684.37 1401.94,1685.23 1439.71,1685.84 1477.48,1686.28 1515.25,1686.61 1553.02,1686.86 1590.78,1687.05 1628.55,1687.19 1666.32,1687.31 1704.09,1687.4 1741.86,1687.47 1779.63,1687.53 1817.4,1687.58 1855.17,1687.62 1892.93,1687.65 1930.7,1687.67 1968.47,1687.7 2006.24,1687.71 2044.01,1687.73 2081.78,1687.74 2119.55,1687.75 2157.32,1687.76 2195.08,1687.77 2232.85,1687.77 2270.62,1687.78 2308.39,1687.78 2346.16,1687.79 2383.93,1687.79 2421.7,1687.79 2459.47,1687.79 2497.23,1687.8 2535,1687.8 2572.77,1687.8 "/>
<polyline clip-path="url(#clip471)" style="stroke:#e26f46; stroke-linecap:round; stroke-linejoin:round; stroke-width:8; stroke-opacity:1; fill:none" points="306.647,173.254 344.416,174.675 382.185,176.814 419.954,179.97 457.722,184.581 495.491,191.27 533.26,200.92 571.029,214.764 608.797,234.499 646.566,262.399 684.335,301.401 722.104,355.087 759.872,427.417 797.641,522.038 835.41,641 873.179,782.943 910.947,941.42 948.716,1104.65 986.485,1257.95 1024.25,1388.47 1062.02,1489.39 1099.79,1561.04 1137.56,1608.58 1175.33,1638.66 1213.1,1657.18 1250.87,1668.47 1288.63,1675.37 1326.4,1679.65 1364.17,1682.35 1401.94,1684.09 1439.71,1685.24 1477.48,1686.01 1515.25,1686.55 1553.02,1686.93 1590.78,1687.21 1628.55,1687.42 1666.32,1687.57 1704.09,1687.69 1741.86,1687.78 1779.63,1687.85 1817.4,1687.9 1855.17,1687.95 1892.93,1687.98 1930.7,1688.01 1968.47,1688.04 2006.24,1688.06 2044.01,1688.07 2081.78,1688.09 2119.55,1688.1 2157.32,1688.11 2195.08,1688.11 2232.85,1688.12 2270.62,1688.13 2308.39,1688.13 2346.16,1688.13 2383.93,1688.14 2421.7,1688.14 2459.47,1688.14 2497.23,1688.14 2535,1688.14 2572.77,1688.15 "/>
<polyline clip-path="url(#clip471)" style="stroke:#3da44d; stroke-linecap:round; stroke-linejoin:round; stroke-width:8; stroke-opacity:1; fill:none" points="306.647,173.254 344.416,174.675 382.185,176.812 419.954,179.958 457.722,184.536 495.491,191.142 533.26,200.609 571.029,214.094 608.797,233.166 646.566,259.909 684.335,296.987 722.104,347.623 759.872,415.368 797.641,503.532 835.41,614.139 873.179,746.471 910.947,895.67 948.716,1052.33 986.485,1204.02 1024.25,1338.68 1062.02,1448.23 1099.79,1530.38 1137.56,1587.8 1175.33,1625.72 1213.1,1649.76 1250.87,1664.61 1288.63,1673.65 1326.4,1679.15 1364.17,1682.5 1401.94,1684.58 1439.71,1685.88 1477.48,1686.71 1515.25,1687.25 1553.02,1687.62 1590.78,1687.86 1628.55,1688.03 1666.32,1688.16 1704.09,1688.24 1741.86,1688.31 1779.63,1688.36 1817.4,1688.39 1855.17,1688.42 1892.93,1688.44 1930.7,1688.46 1968.47,1688.48 2006.24,1688.49 2044.01,1688.5 2081.78,1688.5 2119.55,1688.51 2157.32,1688.51 2195.08,1688.52 2232.85,1688.52 2270.62,1688.52 2308.39,1688.53 2346.16,1688.53 2383.93,1688.53 2421.7,1688.53 2459.47,1688.53 2497.23,1688.53 2535,1688.53 2572.77,1688.54 "/>
<polyline clip-path="url(#clip471)" style="stroke:#000000; stroke-linecap:round; stroke-linejoin:round; stroke-width:4; stroke-opacity:1; fill:none" stroke-dasharray="2, 4" points="-2163.43,1688.65 5042.85,1688.65 "/>
<path clip-path="url(#clip470)" d="M1973.97 440.536 L2560.69 440.536 L2560.69 181.336 L1973.97 181.336  Z" fill="#ffffff" fill-rule="evenodd" fill-opacity="1"/>
<polyline clip-path="url(#clip470)" style="stroke:#000000; stroke-linecap:round; stroke-linejoin:round; stroke-width:4; stroke-opacity:1; fill:none" points="1973.97,440.536 2560.69,440.536 2560.69,181.336 1973.97,181.336 1973.97,440.536 "/>
<polyline clip-path="url(#clip470)" style="stroke:#009af9; stroke-linecap:round; stroke-linejoin:round; stroke-width:8; stroke-opacity:1; fill:none" points="2000.66,233.176 2160.8,233.176 "/>
<path clip-path="url(#clip470)" d="M2192.17 233.952 L2192.17 246.614 L2199.67 246.614 Q2203.44 246.614 2205.25 245.063 Q2207.08 243.489 2207.08 240.271 Q2207.08 237.03 2205.25 235.503 Q2203.44 233.952 2199.67 233.952 L2192.17 233.952 M2192.17 219.739 L2192.17 230.155 L2199.09 230.155 Q2202.52 230.155 2204.18 228.882 Q2205.87 227.586 2205.87 224.947 Q2205.87 222.331 2204.18 221.035 Q2202.52 219.739 2199.09 219.739 L2192.17 219.739 M2187.49 215.896 L2199.44 215.896 Q2204.79 215.896 2207.68 218.118 Q2210.57 220.341 2210.57 224.438 Q2210.57 227.609 2209.09 229.484 Q2207.61 231.359 2204.74 231.822 Q2208.19 232.563 2210.09 234.924 Q2212.01 237.262 2212.01 240.78 Q2212.01 245.41 2208.86 247.933 Q2205.71 250.456 2199.9 250.456 L2187.49 250.456 L2187.49 215.896 Z" fill="#000000" fill-rule="nonzero" fill-opacity="1" /><path clip-path="url(#clip470)" d="M2242.01 236.429 L2242.01 238.512 L2222.42 238.512 Q2222.7 242.91 2225.06 245.225 Q2227.45 247.516 2231.68 247.516 Q2234.14 247.516 2236.43 246.915 Q2238.74 246.313 2241.01 245.109 L2241.01 249.137 Q2238.72 250.109 2236.31 250.618 Q2233.91 251.128 2231.43 251.128 Q2225.22 251.128 2221.59 247.516 Q2217.98 243.905 2217.98 237.748 Q2217.98 231.382 2221.41 227.655 Q2224.85 223.906 2230.69 223.906 Q2235.92 223.906 2238.95 227.285 Q2242.01 230.642 2242.01 236.429 M2237.75 235.179 Q2237.7 231.683 2235.78 229.6 Q2233.88 227.517 2230.73 227.517 Q2227.17 227.517 2225.02 229.53 Q2222.89 231.544 2222.56 235.202 L2237.75 235.179 Z" fill="#000000" fill-rule="nonzero" fill-opacity="1" /><path clip-path="url(#clip470)" d="M2264.02 228.512 Q2263.3 228.095 2262.45 227.91 Q2261.61 227.702 2260.59 227.702 Q2256.98 227.702 2255.04 230.063 Q2253.12 232.401 2253.12 236.799 L2253.12 250.456 L2248.84 250.456 L2248.84 224.531 L2253.12 224.531 L2253.12 228.558 Q2254.46 226.197 2256.61 225.063 Q2258.77 223.906 2261.84 223.906 Q2262.28 223.906 2262.82 223.975 Q2263.35 224.021 2264 224.137 L2264.02 228.512 Z" fill="#000000" fill-rule="nonzero" fill-opacity="1" /><path clip-path="url(#clip470)" d="M2289.21 234.808 L2289.21 250.456 L2284.95 250.456 L2284.95 234.947 Q2284.95 231.267 2283.51 229.438 Q2282.08 227.609 2279.21 227.609 Q2275.76 227.609 2273.77 229.808 Q2271.78 232.007 2271.78 235.804 L2271.78 250.456 L2267.49 250.456 L2267.49 224.531 L2271.78 224.531 L2271.78 228.558 Q2273.3 226.22 2275.36 225.063 Q2277.45 223.906 2280.16 223.906 Q2284.62 223.906 2286.91 226.683 Q2289.21 229.438 2289.21 234.808 Z" fill="#000000" fill-rule="nonzero" fill-opacity="1" /><path clip-path="url(#clip470)" d="M2307.75 227.517 Q2304.32 227.517 2302.33 230.202 Q2300.34 232.864 2300.34 237.517 Q2300.34 242.169 2302.31 244.854 Q2304.3 247.516 2307.75 247.516 Q2311.15 247.516 2313.14 244.831 Q2315.13 242.146 2315.13 237.517 Q2315.13 232.91 2313.14 230.225 Q2311.15 227.517 2307.75 227.517 M2307.75 223.906 Q2313.3 223.906 2316.47 227.517 Q2319.65 231.128 2319.65 237.517 Q2319.65 243.882 2316.47 247.516 Q2313.3 251.128 2307.75 251.128 Q2302.17 251.128 2299 247.516 Q2295.85 243.882 2295.85 237.517 Q2295.85 231.128 2299 227.517 Q2302.17 223.906 2307.75 223.906 Z" fill="#000000" fill-rule="nonzero" fill-opacity="1" /><path clip-path="url(#clip470)" d="M2326.27 240.225 L2326.27 224.531 L2330.53 224.531 L2330.53 240.063 Q2330.53 243.743 2331.96 245.595 Q2333.4 247.424 2336.27 247.424 Q2339.71 247.424 2341.71 245.225 Q2343.72 243.026 2343.72 239.229 L2343.72 224.531 L2347.98 224.531 L2347.98 250.456 L2343.72 250.456 L2343.72 246.475 Q2342.17 248.836 2340.11 249.993 Q2338.07 251.128 2335.36 251.128 Q2330.9 251.128 2328.58 248.35 Q2326.27 245.572 2326.27 240.225 M2336.98 223.906 L2336.98 223.906 Z" fill="#000000" fill-rule="nonzero" fill-opacity="1" /><path clip-path="url(#clip470)" d="M2356.75 214.438 L2361.01 214.438 L2361.01 250.456 L2356.75 250.456 L2356.75 214.438 Z" fill="#000000" fill-rule="nonzero" fill-opacity="1" /><path clip-path="url(#clip470)" d="M2369.92 214.438 L2374.18 214.438 L2374.18 250.456 L2369.92 250.456 L2369.92 214.438 Z" fill="#000000" fill-rule="nonzero" fill-opacity="1" /><path clip-path="url(#clip470)" d="M2383.09 224.531 L2387.35 224.531 L2387.35 250.456 L2383.09 250.456 L2383.09 224.531 M2383.09 214.438 L2387.35 214.438 L2387.35 219.831 L2383.09 219.831 L2383.09 214.438 Z" fill="#000000" fill-rule="nonzero" fill-opacity="1" /><polyline clip-path="url(#clip470)" style="stroke:#e26f46; stroke-linecap:round; stroke-linejoin:round; stroke-width:8; stroke-opacity:1; fill:none" points="2000.66,285.016 2160.8,285.016 "/>
<path clip-path="url(#clip470)" d="M2187.49 267.736 L2192.17 267.736 L2192.17 282.343 L2207.68 267.736 L2213.7 267.736 L2196.54 283.847 L2214.92 302.296 L2208.77 302.296 L2192.17 285.653 L2192.17 302.296 L2187.49 302.296 L2187.49 267.736 Z" fill="#000000" fill-rule="nonzero" fill-opacity="1" /><path clip-path="url(#clip470)" d="M2238.21 288.269 L2238.21 290.352 L2218.63 290.352 Q2218.91 294.75 2221.27 297.065 Q2223.65 299.356 2227.89 299.356 Q2230.34 299.356 2232.63 298.755 Q2234.95 298.153 2237.22 296.949 L2237.22 300.977 Q2234.92 301.949 2232.52 302.458 Q2230.11 302.968 2227.63 302.968 Q2221.43 302.968 2217.79 299.356 Q2214.18 295.745 2214.18 289.588 Q2214.18 283.222 2217.61 279.495 Q2221.06 275.746 2226.89 275.746 Q2232.12 275.746 2235.16 279.125 Q2238.21 282.482 2238.21 288.269 M2233.95 287.019 Q2233.91 283.523 2231.98 281.44 Q2230.09 279.357 2226.94 279.357 Q2223.37 279.357 2221.22 281.37 Q2219.09 283.384 2218.77 287.042 L2233.95 287.019 Z" fill="#000000" fill-rule="nonzero" fill-opacity="1" /><path clip-path="url(#clip470)" d="M2267.38 288.269 L2267.38 290.352 L2247.79 290.352 Q2248.07 294.75 2250.43 297.065 Q2252.82 299.356 2257.05 299.356 Q2259.51 299.356 2261.8 298.755 Q2264.11 298.153 2266.38 296.949 L2266.38 300.977 Q2264.09 301.949 2261.68 302.458 Q2259.28 302.968 2256.8 302.968 Q2250.59 302.968 2246.96 299.356 Q2243.35 295.745 2243.35 289.588 Q2243.35 283.222 2246.78 279.495 Q2250.22 275.746 2256.06 275.746 Q2261.29 275.746 2264.32 279.125 Q2267.38 282.482 2267.38 288.269 M2263.12 287.019 Q2263.07 283.523 2261.15 281.44 Q2259.25 279.357 2256.1 279.357 Q2252.54 279.357 2250.39 281.37 Q2248.26 283.384 2247.93 287.042 L2263.12 287.019 Z" fill="#000000" fill-rule="nonzero" fill-opacity="1" /><path clip-path="url(#clip470)" d="M2274.37 266.278 L2278.63 266.278 L2278.63 302.296 L2274.37 302.296 L2274.37 266.278 Z" fill="#000000" fill-rule="nonzero" fill-opacity="1" /><path clip-path="url(#clip470)" d="M2287.54 276.371 L2291.8 276.371 L2291.8 302.296 L2287.54 302.296 L2287.54 276.371 M2287.54 266.278 L2291.8 266.278 L2291.8 271.671 L2287.54 271.671 L2287.54 266.278 Z" fill="#000000" fill-rule="nonzero" fill-opacity="1" /><path clip-path="url(#clip470)" d="M2322.26 286.648 L2322.26 302.296 L2318 302.296 L2318 286.787 Q2318 283.107 2316.57 281.278 Q2315.13 279.449 2312.26 279.449 Q2308.81 279.449 2306.82 281.648 Q2304.83 283.847 2304.83 287.644 L2304.83 302.296 L2300.55 302.296 L2300.55 276.371 L2304.83 276.371 L2304.83 280.398 Q2306.36 278.06 2308.42 276.903 Q2310.5 275.746 2313.21 275.746 Q2317.68 275.746 2319.97 278.523 Q2322.26 281.278 2322.26 286.648 Z" fill="#000000" fill-rule="nonzero" fill-opacity="1" /><path clip-path="url(#clip470)" d="M2347.82 289.032 Q2347.82 284.403 2345.9 281.857 Q2344 279.31 2340.55 279.31 Q2337.12 279.31 2335.2 281.857 Q2333.3 284.403 2333.3 289.032 Q2333.3 293.639 2335.2 296.185 Q2337.12 298.731 2340.55 298.731 Q2344 298.731 2345.9 296.185 Q2347.82 293.639 2347.82 289.032 M2352.08 299.079 Q2352.08 305.699 2349.14 308.917 Q2346.2 312.157 2340.13 312.157 Q2337.89 312.157 2335.9 311.81 Q2333.9 311.486 2332.03 310.792 L2332.03 306.648 Q2333.9 307.667 2335.73 308.153 Q2337.56 308.639 2339.46 308.639 Q2343.65 308.639 2345.73 306.44 Q2347.82 304.264 2347.82 299.843 L2347.82 297.736 Q2346.5 300.028 2344.44 301.162 Q2342.38 302.296 2339.51 302.296 Q2334.74 302.296 2331.82 298.662 Q2328.9 295.028 2328.9 289.032 Q2328.9 283.014 2331.82 279.38 Q2334.74 275.746 2339.51 275.746 Q2342.38 275.746 2344.44 276.88 Q2346.5 278.014 2347.82 280.306 L2347.82 276.371 L2352.08 276.371 L2352.08 299.079 Z" fill="#000000" fill-rule="nonzero" fill-opacity="1" /><polyline clip-path="url(#clip470)" style="stroke:#3da44d; stroke-linecap:round; stroke-linejoin:round; stroke-width:8; stroke-opacity:1; fill:none" points="2000.66,336.856 2160.8,336.856 "/>
<path clip-path="url(#clip470)" d="M2192.17 337.632 L2192.17 350.294 L2199.67 350.294 Q2203.44 350.294 2205.25 348.743 Q2207.08 347.169 2207.08 343.951 Q2207.08 340.71 2205.25 339.183 Q2203.44 337.632 2199.67 337.632 L2192.17 337.632 M2192.17 323.419 L2192.17 333.835 L2199.09 333.835 Q2202.52 333.835 2204.18 332.562 Q2205.87 331.266 2205.87 328.627 Q2205.87 326.011 2204.18 324.715 Q2202.52 323.419 2199.09 323.419 L2192.17 323.419 M2187.49 319.576 L2199.44 319.576 Q2204.79 319.576 2207.68 321.798 Q2210.57 324.021 2210.57 328.118 Q2210.57 331.289 2209.09 333.164 Q2207.61 335.039 2204.74 335.502 Q2208.19 336.243 2210.09 338.604 Q2212.01 340.942 2212.01 344.46 Q2212.01 349.09 2208.86 351.613 Q2205.71 354.136 2199.9 354.136 L2187.49 354.136 L2187.49 319.576 Z" fill="#000000" fill-rule="nonzero" fill-opacity="1" /><path clip-path="url(#clip470)" d="M2231.61 341.104 Q2226.45 341.104 2224.46 342.284 Q2222.47 343.465 2222.47 346.312 Q2222.47 348.581 2223.95 349.923 Q2225.46 351.243 2228.03 351.243 Q2231.57 351.243 2233.7 348.743 Q2235.85 346.22 2235.85 342.053 L2235.85 341.104 L2231.61 341.104 M2240.11 339.345 L2240.11 354.136 L2235.85 354.136 L2235.85 350.201 Q2234.39 352.562 2232.22 353.696 Q2230.04 354.808 2226.89 354.808 Q2222.91 354.808 2220.55 352.585 Q2218.21 350.34 2218.21 346.59 Q2218.21 342.215 2221.13 339.993 Q2224.07 337.771 2229.88 337.771 L2235.85 337.771 L2235.85 337.354 Q2235.85 334.414 2233.91 332.817 Q2231.98 331.197 2228.49 331.197 Q2226.27 331.197 2224.16 331.729 Q2222.05 332.261 2220.11 333.326 L2220.11 329.391 Q2222.45 328.488 2224.65 328.048 Q2226.85 327.586 2228.93 327.586 Q2234.55 327.586 2237.33 330.502 Q2240.11 333.419 2240.11 339.345 Z" fill="#000000" fill-rule="nonzero" fill-opacity="1" /><path clip-path="url(#clip470)" d="M2263.91 332.192 Q2263.19 331.775 2262.33 331.59 Q2261.5 331.382 2260.48 331.382 Q2256.87 331.382 2254.92 333.743 Q2253 336.081 2253 340.479 L2253 354.136 L2248.72 354.136 L2248.72 328.211 L2253 328.211 L2253 332.238 Q2254.34 329.877 2256.5 328.743 Q2258.65 327.586 2261.73 327.586 Q2262.17 327.586 2262.7 327.655 Q2263.23 327.701 2263.88 327.817 L2263.91 332.192 Z" fill="#000000" fill-rule="nonzero" fill-opacity="1" /><path clip-path="url(#clip470)" d="M2289.09 338.488 L2289.09 354.136 L2284.83 354.136 L2284.83 338.627 Q2284.83 334.947 2283.4 333.118 Q2281.96 331.289 2279.09 331.289 Q2275.64 331.289 2273.65 333.488 Q2271.66 335.687 2271.66 339.484 L2271.66 354.136 L2267.38 354.136 L2267.38 328.211 L2271.66 328.211 L2271.66 332.238 Q2273.19 329.9 2275.25 328.743 Q2277.33 327.586 2280.04 327.586 Q2284.51 327.586 2286.8 330.363 Q2289.09 333.118 2289.09 338.488 Z" fill="#000000" fill-rule="nonzero" fill-opacity="1" /><path clip-path="url(#clip470)" d="M2309.37 341.104 Q2304.21 341.104 2302.22 342.284 Q2300.22 343.465 2300.22 346.312 Q2300.22 348.581 2301.71 349.923 Q2303.21 351.243 2305.78 351.243 Q2309.32 351.243 2311.45 348.743 Q2313.6 346.22 2313.6 342.053 L2313.6 341.104 L2309.37 341.104 M2317.86 339.345 L2317.86 354.136 L2313.6 354.136 L2313.6 350.201 Q2312.15 352.562 2309.97 353.696 Q2307.79 354.808 2304.65 354.808 Q2300.66 354.808 2298.3 352.585 Q2295.97 350.34 2295.97 346.59 Q2295.97 342.215 2298.88 339.993 Q2301.82 337.771 2307.63 337.771 L2313.6 337.771 L2313.6 337.354 Q2313.6 334.414 2311.66 332.817 Q2309.74 331.197 2306.24 331.197 Q2304.02 331.197 2301.91 331.729 Q2299.81 332.261 2297.86 333.326 L2297.86 329.391 Q2300.2 328.488 2302.4 328.048 Q2304.6 327.586 2306.68 327.586 Q2312.31 327.586 2315.09 330.502 Q2317.86 333.419 2317.86 339.345 Z" fill="#000000" fill-rule="nonzero" fill-opacity="1" /><path clip-path="url(#clip470)" d="M2341.66 332.192 Q2340.94 331.775 2340.09 331.59 Q2339.25 331.382 2338.23 331.382 Q2334.62 331.382 2332.68 333.743 Q2330.76 336.081 2330.76 340.479 L2330.76 354.136 L2326.47 354.136 L2326.47 328.211 L2330.76 328.211 L2330.76 332.238 Q2332.1 329.877 2334.25 328.743 Q2336.4 327.586 2339.48 327.586 Q2339.92 327.586 2340.46 327.655 Q2340.99 327.701 2341.64 327.817 L2341.66 332.192 Z" fill="#000000" fill-rule="nonzero" fill-opacity="1" /><path clip-path="url(#clip470)" d="M2362.35 332.146 L2362.35 318.118 L2366.61 318.118 L2366.61 354.136 L2362.35 354.136 L2362.35 350.247 Q2361.01 352.562 2358.95 353.696 Q2356.91 354.808 2354.04 354.808 Q2349.34 354.808 2346.38 351.058 Q2343.44 347.308 2343.44 341.197 Q2343.44 335.085 2346.38 331.335 Q2349.34 327.586 2354.04 327.586 Q2356.91 327.586 2358.95 328.72 Q2361.01 329.831 2362.35 332.146 M2347.84 341.197 Q2347.84 345.896 2349.76 348.581 Q2351.71 351.243 2355.09 351.243 Q2358.46 351.243 2360.41 348.581 Q2362.35 345.896 2362.35 341.197 Q2362.35 336.497 2360.41 333.835 Q2358.46 331.15 2355.09 331.15 Q2351.71 331.15 2349.76 333.835 Q2347.84 336.497 2347.84 341.197 Z" fill="#000000" fill-rule="nonzero" fill-opacity="1" /><polyline clip-path="url(#clip470)" style="stroke:#000000; stroke-linecap:round; stroke-linejoin:round; stroke-width:4; stroke-opacity:1; fill:none" stroke-dasharray="2, 4" points="2000.66,388.696 2160.8,388.696 "/>
<path clip-path="url(#clip470)" d="M2188.03 371.416 L2215.18 371.416 L2215.18 374.981 L2193.33 402.041 L2215.71 402.041 L2215.71 405.976 L2187.49 405.976 L2187.49 402.411 L2209.35 375.351 L2188.03 375.351 L2188.03 371.416 Z" fill="#000000" fill-rule="nonzero" fill-opacity="1" /><path clip-path="url(#clip470)" d="M2244.48 391.949 L2244.48 394.032 L2224.9 394.032 Q2225.18 398.43 2227.54 400.745 Q2229.92 403.036 2234.16 403.036 Q2236.61 403.036 2238.91 402.435 Q2241.22 401.833 2243.49 400.629 L2243.49 404.657 Q2241.2 405.629 2238.79 406.138 Q2236.38 406.648 2233.91 406.648 Q2227.7 406.648 2224.07 403.036 Q2220.46 399.425 2220.46 393.268 Q2220.46 386.902 2223.88 383.175 Q2227.33 379.426 2233.16 379.426 Q2238.4 379.426 2241.43 382.805 Q2244.48 386.162 2244.48 391.949 M2240.22 390.699 Q2240.18 387.203 2238.26 385.12 Q2236.36 383.037 2233.21 383.037 Q2229.65 383.037 2227.49 385.05 Q2225.36 387.064 2225.04 390.722 L2240.22 390.699 Z" fill="#000000" fill-rule="nonzero" fill-opacity="1" /><path clip-path="url(#clip470)" d="M2266.5 384.032 Q2265.78 383.615 2264.92 383.43 Q2264.09 383.222 2263.07 383.222 Q2259.46 383.222 2257.52 385.583 Q2255.59 387.921 2255.59 392.319 L2255.59 405.976 L2251.31 405.976 L2251.31 380.051 L2255.59 380.051 L2255.59 384.078 Q2256.94 381.717 2259.09 380.583 Q2261.24 379.426 2264.32 379.426 Q2264.76 379.426 2265.29 379.495 Q2265.83 379.541 2266.47 379.657 L2266.5 384.032 Z" fill="#000000" fill-rule="nonzero" fill-opacity="1" /><path clip-path="url(#clip470)" d="M2279.97 383.037 Q2276.54 383.037 2274.55 385.722 Q2272.56 388.384 2272.56 393.037 Q2272.56 397.689 2274.53 400.374 Q2276.52 403.036 2279.97 403.036 Q2283.37 403.036 2285.36 400.351 Q2287.35 397.666 2287.35 393.037 Q2287.35 388.43 2285.36 385.745 Q2283.37 383.037 2279.97 383.037 M2279.97 379.426 Q2285.53 379.426 2288.7 383.037 Q2291.87 386.648 2291.87 393.037 Q2291.87 399.402 2288.7 403.036 Q2285.53 406.648 2279.97 406.648 Q2274.39 406.648 2271.22 403.036 Q2268.07 399.402 2268.07 393.037 Q2268.07 386.648 2271.22 383.037 Q2274.39 379.426 2279.97 379.426 Z" fill="#000000" fill-rule="nonzero" fill-opacity="1" /><path clip-path="url(#clip470)" d="M2332.61 393.037 Q2332.61 388.337 2330.66 385.675 Q2328.74 382.99 2325.36 382.99 Q2321.98 382.99 2320.04 385.675 Q2318.12 388.337 2318.12 393.037 Q2318.12 397.736 2320.04 400.421 Q2321.98 403.083 2325.36 403.083 Q2328.74 403.083 2330.66 400.421 Q2332.61 397.736 2332.61 393.037 M2318.12 383.986 Q2319.46 381.671 2321.5 380.56 Q2323.56 379.426 2326.4 379.426 Q2331.13 379.426 2334.07 383.175 Q2337.03 386.925 2337.03 393.037 Q2337.03 399.148 2334.07 402.898 Q2331.13 406.648 2326.4 406.648 Q2323.56 406.648 2321.5 405.536 Q2319.46 404.402 2318.12 402.087 L2318.12 405.976 L2313.84 405.976 L2313.84 369.958 L2318.12 369.958 L2318.12 383.986 Z" fill="#000000" fill-rule="nonzero" fill-opacity="1" /><path clip-path="url(#clip470)" d="M2354.14 383.037 Q2350.71 383.037 2348.72 385.722 Q2346.73 388.384 2346.73 393.037 Q2346.73 397.689 2348.7 400.374 Q2350.69 403.036 2354.14 403.036 Q2357.54 403.036 2359.53 400.351 Q2361.52 397.666 2361.52 393.037 Q2361.52 388.43 2359.53 385.745 Q2357.54 383.037 2354.14 383.037 M2354.14 379.426 Q2359.69 379.426 2362.86 383.037 Q2366.03 386.648 2366.03 393.037 Q2366.03 399.402 2362.86 403.036 Q2359.69 406.648 2354.14 406.648 Q2348.56 406.648 2345.39 403.036 Q2342.24 399.402 2342.24 393.037 Q2342.24 386.648 2345.39 383.037 Q2348.56 379.426 2354.14 379.426 Z" fill="#000000" fill-rule="nonzero" fill-opacity="1" /><path clip-path="url(#clip470)" d="M2372.65 395.745 L2372.65 380.051 L2376.91 380.051 L2376.91 395.583 Q2376.91 399.263 2378.35 401.115 Q2379.78 402.944 2382.65 402.944 Q2386.1 402.944 2388.09 400.745 Q2390.11 398.546 2390.11 394.749 L2390.11 380.051 L2394.37 380.051 L2394.37 405.976 L2390.11 405.976 L2390.11 401.995 Q2388.56 404.356 2386.5 405.513 Q2384.46 406.648 2381.75 406.648 Q2377.28 406.648 2374.97 403.87 Q2372.65 401.092 2372.65 395.745 M2383.37 379.426 L2383.37 379.426 Z" fill="#000000" fill-rule="nonzero" fill-opacity="1" /><path clip-path="url(#clip470)" d="M2424.69 390.328 L2424.69 405.976 L2420.43 405.976 L2420.43 390.467 Q2420.43 386.787 2419 384.958 Q2417.56 383.129 2414.69 383.129 Q2411.24 383.129 2409.25 385.328 Q2407.26 387.527 2407.26 391.324 L2407.26 405.976 L2402.98 405.976 L2402.98 380.051 L2407.26 380.051 L2407.26 384.078 Q2408.79 381.74 2410.85 380.583 Q2412.93 379.426 2415.64 379.426 Q2420.11 379.426 2422.4 382.203 Q2424.69 384.958 2424.69 390.328 Z" fill="#000000" fill-rule="nonzero" fill-opacity="1" /><path clip-path="url(#clip470)" d="M2450.25 383.986 L2450.25 369.958 L2454.51 369.958 L2454.51 405.976 L2450.25 405.976 L2450.25 402.087 Q2448.9 404.402 2446.84 405.536 Q2444.81 406.648 2441.94 406.648 Q2437.24 406.648 2434.27 402.898 Q2431.33 399.148 2431.33 393.037 Q2431.33 386.925 2434.27 383.175 Q2437.24 379.426 2441.94 379.426 Q2444.81 379.426 2446.84 380.56 Q2448.9 381.671 2450.25 383.986 M2435.73 393.037 Q2435.73 397.736 2437.65 400.421 Q2439.6 403.083 2442.98 403.083 Q2446.36 403.083 2448.3 400.421 Q2450.25 397.736 2450.25 393.037 Q2450.25 388.337 2448.3 385.675 Q2446.36 382.99 2442.98 382.99 Q2439.6 382.99 2437.65 385.675 Q2435.73 388.337 2435.73 393.037 Z" fill="#000000" fill-rule="nonzero" fill-opacity="1" /><path clip-path="url(#clip470)" d="M2475.06 392.944 Q2469.9 392.944 2467.91 394.124 Q2465.92 395.305 2465.92 398.152 Q2465.92 400.421 2467.4 401.763 Q2468.9 403.083 2471.47 403.083 Q2475.02 403.083 2477.14 400.583 Q2479.3 398.06 2479.3 393.893 L2479.3 392.944 L2475.06 392.944 M2483.56 391.185 L2483.56 405.976 L2479.3 405.976 L2479.3 402.041 Q2477.84 404.402 2475.66 405.536 Q2473.49 406.648 2470.34 406.648 Q2466.36 406.648 2464 404.425 Q2461.66 402.18 2461.66 398.43 Q2461.66 394.055 2464.58 391.833 Q2467.52 389.611 2473.33 389.611 L2479.3 389.611 L2479.3 389.194 Q2479.3 386.254 2477.35 384.657 Q2475.43 383.037 2471.94 383.037 Q2469.71 383.037 2467.61 383.569 Q2465.5 384.101 2463.56 385.166 L2463.56 381.231 Q2465.89 380.328 2468.09 379.888 Q2470.29 379.426 2472.38 379.426 Q2478 379.426 2480.78 382.342 Q2483.56 385.259 2483.56 391.185 Z" fill="#000000" fill-rule="nonzero" fill-opacity="1" /><path clip-path="url(#clip470)" d="M2507.35 384.032 Q2506.64 383.615 2505.78 383.43 Q2504.95 383.222 2503.93 383.222 Q2500.32 383.222 2498.37 385.583 Q2496.45 387.921 2496.45 392.319 L2496.45 405.976 L2492.17 405.976 L2492.17 380.051 L2496.45 380.051 L2496.45 384.078 Q2497.79 381.717 2499.95 380.583 Q2502.1 379.426 2505.18 379.426 Q2505.62 379.426 2506.15 379.495 Q2506.68 379.541 2507.33 379.657 L2507.35 384.032 Z" fill="#000000" fill-rule="nonzero" fill-opacity="1" /><path clip-path="url(#clip470)" d="M2522.61 408.384 Q2520.8 413.013 2519.09 414.425 Q2517.38 415.837 2514.51 415.837 L2511.1 415.837 L2511.1 412.273 L2513.6 412.273 Q2515.36 412.273 2516.33 411.439 Q2517.31 410.606 2518.49 407.504 L2519.25 405.56 L2508.76 380.051 L2513.28 380.051 L2521.38 400.328 L2529.48 380.051 L2534 380.051 L2522.61 408.384 Z" fill="#000000" fill-rule="nonzero" fill-opacity="1" /></svg>
