<?xml version="1.0" encoding="utf-8"?>
<svg xmlns="http://www.w3.org/2000/svg" xmlns:xlink="http://www.w3.org/1999/xlink" width="528" height="336" viewBox="0 0 2112 1344">
<defs>
  <clipPath id="clip840">
    <rect x="0" y="0" width="2112" height="1344"/>
  </clipPath>
</defs>
<path clip-path="url(#clip840)" d="M0 1344 L2112 1344 L2112 2.13163e-14 L0 2.13163e-14  Z" fill="#ffffff" fill-rule="evenodd" fill-opacity="1"/>
<defs>
  <clipPath id="clip841">
    <rect x="214" y="120" width="1851" height="1054"/>
  </clipPath>
</defs>
<path clip-path="url(#clip840)" d="M214.826 1173.47 L2064.76 1173.47 L2064.76 120.723 L214.826 120.723  Z" fill="#ffffff" fill-rule="evenodd" fill-opacity="1"/>
<polyline clip-path="url(#clip841)" style="stroke:#000000; stroke-linecap:round; stroke-linejoin:round; stroke-width:2; stroke-opacity:0.1; fill:none" points="267.183,1173.47 267.183,120.723 "/>
<polyline clip-path="url(#clip841)" style="stroke:#000000; stroke-linecap:round; stroke-linejoin:round; stroke-width:2; stroke-opacity:0.1; fill:none" points="703.487,1173.47 703.487,120.723 "/>
<polyline clip-path="url(#clip841)" style="stroke:#000000; stroke-linecap:round; stroke-linejoin:round; stroke-width:2; stroke-opacity:0.1; fill:none" points="1139.79,1173.47 1139.79,120.723 "/>
<polyline clip-path="url(#clip841)" style="stroke:#000000; stroke-linecap:round; stroke-linejoin:round; stroke-width:2; stroke-opacity:0.1; fill:none" points="1576.1,1173.47 1576.1,120.723 "/>
<polyline clip-path="url(#clip841)" style="stroke:#000000; stroke-linecap:round; stroke-linejoin:round; stroke-width:2; stroke-opacity:0.1; fill:none" points="2012.4,1173.47 2012.4,120.723 "/>
<polyline clip-path="url(#clip841)" style="stroke:#000000; stroke-linecap:round; stroke-linejoin:round; stroke-width:2; stroke-opacity:0.1; fill:none" points="214.826,1143.83 2064.76,1143.83 "/>
<polyline clip-path="url(#clip841)" style="stroke:#000000; stroke-linecap:round; stroke-linejoin:round; stroke-width:2; stroke-opacity:0.1; fill:none" points="214.826,988.72 2064.76,988.72 "/>
<polyline clip-path="url(#clip841)" style="stroke:#000000; stroke-linecap:round; stroke-linejoin:round; stroke-width:2; stroke-opacity:0.1; fill:none" points="214.826,833.612 2064.76,833.612 "/>
<polyline clip-path="url(#clip841)" style="stroke:#000000; stroke-linecap:round; stroke-linejoin:round; stroke-width:2; stroke-opacity:0.1; fill:none" points="214.826,678.503 2064.76,678.503 "/>
<polyline clip-path="url(#clip841)" style="stroke:#000000; stroke-linecap:round; stroke-linejoin:round; stroke-width:2; stroke-opacity:0.1; fill:none" points="214.826,523.395 2064.76,523.395 "/>
<polyline clip-path="url(#clip841)" style="stroke:#000000; stroke-linecap:round; stroke-linejoin:round; stroke-width:2; stroke-opacity:0.1; fill:none" points="214.826,368.287 2064.76,368.287 "/>
<polyline clip-path="url(#clip841)" style="stroke:#000000; stroke-linecap:round; stroke-linejoin:round; stroke-width:2; stroke-opacity:0.1; fill:none" points="214.826,213.178 2064.76,213.178 "/>
<polyline clip-path="url(#clip840)" style="stroke:#000000; stroke-linecap:round; stroke-linejoin:round; stroke-width:4; stroke-opacity:1; fill:none" points="214.826,1173.47 2064.76,1173.47 "/>
<polyline clip-path="url(#clip840)" style="stroke:#000000; stroke-linecap:round; stroke-linejoin:round; stroke-width:4; stroke-opacity:1; fill:none" points="267.183,1173.47 267.183,1154.57 "/>
<polyline clip-path="url(#clip840)" style="stroke:#000000; stroke-linecap:round; stroke-linejoin:round; stroke-width:4; stroke-opacity:1; fill:none" points="703.487,1173.47 703.487,1154.57 "/>
<polyline clip-path="url(#clip840)" style="stroke:#000000; stroke-linecap:round; stroke-linejoin:round; stroke-width:4; stroke-opacity:1; fill:none" points="1139.79,1173.47 1139.79,1154.57 "/>
<polyline clip-path="url(#clip840)" style="stroke:#000000; stroke-linecap:round; stroke-linejoin:round; stroke-width:4; stroke-opacity:1; fill:none" points="1576.1,1173.47 1576.1,1154.57 "/>
<polyline clip-path="url(#clip840)" style="stroke:#000000; stroke-linecap:round; stroke-linejoin:round; stroke-width:4; stroke-opacity:1; fill:none" points="2012.4,1173.47 2012.4,1154.57 "/>
<path clip-path="url(#clip840)" d="M267.183 1202.09 Q263.572 1202.09 261.743 1205.65 Q259.937 1209.19 259.937 1216.32 Q259.937 1223.43 261.743 1226.99 Q263.572 1230.53 267.183 1230.53 Q270.817 1230.53 272.623 1226.99 Q274.451 1223.43 274.451 1216.32 Q274.451 1209.19 272.623 1205.65 Q270.817 1202.09 267.183 1202.09 M267.183 1198.38 Q272.993 1198.38 276.048 1202.99 Q279.127 1207.57 279.127 1216.32 Q279.127 1225.05 276.048 1229.65 Q272.993 1234.24 267.183 1234.24 Q261.373 1234.24 258.294 1229.65 Q255.238 1225.05 255.238 1216.32 Q255.238 1207.57 258.294 1202.99 Q261.373 1198.38 267.183 1198.38 Z" fill="#000000" fill-rule="nonzero" fill-opacity="1" /><path clip-path="url(#clip840)" d="M682.758 1229.63 L699.077 1229.63 L699.077 1233.57 L677.133 1233.57 L677.133 1229.63 Q679.795 1226.88 684.378 1222.25 Q688.985 1217.59 690.165 1216.25 Q692.411 1213.73 693.29 1211.99 Q694.193 1210.23 694.193 1208.54 Q694.193 1205.79 692.249 1204.05 Q690.327 1202.32 687.225 1202.32 Q685.026 1202.32 682.573 1203.08 Q680.142 1203.84 677.364 1205.4 L677.364 1200.67 Q680.188 1199.54 682.642 1198.96 Q685.096 1198.38 687.133 1198.38 Q692.503 1198.38 695.698 1201.07 Q698.892 1203.75 698.892 1208.24 Q698.892 1210.37 698.082 1212.29 Q697.295 1214.19 695.188 1216.78 Q694.61 1217.46 691.508 1220.67 Q688.406 1223.87 682.758 1229.63 Z" fill="#000000" fill-rule="nonzero" fill-opacity="1" /><path clip-path="url(#clip840)" d="M708.938 1199.01 L727.295 1199.01 L727.295 1202.94 L713.221 1202.94 L713.221 1211.41 Q714.239 1211.07 715.258 1210.9 Q716.276 1210.72 717.295 1210.72 Q723.082 1210.72 726.461 1213.89 Q729.841 1217.06 729.841 1222.48 Q729.841 1228.06 726.369 1231.16 Q722.897 1234.24 716.577 1234.24 Q714.401 1234.24 712.133 1233.87 Q709.887 1233.5 707.48 1232.76 L707.48 1228.06 Q709.563 1229.19 711.785 1229.75 Q714.008 1230.3 716.485 1230.3 Q720.489 1230.3 722.827 1228.2 Q725.165 1226.09 725.165 1222.48 Q725.165 1218.87 722.827 1216.76 Q720.489 1214.65 716.485 1214.65 Q714.61 1214.65 712.735 1215.07 Q710.883 1215.49 708.938 1216.37 L708.938 1199.01 Z" fill="#000000" fill-rule="nonzero" fill-opacity="1" /><path clip-path="url(#clip840)" d="M1114.49 1199.01 L1132.85 1199.01 L1132.85 1202.94 L1118.77 1202.94 L1118.77 1211.41 Q1119.79 1211.07 1120.81 1210.9 Q1121.83 1210.72 1122.85 1210.72 Q1128.63 1210.72 1132.01 1213.89 Q1135.39 1217.06 1135.39 1222.48 Q1135.39 1228.06 1131.92 1231.16 Q1128.45 1234.24 1122.13 1234.24 Q1119.95 1234.24 1117.68 1233.87 Q1115.44 1233.5 1113.03 1232.76 L1113.03 1228.06 Q1115.12 1229.19 1117.34 1229.75 Q1119.56 1230.3 1122.04 1230.3 Q1126.04 1230.3 1128.38 1228.2 Q1130.72 1226.09 1130.72 1222.48 Q1130.72 1218.87 1128.38 1216.76 Q1126.04 1214.65 1122.04 1214.65 Q1120.16 1214.65 1118.29 1215.07 Q1116.43 1215.49 1114.49 1216.37 L1114.49 1199.01 Z" fill="#000000" fill-rule="nonzero" fill-opacity="1" /><path clip-path="url(#clip840)" d="M1154.61 1202.09 Q1150.99 1202.09 1149.17 1205.65 Q1147.36 1209.19 1147.36 1216.32 Q1147.36 1223.43 1149.17 1226.99 Q1150.99 1230.53 1154.61 1230.53 Q1158.24 1230.53 1160.05 1226.99 Q1161.87 1223.43 1161.87 1216.32 Q1161.87 1209.19 1160.05 1205.65 Q1158.24 1202.09 1154.61 1202.09 M1154.61 1198.38 Q1160.42 1198.38 1163.47 1202.99 Q1166.55 1207.57 1166.55 1216.32 Q1166.55 1225.05 1163.47 1229.65 Q1160.42 1234.24 1154.61 1234.24 Q1148.8 1234.24 1145.72 1229.65 Q1142.66 1225.05 1142.66 1216.32 Q1142.66 1207.57 1145.72 1202.99 Q1148.8 1198.38 1154.61 1198.38 Z" fill="#000000" fill-rule="nonzero" fill-opacity="1" /><path clip-path="url(#clip840)" d="M1549.95 1199.01 L1572.17 1199.01 L1572.17 1201 L1559.63 1233.57 L1554.74 1233.57 L1566.55 1202.94 L1549.95 1202.94 L1549.95 1199.01 Z" fill="#000000" fill-rule="nonzero" fill-opacity="1" /><path clip-path="url(#clip840)" d="M1581.34 1199.01 L1599.69 1199.01 L1599.69 1202.94 L1585.62 1202.94 L1585.62 1211.41 Q1586.64 1211.07 1587.66 1210.9 Q1588.68 1210.72 1589.69 1210.72 Q1595.48 1210.72 1598.86 1213.89 Q1602.24 1217.06 1602.24 1222.48 Q1602.24 1228.06 1598.77 1231.16 Q1595.3 1234.24 1588.98 1234.24 Q1586.8 1234.24 1584.53 1233.87 Q1582.29 1233.5 1579.88 1232.76 L1579.88 1228.06 Q1581.96 1229.19 1584.19 1229.75 Q1586.41 1230.3 1588.88 1230.3 Q1592.89 1230.3 1595.23 1228.2 Q1597.57 1226.09 1597.57 1222.48 Q1597.57 1218.87 1595.23 1216.76 Q1592.89 1214.65 1588.88 1214.65 Q1587.01 1214.65 1585.13 1215.07 Q1583.28 1215.49 1581.34 1216.37 L1581.34 1199.01 Z" fill="#000000" fill-rule="nonzero" fill-opacity="1" /><path clip-path="url(#clip840)" d="M1972.01 1229.63 L1979.64 1229.63 L1979.64 1203.27 L1971.33 1204.93 L1971.33 1200.67 L1979.6 1199.01 L1984.27 1199.01 L1984.27 1229.63 L1991.91 1229.63 L1991.91 1233.57 L1972.01 1233.57 L1972.01 1229.63 Z" fill="#000000" fill-rule="nonzero" fill-opacity="1" /><path clip-path="url(#clip840)" d="M2011.36 1202.09 Q2007.75 1202.09 2005.92 1205.65 Q2004.11 1209.19 2004.11 1216.32 Q2004.11 1223.43 2005.92 1226.99 Q2007.75 1230.53 2011.36 1230.53 Q2014.99 1230.53 2016.8 1226.99 Q2018.63 1223.43 2018.63 1216.32 Q2018.63 1209.19 2016.8 1205.65 Q2014.99 1202.09 2011.36 1202.09 M2011.36 1198.38 Q2017.17 1198.38 2020.22 1202.99 Q2023.3 1207.57 2023.3 1216.32 Q2023.3 1225.05 2020.22 1229.65 Q2017.17 1234.24 2011.36 1234.24 Q2005.55 1234.24 2002.47 1229.65 Q1999.41 1225.05 1999.41 1216.32 Q1999.41 1207.57 2002.47 1202.99 Q2005.55 1198.38 2011.36 1198.38 Z" fill="#000000" fill-rule="nonzero" fill-opacity="1" /><path clip-path="url(#clip840)" d="M2041.52 1202.09 Q2037.91 1202.09 2036.08 1205.65 Q2034.27 1209.19 2034.27 1216.32 Q2034.27 1223.43 2036.08 1226.99 Q2037.91 1230.53 2041.52 1230.53 Q2045.15 1230.53 2046.96 1226.99 Q2048.79 1223.43 2048.79 1216.32 Q2048.79 1209.19 2046.96 1205.65 Q2045.15 1202.09 2041.52 1202.09 M2041.52 1198.38 Q2047.33 1198.38 2050.39 1202.99 Q2053.46 1207.57 2053.46 1216.32 Q2053.46 1225.05 2050.39 1229.65 Q2047.33 1234.24 2041.52 1234.24 Q2035.71 1234.24 2032.63 1229.65 Q2029.58 1225.05 2029.58 1216.32 Q2029.58 1207.57 2032.63 1202.99 Q2035.71 1198.38 2041.52 1198.38 Z" fill="#000000" fill-rule="nonzero" fill-opacity="1" /><path clip-path="url(#clip840)" d="M1061.67 1266.49 L1101.87 1266.49 L1101.87 1271.91 L1085 1271.91 L1085 1314.01 L1078.54 1314.01 L1078.54 1271.91 L1061.67 1271.91 L1061.67 1266.49 Z" fill="#000000" fill-rule="nonzero" fill-opacity="1" /><path clip-path="url(#clip840)" d="M1105.81 1278.37 L1111.67 1278.37 L1111.67 1314.01 L1105.81 1314.01 L1105.81 1278.37 M1105.81 1264.49 L1111.67 1264.49 L1111.67 1271.91 L1105.81 1271.91 L1105.81 1264.49 Z" fill="#000000" fill-rule="nonzero" fill-opacity="1" /><path clip-path="url(#clip840)" d="M1151.68 1285.21 Q1153.88 1281.26 1156.93 1279.39 Q1159.99 1277.51 1164.12 1277.51 Q1169.69 1277.51 1172.72 1281.42 Q1175.74 1285.31 1175.74 1292.5 L1175.74 1314.01 L1169.85 1314.01 L1169.85 1292.69 Q1169.85 1287.57 1168.04 1285.08 Q1166.22 1282.6 1162.5 1282.6 Q1157.95 1282.6 1155.31 1285.62 Q1152.67 1288.65 1152.67 1293.87 L1152.67 1314.01 L1146.78 1314.01 L1146.78 1292.69 Q1146.78 1287.53 1144.96 1285.08 Q1143.15 1282.6 1139.36 1282.6 Q1134.87 1282.6 1132.23 1285.66 Q1129.59 1288.68 1129.59 1293.87 L1129.59 1314.01 L1123.7 1314.01 L1123.7 1278.37 L1129.59 1278.37 L1129.59 1283.9 Q1131.6 1280.63 1134.4 1279.07 Q1137.2 1277.51 1141.05 1277.51 Q1144.93 1277.51 1147.64 1279.48 Q1150.37 1281.45 1151.68 1285.21 Z" fill="#000000" fill-rule="nonzero" fill-opacity="1" /><path clip-path="url(#clip840)" d="M1217.91 1294.73 L1217.91 1297.59 L1190.99 1297.59 Q1191.37 1303.64 1194.62 1306.82 Q1197.89 1309.97 1203.72 1309.97 Q1207.09 1309.97 1210.24 1309.14 Q1213.43 1308.32 1216.55 1306.66 L1216.55 1312.2 Q1213.39 1313.54 1210.08 1314.24 Q1206.77 1314.94 1203.37 1314.94 Q1194.84 1314.94 1189.84 1309.97 Q1184.88 1305.01 1184.88 1296.54 Q1184.88 1287.79 1189.59 1282.66 Q1194.33 1277.51 1202.35 1277.51 Q1209.54 1277.51 1213.71 1282.15 Q1217.91 1286.77 1217.91 1294.73 M1212.06 1293.01 Q1211.99 1288.2 1209.35 1285.34 Q1206.74 1282.47 1202.41 1282.47 Q1197.51 1282.47 1194.55 1285.24 Q1191.62 1288.01 1191.18 1293.04 L1212.06 1293.01 Z" fill="#000000" fill-rule="nonzero" fill-opacity="1" /><polyline clip-path="url(#clip840)" style="stroke:#000000; stroke-linecap:round; stroke-linejoin:round; stroke-width:4; stroke-opacity:1; fill:none" points="214.826,1173.47 214.826,120.723 "/>
<polyline clip-path="url(#clip840)" style="stroke:#000000; stroke-linecap:round; stroke-linejoin:round; stroke-width:4; stroke-opacity:1; fill:none" points="214.826,1143.83 233.724,1143.83 "/>
<polyline clip-path="url(#clip840)" style="stroke:#000000; stroke-linecap:round; stroke-linejoin:round; stroke-width:4; stroke-opacity:1; fill:none" points="214.826,988.72 233.724,988.72 "/>
<polyline clip-path="url(#clip840)" style="stroke:#000000; stroke-linecap:round; stroke-linejoin:round; stroke-width:4; stroke-opacity:1; fill:none" points="214.826,833.612 233.724,833.612 "/>
<polyline clip-path="url(#clip840)" style="stroke:#000000; stroke-linecap:round; stroke-linejoin:round; stroke-width:4; stroke-opacity:1; fill:none" points="214.826,678.503 233.724,678.503 "/>
<polyline clip-path="url(#clip840)" style="stroke:#000000; stroke-linecap:round; stroke-linejoin:round; stroke-width:4; stroke-opacity:1; fill:none" points="214.826,523.395 233.724,523.395 "/>
<polyline clip-path="url(#clip840)" style="stroke:#000000; stroke-linecap:round; stroke-linejoin:round; stroke-width:4; stroke-opacity:1; fill:none" points="214.826,368.287 233.724,368.287 "/>
<polyline clip-path="url(#clip840)" style="stroke:#000000; stroke-linecap:round; stroke-linejoin:round; stroke-width:4; stroke-opacity:1; fill:none" points="214.826,213.178 233.724,213.178 "/>
<path clip-path="url(#clip840)" d="M125.971 1129.63 Q122.36 1129.63 120.531 1133.19 Q118.725 1136.73 118.725 1143.86 Q118.725 1150.97 120.531 1154.53 Q122.36 1158.08 125.971 1158.08 Q129.605 1158.08 131.41 1154.53 Q133.239 1150.97 133.239 1143.86 Q133.239 1136.73 131.41 1133.19 Q129.605 1129.63 125.971 1129.63 M125.971 1125.92 Q131.781 1125.92 134.836 1130.53 Q137.915 1135.11 137.915 1143.86 Q137.915 1152.59 134.836 1157.2 Q131.781 1161.78 125.971 1161.78 Q120.16 1161.78 117.082 1157.2 Q114.026 1152.59 114.026 1143.86 Q114.026 1135.11 117.082 1130.53 Q120.16 1125.92 125.971 1125.92 Z" fill="#000000" fill-rule="nonzero" fill-opacity="1" /><path clip-path="url(#clip840)" d="M146.133 1155.23 L151.017 1155.23 L151.017 1161.11 L146.133 1161.11 L146.133 1155.23 Z" fill="#000000" fill-rule="nonzero" fill-opacity="1" /><path clip-path="url(#clip840)" d="M171.202 1129.63 Q167.591 1129.63 165.762 1133.19 Q163.957 1136.73 163.957 1143.86 Q163.957 1150.97 165.762 1154.53 Q167.591 1158.08 171.202 1158.08 Q174.836 1158.08 176.642 1154.53 Q178.47 1150.97 178.47 1143.86 Q178.47 1136.73 176.642 1133.19 Q174.836 1129.63 171.202 1129.63 M171.202 1125.92 Q177.012 1125.92 180.068 1130.53 Q183.146 1135.11 183.146 1143.86 Q183.146 1152.59 180.068 1157.2 Q177.012 1161.78 171.202 1161.78 Q165.392 1161.78 162.313 1157.2 Q159.258 1152.59 159.258 1143.86 Q159.258 1135.11 162.313 1130.53 Q165.392 1125.92 171.202 1125.92 Z" fill="#000000" fill-rule="nonzero" fill-opacity="1" /><path clip-path="url(#clip840)" d="M127.197 974.519 Q123.586 974.519 121.758 978.084 Q119.952 981.625 119.952 988.755 Q119.952 995.861 121.758 999.426 Q123.586 1002.97 127.197 1002.97 Q130.832 1002.97 132.637 999.426 Q134.466 995.861 134.466 988.755 Q134.466 981.625 132.637 978.084 Q130.832 974.519 127.197 974.519 M127.197 970.815 Q133.008 970.815 136.063 975.421 Q139.142 980.005 139.142 988.755 Q139.142 997.482 136.063 1002.09 Q133.008 1006.67 127.197 1006.67 Q121.387 1006.67 118.309 1002.09 Q115.253 997.482 115.253 988.755 Q115.253 980.005 118.309 975.421 Q121.387 970.815 127.197 970.815 Z" fill="#000000" fill-rule="nonzero" fill-opacity="1" /><path clip-path="url(#clip840)" d="M147.359 1000.12 L152.244 1000.12 L152.244 1006 L147.359 1006 L147.359 1000.12 Z" fill="#000000" fill-rule="nonzero" fill-opacity="1" /><path clip-path="url(#clip840)" d="M163.239 1002.06 L170.878 1002.06 L170.878 975.699 L162.568 977.366 L162.568 973.107 L170.832 971.44 L175.507 971.44 L175.507 1002.06 L183.146 1002.06 L183.146 1006 L163.239 1006 L163.239 1002.06 Z" fill="#000000" fill-rule="nonzero" fill-opacity="1" /><path clip-path="url(#clip840)" d="M127.568 819.41 Q123.957 819.41 122.128 822.975 Q120.323 826.517 120.323 833.646 Q120.323 840.753 122.128 844.318 Q123.957 847.859 127.568 847.859 Q131.202 847.859 133.008 844.318 Q134.836 840.753 134.836 833.646 Q134.836 826.517 133.008 822.975 Q131.202 819.41 127.568 819.41 M127.568 815.707 Q133.378 815.707 136.434 820.313 Q139.512 824.896 139.512 833.646 Q139.512 842.373 136.434 846.98 Q133.378 851.563 127.568 851.563 Q121.758 851.563 118.679 846.98 Q115.623 842.373 115.623 833.646 Q115.623 824.896 118.679 820.313 Q121.758 815.707 127.568 815.707 Z" fill="#000000" fill-rule="nonzero" fill-opacity="1" /><path clip-path="url(#clip840)" d="M147.73 845.012 L152.614 845.012 L152.614 850.892 L147.73 850.892 L147.73 845.012 Z" fill="#000000" fill-rule="nonzero" fill-opacity="1" /><path clip-path="url(#clip840)" d="M166.827 846.957 L183.146 846.957 L183.146 850.892 L161.202 850.892 L161.202 846.957 Q163.864 844.202 168.447 839.572 Q173.054 834.92 174.234 833.577 Q176.48 831.054 177.359 829.318 Q178.262 827.558 178.262 825.869 Q178.262 823.114 176.318 821.378 Q174.396 819.642 171.294 819.642 Q169.095 819.642 166.642 820.406 Q164.211 821.17 161.433 822.721 L161.433 817.998 Q164.257 816.864 166.711 816.285 Q169.165 815.707 171.202 815.707 Q176.572 815.707 179.767 818.392 Q182.961 821.077 182.961 825.568 Q182.961 827.697 182.151 829.619 Q181.364 831.517 179.257 834.109 Q178.679 834.781 175.577 837.998 Q172.475 841.193 166.827 846.957 Z" fill="#000000" fill-rule="nonzero" fill-opacity="1" /><path clip-path="url(#clip840)" d="M126.619 664.302 Q123.008 664.302 121.179 667.867 Q119.373 671.408 119.373 678.538 Q119.373 685.645 121.179 689.209 Q123.008 692.751 126.619 692.751 Q130.253 692.751 132.059 689.209 Q133.887 685.645 133.887 678.538 Q133.887 671.408 132.059 667.867 Q130.253 664.302 126.619 664.302 M126.619 660.598 Q132.429 660.598 135.484 665.205 Q138.563 669.788 138.563 678.538 Q138.563 687.265 135.484 691.871 Q132.429 696.455 126.619 696.455 Q120.809 696.455 117.73 691.871 Q114.674 687.265 114.674 678.538 Q114.674 669.788 117.73 665.205 Q120.809 660.598 126.619 660.598 Z" fill="#000000" fill-rule="nonzero" fill-opacity="1" /><path clip-path="url(#clip840)" d="M146.781 689.904 L151.665 689.904 L151.665 695.783 L146.781 695.783 L146.781 689.904 Z" fill="#000000" fill-rule="nonzero" fill-opacity="1" /><path clip-path="url(#clip840)" d="M176.017 677.149 Q179.373 677.867 181.248 680.135 Q183.146 682.404 183.146 685.737 Q183.146 690.853 179.628 693.654 Q176.109 696.455 169.628 696.455 Q167.452 696.455 165.137 696.015 Q162.845 695.598 160.392 694.742 L160.392 690.228 Q162.336 691.362 164.651 691.941 Q166.966 692.519 169.489 692.519 Q173.887 692.519 176.179 690.783 Q178.494 689.047 178.494 685.737 Q178.494 682.682 176.341 680.969 Q174.211 679.233 170.392 679.233 L166.364 679.233 L166.364 675.39 L170.577 675.39 Q174.026 675.39 175.855 674.024 Q177.683 672.635 177.683 670.043 Q177.683 667.381 175.785 665.969 Q173.91 664.534 170.392 664.534 Q168.47 664.534 166.271 664.95 Q164.072 665.367 161.433 666.246 L161.433 662.08 Q164.095 661.339 166.41 660.969 Q168.748 660.598 170.808 660.598 Q176.132 660.598 179.234 663.029 Q182.336 665.436 182.336 669.557 Q182.336 672.427 180.693 674.418 Q179.049 676.385 176.017 677.149 Z" fill="#000000" fill-rule="nonzero" fill-opacity="1" /><path clip-path="url(#clip840)" d="M125.485 509.194 Q121.873 509.194 120.045 512.758 Q118.239 516.3 118.239 523.43 Q118.239 530.536 120.045 534.101 Q121.873 537.643 125.485 537.643 Q129.119 537.643 130.924 534.101 Q132.753 530.536 132.753 523.43 Q132.753 516.3 130.924 512.758 Q129.119 509.194 125.485 509.194 M125.485 505.49 Q131.295 505.49 134.35 510.096 Q137.429 514.68 137.429 523.43 Q137.429 532.157 134.35 536.763 Q131.295 541.346 125.485 541.346 Q119.674 541.346 116.596 536.763 Q113.54 532.157 113.54 523.43 Q113.54 514.68 116.596 510.096 Q119.674 505.49 125.485 505.49 Z" fill="#000000" fill-rule="nonzero" fill-opacity="1" /><path clip-path="url(#clip840)" d="M145.646 534.795 L150.531 534.795 L150.531 540.675 L145.646 540.675 L145.646 534.795 Z" fill="#000000" fill-rule="nonzero" fill-opacity="1" /><path clip-path="url(#clip840)" d="M173.563 510.189 L161.757 528.638 L173.563 528.638 L173.563 510.189 M172.336 506.115 L178.216 506.115 L178.216 528.638 L183.146 528.638 L183.146 532.527 L178.216 532.527 L178.216 540.675 L173.563 540.675 L173.563 532.527 L157.961 532.527 L157.961 528.013 L172.336 506.115 Z" fill="#000000" fill-rule="nonzero" fill-opacity="1" /><path clip-path="url(#clip840)" d="M126.966 354.085 Q123.355 354.085 121.526 357.65 Q119.721 361.192 119.721 368.321 Q119.721 375.428 121.526 378.993 Q123.355 382.534 126.966 382.534 Q130.6 382.534 132.406 378.993 Q134.234 375.428 134.234 368.321 Q134.234 361.192 132.406 357.65 Q130.6 354.085 126.966 354.085 M126.966 350.382 Q132.776 350.382 135.832 354.988 Q138.91 359.571 138.91 368.321 Q138.91 377.048 135.832 381.655 Q132.776 386.238 126.966 386.238 Q121.156 386.238 118.077 381.655 Q115.022 377.048 115.022 368.321 Q115.022 359.571 118.077 354.988 Q121.156 350.382 126.966 350.382 Z" fill="#000000" fill-rule="nonzero" fill-opacity="1" /><path clip-path="url(#clip840)" d="M147.128 379.687 L152.012 379.687 L152.012 385.567 L147.128 385.567 L147.128 379.687 Z" fill="#000000" fill-rule="nonzero" fill-opacity="1" /><path clip-path="url(#clip840)" d="M162.244 351.007 L180.6 351.007 L180.6 354.942 L166.526 354.942 L166.526 363.414 Q167.544 363.067 168.563 362.905 Q169.582 362.72 170.6 362.72 Q176.387 362.72 179.767 365.891 Q183.146 369.062 183.146 374.479 Q183.146 380.057 179.674 383.159 Q176.202 386.238 169.882 386.238 Q167.707 386.238 165.438 385.868 Q163.193 385.497 160.785 384.756 L160.785 380.057 Q162.869 381.192 165.091 381.747 Q167.313 382.303 169.79 382.303 Q173.794 382.303 176.132 380.196 Q178.47 378.09 178.47 374.479 Q178.47 370.868 176.132 368.761 Q173.794 366.655 169.79 366.655 Q167.915 366.655 166.04 367.071 Q164.188 367.488 162.244 368.368 L162.244 351.007 Z" fill="#000000" fill-rule="nonzero" fill-opacity="1" /><path clip-path="url(#clip840)" d="M125.809 198.977 Q122.198 198.977 120.369 202.542 Q118.563 206.083 118.563 213.213 Q118.563 220.319 120.369 223.884 Q122.198 227.426 125.809 227.426 Q129.443 227.426 131.248 223.884 Q133.077 220.319 133.077 213.213 Q133.077 206.083 131.248 202.542 Q129.443 198.977 125.809 198.977 M125.809 195.273 Q131.619 195.273 134.674 199.88 Q137.753 204.463 137.753 213.213 Q137.753 221.94 134.674 226.546 Q131.619 231.13 125.809 231.13 Q119.998 231.13 116.92 226.546 Q113.864 221.94 113.864 213.213 Q113.864 204.463 116.92 199.88 Q119.998 195.273 125.809 195.273 Z" fill="#000000" fill-rule="nonzero" fill-opacity="1" /><path clip-path="url(#clip840)" d="M145.971 224.579 L150.855 224.579 L150.855 230.458 L145.971 230.458 L145.971 224.579 Z" fill="#000000" fill-rule="nonzero" fill-opacity="1" /><path clip-path="url(#clip840)" d="M171.619 211.315 Q168.47 211.315 166.619 213.468 Q164.79 215.62 164.79 219.37 Q164.79 223.097 166.619 225.273 Q168.47 227.426 171.619 227.426 Q174.767 227.426 176.595 225.273 Q178.447 223.097 178.447 219.37 Q178.447 215.62 176.595 213.468 Q174.767 211.315 171.619 211.315 M180.901 196.662 L180.901 200.921 Q179.142 200.088 177.336 199.648 Q175.554 199.208 173.794 199.208 Q169.165 199.208 166.711 202.333 Q164.281 205.458 163.933 211.778 Q165.299 209.764 167.359 208.699 Q169.419 207.611 171.896 207.611 Q177.105 207.611 180.114 210.783 Q183.146 213.931 183.146 219.37 Q183.146 224.694 179.998 227.912 Q176.85 231.13 171.619 231.13 Q165.623 231.13 162.452 226.546 Q159.281 221.94 159.281 213.213 Q159.281 205.019 163.17 200.158 Q167.058 195.273 173.609 195.273 Q175.369 195.273 177.151 195.621 Q178.956 195.968 180.901 196.662 Z" fill="#000000" fill-rule="nonzero" fill-opacity="1" /><path clip-path="url(#clip840)" d="M20.0842 991.1 L20.0842 984.67 L67.6042 984.67 L67.6042 991.1 L20.0842 991.1 Z" fill="#000000" fill-rule="nonzero" fill-opacity="1" /><path clip-path="url(#clip840)" d="M46.0881 942.498 L67.6042 942.498 L67.6042 948.354 L46.279 948.354 Q41.2183 948.354 38.7038 950.327 Q36.1894 952.301 36.1894 956.247 Q36.1894 960.99 39.2131 963.727 Q42.2368 966.464 47.4567 966.464 L67.6042 966.464 L67.6042 972.353 L31.9562 972.353 L31.9562 966.464 L37.4944 966.464 Q34.2797 964.364 32.6883 961.531 Q31.0968 958.666 31.0968 954.942 Q31.0968 948.8 34.9163 945.649 Q38.7038 942.498 46.0881 942.498 Z" fill="#000000" fill-rule="nonzero" fill-opacity="1" /><path clip-path="url(#clip840)" d="M18.079 912.77 L22.9487 912.77 L22.9487 918.371 Q22.9487 921.523 24.2219 922.764 Q25.495 923.973 28.8052 923.973 L31.9562 923.973 L31.9562 914.329 L36.5077 914.329 L36.5077 923.973 L67.6042 923.973 L67.6042 929.862 L36.5077 929.862 L36.5077 935.463 L31.9562 935.463 L31.9562 929.862 L29.4736 929.862 Q23.5216 929.862 20.8162 927.092 Q18.079 924.323 18.079 918.308 L18.079 912.77 Z" fill="#000000" fill-rule="nonzero" fill-opacity="1" /><path clip-path="url(#clip840)" d="M48.3161 877.376 L51.1806 877.376 L51.1806 904.303 Q57.2281 903.921 60.4109 900.675 Q63.5619 897.396 63.5619 891.572 Q63.5619 888.198 62.7344 885.047 Q61.9069 881.864 60.2518 878.745 L65.7899 878.745 Q67.1267 881.896 67.827 885.206 Q68.5272 888.516 68.5272 891.922 Q68.5272 900.452 63.5619 905.449 Q58.5967 910.414 50.1303 910.414 Q41.3774 910.414 36.2531 905.704 Q31.0968 900.961 31.0968 892.94 Q31.0968 885.747 35.7438 881.578 Q40.3589 877.376 48.3161 877.376 M46.5973 883.233 Q41.7912 883.296 38.9266 885.938 Q36.0621 888.548 36.0621 892.877 Q36.0621 897.778 38.8312 900.738 Q41.6002 903.667 46.6292 904.112 L46.5973 883.233 Z" fill="#000000" fill-rule="nonzero" fill-opacity="1" /><path clip-path="url(#clip840)" d="M33.3248 842.11 L38.7993 842.11 Q37.4307 844.593 36.7623 847.107 Q36.0621 849.59 36.0621 852.136 Q36.0621 857.834 39.6905 860.985 Q43.2872 864.136 49.812 864.136 Q56.3369 864.136 59.9653 860.985 Q63.5619 857.834 63.5619 852.136 Q63.5619 849.59 62.8935 847.107 Q62.1933 844.593 60.8247 842.11 L66.2355 842.11 Q67.3814 844.561 67.9543 847.203 Q68.5272 849.813 68.5272 852.773 Q68.5272 860.825 63.4664 865.568 Q58.4057 870.31 49.812 870.31 Q41.091 870.31 36.0939 865.536 Q31.0968 860.73 31.0968 852.391 Q31.0968 849.686 31.6697 847.107 Q32.2108 844.529 33.3248 842.11 Z" fill="#000000" fill-rule="nonzero" fill-opacity="1" /><path clip-path="url(#clip840)" d="M21.8347 826.132 L31.9562 826.132 L31.9562 814.069 L36.5077 814.069 L36.5077 826.132 L55.8594 826.132 Q60.2199 826.132 61.4613 824.955 Q62.7026 823.745 62.7026 820.085 L62.7026 814.069 L67.6042 814.069 L67.6042 820.085 Q67.6042 826.864 65.0897 829.443 Q62.5434 832.021 55.8594 832.021 L36.5077 832.021 L36.5077 836.318 L31.9562 836.318 L31.9562 832.021 L21.8347 832.021 L21.8347 826.132 Z" fill="#000000" fill-rule="nonzero" fill-opacity="1" /><path clip-path="url(#clip840)" d="M48.3161 775.875 L51.1806 775.875 L51.1806 802.802 Q57.2281 802.42 60.4109 799.174 Q63.5619 795.895 63.5619 790.071 Q63.5619 786.697 62.7344 783.546 Q61.9069 780.363 60.2518 777.244 L65.7899 777.244 Q67.1267 780.395 67.827 783.705 Q68.5272 787.015 68.5272 790.421 Q68.5272 798.951 63.5619 803.948 Q58.5967 808.913 50.1303 808.913 Q41.3774 808.913 36.2531 804.203 Q31.0968 799.46 31.0968 791.439 Q31.0968 784.246 35.7438 780.077 Q40.3589 775.875 48.3161 775.875 M46.5973 781.732 Q41.7912 781.795 38.9266 784.437 Q36.0621 787.047 36.0621 791.376 Q36.0621 796.277 38.8312 799.237 Q41.6002 802.166 46.6292 802.611 L46.5973 781.732 Z" fill="#000000" fill-rule="nonzero" fill-opacity="1" /><path clip-path="url(#clip840)" d="M37.3671 742.805 L18.079 742.805 L18.079 736.949 L67.6042 736.949 L67.6042 742.805 L62.257 742.805 Q65.4398 744.651 66.9994 747.484 Q68.5272 750.285 68.5272 754.232 Q68.5272 760.693 63.371 764.767 Q58.2147 768.809 49.812 768.809 Q41.4093 768.809 36.2531 764.767 Q31.0968 760.693 31.0968 754.232 Q31.0968 750.285 32.6564 747.484 Q34.1842 744.651 37.3671 742.805 M49.812 762.762 Q56.2732 762.762 59.9653 760.12 Q63.6256 757.446 63.6256 752.799 Q63.6256 748.152 59.9653 745.479 Q56.2732 742.805 49.812 742.805 Q43.3508 742.805 39.6905 745.479 Q35.9984 748.152 35.9984 752.799 Q35.9984 757.446 39.6905 760.12 Q43.3508 762.762 49.812 762.762 Z" fill="#000000" fill-rule="nonzero" fill-opacity="1" /><path clip-path="url(#clip840)" d="M18.1426 690.097 Q25.4632 694.362 32.6246 696.431 Q39.786 698.5 47.1384 698.5 Q54.4908 698.5 61.7159 696.431 Q68.9091 694.33 76.1979 690.097 L76.1979 695.19 Q68.7182 699.964 61.4931 702.351 Q54.268 704.707 47.1384 704.707 Q40.0406 704.707 32.8474 702.351 Q25.6542 699.996 18.1426 695.19 L18.1426 690.097 Z" fill="#000000" fill-rule="nonzero" fill-opacity="1" /><path clip-path="url(#clip840)" d="M46.0881 649.102 L67.6042 649.102 L67.6042 654.959 L46.279 654.959 Q41.2183 654.959 38.7038 656.932 Q36.1894 658.905 36.1894 662.852 Q36.1894 667.594 39.2131 670.332 Q42.2368 673.069 47.4567 673.069 L67.6042 673.069 L67.6042 678.957 L31.9562 678.957 L31.9562 673.069 L37.4944 673.069 Q34.2797 670.968 32.6883 668.136 Q31.0968 665.271 31.0968 661.547 Q31.0968 655.404 34.9163 652.253 Q38.7038 649.102 46.0881 649.102 Z" fill="#000000" fill-rule="nonzero" fill-opacity="1" /><path clip-path="url(#clip840)" d="M36.0621 623.607 Q36.0621 628.318 39.7542 631.055 Q43.4145 633.793 49.812 633.793 Q56.2095 633.793 59.9017 631.087 Q63.5619 628.35 63.5619 623.607 Q63.5619 618.929 59.8698 616.191 Q56.1777 613.454 49.812 613.454 Q43.4781 613.454 39.786 616.191 Q36.0621 618.929 36.0621 623.607 M31.0968 623.607 Q31.0968 615.969 36.0621 611.608 Q41.0273 607.248 49.812 607.248 Q58.5649 607.248 63.5619 611.608 Q68.5272 615.969 68.5272 623.607 Q68.5272 631.278 63.5619 635.639 Q58.5649 639.967 49.812 639.967 Q41.0273 639.967 36.0621 635.639 Q31.0968 631.278 31.0968 623.607 Z" fill="#000000" fill-rule="nonzero" fill-opacity="1" /><path clip-path="url(#clip840)" d="M37.4307 576.883 Q36.8578 577.87 36.6032 579.047 Q36.3167 580.193 36.3167 581.594 Q36.3167 586.559 39.5632 589.233 Q42.7779 591.874 48.8253 591.874 L67.6042 591.874 L67.6042 597.763 L31.9562 597.763 L31.9562 591.874 L37.4944 591.874 Q34.2479 590.028 32.6883 587.068 Q31.0968 584.108 31.0968 579.875 Q31.0968 579.27 31.1923 578.538 Q31.256 577.806 31.4151 576.915 L37.4307 576.883 Z" fill="#000000" fill-rule="nonzero" fill-opacity="1" /><path clip-path="url(#clip840)" d="M38.7993 544.132 Q34.8526 541.935 32.9747 538.88 Q31.0968 535.824 31.0968 531.687 Q31.0968 526.117 35.0117 523.093 Q38.8948 520.069 46.0881 520.069 L67.6042 520.069 L67.6042 525.957 L46.279 525.957 Q41.1546 525.957 38.672 527.772 Q36.1894 529.586 36.1894 533.31 Q36.1894 537.861 39.2131 540.503 Q42.2368 543.145 47.4567 543.145 L67.6042 543.145 L67.6042 549.033 L46.279 549.033 Q41.1228 549.033 38.672 550.847 Q36.1894 552.662 36.1894 556.449 Q36.1894 560.937 39.2449 563.579 Q42.2686 566.221 47.4567 566.221 L67.6042 566.221 L67.6042 572.109 L31.9562 572.109 L31.9562 566.221 L37.4944 566.221 Q34.216 564.215 32.6564 561.414 Q31.0968 558.614 31.0968 554.762 Q31.0968 550.879 33.0702 548.174 Q35.0436 545.437 38.7993 544.132 Z" fill="#000000" fill-rule="nonzero" fill-opacity="1" /><path clip-path="url(#clip840)" d="M49.6847 492.187 Q49.6847 499.285 51.3079 502.022 Q52.9312 504.76 56.8461 504.76 Q59.9653 504.76 61.8114 502.723 Q63.6256 500.654 63.6256 497.121 Q63.6256 492.251 60.1881 489.323 Q56.7188 486.363 50.9897 486.363 L49.6847 486.363 L49.6847 492.187 M47.2657 480.506 L67.6042 480.506 L67.6042 486.363 L62.1933 486.363 Q65.4398 488.368 66.9994 491.36 Q68.5272 494.352 68.5272 498.68 Q68.5272 504.155 65.4716 507.401 Q62.3843 510.616 57.2281 510.616 Q51.2125 510.616 48.1569 506.606 Q45.1014 502.564 45.1014 494.575 L45.1014 486.363 L44.5285 486.363 Q40.4862 486.363 38.2901 489.036 Q36.0621 491.678 36.0621 496.484 Q36.0621 499.54 36.7941 502.436 Q37.5262 505.333 38.9903 508.006 L33.5795 508.006 Q32.3381 504.792 31.7334 501.768 Q31.0968 498.744 31.0968 495.88 Q31.0968 488.145 35.1072 484.326 Q39.1176 480.506 47.2657 480.506 Z" fill="#000000" fill-rule="nonzero" fill-opacity="1" /><path clip-path="url(#clip840)" d="M18.079 468.443 L18.079 462.587 L67.6042 462.587 L67.6042 468.443 L18.079 468.443 Z" fill="#000000" fill-rule="nonzero" fill-opacity="1" /><path clip-path="url(#clip840)" d="M31.9562 450.333 L31.9562 444.476 L67.6042 444.476 L67.6042 450.333 L31.9562 450.333 M18.079 450.333 L18.079 444.476 L25.495 444.476 L25.495 450.333 L18.079 450.333 Z" fill="#000000" fill-rule="nonzero" fill-opacity="1" /><path clip-path="url(#clip840)" d="M33.0065 409.497 L38.5447 409.497 Q37.2716 411.98 36.635 414.653 Q35.9984 417.327 35.9984 420.191 Q35.9984 424.552 37.3352 426.748 Q38.672 428.912 41.3456 428.912 Q43.3826 428.912 44.5603 427.353 Q45.7061 425.793 46.7565 421.082 L47.2021 419.077 Q48.5389 412.839 50.9897 410.229 Q53.4086 407.587 57.7691 407.587 Q62.7344 407.587 65.6308 411.534 Q68.5272 415.449 68.5272 422.324 Q68.5272 425.188 67.9543 428.308 Q67.4132 431.395 66.2992 434.832 L60.2518 434.832 Q61.9387 431.586 62.798 428.435 Q63.6256 425.284 63.6256 422.196 Q63.6256 418.059 62.2251 415.831 Q60.7929 413.603 58.2147 413.603 Q55.8276 413.603 54.5545 415.226 Q53.2813 416.817 52.1037 422.26 L51.6262 424.297 Q50.4804 429.74 48.1251 432.159 Q45.738 434.578 41.6002 434.578 Q36.5713 434.578 33.8341 431.013 Q31.0968 427.448 31.0968 420.892 Q31.0968 417.645 31.5743 414.78 Q32.0517 411.916 33.0065 409.497 Z" fill="#000000" fill-rule="nonzero" fill-opacity="1" /><path clip-path="url(#clip840)" d="M48.3161 367.77 L51.1806 367.77 L51.1806 394.697 Q57.2281 394.315 60.4109 391.068 Q63.5619 387.79 63.5619 381.965 Q63.5619 378.591 62.7344 375.44 Q61.9069 372.258 60.2518 369.138 L65.7899 369.138 Q67.1267 372.289 67.827 375.6 Q68.5272 378.91 68.5272 382.315 Q68.5272 390.845 63.5619 395.842 Q58.5967 400.808 50.1303 400.808 Q41.3774 400.808 36.2531 396.097 Q31.0968 391.355 31.0968 383.334 Q31.0968 376.141 35.7438 371.971 Q40.3589 367.77 48.3161 367.77 M46.5973 373.626 Q41.7912 373.69 38.9266 376.332 Q36.0621 378.942 36.0621 383.27 Q36.0621 388.172 38.8312 391.132 Q41.6002 394.06 46.6292 394.506 L46.5973 373.626 Z" fill="#000000" fill-rule="nonzero" fill-opacity="1" /><path clip-path="url(#clip840)" d="M37.3671 334.7 L18.079 334.7 L18.079 328.843 L67.6042 328.843 L67.6042 334.7 L62.257 334.7 Q65.4398 336.546 66.9994 339.379 Q68.5272 342.18 68.5272 346.126 Q68.5272 352.587 63.371 356.662 Q58.2147 360.704 49.812 360.704 Q41.4093 360.704 36.2531 356.662 Q31.0968 352.587 31.0968 346.126 Q31.0968 342.18 32.6564 339.379 Q34.1842 336.546 37.3671 334.7 M49.812 354.656 Q56.2732 354.656 59.9653 352.015 Q63.6256 349.341 63.6256 344.694 Q63.6256 340.047 59.9653 337.373 Q56.2732 334.7 49.812 334.7 Q43.3508 334.7 39.6905 337.373 Q35.9984 340.047 35.9984 344.694 Q35.9984 349.341 39.6905 352.015 Q43.3508 354.656 49.812 354.656 Z" fill="#000000" fill-rule="nonzero" fill-opacity="1" /><path clip-path="url(#clip840)" d="M18.1426 317.703 L18.1426 312.611 Q25.6542 307.837 32.8474 305.481 Q40.0406 303.094 47.1384 303.094 Q54.268 303.094 61.4931 305.481 Q68.7182 307.837 76.1979 312.611 L76.1979 317.703 Q68.9091 313.47 61.7159 311.401 Q54.4908 309.301 47.1384 309.301 Q39.786 309.301 32.6246 311.401 Q25.4632 313.47 18.1426 317.703 Z" fill="#000000" fill-rule="nonzero" fill-opacity="1" /><path clip-path="url(#clip840)" d="M45.5203 63.9476 L45.5203 47.7034 L32.1523 47.7034 L32.1523 40.9789 L53.6221 40.9789 L53.6221 66.9452 Q48.8826 70.3075 43.1708 72.0494 Q37.459 73.7508 30.9776 73.7508 Q16.7994 73.7508 8.77863 65.4869 Q0.798346 57.1826 0.798346 42.3968 Q0.798346 27.5705 8.77863 19.3066 Q16.7994 11.0023 30.9776 11.0023 Q36.8919 11.0023 42.1986 12.4606 Q47.5458 13.9189 52.0423 16.7545 L52.0423 25.464 Q47.5053 21.6156 42.4011 19.6712 Q37.297 17.7268 31.6662 17.7268 Q20.5668 17.7268 14.9765 23.9246 Q9.42677 30.1225 9.42677 42.3968 Q9.42677 54.6305 14.9765 60.8284 Q20.5668 67.0263 31.6662 67.0263 Q36.0007 67.0263 39.4035 66.2971 Q42.8062 65.5274 45.5203 63.9476 Z" fill="#000000" fill-rule="nonzero" fill-opacity="1" /><path clip-path="url(#clip840)" d="M94.5363 34.1734 Q93.2805 33.4443 91.7817 33.1202 Q90.3233 32.7556 88.5409 32.7556 Q82.2215 32.7556 78.8188 36.8875 Q75.4565 40.9789 75.4565 48.6757 L75.4565 72.576 L67.9623 72.576 L67.9623 27.2059 L75.4565 27.2059 L75.4565 34.2544 Q77.806 30.1225 81.5734 28.1376 Q85.3407 26.1121 90.7284 26.1121 Q91.4981 26.1121 92.4298 26.2337 Q93.3615 26.3147 94.4958 26.5172 L94.5363 34.1734 Z" fill="#000000" fill-rule="nonzero" fill-opacity="1" /><path clip-path="url(#clip840)" d="M122.974 49.7694 Q113.94 49.7694 110.456 51.8354 Q106.973 53.9013 106.973 58.8839 Q106.973 62.8538 109.565 65.2034 Q112.198 67.5124 116.695 67.5124 Q122.893 67.5124 126.619 63.1374 Q130.387 58.7219 130.387 51.4303 L130.387 49.7694 L122.974 49.7694 M137.84 46.6907 L137.84 72.576 L130.387 72.576 L130.387 65.6895 Q127.835 69.8214 124.027 71.8063 Q120.219 73.7508 114.71 73.7508 Q107.742 73.7508 103.61 69.8619 Q99.5189 65.9325 99.5189 59.3701 Q99.5189 51.7138 104.623 47.825 Q109.768 43.9361 119.935 43.9361 L130.387 43.9361 L130.387 43.2069 Q130.387 38.0623 126.984 35.2672 Q123.622 32.4315 117.505 32.4315 Q113.616 32.4315 109.93 33.3632 Q106.243 34.295 102.841 36.1584 L102.841 29.2718 Q106.932 27.692 110.78 26.9223 Q114.629 26.1121 118.275 26.1121 Q128.118 26.1121 132.979 31.2163 Q137.84 36.3204 137.84 46.6907 Z" fill="#000000" fill-rule="nonzero" fill-opacity="1" /><path clip-path="url(#clip840)" d="M160.404 65.7705 L160.404 89.8329 L152.91 89.8329 L152.91 27.2059 L160.404 27.2059 L160.404 34.0924 Q162.753 30.0415 166.318 28.0971 Q169.924 26.1121 174.906 26.1121 Q183.17 26.1121 188.315 32.6746 Q193.5 39.2371 193.5 49.9314 Q193.5 60.6258 188.315 67.1883 Q183.17 73.7508 174.906 73.7508 Q169.924 73.7508 166.318 71.8063 Q162.753 69.8214 160.404 65.7705 M185.763 49.9314 Q185.763 41.7081 182.36 37.0496 Q178.998 32.3505 173.083 32.3505 Q167.169 32.3505 163.766 37.0496 Q160.404 41.7081 160.404 49.9314 Q160.404 58.1548 163.766 62.8538 Q167.169 67.5124 173.083 67.5124 Q178.998 67.5124 182.36 62.8538 Q185.763 58.1548 185.763 49.9314 Z" fill="#000000" fill-rule="nonzero" fill-opacity="1" /><path clip-path="url(#clip840)" d="M243.569 45.1919 L243.569 72.576 L236.115 72.576 L236.115 45.4349 Q236.115 38.994 233.604 35.7938 Q231.092 32.5936 226.069 32.5936 Q220.033 32.5936 216.55 36.4419 Q213.066 40.2903 213.066 46.9338 L213.066 72.576 L205.572 72.576 L205.572 9.54393 L213.066 9.54393 L213.066 34.2544 Q215.739 30.163 219.345 28.1376 Q222.99 26.1121 227.73 26.1121 Q235.548 26.1121 239.559 30.9732 Q243.569 35.7938 243.569 45.1919 Z" fill="#000000" fill-rule="nonzero" fill-opacity="1" /><path clip-path="url(#clip840)" d="M254.669 46.5287 L276.503 46.5287 L276.503 53.1722 L254.669 53.1722 L254.669 46.5287 Z" fill="#000000" fill-rule="nonzero" fill-opacity="1" /><path clip-path="url(#clip840)" d="M288.372 27.2059 L295.826 27.2059 L295.826 72.576 L288.372 72.576 L288.372 27.2059 M288.372 9.54393 L295.826 9.54393 L295.826 18.9825 L288.372 18.9825 L288.372 9.54393 Z" fill="#000000" fill-rule="nonzero" fill-opacity="1" /><path clip-path="url(#clip840)" d="M349.136 45.1919 L349.136 72.576 L341.682 72.576 L341.682 45.4349 Q341.682 38.994 339.17 35.7938 Q336.659 32.5936 331.636 32.5936 Q325.6 32.5936 322.116 36.4419 Q318.632 40.2903 318.632 46.9338 L318.632 72.576 L311.138 72.576 L311.138 27.2059 L318.632 27.2059 L318.632 34.2544 Q321.306 30.163 324.911 28.1376 Q328.557 26.1121 333.297 26.1121 Q341.115 26.1121 345.125 30.9732 Q349.136 35.7938 349.136 45.1919 Z" fill="#000000" fill-rule="nonzero" fill-opacity="1" /><path clip-path="url(#clip840)" d="M392.926 28.5427 L392.926 35.5912 Q389.766 33.9709 386.363 33.1607 Q382.961 32.3505 379.315 32.3505 Q373.765 32.3505 370.97 34.0519 Q368.215 35.7533 368.215 39.156 Q368.215 41.7486 370.2 43.2475 Q372.185 44.7058 378.181 46.0426 L380.733 46.6097 Q388.672 48.3111 391.994 51.4303 Q395.356 54.509 395.356 60.0587 Q395.356 66.3781 390.333 70.0644 Q385.351 73.7508 376.601 73.7508 Q372.955 73.7508 368.985 73.0216 Q365.056 72.3329 360.681 70.9151 L360.681 63.2184 Q364.813 65.3654 368.823 66.4591 Q372.833 67.5124 376.763 67.5124 Q382.029 67.5124 384.865 65.73 Q387.7 63.9071 387.7 60.6258 Q387.7 57.5877 385.634 55.9673 Q383.609 54.3469 376.682 52.8481 L374.089 52.2405 Q367.162 50.7821 364.083 47.7845 Q361.005 44.7463 361.005 39.4801 Q361.005 33.0797 365.542 29.5959 Q370.079 26.1121 378.424 26.1121 Q382.556 26.1121 386.201 26.7198 Q389.847 27.3274 392.926 28.5427 Z" fill="#000000" fill-rule="nonzero" fill-opacity="1" /><path clip-path="url(#clip840)" d="M414.598 14.324 L414.598 27.2059 L429.951 27.2059 L429.951 32.9987 L414.598 32.9987 L414.598 57.6282 Q414.598 63.1779 416.097 64.7578 Q417.636 66.3376 422.295 66.3376 L429.951 66.3376 L429.951 72.576 L422.295 72.576 Q413.667 72.576 410.385 69.3758 Q407.104 66.1351 407.104 57.6282 L407.104 32.9987 L401.635 32.9987 L401.635 27.2059 L407.104 27.2059 L407.104 14.324 L414.598 14.324 Z" fill="#000000" fill-rule="nonzero" fill-opacity="1" /><path clip-path="url(#clip840)" d="M460.373 49.7694 Q451.34 49.7694 447.856 51.8354 Q444.372 53.9013 444.372 58.8839 Q444.372 62.8538 446.965 65.2034 Q449.598 67.5124 454.095 67.5124 Q460.292 67.5124 464.019 63.1374 Q467.787 58.7219 467.787 51.4303 L467.787 49.7694 L460.373 49.7694 M475.24 46.6907 L475.24 72.576 L467.787 72.576 L467.787 65.6895 Q465.235 69.8214 461.427 71.8063 Q457.619 73.7508 452.11 73.7508 Q445.142 73.7508 441.01 69.8619 Q436.919 65.9325 436.919 59.3701 Q436.919 51.7138 442.023 47.825 Q447.167 43.9361 457.335 43.9361 L467.787 43.9361 L467.787 43.2069 Q467.787 38.0623 464.384 35.2672 Q461.022 32.4315 454.905 32.4315 Q451.016 32.4315 447.33 33.3632 Q443.643 34.295 440.24 36.1584 L440.24 29.2718 Q444.332 27.692 448.18 26.9223 Q452.029 26.1121 455.674 26.1121 Q465.518 26.1121 470.379 31.2163 Q475.24 36.3204 475.24 46.6907 Z" fill="#000000" fill-rule="nonzero" fill-opacity="1" /><path clip-path="url(#clip840)" d="M528.307 45.1919 L528.307 72.576 L520.853 72.576 L520.853 45.4349 Q520.853 38.994 518.342 35.7938 Q515.83 32.5936 510.807 32.5936 Q504.771 32.5936 501.288 36.4419 Q497.804 40.2903 497.804 46.9338 L497.804 72.576 L490.31 72.576 L490.31 27.2059 L497.804 27.2059 L497.804 34.2544 Q500.477 30.163 504.083 28.1376 Q507.729 26.1121 512.468 26.1121 Q520.286 26.1121 524.297 30.9732 Q528.307 35.7938 528.307 45.1919 Z" fill="#000000" fill-rule="nonzero" fill-opacity="1" /><path clip-path="url(#clip840)" d="M575.824 28.9478 L575.824 35.9153 Q572.664 34.1734 569.464 33.3227 Q566.305 32.4315 563.064 32.4315 Q555.813 32.4315 551.802 37.0496 Q547.792 41.6271 547.792 49.9314 Q547.792 58.2358 551.802 62.8538 Q555.813 67.4314 563.064 67.4314 Q566.305 67.4314 569.464 66.5807 Q572.664 65.6895 575.824 63.9476 L575.824 70.8341 Q572.705 72.2924 569.343 73.0216 Q566.021 73.7508 562.254 73.7508 Q552.005 73.7508 545.969 67.3098 Q539.933 60.8689 539.933 49.9314 Q539.933 38.832 546.01 32.472 Q552.126 26.1121 562.74 26.1121 Q566.183 26.1121 569.464 26.8413 Q572.746 27.5299 575.824 28.9478 Z" fill="#000000" fill-rule="nonzero" fill-opacity="1" /><path clip-path="url(#clip840)" d="M627.595 48.0275 L627.595 51.6733 L593.324 51.6733 Q593.81 59.3701 597.942 63.421 Q602.115 67.4314 609.528 67.4314 Q613.822 67.4314 617.832 66.3781 Q621.883 65.3249 625.853 63.2184 L625.853 70.267 Q621.842 71.9684 617.63 72.8596 Q613.417 73.7508 609.082 73.7508 Q598.226 73.7508 591.866 67.4314 Q585.546 61.1119 585.546 50.3365 Q585.546 39.1965 591.542 32.6746 Q597.578 26.1121 607.786 26.1121 Q616.941 26.1121 622.248 32.0264 Q627.595 37.9003 627.595 48.0275 M620.141 45.84 Q620.06 39.7232 616.698 36.0774 Q613.376 32.4315 607.867 32.4315 Q601.628 32.4315 597.861 35.9558 Q594.134 39.4801 593.567 45.8805 L620.141 45.84 Z" fill="#000000" fill-rule="nonzero" fill-opacity="1" /><path clip-path="url(#clip840)" d="M701.524 35.9153 Q704.319 30.8922 708.208 28.5022 Q712.097 26.1121 717.363 26.1121 Q724.452 26.1121 728.3 31.0947 Q732.149 36.0368 732.149 45.1919 L732.149 72.576 L724.654 72.576 L724.654 45.4349 Q724.654 38.913 722.345 35.7533 Q720.036 32.5936 715.297 32.5936 Q709.504 32.5936 706.142 36.4419 Q702.78 40.2903 702.78 46.9338 L702.78 72.576 L695.285 72.576 L695.285 45.4349 Q695.285 38.8725 692.976 35.7533 Q690.667 32.5936 685.847 32.5936 Q680.135 32.5936 676.773 36.4824 Q673.41 40.3308 673.41 46.9338 L673.41 72.576 L665.916 72.576 L665.916 27.2059 L673.41 27.2059 L673.41 34.2544 Q675.963 30.082 679.527 28.0971 Q683.092 26.1121 687.994 26.1121 Q692.936 26.1121 696.379 28.6237 Q699.863 31.1352 701.524 35.9153 Z" fill="#000000" fill-rule="nonzero" fill-opacity="1" /><path clip-path="url(#clip840)" d="M764.596 32.4315 Q758.601 32.4315 755.117 37.1306 Q751.633 41.7891 751.633 49.9314 Q751.633 58.0738 755.077 62.7728 Q758.56 67.4314 764.596 67.4314 Q770.551 67.4314 774.035 62.7323 Q777.519 58.0333 777.519 49.9314 Q777.519 41.8701 774.035 37.1711 Q770.551 32.4315 764.596 32.4315 M764.596 26.1121 Q774.319 26.1121 779.868 32.4315 Q785.418 38.7509 785.418 49.9314 Q785.418 61.0714 779.868 67.4314 Q774.319 73.7508 764.596 73.7508 Q754.834 73.7508 749.284 67.4314 Q743.775 61.0714 743.775 49.9314 Q743.775 38.7509 749.284 32.4315 Q754.834 26.1121 764.596 26.1121 Z" fill="#000000" fill-rule="nonzero" fill-opacity="1" /><path clip-path="url(#clip840)" d="M827.628 34.0924 L827.628 9.54393 L835.082 9.54393 L835.082 72.576 L827.628 72.576 L827.628 65.7705 Q825.279 69.8214 821.674 71.8063 Q818.109 73.7508 813.086 73.7508 Q804.862 73.7508 799.677 67.1883 Q794.533 60.6258 794.533 49.9314 Q794.533 39.2371 799.677 32.6746 Q804.862 26.1121 813.086 26.1121 Q818.109 26.1121 821.674 28.0971 Q825.279 30.0415 827.628 34.0924 M802.229 49.9314 Q802.229 58.1548 805.591 62.8538 Q808.994 67.5124 814.909 67.5124 Q820.823 67.5124 824.226 62.8538 Q827.628 58.1548 827.628 49.9314 Q827.628 41.7081 824.226 37.0496 Q820.823 32.3505 814.909 32.3505 Q808.994 32.3505 805.591 37.0496 Q802.229 41.7081 802.229 49.9314 Z" fill="#000000" fill-rule="nonzero" fill-opacity="1" /><path clip-path="url(#clip840)" d="M889.243 48.0275 L889.243 51.6733 L854.972 51.6733 Q855.458 59.3701 859.59 63.421 Q863.762 67.4314 871.176 67.4314 Q875.47 67.4314 879.48 66.3781 Q883.531 65.3249 887.501 63.2184 L887.501 70.267 Q883.49 71.9684 879.277 72.8596 Q875.064 73.7508 870.73 73.7508 Q859.874 73.7508 853.514 67.4314 Q847.194 61.1119 847.194 50.3365 Q847.194 39.1965 853.19 32.6746 Q859.225 26.1121 869.434 26.1121 Q878.589 26.1121 883.895 32.0264 Q889.243 37.9003 889.243 48.0275 M881.789 45.84 Q881.708 39.7232 878.346 36.0774 Q875.024 32.4315 869.515 32.4315 Q863.276 32.4315 859.509 35.9558 Q855.782 39.4801 855.215 45.8805 L881.789 45.84 Z" fill="#000000" fill-rule="nonzero" fill-opacity="1" /><path clip-path="url(#clip840)" d="M901.476 9.54393 L908.93 9.54393 L908.93 72.576 L901.476 72.576 L901.476 9.54393 Z" fill="#000000" fill-rule="nonzero" fill-opacity="1" /><path clip-path="url(#clip840)" d="M953.449 28.5427 L953.449 35.5912 Q950.29 33.9709 946.887 33.1607 Q943.484 32.3505 939.838 32.3505 Q934.289 32.3505 931.494 34.0519 Q928.739 35.7533 928.739 39.156 Q928.739 41.7486 930.724 43.2475 Q932.709 44.7058 938.704 46.0426 L941.256 46.6097 Q949.196 48.3111 952.518 51.4303 Q955.88 54.509 955.88 60.0587 Q955.88 66.3781 950.857 70.0644 Q945.874 73.7508 937.124 73.7508 Q933.479 73.7508 929.509 73.0216 Q925.579 72.3329 921.204 70.9151 L921.204 63.2184 Q925.336 65.3654 929.347 66.4591 Q933.357 67.5124 937.286 67.5124 Q942.553 67.5124 945.388 65.73 Q948.224 63.9071 948.224 60.6258 Q948.224 57.5877 946.158 55.9673 Q944.132 54.3469 937.205 52.8481 L934.613 52.2405 Q927.686 50.7821 924.607 47.7845 Q921.528 44.7463 921.528 39.4801 Q921.528 33.0797 926.065 29.5959 Q930.602 26.1121 938.947 26.1121 Q943.079 26.1121 946.725 26.7198 Q950.371 27.3274 953.449 28.5427 Z" fill="#000000" fill-rule="nonzero" fill-opacity="1" /><path clip-path="url(#clip840)" d="M1011.7 32.4315 Q1005.71 32.4315 1002.22 37.1306 Q998.739 41.7891 998.739 49.9314 Q998.739 58.0738 1002.18 62.7728 Q1005.67 67.4314 1011.7 67.4314 Q1017.66 67.4314 1021.14 62.7323 Q1024.62 58.0333 1024.62 49.9314 Q1024.62 41.8701 1021.14 37.1711 Q1017.66 32.4315 1011.7 32.4315 M1011.7 26.1121 Q1021.42 26.1121 1026.97 32.4315 Q1032.52 38.7509 1032.52 49.9314 Q1032.52 61.0714 1026.97 67.4314 Q1021.42 73.7508 1011.7 73.7508 Q1001.94 73.7508 996.389 67.4314 Q990.88 61.0714 990.88 49.9314 Q990.88 38.7509 996.389 32.4315 Q1001.94 26.1121 1011.7 26.1121 Z" fill="#000000" fill-rule="nonzero" fill-opacity="1" /><path clip-path="url(#clip840)" d="M1082.59 45.1919 L1082.59 72.576 L1075.14 72.576 L1075.14 45.4349 Q1075.14 38.994 1072.63 35.7938 Q1070.12 32.5936 1065.09 32.5936 Q1059.06 32.5936 1055.57 36.4419 Q1052.09 40.2903 1052.09 46.9338 L1052.09 72.576 L1044.59 72.576 L1044.59 27.2059 L1052.09 27.2059 L1052.09 34.2544 Q1054.76 30.163 1058.37 28.1376 Q1062.01 26.1121 1066.75 26.1121 Q1074.57 26.1121 1078.58 30.9732 Q1082.59 35.7938 1082.59 45.1919 Z" fill="#000000" fill-rule="nonzero" fill-opacity="1" /><path clip-path="url(#clip840)" d="M1150.12 34.1734 Q1148.87 33.4443 1147.37 33.1202 Q1145.91 32.7556 1144.13 32.7556 Q1137.81 32.7556 1134.4 36.8875 Q1131.04 40.9789 1131.04 48.6757 L1131.04 72.576 L1123.55 72.576 L1123.55 27.2059 L1131.04 27.2059 L1131.04 34.2544 Q1133.39 30.1225 1137.16 28.1376 Q1140.93 26.1121 1146.31 26.1121 Q1147.08 26.1121 1148.01 26.2337 Q1148.95 26.3147 1150.08 26.5172 L1150.12 34.1734 Z" fill="#000000" fill-rule="nonzero" fill-opacity="1" /><path clip-path="url(#clip840)" d="M1194.92 48.0275 L1194.92 51.6733 L1160.65 51.6733 Q1161.14 59.3701 1165.27 63.421 Q1169.44 67.4314 1176.86 67.4314 Q1181.15 67.4314 1185.16 66.3781 Q1189.21 65.3249 1193.18 63.2184 L1193.18 70.267 Q1189.17 71.9684 1184.96 72.8596 Q1180.75 73.7508 1176.41 73.7508 Q1165.55 73.7508 1159.19 67.4314 Q1152.88 61.1119 1152.88 50.3365 Q1152.88 39.1965 1158.87 32.6746 Q1164.91 26.1121 1175.11 26.1121 Q1184.27 26.1121 1189.58 32.0264 Q1194.92 37.9003 1194.92 48.0275 M1187.47 45.84 Q1187.39 39.7232 1184.03 36.0774 Q1180.71 32.4315 1175.2 32.4315 Q1168.96 32.4315 1165.19 35.9558 Q1161.46 39.4801 1160.9 45.8805 L1187.47 45.84 Z" fill="#000000" fill-rule="nonzero" fill-opacity="1" /><path clip-path="url(#clip840)" d="M1237.01 49.3643 Q1237.01 41.2625 1233.65 36.8065 Q1230.33 32.3505 1224.29 32.3505 Q1218.3 32.3505 1214.94 36.8065 Q1211.61 41.2625 1211.61 49.3643 Q1211.61 57.4256 1214.94 61.8816 Q1218.3 66.3376 1224.29 66.3376 Q1230.33 66.3376 1233.65 61.8816 Q1237.01 57.4256 1237.01 49.3643 M1244.47 66.9452 Q1244.47 78.5308 1239.32 84.1616 Q1234.18 89.8329 1223.56 89.8329 Q1219.63 89.8329 1216.15 89.2252 Q1212.67 88.6581 1209.39 87.4428 L1209.39 80.1917 Q1212.67 81.9741 1215.87 82.8248 Q1219.07 83.6755 1222.39 83.6755 Q1229.72 83.6755 1233.37 79.8271 Q1237.01 76.0193 1237.01 68.282 L1237.01 64.5957 Q1234.7 68.6061 1231.1 70.5911 Q1227.49 72.576 1222.47 72.576 Q1214.13 72.576 1209.02 66.2161 Q1203.92 59.8562 1203.92 49.3643 Q1203.92 38.832 1209.02 32.472 Q1214.13 26.1121 1222.47 26.1121 Q1227.49 26.1121 1231.1 28.0971 Q1234.7 30.082 1237.01 34.0924 L1237.01 27.2059 L1244.47 27.2059 L1244.47 66.9452 Z" fill="#000000" fill-rule="nonzero" fill-opacity="1" /><path clip-path="url(#clip840)" d="M1259.05 54.671 L1259.05 27.2059 L1266.5 27.2059 L1266.5 54.3874 Q1266.5 60.8284 1269.01 64.0691 Q1271.53 67.2693 1276.55 67.2693 Q1282.59 67.2693 1286.07 63.421 Q1289.59 59.5726 1289.59 52.9291 L1289.59 27.2059 L1297.05 27.2059 L1297.05 72.576 L1289.59 72.576 L1289.59 65.6084 Q1286.88 69.7404 1283.27 71.7658 Q1279.71 73.7508 1274.97 73.7508 Q1267.15 73.7508 1263.1 68.8897 Q1259.05 64.0286 1259.05 54.671 M1277.81 26.1121 L1277.81 26.1121 Z" fill="#000000" fill-rule="nonzero" fill-opacity="1" /><path clip-path="url(#clip840)" d="M1312.4 9.54393 L1319.85 9.54393 L1319.85 72.576 L1312.4 72.576 L1312.4 9.54393 Z" fill="#000000" fill-rule="nonzero" fill-opacity="1" /><path clip-path="url(#clip840)" d="M1356.07 49.7694 Q1347.04 49.7694 1343.55 51.8354 Q1340.07 53.9013 1340.07 58.8839 Q1340.07 62.8538 1342.66 65.2034 Q1345.29 67.5124 1349.79 67.5124 Q1355.99 67.5124 1359.71 63.1374 Q1363.48 58.7219 1363.48 51.4303 L1363.48 49.7694 L1356.07 49.7694 M1370.94 46.6907 L1370.94 72.576 L1363.48 72.576 L1363.48 65.6895 Q1360.93 69.8214 1357.12 71.8063 Q1353.31 73.7508 1347.81 73.7508 Q1340.84 73.7508 1336.71 69.8619 Q1332.61 65.9325 1332.61 59.3701 Q1332.61 51.7138 1337.72 47.825 Q1342.86 43.9361 1353.03 43.9361 L1363.48 43.9361 L1363.48 43.2069 Q1363.48 38.0623 1360.08 35.2672 Q1356.72 32.4315 1350.6 32.4315 Q1346.71 32.4315 1343.02 33.3632 Q1339.34 34.295 1335.94 36.1584 L1335.94 29.2718 Q1340.03 27.692 1343.88 26.9223 Q1347.72 26.1121 1351.37 26.1121 Q1361.21 26.1121 1366.07 31.2163 Q1370.94 36.3204 1370.94 46.6907 Z" fill="#000000" fill-rule="nonzero" fill-opacity="1" /><path clip-path="url(#clip840)" d="M1412.58 34.1734 Q1411.32 33.4443 1409.82 33.1202 Q1408.37 32.7556 1406.58 32.7556 Q1400.26 32.7556 1396.86 36.8875 Q1393.5 40.9789 1393.5 48.6757 L1393.5 72.576 L1386.01 72.576 L1386.01 27.2059 L1393.5 27.2059 L1393.5 34.2544 Q1395.85 30.1225 1399.62 28.1376 Q1403.38 26.1121 1408.77 26.1121 Q1409.54 26.1121 1410.47 26.2337 Q1411.4 26.3147 1412.54 26.5172 L1412.58 34.1734 Z" fill="#000000" fill-rule="nonzero" fill-opacity="1" /><path clip-path="url(#clip840)" d="M1476.62 49.3643 Q1476.62 41.2625 1473.26 36.8065 Q1469.94 32.3505 1463.9 32.3505 Q1457.91 32.3505 1454.55 36.8065 Q1451.22 41.2625 1451.22 49.3643 Q1451.22 57.4256 1454.55 61.8816 Q1457.91 66.3376 1463.9 66.3376 Q1469.94 66.3376 1473.26 61.8816 Q1476.62 57.4256 1476.62 49.3643 M1484.08 66.9452 Q1484.08 78.5308 1478.93 84.1616 Q1473.79 89.8329 1463.17 89.8329 Q1459.25 89.8329 1455.76 89.2252 Q1452.28 88.6581 1449 87.4428 L1449 80.1917 Q1452.28 81.9741 1455.48 82.8248 Q1458.68 83.6755 1462 83.6755 Q1469.33 83.6755 1472.98 79.8271 Q1476.62 76.0193 1476.62 68.282 L1476.62 64.5957 Q1474.31 68.6061 1470.71 70.5911 Q1467.1 72.576 1462.08 72.576 Q1453.74 72.576 1448.63 66.2161 Q1443.53 59.8562 1443.53 49.3643 Q1443.53 38.832 1448.63 32.472 Q1453.74 26.1121 1462.08 26.1121 Q1467.1 26.1121 1470.71 28.0971 Q1474.31 30.082 1476.62 34.0924 L1476.62 27.2059 L1484.08 27.2059 L1484.08 66.9452 Z" fill="#000000" fill-rule="nonzero" fill-opacity="1" /><path clip-path="url(#clip840)" d="M1525.72 34.1734 Q1524.46 33.4443 1522.97 33.1202 Q1521.51 32.7556 1519.73 32.7556 Q1513.41 32.7556 1510 36.8875 Q1506.64 40.9789 1506.64 48.6757 L1506.64 72.576 L1499.15 72.576 L1499.15 27.2059 L1506.64 27.2059 L1506.64 34.2544 Q1508.99 30.1225 1512.76 28.1376 Q1516.53 26.1121 1521.91 26.1121 Q1522.68 26.1121 1523.61 26.2337 Q1524.55 26.3147 1525.68 26.5172 L1525.72 34.1734 Z" fill="#000000" fill-rule="nonzero" fill-opacity="1" /><path clip-path="url(#clip840)" d="M1554.16 49.7694 Q1545.12 49.7694 1541.64 51.8354 Q1538.16 53.9013 1538.16 58.8839 Q1538.16 62.8538 1540.75 65.2034 Q1543.38 67.5124 1547.88 67.5124 Q1554.08 67.5124 1557.8 63.1374 Q1561.57 58.7219 1561.57 51.4303 L1561.57 49.7694 L1554.16 49.7694 M1569.02 46.6907 L1569.02 72.576 L1561.57 72.576 L1561.57 65.6895 Q1559.02 69.8214 1555.21 71.8063 Q1551.4 73.7508 1545.89 73.7508 Q1538.93 73.7508 1534.79 69.8619 Q1530.7 65.9325 1530.7 59.3701 Q1530.7 51.7138 1535.81 47.825 Q1540.95 43.9361 1551.12 43.9361 L1561.57 43.9361 L1561.57 43.2069 Q1561.57 38.0623 1558.17 35.2672 Q1554.81 32.4315 1548.69 32.4315 Q1544.8 32.4315 1541.11 33.3632 Q1537.43 34.295 1534.03 36.1584 L1534.03 29.2718 Q1538.12 27.692 1541.96 26.9223 Q1545.81 26.1121 1549.46 26.1121 Q1559.3 26.1121 1564.16 31.2163 Q1569.02 36.3204 1569.02 46.6907 Z" fill="#000000" fill-rule="nonzero" fill-opacity="1" /><path clip-path="url(#clip840)" d="M1591.59 65.7705 L1591.59 89.8329 L1584.09 89.8329 L1584.09 27.2059 L1591.59 27.2059 L1591.59 34.0924 Q1593.94 30.0415 1597.5 28.0971 Q1601.11 26.1121 1606.09 26.1121 Q1614.35 26.1121 1619.5 32.6746 Q1624.68 39.2371 1624.68 49.9314 Q1624.68 60.6258 1619.5 67.1883 Q1614.35 73.7508 1606.09 73.7508 Q1601.11 73.7508 1597.5 71.8063 Q1593.94 69.8214 1591.59 65.7705 M1616.95 49.9314 Q1616.95 41.7081 1613.54 37.0496 Q1610.18 32.3505 1604.27 32.3505 Q1598.35 32.3505 1594.95 37.0496 Q1591.59 41.7081 1591.59 49.9314 Q1591.59 58.1548 1594.95 62.8538 Q1598.35 67.5124 1604.27 67.5124 Q1610.18 67.5124 1613.54 62.8538 Q1616.95 58.1548 1616.95 49.9314 Z" fill="#000000" fill-rule="nonzero" fill-opacity="1" /><path clip-path="url(#clip840)" d="M1674.75 45.1919 L1674.75 72.576 L1667.3 72.576 L1667.3 45.4349 Q1667.3 38.994 1664.79 35.7938 Q1662.28 32.5936 1657.25 32.5936 Q1651.22 32.5936 1647.73 36.4419 Q1644.25 40.2903 1644.25 46.9338 L1644.25 72.576 L1636.76 72.576 L1636.76 9.54393 L1644.25 9.54393 L1644.25 34.2544 Q1646.92 30.163 1650.53 28.1376 Q1654.17 26.1121 1658.91 26.1121 Q1666.73 26.1121 1670.74 30.9732 Q1674.75 35.7938 1674.75 45.1919 Z" fill="#000000" fill-rule="nonzero" fill-opacity="1" /><path clip-path="url(#clip840)" d="M1733.9 9.62495 Q1728.47 18.942 1725.84 28.0566 Q1723.2 37.1711 1723.2 46.5287 Q1723.2 55.8863 1725.84 65.0818 Q1728.51 74.2369 1733.9 83.5134 L1727.42 83.5134 Q1721.34 73.9938 1718.3 64.7983 Q1715.3 55.6027 1715.3 46.5287 Q1715.3 37.4952 1718.3 28.3401 Q1721.3 19.1851 1727.42 9.62495 L1733.9 9.62495 Z" fill="#000000" fill-rule="nonzero" fill-opacity="1" /><path clip-path="url(#clip840)" d="M1748.68 12.096 L1759.7 12.096 L1786.52 62.6918 L1786.52 12.096 L1794.46 12.096 L1794.46 72.576 L1783.44 72.576 L1756.62 21.9802 L1756.62 72.576 L1748.68 72.576 L1748.68 12.096 Z" fill="#000000" fill-rule="nonzero" fill-opacity="1" /><path clip-path="url(#clip840)" d="M1811.39 34.9026 L1863.32 34.9026 L1863.32 41.7081 L1811.39 41.7081 L1811.39 34.9026 M1811.39 51.4303 L1863.32 51.4303 L1863.32 58.3168 L1811.39 58.3168 L1811.39 51.4303 Z" fill="#000000" fill-rule="nonzero" fill-opacity="1" /><path clip-path="url(#clip840)" d="M1888.03 65.6895 L1916.59 65.6895 L1916.59 72.576 L1878.19 72.576 L1878.19 65.6895 Q1882.85 60.8689 1890.87 52.7671 Q1898.93 44.6248 1901 42.2752 Q1904.93 37.8598 1906.47 34.8216 Q1908.05 31.7429 1908.05 28.7857 Q1908.05 23.9651 1904.64 20.927 Q1901.28 17.8888 1895.85 17.8888 Q1892 17.8888 1887.71 19.2256 Q1883.46 20.5624 1878.59 23.2765 L1878.59 15.0127 Q1883.54 13.0277 1887.83 12.015 Q1892.13 11.0023 1895.69 11.0023 Q1905.09 11.0023 1910.68 15.7013 Q1916.27 20.4004 1916.27 28.2591 Q1916.27 31.9859 1914.85 35.3482 Q1913.47 38.6699 1909.79 43.2069 Q1908.77 44.3817 1903.35 50.0125 Q1897.92 55.6027 1888.03 65.6895 Z" fill="#000000" fill-rule="nonzero" fill-opacity="1" /><path clip-path="url(#clip840)" d="M1951.27 17.4837 Q1944.95 17.4837 1941.75 23.7221 Q1938.59 29.92 1938.59 42.3968 Q1938.59 54.833 1941.75 61.0714 Q1944.95 67.2693 1951.27 67.2693 Q1957.63 67.2693 1960.79 61.0714 Q1963.99 54.833 1963.99 42.3968 Q1963.99 29.92 1960.79 23.7221 Q1957.63 17.4837 1951.27 17.4837 M1951.27 11.0023 Q1961.44 11.0023 1966.78 19.0636 Q1972.17 27.0843 1972.17 42.3968 Q1972.17 57.6687 1966.78 65.73 Q1961.44 73.7508 1951.27 73.7508 Q1941.1 73.7508 1935.71 65.73 Q1930.37 57.6687 1930.37 42.3968 Q1930.37 27.0843 1935.71 19.0636 Q1941.1 11.0023 1951.27 11.0023 Z" fill="#000000" fill-rule="nonzero" fill-opacity="1" /><path clip-path="url(#clip840)" d="M2004.05 17.4837 Q1997.73 17.4837 1994.53 23.7221 Q1991.37 29.92 1991.37 42.3968 Q1991.37 54.833 1994.53 61.0714 Q1997.73 67.2693 2004.05 67.2693 Q2010.41 67.2693 2013.57 61.0714 Q2016.77 54.833 2016.77 42.3968 Q2016.77 29.92 2013.57 23.7221 Q2010.41 17.4837 2004.05 17.4837 M2004.05 11.0023 Q2014.22 11.0023 2019.57 19.0636 Q2024.95 27.0843 2024.95 42.3968 Q2024.95 57.6687 2019.57 65.73 Q2014.22 73.7508 2004.05 73.7508 Q1993.88 73.7508 1988.5 65.73 Q1983.15 57.6687 1983.15 42.3968 Q1983.15 27.0843 1988.5 19.0636 Q1993.88 11.0023 2004.05 11.0023 Z" fill="#000000" fill-rule="nonzero" fill-opacity="1" /><path clip-path="url(#clip840)" d="M2040.19 62.2867 L2048.73 62.2867 L2048.73 69.2543 L2042.09 82.2172 L2036.86 82.2172 L2040.19 69.2543 L2040.19 62.2867 Z" fill="#000000" fill-rule="nonzero" fill-opacity="1" /><path clip-path="url(#clip840)" d="M2090.74 9.54393 L2098.24 9.54393 L2098.24 46.7717 L2120.47 27.2059 L2129.99 27.2059 L2105.93 48.4326 L2131.01 72.576 L2121.28 72.576 L2098.24 50.4176 L2098.24 72.576 L2090.74 72.576 L2090.74 9.54393 Z" fill="#000000" fill-rule="nonzero" fill-opacity="1" /><path clip-path="url(#clip840)" d="M2140.04 34.9026 L2191.97 34.9026 L2191.97 41.7081 L2140.04 41.7081 L2140.04 34.9026 M2140.04 51.4303 L2191.97 51.4303 L2191.97 58.3168 L2140.04 58.3168 L2140.04 51.4303 Z" fill="#000000" fill-rule="nonzero" fill-opacity="1" /><path clip-path="url(#clip840)" d="M2228.15 39.075 Q2222.64 39.075 2219.4 42.8424 Q2216.2 46.6097 2216.2 53.1722 Q2216.2 59.6941 2219.4 63.502 Q2222.64 67.2693 2228.15 67.2693 Q2233.66 67.2693 2236.86 63.502 Q2240.1 59.6941 2240.1 53.1722 Q2240.1 46.6097 2236.86 42.8424 Q2233.66 39.075 2228.15 39.075 M2244.39 13.4328 L2244.39 20.8865 Q2241.31 19.4281 2238.15 18.6585 Q2235.03 17.8888 2231.96 17.8888 Q2223.85 17.8888 2219.56 23.3575 Q2215.31 28.8262 2214.7 39.8852 Q2217.09 36.3609 2220.69 34.4975 Q2224.3 32.5936 2228.63 32.5936 Q2237.75 32.5936 2243.01 38.1433 Q2248.32 43.6525 2248.32 53.1722 Q2248.32 62.4892 2242.81 68.12 Q2237.3 73.7508 2228.15 73.7508 Q2217.66 73.7508 2212.11 65.73 Q2206.56 57.6687 2206.56 42.3968 Q2206.56 28.0566 2213.36 19.5497 Q2220.17 11.0023 2231.63 11.0023 Q2234.71 11.0023 2237.83 11.6099 Q2240.99 12.2175 2244.39 13.4328 Z" fill="#000000" fill-rule="nonzero" fill-opacity="1" /><path clip-path="url(#clip840)" d="M2260.19 9.62495 L2266.67 9.62495 Q2272.75 19.1851 2275.75 28.3401 Q2278.78 37.4952 2278.78 46.5287 Q2278.78 55.6027 2275.75 64.7983 Q2272.75 73.9938 2266.67 83.5134 L2260.19 83.5134 Q2265.58 74.2369 2268.21 65.0818 Q2270.88 55.8863 2270.88 46.5287 Q2270.88 37.1711 2268.21 28.0566 Q2265.58 18.942 2260.19 9.62495 Z" fill="#000000" fill-rule="nonzero" fill-opacity="1" /><polyline clip-path="url(#clip841)" style="stroke:#ff0000; stroke-linecap:round; stroke-linejoin:round; stroke-width:8; stroke-opacity:1; fill:none" stroke-dasharray="32, 20" points="267.183,1136.07 275.909,1132.54 284.635,1127.85 293.361,1121.43 302.087,1112.51 310.813,1100.04 319.539,1082.6 328.265,1058.32 336.991,1024.88 345.718,979.593 354.444,919.779 363.17,843.56 371.896,750.963 380.622,645.14 389.348,532.822 398.074,423.444 406.8,326.554 415.526,249.334 424.252,195.004 432.978,163.067 441.704,150.518 450.431,153.496 459.157,167.966 467.883,190.597 476.609,218.702 485.335,250.226 494.061,283.724 502.787,318.135 511.513,352.728 520.239,387.003 528.965,420.614 537.691,453.334 546.417,485.022 555.144,515.589 563.87,544.988 572.596,573.202 581.322,600.232 590.048,626.094 598.774,650.812 607.5,674.419 616.226,696.949 624.952,718.439 633.678,738.93 642.404,758.462 651.13,777.073 659.857,794.803 668.583,811.69 677.309,827.772 686.035,843.085 694.761,857.665 703.487,871.544 712.213,884.756 720.939,897.331 729.665,909.3 738.391,920.691 747.117,931.531 755.843,941.848 764.57,951.665 773.296,961.007 782.022,969.896 790.748,978.354 799.474,986.402 808.2,994.059 816.926,1001.34 825.652,1008.28 834.378,1014.87 843.104,1021.15 851.83,1027.12 860.556,1032.8 869.283,1038.2 878.009,1043.34 886.735,1048.23 895.461,1052.89 904.187,1057.32 912.913,1061.53 921.639,1065.53 930.365,1069.35 939.091,1072.97 947.817,1076.42 956.543,1079.71 965.269,1082.83 973.996,1085.8 982.722,1088.62 991.448,1091.31 1000.17,1093.87 1008.9,1096.3 1017.63,1098.62 1026.35,1100.82 1035.08,1102.91 1043.8,1104.91 1052.53,1106.8 1061.26,1108.61 1069.98,1110.32 1078.71,1111.95 1087.43,1113.51 1096.16,1114.98 1104.89,1116.39 1113.61,1117.72 1122.34,1119 1131.07,1120.21 1139.79,1121.36 1148.52,1122.45 1157.24,1123.49 1165.97,1124.48 1174.7,1125.43 1183.42,1126.32 1192.15,1127.17 1200.87,1127.99 1209.6,1128.76 1218.33,1129.49 1227.05,1130.19 1235.78,1130.85 1244.5,1131.49 1253.23,1132.09 1261.96,1132.66 1270.68,1133.2 1279.41,1133.72 1288.13,1134.21 1296.86,1134.68 1305.59,1135.13 1314.31,1135.55 1323.04,1135.95 1331.76,1136.34 1340.49,1136.7 1349.22,1137.05 1357.94,1137.38 1366.67,1137.69 1375.4,1137.99 1384.12,1138.28 1392.85,1138.55 1401.57,1138.81 1410.3,1139.05 1419.03,1139.28 1427.75,1139.5 1436.48,1139.71 1445.2,1139.91 1453.93,1140.11 1462.66,1140.29 1471.38,1140.46 1480.11,1140.62 1488.83,1140.78 1497.56,1140.93 1506.29,1141.07 1515.01,1141.2 1523.74,1141.33 1532.46,1141.45 1541.19,1141.57 1549.92,1141.68 1558.64,1141.78 1567.37,1141.88 1576.1,1141.98 1584.82,1142.07 1593.55,1142.15 1602.27,1142.24 1611,1142.31 1619.73,1142.39 1628.45,1142.46 1637.18,1142.52 1645.9,1142.59 1654.63,1142.65 1663.36,1142.71 1672.08,1142.76 1680.81,1142.81 1689.53,1142.86 1698.26,1142.91 1706.99,1142.95 1715.71,1143 1724.44,1143.04 1733.16,1143.08 1741.89,1143.11 1750.62,1143.15 1759.34,1143.18 1768.07,1143.21 1776.8,1143.24 1785.52,1143.27 1794.25,1143.3 1802.97,1143.32 1811.7,1143.35 1820.43,1143.37 1829.15,1143.39 1837.88,1143.41 1846.6,1143.43 1855.33,1143.45 1864.06,1143.47 1872.78,1143.49 1881.51,1143.51 1890.23,1143.52 1898.96,1143.54 1907.69,1143.55 1916.41,1143.56 1925.14,1143.58 1933.86,1143.59 1942.59,1143.6 1951.32,1143.61 1960.04,1143.62 1968.77,1143.63 1977.5,1143.64 1986.22,1143.65 1994.95,1143.66 2003.67,1143.67 2012.4,1143.68 "/>
<polyline clip-path="url(#clip841)" style="stroke:#0000ff; stroke-linecap:round; stroke-linejoin:round; stroke-width:8; stroke-opacity:1; fill:none" points="267.183,1136.07 275.909,1132.58 284.635,1128.17 293.361,1122.59 302.087,1115.55 310.813,1106.67 319.539,1095.51 328.265,1081.51 336.991,1064.04 345.718,1042.38 354.444,1015.72 363.17,983.257 371.896,944.247 380.622,898.128 389.348,844.684 398.074,784.221 406.8,717.759 415.526,647.027 424.252,574.662 432.978,503.895 441.704,437.869 450.431,379.662 459.157,331.639 467.883,295.244 476.609,270.874 485.335,257.754 494.061,255.05 502.787,261.078 511.513,274.186 520.239,292.781 528.965,315.427 537.691,340.951 546.417,368.361 555.144,396.888 563.87,425.942 572.596,455.074 581.322,483.947 590.048,512.328 598.774,540.042 607.5,566.967 616.226,593.03 624.952,618.179 633.678,642.389 642.404,665.652 651.13,687.969 659.857,709.353 668.583,729.821 677.309,749.397 686.035,768.106 694.761,785.976 703.487,803.037 712.213,819.318 720.939,834.85 729.665,849.662 738.391,863.785 747.117,877.246 755.843,890.076 764.57,902.301 773.296,913.947 782.022,925.042 790.748,935.609 799.474,945.673 808.2,955.257 816.926,964.383 825.652,973.071 834.378,981.343 843.104,989.219 851.83,996.715 860.556,1003.85 869.283,1010.64 878.009,1017.11 886.735,1023.26 895.461,1029.12 904.187,1034.69 912.913,1039.99 921.639,1045.04 930.365,1049.84 939.091,1054.41 947.817,1058.76 956.543,1062.9 965.269,1066.84 973.996,1070.58 982.722,1074.15 991.448,1077.54 1000.17,1080.77 1008.9,1083.84 1017.63,1086.76 1026.35,1089.54 1035.08,1092.18 1043.8,1094.7 1052.53,1097.09 1061.26,1099.37 1069.98,1101.53 1078.71,1103.59 1087.43,1105.55 1096.16,1107.42 1104.89,1109.19 1113.61,1110.88 1122.34,1112.49 1131.07,1114.01 1139.79,1115.47 1148.52,1116.85 1157.24,1118.16 1165.97,1119.42 1174.7,1120.6 1183.42,1121.74 1192.15,1122.81 1200.87,1123.84 1209.6,1124.81 1218.33,1125.74 1227.05,1126.62 1235.78,1127.46 1244.5,1128.26 1253.23,1129.02 1261.96,1129.74 1270.68,1130.43 1279.41,1131.08 1288.13,1131.7 1296.86,1132.29 1305.59,1132.86 1314.31,1133.39 1323.04,1133.9 1331.76,1134.38 1340.49,1134.84 1349.22,1135.28 1357.94,1135.7 1366.67,1136.1 1375.4,1136.47 1384.12,1136.83 1392.85,1137.17 1401.57,1137.5 1410.3,1137.81 1419.03,1138.1 1427.75,1138.38 1436.48,1138.64 1445.2,1138.9 1453.93,1139.14 1462.66,1139.37 1471.38,1139.58 1480.11,1139.79 1488.83,1139.99 1497.56,1140.18 1506.29,1140.35 1515.01,1140.52 1523.74,1140.68 1532.46,1140.84 1541.19,1140.98 1549.92,1141.12 1558.64,1141.25 1567.37,1141.38 1576.1,1141.5 1584.82,1141.61 1593.55,1141.72 1602.27,1141.82 1611,1141.92 1619.73,1142.01 1628.45,1142.1 1637.18,1142.19 1645.9,1142.27 1654.63,1142.34 1663.36,1142.42 1672.08,1142.48 1680.81,1142.55 1689.53,1142.61 1698.26,1142.67 1706.99,1142.73 1715.71,1142.78 1724.44,1142.83 1733.16,1142.88 1741.89,1142.93 1750.62,1142.97 1759.34,1143.01 1768.07,1143.05 1776.8,1143.09 1785.52,1143.13 1794.25,1143.16 1802.97,1143.19 1811.7,1143.22 1820.43,1143.25 1829.15,1143.28 1837.88,1143.31 1846.6,1143.33 1855.33,1143.36 1864.06,1143.38 1872.78,1143.4 1881.51,1143.42 1890.23,1143.44 1898.96,1143.46 1907.69,1143.48 1916.41,1143.5 1925.14,1143.51 1933.86,1143.53 1942.59,1143.54 1951.32,1143.56 1960.04,1143.57 1968.77,1143.58 1977.5,1143.59 1986.22,1143.61 1994.95,1143.62 2003.67,1143.63 2012.4,1143.64 "/>
<path clip-path="url(#clip840)" d="M1244.91 311.335 L2003.09 311.335 L2003.09 155.815 L1244.91 155.815  Z" fill="#ffffff" fill-rule="evenodd" fill-opacity="1"/>
<polyline clip-path="url(#clip840)" style="stroke:#000000; stroke-linecap:round; stroke-linejoin:round; stroke-width:4; stroke-opacity:1; fill:none" points="1244.91,311.335 2003.09,311.335 2003.09,155.815 1244.91,155.815 1244.91,311.335 "/>
<polyline clip-path="url(#clip840)" style="stroke:#ff0000; stroke-linecap:round; stroke-linejoin:round; stroke-width:8; stroke-opacity:1; fill:none" stroke-dasharray="32, 20" points="1265.46,207.655 1388.79,207.655 "/>
<path clip-path="url(#clip840)" d="M1409.35 190.375 L1414.02 190.375 L1414.02 224.935 L1409.35 224.935 L1409.35 190.375 Z" fill="#000000" fill-rule="nonzero" fill-opacity="1" /><path clip-path="url(#clip840)" d="M1444.69 209.287 L1444.69 224.935 L1440.43 224.935 L1440.43 209.425 Q1440.43 205.745 1439 203.916 Q1437.56 202.088 1434.69 202.088 Q1431.24 202.088 1429.25 204.287 Q1427.26 206.486 1427.26 210.282 L1427.26 224.935 L1422.98 224.935 L1422.98 199.009 L1427.26 199.009 L1427.26 203.037 Q1428.79 200.699 1430.85 199.541 Q1432.93 198.384 1435.64 198.384 Q1440.11 198.384 1442.4 201.162 Q1444.69 203.916 1444.69 209.287 Z" fill="#000000" fill-rule="nonzero" fill-opacity="1" /><path clip-path="url(#clip840)" d="M1470.25 202.944 L1470.25 188.916 L1474.51 188.916 L1474.51 224.935 L1470.25 224.935 L1470.25 221.046 Q1468.91 223.361 1466.85 224.495 Q1464.81 225.606 1461.94 225.606 Q1457.24 225.606 1454.28 221.856 Q1451.34 218.106 1451.34 211.995 Q1451.34 205.884 1454.28 202.134 Q1457.24 198.384 1461.94 198.384 Q1464.81 198.384 1466.85 199.518 Q1468.91 200.629 1470.25 202.944 M1455.73 211.995 Q1455.73 216.694 1457.66 219.379 Q1459.6 222.041 1462.98 222.041 Q1466.36 222.041 1468.3 219.379 Q1470.25 216.694 1470.25 211.995 Q1470.25 207.296 1468.3 204.634 Q1466.36 201.949 1462.98 201.949 Q1459.6 201.949 1457.66 204.634 Q1455.73 207.296 1455.73 211.995 Z" fill="#000000" fill-rule="nonzero" fill-opacity="1" /><path clip-path="url(#clip840)" d="M1483.28 199.009 L1487.54 199.009 L1487.54 224.935 L1483.28 224.935 L1483.28 199.009 M1483.28 188.916 L1487.54 188.916 L1487.54 194.31 L1483.28 194.31 L1483.28 188.916 Z" fill="#000000" fill-rule="nonzero" fill-opacity="1" /><path clip-path="url(#clip840)" d="M1493.4 199.009 L1497.91 199.009 L1506.01 220.768 L1514.11 199.009 L1518.63 199.009 L1508.91 224.935 L1503.12 224.935 L1493.4 199.009 Z" fill="#000000" fill-rule="nonzero" fill-opacity="1" /><path clip-path="url(#clip840)" d="M1524.51 199.009 L1528.77 199.009 L1528.77 224.935 L1524.51 224.935 L1524.51 199.009 M1524.51 188.916 L1528.77 188.916 L1528.77 194.31 L1524.51 194.31 L1524.51 188.916 Z" fill="#000000" fill-rule="nonzero" fill-opacity="1" /><path clip-path="url(#clip840)" d="M1554.74 202.944 L1554.74 188.916 L1559 188.916 L1559 224.935 L1554.74 224.935 L1554.74 221.046 Q1553.4 223.361 1551.34 224.495 Q1549.3 225.606 1546.43 225.606 Q1541.73 225.606 1538.77 221.856 Q1535.83 218.106 1535.83 211.995 Q1535.83 205.884 1538.77 202.134 Q1541.73 198.384 1546.43 198.384 Q1549.3 198.384 1551.34 199.518 Q1553.4 200.629 1554.74 202.944 M1540.22 211.995 Q1540.22 216.694 1542.15 219.379 Q1544.09 222.041 1547.47 222.041 Q1550.85 222.041 1552.79 219.379 Q1554.74 216.694 1554.74 211.995 Q1554.74 207.296 1552.79 204.634 Q1550.85 201.949 1547.47 201.949 Q1544.09 201.949 1542.15 204.634 Q1540.22 207.296 1540.22 211.995 Z" fill="#000000" fill-rule="nonzero" fill-opacity="1" /><path clip-path="url(#clip840)" d="M1567.33 214.703 L1567.33 199.009 L1571.59 199.009 L1571.59 214.541 Q1571.59 218.222 1573.03 220.074 Q1574.46 221.902 1577.33 221.902 Q1580.78 221.902 1582.77 219.703 Q1584.78 217.504 1584.78 213.708 L1584.78 199.009 L1589.04 199.009 L1589.04 224.935 L1584.78 224.935 L1584.78 220.953 Q1583.23 223.314 1581.17 224.472 Q1579.14 225.606 1576.43 225.606 Q1571.96 225.606 1569.65 222.828 Q1567.33 220.05 1567.33 214.703 M1578.05 198.384 L1578.05 198.384 Z" fill="#000000" fill-rule="nonzero" fill-opacity="1" /><path clip-path="url(#clip840)" d="M1609.6 211.902 Q1604.44 211.902 1602.45 213.083 Q1600.46 214.263 1600.46 217.111 Q1600.46 219.379 1601.94 220.722 Q1603.44 222.041 1606.01 222.041 Q1609.55 222.041 1611.68 219.541 Q1613.84 217.018 1613.84 212.851 L1613.84 211.902 L1609.6 211.902 M1618.09 210.143 L1618.09 224.935 L1613.84 224.935 L1613.84 220.999 Q1612.38 223.361 1610.2 224.495 Q1608.02 225.606 1604.88 225.606 Q1600.9 225.606 1598.53 223.384 Q1596.2 221.138 1596.2 217.388 Q1596.2 213.013 1599.11 210.791 Q1602.05 208.569 1607.86 208.569 L1613.84 208.569 L1613.84 208.152 Q1613.84 205.213 1611.89 203.615 Q1609.97 201.995 1606.47 201.995 Q1604.25 201.995 1602.15 202.527 Q1600.04 203.06 1598.09 204.125 L1598.09 200.189 Q1600.43 199.287 1602.63 198.847 Q1604.83 198.384 1606.91 198.384 Q1612.54 198.384 1615.32 201.3 Q1618.09 204.217 1618.09 210.143 Z" fill="#000000" fill-rule="nonzero" fill-opacity="1" /><path clip-path="url(#clip840)" d="M1626.87 188.916 L1631.13 188.916 L1631.13 224.935 L1626.87 224.935 L1626.87 188.916 Z" fill="#000000" fill-rule="nonzero" fill-opacity="1" /><path clip-path="url(#clip840)" d="M1637.89 210.05 L1650.36 210.05 L1650.36 213.847 L1637.89 213.847 L1637.89 210.05 Z" fill="#000000" fill-rule="nonzero" fill-opacity="1" /><path clip-path="url(#clip840)" d="M1675.76 211.995 Q1675.76 207.296 1673.81 204.634 Q1671.89 201.949 1668.51 201.949 Q1665.13 201.949 1663.19 204.634 Q1661.27 207.296 1661.27 211.995 Q1661.27 216.694 1663.19 219.379 Q1665.13 222.041 1668.51 222.041 Q1671.89 222.041 1673.81 219.379 Q1675.76 216.694 1675.76 211.995 M1661.27 202.944 Q1662.61 200.629 1664.64 199.518 Q1666.71 198.384 1669.55 198.384 Q1674.27 198.384 1677.21 202.134 Q1680.18 205.884 1680.18 211.995 Q1680.18 218.106 1677.21 221.856 Q1674.27 225.606 1669.55 225.606 Q1666.71 225.606 1664.64 224.495 Q1662.61 223.361 1661.27 221.046 L1661.27 224.935 L1656.98 224.935 L1656.98 188.916 L1661.27 188.916 L1661.27 202.944 Z" fill="#000000" fill-rule="nonzero" fill-opacity="1" /><path clip-path="url(#clip840)" d="M1699.02 211.902 Q1693.86 211.902 1691.87 213.083 Q1689.88 214.263 1689.88 217.111 Q1689.88 219.379 1691.36 220.722 Q1692.86 222.041 1695.43 222.041 Q1698.97 222.041 1701.1 219.541 Q1703.26 217.018 1703.26 212.851 L1703.26 211.902 L1699.02 211.902 M1707.52 210.143 L1707.52 224.935 L1703.26 224.935 L1703.26 220.999 Q1701.8 223.361 1699.62 224.495 Q1697.45 225.606 1694.3 225.606 Q1690.32 225.606 1687.96 223.384 Q1685.62 221.138 1685.62 217.388 Q1685.62 213.013 1688.53 210.791 Q1691.47 208.569 1697.28 208.569 L1703.26 208.569 L1703.26 208.152 Q1703.26 205.213 1701.31 203.615 Q1699.39 201.995 1695.89 201.995 Q1693.67 201.995 1691.57 202.527 Q1689.46 203.06 1687.52 204.125 L1687.52 200.189 Q1689.85 199.287 1692.05 198.847 Q1694.25 198.384 1696.33 198.384 Q1701.96 198.384 1704.74 201.3 Q1707.52 204.217 1707.52 210.143 Z" fill="#000000" fill-rule="nonzero" fill-opacity="1" /><path clip-path="url(#clip840)" d="M1732.82 199.773 L1732.82 203.8 Q1731.01 202.875 1729.07 202.412 Q1727.12 201.949 1725.04 201.949 Q1721.87 201.949 1720.27 202.921 Q1718.7 203.893 1718.7 205.838 Q1718.7 207.319 1719.83 208.175 Q1720.96 209.009 1724.39 209.773 L1725.85 210.097 Q1730.39 211.069 1732.28 212.851 Q1734.2 214.611 1734.2 217.782 Q1734.2 221.393 1731.33 223.499 Q1728.49 225.606 1723.49 225.606 Q1721.4 225.606 1719.14 225.189 Q1716.89 224.796 1714.39 223.986 L1714.39 219.587 Q1716.75 220.814 1719.04 221.439 Q1721.33 222.041 1723.58 222.041 Q1726.59 222.041 1728.21 221.023 Q1729.83 219.981 1729.83 218.106 Q1729.83 216.37 1728.65 215.444 Q1727.49 214.518 1723.53 213.662 L1722.05 213.314 Q1718.09 212.481 1716.33 210.768 Q1714.58 209.032 1714.58 206.023 Q1714.58 202.365 1717.17 200.375 Q1719.76 198.384 1724.53 198.384 Q1726.89 198.384 1728.97 198.731 Q1731.06 199.078 1732.82 199.773 Z" fill="#000000" fill-rule="nonzero" fill-opacity="1" /><path clip-path="url(#clip840)" d="M1763.16 210.907 L1763.16 212.99 L1743.58 212.99 Q1743.86 217.388 1746.22 219.703 Q1748.6 221.995 1752.84 221.995 Q1755.29 221.995 1757.58 221.393 Q1759.9 220.791 1762.17 219.587 L1762.17 223.615 Q1759.88 224.587 1757.47 225.097 Q1755.06 225.606 1752.58 225.606 Q1746.38 225.606 1742.75 221.995 Q1739.14 218.384 1739.14 212.226 Q1739.14 205.861 1742.56 202.134 Q1746.01 198.384 1751.84 198.384 Q1757.08 198.384 1760.11 201.763 Q1763.16 205.12 1763.16 210.907 M1758.9 209.657 Q1758.86 206.162 1756.94 204.078 Q1755.04 201.995 1751.89 201.995 Q1748.33 201.995 1746.17 204.009 Q1744.04 206.023 1743.72 209.68 L1758.9 209.657 Z" fill="#000000" fill-rule="nonzero" fill-opacity="1" /><path clip-path="url(#clip840)" d="M1787.21 202.944 L1787.21 188.916 L1791.47 188.916 L1791.47 224.935 L1787.21 224.935 L1787.21 221.046 Q1785.87 223.361 1783.81 224.495 Q1781.77 225.606 1778.9 225.606 Q1774.2 225.606 1771.24 221.856 Q1768.3 218.106 1768.3 211.995 Q1768.3 205.884 1771.24 202.134 Q1774.2 198.384 1778.9 198.384 Q1781.77 198.384 1783.81 199.518 Q1785.87 200.629 1787.21 202.944 M1772.7 211.995 Q1772.7 216.694 1774.62 219.379 Q1776.57 222.041 1779.95 222.041 Q1783.32 222.041 1785.27 219.379 Q1787.21 216.694 1787.21 211.995 Q1787.21 207.296 1785.27 204.634 Q1783.32 201.949 1779.95 201.949 Q1776.57 201.949 1774.62 204.634 Q1772.7 207.296 1772.7 211.995 Z" fill="#000000" fill-rule="nonzero" fill-opacity="1" /><path clip-path="url(#clip840)" d="M1825.55 188.963 Q1822.45 194.287 1820.94 199.495 Q1819.44 204.703 1819.44 210.05 Q1819.44 215.398 1820.94 220.652 Q1822.47 225.884 1825.55 231.185 L1821.84 231.185 Q1818.37 225.745 1816.63 220.49 Q1814.92 215.236 1814.92 210.05 Q1814.92 204.888 1816.63 199.657 Q1818.35 194.426 1821.84 188.963 L1825.55 188.963 Z" fill="#000000" fill-rule="nonzero" fill-opacity="1" /><path clip-path="url(#clip840)" d="M1850.87 211.671 Q1850.87 207.041 1848.95 204.495 Q1847.05 201.949 1843.6 201.949 Q1840.18 201.949 1838.26 204.495 Q1836.36 207.041 1836.36 211.671 Q1836.36 216.277 1838.26 218.824 Q1840.18 221.37 1843.6 221.37 Q1847.05 221.37 1848.95 218.824 Q1850.87 216.277 1850.87 211.671 M1855.13 221.717 Q1855.13 228.337 1852.19 231.555 Q1849.25 234.796 1843.19 234.796 Q1840.94 234.796 1838.95 234.448 Q1836.96 234.124 1835.08 233.43 L1835.08 229.286 Q1836.96 230.305 1838.79 230.791 Q1840.62 231.277 1842.51 231.277 Q1846.7 231.277 1848.79 229.078 Q1850.87 226.902 1850.87 222.481 L1850.87 220.374 Q1849.55 222.666 1847.49 223.8 Q1845.43 224.935 1842.56 224.935 Q1837.79 224.935 1834.88 221.3 Q1831.96 217.666 1831.96 211.671 Q1831.96 205.652 1834.88 202.018 Q1837.79 198.384 1842.56 198.384 Q1845.43 198.384 1847.49 199.518 Q1849.55 200.652 1850.87 202.944 L1850.87 199.009 L1855.13 199.009 L1855.13 221.717 Z" fill="#000000" fill-rule="nonzero" fill-opacity="1" /><path clip-path="url(#clip840)" d="M1878.93 202.99 Q1878.21 202.574 1877.35 202.388 Q1876.52 202.18 1875.5 202.18 Q1871.89 202.18 1869.94 204.541 Q1868.02 206.879 1868.02 211.277 L1868.02 224.935 L1863.74 224.935 L1863.74 199.009 L1868.02 199.009 L1868.02 203.037 Q1869.37 200.675 1871.52 199.541 Q1873.67 198.384 1876.75 198.384 Q1877.19 198.384 1877.72 198.453 Q1878.25 198.5 1878.9 198.615 L1878.93 202.99 Z" fill="#000000" fill-rule="nonzero" fill-opacity="1" /><path clip-path="url(#clip840)" d="M1895.18 211.902 Q1890.01 211.902 1888.02 213.083 Q1886.03 214.263 1886.03 217.111 Q1886.03 219.379 1887.51 220.722 Q1889.02 222.041 1891.59 222.041 Q1895.13 222.041 1897.26 219.541 Q1899.41 217.018 1899.41 212.851 L1899.41 211.902 L1895.18 211.902 M1903.67 210.143 L1903.67 224.935 L1899.41 224.935 L1899.41 220.999 Q1897.95 223.361 1895.78 224.495 Q1893.6 225.606 1890.45 225.606 Q1886.47 225.606 1884.11 223.384 Q1881.77 221.138 1881.77 217.388 Q1881.77 213.013 1884.69 210.791 Q1887.63 208.569 1893.44 208.569 L1899.41 208.569 L1899.41 208.152 Q1899.41 205.213 1897.47 203.615 Q1895.55 201.995 1892.05 201.995 Q1889.83 201.995 1887.72 202.527 Q1885.62 203.06 1883.67 204.125 L1883.67 200.189 Q1886.01 199.287 1888.21 198.847 Q1890.41 198.384 1892.49 198.384 Q1898.12 198.384 1900.89 201.3 Q1903.67 204.217 1903.67 210.143 Z" fill="#000000" fill-rule="nonzero" fill-opacity="1" /><path clip-path="url(#clip840)" d="M1916.56 221.046 L1916.56 234.796 L1912.28 234.796 L1912.28 199.009 L1916.56 199.009 L1916.56 202.944 Q1917.91 200.629 1919.94 199.518 Q1922 198.384 1924.85 198.384 Q1929.57 198.384 1932.51 202.134 Q1935.48 205.884 1935.48 211.995 Q1935.48 218.106 1932.51 221.856 Q1929.57 225.606 1924.85 225.606 Q1922 225.606 1919.94 224.495 Q1917.91 223.361 1916.56 221.046 M1931.06 211.995 Q1931.06 207.296 1929.11 204.634 Q1927.19 201.949 1923.81 201.949 Q1920.43 201.949 1918.49 204.634 Q1916.56 207.296 1916.56 211.995 Q1916.56 216.694 1918.49 219.379 Q1920.43 222.041 1923.81 222.041 Q1927.19 222.041 1929.11 219.379 Q1931.06 216.694 1931.06 211.995 Z" fill="#000000" fill-rule="nonzero" fill-opacity="1" /><path clip-path="url(#clip840)" d="M1964.09 209.287 L1964.09 224.935 L1959.83 224.935 L1959.83 209.425 Q1959.83 205.745 1958.39 203.916 Q1956.96 202.088 1954.09 202.088 Q1950.64 202.088 1948.65 204.287 Q1946.66 206.486 1946.66 210.282 L1946.66 224.935 L1942.37 224.935 L1942.37 188.916 L1946.66 188.916 L1946.66 203.037 Q1948.19 200.699 1950.25 199.541 Q1952.33 198.384 1955.04 198.384 Q1959.5 198.384 1961.8 201.162 Q1964.09 203.916 1964.09 209.287 Z" fill="#000000" fill-rule="nonzero" fill-opacity="1" /><path clip-path="url(#clip840)" d="M1971.91 188.963 L1975.62 188.963 Q1979.09 194.426 1980.8 199.657 Q1982.54 204.888 1982.54 210.05 Q1982.54 215.236 1980.8 220.49 Q1979.09 225.745 1975.62 231.185 L1971.91 231.185 Q1974.99 225.884 1976.5 220.652 Q1978.02 215.398 1978.02 210.05 Q1978.02 204.703 1976.5 199.495 Q1974.99 194.287 1971.91 188.963 Z" fill="#000000" fill-rule="nonzero" fill-opacity="1" /><polyline clip-path="url(#clip840)" style="stroke:#0000ff; stroke-linecap:round; stroke-linejoin:round; stroke-width:8; stroke-opacity:1; fill:none" points="1265.46,259.495 1388.79,259.495 "/>
<path clip-path="url(#clip840)" d="M1414.02 246.057 L1414.02 259.043 L1419.9 259.043 Q1423.16 259.043 1424.95 257.353 Q1426.73 255.664 1426.73 252.539 Q1426.73 249.437 1424.95 247.747 Q1423.16 246.057 1419.9 246.057 L1414.02 246.057 M1409.35 242.215 L1419.9 242.215 Q1425.71 242.215 1428.67 244.854 Q1431.66 247.469 1431.66 252.539 Q1431.66 257.654 1428.67 260.27 Q1425.71 262.886 1419.9 262.886 L1414.02 262.886 L1414.02 276.775 L1409.35 276.775 L1409.35 242.215 Z" fill="#000000" fill-rule="nonzero" fill-opacity="1" /><path clip-path="url(#clip840)" d="M1447.4 263.742 Q1442.24 263.742 1440.25 264.923 Q1438.26 266.103 1438.26 268.951 Q1438.26 271.219 1439.74 272.562 Q1441.24 273.881 1443.81 273.881 Q1447.35 273.881 1449.48 271.381 Q1451.64 268.858 1451.64 264.691 L1451.64 263.742 L1447.4 263.742 M1455.9 261.983 L1455.9 276.775 L1451.64 276.775 L1451.64 272.839 Q1450.18 275.201 1448 276.335 Q1445.83 277.446 1442.68 277.446 Q1438.7 277.446 1436.34 275.224 Q1434 272.978 1434 269.228 Q1434 264.853 1436.91 262.631 Q1439.85 260.409 1445.66 260.409 L1451.64 260.409 L1451.64 259.992 Q1451.64 257.053 1449.69 255.455 Q1447.77 253.835 1444.28 253.835 Q1442.05 253.835 1439.95 254.367 Q1437.84 254.9 1435.9 255.965 L1435.9 252.029 Q1438.23 251.127 1440.43 250.687 Q1442.63 250.224 1444.72 250.224 Q1450.34 250.224 1453.12 253.14 Q1455.9 256.057 1455.9 261.983 Z" fill="#000000" fill-rule="nonzero" fill-opacity="1" /><path clip-path="url(#clip840)" d="M1464.67 250.849 L1468.93 250.849 L1468.93 276.775 L1464.67 276.775 L1464.67 250.849 M1464.67 240.756 L1468.93 240.756 L1468.93 246.15 L1464.67 246.15 L1464.67 240.756 Z" fill="#000000" fill-rule="nonzero" fill-opacity="1" /><path clip-path="url(#clip840)" d="M1492.86 254.83 Q1492.15 254.414 1491.29 254.228 Q1490.46 254.02 1489.44 254.02 Q1485.83 254.02 1483.88 256.381 Q1481.96 258.719 1481.96 263.117 L1481.96 276.775 L1477.68 276.775 L1477.68 250.849 L1481.96 250.849 L1481.96 254.877 Q1483.3 252.515 1485.46 251.381 Q1487.61 250.224 1490.69 250.224 Q1491.13 250.224 1491.66 250.293 Q1492.19 250.34 1492.84 250.455 L1492.86 254.83 Z" fill="#000000" fill-rule="nonzero" fill-opacity="1" /><path clip-path="url(#clip840)" d="M1492.15 261.89 L1504.62 261.89 L1504.62 265.687 L1492.15 265.687 L1492.15 261.89 Z" fill="#000000" fill-rule="nonzero" fill-opacity="1" /><path clip-path="url(#clip840)" d="M1530.02 263.835 Q1530.02 259.136 1528.07 256.474 Q1526.15 253.789 1522.77 253.789 Q1519.39 253.789 1517.45 256.474 Q1515.53 259.136 1515.53 263.835 Q1515.53 268.534 1517.45 271.219 Q1519.39 273.881 1522.77 273.881 Q1526.15 273.881 1528.07 271.219 Q1530.02 268.534 1530.02 263.835 M1515.53 254.784 Q1516.87 252.469 1518.91 251.358 Q1520.97 250.224 1523.81 250.224 Q1528.53 250.224 1531.47 253.974 Q1534.44 257.724 1534.44 263.835 Q1534.44 269.946 1531.47 273.696 Q1528.53 277.446 1523.81 277.446 Q1520.97 277.446 1518.91 276.335 Q1516.87 275.201 1515.53 272.886 L1515.53 276.775 L1511.24 276.775 L1511.24 240.756 L1515.53 240.756 L1515.53 254.784 Z" fill="#000000" fill-rule="nonzero" fill-opacity="1" /><path clip-path="url(#clip840)" d="M1553.28 263.742 Q1548.12 263.742 1546.13 264.923 Q1544.14 266.103 1544.14 268.951 Q1544.14 271.219 1545.62 272.562 Q1547.12 273.881 1549.69 273.881 Q1553.23 273.881 1555.36 271.381 Q1557.52 268.858 1557.52 264.691 L1557.52 263.742 L1553.28 263.742 M1561.78 261.983 L1561.78 276.775 L1557.52 276.775 L1557.52 272.839 Q1556.06 275.201 1553.88 276.335 Q1551.71 277.446 1548.56 277.446 Q1544.58 277.446 1542.22 275.224 Q1539.88 272.978 1539.88 269.228 Q1539.88 264.853 1542.79 262.631 Q1545.73 260.409 1551.54 260.409 L1557.52 260.409 L1557.52 259.992 Q1557.52 257.053 1555.57 255.455 Q1553.65 253.835 1550.15 253.835 Q1547.93 253.835 1545.83 254.367 Q1543.72 254.9 1541.78 255.965 L1541.78 252.029 Q1544.11 251.127 1546.31 250.687 Q1548.51 250.224 1550.59 250.224 Q1556.22 250.224 1559 253.14 Q1561.78 256.057 1561.78 261.983 Z" fill="#000000" fill-rule="nonzero" fill-opacity="1" /><path clip-path="url(#clip840)" d="M1587.08 251.613 L1587.08 255.64 Q1585.27 254.715 1583.33 254.252 Q1581.38 253.789 1579.3 253.789 Q1576.13 253.789 1574.53 254.761 Q1572.96 255.733 1572.96 257.678 Q1572.96 259.159 1574.09 260.015 Q1575.22 260.849 1578.65 261.613 L1580.11 261.937 Q1584.65 262.909 1586.54 264.691 Q1588.46 266.451 1588.46 269.622 Q1588.46 273.233 1585.59 275.339 Q1582.75 277.446 1577.75 277.446 Q1575.66 277.446 1573.4 277.029 Q1571.15 276.636 1568.65 275.826 L1568.65 271.427 Q1571.01 272.654 1573.3 273.279 Q1575.59 273.881 1577.84 273.881 Q1580.85 273.881 1582.47 272.863 Q1584.09 271.821 1584.09 269.946 Q1584.09 268.21 1582.91 267.284 Q1581.75 266.358 1577.79 265.502 L1576.31 265.154 Q1572.35 264.321 1570.59 262.608 Q1568.84 260.872 1568.84 257.863 Q1568.84 254.205 1571.43 252.215 Q1574.02 250.224 1578.79 250.224 Q1581.15 250.224 1583.23 250.571 Q1585.32 250.918 1587.08 251.613 Z" fill="#000000" fill-rule="nonzero" fill-opacity="1" /><path clip-path="url(#clip840)" d="M1617.42 262.747 L1617.42 264.83 L1597.84 264.83 Q1598.12 269.228 1600.48 271.543 Q1602.86 273.835 1607.1 273.835 Q1609.55 273.835 1611.84 273.233 Q1614.16 272.631 1616.43 271.427 L1616.43 275.455 Q1614.14 276.427 1611.73 276.937 Q1609.32 277.446 1606.84 277.446 Q1600.64 277.446 1597.01 273.835 Q1593.4 270.224 1593.4 264.066 Q1593.4 257.701 1596.82 253.974 Q1600.27 250.224 1606.1 250.224 Q1611.34 250.224 1614.37 253.603 Q1617.42 256.96 1617.42 262.747 M1613.16 261.497 Q1613.12 258.002 1611.2 255.918 Q1609.3 253.835 1606.15 253.835 Q1602.59 253.835 1600.43 255.849 Q1598.3 257.863 1597.98 261.52 L1613.16 261.497 Z" fill="#000000" fill-rule="nonzero" fill-opacity="1" /><path clip-path="url(#clip840)" d="M1641.47 254.784 L1641.47 240.756 L1645.73 240.756 L1645.73 276.775 L1641.47 276.775 L1641.47 272.886 Q1640.13 275.201 1638.07 276.335 Q1636.03 277.446 1633.16 277.446 Q1628.46 277.446 1625.5 273.696 Q1622.56 269.946 1622.56 263.835 Q1622.56 257.724 1625.5 253.974 Q1628.46 250.224 1633.16 250.224 Q1636.03 250.224 1638.07 251.358 Q1640.13 252.469 1641.47 254.784 M1626.96 263.835 Q1626.96 268.534 1628.88 271.219 Q1630.83 273.881 1634.21 273.881 Q1637.58 273.881 1639.53 271.219 Q1641.47 268.534 1641.47 263.835 Q1641.47 259.136 1639.53 256.474 Q1637.58 253.789 1634.21 253.789 Q1630.83 253.789 1628.88 256.474 Q1626.96 259.136 1626.96 263.835 Z" fill="#000000" fill-rule="nonzero" fill-opacity="1" /><path clip-path="url(#clip840)" d="M1679.81 240.803 Q1676.71 246.127 1675.2 251.335 Q1673.7 256.543 1673.7 261.89 Q1673.7 267.238 1675.2 272.492 Q1676.73 277.724 1679.81 283.025 L1676.1 283.025 Q1672.63 277.585 1670.89 272.33 Q1669.18 267.076 1669.18 261.89 Q1669.18 256.728 1670.89 251.497 Q1672.61 246.266 1676.1 240.803 L1679.81 240.803 Z" fill="#000000" fill-rule="nonzero" fill-opacity="1" /><path clip-path="url(#clip840)" d="M1705.13 263.511 Q1705.13 258.881 1703.21 256.335 Q1701.31 253.789 1697.86 253.789 Q1694.44 253.789 1692.52 256.335 Q1690.62 258.881 1690.62 263.511 Q1690.62 268.117 1692.52 270.664 Q1694.44 273.21 1697.86 273.21 Q1701.31 273.21 1703.21 270.664 Q1705.13 268.117 1705.13 263.511 M1709.39 273.557 Q1709.39 280.177 1706.45 283.395 Q1703.51 286.636 1697.45 286.636 Q1695.2 286.636 1693.21 286.288 Q1691.22 285.964 1689.34 285.27 L1689.34 281.126 Q1691.22 282.145 1693.05 282.631 Q1694.88 283.117 1696.77 283.117 Q1700.96 283.117 1703.05 280.918 Q1705.13 278.742 1705.13 274.321 L1705.13 272.214 Q1703.81 274.506 1701.75 275.64 Q1699.69 276.775 1696.82 276.775 Q1692.05 276.775 1689.14 273.14 Q1686.22 269.506 1686.22 263.511 Q1686.22 257.492 1689.14 253.858 Q1692.05 250.224 1696.82 250.224 Q1699.69 250.224 1701.75 251.358 Q1703.81 252.492 1705.13 254.784 L1705.13 250.849 L1709.39 250.849 L1709.39 273.557 Z" fill="#000000" fill-rule="nonzero" fill-opacity="1" /><path clip-path="url(#clip840)" d="M1733.19 254.83 Q1732.47 254.414 1731.61 254.228 Q1730.78 254.02 1729.76 254.02 Q1726.15 254.02 1724.2 256.381 Q1722.28 258.719 1722.28 263.117 L1722.28 276.775 L1718 276.775 L1718 250.849 L1722.28 250.849 L1722.28 254.877 Q1723.63 252.515 1725.78 251.381 Q1727.93 250.224 1731.01 250.224 Q1731.45 250.224 1731.98 250.293 Q1732.52 250.34 1733.16 250.455 L1733.19 254.83 Z" fill="#000000" fill-rule="nonzero" fill-opacity="1" /><path clip-path="url(#clip840)" d="M1749.44 263.742 Q1744.27 263.742 1742.28 264.923 Q1740.29 266.103 1740.29 268.951 Q1740.29 271.219 1741.77 272.562 Q1743.28 273.881 1745.85 273.881 Q1749.39 273.881 1751.52 271.381 Q1753.67 268.858 1753.67 264.691 L1753.67 263.742 L1749.44 263.742 M1757.93 261.983 L1757.93 276.775 L1753.67 276.775 L1753.67 272.839 Q1752.21 275.201 1750.04 276.335 Q1747.86 277.446 1744.71 277.446 Q1740.73 277.446 1738.37 275.224 Q1736.03 272.978 1736.03 269.228 Q1736.03 264.853 1738.95 262.631 Q1741.89 260.409 1747.7 260.409 L1753.67 260.409 L1753.67 259.992 Q1753.67 257.053 1751.73 255.455 Q1749.81 253.835 1746.31 253.835 Q1744.09 253.835 1741.98 254.367 Q1739.88 254.9 1737.93 255.965 L1737.93 252.029 Q1740.27 251.127 1742.47 250.687 Q1744.67 250.224 1746.75 250.224 Q1752.38 250.224 1755.15 253.14 Q1757.93 256.057 1757.93 261.983 Z" fill="#000000" fill-rule="nonzero" fill-opacity="1" /><path clip-path="url(#clip840)" d="M1770.82 272.886 L1770.82 286.636 L1766.54 286.636 L1766.54 250.849 L1770.82 250.849 L1770.82 254.784 Q1772.17 252.469 1774.2 251.358 Q1776.26 250.224 1779.11 250.224 Q1783.83 250.224 1786.77 253.974 Q1789.74 257.724 1789.74 263.835 Q1789.74 269.946 1786.77 273.696 Q1783.83 277.446 1779.11 277.446 Q1776.26 277.446 1774.2 276.335 Q1772.17 275.201 1770.82 272.886 M1785.32 263.835 Q1785.32 259.136 1783.37 256.474 Q1781.45 253.789 1778.07 253.789 Q1774.69 253.789 1772.75 256.474 Q1770.82 259.136 1770.82 263.835 Q1770.82 268.534 1772.75 271.219 Q1774.69 273.881 1778.07 273.881 Q1781.45 273.881 1783.37 271.219 Q1785.32 268.534 1785.32 263.835 Z" fill="#000000" fill-rule="nonzero" fill-opacity="1" /><path clip-path="url(#clip840)" d="M1818.35 261.127 L1818.35 276.775 L1814.09 276.775 L1814.09 261.265 Q1814.09 257.585 1812.65 255.756 Q1811.22 253.928 1808.35 253.928 Q1804.9 253.928 1802.91 256.127 Q1800.92 258.326 1800.92 262.122 L1800.92 276.775 L1796.64 276.775 L1796.64 240.756 L1800.92 240.756 L1800.92 254.877 Q1802.45 252.539 1804.51 251.381 Q1806.59 250.224 1809.3 250.224 Q1813.76 250.224 1816.06 253.002 Q1818.35 255.756 1818.35 261.127 Z" fill="#000000" fill-rule="nonzero" fill-opacity="1" /><path clip-path="url(#clip840)" d="M1826.17 240.803 L1829.88 240.803 Q1833.35 246.266 1835.06 251.497 Q1836.8 256.728 1836.8 261.89 Q1836.8 267.076 1835.06 272.33 Q1833.35 277.585 1829.88 283.025 L1826.17 283.025 Q1829.25 277.724 1830.76 272.492 Q1832.28 267.238 1832.28 261.89 Q1832.28 256.543 1830.76 251.335 Q1829.25 246.127 1826.17 240.803 Z" fill="#000000" fill-rule="nonzero" fill-opacity="1" /></svg>
