<?xml version="1.0" encoding="utf-8"?>
<svg xmlns="http://www.w3.org/2000/svg" xmlns:xlink="http://www.w3.org/1999/xlink" width="528" height="336" viewBox="0 0 2112 1344">
<defs>
  <clipPath id="clip560">
    <rect x="0" y="0" width="2112" height="1344"/>
  </clipPath>
</defs>
<path clip-path="url(#clip560)" d="M0 1344 L2112 1344 L2112 2.13163e-14 L0 2.13163e-14  Z" fill="#ffffff" fill-rule="evenodd" fill-opacity="1"/>
<defs>
  <clipPath id="clip561">
    <rect x="227" y="120" width="1838" height="1054"/>
  </clipPath>
</defs>
<path clip-path="url(#clip560)" d="M227.349 1173.47 L2064.76 1173.47 L2064.76 120.723 L227.349 120.723  Z" fill="#ffffff" fill-rule="evenodd" fill-opacity="1"/>
<polyline clip-path="url(#clip561)" style="stroke:#000000; stroke-linecap:round; stroke-linejoin:round; stroke-width:2; stroke-opacity:0.1; fill:none" points="279.351,1173.47 279.351,120.723 "/>
<polyline clip-path="url(#clip561)" style="stroke:#000000; stroke-linecap:round; stroke-linejoin:round; stroke-width:2; stroke-opacity:0.1; fill:none" points="712.702,1173.47 712.702,120.723 "/>
<polyline clip-path="url(#clip561)" style="stroke:#000000; stroke-linecap:round; stroke-linejoin:round; stroke-width:2; stroke-opacity:0.1; fill:none" points="1146.05,1173.47 1146.05,120.723 "/>
<polyline clip-path="url(#clip561)" style="stroke:#000000; stroke-linecap:round; stroke-linejoin:round; stroke-width:2; stroke-opacity:0.1; fill:none" points="1579.4,1173.47 1579.4,120.723 "/>
<polyline clip-path="url(#clip561)" style="stroke:#000000; stroke-linecap:round; stroke-linejoin:round; stroke-width:2; stroke-opacity:0.1; fill:none" points="2012.75,1173.47 2012.75,120.723 "/>
<polyline clip-path="url(#clip561)" style="stroke:#000000; stroke-linecap:round; stroke-linejoin:round; stroke-width:2; stroke-opacity:0.1; fill:none" points="227.349,1143.68 2064.76,1143.68 "/>
<polyline clip-path="url(#clip561)" style="stroke:#000000; stroke-linecap:round; stroke-linejoin:round; stroke-width:2; stroke-opacity:0.1; fill:none" points="227.349,892.878 2064.76,892.878 "/>
<polyline clip-path="url(#clip561)" style="stroke:#000000; stroke-linecap:round; stroke-linejoin:round; stroke-width:2; stroke-opacity:0.1; fill:none" points="227.349,642.081 2064.76,642.081 "/>
<polyline clip-path="url(#clip561)" style="stroke:#000000; stroke-linecap:round; stroke-linejoin:round; stroke-width:2; stroke-opacity:0.1; fill:none" points="227.349,391.283 2064.76,391.283 "/>
<polyline clip-path="url(#clip561)" style="stroke:#000000; stroke-linecap:round; stroke-linejoin:round; stroke-width:2; stroke-opacity:0.1; fill:none" points="227.349,140.486 2064.76,140.486 "/>
<polyline clip-path="url(#clip560)" style="stroke:#000000; stroke-linecap:round; stroke-linejoin:round; stroke-width:4; stroke-opacity:1; fill:none" points="227.349,1173.47 2064.76,1173.47 "/>
<polyline clip-path="url(#clip560)" style="stroke:#000000; stroke-linecap:round; stroke-linejoin:round; stroke-width:4; stroke-opacity:1; fill:none" points="279.351,1173.47 279.351,1154.57 "/>
<polyline clip-path="url(#clip560)" style="stroke:#000000; stroke-linecap:round; stroke-linejoin:round; stroke-width:4; stroke-opacity:1; fill:none" points="712.702,1173.47 712.702,1154.57 "/>
<polyline clip-path="url(#clip560)" style="stroke:#000000; stroke-linecap:round; stroke-linejoin:round; stroke-width:4; stroke-opacity:1; fill:none" points="1146.05,1173.47 1146.05,1154.57 "/>
<polyline clip-path="url(#clip560)" style="stroke:#000000; stroke-linecap:round; stroke-linejoin:round; stroke-width:4; stroke-opacity:1; fill:none" points="1579.4,1173.47 1579.4,1154.57 "/>
<polyline clip-path="url(#clip560)" style="stroke:#000000; stroke-linecap:round; stroke-linejoin:round; stroke-width:4; stroke-opacity:1; fill:none" points="2012.75,1173.47 2012.75,1154.57 "/>
<path clip-path="url(#clip560)" d="M279.351 1202.09 Q275.74 1202.09 273.912 1205.65 Q272.106 1209.19 272.106 1216.32 Q272.106 1223.43 273.912 1226.99 Q275.74 1230.53 279.351 1230.53 Q282.986 1230.53 284.791 1226.99 Q286.62 1223.43 286.62 1216.32 Q286.62 1209.19 284.791 1205.65 Q282.986 1202.09 279.351 1202.09 M279.351 1198.38 Q285.162 1198.38 288.217 1202.99 Q291.296 1207.57 291.296 1216.32 Q291.296 1225.05 288.217 1229.65 Q285.162 1234.24 279.351 1234.24 Q273.541 1234.24 270.463 1229.65 Q267.407 1225.05 267.407 1216.32 Q267.407 1207.57 270.463 1202.99 Q273.541 1198.38 279.351 1198.38 Z" fill="#000000" fill-rule="nonzero" fill-opacity="1" /><path clip-path="url(#clip560)" d="M691.973 1229.63 L708.292 1229.63 L708.292 1233.57 L686.348 1233.57 L686.348 1229.63 Q689.01 1226.88 693.593 1222.25 Q698.2 1217.59 699.38 1216.25 Q701.626 1213.73 702.505 1211.99 Q703.408 1210.23 703.408 1208.54 Q703.408 1205.79 701.464 1204.05 Q699.542 1202.32 696.441 1202.32 Q694.241 1202.32 691.788 1203.08 Q689.357 1203.84 686.579 1205.4 L686.579 1200.67 Q689.404 1199.54 691.857 1198.96 Q694.311 1198.38 696.348 1198.38 Q701.718 1198.38 704.913 1201.07 Q708.107 1203.75 708.107 1208.24 Q708.107 1210.37 707.297 1212.29 Q706.51 1214.19 704.403 1216.78 Q703.825 1217.46 700.723 1220.67 Q697.621 1223.87 691.973 1229.63 Z" fill="#000000" fill-rule="nonzero" fill-opacity="1" /><path clip-path="url(#clip560)" d="M718.153 1199.01 L736.51 1199.01 L736.51 1202.94 L722.436 1202.94 L722.436 1211.41 Q723.454 1211.07 724.473 1210.9 Q725.491 1210.72 726.51 1210.72 Q732.297 1210.72 735.676 1213.89 Q739.056 1217.06 739.056 1222.48 Q739.056 1228.06 735.584 1231.16 Q732.112 1234.24 725.792 1234.24 Q723.616 1234.24 721.348 1233.87 Q719.102 1233.5 716.695 1232.76 L716.695 1228.06 Q718.778 1229.19 721.001 1229.75 Q723.223 1230.3 725.7 1230.3 Q729.704 1230.3 732.042 1228.2 Q734.38 1226.09 734.38 1222.48 Q734.38 1218.87 732.042 1216.76 Q729.704 1214.65 725.7 1214.65 Q723.825 1214.65 721.95 1215.07 Q720.098 1215.49 718.153 1216.37 L718.153 1199.01 Z" fill="#000000" fill-rule="nonzero" fill-opacity="1" /><path clip-path="url(#clip560)" d="M1120.75 1199.01 L1139.11 1199.01 L1139.11 1202.94 L1125.03 1202.94 L1125.03 1211.41 Q1126.05 1211.07 1127.07 1210.9 Q1128.09 1210.72 1129.11 1210.72 Q1134.9 1210.72 1138.27 1213.89 Q1141.65 1217.06 1141.65 1222.48 Q1141.65 1228.06 1138.18 1231.16 Q1134.71 1234.24 1128.39 1234.24 Q1126.21 1234.24 1123.95 1233.87 Q1121.7 1233.5 1119.29 1232.76 L1119.29 1228.06 Q1121.38 1229.19 1123.6 1229.75 Q1125.82 1230.3 1128.3 1230.3 Q1132.3 1230.3 1134.64 1228.2 Q1136.98 1226.09 1136.98 1222.48 Q1136.98 1218.87 1134.64 1216.76 Q1132.3 1214.65 1128.3 1214.65 Q1126.42 1214.65 1124.55 1215.07 Q1122.7 1215.49 1120.75 1216.37 L1120.75 1199.01 Z" fill="#000000" fill-rule="nonzero" fill-opacity="1" /><path clip-path="url(#clip560)" d="M1160.87 1202.09 Q1157.26 1202.09 1155.43 1205.65 Q1153.62 1209.19 1153.62 1216.32 Q1153.62 1223.43 1155.43 1226.99 Q1157.26 1230.53 1160.87 1230.53 Q1164.5 1230.53 1166.31 1226.99 Q1168.14 1223.43 1168.14 1216.32 Q1168.14 1209.19 1166.31 1205.65 Q1164.5 1202.09 1160.87 1202.09 M1160.87 1198.38 Q1166.68 1198.38 1169.73 1202.99 Q1172.81 1207.57 1172.81 1216.32 Q1172.81 1225.05 1169.73 1229.65 Q1166.68 1234.24 1160.87 1234.24 Q1155.06 1234.24 1151.98 1229.65 Q1148.92 1225.05 1148.92 1216.32 Q1148.92 1207.57 1151.98 1202.99 Q1155.06 1198.38 1160.87 1198.38 Z" fill="#000000" fill-rule="nonzero" fill-opacity="1" /><path clip-path="url(#clip560)" d="M1553.26 1199.01 L1575.48 1199.01 L1575.48 1201 L1562.93 1233.57 L1558.05 1233.57 L1569.85 1202.94 L1553.26 1202.94 L1553.26 1199.01 Z" fill="#000000" fill-rule="nonzero" fill-opacity="1" /><path clip-path="url(#clip560)" d="M1584.65 1199.01 L1603 1199.01 L1603 1202.94 L1588.93 1202.94 L1588.93 1211.41 Q1589.95 1211.07 1590.97 1210.9 Q1591.98 1210.72 1593 1210.72 Q1598.79 1210.72 1602.17 1213.89 Q1605.55 1217.06 1605.55 1222.48 Q1605.55 1228.06 1602.08 1231.16 Q1598.6 1234.24 1592.29 1234.24 Q1590.11 1234.24 1587.84 1233.87 Q1585.6 1233.5 1583.19 1232.76 L1583.19 1228.06 Q1585.27 1229.19 1587.49 1229.75 Q1589.72 1230.3 1592.19 1230.3 Q1596.2 1230.3 1598.54 1228.2 Q1600.87 1226.09 1600.87 1222.48 Q1600.87 1218.87 1598.54 1216.76 Q1596.2 1214.65 1592.19 1214.65 Q1590.32 1214.65 1588.44 1215.07 Q1586.59 1215.49 1584.65 1216.37 L1584.65 1199.01 Z" fill="#000000" fill-rule="nonzero" fill-opacity="1" /><path clip-path="url(#clip560)" d="M1972.36 1229.63 L1980 1229.63 L1980 1203.27 L1971.69 1204.93 L1971.69 1200.67 L1979.95 1199.01 L1984.63 1199.01 L1984.63 1229.63 L1992.27 1229.63 L1992.27 1233.57 L1972.36 1233.57 L1972.36 1229.63 Z" fill="#000000" fill-rule="nonzero" fill-opacity="1" /><path clip-path="url(#clip560)" d="M2011.71 1202.09 Q2008.1 1202.09 2006.27 1205.65 Q2004.47 1209.19 2004.47 1216.32 Q2004.47 1223.43 2006.27 1226.99 Q2008.1 1230.53 2011.71 1230.53 Q2015.35 1230.53 2017.15 1226.99 Q2018.98 1223.43 2018.98 1216.32 Q2018.98 1209.19 2017.15 1205.65 Q2015.35 1202.09 2011.71 1202.09 M2011.71 1198.38 Q2017.52 1198.38 2020.58 1202.99 Q2023.66 1207.57 2023.66 1216.32 Q2023.66 1225.05 2020.58 1229.65 Q2017.52 1234.24 2011.71 1234.24 Q2005.9 1234.24 2002.82 1229.65 Q1999.77 1225.05 1999.77 1216.32 Q1999.77 1207.57 2002.82 1202.99 Q2005.9 1198.38 2011.71 1198.38 Z" fill="#000000" fill-rule="nonzero" fill-opacity="1" /><path clip-path="url(#clip560)" d="M2041.87 1202.09 Q2038.26 1202.09 2036.43 1205.65 Q2034.63 1209.19 2034.63 1216.32 Q2034.63 1223.43 2036.43 1226.99 Q2038.26 1230.53 2041.87 1230.53 Q2045.51 1230.53 2047.31 1226.99 Q2049.14 1223.43 2049.14 1216.32 Q2049.14 1209.19 2047.31 1205.65 Q2045.51 1202.09 2041.87 1202.09 M2041.87 1198.38 Q2047.68 1198.38 2050.74 1202.99 Q2053.82 1207.57 2053.82 1216.32 Q2053.82 1225.05 2050.74 1229.65 Q2047.68 1234.24 2041.87 1234.24 Q2036.06 1234.24 2032.99 1229.65 Q2029.93 1225.05 2029.93 1216.32 Q2029.93 1207.57 2032.99 1202.99 Q2036.06 1198.38 2041.87 1198.38 Z" fill="#000000" fill-rule="nonzero" fill-opacity="1" /><path clip-path="url(#clip560)" d="M1067.93 1266.49 L1108.13 1266.49 L1108.13 1271.91 L1091.26 1271.91 L1091.26 1314.01 L1084.8 1314.01 L1084.8 1271.91 L1067.93 1271.91 L1067.93 1266.49 Z" fill="#000000" fill-rule="nonzero" fill-opacity="1" /><path clip-path="url(#clip560)" d="M1112.08 1278.37 L1117.93 1278.37 L1117.93 1314.01 L1112.08 1314.01 L1112.08 1278.37 M1112.08 1264.49 L1117.93 1264.49 L1117.93 1271.91 L1112.08 1271.91 L1112.08 1264.49 Z" fill="#000000" fill-rule="nonzero" fill-opacity="1" /><path clip-path="url(#clip560)" d="M1157.94 1285.21 Q1160.14 1281.26 1163.19 1279.39 Q1166.25 1277.51 1170.39 1277.51 Q1175.96 1277.51 1178.98 1281.42 Q1182 1285.31 1182 1292.5 L1182 1314.01 L1176.11 1314.01 L1176.11 1292.69 Q1176.11 1287.57 1174.3 1285.08 Q1172.49 1282.6 1168.76 1282.6 Q1164.21 1282.6 1161.57 1285.62 Q1158.93 1288.65 1158.93 1293.87 L1158.93 1314.01 L1153.04 1314.01 L1153.04 1292.69 Q1153.04 1287.53 1151.22 1285.08 Q1149.41 1282.6 1145.62 1282.6 Q1141.14 1282.6 1138.49 1285.66 Q1135.85 1288.68 1135.85 1293.87 L1135.85 1314.01 L1129.96 1314.01 L1129.96 1278.37 L1135.85 1278.37 L1135.85 1283.9 Q1137.86 1280.63 1140.66 1279.07 Q1143.46 1277.51 1147.31 1277.51 Q1151.19 1277.51 1153.9 1279.48 Q1156.64 1281.45 1157.94 1285.21 Z" fill="#000000" fill-rule="nonzero" fill-opacity="1" /><path clip-path="url(#clip560)" d="M1224.18 1294.73 L1224.18 1297.59 L1197.25 1297.59 Q1197.63 1303.64 1200.88 1306.82 Q1204.16 1309.97 1209.98 1309.97 Q1213.35 1309.97 1216.51 1309.14 Q1219.69 1308.32 1222.81 1306.66 L1222.81 1312.2 Q1219.66 1313.54 1216.35 1314.24 Q1213.04 1314.94 1209.63 1314.94 Q1201.1 1314.94 1196.1 1309.97 Q1191.14 1305.01 1191.14 1296.54 Q1191.14 1287.79 1195.85 1282.66 Q1200.59 1277.51 1208.61 1277.51 Q1215.8 1277.51 1219.97 1282.15 Q1224.18 1286.77 1224.18 1294.73 M1218.32 1293.01 Q1218.26 1288.2 1215.61 1285.34 Q1213 1282.47 1208.68 1282.47 Q1203.77 1282.47 1200.81 1285.24 Q1197.89 1288.01 1197.44 1293.04 L1218.32 1293.01 Z" fill="#000000" fill-rule="nonzero" fill-opacity="1" /><polyline clip-path="url(#clip560)" style="stroke:#000000; stroke-linecap:round; stroke-linejoin:round; stroke-width:4; stroke-opacity:1; fill:none" points="227.349,1173.47 227.349,120.723 "/>
<polyline clip-path="url(#clip560)" style="stroke:#000000; stroke-linecap:round; stroke-linejoin:round; stroke-width:4; stroke-opacity:1; fill:none" points="227.349,1143.68 246.247,1143.68 "/>
<polyline clip-path="url(#clip560)" style="stroke:#000000; stroke-linecap:round; stroke-linejoin:round; stroke-width:4; stroke-opacity:1; fill:none" points="227.349,892.878 246.247,892.878 "/>
<polyline clip-path="url(#clip560)" style="stroke:#000000; stroke-linecap:round; stroke-linejoin:round; stroke-width:4; stroke-opacity:1; fill:none" points="227.349,642.081 246.247,642.081 "/>
<polyline clip-path="url(#clip560)" style="stroke:#000000; stroke-linecap:round; stroke-linejoin:round; stroke-width:4; stroke-opacity:1; fill:none" points="227.349,391.283 246.247,391.283 "/>
<polyline clip-path="url(#clip560)" style="stroke:#000000; stroke-linecap:round; stroke-linejoin:round; stroke-width:4; stroke-opacity:1; fill:none" points="227.349,140.486 246.247,140.486 "/>
<path clip-path="url(#clip560)" d="M183.725 1129.47 Q180.114 1129.47 178.285 1133.04 Q176.48 1136.58 176.48 1143.71 Q176.48 1150.82 178.285 1154.38 Q180.114 1157.92 183.725 1157.92 Q187.359 1157.92 189.165 1154.38 Q190.993 1150.82 190.993 1143.71 Q190.993 1136.58 189.165 1133.04 Q187.359 1129.47 183.725 1129.47 M183.725 1125.77 Q189.535 1125.77 192.591 1130.38 Q195.669 1134.96 195.669 1143.71 Q195.669 1152.44 192.591 1157.04 Q189.535 1161.63 183.725 1161.63 Q177.915 1161.63 174.836 1157.04 Q171.781 1152.44 171.781 1143.71 Q171.781 1134.96 174.836 1130.38 Q177.915 1125.77 183.725 1125.77 Z" fill="#000000" fill-rule="nonzero" fill-opacity="1" /><path clip-path="url(#clip560)" d="M148.586 906.223 L164.906 906.223 L164.906 910.158 L142.961 910.158 L142.961 906.223 Q145.623 903.469 150.207 898.839 Q154.813 894.186 155.994 892.844 Q158.239 890.321 159.119 888.585 Q160.021 886.825 160.021 885.135 Q160.021 882.381 158.077 880.645 Q156.156 878.909 153.054 878.909 Q150.855 878.909 148.401 879.673 Q145.971 880.436 143.193 881.987 L143.193 877.265 Q146.017 876.131 148.471 875.552 Q150.924 874.973 152.961 874.973 Q158.332 874.973 161.526 877.659 Q164.72 880.344 164.72 884.835 Q164.72 886.964 163.91 888.885 Q163.123 890.784 161.017 893.376 Q160.438 894.047 157.336 897.265 Q154.234 900.459 148.586 906.223 Z" fill="#000000" fill-rule="nonzero" fill-opacity="1" /><path clip-path="url(#clip560)" d="M174.767 875.598 L193.123 875.598 L193.123 879.534 L179.049 879.534 L179.049 888.006 Q180.068 887.659 181.086 887.497 Q182.105 887.311 183.123 887.311 Q188.91 887.311 192.29 890.483 Q195.669 893.654 195.669 899.071 Q195.669 904.649 192.197 907.751 Q188.725 910.83 182.406 910.83 Q180.23 910.83 177.961 910.459 Q175.716 910.089 173.308 909.348 L173.308 904.649 Q175.392 905.783 177.614 906.339 Q179.836 906.895 182.313 906.895 Q186.318 906.895 188.655 904.788 Q190.993 902.682 190.993 899.071 Q190.993 895.459 188.655 893.353 Q186.318 891.247 182.313 891.247 Q180.438 891.247 178.563 891.663 Q176.711 892.08 174.767 892.959 L174.767 875.598 Z" fill="#000000" fill-rule="nonzero" fill-opacity="1" /><path clip-path="url(#clip560)" d="M143.609 624.801 L161.966 624.801 L161.966 628.736 L147.892 628.736 L147.892 637.208 Q148.91 636.861 149.929 636.699 Q150.947 636.514 151.966 636.514 Q157.753 636.514 161.132 639.685 Q164.512 642.856 164.512 648.273 Q164.512 653.852 161.04 656.954 Q157.568 660.032 151.248 660.032 Q149.072 660.032 146.804 659.662 Q144.559 659.291 142.151 658.551 L142.151 653.852 Q144.234 654.986 146.457 655.542 Q148.679 656.097 151.156 656.097 Q155.16 656.097 157.498 653.991 Q159.836 651.884 159.836 648.273 Q159.836 644.662 157.498 642.555 Q155.16 640.449 151.156 640.449 Q149.281 640.449 147.406 640.866 Q145.554 641.282 143.609 642.162 L143.609 624.801 Z" fill="#000000" fill-rule="nonzero" fill-opacity="1" /><path clip-path="url(#clip560)" d="M183.725 627.88 Q180.114 627.88 178.285 631.444 Q176.48 634.986 176.48 642.116 Q176.48 649.222 178.285 652.787 Q180.114 656.329 183.725 656.329 Q187.359 656.329 189.165 652.787 Q190.993 649.222 190.993 642.116 Q190.993 634.986 189.165 631.444 Q187.359 627.88 183.725 627.88 M183.725 624.176 Q189.535 624.176 192.591 628.782 Q195.669 633.366 195.669 642.116 Q195.669 650.842 192.591 655.449 Q189.535 660.032 183.725 660.032 Q177.915 660.032 174.836 655.449 Q171.781 650.842 171.781 642.116 Q171.781 633.366 174.836 628.782 Q177.915 624.176 183.725 624.176 Z" fill="#000000" fill-rule="nonzero" fill-opacity="1" /><path clip-path="url(#clip560)" d="M143.378 374.003 L165.6 374.003 L165.6 375.994 L153.054 408.563 L148.17 408.563 L159.975 377.939 L143.378 377.939 L143.378 374.003 Z" fill="#000000" fill-rule="nonzero" fill-opacity="1" /><path clip-path="url(#clip560)" d="M174.767 374.003 L193.123 374.003 L193.123 377.939 L179.049 377.939 L179.049 386.411 Q180.068 386.064 181.086 385.901 Q182.105 385.716 183.123 385.716 Q188.91 385.716 192.29 388.888 Q195.669 392.059 195.669 397.476 Q195.669 403.054 192.197 406.156 Q188.725 409.235 182.406 409.235 Q180.23 409.235 177.961 408.864 Q175.716 408.494 173.308 407.753 L173.308 403.054 Q175.392 404.188 177.614 404.744 Q179.836 405.3 182.313 405.3 Q186.318 405.3 188.655 403.193 Q190.993 401.087 190.993 397.476 Q190.993 393.864 188.655 391.758 Q186.318 389.651 182.313 389.651 Q180.438 389.651 178.563 390.068 Q176.711 390.485 174.767 391.364 L174.767 374.003 Z" fill="#000000" fill-rule="nonzero" fill-opacity="1" /><path clip-path="url(#clip560)" d="M114.211 153.831 L121.85 153.831 L121.85 127.465 L113.54 129.132 L113.54 124.873 L121.804 123.206 L126.48 123.206 L126.48 153.831 L134.119 153.831 L134.119 157.766 L114.211 157.766 L114.211 153.831 Z" fill="#000000" fill-rule="nonzero" fill-opacity="1" /><path clip-path="url(#clip560)" d="M153.563 126.285 Q149.952 126.285 148.123 129.849 Q146.318 133.391 146.318 140.521 Q146.318 147.627 148.123 151.192 Q149.952 154.733 153.563 154.733 Q157.197 154.733 159.003 151.192 Q160.832 147.627 160.832 140.521 Q160.832 133.391 159.003 129.849 Q157.197 126.285 153.563 126.285 M153.563 122.581 Q159.373 122.581 162.429 127.187 Q165.507 131.771 165.507 140.521 Q165.507 149.247 162.429 153.854 Q159.373 158.437 153.563 158.437 Q147.753 158.437 144.674 153.854 Q141.619 149.247 141.619 140.521 Q141.619 131.771 144.674 127.187 Q147.753 122.581 153.563 122.581 Z" fill="#000000" fill-rule="nonzero" fill-opacity="1" /><path clip-path="url(#clip560)" d="M183.725 126.285 Q180.114 126.285 178.285 129.849 Q176.48 133.391 176.48 140.521 Q176.48 147.627 178.285 151.192 Q180.114 154.733 183.725 154.733 Q187.359 154.733 189.165 151.192 Q190.993 147.627 190.993 140.521 Q190.993 133.391 189.165 129.849 Q187.359 126.285 183.725 126.285 M183.725 122.581 Q189.535 122.581 192.591 127.187 Q195.669 131.771 195.669 140.521 Q195.669 149.247 192.591 153.854 Q189.535 158.437 183.725 158.437 Q177.915 158.437 174.836 153.854 Q171.781 149.247 171.781 140.521 Q171.781 131.771 174.836 127.187 Q177.915 122.581 183.725 122.581 Z" fill="#000000" fill-rule="nonzero" fill-opacity="1" /><path clip-path="url(#clip560)" d="M23.7444 702.956 L30.5239 702.956 Q27.5002 706.202 26.0043 709.895 Q24.5083 713.555 24.5083 717.693 Q24.5083 725.841 29.5054 730.169 Q34.4707 734.498 43.8919 734.498 Q53.2813 734.498 58.2784 730.169 Q63.2436 725.841 63.2436 717.693 Q63.2436 713.555 61.7477 709.895 Q60.2518 706.202 57.2281 702.956 L63.9439 702.956 Q66.2355 706.33 67.3814 710.117 Q68.5272 713.873 68.5272 718.075 Q68.5272 728.864 61.9387 735.071 Q55.3183 741.278 43.8919 741.278 Q32.4336 741.278 25.8451 735.071 Q19.2248 728.864 19.2248 718.075 Q19.2248 713.809 20.3706 710.054 Q21.4846 706.266 23.7444 702.956 Z" fill="#000000" fill-rule="nonzero" fill-opacity="1" /><path clip-path="url(#clip560)" d="M36.0621 679.467 Q36.0621 684.177 39.7542 686.914 Q43.4145 689.652 49.812 689.652 Q56.2095 689.652 59.9017 686.946 Q63.5619 684.209 63.5619 679.467 Q63.5619 674.788 59.8698 672.05 Q56.1777 669.313 49.812 669.313 Q43.4781 669.313 39.786 672.05 Q36.0621 674.788 36.0621 679.467 M31.0968 679.467 Q31.0968 671.828 36.0621 667.467 Q41.0273 663.107 49.812 663.107 Q58.5649 663.107 63.5619 667.467 Q68.5272 671.828 68.5272 679.467 Q68.5272 687.137 63.5619 691.498 Q58.5649 695.826 49.812 695.826 Q41.0273 695.826 36.0621 691.498 Q31.0968 687.137 31.0968 679.467 Z" fill="#000000" fill-rule="nonzero" fill-opacity="1" /><path clip-path="url(#clip560)" d="M53.5359 654.004 L31.9562 654.004 L31.9562 648.147 L53.3131 648.147 Q58.3739 648.147 60.9202 646.174 Q63.4346 644.2 63.4346 640.254 Q63.4346 635.511 60.4109 632.774 Q57.3872 630.005 52.1673 630.005 L31.9562 630.005 L31.9562 624.149 L67.6042 624.149 L67.6042 630.005 L62.1296 630.005 Q65.3762 632.137 66.9676 634.97 Q68.5272 637.771 68.5272 641.495 Q68.5272 647.638 64.7078 650.821 Q60.8883 654.004 53.5359 654.004 M31.0968 639.267 L31.0968 639.267 Z" fill="#000000" fill-rule="nonzero" fill-opacity="1" /><path clip-path="url(#clip560)" d="M46.0881 582.453 L67.6042 582.453 L67.6042 588.31 L46.279 588.31 Q41.2183 588.31 38.7038 590.283 Q36.1894 592.256 36.1894 596.203 Q36.1894 600.946 39.2131 603.683 Q42.2368 606.42 47.4567 606.42 L67.6042 606.42 L67.6042 612.308 L31.9562 612.308 L31.9562 606.42 L37.4944 606.42 Q34.2797 604.319 32.6883 601.487 Q31.0968 598.622 31.0968 594.898 Q31.0968 588.755 34.9163 585.604 Q38.7038 582.453 46.0881 582.453 Z" fill="#000000" fill-rule="nonzero" fill-opacity="1" /><path clip-path="url(#clip560)" d="M21.8347 564.979 L31.9562 564.979 L31.9562 552.916 L36.5077 552.916 L36.5077 564.979 L55.8594 564.979 Q60.2199 564.979 61.4613 563.802 Q62.7026 562.592 62.7026 558.932 L62.7026 552.916 L67.6042 552.916 L67.6042 558.932 Q67.6042 565.711 65.0897 568.289 Q62.5434 570.868 55.8594 570.868 L36.5077 570.868 L36.5077 575.164 L31.9562 575.164 L31.9562 570.868 L21.8347 570.868 L21.8347 564.979 Z" fill="#000000" fill-rule="nonzero" fill-opacity="1" /><path clip-path="url(#clip560)" d="M356.268 14.0809 L356.268 22.0612 Q351.61 19.8332 347.478 18.7395 Q343.346 17.6457 339.497 17.6457 Q332.813 17.6457 329.168 20.2383 Q325.562 22.8309 325.562 27.611 Q325.562 31.6214 327.952 33.6873 Q330.383 35.7128 337.107 36.9686 L342.049 37.9813 Q351.204 39.7232 355.539 44.1387 Q359.914 48.5136 359.914 55.8863 Q359.914 64.6767 354 69.2137 Q348.126 73.7508 336.743 73.7508 Q332.449 73.7508 327.588 72.7785 Q322.767 71.8063 317.582 69.9024 L317.582 61.4765 Q322.565 64.2716 327.345 65.6895 Q332.125 67.1073 336.743 67.1073 Q343.751 67.1073 347.559 64.3527 Q351.366 61.598 351.366 56.4939 Q351.366 52.0379 348.612 49.5264 Q345.898 47.0148 339.659 45.759 L334.677 44.7868 Q325.522 42.9639 321.43 39.075 Q317.339 35.1862 317.339 28.2591 Q317.339 20.2383 322.97 15.6203 Q328.641 11.0023 338.566 11.0023 Q342.819 11.0023 347.235 11.7719 Q351.65 12.5416 356.268 14.0809 Z" fill="#000000" fill-rule="nonzero" fill-opacity="1" /><path clip-path="url(#clip560)" d="M372.35 27.2059 L379.804 27.2059 L379.804 72.576 L372.35 72.576 L372.35 27.2059 M372.35 9.54393 L379.804 9.54393 L379.804 18.9825 L372.35 18.9825 L372.35 9.54393 Z" fill="#000000" fill-rule="nonzero" fill-opacity="1" /><path clip-path="url(#clip560)" d="M433.114 45.1919 L433.114 72.576 L425.66 72.576 L425.66 45.4349 Q425.66 38.994 423.149 35.7938 Q420.637 32.5936 415.614 32.5936 Q409.578 32.5936 406.094 36.4419 Q402.61 40.2903 402.61 46.9338 L402.61 72.576 L395.116 72.576 L395.116 27.2059 L402.61 27.2059 L402.61 34.2544 Q405.284 30.163 408.889 28.1376 Q412.535 26.1121 417.275 26.1121 Q425.093 26.1121 429.103 30.9732 Q433.114 35.7938 433.114 45.1919 Z" fill="#000000" fill-rule="nonzero" fill-opacity="1" /><path clip-path="url(#clip560)" d="M477.836 49.3643 Q477.836 41.2625 474.473 36.8065 Q471.152 32.3505 465.116 32.3505 Q459.121 32.3505 455.758 36.8065 Q452.437 41.2625 452.437 49.3643 Q452.437 57.4256 455.758 61.8816 Q459.121 66.3376 465.116 66.3376 Q471.152 66.3376 474.473 61.8816 Q477.836 57.4256 477.836 49.3643 M485.289 66.9452 Q485.289 78.5308 480.145 84.1616 Q475 89.8329 464.387 89.8329 Q460.457 89.8329 456.974 89.2252 Q453.49 88.6581 450.209 87.4428 L450.209 80.1917 Q453.49 81.9741 456.69 82.8248 Q459.89 83.6755 463.212 83.6755 Q470.544 83.6755 474.19 79.8271 Q477.836 76.0193 477.836 68.282 L477.836 64.5957 Q475.527 68.6061 471.921 70.5911 Q468.316 72.576 463.293 72.576 Q454.948 72.576 449.844 66.2161 Q444.74 59.8562 444.74 49.3643 Q444.74 38.832 449.844 32.472 Q454.948 26.1121 463.293 26.1121 Q468.316 26.1121 471.921 28.0971 Q475.527 30.082 477.836 34.0924 L477.836 27.2059 L485.289 27.2059 L485.289 66.9452 Z" fill="#000000" fill-rule="nonzero" fill-opacity="1" /><path clip-path="url(#clip560)" d="M500.642 9.54393 L508.096 9.54393 L508.096 72.576 L500.642 72.576 L500.642 9.54393 Z" fill="#000000" fill-rule="nonzero" fill-opacity="1" /><path clip-path="url(#clip560)" d="M562.5 48.0275 L562.5 51.6733 L528.229 51.6733 Q528.715 59.3701 532.847 63.421 Q537.019 67.4314 544.433 67.4314 Q548.727 67.4314 552.737 66.3781 Q556.788 65.3249 560.758 63.2184 L560.758 70.267 Q556.747 71.9684 552.534 72.8596 Q548.321 73.7508 543.987 73.7508 Q533.131 73.7508 526.771 67.4314 Q520.451 61.1119 520.451 50.3365 Q520.451 39.1965 526.447 32.6746 Q532.482 26.1121 542.691 26.1121 Q551.846 26.1121 557.152 32.0264 Q562.5 37.9003 562.5 48.0275 M555.046 45.84 Q554.965 39.7232 551.603 36.0774 Q548.281 32.4315 542.772 32.4315 Q536.533 32.4315 532.766 35.9558 Q529.039 39.4801 528.472 45.8805 L555.046 45.84 Z" fill="#000000" fill-rule="nonzero" fill-opacity="1" /><path clip-path="url(#clip560)" d="M642.667 63.9476 L642.667 47.7034 L629.299 47.7034 L629.299 40.9789 L650.769 40.9789 L650.769 66.9452 Q646.029 70.3075 640.317 72.0494 Q634.606 73.7508 628.124 73.7508 Q613.946 73.7508 605.925 65.4869 Q597.945 57.1826 597.945 42.3968 Q597.945 27.5705 605.925 19.3066 Q613.946 11.0023 628.124 11.0023 Q634.039 11.0023 639.345 12.4606 Q644.692 13.9189 649.189 16.7545 L649.189 25.464 Q644.652 21.6156 639.548 19.6712 Q634.444 17.7268 628.813 17.7268 Q617.713 17.7268 612.123 23.9246 Q606.573 30.1225 606.573 42.3968 Q606.573 54.6305 612.123 60.8284 Q617.713 67.0263 628.813 67.0263 Q633.147 67.0263 636.55 66.2971 Q639.953 65.5274 642.667 63.9476 Z" fill="#000000" fill-rule="nonzero" fill-opacity="1" /><path clip-path="url(#clip560)" d="M665.393 27.2059 L672.846 27.2059 L672.846 72.576 L665.393 72.576 L665.393 27.2059 M665.393 9.54393 L672.846 9.54393 L672.846 18.9825 L665.393 18.9825 L665.393 9.54393 Z" fill="#000000" fill-rule="nonzero" fill-opacity="1" /><path clip-path="url(#clip560)" d="M688.442 9.54393 L695.896 9.54393 L695.896 72.576 L688.442 72.576 L688.442 9.54393 Z" fill="#000000" fill-rule="nonzero" fill-opacity="1" /><path clip-path="url(#clip560)" d="M711.492 9.54393 L718.946 9.54393 L718.946 72.576 L711.492 72.576 L711.492 9.54393 Z" fill="#000000" fill-rule="nonzero" fill-opacity="1" /><path clip-path="url(#clip560)" d="M773.349 48.0275 L773.349 51.6733 L739.079 51.6733 Q739.565 59.3701 743.697 63.421 Q747.869 67.4314 755.282 67.4314 Q759.576 67.4314 763.587 66.3781 Q767.637 65.3249 771.607 63.2184 L771.607 70.267 Q767.597 71.9684 763.384 72.8596 Q759.171 73.7508 754.837 73.7508 Q743.98 73.7508 737.62 67.4314 Q731.301 61.1119 731.301 50.3365 Q731.301 39.1965 737.296 32.6746 Q743.332 26.1121 753.54 26.1121 Q762.695 26.1121 768.002 32.0264 Q773.349 37.9003 773.349 48.0275 M765.896 45.84 Q765.815 39.7232 762.452 36.0774 Q759.131 32.4315 753.621 32.4315 Q747.383 32.4315 743.616 35.9558 Q739.889 39.4801 739.322 45.8805 L765.896 45.84 Z" fill="#000000" fill-rule="nonzero" fill-opacity="1" /><path clip-path="url(#clip560)" d="M814.506 28.5427 L814.506 35.5912 Q811.347 33.9709 807.944 33.1607 Q804.541 32.3505 800.895 32.3505 Q795.346 32.3505 792.55 34.0519 Q789.796 35.7533 789.796 39.156 Q789.796 41.7486 791.781 43.2475 Q793.766 44.7058 799.761 46.0426 L802.313 46.6097 Q810.253 48.3111 813.575 51.4303 Q816.937 54.509 816.937 60.0587 Q816.937 66.3781 811.914 70.0644 Q806.931 73.7508 798.181 73.7508 Q794.535 73.7508 790.566 73.0216 Q786.636 72.3329 782.261 70.9151 L782.261 63.2184 Q786.393 65.3654 790.403 66.4591 Q794.414 67.5124 798.343 67.5124 Q803.609 67.5124 806.445 65.73 Q809.281 63.9071 809.281 60.6258 Q809.281 57.5877 807.215 55.9673 Q805.189 54.3469 798.262 52.8481 L795.67 52.2405 Q788.743 50.7821 785.664 47.7845 Q782.585 44.7463 782.585 39.4801 Q782.585 33.0797 787.122 29.5959 Q791.659 26.1121 800.004 26.1121 Q804.136 26.1121 807.782 26.7198 Q811.428 27.3274 814.506 28.5427 Z" fill="#000000" fill-rule="nonzero" fill-opacity="1" /><path clip-path="url(#clip560)" d="M836.017 65.7705 L836.017 89.8329 L828.522 89.8329 L828.522 27.2059 L836.017 27.2059 L836.017 34.0924 Q838.366 30.0415 841.931 28.0971 Q845.536 26.1121 850.519 26.1121 Q858.783 26.1121 863.927 32.6746 Q869.113 39.2371 869.113 49.9314 Q869.113 60.6258 863.927 67.1883 Q858.783 73.7508 850.519 73.7508 Q845.536 73.7508 841.931 71.8063 Q838.366 69.8214 836.017 65.7705 M861.375 49.9314 Q861.375 41.7081 857.973 37.0496 Q854.61 32.3505 848.696 32.3505 Q842.782 32.3505 839.379 37.0496 Q836.017 41.7081 836.017 49.9314 Q836.017 58.1548 839.379 62.8538 Q842.782 67.5124 848.696 67.5124 Q854.61 67.5124 857.973 62.8538 Q861.375 58.1548 861.375 49.9314 Z" fill="#000000" fill-rule="nonzero" fill-opacity="1" /><path clip-path="url(#clip560)" d="M881.468 27.2059 L888.921 27.2059 L888.921 72.576 L881.468 72.576 L881.468 27.2059 M881.468 9.54393 L888.921 9.54393 L888.921 18.9825 L881.468 18.9825 L881.468 9.54393 Z" fill="#000000" fill-rule="nonzero" fill-opacity="1" /><path clip-path="url(#clip560)" d="M943.325 48.0275 L943.325 51.6733 L909.054 51.6733 Q909.541 59.3701 913.673 63.421 Q917.845 67.4314 925.258 67.4314 Q929.552 67.4314 933.562 66.3781 Q937.613 65.3249 941.583 63.2184 L941.583 70.267 Q937.573 71.9684 933.36 72.8596 Q929.147 73.7508 924.812 73.7508 Q913.956 73.7508 907.596 67.4314 Q901.277 61.1119 901.277 50.3365 Q901.277 39.1965 907.272 32.6746 Q913.308 26.1121 923.516 26.1121 Q932.671 26.1121 937.978 32.0264 Q943.325 37.9003 943.325 48.0275 M935.871 45.84 Q935.79 39.7232 932.428 36.0774 Q929.106 32.4315 923.597 32.4315 Q917.359 32.4315 913.591 35.9558 Q909.865 39.4801 909.298 45.8805 L935.871 45.84 Z" fill="#000000" fill-rule="nonzero" fill-opacity="1" /><path clip-path="url(#clip560)" d="M989.303 14.324 L989.303 27.2059 L1004.66 27.2059 L1004.66 32.9987 L989.303 32.9987 L989.303 57.6282 Q989.303 63.1779 990.802 64.7578 Q992.341 66.3376 997 66.3376 L1004.66 66.3376 L1004.66 72.576 L997 72.576 Q988.371 72.576 985.09 69.3758 Q981.809 66.1351 981.809 57.6282 L981.809 32.9987 L976.34 32.9987 L976.34 27.2059 L981.809 27.2059 L981.809 14.324 L989.303 14.324 Z" fill="#000000" fill-rule="nonzero" fill-opacity="1" /><path clip-path="url(#clip560)" d="M1040.75 34.1734 Q1039.49 33.4443 1037.99 33.1202 Q1036.54 32.7556 1034.75 32.7556 Q1028.43 32.7556 1025.03 36.8875 Q1021.67 40.9789 1021.67 48.6757 L1021.67 72.576 L1014.18 72.576 L1014.18 27.2059 L1021.67 27.2059 L1021.67 34.2544 Q1024.02 30.1225 1027.79 28.1376 Q1031.55 26.1121 1036.94 26.1121 Q1037.71 26.1121 1038.64 26.2337 Q1039.57 26.3147 1040.71 26.5172 L1040.75 34.1734 Z" fill="#000000" fill-rule="nonzero" fill-opacity="1" /><path clip-path="url(#clip560)" d="M1069.19 49.7694 Q1060.15 49.7694 1056.67 51.8354 Q1053.19 53.9013 1053.19 58.8839 Q1053.19 62.8538 1055.78 65.2034 Q1058.41 67.5124 1062.91 67.5124 Q1069.11 67.5124 1072.83 63.1374 Q1076.6 58.7219 1076.6 51.4303 L1076.6 49.7694 L1069.19 49.7694 M1084.05 46.6907 L1084.05 72.576 L1076.6 72.576 L1076.6 65.6895 Q1074.05 69.8214 1070.24 71.8063 Q1066.43 73.7508 1060.92 73.7508 Q1053.96 73.7508 1049.82 69.8619 Q1045.73 65.9325 1045.73 59.3701 Q1045.73 51.7138 1050.84 47.825 Q1055.98 43.9361 1066.15 43.9361 L1076.6 43.9361 L1076.6 43.2069 Q1076.6 38.0623 1073.2 35.2672 Q1069.83 32.4315 1063.72 32.4315 Q1059.83 32.4315 1056.14 33.3632 Q1052.46 34.295 1049.05 36.1584 L1049.05 29.2718 Q1053.15 27.692 1056.99 26.9223 Q1060.84 26.1121 1064.49 26.1121 Q1074.33 26.1121 1079.19 31.2163 Q1084.05 36.3204 1084.05 46.6907 Z" fill="#000000" fill-rule="nonzero" fill-opacity="1" /><path clip-path="url(#clip560)" d="M1099.41 27.2059 L1106.86 27.2059 L1106.86 73.3862 Q1106.86 82.0551 1103.54 85.944 Q1100.26 89.8329 1092.93 89.8329 L1090.09 89.8329 L1090.09 83.5134 L1092.07 83.5134 Q1096.33 83.5134 1097.87 81.5285 Q1099.41 79.5841 1099.41 73.3862 L1099.41 27.2059 M1099.41 9.54393 L1106.86 9.54393 L1106.86 18.9825 L1099.41 18.9825 L1099.41 9.54393 Z" fill="#000000" fill-rule="nonzero" fill-opacity="1" /><path clip-path="url(#clip560)" d="M1161.26 48.0275 L1161.26 51.6733 L1126.99 51.6733 Q1127.48 59.3701 1131.61 63.421 Q1135.78 67.4314 1143.2 67.4314 Q1147.49 67.4314 1151.5 66.3781 Q1155.55 65.3249 1159.52 63.2184 L1159.52 70.267 Q1155.51 71.9684 1151.3 72.8596 Q1147.09 73.7508 1142.75 73.7508 Q1131.89 73.7508 1125.53 67.4314 Q1119.22 61.1119 1119.22 50.3365 Q1119.22 39.1965 1125.21 32.6746 Q1131.25 26.1121 1141.45 26.1121 Q1150.61 26.1121 1155.92 32.0264 Q1161.26 37.9003 1161.26 48.0275 M1153.81 45.84 Q1153.73 39.7232 1150.37 36.0774 Q1147.05 32.4315 1141.54 32.4315 Q1135.3 32.4315 1131.53 35.9558 Q1127.8 39.4801 1127.24 45.8805 L1153.81 45.84 Z" fill="#000000" fill-rule="nonzero" fill-opacity="1" /><path clip-path="url(#clip560)" d="M1206.15 28.9478 L1206.15 35.9153 Q1202.99 34.1734 1199.79 33.3227 Q1196.63 32.4315 1193.39 32.4315 Q1186.14 32.4315 1182.13 37.0496 Q1178.12 41.6271 1178.12 49.9314 Q1178.12 58.2358 1182.13 62.8538 Q1186.14 67.4314 1193.39 67.4314 Q1196.63 67.4314 1199.79 66.5807 Q1202.99 65.6895 1206.15 63.9476 L1206.15 70.8341 Q1203.03 72.2924 1199.67 73.0216 Q1196.34 73.7508 1192.58 73.7508 Q1182.33 73.7508 1176.29 67.3098 Q1170.26 60.8689 1170.26 49.9314 Q1170.26 38.832 1176.33 32.472 Q1182.45 26.1121 1193.06 26.1121 Q1196.51 26.1121 1199.79 26.8413 Q1203.07 27.5299 1206.15 28.9478 Z" fill="#000000" fill-rule="nonzero" fill-opacity="1" /><path clip-path="url(#clip560)" d="M1226.48 14.324 L1226.48 27.2059 L1241.84 27.2059 L1241.84 32.9987 L1226.48 32.9987 L1226.48 57.6282 Q1226.48 63.1779 1227.98 64.7578 Q1229.52 66.3376 1234.18 66.3376 L1241.84 66.3376 L1241.84 72.576 L1234.18 72.576 Q1225.55 72.576 1222.27 69.3758 Q1218.99 66.1351 1218.99 57.6282 L1218.99 32.9987 L1213.52 32.9987 L1213.52 27.2059 L1218.99 27.2059 L1218.99 14.324 L1226.48 14.324 Z" fill="#000000" fill-rule="nonzero" fill-opacity="1" /><path clip-path="url(#clip560)" d="M1269.22 32.4315 Q1263.23 32.4315 1259.74 37.1306 Q1256.26 41.7891 1256.26 49.9314 Q1256.26 58.0738 1259.7 62.7728 Q1263.18 67.4314 1269.22 67.4314 Q1275.18 67.4314 1278.66 62.7323 Q1282.14 58.0333 1282.14 49.9314 Q1282.14 41.8701 1278.66 37.1711 Q1275.18 32.4315 1269.22 32.4315 M1269.22 26.1121 Q1278.94 26.1121 1284.49 32.4315 Q1290.04 38.7509 1290.04 49.9314 Q1290.04 61.0714 1284.49 67.4314 Q1278.94 73.7508 1269.22 73.7508 Q1259.46 73.7508 1253.91 67.4314 Q1248.4 61.0714 1248.4 49.9314 Q1248.4 38.7509 1253.91 32.4315 Q1259.46 26.1121 1269.22 26.1121 Z" fill="#000000" fill-rule="nonzero" fill-opacity="1" /><path clip-path="url(#clip560)" d="M1328.69 34.1734 Q1327.43 33.4443 1325.93 33.1202 Q1324.47 32.7556 1322.69 32.7556 Q1316.37 32.7556 1312.97 36.8875 Q1309.61 40.9789 1309.61 48.6757 L1309.61 72.576 L1302.11 72.576 L1302.11 27.2059 L1309.61 27.2059 L1309.61 34.2544 Q1311.96 30.1225 1315.72 28.1376 Q1319.49 26.1121 1324.88 26.1121 Q1325.65 26.1121 1326.58 26.2337 Q1327.51 26.3147 1328.65 26.5172 L1328.69 34.1734 Z" fill="#000000" fill-rule="nonzero" fill-opacity="1" /><path clip-path="url(#clip560)" d="M1355.38 76.7889 Q1352.22 84.8907 1349.23 87.3618 Q1346.23 89.8329 1341.2 89.8329 L1335.25 89.8329 L1335.25 83.5945 L1339.63 83.5945 Q1342.7 83.5945 1344.41 82.1361 Q1346.11 80.6778 1348.17 75.2496 L1349.51 71.8468 L1331.16 27.2059 L1339.06 27.2059 L1353.24 62.6918 L1367.41 27.2059 L1375.31 27.2059 L1355.38 76.7889 Z" fill="#000000" fill-rule="nonzero" fill-opacity="1" /><path clip-path="url(#clip560)" d="M1429.88 9.62495 Q1424.45 18.942 1421.82 28.0566 Q1419.18 37.1711 1419.18 46.5287 Q1419.18 55.8863 1421.82 65.0818 Q1424.49 74.2369 1429.88 83.5134 L1423.4 83.5134 Q1417.32 73.9938 1414.28 64.7983 Q1411.29 55.6027 1411.29 46.5287 Q1411.29 37.4952 1414.28 28.3401 Q1417.28 19.1851 1423.4 9.62495 L1429.88 9.62495 Z" fill="#000000" fill-rule="nonzero" fill-opacity="1" /><path clip-path="url(#clip560)" d="M1444.67 12.096 L1455.68 12.096 L1482.5 62.6918 L1482.5 12.096 L1490.44 12.096 L1490.44 72.576 L1479.42 72.576 L1452.6 21.9802 L1452.6 72.576 L1444.67 72.576 L1444.67 12.096 Z" fill="#000000" fill-rule="nonzero" fill-opacity="1" /><path clip-path="url(#clip560)" d="M1507.37 34.9026 L1559.31 34.9026 L1559.31 41.7081 L1507.37 41.7081 L1507.37 34.9026 M1507.37 51.4303 L1559.31 51.4303 L1559.31 58.3168 L1507.37 58.3168 L1507.37 51.4303 Z" fill="#000000" fill-rule="nonzero" fill-opacity="1" /><path clip-path="url(#clip560)" d="M1578.39 65.6895 L1591.75 65.6895 L1591.75 19.5497 L1577.21 22.4663 L1577.21 15.0127 L1591.67 12.096 L1599.86 12.096 L1599.86 65.6895 L1613.22 65.6895 L1613.22 72.576 L1578.39 72.576 L1578.39 65.6895 Z" fill="#000000" fill-rule="nonzero" fill-opacity="1" /><path clip-path="url(#clip560)" d="M1647.25 17.4837 Q1640.93 17.4837 1637.73 23.7221 Q1634.57 29.92 1634.57 42.3968 Q1634.57 54.833 1637.73 61.0714 Q1640.93 67.2693 1647.25 67.2693 Q1653.61 67.2693 1656.77 61.0714 Q1659.97 54.833 1659.97 42.3968 Q1659.97 29.92 1656.77 23.7221 Q1653.61 17.4837 1647.25 17.4837 M1647.25 11.0023 Q1657.42 11.0023 1662.77 19.0636 Q1668.15 27.0843 1668.15 42.3968 Q1668.15 57.6687 1662.77 65.73 Q1657.42 73.7508 1647.25 73.7508 Q1637.08 73.7508 1631.7 65.73 Q1626.35 57.6687 1626.35 42.3968 Q1626.35 27.0843 1631.7 19.0636 Q1637.08 11.0023 1647.25 11.0023 Z" fill="#000000" fill-rule="nonzero" fill-opacity="1" /><path clip-path="url(#clip560)" d="M1700.03 17.4837 Q1693.71 17.4837 1690.51 23.7221 Q1687.35 29.92 1687.35 42.3968 Q1687.35 54.833 1690.51 61.0714 Q1693.71 67.2693 1700.03 67.2693 Q1706.39 67.2693 1709.55 61.0714 Q1712.75 54.833 1712.75 42.3968 Q1712.75 29.92 1709.55 23.7221 Q1706.39 17.4837 1700.03 17.4837 M1700.03 11.0023 Q1710.2 11.0023 1715.55 19.0636 Q1720.94 27.0843 1720.94 42.3968 Q1720.94 57.6687 1715.55 65.73 Q1710.2 73.7508 1700.03 73.7508 Q1689.87 73.7508 1684.48 65.73 Q1679.13 57.6687 1679.13 42.3968 Q1679.13 27.0843 1684.48 19.0636 Q1689.87 11.0023 1700.03 11.0023 Z" fill="#000000" fill-rule="nonzero" fill-opacity="1" /><path clip-path="url(#clip560)" d="M1736.17 62.2867 L1744.72 62.2867 L1744.72 69.2543 L1738.07 82.2172 L1732.85 82.2172 L1736.17 69.2543 L1736.17 62.2867 Z" fill="#000000" fill-rule="nonzero" fill-opacity="1" /><path clip-path="url(#clip560)" d="M1786.72 9.54393 L1794.22 9.54393 L1794.22 46.7717 L1816.46 27.2059 L1825.98 27.2059 L1801.91 48.4326 L1826.99 72.576 L1817.27 72.576 L1794.22 50.4176 L1794.22 72.576 L1786.72 72.576 L1786.72 9.54393 Z" fill="#000000" fill-rule="nonzero" fill-opacity="1" /><path clip-path="url(#clip560)" d="M1836.02 34.9026 L1887.96 34.9026 L1887.96 41.7081 L1836.02 41.7081 L1836.02 34.9026 M1836.02 51.4303 L1887.96 51.4303 L1887.96 58.3168 L1836.02 58.3168 L1836.02 51.4303 Z" fill="#000000" fill-rule="nonzero" fill-opacity="1" /><path clip-path="url(#clip560)" d="M1924.13 39.075 Q1918.62 39.075 1915.38 42.8424 Q1912.18 46.6097 1912.18 53.1722 Q1912.18 59.6941 1915.38 63.502 Q1918.62 67.2693 1924.13 67.2693 Q1929.64 67.2693 1932.84 63.502 Q1936.08 59.6941 1936.08 53.1722 Q1936.08 46.6097 1932.84 42.8424 Q1929.64 39.075 1924.13 39.075 M1940.37 13.4328 L1940.37 20.8865 Q1937.3 19.4281 1934.14 18.6585 Q1931.02 17.8888 1927.94 17.8888 Q1919.84 17.8888 1915.54 23.3575 Q1911.29 28.8262 1910.68 39.8852 Q1913.07 36.3609 1916.68 34.4975 Q1920.28 32.5936 1924.62 32.5936 Q1933.73 32.5936 1939 38.1433 Q1944.3 43.6525 1944.3 53.1722 Q1944.3 62.4892 1938.79 68.12 Q1933.29 73.7508 1924.13 73.7508 Q1913.64 73.7508 1908.09 65.73 Q1902.54 57.6687 1902.54 42.3968 Q1902.54 28.0566 1909.34 19.5497 Q1916.15 11.0023 1927.61 11.0023 Q1930.69 11.0023 1933.81 11.6099 Q1936.97 12.2175 1940.37 13.4328 Z" fill="#000000" fill-rule="nonzero" fill-opacity="1" /><path clip-path="url(#clip560)" d="M1956.17 9.62495 L1962.65 9.62495 Q1968.73 19.1851 1971.73 28.3401 Q1974.77 37.4952 1974.77 46.5287 Q1974.77 55.6027 1971.73 64.7983 Q1968.73 73.9938 1962.65 83.5134 L1956.17 83.5134 Q1961.56 74.2369 1964.19 65.0818 Q1966.87 55.8863 1966.87 46.5287 Q1966.87 37.1711 1964.19 28.0566 Q1961.56 18.942 1956.17 9.62495 Z" fill="#000000" fill-rule="nonzero" fill-opacity="1" /><polyline clip-path="url(#clip561)" style="stroke:#0000ff; stroke-linecap:round; stroke-linejoin:round; stroke-width:8; stroke-opacity:1; fill:none" points="279.351,150.518 288.018,160.55 296.685,170.582 305.352,170.582 314.019,180.613 322.686,200.677 331.353,240.805 340.021,270.901 348.688,321.06 357.355,341.124 366.022,401.315 374.689,431.411 383.356,511.666 392.023,521.698 400.69,601.953 409.357,642.081 418.024,682.209 426.691,742.4 435.358,782.528 444.025,852.751 452.692,882.847 461.359,902.91 470.026,963.102 478.693,983.166 487.36,983.166 496.027,1003.23 504.694,1043.36 513.361,1063.42 522.028,1063.42 530.695,1063.42 539.362,1083.48 548.029,1083.48 556.696,1083.48 565.363,1083.48 574.03,1093.52 582.697,1093.52 591.364,1093.52 600.031,1103.55 608.698,1103.55 617.365,1103.55 626.032,1103.55 634.699,1103.55 643.366,1103.55 652.033,1103.55 660.7,1103.55 669.367,1103.55 678.034,1103.55 686.701,1103.55 695.368,1103.55 704.035,1103.55 712.702,1103.55 721.369,1103.55 730.036,1103.55 738.703,1103.55 747.37,1113.58 756.037,1113.58 764.704,1113.58 773.371,1113.58 782.038,1113.58 790.705,1113.58 799.372,1113.58 808.039,1123.61 816.706,1123.61 825.373,1123.61 834.04,1123.61 842.707,1123.61 851.374,1123.61 860.041,1123.61 868.708,1123.61 877.375,1133.64 886.042,1133.64 894.709,1133.64 903.376,1133.64 912.043,1133.64 920.71,1133.64 929.377,1133.64 938.044,1133.64 946.711,1133.64 955.378,1133.64 964.045,1133.64 972.712,1133.64 981.379,1133.64 990.046,1133.64 998.713,1133.64 1007.38,1133.64 1016.05,1133.64 1024.71,1133.64 1033.38,1133.64 1042.05,1133.64 1050.72,1133.64 1059.38,1133.64 1068.05,1133.64 1076.72,1133.64 1085.38,1133.64 1094.05,1133.64 1102.72,1133.64 1111.38,1133.64 1120.05,1133.64 1128.72,1133.64 1137.39,1133.64 1146.05,1133.64 1154.72,1133.64 1163.39,1133.64 1172.05,1133.64 1180.72,1133.64 1189.39,1133.64 1198.05,1133.64 1206.72,1133.64 1215.39,1133.64 1224.06,1133.64 1232.72,1133.64 1241.39,1133.64 1250.06,1133.64 1258.72,1133.64 1267.39,1133.64 1276.06,1133.64 1284.72,1133.64 1293.39,1133.64 1302.06,1133.64 1310.73,1133.64 1319.39,1133.64 1328.06,1133.64 1336.73,1133.64 1345.39,1133.64 1354.06,1133.64 1362.73,1133.64 1371.39,1133.64 1380.06,1133.64 1388.73,1133.64 1397.4,1133.64 1406.06,1133.64 1414.73,1133.64 1423.4,1133.64 1432.06,1133.64 1440.73,1133.64 1449.4,1133.64 1458.07,1133.64 1466.73,1133.64 1475.4,1133.64 1484.07,1133.64 1492.73,1133.64 1501.4,1133.64 1510.07,1133.64 1518.73,1133.64 1527.4,1133.64 1536.07,1133.64 1544.74,1133.64 1553.4,1133.64 1562.07,1133.64 1570.74,1133.64 1579.4,1133.64 1588.07,1133.64 1596.74,1133.64 1605.4,1133.64 1614.07,1133.64 1622.74,1133.64 1631.41,1133.64 1640.07,1133.64 1648.74,1133.64 1657.41,1133.64 1666.07,1133.64 1674.74,1133.64 1683.41,1133.64 1692.07,1133.64 1700.74,1133.64 1709.41,1133.64 1718.08,1133.64 1726.74,1133.64 1735.41,1133.64 1744.08,1133.64 1752.74,1133.64 1761.41,1133.64 1770.08,1133.64 1778.74,1133.64 1787.41,1133.64 1796.08,1133.64 1804.75,1133.64 1813.41,1133.64 1822.08,1133.64 1830.75,1133.64 1839.41,1133.64 1848.08,1133.64 1856.75,1133.64 1865.41,1133.64 1874.08,1133.64 1882.75,1133.64 1891.42,1133.64 1900.08,1133.64 1908.75,1133.64 1917.42,1133.64 1926.08,1133.64 1934.75,1133.64 1943.42,1133.64 1952.08,1133.64 1960.75,1133.64 1969.42,1133.64 1978.09,1133.64 1986.75,1133.64 1995.42,1133.64 2004.09,1133.64 2012.75,1133.64 "/>
<polyline clip-path="url(#clip561)" style="stroke:#ff0000; stroke-linecap:round; stroke-linejoin:round; stroke-width:8; stroke-opacity:1; fill:none" points="279.351,1133.64 288.018,1123.61 296.685,1113.58 305.352,1113.58 314.019,1103.55 322.686,1083.48 331.353,1043.36 340.021,1023.29 348.688,993.197 357.355,973.134 366.022,922.974 374.689,892.878 383.356,852.751 392.023,862.783 400.69,802.591 409.357,772.496 418.024,752.432 426.691,732.368 435.358,702.272 444.025,642.081 452.692,652.113 461.359,662.145 470.026,622.017 478.693,622.017 487.36,652.113 496.027,652.113 504.694,662.145 513.361,672.177 522.028,682.209 530.695,712.304 539.362,712.304 548.029,722.336 556.696,772.496 565.363,772.496 574.03,782.528 582.697,802.591 591.364,832.687 600.031,822.655 608.698,842.719 617.365,872.815 626.032,882.847 634.699,902.91 643.366,933.006 652.033,933.006 660.7,933.006 669.367,953.07 678.034,953.07 686.701,953.07 695.368,953.07 704.035,963.102 712.702,963.102 721.369,973.134 730.036,973.134 738.703,973.134 747.37,973.134 756.037,983.166 764.704,993.197 773.371,993.197 782.038,993.197 790.705,993.197 799.372,1003.23 808.039,1003.23 816.706,1013.26 825.373,1013.26 834.04,1023.29 842.707,1033.33 851.374,1033.33 860.041,1033.33 868.708,1033.33 877.375,1023.29 886.042,1033.33 894.709,1033.33 903.376,1033.33 912.043,1043.36 920.71,1053.39 929.377,1063.42 938.044,1073.45 946.711,1073.45 955.378,1083.48 964.045,1083.48 972.712,1103.55 981.379,1103.55 990.046,1103.55 998.713,1103.55 1007.38,1103.55 1016.05,1103.55 1024.71,1103.55 1033.38,1113.58 1042.05,1113.58 1050.72,1113.58 1059.38,1113.58 1068.05,1113.58 1076.72,1113.58 1085.38,1113.58 1094.05,1113.58 1102.72,1123.61 1111.38,1123.61 1120.05,1123.61 1128.72,1123.61 1137.39,1123.61 1146.05,1123.61 1154.72,1123.61 1163.39,1123.61 1172.05,1123.61 1180.72,1133.64 1189.39,1133.64 1198.05,1133.64 1206.72,1133.64 1215.39,1133.64 1224.06,1133.64 1232.72,1143.68 1241.39,1143.68 1250.06,1143.68 1258.72,1143.68 1267.39,1143.68 1276.06,1143.68 1284.72,1143.68 1293.39,1143.68 1302.06,1143.68 1310.73,1143.68 1319.39,1143.68 1328.06,1143.68 1336.73,1143.68 1345.39,1143.68 1354.06,1143.68 1362.73,1143.68 1371.39,1143.68 1380.06,1143.68 1388.73,1143.68 1397.4,1143.68 1406.06,1143.68 1414.73,1143.68 1423.4,1143.68 1432.06,1143.68 1440.73,1143.68 1449.4,1143.68 1458.07,1143.68 1466.73,1143.68 1475.4,1143.68 1484.07,1143.68 1492.73,1143.68 1501.4,1143.68 1510.07,1143.68 1518.73,1143.68 1527.4,1143.68 1536.07,1143.68 1544.74,1143.68 1553.4,1143.68 1562.07,1143.68 1570.74,1143.68 1579.4,1143.68 1588.07,1143.68 1596.74,1143.68 1605.4,1143.68 1614.07,1143.68 1622.74,1143.68 1631.41,1143.68 1640.07,1143.68 1648.74,1143.68 1657.41,1143.68 1666.07,1143.68 1674.74,1143.68 1683.41,1143.68 1692.07,1143.68 1700.74,1143.68 1709.41,1143.68 1718.08,1143.68 1726.74,1143.68 1735.41,1143.68 1744.08,1143.68 1752.74,1143.68 1761.41,1143.68 1770.08,1143.68 1778.74,1143.68 1787.41,1143.68 1796.08,1143.68 1804.75,1143.68 1813.41,1143.68 1822.08,1143.68 1830.75,1143.68 1839.41,1143.68 1848.08,1143.68 1856.75,1143.68 1865.41,1143.68 1874.08,1143.68 1882.75,1143.68 1891.42,1143.68 1900.08,1143.68 1908.75,1143.68 1917.42,1143.68 1926.08,1143.68 1934.75,1143.68 1943.42,1143.68 1952.08,1143.68 1960.75,1143.68 1969.42,1143.68 1978.09,1143.68 1986.75,1143.68 1995.42,1143.68 2004.09,1143.68 2012.75,1143.68 "/>
<polyline clip-path="url(#clip561)" style="stroke:#008000; stroke-linecap:round; stroke-linejoin:round; stroke-width:8; stroke-opacity:1; fill:none" points="279.351,1143.68 288.018,1143.68 296.685,1143.68 305.352,1143.68 314.019,1143.68 322.686,1143.68 331.353,1143.68 340.021,1133.64 348.688,1113.58 357.355,1113.58 366.022,1103.55 374.689,1103.55 383.356,1063.42 392.023,1043.36 400.69,1023.29 409.357,1013.26 418.024,993.197 426.691,953.07 435.358,943.038 444.025,933.006 452.692,892.878 461.359,862.783 470.026,842.719 478.693,822.655 487.36,792.559 496.027,772.496 504.694,722.336 513.361,692.24 522.028,682.209 530.695,652.113 539.362,632.049 548.029,622.017 556.696,571.858 565.363,571.858 574.03,551.794 582.697,531.73 591.364,501.634 600.031,501.634 608.698,481.571 617.365,451.475 626.032,441.443 634.699,421.379 643.366,391.283 652.033,391.283 660.7,391.283 669.367,371.22 678.034,371.22 686.701,371.22 695.368,371.22 704.035,361.188 712.702,361.188 721.369,351.156 730.036,351.156 738.703,351.156 747.37,341.124 756.037,331.092 764.704,321.06 773.371,321.06 782.038,321.06 790.705,321.06 799.372,311.028 808.039,300.996 816.706,290.964 825.373,290.964 834.04,280.932 842.707,270.901 851.374,270.901 860.041,270.901 868.708,270.901 877.375,270.901 886.042,260.869 894.709,260.869 903.376,260.869 912.043,250.837 920.71,240.805 929.377,230.773 938.044,220.741 946.711,220.741 955.378,210.709 964.045,210.709 972.712,190.645 981.379,190.645 990.046,190.645 998.713,190.645 1007.38,190.645 1016.05,190.645 1024.71,190.645 1033.38,180.613 1042.05,180.613 1050.72,180.613 1059.38,180.613 1068.05,180.613 1076.72,180.613 1085.38,180.613 1094.05,180.613 1102.72,170.582 1111.38,170.582 1120.05,170.582 1128.72,170.582 1137.39,170.582 1146.05,170.582 1154.72,170.582 1163.39,170.582 1172.05,170.582 1180.72,160.55 1189.39,160.55 1198.05,160.55 1206.72,160.55 1215.39,160.55 1224.06,160.55 1232.72,150.518 1241.39,150.518 1250.06,150.518 1258.72,150.518 1267.39,150.518 1276.06,150.518 1284.72,150.518 1293.39,150.518 1302.06,150.518 1310.73,150.518 1319.39,150.518 1328.06,150.518 1336.73,150.518 1345.39,150.518 1354.06,150.518 1362.73,150.518 1371.39,150.518 1380.06,150.518 1388.73,150.518 1397.4,150.518 1406.06,150.518 1414.73,150.518 1423.4,150.518 1432.06,150.518 1440.73,150.518 1449.4,150.518 1458.07,150.518 1466.73,150.518 1475.4,150.518 1484.07,150.518 1492.73,150.518 1501.4,150.518 1510.07,150.518 1518.73,150.518 1527.4,150.518 1536.07,150.518 1544.74,150.518 1553.4,150.518 1562.07,150.518 1570.74,150.518 1579.4,150.518 1588.07,150.518 1596.74,150.518 1605.4,150.518 1614.07,150.518 1622.74,150.518 1631.41,150.518 1640.07,150.518 1648.74,150.518 1657.41,150.518 1666.07,150.518 1674.74,150.518 1683.41,150.518 1692.07,150.518 1700.74,150.518 1709.41,150.518 1718.08,150.518 1726.74,150.518 1735.41,150.518 1744.08,150.518 1752.74,150.518 1761.41,150.518 1770.08,150.518 1778.74,150.518 1787.41,150.518 1796.08,150.518 1804.75,150.518 1813.41,150.518 1822.08,150.518 1830.75,150.518 1839.41,150.518 1848.08,150.518 1856.75,150.518 1865.41,150.518 1874.08,150.518 1882.75,150.518 1891.42,150.518 1900.08,150.518 1908.75,150.518 1917.42,150.518 1926.08,150.518 1934.75,150.518 1943.42,150.518 1952.08,150.518 1960.75,150.518 1969.42,150.518 1978.09,150.518 1986.75,150.518 1995.42,150.518 2004.09,150.518 2012.75,150.518 "/>
<path clip-path="url(#clip560)" d="M288.596 363.175 L499.258 363.175 L499.258 155.815 L288.596 155.815  Z" fill="#ffffff" fill-rule="evenodd" fill-opacity="1"/>
<polyline clip-path="url(#clip560)" style="stroke:#000000; stroke-linecap:round; stroke-linejoin:round; stroke-width:4; stroke-opacity:1; fill:none" points="288.596,363.175 499.258,363.175 499.258,155.815 288.596,155.815 288.596,363.175 "/>
<polyline clip-path="url(#clip560)" style="stroke:#0000ff; stroke-linecap:round; stroke-linejoin:round; stroke-width:8; stroke-opacity:1; fill:none" points="309.012,207.655 431.506,207.655 "/>
<path clip-path="url(#clip560)" d="M474.167 191.509 L474.167 196.069 Q471.504 194.796 469.143 194.171 Q466.782 193.546 464.583 193.546 Q460.764 193.546 458.68 195.027 Q456.62 196.509 456.62 199.24 Q456.62 201.532 457.986 202.713 Q459.375 203.87 463.217 204.588 L466.042 205.166 Q471.273 206.162 473.75 208.685 Q476.25 211.185 476.25 215.398 Q476.25 220.421 472.87 223.013 Q469.514 225.606 463.009 225.606 Q460.555 225.606 457.778 225.05 Q455.023 224.495 452.06 223.407 L452.06 218.592 Q454.907 220.189 457.639 220.999 Q460.37 221.81 463.009 221.81 Q467.014 221.81 469.19 220.236 Q471.366 218.662 471.366 215.745 Q471.366 213.199 469.792 211.763 Q468.241 210.328 464.676 209.611 L461.829 209.055 Q456.597 208.013 454.259 205.791 Q451.921 203.569 451.921 199.611 Q451.921 195.027 455.139 192.389 Q458.38 189.75 464.051 189.75 Q466.481 189.75 469.005 190.189 Q471.528 190.629 474.167 191.509 Z" fill="#000000" fill-rule="nonzero" fill-opacity="1" /><polyline clip-path="url(#clip560)" style="stroke:#ff0000; stroke-linecap:round; stroke-linejoin:round; stroke-width:8; stroke-opacity:1; fill:none" points="309.012,259.495 431.506,259.495 "/>
<path clip-path="url(#clip560)" d="M451.921 242.215 L456.597 242.215 L456.597 276.775 L451.921 276.775 L451.921 242.215 Z" fill="#000000" fill-rule="nonzero" fill-opacity="1" /><polyline clip-path="url(#clip560)" style="stroke:#008000; stroke-linecap:round; stroke-linejoin:round; stroke-width:8; stroke-opacity:1; fill:none" points="309.012,311.335 431.506,311.335 "/>
<path clip-path="url(#clip560)" d="M468.31 312.411 Q469.815 312.92 471.227 314.587 Q472.662 316.254 474.097 319.17 L478.842 328.615 L473.819 328.615 L469.398 319.749 Q467.685 316.277 466.065 315.142 Q464.467 314.008 461.69 314.008 L456.597 314.008 L456.597 328.615 L451.921 328.615 L451.921 294.055 L462.477 294.055 Q468.403 294.055 471.319 296.531 Q474.236 299.008 474.236 304.008 Q474.236 307.272 472.708 309.425 Q471.204 311.578 468.31 312.411 M456.597 297.897 L456.597 310.166 L462.477 310.166 Q465.856 310.166 467.569 308.615 Q469.305 307.041 469.305 304.008 Q469.305 300.976 467.569 299.448 Q465.856 297.897 462.477 297.897 L456.597 297.897 Z" fill="#000000" fill-rule="nonzero" fill-opacity="1" /></svg>
