<?xml version="1.0" encoding="utf-8"?>
<svg xmlns="http://www.w3.org/2000/svg" xmlns:xlink="http://www.w3.org/1999/xlink" width="672" height="480" viewBox="0 0 2688 1920">
<defs>
  <clipPath id="clip590">
    <rect x="0" y="0" width="2688" height="1920"/>
  </clipPath>
</defs>
<path clip-path="url(#clip590)" d="M0 1920 L2688 1920 L2688 -4.26326e-14 L0 -4.26326e-14  Z" fill="#ffffff" fill-rule="evenodd" fill-opacity="1"/>
<defs>
  <clipPath id="clip591">
    <rect x="258" y="127" width="2384" height="1607"/>
  </clipPath>
</defs>
<path clip-path="url(#clip590)" d="M258.117 1734.12 L2640.76 1734.12 L2640.76 127.792 L258.117 127.792  Z" fill="#ffffff" fill-rule="evenodd" fill-opacity="1"/>
<polyline clip-path="url(#clip591)" style="stroke:#000000; stroke-linecap:round; stroke-linejoin:round; stroke-width:2; stroke-opacity:0.1; fill:none" points="325.55,1734.12 325.55,127.792 "/>
<polyline clip-path="url(#clip591)" style="stroke:#000000; stroke-linecap:round; stroke-linejoin:round; stroke-width:2; stroke-opacity:0.1; fill:none" points="888.029,1734.12 888.029,127.792 "/>
<polyline clip-path="url(#clip591)" style="stroke:#000000; stroke-linecap:round; stroke-linejoin:round; stroke-width:2; stroke-opacity:0.1; fill:none" points="1450.51,1734.12 1450.51,127.792 "/>
<polyline clip-path="url(#clip591)" style="stroke:#000000; stroke-linecap:round; stroke-linejoin:round; stroke-width:2; stroke-opacity:0.1; fill:none" points="2012.99,1734.12 2012.99,127.792 "/>
<polyline clip-path="url(#clip591)" style="stroke:#000000; stroke-linecap:round; stroke-linejoin:round; stroke-width:2; stroke-opacity:0.1; fill:none" points="2575.46,1734.12 2575.46,127.792 "/>
<polyline clip-path="url(#clip591)" style="stroke:#000000; stroke-linecap:round; stroke-linejoin:round; stroke-width:2; stroke-opacity:0.1; fill:none" points="258.117,1688.65 2640.76,1688.65 "/>
<polyline clip-path="url(#clip591)" style="stroke:#000000; stroke-linecap:round; stroke-linejoin:round; stroke-width:2; stroke-opacity:0.1; fill:none" points="258.117,1068.52 2640.76,1068.52 "/>
<polyline clip-path="url(#clip591)" style="stroke:#000000; stroke-linecap:round; stroke-linejoin:round; stroke-width:2; stroke-opacity:0.1; fill:none" points="258.117,448.376 2640.76,448.376 "/>
<polyline clip-path="url(#clip590)" style="stroke:#000000; stroke-linecap:round; stroke-linejoin:round; stroke-width:4; stroke-opacity:1; fill:none" points="258.117,1734.12 2640.76,1734.12 "/>
<polyline clip-path="url(#clip590)" style="stroke:#000000; stroke-linecap:round; stroke-linejoin:round; stroke-width:4; stroke-opacity:1; fill:none" points="325.55,1734.12 325.55,1715.22 "/>
<polyline clip-path="url(#clip590)" style="stroke:#000000; stroke-linecap:round; stroke-linejoin:round; stroke-width:4; stroke-opacity:1; fill:none" points="888.029,1734.12 888.029,1715.22 "/>
<polyline clip-path="url(#clip590)" style="stroke:#000000; stroke-linecap:round; stroke-linejoin:round; stroke-width:4; stroke-opacity:1; fill:none" points="1450.51,1734.12 1450.51,1715.22 "/>
<polyline clip-path="url(#clip590)" style="stroke:#000000; stroke-linecap:round; stroke-linejoin:round; stroke-width:4; stroke-opacity:1; fill:none" points="2012.99,1734.12 2012.99,1715.22 "/>
<polyline clip-path="url(#clip590)" style="stroke:#000000; stroke-linecap:round; stroke-linejoin:round; stroke-width:4; stroke-opacity:1; fill:none" points="2575.46,1734.12 2575.46,1715.22 "/>
<path clip-path="url(#clip590)" d="M325.55 1767.34 Q321.939 1767.34 320.11 1770.9 Q318.305 1774.45 318.305 1781.58 Q318.305 1788.68 320.11 1792.25 Q321.939 1795.79 325.55 1795.79 Q329.184 1795.79 330.99 1792.25 Q332.818 1788.68 332.818 1781.58 Q332.818 1774.45 330.99 1770.9 Q329.184 1767.34 325.55 1767.34 M325.55 1763.64 Q331.36 1763.64 334.416 1768.24 Q337.494 1772.83 337.494 1781.58 Q337.494 1790.3 334.416 1794.91 Q331.36 1799.49 325.55 1799.49 Q319.74 1799.49 316.661 1794.91 Q313.605 1790.3 313.605 1781.58 Q313.605 1772.83 316.661 1768.24 Q319.74 1763.64 325.55 1763.64 Z" fill="#000000" fill-rule="nonzero" fill-opacity="1" /><path clip-path="url(#clip590)" d="M882.681 1794.89 L899.001 1794.89 L899.001 1798.82 L877.056 1798.82 L877.056 1794.89 Q879.718 1792.13 884.302 1787.5 Q888.908 1782.85 890.089 1781.51 Q892.334 1778.98 893.214 1777.25 Q894.116 1775.49 894.116 1773.8 Q894.116 1771.04 892.172 1769.31 Q890.251 1767.57 887.149 1767.57 Q884.95 1767.57 882.496 1768.34 Q880.066 1769.1 877.288 1770.65 L877.288 1765.93 Q880.112 1764.79 882.566 1764.21 Q885.019 1763.64 887.056 1763.64 Q892.427 1763.64 895.621 1766.32 Q898.816 1769.01 898.816 1773.5 Q898.816 1775.63 898.005 1777.55 Q897.218 1779.45 895.112 1782.04 Q894.533 1782.71 891.431 1785.93 Q888.329 1789.12 882.681 1794.89 Z" fill="#000000" fill-rule="nonzero" fill-opacity="1" /><path clip-path="url(#clip590)" d="M1453.52 1768.34 L1441.71 1786.78 L1453.52 1786.78 L1453.52 1768.34 M1452.29 1764.26 L1458.17 1764.26 L1458.17 1786.78 L1463.1 1786.78 L1463.1 1790.67 L1458.17 1790.67 L1458.17 1798.82 L1453.52 1798.82 L1453.52 1790.67 L1437.91 1790.67 L1437.91 1786.16 L1452.29 1764.26 Z" fill="#000000" fill-rule="nonzero" fill-opacity="1" /><path clip-path="url(#clip590)" d="M2013.39 1779.68 Q2010.24 1779.68 2008.39 1781.83 Q2006.56 1783.98 2006.56 1787.73 Q2006.56 1791.46 2008.39 1793.64 Q2010.24 1795.79 2013.39 1795.79 Q2016.54 1795.79 2018.37 1793.64 Q2020.22 1791.46 2020.22 1787.73 Q2020.22 1783.98 2018.37 1781.83 Q2016.54 1779.68 2013.39 1779.68 M2022.67 1765.02 L2022.67 1769.28 Q2020.91 1768.45 2019.11 1768.01 Q2017.33 1767.57 2015.57 1767.57 Q2010.94 1767.57 2008.48 1770.7 Q2006.05 1773.82 2005.71 1780.14 Q2007.07 1778.13 2009.13 1777.06 Q2011.19 1775.97 2013.67 1775.97 Q2018.88 1775.97 2021.89 1779.15 Q2024.92 1782.29 2024.92 1787.73 Q2024.92 1793.06 2021.77 1796.27 Q2018.62 1799.49 2013.39 1799.49 Q2007.4 1799.49 2004.22 1794.91 Q2001.05 1790.3 2001.05 1781.58 Q2001.05 1773.38 2004.94 1768.52 Q2008.83 1763.64 2015.38 1763.64 Q2017.14 1763.64 2018.92 1763.98 Q2020.73 1764.33 2022.67 1765.02 Z" fill="#000000" fill-rule="nonzero" fill-opacity="1" /><path clip-path="url(#clip590)" d="M2575.46 1782.41 Q2572.13 1782.41 2570.21 1784.19 Q2568.31 1785.97 2568.31 1789.1 Q2568.31 1792.22 2570.21 1794.01 Q2572.13 1795.79 2575.46 1795.79 Q2578.8 1795.79 2580.72 1794.01 Q2582.64 1792.2 2582.64 1789.1 Q2582.64 1785.97 2580.72 1784.19 Q2578.82 1782.41 2575.46 1782.41 M2570.79 1780.42 Q2567.78 1779.68 2566.09 1777.62 Q2564.42 1775.56 2564.42 1772.59 Q2564.42 1768.45 2567.36 1766.04 Q2570.33 1763.64 2575.46 1763.64 Q2580.63 1763.64 2583.57 1766.04 Q2586.51 1768.45 2586.51 1772.59 Q2586.51 1775.56 2584.82 1777.62 Q2583.15 1779.68 2580.16 1780.42 Q2583.54 1781.21 2585.42 1783.5 Q2587.32 1785.79 2587.32 1789.1 Q2587.32 1794.12 2584.24 1796.81 Q2581.18 1799.49 2575.46 1799.49 Q2569.75 1799.49 2566.67 1796.81 Q2563.61 1794.12 2563.61 1789.1 Q2563.61 1785.79 2565.51 1783.5 Q2567.41 1781.21 2570.79 1780.42 M2569.08 1773.03 Q2569.08 1775.72 2570.74 1777.22 Q2572.43 1778.73 2575.46 1778.73 Q2578.47 1778.73 2580.16 1777.22 Q2581.88 1775.72 2581.88 1773.03 Q2581.88 1770.35 2580.16 1768.84 Q2578.47 1767.34 2575.46 1767.34 Q2572.43 1767.34 2570.74 1768.84 Q2569.08 1770.35 2569.08 1773.03 Z" fill="#000000" fill-rule="nonzero" fill-opacity="1" /><path clip-path="url(#clip590)" d="M1388.6 1837.53 L1388.6 1847.65 L1400.66 1847.65 L1400.66 1852.2 L1388.6 1852.2 L1388.6 1871.56 Q1388.6 1875.92 1389.77 1877.16 Q1390.98 1878.4 1394.64 1878.4 L1400.66 1878.4 L1400.66 1883.3 L1394.64 1883.3 Q1387.86 1883.3 1385.29 1880.79 Q1382.71 1878.24 1382.71 1871.56 L1382.71 1852.2 L1378.41 1852.2 L1378.41 1847.65 L1382.71 1847.65 L1382.71 1837.53 L1388.6 1837.53 Z" fill="#000000" fill-rule="nonzero" fill-opacity="1" /><path clip-path="url(#clip590)" d="M1408.36 1847.65 L1414.22 1847.65 L1414.22 1883.3 L1408.36 1883.3 L1408.36 1847.65 M1408.36 1833.78 L1414.22 1833.78 L1414.22 1841.19 L1408.36 1841.19 L1408.36 1833.78 Z" fill="#000000" fill-rule="nonzero" fill-opacity="1" /><path clip-path="url(#clip590)" d="M1454.23 1854.5 Q1456.42 1850.55 1459.48 1848.67 Q1462.53 1846.79 1466.67 1846.79 Q1472.24 1846.79 1475.27 1850.71 Q1478.29 1854.59 1478.29 1861.78 L1478.29 1883.3 L1472.4 1883.3 L1472.4 1861.98 Q1472.4 1856.85 1470.59 1854.37 Q1468.77 1851.89 1465.05 1851.89 Q1460.5 1851.89 1457.85 1854.91 Q1455.21 1857.93 1455.21 1863.15 L1455.21 1883.3 L1449.32 1883.3 L1449.32 1861.98 Q1449.32 1856.82 1447.51 1854.37 Q1445.7 1851.89 1441.91 1851.89 Q1437.42 1851.89 1434.78 1854.94 Q1432.14 1857.97 1432.14 1863.15 L1432.14 1883.3 L1426.25 1883.3 L1426.25 1847.65 L1432.14 1847.65 L1432.14 1853.19 Q1434.14 1849.91 1436.94 1848.35 Q1439.74 1846.79 1443.6 1846.79 Q1447.48 1846.79 1450.18 1848.77 Q1452.92 1850.74 1454.23 1854.5 Z" fill="#000000" fill-rule="nonzero" fill-opacity="1" /><path clip-path="url(#clip590)" d="M1520.46 1864.01 L1520.46 1866.88 L1493.53 1866.88 Q1493.92 1872.92 1497.16 1876.11 Q1500.44 1879.26 1506.27 1879.26 Q1509.64 1879.26 1512.79 1878.43 Q1515.97 1877.6 1519.09 1875.95 L1519.09 1881.49 Q1515.94 1882.82 1512.63 1883.52 Q1509.32 1884.22 1505.92 1884.22 Q1497.39 1884.22 1492.39 1879.26 Q1487.42 1874.29 1487.42 1865.83 Q1487.42 1857.07 1492.13 1851.95 Q1496.88 1846.79 1504.9 1846.79 Q1512.09 1846.79 1516.26 1851.44 Q1520.46 1856.06 1520.46 1864.01 M1514.61 1862.29 Q1514.54 1857.49 1511.9 1854.62 Q1509.29 1851.76 1504.96 1851.76 Q1500.06 1851.76 1497.1 1854.53 Q1494.17 1857.3 1493.73 1862.33 L1514.61 1862.29 Z" fill="#000000" fill-rule="nonzero" fill-opacity="1" /><polyline clip-path="url(#clip590)" style="stroke:#000000; stroke-linecap:round; stroke-linejoin:round; stroke-width:4; stroke-opacity:1; fill:none" points="258.117,1734.12 258.117,127.792 "/>
<polyline clip-path="url(#clip590)" style="stroke:#000000; stroke-linecap:round; stroke-linejoin:round; stroke-width:4; stroke-opacity:1; fill:none" points="258.117,1688.65 277.014,1688.65 "/>
<polyline clip-path="url(#clip590)" style="stroke:#000000; stroke-linecap:round; stroke-linejoin:round; stroke-width:4; stroke-opacity:1; fill:none" points="258.117,1068.52 277.014,1068.52 "/>
<polyline clip-path="url(#clip590)" style="stroke:#000000; stroke-linecap:round; stroke-linejoin:round; stroke-width:4; stroke-opacity:1; fill:none" points="258.117,448.376 277.014,448.376 "/>
<path clip-path="url(#clip590)" d="M116.886 1708.45 L124.525 1708.45 L124.525 1682.08 L116.214 1683.75 L116.214 1679.49 L124.478 1677.82 L129.154 1677.82 L129.154 1708.45 L136.793 1708.45 L136.793 1712.38 L116.886 1712.38 L116.886 1708.45 Z" fill="#000000" fill-rule="nonzero" fill-opacity="1" /><path clip-path="url(#clip590)" d="M156.237 1680.9 Q152.626 1680.9 150.798 1684.47 Q148.992 1688.01 148.992 1695.14 Q148.992 1702.24 150.798 1705.81 Q152.626 1709.35 156.237 1709.35 Q159.872 1709.35 161.677 1705.81 Q163.506 1702.24 163.506 1695.14 Q163.506 1688.01 161.677 1684.47 Q159.872 1680.9 156.237 1680.9 M156.237 1677.2 Q162.048 1677.2 165.103 1681.8 Q168.182 1686.39 168.182 1695.14 Q168.182 1703.86 165.103 1708.47 Q162.048 1713.05 156.237 1713.05 Q150.427 1713.05 147.349 1708.47 Q144.293 1703.86 144.293 1695.14 Q144.293 1686.39 147.349 1681.8 Q150.427 1677.2 156.237 1677.2 Z" fill="#000000" fill-rule="nonzero" fill-opacity="1" /><path clip-path="url(#clip590)" d="M168.182 1671.3 L192.293 1671.3 L192.293 1674.5 L168.182 1674.5 L168.182 1671.3 Z" fill="#000000" fill-rule="nonzero" fill-opacity="1" /><path clip-path="url(#clip590)" d="M212.004 1669.83 Q214.731 1670.41 216.254 1672.26 Q217.797 1674.1 217.797 1676.81 Q217.797 1680.97 214.938 1683.24 Q212.079 1685.52 206.813 1685.52 Q205.045 1685.52 203.164 1685.16 Q201.302 1684.82 199.309 1684.13 L199.309 1680.46 Q200.888 1681.38 202.769 1681.85 Q204.65 1682.32 206.7 1682.32 Q210.274 1682.32 212.136 1680.91 Q214.016 1679.5 214.016 1676.81 Q214.016 1674.33 212.267 1672.94 Q210.537 1671.52 207.434 1671.52 L204.161 1671.52 L204.161 1668.4 L207.584 1668.4 Q210.386 1668.4 211.872 1667.29 Q213.358 1666.16 213.358 1664.06 Q213.358 1661.9 211.816 1660.75 Q210.292 1659.58 207.434 1659.58 Q205.873 1659.58 204.086 1659.92 Q202.299 1660.26 200.155 1660.97 L200.155 1657.59 Q202.318 1656.99 204.199 1656.69 Q206.098 1656.38 207.772 1656.38 Q212.098 1656.38 214.618 1658.36 Q217.138 1660.32 217.138 1663.66 Q217.138 1666 215.803 1667.61 Q214.468 1669.21 212.004 1669.83 Z" fill="#000000" fill-rule="nonzero" fill-opacity="1" /><path clip-path="url(#clip590)" d="M117.657 1088.31 L125.296 1088.31 L125.296 1061.94 L116.986 1063.61 L116.986 1059.35 L125.249 1057.68 L129.925 1057.68 L129.925 1088.31 L137.564 1088.31 L137.564 1092.24 L117.657 1092.24 L117.657 1088.31 Z" fill="#000000" fill-rule="nonzero" fill-opacity="1" /><path clip-path="url(#clip590)" d="M157.008 1060.76 Q153.397 1060.76 151.569 1064.33 Q149.763 1067.87 149.763 1075 Q149.763 1082.1 151.569 1085.67 Q153.397 1089.21 157.008 1089.21 Q160.643 1089.21 162.448 1085.67 Q164.277 1082.1 164.277 1075 Q164.277 1067.87 162.448 1064.33 Q160.643 1060.76 157.008 1060.76 M157.008 1057.06 Q162.819 1057.06 165.874 1061.66 Q168.953 1066.25 168.953 1075 Q168.953 1083.72 165.874 1088.33 Q162.819 1092.91 157.008 1092.91 Q151.198 1092.91 148.12 1088.33 Q145.064 1083.72 145.064 1075 Q145.064 1066.25 148.12 1061.66 Q151.198 1057.06 157.008 1057.06 Z" fill="#000000" fill-rule="nonzero" fill-opacity="1" /><path clip-path="url(#clip590)" d="M168.953 1051.16 L193.064 1051.16 L193.064 1054.36 L168.953 1054.36 L168.953 1051.16 Z" fill="#000000" fill-rule="nonzero" fill-opacity="1" /><path clip-path="url(#clip590)" d="M204.537 1061.64 L217.797 1061.64 L217.797 1064.83 L199.967 1064.83 L199.967 1061.64 Q202.13 1059.4 205.854 1055.64 Q209.596 1051.86 210.556 1050.76 Q212.38 1048.71 213.095 1047.3 Q213.828 1045.87 213.828 1044.5 Q213.828 1042.26 212.248 1040.85 Q210.687 1039.44 208.167 1039.44 Q206.38 1039.44 204.387 1040.06 Q202.412 1040.68 200.155 1041.94 L200.155 1038.11 Q202.45 1037.19 204.443 1036.72 Q206.437 1036.24 208.092 1036.24 Q212.455 1036.24 215.051 1038.43 Q217.646 1040.61 217.646 1044.26 Q217.646 1045.99 216.988 1047.55 Q216.348 1049.09 214.637 1051.2 Q214.167 1051.74 211.647 1054.36 Q209.126 1056.95 204.537 1061.64 Z" fill="#000000" fill-rule="nonzero" fill-opacity="1" /><path clip-path="url(#clip590)" d="M117.356 468.168 L124.995 468.168 L124.995 441.803 L116.685 443.469 L116.685 439.21 L124.948 437.544 L129.624 437.544 L129.624 468.168 L137.263 468.168 L137.263 472.104 L117.356 472.104 L117.356 468.168 Z" fill="#000000" fill-rule="nonzero" fill-opacity="1" /><path clip-path="url(#clip590)" d="M156.708 440.622 Q153.096 440.622 151.268 444.187 Q149.462 447.729 149.462 454.858 Q149.462 461.965 151.268 465.53 Q153.096 469.071 156.708 469.071 Q160.342 469.071 162.147 465.53 Q163.976 461.965 163.976 454.858 Q163.976 447.729 162.147 444.187 Q160.342 440.622 156.708 440.622 M156.708 436.919 Q162.518 436.919 165.573 441.525 Q168.652 446.108 168.652 454.858 Q168.652 463.585 165.573 468.192 Q162.518 472.775 156.708 472.775 Q150.897 472.775 147.819 468.192 Q144.763 463.585 144.763 454.858 Q144.763 446.108 147.819 441.525 Q150.897 436.919 156.708 436.919 Z" fill="#000000" fill-rule="nonzero" fill-opacity="1" /><path clip-path="url(#clip590)" d="M168.652 431.02 L192.764 431.02 L192.764 434.217 L168.652 434.217 L168.652 431.02 Z" fill="#000000" fill-rule="nonzero" fill-opacity="1" /><path clip-path="url(#clip590)" d="M201.622 441.496 L207.829 441.496 L207.829 420.074 L201.077 421.428 L201.077 417.967 L207.791 416.613 L211.59 416.613 L211.59 441.496 L217.797 441.496 L217.797 444.693 L201.622 444.693 L201.622 441.496 Z" fill="#000000" fill-rule="nonzero" fill-opacity="1" /><path clip-path="url(#clip590)" d="M12.1132 960.396 L12.1132 946.901 L16.6647 946.901 L16.6647 954.539 L65.6807 954.539 L65.6807 946.901 L70.2321 946.901 L70.2321 960.396 L12.1132 960.396 Z" fill="#000000" fill-rule="nonzero" fill-opacity="1" /><path clip-path="url(#clip590)" d="M14.1184 934.169 L14.1184 927.74 L61.6384 927.74 L61.6384 934.169 L14.1184 934.169 Z" fill="#000000" fill-rule="nonzero" fill-opacity="1" /><path clip-path="url(#clip590)" d="M12.1132 901.513 L70.2321 901.513 L70.2321 915.008 L65.6807 915.008 L65.6807 907.401 L16.6647 907.401 L16.6647 915.008 L12.1132 915.008 L12.1132 901.513 Z" fill="#000000" fill-rule="nonzero" fill-opacity="1" /><path clip-path="url(#clip590)" d="M937.686 12.096 L975.926 12.096 L975.926 18.9825 L945.868 18.9825 L945.868 36.8875 L974.67 36.8875 L974.67 43.7741 L945.868 43.7741 L945.868 65.6895 L976.655 65.6895 L976.655 72.576 L937.686 72.576 L937.686 12.096 Z" fill="#000000" fill-rule="nonzero" fill-opacity="1" /><path clip-path="url(#clip590)" d="M1010.4 49.7694 Q1001.37 49.7694 997.882 51.8354 Q994.398 53.9013 994.398 58.8839 Q994.398 62.8538 996.991 65.2034 Q999.624 67.5124 1004.12 67.5124 Q1010.32 67.5124 1014.05 63.1374 Q1017.81 58.7219 1017.81 51.4303 L1017.81 49.7694 L1010.4 49.7694 M1025.27 46.6907 L1025.27 72.576 L1017.81 72.576 L1017.81 65.6895 Q1015.26 69.8214 1011.45 71.8063 Q1007.64 73.7508 1002.14 73.7508 Q995.168 73.7508 991.036 69.8619 Q986.945 65.9325 986.945 59.3701 Q986.945 51.7138 992.049 47.825 Q997.193 43.9361 1007.36 43.9361 L1017.81 43.9361 L1017.81 43.2069 Q1017.81 38.0623 1014.41 35.2672 Q1011.05 32.4315 1004.93 32.4315 Q1001.04 32.4315 997.355 33.3632 Q993.669 34.295 990.266 36.1584 L990.266 29.2718 Q994.358 27.692 998.206 26.9223 Q1002.05 26.1121 1005.7 26.1121 Q1015.54 26.1121 1020.41 31.2163 Q1025.27 36.3204 1025.27 46.6907 Z" fill="#000000" fill-rule="nonzero" fill-opacity="1" /><path clip-path="url(#clip590)" d="M1066.91 34.1734 Q1065.65 33.4443 1064.15 33.1202 Q1062.7 32.7556 1060.91 32.7556 Q1054.59 32.7556 1051.19 36.8875 Q1047.83 40.9789 1047.83 48.6757 L1047.83 72.576 L1040.34 72.576 L1040.34 27.2059 L1047.83 27.2059 L1047.83 34.2544 Q1050.18 30.1225 1053.95 28.1376 Q1057.71 26.1121 1063.1 26.1121 Q1063.87 26.1121 1064.8 26.2337 Q1065.73 26.3147 1066.87 26.5172 L1066.91 34.1734 Z" fill="#000000" fill-rule="nonzero" fill-opacity="1" /><path clip-path="url(#clip590)" d="M1074.73 9.54393 L1082.18 9.54393 L1082.18 72.576 L1074.73 72.576 L1074.73 9.54393 Z" fill="#000000" fill-rule="nonzero" fill-opacity="1" /><path clip-path="url(#clip590)" d="M1116.65 76.7889 Q1113.49 84.8907 1110.5 87.3618 Q1107.5 89.8329 1102.48 89.8329 L1096.52 89.8329 L1096.52 83.5945 L1100.9 83.5945 Q1103.98 83.5945 1105.68 82.1361 Q1107.38 80.6778 1109.44 75.2496 L1110.78 71.8468 L1092.43 27.2059 L1100.33 27.2059 L1114.51 62.6918 L1128.69 27.2059 L1136.58 27.2059 L1116.65 76.7889 Z" fill="#000000" fill-rule="nonzero" fill-opacity="1" /><path clip-path="url(#clip590)" d="M1212.05 48.0275 L1212.05 51.6733 L1177.78 51.6733 Q1178.27 59.3701 1182.4 63.421 Q1186.57 67.4314 1193.99 67.4314 Q1198.28 67.4314 1202.29 66.3781 Q1206.34 65.3249 1210.31 63.2184 L1210.31 70.267 Q1206.3 71.9684 1202.09 72.8596 Q1197.88 73.7508 1193.54 73.7508 Q1182.68 73.7508 1176.32 67.4314 Q1170 61.1119 1170 50.3365 Q1170 39.1965 1176 32.6746 Q1182.04 26.1121 1192.24 26.1121 Q1201.4 26.1121 1206.71 32.0264 Q1212.05 37.9003 1212.05 48.0275 M1204.6 45.84 Q1204.52 39.7232 1201.16 36.0774 Q1197.83 32.4315 1192.33 32.4315 Q1186.09 32.4315 1182.32 35.9558 Q1178.59 39.4801 1178.03 45.8805 L1204.6 45.84 Z" fill="#000000" fill-rule="nonzero" fill-opacity="1" /><path clip-path="url(#clip590)" d="M1260.54 27.2059 L1244.14 49.2833 L1261.39 72.576 L1252.6 72.576 L1239.4 54.752 L1226.19 72.576 L1217.4 72.576 L1235.02 48.8377 L1218.9 27.2059 L1227.69 27.2059 L1239.72 43.369 L1251.75 27.2059 L1260.54 27.2059 Z" fill="#000000" fill-rule="nonzero" fill-opacity="1" /><path clip-path="url(#clip590)" d="M1279.14 65.7705 L1279.14 89.8329 L1271.64 89.8329 L1271.64 27.2059 L1279.14 27.2059 L1279.14 34.0924 Q1281.49 30.0415 1285.05 28.0971 Q1288.66 26.1121 1293.64 26.1121 Q1301.9 26.1121 1307.05 32.6746 Q1312.23 39.2371 1312.23 49.9314 Q1312.23 60.6258 1307.05 67.1883 Q1301.9 73.7508 1293.64 73.7508 Q1288.66 73.7508 1285.05 71.8063 Q1281.49 69.8214 1279.14 65.7705 M1304.49 49.9314 Q1304.49 41.7081 1301.09 37.0496 Q1297.73 32.3505 1291.82 32.3505 Q1285.9 32.3505 1282.5 37.0496 Q1279.14 41.7081 1279.14 49.9314 Q1279.14 58.1548 1282.5 62.8538 Q1285.9 67.5124 1291.82 67.5124 Q1297.73 67.5124 1301.09 62.8538 Q1304.49 58.1548 1304.49 49.9314 Z" fill="#000000" fill-rule="nonzero" fill-opacity="1" /><path clip-path="url(#clip590)" d="M1342.17 32.4315 Q1336.17 32.4315 1332.69 37.1306 Q1329.21 41.7891 1329.21 49.9314 Q1329.21 58.0738 1332.65 62.7728 Q1336.13 67.4314 1342.17 67.4314 Q1348.12 67.4314 1351.61 62.7323 Q1355.09 58.0333 1355.09 49.9314 Q1355.09 41.8701 1351.61 37.1711 Q1348.12 32.4315 1342.17 32.4315 M1342.17 26.1121 Q1351.89 26.1121 1357.44 32.4315 Q1362.99 38.7509 1362.99 49.9314 Q1362.99 61.0714 1357.44 67.4314 Q1351.89 73.7508 1342.17 73.7508 Q1332.41 73.7508 1326.86 67.4314 Q1321.35 61.0714 1321.35 49.9314 Q1321.35 38.7509 1326.86 32.4315 Q1332.41 26.1121 1342.17 26.1121 Z" fill="#000000" fill-rule="nonzero" fill-opacity="1" /><path clip-path="url(#clip590)" d="M1413.06 45.1919 L1413.06 72.576 L1405.61 72.576 L1405.61 45.4349 Q1405.61 38.994 1403.09 35.7938 Q1400.58 32.5936 1395.56 32.5936 Q1389.52 32.5936 1386.04 36.4419 Q1382.56 40.2903 1382.56 46.9338 L1382.56 72.576 L1375.06 72.576 L1375.06 27.2059 L1382.56 27.2059 L1382.56 34.2544 Q1385.23 30.163 1388.83 28.1376 Q1392.48 26.1121 1397.22 26.1121 Q1405.04 26.1121 1409.05 30.9732 Q1413.06 35.7938 1413.06 45.1919 Z" fill="#000000" fill-rule="nonzero" fill-opacity="1" /><path clip-path="url(#clip590)" d="M1466.73 48.0275 L1466.73 51.6733 L1432.46 51.6733 Q1432.95 59.3701 1437.08 63.421 Q1441.25 67.4314 1448.67 67.4314 Q1452.96 67.4314 1456.97 66.3781 Q1461.02 65.3249 1464.99 63.2184 L1464.99 70.267 Q1460.98 71.9684 1456.77 72.8596 Q1452.56 73.7508 1448.22 73.7508 Q1437.36 73.7508 1431 67.4314 Q1424.69 61.1119 1424.69 50.3365 Q1424.69 39.1965 1430.68 32.6746 Q1436.72 26.1121 1446.92 26.1121 Q1456.08 26.1121 1461.39 32.0264 Q1466.73 37.9003 1466.73 48.0275 M1459.28 45.84 Q1459.2 39.7232 1455.84 36.0774 Q1452.51 32.4315 1447.01 32.4315 Q1440.77 32.4315 1437 35.9558 Q1433.27 39.4801 1432.71 45.8805 L1459.28 45.84 Z" fill="#000000" fill-rule="nonzero" fill-opacity="1" /><path clip-path="url(#clip590)" d="M1516.68 45.1919 L1516.68 72.576 L1509.23 72.576 L1509.23 45.4349 Q1509.23 38.994 1506.72 35.7938 Q1504.2 32.5936 1499.18 32.5936 Q1493.15 32.5936 1489.66 36.4419 Q1486.18 40.2903 1486.18 46.9338 L1486.18 72.576 L1478.68 72.576 L1478.68 27.2059 L1486.18 27.2059 L1486.18 34.2544 Q1488.85 30.163 1492.46 28.1376 Q1496.1 26.1121 1500.84 26.1121 Q1508.66 26.1121 1512.67 30.9732 Q1516.68 35.7938 1516.68 45.1919 Z" fill="#000000" fill-rule="nonzero" fill-opacity="1" /><path clip-path="url(#clip590)" d="M1538.92 14.324 L1538.92 27.2059 L1554.27 27.2059 L1554.27 32.9987 L1538.92 32.9987 L1538.92 57.6282 Q1538.92 63.1779 1540.42 64.7578 Q1541.96 66.3376 1546.62 66.3376 L1554.27 66.3376 L1554.27 72.576 L1546.62 72.576 Q1537.99 72.576 1534.71 69.3758 Q1531.43 66.1351 1531.43 57.6282 L1531.43 32.9987 L1525.96 32.9987 L1525.96 27.2059 L1531.43 27.2059 L1531.43 14.324 L1538.92 14.324 Z" fill="#000000" fill-rule="nonzero" fill-opacity="1" /><path clip-path="url(#clip590)" d="M1564.08 27.2059 L1571.53 27.2059 L1571.53 72.576 L1564.08 72.576 L1564.08 27.2059 M1564.08 9.54393 L1571.53 9.54393 L1571.53 18.9825 L1564.08 18.9825 L1564.08 9.54393 Z" fill="#000000" fill-rule="nonzero" fill-opacity="1" /><path clip-path="url(#clip590)" d="M1607.75 49.7694 Q1598.71 49.7694 1595.23 51.8354 Q1591.74 53.9013 1591.74 58.8839 Q1591.74 62.8538 1594.34 65.2034 Q1596.97 67.5124 1601.47 67.5124 Q1607.66 67.5124 1611.39 63.1374 Q1615.16 58.7219 1615.16 51.4303 L1615.16 49.7694 L1607.75 49.7694 M1622.61 46.6907 L1622.61 72.576 L1615.16 72.576 L1615.16 65.6895 Q1612.61 69.8214 1608.8 71.8063 Q1604.99 73.7508 1599.48 73.7508 Q1592.51 73.7508 1588.38 69.8619 Q1584.29 65.9325 1584.29 59.3701 Q1584.29 51.7138 1589.4 47.825 Q1594.54 43.9361 1604.71 43.9361 L1615.16 43.9361 L1615.16 43.2069 Q1615.16 38.0623 1611.76 35.2672 Q1608.39 32.4315 1602.28 32.4315 Q1598.39 32.4315 1594.7 33.3632 Q1591.02 34.295 1587.61 36.1584 L1587.61 29.2718 Q1591.7 27.692 1595.55 26.9223 Q1599.4 26.1121 1603.05 26.1121 Q1612.89 26.1121 1617.75 31.2163 Q1622.61 36.3204 1622.61 46.6907 Z" fill="#000000" fill-rule="nonzero" fill-opacity="1" /><path clip-path="url(#clip590)" d="M1637.97 9.54393 L1645.42 9.54393 L1645.42 72.576 L1637.97 72.576 L1637.97 9.54393 Z" fill="#000000" fill-rule="nonzero" fill-opacity="1" /><path clip-path="url(#clip590)" d="M1717.24 49.3643 Q1717.24 41.2625 1713.88 36.8065 Q1710.56 32.3505 1704.52 32.3505 Q1698.53 32.3505 1695.16 36.8065 Q1691.84 41.2625 1691.84 49.3643 Q1691.84 57.4256 1695.16 61.8816 Q1698.53 66.3376 1704.52 66.3376 Q1710.56 66.3376 1713.88 61.8816 Q1717.24 57.4256 1717.24 49.3643 M1724.7 66.9452 Q1724.7 78.5308 1719.55 84.1616 Q1714.41 89.8329 1703.79 89.8329 Q1699.86 89.8329 1696.38 89.2252 Q1692.9 88.6581 1689.61 87.4428 L1689.61 80.1917 Q1692.9 81.9741 1696.1 82.8248 Q1699.3 83.6755 1702.62 83.6755 Q1709.95 83.6755 1713.6 79.8271 Q1717.24 76.0193 1717.24 68.282 L1717.24 64.5957 Q1714.93 68.6061 1711.33 70.5911 Q1707.72 72.576 1702.7 72.576 Q1694.35 72.576 1689.25 66.2161 Q1684.15 59.8562 1684.15 49.3643 Q1684.15 38.832 1689.25 32.472 Q1694.35 26.1121 1702.7 26.1121 Q1707.72 26.1121 1711.33 28.0971 Q1714.93 30.082 1717.24 34.0924 L1717.24 27.2059 L1724.7 27.2059 L1724.7 66.9452 Z" fill="#000000" fill-rule="nonzero" fill-opacity="1" /><path clip-path="url(#clip590)" d="M1766.34 34.1734 Q1765.08 33.4443 1763.58 33.1202 Q1762.13 32.7556 1760.34 32.7556 Q1754.02 32.7556 1750.62 36.8875 Q1747.26 40.9789 1747.26 48.6757 L1747.26 72.576 L1739.76 72.576 L1739.76 27.2059 L1747.26 27.2059 L1747.26 34.2544 Q1749.61 30.1225 1753.38 28.1376 Q1757.14 26.1121 1762.53 26.1121 Q1763.3 26.1121 1764.23 26.2337 Q1765.16 26.3147 1766.3 26.5172 L1766.34 34.1734 Z" fill="#000000" fill-rule="nonzero" fill-opacity="1" /><path clip-path="url(#clip590)" d="M1789.91 32.4315 Q1783.92 32.4315 1780.44 37.1306 Q1776.95 41.7891 1776.95 49.9314 Q1776.95 58.0738 1780.4 62.7728 Q1783.88 67.4314 1789.91 67.4314 Q1795.87 67.4314 1799.35 62.7323 Q1802.84 58.0333 1802.84 49.9314 Q1802.84 41.8701 1799.35 37.1711 Q1795.87 32.4315 1789.91 32.4315 M1789.91 26.1121 Q1799.64 26.1121 1805.19 32.4315 Q1810.74 38.7509 1810.74 49.9314 Q1810.74 61.0714 1805.19 67.4314 Q1799.64 73.7508 1789.91 73.7508 Q1780.15 73.7508 1774.6 67.4314 Q1769.09 61.0714 1769.09 49.9314 Q1769.09 38.7509 1774.6 32.4315 Q1780.15 26.1121 1789.91 26.1121 Z" fill="#000000" fill-rule="nonzero" fill-opacity="1" /><path clip-path="url(#clip590)" d="M1818.76 27.2059 L1826.21 27.2059 L1835.53 62.6108 L1844.8 27.2059 L1853.59 27.2059 L1862.91 62.6108 L1872.19 27.2059 L1879.64 27.2059 L1867.77 72.576 L1858.98 72.576 L1849.22 35.3887 L1839.42 72.576 L1830.63 72.576 L1818.76 27.2059 Z" fill="#000000" fill-rule="nonzero" fill-opacity="1" /><path clip-path="url(#clip590)" d="M1898.32 14.324 L1898.32 27.2059 L1913.67 27.2059 L1913.67 32.9987 L1898.32 32.9987 L1898.32 57.6282 Q1898.32 63.1779 1899.82 64.7578 Q1901.36 66.3376 1906.01 66.3376 L1913.67 66.3376 L1913.67 72.576 L1906.01 72.576 Q1897.39 72.576 1894.1 69.3758 Q1890.82 66.1351 1890.82 57.6282 L1890.82 32.9987 L1885.35 32.9987 L1885.35 27.2059 L1890.82 27.2059 L1890.82 14.324 L1898.32 14.324 Z" fill="#000000" fill-rule="nonzero" fill-opacity="1" /><path clip-path="url(#clip590)" d="M1961.19 45.1919 L1961.19 72.576 L1953.73 72.576 L1953.73 45.4349 Q1953.73 38.994 1951.22 35.7938 Q1948.71 32.5936 1943.69 32.5936 Q1937.65 32.5936 1934.17 36.4419 Q1930.68 40.2903 1930.68 46.9338 L1930.68 72.576 L1923.19 72.576 L1923.19 9.54393 L1930.68 9.54393 L1930.68 34.2544 Q1933.36 30.163 1936.96 28.1376 Q1940.61 26.1121 1945.35 26.1121 Q1953.17 26.1121 1957.18 30.9732 Q1961.19 35.7938 1961.19 45.1919 Z" fill="#000000" fill-rule="nonzero" fill-opacity="1" /><polyline clip-path="url(#clip591)" style="stroke:#009af9; stroke-linecap:round; stroke-linejoin:round; stroke-width:8; stroke-opacity:1; fill:none" points="325.55,1688.65 332.86,1681.01 355.769,1657.56 388.554,1625.26 424.929,1590.89 466.471,1553.21 511.442,1514 559.91,1473.25 610.979,1431.7 664.343,1389.54 719.482,1347.09 776.098,1304.46 833.888,1261.79 892.658,1219.13 952.262,1176.48 1012.63,1133.83 1073.73,1091.14 1135.63,1048.31 1198.47,1005.22 1262.44,961.708 1327.8,917.592 1394.45,872.932 1461.09,828.617 1526.24,785.603 1589.66,744.04 1651.27,703.976 1711.12,665.362 1769.31,628.147 1825.93,592.263 1881.12,557.64 1934.98,524.211 1987.64,491.915 2039.22,460.691 2089.83,430.486 2139.59,401.25 2188.61,372.935 2237.02,345.496 2284.95,318.888 2332.53,293.062 2379.94,267.97 2427.38,243.548 2475.11,219.719 2523.53,196.362 2573.32,173.254 "/>
<polyline clip-path="url(#clip591)" style="stroke:#e26f46; stroke-linecap:round; stroke-linejoin:round; stroke-width:8; stroke-opacity:1; fill:none" stroke-dasharray="32, 20" points="325.55,1688.65 332.86,1683.75 355.769,1668.4 388.554,1646.42 424.929,1622.04 466.471,1594.19 511.442,1564.04 559.91,1531.55 610.979,1497.32 664.343,1461.55 719.482,1424.59 776.098,1386.63 833.888,1347.9 892.658,1308.5 952.262,1268.54 1012.63,1228.08 1073.73,1187.12 1135.63,1145.62 1198.47,1103.5 1262.44,1060.62 1327.8,1016.81 1394.45,972.125 1461.09,927.459 1526.24,883.785 1589.66,841.271 1651.27,799.974 1711.12,759.85 1769.31,720.846 1825.93,682.887 1881.12,645.895 1934.98,609.789 1987.64,574.487 2039.22,539.913 2089.83,505.986 2139.59,472.631 2188.61,439.769 2237.02,407.318 2284.95,375.191 2332.53,343.293 2379.94,311.513 2427.38,279.714 2475.11,247.716 2523.53,215.259 2573.32,181.881 "/>
<path clip-path="url(#clip590)" d="M337.538 336.856 L875.43 336.856 L875.43 181.336 L337.538 181.336  Z" fill="#ffffff" fill-rule="evenodd" fill-opacity="1"/>
<polyline clip-path="url(#clip590)" style="stroke:#000000; stroke-linecap:round; stroke-linejoin:round; stroke-width:4; stroke-opacity:1; fill:none" points="337.538,336.856 875.43,336.856 875.43,181.336 337.538,181.336 337.538,336.856 "/>
<polyline clip-path="url(#clip590)" style="stroke:#009af9; stroke-linecap:round; stroke-linejoin:round; stroke-width:8; stroke-opacity:1; fill:none" points="364.012,233.176 522.854,233.176 "/>
<path clip-path="url(#clip590)" d="M549.328 214.438 L559.143 214.438 L559.143 217.748 L553.587 217.748 L553.587 253.396 L559.143 253.396 L559.143 256.706 L549.328 256.706 L549.328 214.438 Z" fill="#000000" fill-rule="nonzero" fill-opacity="1" /><path clip-path="url(#clip590)" d="M568.402 215.896 L573.078 215.896 L573.078 250.456 L568.402 250.456 L568.402 215.896 Z" fill="#000000" fill-rule="nonzero" fill-opacity="1" /><path clip-path="url(#clip590)" d="M592.152 214.438 L592.152 256.706 L582.337 256.706 L582.337 253.396 L587.87 253.396 L587.87 217.748 L582.337 217.748 L582.337 214.438 L592.152 214.438 Z" fill="#000000" fill-rule="nonzero" fill-opacity="1" /><path clip-path="url(#clip590)" d="M610.925 214.484 Q607.823 219.808 606.319 225.017 Q604.814 230.225 604.814 235.572 Q604.814 240.919 606.319 246.174 Q607.846 251.405 610.925 256.706 L607.221 256.706 Q603.749 251.266 602.013 246.012 Q600.3 240.757 600.3 235.572 Q600.3 230.41 602.013 225.179 Q603.726 219.947 607.221 214.484 L610.925 214.484 Z" fill="#000000" fill-rule="nonzero" fill-opacity="1" /><path clip-path="url(#clip590)" d="M623.402 217.169 L623.402 224.531 L632.175 224.531 L632.175 227.841 L623.402 227.841 L623.402 241.915 Q623.402 245.086 624.258 245.989 Q625.138 246.891 627.8 246.891 L632.175 246.891 L632.175 250.456 L627.8 250.456 Q622.869 250.456 620.994 248.628 Q619.119 246.776 619.119 241.915 L619.119 227.841 L615.994 227.841 L615.994 224.531 L619.119 224.531 L619.119 217.169 L623.402 217.169 Z" fill="#000000" fill-rule="nonzero" fill-opacity="1" /><path clip-path="url(#clip590)" d="M637.105 214.484 L640.809 214.484 Q644.281 219.947 645.994 225.179 Q647.73 230.41 647.73 235.572 Q647.73 240.757 645.994 246.012 Q644.281 251.266 640.809 256.706 L637.105 256.706 Q640.184 251.405 641.689 246.174 Q643.217 240.919 643.217 235.572 Q643.217 230.225 641.689 225.017 Q640.184 219.808 637.105 214.484 Z" fill="#000000" fill-rule="nonzero" fill-opacity="1" /><polyline clip-path="url(#clip590)" style="stroke:#e26f46; stroke-linecap:round; stroke-linejoin:round; stroke-width:8; stroke-opacity:1; fill:none" stroke-dasharray="32, 20" points="364.012,285.016 522.854,285.016 "/>
<path clip-path="url(#clip590)" d="M573.356 288.269 L573.356 290.352 L553.773 290.352 Q554.05 294.75 556.411 297.065 Q558.796 299.356 563.032 299.356 Q565.485 299.356 567.777 298.755 Q570.092 298.153 572.36 296.949 L572.36 300.977 Q570.069 301.949 567.661 302.458 Q565.254 302.968 562.777 302.968 Q556.573 302.968 552.939 299.356 Q549.328 295.745 549.328 289.588 Q549.328 283.222 552.754 279.495 Q556.203 275.746 562.036 275.746 Q567.268 275.746 570.3 279.125 Q573.356 282.482 573.356 288.269 M569.097 287.019 Q569.05 283.523 567.129 281.44 Q565.231 279.357 562.083 279.357 Q558.518 279.357 556.365 281.37 Q554.235 283.384 553.911 287.042 L569.097 287.019 Z" fill="#000000" fill-rule="nonzero" fill-opacity="1" /><path clip-path="url(#clip590)" d="M601.064 276.371 L591.689 288.986 L601.55 302.296 L596.527 302.296 L588.981 292.111 L581.434 302.296 L576.411 302.296 L586.481 288.732 L577.268 276.371 L582.291 276.371 L589.166 285.607 L596.041 276.371 L601.064 276.371 Z" fill="#000000" fill-rule="nonzero" fill-opacity="1" /><path clip-path="url(#clip590)" d="M611.689 298.407 L611.689 312.157 L607.407 312.157 L607.407 276.371 L611.689 276.371 L611.689 280.306 Q613.031 277.991 615.069 276.88 Q617.129 275.746 619.976 275.746 Q624.698 275.746 627.638 279.495 Q630.601 283.245 630.601 289.357 Q630.601 295.468 627.638 299.218 Q624.698 302.968 619.976 302.968 Q617.129 302.968 615.069 301.856 Q613.031 300.722 611.689 298.407 M626.18 289.357 Q626.18 284.657 624.235 281.995 Q622.314 279.31 618.934 279.31 Q615.555 279.31 613.61 281.995 Q611.689 284.657 611.689 289.357 Q611.689 294.056 613.61 296.741 Q615.555 299.403 618.934 299.403 Q622.314 299.403 624.235 296.741 Q626.18 294.056 626.18 289.357 Z" fill="#000000" fill-rule="nonzero" fill-opacity="1" /><path clip-path="url(#clip590)" d="M647.892 266.324 Q644.791 271.648 643.286 276.857 Q641.781 282.065 641.781 287.412 Q641.781 292.759 643.286 298.014 Q644.814 303.245 647.892 308.546 L644.189 308.546 Q640.717 303.106 638.98 297.852 Q637.267 292.597 637.267 287.412 Q637.267 282.25 638.98 277.019 Q640.693 271.787 644.189 266.324 L647.892 266.324 Z" fill="#000000" fill-rule="nonzero" fill-opacity="1" /><path clip-path="url(#clip590)" d="M666.388 266.324 Q663.286 271.648 661.781 276.857 Q660.277 282.065 660.277 287.412 Q660.277 292.759 661.781 298.014 Q663.309 303.245 666.388 308.546 L662.684 308.546 Q659.212 303.106 657.476 297.852 Q655.763 292.597 655.763 287.412 Q655.763 282.25 657.476 277.019 Q659.189 271.787 662.684 266.324 L666.388 266.324 Z" fill="#000000" fill-rule="nonzero" fill-opacity="1" /><path clip-path="url(#clip590)" d="M691.226 286.093 Q692.73 286.602 694.142 288.269 Q695.577 289.935 697.013 292.852 L701.758 302.296 L696.735 302.296 L692.313 293.431 Q690.601 289.958 688.98 288.824 Q687.383 287.69 684.605 287.69 L679.513 287.69 L679.513 302.296 L674.837 302.296 L674.837 267.736 L685.392 267.736 Q691.318 267.736 694.235 270.213 Q697.151 272.69 697.151 277.69 Q697.151 280.954 695.624 283.107 Q694.119 285.259 691.226 286.093 M679.513 271.579 L679.513 283.847 L685.392 283.847 Q688.772 283.847 690.485 282.296 Q692.221 280.722 692.221 277.69 Q692.221 274.658 690.485 273.13 Q688.772 271.579 685.392 271.579 L679.513 271.579 Z" fill="#000000" fill-rule="nonzero" fill-opacity="1" /><path clip-path="url(#clip590)" d="M716.318 286.625 Q715.161 284.634 712.823 284.634 Q710.485 284.634 709.327 286.625 Q708.147 288.616 708.147 292.597 Q708.147 296.602 709.327 298.593 Q710.485 300.583 712.823 300.583 Q715.161 300.583 716.318 298.593 Q717.499 296.602 717.499 292.597 Q717.499 288.616 716.318 286.625 M712.823 282.574 Q716.549 282.574 718.517 285.144 Q720.485 287.713 720.485 292.597 Q720.485 297.505 718.517 300.074 Q716.549 302.644 712.823 302.644 Q709.073 302.644 707.105 300.074 Q705.137 297.505 705.137 292.597 Q705.137 287.713 707.105 285.144 Q709.073 282.574 712.823 282.574 Z" fill="#000000" fill-rule="nonzero" fill-opacity="1" /><path clip-path="url(#clip590)" d="M724.443 287.412 L736.92 287.412 L736.92 291.208 L724.443 291.208 L724.443 287.412 Z" fill="#000000" fill-rule="nonzero" fill-opacity="1" /><path clip-path="url(#clip590)" d="M745.114 298.361 L752.753 298.361 L752.753 271.996 L744.443 273.662 L744.443 269.403 L752.707 267.736 L757.383 267.736 L757.383 298.361 L765.021 298.361 L765.021 302.296 L745.114 302.296 L745.114 298.361 Z" fill="#000000" fill-rule="nonzero" fill-opacity="1" /><path clip-path="url(#clip590)" d="M773.193 266.324 L776.896 266.324 Q780.369 271.787 782.082 277.019 Q783.818 282.25 783.818 287.412 Q783.818 292.597 782.082 297.852 Q780.369 303.106 776.896 308.546 L773.193 308.546 Q776.271 303.245 777.776 298.014 Q779.304 292.759 779.304 287.412 Q779.304 282.065 777.776 276.857 Q776.271 271.648 773.193 266.324 Z" fill="#000000" fill-rule="nonzero" fill-opacity="1" /><path clip-path="url(#clip590)" d="M796.248 280.445 L801.919 296.463 L810.021 276.371 L814.535 276.371 L804.049 302.296 L804.049 312.157 L799.79 312.157 L799.79 302.296 L792.984 282.945 Q791.966 280.028 789.767 280.028 L788.632 280.028 L788.632 276.371 L790.253 276.371 Q794.813 276.371 796.248 280.445 Z" fill="#000000" fill-rule="nonzero" fill-opacity="1" /><path clip-path="url(#clip590)" d="M824.628 269.009 L824.628 276.371 L833.401 276.371 L833.401 279.681 L824.628 279.681 L824.628 293.755 Q824.628 296.926 825.484 297.829 Q826.364 298.731 829.026 298.731 L833.401 298.731 L833.401 302.296 L829.026 302.296 Q824.095 302.296 822.22 300.468 Q820.345 298.616 820.345 293.755 L820.345 279.681 L817.22 279.681 L817.22 276.371 L820.345 276.371 L820.345 269.009 L824.628 269.009 Z" fill="#000000" fill-rule="nonzero" fill-opacity="1" /><path clip-path="url(#clip590)" d="M838.331 266.324 L842.035 266.324 Q845.507 271.787 847.22 277.019 Q848.956 282.25 848.956 287.412 Q848.956 292.597 847.22 297.852 Q845.507 303.106 842.035 308.546 L838.331 308.546 Q841.41 303.245 842.915 298.014 Q844.442 292.759 844.442 287.412 Q844.442 282.065 842.915 276.857 Q841.41 271.648 838.331 266.324 Z" fill="#000000" fill-rule="nonzero" fill-opacity="1" /></svg>
