<?xml version="1.0" encoding="utf-8"?>
<svg xmlns="http://www.w3.org/2000/svg" xmlns:xlink="http://www.w3.org/1999/xlink" width="672" height="480" viewBox="0 0 2688 1920">
<defs>
  <clipPath id="clip380">
    <rect x="0" y="0" width="2688" height="1920"/>
  </clipPath>
</defs>
<path clip-path="url(#clip380)" d="M0 1920 L2688 1920 L2688 -4.26326e-14 L0 -4.26326e-14  Z" fill="#ffffff" fill-rule="evenodd" fill-opacity="1"/>
<defs>
  <clipPath id="clip381">
    <rect x="225" y="127" width="2416" height="1607"/>
  </clipPath>
</defs>
<path clip-path="url(#clip380)" d="M225.654 1734.12 L2640.76 1734.12 L2640.76 127.792 L225.654 127.792  Z" fill="#ffffff" fill-rule="evenodd" fill-opacity="1"/>
<polyline clip-path="url(#clip381)" style="stroke:#000000; stroke-linecap:round; stroke-linejoin:round; stroke-width:2; stroke-opacity:0.1; fill:none" points="294.006,1734.12 294.006,127.792 "/>
<polyline clip-path="url(#clip381)" style="stroke:#000000; stroke-linecap:round; stroke-linejoin:round; stroke-width:2; stroke-opacity:0.1; fill:none" points="863.606,1734.12 863.606,127.792 "/>
<polyline clip-path="url(#clip381)" style="stroke:#000000; stroke-linecap:round; stroke-linejoin:round; stroke-width:2; stroke-opacity:0.1; fill:none" points="1433.21,1734.12 1433.21,127.792 "/>
<polyline clip-path="url(#clip381)" style="stroke:#000000; stroke-linecap:round; stroke-linejoin:round; stroke-width:2; stroke-opacity:0.1; fill:none" points="2002.8,1734.12 2002.8,127.792 "/>
<polyline clip-path="url(#clip381)" style="stroke:#000000; stroke-linecap:round; stroke-linejoin:round; stroke-width:2; stroke-opacity:0.1; fill:none" points="2572.4,1734.12 2572.4,127.792 "/>
<polyline clip-path="url(#clip381)" style="stroke:#000000; stroke-linecap:round; stroke-linejoin:round; stroke-width:2; stroke-opacity:0.1; fill:none" points="225.654,1701.62 2640.76,1701.62 "/>
<polyline clip-path="url(#clip381)" style="stroke:#000000; stroke-linecap:round; stroke-linejoin:round; stroke-width:2; stroke-opacity:0.1; fill:none" points="225.654,1189.03 2640.76,1189.03 "/>
<polyline clip-path="url(#clip381)" style="stroke:#000000; stroke-linecap:round; stroke-linejoin:round; stroke-width:2; stroke-opacity:0.1; fill:none" points="225.654,676.454 2640.76,676.454 "/>
<polyline clip-path="url(#clip381)" style="stroke:#000000; stroke-linecap:round; stroke-linejoin:round; stroke-width:2; stroke-opacity:0.1; fill:none" points="225.654,163.873 2640.76,163.873 "/>
<polyline clip-path="url(#clip380)" style="stroke:#000000; stroke-linecap:round; stroke-linejoin:round; stroke-width:4; stroke-opacity:1; fill:none" points="225.654,1734.12 2640.76,1734.12 "/>
<polyline clip-path="url(#clip380)" style="stroke:#000000; stroke-linecap:round; stroke-linejoin:round; stroke-width:4; stroke-opacity:1; fill:none" points="294.006,1734.12 294.006,1715.22 "/>
<polyline clip-path="url(#clip380)" style="stroke:#000000; stroke-linecap:round; stroke-linejoin:round; stroke-width:4; stroke-opacity:1; fill:none" points="863.606,1734.12 863.606,1715.22 "/>
<polyline clip-path="url(#clip380)" style="stroke:#000000; stroke-linecap:round; stroke-linejoin:round; stroke-width:4; stroke-opacity:1; fill:none" points="1433.21,1734.12 1433.21,1715.22 "/>
<polyline clip-path="url(#clip380)" style="stroke:#000000; stroke-linecap:round; stroke-linejoin:round; stroke-width:4; stroke-opacity:1; fill:none" points="2002.8,1734.12 2002.8,1715.22 "/>
<polyline clip-path="url(#clip380)" style="stroke:#000000; stroke-linecap:round; stroke-linejoin:round; stroke-width:4; stroke-opacity:1; fill:none" points="2572.4,1734.12 2572.4,1715.22 "/>
<path clip-path="url(#clip380)" d="M294.006 1767.34 Q290.395 1767.34 288.567 1770.9 Q286.761 1774.45 286.761 1781.58 Q286.761 1788.68 288.567 1792.25 Q290.395 1795.79 294.006 1795.79 Q297.641 1795.79 299.446 1792.25 Q301.275 1788.68 301.275 1781.58 Q301.275 1774.45 299.446 1770.9 Q297.641 1767.34 294.006 1767.34 M294.006 1763.64 Q299.817 1763.64 302.872 1768.24 Q305.951 1772.83 305.951 1781.58 Q305.951 1790.3 302.872 1794.91 Q299.817 1799.49 294.006 1799.49 Q288.196 1799.49 285.118 1794.91 Q282.062 1790.3 282.062 1781.58 Q282.062 1772.83 285.118 1768.24 Q288.196 1763.64 294.006 1763.64 Z" fill="#000000" fill-rule="nonzero" fill-opacity="1" /><path clip-path="url(#clip380)" d="M838.293 1794.89 L845.932 1794.89 L845.932 1768.52 L837.622 1770.19 L837.622 1765.93 L845.886 1764.26 L850.562 1764.26 L850.562 1794.89 L858.201 1794.89 L858.201 1798.82 L838.293 1798.82 L838.293 1794.89 Z" fill="#000000" fill-rule="nonzero" fill-opacity="1" /><path clip-path="url(#clip380)" d="M877.645 1767.34 Q874.034 1767.34 872.205 1770.9 Q870.4 1774.45 870.4 1781.58 Q870.4 1788.68 872.205 1792.25 Q874.034 1795.79 877.645 1795.79 Q881.279 1795.79 883.085 1792.25 Q884.914 1788.68 884.914 1781.58 Q884.914 1774.45 883.085 1770.9 Q881.279 1767.34 877.645 1767.34 M877.645 1763.64 Q883.455 1763.64 886.511 1768.24 Q889.589 1772.83 889.589 1781.58 Q889.589 1790.3 886.511 1794.91 Q883.455 1799.49 877.645 1799.49 Q871.835 1799.49 868.756 1794.91 Q865.701 1790.3 865.701 1781.58 Q865.701 1772.83 868.756 1768.24 Q871.835 1763.64 877.645 1763.64 Z" fill="#000000" fill-rule="nonzero" fill-opacity="1" /><path clip-path="url(#clip380)" d="M1411.98 1794.89 L1428.3 1794.89 L1428.3 1798.82 L1406.35 1798.82 L1406.35 1794.89 Q1409.02 1792.13 1413.6 1787.5 Q1418.21 1782.85 1419.39 1781.51 Q1421.63 1778.98 1422.51 1777.25 Q1423.41 1775.49 1423.41 1773.8 Q1423.41 1771.04 1421.47 1769.31 Q1419.55 1767.57 1416.45 1767.57 Q1414.25 1767.57 1411.79 1768.34 Q1409.36 1769.1 1406.58 1770.65 L1406.58 1765.93 Q1409.41 1764.79 1411.86 1764.21 Q1414.32 1763.64 1416.35 1763.64 Q1421.72 1763.64 1424.92 1766.32 Q1428.11 1769.01 1428.11 1773.5 Q1428.11 1775.63 1427.3 1777.55 Q1426.52 1779.45 1424.41 1782.04 Q1423.83 1782.71 1420.73 1785.93 Q1417.63 1789.12 1411.98 1794.89 Z" fill="#000000" fill-rule="nonzero" fill-opacity="1" /><path clip-path="url(#clip380)" d="M1448.11 1767.34 Q1444.5 1767.34 1442.67 1770.9 Q1440.87 1774.45 1440.87 1781.58 Q1440.87 1788.68 1442.67 1792.25 Q1444.5 1795.79 1448.11 1795.79 Q1451.75 1795.79 1453.55 1792.25 Q1455.38 1788.68 1455.38 1781.58 Q1455.38 1774.45 1453.55 1770.9 Q1451.75 1767.34 1448.11 1767.34 M1448.11 1763.64 Q1453.92 1763.64 1456.98 1768.24 Q1460.06 1772.83 1460.06 1781.58 Q1460.06 1790.3 1456.98 1794.91 Q1453.92 1799.49 1448.11 1799.49 Q1442.3 1799.49 1439.22 1794.91 Q1436.17 1790.3 1436.17 1781.58 Q1436.17 1772.83 1439.22 1768.24 Q1442.3 1763.64 1448.11 1763.64 Z" fill="#000000" fill-rule="nonzero" fill-opacity="1" /><path clip-path="url(#clip380)" d="M1991.65 1780.19 Q1995 1780.9 1996.88 1783.17 Q1998.78 1785.44 1998.78 1788.77 Q1998.78 1793.89 1995.26 1796.69 Q1991.74 1799.49 1985.26 1799.49 Q1983.08 1799.49 1980.77 1799.05 Q1978.48 1798.64 1976.02 1797.78 L1976.02 1793.27 Q1977.97 1794.4 1980.28 1794.98 Q1982.6 1795.56 1985.12 1795.56 Q1989.52 1795.56 1991.81 1793.82 Q1994.12 1792.08 1994.12 1788.77 Q1994.12 1785.72 1991.97 1784.01 Q1989.84 1782.27 1986.02 1782.27 L1981.99 1782.27 L1981.99 1778.43 L1986.21 1778.43 Q1989.66 1778.43 1991.49 1777.06 Q1993.31 1775.67 1993.31 1773.08 Q1993.31 1770.42 1991.42 1769.01 Q1989.54 1767.57 1986.02 1767.57 Q1984.1 1767.57 1981.9 1767.99 Q1979.7 1768.4 1977.06 1769.28 L1977.06 1765.12 Q1979.73 1764.38 1982.04 1764.01 Q1984.38 1763.64 1986.44 1763.64 Q1991.76 1763.64 1994.86 1766.07 Q1997.97 1768.47 1997.97 1772.59 Q1997.97 1775.46 1996.32 1777.46 Q1994.68 1779.42 1991.65 1780.19 Z" fill="#000000" fill-rule="nonzero" fill-opacity="1" /><path clip-path="url(#clip380)" d="M2017.64 1767.34 Q2014.03 1767.34 2012.2 1770.9 Q2010.4 1774.45 2010.4 1781.58 Q2010.4 1788.68 2012.2 1792.25 Q2014.03 1795.79 2017.64 1795.79 Q2021.28 1795.79 2023.08 1792.25 Q2024.91 1788.68 2024.91 1781.58 Q2024.91 1774.45 2023.08 1770.9 Q2021.28 1767.34 2017.64 1767.34 M2017.64 1763.64 Q2023.45 1763.64 2026.51 1768.24 Q2029.59 1772.83 2029.59 1781.58 Q2029.59 1790.3 2026.51 1794.91 Q2023.45 1799.49 2017.64 1799.49 Q2011.83 1799.49 2008.75 1794.91 Q2005.7 1790.3 2005.7 1781.58 Q2005.7 1772.83 2008.75 1768.24 Q2011.83 1763.64 2017.64 1763.64 Z" fill="#000000" fill-rule="nonzero" fill-opacity="1" /><path clip-path="url(#clip380)" d="M2560.58 1768.34 L2548.77 1786.78 L2560.58 1786.78 L2560.58 1768.34 M2559.35 1764.26 L2565.23 1764.26 L2565.23 1786.78 L2570.16 1786.78 L2570.16 1790.67 L2565.23 1790.67 L2565.23 1798.82 L2560.58 1798.82 L2560.58 1790.67 L2544.97 1790.67 L2544.97 1786.16 L2559.35 1764.26 Z" fill="#000000" fill-rule="nonzero" fill-opacity="1" /><path clip-path="url(#clip380)" d="M2587.89 1767.34 Q2584.28 1767.34 2582.45 1770.9 Q2580.64 1774.45 2580.64 1781.58 Q2580.64 1788.68 2582.45 1792.25 Q2584.28 1795.79 2587.89 1795.79 Q2591.52 1795.79 2593.33 1792.25 Q2595.16 1788.68 2595.16 1781.58 Q2595.16 1774.45 2593.33 1770.9 Q2591.52 1767.34 2587.89 1767.34 M2587.89 1763.64 Q2593.7 1763.64 2596.76 1768.24 Q2599.83 1772.83 2599.83 1781.58 Q2599.83 1790.3 2596.76 1794.91 Q2593.7 1799.49 2587.89 1799.49 Q2582.08 1799.49 2579 1794.91 Q2575.95 1790.3 2575.95 1781.58 Q2575.95 1772.83 2579 1768.24 Q2582.08 1763.64 2587.89 1763.64 Z" fill="#000000" fill-rule="nonzero" fill-opacity="1" /><path clip-path="url(#clip380)" d="M1355.08 1835.78 L1395.28 1835.78 L1395.28 1841.19 L1378.41 1841.19 L1378.41 1883.3 L1371.95 1883.3 L1371.95 1841.19 L1355.08 1841.19 L1355.08 1835.78 Z" fill="#000000" fill-rule="nonzero" fill-opacity="1" /><path clip-path="url(#clip380)" d="M1399.23 1847.65 L1405.08 1847.65 L1405.08 1883.3 L1399.23 1883.3 L1399.23 1847.65 M1399.23 1833.78 L1405.08 1833.78 L1405.08 1841.19 L1399.23 1841.19 L1399.23 1833.78 Z" fill="#000000" fill-rule="nonzero" fill-opacity="1" /><path clip-path="url(#clip380)" d="M1445.09 1854.5 Q1447.29 1850.55 1450.34 1848.67 Q1453.4 1846.79 1457.54 1846.79 Q1463.11 1846.79 1466.13 1850.71 Q1469.16 1854.59 1469.16 1861.78 L1469.16 1883.3 L1463.27 1883.3 L1463.27 1861.98 Q1463.27 1856.85 1461.45 1854.37 Q1459.64 1851.89 1455.91 1851.89 Q1451.36 1851.89 1448.72 1854.91 Q1446.08 1857.93 1446.08 1863.15 L1446.08 1883.3 L1440.19 1883.3 L1440.19 1861.98 Q1440.19 1856.82 1438.38 1854.37 Q1436.56 1851.89 1432.78 1851.89 Q1428.29 1851.89 1425.65 1854.94 Q1423 1857.97 1423 1863.15 L1423 1883.3 L1417.12 1883.3 L1417.12 1847.65 L1423 1847.65 L1423 1853.19 Q1425.01 1849.91 1427.81 1848.35 Q1430.61 1846.79 1434.46 1846.79 Q1438.35 1846.79 1441.05 1848.77 Q1443.79 1850.74 1445.09 1854.5 Z" fill="#000000" fill-rule="nonzero" fill-opacity="1" /><path clip-path="url(#clip380)" d="M1511.33 1864.01 L1511.33 1866.88 L1484.4 1866.88 Q1484.78 1872.92 1488.03 1876.11 Q1491.31 1879.26 1497.13 1879.26 Q1500.51 1879.26 1503.66 1878.43 Q1506.84 1877.6 1509.96 1875.95 L1509.96 1881.49 Q1506.81 1882.82 1503.5 1883.52 Q1500.19 1884.22 1496.78 1884.22 Q1488.25 1884.22 1483.26 1879.26 Q1478.29 1874.29 1478.29 1865.83 Q1478.29 1857.07 1483 1851.95 Q1487.74 1846.79 1495.76 1846.79 Q1502.96 1846.79 1507.13 1851.44 Q1511.33 1856.06 1511.33 1864.01 M1505.47 1862.29 Q1505.41 1857.49 1502.77 1854.62 Q1500.16 1851.76 1495.83 1851.76 Q1490.93 1851.76 1487.97 1854.53 Q1485.04 1857.3 1484.59 1862.33 L1505.47 1862.29 Z" fill="#000000" fill-rule="nonzero" fill-opacity="1" /><polyline clip-path="url(#clip380)" style="stroke:#000000; stroke-linecap:round; stroke-linejoin:round; stroke-width:4; stroke-opacity:1; fill:none" points="225.654,1734.12 225.654,127.792 "/>
<polyline clip-path="url(#clip380)" style="stroke:#000000; stroke-linecap:round; stroke-linejoin:round; stroke-width:4; stroke-opacity:1; fill:none" points="225.654,1701.62 244.552,1701.62 "/>
<polyline clip-path="url(#clip380)" style="stroke:#000000; stroke-linecap:round; stroke-linejoin:round; stroke-width:4; stroke-opacity:1; fill:none" points="225.654,1189.03 244.552,1189.03 "/>
<polyline clip-path="url(#clip380)" style="stroke:#000000; stroke-linecap:round; stroke-linejoin:round; stroke-width:4; stroke-opacity:1; fill:none" points="225.654,676.454 244.552,676.454 "/>
<polyline clip-path="url(#clip380)" style="stroke:#000000; stroke-linecap:round; stroke-linejoin:round; stroke-width:4; stroke-opacity:1; fill:none" points="225.654,163.873 244.552,163.873 "/>
<path clip-path="url(#clip380)" d="M128.159 1687.41 Q124.548 1687.41 122.719 1690.98 Q120.913 1694.52 120.913 1701.65 Q120.913 1708.76 122.719 1712.32 Q124.548 1715.86 128.159 1715.86 Q131.793 1715.86 133.599 1712.32 Q135.427 1708.76 135.427 1701.65 Q135.427 1694.52 133.599 1690.98 Q131.793 1687.41 128.159 1687.41 M128.159 1683.71 Q133.969 1683.71 137.025 1688.32 Q140.103 1692.9 140.103 1701.65 Q140.103 1710.38 137.025 1714.98 Q133.969 1719.57 128.159 1719.57 Q122.349 1719.57 119.27 1714.98 Q116.214 1710.38 116.214 1701.65 Q116.214 1692.9 119.27 1688.32 Q122.349 1683.71 128.159 1683.71 Z" fill="#000000" fill-rule="nonzero" fill-opacity="1" /><path clip-path="url(#clip380)" d="M148.321 1713.02 L153.205 1713.02 L153.205 1718.9 L148.321 1718.9 L148.321 1713.02 Z" fill="#000000" fill-rule="nonzero" fill-opacity="1" /><path clip-path="url(#clip380)" d="M173.39 1687.41 Q169.779 1687.41 167.95 1690.98 Q166.145 1694.52 166.145 1701.65 Q166.145 1708.76 167.95 1712.32 Q169.779 1715.86 173.39 1715.86 Q177.024 1715.86 178.83 1712.32 Q180.659 1708.76 180.659 1701.65 Q180.659 1694.52 178.83 1690.98 Q177.024 1687.41 173.39 1687.41 M173.39 1683.71 Q179.2 1683.71 182.256 1688.32 Q185.334 1692.9 185.334 1701.65 Q185.334 1710.38 182.256 1714.98 Q179.2 1719.57 173.39 1719.57 Q167.58 1719.57 164.501 1714.98 Q161.446 1710.38 161.446 1701.65 Q161.446 1692.9 164.501 1688.32 Q167.58 1683.71 173.39 1683.71 Z" fill="#000000" fill-rule="nonzero" fill-opacity="1" /><path clip-path="url(#clip380)" d="M129.386 1174.83 Q125.775 1174.83 123.946 1178.4 Q122.14 1181.94 122.14 1189.07 Q122.14 1196.18 123.946 1199.74 Q125.775 1203.28 129.386 1203.28 Q133.02 1203.28 134.825 1199.74 Q136.654 1196.18 136.654 1189.07 Q136.654 1181.94 134.825 1178.4 Q133.02 1174.83 129.386 1174.83 M129.386 1171.13 Q135.196 1171.13 138.251 1175.74 Q141.33 1180.32 141.33 1189.07 Q141.33 1197.8 138.251 1202.4 Q135.196 1206.99 129.386 1206.99 Q123.576 1206.99 120.497 1202.4 Q117.441 1197.8 117.441 1189.07 Q117.441 1180.32 120.497 1175.74 Q123.576 1171.13 129.386 1171.13 Z" fill="#000000" fill-rule="nonzero" fill-opacity="1" /><path clip-path="url(#clip380)" d="M149.548 1200.43 L154.432 1200.43 L154.432 1206.31 L149.548 1206.31 L149.548 1200.43 Z" fill="#000000" fill-rule="nonzero" fill-opacity="1" /><path clip-path="url(#clip380)" d="M165.427 1202.38 L173.066 1202.38 L173.066 1176.01 L164.756 1177.68 L164.756 1173.42 L173.02 1171.75 L177.696 1171.75 L177.696 1202.38 L185.334 1202.38 L185.334 1206.31 L165.427 1206.31 L165.427 1202.38 Z" fill="#000000" fill-rule="nonzero" fill-opacity="1" /><path clip-path="url(#clip380)" d="M129.756 662.252 Q126.145 662.252 124.316 665.817 Q122.511 669.359 122.511 676.489 Q122.511 683.595 124.316 687.16 Q126.145 690.701 129.756 690.701 Q133.39 690.701 135.196 687.16 Q137.025 683.595 137.025 676.489 Q137.025 669.359 135.196 665.817 Q133.39 662.252 129.756 662.252 M129.756 658.549 Q135.566 658.549 138.622 663.155 Q141.7 667.739 141.7 676.489 Q141.7 685.215 138.622 689.822 Q135.566 694.405 129.756 694.405 Q123.946 694.405 120.867 689.822 Q117.812 685.215 117.812 676.489 Q117.812 667.739 120.867 663.155 Q123.946 658.549 129.756 658.549 Z" fill="#000000" fill-rule="nonzero" fill-opacity="1" /><path clip-path="url(#clip380)" d="M149.918 687.854 L154.802 687.854 L154.802 693.734 L149.918 693.734 L149.918 687.854 Z" fill="#000000" fill-rule="nonzero" fill-opacity="1" /><path clip-path="url(#clip380)" d="M169.015 689.799 L185.334 689.799 L185.334 693.734 L163.39 693.734 L163.39 689.799 Q166.052 687.044 170.635 682.414 Q175.242 677.762 176.422 676.419 Q178.668 673.896 179.547 672.16 Q180.45 670.401 180.45 668.711 Q180.45 665.956 178.506 664.22 Q176.584 662.484 173.483 662.484 Q171.284 662.484 168.83 663.248 Q166.399 664.012 163.622 665.563 L163.622 660.84 Q166.446 659.706 168.899 659.128 Q171.353 658.549 173.39 658.549 Q178.76 658.549 181.955 661.234 Q185.149 663.919 185.149 668.41 Q185.149 670.539 184.339 672.461 Q183.552 674.359 181.446 676.951 Q180.867 677.623 177.765 680.84 Q174.663 684.035 169.015 689.799 Z" fill="#000000" fill-rule="nonzero" fill-opacity="1" /><path clip-path="url(#clip380)" d="M128.807 149.672 Q125.196 149.672 123.367 153.237 Q121.562 156.778 121.562 163.908 Q121.562 171.014 123.367 174.579 Q125.196 178.121 128.807 178.121 Q132.441 178.121 134.247 174.579 Q136.075 171.014 136.075 163.908 Q136.075 156.778 134.247 153.237 Q132.441 149.672 128.807 149.672 M128.807 145.968 Q134.617 145.968 137.673 150.575 Q140.751 155.158 140.751 163.908 Q140.751 172.635 137.673 177.241 Q134.617 181.824 128.807 181.824 Q122.997 181.824 119.918 177.241 Q116.863 172.635 116.863 163.908 Q116.863 155.158 119.918 150.575 Q122.997 145.968 128.807 145.968 Z" fill="#000000" fill-rule="nonzero" fill-opacity="1" /><path clip-path="url(#clip380)" d="M148.969 175.273 L153.853 175.273 L153.853 181.153 L148.969 181.153 L148.969 175.273 Z" fill="#000000" fill-rule="nonzero" fill-opacity="1" /><path clip-path="url(#clip380)" d="M178.205 162.519 Q181.561 163.236 183.436 165.505 Q185.334 167.773 185.334 171.107 Q185.334 176.223 181.816 179.023 Q178.297 181.824 171.816 181.824 Q169.64 181.824 167.325 181.385 Q165.034 180.968 162.58 180.111 L162.58 175.598 Q164.524 176.732 166.839 177.31 Q169.154 177.889 171.677 177.889 Q176.075 177.889 178.367 176.153 Q180.682 174.417 180.682 171.107 Q180.682 168.051 178.529 166.338 Q176.399 164.602 172.58 164.602 L168.552 164.602 L168.552 160.76 L172.765 160.76 Q176.214 160.76 178.043 159.394 Q179.872 158.005 179.872 155.412 Q179.872 152.75 177.973 151.338 Q176.098 149.903 172.58 149.903 Q170.659 149.903 168.46 150.32 Q166.26 150.737 163.622 151.616 L163.622 147.45 Q166.284 146.709 168.598 146.338 Q170.936 145.968 172.997 145.968 Q178.321 145.968 181.422 148.399 Q184.524 150.806 184.524 154.926 Q184.524 157.797 182.881 159.787 Q181.237 161.755 178.205 162.519 Z" fill="#000000" fill-rule="nonzero" fill-opacity="1" /><path clip-path="url(#clip380)" d="M14.1184 1274.96 L14.1184 1268.53 L61.6384 1268.53 L61.6384 1274.96 L14.1184 1274.96 Z" fill="#000000" fill-rule="nonzero" fill-opacity="1" /><path clip-path="url(#clip380)" d="M40.1224 1226.36 L61.6384 1226.36 L61.6384 1232.21 L40.3133 1232.21 Q35.2526 1232.21 32.7381 1234.18 Q30.2237 1236.16 30.2237 1240.11 Q30.2237 1244.85 33.2474 1247.58 Q36.2711 1250.32 41.491 1250.32 L61.6384 1250.32 L61.6384 1256.21 L25.9905 1256.21 L25.9905 1250.32 L31.5287 1250.32 Q28.314 1248.22 26.7225 1245.39 Q25.1311 1242.52 25.1311 1238.8 Q25.1311 1232.66 28.9505 1229.51 Q32.7381 1226.36 40.1224 1226.36 Z" fill="#000000" fill-rule="nonzero" fill-opacity="1" /><path clip-path="url(#clip380)" d="M12.1132 1196.63 L16.983 1196.63 L16.983 1202.23 Q16.983 1205.38 18.2562 1206.62 Q19.5293 1207.83 22.8395 1207.83 L25.9905 1207.83 L25.9905 1198.19 L30.542 1198.19 L30.542 1207.83 L61.6384 1207.83 L61.6384 1213.72 L30.542 1213.72 L30.542 1219.32 L25.9905 1219.32 L25.9905 1213.72 L23.5079 1213.72 Q17.5559 1213.72 14.8505 1210.95 Q12.1132 1208.18 12.1132 1202.17 L12.1132 1196.63 Z" fill="#000000" fill-rule="nonzero" fill-opacity="1" /><path clip-path="url(#clip380)" d="M42.3504 1161.23 L45.2149 1161.23 L45.2149 1188.16 Q51.2623 1187.78 54.4452 1184.53 Q57.5962 1181.25 57.5962 1175.43 Q57.5962 1172.06 56.7687 1168.9 Q55.9411 1165.72 54.2861 1162.6 L59.8242 1162.6 Q61.161 1165.75 61.8612 1169.06 Q62.5615 1172.37 62.5615 1175.78 Q62.5615 1184.31 57.5962 1189.31 Q52.631 1194.27 44.1646 1194.27 Q35.4117 1194.27 30.2873 1189.56 Q25.1311 1184.82 25.1311 1176.8 Q25.1311 1169.6 29.7781 1165.44 Q34.3932 1161.23 42.3504 1161.23 M40.6316 1167.09 Q35.8255 1167.15 32.9609 1169.8 Q30.0964 1172.41 30.0964 1176.73 Q30.0964 1181.64 32.8654 1184.6 Q35.6345 1187.52 40.6634 1187.97 L40.6316 1167.09 Z" fill="#000000" fill-rule="nonzero" fill-opacity="1" /><path clip-path="url(#clip380)" d="M27.3591 1125.97 L32.8336 1125.97 Q31.465 1128.45 30.7966 1130.97 Q30.0964 1133.45 30.0964 1135.99 Q30.0964 1141.69 33.7248 1144.84 Q37.3214 1147.99 43.8463 1147.99 Q50.3711 1147.99 53.9996 1144.84 Q57.5962 1141.69 57.5962 1135.99 Q57.5962 1133.45 56.9278 1130.97 Q56.2276 1128.45 54.859 1125.97 L60.2698 1125.97 Q61.4156 1128.42 61.9886 1131.06 Q62.5615 1133.67 62.5615 1136.63 Q62.5615 1144.68 57.5007 1149.43 Q52.44 1154.17 43.8463 1154.17 Q35.1253 1154.17 30.1282 1149.39 Q25.1311 1144.59 25.1311 1136.25 Q25.1311 1133.54 25.704 1130.97 Q26.2451 1128.39 27.3591 1125.97 Z" fill="#000000" fill-rule="nonzero" fill-opacity="1" /><path clip-path="url(#clip380)" d="M15.869 1109.99 L25.9905 1109.99 L25.9905 1097.93 L30.542 1097.93 L30.542 1109.99 L49.8937 1109.99 Q54.2542 1109.99 55.4955 1108.81 Q56.7368 1107.6 56.7368 1103.94 L56.7368 1097.93 L61.6384 1097.93 L61.6384 1103.94 Q61.6384 1110.72 59.124 1113.3 Q56.5777 1115.88 49.8937 1115.88 L30.542 1115.88 L30.542 1120.18 L25.9905 1120.18 L25.9905 1115.88 L15.869 1115.88 L15.869 1109.99 Z" fill="#000000" fill-rule="nonzero" fill-opacity="1" /><path clip-path="url(#clip380)" d="M42.3504 1059.73 L45.2149 1059.73 L45.2149 1086.66 Q51.2623 1086.28 54.4452 1083.03 Q57.5962 1079.75 57.5962 1073.93 Q57.5962 1070.55 56.7687 1067.4 Q55.9411 1064.22 54.2861 1061.1 L59.8242 1061.1 Q61.161 1064.25 61.8612 1067.56 Q62.5615 1070.87 62.5615 1074.28 Q62.5615 1082.81 57.5962 1087.81 Q52.631 1092.77 44.1646 1092.77 Q35.4117 1092.77 30.2873 1088.06 Q25.1311 1083.32 25.1311 1075.3 Q25.1311 1068.1 29.7781 1063.93 Q34.3932 1059.73 42.3504 1059.73 M40.6316 1065.59 Q35.8255 1065.65 32.9609 1068.29 Q30.0964 1070.9 30.0964 1075.23 Q30.0964 1080.13 32.8654 1083.09 Q35.6345 1086.02 40.6634 1086.47 L40.6316 1065.59 Z" fill="#000000" fill-rule="nonzero" fill-opacity="1" /><path clip-path="url(#clip380)" d="M31.4013 1026.66 L12.1132 1026.66 L12.1132 1020.81 L61.6384 1020.81 L61.6384 1026.66 L56.2912 1026.66 Q59.4741 1028.51 61.0337 1031.34 Q62.5615 1034.14 62.5615 1038.09 Q62.5615 1044.55 57.4052 1048.62 Q52.249 1052.67 43.8463 1052.67 Q35.4436 1052.67 30.2873 1048.62 Q25.1311 1044.55 25.1311 1038.09 Q25.1311 1034.14 26.6907 1031.34 Q28.2185 1028.51 31.4013 1026.66 M43.8463 1046.62 Q50.3075 1046.62 53.9996 1043.98 Q57.6599 1041.3 57.6599 1036.66 Q57.6599 1032.01 53.9996 1029.34 Q50.3075 1026.66 43.8463 1026.66 Q37.3851 1026.66 33.7248 1029.34 Q30.0327 1032.01 30.0327 1036.66 Q30.0327 1041.3 33.7248 1043.98 Q37.3851 1046.62 43.8463 1046.62 Z" fill="#000000" fill-rule="nonzero" fill-opacity="1" /><path clip-path="url(#clip380)" d="M12.1769 973.955 Q19.4975 978.22 26.6589 980.289 Q33.8203 982.358 41.1727 982.358 Q48.5251 982.358 55.7502 980.289 Q62.9434 978.188 70.2321 973.955 L70.2321 979.047 Q62.7524 983.822 55.5274 986.209 Q48.3023 988.564 41.1727 988.564 Q34.0749 988.564 26.8817 986.209 Q19.6884 983.854 12.1769 979.047 L12.1769 973.955 Z" fill="#000000" fill-rule="nonzero" fill-opacity="1" /><path clip-path="url(#clip380)" d="M40.1224 932.96 L61.6384 932.96 L61.6384 938.816 L40.3133 938.816 Q35.2526 938.816 32.7381 940.79 Q30.2237 942.763 30.2237 946.71 Q30.2237 951.452 33.2474 954.189 Q36.2711 956.927 41.491 956.927 L61.6384 956.927 L61.6384 962.815 L25.9905 962.815 L25.9905 956.927 L31.5287 956.927 Q28.314 954.826 26.7225 951.993 Q25.1311 949.129 25.1311 945.405 Q25.1311 939.262 28.9505 936.111 Q32.7381 932.96 40.1224 932.96 Z" fill="#000000" fill-rule="nonzero" fill-opacity="1" /><path clip-path="url(#clip380)" d="M30.0964 907.465 Q30.0964 912.176 33.7885 914.913 Q37.4488 917.65 43.8463 917.65 Q50.2438 917.65 53.9359 914.945 Q57.5962 912.208 57.5962 907.465 Q57.5962 902.786 53.9041 900.049 Q50.212 897.312 43.8463 897.312 Q37.5124 897.312 33.8203 900.049 Q30.0964 902.786 30.0964 907.465 M25.1311 907.465 Q25.1311 899.826 30.0964 895.466 Q35.0616 891.105 43.8463 891.105 Q52.5991 891.105 57.5962 895.466 Q62.5615 899.826 62.5615 907.465 Q62.5615 915.136 57.5962 919.496 Q52.5991 923.825 43.8463 923.825 Q35.0616 923.825 30.0964 919.496 Q25.1311 915.136 25.1311 907.465 Z" fill="#000000" fill-rule="nonzero" fill-opacity="1" /><path clip-path="url(#clip380)" d="M31.465 860.741 Q30.8921 861.727 30.6375 862.905 Q30.351 864.051 30.351 865.451 Q30.351 870.417 33.5975 873.09 Q36.8122 875.732 42.8596 875.732 L61.6384 875.732 L61.6384 881.62 L25.9905 881.62 L25.9905 875.732 L31.5287 875.732 Q28.2821 873.886 26.7225 870.926 Q25.1311 867.966 25.1311 863.733 Q25.1311 863.128 25.2266 862.396 Q25.2903 861.664 25.4494 860.773 L31.465 860.741 Z" fill="#000000" fill-rule="nonzero" fill-opacity="1" /><path clip-path="url(#clip380)" d="M32.8336 827.989 Q28.8869 825.793 27.009 822.738 Q25.1311 819.682 25.1311 815.544 Q25.1311 809.974 29.046 806.951 Q32.9291 803.927 40.1224 803.927 L61.6384 803.927 L61.6384 809.815 L40.3133 809.815 Q35.1889 809.815 32.7063 811.629 Q30.2237 813.444 30.2237 817.168 Q30.2237 821.719 33.2474 824.361 Q36.2711 827.003 41.491 827.003 L61.6384 827.003 L61.6384 832.891 L40.3133 832.891 Q35.1571 832.891 32.7063 834.705 Q30.2237 836.519 30.2237 840.307 Q30.2237 844.795 33.2792 847.436 Q36.3029 850.078 41.491 850.078 L61.6384 850.078 L61.6384 855.967 L25.9905 855.967 L25.9905 850.078 L31.5287 850.078 Q28.2503 848.073 26.6907 845.272 Q25.1311 842.471 25.1311 838.62 Q25.1311 834.737 27.1045 832.031 Q29.0779 829.294 32.8336 827.989 Z" fill="#000000" fill-rule="nonzero" fill-opacity="1" /><path clip-path="url(#clip380)" d="M43.719 776.045 Q43.719 783.143 45.3422 785.88 Q46.9655 788.617 50.8804 788.617 Q53.9996 788.617 55.8457 786.58 Q57.6599 784.511 57.6599 780.979 Q57.6599 776.109 54.2224 773.181 Q50.7531 770.22 45.0239 770.22 L43.719 770.22 L43.719 776.045 M41.3 764.364 L61.6384 764.364 L61.6384 770.22 L56.2276 770.22 Q59.4741 772.226 61.0337 775.218 Q62.5615 778.209 62.5615 782.538 Q62.5615 788.013 59.5059 791.259 Q56.4186 794.474 51.2623 794.474 Q45.2467 794.474 42.1912 790.463 Q39.1357 786.421 39.1357 778.432 L39.1357 770.22 L38.5628 770.22 Q34.5205 770.22 32.3244 772.894 Q30.0964 775.536 30.0964 780.342 Q30.0964 783.397 30.8284 786.294 Q31.5605 789.19 33.0246 791.864 L27.6137 791.864 Q26.3724 788.649 25.7677 785.625 Q25.1311 782.602 25.1311 779.737 Q25.1311 772.003 29.1415 768.183 Q33.1519 764.364 41.3 764.364 Z" fill="#000000" fill-rule="nonzero" fill-opacity="1" /><path clip-path="url(#clip380)" d="M12.1132 752.301 L12.1132 746.445 L61.6384 746.445 L61.6384 752.301 L12.1132 752.301 Z" fill="#000000" fill-rule="nonzero" fill-opacity="1" /><path clip-path="url(#clip380)" d="M25.9905 734.191 L25.9905 728.334 L61.6384 728.334 L61.6384 734.191 L25.9905 734.191 M12.1132 734.191 L12.1132 728.334 L19.5293 728.334 L19.5293 734.191 L12.1132 734.191 Z" fill="#000000" fill-rule="nonzero" fill-opacity="1" /><path clip-path="url(#clip380)" d="M27.0408 693.355 L32.579 693.355 Q31.3059 695.837 30.6693 698.511 Q30.0327 701.184 30.0327 704.049 Q30.0327 708.409 31.3695 710.606 Q32.7063 712.77 35.3799 712.77 Q37.4169 712.77 38.5946 711.21 Q39.7404 709.651 40.7908 704.94 L41.2364 702.935 Q42.5732 696.697 45.0239 694.087 Q47.4429 691.445 51.8034 691.445 Q56.7687 691.445 59.6651 695.392 Q62.5615 699.306 62.5615 706.181 Q62.5615 709.046 61.9886 712.165 Q61.4475 715.253 60.3335 718.69 L54.2861 718.69 Q55.973 715.444 56.8323 712.293 Q57.6599 709.142 57.6599 706.054 Q57.6599 701.916 56.2594 699.688 Q54.8271 697.46 52.249 697.46 Q49.8619 697.46 48.5887 699.084 Q47.3156 700.675 46.1379 706.118 L45.6605 708.155 Q44.5147 713.598 42.1594 716.016 Q39.7722 718.435 35.6345 718.435 Q30.6056 718.435 27.8684 714.871 Q25.1311 711.306 25.1311 704.749 Q25.1311 701.503 25.6085 698.638 Q26.086 695.774 27.0408 693.355 Z" fill="#000000" fill-rule="nonzero" fill-opacity="1" /><path clip-path="url(#clip380)" d="M42.3504 651.627 L45.2149 651.627 L45.2149 678.554 Q51.2623 678.172 54.4452 674.926 Q57.5962 671.647 57.5962 665.823 Q57.5962 662.449 56.7687 659.298 Q55.9411 656.115 54.2861 652.996 L59.8242 652.996 Q61.161 656.147 61.8612 659.457 Q62.5615 662.767 62.5615 666.173 Q62.5615 674.703 57.5962 679.7 Q52.631 684.665 44.1646 684.665 Q35.4117 684.665 30.2873 679.955 Q25.1311 675.212 25.1311 667.192 Q25.1311 659.998 29.7781 655.829 Q34.3932 651.627 42.3504 651.627 M40.6316 657.484 Q35.8255 657.547 32.9609 660.189 Q30.0964 662.799 30.0964 667.128 Q30.0964 672.029 32.8654 674.989 Q35.6345 677.918 40.6634 678.363 L40.6316 657.484 Z" fill="#000000" fill-rule="nonzero" fill-opacity="1" /><path clip-path="url(#clip380)" d="M31.4013 618.558 L12.1132 618.558 L12.1132 612.701 L61.6384 612.701 L61.6384 618.558 L56.2912 618.558 Q59.4741 620.404 61.0337 623.236 Q62.5615 626.037 62.5615 629.984 Q62.5615 636.445 57.4052 640.519 Q52.249 644.561 43.8463 644.561 Q35.4436 644.561 30.2873 640.519 Q25.1311 636.445 25.1311 629.984 Q25.1311 626.037 26.6907 623.236 Q28.2185 620.404 31.4013 618.558 M43.8463 638.514 Q50.3075 638.514 53.9996 635.872 Q57.6599 633.199 57.6599 628.552 Q57.6599 623.905 53.9996 621.231 Q50.3075 618.558 43.8463 618.558 Q37.3851 618.558 33.7248 621.231 Q30.0327 623.905 30.0327 628.552 Q30.0327 633.199 33.7248 635.872 Q37.3851 638.514 43.8463 638.514 Z" fill="#000000" fill-rule="nonzero" fill-opacity="1" /><path clip-path="url(#clip380)" d="M12.1769 601.561 L12.1769 596.469 Q19.6884 591.694 26.8817 589.339 Q34.0749 586.952 41.1727 586.952 Q48.3023 586.952 55.5274 589.339 Q62.7524 591.694 70.2321 596.469 L70.2321 601.561 Q62.9434 597.328 55.7502 595.259 Q48.5251 593.158 41.1727 593.158 Q33.8203 593.158 26.6589 595.259 Q19.4975 597.328 12.1769 601.561 Z" fill="#000000" fill-rule="nonzero" fill-opacity="1" /><path clip-path="url(#clip380)" d="M338.934 63.9476 L338.934 47.7034 L325.566 47.7034 L325.566 40.9789 L347.036 40.9789 L347.036 66.9452 Q342.297 70.3075 336.585 72.0494 Q330.873 73.7508 324.392 73.7508 Q310.214 73.7508 302.193 65.4869 Q294.212 57.1826 294.212 42.3968 Q294.212 27.5705 302.193 19.3066 Q310.214 11.0023 324.392 11.0023 Q330.306 11.0023 335.613 12.4606 Q340.96 13.9189 345.456 16.7545 L345.456 25.464 Q340.919 21.6156 335.815 19.6712 Q330.711 17.7268 325.08 17.7268 Q313.981 17.7268 308.391 23.9246 Q302.841 30.1225 302.841 42.3968 Q302.841 54.6305 308.391 60.8284 Q313.981 67.0263 325.08 67.0263 Q329.415 67.0263 332.818 66.2971 Q336.22 65.5274 338.934 63.9476 Z" fill="#000000" fill-rule="nonzero" fill-opacity="1" /><path clip-path="url(#clip380)" d="M387.95 34.1734 Q386.695 33.4443 385.196 33.1202 Q383.737 32.7556 381.955 32.7556 Q375.636 32.7556 372.233 36.8875 Q368.871 40.9789 368.871 48.6757 L368.871 72.576 L361.376 72.576 L361.376 27.2059 L368.871 27.2059 L368.871 34.2544 Q371.22 30.1225 374.987 28.1376 Q378.755 26.1121 384.143 26.1121 Q384.912 26.1121 385.844 26.2337 Q386.776 26.3147 387.91 26.5172 L387.95 34.1734 Z" fill="#000000" fill-rule="nonzero" fill-opacity="1" /><path clip-path="url(#clip380)" d="M416.388 49.7694 Q407.354 49.7694 403.87 51.8354 Q400.387 53.9013 400.387 58.8839 Q400.387 62.8538 402.979 65.2034 Q405.612 67.5124 410.109 67.5124 Q416.307 67.5124 420.034 63.1374 Q423.801 58.7219 423.801 51.4303 L423.801 49.7694 L416.388 49.7694 M431.255 46.6907 L431.255 72.576 L423.801 72.576 L423.801 65.6895 Q421.249 69.8214 417.441 71.8063 Q413.633 73.7508 408.124 73.7508 Q401.156 73.7508 397.024 69.8619 Q392.933 65.9325 392.933 59.3701 Q392.933 51.7138 398.037 47.825 Q403.182 43.9361 413.35 43.9361 L423.801 43.9361 L423.801 43.2069 Q423.801 38.0623 420.398 35.2672 Q417.036 32.4315 410.919 32.4315 Q407.03 32.4315 403.344 33.3632 Q399.657 34.295 396.255 36.1584 L396.255 29.2718 Q400.346 27.692 404.194 26.9223 Q408.043 26.1121 411.689 26.1121 Q421.532 26.1121 426.393 31.2163 Q431.255 36.3204 431.255 46.6907 Z" fill="#000000" fill-rule="nonzero" fill-opacity="1" /><path clip-path="url(#clip380)" d="M453.818 65.7705 L453.818 89.8329 L446.324 89.8329 L446.324 27.2059 L453.818 27.2059 L453.818 34.0924 Q456.168 30.0415 459.732 28.0971 Q463.338 26.1121 468.32 26.1121 Q476.584 26.1121 481.729 32.6746 Q486.914 39.2371 486.914 49.9314 Q486.914 60.6258 481.729 67.1883 Q476.584 73.7508 468.32 73.7508 Q463.338 73.7508 459.732 71.8063 Q456.168 69.8214 453.818 65.7705 M479.177 49.9314 Q479.177 41.7081 475.774 37.0496 Q472.412 32.3505 466.497 32.3505 Q460.583 32.3505 457.18 37.0496 Q453.818 41.7081 453.818 49.9314 Q453.818 58.1548 457.18 62.8538 Q460.583 67.5124 466.497 67.5124 Q472.412 67.5124 475.774 62.8538 Q479.177 58.1548 479.177 49.9314 Z" fill="#000000" fill-rule="nonzero" fill-opacity="1" /><path clip-path="url(#clip380)" d="M536.983 45.1919 L536.983 72.576 L529.529 72.576 L529.529 45.4349 Q529.529 38.994 527.018 35.7938 Q524.506 32.5936 519.483 32.5936 Q513.447 32.5936 509.964 36.4419 Q506.48 40.2903 506.48 46.9338 L506.48 72.576 L498.986 72.576 L498.986 9.54393 L506.48 9.54393 L506.48 34.2544 Q509.153 30.163 512.759 28.1376 Q516.405 26.1121 521.144 26.1121 Q528.962 26.1121 532.973 30.9732 Q536.983 35.7938 536.983 45.1919 Z" fill="#000000" fill-rule="nonzero" fill-opacity="1" /><path clip-path="url(#clip380)" d="M548.083 46.5287 L569.917 46.5287 L569.917 53.1722 L548.083 53.1722 L548.083 46.5287 Z" fill="#000000" fill-rule="nonzero" fill-opacity="1" /><path clip-path="url(#clip380)" d="M581.786 27.2059 L589.24 27.2059 L589.24 72.576 L581.786 72.576 L581.786 27.2059 M581.786 9.54393 L589.24 9.54393 L589.24 18.9825 L581.786 18.9825 L581.786 9.54393 Z" fill="#000000" fill-rule="nonzero" fill-opacity="1" /><path clip-path="url(#clip380)" d="M642.55 45.1919 L642.55 72.576 L635.096 72.576 L635.096 45.4349 Q635.096 38.994 632.584 35.7938 Q630.073 32.5936 625.05 32.5936 Q619.014 32.5936 615.53 36.4419 Q612.046 40.2903 612.046 46.9338 L612.046 72.576 L604.552 72.576 L604.552 27.2059 L612.046 27.2059 L612.046 34.2544 Q614.72 30.163 618.325 28.1376 Q621.971 26.1121 626.711 26.1121 Q634.529 26.1121 638.539 30.9732 Q642.55 35.7938 642.55 45.1919 Z" fill="#000000" fill-rule="nonzero" fill-opacity="1" /><path clip-path="url(#clip380)" d="M686.34 28.5427 L686.34 35.5912 Q683.18 33.9709 679.777 33.1607 Q676.375 32.3505 672.729 32.3505 Q667.179 32.3505 664.384 34.0519 Q661.629 35.7533 661.629 39.156 Q661.629 41.7486 663.614 43.2475 Q665.599 44.7058 671.595 46.0426 L674.147 46.6097 Q682.087 48.3111 685.408 51.4303 Q688.771 54.509 688.771 60.0587 Q688.771 66.3781 683.747 70.0644 Q678.765 73.7508 670.015 73.7508 Q666.369 73.7508 662.399 73.0216 Q658.47 72.3329 654.095 70.9151 L654.095 63.2184 Q658.227 65.3654 662.237 66.4591 Q666.247 67.5124 670.177 67.5124 Q675.443 67.5124 678.279 65.73 Q681.114 63.9071 681.114 60.6258 Q681.114 57.5877 679.048 55.9673 Q677.023 54.3469 670.096 52.8481 L667.503 52.2405 Q660.576 50.7821 657.498 47.7845 Q654.419 44.7463 654.419 39.4801 Q654.419 33.0797 658.956 29.5959 Q663.493 26.1121 671.838 26.1121 Q675.97 26.1121 679.615 26.7198 Q683.261 27.3274 686.34 28.5427 Z" fill="#000000" fill-rule="nonzero" fill-opacity="1" /><path clip-path="url(#clip380)" d="M708.012 14.324 L708.012 27.2059 L723.365 27.2059 L723.365 32.9987 L708.012 32.9987 L708.012 57.6282 Q708.012 63.1779 709.511 64.7578 Q711.05 66.3376 715.709 66.3376 L723.365 66.3376 L723.365 72.576 L715.709 72.576 Q707.081 72.576 703.799 69.3758 Q700.518 66.1351 700.518 57.6282 L700.518 32.9987 L695.049 32.9987 L695.049 27.2059 L700.518 27.2059 L700.518 14.324 L708.012 14.324 Z" fill="#000000" fill-rule="nonzero" fill-opacity="1" /><path clip-path="url(#clip380)" d="M753.788 49.7694 Q744.754 49.7694 741.27 51.8354 Q737.786 53.9013 737.786 58.8839 Q737.786 62.8538 740.379 65.2034 Q743.012 67.5124 747.509 67.5124 Q753.707 67.5124 757.433 63.1374 Q761.201 58.7219 761.201 51.4303 L761.201 49.7694 L753.788 49.7694 M768.654 46.6907 L768.654 72.576 L761.201 72.576 L761.201 65.6895 Q758.649 69.8214 754.841 71.8063 Q751.033 73.7508 745.524 73.7508 Q738.556 73.7508 734.424 69.8619 Q730.333 65.9325 730.333 59.3701 Q730.333 51.7138 735.437 47.825 Q740.582 43.9361 750.749 43.9361 L761.201 43.9361 L761.201 43.2069 Q761.201 38.0623 757.798 35.2672 Q754.436 32.4315 748.319 32.4315 Q744.43 32.4315 740.744 33.3632 Q737.057 34.295 733.655 36.1584 L733.655 29.2718 Q737.746 27.692 741.594 26.9223 Q745.443 26.1121 749.088 26.1121 Q758.932 26.1121 763.793 31.2163 Q768.654 36.3204 768.654 46.6907 Z" fill="#000000" fill-rule="nonzero" fill-opacity="1" /><path clip-path="url(#clip380)" d="M821.721 45.1919 L821.721 72.576 L814.268 72.576 L814.268 45.4349 Q814.268 38.994 811.756 35.7938 Q809.244 32.5936 804.221 32.5936 Q798.185 32.5936 794.702 36.4419 Q791.218 40.2903 791.218 46.9338 L791.218 72.576 L783.724 72.576 L783.724 27.2059 L791.218 27.2059 L791.218 34.2544 Q793.891 30.163 797.497 28.1376 Q801.143 26.1121 805.882 26.1121 Q813.7 26.1121 817.711 30.9732 Q821.721 35.7938 821.721 45.1919 Z" fill="#000000" fill-rule="nonzero" fill-opacity="1" /><path clip-path="url(#clip380)" d="M869.238 28.9478 L869.238 35.9153 Q866.079 34.1734 862.878 33.3227 Q859.719 32.4315 856.478 32.4315 Q849.227 32.4315 845.216 37.0496 Q841.206 41.6271 841.206 49.9314 Q841.206 58.2358 845.216 62.8538 Q849.227 67.4314 856.478 67.4314 Q859.719 67.4314 862.878 66.5807 Q866.079 65.6895 869.238 63.9476 L869.238 70.8341 Q866.119 72.2924 862.757 73.0216 Q859.435 73.7508 855.668 73.7508 Q845.419 73.7508 839.383 67.3098 Q833.347 60.8689 833.347 49.9314 Q833.347 38.832 839.424 32.472 Q845.54 26.1121 856.154 26.1121 Q859.597 26.1121 862.878 26.8413 Q866.16 27.5299 869.238 28.9478 Z" fill="#000000" fill-rule="nonzero" fill-opacity="1" /><path clip-path="url(#clip380)" d="M921.009 48.0275 L921.009 51.6733 L886.738 51.6733 Q887.224 59.3701 891.356 63.421 Q895.529 67.4314 902.942 67.4314 Q907.236 67.4314 911.246 66.3781 Q915.297 65.3249 919.267 63.2184 L919.267 70.267 Q915.257 71.9684 911.044 72.8596 Q906.831 73.7508 902.496 73.7508 Q891.64 73.7508 885.28 67.4314 Q878.96 61.1119 878.96 50.3365 Q878.96 39.1965 884.956 32.6746 Q890.992 26.1121 901.2 26.1121 Q910.355 26.1121 915.662 32.0264 Q921.009 37.9003 921.009 48.0275 M913.555 45.84 Q913.474 39.7232 910.112 36.0774 Q906.79 32.4315 901.281 32.4315 Q895.043 32.4315 891.275 35.9558 Q887.548 39.4801 886.981 45.8805 L913.555 45.84 Z" fill="#000000" fill-rule="nonzero" fill-opacity="1" /><path clip-path="url(#clip380)" d="M994.938 35.9153 Q997.733 30.8922 1001.62 28.5022 Q1005.51 26.1121 1010.78 26.1121 Q1017.87 26.1121 1021.71 31.0947 Q1025.56 36.0368 1025.56 45.1919 L1025.56 72.576 L1018.07 72.576 L1018.07 45.4349 Q1018.07 38.913 1015.76 35.7533 Q1013.45 32.5936 1008.71 32.5936 Q1002.92 32.5936 999.556 36.4419 Q996.194 40.2903 996.194 46.9338 L996.194 72.576 L988.699 72.576 L988.699 45.4349 Q988.699 38.8725 986.39 35.7533 Q984.081 32.5936 979.261 32.5936 Q973.549 32.5936 970.187 36.4824 Q966.825 40.3308 966.825 46.9338 L966.825 72.576 L959.33 72.576 L959.33 27.2059 L966.825 27.2059 L966.825 34.2544 Q969.377 30.082 972.941 28.0971 Q976.506 26.1121 981.408 26.1121 Q986.35 26.1121 989.793 28.6237 Q993.277 31.1352 994.938 35.9153 Z" fill="#000000" fill-rule="nonzero" fill-opacity="1" /><path clip-path="url(#clip380)" d="M1058.01 32.4315 Q1052.02 32.4315 1048.53 37.1306 Q1045.05 41.7891 1045.05 49.9314 Q1045.05 58.0738 1048.49 62.7728 Q1051.97 67.4314 1058.01 67.4314 Q1063.97 67.4314 1067.45 62.7323 Q1070.93 58.0333 1070.93 49.9314 Q1070.93 41.8701 1067.45 37.1711 Q1063.97 32.4315 1058.01 32.4315 M1058.01 26.1121 Q1067.73 26.1121 1073.28 32.4315 Q1078.83 38.7509 1078.83 49.9314 Q1078.83 61.0714 1073.28 67.4314 Q1067.73 73.7508 1058.01 73.7508 Q1048.25 73.7508 1042.7 67.4314 Q1037.19 61.0714 1037.19 49.9314 Q1037.19 38.7509 1042.7 32.4315 Q1048.25 26.1121 1058.01 26.1121 Z" fill="#000000" fill-rule="nonzero" fill-opacity="1" /><path clip-path="url(#clip380)" d="M1121.04 34.0924 L1121.04 9.54393 L1128.5 9.54393 L1128.5 72.576 L1121.04 72.576 L1121.04 65.7705 Q1118.69 69.8214 1115.09 71.8063 Q1111.52 73.7508 1106.5 73.7508 Q1098.28 73.7508 1093.09 67.1883 Q1087.95 60.6258 1087.95 49.9314 Q1087.95 39.2371 1093.09 32.6746 Q1098.28 26.1121 1106.5 26.1121 Q1111.52 26.1121 1115.09 28.0971 Q1118.69 30.0415 1121.04 34.0924 M1095.64 49.9314 Q1095.64 58.1548 1099.01 62.8538 Q1102.41 67.5124 1108.32 67.5124 Q1114.24 67.5124 1117.64 62.8538 Q1121.04 58.1548 1121.04 49.9314 Q1121.04 41.7081 1117.64 37.0496 Q1114.24 32.3505 1108.32 32.3505 Q1102.41 32.3505 1099.01 37.0496 Q1095.64 41.7081 1095.64 49.9314 Z" fill="#000000" fill-rule="nonzero" fill-opacity="1" /><path clip-path="url(#clip380)" d="M1182.66 48.0275 L1182.66 51.6733 L1148.39 51.6733 Q1148.87 59.3701 1153 63.421 Q1157.18 67.4314 1164.59 67.4314 Q1168.88 67.4314 1172.89 66.3781 Q1176.94 65.3249 1180.91 63.2184 L1180.91 70.267 Q1176.9 71.9684 1172.69 72.8596 Q1168.48 73.7508 1164.14 73.7508 Q1153.29 73.7508 1146.93 67.4314 Q1140.61 61.1119 1140.61 50.3365 Q1140.61 39.1965 1146.6 32.6746 Q1152.64 26.1121 1162.85 26.1121 Q1172 26.1121 1177.31 32.0264 Q1182.66 37.9003 1182.66 48.0275 M1175.2 45.84 Q1175.12 39.7232 1171.76 36.0774 Q1168.44 32.4315 1162.93 32.4315 Q1156.69 32.4315 1152.92 35.9558 Q1149.2 39.4801 1148.63 45.8805 L1175.2 45.84 Z" fill="#000000" fill-rule="nonzero" fill-opacity="1" /><path clip-path="url(#clip380)" d="M1194.89 9.54393 L1202.34 9.54393 L1202.34 72.576 L1194.89 72.576 L1194.89 9.54393 Z" fill="#000000" fill-rule="nonzero" fill-opacity="1" /><path clip-path="url(#clip380)" d="M1246.86 28.5427 L1246.86 35.5912 Q1243.7 33.9709 1240.3 33.1607 Q1236.9 32.3505 1233.25 32.3505 Q1227.7 32.3505 1224.91 34.0519 Q1222.15 35.7533 1222.15 39.156 Q1222.15 41.7486 1224.14 43.2475 Q1226.12 44.7058 1232.12 46.0426 L1234.67 46.6097 Q1242.61 48.3111 1245.93 51.4303 Q1249.29 54.509 1249.29 60.0587 Q1249.29 66.3781 1244.27 70.0644 Q1239.29 73.7508 1230.54 73.7508 Q1226.89 73.7508 1222.92 73.0216 Q1218.99 72.3329 1214.62 70.9151 L1214.62 63.2184 Q1218.75 65.3654 1222.76 66.4591 Q1226.77 67.5124 1230.7 67.5124 Q1235.97 67.5124 1238.8 65.73 Q1241.64 63.9071 1241.64 60.6258 Q1241.64 57.5877 1239.57 55.9673 Q1237.55 54.3469 1230.62 52.8481 L1228.03 52.2405 Q1221.1 50.7821 1218.02 47.7845 Q1214.94 44.7463 1214.94 39.4801 Q1214.94 33.0797 1219.48 29.5959 Q1224.02 26.1121 1232.36 26.1121 Q1236.49 26.1121 1240.14 26.7198 Q1243.78 27.3274 1246.86 28.5427 Z" fill="#000000" fill-rule="nonzero" fill-opacity="1" /><path clip-path="url(#clip380)" d="M1305.12 32.4315 Q1299.12 32.4315 1295.64 37.1306 Q1292.15 41.7891 1292.15 49.9314 Q1292.15 58.0738 1295.6 62.7728 Q1299.08 67.4314 1305.12 67.4314 Q1311.07 67.4314 1314.55 62.7323 Q1318.04 58.0333 1318.04 49.9314 Q1318.04 41.8701 1314.55 37.1711 Q1311.07 32.4315 1305.12 32.4315 M1305.12 26.1121 Q1314.84 26.1121 1320.39 32.4315 Q1325.94 38.7509 1325.94 49.9314 Q1325.94 61.0714 1320.39 67.4314 Q1314.84 73.7508 1305.12 73.7508 Q1295.35 73.7508 1289.8 67.4314 Q1284.29 61.0714 1284.29 49.9314 Q1284.29 38.7509 1289.8 32.4315 Q1295.35 26.1121 1305.12 26.1121 Z" fill="#000000" fill-rule="nonzero" fill-opacity="1" /><path clip-path="url(#clip380)" d="M1376.01 45.1919 L1376.01 72.576 L1368.55 72.576 L1368.55 45.4349 Q1368.55 38.994 1366.04 35.7938 Q1363.53 32.5936 1358.51 32.5936 Q1352.47 32.5936 1348.99 36.4419 Q1345.5 40.2903 1345.5 46.9338 L1345.5 72.576 L1338.01 72.576 L1338.01 27.2059 L1345.5 27.2059 L1345.5 34.2544 Q1348.18 30.163 1351.78 28.1376 Q1355.43 26.1121 1360.17 26.1121 Q1367.99 26.1121 1372 30.9732 Q1376.01 35.7938 1376.01 45.1919 Z" fill="#000000" fill-rule="nonzero" fill-opacity="1" /><path clip-path="url(#clip380)" d="M1443.53 34.1734 Q1442.28 33.4443 1440.78 33.1202 Q1439.32 32.7556 1437.54 32.7556 Q1431.22 32.7556 1427.82 36.8875 Q1424.46 40.9789 1424.46 48.6757 L1424.46 72.576 L1416.96 72.576 L1416.96 27.2059 L1424.46 27.2059 L1424.46 34.2544 Q1426.8 30.1225 1430.57 28.1376 Q1434.34 26.1121 1439.73 26.1121 Q1440.5 26.1121 1441.43 26.2337 Q1442.36 26.3147 1443.49 26.5172 L1443.53 34.1734 Z" fill="#000000" fill-rule="nonzero" fill-opacity="1" /><path clip-path="url(#clip380)" d="M1488.34 48.0275 L1488.34 51.6733 L1454.07 51.6733 Q1454.55 59.3701 1458.69 63.421 Q1462.86 67.4314 1470.27 67.4314 Q1474.56 67.4314 1478.58 66.3781 Q1482.63 65.3249 1486.6 63.2184 L1486.6 70.267 Q1482.59 71.9684 1478.37 72.8596 Q1474.16 73.7508 1469.83 73.7508 Q1458.97 73.7508 1452.61 67.4314 Q1446.29 61.1119 1446.29 50.3365 Q1446.29 39.1965 1452.28 32.6746 Q1458.32 26.1121 1468.53 26.1121 Q1477.68 26.1121 1482.99 32.0264 Q1488.34 37.9003 1488.34 48.0275 M1480.88 45.84 Q1480.8 39.7232 1477.44 36.0774 Q1474.12 32.4315 1468.61 32.4315 Q1462.37 32.4315 1458.6 35.9558 Q1454.88 39.4801 1454.31 45.8805 L1480.88 45.84 Z" fill="#000000" fill-rule="nonzero" fill-opacity="1" /><path clip-path="url(#clip380)" d="M1530.43 49.3643 Q1530.43 41.2625 1527.06 36.8065 Q1523.74 32.3505 1517.71 32.3505 Q1511.71 32.3505 1508.35 36.8065 Q1505.03 41.2625 1505.03 49.3643 Q1505.03 57.4256 1508.35 61.8816 Q1511.71 66.3376 1517.71 66.3376 Q1523.74 66.3376 1527.06 61.8816 Q1530.43 57.4256 1530.43 49.3643 M1537.88 66.9452 Q1537.88 78.5308 1532.74 84.1616 Q1527.59 89.8329 1516.98 89.8329 Q1513.05 89.8329 1509.56 89.2252 Q1506.08 88.6581 1502.8 87.4428 L1502.8 80.1917 Q1506.08 81.9741 1509.28 82.8248 Q1512.48 83.6755 1515.8 83.6755 Q1523.14 83.6755 1526.78 79.8271 Q1530.43 76.0193 1530.43 68.282 L1530.43 64.5957 Q1528.12 68.6061 1524.51 70.5911 Q1520.91 72.576 1515.88 72.576 Q1507.54 72.576 1502.44 66.2161 Q1497.33 59.8562 1497.33 49.3643 Q1497.33 38.832 1502.44 32.472 Q1507.54 26.1121 1515.88 26.1121 Q1520.91 26.1121 1524.51 28.0971 Q1528.12 30.082 1530.43 34.0924 L1530.43 27.2059 L1537.88 27.2059 L1537.88 66.9452 Z" fill="#000000" fill-rule="nonzero" fill-opacity="1" /><path clip-path="url(#clip380)" d="M1552.46 54.671 L1552.46 27.2059 L1559.92 27.2059 L1559.92 54.3874 Q1559.92 60.8284 1562.43 64.0691 Q1564.94 67.2693 1569.96 67.2693 Q1576 67.2693 1579.48 63.421 Q1583.01 59.5726 1583.01 52.9291 L1583.01 27.2059 L1590.46 27.2059 L1590.46 72.576 L1583.01 72.576 L1583.01 65.6084 Q1580.29 69.7404 1576.69 71.7658 Q1573.12 73.7508 1568.38 73.7508 Q1560.57 73.7508 1556.51 68.8897 Q1552.46 64.0286 1552.46 54.671 M1571.22 26.1121 L1571.22 26.1121 Z" fill="#000000" fill-rule="nonzero" fill-opacity="1" /><path clip-path="url(#clip380)" d="M1605.81 9.54393 L1613.27 9.54393 L1613.27 72.576 L1605.81 72.576 L1605.81 9.54393 Z" fill="#000000" fill-rule="nonzero" fill-opacity="1" /><path clip-path="url(#clip380)" d="M1649.48 49.7694 Q1640.45 49.7694 1636.97 51.8354 Q1633.48 53.9013 1633.48 58.8839 Q1633.48 62.8538 1636.07 65.2034 Q1638.71 67.5124 1643.2 67.5124 Q1649.4 67.5124 1653.13 63.1374 Q1656.9 58.7219 1656.9 51.4303 L1656.9 49.7694 L1649.48 49.7694 M1664.35 46.6907 L1664.35 72.576 L1656.9 72.576 L1656.9 65.6895 Q1654.34 69.8214 1650.54 71.8063 Q1646.73 73.7508 1641.22 73.7508 Q1634.25 73.7508 1630.12 69.8619 Q1626.03 65.9325 1626.03 59.3701 Q1626.03 51.7138 1631.13 47.825 Q1636.28 43.9361 1646.44 43.9361 L1656.9 43.9361 L1656.9 43.2069 Q1656.9 38.0623 1653.49 35.2672 Q1650.13 32.4315 1644.01 32.4315 Q1640.13 32.4315 1636.44 33.3632 Q1632.75 34.295 1629.35 36.1584 L1629.35 29.2718 Q1633.44 27.692 1637.29 26.9223 Q1641.14 26.1121 1644.78 26.1121 Q1654.63 26.1121 1659.49 31.2163 Q1664.35 36.3204 1664.35 46.6907 Z" fill="#000000" fill-rule="nonzero" fill-opacity="1" /><path clip-path="url(#clip380)" d="M1705.99 34.1734 Q1704.74 33.4443 1703.24 33.1202 Q1701.78 32.7556 1700 32.7556 Q1693.68 32.7556 1690.28 36.8875 Q1686.91 40.9789 1686.91 48.6757 L1686.91 72.576 L1679.42 72.576 L1679.42 27.2059 L1686.91 27.2059 L1686.91 34.2544 Q1689.26 30.1225 1693.03 28.1376 Q1696.8 26.1121 1702.19 26.1121 Q1702.95 26.1121 1703.89 26.2337 Q1704.82 26.3147 1705.95 26.5172 L1705.99 34.1734 Z" fill="#000000" fill-rule="nonzero" fill-opacity="1" /><path clip-path="url(#clip380)" d="M1770.04 49.3643 Q1770.04 41.2625 1766.68 36.8065 Q1763.35 32.3505 1757.32 32.3505 Q1751.32 32.3505 1747.96 36.8065 Q1744.64 41.2625 1744.64 49.3643 Q1744.64 57.4256 1747.96 61.8816 Q1751.32 66.3376 1757.32 66.3376 Q1763.35 66.3376 1766.68 61.8816 Q1770.04 57.4256 1770.04 49.3643 M1777.49 66.9452 Q1777.49 78.5308 1772.35 84.1616 Q1767.2 89.8329 1756.59 89.8329 Q1752.66 89.8329 1749.18 89.2252 Q1745.69 88.6581 1742.41 87.4428 L1742.41 80.1917 Q1745.69 81.9741 1748.89 82.8248 Q1752.09 83.6755 1755.41 83.6755 Q1762.75 83.6755 1766.39 79.8271 Q1770.04 76.0193 1770.04 68.282 L1770.04 64.5957 Q1767.73 68.6061 1764.12 70.5911 Q1760.52 72.576 1755.5 72.576 Q1747.15 72.576 1742.05 66.2161 Q1736.94 59.8562 1736.94 49.3643 Q1736.94 38.832 1742.05 32.472 Q1747.15 26.1121 1755.5 26.1121 Q1760.52 26.1121 1764.12 28.0971 Q1767.73 30.082 1770.04 34.0924 L1770.04 27.2059 L1777.49 27.2059 L1777.49 66.9452 Z" fill="#000000" fill-rule="nonzero" fill-opacity="1" /><path clip-path="url(#clip380)" d="M1819.13 34.1734 Q1817.88 33.4443 1816.38 33.1202 Q1814.92 32.7556 1813.14 32.7556 Q1806.82 32.7556 1803.42 36.8875 Q1800.06 40.9789 1800.06 48.6757 L1800.06 72.576 L1792.56 72.576 L1792.56 27.2059 L1800.06 27.2059 L1800.06 34.2544 Q1802.4 30.1225 1806.17 28.1376 Q1809.94 26.1121 1815.33 26.1121 Q1816.1 26.1121 1817.03 26.2337 Q1817.96 26.3147 1819.09 26.5172 L1819.13 34.1734 Z" fill="#000000" fill-rule="nonzero" fill-opacity="1" /><path clip-path="url(#clip380)" d="M1847.57 49.7694 Q1838.54 49.7694 1835.05 51.8354 Q1831.57 53.9013 1831.57 58.8839 Q1831.57 62.8538 1834.16 65.2034 Q1836.8 67.5124 1841.29 67.5124 Q1847.49 67.5124 1851.22 63.1374 Q1854.99 58.7219 1854.99 51.4303 L1854.99 49.7694 L1847.57 49.7694 M1862.44 46.6907 L1862.44 72.576 L1854.99 72.576 L1854.99 65.6895 Q1852.43 69.8214 1848.63 71.8063 Q1844.82 73.7508 1839.31 73.7508 Q1832.34 73.7508 1828.21 69.8619 Q1824.12 65.9325 1824.12 59.3701 Q1824.12 51.7138 1829.22 47.825 Q1834.37 43.9361 1844.53 43.9361 L1854.99 43.9361 L1854.99 43.2069 Q1854.99 38.0623 1851.58 35.2672 Q1848.22 32.4315 1842.1 32.4315 Q1838.21 32.4315 1834.53 33.3632 Q1830.84 34.295 1827.44 36.1584 L1827.44 29.2718 Q1831.53 27.692 1835.38 26.9223 Q1839.23 26.1121 1842.87 26.1121 Q1852.72 26.1121 1857.58 31.2163 Q1862.44 36.3204 1862.44 46.6907 Z" fill="#000000" fill-rule="nonzero" fill-opacity="1" /><path clip-path="url(#clip380)" d="M1885 65.7705 L1885 89.8329 L1877.51 89.8329 L1877.51 27.2059 L1885 27.2059 L1885 34.0924 Q1887.35 30.0415 1890.92 28.0971 Q1894.52 26.1121 1899.5 26.1121 Q1907.77 26.1121 1912.91 32.6746 Q1918.1 39.2371 1918.1 49.9314 Q1918.1 60.6258 1912.91 67.1883 Q1907.77 73.7508 1899.5 73.7508 Q1894.52 73.7508 1890.92 71.8063 Q1887.35 69.8214 1885 65.7705 M1910.36 49.9314 Q1910.36 41.7081 1906.96 37.0496 Q1903.6 32.3505 1897.68 32.3505 Q1891.77 32.3505 1888.36 37.0496 Q1885 41.7081 1885 49.9314 Q1885 58.1548 1888.36 62.8538 Q1891.77 67.5124 1897.68 67.5124 Q1903.6 67.5124 1906.96 62.8538 Q1910.36 58.1548 1910.36 49.9314 Z" fill="#000000" fill-rule="nonzero" fill-opacity="1" /><path clip-path="url(#clip380)" d="M1968.17 45.1919 L1968.17 72.576 L1960.71 72.576 L1960.71 45.4349 Q1960.71 38.994 1958.2 35.7938 Q1955.69 32.5936 1950.67 32.5936 Q1944.63 32.5936 1941.15 36.4419 Q1937.66 40.2903 1937.66 46.9338 L1937.66 72.576 L1930.17 72.576 L1930.17 9.54393 L1937.66 9.54393 L1937.66 34.2544 Q1940.34 30.163 1943.94 28.1376 Q1947.59 26.1121 1952.33 26.1121 Q1960.15 26.1121 1964.16 30.9732 Q1968.17 35.7938 1968.17 45.1919 Z" fill="#000000" fill-rule="nonzero" fill-opacity="1" /><path clip-path="url(#clip380)" d="M2027.31 9.62495 Q2021.88 18.942 2019.25 28.0566 Q2016.62 37.1711 2016.62 46.5287 Q2016.62 55.8863 2019.25 65.0818 Q2021.92 74.2369 2027.31 83.5134 L2020.83 83.5134 Q2014.75 73.9938 2011.71 64.7983 Q2008.72 55.6027 2008.72 46.5287 Q2008.72 37.4952 2011.71 28.3401 Q2014.71 19.1851 2020.83 9.62495 L2027.31 9.62495 Z" fill="#000000" fill-rule="nonzero" fill-opacity="1" /><path clip-path="url(#clip380)" d="M2042.1 12.096 L2053.12 12.096 L2079.93 62.6918 L2079.93 12.096 L2087.87 12.096 L2087.87 72.576 L2076.85 72.576 L2050.04 21.9802 L2050.04 72.576 L2042.1 72.576 L2042.1 12.096 Z" fill="#000000" fill-rule="nonzero" fill-opacity="1" /><path clip-path="url(#clip380)" d="M2104.8 34.9026 L2156.74 34.9026 L2156.74 41.7081 L2104.8 41.7081 L2104.8 34.9026 M2104.8 51.4303 L2156.74 51.4303 L2156.74 58.3168 L2104.8 58.3168 L2104.8 51.4303 Z" fill="#000000" fill-rule="nonzero" fill-opacity="1" /><path clip-path="url(#clip380)" d="M2181.45 65.6895 L2210.01 65.6895 L2210.01 72.576 L2171.6 72.576 L2171.6 65.6895 Q2176.26 60.8689 2184.28 52.7671 Q2192.34 44.6248 2194.41 42.2752 Q2198.34 37.8598 2199.88 34.8216 Q2201.46 31.7429 2201.46 28.7857 Q2201.46 23.9651 2198.06 20.927 Q2194.69 17.8888 2189.27 17.8888 Q2185.42 17.8888 2181.12 19.2256 Q2176.87 20.5624 2172.01 23.2765 L2172.01 15.0127 Q2176.95 13.0277 2181.25 12.015 Q2185.54 11.0023 2189.1 11.0023 Q2198.5 11.0023 2204.09 15.7013 Q2209.68 20.4004 2209.68 28.2591 Q2209.68 31.9859 2208.26 35.3482 Q2206.89 38.6699 2203.2 43.2069 Q2202.19 44.3817 2196.76 50.0125 Q2191.33 55.6027 2181.45 65.6895 Z" fill="#000000" fill-rule="nonzero" fill-opacity="1" /><path clip-path="url(#clip380)" d="M2244.68 17.4837 Q2238.36 17.4837 2235.16 23.7221 Q2232 29.92 2232 42.3968 Q2232 54.833 2235.16 61.0714 Q2238.36 67.2693 2244.68 67.2693 Q2251.04 67.2693 2254.2 61.0714 Q2257.4 54.833 2257.4 42.3968 Q2257.4 29.92 2254.2 23.7221 Q2251.04 17.4837 2244.68 17.4837 M2244.68 11.0023 Q2254.85 11.0023 2260.2 19.0636 Q2265.58 27.0843 2265.58 42.3968 Q2265.58 57.6687 2260.2 65.73 Q2254.85 73.7508 2244.68 73.7508 Q2234.51 73.7508 2229.13 65.73 Q2223.78 57.6687 2223.78 42.3968 Q2223.78 27.0843 2229.13 19.0636 Q2234.51 11.0023 2244.68 11.0023 Z" fill="#000000" fill-rule="nonzero" fill-opacity="1" /><path clip-path="url(#clip380)" d="M2297.47 17.4837 Q2291.15 17.4837 2287.95 23.7221 Q2284.79 29.92 2284.79 42.3968 Q2284.79 54.833 2287.95 61.0714 Q2291.15 67.2693 2297.47 67.2693 Q2303.83 67.2693 2306.99 61.0714 Q2310.19 54.833 2310.19 42.3968 Q2310.19 29.92 2306.99 23.7221 Q2303.83 17.4837 2297.47 17.4837 M2297.47 11.0023 Q2307.63 11.0023 2312.98 19.0636 Q2318.37 27.0843 2318.37 42.3968 Q2318.37 57.6687 2312.98 65.73 Q2307.63 73.7508 2297.47 73.7508 Q2287.3 73.7508 2281.91 65.73 Q2276.56 57.6687 2276.56 42.3968 Q2276.56 27.0843 2281.91 19.0636 Q2287.3 11.0023 2297.47 11.0023 Z" fill="#000000" fill-rule="nonzero" fill-opacity="1" /><path clip-path="url(#clip380)" d="M2333.6 62.2867 L2342.15 62.2867 L2342.15 69.2543 L2335.5 82.2172 L2330.28 82.2172 L2333.6 69.2543 L2333.6 62.2867 Z" fill="#000000" fill-rule="nonzero" fill-opacity="1" /><path clip-path="url(#clip380)" d="M2384.15 9.54393 L2391.65 9.54393 L2391.65 46.7717 L2413.89 27.2059 L2423.41 27.2059 L2399.35 48.4326 L2424.42 72.576 L2414.7 72.576 L2391.65 50.4176 L2391.65 72.576 L2384.15 72.576 L2384.15 9.54393 Z" fill="#000000" fill-rule="nonzero" fill-opacity="1" /><path clip-path="url(#clip380)" d="M2433.45 34.9026 L2485.39 34.9026 L2485.39 41.7081 L2433.45 41.7081 L2433.45 34.9026 M2433.45 51.4303 L2485.39 51.4303 L2485.39 58.3168 L2433.45 58.3168 L2433.45 51.4303 Z" fill="#000000" fill-rule="nonzero" fill-opacity="1" /><path clip-path="url(#clip380)" d="M2521.56 39.075 Q2516.05 39.075 2512.81 42.8424 Q2509.61 46.6097 2509.61 53.1722 Q2509.61 59.6941 2512.81 63.502 Q2516.05 67.2693 2521.56 67.2693 Q2527.07 67.2693 2530.27 63.502 Q2533.51 59.6941 2533.51 53.1722 Q2533.51 46.6097 2530.27 42.8424 Q2527.07 39.075 2521.56 39.075 M2537.81 13.4328 L2537.81 20.8865 Q2534.73 19.4281 2531.57 18.6585 Q2528.45 17.8888 2525.37 17.8888 Q2517.27 17.8888 2512.97 23.3575 Q2508.72 28.8262 2508.11 39.8852 Q2510.5 36.3609 2514.11 34.4975 Q2517.71 32.5936 2522.05 32.5936 Q2531.16 32.5936 2536.43 38.1433 Q2541.74 43.6525 2541.74 53.1722 Q2541.74 62.4892 2536.23 68.12 Q2530.72 73.7508 2521.56 73.7508 Q2511.07 73.7508 2505.52 65.73 Q2499.97 57.6687 2499.97 42.3968 Q2499.97 28.0566 2506.78 19.5497 Q2513.58 11.0023 2525.05 11.0023 Q2528.12 11.0023 2531.24 11.6099 Q2534.4 12.2175 2537.81 13.4328 Z" fill="#000000" fill-rule="nonzero" fill-opacity="1" /><path clip-path="url(#clip380)" d="M2553.6 9.62495 L2560.09 9.62495 Q2566.16 19.1851 2569.16 28.3401 Q2572.2 37.4952 2572.2 46.5287 Q2572.2 55.6027 2569.16 64.7983 Q2566.16 73.9938 2560.09 83.5134 L2553.6 83.5134 Q2558.99 74.2369 2561.63 65.0818 Q2564.3 55.8863 2564.3 46.5287 Q2564.3 37.1711 2561.63 28.0566 Q2558.99 18.942 2553.6 9.62495 Z" fill="#000000" fill-rule="nonzero" fill-opacity="1" /><polyline clip-path="url(#clip381)" style="stroke:#ff0000; stroke-linecap:round; stroke-linejoin:round; stroke-width:8; stroke-opacity:1; fill:none" stroke-dasharray="32, 20" points="294.006,1675.99 322.486,1669.29 350.966,1661.69 379.446,1652.71 407.926,1641.85 436.406,1628.54 464.886,1612.12 493.366,1591.82 521.846,1566.71 550.326,1535.75 578.806,1497.73 607.286,1451.38 635.766,1395.37 664.246,1328.5 692.726,1249.84 721.206,1158.97 749.686,1056.35 778.166,943.495 806.646,823.292 835.126,699.886 863.606,578.471 892.086,464.872 920.566,364.951 949.046,283.358 977.526,223.372 1006.01,186.768 1034.49,173.254 1062.97,181.26 1091.45,208.31 1119.93,251.121 1148.41,306.318 1176.89,370.652 1205.37,441.235 1233.85,515.573 1262.33,591.56 1290.81,667.475 1319.29,742.046 1347.77,814.318 1376.25,883.579 1404.73,949.358 1433.21,1011.39 1461.69,1069.53 1490.17,1123.78 1518.65,1174.15 1547.13,1220.75 1575.61,1263.72 1604.08,1303.25 1632.56,1339.54 1661.04,1372.79 1689.52,1403.19 1718,1430.94 1746.48,1456.24 1774.96,1479.27 1803.44,1500.23 1831.92,1519.29 1860.4,1536.61 1888.88,1552.33 1917.36,1566.58 1945.84,1579.5 1974.32,1591.21 2002.8,1601.81 2031.28,1611.42 2059.76,1620.12 2088.24,1627.99 2116.72,1635.1 2145.2,1641.53 2173.68,1647.35 2202.16,1652.6 2230.64,1657.35 2259.12,1661.65 2287.6,1665.53 2316.08,1669.04 2344.56,1672.21 2373.04,1675.07 2401.52,1677.65 2430,1679.98 2458.48,1682.09 2486.96,1683.99 2515.44,1685.71 2543.92,1687.26 2572.4,1688.65 "/>
<polyline clip-path="url(#clip381)" style="stroke:#0000ff; stroke-linecap:round; stroke-linejoin:round; stroke-width:8; stroke-opacity:1; fill:none" points="294.006,1675.99 322.486,1669.36 350.966,1662.25 379.446,1654.55 407.926,1646.17 436.406,1637.02 464.886,1626.99 493.366,1615.97 521.846,1603.83 550.326,1590.44 578.806,1575.68 607.286,1559.41 635.766,1541.5 664.246,1521.81 692.726,1500.24 721.206,1476.66 749.686,1451 778.166,1423.19 806.646,1393.2 835.126,1361.06 863.606,1326.84 892.086,1290.66 920.566,1252.72 949.046,1213.31 977.526,1172.77 1006.01,1131.53 1034.49,1090.1 1062.97,1049.07 1091.45,1009.05 1119.93,970.687 1148.41,934.64 1176.89,901.575 1205.37,872.112 1233.85,846.779 1262.33,826.008 1290.81,810.151 1319.29,799.431 1347.77,793.893 1376.25,793.49 1404.73,798.091 1433.21,807.482 1461.69,821.351 1490.17,839.191 1518.65,860.495 1547.13,884.79 1575.61,911.634 1604.08,940.605 1632.56,971.182 1661.04,1002.89 1689.52,1035.31 1718,1068.07 1746.48,1100.86 1774.96,1133.4 1803.44,1165.42 1831.92,1196.74 1860.4,1227.21 1888.88,1256.69 1917.36,1285.08 1945.84,1312.27 1974.32,1338.21 2002.8,1362.87 2031.28,1386.27 2059.76,1408.42 2088.24,1429.35 2116.72,1449.06 2145.2,1467.57 2173.68,1484.9 2202.16,1501.1 2230.64,1516.24 2259.12,1530.36 2287.6,1543.53 2316.08,1555.79 2344.56,1567.18 2373.04,1577.75 2401.52,1587.54 2430,1596.61 2458.48,1605.01 2486.96,1612.78 2515.44,1619.96 2543.92,1626.59 2572.4,1632.71 "/>
<path clip-path="url(#clip380)" d="M1745.55 336.856 L2560.25 336.856 L2560.25 181.336 L1745.55 181.336  Z" fill="#ffffff" fill-rule="evenodd" fill-opacity="1"/>
<polyline clip-path="url(#clip380)" style="stroke:#000000; stroke-linecap:round; stroke-linejoin:round; stroke-width:4; stroke-opacity:1; fill:none" points="1745.55,336.856 2560.25,336.856 2560.25,181.336 1745.55,181.336 1745.55,336.856 "/>
<polyline clip-path="url(#clip380)" style="stroke:#ff0000; stroke-linecap:round; stroke-linejoin:round; stroke-width:8; stroke-opacity:1; fill:none" stroke-dasharray="32, 20" points="1772.39,233.176 1933.39,233.176 "/>
<path clip-path="url(#clip380)" d="M1960.23 215.896 L1964.9 215.896 L1964.9 250.456 L1960.23 250.456 L1960.23 215.896 Z" fill="#000000" fill-rule="nonzero" fill-opacity="1" /><path clip-path="url(#clip380)" d="M1995.57 234.808 L1995.57 250.456 L1991.31 250.456 L1991.31 234.947 Q1991.31 231.267 1989.88 229.438 Q1988.44 227.609 1985.57 227.609 Q1982.12 227.609 1980.13 229.808 Q1978.14 232.007 1978.14 235.804 L1978.14 250.456 L1973.86 250.456 L1973.86 224.531 L1978.14 224.531 L1978.14 228.558 Q1979.67 226.22 1981.73 225.063 Q1983.81 223.906 1986.52 223.906 Q1990.99 223.906 1993.28 226.683 Q1995.57 229.438 1995.57 234.808 Z" fill="#000000" fill-rule="nonzero" fill-opacity="1" /><path clip-path="url(#clip380)" d="M2021.13 228.466 L2021.13 214.438 L2025.39 214.438 L2025.39 250.456 L2021.13 250.456 L2021.13 246.567 Q2019.79 248.882 2017.73 250.016 Q2015.69 251.128 2012.82 251.128 Q2008.12 251.128 2005.16 247.378 Q2002.22 243.628 2002.22 237.517 Q2002.22 231.405 2005.16 227.655 Q2008.12 223.906 2012.82 223.906 Q2015.69 223.906 2017.73 225.04 Q2019.79 226.151 2021.13 228.466 M2006.62 237.517 Q2006.62 242.216 2008.54 244.901 Q2010.48 247.563 2013.86 247.563 Q2017.24 247.563 2019.18 244.901 Q2021.13 242.216 2021.13 237.517 Q2021.13 232.817 2019.18 230.155 Q2017.24 227.47 2013.86 227.47 Q2010.48 227.47 2008.54 230.155 Q2006.62 232.817 2006.62 237.517 Z" fill="#000000" fill-rule="nonzero" fill-opacity="1" /><path clip-path="url(#clip380)" d="M2034.16 224.531 L2038.42 224.531 L2038.42 250.456 L2034.16 250.456 L2034.16 224.531 M2034.16 214.438 L2038.42 214.438 L2038.42 219.831 L2034.16 219.831 L2034.16 214.438 Z" fill="#000000" fill-rule="nonzero" fill-opacity="1" /><path clip-path="url(#clip380)" d="M2044.28 224.531 L2048.79 224.531 L2056.89 246.29 L2064.99 224.531 L2069.51 224.531 L2059.79 250.456 L2054 250.456 L2044.28 224.531 Z" fill="#000000" fill-rule="nonzero" fill-opacity="1" /><path clip-path="url(#clip380)" d="M2075.39 224.531 L2079.65 224.531 L2079.65 250.456 L2075.39 250.456 L2075.39 224.531 M2075.39 214.438 L2079.65 214.438 L2079.65 219.831 L2075.39 219.831 L2075.39 214.438 Z" fill="#000000" fill-rule="nonzero" fill-opacity="1" /><path clip-path="url(#clip380)" d="M2105.62 228.466 L2105.62 214.438 L2109.88 214.438 L2109.88 250.456 L2105.62 250.456 L2105.62 246.567 Q2104.28 248.882 2102.22 250.016 Q2100.18 251.128 2097.31 251.128 Q2092.61 251.128 2089.65 247.378 Q2086.71 243.628 2086.71 237.517 Q2086.71 231.405 2089.65 227.655 Q2092.61 223.906 2097.31 223.906 Q2100.18 223.906 2102.22 225.04 Q2104.28 226.151 2105.62 228.466 M2091.11 237.517 Q2091.11 242.216 2093.03 244.901 Q2094.97 247.563 2098.35 247.563 Q2101.73 247.563 2103.67 244.901 Q2105.62 242.216 2105.62 237.517 Q2105.62 232.817 2103.67 230.155 Q2101.73 227.47 2098.35 227.47 Q2094.97 227.47 2093.03 230.155 Q2091.11 232.817 2091.11 237.517 Z" fill="#000000" fill-rule="nonzero" fill-opacity="1" /><path clip-path="url(#clip380)" d="M2118.21 240.225 L2118.21 224.531 L2122.47 224.531 L2122.47 240.063 Q2122.47 243.743 2123.91 245.595 Q2125.34 247.424 2128.21 247.424 Q2131.66 247.424 2133.65 245.225 Q2135.67 243.026 2135.67 239.229 L2135.67 224.531 L2139.92 224.531 L2139.92 250.456 L2135.67 250.456 L2135.67 246.475 Q2134.11 248.836 2132.05 249.993 Q2130.02 251.128 2127.31 251.128 Q2122.84 251.128 2120.53 248.35 Q2118.21 245.572 2118.21 240.225 M2128.93 223.906 L2128.93 223.906 Z" fill="#000000" fill-rule="nonzero" fill-opacity="1" /><path clip-path="url(#clip380)" d="M2160.48 237.424 Q2155.32 237.424 2153.33 238.604 Q2151.34 239.785 2151.34 242.632 Q2151.34 244.901 2152.82 246.243 Q2154.32 247.563 2156.89 247.563 Q2160.43 247.563 2162.56 245.063 Q2164.72 242.54 2164.72 238.373 L2164.72 237.424 L2160.48 237.424 M2168.98 235.665 L2168.98 250.456 L2164.72 250.456 L2164.72 246.521 Q2163.26 248.882 2161.08 250.016 Q2158.91 251.128 2155.76 251.128 Q2151.78 251.128 2149.42 248.905 Q2147.08 246.66 2147.08 242.91 Q2147.08 238.535 2149.99 236.313 Q2152.93 234.091 2158.74 234.091 L2164.72 234.091 L2164.72 233.674 Q2164.72 230.734 2162.77 229.137 Q2160.85 227.517 2157.36 227.517 Q2155.13 227.517 2153.03 228.049 Q2150.92 228.581 2148.98 229.646 L2148.98 225.711 Q2151.31 224.808 2153.51 224.368 Q2155.71 223.906 2157.8 223.906 Q2163.42 223.906 2166.2 226.822 Q2168.98 229.739 2168.98 235.665 Z" fill="#000000" fill-rule="nonzero" fill-opacity="1" /><path clip-path="url(#clip380)" d="M2177.75 214.438 L2182.01 214.438 L2182.01 250.456 L2177.75 250.456 L2177.75 214.438 Z" fill="#000000" fill-rule="nonzero" fill-opacity="1" /><path clip-path="url(#clip380)" d="M2188.77 235.572 L2201.24 235.572 L2201.24 239.368 L2188.77 239.368 L2188.77 235.572 Z" fill="#000000" fill-rule="nonzero" fill-opacity="1" /><path clip-path="url(#clip380)" d="M2226.64 237.517 Q2226.64 232.817 2224.69 230.155 Q2222.77 227.47 2219.39 227.47 Q2216.01 227.47 2214.07 230.155 Q2212.15 232.817 2212.15 237.517 Q2212.15 242.216 2214.07 244.901 Q2216.01 247.563 2219.39 247.563 Q2222.77 247.563 2224.69 244.901 Q2226.64 242.216 2226.64 237.517 M2212.15 228.466 Q2213.49 226.151 2215.53 225.04 Q2217.59 223.906 2220.43 223.906 Q2225.16 223.906 2228.1 227.655 Q2231.06 231.405 2231.06 237.517 Q2231.06 243.628 2228.1 247.378 Q2225.16 251.128 2220.43 251.128 Q2217.59 251.128 2215.53 250.016 Q2213.49 248.882 2212.15 246.567 L2212.15 250.456 L2207.86 250.456 L2207.86 214.438 L2212.15 214.438 L2212.15 228.466 Z" fill="#000000" fill-rule="nonzero" fill-opacity="1" /><path clip-path="url(#clip380)" d="M2249.9 237.424 Q2244.74 237.424 2242.75 238.604 Q2240.76 239.785 2240.76 242.632 Q2240.76 244.901 2242.24 246.243 Q2243.74 247.563 2246.31 247.563 Q2249.85 247.563 2251.98 245.063 Q2254.14 242.54 2254.14 238.373 L2254.14 237.424 L2249.9 237.424 M2258.4 235.665 L2258.4 250.456 L2254.14 250.456 L2254.14 246.521 Q2252.68 248.882 2250.5 250.016 Q2248.33 251.128 2245.18 251.128 Q2241.2 251.128 2238.84 248.905 Q2236.5 246.66 2236.5 242.91 Q2236.5 238.535 2239.42 236.313 Q2242.35 234.091 2248.16 234.091 L2254.14 234.091 L2254.14 233.674 Q2254.14 230.734 2252.19 229.137 Q2250.27 227.517 2246.78 227.517 Q2244.55 227.517 2242.45 228.049 Q2240.34 228.581 2238.4 229.646 L2238.4 225.711 Q2240.73 224.808 2242.93 224.368 Q2245.13 223.906 2247.22 223.906 Q2252.84 223.906 2255.62 226.822 Q2258.4 229.739 2258.4 235.665 Z" fill="#000000" fill-rule="nonzero" fill-opacity="1" /><path clip-path="url(#clip380)" d="M2283.7 225.294 L2283.7 229.322 Q2281.89 228.396 2279.95 227.933 Q2278 227.47 2275.92 227.47 Q2272.75 227.47 2271.15 228.443 Q2269.58 229.415 2269.58 231.359 Q2269.58 232.841 2270.71 233.697 Q2271.85 234.53 2275.27 235.294 L2276.73 235.618 Q2281.27 236.591 2283.16 238.373 Q2285.09 240.132 2285.09 243.304 Q2285.09 246.915 2282.22 249.021 Q2279.37 251.128 2274.37 251.128 Q2272.29 251.128 2270.02 250.711 Q2267.77 250.317 2265.27 249.507 L2265.27 245.109 Q2267.63 246.336 2269.92 246.961 Q2272.22 247.563 2274.46 247.563 Q2277.47 247.563 2279.09 246.544 Q2280.71 245.503 2280.71 243.628 Q2280.71 241.892 2279.53 240.966 Q2278.37 240.04 2274.41 239.183 L2272.93 238.836 Q2268.98 238.003 2267.22 236.29 Q2265.46 234.554 2265.46 231.544 Q2265.46 227.887 2268.05 225.896 Q2270.64 223.906 2275.41 223.906 Q2277.77 223.906 2279.85 224.253 Q2281.94 224.6 2283.7 225.294 Z" fill="#000000" fill-rule="nonzero" fill-opacity="1" /><path clip-path="url(#clip380)" d="M2314.04 236.429 L2314.04 238.512 L2294.46 238.512 Q2294.74 242.91 2297.1 245.225 Q2299.48 247.516 2303.72 247.516 Q2306.17 247.516 2308.47 246.915 Q2310.78 246.313 2313.05 245.109 L2313.05 249.137 Q2310.76 250.109 2308.35 250.618 Q2305.94 251.128 2303.47 251.128 Q2297.26 251.128 2293.63 247.516 Q2290.02 243.905 2290.02 237.748 Q2290.02 231.382 2293.44 227.655 Q2296.89 223.906 2302.72 223.906 Q2307.96 223.906 2310.99 227.285 Q2314.04 230.642 2314.04 236.429 M2309.79 235.179 Q2309.74 231.683 2307.82 229.6 Q2305.92 227.517 2302.77 227.517 Q2299.21 227.517 2297.05 229.53 Q2294.92 231.544 2294.6 235.202 L2309.79 235.179 Z" fill="#000000" fill-rule="nonzero" fill-opacity="1" /><path clip-path="url(#clip380)" d="M2338.1 228.466 L2338.1 214.438 L2342.35 214.438 L2342.35 250.456 L2338.1 250.456 L2338.1 246.567 Q2336.75 248.882 2334.69 250.016 Q2332.66 251.128 2329.78 251.128 Q2325.09 251.128 2322.12 247.378 Q2319.18 243.628 2319.18 237.517 Q2319.18 231.405 2322.12 227.655 Q2325.09 223.906 2329.78 223.906 Q2332.66 223.906 2334.69 225.04 Q2336.75 226.151 2338.1 228.466 M2323.58 237.517 Q2323.58 242.216 2325.5 244.901 Q2327.45 247.563 2330.83 247.563 Q2334.21 247.563 2336.15 244.901 Q2338.1 242.216 2338.1 237.517 Q2338.1 232.817 2336.15 230.155 Q2334.21 227.47 2330.83 227.47 Q2327.45 227.47 2325.5 230.155 Q2323.58 232.817 2323.58 237.517 Z" fill="#000000" fill-rule="nonzero" fill-opacity="1" /><path clip-path="url(#clip380)" d="M2376.43 214.484 Q2373.33 219.808 2371.82 225.017 Q2370.32 230.225 2370.32 235.572 Q2370.32 240.919 2371.82 246.174 Q2373.35 251.405 2376.43 256.706 L2372.72 256.706 Q2369.25 251.266 2367.52 246.012 Q2365.8 240.757 2365.8 235.572 Q2365.8 230.41 2367.52 225.179 Q2369.23 219.947 2372.72 214.484 L2376.43 214.484 Z" fill="#000000" fill-rule="nonzero" fill-opacity="1" /><path clip-path="url(#clip380)" d="M2401.75 237.192 Q2401.75 232.563 2399.83 230.017 Q2397.93 227.47 2394.48 227.47 Q2391.06 227.47 2389.14 230.017 Q2387.24 232.563 2387.24 237.192 Q2387.24 241.799 2389.14 244.345 Q2391.06 246.891 2394.48 246.891 Q2397.93 246.891 2399.83 244.345 Q2401.75 241.799 2401.75 237.192 M2406.01 247.239 Q2406.01 253.859 2403.07 257.077 Q2400.13 260.317 2394.07 260.317 Q2391.82 260.317 2389.83 259.97 Q2387.84 259.646 2385.97 258.952 L2385.97 254.808 Q2387.84 255.827 2389.67 256.313 Q2391.5 256.799 2393.4 256.799 Q2397.59 256.799 2399.67 254.6 Q2401.75 252.424 2401.75 248.003 L2401.75 245.896 Q2400.43 248.188 2398.37 249.322 Q2396.31 250.456 2393.44 250.456 Q2388.67 250.456 2385.76 246.822 Q2382.84 243.188 2382.84 237.192 Q2382.84 231.174 2385.76 227.54 Q2388.67 223.906 2393.44 223.906 Q2396.31 223.906 2398.37 225.04 Q2400.43 226.174 2401.75 228.466 L2401.75 224.531 L2406.01 224.531 L2406.01 247.239 Z" fill="#000000" fill-rule="nonzero" fill-opacity="1" /><path clip-path="url(#clip380)" d="M2429.81 228.512 Q2429.09 228.095 2428.23 227.91 Q2427.4 227.702 2426.38 227.702 Q2422.77 227.702 2420.83 230.063 Q2418.9 232.401 2418.9 236.799 L2418.9 250.456 L2414.62 250.456 L2414.62 224.531 L2418.9 224.531 L2418.9 228.558 Q2420.25 226.197 2422.4 225.063 Q2424.55 223.906 2427.63 223.906 Q2428.07 223.906 2428.6 223.975 Q2429.14 224.021 2429.78 224.137 L2429.81 228.512 Z" fill="#000000" fill-rule="nonzero" fill-opacity="1" /><path clip-path="url(#clip380)" d="M2446.06 237.424 Q2440.9 237.424 2438.9 238.604 Q2436.91 239.785 2436.91 242.632 Q2436.91 244.901 2438.4 246.243 Q2439.9 247.563 2442.47 247.563 Q2446.01 247.563 2448.14 245.063 Q2450.29 242.54 2450.29 238.373 L2450.29 237.424 L2446.06 237.424 M2454.55 235.665 L2454.55 250.456 L2450.29 250.456 L2450.29 246.521 Q2448.84 248.882 2446.66 250.016 Q2444.48 251.128 2441.34 251.128 Q2437.35 251.128 2434.99 248.905 Q2432.65 246.66 2432.65 242.91 Q2432.65 238.535 2435.57 236.313 Q2438.51 234.091 2444.32 234.091 L2450.29 234.091 L2450.29 233.674 Q2450.29 230.734 2448.35 229.137 Q2446.43 227.517 2442.93 227.517 Q2440.71 227.517 2438.6 228.049 Q2436.5 228.581 2434.55 229.646 L2434.55 225.711 Q2436.89 224.808 2439.09 224.368 Q2441.29 223.906 2443.37 223.906 Q2449 223.906 2451.77 226.822 Q2454.55 229.739 2454.55 235.665 Z" fill="#000000" fill-rule="nonzero" fill-opacity="1" /><path clip-path="url(#clip380)" d="M2467.45 246.567 L2467.45 260.317 L2463.16 260.317 L2463.16 224.531 L2467.45 224.531 L2467.45 228.466 Q2468.79 226.151 2470.83 225.04 Q2472.89 223.906 2475.73 223.906 Q2480.46 223.906 2483.4 227.655 Q2486.36 231.405 2486.36 237.517 Q2486.36 243.628 2483.4 247.378 Q2480.46 251.128 2475.73 251.128 Q2472.89 251.128 2470.83 250.016 Q2468.79 248.882 2467.45 246.567 M2481.94 237.517 Q2481.94 232.817 2479.99 230.155 Q2478.07 227.47 2474.69 227.47 Q2471.31 227.47 2469.37 230.155 Q2467.45 232.817 2467.45 237.517 Q2467.45 242.216 2469.37 244.901 Q2471.31 247.563 2474.69 247.563 Q2478.07 247.563 2479.99 244.901 Q2481.94 242.216 2481.94 237.517 Z" fill="#000000" fill-rule="nonzero" fill-opacity="1" /><path clip-path="url(#clip380)" d="M2514.97 234.808 L2514.97 250.456 L2510.71 250.456 L2510.71 234.947 Q2510.71 231.267 2509.27 229.438 Q2507.84 227.609 2504.97 227.609 Q2501.52 227.609 2499.53 229.808 Q2497.54 232.007 2497.54 235.804 L2497.54 250.456 L2493.26 250.456 L2493.26 214.438 L2497.54 214.438 L2497.54 228.558 Q2499.07 226.22 2501.13 225.063 Q2503.21 223.906 2505.92 223.906 Q2510.39 223.906 2512.68 226.683 Q2514.97 229.438 2514.97 234.808 Z" fill="#000000" fill-rule="nonzero" fill-opacity="1" /><path clip-path="url(#clip380)" d="M2522.79 214.484 L2526.5 214.484 Q2529.97 219.947 2531.68 225.179 Q2533.42 230.41 2533.42 235.572 Q2533.42 240.757 2531.68 246.012 Q2529.97 251.266 2526.5 256.706 L2522.79 256.706 Q2525.87 251.405 2527.38 246.174 Q2528.9 240.919 2528.9 235.572 Q2528.9 230.225 2527.38 225.017 Q2525.87 219.808 2522.79 214.484 Z" fill="#000000" fill-rule="nonzero" fill-opacity="1" /><polyline clip-path="url(#clip380)" style="stroke:#0000ff; stroke-linecap:round; stroke-linejoin:round; stroke-width:8; stroke-opacity:1; fill:none" points="1772.39,285.016 1933.39,285.016 "/>
<path clip-path="url(#clip380)" d="M1964.9 271.579 L1964.9 284.565 L1970.78 284.565 Q1974.05 284.565 1975.83 282.875 Q1977.61 281.185 1977.61 278.06 Q1977.61 274.958 1975.83 273.269 Q1974.05 271.579 1970.78 271.579 L1964.9 271.579 M1960.23 267.736 L1970.78 267.736 Q1976.59 267.736 1979.56 270.375 Q1982.54 272.991 1982.54 278.06 Q1982.54 283.176 1979.56 285.792 Q1976.59 288.407 1970.78 288.407 L1964.9 288.407 L1964.9 302.296 L1960.23 302.296 L1960.23 267.736 Z" fill="#000000" fill-rule="nonzero" fill-opacity="1" /><path clip-path="url(#clip380)" d="M1998.28 289.264 Q1993.12 289.264 1991.13 290.444 Q1989.14 291.625 1989.14 294.472 Q1989.14 296.741 1990.62 298.083 Q1992.12 299.403 1994.69 299.403 Q1998.24 299.403 2000.37 296.903 Q2002.52 294.38 2002.52 290.213 L2002.52 289.264 L1998.28 289.264 M2006.78 287.505 L2006.78 302.296 L2002.52 302.296 L2002.52 298.361 Q2001.06 300.722 1998.88 301.856 Q1996.71 302.968 1993.56 302.968 Q1989.58 302.968 1987.22 300.745 Q1984.88 298.5 1984.88 294.75 Q1984.88 290.375 1987.8 288.153 Q1990.74 285.931 1996.55 285.931 L2002.52 285.931 L2002.52 285.514 Q2002.52 282.574 2000.57 280.977 Q1998.65 279.357 1995.16 279.357 Q1992.93 279.357 1990.83 279.889 Q1988.72 280.421 1986.78 281.486 L1986.78 277.551 Q1989.12 276.648 1991.31 276.208 Q1993.51 275.746 1995.6 275.746 Q2001.22 275.746 2004 278.662 Q2006.78 281.579 2006.78 287.505 Z" fill="#000000" fill-rule="nonzero" fill-opacity="1" /><path clip-path="url(#clip380)" d="M2015.55 276.371 L2019.81 276.371 L2019.81 302.296 L2015.55 302.296 L2015.55 276.371 M2015.55 266.278 L2019.81 266.278 L2019.81 271.671 L2015.55 271.671 L2015.55 266.278 Z" fill="#000000" fill-rule="nonzero" fill-opacity="1" /><path clip-path="url(#clip380)" d="M2043.74 280.352 Q2043.03 279.935 2042.17 279.75 Q2041.34 279.542 2040.32 279.542 Q2036.71 279.542 2034.76 281.903 Q2032.84 284.241 2032.84 288.639 L2032.84 302.296 L2028.56 302.296 L2028.56 276.371 L2032.84 276.371 L2032.84 280.398 Q2034.18 278.037 2036.34 276.903 Q2038.49 275.746 2041.57 275.746 Q2042.01 275.746 2042.54 275.815 Q2043.07 275.861 2043.72 275.977 L2043.74 280.352 Z" fill="#000000" fill-rule="nonzero" fill-opacity="1" /><path clip-path="url(#clip380)" d="M2043.03 287.412 L2055.5 287.412 L2055.5 291.208 L2043.03 291.208 L2043.03 287.412 Z" fill="#000000" fill-rule="nonzero" fill-opacity="1" /><path clip-path="url(#clip380)" d="M2080.9 289.357 Q2080.9 284.657 2078.95 281.995 Q2077.03 279.31 2073.65 279.31 Q2070.27 279.31 2068.33 281.995 Q2066.41 284.657 2066.41 289.357 Q2066.41 294.056 2068.33 296.741 Q2070.27 299.403 2073.65 299.403 Q2077.03 299.403 2078.95 296.741 Q2080.9 294.056 2080.9 289.357 M2066.41 280.306 Q2067.75 277.991 2069.79 276.88 Q2071.85 275.746 2074.69 275.746 Q2079.42 275.746 2082.36 279.495 Q2085.32 283.245 2085.32 289.357 Q2085.32 295.468 2082.36 299.218 Q2079.42 302.968 2074.69 302.968 Q2071.85 302.968 2069.79 301.856 Q2067.75 300.722 2066.41 298.407 L2066.41 302.296 L2062.12 302.296 L2062.12 266.278 L2066.41 266.278 L2066.41 280.306 Z" fill="#000000" fill-rule="nonzero" fill-opacity="1" /><path clip-path="url(#clip380)" d="M2104.16 289.264 Q2099 289.264 2097.01 290.444 Q2095.02 291.625 2095.02 294.472 Q2095.02 296.741 2096.5 298.083 Q2098 299.403 2100.57 299.403 Q2104.11 299.403 2106.24 296.903 Q2108.4 294.38 2108.4 290.213 L2108.4 289.264 L2104.16 289.264 M2112.66 287.505 L2112.66 302.296 L2108.4 302.296 L2108.4 298.361 Q2106.94 300.722 2104.76 301.856 Q2102.59 302.968 2099.44 302.968 Q2095.46 302.968 2093.1 300.745 Q2090.76 298.5 2090.76 294.75 Q2090.76 290.375 2093.68 288.153 Q2096.61 285.931 2102.43 285.931 L2108.4 285.931 L2108.4 285.514 Q2108.4 282.574 2106.45 280.977 Q2104.53 279.357 2101.04 279.357 Q2098.81 279.357 2096.71 279.889 Q2094.6 280.421 2092.66 281.486 L2092.66 277.551 Q2094.99 276.648 2097.19 276.208 Q2099.39 275.746 2101.48 275.746 Q2107.1 275.746 2109.88 278.662 Q2112.66 281.579 2112.66 287.505 Z" fill="#000000" fill-rule="nonzero" fill-opacity="1" /><path clip-path="url(#clip380)" d="M2137.96 277.134 L2137.96 281.162 Q2136.15 280.236 2134.21 279.773 Q2132.26 279.31 2130.18 279.31 Q2127.01 279.31 2125.41 280.283 Q2123.84 281.255 2123.84 283.199 Q2123.84 284.681 2124.97 285.537 Q2126.11 286.37 2129.53 287.134 L2130.99 287.458 Q2135.53 288.431 2137.42 290.213 Q2139.35 291.972 2139.35 295.144 Q2139.35 298.755 2136.48 300.861 Q2133.63 302.968 2128.63 302.968 Q2126.55 302.968 2124.28 302.551 Q2122.03 302.157 2119.53 301.347 L2119.53 296.949 Q2121.89 298.176 2124.18 298.801 Q2126.48 299.403 2128.72 299.403 Q2131.73 299.403 2133.35 298.384 Q2134.97 297.343 2134.97 295.468 Q2134.97 293.732 2133.79 292.806 Q2132.63 291.88 2128.67 291.023 L2127.19 290.676 Q2123.24 289.843 2121.48 288.13 Q2119.72 286.394 2119.72 283.384 Q2119.72 279.727 2122.31 277.736 Q2124.9 275.746 2129.67 275.746 Q2132.03 275.746 2134.11 276.093 Q2136.2 276.44 2137.96 277.134 Z" fill="#000000" fill-rule="nonzero" fill-opacity="1" /><path clip-path="url(#clip380)" d="M2168.3 288.269 L2168.3 290.352 L2148.72 290.352 Q2149 294.75 2151.36 297.065 Q2153.74 299.356 2157.98 299.356 Q2160.43 299.356 2162.73 298.755 Q2165.04 298.153 2167.31 296.949 L2167.31 300.977 Q2165.02 301.949 2162.61 302.458 Q2160.2 302.968 2157.73 302.968 Q2151.52 302.968 2147.89 299.356 Q2144.28 295.745 2144.28 289.588 Q2144.28 283.222 2147.7 279.495 Q2151.15 275.746 2156.98 275.746 Q2162.22 275.746 2165.25 279.125 Q2168.3 282.482 2168.3 288.269 M2164.05 287.019 Q2164 283.523 2162.08 281.44 Q2160.18 279.357 2157.03 279.357 Q2153.47 279.357 2151.31 281.37 Q2149.18 283.384 2148.86 287.042 L2164.05 287.019 Z" fill="#000000" fill-rule="nonzero" fill-opacity="1" /><path clip-path="url(#clip380)" d="M2192.36 280.306 L2192.36 266.278 L2196.61 266.278 L2196.61 302.296 L2192.36 302.296 L2192.36 298.407 Q2191.01 300.722 2188.95 301.856 Q2186.92 302.968 2184.04 302.968 Q2179.35 302.968 2176.38 299.218 Q2173.44 295.468 2173.44 289.357 Q2173.44 283.245 2176.38 279.495 Q2179.35 275.746 2184.04 275.746 Q2186.92 275.746 2188.95 276.88 Q2191.01 277.991 2192.36 280.306 M2177.84 289.357 Q2177.84 294.056 2179.76 296.741 Q2181.71 299.403 2185.09 299.403 Q2188.47 299.403 2190.41 296.741 Q2192.36 294.056 2192.36 289.357 Q2192.36 284.657 2190.41 281.995 Q2188.47 279.31 2185.09 279.31 Q2181.71 279.31 2179.76 281.995 Q2177.84 284.657 2177.84 289.357 Z" fill="#000000" fill-rule="nonzero" fill-opacity="1" /><path clip-path="url(#clip380)" d="M2230.69 266.324 Q2227.59 271.648 2226.08 276.857 Q2224.58 282.065 2224.58 287.412 Q2224.58 292.759 2226.08 298.014 Q2227.61 303.245 2230.69 308.546 L2226.98 308.546 Q2223.51 303.106 2221.78 297.852 Q2220.06 292.597 2220.06 287.412 Q2220.06 282.25 2221.78 277.019 Q2223.49 271.787 2226.98 266.324 L2230.69 266.324 Z" fill="#000000" fill-rule="nonzero" fill-opacity="1" /><path clip-path="url(#clip380)" d="M2256.01 289.032 Q2256.01 284.403 2254.09 281.857 Q2252.19 279.31 2248.74 279.31 Q2245.32 279.31 2243.4 281.857 Q2241.5 284.403 2241.5 289.032 Q2241.5 293.639 2243.4 296.185 Q2245.32 298.731 2248.74 298.731 Q2252.19 298.731 2254.09 296.185 Q2256.01 293.639 2256.01 289.032 M2260.27 299.079 Q2260.27 305.699 2257.33 308.917 Q2254.39 312.157 2248.33 312.157 Q2246.08 312.157 2244.09 311.81 Q2242.1 311.486 2240.23 310.792 L2240.23 306.648 Q2242.1 307.667 2243.93 308.153 Q2245.76 308.639 2247.66 308.639 Q2251.85 308.639 2253.93 306.44 Q2256.01 304.264 2256.01 299.843 L2256.01 297.736 Q2254.69 300.028 2252.63 301.162 Q2250.57 302.296 2247.7 302.296 Q2242.93 302.296 2240.02 298.662 Q2237.1 295.028 2237.1 289.032 Q2237.1 283.014 2240.02 279.38 Q2242.93 275.746 2247.7 275.746 Q2250.57 275.746 2252.63 276.88 Q2254.69 278.014 2256.01 280.306 L2256.01 276.371 L2260.27 276.371 L2260.27 299.079 Z" fill="#000000" fill-rule="nonzero" fill-opacity="1" /><path clip-path="url(#clip380)" d="M2284.07 280.352 Q2283.35 279.935 2282.49 279.75 Q2281.66 279.542 2280.64 279.542 Q2277.03 279.542 2275.09 281.903 Q2273.16 284.241 2273.16 288.639 L2273.16 302.296 L2268.88 302.296 L2268.88 276.371 L2273.16 276.371 L2273.16 280.398 Q2274.51 278.037 2276.66 276.903 Q2278.81 275.746 2281.89 275.746 Q2282.33 275.746 2282.86 275.815 Q2283.4 275.861 2284.04 275.977 L2284.07 280.352 Z" fill="#000000" fill-rule="nonzero" fill-opacity="1" /><path clip-path="url(#clip380)" d="M2300.32 289.264 Q2295.16 289.264 2293.16 290.444 Q2291.17 291.625 2291.17 294.472 Q2291.17 296.741 2292.66 298.083 Q2294.16 299.403 2296.73 299.403 Q2300.27 299.403 2302.4 296.903 Q2304.55 294.38 2304.55 290.213 L2304.55 289.264 L2300.32 289.264 M2308.81 287.505 L2308.81 302.296 L2304.55 302.296 L2304.55 298.361 Q2303.1 300.722 2300.92 301.856 Q2298.74 302.968 2295.6 302.968 Q2291.61 302.968 2289.25 300.745 Q2286.91 298.5 2286.91 294.75 Q2286.91 290.375 2289.83 288.153 Q2292.77 285.931 2298.58 285.931 L2304.55 285.931 L2304.55 285.514 Q2304.55 282.574 2302.61 280.977 Q2300.69 279.357 2297.19 279.357 Q2294.97 279.357 2292.86 279.889 Q2290.76 280.421 2288.81 281.486 L2288.81 277.551 Q2291.15 276.648 2293.35 276.208 Q2295.55 275.746 2297.63 275.746 Q2303.26 275.746 2306.04 278.662 Q2308.81 281.579 2308.81 287.505 Z" fill="#000000" fill-rule="nonzero" fill-opacity="1" /><path clip-path="url(#clip380)" d="M2321.71 298.407 L2321.71 312.157 L2317.42 312.157 L2317.42 276.371 L2321.71 276.371 L2321.71 280.306 Q2323.05 277.991 2325.09 276.88 Q2327.15 275.746 2329.99 275.746 Q2334.72 275.746 2337.66 279.495 Q2340.62 283.245 2340.62 289.357 Q2340.62 295.468 2337.66 299.218 Q2334.72 302.968 2329.99 302.968 Q2327.15 302.968 2325.09 301.856 Q2323.05 300.722 2321.71 298.407 M2336.2 289.357 Q2336.2 284.657 2334.25 281.995 Q2332.33 279.31 2328.95 279.31 Q2325.57 279.31 2323.63 281.995 Q2321.71 284.657 2321.71 289.357 Q2321.71 294.056 2323.63 296.741 Q2325.57 299.403 2328.95 299.403 Q2332.33 299.403 2334.25 296.741 Q2336.2 294.056 2336.2 289.357 Z" fill="#000000" fill-rule="nonzero" fill-opacity="1" /><path clip-path="url(#clip380)" d="M2369.23 286.648 L2369.23 302.296 L2364.97 302.296 L2364.97 286.787 Q2364.97 283.107 2363.53 281.278 Q2362.1 279.449 2359.23 279.449 Q2355.78 279.449 2353.79 281.648 Q2351.8 283.847 2351.8 287.644 L2351.8 302.296 L2347.52 302.296 L2347.52 266.278 L2351.8 266.278 L2351.8 280.398 Q2353.33 278.06 2355.39 276.903 Q2357.47 275.746 2360.18 275.746 Q2364.65 275.746 2366.94 278.523 Q2369.23 281.278 2369.23 286.648 Z" fill="#000000" fill-rule="nonzero" fill-opacity="1" /><path clip-path="url(#clip380)" d="M2377.05 266.324 L2380.76 266.324 Q2384.23 271.787 2385.94 277.019 Q2387.68 282.25 2387.68 287.412 Q2387.68 292.597 2385.94 297.852 Q2384.23 303.106 2380.76 308.546 L2377.05 308.546 Q2380.13 303.245 2381.64 298.014 Q2383.16 292.759 2383.16 287.412 Q2383.16 282.065 2381.64 276.857 Q2380.13 271.648 2377.05 266.324 Z" fill="#000000" fill-rule="nonzero" fill-opacity="1" /></svg>
