<?xml version="1.0" encoding="utf-8"?>
<svg xmlns="http://www.w3.org/2000/svg" xmlns:xlink="http://www.w3.org/1999/xlink" width="672" height="480" viewBox="0 0 2688 1920">
<defs>
  <clipPath id="clip440">
    <rect x="0" y="0" width="2688" height="1920"/>
  </clipPath>
</defs>
<path clip-path="url(#clip440)" d="M0 1920 L2688 1920 L2688 -4.26326e-14 L0 -4.26326e-14  Z" fill="#ffffff" fill-rule="evenodd" fill-opacity="1"/>
<defs>
  <clipPath id="clip441">
    <rect x="225" y="127" width="2416" height="1607"/>
  </clipPath>
</defs>
<path clip-path="url(#clip440)" d="M225.654 1734.12 L2640.76 1734.12 L2640.76 127.792 L225.654 127.792  Z" fill="#ffffff" fill-rule="evenodd" fill-opacity="1"/>
<polyline clip-path="url(#clip441)" style="stroke:#000000; stroke-linecap:round; stroke-linejoin:round; stroke-width:2; stroke-opacity:0.1; fill:none" points="294.006,1734.12 294.006,127.792 "/>
<polyline clip-path="url(#clip441)" style="stroke:#000000; stroke-linecap:round; stroke-linejoin:round; stroke-width:2; stroke-opacity:0.1; fill:none" points="863.606,1734.12 863.606,127.792 "/>
<polyline clip-path="url(#clip441)" style="stroke:#000000; stroke-linecap:round; stroke-linejoin:round; stroke-width:2; stroke-opacity:0.1; fill:none" points="1433.21,1734.12 1433.21,127.792 "/>
<polyline clip-path="url(#clip441)" style="stroke:#000000; stroke-linecap:round; stroke-linejoin:round; stroke-width:2; stroke-opacity:0.1; fill:none" points="2002.8,1734.12 2002.8,127.792 "/>
<polyline clip-path="url(#clip441)" style="stroke:#000000; stroke-linecap:round; stroke-linejoin:round; stroke-width:2; stroke-opacity:0.1; fill:none" points="2572.4,1734.12 2572.4,127.792 "/>
<polyline clip-path="url(#clip441)" style="stroke:#000000; stroke-linecap:round; stroke-linejoin:round; stroke-width:2; stroke-opacity:0.1; fill:none" points="225.654,1691.31 2640.76,1691.31 "/>
<polyline clip-path="url(#clip441)" style="stroke:#000000; stroke-linecap:round; stroke-linejoin:round; stroke-width:2; stroke-opacity:0.1; fill:none" points="225.654,1195.24 2640.76,1195.24 "/>
<polyline clip-path="url(#clip441)" style="stroke:#000000; stroke-linecap:round; stroke-linejoin:round; stroke-width:2; stroke-opacity:0.1; fill:none" points="225.654,699.161 2640.76,699.161 "/>
<polyline clip-path="url(#clip441)" style="stroke:#000000; stroke-linecap:round; stroke-linejoin:round; stroke-width:2; stroke-opacity:0.1; fill:none" points="225.654,203.084 2640.76,203.084 "/>
<polyline clip-path="url(#clip440)" style="stroke:#000000; stroke-linecap:round; stroke-linejoin:round; stroke-width:4; stroke-opacity:1; fill:none" points="225.654,1734.12 2640.76,1734.12 "/>
<polyline clip-path="url(#clip440)" style="stroke:#000000; stroke-linecap:round; stroke-linejoin:round; stroke-width:4; stroke-opacity:1; fill:none" points="294.006,1734.12 294.006,1715.22 "/>
<polyline clip-path="url(#clip440)" style="stroke:#000000; stroke-linecap:round; stroke-linejoin:round; stroke-width:4; stroke-opacity:1; fill:none" points="863.606,1734.12 863.606,1715.22 "/>
<polyline clip-path="url(#clip440)" style="stroke:#000000; stroke-linecap:round; stroke-linejoin:round; stroke-width:4; stroke-opacity:1; fill:none" points="1433.21,1734.12 1433.21,1715.22 "/>
<polyline clip-path="url(#clip440)" style="stroke:#000000; stroke-linecap:round; stroke-linejoin:round; stroke-width:4; stroke-opacity:1; fill:none" points="2002.8,1734.12 2002.8,1715.22 "/>
<polyline clip-path="url(#clip440)" style="stroke:#000000; stroke-linecap:round; stroke-linejoin:round; stroke-width:4; stroke-opacity:1; fill:none" points="2572.4,1734.12 2572.4,1715.22 "/>
<path clip-path="url(#clip440)" d="M294.006 1767.34 Q290.395 1767.34 288.567 1770.9 Q286.761 1774.45 286.761 1781.58 Q286.761 1788.68 288.567 1792.25 Q290.395 1795.79 294.006 1795.79 Q297.641 1795.79 299.446 1792.25 Q301.275 1788.68 301.275 1781.58 Q301.275 1774.45 299.446 1770.9 Q297.641 1767.34 294.006 1767.34 M294.006 1763.64 Q299.817 1763.64 302.872 1768.24 Q305.951 1772.83 305.951 1781.58 Q305.951 1790.3 302.872 1794.91 Q299.817 1799.49 294.006 1799.49 Q288.196 1799.49 285.118 1794.91 Q282.062 1790.3 282.062 1781.58 Q282.062 1772.83 285.118 1768.24 Q288.196 1763.64 294.006 1763.64 Z" fill="#000000" fill-rule="nonzero" fill-opacity="1" /><path clip-path="url(#clip440)" d="M838.293 1794.89 L845.932 1794.89 L845.932 1768.52 L837.622 1770.19 L837.622 1765.93 L845.886 1764.26 L850.562 1764.26 L850.562 1794.89 L858.201 1794.89 L858.201 1798.82 L838.293 1798.82 L838.293 1794.89 Z" fill="#000000" fill-rule="nonzero" fill-opacity="1" /><path clip-path="url(#clip440)" d="M877.645 1767.34 Q874.034 1767.34 872.205 1770.9 Q870.4 1774.45 870.4 1781.58 Q870.4 1788.68 872.205 1792.25 Q874.034 1795.79 877.645 1795.79 Q881.279 1795.79 883.085 1792.25 Q884.914 1788.68 884.914 1781.58 Q884.914 1774.45 883.085 1770.9 Q881.279 1767.34 877.645 1767.34 M877.645 1763.64 Q883.455 1763.64 886.511 1768.24 Q889.589 1772.83 889.589 1781.58 Q889.589 1790.3 886.511 1794.91 Q883.455 1799.49 877.645 1799.49 Q871.835 1799.49 868.756 1794.91 Q865.701 1790.3 865.701 1781.58 Q865.701 1772.83 868.756 1768.24 Q871.835 1763.64 877.645 1763.64 Z" fill="#000000" fill-rule="nonzero" fill-opacity="1" /><path clip-path="url(#clip440)" d="M1411.98 1794.89 L1428.3 1794.89 L1428.3 1798.82 L1406.35 1798.82 L1406.35 1794.89 Q1409.02 1792.13 1413.6 1787.5 Q1418.21 1782.85 1419.39 1781.51 Q1421.63 1778.98 1422.51 1777.25 Q1423.41 1775.49 1423.41 1773.8 Q1423.41 1771.04 1421.47 1769.31 Q1419.55 1767.57 1416.45 1767.57 Q1414.25 1767.57 1411.79 1768.34 Q1409.36 1769.1 1406.58 1770.65 L1406.58 1765.93 Q1409.41 1764.79 1411.86 1764.21 Q1414.32 1763.64 1416.35 1763.64 Q1421.72 1763.64 1424.92 1766.32 Q1428.11 1769.01 1428.11 1773.5 Q1428.11 1775.63 1427.3 1777.55 Q1426.52 1779.45 1424.41 1782.04 Q1423.83 1782.71 1420.73 1785.93 Q1417.63 1789.12 1411.98 1794.89 Z" fill="#000000" fill-rule="nonzero" fill-opacity="1" /><path clip-path="url(#clip440)" d="M1448.11 1767.34 Q1444.5 1767.34 1442.67 1770.9 Q1440.87 1774.45 1440.87 1781.58 Q1440.87 1788.68 1442.67 1792.25 Q1444.5 1795.79 1448.11 1795.79 Q1451.75 1795.79 1453.55 1792.25 Q1455.38 1788.68 1455.38 1781.58 Q1455.38 1774.45 1453.55 1770.9 Q1451.75 1767.34 1448.11 1767.34 M1448.11 1763.64 Q1453.92 1763.64 1456.98 1768.24 Q1460.06 1772.83 1460.06 1781.58 Q1460.06 1790.3 1456.98 1794.91 Q1453.92 1799.49 1448.11 1799.49 Q1442.3 1799.49 1439.22 1794.91 Q1436.17 1790.3 1436.17 1781.58 Q1436.17 1772.83 1439.22 1768.24 Q1442.3 1763.64 1448.11 1763.64 Z" fill="#000000" fill-rule="nonzero" fill-opacity="1" /><path clip-path="url(#clip440)" d="M1991.65 1780.19 Q1995 1780.9 1996.88 1783.17 Q1998.78 1785.44 1998.78 1788.77 Q1998.78 1793.89 1995.26 1796.69 Q1991.74 1799.49 1985.26 1799.49 Q1983.08 1799.49 1980.77 1799.05 Q1978.48 1798.64 1976.02 1797.78 L1976.02 1793.27 Q1977.97 1794.4 1980.28 1794.98 Q1982.6 1795.56 1985.12 1795.56 Q1989.52 1795.56 1991.81 1793.82 Q1994.12 1792.08 1994.12 1788.77 Q1994.12 1785.72 1991.97 1784.01 Q1989.84 1782.27 1986.02 1782.27 L1981.99 1782.27 L1981.99 1778.43 L1986.21 1778.43 Q1989.66 1778.43 1991.49 1777.06 Q1993.31 1775.67 1993.31 1773.08 Q1993.31 1770.42 1991.42 1769.01 Q1989.54 1767.57 1986.02 1767.57 Q1984.1 1767.57 1981.9 1767.99 Q1979.7 1768.4 1977.06 1769.28 L1977.06 1765.12 Q1979.73 1764.38 1982.04 1764.01 Q1984.38 1763.64 1986.44 1763.64 Q1991.76 1763.64 1994.86 1766.07 Q1997.97 1768.47 1997.97 1772.59 Q1997.97 1775.46 1996.32 1777.46 Q1994.68 1779.42 1991.65 1780.19 Z" fill="#000000" fill-rule="nonzero" fill-opacity="1" /><path clip-path="url(#clip440)" d="M2017.64 1767.34 Q2014.03 1767.34 2012.2 1770.9 Q2010.4 1774.45 2010.4 1781.58 Q2010.4 1788.68 2012.2 1792.25 Q2014.03 1795.79 2017.64 1795.79 Q2021.28 1795.79 2023.08 1792.25 Q2024.91 1788.68 2024.91 1781.58 Q2024.91 1774.45 2023.08 1770.9 Q2021.28 1767.34 2017.64 1767.34 M2017.64 1763.64 Q2023.45 1763.64 2026.51 1768.24 Q2029.59 1772.83 2029.59 1781.58 Q2029.59 1790.3 2026.51 1794.91 Q2023.45 1799.49 2017.64 1799.49 Q2011.83 1799.49 2008.75 1794.91 Q2005.7 1790.3 2005.7 1781.58 Q2005.7 1772.83 2008.75 1768.24 Q2011.83 1763.64 2017.64 1763.64 Z" fill="#000000" fill-rule="nonzero" fill-opacity="1" /><path clip-path="url(#clip440)" d="M2560.58 1768.34 L2548.77 1786.78 L2560.58 1786.78 L2560.58 1768.34 M2559.35 1764.26 L2565.23 1764.26 L2565.23 1786.78 L2570.16 1786.78 L2570.16 1790.67 L2565.23 1790.67 L2565.23 1798.82 L2560.58 1798.82 L2560.58 1790.67 L2544.97 1790.67 L2544.97 1786.16 L2559.35 1764.26 Z" fill="#000000" fill-rule="nonzero" fill-opacity="1" /><path clip-path="url(#clip440)" d="M2587.89 1767.34 Q2584.28 1767.34 2582.45 1770.9 Q2580.64 1774.45 2580.64 1781.58 Q2580.64 1788.68 2582.45 1792.25 Q2584.28 1795.79 2587.89 1795.79 Q2591.52 1795.79 2593.33 1792.25 Q2595.16 1788.68 2595.16 1781.58 Q2595.16 1774.45 2593.33 1770.9 Q2591.52 1767.34 2587.89 1767.34 M2587.89 1763.64 Q2593.7 1763.64 2596.76 1768.24 Q2599.83 1772.83 2599.83 1781.58 Q2599.83 1790.3 2596.76 1794.91 Q2593.7 1799.49 2587.89 1799.49 Q2582.08 1799.49 2579 1794.91 Q2575.95 1790.3 2575.95 1781.58 Q2575.95 1772.83 2579 1768.24 Q2582.08 1763.64 2587.89 1763.64 Z" fill="#000000" fill-rule="nonzero" fill-opacity="1" /><path clip-path="url(#clip440)" d="M1355.08 1835.78 L1395.28 1835.78 L1395.28 1841.19 L1378.41 1841.19 L1378.41 1883.3 L1371.95 1883.3 L1371.95 1841.19 L1355.08 1841.19 L1355.08 1835.78 Z" fill="#000000" fill-rule="nonzero" fill-opacity="1" /><path clip-path="url(#clip440)" d="M1399.23 1847.65 L1405.08 1847.65 L1405.08 1883.3 L1399.23 1883.3 L1399.23 1847.65 M1399.23 1833.78 L1405.08 1833.78 L1405.08 1841.19 L1399.23 1841.19 L1399.23 1833.78 Z" fill="#000000" fill-rule="nonzero" fill-opacity="1" /><path clip-path="url(#clip440)" d="M1445.09 1854.5 Q1447.29 1850.55 1450.34 1848.67 Q1453.4 1846.79 1457.54 1846.79 Q1463.11 1846.79 1466.13 1850.71 Q1469.16 1854.59 1469.16 1861.78 L1469.16 1883.3 L1463.27 1883.3 L1463.27 1861.98 Q1463.27 1856.85 1461.45 1854.37 Q1459.64 1851.89 1455.91 1851.89 Q1451.36 1851.89 1448.72 1854.91 Q1446.08 1857.93 1446.08 1863.15 L1446.08 1883.3 L1440.19 1883.3 L1440.19 1861.98 Q1440.19 1856.82 1438.38 1854.37 Q1436.56 1851.89 1432.78 1851.89 Q1428.29 1851.89 1425.65 1854.94 Q1423 1857.97 1423 1863.15 L1423 1883.3 L1417.12 1883.3 L1417.12 1847.65 L1423 1847.65 L1423 1853.19 Q1425.01 1849.91 1427.81 1848.35 Q1430.61 1846.79 1434.46 1846.79 Q1438.35 1846.79 1441.05 1848.77 Q1443.79 1850.74 1445.09 1854.5 Z" fill="#000000" fill-rule="nonzero" fill-opacity="1" /><path clip-path="url(#clip440)" d="M1511.33 1864.01 L1511.33 1866.88 L1484.4 1866.88 Q1484.78 1872.92 1488.03 1876.11 Q1491.31 1879.26 1497.13 1879.26 Q1500.51 1879.26 1503.66 1878.43 Q1506.84 1877.6 1509.96 1875.95 L1509.96 1881.49 Q1506.81 1882.82 1503.5 1883.52 Q1500.19 1884.22 1496.78 1884.22 Q1488.25 1884.22 1483.26 1879.26 Q1478.29 1874.29 1478.29 1865.83 Q1478.29 1857.07 1483 1851.95 Q1487.74 1846.79 1495.76 1846.79 Q1502.96 1846.79 1507.13 1851.44 Q1511.33 1856.06 1511.33 1864.01 M1505.47 1862.29 Q1505.41 1857.49 1502.77 1854.62 Q1500.16 1851.76 1495.83 1851.76 Q1490.93 1851.76 1487.97 1854.53 Q1485.04 1857.3 1484.59 1862.33 L1505.47 1862.29 Z" fill="#000000" fill-rule="nonzero" fill-opacity="1" /><polyline clip-path="url(#clip440)" style="stroke:#000000; stroke-linecap:round; stroke-linejoin:round; stroke-width:4; stroke-opacity:1; fill:none" points="225.654,1734.12 225.654,127.792 "/>
<polyline clip-path="url(#clip440)" style="stroke:#000000; stroke-linecap:round; stroke-linejoin:round; stroke-width:4; stroke-opacity:1; fill:none" points="225.654,1691.31 244.552,1691.31 "/>
<polyline clip-path="url(#clip440)" style="stroke:#000000; stroke-linecap:round; stroke-linejoin:round; stroke-width:4; stroke-opacity:1; fill:none" points="225.654,1195.24 244.552,1195.24 "/>
<polyline clip-path="url(#clip440)" style="stroke:#000000; stroke-linecap:round; stroke-linejoin:round; stroke-width:4; stroke-opacity:1; fill:none" points="225.654,699.161 244.552,699.161 "/>
<polyline clip-path="url(#clip440)" style="stroke:#000000; stroke-linecap:round; stroke-linejoin:round; stroke-width:4; stroke-opacity:1; fill:none" points="225.654,203.084 244.552,203.084 "/>
<path clip-path="url(#clip440)" d="M128.159 1677.11 Q124.548 1677.11 122.719 1680.68 Q120.913 1684.22 120.913 1691.35 Q120.913 1698.45 122.719 1702.02 Q124.548 1705.56 128.159 1705.56 Q131.793 1705.56 133.599 1702.02 Q135.427 1698.45 135.427 1691.35 Q135.427 1684.22 133.599 1680.68 Q131.793 1677.11 128.159 1677.11 M128.159 1673.41 Q133.969 1673.41 137.025 1678.01 Q140.103 1682.6 140.103 1691.35 Q140.103 1700.07 137.025 1704.68 Q133.969 1709.26 128.159 1709.26 Q122.349 1709.26 119.27 1704.68 Q116.214 1700.07 116.214 1691.35 Q116.214 1682.6 119.27 1678.01 Q122.349 1673.41 128.159 1673.41 Z" fill="#000000" fill-rule="nonzero" fill-opacity="1" /><path clip-path="url(#clip440)" d="M148.321 1702.71 L153.205 1702.71 L153.205 1708.59 L148.321 1708.59 L148.321 1702.71 Z" fill="#000000" fill-rule="nonzero" fill-opacity="1" /><path clip-path="url(#clip440)" d="M173.39 1677.11 Q169.779 1677.11 167.95 1680.68 Q166.145 1684.22 166.145 1691.35 Q166.145 1698.45 167.95 1702.02 Q169.779 1705.56 173.39 1705.56 Q177.024 1705.56 178.83 1702.02 Q180.659 1698.45 180.659 1691.35 Q180.659 1684.22 178.83 1680.68 Q177.024 1677.11 173.39 1677.11 M173.39 1673.41 Q179.2 1673.41 182.256 1678.01 Q185.334 1682.6 185.334 1691.35 Q185.334 1700.07 182.256 1704.68 Q179.2 1709.26 173.39 1709.26 Q167.58 1709.26 164.501 1704.68 Q161.446 1700.07 161.446 1691.35 Q161.446 1682.6 164.501 1678.01 Q167.58 1673.41 173.39 1673.41 Z" fill="#000000" fill-rule="nonzero" fill-opacity="1" /><path clip-path="url(#clip440)" d="M129.386 1181.04 Q125.775 1181.04 123.946 1184.6 Q122.14 1188.14 122.14 1195.27 Q122.14 1202.38 123.946 1205.94 Q125.775 1209.48 129.386 1209.48 Q133.02 1209.48 134.825 1205.94 Q136.654 1202.38 136.654 1195.27 Q136.654 1188.14 134.825 1184.6 Q133.02 1181.04 129.386 1181.04 M129.386 1177.33 Q135.196 1177.33 138.251 1181.94 Q141.33 1186.52 141.33 1195.27 Q141.33 1204 138.251 1208.6 Q135.196 1213.19 129.386 1213.19 Q123.576 1213.19 120.497 1208.6 Q117.441 1204 117.441 1195.27 Q117.441 1186.52 120.497 1181.94 Q123.576 1177.33 129.386 1177.33 Z" fill="#000000" fill-rule="nonzero" fill-opacity="1" /><path clip-path="url(#clip440)" d="M149.548 1206.64 L154.432 1206.64 L154.432 1212.52 L149.548 1212.52 L149.548 1206.64 Z" fill="#000000" fill-rule="nonzero" fill-opacity="1" /><path clip-path="url(#clip440)" d="M165.427 1208.58 L173.066 1208.58 L173.066 1182.22 L164.756 1183.88 L164.756 1179.62 L173.02 1177.96 L177.696 1177.96 L177.696 1208.58 L185.334 1208.58 L185.334 1212.52 L165.427 1212.52 L165.427 1208.58 Z" fill="#000000" fill-rule="nonzero" fill-opacity="1" /><path clip-path="url(#clip440)" d="M129.756 684.959 Q126.145 684.959 124.316 688.524 Q122.511 692.066 122.511 699.195 Q122.511 706.302 124.316 709.867 Q126.145 713.408 129.756 713.408 Q133.39 713.408 135.196 709.867 Q137.025 706.302 137.025 699.195 Q137.025 692.066 135.196 688.524 Q133.39 684.959 129.756 684.959 M129.756 681.256 Q135.566 681.256 138.622 685.862 Q141.7 690.445 141.7 699.195 Q141.7 707.922 138.622 712.529 Q135.566 717.112 129.756 717.112 Q123.946 717.112 120.867 712.529 Q117.812 707.922 117.812 699.195 Q117.812 690.445 120.867 685.862 Q123.946 681.256 129.756 681.256 Z" fill="#000000" fill-rule="nonzero" fill-opacity="1" /><path clip-path="url(#clip440)" d="M149.918 710.561 L154.802 710.561 L154.802 716.441 L149.918 716.441 L149.918 710.561 Z" fill="#000000" fill-rule="nonzero" fill-opacity="1" /><path clip-path="url(#clip440)" d="M169.015 712.505 L185.334 712.505 L185.334 716.441 L163.39 716.441 L163.39 712.505 Q166.052 709.751 170.635 705.121 Q175.242 700.468 176.422 699.126 Q178.668 696.603 179.547 694.867 Q180.45 693.107 180.45 691.418 Q180.45 688.663 178.506 686.927 Q176.584 685.191 173.483 685.191 Q171.284 685.191 168.83 685.955 Q166.399 686.719 163.622 688.269 L163.622 683.547 Q166.446 682.413 168.899 681.834 Q171.353 681.256 173.39 681.256 Q178.76 681.256 181.955 683.941 Q185.149 686.626 185.149 691.117 Q185.149 693.246 184.339 695.168 Q183.552 697.066 181.446 699.658 Q180.867 700.33 177.765 703.547 Q174.663 706.742 169.015 712.505 Z" fill="#000000" fill-rule="nonzero" fill-opacity="1" /><path clip-path="url(#clip440)" d="M128.807 188.883 Q125.196 188.883 123.367 192.448 Q121.562 195.99 121.562 203.119 Q121.562 210.226 123.367 213.79 Q125.196 217.332 128.807 217.332 Q132.441 217.332 134.247 213.79 Q136.075 210.226 136.075 203.119 Q136.075 195.99 134.247 192.448 Q132.441 188.883 128.807 188.883 M128.807 185.179 Q134.617 185.179 137.673 189.786 Q140.751 194.369 140.751 203.119 Q140.751 211.846 137.673 216.452 Q134.617 221.036 128.807 221.036 Q122.997 221.036 119.918 216.452 Q116.863 211.846 116.863 203.119 Q116.863 194.369 119.918 189.786 Q122.997 185.179 128.807 185.179 Z" fill="#000000" fill-rule="nonzero" fill-opacity="1" /><path clip-path="url(#clip440)" d="M148.969 214.485 L153.853 214.485 L153.853 220.364 L148.969 220.364 L148.969 214.485 Z" fill="#000000" fill-rule="nonzero" fill-opacity="1" /><path clip-path="url(#clip440)" d="M178.205 201.73 Q181.561 202.448 183.436 204.716 Q185.334 206.985 185.334 210.318 Q185.334 215.434 181.816 218.235 Q178.297 221.036 171.816 221.036 Q169.64 221.036 167.325 220.596 Q165.034 220.179 162.58 219.323 L162.58 214.809 Q164.524 215.943 166.839 216.522 Q169.154 217.101 171.677 217.101 Q176.075 217.101 178.367 215.365 Q180.682 213.628 180.682 210.318 Q180.682 207.263 178.529 205.55 Q176.399 203.814 172.58 203.814 L168.552 203.814 L168.552 199.971 L172.765 199.971 Q176.214 199.971 178.043 198.605 Q179.872 197.216 179.872 194.624 Q179.872 191.962 177.973 190.55 Q176.098 189.115 172.58 189.115 Q170.659 189.115 168.46 189.531 Q166.26 189.948 163.622 190.828 L163.622 186.661 Q166.284 185.92 168.598 185.55 Q170.936 185.179 172.997 185.179 Q178.321 185.179 181.422 187.61 Q184.524 190.017 184.524 194.138 Q184.524 197.008 182.881 198.999 Q181.237 200.966 178.205 201.73 Z" fill="#000000" fill-rule="nonzero" fill-opacity="1" /><path clip-path="url(#clip440)" d="M14.1184 1274.96 L14.1184 1268.53 L61.6384 1268.53 L61.6384 1274.96 L14.1184 1274.96 Z" fill="#000000" fill-rule="nonzero" fill-opacity="1" /><path clip-path="url(#clip440)" d="M40.1224 1226.36 L61.6384 1226.36 L61.6384 1232.21 L40.3133 1232.21 Q35.2526 1232.21 32.7381 1234.18 Q30.2237 1236.16 30.2237 1240.11 Q30.2237 1244.85 33.2474 1247.58 Q36.2711 1250.32 41.491 1250.32 L61.6384 1250.32 L61.6384 1256.21 L25.9905 1256.21 L25.9905 1250.32 L31.5287 1250.32 Q28.314 1248.22 26.7225 1245.39 Q25.1311 1242.52 25.1311 1238.8 Q25.1311 1232.66 28.9505 1229.51 Q32.7381 1226.36 40.1224 1226.36 Z" fill="#000000" fill-rule="nonzero" fill-opacity="1" /><path clip-path="url(#clip440)" d="M12.1132 1196.63 L16.983 1196.63 L16.983 1202.23 Q16.983 1205.38 18.2562 1206.62 Q19.5293 1207.83 22.8395 1207.83 L25.9905 1207.83 L25.9905 1198.19 L30.542 1198.19 L30.542 1207.83 L61.6384 1207.83 L61.6384 1213.72 L30.542 1213.72 L30.542 1219.32 L25.9905 1219.32 L25.9905 1213.72 L23.5079 1213.72 Q17.5559 1213.72 14.8505 1210.95 Q12.1132 1208.18 12.1132 1202.17 L12.1132 1196.63 Z" fill="#000000" fill-rule="nonzero" fill-opacity="1" /><path clip-path="url(#clip440)" d="M42.3504 1161.23 L45.2149 1161.23 L45.2149 1188.16 Q51.2623 1187.78 54.4452 1184.53 Q57.5962 1181.25 57.5962 1175.43 Q57.5962 1172.06 56.7687 1168.9 Q55.9411 1165.72 54.2861 1162.6 L59.8242 1162.6 Q61.161 1165.75 61.8612 1169.06 Q62.5615 1172.37 62.5615 1175.78 Q62.5615 1184.31 57.5962 1189.31 Q52.631 1194.27 44.1646 1194.27 Q35.4117 1194.27 30.2873 1189.56 Q25.1311 1184.82 25.1311 1176.8 Q25.1311 1169.6 29.7781 1165.44 Q34.3932 1161.23 42.3504 1161.23 M40.6316 1167.09 Q35.8255 1167.15 32.9609 1169.8 Q30.0964 1172.41 30.0964 1176.73 Q30.0964 1181.64 32.8654 1184.6 Q35.6345 1187.52 40.6634 1187.97 L40.6316 1167.09 Z" fill="#000000" fill-rule="nonzero" fill-opacity="1" /><path clip-path="url(#clip440)" d="M27.3591 1125.97 L32.8336 1125.97 Q31.465 1128.45 30.7966 1130.97 Q30.0964 1133.45 30.0964 1135.99 Q30.0964 1141.69 33.7248 1144.84 Q37.3214 1147.99 43.8463 1147.99 Q50.3711 1147.99 53.9996 1144.84 Q57.5962 1141.69 57.5962 1135.99 Q57.5962 1133.45 56.9278 1130.97 Q56.2276 1128.45 54.859 1125.97 L60.2698 1125.97 Q61.4156 1128.42 61.9886 1131.06 Q62.5615 1133.67 62.5615 1136.63 Q62.5615 1144.68 57.5007 1149.43 Q52.44 1154.17 43.8463 1154.17 Q35.1253 1154.17 30.1282 1149.39 Q25.1311 1144.59 25.1311 1136.25 Q25.1311 1133.54 25.704 1130.97 Q26.2451 1128.39 27.3591 1125.97 Z" fill="#000000" fill-rule="nonzero" fill-opacity="1" /><path clip-path="url(#clip440)" d="M15.869 1109.99 L25.9905 1109.99 L25.9905 1097.93 L30.542 1097.93 L30.542 1109.99 L49.8937 1109.99 Q54.2542 1109.99 55.4955 1108.81 Q56.7368 1107.6 56.7368 1103.94 L56.7368 1097.93 L61.6384 1097.93 L61.6384 1103.94 Q61.6384 1110.72 59.124 1113.3 Q56.5777 1115.88 49.8937 1115.88 L30.542 1115.88 L30.542 1120.18 L25.9905 1120.18 L25.9905 1115.88 L15.869 1115.88 L15.869 1109.99 Z" fill="#000000" fill-rule="nonzero" fill-opacity="1" /><path clip-path="url(#clip440)" d="M42.3504 1059.73 L45.2149 1059.73 L45.2149 1086.66 Q51.2623 1086.28 54.4452 1083.03 Q57.5962 1079.75 57.5962 1073.93 Q57.5962 1070.55 56.7687 1067.4 Q55.9411 1064.22 54.2861 1061.1 L59.8242 1061.1 Q61.161 1064.25 61.8612 1067.56 Q62.5615 1070.87 62.5615 1074.28 Q62.5615 1082.81 57.5962 1087.81 Q52.631 1092.77 44.1646 1092.77 Q35.4117 1092.77 30.2873 1088.06 Q25.1311 1083.32 25.1311 1075.3 Q25.1311 1068.1 29.7781 1063.93 Q34.3932 1059.73 42.3504 1059.73 M40.6316 1065.59 Q35.8255 1065.65 32.9609 1068.29 Q30.0964 1070.9 30.0964 1075.23 Q30.0964 1080.13 32.8654 1083.09 Q35.6345 1086.02 40.6634 1086.47 L40.6316 1065.59 Z" fill="#000000" fill-rule="nonzero" fill-opacity="1" /><path clip-path="url(#clip440)" d="M31.4013 1026.66 L12.1132 1026.66 L12.1132 1020.81 L61.6384 1020.81 L61.6384 1026.66 L56.2912 1026.66 Q59.4741 1028.51 61.0337 1031.34 Q62.5615 1034.14 62.5615 1038.09 Q62.5615 1044.55 57.4052 1048.62 Q52.249 1052.67 43.8463 1052.67 Q35.4436 1052.67 30.2873 1048.62 Q25.1311 1044.55 25.1311 1038.09 Q25.1311 1034.14 26.6907 1031.34 Q28.2185 1028.51 31.4013 1026.66 M43.8463 1046.62 Q50.3075 1046.62 53.9996 1043.98 Q57.6599 1041.3 57.6599 1036.66 Q57.6599 1032.01 53.9996 1029.34 Q50.3075 1026.66 43.8463 1026.66 Q37.3851 1026.66 33.7248 1029.34 Q30.0327 1032.01 30.0327 1036.66 Q30.0327 1041.3 33.7248 1043.98 Q37.3851 1046.62 43.8463 1046.62 Z" fill="#000000" fill-rule="nonzero" fill-opacity="1" /><path clip-path="url(#clip440)" d="M12.1769 973.955 Q19.4975 978.22 26.6589 980.289 Q33.8203 982.358 41.1727 982.358 Q48.5251 982.358 55.7502 980.289 Q62.9434 978.188 70.2321 973.955 L70.2321 979.047 Q62.7524 983.822 55.5274 986.209 Q48.3023 988.564 41.1727 988.564 Q34.0749 988.564 26.8817 986.209 Q19.6884 983.854 12.1769 979.047 L12.1769 973.955 Z" fill="#000000" fill-rule="nonzero" fill-opacity="1" /><path clip-path="url(#clip440)" d="M40.1224 932.96 L61.6384 932.96 L61.6384 938.816 L40.3133 938.816 Q35.2526 938.816 32.7381 940.79 Q30.2237 942.763 30.2237 946.71 Q30.2237 951.452 33.2474 954.189 Q36.2711 956.927 41.491 956.927 L61.6384 956.927 L61.6384 962.815 L25.9905 962.815 L25.9905 956.927 L31.5287 956.927 Q28.314 954.826 26.7225 951.993 Q25.1311 949.129 25.1311 945.405 Q25.1311 939.262 28.9505 936.111 Q32.7381 932.96 40.1224 932.96 Z" fill="#000000" fill-rule="nonzero" fill-opacity="1" /><path clip-path="url(#clip440)" d="M30.0964 907.465 Q30.0964 912.176 33.7885 914.913 Q37.4488 917.65 43.8463 917.65 Q50.2438 917.65 53.9359 914.945 Q57.5962 912.208 57.5962 907.465 Q57.5962 902.786 53.9041 900.049 Q50.212 897.312 43.8463 897.312 Q37.5124 897.312 33.8203 900.049 Q30.0964 902.786 30.0964 907.465 M25.1311 907.465 Q25.1311 899.826 30.0964 895.466 Q35.0616 891.105 43.8463 891.105 Q52.5991 891.105 57.5962 895.466 Q62.5615 899.826 62.5615 907.465 Q62.5615 915.136 57.5962 919.496 Q52.5991 923.825 43.8463 923.825 Q35.0616 923.825 30.0964 919.496 Q25.1311 915.136 25.1311 907.465 Z" fill="#000000" fill-rule="nonzero" fill-opacity="1" /><path clip-path="url(#clip440)" d="M31.465 860.741 Q30.8921 861.727 30.6375 862.905 Q30.351 864.051 30.351 865.451 Q30.351 870.417 33.5975 873.09 Q36.8122 875.732 42.8596 875.732 L61.6384 875.732 L61.6384 881.62 L25.9905 881.62 L25.9905 875.732 L31.5287 875.732 Q28.2821 873.886 26.7225 870.926 Q25.1311 867.966 25.1311 863.733 Q25.1311 863.128 25.2266 862.396 Q25.2903 861.664 25.4494 860.773 L31.465 860.741 Z" fill="#000000" fill-rule="nonzero" fill-opacity="1" /><path clip-path="url(#clip440)" d="M32.8336 827.989 Q28.8869 825.793 27.009 822.738 Q25.1311 819.682 25.1311 815.544 Q25.1311 809.974 29.046 806.951 Q32.9291 803.927 40.1224 803.927 L61.6384 803.927 L61.6384 809.815 L40.3133 809.815 Q35.1889 809.815 32.7063 811.629 Q30.2237 813.444 30.2237 817.168 Q30.2237 821.719 33.2474 824.361 Q36.2711 827.003 41.491 827.003 L61.6384 827.003 L61.6384 832.891 L40.3133 832.891 Q35.1571 832.891 32.7063 834.705 Q30.2237 836.519 30.2237 840.307 Q30.2237 844.795 33.2792 847.436 Q36.3029 850.078 41.491 850.078 L61.6384 850.078 L61.6384 855.967 L25.9905 855.967 L25.9905 850.078 L31.5287 850.078 Q28.2503 848.073 26.6907 845.272 Q25.1311 842.471 25.1311 838.62 Q25.1311 834.737 27.1045 832.031 Q29.0779 829.294 32.8336 827.989 Z" fill="#000000" fill-rule="nonzero" fill-opacity="1" /><path clip-path="url(#clip440)" d="M43.719 776.045 Q43.719 783.143 45.3422 785.88 Q46.9655 788.617 50.8804 788.617 Q53.9996 788.617 55.8457 786.58 Q57.6599 784.511 57.6599 780.979 Q57.6599 776.109 54.2224 773.181 Q50.7531 770.22 45.0239 770.22 L43.719 770.22 L43.719 776.045 M41.3 764.364 L61.6384 764.364 L61.6384 770.22 L56.2276 770.22 Q59.4741 772.226 61.0337 775.218 Q62.5615 778.209 62.5615 782.538 Q62.5615 788.013 59.5059 791.259 Q56.4186 794.474 51.2623 794.474 Q45.2467 794.474 42.1912 790.463 Q39.1357 786.421 39.1357 778.432 L39.1357 770.22 L38.5628 770.22 Q34.5205 770.22 32.3244 772.894 Q30.0964 775.536 30.0964 780.342 Q30.0964 783.397 30.8284 786.294 Q31.5605 789.19 33.0246 791.864 L27.6137 791.864 Q26.3724 788.649 25.7677 785.625 Q25.1311 782.602 25.1311 779.737 Q25.1311 772.003 29.1415 768.183 Q33.1519 764.364 41.3 764.364 Z" fill="#000000" fill-rule="nonzero" fill-opacity="1" /><path clip-path="url(#clip440)" d="M12.1132 752.301 L12.1132 746.445 L61.6384 746.445 L61.6384 752.301 L12.1132 752.301 Z" fill="#000000" fill-rule="nonzero" fill-opacity="1" /><path clip-path="url(#clip440)" d="M25.9905 734.191 L25.9905 728.334 L61.6384 728.334 L61.6384 734.191 L25.9905 734.191 M12.1132 734.191 L12.1132 728.334 L19.5293 728.334 L19.5293 734.191 L12.1132 734.191 Z" fill="#000000" fill-rule="nonzero" fill-opacity="1" /><path clip-path="url(#clip440)" d="M27.0408 693.355 L32.579 693.355 Q31.3059 695.837 30.6693 698.511 Q30.0327 701.184 30.0327 704.049 Q30.0327 708.409 31.3695 710.606 Q32.7063 712.77 35.3799 712.77 Q37.4169 712.77 38.5946 711.21 Q39.7404 709.651 40.7908 704.94 L41.2364 702.935 Q42.5732 696.697 45.0239 694.087 Q47.4429 691.445 51.8034 691.445 Q56.7687 691.445 59.6651 695.392 Q62.5615 699.306 62.5615 706.181 Q62.5615 709.046 61.9886 712.165 Q61.4475 715.253 60.3335 718.69 L54.2861 718.69 Q55.973 715.444 56.8323 712.293 Q57.6599 709.142 57.6599 706.054 Q57.6599 701.916 56.2594 699.688 Q54.8271 697.46 52.249 697.46 Q49.8619 697.46 48.5887 699.084 Q47.3156 700.675 46.1379 706.118 L45.6605 708.155 Q44.5147 713.598 42.1594 716.016 Q39.7722 718.435 35.6345 718.435 Q30.6056 718.435 27.8684 714.871 Q25.1311 711.306 25.1311 704.749 Q25.1311 701.503 25.6085 698.638 Q26.086 695.774 27.0408 693.355 Z" fill="#000000" fill-rule="nonzero" fill-opacity="1" /><path clip-path="url(#clip440)" d="M42.3504 651.627 L45.2149 651.627 L45.2149 678.554 Q51.2623 678.172 54.4452 674.926 Q57.5962 671.647 57.5962 665.823 Q57.5962 662.449 56.7687 659.298 Q55.9411 656.115 54.2861 652.996 L59.8242 652.996 Q61.161 656.147 61.8612 659.457 Q62.5615 662.767 62.5615 666.173 Q62.5615 674.703 57.5962 679.7 Q52.631 684.665 44.1646 684.665 Q35.4117 684.665 30.2873 679.955 Q25.1311 675.212 25.1311 667.192 Q25.1311 659.998 29.7781 655.829 Q34.3932 651.627 42.3504 651.627 M40.6316 657.484 Q35.8255 657.547 32.9609 660.189 Q30.0964 662.799 30.0964 667.128 Q30.0964 672.029 32.8654 674.989 Q35.6345 677.918 40.6634 678.363 L40.6316 657.484 Z" fill="#000000" fill-rule="nonzero" fill-opacity="1" /><path clip-path="url(#clip440)" d="M31.4013 618.558 L12.1132 618.558 L12.1132 612.701 L61.6384 612.701 L61.6384 618.558 L56.2912 618.558 Q59.4741 620.404 61.0337 623.236 Q62.5615 626.037 62.5615 629.984 Q62.5615 636.445 57.4052 640.519 Q52.249 644.561 43.8463 644.561 Q35.4436 644.561 30.2873 640.519 Q25.1311 636.445 25.1311 629.984 Q25.1311 626.037 26.6907 623.236 Q28.2185 620.404 31.4013 618.558 M43.8463 638.514 Q50.3075 638.514 53.9996 635.872 Q57.6599 633.199 57.6599 628.552 Q57.6599 623.905 53.9996 621.231 Q50.3075 618.558 43.8463 618.558 Q37.3851 618.558 33.7248 621.231 Q30.0327 623.905 30.0327 628.552 Q30.0327 633.199 33.7248 635.872 Q37.3851 638.514 43.8463 638.514 Z" fill="#000000" fill-rule="nonzero" fill-opacity="1" /><path clip-path="url(#clip440)" d="M12.1769 601.561 L12.1769 596.469 Q19.6884 591.694 26.8817 589.339 Q34.0749 586.952 41.1727 586.952 Q48.3023 586.952 55.5274 589.339 Q62.7524 591.694 70.2321 596.469 L70.2321 601.561 Q62.9434 597.328 55.7502 595.259 Q48.5251 593.158 41.1727 593.158 Q33.8203 593.158 26.6589 595.259 Q19.4975 597.328 12.1769 601.561 Z" fill="#000000" fill-rule="nonzero" fill-opacity="1" /><path clip-path="url(#clip440)" d="M526.653 12.096 L564.894 12.096 L564.894 18.9825 L534.836 18.9825 L534.836 36.8875 L563.638 36.8875 L563.638 43.7741 L534.836 43.7741 L534.836 65.6895 L565.623 65.6895 L565.623 72.576 L526.653 72.576 L526.653 12.096 Z" fill="#000000" fill-rule="nonzero" fill-opacity="1" /><path clip-path="url(#clip440)" d="M585.959 65.7705 L585.959 89.8329 L578.464 89.8329 L578.464 27.2059 L585.959 27.2059 L585.959 34.0924 Q588.308 30.0415 591.873 28.0971 Q595.478 26.1121 600.461 26.1121 Q608.725 26.1121 613.869 32.6746 Q619.054 39.2371 619.054 49.9314 Q619.054 60.6258 613.869 67.1883 Q608.725 73.7508 600.461 73.7508 Q595.478 73.7508 591.873 71.8063 Q588.308 69.8214 585.959 65.7705 M611.317 49.9314 Q611.317 41.7081 607.914 37.0496 Q604.552 32.3505 598.638 32.3505 Q592.724 32.3505 589.321 37.0496 Q585.959 41.7081 585.959 49.9314 Q585.959 58.1548 589.321 62.8538 Q592.724 67.5124 598.638 67.5124 Q604.552 67.5124 607.914 62.8538 Q611.317 58.1548 611.317 49.9314 Z" fill="#000000" fill-rule="nonzero" fill-opacity="1" /><path clip-path="url(#clip440)" d="M631.41 27.2059 L638.863 27.2059 L638.863 72.576 L631.41 72.576 L631.41 27.2059 M631.41 9.54393 L638.863 9.54393 L638.863 18.9825 L631.41 18.9825 L631.41 9.54393 Z" fill="#000000" fill-rule="nonzero" fill-opacity="1" /><path clip-path="url(#clip440)" d="M684.315 34.0924 L684.315 9.54393 L691.768 9.54393 L691.768 72.576 L684.315 72.576 L684.315 65.7705 Q681.965 69.8214 678.36 71.8063 Q674.795 73.7508 669.772 73.7508 Q661.548 73.7508 656.363 67.1883 Q651.219 60.6258 651.219 49.9314 Q651.219 39.2371 656.363 32.6746 Q661.548 26.1121 669.772 26.1121 Q674.795 26.1121 678.36 28.0971 Q681.965 30.0415 684.315 34.0924 M658.915 49.9314 Q658.915 58.1548 662.278 62.8538 Q665.68 67.5124 671.595 67.5124 Q677.509 67.5124 680.912 62.8538 Q684.315 58.1548 684.315 49.9314 Q684.315 41.7081 680.912 37.0496 Q677.509 32.3505 671.595 32.3505 Q665.68 32.3505 662.278 37.0496 Q658.915 41.7081 658.915 49.9314 Z" fill="#000000" fill-rule="nonzero" fill-opacity="1" /><path clip-path="url(#clip440)" d="M745.929 48.0275 L745.929 51.6733 L711.658 51.6733 Q712.144 59.3701 716.276 63.421 Q720.449 67.4314 727.862 67.4314 Q732.156 67.4314 736.166 66.3781 Q740.217 65.3249 744.187 63.2184 L744.187 70.267 Q740.176 71.9684 735.964 72.8596 Q731.751 73.7508 727.416 73.7508 Q716.56 73.7508 710.2 67.4314 Q703.88 61.1119 703.88 50.3365 Q703.88 39.1965 709.876 32.6746 Q715.912 26.1121 726.12 26.1121 Q735.275 26.1121 740.582 32.0264 Q745.929 37.9003 745.929 48.0275 M738.475 45.84 Q738.394 39.7232 735.032 36.0774 Q731.71 32.4315 726.201 32.4315 Q719.962 32.4315 716.195 35.9558 Q712.468 39.4801 711.901 45.8805 L738.475 45.84 Z" fill="#000000" fill-rule="nonzero" fill-opacity="1" /><path clip-path="url(#clip440)" d="M793.486 35.9153 Q796.282 30.8922 800.17 28.5022 Q804.059 26.1121 809.325 26.1121 Q816.414 26.1121 820.263 31.0947 Q824.111 36.0368 824.111 45.1919 L824.111 72.576 L816.617 72.576 L816.617 45.4349 Q816.617 38.913 814.308 35.7533 Q811.999 32.5936 807.259 32.5936 Q801.467 32.5936 798.104 36.4419 Q794.742 40.2903 794.742 46.9338 L794.742 72.576 L787.248 72.576 L787.248 45.4349 Q787.248 38.8725 784.939 35.7533 Q782.63 32.5936 777.809 32.5936 Q772.098 32.5936 768.735 36.4824 Q765.373 40.3308 765.373 46.9338 L765.373 72.576 L757.879 72.576 L757.879 27.2059 L765.373 27.2059 L765.373 34.2544 Q767.925 30.082 771.49 28.0971 Q775.055 26.1121 779.956 26.1121 Q784.898 26.1121 788.342 28.6237 Q791.826 31.1352 793.486 35.9153 Z" fill="#000000" fill-rule="nonzero" fill-opacity="1" /><path clip-path="url(#clip440)" d="M838.978 27.2059 L846.432 27.2059 L846.432 72.576 L838.978 72.576 L838.978 27.2059 M838.978 9.54393 L846.432 9.54393 L846.432 18.9825 L838.978 18.9825 L838.978 9.54393 Z" fill="#000000" fill-rule="nonzero" fill-opacity="1" /><path clip-path="url(#clip440)" d="M894.678 28.9478 L894.678 35.9153 Q891.518 34.1734 888.318 33.3227 Q885.158 32.4315 881.918 32.4315 Q874.667 32.4315 870.656 37.0496 Q866.646 41.6271 866.646 49.9314 Q866.646 58.2358 870.656 62.8538 Q874.667 67.4314 881.918 67.4314 Q885.158 67.4314 888.318 66.5807 Q891.518 65.6895 894.678 63.9476 L894.678 70.8341 Q891.559 72.2924 888.197 73.0216 Q884.875 73.7508 881.107 73.7508 Q870.859 73.7508 864.823 67.3098 Q858.787 60.8689 858.787 49.9314 Q858.787 38.832 864.863 32.472 Q870.98 26.1121 881.594 26.1121 Q885.037 26.1121 888.318 26.8413 Q891.599 27.5299 894.678 28.9478 Z" fill="#000000" fill-rule="nonzero" fill-opacity="1" /><path clip-path="url(#clip440)" d="M951.593 32.4315 Q945.598 32.4315 942.114 37.1306 Q938.63 41.7891 938.63 49.9314 Q938.63 58.0738 942.074 62.7728 Q945.557 67.4314 951.593 67.4314 Q957.548 67.4314 961.032 62.7323 Q964.516 58.0333 964.516 49.9314 Q964.516 41.8701 961.032 37.1711 Q957.548 32.4315 951.593 32.4315 M951.593 26.1121 Q961.315 26.1121 966.865 32.4315 Q972.415 38.7509 972.415 49.9314 Q972.415 61.0714 966.865 67.4314 Q961.315 73.7508 951.593 73.7508 Q941.83 73.7508 936.281 67.4314 Q930.772 61.0714 930.772 49.9314 Q930.772 38.7509 936.281 32.4315 Q941.83 26.1121 951.593 26.1121 Z" fill="#000000" fill-rule="nonzero" fill-opacity="1" /><path clip-path="url(#clip440)" d="M1022.48 45.1919 L1022.48 72.576 L1015.03 72.576 L1015.03 45.4349 Q1015.03 38.994 1012.52 35.7938 Q1010.01 32.5936 1004.98 32.5936 Q998.948 32.5936 995.464 36.4419 Q991.981 40.2903 991.981 46.9338 L991.981 72.576 L984.487 72.576 L984.487 27.2059 L991.981 27.2059 L991.981 34.2544 Q994.654 30.163 998.26 28.1376 Q1001.91 26.1121 1006.64 26.1121 Q1014.46 26.1121 1018.47 30.9732 Q1022.48 35.7938 1022.48 45.1919 Z" fill="#000000" fill-rule="nonzero" fill-opacity="1" /><path clip-path="url(#clip440)" d="M1072.23 43.6931 L1072.23 65.8515 L1085.35 65.8515 Q1091.96 65.8515 1095.12 63.1374 Q1098.32 60.3828 1098.32 54.752 Q1098.32 49.0808 1095.12 46.4072 Q1091.96 43.6931 1085.35 43.6931 L1072.23 43.6931 M1072.23 18.8205 L1072.23 37.0496 L1084.34 37.0496 Q1090.34 37.0496 1093.25 34.8216 Q1096.21 32.5531 1096.21 27.935 Q1096.21 23.3575 1093.25 21.089 Q1090.34 18.8205 1084.34 18.8205 L1072.23 18.8205 M1064.05 12.096 L1084.95 12.096 Q1094.31 12.096 1099.37 15.9849 Q1104.43 19.8737 1104.43 27.0438 Q1104.43 32.5936 1101.84 35.8748 Q1099.25 39.156 1094.23 39.9662 Q1100.26 41.2625 1103.58 45.3944 Q1106.95 49.4858 1106.95 55.6432 Q1106.95 63.745 1101.44 68.1605 Q1095.93 72.576 1085.76 72.576 L1064.05 72.576 L1064.05 12.096 Z" fill="#000000" fill-rule="nonzero" fill-opacity="1" /><path clip-path="url(#clip440)" d="M1141.26 49.7694 Q1132.22 49.7694 1128.74 51.8354 Q1125.26 53.9013 1125.26 58.8839 Q1125.26 62.8538 1127.85 65.2034 Q1130.48 67.5124 1134.98 67.5124 Q1141.18 67.5124 1144.9 63.1374 Q1148.67 58.7219 1148.67 51.4303 L1148.67 49.7694 L1141.26 49.7694 M1156.12 46.6907 L1156.12 72.576 L1148.67 72.576 L1148.67 65.6895 Q1146.12 69.8214 1142.31 71.8063 Q1138.5 73.7508 1132.99 73.7508 Q1126.03 73.7508 1121.89 69.8619 Q1117.8 65.9325 1117.8 59.3701 Q1117.8 51.7138 1122.91 47.825 Q1128.05 43.9361 1138.22 43.9361 L1148.67 43.9361 L1148.67 43.2069 Q1148.67 38.0623 1145.27 35.2672 Q1141.9 32.4315 1135.79 32.4315 Q1131.9 32.4315 1128.21 33.3632 Q1124.53 34.295 1121.12 36.1584 L1121.12 29.2718 Q1125.21 27.692 1129.06 26.9223 Q1132.91 26.1121 1136.56 26.1121 Q1146.4 26.1121 1151.26 31.2163 Q1156.12 36.3204 1156.12 46.6907 Z" fill="#000000" fill-rule="nonzero" fill-opacity="1" /><path clip-path="url(#clip440)" d="M1197.77 34.1734 Q1196.51 33.4443 1195.01 33.1202 Q1193.55 32.7556 1191.77 32.7556 Q1185.45 32.7556 1182.05 36.8875 Q1178.69 40.9789 1178.69 48.6757 L1178.69 72.576 L1171.19 72.576 L1171.19 27.2059 L1178.69 27.2059 L1178.69 34.2544 Q1181.04 30.1225 1184.8 28.1376 Q1188.57 26.1121 1193.96 26.1121 Q1194.73 26.1121 1195.66 26.2337 Q1196.59 26.3147 1197.73 26.5172 L1197.77 34.1734 Z" fill="#000000" fill-rule="nonzero" fill-opacity="1" /><path clip-path="url(#clip440)" d="M1226.2 49.7694 Q1217.17 49.7694 1213.69 51.8354 Q1210.2 53.9013 1210.2 58.8839 Q1210.2 62.8538 1212.8 65.2034 Q1215.43 67.5124 1219.93 67.5124 Q1226.12 67.5124 1229.85 63.1374 Q1233.62 58.7219 1233.62 51.4303 L1233.62 49.7694 L1226.2 49.7694 M1241.07 46.6907 L1241.07 72.576 L1233.62 72.576 L1233.62 65.6895 Q1231.07 69.8214 1227.26 71.8063 Q1223.45 73.7508 1217.94 73.7508 Q1210.97 73.7508 1206.84 69.8619 Q1202.75 65.9325 1202.75 59.3701 Q1202.75 51.7138 1207.85 47.825 Q1213 43.9361 1223.17 43.9361 L1233.62 43.9361 L1233.62 43.2069 Q1233.62 38.0623 1230.21 35.2672 Q1226.85 32.4315 1220.74 32.4315 Q1216.85 32.4315 1213.16 33.3632 Q1209.47 34.295 1206.07 36.1584 L1206.07 29.2718 Q1210.16 27.692 1214.01 26.9223 Q1217.86 26.1121 1221.5 26.1121 Q1231.35 26.1121 1236.21 31.2163 Q1241.07 36.3204 1241.07 46.6907 Z" fill="#000000" fill-rule="nonzero" fill-opacity="1" /><path clip-path="url(#clip440)" d="M1288.99 49.9314 Q1288.99 41.7081 1285.59 37.0496 Q1282.23 32.3505 1276.31 32.3505 Q1270.4 32.3505 1267 37.0496 Q1263.63 41.7081 1263.63 49.9314 Q1263.63 58.1548 1267 62.8538 Q1270.4 67.5124 1276.31 67.5124 Q1282.23 67.5124 1285.59 62.8538 Q1288.99 58.1548 1288.99 49.9314 M1263.63 34.0924 Q1265.98 30.0415 1269.55 28.0971 Q1273.15 26.1121 1278.14 26.1121 Q1286.4 26.1121 1291.55 32.6746 Q1296.73 39.2371 1296.73 49.9314 Q1296.73 60.6258 1291.55 67.1883 Q1286.4 73.7508 1278.14 73.7508 Q1273.15 73.7508 1269.55 71.8063 Q1265.98 69.8214 1263.63 65.7705 L1263.63 72.576 L1256.14 72.576 L1256.14 9.54393 L1263.63 9.54393 L1263.63 34.0924 Z" fill="#000000" fill-rule="nonzero" fill-opacity="1" /><path clip-path="url(#clip440)" d="M1329.7 49.7694 Q1320.67 49.7694 1317.19 51.8354 Q1313.7 53.9013 1313.7 58.8839 Q1313.7 62.8538 1316.3 65.2034 Q1318.93 67.5124 1323.43 67.5124 Q1329.62 67.5124 1333.35 63.1374 Q1337.12 58.7219 1337.12 51.4303 L1337.12 49.7694 L1329.7 49.7694 M1344.57 46.6907 L1344.57 72.576 L1337.12 72.576 L1337.12 65.6895 Q1334.57 69.8214 1330.76 71.8063 Q1326.95 73.7508 1321.44 73.7508 Q1314.47 73.7508 1310.34 69.8619 Q1306.25 65.9325 1306.25 59.3701 Q1306.25 51.7138 1311.35 47.825 Q1316.5 43.9361 1326.67 43.9361 L1337.12 43.9361 L1337.12 43.2069 Q1337.12 38.0623 1333.71 35.2672 Q1330.35 32.4315 1324.24 32.4315 Q1320.35 32.4315 1316.66 33.3632 Q1312.97 34.295 1309.57 36.1584 L1309.57 29.2718 Q1313.66 27.692 1317.51 26.9223 Q1321.36 26.1121 1325.01 26.1121 Q1334.85 26.1121 1339.71 31.2163 Q1344.57 36.3204 1344.57 46.6907 M1330.96 6.22219 L1339.02 6.22219 L1325.82 21.4536 L1319.62 21.4536 L1330.96 6.22219 Z" fill="#000000" fill-rule="nonzero" fill-opacity="1" /><path clip-path="url(#clip440)" d="M1388.85 28.5427 L1388.85 35.5912 Q1385.69 33.9709 1382.29 33.1607 Q1378.88 32.3505 1375.24 32.3505 Q1369.69 32.3505 1366.89 34.0519 Q1364.14 35.7533 1364.14 39.156 Q1364.14 41.7486 1366.12 43.2475 Q1368.11 44.7058 1374.1 46.0426 L1376.65 46.6097 Q1384.59 48.3111 1387.92 51.4303 Q1391.28 54.509 1391.28 60.0587 Q1391.28 66.3781 1386.26 70.0644 Q1381.27 73.7508 1372.52 73.7508 Q1368.88 73.7508 1364.91 73.0216 Q1360.98 72.3329 1356.6 70.9151 L1356.6 63.2184 Q1360.73 65.3654 1364.74 66.4591 Q1368.76 67.5124 1372.68 67.5124 Q1377.95 67.5124 1380.79 65.73 Q1383.62 63.9071 1383.62 60.6258 Q1383.62 57.5877 1381.56 55.9673 Q1379.53 54.3469 1372.6 52.8481 L1370.01 52.2405 Q1363.08 50.7821 1360.01 47.7845 Q1356.93 44.7463 1356.93 39.4801 Q1356.93 33.0797 1361.46 29.5959 Q1366 26.1121 1374.35 26.1121 Q1378.48 26.1121 1382.12 26.7198 Q1385.77 27.3274 1388.85 28.5427 Z" fill="#000000" fill-rule="nonzero" fill-opacity="1" /><path clip-path="url(#clip440)" d="M1403.15 27.2059 L1410.6 27.2059 L1410.6 72.576 L1403.15 72.576 L1403.15 27.2059 M1403.15 9.54393 L1410.6 9.54393 L1410.6 18.9825 L1403.15 18.9825 L1403.15 9.54393 Z" fill="#000000" fill-rule="nonzero" fill-opacity="1" /><path clip-path="url(#clip440)" d="M1422.43 46.5287 L1444.26 46.5287 L1444.26 53.1722 L1422.43 53.1722 L1422.43 46.5287 Z" fill="#000000" fill-rule="nonzero" fill-opacity="1" /><path clip-path="url(#clip440)" d="M1474.85 20.1573 L1463.75 50.2555 L1485.99 50.2555 L1474.85 20.1573 M1470.23 12.096 L1479.51 12.096 L1502.56 72.576 L1494.05 72.576 L1488.54 57.061 L1461.28 57.061 L1455.77 72.576 L1447.14 72.576 L1470.23 12.096 Z" fill="#000000" fill-rule="nonzero" fill-opacity="1" /><path clip-path="url(#clip440)" d="M1511.06 9.54393 L1518.52 9.54393 L1518.52 72.576 L1511.06 72.576 L1511.06 9.54393 Z" fill="#000000" fill-rule="nonzero" fill-opacity="1" /><path clip-path="url(#clip440)" d="M1566.68 49.9314 Q1566.68 41.7081 1563.28 37.0496 Q1559.92 32.3505 1554 32.3505 Q1548.09 32.3505 1544.69 37.0496 Q1541.32 41.7081 1541.32 49.9314 Q1541.32 58.1548 1544.69 62.8538 Q1548.09 67.5124 1554 67.5124 Q1559.92 67.5124 1563.28 62.8538 Q1566.68 58.1548 1566.68 49.9314 M1541.32 34.0924 Q1543.67 30.0415 1547.24 28.0971 Q1550.84 26.1121 1555.83 26.1121 Q1564.09 26.1121 1569.23 32.6746 Q1574.42 39.2371 1574.42 49.9314 Q1574.42 60.6258 1569.23 67.1883 Q1564.09 73.7508 1555.83 73.7508 Q1550.84 73.7508 1547.24 71.8063 Q1543.67 69.8214 1541.32 65.7705 L1541.32 72.576 L1533.83 72.576 L1533.83 9.54393 L1541.32 9.54393 L1541.32 34.0924 Z" fill="#000000" fill-rule="nonzero" fill-opacity="1" /><path clip-path="url(#clip440)" d="M1625.58 48.0275 L1625.58 51.6733 L1591.31 51.6733 Q1591.8 59.3701 1595.93 63.421 Q1600.1 67.4314 1607.52 67.4314 Q1611.81 67.4314 1615.82 66.3781 Q1619.87 65.3249 1623.84 63.2184 L1623.84 70.267 Q1619.83 71.9684 1615.62 72.8596 Q1611.4 73.7508 1607.07 73.7508 Q1596.21 73.7508 1589.85 67.4314 Q1583.53 61.1119 1583.53 50.3365 Q1583.53 39.1965 1589.53 32.6746 Q1595.57 26.1121 1605.77 26.1121 Q1614.93 26.1121 1620.24 32.0264 Q1625.58 37.9003 1625.58 48.0275 M1618.13 45.84 Q1618.05 39.7232 1614.69 36.0774 Q1611.36 32.4315 1605.85 32.4315 Q1599.62 32.4315 1595.85 35.9558 Q1592.12 39.4801 1591.56 45.8805 L1618.13 45.84 Z" fill="#000000" fill-rule="nonzero" fill-opacity="1" /><path clip-path="url(#clip440)" d="M1664.11 34.1734 Q1662.85 33.4443 1661.35 33.1202 Q1659.89 32.7556 1658.11 32.7556 Q1651.79 32.7556 1648.39 36.8875 Q1645.03 40.9789 1645.03 48.6757 L1645.03 72.576 L1637.53 72.576 L1637.53 27.2059 L1645.03 27.2059 L1645.03 34.2544 Q1647.38 30.1225 1651.14 28.1376 Q1654.91 26.1121 1660.3 26.1121 Q1661.07 26.1121 1662 26.2337 Q1662.93 26.3147 1664.07 26.5172 L1664.11 34.1734 Z" fill="#000000" fill-rule="nonzero" fill-opacity="1" /><path clip-path="url(#clip440)" d="M1679.3 14.324 L1679.3 27.2059 L1694.65 27.2059 L1694.65 32.9987 L1679.3 32.9987 L1679.3 57.6282 Q1679.3 63.1779 1680.8 64.7578 Q1682.34 66.3376 1686.99 66.3376 L1694.65 66.3376 L1694.65 72.576 L1686.99 72.576 Q1678.37 72.576 1675.08 69.3758 Q1671.8 66.1351 1671.8 57.6282 L1671.8 32.9987 L1666.33 32.9987 L1666.33 27.2059 L1671.8 27.2059 L1671.8 14.324 L1679.3 14.324 Z" fill="#000000" fill-rule="nonzero" fill-opacity="1" /><path clip-path="url(#clip440)" d="M1760.68 49.3643 Q1760.68 41.2625 1757.32 36.8065 Q1754 32.3505 1747.96 32.3505 Q1741.97 32.3505 1738.6 36.8065 Q1735.28 41.2625 1735.28 49.3643 Q1735.28 57.4256 1738.6 61.8816 Q1741.97 66.3376 1747.96 66.3376 Q1754 66.3376 1757.32 61.8816 Q1760.68 57.4256 1760.68 49.3643 M1768.13 66.9452 Q1768.13 78.5308 1762.99 84.1616 Q1757.84 89.8329 1747.23 89.8329 Q1743.3 89.8329 1739.82 89.2252 Q1736.33 88.6581 1733.05 87.4428 L1733.05 80.1917 Q1736.33 81.9741 1739.53 82.8248 Q1742.73 83.6755 1746.06 83.6755 Q1753.39 83.6755 1757.03 79.8271 Q1760.68 76.0193 1760.68 68.282 L1760.68 64.5957 Q1758.37 68.6061 1754.77 70.5911 Q1751.16 72.576 1746.14 72.576 Q1737.79 72.576 1732.69 66.2161 Q1727.58 59.8562 1727.58 49.3643 Q1727.58 38.832 1732.69 32.472 Q1737.79 26.1121 1746.14 26.1121 Q1751.16 26.1121 1754.77 28.0971 Q1758.37 30.082 1760.68 34.0924 L1760.68 27.2059 L1768.13 27.2059 L1768.13 66.9452 Z" fill="#000000" fill-rule="nonzero" fill-opacity="1" /><path clip-path="url(#clip440)" d="M1809.78 34.1734 Q1808.52 33.4443 1807.02 33.1202 Q1805.56 32.7556 1803.78 32.7556 Q1797.46 32.7556 1794.06 36.8875 Q1790.7 40.9789 1790.7 48.6757 L1790.7 72.576 L1783.2 72.576 L1783.2 27.2059 L1790.7 27.2059 L1790.7 34.2544 Q1793.05 30.1225 1796.81 28.1376 Q1800.58 26.1121 1805.97 26.1121 Q1806.74 26.1121 1807.67 26.2337 Q1808.6 26.3147 1809.74 26.5172 L1809.78 34.1734 Z" fill="#000000" fill-rule="nonzero" fill-opacity="1" /><path clip-path="url(#clip440)" d="M1838.21 49.7694 Q1829.18 49.7694 1825.7 51.8354 Q1822.21 53.9013 1822.21 58.8839 Q1822.21 62.8538 1824.81 65.2034 Q1827.44 67.5124 1831.94 67.5124 Q1838.13 67.5124 1841.86 63.1374 Q1845.63 58.7219 1845.63 51.4303 L1845.63 49.7694 L1838.21 49.7694 M1853.08 46.6907 L1853.08 72.576 L1845.63 72.576 L1845.63 65.6895 Q1843.08 69.8214 1839.27 71.8063 Q1835.46 73.7508 1829.95 73.7508 Q1822.98 73.7508 1818.85 69.8619 Q1814.76 65.9325 1814.76 59.3701 Q1814.76 51.7138 1819.86 47.825 Q1825.01 43.9361 1835.18 43.9361 L1845.63 43.9361 L1845.63 43.2069 Q1845.63 38.0623 1842.22 35.2672 Q1838.86 32.4315 1832.75 32.4315 Q1828.86 32.4315 1825.17 33.3632 Q1821.48 34.295 1818.08 36.1584 L1818.08 29.2718 Q1822.17 27.692 1826.02 26.9223 Q1829.87 26.1121 1833.52 26.1121 Q1843.36 26.1121 1848.22 31.2163 Q1853.08 36.3204 1853.08 46.6907 Z" fill="#000000" fill-rule="nonzero" fill-opacity="1" /><path clip-path="url(#clip440)" d="M1875.64 65.7705 L1875.64 89.8329 L1868.15 89.8329 L1868.15 27.2059 L1875.64 27.2059 L1875.64 34.0924 Q1877.99 30.0415 1881.56 28.0971 Q1885.16 26.1121 1890.15 26.1121 Q1898.41 26.1121 1903.56 32.6746 Q1908.74 39.2371 1908.74 49.9314 Q1908.74 60.6258 1903.56 67.1883 Q1898.41 73.7508 1890.15 73.7508 Q1885.16 73.7508 1881.56 71.8063 Q1877.99 69.8214 1875.64 65.7705 M1901 49.9314 Q1901 41.7081 1897.6 37.0496 Q1894.24 32.3505 1888.32 32.3505 Q1882.41 32.3505 1879.01 37.0496 Q1875.64 41.7081 1875.64 49.9314 Q1875.64 58.1548 1879.01 62.8538 Q1882.41 67.5124 1888.32 67.5124 Q1894.24 67.5124 1897.6 62.8538 Q1901 58.1548 1901 49.9314 Z" fill="#000000" fill-rule="nonzero" fill-opacity="1" /><path clip-path="url(#clip440)" d="M1958.81 45.1919 L1958.81 72.576 L1951.36 72.576 L1951.36 45.4349 Q1951.36 38.994 1948.84 35.7938 Q1946.33 32.5936 1941.31 32.5936 Q1935.27 32.5936 1931.79 36.4419 Q1928.31 40.2903 1928.31 46.9338 L1928.31 72.576 L1920.81 72.576 L1920.81 9.54393 L1928.31 9.54393 L1928.31 34.2544 Q1930.98 30.163 1934.59 28.1376 Q1938.23 26.1121 1942.97 26.1121 Q1950.79 26.1121 1954.8 30.9732 Q1958.81 35.7938 1958.81 45.1919 Z" fill="#000000" fill-rule="nonzero" fill-opacity="1" /><path clip-path="url(#clip440)" d="M2017.95 9.62495 Q2012.52 18.942 2009.89 28.0566 Q2007.26 37.1711 2007.26 46.5287 Q2007.26 55.8863 2009.89 65.0818 Q2012.57 74.2369 2017.95 83.5134 L2011.47 83.5134 Q2005.4 73.9938 2002.36 64.7983 Q1999.36 55.6027 1999.36 46.5287 Q1999.36 37.4952 2002.36 28.3401 Q2005.35 19.1851 2011.47 9.62495 L2017.95 9.62495 Z" fill="#000000" fill-rule="nonzero" fill-opacity="1" /><path clip-path="url(#clip440)" d="M2032.74 12.096 L2043.76 12.096 L2070.57 62.6918 L2070.57 12.096 L2078.51 12.096 L2078.51 72.576 L2067.5 72.576 L2040.68 21.9802 L2040.68 72.576 L2032.74 72.576 L2032.74 12.096 Z" fill="#000000" fill-rule="nonzero" fill-opacity="1" /><path clip-path="url(#clip440)" d="M2095.45 34.9026 L2147.38 34.9026 L2147.38 41.7081 L2095.45 41.7081 L2095.45 34.9026 M2095.45 51.4303 L2147.38 51.4303 L2147.38 58.3168 L2095.45 58.3168 L2095.45 51.4303 Z" fill="#000000" fill-rule="nonzero" fill-opacity="1" /><path clip-path="url(#clip440)" d="M2172.09 65.6895 L2200.65 65.6895 L2200.65 72.576 L2162.25 72.576 L2162.25 65.6895 Q2166.9 60.8689 2174.93 52.7671 Q2182.99 44.6248 2185.05 42.2752 Q2188.98 37.8598 2190.52 34.8216 Q2192.1 31.7429 2192.1 28.7857 Q2192.1 23.9651 2188.7 20.927 Q2185.34 17.8888 2179.91 17.8888 Q2176.06 17.8888 2171.77 19.2256 Q2167.51 20.5624 2162.65 23.2765 L2162.65 15.0127 Q2167.59 13.0277 2171.89 12.015 Q2176.18 11.0023 2179.75 11.0023 Q2189.14 11.0023 2194.73 15.7013 Q2200.32 20.4004 2200.32 28.2591 Q2200.32 31.9859 2198.91 35.3482 Q2197.53 38.6699 2193.84 43.2069 Q2192.83 44.3817 2187.4 50.0125 Q2181.97 55.6027 2172.09 65.6895 Z" fill="#000000" fill-rule="nonzero" fill-opacity="1" /><path clip-path="url(#clip440)" d="M2235.32 17.4837 Q2229.01 17.4837 2225.81 23.7221 Q2222.65 29.92 2222.65 42.3968 Q2222.65 54.833 2225.81 61.0714 Q2229.01 67.2693 2235.32 67.2693 Q2241.68 67.2693 2244.84 61.0714 Q2248.04 54.833 2248.04 42.3968 Q2248.04 29.92 2244.84 23.7221 Q2241.68 17.4837 2235.32 17.4837 M2235.32 11.0023 Q2245.49 11.0023 2250.84 19.0636 Q2256.23 27.0843 2256.23 42.3968 Q2256.23 57.6687 2250.84 65.73 Q2245.49 73.7508 2235.32 73.7508 Q2225.16 73.7508 2219.77 65.73 Q2214.42 57.6687 2214.42 42.3968 Q2214.42 27.0843 2219.77 19.0636 Q2225.16 11.0023 2235.32 11.0023 Z" fill="#000000" fill-rule="nonzero" fill-opacity="1" /><path clip-path="url(#clip440)" d="M2288.11 17.4837 Q2281.79 17.4837 2278.59 23.7221 Q2275.43 29.92 2275.43 42.3968 Q2275.43 54.833 2278.59 61.0714 Q2281.79 67.2693 2288.11 67.2693 Q2294.47 67.2693 2297.63 61.0714 Q2300.83 54.833 2300.83 42.3968 Q2300.83 29.92 2297.63 23.7221 Q2294.47 17.4837 2288.11 17.4837 M2288.11 11.0023 Q2298.28 11.0023 2303.62 19.0636 Q2309.01 27.0843 2309.01 42.3968 Q2309.01 57.6687 2303.62 65.73 Q2298.28 73.7508 2288.11 73.7508 Q2277.94 73.7508 2272.55 65.73 Q2267.21 57.6687 2267.21 42.3968 Q2267.21 27.0843 2272.55 19.0636 Q2277.94 11.0023 2288.11 11.0023 Z" fill="#000000" fill-rule="nonzero" fill-opacity="1" /><path clip-path="url(#clip440)" d="M2321.16 9.62495 L2327.64 9.62495 Q2333.72 19.1851 2336.72 28.3401 Q2339.76 37.4952 2339.76 46.5287 Q2339.76 55.6027 2336.72 64.7983 Q2333.72 73.9938 2327.64 83.5134 L2321.16 83.5134 Q2326.55 74.2369 2329.18 65.0818 Q2331.86 55.8863 2331.86 46.5287 Q2331.86 37.1711 2329.18 28.0566 Q2326.55 18.942 2321.16 9.62495 Z" fill="#000000" fill-rule="nonzero" fill-opacity="1" /><polyline clip-path="url(#clip441)" style="stroke:#ff0000; stroke-linecap:round; stroke-linejoin:round; stroke-width:8; stroke-opacity:1; fill:none" stroke-dasharray="32, 20" points="294.006,1666.51 322.486,1627.84 350.966,1571.97 379.446,1490.37 407.926,1375.11 436.406,1223.2 464.886,1041.16 493.366,845.008 521.846,654.759 550.326,487.557 578.806,353.993 607.286,258.109 635.766,199.096 664.246,173.254 692.726,175.526 721.206,200.516 749.686,243.082 778.166,298.637 806.646,363.266 835.126,433.737 863.606,507.452 892.086,582.37 920.566,656.925 949.046,729.949 977.526,800.586 1006.01,868.244 1034.49,932.538 1062.97,993.231 1091.45,1050.21 1119.93,1103.46 1148.41,1153.04 1176.89,1199.05 1205.37,1241.61 1233.85,1280.9 1262.33,1317.08 1290.81,1350.34 1319.29,1380.86 1347.77,1408.84 1376.25,1434.44 1404.73,1457.84 1433.21,1479.22 1461.69,1498.72 1490.17,1516.5 1518.65,1532.69 1547.13,1547.44 1575.61,1560.85 1604.08,1573.05 1632.56,1584.14 1661.04,1594.21 1689.52,1603.35 1718,1611.65 1746.48,1619.18 1774.96,1626.01 1803.44,1632.21 1831.92,1637.82 1860.4,1642.91 1888.88,1647.52 1917.36,1651.7 1945.84,1655.48 1974.32,1658.91 2002.8,1662.01 2031.28,1664.81 2059.76,1667.35 2088.24,1669.65 2116.72,1671.73 2145.2,1673.61 2173.68,1675.32 2202.16,1676.86 2230.64,1678.25 2259.12,1679.51 2287.6,1680.64 2316.08,1681.67 2344.56,1682.6 2373.04,1683.45 2401.52,1684.21 2430,1684.89 2458.48,1685.51 2486.96,1686.07 2515.44,1686.58 2543.92,1687.04 2572.4,1687.45 "/>
<polyline clip-path="url(#clip441)" style="stroke:#0000ff; stroke-linecap:round; stroke-linejoin:round; stroke-width:8; stroke-opacity:1; fill:none" points="294.006,1666.51 322.486,1628.4 350.966,1577.1 379.446,1509.66 407.926,1423.9 436.406,1319.21 464.886,1197.57 493.366,1064.03 521.846,926.316 550.326,793.521 578.806,674.2 607.286,574.868 635.766,499.267 664.246,448.457 692.726,421.417 721.206,415.762 749.686,428.398 778.166,456.007 806.646,495.365 835.126,543.529 863.606,597.927 892.086,656.38 920.566,717.093 949.046,778.619 977.526,839.82 1006.01,899.82 1034.49,957.965 1062.97,1013.78 1091.45,1066.95 1119.93,1117.26 1148.41,1164.6 1176.89,1208.93 1205.37,1250.29 1233.85,1288.71 1262.33,1324.31 1290.81,1357.19 1319.29,1387.49 1347.77,1415.35 1376.25,1440.91 1404.73,1464.32 1433.21,1485.72 1461.69,1505.26 1490.17,1523.08 1518.65,1539.3 1547.13,1554.05 1575.61,1567.45 1604.08,1579.61 1632.56,1590.63 1661.04,1600.62 1689.52,1609.66 1718,1617.84 1746.48,1625.22 1774.96,1631.9 1803.44,1637.92 1831.92,1643.35 1860.4,1648.25 1888.88,1652.66 1917.36,1656.63 1945.84,1660.2 1974.32,1663.42 2002.8,1666.31 2031.28,1668.91 2059.76,1671.24 2088.24,1673.34 2116.72,1675.22 2145.2,1676.91 2173.68,1678.42 2202.16,1679.78 2230.64,1681 2259.12,1682.09 2287.6,1683.07 2316.08,1683.94 2344.56,1684.73 2373.04,1685.43 2401.52,1686.06 2430,1686.62 2458.48,1687.12 2486.96,1687.57 2515.44,1687.97 2543.92,1688.33 2572.4,1688.65 "/>
<path clip-path="url(#clip440)" d="M1936.61 336.856 L2560.25 336.856 L2560.25 181.336 L1936.61 181.336  Z" fill="#ffffff" fill-rule="evenodd" fill-opacity="1"/>
<polyline clip-path="url(#clip440)" style="stroke:#000000; stroke-linecap:round; stroke-linejoin:round; stroke-width:4; stroke-opacity:1; fill:none" points="1936.61,336.856 2560.25,336.856 2560.25,181.336 1936.61,181.336 1936.61,336.856 "/>
<polyline clip-path="url(#clip440)" style="stroke:#ff0000; stroke-linecap:round; stroke-linejoin:round; stroke-width:8; stroke-opacity:1; fill:none" stroke-dasharray="32, 20" points="1963.45,233.176 2124.46,233.176 "/>
<path clip-path="url(#clip440)" d="M2151.29 215.896 L2155.97 215.896 L2155.97 250.456 L2151.29 250.456 L2151.29 215.896 Z" fill="#000000" fill-rule="nonzero" fill-opacity="1" /><path clip-path="url(#clip440)" d="M2186.64 234.808 L2186.64 250.456 L2182.38 250.456 L2182.38 234.947 Q2182.38 231.267 2180.94 229.438 Q2179.51 227.609 2176.64 227.609 Q2173.19 227.609 2171.2 229.808 Q2169.21 232.007 2169.21 235.804 L2169.21 250.456 L2164.92 250.456 L2164.92 224.531 L2169.21 224.531 L2169.21 228.558 Q2170.73 226.22 2172.79 225.063 Q2174.88 223.906 2177.59 223.906 Q2182.05 223.906 2184.35 226.683 Q2186.64 229.438 2186.64 234.808 Z" fill="#000000" fill-rule="nonzero" fill-opacity="1" /><path clip-path="url(#clip440)" d="M2212.19 228.466 L2212.19 214.438 L2216.45 214.438 L2216.45 250.456 L2212.19 250.456 L2212.19 246.567 Q2210.85 248.882 2208.79 250.016 Q2206.75 251.128 2203.88 251.128 Q2199.18 251.128 2196.22 247.378 Q2193.28 243.628 2193.28 237.517 Q2193.28 231.405 2196.22 227.655 Q2199.18 223.906 2203.88 223.906 Q2206.75 223.906 2208.79 225.04 Q2210.85 226.151 2212.19 228.466 M2197.68 237.517 Q2197.68 242.216 2199.6 244.901 Q2201.54 247.563 2204.92 247.563 Q2208.3 247.563 2210.25 244.901 Q2212.19 242.216 2212.19 237.517 Q2212.19 232.817 2210.25 230.155 Q2208.3 227.47 2204.92 227.47 Q2201.54 227.47 2199.6 230.155 Q2197.68 232.817 2197.68 237.517 Z" fill="#000000" fill-rule="nonzero" fill-opacity="1" /><path clip-path="url(#clip440)" d="M2225.23 224.531 L2229.48 224.531 L2229.48 250.456 L2225.23 250.456 L2225.23 224.531 M2225.23 214.438 L2229.48 214.438 L2229.48 219.831 L2225.23 219.831 L2225.23 214.438 Z" fill="#000000" fill-rule="nonzero" fill-opacity="1" /><path clip-path="url(#clip440)" d="M2235.34 224.531 L2239.85 224.531 L2247.96 246.29 L2256.06 224.531 L2260.57 224.531 L2250.85 250.456 L2245.06 250.456 L2235.34 224.531 Z" fill="#000000" fill-rule="nonzero" fill-opacity="1" /><path clip-path="url(#clip440)" d="M2266.45 224.531 L2270.71 224.531 L2270.71 250.456 L2266.45 250.456 L2266.45 224.531 M2266.45 214.438 L2270.71 214.438 L2270.71 219.831 L2266.45 219.831 L2266.45 214.438 Z" fill="#000000" fill-rule="nonzero" fill-opacity="1" /><path clip-path="url(#clip440)" d="M2296.68 228.466 L2296.68 214.438 L2300.94 214.438 L2300.94 250.456 L2296.68 250.456 L2296.68 246.567 Q2295.34 248.882 2293.28 250.016 Q2291.24 251.128 2288.37 251.128 Q2283.67 251.128 2280.71 247.378 Q2277.77 243.628 2277.77 237.517 Q2277.77 231.405 2280.71 227.655 Q2283.67 223.906 2288.37 223.906 Q2291.24 223.906 2293.28 225.04 Q2295.34 226.151 2296.68 228.466 M2282.17 237.517 Q2282.17 242.216 2284.09 244.901 Q2286.04 247.563 2289.41 247.563 Q2292.79 247.563 2294.74 244.901 Q2296.68 242.216 2296.68 237.517 Q2296.68 232.817 2294.74 230.155 Q2292.79 227.47 2289.41 227.47 Q2286.04 227.47 2284.09 230.155 Q2282.17 232.817 2282.17 237.517 Z" fill="#000000" fill-rule="nonzero" fill-opacity="1" /><path clip-path="url(#clip440)" d="M2309.28 240.225 L2309.28 224.531 L2313.53 224.531 L2313.53 240.063 Q2313.53 243.743 2314.97 245.595 Q2316.41 247.424 2319.28 247.424 Q2322.72 247.424 2324.72 245.225 Q2326.73 243.026 2326.73 239.229 L2326.73 224.531 L2330.99 224.531 L2330.99 250.456 L2326.73 250.456 L2326.73 246.475 Q2325.18 248.836 2323.12 249.993 Q2321.08 251.128 2318.37 251.128 Q2313.91 251.128 2311.59 248.35 Q2309.28 245.572 2309.28 240.225 M2319.99 223.906 L2319.99 223.906 Z" fill="#000000" fill-rule="nonzero" fill-opacity="1" /><path clip-path="url(#clip440)" d="M2351.54 237.424 Q2346.38 237.424 2344.39 238.604 Q2342.4 239.785 2342.4 242.632 Q2342.4 244.901 2343.88 246.243 Q2345.39 247.563 2347.96 247.563 Q2351.5 247.563 2353.63 245.063 Q2355.78 242.54 2355.78 238.373 L2355.78 237.424 L2351.54 237.424 M2360.04 235.665 L2360.04 250.456 L2355.78 250.456 L2355.78 246.521 Q2354.32 248.882 2352.15 250.016 Q2349.97 251.128 2346.82 251.128 Q2342.84 251.128 2340.48 248.905 Q2338.14 246.66 2338.14 242.91 Q2338.14 238.535 2341.06 236.313 Q2344 234.091 2349.81 234.091 L2355.78 234.091 L2355.78 233.674 Q2355.78 230.734 2353.84 229.137 Q2351.91 227.517 2348.42 227.517 Q2346.2 227.517 2344.09 228.049 Q2341.98 228.581 2340.04 229.646 L2340.04 225.711 Q2342.38 224.808 2344.58 224.368 Q2346.78 223.906 2348.86 223.906 Q2354.48 223.906 2357.26 226.822 Q2360.04 229.739 2360.04 235.665 Z" fill="#000000" fill-rule="nonzero" fill-opacity="1" /><path clip-path="url(#clip440)" d="M2368.81 214.438 L2373.07 214.438 L2373.07 250.456 L2368.81 250.456 L2368.81 214.438 Z" fill="#000000" fill-rule="nonzero" fill-opacity="1" /><path clip-path="url(#clip440)" d="M2379.83 235.572 L2392.31 235.572 L2392.31 239.368 L2379.83 239.368 L2379.83 235.572 Z" fill="#000000" fill-rule="nonzero" fill-opacity="1" /><path clip-path="url(#clip440)" d="M2417.7 237.517 Q2417.7 232.817 2415.76 230.155 Q2413.84 227.47 2410.46 227.47 Q2407.08 227.47 2405.13 230.155 Q2403.21 232.817 2403.21 237.517 Q2403.21 242.216 2405.13 244.901 Q2407.08 247.563 2410.46 247.563 Q2413.84 247.563 2415.76 244.901 Q2417.7 242.216 2417.7 237.517 M2403.21 228.466 Q2404.55 226.151 2406.59 225.04 Q2408.65 223.906 2411.5 223.906 Q2416.22 223.906 2419.16 227.655 Q2422.12 231.405 2422.12 237.517 Q2422.12 243.628 2419.16 247.378 Q2416.22 251.128 2411.5 251.128 Q2408.65 251.128 2406.59 250.016 Q2404.55 248.882 2403.21 246.567 L2403.21 250.456 L2398.93 250.456 L2398.93 214.438 L2403.21 214.438 L2403.21 228.466 Z" fill="#000000" fill-rule="nonzero" fill-opacity="1" /><path clip-path="url(#clip440)" d="M2440.96 237.424 Q2435.8 237.424 2433.81 238.604 Q2431.82 239.785 2431.82 242.632 Q2431.82 244.901 2433.3 246.243 Q2434.81 247.563 2437.38 247.563 Q2440.92 247.563 2443.05 245.063 Q2445.2 242.54 2445.2 238.373 L2445.2 237.424 L2440.96 237.424 M2449.46 235.665 L2449.46 250.456 L2445.2 250.456 L2445.2 246.521 Q2443.74 248.882 2441.57 250.016 Q2439.39 251.128 2436.24 251.128 Q2432.26 251.128 2429.9 248.905 Q2427.56 246.66 2427.56 242.91 Q2427.56 238.535 2430.48 236.313 Q2433.42 234.091 2439.23 234.091 L2445.2 234.091 L2445.2 233.674 Q2445.2 230.734 2443.26 229.137 Q2441.34 227.517 2437.84 227.517 Q2435.62 227.517 2433.51 228.049 Q2431.4 228.581 2429.46 229.646 L2429.46 225.711 Q2431.8 224.808 2434 224.368 Q2436.2 223.906 2438.28 223.906 Q2443.9 223.906 2446.68 226.822 Q2449.46 229.739 2449.46 235.665 Z" fill="#000000" fill-rule="nonzero" fill-opacity="1" /><path clip-path="url(#clip440)" d="M2474.76 225.294 L2474.76 229.322 Q2472.96 228.396 2471.01 227.933 Q2469.07 227.47 2466.98 227.47 Q2463.81 227.47 2462.21 228.443 Q2460.64 229.415 2460.64 231.359 Q2460.64 232.841 2461.77 233.697 Q2462.91 234.53 2466.34 235.294 L2467.79 235.618 Q2472.33 236.591 2474.23 238.373 Q2476.15 240.132 2476.15 243.304 Q2476.15 246.915 2473.28 249.021 Q2470.43 251.128 2465.43 251.128 Q2463.35 251.128 2461.08 250.711 Q2458.84 250.317 2456.34 249.507 L2456.34 245.109 Q2458.7 246.336 2460.99 246.961 Q2463.28 247.563 2465.52 247.563 Q2468.53 247.563 2470.15 246.544 Q2471.77 245.503 2471.77 243.628 Q2471.77 241.892 2470.59 240.966 Q2469.44 240.04 2465.48 239.183 L2464 238.836 Q2460.04 238.003 2458.28 236.29 Q2456.52 234.554 2456.52 231.544 Q2456.52 227.887 2459.11 225.896 Q2461.71 223.906 2466.47 223.906 Q2468.84 223.906 2470.92 224.253 Q2473 224.6 2474.76 225.294 Z" fill="#000000" fill-rule="nonzero" fill-opacity="1" /><path clip-path="url(#clip440)" d="M2505.11 236.429 L2505.11 238.512 L2485.52 238.512 Q2485.8 242.91 2488.16 245.225 Q2490.55 247.516 2494.78 247.516 Q2497.24 247.516 2499.53 246.915 Q2501.84 246.313 2504.11 245.109 L2504.11 249.137 Q2501.82 250.109 2499.41 250.618 Q2497.01 251.128 2494.53 251.128 Q2488.33 251.128 2484.69 247.516 Q2481.08 243.905 2481.08 237.748 Q2481.08 231.382 2484.51 227.655 Q2487.96 223.906 2493.79 223.906 Q2499.02 223.906 2502.05 227.285 Q2505.11 230.642 2505.11 236.429 M2500.85 235.179 Q2500.8 231.683 2498.88 229.6 Q2496.98 227.517 2493.83 227.517 Q2490.27 227.517 2488.12 229.53 Q2485.99 231.544 2485.66 235.202 L2500.85 235.179 Z" fill="#000000" fill-rule="nonzero" fill-opacity="1" /><path clip-path="url(#clip440)" d="M2529.16 228.466 L2529.16 214.438 L2533.42 214.438 L2533.42 250.456 L2529.16 250.456 L2529.16 246.567 Q2527.82 248.882 2525.76 250.016 Q2523.72 251.128 2520.85 251.128 Q2516.15 251.128 2513.19 247.378 Q2510.25 243.628 2510.25 237.517 Q2510.25 231.405 2513.19 227.655 Q2516.15 223.906 2520.85 223.906 Q2523.72 223.906 2525.76 225.04 Q2527.82 226.151 2529.16 228.466 M2514.65 237.517 Q2514.65 242.216 2516.57 244.901 Q2518.51 247.563 2521.89 247.563 Q2525.27 247.563 2527.21 244.901 Q2529.16 242.216 2529.16 237.517 Q2529.16 232.817 2527.21 230.155 Q2525.27 227.47 2521.89 227.47 Q2518.51 227.47 2516.57 230.155 Q2514.65 232.817 2514.65 237.517 Z" fill="#000000" fill-rule="nonzero" fill-opacity="1" /><polyline clip-path="url(#clip440)" style="stroke:#0000ff; stroke-linecap:round; stroke-linejoin:round; stroke-width:8; stroke-opacity:1; fill:none" points="1963.45,285.016 2124.46,285.016 "/>
<path clip-path="url(#clip440)" d="M2155.97 271.579 L2155.97 284.565 L2161.85 284.565 Q2165.11 284.565 2166.89 282.875 Q2168.67 281.185 2168.67 278.06 Q2168.67 274.958 2166.89 273.269 Q2165.11 271.579 2161.85 271.579 L2155.97 271.579 M2151.29 267.736 L2161.85 267.736 Q2167.66 267.736 2170.62 270.375 Q2173.61 272.991 2173.61 278.06 Q2173.61 283.176 2170.62 285.792 Q2167.66 288.407 2161.85 288.407 L2155.97 288.407 L2155.97 302.296 L2151.29 302.296 L2151.29 267.736 Z" fill="#000000" fill-rule="nonzero" fill-opacity="1" /><path clip-path="url(#clip440)" d="M2189.35 289.264 Q2184.18 289.264 2182.19 290.444 Q2180.2 291.625 2180.2 294.472 Q2180.2 296.741 2181.68 298.083 Q2183.19 299.403 2185.76 299.403 Q2189.3 299.403 2191.43 296.903 Q2193.58 294.38 2193.58 290.213 L2193.58 289.264 L2189.35 289.264 M2197.84 287.505 L2197.84 302.296 L2193.58 302.296 L2193.58 298.361 Q2192.12 300.722 2189.95 301.856 Q2187.77 302.968 2184.62 302.968 Q2180.64 302.968 2178.28 300.745 Q2175.94 298.5 2175.94 294.75 Q2175.94 290.375 2178.86 288.153 Q2181.8 285.931 2187.61 285.931 L2193.58 285.931 L2193.58 285.514 Q2193.58 282.574 2191.64 280.977 Q2189.72 279.357 2186.22 279.357 Q2184 279.357 2181.89 279.889 Q2179.79 280.421 2177.84 281.486 L2177.84 277.551 Q2180.18 276.648 2182.38 276.208 Q2184.58 275.746 2186.66 275.746 Q2192.29 275.746 2195.06 278.662 Q2197.84 281.579 2197.84 287.505 Z" fill="#000000" fill-rule="nonzero" fill-opacity="1" /><path clip-path="url(#clip440)" d="M2206.61 276.371 L2210.87 276.371 L2210.87 302.296 L2206.61 302.296 L2206.61 276.371 M2206.61 266.278 L2210.87 266.278 L2210.87 271.671 L2206.61 271.671 L2206.61 266.278 Z" fill="#000000" fill-rule="nonzero" fill-opacity="1" /><path clip-path="url(#clip440)" d="M2234.81 280.352 Q2234.09 279.935 2233.23 279.75 Q2232.4 279.542 2231.38 279.542 Q2227.77 279.542 2225.83 281.903 Q2223.91 284.241 2223.91 288.639 L2223.91 302.296 L2219.62 302.296 L2219.62 276.371 L2223.91 276.371 L2223.91 280.398 Q2225.25 278.037 2227.4 276.903 Q2229.55 275.746 2232.63 275.746 Q2233.07 275.746 2233.6 275.815 Q2234.14 275.861 2234.79 275.977 L2234.81 280.352 Z" fill="#000000" fill-rule="nonzero" fill-opacity="1" /><path clip-path="url(#clip440)" d="M2234.09 287.412 L2246.57 287.412 L2246.57 291.208 L2234.09 291.208 L2234.09 287.412 Z" fill="#000000" fill-rule="nonzero" fill-opacity="1" /><path clip-path="url(#clip440)" d="M2271.96 289.357 Q2271.96 284.657 2270.02 281.995 Q2268.1 279.31 2264.72 279.31 Q2261.34 279.31 2259.39 281.995 Q2257.47 284.657 2257.47 289.357 Q2257.47 294.056 2259.39 296.741 Q2261.34 299.403 2264.72 299.403 Q2268.1 299.403 2270.02 296.741 Q2271.96 294.056 2271.96 289.357 M2257.47 280.306 Q2258.81 277.991 2260.85 276.88 Q2262.91 275.746 2265.76 275.746 Q2270.48 275.746 2273.42 279.495 Q2276.38 283.245 2276.38 289.357 Q2276.38 295.468 2273.42 299.218 Q2270.48 302.968 2265.76 302.968 Q2262.91 302.968 2260.85 301.856 Q2258.81 300.722 2257.47 298.407 L2257.47 302.296 L2253.19 302.296 L2253.19 266.278 L2257.47 266.278 L2257.47 280.306 Z" fill="#000000" fill-rule="nonzero" fill-opacity="1" /><path clip-path="url(#clip440)" d="M2295.22 289.264 Q2290.06 289.264 2288.07 290.444 Q2286.08 291.625 2286.08 294.472 Q2286.08 296.741 2287.56 298.083 Q2289.07 299.403 2291.64 299.403 Q2295.18 299.403 2297.31 296.903 Q2299.46 294.38 2299.46 290.213 L2299.46 289.264 L2295.22 289.264 M2303.72 287.505 L2303.72 302.296 L2299.46 302.296 L2299.46 298.361 Q2298 300.722 2295.83 301.856 Q2293.65 302.968 2290.5 302.968 Q2286.52 302.968 2284.16 300.745 Q2281.82 298.5 2281.82 294.75 Q2281.82 290.375 2284.74 288.153 Q2287.68 285.931 2293.49 285.931 L2299.46 285.931 L2299.46 285.514 Q2299.46 282.574 2297.52 280.977 Q2295.6 279.357 2292.1 279.357 Q2289.88 279.357 2287.77 279.889 Q2285.66 280.421 2283.72 281.486 L2283.72 277.551 Q2286.06 276.648 2288.26 276.208 Q2290.46 275.746 2292.54 275.746 Q2298.16 275.746 2300.94 278.662 Q2303.72 281.579 2303.72 287.505 Z" fill="#000000" fill-rule="nonzero" fill-opacity="1" /><path clip-path="url(#clip440)" d="M2329.02 277.134 L2329.02 281.162 Q2327.22 280.236 2325.27 279.773 Q2323.33 279.31 2321.24 279.31 Q2318.07 279.31 2316.47 280.283 Q2314.9 281.255 2314.9 283.199 Q2314.9 284.681 2316.03 285.537 Q2317.17 286.37 2320.6 287.134 L2322.05 287.458 Q2326.59 288.431 2328.49 290.213 Q2330.41 291.972 2330.41 295.144 Q2330.41 298.755 2327.54 300.861 Q2324.69 302.968 2319.69 302.968 Q2317.61 302.968 2315.34 302.551 Q2313.1 302.157 2310.6 301.347 L2310.6 296.949 Q2312.96 298.176 2315.25 298.801 Q2317.54 299.403 2319.78 299.403 Q2322.79 299.403 2324.41 298.384 Q2326.03 297.343 2326.03 295.468 Q2326.03 293.732 2324.85 292.806 Q2323.7 291.88 2319.74 291.023 L2318.26 290.676 Q2314.3 289.843 2312.54 288.13 Q2310.78 286.394 2310.78 283.384 Q2310.78 279.727 2313.37 277.736 Q2315.97 275.746 2320.73 275.746 Q2323.1 275.746 2325.18 276.093 Q2327.26 276.44 2329.02 277.134 Z" fill="#000000" fill-rule="nonzero" fill-opacity="1" /><path clip-path="url(#clip440)" d="M2359.37 288.269 L2359.37 290.352 L2339.78 290.352 Q2340.06 294.75 2342.42 297.065 Q2344.81 299.356 2349.04 299.356 Q2351.5 299.356 2353.79 298.755 Q2356.1 298.153 2358.37 296.949 L2358.37 300.977 Q2356.08 301.949 2353.67 302.458 Q2351.27 302.968 2348.79 302.968 Q2342.59 302.968 2338.95 299.356 Q2335.34 295.745 2335.34 289.588 Q2335.34 283.222 2338.77 279.495 Q2342.22 275.746 2348.05 275.746 Q2353.28 275.746 2356.31 279.125 Q2359.37 282.482 2359.37 288.269 M2355.11 287.019 Q2355.06 283.523 2353.14 281.44 Q2351.24 279.357 2348.09 279.357 Q2344.53 279.357 2342.38 281.37 Q2340.25 283.384 2339.92 287.042 L2355.11 287.019 Z" fill="#000000" fill-rule="nonzero" fill-opacity="1" /><path clip-path="url(#clip440)" d="M2383.42 280.306 L2383.42 266.278 L2387.68 266.278 L2387.68 302.296 L2383.42 302.296 L2383.42 298.407 Q2382.08 300.722 2380.02 301.856 Q2377.98 302.968 2375.11 302.968 Q2370.41 302.968 2367.45 299.218 Q2364.51 295.468 2364.51 289.357 Q2364.51 283.245 2367.45 279.495 Q2370.41 275.746 2375.11 275.746 Q2377.98 275.746 2380.02 276.88 Q2382.08 277.991 2383.42 280.306 M2368.91 289.357 Q2368.91 294.056 2370.83 296.741 Q2372.77 299.403 2376.15 299.403 Q2379.53 299.403 2381.47 296.741 Q2383.42 294.056 2383.42 289.357 Q2383.42 284.657 2381.47 281.995 Q2379.53 279.31 2376.15 279.31 Q2372.77 279.31 2370.83 281.995 Q2368.91 284.657 2368.91 289.357 Z" fill="#000000" fill-rule="nonzero" fill-opacity="1" /></svg>
