<?xml version="1.0" encoding="utf-8"?>
<svg xmlns="http://www.w3.org/2000/svg" xmlns:xlink="http://www.w3.org/1999/xlink" width="672" height="480" viewBox="0 0 2688 1920">
<defs>
  <clipPath id="clip590">
    <rect x="0" y="0" width="2688" height="1920"/>
  </clipPath>
</defs>
<path clip-path="url(#clip590)" d="M0 1920 L2688 1920 L2688 -4.26326e-14 L0 -4.26326e-14  Z" fill="#ffffff" fill-rule="evenodd" fill-opacity="1"/>
<defs>
  <clipPath id="clip591">
    <rect x="226" y="127" width="2416" height="1607"/>
  </clipPath>
</defs>
<path clip-path="url(#clip590)" d="M226.141 1734.12 L2640.76 1734.12 L2640.76 127.792 L226.141 127.792  Z" fill="#ffffff" fill-rule="evenodd" fill-opacity="1"/>
<polyline clip-path="url(#clip591)" style="stroke:#000000; stroke-linecap:round; stroke-linejoin:round; stroke-width:2; stroke-opacity:0.1; fill:none" points="294.479,1734.12 294.479,127.792 "/>
<polyline clip-path="url(#clip591)" style="stroke:#000000; stroke-linecap:round; stroke-linejoin:round; stroke-width:2; stroke-opacity:0.1; fill:none" points="863.963,1734.12 863.963,127.792 "/>
<polyline clip-path="url(#clip591)" style="stroke:#000000; stroke-linecap:round; stroke-linejoin:round; stroke-width:2; stroke-opacity:0.1; fill:none" points="1433.45,1734.12 1433.45,127.792 "/>
<polyline clip-path="url(#clip591)" style="stroke:#000000; stroke-linecap:round; stroke-linejoin:round; stroke-width:2; stroke-opacity:0.1; fill:none" points="2002.93,1734.12 2002.93,127.792 "/>
<polyline clip-path="url(#clip591)" style="stroke:#000000; stroke-linecap:round; stroke-linejoin:round; stroke-width:2; stroke-opacity:0.1; fill:none" points="2572.42,1734.12 2572.42,127.792 "/>
<polyline clip-path="url(#clip591)" style="stroke:#000000; stroke-linecap:round; stroke-linejoin:round; stroke-width:2; stroke-opacity:0.1; fill:none" points="226.141,1688.89 2640.76,1688.89 "/>
<polyline clip-path="url(#clip591)" style="stroke:#000000; stroke-linecap:round; stroke-linejoin:round; stroke-width:2; stroke-opacity:0.1; fill:none" points="226.141,1452.22 2640.76,1452.22 "/>
<polyline clip-path="url(#clip591)" style="stroke:#000000; stroke-linecap:round; stroke-linejoin:round; stroke-width:2; stroke-opacity:0.1; fill:none" points="226.141,1215.55 2640.76,1215.55 "/>
<polyline clip-path="url(#clip591)" style="stroke:#000000; stroke-linecap:round; stroke-linejoin:round; stroke-width:2; stroke-opacity:0.1; fill:none" points="226.141,978.876 2640.76,978.876 "/>
<polyline clip-path="url(#clip591)" style="stroke:#000000; stroke-linecap:round; stroke-linejoin:round; stroke-width:2; stroke-opacity:0.1; fill:none" points="226.141,742.205 2640.76,742.205 "/>
<polyline clip-path="url(#clip591)" style="stroke:#000000; stroke-linecap:round; stroke-linejoin:round; stroke-width:2; stroke-opacity:0.1; fill:none" points="226.141,505.535 2640.76,505.535 "/>
<polyline clip-path="url(#clip591)" style="stroke:#000000; stroke-linecap:round; stroke-linejoin:round; stroke-width:2; stroke-opacity:0.1; fill:none" points="226.141,268.864 2640.76,268.864 "/>
<polyline clip-path="url(#clip590)" style="stroke:#000000; stroke-linecap:round; stroke-linejoin:round; stroke-width:4; stroke-opacity:1; fill:none" points="226.141,1734.12 2640.76,1734.12 "/>
<polyline clip-path="url(#clip590)" style="stroke:#000000; stroke-linecap:round; stroke-linejoin:round; stroke-width:4; stroke-opacity:1; fill:none" points="294.479,1734.12 294.479,1715.22 "/>
<polyline clip-path="url(#clip590)" style="stroke:#000000; stroke-linecap:round; stroke-linejoin:round; stroke-width:4; stroke-opacity:1; fill:none" points="863.963,1734.12 863.963,1715.22 "/>
<polyline clip-path="url(#clip590)" style="stroke:#000000; stroke-linecap:round; stroke-linejoin:round; stroke-width:4; stroke-opacity:1; fill:none" points="1433.45,1734.12 1433.45,1715.22 "/>
<polyline clip-path="url(#clip590)" style="stroke:#000000; stroke-linecap:round; stroke-linejoin:round; stroke-width:4; stroke-opacity:1; fill:none" points="2002.93,1734.12 2002.93,1715.22 "/>
<polyline clip-path="url(#clip590)" style="stroke:#000000; stroke-linecap:round; stroke-linejoin:round; stroke-width:4; stroke-opacity:1; fill:none" points="2572.42,1734.12 2572.42,1715.22 "/>
<path clip-path="url(#clip590)" d="M294.479 1767.34 Q290.868 1767.34 289.039 1770.9 Q287.233 1774.45 287.233 1781.58 Q287.233 1788.68 289.039 1792.25 Q290.868 1795.79 294.479 1795.79 Q298.113 1795.79 299.919 1792.25 Q301.747 1788.68 301.747 1781.58 Q301.747 1774.45 299.919 1770.9 Q298.113 1767.34 294.479 1767.34 M294.479 1763.64 Q300.289 1763.64 303.344 1768.24 Q306.423 1772.83 306.423 1781.58 Q306.423 1790.3 303.344 1794.91 Q300.289 1799.49 294.479 1799.49 Q288.669 1799.49 285.59 1794.91 Q282.534 1790.3 282.534 1781.58 Q282.534 1772.83 285.59 1768.24 Q288.669 1763.64 294.479 1763.64 Z" fill="#000000" fill-rule="nonzero" fill-opacity="1" /><path clip-path="url(#clip590)" d="M843.234 1794.89 L859.554 1794.89 L859.554 1798.82 L837.609 1798.82 L837.609 1794.89 Q840.271 1792.13 844.855 1787.5 Q849.461 1782.85 850.642 1781.51 Q852.887 1778.98 853.767 1777.25 Q854.67 1775.49 854.67 1773.8 Q854.67 1771.04 852.725 1769.31 Q850.804 1767.57 847.702 1767.57 Q845.503 1767.57 843.049 1768.34 Q840.619 1769.1 837.841 1770.65 L837.841 1765.93 Q840.665 1764.79 843.119 1764.21 Q845.572 1763.64 847.609 1763.64 Q852.98 1763.64 856.174 1766.32 Q859.369 1769.01 859.369 1773.5 Q859.369 1775.63 858.558 1777.55 Q857.771 1779.45 855.665 1782.04 Q855.086 1782.71 851.984 1785.93 Q848.883 1789.12 843.234 1794.89 Z" fill="#000000" fill-rule="nonzero" fill-opacity="1" /><path clip-path="url(#clip590)" d="M869.415 1764.26 L887.771 1764.26 L887.771 1768.2 L873.697 1768.2 L873.697 1776.67 Q874.716 1776.32 875.734 1776.16 Q876.753 1775.97 877.771 1775.97 Q883.558 1775.97 886.938 1779.15 Q890.318 1782.32 890.318 1787.73 Q890.318 1793.31 886.845 1796.41 Q883.373 1799.49 877.054 1799.49 Q874.878 1799.49 872.609 1799.12 Q870.364 1798.75 867.957 1798.01 L867.957 1793.31 Q870.04 1794.45 872.262 1795 Q874.484 1795.56 876.961 1795.56 Q880.966 1795.56 883.304 1793.45 Q885.642 1791.34 885.642 1787.73 Q885.642 1784.12 883.304 1782.02 Q880.966 1779.91 876.961 1779.91 Q875.086 1779.91 873.211 1780.33 Q871.359 1780.74 869.415 1781.62 L869.415 1764.26 Z" fill="#000000" fill-rule="nonzero" fill-opacity="1" /><path clip-path="url(#clip590)" d="M1408.15 1764.26 L1426.5 1764.26 L1426.5 1768.2 L1412.43 1768.2 L1412.43 1776.67 Q1413.45 1776.32 1414.47 1776.16 Q1415.49 1775.97 1416.5 1775.97 Q1422.29 1775.97 1425.67 1779.15 Q1429.05 1782.32 1429.05 1787.73 Q1429.05 1793.31 1425.58 1796.41 Q1422.11 1799.49 1415.79 1799.49 Q1413.61 1799.49 1411.34 1799.12 Q1409.1 1798.75 1406.69 1798.01 L1406.69 1793.31 Q1408.77 1794.45 1410.99 1795 Q1413.22 1795.56 1415.69 1795.56 Q1419.7 1795.56 1422.04 1793.45 Q1424.37 1791.34 1424.37 1787.73 Q1424.37 1784.12 1422.04 1782.02 Q1419.7 1779.91 1415.69 1779.91 Q1413.82 1779.91 1411.94 1780.33 Q1410.09 1780.74 1408.15 1781.62 L1408.15 1764.26 Z" fill="#000000" fill-rule="nonzero" fill-opacity="1" /><path clip-path="url(#clip590)" d="M1448.26 1767.34 Q1444.65 1767.34 1442.82 1770.9 Q1441.02 1774.45 1441.02 1781.58 Q1441.02 1788.68 1442.82 1792.25 Q1444.65 1795.79 1448.26 1795.79 Q1451.9 1795.79 1453.7 1792.25 Q1455.53 1788.68 1455.53 1781.58 Q1455.53 1774.45 1453.7 1770.9 Q1451.9 1767.34 1448.26 1767.34 M1448.26 1763.64 Q1454.07 1763.64 1457.13 1768.24 Q1460.21 1772.83 1460.21 1781.58 Q1460.21 1790.3 1457.13 1794.91 Q1454.07 1799.49 1448.26 1799.49 Q1442.45 1799.49 1439.37 1794.91 Q1436.32 1790.3 1436.32 1781.58 Q1436.32 1772.83 1439.37 1768.24 Q1442.45 1763.64 1448.26 1763.64 Z" fill="#000000" fill-rule="nonzero" fill-opacity="1" /><path clip-path="url(#clip590)" d="M1976.79 1764.26 L1999.01 1764.26 L1999.01 1766.25 L1986.46 1798.82 L1981.58 1798.82 L1993.38 1768.2 L1976.79 1768.2 L1976.79 1764.26 Z" fill="#000000" fill-rule="nonzero" fill-opacity="1" /><path clip-path="url(#clip590)" d="M2008.18 1764.26 L2026.53 1764.26 L2026.53 1768.2 L2012.46 1768.2 L2012.46 1776.67 Q2013.48 1776.32 2014.5 1776.16 Q2015.51 1775.97 2016.53 1775.97 Q2022.32 1775.97 2025.7 1779.15 Q2029.08 1782.32 2029.08 1787.73 Q2029.08 1793.31 2025.61 1796.41 Q2022.13 1799.49 2015.81 1799.49 Q2013.64 1799.49 2011.37 1799.12 Q2009.13 1798.75 2006.72 1798.01 L2006.72 1793.31 Q2008.8 1794.45 2011.02 1795 Q2013.25 1795.56 2015.72 1795.56 Q2019.73 1795.56 2022.06 1793.45 Q2024.4 1791.34 2024.4 1787.73 Q2024.4 1784.12 2022.06 1782.02 Q2019.73 1779.91 2015.72 1779.91 Q2013.85 1779.91 2011.97 1780.33 Q2010.12 1780.74 2008.18 1781.62 L2008.18 1764.26 Z" fill="#000000" fill-rule="nonzero" fill-opacity="1" /><path clip-path="url(#clip590)" d="M2532.02 1794.89 L2539.66 1794.89 L2539.66 1768.52 L2531.35 1770.19 L2531.35 1765.93 L2539.62 1764.26 L2544.29 1764.26 L2544.29 1794.89 L2551.93 1794.89 L2551.93 1798.82 L2532.02 1798.82 L2532.02 1794.89 Z" fill="#000000" fill-rule="nonzero" fill-opacity="1" /><path clip-path="url(#clip590)" d="M2571.38 1767.34 Q2567.76 1767.34 2565.94 1770.9 Q2564.13 1774.45 2564.13 1781.58 Q2564.13 1788.68 2565.94 1792.25 Q2567.76 1795.79 2571.38 1795.79 Q2575.01 1795.79 2576.82 1792.25 Q2578.64 1788.68 2578.64 1781.58 Q2578.64 1774.45 2576.82 1770.9 Q2575.01 1767.34 2571.38 1767.34 M2571.38 1763.64 Q2577.19 1763.64 2580.24 1768.24 Q2583.32 1772.83 2583.32 1781.58 Q2583.32 1790.3 2580.24 1794.91 Q2577.19 1799.49 2571.38 1799.49 Q2565.57 1799.49 2562.49 1794.91 Q2559.43 1790.3 2559.43 1781.58 Q2559.43 1772.83 2562.49 1768.24 Q2565.57 1763.64 2571.38 1763.64 Z" fill="#000000" fill-rule="nonzero" fill-opacity="1" /><path clip-path="url(#clip590)" d="M2601.54 1767.34 Q2597.93 1767.34 2596.1 1770.9 Q2594.29 1774.45 2594.29 1781.58 Q2594.29 1788.68 2596.1 1792.25 Q2597.93 1795.79 2601.54 1795.79 Q2605.17 1795.79 2606.98 1792.25 Q2608.81 1788.68 2608.81 1781.58 Q2608.81 1774.45 2606.98 1770.9 Q2605.17 1767.34 2601.54 1767.34 M2601.54 1763.64 Q2607.35 1763.64 2610.4 1768.24 Q2613.48 1772.83 2613.48 1781.58 Q2613.48 1790.3 2610.4 1794.91 Q2607.35 1799.49 2601.54 1799.49 Q2595.73 1799.49 2592.65 1794.91 Q2589.59 1790.3 2589.59 1781.58 Q2589.59 1772.83 2592.65 1768.24 Q2595.73 1763.64 2601.54 1763.64 Z" fill="#000000" fill-rule="nonzero" fill-opacity="1" /><path clip-path="url(#clip590)" d="M1355.33 1835.78 L1395.52 1835.78 L1395.52 1841.19 L1378.66 1841.19 L1378.66 1883.3 L1372.19 1883.3 L1372.19 1841.19 L1355.33 1841.19 L1355.33 1835.78 Z" fill="#000000" fill-rule="nonzero" fill-opacity="1" /><path clip-path="url(#clip590)" d="M1399.47 1847.65 L1405.33 1847.65 L1405.33 1883.3 L1399.47 1883.3 L1399.47 1847.65 M1399.47 1833.78 L1405.33 1833.78 L1405.33 1841.19 L1399.47 1841.19 L1399.47 1833.78 Z" fill="#000000" fill-rule="nonzero" fill-opacity="1" /><path clip-path="url(#clip590)" d="M1445.34 1854.5 Q1447.53 1850.55 1450.59 1848.67 Q1453.64 1846.79 1457.78 1846.79 Q1463.35 1846.79 1466.37 1850.71 Q1469.4 1854.59 1469.4 1861.78 L1469.4 1883.3 L1463.51 1883.3 L1463.51 1861.98 Q1463.51 1856.85 1461.7 1854.37 Q1459.88 1851.89 1456.16 1851.89 Q1451.61 1851.89 1448.96 1854.91 Q1446.32 1857.93 1446.32 1863.15 L1446.32 1883.3 L1440.43 1883.3 L1440.43 1861.98 Q1440.43 1856.82 1438.62 1854.37 Q1436.81 1851.89 1433.02 1851.89 Q1428.53 1851.89 1425.89 1854.94 Q1423.25 1857.97 1423.25 1863.15 L1423.25 1883.3 L1417.36 1883.3 L1417.36 1847.65 L1423.25 1847.65 L1423.25 1853.19 Q1425.25 1849.91 1428.05 1848.35 Q1430.85 1846.79 1434.71 1846.79 Q1438.59 1846.79 1441.29 1848.77 Q1444.03 1850.74 1445.34 1854.5 Z" fill="#000000" fill-rule="nonzero" fill-opacity="1" /><path clip-path="url(#clip590)" d="M1511.57 1864.01 L1511.57 1866.88 L1484.64 1866.88 Q1485.03 1872.92 1488.27 1876.11 Q1491.55 1879.26 1497.38 1879.26 Q1500.75 1879.26 1503.9 1878.43 Q1507.08 1877.6 1510.2 1875.95 L1510.2 1881.49 Q1507.05 1882.82 1503.74 1883.52 Q1500.43 1884.22 1497.03 1884.22 Q1488.5 1884.22 1483.5 1879.26 Q1478.53 1874.29 1478.53 1865.83 Q1478.53 1857.07 1483.24 1851.95 Q1487.99 1846.79 1496.01 1846.79 Q1503.2 1846.79 1507.37 1851.44 Q1511.57 1856.06 1511.57 1864.01 M1505.71 1862.29 Q1505.65 1857.49 1503.01 1854.62 Q1500.4 1851.76 1496.07 1851.76 Q1491.17 1851.76 1488.21 1854.53 Q1485.28 1857.3 1484.84 1862.33 L1505.71 1862.29 Z" fill="#000000" fill-rule="nonzero" fill-opacity="1" /><polyline clip-path="url(#clip590)" style="stroke:#000000; stroke-linecap:round; stroke-linejoin:round; stroke-width:4; stroke-opacity:1; fill:none" points="226.141,1734.12 226.141,127.792 "/>
<polyline clip-path="url(#clip590)" style="stroke:#000000; stroke-linecap:round; stroke-linejoin:round; stroke-width:4; stroke-opacity:1; fill:none" points="226.141,1688.89 245.038,1688.89 "/>
<polyline clip-path="url(#clip590)" style="stroke:#000000; stroke-linecap:round; stroke-linejoin:round; stroke-width:4; stroke-opacity:1; fill:none" points="226.141,1452.22 245.038,1452.22 "/>
<polyline clip-path="url(#clip590)" style="stroke:#000000; stroke-linecap:round; stroke-linejoin:round; stroke-width:4; stroke-opacity:1; fill:none" points="226.141,1215.55 245.038,1215.55 "/>
<polyline clip-path="url(#clip590)" style="stroke:#000000; stroke-linecap:round; stroke-linejoin:round; stroke-width:4; stroke-opacity:1; fill:none" points="226.141,978.876 245.038,978.876 "/>
<polyline clip-path="url(#clip590)" style="stroke:#000000; stroke-linecap:round; stroke-linejoin:round; stroke-width:4; stroke-opacity:1; fill:none" points="226.141,742.205 245.038,742.205 "/>
<polyline clip-path="url(#clip590)" style="stroke:#000000; stroke-linecap:round; stroke-linejoin:round; stroke-width:4; stroke-opacity:1; fill:none" points="226.141,505.535 245.038,505.535 "/>
<polyline clip-path="url(#clip590)" style="stroke:#000000; stroke-linecap:round; stroke-linejoin:round; stroke-width:4; stroke-opacity:1; fill:none" points="226.141,268.864 245.038,268.864 "/>
<path clip-path="url(#clip590)" d="M128.645 1674.69 Q125.034 1674.69 123.205 1678.25 Q121.4 1681.79 121.4 1688.92 Q121.4 1696.03 123.205 1699.59 Q125.034 1703.14 128.645 1703.14 Q132.279 1703.14 134.085 1699.59 Q135.913 1696.03 135.913 1688.92 Q135.913 1681.79 134.085 1678.25 Q132.279 1674.69 128.645 1674.69 M128.645 1670.98 Q134.455 1670.98 137.511 1675.59 Q140.589 1680.17 140.589 1688.92 Q140.589 1697.65 137.511 1702.26 Q134.455 1706.84 128.645 1706.84 Q122.835 1706.84 119.756 1702.26 Q116.701 1697.65 116.701 1688.92 Q116.701 1680.17 119.756 1675.59 Q122.835 1670.98 128.645 1670.98 Z" fill="#000000" fill-rule="nonzero" fill-opacity="1" /><path clip-path="url(#clip590)" d="M148.807 1700.29 L153.691 1700.29 L153.691 1706.17 L148.807 1706.17 L148.807 1700.29 Z" fill="#000000" fill-rule="nonzero" fill-opacity="1" /><path clip-path="url(#clip590)" d="M173.876 1674.69 Q170.265 1674.69 168.436 1678.25 Q166.631 1681.79 166.631 1688.92 Q166.631 1696.03 168.436 1699.59 Q170.265 1703.14 173.876 1703.14 Q177.51 1703.14 179.316 1699.59 Q181.145 1696.03 181.145 1688.92 Q181.145 1681.79 179.316 1678.25 Q177.51 1674.69 173.876 1674.69 M173.876 1670.98 Q179.686 1670.98 182.742 1675.59 Q185.821 1680.17 185.821 1688.92 Q185.821 1697.65 182.742 1702.26 Q179.686 1706.84 173.876 1706.84 Q168.066 1706.84 164.987 1702.26 Q161.932 1697.65 161.932 1688.92 Q161.932 1680.17 164.987 1675.59 Q168.066 1670.98 173.876 1670.98 Z" fill="#000000" fill-rule="nonzero" fill-opacity="1" /><path clip-path="url(#clip590)" d="M129.872 1438.02 Q126.261 1438.02 124.432 1441.58 Q122.626 1445.12 122.626 1452.25 Q122.626 1459.36 124.432 1462.92 Q126.261 1466.46 129.872 1466.46 Q133.506 1466.46 135.312 1462.92 Q137.14 1459.36 137.14 1452.25 Q137.14 1445.12 135.312 1441.58 Q133.506 1438.02 129.872 1438.02 M129.872 1434.31 Q135.682 1434.31 138.737 1438.92 Q141.816 1443.5 141.816 1452.25 Q141.816 1460.98 138.737 1465.58 Q135.682 1470.17 129.872 1470.17 Q124.062 1470.17 120.983 1465.58 Q117.927 1460.98 117.927 1452.25 Q117.927 1443.5 120.983 1438.92 Q124.062 1434.31 129.872 1434.31 Z" fill="#000000" fill-rule="nonzero" fill-opacity="1" /><path clip-path="url(#clip590)" d="M150.034 1463.62 L154.918 1463.62 L154.918 1469.5 L150.034 1469.5 L150.034 1463.62 Z" fill="#000000" fill-rule="nonzero" fill-opacity="1" /><path clip-path="url(#clip590)" d="M165.913 1465.56 L173.552 1465.56 L173.552 1439.2 L165.242 1440.86 L165.242 1436.6 L173.506 1434.94 L178.182 1434.94 L178.182 1465.56 L185.821 1465.56 L185.821 1469.5 L165.913 1469.5 L165.913 1465.56 Z" fill="#000000" fill-rule="nonzero" fill-opacity="1" /><path clip-path="url(#clip590)" d="M130.242 1201.35 Q126.631 1201.35 124.802 1204.91 Q122.997 1208.45 122.997 1215.58 Q122.997 1222.69 124.802 1226.25 Q126.631 1229.79 130.242 1229.79 Q133.876 1229.79 135.682 1226.25 Q137.511 1222.69 137.511 1215.58 Q137.511 1208.45 135.682 1204.91 Q133.876 1201.35 130.242 1201.35 M130.242 1197.64 Q136.052 1197.64 139.108 1202.25 Q142.187 1206.83 142.187 1215.58 Q142.187 1224.31 139.108 1228.91 Q136.052 1233.5 130.242 1233.5 Q124.432 1233.5 121.353 1228.91 Q118.298 1224.31 118.298 1215.58 Q118.298 1206.83 121.353 1202.25 Q124.432 1197.64 130.242 1197.64 Z" fill="#000000" fill-rule="nonzero" fill-opacity="1" /><path clip-path="url(#clip590)" d="M150.404 1226.95 L155.288 1226.95 L155.288 1232.83 L150.404 1232.83 L150.404 1226.95 Z" fill="#000000" fill-rule="nonzero" fill-opacity="1" /><path clip-path="url(#clip590)" d="M169.501 1228.89 L185.821 1228.89 L185.821 1232.83 L163.876 1232.83 L163.876 1228.89 Q166.538 1226.14 171.122 1221.51 Q175.728 1216.85 176.909 1215.51 Q179.154 1212.99 180.034 1211.25 Q180.936 1209.49 180.936 1207.8 Q180.936 1205.05 178.992 1203.31 Q177.071 1201.58 173.969 1201.58 Q171.77 1201.58 169.316 1202.34 Q166.885 1203.1 164.108 1204.66 L164.108 1199.93 Q166.932 1198.8 169.385 1198.22 Q171.839 1197.64 173.876 1197.64 Q179.247 1197.64 182.441 1200.33 Q185.635 1203.01 185.635 1207.5 Q185.635 1209.63 184.825 1211.55 Q184.038 1213.45 181.932 1216.04 Q181.353 1216.72 178.251 1219.93 Q175.149 1223.13 169.501 1228.89 Z" fill="#000000" fill-rule="nonzero" fill-opacity="1" /><path clip-path="url(#clip590)" d="M129.293 964.674 Q125.682 964.674 123.853 968.239 Q122.048 971.781 122.048 978.911 Q122.048 986.017 123.853 989.582 Q125.682 993.123 129.293 993.123 Q132.927 993.123 134.733 989.582 Q136.562 986.017 136.562 978.911 Q136.562 971.781 134.733 968.239 Q132.927 964.674 129.293 964.674 M129.293 960.971 Q135.103 960.971 138.159 965.577 Q141.237 970.161 141.237 978.911 Q141.237 987.637 138.159 992.244 Q135.103 996.827 129.293 996.827 Q123.483 996.827 120.404 992.244 Q117.349 987.637 117.349 978.911 Q117.349 970.161 120.404 965.577 Q123.483 960.971 129.293 960.971 Z" fill="#000000" fill-rule="nonzero" fill-opacity="1" /><path clip-path="url(#clip590)" d="M149.455 990.276 L154.339 990.276 L154.339 996.156 L149.455 996.156 L149.455 990.276 Z" fill="#000000" fill-rule="nonzero" fill-opacity="1" /><path clip-path="url(#clip590)" d="M178.691 977.522 Q182.047 978.239 183.922 980.508 Q185.821 982.776 185.821 986.11 Q185.821 991.225 182.302 994.026 Q178.784 996.827 172.302 996.827 Q170.126 996.827 167.811 996.387 Q165.52 995.971 163.066 995.114 L163.066 990.6 Q165.01 991.735 167.325 992.313 Q169.64 992.892 172.163 992.892 Q176.561 992.892 178.853 991.156 Q181.168 989.42 181.168 986.11 Q181.168 983.054 179.015 981.341 Q176.885 979.605 173.066 979.605 L169.038 979.605 L169.038 975.762 L173.251 975.762 Q176.7 975.762 178.529 974.397 Q180.358 973.008 180.358 970.415 Q180.358 967.753 178.459 966.341 Q176.584 964.906 173.066 964.906 Q171.145 964.906 168.946 965.323 Q166.747 965.739 164.108 966.619 L164.108 962.452 Q166.77 961.712 169.085 961.341 Q171.422 960.971 173.483 960.971 Q178.807 960.971 181.909 963.401 Q185.01 965.809 185.01 969.929 Q185.01 972.799 183.367 974.79 Q181.723 976.758 178.691 977.522 Z" fill="#000000" fill-rule="nonzero" fill-opacity="1" /><path clip-path="url(#clip590)" d="M128.159 728.004 Q124.548 728.004 122.719 731.569 Q120.913 735.11 120.913 742.24 Q120.913 749.346 122.719 752.911 Q124.548 756.453 128.159 756.453 Q131.793 756.453 133.599 752.911 Q135.427 749.346 135.427 742.24 Q135.427 735.11 133.599 731.569 Q131.793 728.004 128.159 728.004 M128.159 724.3 Q133.969 724.3 137.025 728.907 Q140.103 733.49 140.103 742.24 Q140.103 750.967 137.025 755.573 Q133.969 760.157 128.159 760.157 Q122.349 760.157 119.27 755.573 Q116.214 750.967 116.214 742.24 Q116.214 733.49 119.27 728.907 Q122.349 724.3 128.159 724.3 Z" fill="#000000" fill-rule="nonzero" fill-opacity="1" /><path clip-path="url(#clip590)" d="M148.321 753.606 L153.205 753.606 L153.205 759.485 L148.321 759.485 L148.321 753.606 Z" fill="#000000" fill-rule="nonzero" fill-opacity="1" /><path clip-path="url(#clip590)" d="M176.237 728.999 L164.432 747.448 L176.237 747.448 L176.237 728.999 M175.01 724.925 L180.89 724.925 L180.89 747.448 L185.821 747.448 L185.821 751.337 L180.89 751.337 L180.89 759.485 L176.237 759.485 L176.237 751.337 L160.636 751.337 L160.636 746.823 L175.01 724.925 Z" fill="#000000" fill-rule="nonzero" fill-opacity="1" /><path clip-path="url(#clip590)" d="M129.64 491.333 Q126.029 491.333 124.201 494.898 Q122.395 498.44 122.395 505.569 Q122.395 512.676 124.201 516.241 Q126.029 519.782 129.64 519.782 Q133.275 519.782 135.08 516.241 Q136.909 512.676 136.909 505.569 Q136.909 498.44 135.08 494.898 Q133.275 491.333 129.64 491.333 M129.64 487.63 Q135.45 487.63 138.506 492.236 Q141.585 496.819 141.585 505.569 Q141.585 514.296 138.506 518.903 Q135.45 523.486 129.64 523.486 Q123.83 523.486 120.751 518.903 Q117.696 514.296 117.696 505.569 Q117.696 496.819 120.751 492.236 Q123.83 487.63 129.64 487.63 Z" fill="#000000" fill-rule="nonzero" fill-opacity="1" /><path clip-path="url(#clip590)" d="M149.802 516.935 L154.686 516.935 L154.686 522.815 L149.802 522.815 L149.802 516.935 Z" fill="#000000" fill-rule="nonzero" fill-opacity="1" /><path clip-path="url(#clip590)" d="M164.918 488.255 L183.274 488.255 L183.274 492.19 L169.2 492.19 L169.2 500.662 Q170.219 500.315 171.237 500.153 Q172.256 499.968 173.274 499.968 Q179.061 499.968 182.441 503.139 Q185.821 506.31 185.821 511.727 Q185.821 517.305 182.348 520.407 Q178.876 523.486 172.557 523.486 Q170.381 523.486 168.112 523.116 Q165.867 522.745 163.46 522.004 L163.46 517.305 Q165.543 518.44 167.765 518.995 Q169.987 519.551 172.464 519.551 Q176.469 519.551 178.807 517.444 Q181.145 515.338 181.145 511.727 Q181.145 508.116 178.807 506.009 Q176.469 503.903 172.464 503.903 Q170.589 503.903 168.714 504.319 Q166.862 504.736 164.918 505.616 L164.918 488.255 Z" fill="#000000" fill-rule="nonzero" fill-opacity="1" /><path clip-path="url(#clip590)" d="M128.483 254.663 Q124.872 254.663 123.043 258.228 Q121.238 261.769 121.238 268.899 Q121.238 276.005 123.043 279.57 Q124.872 283.112 128.483 283.112 Q132.117 283.112 133.923 279.57 Q135.751 276.005 135.751 268.899 Q135.751 261.769 133.923 258.228 Q132.117 254.663 128.483 254.663 M128.483 250.959 Q134.293 250.959 137.349 255.566 Q140.427 260.149 140.427 268.899 Q140.427 277.626 137.349 282.232 Q134.293 286.815 128.483 286.815 Q122.673 286.815 119.594 282.232 Q116.539 277.626 116.539 268.899 Q116.539 260.149 119.594 255.566 Q122.673 250.959 128.483 250.959 Z" fill="#000000" fill-rule="nonzero" fill-opacity="1" /><path clip-path="url(#clip590)" d="M148.645 280.265 L153.529 280.265 L153.529 286.144 L148.645 286.144 L148.645 280.265 Z" fill="#000000" fill-rule="nonzero" fill-opacity="1" /><path clip-path="url(#clip590)" d="M174.293 267.001 Q171.145 267.001 169.293 269.153 Q167.464 271.306 167.464 275.056 Q167.464 278.783 169.293 280.959 Q171.145 283.112 174.293 283.112 Q177.441 283.112 179.27 280.959 Q181.122 278.783 181.122 275.056 Q181.122 271.306 179.27 269.153 Q177.441 267.001 174.293 267.001 M183.575 252.348 L183.575 256.607 Q181.816 255.774 180.01 255.334 Q178.228 254.894 176.469 254.894 Q171.839 254.894 169.385 258.019 Q166.955 261.144 166.608 267.464 Q167.973 265.45 170.034 264.385 Q172.094 263.297 174.571 263.297 Q179.779 263.297 182.788 266.468 Q185.821 269.616 185.821 275.056 Q185.821 280.38 182.672 283.598 Q179.524 286.815 174.293 286.815 Q168.297 286.815 165.126 282.232 Q161.955 277.626 161.955 268.899 Q161.955 260.704 165.844 255.843 Q169.733 250.959 176.284 250.959 Q178.043 250.959 179.825 251.306 Q181.631 251.654 183.575 252.348 Z" fill="#000000" fill-rule="nonzero" fill-opacity="1" /><path clip-path="url(#clip590)" d="M14.1184 1274.96 L14.1184 1268.53 L61.6384 1268.53 L61.6384 1274.96 L14.1184 1274.96 Z" fill="#000000" fill-rule="nonzero" fill-opacity="1" /><path clip-path="url(#clip590)" d="M40.1224 1226.36 L61.6384 1226.36 L61.6384 1232.21 L40.3133 1232.21 Q35.2526 1232.21 32.7381 1234.18 Q30.2237 1236.16 30.2237 1240.11 Q30.2237 1244.85 33.2474 1247.58 Q36.2711 1250.32 41.491 1250.32 L61.6384 1250.32 L61.6384 1256.21 L25.9905 1256.21 L25.9905 1250.32 L31.5287 1250.32 Q28.314 1248.22 26.7225 1245.39 Q25.1311 1242.52 25.1311 1238.8 Q25.1311 1232.66 28.9505 1229.51 Q32.7381 1226.36 40.1224 1226.36 Z" fill="#000000" fill-rule="nonzero" fill-opacity="1" /><path clip-path="url(#clip590)" d="M12.1132 1196.63 L16.983 1196.63 L16.983 1202.23 Q16.983 1205.38 18.2562 1206.62 Q19.5293 1207.83 22.8395 1207.83 L25.9905 1207.83 L25.9905 1198.19 L30.542 1198.19 L30.542 1207.83 L61.6384 1207.83 L61.6384 1213.72 L30.542 1213.72 L30.542 1219.32 L25.9905 1219.32 L25.9905 1213.72 L23.5079 1213.72 Q17.5559 1213.72 14.8505 1210.95 Q12.1132 1208.18 12.1132 1202.17 L12.1132 1196.63 Z" fill="#000000" fill-rule="nonzero" fill-opacity="1" /><path clip-path="url(#clip590)" d="M42.3504 1161.23 L45.2149 1161.23 L45.2149 1188.16 Q51.2623 1187.78 54.4452 1184.53 Q57.5962 1181.25 57.5962 1175.43 Q57.5962 1172.06 56.7687 1168.9 Q55.9411 1165.72 54.2861 1162.6 L59.8242 1162.6 Q61.161 1165.75 61.8612 1169.06 Q62.5615 1172.37 62.5615 1175.78 Q62.5615 1184.31 57.5962 1189.31 Q52.631 1194.27 44.1646 1194.27 Q35.4117 1194.27 30.2873 1189.56 Q25.1311 1184.82 25.1311 1176.8 Q25.1311 1169.6 29.7781 1165.44 Q34.3932 1161.23 42.3504 1161.23 M40.6316 1167.09 Q35.8255 1167.15 32.9609 1169.8 Q30.0964 1172.41 30.0964 1176.73 Q30.0964 1181.64 32.8654 1184.6 Q35.6345 1187.52 40.6634 1187.97 L40.6316 1167.09 Z" fill="#000000" fill-rule="nonzero" fill-opacity="1" /><path clip-path="url(#clip590)" d="M27.3591 1125.97 L32.8336 1125.97 Q31.465 1128.45 30.7966 1130.97 Q30.0964 1133.45 30.0964 1135.99 Q30.0964 1141.69 33.7248 1144.84 Q37.3214 1147.99 43.8463 1147.99 Q50.3711 1147.99 53.9996 1144.84 Q57.5962 1141.69 57.5962 1135.99 Q57.5962 1133.45 56.9278 1130.97 Q56.2276 1128.45 54.859 1125.97 L60.2698 1125.97 Q61.4156 1128.42 61.9886 1131.06 Q62.5615 1133.67 62.5615 1136.63 Q62.5615 1144.68 57.5007 1149.43 Q52.44 1154.17 43.8463 1154.17 Q35.1253 1154.17 30.1282 1149.39 Q25.1311 1144.59 25.1311 1136.25 Q25.1311 1133.54 25.704 1130.97 Q26.2451 1128.39 27.3591 1125.97 Z" fill="#000000" fill-rule="nonzero" fill-opacity="1" /><path clip-path="url(#clip590)" d="M15.869 1109.99 L25.9905 1109.99 L25.9905 1097.93 L30.542 1097.93 L30.542 1109.99 L49.8937 1109.99 Q54.2542 1109.99 55.4955 1108.81 Q56.7368 1107.6 56.7368 1103.94 L56.7368 1097.93 L61.6384 1097.93 L61.6384 1103.94 Q61.6384 1110.72 59.124 1113.3 Q56.5777 1115.88 49.8937 1115.88 L30.542 1115.88 L30.542 1120.18 L25.9905 1120.18 L25.9905 1115.88 L15.869 1115.88 L15.869 1109.99 Z" fill="#000000" fill-rule="nonzero" fill-opacity="1" /><path clip-path="url(#clip590)" d="M42.3504 1059.73 L45.2149 1059.73 L45.2149 1086.66 Q51.2623 1086.28 54.4452 1083.03 Q57.5962 1079.75 57.5962 1073.93 Q57.5962 1070.55 56.7687 1067.4 Q55.9411 1064.22 54.2861 1061.1 L59.8242 1061.1 Q61.161 1064.25 61.8612 1067.56 Q62.5615 1070.87 62.5615 1074.28 Q62.5615 1082.81 57.5962 1087.81 Q52.631 1092.77 44.1646 1092.77 Q35.4117 1092.77 30.2873 1088.06 Q25.1311 1083.32 25.1311 1075.3 Q25.1311 1068.1 29.7781 1063.93 Q34.3932 1059.73 42.3504 1059.73 M40.6316 1065.59 Q35.8255 1065.65 32.9609 1068.29 Q30.0964 1070.9 30.0964 1075.23 Q30.0964 1080.13 32.8654 1083.09 Q35.6345 1086.02 40.6634 1086.47 L40.6316 1065.59 Z" fill="#000000" fill-rule="nonzero" fill-opacity="1" /><path clip-path="url(#clip590)" d="M31.4013 1026.66 L12.1132 1026.66 L12.1132 1020.81 L61.6384 1020.81 L61.6384 1026.66 L56.2912 1026.66 Q59.4741 1028.51 61.0337 1031.34 Q62.5615 1034.14 62.5615 1038.09 Q62.5615 1044.55 57.4052 1048.62 Q52.249 1052.67 43.8463 1052.67 Q35.4436 1052.67 30.2873 1048.62 Q25.1311 1044.55 25.1311 1038.09 Q25.1311 1034.14 26.6907 1031.34 Q28.2185 1028.51 31.4013 1026.66 M43.8463 1046.62 Q50.3075 1046.62 53.9996 1043.98 Q57.6599 1041.3 57.6599 1036.66 Q57.6599 1032.01 53.9996 1029.34 Q50.3075 1026.66 43.8463 1026.66 Q37.3851 1026.66 33.7248 1029.34 Q30.0327 1032.01 30.0327 1036.66 Q30.0327 1041.3 33.7248 1043.98 Q37.3851 1046.62 43.8463 1046.62 Z" fill="#000000" fill-rule="nonzero" fill-opacity="1" /><path clip-path="url(#clip590)" d="M12.1769 973.955 Q19.4975 978.22 26.6589 980.289 Q33.8203 982.358 41.1727 982.358 Q48.5251 982.358 55.7502 980.289 Q62.9434 978.188 70.2321 973.955 L70.2321 979.047 Q62.7524 983.822 55.5274 986.209 Q48.3023 988.564 41.1727 988.564 Q34.0749 988.564 26.8817 986.209 Q19.6884 983.854 12.1769 979.047 L12.1769 973.955 Z" fill="#000000" fill-rule="nonzero" fill-opacity="1" /><path clip-path="url(#clip590)" d="M40.1224 932.96 L61.6384 932.96 L61.6384 938.816 L40.3133 938.816 Q35.2526 938.816 32.7381 940.79 Q30.2237 942.763 30.2237 946.71 Q30.2237 951.452 33.2474 954.189 Q36.2711 956.927 41.491 956.927 L61.6384 956.927 L61.6384 962.815 L25.9905 962.815 L25.9905 956.927 L31.5287 956.927 Q28.314 954.826 26.7225 951.993 Q25.1311 949.129 25.1311 945.405 Q25.1311 939.262 28.9505 936.111 Q32.7381 932.96 40.1224 932.96 Z" fill="#000000" fill-rule="nonzero" fill-opacity="1" /><path clip-path="url(#clip590)" d="M30.0964 907.465 Q30.0964 912.176 33.7885 914.913 Q37.4488 917.65 43.8463 917.65 Q50.2438 917.65 53.9359 914.945 Q57.5962 912.208 57.5962 907.465 Q57.5962 902.786 53.9041 900.049 Q50.212 897.312 43.8463 897.312 Q37.5124 897.312 33.8203 900.049 Q30.0964 902.786 30.0964 907.465 M25.1311 907.465 Q25.1311 899.826 30.0964 895.466 Q35.0616 891.105 43.8463 891.105 Q52.5991 891.105 57.5962 895.466 Q62.5615 899.826 62.5615 907.465 Q62.5615 915.136 57.5962 919.496 Q52.5991 923.825 43.8463 923.825 Q35.0616 923.825 30.0964 919.496 Q25.1311 915.136 25.1311 907.465 Z" fill="#000000" fill-rule="nonzero" fill-opacity="1" /><path clip-path="url(#clip590)" d="M31.465 860.741 Q30.8921 861.727 30.6375 862.905 Q30.351 864.051 30.351 865.451 Q30.351 870.417 33.5975 873.09 Q36.8122 875.732 42.8596 875.732 L61.6384 875.732 L61.6384 881.62 L25.9905 881.62 L25.9905 875.732 L31.5287 875.732 Q28.2821 873.886 26.7225 870.926 Q25.1311 867.966 25.1311 863.733 Q25.1311 863.128 25.2266 862.396 Q25.2903 861.664 25.4494 860.773 L31.465 860.741 Z" fill="#000000" fill-rule="nonzero" fill-opacity="1" /><path clip-path="url(#clip590)" d="M32.8336 827.989 Q28.8869 825.793 27.009 822.738 Q25.1311 819.682 25.1311 815.544 Q25.1311 809.974 29.046 806.951 Q32.9291 803.927 40.1224 803.927 L61.6384 803.927 L61.6384 809.815 L40.3133 809.815 Q35.1889 809.815 32.7063 811.629 Q30.2237 813.444 30.2237 817.168 Q30.2237 821.719 33.2474 824.361 Q36.2711 827.003 41.491 827.003 L61.6384 827.003 L61.6384 832.891 L40.3133 832.891 Q35.1571 832.891 32.7063 834.705 Q30.2237 836.519 30.2237 840.307 Q30.2237 844.795 33.2792 847.436 Q36.3029 850.078 41.491 850.078 L61.6384 850.078 L61.6384 855.967 L25.9905 855.967 L25.9905 850.078 L31.5287 850.078 Q28.2503 848.073 26.6907 845.272 Q25.1311 842.471 25.1311 838.62 Q25.1311 834.737 27.1045 832.031 Q29.0779 829.294 32.8336 827.989 Z" fill="#000000" fill-rule="nonzero" fill-opacity="1" /><path clip-path="url(#clip590)" d="M43.719 776.045 Q43.719 783.143 45.3422 785.88 Q46.9655 788.617 50.8804 788.617 Q53.9996 788.617 55.8457 786.58 Q57.6599 784.511 57.6599 780.979 Q57.6599 776.109 54.2224 773.181 Q50.7531 770.22 45.0239 770.22 L43.719 770.22 L43.719 776.045 M41.3 764.364 L61.6384 764.364 L61.6384 770.22 L56.2276 770.22 Q59.4741 772.226 61.0337 775.218 Q62.5615 778.209 62.5615 782.538 Q62.5615 788.013 59.5059 791.259 Q56.4186 794.474 51.2623 794.474 Q45.2467 794.474 42.1912 790.463 Q39.1357 786.421 39.1357 778.432 L39.1357 770.22 L38.5628 770.22 Q34.5205 770.22 32.3244 772.894 Q30.0964 775.536 30.0964 780.342 Q30.0964 783.397 30.8284 786.294 Q31.5605 789.19 33.0246 791.864 L27.6137 791.864 Q26.3724 788.649 25.7677 785.625 Q25.1311 782.602 25.1311 779.737 Q25.1311 772.003 29.1415 768.183 Q33.1519 764.364 41.3 764.364 Z" fill="#000000" fill-rule="nonzero" fill-opacity="1" /><path clip-path="url(#clip590)" d="M12.1132 752.301 L12.1132 746.445 L61.6384 746.445 L61.6384 752.301 L12.1132 752.301 Z" fill="#000000" fill-rule="nonzero" fill-opacity="1" /><path clip-path="url(#clip590)" d="M25.9905 734.191 L25.9905 728.334 L61.6384 728.334 L61.6384 734.191 L25.9905 734.191 M12.1132 734.191 L12.1132 728.334 L19.5293 728.334 L19.5293 734.191 L12.1132 734.191 Z" fill="#000000" fill-rule="nonzero" fill-opacity="1" /><path clip-path="url(#clip590)" d="M27.0408 693.355 L32.579 693.355 Q31.3059 695.837 30.6693 698.511 Q30.0327 701.184 30.0327 704.049 Q30.0327 708.409 31.3695 710.606 Q32.7063 712.77 35.3799 712.77 Q37.4169 712.77 38.5946 711.21 Q39.7404 709.651 40.7908 704.94 L41.2364 702.935 Q42.5732 696.697 45.0239 694.087 Q47.4429 691.445 51.8034 691.445 Q56.7687 691.445 59.6651 695.392 Q62.5615 699.306 62.5615 706.181 Q62.5615 709.046 61.9886 712.165 Q61.4475 715.253 60.3335 718.69 L54.2861 718.69 Q55.973 715.444 56.8323 712.293 Q57.6599 709.142 57.6599 706.054 Q57.6599 701.916 56.2594 699.688 Q54.8271 697.46 52.249 697.46 Q49.8619 697.46 48.5887 699.084 Q47.3156 700.675 46.1379 706.118 L45.6605 708.155 Q44.5147 713.598 42.1594 716.016 Q39.7722 718.435 35.6345 718.435 Q30.6056 718.435 27.8684 714.871 Q25.1311 711.306 25.1311 704.749 Q25.1311 701.503 25.6085 698.638 Q26.086 695.774 27.0408 693.355 Z" fill="#000000" fill-rule="nonzero" fill-opacity="1" /><path clip-path="url(#clip590)" d="M42.3504 651.627 L45.2149 651.627 L45.2149 678.554 Q51.2623 678.172 54.4452 674.926 Q57.5962 671.647 57.5962 665.823 Q57.5962 662.449 56.7687 659.298 Q55.9411 656.115 54.2861 652.996 L59.8242 652.996 Q61.161 656.147 61.8612 659.457 Q62.5615 662.767 62.5615 666.173 Q62.5615 674.703 57.5962 679.7 Q52.631 684.665 44.1646 684.665 Q35.4117 684.665 30.2873 679.955 Q25.1311 675.212 25.1311 667.192 Q25.1311 659.998 29.7781 655.829 Q34.3932 651.627 42.3504 651.627 M40.6316 657.484 Q35.8255 657.547 32.9609 660.189 Q30.0964 662.799 30.0964 667.128 Q30.0964 672.029 32.8654 674.989 Q35.6345 677.918 40.6634 678.363 L40.6316 657.484 Z" fill="#000000" fill-rule="nonzero" fill-opacity="1" /><path clip-path="url(#clip590)" d="M31.4013 618.558 L12.1132 618.558 L12.1132 612.701 L61.6384 612.701 L61.6384 618.558 L56.2912 618.558 Q59.4741 620.404 61.0337 623.236 Q62.5615 626.037 62.5615 629.984 Q62.5615 636.445 57.4052 640.519 Q52.249 644.561 43.8463 644.561 Q35.4436 644.561 30.2873 640.519 Q25.1311 636.445 25.1311 629.984 Q25.1311 626.037 26.6907 623.236 Q28.2185 620.404 31.4013 618.558 M43.8463 638.514 Q50.3075 638.514 53.9996 635.872 Q57.6599 633.199 57.6599 628.552 Q57.6599 623.905 53.9996 621.231 Q50.3075 618.558 43.8463 618.558 Q37.3851 618.558 33.7248 621.231 Q30.0327 623.905 30.0327 628.552 Q30.0327 633.199 33.7248 635.872 Q37.3851 638.514 43.8463 638.514 Z" fill="#000000" fill-rule="nonzero" fill-opacity="1" /><path clip-path="url(#clip590)" d="M12.1769 601.561 L12.1769 596.469 Q19.6884 591.694 26.8817 589.339 Q34.0749 586.952 41.1727 586.952 Q48.3023 586.952 55.5274 589.339 Q62.7524 591.694 70.2321 596.469 L70.2321 601.561 Q62.9434 597.328 55.7502 595.259 Q48.5251 593.158 41.1727 593.158 Q33.8203 593.158 26.6589 595.259 Q19.4975 597.328 12.1769 601.561 Z" fill="#000000" fill-rule="nonzero" fill-opacity="1" /><path clip-path="url(#clip590)" d="M339.177 63.9476 L339.177 47.7034 L325.809 47.7034 L325.809 40.9789 L347.279 40.9789 L347.279 66.9452 Q342.54 70.3075 336.828 72.0494 Q331.116 73.7508 324.635 73.7508 Q310.457 73.7508 302.436 65.4869 Q294.455 57.1826 294.455 42.3968 Q294.455 27.5705 302.436 19.3066 Q310.457 11.0023 324.635 11.0023 Q330.549 11.0023 335.856 12.4606 Q341.203 13.9189 345.699 16.7545 L345.699 25.464 Q341.162 21.6156 336.058 19.6712 Q330.954 17.7268 325.323 17.7268 Q314.224 17.7268 308.634 23.9246 Q303.084 30.1225 303.084 42.3968 Q303.084 54.6305 308.634 60.8284 Q314.224 67.0263 325.323 67.0263 Q329.658 67.0263 333.061 66.2971 Q336.463 65.5274 339.177 63.9476 Z" fill="#000000" fill-rule="nonzero" fill-opacity="1" /><path clip-path="url(#clip590)" d="M388.193 34.1734 Q386.938 33.4443 385.439 33.1202 Q383.98 32.7556 382.198 32.7556 Q375.879 32.7556 372.476 36.8875 Q369.114 40.9789 369.114 48.6757 L369.114 72.576 L361.619 72.576 L361.619 27.2059 L369.114 27.2059 L369.114 34.2544 Q371.463 30.1225 375.231 28.1376 Q378.998 26.1121 384.386 26.1121 Q385.155 26.1121 386.087 26.2337 Q387.019 26.3147 388.153 26.5172 L388.193 34.1734 Z" fill="#000000" fill-rule="nonzero" fill-opacity="1" /><path clip-path="url(#clip590)" d="M416.631 49.7694 Q407.597 49.7694 404.113 51.8354 Q400.63 53.9013 400.63 58.8839 Q400.63 62.8538 403.222 65.2034 Q405.855 67.5124 410.352 67.5124 Q416.55 67.5124 420.277 63.1374 Q424.044 58.7219 424.044 51.4303 L424.044 49.7694 L416.631 49.7694 M431.498 46.6907 L431.498 72.576 L424.044 72.576 L424.044 65.6895 Q421.492 69.8214 417.684 71.8063 Q413.876 73.7508 408.367 73.7508 Q401.399 73.7508 397.267 69.8619 Q393.176 65.9325 393.176 59.3701 Q393.176 51.7138 398.28 47.825 Q403.425 43.9361 413.593 43.9361 L424.044 43.9361 L424.044 43.2069 Q424.044 38.0623 420.641 35.2672 Q417.279 32.4315 411.162 32.4315 Q407.273 32.4315 403.587 33.3632 Q399.901 34.295 396.498 36.1584 L396.498 29.2718 Q400.589 27.692 404.438 26.9223 Q408.286 26.1121 411.932 26.1121 Q421.775 26.1121 426.636 31.2163 Q431.498 36.3204 431.498 46.6907 Z" fill="#000000" fill-rule="nonzero" fill-opacity="1" /><path clip-path="url(#clip590)" d="M454.061 65.7705 L454.061 89.8329 L446.567 89.8329 L446.567 27.2059 L454.061 27.2059 L454.061 34.0924 Q456.411 30.0415 459.975 28.0971 Q463.581 26.1121 468.563 26.1121 Q476.827 26.1121 481.972 32.6746 Q487.157 39.2371 487.157 49.9314 Q487.157 60.6258 481.972 67.1883 Q476.827 73.7508 468.563 73.7508 Q463.581 73.7508 459.975 71.8063 Q456.411 69.8214 454.061 65.7705 M479.42 49.9314 Q479.42 41.7081 476.017 37.0496 Q472.655 32.3505 466.74 32.3505 Q460.826 32.3505 457.423 37.0496 Q454.061 41.7081 454.061 49.9314 Q454.061 58.1548 457.423 62.8538 Q460.826 67.5124 466.74 67.5124 Q472.655 67.5124 476.017 62.8538 Q479.42 58.1548 479.42 49.9314 Z" fill="#000000" fill-rule="nonzero" fill-opacity="1" /><path clip-path="url(#clip590)" d="M537.226 45.1919 L537.226 72.576 L529.773 72.576 L529.773 45.4349 Q529.773 38.994 527.261 35.7938 Q524.749 32.5936 519.726 32.5936 Q513.69 32.5936 510.207 36.4419 Q506.723 40.2903 506.723 46.9338 L506.723 72.576 L499.229 72.576 L499.229 9.54393 L506.723 9.54393 L506.723 34.2544 Q509.396 30.163 513.002 28.1376 Q516.648 26.1121 521.387 26.1121 Q529.205 26.1121 533.216 30.9732 Q537.226 35.7938 537.226 45.1919 Z" fill="#000000" fill-rule="nonzero" fill-opacity="1" /><path clip-path="url(#clip590)" d="M548.326 46.5287 L570.16 46.5287 L570.16 53.1722 L548.326 53.1722 L548.326 46.5287 Z" fill="#000000" fill-rule="nonzero" fill-opacity="1" /><path clip-path="url(#clip590)" d="M582.029 27.2059 L589.483 27.2059 L589.483 72.576 L582.029 72.576 L582.029 27.2059 M582.029 9.54393 L589.483 9.54393 L589.483 18.9825 L582.029 18.9825 L582.029 9.54393 Z" fill="#000000" fill-rule="nonzero" fill-opacity="1" /><path clip-path="url(#clip590)" d="M642.793 45.1919 L642.793 72.576 L635.339 72.576 L635.339 45.4349 Q635.339 38.994 632.828 35.7938 Q630.316 32.5936 625.293 32.5936 Q619.257 32.5936 615.773 36.4419 Q612.289 40.2903 612.289 46.9338 L612.289 72.576 L604.795 72.576 L604.795 27.2059 L612.289 27.2059 L612.289 34.2544 Q614.963 30.163 618.568 28.1376 Q622.214 26.1121 626.954 26.1121 Q634.772 26.1121 638.782 30.9732 Q642.793 35.7938 642.793 45.1919 Z" fill="#000000" fill-rule="nonzero" fill-opacity="1" /><path clip-path="url(#clip590)" d="M686.583 28.5427 L686.583 35.5912 Q683.423 33.9709 680.021 33.1607 Q676.618 32.3505 672.972 32.3505 Q667.422 32.3505 664.627 34.0519 Q661.873 35.7533 661.873 39.156 Q661.873 41.7486 663.857 43.2475 Q665.842 44.7058 671.838 46.0426 L674.39 46.6097 Q682.33 48.3111 685.651 51.4303 Q689.014 54.509 689.014 60.0587 Q689.014 66.3781 683.99 70.0644 Q679.008 73.7508 670.258 73.7508 Q666.612 73.7508 662.642 73.0216 Q658.713 72.3329 654.338 70.9151 L654.338 63.2184 Q658.47 65.3654 662.48 66.4591 Q666.491 67.5124 670.42 67.5124 Q675.686 67.5124 678.522 65.73 Q681.357 63.9071 681.357 60.6258 Q681.357 57.5877 679.291 55.9673 Q677.266 54.3469 670.339 52.8481 L667.746 52.2405 Q660.819 50.7821 657.741 47.7845 Q654.662 44.7463 654.662 39.4801 Q654.662 33.0797 659.199 29.5959 Q663.736 26.1121 672.081 26.1121 Q676.213 26.1121 679.859 26.7198 Q683.504 27.3274 686.583 28.5427 Z" fill="#000000" fill-rule="nonzero" fill-opacity="1" /><path clip-path="url(#clip590)" d="M708.255 14.324 L708.255 27.2059 L723.608 27.2059 L723.608 32.9987 L708.255 32.9987 L708.255 57.6282 Q708.255 63.1779 709.754 64.7578 Q711.294 66.3376 715.952 66.3376 L723.608 66.3376 L723.608 72.576 L715.952 72.576 Q707.324 72.576 704.042 69.3758 Q700.761 66.1351 700.761 57.6282 L700.761 32.9987 L695.292 32.9987 L695.292 27.2059 L700.761 27.2059 L700.761 14.324 L708.255 14.324 Z" fill="#000000" fill-rule="nonzero" fill-opacity="1" /><path clip-path="url(#clip590)" d="M754.031 49.7694 Q744.997 49.7694 741.513 51.8354 Q738.03 53.9013 738.03 58.8839 Q738.03 62.8538 740.622 65.2034 Q743.255 67.5124 747.752 67.5124 Q753.95 67.5124 757.676 63.1374 Q761.444 58.7219 761.444 51.4303 L761.444 49.7694 L754.031 49.7694 M768.897 46.6907 L768.897 72.576 L761.444 72.576 L761.444 65.6895 Q758.892 69.8214 755.084 71.8063 Q751.276 73.7508 745.767 73.7508 Q738.799 73.7508 734.667 69.8619 Q730.576 65.9325 730.576 59.3701 Q730.576 51.7138 735.68 47.825 Q740.825 43.9361 750.992 43.9361 L761.444 43.9361 L761.444 43.2069 Q761.444 38.0623 758.041 35.2672 Q754.679 32.4315 748.562 32.4315 Q744.673 32.4315 740.987 33.3632 Q737.3 34.295 733.898 36.1584 L733.898 29.2718 Q737.989 27.692 741.837 26.9223 Q745.686 26.1121 749.332 26.1121 Q759.175 26.1121 764.036 31.2163 Q768.897 36.3204 768.897 46.6907 Z" fill="#000000" fill-rule="nonzero" fill-opacity="1" /><path clip-path="url(#clip590)" d="M821.964 45.1919 L821.964 72.576 L814.511 72.576 L814.511 45.4349 Q814.511 38.994 811.999 35.7938 Q809.487 32.5936 804.464 32.5936 Q798.428 32.5936 794.945 36.4419 Q791.461 40.2903 791.461 46.9338 L791.461 72.576 L783.967 72.576 L783.967 27.2059 L791.461 27.2059 L791.461 34.2544 Q794.135 30.163 797.74 28.1376 Q801.386 26.1121 806.125 26.1121 Q813.943 26.1121 817.954 30.9732 Q821.964 35.7938 821.964 45.1919 Z" fill="#000000" fill-rule="nonzero" fill-opacity="1" /><path clip-path="url(#clip590)" d="M869.481 28.9478 L869.481 35.9153 Q866.322 34.1734 863.121 33.3227 Q859.962 32.4315 856.721 32.4315 Q849.47 32.4315 845.459 37.0496 Q841.449 41.6271 841.449 49.9314 Q841.449 58.2358 845.459 62.8538 Q849.47 67.4314 856.721 67.4314 Q859.962 67.4314 863.121 66.5807 Q866.322 65.6895 869.481 63.9476 L869.481 70.8341 Q866.362 72.2924 863 73.0216 Q859.678 73.7508 855.911 73.7508 Q845.662 73.7508 839.626 67.3098 Q833.59 60.8689 833.59 49.9314 Q833.59 38.832 839.667 32.472 Q845.784 26.1121 856.397 26.1121 Q859.84 26.1121 863.121 26.8413 Q866.403 27.5299 869.481 28.9478 Z" fill="#000000" fill-rule="nonzero" fill-opacity="1" /><path clip-path="url(#clip590)" d="M921.252 48.0275 L921.252 51.6733 L886.981 51.6733 Q887.467 59.3701 891.599 63.421 Q895.772 67.4314 903.185 67.4314 Q907.479 67.4314 911.489 66.3781 Q915.54 65.3249 919.51 63.2184 L919.51 70.267 Q915.5 71.9684 911.287 72.8596 Q907.074 73.7508 902.739 73.7508 Q891.883 73.7508 885.523 67.4314 Q879.204 61.1119 879.204 50.3365 Q879.204 39.1965 885.199 32.6746 Q891.235 26.1121 901.443 26.1121 Q910.598 26.1121 915.905 32.0264 Q921.252 37.9003 921.252 48.0275 M913.798 45.84 Q913.717 39.7232 910.355 36.0774 Q907.033 32.4315 901.524 32.4315 Q895.286 32.4315 891.518 35.9558 Q887.791 39.4801 887.224 45.8805 L913.798 45.84 Z" fill="#000000" fill-rule="nonzero" fill-opacity="1" /><path clip-path="url(#clip590)" d="M995.181 35.9153 Q997.976 30.8922 1001.86 28.5022 Q1005.75 26.1121 1011.02 26.1121 Q1018.11 26.1121 1021.96 31.0947 Q1025.81 36.0368 1025.81 45.1919 L1025.81 72.576 L1018.31 72.576 L1018.31 45.4349 Q1018.31 38.913 1016 35.7533 Q1013.69 32.5936 1008.95 32.5936 Q1003.16 32.5936 999.799 36.4419 Q996.437 40.2903 996.437 46.9338 L996.437 72.576 L988.943 72.576 L988.943 45.4349 Q988.943 38.8725 986.633 35.7533 Q984.324 32.5936 979.504 32.5936 Q973.792 32.5936 970.43 36.4824 Q967.068 40.3308 967.068 46.9338 L967.068 72.576 L959.573 72.576 L959.573 27.2059 L967.068 27.2059 L967.068 34.2544 Q969.62 30.082 973.184 28.0971 Q976.749 26.1121 981.651 26.1121 Q986.593 26.1121 990.036 28.6237 Q993.52 31.1352 995.181 35.9153 Z" fill="#000000" fill-rule="nonzero" fill-opacity="1" /><path clip-path="url(#clip590)" d="M1058.25 32.4315 Q1052.26 32.4315 1048.77 37.1306 Q1045.29 41.7891 1045.29 49.9314 Q1045.29 58.0738 1048.73 62.7728 Q1052.22 67.4314 1058.25 67.4314 Q1064.21 67.4314 1067.69 62.7323 Q1071.18 58.0333 1071.18 49.9314 Q1071.18 41.8701 1067.69 37.1711 Q1064.21 32.4315 1058.25 32.4315 M1058.25 26.1121 Q1067.98 26.1121 1073.53 32.4315 Q1079.08 38.7509 1079.08 49.9314 Q1079.08 61.0714 1073.53 67.4314 Q1067.98 73.7508 1058.25 73.7508 Q1048.49 73.7508 1042.94 67.4314 Q1037.43 61.0714 1037.43 49.9314 Q1037.43 38.7509 1042.94 32.4315 Q1048.49 26.1121 1058.25 26.1121 Z" fill="#000000" fill-rule="nonzero" fill-opacity="1" /><path clip-path="url(#clip590)" d="M1121.29 34.0924 L1121.29 9.54393 L1128.74 9.54393 L1128.74 72.576 L1121.29 72.576 L1121.29 65.7705 Q1118.94 69.8214 1115.33 71.8063 Q1111.77 73.7508 1106.74 73.7508 Q1098.52 73.7508 1093.33 67.1883 Q1088.19 60.6258 1088.19 49.9314 Q1088.19 39.2371 1093.33 32.6746 Q1098.52 26.1121 1106.74 26.1121 Q1111.77 26.1121 1115.33 28.0971 Q1118.94 30.0415 1121.29 34.0924 M1095.89 49.9314 Q1095.89 58.1548 1099.25 62.8538 Q1102.65 67.5124 1108.57 67.5124 Q1114.48 67.5124 1117.88 62.8538 Q1121.29 58.1548 1121.29 49.9314 Q1121.29 41.7081 1117.88 37.0496 Q1114.48 32.3505 1108.57 32.3505 Q1102.65 32.3505 1099.25 37.0496 Q1095.89 41.7081 1095.89 49.9314 Z" fill="#000000" fill-rule="nonzero" fill-opacity="1" /><path clip-path="url(#clip590)" d="M1182.9 48.0275 L1182.9 51.6733 L1148.63 51.6733 Q1149.12 59.3701 1153.25 63.421 Q1157.42 67.4314 1164.83 67.4314 Q1169.13 67.4314 1173.14 66.3781 Q1177.19 65.3249 1181.16 63.2184 L1181.16 70.267 Q1177.15 71.9684 1172.93 72.8596 Q1168.72 73.7508 1164.39 73.7508 Q1153.53 73.7508 1147.17 67.4314 Q1140.85 61.1119 1140.85 50.3365 Q1140.85 39.1965 1146.85 32.6746 Q1152.88 26.1121 1163.09 26.1121 Q1172.25 26.1121 1177.55 32.0264 Q1182.9 37.9003 1182.9 48.0275 M1175.45 45.84 Q1175.37 39.7232 1172 36.0774 Q1168.68 32.4315 1163.17 32.4315 Q1156.93 32.4315 1153.17 35.9558 Q1149.44 39.4801 1148.87 45.8805 L1175.45 45.84 Z" fill="#000000" fill-rule="nonzero" fill-opacity="1" /><path clip-path="url(#clip590)" d="M1195.13 9.54393 L1202.59 9.54393 L1202.59 72.576 L1195.13 72.576 L1195.13 9.54393 Z" fill="#000000" fill-rule="nonzero" fill-opacity="1" /><path clip-path="url(#clip590)" d="M1247.11 28.5427 L1247.11 35.5912 Q1243.95 33.9709 1240.54 33.1607 Q1237.14 32.3505 1233.5 32.3505 Q1227.95 32.3505 1225.15 34.0519 Q1222.4 35.7533 1222.4 39.156 Q1222.4 41.7486 1224.38 43.2475 Q1226.37 44.7058 1232.36 46.0426 L1234.91 46.6097 Q1242.85 48.3111 1246.17 51.4303 Q1249.54 54.509 1249.54 60.0587 Q1249.54 66.3781 1244.51 70.0644 Q1239.53 73.7508 1230.78 73.7508 Q1227.14 73.7508 1223.17 73.0216 Q1219.24 72.3329 1214.86 70.9151 L1214.86 63.2184 Q1218.99 65.3654 1223 66.4591 Q1227.01 67.5124 1230.94 67.5124 Q1236.21 67.5124 1239.05 65.73 Q1241.88 63.9071 1241.88 60.6258 Q1241.88 57.5877 1239.82 55.9673 Q1237.79 54.3469 1230.86 52.8481 L1228.27 52.2405 Q1221.34 50.7821 1218.26 47.7845 Q1215.19 44.7463 1215.19 39.4801 Q1215.19 33.0797 1219.72 29.5959 Q1224.26 26.1121 1232.6 26.1121 Q1236.74 26.1121 1240.38 26.7198 Q1244.03 27.3274 1247.11 28.5427 Z" fill="#000000" fill-rule="nonzero" fill-opacity="1" /><path clip-path="url(#clip590)" d="M1305.36 32.4315 Q1299.36 32.4315 1295.88 37.1306 Q1292.4 41.7891 1292.4 49.9314 Q1292.4 58.0738 1295.84 62.7728 Q1299.32 67.4314 1305.36 67.4314 Q1311.31 67.4314 1314.8 62.7323 Q1318.28 58.0333 1318.28 49.9314 Q1318.28 41.8701 1314.8 37.1711 Q1311.31 32.4315 1305.36 32.4315 M1305.36 26.1121 Q1315.08 26.1121 1320.63 32.4315 Q1326.18 38.7509 1326.18 49.9314 Q1326.18 61.0714 1320.63 67.4314 Q1315.08 73.7508 1305.36 73.7508 Q1295.6 73.7508 1290.05 67.4314 Q1284.54 61.0714 1284.54 49.9314 Q1284.54 38.7509 1290.05 32.4315 Q1295.6 26.1121 1305.36 26.1121 Z" fill="#000000" fill-rule="nonzero" fill-opacity="1" /><path clip-path="url(#clip590)" d="M1376.25 45.1919 L1376.25 72.576 L1368.8 72.576 L1368.8 45.4349 Q1368.8 38.994 1366.28 35.7938 Q1363.77 32.5936 1358.75 32.5936 Q1352.71 32.5936 1349.23 36.4419 Q1345.75 40.2903 1345.75 46.9338 L1345.75 72.576 L1338.25 72.576 L1338.25 27.2059 L1345.75 27.2059 L1345.75 34.2544 Q1348.42 30.163 1352.03 28.1376 Q1355.67 26.1121 1360.41 26.1121 Q1368.23 26.1121 1372.24 30.9732 Q1376.25 35.7938 1376.25 45.1919 Z" fill="#000000" fill-rule="nonzero" fill-opacity="1" /><path clip-path="url(#clip590)" d="M1443.78 34.1734 Q1442.52 33.4443 1441.02 33.1202 Q1439.57 32.7556 1437.78 32.7556 Q1431.46 32.7556 1428.06 36.8875 Q1424.7 40.9789 1424.7 48.6757 L1424.7 72.576 L1417.2 72.576 L1417.2 27.2059 L1424.7 27.2059 L1424.7 34.2544 Q1427.05 30.1225 1430.82 28.1376 Q1434.58 26.1121 1439.97 26.1121 Q1440.74 26.1121 1441.67 26.2337 Q1442.6 26.3147 1443.74 26.5172 L1443.78 34.1734 Z" fill="#000000" fill-rule="nonzero" fill-opacity="1" /><path clip-path="url(#clip590)" d="M1488.58 48.0275 L1488.58 51.6733 L1454.31 51.6733 Q1454.8 59.3701 1458.93 63.421 Q1463.1 67.4314 1470.51 67.4314 Q1474.81 67.4314 1478.82 66.3781 Q1482.87 65.3249 1486.84 63.2184 L1486.84 70.267 Q1482.83 71.9684 1478.62 72.8596 Q1474.4 73.7508 1470.07 73.7508 Q1459.21 73.7508 1452.85 67.4314 Q1446.53 61.1119 1446.53 50.3365 Q1446.53 39.1965 1452.53 32.6746 Q1458.56 26.1121 1468.77 26.1121 Q1477.93 26.1121 1483.23 32.0264 Q1488.58 37.9003 1488.58 48.0275 M1481.13 45.84 Q1481.05 39.7232 1477.68 36.0774 Q1474.36 32.4315 1468.85 32.4315 Q1462.61 32.4315 1458.85 35.9558 Q1455.12 39.4801 1454.55 45.8805 L1481.13 45.84 Z" fill="#000000" fill-rule="nonzero" fill-opacity="1" /><path clip-path="url(#clip590)" d="M1530.67 49.3643 Q1530.67 41.2625 1527.31 36.8065 Q1523.99 32.3505 1517.95 32.3505 Q1511.95 32.3505 1508.59 36.8065 Q1505.27 41.2625 1505.27 49.3643 Q1505.27 57.4256 1508.59 61.8816 Q1511.95 66.3376 1517.95 66.3376 Q1523.99 66.3376 1527.31 61.8816 Q1530.67 57.4256 1530.67 49.3643 M1538.12 66.9452 Q1538.12 78.5308 1532.98 84.1616 Q1527.83 89.8329 1517.22 89.8329 Q1513.29 89.8329 1509.81 89.2252 Q1506.32 88.6581 1503.04 87.4428 L1503.04 80.1917 Q1506.32 81.9741 1509.52 82.8248 Q1512.72 83.6755 1516.05 83.6755 Q1523.38 83.6755 1527.02 79.8271 Q1530.67 76.0193 1530.67 68.282 L1530.67 64.5957 Q1528.36 68.6061 1524.76 70.5911 Q1521.15 72.576 1516.13 72.576 Q1507.78 72.576 1502.68 66.2161 Q1497.57 59.8562 1497.57 49.3643 Q1497.57 38.832 1502.68 32.472 Q1507.78 26.1121 1516.13 26.1121 Q1521.15 26.1121 1524.76 28.0971 Q1528.36 30.082 1530.67 34.0924 L1530.67 27.2059 L1538.12 27.2059 L1538.12 66.9452 Z" fill="#000000" fill-rule="nonzero" fill-opacity="1" /><path clip-path="url(#clip590)" d="M1552.71 54.671 L1552.71 27.2059 L1560.16 27.2059 L1560.16 54.3874 Q1560.16 60.8284 1562.67 64.0691 Q1565.18 67.2693 1570.21 67.2693 Q1576.24 67.2693 1579.73 63.421 Q1583.25 59.5726 1583.25 52.9291 L1583.25 27.2059 L1590.7 27.2059 L1590.7 72.576 L1583.25 72.576 L1583.25 65.6084 Q1580.54 69.7404 1576.93 71.7658 Q1573.37 73.7508 1568.63 73.7508 Q1560.81 73.7508 1556.76 68.8897 Q1552.71 64.0286 1552.71 54.671 M1571.46 26.1121 L1571.46 26.1121 Z" fill="#000000" fill-rule="nonzero" fill-opacity="1" /><path clip-path="url(#clip590)" d="M1606.06 9.54393 L1613.51 9.54393 L1613.51 72.576 L1606.06 72.576 L1606.06 9.54393 Z" fill="#000000" fill-rule="nonzero" fill-opacity="1" /><path clip-path="url(#clip590)" d="M1649.73 49.7694 Q1640.69 49.7694 1637.21 51.8354 Q1633.72 53.9013 1633.72 58.8839 Q1633.72 62.8538 1636.32 65.2034 Q1638.95 67.5124 1643.45 67.5124 Q1649.64 67.5124 1653.37 63.1374 Q1657.14 58.7219 1657.14 51.4303 L1657.14 49.7694 L1649.73 49.7694 M1664.59 46.6907 L1664.59 72.576 L1657.14 72.576 L1657.14 65.6895 Q1654.59 69.8214 1650.78 71.8063 Q1646.97 73.7508 1641.46 73.7508 Q1634.49 73.7508 1630.36 69.8619 Q1626.27 65.9325 1626.27 59.3701 Q1626.27 51.7138 1631.38 47.825 Q1636.52 43.9361 1646.69 43.9361 L1657.14 43.9361 L1657.14 43.2069 Q1657.14 38.0623 1653.74 35.2672 Q1650.37 32.4315 1644.26 32.4315 Q1640.37 32.4315 1636.68 33.3632 Q1633 34.295 1629.59 36.1584 L1629.59 29.2718 Q1633.68 27.692 1637.53 26.9223 Q1641.38 26.1121 1645.03 26.1121 Q1654.87 26.1121 1659.73 31.2163 Q1664.59 36.3204 1664.59 46.6907 Z" fill="#000000" fill-rule="nonzero" fill-opacity="1" /><path clip-path="url(#clip590)" d="M1706.24 34.1734 Q1704.98 33.4443 1703.48 33.1202 Q1702.02 32.7556 1700.24 32.7556 Q1693.92 32.7556 1690.52 36.8875 Q1687.16 40.9789 1687.16 48.6757 L1687.16 72.576 L1679.66 72.576 L1679.66 27.2059 L1687.16 27.2059 L1687.16 34.2544 Q1689.51 30.1225 1693.27 28.1376 Q1697.04 26.1121 1702.43 26.1121 Q1703.2 26.1121 1704.13 26.2337 Q1705.06 26.3147 1706.2 26.5172 L1706.24 34.1734 Z" fill="#000000" fill-rule="nonzero" fill-opacity="1" /><path clip-path="url(#clip590)" d="M1770.28 49.3643 Q1770.28 41.2625 1766.92 36.8065 Q1763.6 32.3505 1757.56 32.3505 Q1751.57 32.3505 1748.2 36.8065 Q1744.88 41.2625 1744.88 49.3643 Q1744.88 57.4256 1748.2 61.8816 Q1751.57 66.3376 1757.56 66.3376 Q1763.6 66.3376 1766.92 61.8816 Q1770.28 57.4256 1770.28 49.3643 M1777.73 66.9452 Q1777.73 78.5308 1772.59 84.1616 Q1767.45 89.8329 1756.83 89.8329 Q1752.9 89.8329 1749.42 89.2252 Q1745.93 88.6581 1742.65 87.4428 L1742.65 80.1917 Q1745.93 81.9741 1749.14 82.8248 Q1752.34 83.6755 1755.66 83.6755 Q1762.99 83.6755 1766.64 79.8271 Q1770.28 76.0193 1770.28 68.282 L1770.28 64.5957 Q1767.97 68.6061 1764.37 70.5911 Q1760.76 72.576 1755.74 72.576 Q1747.39 72.576 1742.29 66.2161 Q1737.19 59.8562 1737.19 49.3643 Q1737.19 38.832 1742.29 32.472 Q1747.39 26.1121 1755.74 26.1121 Q1760.76 26.1121 1764.37 28.0971 Q1767.97 30.082 1770.28 34.0924 L1770.28 27.2059 L1777.73 27.2059 L1777.73 66.9452 Z" fill="#000000" fill-rule="nonzero" fill-opacity="1" /><path clip-path="url(#clip590)" d="M1819.38 34.1734 Q1818.12 33.4443 1816.62 33.1202 Q1815.16 32.7556 1813.38 32.7556 Q1807.06 32.7556 1803.66 36.8875 Q1800.3 40.9789 1800.3 48.6757 L1800.3 72.576 L1792.8 72.576 L1792.8 27.2059 L1800.3 27.2059 L1800.3 34.2544 Q1802.65 30.1225 1806.41 28.1376 Q1810.18 26.1121 1815.57 26.1121 Q1816.34 26.1121 1817.27 26.2337 Q1818.2 26.3147 1819.34 26.5172 L1819.38 34.1734 Z" fill="#000000" fill-rule="nonzero" fill-opacity="1" /><path clip-path="url(#clip590)" d="M1847.82 49.7694 Q1838.78 49.7694 1835.3 51.8354 Q1831.81 53.9013 1831.81 58.8839 Q1831.81 62.8538 1834.41 65.2034 Q1837.04 67.5124 1841.54 67.5124 Q1847.73 67.5124 1851.46 63.1374 Q1855.23 58.7219 1855.23 51.4303 L1855.23 49.7694 L1847.82 49.7694 M1862.68 46.6907 L1862.68 72.576 L1855.23 72.576 L1855.23 65.6895 Q1852.68 69.8214 1848.87 71.8063 Q1845.06 73.7508 1839.55 73.7508 Q1832.58 73.7508 1828.45 69.8619 Q1824.36 65.9325 1824.36 59.3701 Q1824.36 51.7138 1829.46 47.825 Q1834.61 43.9361 1844.78 43.9361 L1855.23 43.9361 L1855.23 43.2069 Q1855.23 38.0623 1851.83 35.2672 Q1848.46 32.4315 1842.35 32.4315 Q1838.46 32.4315 1834.77 33.3632 Q1831.08 34.295 1827.68 36.1584 L1827.68 29.2718 Q1831.77 27.692 1835.62 26.9223 Q1839.47 26.1121 1843.12 26.1121 Q1852.96 26.1121 1857.82 31.2163 Q1862.68 36.3204 1862.68 46.6907 Z" fill="#000000" fill-rule="nonzero" fill-opacity="1" /><path clip-path="url(#clip590)" d="M1885.25 65.7705 L1885.25 89.8329 L1877.75 89.8329 L1877.75 27.2059 L1885.25 27.2059 L1885.25 34.0924 Q1887.6 30.0415 1891.16 28.0971 Q1894.77 26.1121 1899.75 26.1121 Q1908.01 26.1121 1913.16 32.6746 Q1918.34 39.2371 1918.34 49.9314 Q1918.34 60.6258 1913.16 67.1883 Q1908.01 73.7508 1899.75 73.7508 Q1894.77 73.7508 1891.16 71.8063 Q1887.6 69.8214 1885.25 65.7705 M1910.6 49.9314 Q1910.6 41.7081 1907.2 37.0496 Q1903.84 32.3505 1897.92 32.3505 Q1892.01 32.3505 1888.61 37.0496 Q1885.25 41.7081 1885.25 49.9314 Q1885.25 58.1548 1888.61 62.8538 Q1892.01 67.5124 1897.92 67.5124 Q1903.84 67.5124 1907.2 62.8538 Q1910.6 58.1548 1910.6 49.9314 Z" fill="#000000" fill-rule="nonzero" fill-opacity="1" /><path clip-path="url(#clip590)" d="M1968.41 45.1919 L1968.41 72.576 L1960.96 72.576 L1960.96 45.4349 Q1960.96 38.994 1958.45 35.7938 Q1955.93 32.5936 1950.91 32.5936 Q1944.87 32.5936 1941.39 36.4419 Q1937.91 40.2903 1937.91 46.9338 L1937.91 72.576 L1930.41 72.576 L1930.41 9.54393 L1937.91 9.54393 L1937.91 34.2544 Q1940.58 30.163 1944.19 28.1376 Q1947.83 26.1121 1952.57 26.1121 Q1960.39 26.1121 1964.4 30.9732 Q1968.41 35.7938 1968.41 45.1919 Z" fill="#000000" fill-rule="nonzero" fill-opacity="1" /><path clip-path="url(#clip590)" d="M2027.55 9.62495 Q2022.13 18.942 2019.49 28.0566 Q2016.86 37.1711 2016.86 46.5287 Q2016.86 55.8863 2019.49 65.0818 Q2022.17 74.2369 2027.55 83.5134 L2021.07 83.5134 Q2015 73.9938 2011.96 64.7983 Q2008.96 55.6027 2008.96 46.5287 Q2008.96 37.4952 2011.96 28.3401 Q2014.96 19.1851 2021.07 9.62495 L2027.55 9.62495 Z" fill="#000000" fill-rule="nonzero" fill-opacity="1" /><path clip-path="url(#clip590)" d="M2042.34 12.096 L2053.36 12.096 L2080.18 62.6918 L2080.18 12.096 L2088.11 12.096 L2088.11 72.576 L2077.1 72.576 L2050.28 21.9802 L2050.28 72.576 L2042.34 72.576 L2042.34 12.096 Z" fill="#000000" fill-rule="nonzero" fill-opacity="1" /><path clip-path="url(#clip590)" d="M2105.05 34.9026 L2156.98 34.9026 L2156.98 41.7081 L2105.05 41.7081 L2105.05 34.9026 M2105.05 51.4303 L2156.98 51.4303 L2156.98 58.3168 L2105.05 58.3168 L2105.05 51.4303 Z" fill="#000000" fill-rule="nonzero" fill-opacity="1" /><path clip-path="url(#clip590)" d="M2181.69 65.6895 L2210.25 65.6895 L2210.25 72.576 L2171.85 72.576 L2171.85 65.6895 Q2176.51 60.8689 2184.53 52.7671 Q2192.59 44.6248 2194.65 42.2752 Q2198.58 37.8598 2200.12 34.8216 Q2201.7 31.7429 2201.7 28.7857 Q2201.7 23.9651 2198.3 20.927 Q2194.94 17.8888 2189.51 17.8888 Q2185.66 17.8888 2181.37 19.2256 Q2177.11 20.5624 2172.25 23.2765 L2172.25 15.0127 Q2177.19 13.0277 2181.49 12.015 Q2185.78 11.0023 2189.35 11.0023 Q2198.75 11.0023 2204.34 15.7013 Q2209.93 20.4004 2209.93 28.2591 Q2209.93 31.9859 2208.51 35.3482 Q2207.13 38.6699 2203.44 43.2069 Q2202.43 44.3817 2197 50.0125 Q2191.57 55.6027 2181.69 65.6895 Z" fill="#000000" fill-rule="nonzero" fill-opacity="1" /><path clip-path="url(#clip590)" d="M2244.93 17.4837 Q2238.61 17.4837 2235.41 23.7221 Q2232.25 29.92 2232.25 42.3968 Q2232.25 54.833 2235.41 61.0714 Q2238.61 67.2693 2244.93 67.2693 Q2251.29 67.2693 2254.44 61.0714 Q2257.65 54.833 2257.65 42.3968 Q2257.65 29.92 2254.44 23.7221 Q2251.29 17.4837 2244.93 17.4837 M2244.93 11.0023 Q2255.09 11.0023 2260.44 19.0636 Q2265.83 27.0843 2265.83 42.3968 Q2265.83 57.6687 2260.44 65.73 Q2255.09 73.7508 2244.93 73.7508 Q2234.76 73.7508 2229.37 65.73 Q2224.02 57.6687 2224.02 42.3968 Q2224.02 27.0843 2229.37 19.0636 Q2234.76 11.0023 2244.93 11.0023 Z" fill="#000000" fill-rule="nonzero" fill-opacity="1" /><path clip-path="url(#clip590)" d="M2297.71 17.4837 Q2291.39 17.4837 2288.19 23.7221 Q2285.03 29.92 2285.03 42.3968 Q2285.03 54.833 2288.19 61.0714 Q2291.39 67.2693 2297.71 67.2693 Q2304.07 67.2693 2307.23 61.0714 Q2310.43 54.833 2310.43 42.3968 Q2310.43 29.92 2307.23 23.7221 Q2304.07 17.4837 2297.71 17.4837 M2297.71 11.0023 Q2307.88 11.0023 2313.22 19.0636 Q2318.61 27.0843 2318.61 42.3968 Q2318.61 57.6687 2313.22 65.73 Q2307.88 73.7508 2297.71 73.7508 Q2287.54 73.7508 2282.15 65.73 Q2276.81 57.6687 2276.81 42.3968 Q2276.81 27.0843 2282.15 19.0636 Q2287.54 11.0023 2297.71 11.0023 Z" fill="#000000" fill-rule="nonzero" fill-opacity="1" /><path clip-path="url(#clip590)" d="M2333.84 62.2867 L2342.39 62.2867 L2342.39 69.2543 L2335.75 82.2172 L2330.52 82.2172 L2333.84 69.2543 L2333.84 62.2867 Z" fill="#000000" fill-rule="nonzero" fill-opacity="1" /><path clip-path="url(#clip590)" d="M2384.4 9.54393 L2391.89 9.54393 L2391.89 46.7717 L2414.13 27.2059 L2423.65 27.2059 L2399.59 48.4326 L2424.66 72.576 L2414.94 72.576 L2391.89 50.4176 L2391.89 72.576 L2384.4 72.576 L2384.4 9.54393 Z" fill="#000000" fill-rule="nonzero" fill-opacity="1" /><path clip-path="url(#clip590)" d="M2433.7 34.9026 L2485.63 34.9026 L2485.63 41.7081 L2433.7 41.7081 L2433.7 34.9026 M2433.7 51.4303 L2485.63 51.4303 L2485.63 58.3168 L2433.7 58.3168 L2433.7 51.4303 Z" fill="#000000" fill-rule="nonzero" fill-opacity="1" /><path clip-path="url(#clip590)" d="M2521.8 39.075 Q2516.3 39.075 2513.05 42.8424 Q2509.85 46.6097 2509.85 53.1722 Q2509.85 59.6941 2513.05 63.502 Q2516.3 67.2693 2521.8 67.2693 Q2527.31 67.2693 2530.51 63.502 Q2533.75 59.6941 2533.75 53.1722 Q2533.75 46.6097 2530.51 42.8424 Q2527.31 39.075 2521.8 39.075 M2538.05 13.4328 L2538.05 20.8865 Q2534.97 19.4281 2531.81 18.6585 Q2528.69 17.8888 2525.61 17.8888 Q2517.51 17.8888 2513.22 23.3575 Q2508.96 28.8262 2508.36 39.8852 Q2510.75 36.3609 2514.35 34.4975 Q2517.96 32.5936 2522.29 32.5936 Q2531.41 32.5936 2536.67 38.1433 Q2541.98 43.6525 2541.98 53.1722 Q2541.98 62.4892 2536.47 68.12 Q2530.96 73.7508 2521.8 73.7508 Q2511.31 73.7508 2505.76 65.73 Q2500.21 57.6687 2500.21 42.3968 Q2500.21 28.0566 2507.02 19.5497 Q2513.82 11.0023 2525.29 11.0023 Q2528.37 11.0023 2531.49 11.6099 Q2534.65 12.2175 2538.05 13.4328 Z" fill="#000000" fill-rule="nonzero" fill-opacity="1" /><path clip-path="url(#clip590)" d="M2553.85 9.62495 L2560.33 9.62495 Q2566.41 19.1851 2569.4 28.3401 Q2572.44 37.4952 2572.44 46.5287 Q2572.44 55.6027 2569.4 64.7983 Q2566.41 73.9938 2560.33 83.5134 L2553.85 83.5134 Q2559.24 74.2369 2561.87 65.0818 Q2564.54 55.8863 2564.54 46.5287 Q2564.54 37.1711 2561.87 28.0566 Q2559.24 18.942 2553.85 9.62495 Z" fill="#000000" fill-rule="nonzero" fill-opacity="1" /><polyline clip-path="url(#clip591)" style="stroke:#ff0000; stroke-linecap:round; stroke-linejoin:round; stroke-width:8; stroke-opacity:1; fill:none" stroke-dasharray="32, 20" points="294.479,1677.05 305.868,1671.67 317.258,1664.51 328.648,1654.71 340.038,1641.1 351.427,1622.07 362.817,1595.46 374.207,1558.42 385.596,1507.4 396.986,1438.29 408.376,1347.02 419.765,1230.73 431.155,1089.44 442.545,927.969 453.934,756.59 465.324,589.696 476.714,441.857 488.104,324.032 499.493,241.133 510.883,192.403 522.273,173.254 533.662,177.798 545.052,199.878 556.442,234.408 567.831,277.292 579.221,325.393 590.611,376.505 602,429.011 613.39,481.794 624.78,534.093 636.17,585.377 647.559,635.303 658.949,683.654 670.339,730.294 681.728,775.152 693.118,818.202 704.508,859.447 715.897,898.907 727.287,936.624 738.677,972.643 750.067,1007.02 761.456,1039.81 772.846,1071.08 784.236,1100.88 795.625,1129.28 807.015,1156.33 818.405,1182.1 829.794,1206.64 841.184,1230 852.574,1252.25 863.963,1273.43 875.353,1293.58 886.743,1312.77 898.133,1331.03 909.522,1348.42 920.912,1364.96 932.302,1380.7 943.691,1395.68 955.081,1409.93 966.471,1423.49 977.86,1436.4 989.25,1448.68 1000.64,1460.36 1012.03,1471.48 1023.42,1482.06 1034.81,1492.12 1046.2,1501.7 1057.59,1510.81 1068.98,1519.47 1080.37,1527.72 1091.76,1535.56 1103.15,1543.03 1114.54,1550.13 1125.93,1556.88 1137.32,1563.31 1148.71,1569.42 1160.1,1575.24 1171.49,1580.77 1182.87,1586.04 1194.26,1591.05 1205.65,1595.81 1217.04,1600.34 1228.43,1604.65 1239.82,1608.76 1251.21,1612.66 1262.6,1616.37 1273.99,1619.9 1285.38,1623.26 1296.77,1626.46 1308.16,1629.5 1319.55,1632.39 1330.94,1635.14 1342.33,1637.76 1353.72,1640.25 1365.11,1642.62 1376.5,1644.87 1387.89,1647.02 1399.28,1649.06 1410.67,1651 1422.06,1652.84 1433.45,1654.6 1444.84,1656.27 1456.23,1657.86 1467.62,1659.37 1479.01,1660.81 1490.4,1662.17 1501.79,1663.48 1513.18,1664.71 1524.57,1665.89 1535.96,1667.01 1547.35,1668.08 1558.73,1669.09 1570.12,1670.06 1581.51,1670.97 1592.9,1671.85 1604.29,1672.68 1615.68,1673.47 1627.07,1674.22 1638.46,1674.93 1649.85,1675.61 1661.24,1676.26 1672.63,1676.87 1684.02,1677.46 1695.41,1678.01 1706.8,1678.54 1718.19,1679.05 1729.58,1679.53 1740.97,1679.98 1752.36,1680.42 1763.75,1680.83 1775.14,1681.22 1786.53,1681.6 1797.92,1681.95 1809.31,1682.29 1820.7,1682.61 1832.09,1682.92 1843.48,1683.21 1854.87,1683.48 1866.26,1683.75 1877.65,1684 1889.04,1684.24 1900.43,1684.46 1911.82,1684.68 1923.21,1684.88 1934.59,1685.08 1945.98,1685.26 1957.37,1685.44 1968.76,1685.61 1980.15,1685.77 1991.54,1685.92 2002.93,1686.06 2014.32,1686.2 2025.71,1686.33 2037.1,1686.46 2048.49,1686.58 2059.88,1686.69 2071.27,1686.8 2082.66,1686.9 2094.05,1686.99 2105.44,1687.09 2116.83,1687.17 2128.22,1687.26 2139.61,1687.34 2151,1687.41 2162.39,1687.48 2173.78,1687.55 2185.17,1687.62 2196.56,1687.68 2207.95,1687.74 2219.34,1687.79 2230.73,1687.85 2242.12,1687.9 2253.51,1687.95 2264.9,1687.99 2276.29,1688.04 2287.68,1688.08 2299.07,1688.12 2310.45,1688.15 2321.84,1688.19 2333.23,1688.22 2344.62,1688.26 2356.01,1688.29 2367.4,1688.32 2378.79,1688.34 2390.18,1688.37 2401.57,1688.4 2412.96,1688.42 2424.35,1688.44 2435.74,1688.46 2447.13,1688.48 2458.52,1688.5 2469.91,1688.52 2481.3,1688.54 2492.69,1688.56 2504.08,1688.57 2515.47,1688.59 2526.86,1688.6 2538.25,1688.62 2549.64,1688.63 2561.03,1688.64 2572.42,1688.65 "/>
<polyline clip-path="url(#clip591)" style="stroke:#0000ff; stroke-linecap:round; stroke-linejoin:round; stroke-width:8; stroke-opacity:1; fill:none" points="294.479,1677.05 305.868,1671.72 317.258,1664.99 328.648,1656.48 340.038,1645.74 351.427,1632.19 362.817,1615.16 374.207,1593.8 385.596,1567.15 396.986,1534.09 408.376,1493.41 419.765,1443.88 431.155,1384.36 442.545,1313.99 453.934,1232.44 465.324,1140.18 476.714,1038.77 488.104,930.848 499.493,820.431 510.883,712.451 522.273,611.706 533.662,522.892 545.052,449.616 556.442,394.083 567.831,356.898 579.221,336.88 590.611,332.754 602,341.951 613.39,361.953 624.78,390.325 636.17,424.88 647.559,463.825 658.949,505.648 670.339,549.176 681.728,593.508 693.118,637.958 704.508,682.014 715.897,725.319 727.287,767.605 738.677,808.69 750.067,848.457 761.456,886.831 772.846,923.771 784.236,959.266 795.625,993.319 807.015,1025.95 818.405,1057.18 829.794,1087.05 841.184,1115.59 852.574,1142.86 863.963,1168.89 875.353,1193.74 886.743,1217.44 898.133,1240.04 909.522,1261.59 920.912,1282.13 932.302,1301.7 943.691,1320.35 955.081,1338.13 966.471,1355.05 977.86,1371.18 989.25,1386.53 1000.64,1401.16 1012.03,1415.08 1023.42,1428.34 1034.81,1440.96 1046.2,1452.98 1057.59,1464.42 1068.98,1475.3 1080.37,1485.67 1091.76,1495.53 1103.15,1504.92 1114.54,1513.86 1125.93,1522.36 1137.32,1530.45 1148.71,1538.15 1160.1,1545.48 1171.49,1552.45 1182.87,1559.09 1194.26,1565.4 1205.65,1571.41 1217.04,1577.13 1228.43,1582.57 1239.82,1587.74 1251.21,1592.67 1262.6,1597.35 1273.99,1601.81 1285.38,1606.05 1296.77,1610.08 1308.16,1613.92 1319.55,1617.57 1330.94,1621.05 1342.33,1624.35 1353.72,1627.49 1365.11,1630.49 1376.5,1633.33 1387.89,1636.04 1399.28,1638.62 1410.67,1641.07 1422.06,1643.4 1433.45,1645.61 1444.84,1647.72 1456.23,1649.73 1467.62,1651.64 1479.01,1653.45 1490.4,1655.18 1501.79,1656.82 1513.18,1658.39 1524.57,1659.87 1535.96,1661.29 1547.35,1662.64 1558.73,1663.92 1570.12,1665.13 1581.51,1666.29 1592.9,1667.39 1604.29,1668.44 1615.68,1669.44 1627.07,1670.38 1638.46,1671.29 1649.85,1672.14 1661.24,1672.96 1672.63,1673.74 1684.02,1674.48 1695.41,1675.18 1706.8,1675.85 1718.19,1676.48 1729.58,1677.09 1740.97,1677.67 1752.36,1678.21 1763.75,1678.73 1775.14,1679.23 1786.53,1679.7 1797.92,1680.15 1809.31,1680.57 1820.7,1680.98 1832.09,1681.36 1843.48,1681.73 1854.87,1682.08 1866.26,1682.41 1877.65,1682.73 1889.04,1683.03 1900.43,1683.31 1911.82,1683.59 1923.21,1683.84 1934.59,1684.09 1945.98,1684.32 1957.37,1684.55 1968.76,1684.76 1980.15,1684.96 1991.54,1685.15 2002.93,1685.33 2014.32,1685.51 2025.71,1685.67 2037.1,1685.83 2048.49,1685.98 2059.88,1686.12 2071.27,1686.25 2082.66,1686.38 2094.05,1686.51 2105.44,1686.62 2116.83,1686.73 2128.22,1686.84 2139.61,1686.94 2151,1687.03 2162.39,1687.12 2173.78,1687.21 2185.17,1687.29 2196.56,1687.37 2207.95,1687.44 2219.34,1687.51 2230.73,1687.58 2242.12,1687.64 2253.51,1687.7 2264.9,1687.76 2276.29,1687.82 2287.68,1687.87 2299.07,1687.92 2310.45,1687.97 2321.84,1688.01 2333.23,1688.05 2344.62,1688.09 2356.01,1688.13 2367.4,1688.17 2378.79,1688.2 2390.18,1688.24 2401.57,1688.27 2412.96,1688.3 2424.35,1688.33 2435.74,1688.36 2447.13,1688.38 2458.52,1688.41 2469.91,1688.43 2481.3,1688.45 2492.69,1688.47 2504.08,1688.49 2515.47,1688.51 2526.86,1688.53 2538.25,1688.55 2549.64,1688.56 2561.03,1688.58 2572.42,1688.6 "/>
<path clip-path="url(#clip590)" d="M1745.62 336.856 L2560.27 336.856 L2560.27 181.336 L1745.62 181.336  Z" fill="#ffffff" fill-rule="evenodd" fill-opacity="1"/>
<polyline clip-path="url(#clip590)" style="stroke:#000000; stroke-linecap:round; stroke-linejoin:round; stroke-width:4; stroke-opacity:1; fill:none" points="1745.62,336.856 2560.27,336.856 2560.27,181.336 1745.62,181.336 1745.62,336.856 "/>
<polyline clip-path="url(#clip590)" style="stroke:#ff0000; stroke-linecap:round; stroke-linejoin:round; stroke-width:8; stroke-opacity:1; fill:none" stroke-dasharray="32, 20" points="1772.44,233.176 1933.42,233.176 "/>
<path clip-path="url(#clip590)" d="M1960.25 215.896 L1964.92 215.896 L1964.92 250.456 L1960.25 250.456 L1960.25 215.896 Z" fill="#000000" fill-rule="nonzero" fill-opacity="1" /><path clip-path="url(#clip590)" d="M1995.6 234.808 L1995.6 250.456 L1991.34 250.456 L1991.34 234.947 Q1991.34 231.267 1989.9 229.438 Q1988.47 227.609 1985.6 227.609 Q1982.15 227.609 1980.16 229.808 Q1978.16 232.007 1978.16 235.804 L1978.16 250.456 L1973.88 250.456 L1973.88 224.531 L1978.16 224.531 L1978.16 228.558 Q1979.69 226.22 1981.75 225.063 Q1983.84 223.906 1986.54 223.906 Q1991.01 223.906 1993.3 226.683 Q1995.6 229.438 1995.6 234.808 Z" fill="#000000" fill-rule="nonzero" fill-opacity="1" /><path clip-path="url(#clip590)" d="M2021.15 228.466 L2021.15 214.438 L2025.41 214.438 L2025.41 250.456 L2021.15 250.456 L2021.15 246.567 Q2019.81 248.882 2017.75 250.016 Q2015.71 251.128 2012.84 251.128 Q2008.14 251.128 2005.18 247.378 Q2002.24 243.628 2002.24 237.517 Q2002.24 231.405 2005.18 227.655 Q2008.14 223.906 2012.84 223.906 Q2015.71 223.906 2017.75 225.04 Q2019.81 226.151 2021.15 228.466 M2006.64 237.517 Q2006.64 242.216 2008.56 244.901 Q2010.5 247.563 2013.88 247.563 Q2017.26 247.563 2019.21 244.901 Q2021.15 242.216 2021.15 237.517 Q2021.15 232.817 2019.21 230.155 Q2017.26 227.47 2013.88 227.47 Q2010.5 227.47 2008.56 230.155 Q2006.64 232.817 2006.64 237.517 Z" fill="#000000" fill-rule="nonzero" fill-opacity="1" /><path clip-path="url(#clip590)" d="M2034.18 224.531 L2038.44 224.531 L2038.44 250.456 L2034.18 250.456 L2034.18 224.531 M2034.18 214.438 L2038.44 214.438 L2038.44 219.831 L2034.18 219.831 L2034.18 214.438 Z" fill="#000000" fill-rule="nonzero" fill-opacity="1" /><path clip-path="url(#clip590)" d="M2044.3 224.531 L2048.81 224.531 L2056.91 246.29 L2065.02 224.531 L2069.53 224.531 L2059.81 250.456 L2054.02 250.456 L2044.3 224.531 Z" fill="#000000" fill-rule="nonzero" fill-opacity="1" /><path clip-path="url(#clip590)" d="M2075.41 224.531 L2079.67 224.531 L2079.67 250.456 L2075.41 250.456 L2075.41 224.531 M2075.41 214.438 L2079.67 214.438 L2079.67 219.831 L2075.41 219.831 L2075.41 214.438 Z" fill="#000000" fill-rule="nonzero" fill-opacity="1" /><path clip-path="url(#clip590)" d="M2105.64 228.466 L2105.64 214.438 L2109.9 214.438 L2109.9 250.456 L2105.64 250.456 L2105.64 246.567 Q2104.3 248.882 2102.24 250.016 Q2100.2 251.128 2097.33 251.128 Q2092.63 251.128 2089.67 247.378 Q2086.73 243.628 2086.73 237.517 Q2086.73 231.405 2089.67 227.655 Q2092.63 223.906 2097.33 223.906 Q2100.2 223.906 2102.24 225.04 Q2104.3 226.151 2105.64 228.466 M2091.13 237.517 Q2091.13 242.216 2093.05 244.901 Q2094.99 247.563 2098.37 247.563 Q2101.75 247.563 2103.7 244.901 Q2105.64 242.216 2105.64 237.517 Q2105.64 232.817 2103.7 230.155 Q2101.75 227.47 2098.37 227.47 Q2094.99 227.47 2093.05 230.155 Q2091.13 232.817 2091.13 237.517 Z" fill="#000000" fill-rule="nonzero" fill-opacity="1" /><path clip-path="url(#clip590)" d="M2118.23 240.225 L2118.23 224.531 L2122.49 224.531 L2122.49 240.063 Q2122.49 243.743 2123.93 245.595 Q2125.36 247.424 2128.23 247.424 Q2131.68 247.424 2133.67 245.225 Q2135.69 243.026 2135.69 239.229 L2135.69 224.531 L2139.95 224.531 L2139.95 250.456 L2135.69 250.456 L2135.69 246.475 Q2134.14 248.836 2132.08 249.993 Q2130.04 251.128 2127.33 251.128 Q2122.86 251.128 2120.55 248.35 Q2118.23 245.572 2118.23 240.225 M2128.95 223.906 L2128.95 223.906 Z" fill="#000000" fill-rule="nonzero" fill-opacity="1" /><path clip-path="url(#clip590)" d="M2160.5 237.424 Q2155.34 237.424 2153.35 238.604 Q2151.36 239.785 2151.36 242.632 Q2151.36 244.901 2152.84 246.243 Q2154.34 247.563 2156.91 247.563 Q2160.46 247.563 2162.59 245.063 Q2164.74 242.54 2164.74 238.373 L2164.74 237.424 L2160.5 237.424 M2169 235.665 L2169 250.456 L2164.74 250.456 L2164.74 246.521 Q2163.28 248.882 2161.1 250.016 Q2158.93 251.128 2155.78 251.128 Q2151.8 251.128 2149.44 248.905 Q2147.1 246.66 2147.1 242.91 Q2147.1 238.535 2150.02 236.313 Q2152.96 234.091 2158.77 234.091 L2164.74 234.091 L2164.74 233.674 Q2164.74 230.734 2162.79 229.137 Q2160.87 227.517 2157.38 227.517 Q2155.15 227.517 2153.05 228.049 Q2150.94 228.581 2149 229.646 L2149 225.711 Q2151.34 224.808 2153.53 224.368 Q2155.73 223.906 2157.82 223.906 Q2163.44 223.906 2166.22 226.822 Q2169 229.739 2169 235.665 Z" fill="#000000" fill-rule="nonzero" fill-opacity="1" /><path clip-path="url(#clip590)" d="M2177.77 214.438 L2182.03 214.438 L2182.03 250.456 L2177.77 250.456 L2177.77 214.438 Z" fill="#000000" fill-rule="nonzero" fill-opacity="1" /><path clip-path="url(#clip590)" d="M2188.79 235.572 L2201.27 235.572 L2201.27 239.368 L2188.79 239.368 L2188.79 235.572 Z" fill="#000000" fill-rule="nonzero" fill-opacity="1" /><path clip-path="url(#clip590)" d="M2226.66 237.517 Q2226.66 232.817 2224.71 230.155 Q2222.79 227.47 2219.41 227.47 Q2216.03 227.47 2214.09 230.155 Q2212.17 232.817 2212.17 237.517 Q2212.17 242.216 2214.09 244.901 Q2216.03 247.563 2219.41 247.563 Q2222.79 247.563 2224.71 244.901 Q2226.66 242.216 2226.66 237.517 M2212.17 228.466 Q2213.51 226.151 2215.55 225.04 Q2217.61 223.906 2220.46 223.906 Q2225.18 223.906 2228.12 227.655 Q2231.08 231.405 2231.08 237.517 Q2231.08 243.628 2228.12 247.378 Q2225.18 251.128 2220.46 251.128 Q2217.61 251.128 2215.55 250.016 Q2213.51 248.882 2212.17 246.567 L2212.17 250.456 L2207.89 250.456 L2207.89 214.438 L2212.17 214.438 L2212.17 228.466 Z" fill="#000000" fill-rule="nonzero" fill-opacity="1" /><path clip-path="url(#clip590)" d="M2249.92 237.424 Q2244.76 237.424 2242.77 238.604 Q2240.78 239.785 2240.78 242.632 Q2240.78 244.901 2242.26 246.243 Q2243.77 247.563 2246.33 247.563 Q2249.88 247.563 2252.01 245.063 Q2254.16 242.54 2254.16 238.373 L2254.16 237.424 L2249.92 237.424 M2258.42 235.665 L2258.42 250.456 L2254.16 250.456 L2254.16 246.521 Q2252.7 248.882 2250.52 250.016 Q2248.35 251.128 2245.2 251.128 Q2241.22 251.128 2238.86 248.905 Q2236.52 246.66 2236.52 242.91 Q2236.52 238.535 2239.44 236.313 Q2242.38 234.091 2248.19 234.091 L2254.16 234.091 L2254.16 233.674 Q2254.16 230.734 2252.21 229.137 Q2250.29 227.517 2246.8 227.517 Q2244.58 227.517 2242.47 228.049 Q2240.36 228.581 2238.42 229.646 L2238.42 225.711 Q2240.76 224.808 2242.96 224.368 Q2245.15 223.906 2247.24 223.906 Q2252.86 223.906 2255.64 226.822 Q2258.42 229.739 2258.42 235.665 Z" fill="#000000" fill-rule="nonzero" fill-opacity="1" /><path clip-path="url(#clip590)" d="M2283.72 225.294 L2283.72 229.322 Q2281.91 228.396 2279.97 227.933 Q2278.02 227.47 2275.94 227.47 Q2272.77 227.47 2271.17 228.443 Q2269.6 229.415 2269.6 231.359 Q2269.6 232.841 2270.73 233.697 Q2271.87 234.53 2275.29 235.294 L2276.75 235.618 Q2281.29 236.591 2283.19 238.373 Q2285.11 240.132 2285.11 243.304 Q2285.11 246.915 2282.24 249.021 Q2279.39 251.128 2274.39 251.128 Q2272.31 251.128 2270.04 250.711 Q2267.79 250.317 2265.29 249.507 L2265.29 245.109 Q2267.65 246.336 2269.95 246.961 Q2272.24 247.563 2274.48 247.563 Q2277.49 247.563 2279.11 246.544 Q2280.73 245.503 2280.73 243.628 Q2280.73 241.892 2279.55 240.966 Q2278.39 240.04 2274.44 239.183 L2272.95 238.836 Q2269 238.003 2267.24 236.29 Q2265.48 234.554 2265.48 231.544 Q2265.48 227.887 2268.07 225.896 Q2270.66 223.906 2275.43 223.906 Q2277.79 223.906 2279.88 224.253 Q2281.96 224.6 2283.72 225.294 Z" fill="#000000" fill-rule="nonzero" fill-opacity="1" /><path clip-path="url(#clip590)" d="M2314.07 236.429 L2314.07 238.512 L2294.48 238.512 Q2294.76 242.91 2297.12 245.225 Q2299.51 247.516 2303.74 247.516 Q2306.2 247.516 2308.49 246.915 Q2310.8 246.313 2313.07 245.109 L2313.07 249.137 Q2310.78 250.109 2308.37 250.618 Q2305.96 251.128 2303.49 251.128 Q2297.28 251.128 2293.65 247.516 Q2290.04 243.905 2290.04 237.748 Q2290.04 231.382 2293.46 227.655 Q2296.91 223.906 2302.75 223.906 Q2307.98 223.906 2311.01 227.285 Q2314.07 230.642 2314.07 236.429 M2309.81 235.179 Q2309.76 231.683 2307.84 229.6 Q2305.94 227.517 2302.79 227.517 Q2299.23 227.517 2297.08 229.53 Q2294.95 231.544 2294.62 235.202 L2309.81 235.179 Z" fill="#000000" fill-rule="nonzero" fill-opacity="1" /><path clip-path="url(#clip590)" d="M2338.12 228.466 L2338.12 214.438 L2342.38 214.438 L2342.38 250.456 L2338.12 250.456 L2338.12 246.567 Q2336.77 248.882 2334.71 250.016 Q2332.68 251.128 2329.81 251.128 Q2325.11 251.128 2322.14 247.378 Q2319.2 243.628 2319.2 237.517 Q2319.2 231.405 2322.14 227.655 Q2325.11 223.906 2329.81 223.906 Q2332.68 223.906 2334.71 225.04 Q2336.77 226.151 2338.12 228.466 M2323.6 237.517 Q2323.6 242.216 2325.52 244.901 Q2327.47 247.563 2330.85 247.563 Q2334.23 247.563 2336.17 244.901 Q2338.12 242.216 2338.12 237.517 Q2338.12 232.817 2336.17 230.155 Q2334.23 227.47 2330.85 227.47 Q2327.47 227.47 2325.52 230.155 Q2323.6 232.817 2323.6 237.517 Z" fill="#000000" fill-rule="nonzero" fill-opacity="1" /><path clip-path="url(#clip590)" d="M2376.45 214.484 Q2373.35 219.808 2371.84 225.017 Q2370.34 230.225 2370.34 235.572 Q2370.34 240.919 2371.84 246.174 Q2373.37 251.405 2376.45 256.706 L2372.75 256.706 Q2369.27 251.266 2367.54 246.012 Q2365.82 240.757 2365.82 235.572 Q2365.82 230.41 2367.54 225.179 Q2369.25 219.947 2372.75 214.484 L2376.45 214.484 Z" fill="#000000" fill-rule="nonzero" fill-opacity="1" /><path clip-path="url(#clip590)" d="M2401.77 237.192 Q2401.77 232.563 2399.85 230.017 Q2397.95 227.47 2394.51 227.47 Q2391.08 227.47 2389.16 230.017 Q2387.26 232.563 2387.26 237.192 Q2387.26 241.799 2389.16 244.345 Q2391.08 246.891 2394.51 246.891 Q2397.95 246.891 2399.85 244.345 Q2401.77 241.799 2401.77 237.192 M2406.03 247.239 Q2406.03 253.859 2403.09 257.077 Q2400.15 260.317 2394.09 260.317 Q2391.84 260.317 2389.85 259.97 Q2387.86 259.646 2385.99 258.952 L2385.99 254.808 Q2387.86 255.827 2389.69 256.313 Q2391.52 256.799 2393.42 256.799 Q2397.61 256.799 2399.69 254.6 Q2401.77 252.424 2401.77 248.003 L2401.77 245.896 Q2400.45 248.188 2398.39 249.322 Q2396.33 250.456 2393.46 250.456 Q2388.7 250.456 2385.78 246.822 Q2382.86 243.188 2382.86 237.192 Q2382.86 231.174 2385.78 227.54 Q2388.7 223.906 2393.46 223.906 Q2396.33 223.906 2398.39 225.04 Q2400.45 226.174 2401.77 228.466 L2401.77 224.531 L2406.03 224.531 L2406.03 247.239 Z" fill="#000000" fill-rule="nonzero" fill-opacity="1" /><path clip-path="url(#clip590)" d="M2429.83 228.512 Q2429.11 228.095 2428.26 227.91 Q2427.42 227.702 2426.4 227.702 Q2422.79 227.702 2420.85 230.063 Q2418.93 232.401 2418.93 236.799 L2418.93 250.456 L2414.64 250.456 L2414.64 224.531 L2418.93 224.531 L2418.93 228.558 Q2420.27 226.197 2422.42 225.063 Q2424.57 223.906 2427.65 223.906 Q2428.09 223.906 2428.63 223.975 Q2429.16 224.021 2429.81 224.137 L2429.83 228.512 Z" fill="#000000" fill-rule="nonzero" fill-opacity="1" /><path clip-path="url(#clip590)" d="M2446.08 237.424 Q2440.92 237.424 2438.93 238.604 Q2436.94 239.785 2436.94 242.632 Q2436.94 244.901 2438.42 246.243 Q2439.92 247.563 2442.49 247.563 Q2446.03 247.563 2448.16 245.063 Q2450.32 242.54 2450.32 238.373 L2450.32 237.424 L2446.08 237.424 M2454.57 235.665 L2454.57 250.456 L2450.32 250.456 L2450.32 246.521 Q2448.86 248.882 2446.68 250.016 Q2444.5 251.128 2441.36 251.128 Q2437.38 251.128 2435.01 248.905 Q2432.68 246.66 2432.68 242.91 Q2432.68 238.535 2435.59 236.313 Q2438.53 234.091 2444.34 234.091 L2450.32 234.091 L2450.32 233.674 Q2450.32 230.734 2448.37 229.137 Q2446.45 227.517 2442.95 227.517 Q2440.73 227.517 2438.63 228.049 Q2436.52 228.581 2434.57 229.646 L2434.57 225.711 Q2436.91 224.808 2439.11 224.368 Q2441.31 223.906 2443.39 223.906 Q2449.02 223.906 2451.8 226.822 Q2454.57 229.739 2454.57 235.665 Z" fill="#000000" fill-rule="nonzero" fill-opacity="1" /><path clip-path="url(#clip590)" d="M2467.47 246.567 L2467.47 260.317 L2463.19 260.317 L2463.19 224.531 L2467.47 224.531 L2467.47 228.466 Q2468.81 226.151 2470.85 225.04 Q2472.91 223.906 2475.75 223.906 Q2480.48 223.906 2483.42 227.655 Q2486.38 231.405 2486.38 237.517 Q2486.38 243.628 2483.42 247.378 Q2480.48 251.128 2475.75 251.128 Q2472.91 251.128 2470.85 250.016 Q2468.81 248.882 2467.47 246.567 M2481.96 237.517 Q2481.96 232.817 2480.01 230.155 Q2478.09 227.47 2474.71 227.47 Q2471.33 227.47 2469.39 230.155 Q2467.47 232.817 2467.47 237.517 Q2467.47 242.216 2469.39 244.901 Q2471.33 247.563 2474.71 247.563 Q2478.09 247.563 2480.01 244.901 Q2481.96 242.216 2481.96 237.517 Z" fill="#000000" fill-rule="nonzero" fill-opacity="1" /><path clip-path="url(#clip590)" d="M2514.99 234.808 L2514.99 250.456 L2510.73 250.456 L2510.73 234.947 Q2510.73 231.267 2509.3 229.438 Q2507.86 227.609 2504.99 227.609 Q2501.54 227.609 2499.55 229.808 Q2497.56 232.007 2497.56 235.804 L2497.56 250.456 L2493.28 250.456 L2493.28 214.438 L2497.56 214.438 L2497.56 228.558 Q2499.09 226.22 2501.15 225.063 Q2503.23 223.906 2505.94 223.906 Q2510.41 223.906 2512.7 226.683 Q2514.99 229.438 2514.99 234.808 Z" fill="#000000" fill-rule="nonzero" fill-opacity="1" /><path clip-path="url(#clip590)" d="M2522.81 214.484 L2526.52 214.484 Q2529.99 219.947 2531.7 225.179 Q2533.44 230.41 2533.44 235.572 Q2533.44 240.757 2531.7 246.012 Q2529.99 251.266 2526.52 256.706 L2522.81 256.706 Q2525.89 251.405 2527.4 246.174 Q2528.93 240.919 2528.93 235.572 Q2528.93 230.225 2527.4 225.017 Q2525.89 219.808 2522.81 214.484 Z" fill="#000000" fill-rule="nonzero" fill-opacity="1" /><polyline clip-path="url(#clip590)" style="stroke:#0000ff; stroke-linecap:round; stroke-linejoin:round; stroke-width:8; stroke-opacity:1; fill:none" points="1772.44,285.016 1933.42,285.016 "/>
<path clip-path="url(#clip590)" d="M1964.92 271.579 L1964.92 284.565 L1970.8 284.565 Q1974.07 284.565 1975.85 282.875 Q1977.63 281.185 1977.63 278.06 Q1977.63 274.958 1975.85 273.269 Q1974.07 271.579 1970.8 271.579 L1964.92 271.579 M1960.25 267.736 L1970.8 267.736 Q1976.61 267.736 1979.58 270.375 Q1982.56 272.991 1982.56 278.06 Q1982.56 283.176 1979.58 285.792 Q1976.61 288.407 1970.8 288.407 L1964.92 288.407 L1964.92 302.296 L1960.25 302.296 L1960.25 267.736 Z" fill="#000000" fill-rule="nonzero" fill-opacity="1" /><path clip-path="url(#clip590)" d="M1998.3 289.264 Q1993.14 289.264 1991.15 290.444 Q1989.16 291.625 1989.16 294.472 Q1989.16 296.741 1990.64 298.083 Q1992.15 299.403 1994.72 299.403 Q1998.26 299.403 2000.39 296.903 Q2002.54 294.38 2002.54 290.213 L2002.54 289.264 L1998.3 289.264 M2006.8 287.505 L2006.8 302.296 L2002.54 302.296 L2002.54 298.361 Q2001.08 300.722 1998.91 301.856 Q1996.73 302.968 1993.58 302.968 Q1989.6 302.968 1987.24 300.745 Q1984.9 298.5 1984.9 294.75 Q1984.9 290.375 1987.82 288.153 Q1990.76 285.931 1996.57 285.931 L2002.54 285.931 L2002.54 285.514 Q2002.54 282.574 2000.6 280.977 Q1998.67 279.357 1995.18 279.357 Q1992.96 279.357 1990.85 279.889 Q1988.74 280.421 1986.8 281.486 L1986.8 277.551 Q1989.14 276.648 1991.34 276.208 Q1993.54 275.746 1995.62 275.746 Q2001.24 275.746 2004.02 278.662 Q2006.8 281.579 2006.8 287.505 Z" fill="#000000" fill-rule="nonzero" fill-opacity="1" /><path clip-path="url(#clip590)" d="M2015.57 276.371 L2019.83 276.371 L2019.83 302.296 L2015.57 302.296 L2015.57 276.371 M2015.57 266.278 L2019.83 266.278 L2019.83 271.671 L2015.57 271.671 L2015.57 266.278 Z" fill="#000000" fill-rule="nonzero" fill-opacity="1" /><path clip-path="url(#clip590)" d="M2043.77 280.352 Q2043.05 279.935 2042.19 279.75 Q2041.36 279.542 2040.34 279.542 Q2036.73 279.542 2034.78 281.903 Q2032.86 284.241 2032.86 288.639 L2032.86 302.296 L2028.58 302.296 L2028.58 276.371 L2032.86 276.371 L2032.86 280.398 Q2034.21 278.037 2036.36 276.903 Q2038.51 275.746 2041.59 275.746 Q2042.03 275.746 2042.56 275.815 Q2043.1 275.861 2043.74 275.977 L2043.77 280.352 Z" fill="#000000" fill-rule="nonzero" fill-opacity="1" /><path clip-path="url(#clip590)" d="M2043.05 287.412 L2055.53 287.412 L2055.53 291.208 L2043.05 291.208 L2043.05 287.412 Z" fill="#000000" fill-rule="nonzero" fill-opacity="1" /><path clip-path="url(#clip590)" d="M2080.92 289.357 Q2080.92 284.657 2078.97 281.995 Q2077.05 279.31 2073.67 279.31 Q2070.29 279.31 2068.35 281.995 Q2066.43 284.657 2066.43 289.357 Q2066.43 294.056 2068.35 296.741 Q2070.29 299.403 2073.67 299.403 Q2077.05 299.403 2078.97 296.741 Q2080.92 294.056 2080.92 289.357 M2066.43 280.306 Q2067.77 277.991 2069.81 276.88 Q2071.87 275.746 2074.72 275.746 Q2079.44 275.746 2082.38 279.495 Q2085.34 283.245 2085.34 289.357 Q2085.34 295.468 2082.38 299.218 Q2079.44 302.968 2074.72 302.968 Q2071.87 302.968 2069.81 301.856 Q2067.77 300.722 2066.43 298.407 L2066.43 302.296 L2062.15 302.296 L2062.15 266.278 L2066.43 266.278 L2066.43 280.306 Z" fill="#000000" fill-rule="nonzero" fill-opacity="1" /><path clip-path="url(#clip590)" d="M2104.18 289.264 Q2099.02 289.264 2097.03 290.444 Q2095.04 291.625 2095.04 294.472 Q2095.04 296.741 2096.52 298.083 Q2098.03 299.403 2100.59 299.403 Q2104.14 299.403 2106.27 296.903 Q2108.42 294.38 2108.42 290.213 L2108.42 289.264 L2104.18 289.264 M2112.68 287.505 L2112.68 302.296 L2108.42 302.296 L2108.42 298.361 Q2106.96 300.722 2104.78 301.856 Q2102.61 302.968 2099.46 302.968 Q2095.48 302.968 2093.12 300.745 Q2090.78 298.5 2090.78 294.75 Q2090.78 290.375 2093.7 288.153 Q2096.64 285.931 2102.45 285.931 L2108.42 285.931 L2108.42 285.514 Q2108.42 282.574 2106.47 280.977 Q2104.55 279.357 2101.06 279.357 Q2098.84 279.357 2096.73 279.889 Q2094.62 280.421 2092.68 281.486 L2092.68 277.551 Q2095.02 276.648 2097.22 276.208 Q2099.41 275.746 2101.5 275.746 Q2107.12 275.746 2109.9 278.662 Q2112.68 281.579 2112.68 287.505 Z" fill="#000000" fill-rule="nonzero" fill-opacity="1" /><path clip-path="url(#clip590)" d="M2137.98 277.134 L2137.98 281.162 Q2136.17 280.236 2134.23 279.773 Q2132.28 279.31 2130.2 279.31 Q2127.03 279.31 2125.43 280.283 Q2123.86 281.255 2123.86 283.199 Q2123.86 284.681 2124.99 285.537 Q2126.13 286.37 2129.55 287.134 L2131.01 287.458 Q2135.55 288.431 2137.45 290.213 Q2139.37 291.972 2139.37 295.144 Q2139.37 298.755 2136.5 300.861 Q2133.65 302.968 2128.65 302.968 Q2126.57 302.968 2124.3 302.551 Q2122.05 302.157 2119.55 301.347 L2119.55 296.949 Q2121.91 298.176 2124.21 298.801 Q2126.5 299.403 2128.74 299.403 Q2131.75 299.403 2133.37 298.384 Q2134.99 297.343 2134.99 295.468 Q2134.99 293.732 2133.81 292.806 Q2132.65 291.88 2128.7 291.023 L2127.21 290.676 Q2123.26 289.843 2121.5 288.13 Q2119.74 286.394 2119.74 283.384 Q2119.74 279.727 2122.33 277.736 Q2124.92 275.746 2129.69 275.746 Q2132.05 275.746 2134.14 276.093 Q2136.22 276.44 2137.98 277.134 Z" fill="#000000" fill-rule="nonzero" fill-opacity="1" /><path clip-path="url(#clip590)" d="M2168.33 288.269 L2168.33 290.352 L2148.74 290.352 Q2149.02 294.75 2151.38 297.065 Q2153.77 299.356 2158 299.356 Q2160.46 299.356 2162.75 298.755 Q2165.06 298.153 2167.33 296.949 L2167.33 300.977 Q2165.04 301.949 2162.63 302.458 Q2160.22 302.968 2157.75 302.968 Q2151.54 302.968 2147.91 299.356 Q2144.3 295.745 2144.3 289.588 Q2144.3 283.222 2147.72 279.495 Q2151.17 275.746 2157.01 275.746 Q2162.24 275.746 2165.27 279.125 Q2168.33 282.482 2168.33 288.269 M2164.07 287.019 Q2164.02 283.523 2162.1 281.44 Q2160.2 279.357 2157.05 279.357 Q2153.49 279.357 2151.34 281.37 Q2149.21 283.384 2148.88 287.042 L2164.07 287.019 Z" fill="#000000" fill-rule="nonzero" fill-opacity="1" /><path clip-path="url(#clip590)" d="M2192.38 280.306 L2192.38 266.278 L2196.64 266.278 L2196.64 302.296 L2192.38 302.296 L2192.38 298.407 Q2191.03 300.722 2188.97 301.856 Q2186.94 302.968 2184.07 302.968 Q2179.37 302.968 2176.4 299.218 Q2173.46 295.468 2173.46 289.357 Q2173.46 283.245 2176.4 279.495 Q2179.37 275.746 2184.07 275.746 Q2186.94 275.746 2188.97 276.88 Q2191.03 277.991 2192.38 280.306 M2177.86 289.357 Q2177.86 294.056 2179.78 296.741 Q2181.73 299.403 2185.11 299.403 Q2188.49 299.403 2190.43 296.741 Q2192.38 294.056 2192.38 289.357 Q2192.38 284.657 2190.43 281.995 Q2188.49 279.31 2185.11 279.31 Q2181.73 279.31 2179.78 281.995 Q2177.86 284.657 2177.86 289.357 Z" fill="#000000" fill-rule="nonzero" fill-opacity="1" /><path clip-path="url(#clip590)" d="M2230.71 266.324 Q2227.61 271.648 2226.1 276.857 Q2224.6 282.065 2224.6 287.412 Q2224.6 292.759 2226.1 298.014 Q2227.63 303.245 2230.71 308.546 L2227.01 308.546 Q2223.53 303.106 2221.8 297.852 Q2220.08 292.597 2220.08 287.412 Q2220.08 282.25 2221.8 277.019 Q2223.51 271.787 2227.01 266.324 L2230.71 266.324 Z" fill="#000000" fill-rule="nonzero" fill-opacity="1" /><path clip-path="url(#clip590)" d="M2256.03 289.032 Q2256.03 284.403 2254.11 281.857 Q2252.21 279.31 2248.77 279.31 Q2245.34 279.31 2243.42 281.857 Q2241.52 284.403 2241.52 289.032 Q2241.52 293.639 2243.42 296.185 Q2245.34 298.731 2248.77 298.731 Q2252.21 298.731 2254.11 296.185 Q2256.03 293.639 2256.03 289.032 M2260.29 299.079 Q2260.29 305.699 2257.35 308.917 Q2254.41 312.157 2248.35 312.157 Q2246.1 312.157 2244.11 311.81 Q2242.12 311.486 2240.25 310.792 L2240.25 306.648 Q2242.12 307.667 2243.95 308.153 Q2245.78 308.639 2247.68 308.639 Q2251.87 308.639 2253.95 306.44 Q2256.03 304.264 2256.03 299.843 L2256.03 297.736 Q2254.71 300.028 2252.65 301.162 Q2250.59 302.296 2247.72 302.296 Q2242.96 302.296 2240.04 298.662 Q2237.12 295.028 2237.12 289.032 Q2237.12 283.014 2240.04 279.38 Q2242.96 275.746 2247.72 275.746 Q2250.59 275.746 2252.65 276.88 Q2254.71 278.014 2256.03 280.306 L2256.03 276.371 L2260.29 276.371 L2260.29 299.079 Z" fill="#000000" fill-rule="nonzero" fill-opacity="1" /><path clip-path="url(#clip590)" d="M2284.09 280.352 Q2283.37 279.935 2282.52 279.75 Q2281.68 279.542 2280.66 279.542 Q2277.05 279.542 2275.11 281.903 Q2273.19 284.241 2273.19 288.639 L2273.19 302.296 L2268.9 302.296 L2268.9 276.371 L2273.19 276.371 L2273.19 280.398 Q2274.53 278.037 2276.68 276.903 Q2278.83 275.746 2281.91 275.746 Q2282.35 275.746 2282.89 275.815 Q2283.42 275.861 2284.07 275.977 L2284.09 280.352 Z" fill="#000000" fill-rule="nonzero" fill-opacity="1" /><path clip-path="url(#clip590)" d="M2300.34 289.264 Q2295.18 289.264 2293.19 290.444 Q2291.2 291.625 2291.2 294.472 Q2291.2 296.741 2292.68 298.083 Q2294.18 299.403 2296.75 299.403 Q2300.29 299.403 2302.42 296.903 Q2304.58 294.38 2304.58 290.213 L2304.58 289.264 L2300.34 289.264 M2308.83 287.505 L2308.83 302.296 L2304.58 302.296 L2304.58 298.361 Q2303.12 300.722 2300.94 301.856 Q2298.76 302.968 2295.62 302.968 Q2291.64 302.968 2289.27 300.745 Q2286.94 298.5 2286.94 294.75 Q2286.94 290.375 2289.85 288.153 Q2292.79 285.931 2298.6 285.931 L2304.58 285.931 L2304.58 285.514 Q2304.58 282.574 2302.63 280.977 Q2300.71 279.357 2297.21 279.357 Q2294.99 279.357 2292.89 279.889 Q2290.78 280.421 2288.83 281.486 L2288.83 277.551 Q2291.17 276.648 2293.37 276.208 Q2295.57 275.746 2297.65 275.746 Q2303.28 275.746 2306.06 278.662 Q2308.83 281.579 2308.83 287.505 Z" fill="#000000" fill-rule="nonzero" fill-opacity="1" /><path clip-path="url(#clip590)" d="M2321.73 298.407 L2321.73 312.157 L2317.45 312.157 L2317.45 276.371 L2321.73 276.371 L2321.73 280.306 Q2323.07 277.991 2325.11 276.88 Q2327.17 275.746 2330.01 275.746 Q2334.74 275.746 2337.68 279.495 Q2340.64 283.245 2340.64 289.357 Q2340.64 295.468 2337.68 299.218 Q2334.74 302.968 2330.01 302.968 Q2327.17 302.968 2325.11 301.856 Q2323.07 300.722 2321.73 298.407 M2336.22 289.357 Q2336.22 284.657 2334.27 281.995 Q2332.35 279.31 2328.97 279.31 Q2325.59 279.31 2323.65 281.995 Q2321.73 284.657 2321.73 289.357 Q2321.73 294.056 2323.65 296.741 Q2325.59 299.403 2328.97 299.403 Q2332.35 299.403 2334.27 296.741 Q2336.22 294.056 2336.22 289.357 Z" fill="#000000" fill-rule="nonzero" fill-opacity="1" /><path clip-path="url(#clip590)" d="M2369.25 286.648 L2369.25 302.296 L2364.99 302.296 L2364.99 286.787 Q2364.99 283.107 2363.56 281.278 Q2362.12 279.449 2359.25 279.449 Q2355.8 279.449 2353.81 281.648 Q2351.82 283.847 2351.82 287.644 L2351.82 302.296 L2347.54 302.296 L2347.54 266.278 L2351.82 266.278 L2351.82 280.398 Q2353.35 278.06 2355.41 276.903 Q2357.49 275.746 2360.2 275.746 Q2364.67 275.746 2366.96 278.523 Q2369.25 281.278 2369.25 286.648 Z" fill="#000000" fill-rule="nonzero" fill-opacity="1" /><path clip-path="url(#clip590)" d="M2377.07 266.324 L2380.78 266.324 Q2384.25 271.787 2385.96 277.019 Q2387.7 282.25 2387.7 287.412 Q2387.7 292.597 2385.96 297.852 Q2384.25 303.106 2380.78 308.546 L2377.07 308.546 Q2380.15 303.245 2381.66 298.014 Q2383.19 292.759 2383.19 287.412 Q2383.19 282.065 2381.66 276.857 Q2380.15 271.648 2377.07 266.324 Z" fill="#000000" fill-rule="nonzero" fill-opacity="1" /></svg>
