<?xml version="1.0" encoding="utf-8"?>
<svg xmlns="http://www.w3.org/2000/svg" xmlns:xlink="http://www.w3.org/1999/xlink" width="672" height="480" viewBox="0 0 2688 1920">
<defs>
  <clipPath id="clip650">
    <rect x="0" y="0" width="2688" height="1920"/>
  </clipPath>
</defs>
<path clip-path="url(#clip650)" d="M0 1920 L2688 1920 L2688 -4.26326e-14 L0 -4.26326e-14  Z" fill="#ffffff" fill-rule="evenodd" fill-opacity="1"/>
<defs>
  <clipPath id="clip651">
    <rect x="226" y="127" width="2416" height="1607"/>
  </clipPath>
</defs>
<path clip-path="url(#clip650)" d="M226.141 1734.12 L2640.76 1734.12 L2640.76 127.792 L226.141 127.792  Z" fill="#ffffff" fill-rule="evenodd" fill-opacity="1"/>
<polyline clip-path="url(#clip651)" style="stroke:#000000; stroke-linecap:round; stroke-linejoin:round; stroke-width:2; stroke-opacity:0.1; fill:none" points="294.479,1734.12 294.479,127.792 "/>
<polyline clip-path="url(#clip651)" style="stroke:#000000; stroke-linecap:round; stroke-linejoin:round; stroke-width:2; stroke-opacity:0.1; fill:none" points="863.963,1734.12 863.963,127.792 "/>
<polyline clip-path="url(#clip651)" style="stroke:#000000; stroke-linecap:round; stroke-linejoin:round; stroke-width:2; stroke-opacity:0.1; fill:none" points="1433.45,1734.12 1433.45,127.792 "/>
<polyline clip-path="url(#clip651)" style="stroke:#000000; stroke-linecap:round; stroke-linejoin:round; stroke-width:2; stroke-opacity:0.1; fill:none" points="2002.93,1734.12 2002.93,127.792 "/>
<polyline clip-path="url(#clip651)" style="stroke:#000000; stroke-linecap:round; stroke-linejoin:round; stroke-width:2; stroke-opacity:0.1; fill:none" points="2572.42,1734.12 2572.42,127.792 "/>
<polyline clip-path="url(#clip651)" style="stroke:#000000; stroke-linecap:round; stroke-linejoin:round; stroke-width:2; stroke-opacity:0.1; fill:none" points="226.141,1688.88 2640.76,1688.88 "/>
<polyline clip-path="url(#clip651)" style="stroke:#000000; stroke-linecap:round; stroke-linejoin:round; stroke-width:2; stroke-opacity:0.1; fill:none" points="226.141,1436.56 2640.76,1436.56 "/>
<polyline clip-path="url(#clip651)" style="stroke:#000000; stroke-linecap:round; stroke-linejoin:round; stroke-width:2; stroke-opacity:0.1; fill:none" points="226.141,1184.25 2640.76,1184.25 "/>
<polyline clip-path="url(#clip651)" style="stroke:#000000; stroke-linecap:round; stroke-linejoin:round; stroke-width:2; stroke-opacity:0.1; fill:none" points="226.141,931.933 2640.76,931.933 "/>
<polyline clip-path="url(#clip651)" style="stroke:#000000; stroke-linecap:round; stroke-linejoin:round; stroke-width:2; stroke-opacity:0.1; fill:none" points="226.141,679.617 2640.76,679.617 "/>
<polyline clip-path="url(#clip651)" style="stroke:#000000; stroke-linecap:round; stroke-linejoin:round; stroke-width:2; stroke-opacity:0.1; fill:none" points="226.141,427.301 2640.76,427.301 "/>
<polyline clip-path="url(#clip651)" style="stroke:#000000; stroke-linecap:round; stroke-linejoin:round; stroke-width:2; stroke-opacity:0.1; fill:none" points="226.141,174.985 2640.76,174.985 "/>
<polyline clip-path="url(#clip650)" style="stroke:#000000; stroke-linecap:round; stroke-linejoin:round; stroke-width:4; stroke-opacity:1; fill:none" points="226.141,1734.12 2640.76,1734.12 "/>
<polyline clip-path="url(#clip650)" style="stroke:#000000; stroke-linecap:round; stroke-linejoin:round; stroke-width:4; stroke-opacity:1; fill:none" points="294.479,1734.12 294.479,1715.22 "/>
<polyline clip-path="url(#clip650)" style="stroke:#000000; stroke-linecap:round; stroke-linejoin:round; stroke-width:4; stroke-opacity:1; fill:none" points="863.963,1734.12 863.963,1715.22 "/>
<polyline clip-path="url(#clip650)" style="stroke:#000000; stroke-linecap:round; stroke-linejoin:round; stroke-width:4; stroke-opacity:1; fill:none" points="1433.45,1734.12 1433.45,1715.22 "/>
<polyline clip-path="url(#clip650)" style="stroke:#000000; stroke-linecap:round; stroke-linejoin:round; stroke-width:4; stroke-opacity:1; fill:none" points="2002.93,1734.12 2002.93,1715.22 "/>
<polyline clip-path="url(#clip650)" style="stroke:#000000; stroke-linecap:round; stroke-linejoin:round; stroke-width:4; stroke-opacity:1; fill:none" points="2572.42,1734.12 2572.42,1715.22 "/>
<path clip-path="url(#clip650)" d="M294.479 1767.34 Q290.868 1767.34 289.039 1770.9 Q287.233 1774.45 287.233 1781.58 Q287.233 1788.68 289.039 1792.25 Q290.868 1795.79 294.479 1795.79 Q298.113 1795.79 299.919 1792.25 Q301.747 1788.68 301.747 1781.58 Q301.747 1774.45 299.919 1770.9 Q298.113 1767.34 294.479 1767.34 M294.479 1763.64 Q300.289 1763.64 303.344 1768.24 Q306.423 1772.83 306.423 1781.58 Q306.423 1790.3 303.344 1794.91 Q300.289 1799.49 294.479 1799.49 Q288.669 1799.49 285.59 1794.91 Q282.534 1790.3 282.534 1781.58 Q282.534 1772.83 285.59 1768.24 Q288.669 1763.64 294.479 1763.64 Z" fill="#000000" fill-rule="nonzero" fill-opacity="1" /><path clip-path="url(#clip650)" d="M843.234 1794.89 L859.554 1794.89 L859.554 1798.82 L837.609 1798.82 L837.609 1794.89 Q840.271 1792.13 844.855 1787.5 Q849.461 1782.85 850.642 1781.51 Q852.887 1778.98 853.767 1777.25 Q854.67 1775.49 854.67 1773.8 Q854.67 1771.04 852.725 1769.31 Q850.804 1767.57 847.702 1767.57 Q845.503 1767.57 843.049 1768.34 Q840.619 1769.1 837.841 1770.65 L837.841 1765.93 Q840.665 1764.79 843.119 1764.21 Q845.572 1763.64 847.609 1763.64 Q852.98 1763.64 856.174 1766.32 Q859.369 1769.01 859.369 1773.5 Q859.369 1775.63 858.558 1777.55 Q857.771 1779.45 855.665 1782.04 Q855.086 1782.71 851.984 1785.93 Q848.883 1789.12 843.234 1794.89 Z" fill="#000000" fill-rule="nonzero" fill-opacity="1" /><path clip-path="url(#clip650)" d="M869.415 1764.26 L887.771 1764.26 L887.771 1768.2 L873.697 1768.2 L873.697 1776.67 Q874.716 1776.32 875.734 1776.16 Q876.753 1775.97 877.771 1775.97 Q883.558 1775.97 886.938 1779.15 Q890.318 1782.32 890.318 1787.73 Q890.318 1793.31 886.845 1796.41 Q883.373 1799.49 877.054 1799.49 Q874.878 1799.49 872.609 1799.12 Q870.364 1798.75 867.957 1798.01 L867.957 1793.31 Q870.04 1794.45 872.262 1795 Q874.484 1795.56 876.961 1795.56 Q880.966 1795.56 883.304 1793.45 Q885.642 1791.34 885.642 1787.73 Q885.642 1784.12 883.304 1782.02 Q880.966 1779.91 876.961 1779.91 Q875.086 1779.91 873.211 1780.33 Q871.359 1780.74 869.415 1781.62 L869.415 1764.26 Z" fill="#000000" fill-rule="nonzero" fill-opacity="1" /><path clip-path="url(#clip650)" d="M1408.15 1764.26 L1426.5 1764.26 L1426.5 1768.2 L1412.43 1768.2 L1412.43 1776.67 Q1413.45 1776.32 1414.47 1776.16 Q1415.49 1775.97 1416.5 1775.97 Q1422.29 1775.97 1425.67 1779.15 Q1429.05 1782.32 1429.05 1787.73 Q1429.05 1793.31 1425.58 1796.41 Q1422.11 1799.49 1415.79 1799.49 Q1413.61 1799.49 1411.34 1799.12 Q1409.1 1798.75 1406.69 1798.01 L1406.69 1793.31 Q1408.77 1794.45 1410.99 1795 Q1413.22 1795.56 1415.69 1795.56 Q1419.7 1795.56 1422.04 1793.45 Q1424.37 1791.34 1424.37 1787.73 Q1424.37 1784.12 1422.04 1782.02 Q1419.7 1779.91 1415.69 1779.91 Q1413.82 1779.91 1411.94 1780.33 Q1410.09 1780.74 1408.15 1781.62 L1408.15 1764.26 Z" fill="#000000" fill-rule="nonzero" fill-opacity="1" /><path clip-path="url(#clip650)" d="M1448.26 1767.34 Q1444.65 1767.34 1442.82 1770.9 Q1441.02 1774.45 1441.02 1781.58 Q1441.02 1788.68 1442.82 1792.25 Q1444.65 1795.79 1448.26 1795.79 Q1451.9 1795.79 1453.7 1792.25 Q1455.53 1788.68 1455.53 1781.58 Q1455.53 1774.45 1453.7 1770.9 Q1451.9 1767.34 1448.26 1767.34 M1448.26 1763.64 Q1454.07 1763.64 1457.13 1768.24 Q1460.21 1772.83 1460.21 1781.58 Q1460.21 1790.3 1457.13 1794.91 Q1454.07 1799.49 1448.26 1799.49 Q1442.45 1799.49 1439.37 1794.91 Q1436.32 1790.3 1436.32 1781.58 Q1436.32 1772.83 1439.37 1768.24 Q1442.45 1763.64 1448.26 1763.64 Z" fill="#000000" fill-rule="nonzero" fill-opacity="1" /><path clip-path="url(#clip650)" d="M1976.79 1764.26 L1999.01 1764.26 L1999.01 1766.25 L1986.46 1798.82 L1981.58 1798.82 L1993.38 1768.2 L1976.79 1768.2 L1976.79 1764.26 Z" fill="#000000" fill-rule="nonzero" fill-opacity="1" /><path clip-path="url(#clip650)" d="M2008.18 1764.26 L2026.53 1764.26 L2026.53 1768.2 L2012.46 1768.2 L2012.46 1776.67 Q2013.48 1776.32 2014.5 1776.16 Q2015.51 1775.97 2016.53 1775.97 Q2022.32 1775.97 2025.7 1779.15 Q2029.08 1782.32 2029.08 1787.73 Q2029.08 1793.31 2025.61 1796.41 Q2022.13 1799.49 2015.81 1799.49 Q2013.64 1799.49 2011.37 1799.12 Q2009.13 1798.75 2006.72 1798.01 L2006.72 1793.31 Q2008.8 1794.45 2011.02 1795 Q2013.25 1795.56 2015.72 1795.56 Q2019.73 1795.56 2022.06 1793.45 Q2024.4 1791.34 2024.4 1787.73 Q2024.4 1784.12 2022.06 1782.02 Q2019.73 1779.91 2015.72 1779.91 Q2013.85 1779.91 2011.97 1780.33 Q2010.12 1780.74 2008.18 1781.62 L2008.18 1764.26 Z" fill="#000000" fill-rule="nonzero" fill-opacity="1" /><path clip-path="url(#clip650)" d="M2532.02 1794.89 L2539.66 1794.89 L2539.66 1768.52 L2531.35 1770.19 L2531.35 1765.93 L2539.62 1764.26 L2544.29 1764.26 L2544.29 1794.89 L2551.93 1794.89 L2551.93 1798.82 L2532.02 1798.82 L2532.02 1794.89 Z" fill="#000000" fill-rule="nonzero" fill-opacity="1" /><path clip-path="url(#clip650)" d="M2571.38 1767.34 Q2567.76 1767.34 2565.94 1770.9 Q2564.13 1774.45 2564.13 1781.58 Q2564.13 1788.68 2565.94 1792.25 Q2567.76 1795.79 2571.38 1795.79 Q2575.01 1795.79 2576.82 1792.25 Q2578.64 1788.68 2578.64 1781.58 Q2578.64 1774.45 2576.82 1770.9 Q2575.01 1767.34 2571.38 1767.34 M2571.38 1763.64 Q2577.19 1763.64 2580.24 1768.24 Q2583.32 1772.83 2583.32 1781.58 Q2583.32 1790.3 2580.24 1794.91 Q2577.19 1799.49 2571.38 1799.49 Q2565.57 1799.49 2562.49 1794.91 Q2559.43 1790.3 2559.43 1781.58 Q2559.43 1772.83 2562.49 1768.24 Q2565.57 1763.64 2571.38 1763.64 Z" fill="#000000" fill-rule="nonzero" fill-opacity="1" /><path clip-path="url(#clip650)" d="M2601.54 1767.34 Q2597.93 1767.34 2596.1 1770.9 Q2594.29 1774.45 2594.29 1781.58 Q2594.29 1788.68 2596.1 1792.25 Q2597.93 1795.79 2601.54 1795.79 Q2605.17 1795.79 2606.98 1792.25 Q2608.81 1788.68 2608.81 1781.58 Q2608.81 1774.45 2606.98 1770.9 Q2605.17 1767.34 2601.54 1767.34 M2601.54 1763.64 Q2607.35 1763.64 2610.4 1768.24 Q2613.48 1772.83 2613.48 1781.58 Q2613.48 1790.3 2610.4 1794.91 Q2607.35 1799.49 2601.54 1799.49 Q2595.73 1799.49 2592.65 1794.91 Q2589.59 1790.3 2589.59 1781.58 Q2589.59 1772.83 2592.65 1768.24 Q2595.73 1763.64 2601.54 1763.64 Z" fill="#000000" fill-rule="nonzero" fill-opacity="1" /><path clip-path="url(#clip650)" d="M1355.33 1835.78 L1395.52 1835.78 L1395.52 1841.19 L1378.66 1841.19 L1378.66 1883.3 L1372.19 1883.3 L1372.19 1841.19 L1355.33 1841.19 L1355.33 1835.78 Z" fill="#000000" fill-rule="nonzero" fill-opacity="1" /><path clip-path="url(#clip650)" d="M1399.47 1847.65 L1405.33 1847.65 L1405.33 1883.3 L1399.47 1883.3 L1399.47 1847.65 M1399.47 1833.78 L1405.33 1833.78 L1405.33 1841.19 L1399.47 1841.19 L1399.47 1833.78 Z" fill="#000000" fill-rule="nonzero" fill-opacity="1" /><path clip-path="url(#clip650)" d="M1445.34 1854.5 Q1447.53 1850.55 1450.59 1848.67 Q1453.64 1846.79 1457.78 1846.79 Q1463.35 1846.79 1466.37 1850.71 Q1469.4 1854.59 1469.4 1861.78 L1469.4 1883.3 L1463.51 1883.3 L1463.51 1861.98 Q1463.51 1856.85 1461.7 1854.37 Q1459.88 1851.89 1456.16 1851.89 Q1451.61 1851.89 1448.96 1854.91 Q1446.32 1857.93 1446.32 1863.15 L1446.32 1883.3 L1440.43 1883.3 L1440.43 1861.98 Q1440.43 1856.82 1438.62 1854.37 Q1436.81 1851.89 1433.02 1851.89 Q1428.53 1851.89 1425.89 1854.94 Q1423.25 1857.97 1423.25 1863.15 L1423.25 1883.3 L1417.36 1883.3 L1417.36 1847.65 L1423.25 1847.65 L1423.25 1853.19 Q1425.25 1849.91 1428.05 1848.35 Q1430.85 1846.79 1434.71 1846.79 Q1438.59 1846.79 1441.29 1848.77 Q1444.03 1850.74 1445.34 1854.5 Z" fill="#000000" fill-rule="nonzero" fill-opacity="1" /><path clip-path="url(#clip650)" d="M1511.57 1864.01 L1511.57 1866.88 L1484.64 1866.88 Q1485.03 1872.92 1488.27 1876.11 Q1491.55 1879.26 1497.38 1879.26 Q1500.75 1879.26 1503.9 1878.43 Q1507.08 1877.6 1510.2 1875.95 L1510.2 1881.49 Q1507.05 1882.82 1503.74 1883.52 Q1500.43 1884.22 1497.03 1884.22 Q1488.5 1884.22 1483.5 1879.26 Q1478.53 1874.29 1478.53 1865.83 Q1478.53 1857.07 1483.24 1851.95 Q1487.99 1846.79 1496.01 1846.79 Q1503.2 1846.79 1507.37 1851.44 Q1511.57 1856.06 1511.57 1864.01 M1505.71 1862.29 Q1505.65 1857.49 1503.01 1854.62 Q1500.4 1851.76 1496.07 1851.76 Q1491.17 1851.76 1488.21 1854.53 Q1485.28 1857.3 1484.84 1862.33 L1505.71 1862.29 Z" fill="#000000" fill-rule="nonzero" fill-opacity="1" /><polyline clip-path="url(#clip650)" style="stroke:#000000; stroke-linecap:round; stroke-linejoin:round; stroke-width:4; stroke-opacity:1; fill:none" points="226.141,1734.12 226.141,127.792 "/>
<polyline clip-path="url(#clip650)" style="stroke:#000000; stroke-linecap:round; stroke-linejoin:round; stroke-width:4; stroke-opacity:1; fill:none" points="226.141,1688.88 245.038,1688.88 "/>
<polyline clip-path="url(#clip650)" style="stroke:#000000; stroke-linecap:round; stroke-linejoin:round; stroke-width:4; stroke-opacity:1; fill:none" points="226.141,1436.56 245.038,1436.56 "/>
<polyline clip-path="url(#clip650)" style="stroke:#000000; stroke-linecap:round; stroke-linejoin:round; stroke-width:4; stroke-opacity:1; fill:none" points="226.141,1184.25 245.038,1184.25 "/>
<polyline clip-path="url(#clip650)" style="stroke:#000000; stroke-linecap:round; stroke-linejoin:round; stroke-width:4; stroke-opacity:1; fill:none" points="226.141,931.933 245.038,931.933 "/>
<polyline clip-path="url(#clip650)" style="stroke:#000000; stroke-linecap:round; stroke-linejoin:round; stroke-width:4; stroke-opacity:1; fill:none" points="226.141,679.617 245.038,679.617 "/>
<polyline clip-path="url(#clip650)" style="stroke:#000000; stroke-linecap:round; stroke-linejoin:round; stroke-width:4; stroke-opacity:1; fill:none" points="226.141,427.301 245.038,427.301 "/>
<polyline clip-path="url(#clip650)" style="stroke:#000000; stroke-linecap:round; stroke-linejoin:round; stroke-width:4; stroke-opacity:1; fill:none" points="226.141,174.985 245.038,174.985 "/>
<path clip-path="url(#clip650)" d="M128.645 1674.68 Q125.034 1674.68 123.205 1678.24 Q121.4 1681.79 121.4 1688.92 Q121.4 1696.02 123.205 1699.59 Q125.034 1703.13 128.645 1703.13 Q132.279 1703.13 134.085 1699.59 Q135.913 1696.02 135.913 1688.92 Q135.913 1681.79 134.085 1678.24 Q132.279 1674.68 128.645 1674.68 M128.645 1670.98 Q134.455 1670.98 137.511 1675.58 Q140.589 1680.17 140.589 1688.92 Q140.589 1697.64 137.511 1702.25 Q134.455 1706.83 128.645 1706.83 Q122.835 1706.83 119.756 1702.25 Q116.701 1697.64 116.701 1688.92 Q116.701 1680.17 119.756 1675.58 Q122.835 1670.98 128.645 1670.98 Z" fill="#000000" fill-rule="nonzero" fill-opacity="1" /><path clip-path="url(#clip650)" d="M148.807 1700.28 L153.691 1700.28 L153.691 1706.16 L148.807 1706.16 L148.807 1700.28 Z" fill="#000000" fill-rule="nonzero" fill-opacity="1" /><path clip-path="url(#clip650)" d="M173.876 1674.68 Q170.265 1674.68 168.436 1678.24 Q166.631 1681.79 166.631 1688.92 Q166.631 1696.02 168.436 1699.59 Q170.265 1703.13 173.876 1703.13 Q177.51 1703.13 179.316 1699.59 Q181.145 1696.02 181.145 1688.92 Q181.145 1681.79 179.316 1678.24 Q177.51 1674.68 173.876 1674.68 M173.876 1670.98 Q179.686 1670.98 182.742 1675.58 Q185.821 1680.17 185.821 1688.92 Q185.821 1697.64 182.742 1702.25 Q179.686 1706.83 173.876 1706.83 Q168.066 1706.83 164.987 1702.25 Q161.932 1697.64 161.932 1688.92 Q161.932 1680.17 164.987 1675.58 Q168.066 1670.98 173.876 1670.98 Z" fill="#000000" fill-rule="nonzero" fill-opacity="1" /><path clip-path="url(#clip650)" d="M129.872 1422.36 Q126.261 1422.36 124.432 1425.93 Q122.626 1429.47 122.626 1436.6 Q122.626 1443.71 124.432 1447.27 Q126.261 1450.81 129.872 1450.81 Q133.506 1450.81 135.312 1447.27 Q137.14 1443.71 137.14 1436.6 Q137.14 1429.47 135.312 1425.93 Q133.506 1422.36 129.872 1422.36 M129.872 1418.66 Q135.682 1418.66 138.737 1423.27 Q141.816 1427.85 141.816 1436.6 Q141.816 1445.33 138.737 1449.93 Q135.682 1454.52 129.872 1454.52 Q124.062 1454.52 120.983 1449.93 Q117.927 1445.33 117.927 1436.6 Q117.927 1427.85 120.983 1423.27 Q124.062 1418.66 129.872 1418.66 Z" fill="#000000" fill-rule="nonzero" fill-opacity="1" /><path clip-path="url(#clip650)" d="M150.034 1447.97 L154.918 1447.97 L154.918 1453.84 L150.034 1453.84 L150.034 1447.97 Z" fill="#000000" fill-rule="nonzero" fill-opacity="1" /><path clip-path="url(#clip650)" d="M165.913 1449.91 L173.552 1449.91 L173.552 1423.54 L165.242 1425.21 L165.242 1420.95 L173.506 1419.28 L178.182 1419.28 L178.182 1449.91 L185.821 1449.91 L185.821 1453.84 L165.913 1453.84 L165.913 1449.91 Z" fill="#000000" fill-rule="nonzero" fill-opacity="1" /><path clip-path="url(#clip650)" d="M130.242 1170.05 Q126.631 1170.05 124.802 1173.61 Q122.997 1177.15 122.997 1184.28 Q122.997 1191.39 124.802 1194.95 Q126.631 1198.5 130.242 1198.5 Q133.876 1198.5 135.682 1194.95 Q137.511 1191.39 137.511 1184.28 Q137.511 1177.15 135.682 1173.61 Q133.876 1170.05 130.242 1170.05 M130.242 1166.34 Q136.052 1166.34 139.108 1170.95 Q142.187 1175.53 142.187 1184.28 Q142.187 1193.01 139.108 1197.62 Q136.052 1202.2 130.242 1202.2 Q124.432 1202.2 121.353 1197.62 Q118.298 1193.01 118.298 1184.28 Q118.298 1175.53 121.353 1170.95 Q124.432 1166.34 130.242 1166.34 Z" fill="#000000" fill-rule="nonzero" fill-opacity="1" /><path clip-path="url(#clip650)" d="M150.404 1195.65 L155.288 1195.65 L155.288 1201.53 L150.404 1201.53 L150.404 1195.65 Z" fill="#000000" fill-rule="nonzero" fill-opacity="1" /><path clip-path="url(#clip650)" d="M169.501 1197.59 L185.821 1197.59 L185.821 1201.53 L163.876 1201.53 L163.876 1197.59 Q166.538 1194.84 171.122 1190.21 Q175.728 1185.56 176.909 1184.21 Q179.154 1181.69 180.034 1179.96 Q180.936 1178.2 180.936 1176.51 Q180.936 1173.75 178.992 1172.02 Q177.071 1170.28 173.969 1170.28 Q171.77 1170.28 169.316 1171.04 Q166.885 1171.81 164.108 1173.36 L164.108 1168.64 Q166.932 1167.5 169.385 1166.92 Q171.839 1166.34 173.876 1166.34 Q179.247 1166.34 182.441 1169.03 Q185.635 1171.71 185.635 1176.21 Q185.635 1178.33 184.825 1180.26 Q184.038 1182.15 181.932 1184.75 Q181.353 1185.42 178.251 1188.64 Q175.149 1191.83 169.501 1197.59 Z" fill="#000000" fill-rule="nonzero" fill-opacity="1" /><path clip-path="url(#clip650)" d="M129.293 917.732 Q125.682 917.732 123.853 921.296 Q122.048 924.838 122.048 931.968 Q122.048 939.074 123.853 942.639 Q125.682 946.181 129.293 946.181 Q132.927 946.181 134.733 942.639 Q136.562 939.074 136.562 931.968 Q136.562 924.838 134.733 921.296 Q132.927 917.732 129.293 917.732 M129.293 914.028 Q135.103 914.028 138.159 918.634 Q141.237 923.218 141.237 931.968 Q141.237 940.694 138.159 945.301 Q135.103 949.884 129.293 949.884 Q123.483 949.884 120.404 945.301 Q117.349 940.694 117.349 931.968 Q117.349 923.218 120.404 918.634 Q123.483 914.028 129.293 914.028 Z" fill="#000000" fill-rule="nonzero" fill-opacity="1" /><path clip-path="url(#clip650)" d="M149.455 943.333 L154.339 943.333 L154.339 949.213 L149.455 949.213 L149.455 943.333 Z" fill="#000000" fill-rule="nonzero" fill-opacity="1" /><path clip-path="url(#clip650)" d="M178.691 930.579 Q182.047 931.296 183.922 933.565 Q185.821 935.833 185.821 939.167 Q185.821 944.282 182.302 947.083 Q178.784 949.884 172.302 949.884 Q170.126 949.884 167.811 949.444 Q165.52 949.028 163.066 948.171 L163.066 943.657 Q165.01 944.792 167.325 945.37 Q169.64 945.949 172.163 945.949 Q176.561 945.949 178.853 944.213 Q181.168 942.477 181.168 939.167 Q181.168 936.111 179.015 934.398 Q176.885 932.662 173.066 932.662 L169.038 932.662 L169.038 928.82 L173.251 928.82 Q176.7 928.82 178.529 927.454 Q180.358 926.065 180.358 923.472 Q180.358 920.81 178.459 919.398 Q176.584 917.963 173.066 917.963 Q171.145 917.963 168.946 918.38 Q166.747 918.796 164.108 919.676 L164.108 915.509 Q166.77 914.769 169.085 914.398 Q171.422 914.028 173.483 914.028 Q178.807 914.028 181.909 916.458 Q185.01 918.866 185.01 922.986 Q185.01 925.857 183.367 927.847 Q181.723 929.815 178.691 930.579 Z" fill="#000000" fill-rule="nonzero" fill-opacity="1" /><path clip-path="url(#clip650)" d="M128.159 665.416 Q124.548 665.416 122.719 668.98 Q120.913 672.522 120.913 679.652 Q120.913 686.758 122.719 690.323 Q124.548 693.865 128.159 693.865 Q131.793 693.865 133.599 690.323 Q135.427 686.758 135.427 679.652 Q135.427 672.522 133.599 668.98 Q131.793 665.416 128.159 665.416 M128.159 661.712 Q133.969 661.712 137.025 666.318 Q140.103 670.902 140.103 679.652 Q140.103 688.378 137.025 692.985 Q133.969 697.568 128.159 697.568 Q122.349 697.568 119.27 692.985 Q116.214 688.378 116.214 679.652 Q116.214 670.902 119.27 666.318 Q122.349 661.712 128.159 661.712 Z" fill="#000000" fill-rule="nonzero" fill-opacity="1" /><path clip-path="url(#clip650)" d="M148.321 691.017 L153.205 691.017 L153.205 696.897 L148.321 696.897 L148.321 691.017 Z" fill="#000000" fill-rule="nonzero" fill-opacity="1" /><path clip-path="url(#clip650)" d="M176.237 666.411 L164.432 684.86 L176.237 684.86 L176.237 666.411 M175.01 662.337 L180.89 662.337 L180.89 684.86 L185.821 684.86 L185.821 688.749 L180.89 688.749 L180.89 696.897 L176.237 696.897 L176.237 688.749 L160.636 688.749 L160.636 684.235 L175.01 662.337 Z" fill="#000000" fill-rule="nonzero" fill-opacity="1" /><path clip-path="url(#clip650)" d="M129.64 413.1 Q126.029 413.1 124.201 416.664 Q122.395 420.206 122.395 427.336 Q122.395 434.442 124.201 438.007 Q126.029 441.549 129.64 441.549 Q133.275 441.549 135.08 438.007 Q136.909 434.442 136.909 427.336 Q136.909 420.206 135.08 416.664 Q133.275 413.1 129.64 413.1 M129.64 409.396 Q135.45 409.396 138.506 414.002 Q141.585 418.586 141.585 427.336 Q141.585 436.062 138.506 440.669 Q135.45 445.252 129.64 445.252 Q123.83 445.252 120.751 440.669 Q117.696 436.062 117.696 427.336 Q117.696 418.586 120.751 414.002 Q123.83 409.396 129.64 409.396 Z" fill="#000000" fill-rule="nonzero" fill-opacity="1" /><path clip-path="url(#clip650)" d="M149.802 438.701 L154.686 438.701 L154.686 444.581 L149.802 444.581 L149.802 438.701 Z" fill="#000000" fill-rule="nonzero" fill-opacity="1" /><path clip-path="url(#clip650)" d="M164.918 410.021 L183.274 410.021 L183.274 413.956 L169.2 413.956 L169.2 422.428 Q170.219 422.081 171.237 421.919 Q172.256 421.734 173.274 421.734 Q179.061 421.734 182.441 424.905 Q185.821 428.076 185.821 433.493 Q185.821 439.072 182.348 442.174 Q178.876 445.252 172.557 445.252 Q170.381 445.252 168.112 444.882 Q165.867 444.511 163.46 443.771 L163.46 439.072 Q165.543 440.206 167.765 440.761 Q169.987 441.317 172.464 441.317 Q176.469 441.317 178.807 439.211 Q181.145 437.104 181.145 433.493 Q181.145 429.882 178.807 427.775 Q176.469 425.669 172.464 425.669 Q170.589 425.669 168.714 426.086 Q166.862 426.502 164.918 427.382 L164.918 410.021 Z" fill="#000000" fill-rule="nonzero" fill-opacity="1" /><path clip-path="url(#clip650)" d="M128.483 160.784 Q124.872 160.784 123.043 164.348 Q121.238 167.89 121.238 175.02 Q121.238 182.126 123.043 185.691 Q124.872 189.232 128.483 189.232 Q132.117 189.232 133.923 185.691 Q135.751 182.126 135.751 175.02 Q135.751 167.89 133.923 164.348 Q132.117 160.784 128.483 160.784 M128.483 157.08 Q134.293 157.08 137.349 161.686 Q140.427 166.27 140.427 175.02 Q140.427 183.746 137.349 188.353 Q134.293 192.936 128.483 192.936 Q122.673 192.936 119.594 188.353 Q116.539 183.746 116.539 175.02 Q116.539 166.27 119.594 161.686 Q122.673 157.08 128.483 157.08 Z" fill="#000000" fill-rule="nonzero" fill-opacity="1" /><path clip-path="url(#clip650)" d="M148.645 186.385 L153.529 186.385 L153.529 192.265 L148.645 192.265 L148.645 186.385 Z" fill="#000000" fill-rule="nonzero" fill-opacity="1" /><path clip-path="url(#clip650)" d="M174.293 173.121 Q171.145 173.121 169.293 175.274 Q167.464 177.427 167.464 181.177 Q167.464 184.904 169.293 187.08 Q171.145 189.232 174.293 189.232 Q177.441 189.232 179.27 187.08 Q181.122 184.904 181.122 181.177 Q181.122 177.427 179.27 175.274 Q177.441 173.121 174.293 173.121 M183.575 158.469 L183.575 162.728 Q181.816 161.895 180.01 161.455 Q178.228 161.015 176.469 161.015 Q171.839 161.015 169.385 164.14 Q166.955 167.265 166.608 173.584 Q167.973 171.571 170.034 170.506 Q172.094 169.418 174.571 169.418 Q179.779 169.418 182.788 172.589 Q185.821 175.737 185.821 181.177 Q185.821 186.501 182.672 189.719 Q179.524 192.936 174.293 192.936 Q168.297 192.936 165.126 188.353 Q161.955 183.746 161.955 175.02 Q161.955 166.825 165.844 161.964 Q169.733 157.08 176.284 157.08 Q178.043 157.08 179.825 157.427 Q181.631 157.774 183.575 158.469 Z" fill="#000000" fill-rule="nonzero" fill-opacity="1" /><path clip-path="url(#clip650)" d="M14.1184 1274.96 L14.1184 1268.53 L61.6384 1268.53 L61.6384 1274.96 L14.1184 1274.96 Z" fill="#000000" fill-rule="nonzero" fill-opacity="1" /><path clip-path="url(#clip650)" d="M40.1224 1226.36 L61.6384 1226.36 L61.6384 1232.21 L40.3133 1232.21 Q35.2526 1232.21 32.7381 1234.18 Q30.2237 1236.16 30.2237 1240.11 Q30.2237 1244.85 33.2474 1247.58 Q36.2711 1250.32 41.491 1250.32 L61.6384 1250.32 L61.6384 1256.21 L25.9905 1256.21 L25.9905 1250.32 L31.5287 1250.32 Q28.314 1248.22 26.7225 1245.39 Q25.1311 1242.52 25.1311 1238.8 Q25.1311 1232.66 28.9505 1229.51 Q32.7381 1226.36 40.1224 1226.36 Z" fill="#000000" fill-rule="nonzero" fill-opacity="1" /><path clip-path="url(#clip650)" d="M12.1132 1196.63 L16.983 1196.63 L16.983 1202.23 Q16.983 1205.38 18.2562 1206.62 Q19.5293 1207.83 22.8395 1207.83 L25.9905 1207.83 L25.9905 1198.19 L30.542 1198.19 L30.542 1207.83 L61.6384 1207.83 L61.6384 1213.72 L30.542 1213.72 L30.542 1219.32 L25.9905 1219.32 L25.9905 1213.72 L23.5079 1213.72 Q17.5559 1213.72 14.8505 1210.95 Q12.1132 1208.18 12.1132 1202.17 L12.1132 1196.63 Z" fill="#000000" fill-rule="nonzero" fill-opacity="1" /><path clip-path="url(#clip650)" d="M42.3504 1161.23 L45.2149 1161.23 L45.2149 1188.16 Q51.2623 1187.78 54.4452 1184.53 Q57.5962 1181.25 57.5962 1175.43 Q57.5962 1172.06 56.7687 1168.9 Q55.9411 1165.72 54.2861 1162.6 L59.8242 1162.6 Q61.161 1165.75 61.8612 1169.06 Q62.5615 1172.37 62.5615 1175.78 Q62.5615 1184.31 57.5962 1189.31 Q52.631 1194.27 44.1646 1194.27 Q35.4117 1194.27 30.2873 1189.56 Q25.1311 1184.82 25.1311 1176.8 Q25.1311 1169.6 29.7781 1165.44 Q34.3932 1161.23 42.3504 1161.23 M40.6316 1167.09 Q35.8255 1167.15 32.9609 1169.8 Q30.0964 1172.41 30.0964 1176.73 Q30.0964 1181.64 32.8654 1184.6 Q35.6345 1187.52 40.6634 1187.97 L40.6316 1167.09 Z" fill="#000000" fill-rule="nonzero" fill-opacity="1" /><path clip-path="url(#clip650)" d="M27.3591 1125.97 L32.8336 1125.97 Q31.465 1128.45 30.7966 1130.97 Q30.0964 1133.45 30.0964 1135.99 Q30.0964 1141.69 33.7248 1144.84 Q37.3214 1147.99 43.8463 1147.99 Q50.3711 1147.99 53.9996 1144.84 Q57.5962 1141.69 57.5962 1135.99 Q57.5962 1133.45 56.9278 1130.97 Q56.2276 1128.45 54.859 1125.97 L60.2698 1125.97 Q61.4156 1128.42 61.9886 1131.06 Q62.5615 1133.67 62.5615 1136.63 Q62.5615 1144.68 57.5007 1149.43 Q52.44 1154.17 43.8463 1154.17 Q35.1253 1154.17 30.1282 1149.39 Q25.1311 1144.59 25.1311 1136.25 Q25.1311 1133.54 25.704 1130.97 Q26.2451 1128.39 27.3591 1125.97 Z" fill="#000000" fill-rule="nonzero" fill-opacity="1" /><path clip-path="url(#clip650)" d="M15.869 1109.99 L25.9905 1109.99 L25.9905 1097.93 L30.542 1097.93 L30.542 1109.99 L49.8937 1109.99 Q54.2542 1109.99 55.4955 1108.81 Q56.7368 1107.6 56.7368 1103.94 L56.7368 1097.93 L61.6384 1097.93 L61.6384 1103.94 Q61.6384 1110.72 59.124 1113.3 Q56.5777 1115.88 49.8937 1115.88 L30.542 1115.88 L30.542 1120.18 L25.9905 1120.18 L25.9905 1115.88 L15.869 1115.88 L15.869 1109.99 Z" fill="#000000" fill-rule="nonzero" fill-opacity="1" /><path clip-path="url(#clip650)" d="M42.3504 1059.73 L45.2149 1059.73 L45.2149 1086.66 Q51.2623 1086.28 54.4452 1083.03 Q57.5962 1079.75 57.5962 1073.93 Q57.5962 1070.55 56.7687 1067.4 Q55.9411 1064.22 54.2861 1061.1 L59.8242 1061.1 Q61.161 1064.25 61.8612 1067.56 Q62.5615 1070.87 62.5615 1074.28 Q62.5615 1082.81 57.5962 1087.81 Q52.631 1092.77 44.1646 1092.77 Q35.4117 1092.77 30.2873 1088.06 Q25.1311 1083.32 25.1311 1075.3 Q25.1311 1068.1 29.7781 1063.93 Q34.3932 1059.73 42.3504 1059.73 M40.6316 1065.59 Q35.8255 1065.65 32.9609 1068.29 Q30.0964 1070.9 30.0964 1075.23 Q30.0964 1080.13 32.8654 1083.09 Q35.6345 1086.02 40.6634 1086.47 L40.6316 1065.59 Z" fill="#000000" fill-rule="nonzero" fill-opacity="1" /><path clip-path="url(#clip650)" d="M31.4013 1026.66 L12.1132 1026.66 L12.1132 1020.81 L61.6384 1020.81 L61.6384 1026.66 L56.2912 1026.66 Q59.4741 1028.51 61.0337 1031.34 Q62.5615 1034.14 62.5615 1038.09 Q62.5615 1044.55 57.4052 1048.62 Q52.249 1052.67 43.8463 1052.67 Q35.4436 1052.67 30.2873 1048.62 Q25.1311 1044.55 25.1311 1038.09 Q25.1311 1034.14 26.6907 1031.34 Q28.2185 1028.51 31.4013 1026.66 M43.8463 1046.62 Q50.3075 1046.62 53.9996 1043.98 Q57.6599 1041.3 57.6599 1036.66 Q57.6599 1032.01 53.9996 1029.34 Q50.3075 1026.66 43.8463 1026.66 Q37.3851 1026.66 33.7248 1029.34 Q30.0327 1032.01 30.0327 1036.66 Q30.0327 1041.3 33.7248 1043.98 Q37.3851 1046.62 43.8463 1046.62 Z" fill="#000000" fill-rule="nonzero" fill-opacity="1" /><path clip-path="url(#clip650)" d="M12.1769 973.955 Q19.4975 978.22 26.6589 980.289 Q33.8203 982.358 41.1727 982.358 Q48.5251 982.358 55.7502 980.289 Q62.9434 978.188 70.2321 973.955 L70.2321 979.047 Q62.7524 983.822 55.5274 986.209 Q48.3023 988.564 41.1727 988.564 Q34.0749 988.564 26.8817 986.209 Q19.6884 983.854 12.1769 979.047 L12.1769 973.955 Z" fill="#000000" fill-rule="nonzero" fill-opacity="1" /><path clip-path="url(#clip650)" d="M40.1224 932.96 L61.6384 932.96 L61.6384 938.816 L40.3133 938.816 Q35.2526 938.816 32.7381 940.79 Q30.2237 942.763 30.2237 946.71 Q30.2237 951.452 33.2474 954.189 Q36.2711 956.927 41.491 956.927 L61.6384 956.927 L61.6384 962.815 L25.9905 962.815 L25.9905 956.927 L31.5287 956.927 Q28.314 954.826 26.7225 951.993 Q25.1311 949.129 25.1311 945.405 Q25.1311 939.262 28.9505 936.111 Q32.7381 932.96 40.1224 932.96 Z" fill="#000000" fill-rule="nonzero" fill-opacity="1" /><path clip-path="url(#clip650)" d="M30.0964 907.465 Q30.0964 912.176 33.7885 914.913 Q37.4488 917.65 43.8463 917.65 Q50.2438 917.65 53.9359 914.945 Q57.5962 912.208 57.5962 907.465 Q57.5962 902.786 53.9041 900.049 Q50.212 897.312 43.8463 897.312 Q37.5124 897.312 33.8203 900.049 Q30.0964 902.786 30.0964 907.465 M25.1311 907.465 Q25.1311 899.826 30.0964 895.466 Q35.0616 891.105 43.8463 891.105 Q52.5991 891.105 57.5962 895.466 Q62.5615 899.826 62.5615 907.465 Q62.5615 915.136 57.5962 919.496 Q52.5991 923.825 43.8463 923.825 Q35.0616 923.825 30.0964 919.496 Q25.1311 915.136 25.1311 907.465 Z" fill="#000000" fill-rule="nonzero" fill-opacity="1" /><path clip-path="url(#clip650)" d="M31.465 860.741 Q30.8921 861.727 30.6375 862.905 Q30.351 864.051 30.351 865.451 Q30.351 870.417 33.5975 873.09 Q36.8122 875.732 42.8596 875.732 L61.6384 875.732 L61.6384 881.62 L25.9905 881.62 L25.9905 875.732 L31.5287 875.732 Q28.2821 873.886 26.7225 870.926 Q25.1311 867.966 25.1311 863.733 Q25.1311 863.128 25.2266 862.396 Q25.2903 861.664 25.4494 860.773 L31.465 860.741 Z" fill="#000000" fill-rule="nonzero" fill-opacity="1" /><path clip-path="url(#clip650)" d="M32.8336 827.989 Q28.8869 825.793 27.009 822.738 Q25.1311 819.682 25.1311 815.544 Q25.1311 809.974 29.046 806.951 Q32.9291 803.927 40.1224 803.927 L61.6384 803.927 L61.6384 809.815 L40.3133 809.815 Q35.1889 809.815 32.7063 811.629 Q30.2237 813.444 30.2237 817.168 Q30.2237 821.719 33.2474 824.361 Q36.2711 827.003 41.491 827.003 L61.6384 827.003 L61.6384 832.891 L40.3133 832.891 Q35.1571 832.891 32.7063 834.705 Q30.2237 836.519 30.2237 840.307 Q30.2237 844.795 33.2792 847.436 Q36.3029 850.078 41.491 850.078 L61.6384 850.078 L61.6384 855.967 L25.9905 855.967 L25.9905 850.078 L31.5287 850.078 Q28.2503 848.073 26.6907 845.272 Q25.1311 842.471 25.1311 838.62 Q25.1311 834.737 27.1045 832.031 Q29.0779 829.294 32.8336 827.989 Z" fill="#000000" fill-rule="nonzero" fill-opacity="1" /><path clip-path="url(#clip650)" d="M43.719 776.045 Q43.719 783.143 45.3422 785.88 Q46.9655 788.617 50.8804 788.617 Q53.9996 788.617 55.8457 786.58 Q57.6599 784.511 57.6599 780.979 Q57.6599 776.109 54.2224 773.181 Q50.7531 770.22 45.0239 770.22 L43.719 770.22 L43.719 776.045 M41.3 764.364 L61.6384 764.364 L61.6384 770.22 L56.2276 770.22 Q59.4741 772.226 61.0337 775.218 Q62.5615 778.209 62.5615 782.538 Q62.5615 788.013 59.5059 791.259 Q56.4186 794.474 51.2623 794.474 Q45.2467 794.474 42.1912 790.463 Q39.1357 786.421 39.1357 778.432 L39.1357 770.22 L38.5628 770.22 Q34.5205 770.22 32.3244 772.894 Q30.0964 775.536 30.0964 780.342 Q30.0964 783.397 30.8284 786.294 Q31.5605 789.19 33.0246 791.864 L27.6137 791.864 Q26.3724 788.649 25.7677 785.625 Q25.1311 782.602 25.1311 779.737 Q25.1311 772.003 29.1415 768.183 Q33.1519 764.364 41.3 764.364 Z" fill="#000000" fill-rule="nonzero" fill-opacity="1" /><path clip-path="url(#clip650)" d="M12.1132 752.301 L12.1132 746.445 L61.6384 746.445 L61.6384 752.301 L12.1132 752.301 Z" fill="#000000" fill-rule="nonzero" fill-opacity="1" /><path clip-path="url(#clip650)" d="M25.9905 734.191 L25.9905 728.334 L61.6384 728.334 L61.6384 734.191 L25.9905 734.191 M12.1132 734.191 L12.1132 728.334 L19.5293 728.334 L19.5293 734.191 L12.1132 734.191 Z" fill="#000000" fill-rule="nonzero" fill-opacity="1" /><path clip-path="url(#clip650)" d="M27.0408 693.355 L32.579 693.355 Q31.3059 695.837 30.6693 698.511 Q30.0327 701.184 30.0327 704.049 Q30.0327 708.409 31.3695 710.606 Q32.7063 712.77 35.3799 712.77 Q37.4169 712.77 38.5946 711.21 Q39.7404 709.651 40.7908 704.94 L41.2364 702.935 Q42.5732 696.697 45.0239 694.087 Q47.4429 691.445 51.8034 691.445 Q56.7687 691.445 59.6651 695.392 Q62.5615 699.306 62.5615 706.181 Q62.5615 709.046 61.9886 712.165 Q61.4475 715.253 60.3335 718.69 L54.2861 718.69 Q55.973 715.444 56.8323 712.293 Q57.6599 709.142 57.6599 706.054 Q57.6599 701.916 56.2594 699.688 Q54.8271 697.46 52.249 697.46 Q49.8619 697.46 48.5887 699.084 Q47.3156 700.675 46.1379 706.118 L45.6605 708.155 Q44.5147 713.598 42.1594 716.016 Q39.7722 718.435 35.6345 718.435 Q30.6056 718.435 27.8684 714.871 Q25.1311 711.306 25.1311 704.749 Q25.1311 701.503 25.6085 698.638 Q26.086 695.774 27.0408 693.355 Z" fill="#000000" fill-rule="nonzero" fill-opacity="1" /><path clip-path="url(#clip650)" d="M42.3504 651.627 L45.2149 651.627 L45.2149 678.554 Q51.2623 678.172 54.4452 674.926 Q57.5962 671.647 57.5962 665.823 Q57.5962 662.449 56.7687 659.298 Q55.9411 656.115 54.2861 652.996 L59.8242 652.996 Q61.161 656.147 61.8612 659.457 Q62.5615 662.767 62.5615 666.173 Q62.5615 674.703 57.5962 679.7 Q52.631 684.665 44.1646 684.665 Q35.4117 684.665 30.2873 679.955 Q25.1311 675.212 25.1311 667.192 Q25.1311 659.998 29.7781 655.829 Q34.3932 651.627 42.3504 651.627 M40.6316 657.484 Q35.8255 657.547 32.9609 660.189 Q30.0964 662.799 30.0964 667.128 Q30.0964 672.029 32.8654 674.989 Q35.6345 677.918 40.6634 678.363 L40.6316 657.484 Z" fill="#000000" fill-rule="nonzero" fill-opacity="1" /><path clip-path="url(#clip650)" d="M31.4013 618.558 L12.1132 618.558 L12.1132 612.701 L61.6384 612.701 L61.6384 618.558 L56.2912 618.558 Q59.4741 620.404 61.0337 623.236 Q62.5615 626.037 62.5615 629.984 Q62.5615 636.445 57.4052 640.519 Q52.249 644.561 43.8463 644.561 Q35.4436 644.561 30.2873 640.519 Q25.1311 636.445 25.1311 629.984 Q25.1311 626.037 26.6907 623.236 Q28.2185 620.404 31.4013 618.558 M43.8463 638.514 Q50.3075 638.514 53.9996 635.872 Q57.6599 633.199 57.6599 628.552 Q57.6599 623.905 53.9996 621.231 Q50.3075 618.558 43.8463 618.558 Q37.3851 618.558 33.7248 621.231 Q30.0327 623.905 30.0327 628.552 Q30.0327 633.199 33.7248 635.872 Q37.3851 638.514 43.8463 638.514 Z" fill="#000000" fill-rule="nonzero" fill-opacity="1" /><path clip-path="url(#clip650)" d="M12.1769 601.561 L12.1769 596.469 Q19.6884 591.694 26.8817 589.339 Q34.0749 586.952 41.1727 586.952 Q48.3023 586.952 55.5274 589.339 Q62.7524 591.694 70.2321 596.469 L70.2321 601.561 Q62.9434 597.328 55.7502 595.259 Q48.5251 593.158 41.1727 593.158 Q33.8203 593.158 26.6589 595.259 Q19.4975 597.328 12.1769 601.561 Z" fill="#000000" fill-rule="nonzero" fill-opacity="1" /><path clip-path="url(#clip650)" d="M526.896 12.096 L565.137 12.096 L565.137 18.9825 L535.079 18.9825 L535.079 36.8875 L563.881 36.8875 L563.881 43.7741 L535.079 43.7741 L535.079 65.6895 L565.866 65.6895 L565.866 72.576 L526.896 72.576 L526.896 12.096 Z" fill="#000000" fill-rule="nonzero" fill-opacity="1" /><path clip-path="url(#clip650)" d="M586.202 65.7705 L586.202 89.8329 L578.707 89.8329 L578.707 27.2059 L586.202 27.2059 L586.202 34.0924 Q588.551 30.0415 592.116 28.0971 Q595.721 26.1121 600.704 26.1121 Q608.968 26.1121 614.112 32.6746 Q619.297 39.2371 619.297 49.9314 Q619.297 60.6258 614.112 67.1883 Q608.968 73.7508 600.704 73.7508 Q595.721 73.7508 592.116 71.8063 Q588.551 69.8214 586.202 65.7705 M611.56 49.9314 Q611.56 41.7081 608.158 37.0496 Q604.795 32.3505 598.881 32.3505 Q592.967 32.3505 589.564 37.0496 Q586.202 41.7081 586.202 49.9314 Q586.202 58.1548 589.564 62.8538 Q592.967 67.5124 598.881 67.5124 Q604.795 67.5124 608.158 62.8538 Q611.56 58.1548 611.56 49.9314 Z" fill="#000000" fill-rule="nonzero" fill-opacity="1" /><path clip-path="url(#clip650)" d="M631.653 27.2059 L639.106 27.2059 L639.106 72.576 L631.653 72.576 L631.653 27.2059 M631.653 9.54393 L639.106 9.54393 L639.106 18.9825 L631.653 18.9825 L631.653 9.54393 Z" fill="#000000" fill-rule="nonzero" fill-opacity="1" /><path clip-path="url(#clip650)" d="M684.558 34.0924 L684.558 9.54393 L692.011 9.54393 L692.011 72.576 L684.558 72.576 L684.558 65.7705 Q682.208 69.8214 678.603 71.8063 Q675.038 73.7508 670.015 73.7508 Q661.791 73.7508 656.606 67.1883 Q651.462 60.6258 651.462 49.9314 Q651.462 39.2371 656.606 32.6746 Q661.791 26.1121 670.015 26.1121 Q675.038 26.1121 678.603 28.0971 Q682.208 30.0415 684.558 34.0924 M659.158 49.9314 Q659.158 58.1548 662.521 62.8538 Q665.923 67.5124 671.838 67.5124 Q677.752 67.5124 681.155 62.8538 Q684.558 58.1548 684.558 49.9314 Q684.558 41.7081 681.155 37.0496 Q677.752 32.3505 671.838 32.3505 Q665.923 32.3505 662.521 37.0496 Q659.158 41.7081 659.158 49.9314 Z" fill="#000000" fill-rule="nonzero" fill-opacity="1" /><path clip-path="url(#clip650)" d="M746.172 48.0275 L746.172 51.6733 L711.901 51.6733 Q712.387 59.3701 716.519 63.421 Q720.692 67.4314 728.105 67.4314 Q732.399 67.4314 736.409 66.3781 Q740.46 65.3249 744.43 63.2184 L744.43 70.267 Q740.42 71.9684 736.207 72.8596 Q731.994 73.7508 727.659 73.7508 Q716.803 73.7508 710.443 67.4314 Q704.123 61.1119 704.123 50.3365 Q704.123 39.1965 710.119 32.6746 Q716.155 26.1121 726.363 26.1121 Q735.518 26.1121 740.825 32.0264 Q746.172 37.9003 746.172 48.0275 M738.718 45.84 Q738.637 39.7232 735.275 36.0774 Q731.953 32.4315 726.444 32.4315 Q720.206 32.4315 716.438 35.9558 Q712.711 39.4801 712.144 45.8805 L738.718 45.84 Z" fill="#000000" fill-rule="nonzero" fill-opacity="1" /><path clip-path="url(#clip650)" d="M793.729 35.9153 Q796.525 30.8922 800.413 28.5022 Q804.302 26.1121 809.568 26.1121 Q816.658 26.1121 820.506 31.0947 Q824.354 36.0368 824.354 45.1919 L824.354 72.576 L816.86 72.576 L816.86 45.4349 Q816.86 38.913 814.551 35.7533 Q812.242 32.5936 807.503 32.5936 Q801.71 32.5936 798.347 36.4419 Q794.985 40.2903 794.985 46.9338 L794.985 72.576 L787.491 72.576 L787.491 45.4349 Q787.491 38.8725 785.182 35.7533 Q782.873 32.5936 778.052 32.5936 Q772.341 32.5936 768.978 36.4824 Q765.616 40.3308 765.616 46.9338 L765.616 72.576 L758.122 72.576 L758.122 27.2059 L765.616 27.2059 L765.616 34.2544 Q768.168 30.082 771.733 28.0971 Q775.298 26.1121 780.199 26.1121 Q785.142 26.1121 788.585 28.6237 Q792.069 31.1352 793.729 35.9153 Z" fill="#000000" fill-rule="nonzero" fill-opacity="1" /><path clip-path="url(#clip650)" d="M839.221 27.2059 L846.675 27.2059 L846.675 72.576 L839.221 72.576 L839.221 27.2059 M839.221 9.54393 L846.675 9.54393 L846.675 18.9825 L839.221 18.9825 L839.221 9.54393 Z" fill="#000000" fill-rule="nonzero" fill-opacity="1" /><path clip-path="url(#clip650)" d="M894.921 28.9478 L894.921 35.9153 Q891.761 34.1734 888.561 33.3227 Q885.401 32.4315 882.161 32.4315 Q874.91 32.4315 870.899 37.0496 Q866.889 41.6271 866.889 49.9314 Q866.889 58.2358 870.899 62.8538 Q874.91 67.4314 882.161 67.4314 Q885.401 67.4314 888.561 66.5807 Q891.761 65.6895 894.921 63.9476 L894.921 70.8341 Q891.802 72.2924 888.44 73.0216 Q885.118 73.7508 881.35 73.7508 Q871.102 73.7508 865.066 67.3098 Q859.03 60.8689 859.03 49.9314 Q859.03 38.832 865.106 32.472 Q871.223 26.1121 881.837 26.1121 Q885.28 26.1121 888.561 26.8413 Q891.842 27.5299 894.921 28.9478 Z" fill="#000000" fill-rule="nonzero" fill-opacity="1" /><path clip-path="url(#clip650)" d="M951.836 32.4315 Q945.841 32.4315 942.357 37.1306 Q938.873 41.7891 938.873 49.9314 Q938.873 58.0738 942.317 62.7728 Q945.8 67.4314 951.836 67.4314 Q957.791 67.4314 961.275 62.7323 Q964.759 58.0333 964.759 49.9314 Q964.759 41.8701 961.275 37.1711 Q957.791 32.4315 951.836 32.4315 M951.836 26.1121 Q961.558 26.1121 967.108 32.4315 Q972.658 38.7509 972.658 49.9314 Q972.658 61.0714 967.108 67.4314 Q961.558 73.7508 951.836 73.7508 Q942.074 73.7508 936.524 67.4314 Q931.015 61.0714 931.015 49.9314 Q931.015 38.7509 936.524 32.4315 Q942.074 26.1121 951.836 26.1121 Z" fill="#000000" fill-rule="nonzero" fill-opacity="1" /><path clip-path="url(#clip650)" d="M1022.73 45.1919 L1022.73 72.576 L1015.27 72.576 L1015.27 45.4349 Q1015.27 38.994 1012.76 35.7938 Q1010.25 32.5936 1005.23 32.5936 Q999.191 32.5936 995.708 36.4419 Q992.224 40.2903 992.224 46.9338 L992.224 72.576 L984.73 72.576 L984.73 27.2059 L992.224 27.2059 L992.224 34.2544 Q994.897 30.163 998.503 28.1376 Q1002.15 26.1121 1006.89 26.1121 Q1014.71 26.1121 1018.72 30.9732 Q1022.73 35.7938 1022.73 45.1919 Z" fill="#000000" fill-rule="nonzero" fill-opacity="1" /><path clip-path="url(#clip650)" d="M1072.47 43.6931 L1072.47 65.8515 L1085.6 65.8515 Q1092.2 65.8515 1095.36 63.1374 Q1098.56 60.3828 1098.56 54.752 Q1098.56 49.0808 1095.36 46.4072 Q1092.2 43.6931 1085.6 43.6931 L1072.47 43.6931 M1072.47 18.8205 L1072.47 37.0496 L1084.58 37.0496 Q1090.58 37.0496 1093.5 34.8216 Q1096.45 32.5531 1096.45 27.935 Q1096.45 23.3575 1093.5 21.089 Q1090.58 18.8205 1084.58 18.8205 L1072.47 18.8205 M1064.29 12.096 L1085.19 12.096 Q1094.55 12.096 1099.61 15.9849 Q1104.68 19.8737 1104.68 27.0438 Q1104.68 32.5936 1102.08 35.8748 Q1099.49 39.156 1094.47 39.9662 Q1100.5 41.2625 1103.83 45.3944 Q1107.19 49.4858 1107.19 55.6432 Q1107.19 63.745 1101.68 68.1605 Q1096.17 72.576 1086 72.576 L1064.29 72.576 L1064.29 12.096 Z" fill="#000000" fill-rule="nonzero" fill-opacity="1" /><path clip-path="url(#clip650)" d="M1141.5 49.7694 Q1132.47 49.7694 1128.98 51.8354 Q1125.5 53.9013 1125.5 58.8839 Q1125.5 62.8538 1128.09 65.2034 Q1130.72 67.5124 1135.22 67.5124 Q1141.42 67.5124 1145.15 63.1374 Q1148.91 58.7219 1148.91 51.4303 L1148.91 49.7694 L1141.5 49.7694 M1156.37 46.6907 L1156.37 72.576 L1148.91 72.576 L1148.91 65.6895 Q1146.36 69.8214 1142.55 71.8063 Q1138.74 73.7508 1133.24 73.7508 Q1126.27 73.7508 1122.14 69.8619 Q1118.04 65.9325 1118.04 59.3701 Q1118.04 51.7138 1123.15 47.825 Q1128.29 43.9361 1138.46 43.9361 L1148.91 43.9361 L1148.91 43.2069 Q1148.91 38.0623 1145.51 35.2672 Q1142.15 32.4315 1136.03 32.4315 Q1132.14 32.4315 1128.46 33.3632 Q1124.77 34.295 1121.37 36.1584 L1121.37 29.2718 Q1125.46 27.692 1129.31 26.9223 Q1133.15 26.1121 1136.8 26.1121 Q1146.64 26.1121 1151.51 31.2163 Q1156.37 36.3204 1156.37 46.6907 Z" fill="#000000" fill-rule="nonzero" fill-opacity="1" /><path clip-path="url(#clip650)" d="M1198.01 34.1734 Q1196.75 33.4443 1195.26 33.1202 Q1193.8 32.7556 1192.01 32.7556 Q1185.69 32.7556 1182.29 36.8875 Q1178.93 40.9789 1178.93 48.6757 L1178.93 72.576 L1171.44 72.576 L1171.44 27.2059 L1178.93 27.2059 L1178.93 34.2544 Q1181.28 30.1225 1185.05 28.1376 Q1188.81 26.1121 1194.2 26.1121 Q1194.97 26.1121 1195.9 26.2337 Q1196.83 26.3147 1197.97 26.5172 L1198.01 34.1734 Z" fill="#000000" fill-rule="nonzero" fill-opacity="1" /><path clip-path="url(#clip650)" d="M1226.45 49.7694 Q1217.41 49.7694 1213.93 51.8354 Q1210.45 53.9013 1210.45 58.8839 Q1210.45 62.8538 1213.04 65.2034 Q1215.67 67.5124 1220.17 67.5124 Q1226.37 67.5124 1230.09 63.1374 Q1233.86 58.7219 1233.86 51.4303 L1233.86 49.7694 L1226.45 49.7694 M1241.31 46.6907 L1241.31 72.576 L1233.86 72.576 L1233.86 65.6895 Q1231.31 69.8214 1227.5 71.8063 Q1223.69 73.7508 1218.18 73.7508 Q1211.22 73.7508 1207.08 69.8619 Q1202.99 65.9325 1202.99 59.3701 Q1202.99 51.7138 1208.1 47.825 Q1213.24 43.9361 1223.41 43.9361 L1233.86 43.9361 L1233.86 43.2069 Q1233.86 38.0623 1230.46 35.2672 Q1227.1 32.4315 1220.98 32.4315 Q1217.09 32.4315 1213.4 33.3632 Q1209.72 34.295 1206.31 36.1584 L1206.31 29.2718 Q1210.41 27.692 1214.25 26.9223 Q1218.1 26.1121 1221.75 26.1121 Q1231.59 26.1121 1236.45 31.2163 Q1241.31 36.3204 1241.31 46.6907 Z" fill="#000000" fill-rule="nonzero" fill-opacity="1" /><path clip-path="url(#clip650)" d="M1289.24 49.9314 Q1289.24 41.7081 1285.83 37.0496 Q1282.47 32.3505 1276.56 32.3505 Q1270.64 32.3505 1267.24 37.0496 Q1263.88 41.7081 1263.88 49.9314 Q1263.88 58.1548 1267.24 62.8538 Q1270.64 67.5124 1276.56 67.5124 Q1282.47 67.5124 1285.83 62.8538 Q1289.24 58.1548 1289.24 49.9314 M1263.88 34.0924 Q1266.23 30.0415 1269.79 28.0971 Q1273.4 26.1121 1278.38 26.1121 Q1286.64 26.1121 1291.79 32.6746 Q1296.97 39.2371 1296.97 49.9314 Q1296.97 60.6258 1291.79 67.1883 Q1286.64 73.7508 1278.38 73.7508 Q1273.4 73.7508 1269.79 71.8063 Q1266.23 69.8214 1263.88 65.7705 L1263.88 72.576 L1256.38 72.576 L1256.38 9.54393 L1263.88 9.54393 L1263.88 34.0924 Z" fill="#000000" fill-rule="nonzero" fill-opacity="1" /><path clip-path="url(#clip650)" d="M1329.95 49.7694 Q1320.91 49.7694 1317.43 51.8354 Q1313.95 53.9013 1313.95 58.8839 Q1313.95 62.8538 1316.54 65.2034 Q1319.17 67.5124 1323.67 67.5124 Q1329.87 67.5124 1333.59 63.1374 Q1337.36 58.7219 1337.36 51.4303 L1337.36 49.7694 L1329.95 49.7694 M1344.81 46.6907 L1344.81 72.576 L1337.36 72.576 L1337.36 65.6895 Q1334.81 69.8214 1331 71.8063 Q1327.19 73.7508 1321.68 73.7508 Q1314.72 73.7508 1310.58 69.8619 Q1306.49 65.9325 1306.49 59.3701 Q1306.49 51.7138 1311.6 47.825 Q1316.74 43.9361 1326.91 43.9361 L1337.36 43.9361 L1337.36 43.2069 Q1337.36 38.0623 1333.96 35.2672 Q1330.6 32.4315 1324.48 32.4315 Q1320.59 32.4315 1316.9 33.3632 Q1313.22 34.295 1309.81 36.1584 L1309.81 29.2718 Q1313.91 27.692 1317.75 26.9223 Q1321.6 26.1121 1325.25 26.1121 Q1335.09 26.1121 1339.95 31.2163 Q1344.81 36.3204 1344.81 46.6907 M1331.2 6.22219 L1339.26 6.22219 L1326.06 21.4536 L1319.86 21.4536 L1331.2 6.22219 Z" fill="#000000" fill-rule="nonzero" fill-opacity="1" /><path clip-path="url(#clip650)" d="M1389.09 28.5427 L1389.09 35.5912 Q1385.93 33.9709 1382.53 33.1607 Q1379.13 32.3505 1375.48 32.3505 Q1369.93 32.3505 1367.13 34.0519 Q1364.38 35.7533 1364.38 39.156 Q1364.38 41.7486 1366.37 43.2475 Q1368.35 44.7058 1374.35 46.0426 L1376.9 46.6097 Q1384.84 48.3111 1388.16 51.4303 Q1391.52 54.509 1391.52 60.0587 Q1391.52 66.3781 1386.5 70.0644 Q1381.52 73.7508 1372.77 73.7508 Q1369.12 73.7508 1365.15 73.0216 Q1361.22 72.3329 1356.85 70.9151 L1356.85 63.2184 Q1360.98 65.3654 1364.99 66.4591 Q1369 67.5124 1372.93 67.5124 Q1378.19 67.5124 1381.03 65.73 Q1383.87 63.9071 1383.87 60.6258 Q1383.87 57.5877 1381.8 55.9673 Q1379.77 54.3469 1372.85 52.8481 L1370.25 52.2405 Q1363.33 50.7821 1360.25 47.7845 Q1357.17 44.7463 1357.17 39.4801 Q1357.17 33.0797 1361.71 29.5959 Q1366.24 26.1121 1374.59 26.1121 Q1378.72 26.1121 1382.37 26.7198 Q1386.01 27.3274 1389.09 28.5427 Z" fill="#000000" fill-rule="nonzero" fill-opacity="1" /><path clip-path="url(#clip650)" d="M1403.39 27.2059 L1410.84 27.2059 L1410.84 72.576 L1403.39 72.576 L1403.39 27.2059 M1403.39 9.54393 L1410.84 9.54393 L1410.84 18.9825 L1403.39 18.9825 L1403.39 9.54393 Z" fill="#000000" fill-rule="nonzero" fill-opacity="1" /><path clip-path="url(#clip650)" d="M1422.67 46.5287 L1444.51 46.5287 L1444.51 53.1722 L1422.67 53.1722 L1422.67 46.5287 Z" fill="#000000" fill-rule="nonzero" fill-opacity="1" /><path clip-path="url(#clip650)" d="M1475.09 20.1573 L1463.99 50.2555 L1486.23 50.2555 L1475.09 20.1573 M1470.47 12.096 L1479.75 12.096 L1502.8 72.576 L1494.29 72.576 L1488.78 57.061 L1461.52 57.061 L1456.01 72.576 L1447.38 72.576 L1470.47 12.096 Z" fill="#000000" fill-rule="nonzero" fill-opacity="1" /><path clip-path="url(#clip650)" d="M1511.31 9.54393 L1518.76 9.54393 L1518.76 72.576 L1511.31 72.576 L1511.31 9.54393 Z" fill="#000000" fill-rule="nonzero" fill-opacity="1" /><path clip-path="url(#clip650)" d="M1566.93 49.9314 Q1566.93 41.7081 1563.52 37.0496 Q1560.16 32.3505 1554.25 32.3505 Q1548.33 32.3505 1544.93 37.0496 Q1541.57 41.7081 1541.57 49.9314 Q1541.57 58.1548 1544.93 62.8538 Q1548.33 67.5124 1554.25 67.5124 Q1560.16 67.5124 1563.52 62.8538 Q1566.93 58.1548 1566.93 49.9314 M1541.57 34.0924 Q1543.92 30.0415 1547.48 28.0971 Q1551.09 26.1121 1556.07 26.1121 Q1564.33 26.1121 1569.48 32.6746 Q1574.66 39.2371 1574.66 49.9314 Q1574.66 60.6258 1569.48 67.1883 Q1564.33 73.7508 1556.07 73.7508 Q1551.09 73.7508 1547.48 71.8063 Q1543.92 69.8214 1541.57 65.7705 L1541.57 72.576 L1534.07 72.576 L1534.07 9.54393 L1541.57 9.54393 L1541.57 34.0924 Z" fill="#000000" fill-rule="nonzero" fill-opacity="1" /><path clip-path="url(#clip650)" d="M1625.83 48.0275 L1625.83 51.6733 L1591.56 51.6733 Q1592.04 59.3701 1596.17 63.421 Q1600.35 67.4314 1607.76 67.4314 Q1612.05 67.4314 1616.06 66.3781 Q1620.11 65.3249 1624.08 63.2184 L1624.08 70.267 Q1620.07 71.9684 1615.86 72.8596 Q1611.65 73.7508 1607.31 73.7508 Q1596.46 73.7508 1590.1 67.4314 Q1583.78 61.1119 1583.78 50.3365 Q1583.78 39.1965 1589.77 32.6746 Q1595.81 26.1121 1606.02 26.1121 Q1615.17 26.1121 1620.48 32.0264 Q1625.83 37.9003 1625.83 48.0275 M1618.37 45.84 Q1618.29 39.7232 1614.93 36.0774 Q1611.61 32.4315 1606.1 32.4315 Q1599.86 32.4315 1596.09 35.9558 Q1592.37 39.4801 1591.8 45.8805 L1618.37 45.84 Z" fill="#000000" fill-rule="nonzero" fill-opacity="1" /><path clip-path="url(#clip650)" d="M1664.35 34.1734 Q1663.09 33.4443 1661.6 33.1202 Q1660.14 32.7556 1658.35 32.7556 Q1652.04 32.7556 1648.63 36.8875 Q1645.27 40.9789 1645.27 48.6757 L1645.27 72.576 L1637.78 72.576 L1637.78 27.2059 L1645.27 27.2059 L1645.27 34.2544 Q1647.62 30.1225 1651.39 28.1376 Q1655.15 26.1121 1660.54 26.1121 Q1661.31 26.1121 1662.24 26.2337 Q1663.18 26.3147 1664.31 26.5172 L1664.35 34.1734 Z" fill="#000000" fill-rule="nonzero" fill-opacity="1" /><path clip-path="url(#clip650)" d="M1679.54 14.324 L1679.54 27.2059 L1694.89 27.2059 L1694.89 32.9987 L1679.54 32.9987 L1679.54 57.6282 Q1679.54 63.1779 1681.04 64.7578 Q1682.58 66.3376 1687.24 66.3376 L1694.89 66.3376 L1694.89 72.576 L1687.24 72.576 Q1678.61 72.576 1675.33 69.3758 Q1672.05 66.1351 1672.05 57.6282 L1672.05 32.9987 L1666.58 32.9987 L1666.58 27.2059 L1672.05 27.2059 L1672.05 14.324 L1679.54 14.324 Z" fill="#000000" fill-rule="nonzero" fill-opacity="1" /><path clip-path="url(#clip650)" d="M1760.92 49.3643 Q1760.92 41.2625 1757.56 36.8065 Q1754.24 32.3505 1748.2 32.3505 Q1742.21 32.3505 1738.85 36.8065 Q1735.52 41.2625 1735.52 49.3643 Q1735.52 57.4256 1738.85 61.8816 Q1742.21 66.3376 1748.2 66.3376 Q1754.24 66.3376 1757.56 61.8816 Q1760.92 57.4256 1760.92 49.3643 M1768.38 66.9452 Q1768.38 78.5308 1763.23 84.1616 Q1758.09 89.8329 1747.47 89.8329 Q1743.54 89.8329 1740.06 89.2252 Q1736.58 88.6581 1733.3 87.4428 L1733.3 80.1917 Q1736.58 81.9741 1739.78 82.8248 Q1742.98 83.6755 1746.3 83.6755 Q1753.63 83.6755 1757.28 79.8271 Q1760.92 76.0193 1760.92 68.282 L1760.92 64.5957 Q1758.61 68.6061 1755.01 70.5911 Q1751.4 72.576 1746.38 72.576 Q1738.04 72.576 1732.93 66.2161 Q1727.83 59.8562 1727.83 49.3643 Q1727.83 38.832 1732.93 32.472 Q1738.04 26.1121 1746.38 26.1121 Q1751.4 26.1121 1755.01 28.0971 Q1758.61 30.082 1760.92 34.0924 L1760.92 27.2059 L1768.38 27.2059 L1768.38 66.9452 Z" fill="#000000" fill-rule="nonzero" fill-opacity="1" /><path clip-path="url(#clip650)" d="M1810.02 34.1734 Q1808.76 33.4443 1807.27 33.1202 Q1805.81 32.7556 1804.02 32.7556 Q1797.71 32.7556 1794.3 36.8875 Q1790.94 40.9789 1790.94 48.6757 L1790.94 72.576 L1783.45 72.576 L1783.45 27.2059 L1790.94 27.2059 L1790.94 34.2544 Q1793.29 30.1225 1797.06 28.1376 Q1800.82 26.1121 1806.21 26.1121 Q1806.98 26.1121 1807.91 26.2337 Q1808.85 26.3147 1809.98 26.5172 L1810.02 34.1734 Z" fill="#000000" fill-rule="nonzero" fill-opacity="1" /><path clip-path="url(#clip650)" d="M1838.46 49.7694 Q1829.42 49.7694 1825.94 51.8354 Q1822.46 53.9013 1822.46 58.8839 Q1822.46 62.8538 1825.05 65.2034 Q1827.68 67.5124 1832.18 67.5124 Q1838.38 67.5124 1842.1 63.1374 Q1845.87 58.7219 1845.87 51.4303 L1845.87 49.7694 L1838.46 49.7694 M1853.32 46.6907 L1853.32 72.576 L1845.87 72.576 L1845.87 65.6895 Q1843.32 69.8214 1839.51 71.8063 Q1835.7 73.7508 1830.19 73.7508 Q1823.23 73.7508 1819.09 69.8619 Q1815 65.9325 1815 59.3701 Q1815 51.7138 1820.11 47.825 Q1825.25 43.9361 1835.42 43.9361 L1845.87 43.9361 L1845.87 43.2069 Q1845.87 38.0623 1842.47 35.2672 Q1839.11 32.4315 1832.99 32.4315 Q1829.1 32.4315 1825.41 33.3632 Q1821.73 34.295 1818.32 36.1584 L1818.32 29.2718 Q1822.42 27.692 1826.26 26.9223 Q1830.11 26.1121 1833.76 26.1121 Q1843.6 26.1121 1848.46 31.2163 Q1853.32 36.3204 1853.32 46.6907 Z" fill="#000000" fill-rule="nonzero" fill-opacity="1" /><path clip-path="url(#clip650)" d="M1875.89 65.7705 L1875.89 89.8329 L1868.39 89.8329 L1868.39 27.2059 L1875.89 27.2059 L1875.89 34.0924 Q1878.24 30.0415 1881.8 28.0971 Q1885.41 26.1121 1890.39 26.1121 Q1898.65 26.1121 1903.8 32.6746 Q1908.98 39.2371 1908.98 49.9314 Q1908.98 60.6258 1903.8 67.1883 Q1898.65 73.7508 1890.39 73.7508 Q1885.41 73.7508 1881.8 71.8063 Q1878.24 69.8214 1875.89 65.7705 M1901.25 49.9314 Q1901.25 41.7081 1897.84 37.0496 Q1894.48 32.3505 1888.57 32.3505 Q1882.65 32.3505 1879.25 37.0496 Q1875.89 41.7081 1875.89 49.9314 Q1875.89 58.1548 1879.25 62.8538 Q1882.65 67.5124 1888.57 67.5124 Q1894.48 67.5124 1897.84 62.8538 Q1901.25 58.1548 1901.25 49.9314 Z" fill="#000000" fill-rule="nonzero" fill-opacity="1" /><path clip-path="url(#clip650)" d="M1959.05 45.1919 L1959.05 72.576 L1951.6 72.576 L1951.6 45.4349 Q1951.6 38.994 1949.09 35.7938 Q1946.58 32.5936 1941.55 32.5936 Q1935.52 32.5936 1932.03 36.4419 Q1928.55 40.2903 1928.55 46.9338 L1928.55 72.576 L1921.06 72.576 L1921.06 9.54393 L1928.55 9.54393 L1928.55 34.2544 Q1931.22 30.163 1934.83 28.1376 Q1938.47 26.1121 1943.21 26.1121 Q1951.03 26.1121 1955.04 30.9732 Q1959.05 35.7938 1959.05 45.1919 Z" fill="#000000" fill-rule="nonzero" fill-opacity="1" /><path clip-path="url(#clip650)" d="M2018.2 9.62495 Q2012.77 18.942 2010.13 28.0566 Q2007.5 37.1711 2007.5 46.5287 Q2007.5 55.8863 2010.13 65.0818 Q2012.81 74.2369 2018.2 83.5134 L2011.71 83.5134 Q2005.64 73.9938 2002.6 64.7983 Q1999.6 55.6027 1999.6 46.5287 Q1999.6 37.4952 2002.6 28.3401 Q2005.6 19.1851 2011.71 9.62495 L2018.2 9.62495 Z" fill="#000000" fill-rule="nonzero" fill-opacity="1" /><path clip-path="url(#clip650)" d="M2032.98 12.096 L2044 12.096 L2070.82 62.6918 L2070.82 12.096 L2078.76 12.096 L2078.76 72.576 L2067.74 72.576 L2040.92 21.9802 L2040.92 72.576 L2032.98 72.576 L2032.98 12.096 Z" fill="#000000" fill-rule="nonzero" fill-opacity="1" /><path clip-path="url(#clip650)" d="M2095.69 34.9026 L2147.62 34.9026 L2147.62 41.7081 L2095.69 41.7081 L2095.69 34.9026 M2095.69 51.4303 L2147.62 51.4303 L2147.62 58.3168 L2095.69 58.3168 L2095.69 51.4303 Z" fill="#000000" fill-rule="nonzero" fill-opacity="1" /><path clip-path="url(#clip650)" d="M2172.33 65.6895 L2200.89 65.6895 L2200.89 72.576 L2162.49 72.576 L2162.49 65.6895 Q2167.15 60.8689 2175.17 52.7671 Q2183.23 44.6248 2185.3 42.2752 Q2189.23 37.8598 2190.76 34.8216 Q2192.34 31.7429 2192.34 28.7857 Q2192.34 23.9651 2188.94 20.927 Q2185.58 17.8888 2180.15 17.8888 Q2176.3 17.8888 2172.01 19.2256 Q2167.76 20.5624 2162.89 23.2765 L2162.89 15.0127 Q2167.84 13.0277 2172.13 12.015 Q2176.42 11.0023 2179.99 11.0023 Q2189.39 11.0023 2194.98 15.7013 Q2200.57 20.4004 2200.57 28.2591 Q2200.57 31.9859 2199.15 35.3482 Q2197.77 38.6699 2194.09 43.2069 Q2193.07 44.3817 2187.65 50.0125 Q2182.22 55.6027 2172.33 65.6895 Z" fill="#000000" fill-rule="nonzero" fill-opacity="1" /><path clip-path="url(#clip650)" d="M2235.57 17.4837 Q2229.25 17.4837 2226.05 23.7221 Q2222.89 29.92 2222.89 42.3968 Q2222.89 54.833 2226.05 61.0714 Q2229.25 67.2693 2235.57 67.2693 Q2241.93 67.2693 2245.09 61.0714 Q2248.29 54.833 2248.29 42.3968 Q2248.29 29.92 2245.09 23.7221 Q2241.93 17.4837 2235.57 17.4837 M2235.57 11.0023 Q2245.74 11.0023 2251.08 19.0636 Q2256.47 27.0843 2256.47 42.3968 Q2256.47 57.6687 2251.08 65.73 Q2245.74 73.7508 2235.57 73.7508 Q2225.4 73.7508 2220.01 65.73 Q2214.67 57.6687 2214.67 42.3968 Q2214.67 27.0843 2220.01 19.0636 Q2225.4 11.0023 2235.57 11.0023 Z" fill="#000000" fill-rule="nonzero" fill-opacity="1" /><path clip-path="url(#clip650)" d="M2288.35 17.4837 Q2282.03 17.4837 2278.83 23.7221 Q2275.67 29.92 2275.67 42.3968 Q2275.67 54.833 2278.83 61.0714 Q2282.03 67.2693 2288.35 67.2693 Q2294.71 67.2693 2297.87 61.0714 Q2301.07 54.833 2301.07 42.3968 Q2301.07 29.92 2297.87 23.7221 Q2294.71 17.4837 2288.35 17.4837 M2288.35 11.0023 Q2298.52 11.0023 2303.87 19.0636 Q2309.25 27.0843 2309.25 42.3968 Q2309.25 57.6687 2303.87 65.73 Q2298.52 73.7508 2288.35 73.7508 Q2278.18 73.7508 2272.8 65.73 Q2267.45 57.6687 2267.45 42.3968 Q2267.45 27.0843 2272.8 19.0636 Q2278.18 11.0023 2288.35 11.0023 Z" fill="#000000" fill-rule="nonzero" fill-opacity="1" /><path clip-path="url(#clip650)" d="M2321.41 9.62495 L2327.89 9.62495 Q2333.96 19.1851 2336.96 28.3401 Q2340 37.4952 2340 46.5287 Q2340 55.6027 2336.96 64.7983 Q2333.96 73.9938 2327.89 83.5134 L2321.41 83.5134 Q2326.79 74.2369 2329.43 65.0818 Q2332.1 55.8863 2332.1 46.5287 Q2332.1 37.1711 2329.43 28.0566 Q2326.79 18.942 2321.41 9.62495 Z" fill="#000000" fill-rule="nonzero" fill-opacity="1" /><polyline clip-path="url(#clip651)" style="stroke:#ff0000; stroke-linecap:round; stroke-linejoin:round; stroke-width:8; stroke-opacity:1; fill:none" stroke-dasharray="32, 20" points="294.479,1676.27 305.868,1647.87 317.258,1597.17 328.648,1509.68 340.038,1373.47 351.427,1191.34 362.817,984.36 374.207,779.615 385.596,597.508 396.986,448.444 408.376,335.077 419.765,255.417 431.155,205.204 442.545,179.439 453.934,173.254 465.324,182.33 476.714,203.036 488.104,232.414 499.493,268.11 510.883,308.274 522.273,351.464 533.662,396.563 545.052,442.715 556.442,489.26 567.831,535.697 579.221,581.647 590.611,626.825 602,671.022 613.39,714.082 624.78,755.898 636.17,796.398 647.559,835.536 658.949,873.287 670.339,909.644 681.728,944.612 693.118,978.207 704.508,1010.45 715.897,1041.37 727.287,1071 738.677,1099.38 750.067,1126.54 761.456,1152.53 772.846,1177.38 784.236,1201.14 795.625,1223.84 807.015,1245.52 818.405,1266.24 829.794,1286.01 841.184,1304.89 852.574,1322.91 863.963,1340.11 875.353,1356.51 886.743,1372.16 898.133,1387.09 909.522,1401.33 920.912,1414.91 932.302,1427.86 943.691,1440.2 955.081,1451.97 966.471,1463.19 977.86,1473.88 989.25,1484.07 1000.64,1493.79 1012.03,1503.04 1023.42,1511.87 1034.81,1520.28 1046.2,1528.29 1057.59,1535.92 1068.98,1543.19 1080.37,1550.12 1091.76,1556.72 1103.15,1563.01 1114.54,1569 1125.93,1574.71 1137.32,1580.15 1148.71,1585.33 1160.1,1590.27 1171.49,1594.97 1182.87,1599.44 1194.26,1603.71 1205.65,1607.77 1217.04,1611.64 1228.43,1615.32 1239.82,1618.83 1251.21,1622.17 1262.6,1625.36 1273.99,1628.39 1285.38,1631.28 1296.77,1634.03 1308.16,1636.65 1319.55,1639.14 1330.94,1641.52 1342.33,1643.78 1353.72,1645.93 1365.11,1647.98 1376.5,1649.94 1387.89,1651.8 1399.28,1653.57 1410.67,1655.26 1422.06,1656.86 1433.45,1658.39 1444.84,1659.85 1456.23,1661.24 1467.62,1662.56 1479.01,1663.82 1490.4,1665.02 1501.79,1666.16 1513.18,1667.24 1524.57,1668.28 1535.96,1669.26 1547.35,1670.2 1558.73,1671.09 1570.12,1671.95 1581.51,1672.76 1592.9,1673.53 1604.29,1674.26 1615.68,1674.96 1627.07,1675.63 1638.46,1676.26 1649.85,1676.86 1661.24,1677.44 1672.63,1677.99 1684.02,1678.51 1695.41,1679 1706.8,1679.48 1718.19,1679.93 1729.58,1680.35 1740.97,1680.76 1752.36,1681.15 1763.75,1681.52 1775.14,1681.87 1786.53,1682.21 1797.92,1682.53 1809.31,1682.83 1820.7,1683.12 1832.09,1683.4 1843.48,1683.66 1854.87,1683.91 1866.26,1684.15 1877.65,1684.37 1889.04,1684.59 1900.43,1684.79 1911.82,1684.99 1923.21,1685.18 1934.59,1685.35 1945.98,1685.52 1957.37,1685.68 1968.76,1685.84 1980.15,1685.98 1991.54,1686.12 2002.93,1686.25 2014.32,1686.38 2025.71,1686.5 2037.1,1686.61 2048.49,1686.72 2059.88,1686.82 2071.27,1686.92 2082.66,1687.02 2094.05,1687.11 2105.44,1687.19 2116.83,1687.27 2128.22,1687.35 2139.61,1687.42 2151,1687.49 2162.39,1687.56 2173.78,1687.62 2185.17,1687.68 2196.56,1687.74 2207.95,1687.79 2219.34,1687.85 2230.73,1687.9 2242.12,1687.94 2253.51,1687.99 2264.9,1688.03 2276.29,1688.07 2287.68,1688.11 2299.07,1688.15 2310.45,1688.18 2321.84,1688.22 2333.23,1688.25 2344.62,1688.28 2356.01,1688.31 2367.4,1688.33 2378.79,1688.36 2390.18,1688.39 2401.57,1688.41 2412.96,1688.43 2424.35,1688.45 2435.74,1688.47 2447.13,1688.49 2458.52,1688.51 2469.91,1688.53 2481.3,1688.55 2492.69,1688.56 2504.08,1688.58 2515.47,1688.59 2526.86,1688.61 2538.25,1688.62 2549.64,1688.63 2561.03,1688.64 2572.42,1688.65 "/>
<polyline clip-path="url(#clip651)" style="stroke:#0000ff; stroke-linecap:round; stroke-linejoin:round; stroke-width:8; stroke-opacity:1; fill:none" points="294.479,1676.27 305.868,1648.4 317.258,1602.62 328.648,1531.64 340.038,1429.36 351.427,1294.55 362.817,1134.01 374.207,961.78 385.596,793.999 396.986,643.588 408.376,517.997 419.765,419.756 431.155,348.078 442.545,300.352 453.934,273.206 465.324,263.152 476.714,266.927 488.104,281.65 499.493,304.869 510.883,334.545 522.273,369.009 "/>
<path clip-path="url(#clip650)" d="M1936.68 336.856 L2560.27 336.856 L2560.27 181.336 L1936.68 181.336  Z" fill="#ffffff" fill-rule="evenodd" fill-opacity="1"/>
<polyline clip-path="url(#clip650)" style="stroke:#000000; stroke-linecap:round; stroke-linejoin:round; stroke-width:4; stroke-opacity:1; fill:none" points="1936.68,336.856 2560.27,336.856 2560.27,181.336 1936.68,181.336 1936.68,336.856 "/>
<polyline clip-path="url(#clip650)" style="stroke:#ff0000; stroke-linecap:round; stroke-linejoin:round; stroke-width:8; stroke-opacity:1; fill:none" stroke-dasharray="32, 20" points="1963.51,233.176 2124.48,233.176 "/>
<path clip-path="url(#clip650)" d="M2151.31 215.896 L2155.99 215.896 L2155.99 250.456 L2151.31 250.456 L2151.31 215.896 Z" fill="#000000" fill-rule="nonzero" fill-opacity="1" /><path clip-path="url(#clip650)" d="M2186.66 234.808 L2186.66 250.456 L2182.4 250.456 L2182.4 234.947 Q2182.4 231.267 2180.96 229.438 Q2179.53 227.609 2176.66 227.609 Q2173.21 227.609 2171.22 229.808 Q2169.23 232.007 2169.23 235.804 L2169.23 250.456 L2164.95 250.456 L2164.95 224.531 L2169.23 224.531 L2169.23 228.558 Q2170.76 226.22 2172.82 225.063 Q2174.9 223.906 2177.61 223.906 Q2182.08 223.906 2184.37 226.683 Q2186.66 229.438 2186.66 234.808 Z" fill="#000000" fill-rule="nonzero" fill-opacity="1" /><path clip-path="url(#clip650)" d="M2212.21 228.466 L2212.21 214.438 L2216.47 214.438 L2216.47 250.456 L2212.21 250.456 L2212.21 246.567 Q2210.87 248.882 2208.81 250.016 Q2206.77 251.128 2203.9 251.128 Q2199.21 251.128 2196.24 247.378 Q2193.3 243.628 2193.3 237.517 Q2193.3 231.405 2196.24 227.655 Q2199.21 223.906 2203.9 223.906 Q2206.77 223.906 2208.81 225.04 Q2210.87 226.151 2212.21 228.466 M2197.7 237.517 Q2197.7 242.216 2199.62 244.901 Q2201.57 247.563 2204.95 247.563 Q2208.33 247.563 2210.27 244.901 Q2212.21 242.216 2212.21 237.517 Q2212.21 232.817 2210.27 230.155 Q2208.33 227.47 2204.95 227.47 Q2201.57 227.47 2199.62 230.155 Q2197.7 232.817 2197.7 237.517 Z" fill="#000000" fill-rule="nonzero" fill-opacity="1" /><path clip-path="url(#clip650)" d="M2225.25 224.531 L2229.51 224.531 L2229.51 250.456 L2225.25 250.456 L2225.25 224.531 M2225.25 214.438 L2229.51 214.438 L2229.51 219.831 L2225.25 219.831 L2225.25 214.438 Z" fill="#000000" fill-rule="nonzero" fill-opacity="1" /><path clip-path="url(#clip650)" d="M2235.36 224.531 L2239.88 224.531 L2247.98 246.29 L2256.08 224.531 L2260.59 224.531 L2250.87 250.456 L2245.08 250.456 L2235.36 224.531 Z" fill="#000000" fill-rule="nonzero" fill-opacity="1" /><path clip-path="url(#clip650)" d="M2266.47 224.531 L2270.73 224.531 L2270.73 250.456 L2266.47 250.456 L2266.47 224.531 M2266.47 214.438 L2270.73 214.438 L2270.73 219.831 L2266.47 219.831 L2266.47 214.438 Z" fill="#000000" fill-rule="nonzero" fill-opacity="1" /><path clip-path="url(#clip650)" d="M2296.7 228.466 L2296.7 214.438 L2300.96 214.438 L2300.96 250.456 L2296.7 250.456 L2296.7 246.567 Q2295.36 248.882 2293.3 250.016 Q2291.27 251.128 2288.39 251.128 Q2283.7 251.128 2280.73 247.378 Q2277.79 243.628 2277.79 237.517 Q2277.79 231.405 2280.73 227.655 Q2283.7 223.906 2288.39 223.906 Q2291.27 223.906 2293.3 225.04 Q2295.36 226.151 2296.7 228.466 M2282.19 237.517 Q2282.19 242.216 2284.11 244.901 Q2286.06 247.563 2289.44 247.563 Q2292.82 247.563 2294.76 244.901 Q2296.7 242.216 2296.7 237.517 Q2296.7 232.817 2294.76 230.155 Q2292.82 227.47 2289.44 227.47 Q2286.06 227.47 2284.11 230.155 Q2282.19 232.817 2282.19 237.517 Z" fill="#000000" fill-rule="nonzero" fill-opacity="1" /><path clip-path="url(#clip650)" d="M2309.3 240.225 L2309.3 224.531 L2313.56 224.531 L2313.56 240.063 Q2313.56 243.743 2314.99 245.595 Q2316.43 247.424 2319.3 247.424 Q2322.75 247.424 2324.74 245.225 Q2326.75 243.026 2326.75 239.229 L2326.75 224.531 L2331.01 224.531 L2331.01 250.456 L2326.75 250.456 L2326.75 246.475 Q2325.2 248.836 2323.14 249.993 Q2321.1 251.128 2318.39 251.128 Q2313.93 251.128 2311.61 248.35 Q2309.3 245.572 2309.3 240.225 M2320.01 223.906 L2320.01 223.906 Z" fill="#000000" fill-rule="nonzero" fill-opacity="1" /><path clip-path="url(#clip650)" d="M2351.57 237.424 Q2346.4 237.424 2344.41 238.604 Q2342.42 239.785 2342.42 242.632 Q2342.42 244.901 2343.9 246.243 Q2345.41 247.563 2347.98 247.563 Q2351.52 247.563 2353.65 245.063 Q2355.8 242.54 2355.8 238.373 L2355.8 237.424 L2351.57 237.424 M2360.06 235.665 L2360.06 250.456 L2355.8 250.456 L2355.8 246.521 Q2354.34 248.882 2352.17 250.016 Q2349.99 251.128 2346.84 251.128 Q2342.86 251.128 2340.5 248.905 Q2338.16 246.66 2338.16 242.91 Q2338.16 238.535 2341.08 236.313 Q2344.02 234.091 2349.83 234.091 L2355.8 234.091 L2355.8 233.674 Q2355.8 230.734 2353.86 229.137 Q2351.94 227.517 2348.44 227.517 Q2346.22 227.517 2344.11 228.049 Q2342.01 228.581 2340.06 229.646 L2340.06 225.711 Q2342.4 224.808 2344.6 224.368 Q2346.8 223.906 2348.88 223.906 Q2354.51 223.906 2357.28 226.822 Q2360.06 229.739 2360.06 235.665 Z" fill="#000000" fill-rule="nonzero" fill-opacity="1" /><path clip-path="url(#clip650)" d="M2368.83 214.438 L2373.09 214.438 L2373.09 250.456 L2368.83 250.456 L2368.83 214.438 Z" fill="#000000" fill-rule="nonzero" fill-opacity="1" /><path clip-path="url(#clip650)" d="M2379.85 235.572 L2392.33 235.572 L2392.33 239.368 L2379.85 239.368 L2379.85 235.572 Z" fill="#000000" fill-rule="nonzero" fill-opacity="1" /><path clip-path="url(#clip650)" d="M2417.72 237.517 Q2417.72 232.817 2415.78 230.155 Q2413.86 227.47 2410.48 227.47 Q2407.1 227.47 2405.15 230.155 Q2403.23 232.817 2403.23 237.517 Q2403.23 242.216 2405.15 244.901 Q2407.1 247.563 2410.48 247.563 Q2413.86 247.563 2415.78 244.901 Q2417.72 242.216 2417.72 237.517 M2403.23 228.466 Q2404.57 226.151 2406.61 225.04 Q2408.67 223.906 2411.52 223.906 Q2416.24 223.906 2419.18 227.655 Q2422.14 231.405 2422.14 237.517 Q2422.14 243.628 2419.18 247.378 Q2416.24 251.128 2411.52 251.128 Q2408.67 251.128 2406.61 250.016 Q2404.57 248.882 2403.23 246.567 L2403.23 250.456 L2398.95 250.456 L2398.95 214.438 L2403.23 214.438 L2403.23 228.466 Z" fill="#000000" fill-rule="nonzero" fill-opacity="1" /><path clip-path="url(#clip650)" d="M2440.99 237.424 Q2435.82 237.424 2433.83 238.604 Q2431.84 239.785 2431.84 242.632 Q2431.84 244.901 2433.32 246.243 Q2434.83 247.563 2437.4 247.563 Q2440.94 247.563 2443.07 245.063 Q2445.22 242.54 2445.22 238.373 L2445.22 237.424 L2440.99 237.424 M2449.48 235.665 L2449.48 250.456 L2445.22 250.456 L2445.22 246.521 Q2443.76 248.882 2441.59 250.016 Q2439.41 251.128 2436.26 251.128 Q2432.28 251.128 2429.92 248.905 Q2427.58 246.66 2427.58 242.91 Q2427.58 238.535 2430.5 236.313 Q2433.44 234.091 2439.25 234.091 L2445.22 234.091 L2445.22 233.674 Q2445.22 230.734 2443.28 229.137 Q2441.36 227.517 2437.86 227.517 Q2435.64 227.517 2433.53 228.049 Q2431.43 228.581 2429.48 229.646 L2429.48 225.711 Q2431.82 224.808 2434.02 224.368 Q2436.22 223.906 2438.3 223.906 Q2443.93 223.906 2446.7 226.822 Q2449.48 229.739 2449.48 235.665 Z" fill="#000000" fill-rule="nonzero" fill-opacity="1" /><path clip-path="url(#clip650)" d="M2474.78 225.294 L2474.78 229.322 Q2472.98 228.396 2471.03 227.933 Q2469.09 227.47 2467 227.47 Q2463.83 227.47 2462.24 228.443 Q2460.66 229.415 2460.66 231.359 Q2460.66 232.841 2461.8 233.697 Q2462.93 234.53 2466.36 235.294 L2467.82 235.618 Q2472.35 236.591 2474.25 238.373 Q2476.17 240.132 2476.17 243.304 Q2476.17 246.915 2473.3 249.021 Q2470.45 251.128 2465.45 251.128 Q2463.37 251.128 2461.1 250.711 Q2458.86 250.317 2456.36 249.507 L2456.36 245.109 Q2458.72 246.336 2461.01 246.961 Q2463.3 247.563 2465.55 247.563 Q2468.56 247.563 2470.18 246.544 Q2471.8 245.503 2471.8 243.628 Q2471.8 241.892 2470.62 240.966 Q2469.46 240.04 2465.5 239.183 L2464.02 238.836 Q2460.06 238.003 2458.3 236.29 Q2456.54 234.554 2456.54 231.544 Q2456.54 227.887 2459.13 225.896 Q2461.73 223.906 2466.5 223.906 Q2468.86 223.906 2470.94 224.253 Q2473.02 224.6 2474.78 225.294 Z" fill="#000000" fill-rule="nonzero" fill-opacity="1" /><path clip-path="url(#clip650)" d="M2505.13 236.429 L2505.13 238.512 L2485.55 238.512 Q2485.82 242.91 2488.19 245.225 Q2490.57 247.516 2494.81 247.516 Q2497.26 247.516 2499.55 246.915 Q2501.87 246.313 2504.13 245.109 L2504.13 249.137 Q2501.84 250.109 2499.44 250.618 Q2497.03 251.128 2494.55 251.128 Q2488.35 251.128 2484.71 247.516 Q2481.1 243.905 2481.1 237.748 Q2481.1 231.382 2484.53 227.655 Q2487.98 223.906 2493.81 223.906 Q2499.04 223.906 2502.07 227.285 Q2505.13 230.642 2505.13 236.429 M2500.87 235.179 Q2500.82 231.683 2498.9 229.6 Q2497 227.517 2493.86 227.517 Q2490.29 227.517 2488.14 229.53 Q2486.01 231.544 2485.69 235.202 L2500.87 235.179 Z" fill="#000000" fill-rule="nonzero" fill-opacity="1" /><path clip-path="url(#clip650)" d="M2529.18 228.466 L2529.18 214.438 L2533.44 214.438 L2533.44 250.456 L2529.18 250.456 L2529.18 246.567 Q2527.84 248.882 2525.78 250.016 Q2523.74 251.128 2520.87 251.128 Q2516.17 251.128 2513.21 247.378 Q2510.27 243.628 2510.27 237.517 Q2510.27 231.405 2513.21 227.655 Q2516.17 223.906 2520.87 223.906 Q2523.74 223.906 2525.78 225.04 Q2527.84 226.151 2529.18 228.466 M2514.67 237.517 Q2514.67 242.216 2516.59 244.901 Q2518.53 247.563 2521.91 247.563 Q2525.29 247.563 2527.24 244.901 Q2529.18 242.216 2529.18 237.517 Q2529.18 232.817 2527.24 230.155 Q2525.29 227.47 2521.91 227.47 Q2518.53 227.47 2516.59 230.155 Q2514.67 232.817 2514.67 237.517 Z" fill="#000000" fill-rule="nonzero" fill-opacity="1" /><polyline clip-path="url(#clip650)" style="stroke:#0000ff; stroke-linecap:round; stroke-linejoin:round; stroke-width:8; stroke-opacity:1; fill:none" points="1963.51,285.016 2124.48,285.016 "/>
<path clip-path="url(#clip650)" d="M2155.99 271.579 L2155.99 284.565 L2161.87 284.565 Q2165.13 284.565 2166.91 282.875 Q2168.7 281.185 2168.7 278.06 Q2168.7 274.958 2166.91 273.269 Q2165.13 271.579 2161.87 271.579 L2155.99 271.579 M2151.31 267.736 L2161.87 267.736 Q2167.68 267.736 2170.64 270.375 Q2173.63 272.991 2173.63 278.06 Q2173.63 283.176 2170.64 285.792 Q2167.68 288.407 2161.87 288.407 L2155.99 288.407 L2155.99 302.296 L2151.31 302.296 L2151.31 267.736 Z" fill="#000000" fill-rule="nonzero" fill-opacity="1" /><path clip-path="url(#clip650)" d="M2189.37 289.264 Q2184.21 289.264 2182.21 290.444 Q2180.22 291.625 2180.22 294.472 Q2180.22 296.741 2181.71 298.083 Q2183.21 299.403 2185.78 299.403 Q2189.32 299.403 2191.45 296.903 Q2193.6 294.38 2193.6 290.213 L2193.6 289.264 L2189.37 289.264 M2197.86 287.505 L2197.86 302.296 L2193.6 302.296 L2193.6 298.361 Q2192.15 300.722 2189.97 301.856 Q2187.79 302.968 2184.65 302.968 Q2180.66 302.968 2178.3 300.745 Q2175.96 298.5 2175.96 294.75 Q2175.96 290.375 2178.88 288.153 Q2181.82 285.931 2187.63 285.931 L2193.6 285.931 L2193.6 285.514 Q2193.6 282.574 2191.66 280.977 Q2189.74 279.357 2186.24 279.357 Q2184.02 279.357 2181.91 279.889 Q2179.81 280.421 2177.86 281.486 L2177.86 277.551 Q2180.2 276.648 2182.4 276.208 Q2184.6 275.746 2186.68 275.746 Q2192.31 275.746 2195.08 278.662 Q2197.86 281.579 2197.86 287.505 Z" fill="#000000" fill-rule="nonzero" fill-opacity="1" /><path clip-path="url(#clip650)" d="M2206.64 276.371 L2210.9 276.371 L2210.9 302.296 L2206.64 302.296 L2206.64 276.371 M2206.64 266.278 L2210.9 266.278 L2210.9 271.671 L2206.64 271.671 L2206.64 266.278 Z" fill="#000000" fill-rule="nonzero" fill-opacity="1" /><path clip-path="url(#clip650)" d="M2234.83 280.352 Q2234.11 279.935 2233.26 279.75 Q2232.42 279.542 2231.4 279.542 Q2227.79 279.542 2225.85 281.903 Q2223.93 284.241 2223.93 288.639 L2223.93 302.296 L2219.65 302.296 L2219.65 276.371 L2223.93 276.371 L2223.93 280.398 Q2225.27 278.037 2227.42 276.903 Q2229.58 275.746 2232.65 275.746 Q2233.09 275.746 2233.63 275.815 Q2234.16 275.861 2234.81 275.977 L2234.83 280.352 Z" fill="#000000" fill-rule="nonzero" fill-opacity="1" /><path clip-path="url(#clip650)" d="M2234.11 287.412 L2246.59 287.412 L2246.59 291.208 L2234.11 291.208 L2234.11 287.412 Z" fill="#000000" fill-rule="nonzero" fill-opacity="1" /><path clip-path="url(#clip650)" d="M2271.98 289.357 Q2271.98 284.657 2270.04 281.995 Q2268.12 279.31 2264.74 279.31 Q2261.36 279.31 2259.41 281.995 Q2257.49 284.657 2257.49 289.357 Q2257.49 294.056 2259.41 296.741 Q2261.36 299.403 2264.74 299.403 Q2268.12 299.403 2270.04 296.741 Q2271.98 294.056 2271.98 289.357 M2257.49 280.306 Q2258.83 277.991 2260.87 276.88 Q2262.93 275.746 2265.78 275.746 Q2270.5 275.746 2273.44 279.495 Q2276.4 283.245 2276.4 289.357 Q2276.4 295.468 2273.44 299.218 Q2270.5 302.968 2265.78 302.968 Q2262.93 302.968 2260.87 301.856 Q2258.83 300.722 2257.49 298.407 L2257.49 302.296 L2253.21 302.296 L2253.21 266.278 L2257.49 266.278 L2257.49 280.306 Z" fill="#000000" fill-rule="nonzero" fill-opacity="1" /><path clip-path="url(#clip650)" d="M2295.25 289.264 Q2290.08 289.264 2288.09 290.444 Q2286.1 291.625 2286.1 294.472 Q2286.1 296.741 2287.58 298.083 Q2289.09 299.403 2291.66 299.403 Q2295.2 299.403 2297.33 296.903 Q2299.48 294.38 2299.48 290.213 L2299.48 289.264 L2295.25 289.264 M2303.74 287.505 L2303.74 302.296 L2299.48 302.296 L2299.48 298.361 Q2298.02 300.722 2295.85 301.856 Q2293.67 302.968 2290.52 302.968 Q2286.54 302.968 2284.18 300.745 Q2281.84 298.5 2281.84 294.75 Q2281.84 290.375 2284.76 288.153 Q2287.7 285.931 2293.51 285.931 L2299.48 285.931 L2299.48 285.514 Q2299.48 282.574 2297.54 280.977 Q2295.62 279.357 2292.12 279.357 Q2289.9 279.357 2287.79 279.889 Q2285.69 280.421 2283.74 281.486 L2283.74 277.551 Q2286.08 276.648 2288.28 276.208 Q2290.48 275.746 2292.56 275.746 Q2298.19 275.746 2300.96 278.662 Q2303.74 281.579 2303.74 287.505 Z" fill="#000000" fill-rule="nonzero" fill-opacity="1" /><path clip-path="url(#clip650)" d="M2329.04 277.134 L2329.04 281.162 Q2327.24 280.236 2325.29 279.773 Q2323.35 279.31 2321.26 279.31 Q2318.09 279.31 2316.5 280.283 Q2314.92 281.255 2314.92 283.199 Q2314.92 284.681 2316.06 285.537 Q2317.19 286.37 2320.62 287.134 L2322.08 287.458 Q2326.61 288.431 2328.51 290.213 Q2330.43 291.972 2330.43 295.144 Q2330.43 298.755 2327.56 300.861 Q2324.71 302.968 2319.71 302.968 Q2317.63 302.968 2315.36 302.551 Q2313.12 302.157 2310.62 301.347 L2310.62 296.949 Q2312.98 298.176 2315.27 298.801 Q2317.56 299.403 2319.81 299.403 Q2322.82 299.403 2324.44 298.384 Q2326.06 297.343 2326.06 295.468 Q2326.06 293.732 2324.88 292.806 Q2323.72 291.88 2319.76 291.023 L2318.28 290.676 Q2314.32 289.843 2312.56 288.13 Q2310.8 286.394 2310.8 283.384 Q2310.8 279.727 2313.39 277.736 Q2315.99 275.746 2320.76 275.746 Q2323.12 275.746 2325.2 276.093 Q2327.28 276.44 2329.04 277.134 Z" fill="#000000" fill-rule="nonzero" fill-opacity="1" /><path clip-path="url(#clip650)" d="M2359.39 288.269 L2359.39 290.352 L2339.81 290.352 Q2340.08 294.75 2342.45 297.065 Q2344.83 299.356 2349.07 299.356 Q2351.52 299.356 2353.81 298.755 Q2356.13 298.153 2358.39 296.949 L2358.39 300.977 Q2356.1 301.949 2353.7 302.458 Q2351.29 302.968 2348.81 302.968 Q2342.61 302.968 2338.97 299.356 Q2335.36 295.745 2335.36 289.588 Q2335.36 283.222 2338.79 279.495 Q2342.24 275.746 2348.07 275.746 Q2353.3 275.746 2356.33 279.125 Q2359.39 282.482 2359.39 288.269 M2355.13 287.019 Q2355.08 283.523 2353.16 281.44 Q2351.26 279.357 2348.12 279.357 Q2344.55 279.357 2342.4 281.37 Q2340.27 283.384 2339.95 287.042 L2355.13 287.019 Z" fill="#000000" fill-rule="nonzero" fill-opacity="1" /><path clip-path="url(#clip650)" d="M2383.44 280.306 L2383.44 266.278 L2387.7 266.278 L2387.7 302.296 L2383.44 302.296 L2383.44 298.407 Q2382.1 300.722 2380.04 301.856 Q2378 302.968 2375.13 302.968 Q2370.43 302.968 2367.47 299.218 Q2364.53 295.468 2364.53 289.357 Q2364.53 283.245 2367.47 279.495 Q2370.43 275.746 2375.13 275.746 Q2378 275.746 2380.04 276.88 Q2382.1 277.991 2383.44 280.306 M2368.93 289.357 Q2368.93 294.056 2370.85 296.741 Q2372.79 299.403 2376.17 299.403 Q2379.55 299.403 2381.5 296.741 Q2383.44 294.056 2383.44 289.357 Q2383.44 284.657 2381.5 281.995 Q2379.55 279.31 2376.17 279.31 Q2372.79 279.31 2370.85 281.995 Q2368.93 284.657 2368.93 289.357 Z" fill="#000000" fill-rule="nonzero" fill-opacity="1" /></svg>
