<?xml version="1.0" encoding="utf-8"?>
<svg xmlns="http://www.w3.org/2000/svg" xmlns:xlink="http://www.w3.org/1999/xlink" width="672" height="480" viewBox="0 0 2688 1920">
<defs>
  <clipPath id="clip690">
    <rect x="0" y="0" width="2688" height="1920"/>
  </clipPath>
</defs>
<path clip-path="url(#clip690)" d="M0 1920 L2688 1920 L2688 -4.26326e-14 L0 -4.26326e-14  Z" fill="#ffffff" fill-rule="evenodd" fill-opacity="1"/>
<defs>
  <clipPath id="clip691">
    <rect x="210" y="127" width="2432" height="1607"/>
  </clipPath>
</defs>
<path clip-path="url(#clip690)" d="M210.238 1734.12 L2640.76 1734.12 L2640.76 127.792 L210.238 127.792  Z" fill="#ffffff" fill-rule="evenodd" fill-opacity="1"/>
<polyline clip-path="url(#clip691)" style="stroke:#000000; stroke-linecap:round; stroke-linejoin:round; stroke-width:2; stroke-opacity:0.1; fill:none" points="343.921,1734.12 343.921,127.792 "/>
<polyline clip-path="url(#clip691)" style="stroke:#000000; stroke-linecap:round; stroke-linejoin:round; stroke-width:2; stroke-opacity:0.1; fill:none" points="884.709,1734.12 884.709,127.792 "/>
<polyline clip-path="url(#clip691)" style="stroke:#000000; stroke-linecap:round; stroke-linejoin:round; stroke-width:2; stroke-opacity:0.1; fill:none" points="1425.5,1734.12 1425.5,127.792 "/>
<polyline clip-path="url(#clip691)" style="stroke:#000000; stroke-linecap:round; stroke-linejoin:round; stroke-width:2; stroke-opacity:0.1; fill:none" points="1966.28,1734.12 1966.28,127.792 "/>
<polyline clip-path="url(#clip691)" style="stroke:#000000; stroke-linecap:round; stroke-linejoin:round; stroke-width:2; stroke-opacity:0.1; fill:none" points="2507.07,1734.12 2507.07,127.792 "/>
<polyline clip-path="url(#clip691)" style="stroke:#000000; stroke-linecap:round; stroke-linejoin:round; stroke-width:2; stroke-opacity:0.1; fill:none" points="210.238,1734.12 2640.76,1734.12 "/>
<polyline clip-path="url(#clip691)" style="stroke:#000000; stroke-linecap:round; stroke-linejoin:round; stroke-width:2; stroke-opacity:0.1; fill:none" points="210.238,1447.27 2640.76,1447.27 "/>
<polyline clip-path="url(#clip691)" style="stroke:#000000; stroke-linecap:round; stroke-linejoin:round; stroke-width:2; stroke-opacity:0.1; fill:none" points="210.238,1160.43 2640.76,1160.43 "/>
<polyline clip-path="url(#clip691)" style="stroke:#000000; stroke-linecap:round; stroke-linejoin:round; stroke-width:2; stroke-opacity:0.1; fill:none" points="210.238,873.586 2640.76,873.586 "/>
<polyline clip-path="url(#clip691)" style="stroke:#000000; stroke-linecap:round; stroke-linejoin:round; stroke-width:2; stroke-opacity:0.1; fill:none" points="210.238,586.742 2640.76,586.742 "/>
<polyline clip-path="url(#clip691)" style="stroke:#000000; stroke-linecap:round; stroke-linejoin:round; stroke-width:2; stroke-opacity:0.1; fill:none" points="210.238,299.898 2640.76,299.898 "/>
<polyline clip-path="url(#clip690)" style="stroke:#000000; stroke-linecap:round; stroke-linejoin:round; stroke-width:4; stroke-opacity:1; fill:none" points="210.238,1734.12 2640.76,1734.12 "/>
<polyline clip-path="url(#clip690)" style="stroke:#000000; stroke-linecap:round; stroke-linejoin:round; stroke-width:4; stroke-opacity:1; fill:none" points="343.921,1734.12 343.921,1715.22 "/>
<polyline clip-path="url(#clip690)" style="stroke:#000000; stroke-linecap:round; stroke-linejoin:round; stroke-width:4; stroke-opacity:1; fill:none" points="884.709,1734.12 884.709,1715.22 "/>
<polyline clip-path="url(#clip690)" style="stroke:#000000; stroke-linecap:round; stroke-linejoin:round; stroke-width:4; stroke-opacity:1; fill:none" points="1425.5,1734.12 1425.5,1715.22 "/>
<polyline clip-path="url(#clip690)" style="stroke:#000000; stroke-linecap:round; stroke-linejoin:round; stroke-width:4; stroke-opacity:1; fill:none" points="1966.28,1734.12 1966.28,1715.22 "/>
<polyline clip-path="url(#clip690)" style="stroke:#000000; stroke-linecap:round; stroke-linejoin:round; stroke-width:4; stroke-opacity:1; fill:none" points="2507.07,1734.12 2507.07,1715.22 "/>
<path clip-path="url(#clip690)" d="M343.921 1767.34 Q340.31 1767.34 338.481 1770.9 Q336.675 1774.45 336.675 1781.58 Q336.675 1788.68 338.481 1792.25 Q340.31 1795.79 343.921 1795.79 Q347.555 1795.79 349.36 1792.25 Q351.189 1788.68 351.189 1781.58 Q351.189 1774.45 349.36 1770.9 Q347.555 1767.34 343.921 1767.34 M343.921 1763.64 Q349.731 1763.64 352.786 1768.24 Q355.865 1772.83 355.865 1781.58 Q355.865 1790.3 352.786 1794.91 Q349.731 1799.49 343.921 1799.49 Q338.111 1799.49 335.032 1794.91 Q331.976 1790.3 331.976 1781.58 Q331.976 1772.83 335.032 1768.24 Q338.111 1763.64 343.921 1763.64 Z" fill="#000000" fill-rule="nonzero" fill-opacity="1" /><path clip-path="url(#clip690)" d="M863.98 1794.89 L880.299 1794.89 L880.299 1798.82 L858.355 1798.82 L858.355 1794.89 Q861.017 1792.13 865.6 1787.5 Q870.207 1782.85 871.387 1781.51 Q873.632 1778.98 874.512 1777.25 Q875.415 1775.49 875.415 1773.8 Q875.415 1771.04 873.47 1769.31 Q871.549 1767.57 868.447 1767.57 Q866.248 1767.57 863.795 1768.34 Q861.364 1769.1 858.586 1770.65 L858.586 1765.93 Q861.41 1764.79 863.864 1764.21 Q866.318 1763.64 868.355 1763.64 Q873.725 1763.64 876.919 1766.32 Q880.114 1769.01 880.114 1773.5 Q880.114 1775.63 879.304 1777.55 Q878.517 1779.45 876.41 1782.04 Q875.832 1782.71 872.73 1785.93 Q869.628 1789.12 863.98 1794.89 Z" fill="#000000" fill-rule="nonzero" fill-opacity="1" /><path clip-path="url(#clip690)" d="M890.16 1764.26 L908.517 1764.26 L908.517 1768.2 L894.443 1768.2 L894.443 1776.67 Q895.461 1776.32 896.48 1776.16 Q897.498 1775.97 898.517 1775.97 Q904.304 1775.97 907.683 1779.15 Q911.063 1782.32 911.063 1787.73 Q911.063 1793.31 907.591 1796.41 Q904.118 1799.49 897.799 1799.49 Q895.623 1799.49 893.355 1799.12 Q891.109 1798.75 888.702 1798.01 L888.702 1793.31 Q890.785 1794.45 893.007 1795 Q895.23 1795.56 897.706 1795.56 Q901.711 1795.56 904.049 1793.45 Q906.387 1791.34 906.387 1787.73 Q906.387 1784.12 904.049 1782.02 Q901.711 1779.91 897.706 1779.91 Q895.831 1779.91 893.956 1780.33 Q892.105 1780.74 890.16 1781.62 L890.16 1764.26 Z" fill="#000000" fill-rule="nonzero" fill-opacity="1" /><path clip-path="url(#clip690)" d="M1400.2 1764.26 L1418.55 1764.26 L1418.55 1768.2 L1404.48 1768.2 L1404.48 1776.67 Q1405.5 1776.32 1406.52 1776.16 Q1407.53 1775.97 1408.55 1775.97 Q1414.34 1775.97 1417.72 1779.15 Q1421.1 1782.32 1421.1 1787.73 Q1421.1 1793.31 1417.63 1796.41 Q1414.15 1799.49 1407.83 1799.49 Q1405.66 1799.49 1403.39 1799.12 Q1401.15 1798.75 1398.74 1798.01 L1398.74 1793.31 Q1400.82 1794.45 1403.04 1795 Q1405.27 1795.56 1407.74 1795.56 Q1411.75 1795.56 1414.08 1793.45 Q1416.42 1791.34 1416.42 1787.73 Q1416.42 1784.12 1414.08 1782.02 Q1411.75 1779.91 1407.74 1779.91 Q1405.87 1779.91 1403.99 1780.33 Q1402.14 1780.74 1400.2 1781.62 L1400.2 1764.26 Z" fill="#000000" fill-rule="nonzero" fill-opacity="1" /><path clip-path="url(#clip690)" d="M1440.31 1767.34 Q1436.7 1767.34 1434.87 1770.9 Q1433.07 1774.45 1433.07 1781.58 Q1433.07 1788.68 1434.87 1792.25 Q1436.7 1795.79 1440.31 1795.79 Q1443.95 1795.79 1445.75 1792.25 Q1447.58 1788.68 1447.58 1781.58 Q1447.58 1774.45 1445.75 1770.9 Q1443.95 1767.34 1440.31 1767.34 M1440.31 1763.64 Q1446.12 1763.64 1449.18 1768.24 Q1452.26 1772.83 1452.26 1781.58 Q1452.26 1790.3 1449.18 1794.91 Q1446.12 1799.49 1440.31 1799.49 Q1434.5 1799.49 1431.42 1794.91 Q1428.37 1790.3 1428.37 1781.58 Q1428.37 1772.83 1431.42 1768.24 Q1434.5 1763.64 1440.31 1763.64 Z" fill="#000000" fill-rule="nonzero" fill-opacity="1" /><path clip-path="url(#clip690)" d="M1940.14 1764.26 L1962.36 1764.26 L1962.36 1766.25 L1949.82 1798.82 L1944.93 1798.82 L1956.74 1768.2 L1940.14 1768.2 L1940.14 1764.26 Z" fill="#000000" fill-rule="nonzero" fill-opacity="1" /><path clip-path="url(#clip690)" d="M1971.53 1764.26 L1989.88 1764.26 L1989.88 1768.2 L1975.81 1768.2 L1975.81 1776.67 Q1976.83 1776.32 1977.85 1776.16 Q1978.87 1775.97 1979.88 1775.97 Q1985.67 1775.97 1989.05 1779.15 Q1992.43 1782.32 1992.43 1787.73 Q1992.43 1793.31 1988.96 1796.41 Q1985.49 1799.49 1979.17 1799.49 Q1976.99 1799.49 1974.72 1799.12 Q1972.48 1798.75 1970.07 1798.01 L1970.07 1793.31 Q1972.15 1794.45 1974.38 1795 Q1976.6 1795.56 1979.07 1795.56 Q1983.08 1795.56 1985.42 1793.45 Q1987.75 1791.34 1987.75 1787.73 Q1987.75 1784.12 1985.42 1782.02 Q1983.08 1779.91 1979.07 1779.91 Q1977.2 1779.91 1975.32 1780.33 Q1973.47 1780.74 1971.53 1781.62 L1971.53 1764.26 Z" fill="#000000" fill-rule="nonzero" fill-opacity="1" /><path clip-path="url(#clip690)" d="M2466.68 1794.89 L2474.32 1794.89 L2474.32 1768.52 L2466.01 1770.19 L2466.01 1765.93 L2474.27 1764.26 L2478.95 1764.26 L2478.95 1794.89 L2486.59 1794.89 L2486.59 1798.82 L2466.68 1798.82 L2466.68 1794.89 Z" fill="#000000" fill-rule="nonzero" fill-opacity="1" /><path clip-path="url(#clip690)" d="M2506.03 1767.34 Q2502.42 1767.34 2500.59 1770.9 Q2498.79 1774.45 2498.79 1781.58 Q2498.79 1788.68 2500.59 1792.25 Q2502.42 1795.79 2506.03 1795.79 Q2509.67 1795.79 2511.47 1792.25 Q2513.3 1788.68 2513.3 1781.58 Q2513.3 1774.45 2511.47 1770.9 Q2509.67 1767.34 2506.03 1767.34 M2506.03 1763.64 Q2511.84 1763.64 2514.9 1768.24 Q2517.98 1772.83 2517.98 1781.58 Q2517.98 1790.3 2514.9 1794.91 Q2511.84 1799.49 2506.03 1799.49 Q2500.22 1799.49 2497.14 1794.91 Q2494.09 1790.3 2494.09 1781.58 Q2494.09 1772.83 2497.14 1768.24 Q2500.22 1763.64 2506.03 1763.64 Z" fill="#000000" fill-rule="nonzero" fill-opacity="1" /><path clip-path="url(#clip690)" d="M2536.19 1767.34 Q2532.58 1767.34 2530.75 1770.9 Q2528.95 1774.45 2528.95 1781.58 Q2528.95 1788.68 2530.75 1792.25 Q2532.58 1795.79 2536.19 1795.79 Q2539.83 1795.79 2541.63 1792.25 Q2543.46 1788.68 2543.46 1781.58 Q2543.46 1774.45 2541.63 1770.9 Q2539.83 1767.34 2536.19 1767.34 M2536.19 1763.64 Q2542 1763.64 2545.06 1768.24 Q2548.14 1772.83 2548.14 1781.58 Q2548.14 1790.3 2545.06 1794.91 Q2542 1799.49 2536.19 1799.49 Q2530.38 1799.49 2527.3 1794.91 Q2524.25 1790.3 2524.25 1781.58 Q2524.25 1772.83 2527.3 1768.24 Q2530.38 1763.64 2536.19 1763.64 Z" fill="#000000" fill-rule="nonzero" fill-opacity="1" /><path clip-path="url(#clip690)" d="M1037.62 1835.78 L1064.93 1835.78 L1064.93 1841.19 L1044.05 1841.19 L1044.05 1855.2 L1062.89 1855.2 L1062.89 1860.61 L1044.05 1860.61 L1044.05 1883.3 L1037.62 1883.3 L1037.62 1835.78 Z" fill="#000000" fill-rule="nonzero" fill-opacity="1" /><path clip-path="url(#clip690)" d="M1070.12 1847.65 L1075.97 1847.65 L1075.97 1883.3 L1070.12 1883.3 L1070.12 1847.65 M1070.12 1833.78 L1075.97 1833.78 L1075.97 1841.19 L1070.12 1841.19 L1070.12 1833.78 Z" fill="#000000" fill-rule="nonzero" fill-opacity="1" /><path clip-path="url(#clip690)" d="M1117.86 1861.78 L1117.86 1883.3 L1112 1883.3 L1112 1861.98 Q1112 1856.92 1110.03 1854.4 Q1108.06 1851.89 1104.11 1851.89 Q1099.37 1851.89 1096.63 1854.91 Q1093.89 1857.93 1093.89 1863.15 L1093.89 1883.3 L1088 1883.3 L1088 1847.65 L1093.89 1847.65 L1093.89 1853.19 Q1095.99 1849.98 1098.82 1848.39 Q1101.69 1846.79 1105.41 1846.79 Q1111.56 1846.79 1114.71 1850.61 Q1117.86 1854.4 1117.86 1861.78 Z" fill="#000000" fill-rule="nonzero" fill-opacity="1" /><path clip-path="url(#clip690)" d="M1145.74 1865.38 Q1138.64 1865.38 1135.9 1867 Q1133.17 1868.63 1133.17 1872.54 Q1133.17 1875.66 1135.2 1877.51 Q1137.27 1879.32 1140.81 1879.32 Q1145.68 1879.32 1148.6 1875.88 Q1151.56 1872.42 1151.56 1866.69 L1151.56 1865.38 L1145.74 1865.38 M1157.42 1862.96 L1157.42 1883.3 L1151.56 1883.3 L1151.56 1877.89 Q1149.56 1881.14 1146.57 1882.7 Q1143.58 1884.22 1139.25 1884.22 Q1133.77 1884.22 1130.53 1881.17 Q1127.31 1878.08 1127.31 1872.92 Q1127.31 1866.91 1131.32 1863.85 Q1135.36 1860.8 1143.35 1860.8 L1151.56 1860.8 L1151.56 1860.23 Q1151.56 1856.18 1148.89 1853.99 Q1146.25 1851.76 1141.44 1851.76 Q1138.39 1851.76 1135.49 1852.49 Q1132.59 1853.22 1129.92 1854.69 L1129.92 1849.28 Q1133.14 1848.03 1136.16 1847.43 Q1139.18 1846.79 1142.05 1846.79 Q1149.78 1846.79 1153.6 1850.8 Q1157.42 1854.81 1157.42 1862.96 Z" fill="#000000" fill-rule="nonzero" fill-opacity="1" /><path clip-path="url(#clip690)" d="M1169.48 1833.78 L1175.34 1833.78 L1175.34 1883.3 L1169.48 1883.3 L1169.48 1833.78 Z" fill="#000000" fill-rule="nonzero" fill-opacity="1" /><path clip-path="url(#clip690)" d="M1238.81 1864.01 L1238.81 1866.88 L1211.88 1866.88 Q1212.26 1872.92 1215.51 1876.11 Q1218.79 1879.26 1224.61 1879.26 Q1227.98 1879.26 1231.14 1878.43 Q1234.32 1877.6 1237.44 1875.95 L1237.44 1881.49 Q1234.29 1882.82 1230.98 1883.52 Q1227.67 1884.22 1224.26 1884.22 Q1215.73 1884.22 1210.73 1879.26 Q1205.77 1874.29 1205.77 1865.83 Q1205.77 1857.07 1210.48 1851.95 Q1215.22 1846.79 1223.24 1846.79 Q1230.44 1846.79 1234.61 1851.44 Q1238.81 1856.06 1238.81 1864.01 M1232.95 1862.29 Q1232.89 1857.49 1230.24 1854.62 Q1227.63 1851.76 1223.31 1851.76 Q1218.4 1851.76 1215.44 1854.53 Q1212.52 1857.3 1212.07 1862.33 L1232.95 1862.29 Z" fill="#000000" fill-rule="nonzero" fill-opacity="1" /><path clip-path="url(#clip690)" d="M1254.08 1877.95 L1254.08 1896.86 L1248.2 1896.86 L1248.2 1847.65 L1254.08 1847.65 L1254.08 1853.06 Q1255.93 1849.88 1258.73 1848.35 Q1261.56 1846.79 1265.48 1846.79 Q1271.97 1846.79 1276.01 1851.95 Q1280.09 1857.11 1280.09 1865.51 Q1280.09 1873.91 1276.01 1879.07 Q1271.97 1884.22 1265.48 1884.22 Q1261.56 1884.22 1258.73 1882.7 Q1255.93 1881.14 1254.08 1877.95 M1274.01 1865.51 Q1274.01 1859.05 1271.34 1855.39 Q1268.69 1851.7 1264.05 1851.7 Q1259.4 1851.7 1256.73 1855.39 Q1254.08 1859.05 1254.08 1865.51 Q1254.08 1871.97 1256.73 1875.66 Q1259.4 1879.32 1264.05 1879.32 Q1268.69 1879.32 1271.34 1875.66 Q1274.01 1871.97 1274.01 1865.51 Z" fill="#000000" fill-rule="nonzero" fill-opacity="1" /><path clip-path="url(#clip690)" d="M1289.8 1847.65 L1295.65 1847.65 L1295.65 1883.3 L1289.8 1883.3 L1289.8 1847.65 M1289.8 1833.78 L1295.65 1833.78 L1295.65 1841.19 L1289.8 1841.19 L1289.8 1833.78 Z" fill="#000000" fill-rule="nonzero" fill-opacity="1" /><path clip-path="url(#clip690)" d="M1331.36 1853.06 L1331.36 1833.78 L1337.22 1833.78 L1337.22 1883.3 L1331.36 1883.3 L1331.36 1877.95 Q1329.52 1881.14 1326.69 1882.7 Q1323.88 1884.22 1319.94 1884.22 Q1313.48 1884.22 1309.4 1879.07 Q1305.36 1873.91 1305.36 1865.51 Q1305.36 1857.11 1309.4 1851.95 Q1313.48 1846.79 1319.94 1846.79 Q1323.88 1846.79 1326.69 1848.35 Q1329.52 1849.88 1331.36 1853.06 M1311.41 1865.51 Q1311.41 1871.97 1314.05 1875.66 Q1316.72 1879.32 1321.37 1879.32 Q1326.02 1879.32 1328.69 1875.66 Q1331.36 1871.97 1331.36 1865.51 Q1331.36 1859.05 1328.69 1855.39 Q1326.02 1851.7 1321.37 1851.7 Q1316.72 1851.7 1314.05 1855.39 Q1311.41 1859.05 1311.41 1865.51 Z" fill="#000000" fill-rule="nonzero" fill-opacity="1" /><path clip-path="url(#clip690)" d="M1379.78 1864.01 L1379.78 1866.88 L1352.85 1866.88 Q1353.23 1872.92 1356.48 1876.11 Q1359.76 1879.26 1365.58 1879.26 Q1368.95 1879.26 1372.1 1878.43 Q1375.29 1877.6 1378.41 1875.95 L1378.41 1881.49 Q1375.26 1882.82 1371.95 1883.52 Q1368.64 1884.22 1365.23 1884.22 Q1356.7 1884.22 1351.7 1879.26 Q1346.74 1874.29 1346.74 1865.83 Q1346.74 1857.07 1351.45 1851.95 Q1356.19 1846.79 1364.21 1846.79 Q1371.4 1846.79 1375.57 1851.44 Q1379.78 1856.06 1379.78 1864.01 M1373.92 1862.29 Q1373.86 1857.49 1371.21 1854.62 Q1368.6 1851.76 1364.27 1851.76 Q1359.37 1851.76 1356.41 1854.53 Q1353.48 1857.3 1353.04 1862.33 L1373.92 1862.29 Z" fill="#000000" fill-rule="nonzero" fill-opacity="1" /><path clip-path="url(#clip690)" d="M1417.14 1854.5 Q1419.34 1850.55 1422.39 1848.67 Q1425.45 1846.79 1429.59 1846.79 Q1435.16 1846.79 1438.18 1850.71 Q1441.2 1854.59 1441.2 1861.78 L1441.2 1883.3 L1435.32 1883.3 L1435.32 1861.98 Q1435.32 1856.85 1433.5 1854.37 Q1431.69 1851.89 1427.96 1851.89 Q1423.41 1851.89 1420.77 1854.91 Q1418.13 1857.93 1418.13 1863.15 L1418.13 1883.3 L1412.24 1883.3 L1412.24 1861.98 Q1412.24 1856.82 1410.43 1854.37 Q1408.61 1851.89 1404.82 1851.89 Q1400.34 1851.89 1397.69 1854.94 Q1395.05 1857.97 1395.05 1863.15 L1395.05 1883.3 L1389.16 1883.3 L1389.16 1847.65 L1395.05 1847.65 L1395.05 1853.19 Q1397.06 1849.91 1399.86 1848.35 Q1402.66 1846.79 1406.51 1846.79 Q1410.39 1846.79 1413.1 1848.77 Q1415.84 1850.74 1417.14 1854.5 Z" fill="#000000" fill-rule="nonzero" fill-opacity="1" /><path clip-path="url(#clip690)" d="M1452.89 1847.65 L1458.74 1847.65 L1458.74 1883.3 L1452.89 1883.3 L1452.89 1847.65 M1452.89 1833.78 L1458.74 1833.78 L1458.74 1841.19 L1452.89 1841.19 L1452.89 1833.78 Z" fill="#000000" fill-rule="nonzero" fill-opacity="1" /><path clip-path="url(#clip690)" d="M1496.65 1849.02 L1496.65 1854.5 Q1494.17 1853.13 1491.65 1852.46 Q1489.17 1851.76 1486.62 1851.76 Q1480.93 1851.76 1477.78 1855.39 Q1474.62 1858.98 1474.62 1865.51 Q1474.62 1872.03 1477.78 1875.66 Q1480.93 1879.26 1486.62 1879.26 Q1489.17 1879.26 1491.65 1878.59 Q1494.17 1877.89 1496.65 1876.52 L1496.65 1881.93 Q1494.2 1883.08 1491.56 1883.65 Q1488.95 1884.22 1485.99 1884.22 Q1477.93 1884.22 1473.19 1879.16 Q1468.45 1874.1 1468.45 1865.51 Q1468.45 1856.79 1473.22 1851.79 Q1478.03 1846.79 1486.37 1846.79 Q1489.07 1846.79 1491.65 1847.37 Q1494.23 1847.91 1496.65 1849.02 Z" fill="#000000" fill-rule="nonzero" fill-opacity="1" /><path clip-path="url(#clip690)" d="M1550.28 1848.7 L1550.28 1854.24 Q1547.8 1852.97 1545.12 1852.33 Q1542.45 1851.7 1539.59 1851.7 Q1535.23 1851.7 1533.03 1853.03 Q1530.87 1854.37 1530.87 1857.04 Q1530.87 1859.08 1532.42 1860.26 Q1533.98 1861.4 1538.7 1862.45 L1540.7 1862.9 Q1546.94 1864.24 1549.55 1866.69 Q1552.19 1869.11 1552.19 1873.47 Q1552.19 1878.43 1548.24 1881.33 Q1544.33 1884.22 1537.45 1884.22 Q1534.59 1884.22 1531.47 1883.65 Q1528.38 1883.11 1524.95 1882 L1524.95 1875.95 Q1528.19 1877.64 1531.34 1878.49 Q1534.49 1879.32 1537.58 1879.32 Q1541.72 1879.32 1543.95 1877.92 Q1546.17 1876.49 1546.17 1873.91 Q1546.17 1871.52 1544.55 1870.25 Q1542.96 1868.98 1537.52 1867.8 L1535.48 1867.32 Q1530.04 1866.18 1527.62 1863.82 Q1525.2 1861.43 1525.2 1857.3 Q1525.2 1852.27 1528.76 1849.53 Q1532.33 1846.79 1538.89 1846.79 Q1542.13 1846.79 1545 1847.27 Q1547.86 1847.75 1550.28 1848.7 Z" fill="#000000" fill-rule="nonzero" fill-opacity="1" /><path clip-path="url(#clip690)" d="M1561.52 1847.65 L1567.37 1847.65 L1567.37 1883.3 L1561.52 1883.3 L1561.52 1847.65 M1561.52 1833.78 L1567.37 1833.78 L1567.37 1841.19 L1561.52 1841.19 L1561.52 1833.78 Z" fill="#000000" fill-rule="nonzero" fill-opacity="1" /><path clip-path="url(#clip690)" d="M1577.08 1847.65 L1604.9 1847.65 L1604.9 1853 L1582.87 1878.62 L1604.9 1878.62 L1604.9 1883.3 L1576.28 1883.3 L1576.28 1877.95 L1598.31 1852.33 L1577.08 1852.33 L1577.08 1847.65 Z" fill="#000000" fill-rule="nonzero" fill-opacity="1" /><path clip-path="url(#clip690)" d="M1644.33 1864.01 L1644.33 1866.88 L1617.41 1866.88 Q1617.79 1872.92 1621.04 1876.11 Q1624.31 1879.26 1630.14 1879.26 Q1633.51 1879.26 1636.66 1878.43 Q1639.85 1877.6 1642.97 1875.95 L1642.97 1881.49 Q1639.81 1882.82 1636.5 1883.52 Q1633.19 1884.22 1629.79 1884.22 Q1621.26 1884.22 1616.26 1879.26 Q1611.3 1874.29 1611.3 1865.83 Q1611.3 1857.07 1616.01 1851.95 Q1620.75 1846.79 1628.77 1846.79 Q1635.96 1846.79 1640.13 1851.44 Q1644.33 1856.06 1644.33 1864.01 M1638.48 1862.29 Q1638.41 1857.49 1635.77 1854.62 Q1633.16 1851.76 1628.83 1851.76 Q1623.93 1851.76 1620.97 1854.53 Q1618.04 1857.3 1617.6 1862.33 L1638.48 1862.29 Z" fill="#000000" fill-rule="nonzero" fill-opacity="1" /><path clip-path="url(#clip690)" d="M1688.73 1833.84 Q1684.47 1841.16 1682.4 1848.32 Q1680.33 1855.48 1680.33 1862.84 Q1680.33 1870.19 1682.4 1877.41 Q1684.5 1884.61 1688.73 1891.89 L1683.64 1891.89 Q1678.87 1884.41 1676.48 1877.19 Q1674.13 1869.96 1674.13 1862.84 Q1674.13 1855.74 1676.48 1848.54 Q1678.84 1841.35 1683.64 1833.84 L1688.73 1833.84 Z" fill="#000000" fill-rule="nonzero" fill-opacity="1" /><path clip-path="url(#clip690)" d="M1722.89 1861.02 Q1724.96 1861.72 1726.9 1864.01 Q1728.87 1866.3 1730.84 1870.31 L1737.37 1883.3 L1730.46 1883.3 L1724.38 1871.11 Q1722.03 1866.34 1719.8 1864.78 Q1717.6 1863.22 1713.78 1863.22 L1706.78 1863.22 L1706.78 1883.3 L1700.35 1883.3 L1700.35 1835.78 L1714.87 1835.78 Q1723.01 1835.78 1727.02 1839.19 Q1731.03 1842.59 1731.03 1849.47 Q1731.03 1853.96 1728.93 1856.92 Q1726.87 1859.88 1722.89 1861.02 M1706.78 1841.06 L1706.78 1857.93 L1714.87 1857.93 Q1719.51 1857.93 1721.87 1855.8 Q1724.26 1853.64 1724.26 1849.47 Q1724.26 1845.3 1721.87 1843.2 Q1719.51 1841.06 1714.87 1841.06 L1706.78 1841.06 Z" fill="#000000" fill-rule="nonzero" fill-opacity="1" /><path clip-path="url(#clip690)" d="M1768.94 1872.19 Q1767.96 1871.05 1766.4 1868.37 Q1764.26 1872.19 1762.39 1873.88 Q1760.03 1875.92 1756.37 1875.92 Q1752.07 1875.92 1749.24 1872.7 Q1746.25 1869.33 1746.25 1863.76 Q1746.25 1858.41 1749.24 1854.78 Q1751.91 1851.57 1756.43 1851.57 Q1758.76 1851.57 1760.48 1852.52 Q1762.48 1853.57 1763.85 1855.39 Q1765.12 1857.01 1766.4 1859.21 Q1768.53 1855.39 1770.41 1853.7 Q1772.76 1851.66 1776.42 1851.66 Q1780.72 1851.66 1783.55 1854.88 Q1786.54 1858.25 1786.54 1863.82 Q1786.54 1869.17 1783.55 1872.8 Q1780.88 1876.01 1776.36 1876.01 Q1774.04 1876.01 1772.32 1875.06 Q1770.6 1874.2 1768.94 1872.19 M1756.02 1871.75 Q1761.27 1871.75 1764.42 1864.11 Q1760.38 1855.77 1756.02 1855.77 Q1752.84 1855.77 1751.21 1858.06 Q1749.46 1860.51 1749.46 1863.76 Q1749.46 1867.32 1751.21 1869.52 Q1753 1871.75 1756.02 1871.75 M1776.77 1855.83 Q1772.03 1855.83 1768.37 1863.47 Q1772.38 1871.81 1776.77 1871.81 Q1779.96 1871.81 1781.58 1869.52 Q1783.33 1867.07 1783.33 1863.82 Q1783.33 1860.26 1781.58 1858.06 Q1779.8 1855.83 1776.77 1855.83 Z" fill="#000000" fill-rule="nonzero" fill-opacity="1" /><path clip-path="url(#clip690)" d="M1798.77 1833.84 L1803.86 1833.84 Q1808.63 1841.35 1810.99 1848.54 Q1813.38 1855.74 1813.38 1862.84 Q1813.38 1869.96 1810.99 1877.19 Q1808.63 1884.41 1803.86 1891.89 L1798.77 1891.89 Q1803 1884.61 1805.07 1877.41 Q1807.17 1870.19 1807.17 1862.84 Q1807.17 1855.48 1805.07 1848.32 Q1803 1841.16 1798.77 1833.84 Z" fill="#000000" fill-rule="nonzero" fill-opacity="1" /><polyline clip-path="url(#clip690)" style="stroke:#000000; stroke-linecap:round; stroke-linejoin:round; stroke-width:4; stroke-opacity:1; fill:none" points="210.238,1734.12 210.238,127.792 "/>
<polyline clip-path="url(#clip690)" style="stroke:#000000; stroke-linecap:round; stroke-linejoin:round; stroke-width:4; stroke-opacity:1; fill:none" points="210.238,1734.12 229.135,1734.12 "/>
<polyline clip-path="url(#clip690)" style="stroke:#000000; stroke-linecap:round; stroke-linejoin:round; stroke-width:4; stroke-opacity:1; fill:none" points="210.238,1447.27 229.135,1447.27 "/>
<polyline clip-path="url(#clip690)" style="stroke:#000000; stroke-linecap:round; stroke-linejoin:round; stroke-width:4; stroke-opacity:1; fill:none" points="210.238,1160.43 229.135,1160.43 "/>
<polyline clip-path="url(#clip690)" style="stroke:#000000; stroke-linecap:round; stroke-linejoin:round; stroke-width:4; stroke-opacity:1; fill:none" points="210.238,873.586 229.135,873.586 "/>
<polyline clip-path="url(#clip690)" style="stroke:#000000; stroke-linecap:round; stroke-linejoin:round; stroke-width:4; stroke-opacity:1; fill:none" points="210.238,586.742 229.135,586.742 "/>
<polyline clip-path="url(#clip690)" style="stroke:#000000; stroke-linecap:round; stroke-linejoin:round; stroke-width:4; stroke-opacity:1; fill:none" points="210.238,299.898 229.135,299.898 "/>
<path clip-path="url(#clip690)" d="M157.973 1719.92 Q154.362 1719.92 152.534 1723.48 Q150.728 1727.02 150.728 1734.15 Q150.728 1741.26 152.534 1744.82 Q154.362 1748.36 157.973 1748.36 Q161.608 1748.36 163.413 1744.82 Q165.242 1741.26 165.242 1734.15 Q165.242 1727.02 163.413 1723.48 Q161.608 1719.92 157.973 1719.92 M157.973 1716.21 Q163.784 1716.21 166.839 1720.82 Q169.918 1725.4 169.918 1734.15 Q169.918 1742.88 166.839 1747.48 Q163.784 1752.07 157.973 1752.07 Q152.163 1752.07 149.085 1747.48 Q146.029 1742.88 146.029 1734.15 Q146.029 1725.4 149.085 1720.82 Q152.163 1716.21 157.973 1716.21 Z" fill="#000000" fill-rule="nonzero" fill-opacity="1" /><path clip-path="url(#clip690)" d="M149.015 1429.99 L167.372 1429.99 L167.372 1433.93 L153.298 1433.93 L153.298 1442.4 Q154.316 1442.05 155.335 1441.89 Q156.353 1441.71 157.372 1441.71 Q163.159 1441.71 166.538 1444.88 Q169.918 1448.05 169.918 1453.47 Q169.918 1459.04 166.446 1462.15 Q162.973 1465.22 156.654 1465.22 Q154.478 1465.22 152.21 1464.85 Q149.964 1464.48 147.557 1463.74 L147.557 1459.04 Q149.64 1460.18 151.862 1460.73 Q154.085 1461.29 156.561 1461.29 Q160.566 1461.29 162.904 1459.18 Q165.242 1457.08 165.242 1453.47 Q165.242 1449.85 162.904 1447.75 Q160.566 1445.64 156.561 1445.64 Q154.686 1445.64 152.811 1446.06 Q150.96 1446.47 149.015 1447.35 L149.015 1429.99 Z" fill="#000000" fill-rule="nonzero" fill-opacity="1" /><path clip-path="url(#clip690)" d="M118.622 1173.77 L126.261 1173.77 L126.261 1147.41 L117.951 1149.08 L117.951 1144.82 L126.214 1143.15 L130.89 1143.15 L130.89 1173.77 L138.529 1173.77 L138.529 1177.71 L118.622 1177.71 L118.622 1173.77 Z" fill="#000000" fill-rule="nonzero" fill-opacity="1" /><path clip-path="url(#clip690)" d="M157.973 1146.23 Q154.362 1146.23 152.534 1149.79 Q150.728 1153.33 150.728 1160.46 Q150.728 1167.57 152.534 1171.14 Q154.362 1174.68 157.973 1174.68 Q161.608 1174.68 163.413 1171.14 Q165.242 1167.57 165.242 1160.46 Q165.242 1153.33 163.413 1149.79 Q161.608 1146.23 157.973 1146.23 M157.973 1142.52 Q163.784 1142.52 166.839 1147.13 Q169.918 1151.71 169.918 1160.46 Q169.918 1169.19 166.839 1173.8 Q163.784 1178.38 157.973 1178.38 Q152.163 1178.38 149.085 1173.8 Q146.029 1169.19 146.029 1160.46 Q146.029 1151.71 149.085 1147.13 Q152.163 1142.52 157.973 1142.52 Z" fill="#000000" fill-rule="nonzero" fill-opacity="1" /><path clip-path="url(#clip690)" d="M119.617 886.931 L127.256 886.931 L127.256 860.565 L118.946 862.232 L118.946 857.972 L127.21 856.306 L131.886 856.306 L131.886 886.931 L139.525 886.931 L139.525 890.866 L119.617 890.866 L119.617 886.931 Z" fill="#000000" fill-rule="nonzero" fill-opacity="1" /><path clip-path="url(#clip690)" d="M149.015 856.306 L167.372 856.306 L167.372 860.241 L153.298 860.241 L153.298 868.713 Q154.316 868.366 155.335 868.204 Q156.353 868.019 157.372 868.019 Q163.159 868.019 166.538 871.19 Q169.918 874.361 169.918 879.778 Q169.918 885.357 166.446 888.458 Q162.973 891.537 156.654 891.537 Q154.478 891.537 152.21 891.167 Q149.964 890.796 147.557 890.056 L147.557 885.357 Q149.64 886.491 151.862 887.046 Q154.085 887.602 156.561 887.602 Q160.566 887.602 162.904 885.495 Q165.242 883.389 165.242 879.778 Q165.242 876.167 162.904 874.06 Q160.566 871.954 156.561 871.954 Q154.686 871.954 152.811 872.371 Q150.96 872.787 149.015 873.667 L149.015 856.306 Z" fill="#000000" fill-rule="nonzero" fill-opacity="1" /><path clip-path="url(#clip690)" d="M121.839 600.087 L138.159 600.087 L138.159 604.022 L116.214 604.022 L116.214 600.087 Q118.876 597.332 123.46 592.703 Q128.066 588.05 129.247 586.707 Q131.492 584.184 132.372 582.448 Q133.275 580.689 133.275 578.999 Q133.275 576.244 131.33 574.508 Q129.409 572.772 126.307 572.772 Q124.108 572.772 121.654 573.536 Q119.224 574.3 116.446 575.851 L116.446 571.129 Q119.27 569.994 121.724 569.416 Q124.177 568.837 126.214 568.837 Q131.585 568.837 134.779 571.522 Q137.974 574.207 137.974 578.698 Q137.974 580.828 137.163 582.749 Q136.376 584.647 134.27 587.24 Q133.691 587.911 130.589 591.129 Q127.488 594.323 121.839 600.087 Z" fill="#000000" fill-rule="nonzero" fill-opacity="1" /><path clip-path="url(#clip690)" d="M157.973 572.541 Q154.362 572.541 152.534 576.106 Q150.728 579.647 150.728 586.777 Q150.728 593.883 152.534 597.448 Q154.362 600.99 157.973 600.99 Q161.608 600.99 163.413 597.448 Q165.242 593.883 165.242 586.777 Q165.242 579.647 163.413 576.106 Q161.608 572.541 157.973 572.541 M157.973 568.837 Q163.784 568.837 166.839 573.444 Q169.918 578.027 169.918 586.777 Q169.918 595.504 166.839 600.11 Q163.784 604.693 157.973 604.693 Q152.163 604.693 149.085 600.11 Q146.029 595.504 146.029 586.777 Q146.029 578.027 149.085 573.444 Q152.163 568.837 157.973 568.837 Z" fill="#000000" fill-rule="nonzero" fill-opacity="1" /><path clip-path="url(#clip690)" d="M122.835 313.243 L139.154 313.243 L139.154 317.178 L117.21 317.178 L117.21 313.243 Q119.872 310.489 124.455 305.859 Q129.062 301.206 130.242 299.864 Q132.488 297.341 133.367 295.604 Q134.27 293.845 134.27 292.155 Q134.27 289.401 132.325 287.665 Q130.404 285.929 127.302 285.929 Q125.103 285.929 122.65 286.692 Q120.219 287.456 117.441 289.007 L117.441 284.285 Q120.265 283.151 122.719 282.572 Q125.173 281.993 127.21 281.993 Q132.58 281.993 135.775 284.679 Q138.969 287.364 138.969 291.854 Q138.969 293.984 138.159 295.905 Q137.372 297.803 135.265 300.396 Q134.687 301.067 131.585 304.285 Q128.483 307.479 122.835 313.243 Z" fill="#000000" fill-rule="nonzero" fill-opacity="1" /><path clip-path="url(#clip690)" d="M149.015 282.618 L167.372 282.618 L167.372 286.554 L153.298 286.554 L153.298 295.026 Q154.316 294.678 155.335 294.516 Q156.353 294.331 157.372 294.331 Q163.159 294.331 166.538 297.503 Q169.918 300.674 169.918 306.09 Q169.918 311.669 166.446 314.771 Q162.973 317.85 156.654 317.85 Q154.478 317.85 152.21 317.479 Q149.964 317.109 147.557 316.368 L147.557 311.669 Q149.64 312.803 151.862 313.359 Q154.085 313.914 156.561 313.914 Q160.566 313.914 162.904 311.808 Q165.242 309.702 165.242 306.09 Q165.242 302.479 162.904 300.373 Q160.566 298.266 156.561 298.266 Q154.686 298.266 152.811 298.683 Q150.96 299.1 149.015 299.979 L149.015 282.618 Z" fill="#000000" fill-rule="nonzero" fill-opacity="1" /><path clip-path="url(#clip690)" d="M14.1184 1095.16 L14.1184 1067.85 L19.5293 1067.85 L19.5293 1088.73 L33.5338 1088.73 L33.5338 1069.89 L38.9447 1069.89 L38.9447 1088.73 L61.6384 1088.73 L61.6384 1095.16 L14.1184 1095.16 Z" fill="#000000" fill-rule="nonzero" fill-opacity="1" /><path clip-path="url(#clip690)" d="M31.465 1042 Q30.8921 1042.99 30.6375 1044.17 Q30.351 1045.31 30.351 1046.71 Q30.351 1051.68 33.5975 1054.35 Q36.8122 1057 42.8596 1057 L61.6384 1057 L61.6384 1062.88 L25.9905 1062.88 L25.9905 1057 L31.5287 1057 Q28.2821 1055.15 26.7225 1052.19 Q25.1311 1049.23 25.1311 1045 Q25.1311 1044.39 25.2266 1043.66 Q25.2903 1042.93 25.4494 1042.04 L31.465 1042 Z" fill="#000000" fill-rule="nonzero" fill-opacity="1" /><path clip-path="url(#clip690)" d="M42.3504 1006.8 L45.2149 1006.8 L45.2149 1033.73 Q51.2623 1033.35 54.4452 1030.1 Q57.5962 1026.82 57.5962 1021 Q57.5962 1017.62 56.7687 1014.47 Q55.9411 1011.29 54.2861 1008.17 L59.8242 1008.17 Q61.161 1011.32 61.8612 1014.63 Q62.5615 1017.94 62.5615 1021.35 Q62.5615 1029.88 57.5962 1034.87 Q52.631 1039.84 44.1646 1039.84 Q35.4117 1039.84 30.2873 1035.13 Q25.1311 1030.39 25.1311 1022.37 Q25.1311 1015.17 29.7781 1011 Q34.3932 1006.8 42.3504 1006.8 M40.6316 1012.66 Q35.8255 1012.72 32.9609 1015.36 Q30.0964 1017.97 30.0964 1022.3 Q30.0964 1027.2 32.8654 1030.16 Q35.6345 1033.09 40.6634 1033.54 L40.6316 1012.66 Z" fill="#000000" fill-rule="nonzero" fill-opacity="1" /><path clip-path="url(#clip690)" d="M43.8463 993.689 Q50.3075 993.689 53.9996 991.047 Q57.6599 988.373 57.6599 983.726 Q57.6599 979.079 53.9996 976.406 Q50.3075 973.732 43.8463 973.732 Q37.3851 973.732 33.7248 976.406 Q30.0327 979.079 30.0327 983.726 Q30.0327 988.373 33.7248 991.047 Q37.3851 993.689 43.8463 993.689 M56.2912 973.732 Q59.4741 975.578 61.0337 978.411 Q62.5615 981.212 62.5615 985.159 Q62.5615 991.62 57.4052 995.694 Q52.249 999.736 43.8463 999.736 Q35.4436 999.736 30.2873 995.694 Q25.1311 991.62 25.1311 985.159 Q25.1311 981.212 26.6907 978.411 Q28.2185 975.578 31.4013 973.732 L25.9905 973.732 L25.9905 967.876 L75.1974 967.876 L75.1974 973.732 L56.2912 973.732 Z" fill="#000000" fill-rule="nonzero" fill-opacity="1" /><path clip-path="url(#clip690)" d="M47.5702 956.417 L25.9905 956.417 L25.9905 950.561 L47.3474 950.561 Q52.4082 950.561 54.9545 948.588 Q57.4689 946.614 57.4689 942.667 Q57.4689 937.925 54.4452 935.188 Q51.4215 932.419 46.2016 932.419 L25.9905 932.419 L25.9905 926.562 L61.6384 926.562 L61.6384 932.419 L56.1639 932.419 Q59.4104 934.551 61.0019 937.384 Q62.5615 940.185 62.5615 943.909 Q62.5615 950.052 58.742 953.235 Q54.9226 956.417 47.5702 956.417 M25.1311 941.681 L25.1311 941.681 Z" fill="#000000" fill-rule="nonzero" fill-opacity="1" /><path clip-path="url(#clip690)" d="M42.3504 884.007 L45.2149 884.007 L45.2149 910.934 Q51.2623 910.552 54.4452 907.306 Q57.5962 904.028 57.5962 898.203 Q57.5962 894.829 56.7687 891.678 Q55.9411 888.495 54.2861 885.376 L59.8242 885.376 Q61.161 888.527 61.8612 891.837 Q62.5615 895.147 62.5615 898.553 Q62.5615 907.083 57.5962 912.08 Q52.631 917.045 44.1646 917.045 Q35.4117 917.045 30.2873 912.335 Q25.1311 907.592 25.1311 899.572 Q25.1311 892.378 29.7781 888.209 Q34.3932 884.007 42.3504 884.007 M40.6316 889.864 Q35.8255 889.928 32.9609 892.569 Q30.0964 895.179 30.0964 899.508 Q30.0964 904.41 32.8654 907.37 Q35.6345 910.298 40.6634 910.743 L40.6316 889.864 Z" fill="#000000" fill-rule="nonzero" fill-opacity="1" /><path clip-path="url(#clip690)" d="M40.1224 844.763 L61.6384 844.763 L61.6384 850.619 L40.3133 850.619 Q35.2526 850.619 32.7381 852.593 Q30.2237 854.566 30.2237 858.513 Q30.2237 863.255 33.2474 865.993 Q36.2711 868.73 41.491 868.73 L61.6384 868.73 L61.6384 874.618 L25.9905 874.618 L25.9905 868.73 L31.5287 868.73 Q28.314 866.629 26.7225 863.796 Q25.1311 860.932 25.1311 857.208 Q25.1311 851.065 28.9505 847.914 Q32.7381 844.763 40.1224 844.763 Z" fill="#000000" fill-rule="nonzero" fill-opacity="1" /><path clip-path="url(#clip690)" d="M27.3591 807.428 L32.8336 807.428 Q31.465 809.911 30.7966 812.425 Q30.0964 814.908 30.0964 817.454 Q30.0964 823.151 33.7248 826.302 Q37.3214 829.453 43.8463 829.453 Q50.3711 829.453 53.9996 826.302 Q57.5962 823.151 57.5962 817.454 Q57.5962 814.908 56.9278 812.425 Q56.2276 809.911 54.859 807.428 L60.2698 807.428 Q61.4156 809.879 61.9886 812.521 Q62.5615 815.131 62.5615 818.091 Q62.5615 826.143 57.5007 830.886 Q52.44 835.628 43.8463 835.628 Q35.1253 835.628 30.1282 830.854 Q25.1311 826.048 25.1311 817.709 Q25.1311 815.003 25.704 812.425 Q26.2451 809.847 27.3591 807.428 Z" fill="#000000" fill-rule="nonzero" fill-opacity="1" /><path clip-path="url(#clip690)" d="M64.9486 782.411 Q71.3143 784.893 73.2559 787.249 Q75.1974 789.604 75.1974 793.551 L75.1974 798.23 L70.2958 798.23 L70.2958 794.792 Q70.2958 792.373 69.15 791.036 Q68.0041 789.7 63.7391 788.076 L61.0655 787.026 L25.9905 801.444 L25.9905 795.238 L53.8723 784.098 L25.9905 772.958 L25.9905 766.751 L64.9486 782.411 Z" fill="#000000" fill-rule="nonzero" fill-opacity="1" /><path clip-path="url(#clip690)" d="M765.179 12.096 L799.936 12.096 L799.936 18.9825 L773.362 18.9825 L773.362 36.8065 L797.343 36.8065 L797.343 43.6931 L773.362 43.6931 L773.362 72.576 L765.179 72.576 L765.179 12.096 Z" fill="#000000" fill-rule="nonzero" fill-opacity="1" /><path clip-path="url(#clip690)" d="M806.539 27.2059 L813.993 27.2059 L813.993 72.576 L806.539 72.576 L806.539 27.2059 M806.539 9.54393 L813.993 9.54393 L813.993 18.9825 L806.539 18.9825 L806.539 9.54393 Z" fill="#000000" fill-rule="nonzero" fill-opacity="1" /><path clip-path="url(#clip690)" d="M867.303 45.1919 L867.303 72.576 L859.849 72.576 L859.849 45.4349 Q859.849 38.994 857.337 35.7938 Q854.826 32.5936 849.803 32.5936 Q843.767 32.5936 840.283 36.4419 Q836.799 40.2903 836.799 46.9338 L836.799 72.576 L829.305 72.576 L829.305 27.2059 L836.799 27.2059 L836.799 34.2544 Q839.473 30.163 843.078 28.1376 Q846.724 26.1121 851.463 26.1121 Q859.282 26.1121 863.292 30.9732 Q867.303 35.7938 867.303 45.1919 Z" fill="#000000" fill-rule="nonzero" fill-opacity="1" /><path clip-path="url(#clip690)" d="M902.788 49.7694 Q893.755 49.7694 890.271 51.8354 Q886.787 53.9013 886.787 58.8839 Q886.787 62.8538 889.38 65.2034 Q892.013 67.5124 896.51 67.5124 Q902.707 67.5124 906.434 63.1374 Q910.202 58.7219 910.202 51.4303 L910.202 49.7694 L902.788 49.7694 M917.655 46.6907 L917.655 72.576 L910.202 72.576 L910.202 65.6895 Q907.65 69.8214 903.842 71.8063 Q900.034 73.7508 894.525 73.7508 Q887.557 73.7508 883.425 69.8619 Q879.334 65.9325 879.334 59.3701 Q879.334 51.7138 884.438 47.825 Q889.583 43.9361 899.75 43.9361 L910.202 43.9361 L910.202 43.2069 Q910.202 38.0623 906.799 35.2672 Q903.437 32.4315 897.32 32.4315 Q893.431 32.4315 889.745 33.3632 Q886.058 34.295 882.655 36.1584 L882.655 29.2718 Q886.747 27.692 890.595 26.9223 Q894.444 26.1121 898.089 26.1121 Q907.933 26.1121 912.794 31.2163 Q917.655 36.3204 917.655 46.6907 Z" fill="#000000" fill-rule="nonzero" fill-opacity="1" /><path clip-path="url(#clip690)" d="M933.008 9.54393 L940.462 9.54393 L940.462 72.576 L933.008 72.576 L933.008 9.54393 Z" fill="#000000" fill-rule="nonzero" fill-opacity="1" /><path clip-path="url(#clip690)" d="M1011.35 28.5427 L1011.35 35.5912 Q1008.19 33.9709 1004.79 33.1607 Q1001.39 32.3505 997.742 32.3505 Q992.192 32.3505 989.397 34.0519 Q986.642 35.7533 986.642 39.156 Q986.642 41.7486 988.627 43.2475 Q990.612 44.7058 996.607 46.0426 L999.159 46.6097 Q1007.1 48.3111 1010.42 51.4303 Q1013.78 54.509 1013.78 60.0587 Q1013.78 66.3781 1008.76 70.0644 Q1003.78 73.7508 995.028 73.7508 Q991.382 73.7508 987.412 73.0216 Q983.482 72.3329 979.107 70.9151 L979.107 63.2184 Q983.239 65.3654 987.25 66.4591 Q991.26 67.5124 995.19 67.5124 Q1000.46 67.5124 1003.29 65.73 Q1006.13 63.9071 1006.13 60.6258 Q1006.13 57.5877 1004.06 55.9673 Q1002.04 54.3469 995.109 52.8481 L992.516 52.2405 Q985.589 50.7821 982.51 47.7845 Q979.432 44.7463 979.432 39.4801 Q979.432 33.0797 983.969 29.5959 Q988.506 26.1121 996.85 26.1121 Q1000.98 26.1121 1004.63 26.7198 Q1008.27 27.3274 1011.35 28.5427 Z" fill="#000000" fill-rule="nonzero" fill-opacity="1" /><path clip-path="url(#clip690)" d="M1025.65 27.2059 L1033.11 27.2059 L1033.11 72.576 L1025.65 72.576 L1025.65 27.2059 M1025.65 9.54393 L1033.11 9.54393 L1033.11 18.9825 L1025.65 18.9825 L1025.65 9.54393 Z" fill="#000000" fill-rule="nonzero" fill-opacity="1" /><path clip-path="url(#clip690)" d="M1045.46 27.2059 L1080.87 27.2059 L1080.87 34.0114 L1052.83 66.6212 L1080.87 66.6212 L1080.87 72.576 L1044.45 72.576 L1044.45 65.7705 L1072.48 33.1607 L1045.46 33.1607 L1045.46 27.2059 Z" fill="#000000" fill-rule="nonzero" fill-opacity="1" /><path clip-path="url(#clip690)" d="M1131.06 48.0275 L1131.06 51.6733 L1096.79 51.6733 Q1097.27 59.3701 1101.4 63.421 Q1105.58 67.4314 1112.99 67.4314 Q1117.28 67.4314 1121.29 66.3781 Q1125.35 65.3249 1129.32 63.2184 L1129.32 70.267 Q1125.3 71.9684 1121.09 72.8596 Q1116.88 73.7508 1112.54 73.7508 Q1101.69 73.7508 1095.33 67.4314 Q1089.01 61.1119 1089.01 50.3365 Q1089.01 39.1965 1095 32.6746 Q1101.04 26.1121 1111.25 26.1121 Q1120.4 26.1121 1125.71 32.0264 Q1131.06 37.9003 1131.06 48.0275 M1123.6 45.84 Q1123.52 39.7232 1120.16 36.0774 Q1116.84 32.4315 1111.33 32.4315 Q1105.09 32.4315 1101.32 35.9558 Q1097.6 39.4801 1097.03 45.8805 L1123.6 45.84 Z" fill="#000000" fill-rule="nonzero" fill-opacity="1" /><path clip-path="url(#clip690)" d="M1199.52 34.0924 L1199.52 9.54393 L1206.97 9.54393 L1206.97 72.576 L1199.52 72.576 L1199.52 65.7705 Q1197.17 69.8214 1193.56 71.8063 Q1190 73.7508 1184.97 73.7508 Q1176.75 73.7508 1171.57 67.1883 Q1166.42 60.6258 1166.42 49.9314 Q1166.42 39.2371 1171.57 32.6746 Q1176.75 26.1121 1184.97 26.1121 Q1190 26.1121 1193.56 28.0971 Q1197.17 30.0415 1199.52 34.0924 M1174.12 49.9314 Q1174.12 58.1548 1177.48 62.8538 Q1180.88 67.5124 1186.8 67.5124 Q1192.71 67.5124 1196.11 62.8538 Q1199.52 58.1548 1199.52 49.9314 Q1199.52 41.7081 1196.11 37.0496 Q1192.71 32.3505 1186.8 32.3505 Q1180.88 32.3505 1177.48 37.0496 Q1174.12 41.7081 1174.12 49.9314 Z" fill="#000000" fill-rule="nonzero" fill-opacity="1" /><path clip-path="url(#clip690)" d="M1222.32 27.2059 L1229.78 27.2059 L1229.78 72.576 L1222.32 72.576 L1222.32 27.2059 M1222.32 9.54393 L1229.78 9.54393 L1229.78 18.9825 L1222.32 18.9825 L1222.32 9.54393 Z" fill="#000000" fill-rule="nonzero" fill-opacity="1" /><path clip-path="url(#clip690)" d="M1274.3 28.5427 L1274.3 35.5912 Q1271.14 33.9709 1267.73 33.1607 Q1264.33 32.3505 1260.69 32.3505 Q1255.14 32.3505 1252.34 34.0519 Q1249.59 35.7533 1249.59 39.156 Q1249.59 41.7486 1251.57 43.2475 Q1253.56 44.7058 1259.55 46.0426 L1262.1 46.6097 Q1270.04 48.3111 1273.37 51.4303 Q1276.73 54.509 1276.73 60.0587 Q1276.73 66.3781 1271.7 70.0644 Q1266.72 73.7508 1257.97 73.7508 Q1254.33 73.7508 1250.36 73.0216 Q1246.43 72.3329 1242.05 70.9151 L1242.05 63.2184 Q1246.18 65.3654 1250.19 66.4591 Q1254.2 67.5124 1258.13 67.5124 Q1263.4 67.5124 1266.24 65.73 Q1269.07 63.9071 1269.07 60.6258 Q1269.07 57.5877 1267.01 55.9673 Q1264.98 54.3469 1258.05 52.8481 L1255.46 52.2405 Q1248.53 50.7821 1245.45 47.7845 Q1242.38 44.7463 1242.38 39.4801 Q1242.38 33.0797 1246.91 29.5959 Q1251.45 26.1121 1259.79 26.1121 Q1263.93 26.1121 1267.57 26.7198 Q1271.22 27.3274 1274.3 28.5427 Z" fill="#000000" fill-rule="nonzero" fill-opacity="1" /><path clip-path="url(#clip690)" d="M1295.97 14.324 L1295.97 27.2059 L1311.32 27.2059 L1311.32 32.9987 L1295.97 32.9987 L1295.97 57.6282 Q1295.97 63.1779 1297.47 64.7578 Q1299.01 66.3376 1303.67 66.3376 L1311.32 66.3376 L1311.32 72.576 L1303.67 72.576 Q1295.04 72.576 1291.76 69.3758 Q1288.48 66.1351 1288.48 57.6282 L1288.48 32.9987 L1283.01 32.9987 L1283.01 27.2059 L1288.48 27.2059 L1288.48 14.324 L1295.97 14.324 Z" fill="#000000" fill-rule="nonzero" fill-opacity="1" /><path clip-path="url(#clip690)" d="M1347.42 34.1734 Q1346.16 33.4443 1344.66 33.1202 Q1343.2 32.7556 1341.42 32.7556 Q1335.1 32.7556 1331.7 36.8875 Q1328.34 40.9789 1328.34 48.6757 L1328.34 72.576 L1320.84 72.576 L1320.84 27.2059 L1328.34 27.2059 L1328.34 34.2544 Q1330.69 30.1225 1334.45 28.1376 Q1338.22 26.1121 1343.61 26.1121 Q1344.38 26.1121 1345.31 26.2337 Q1346.24 26.3147 1347.38 26.5172 L1347.42 34.1734 Z" fill="#000000" fill-rule="nonzero" fill-opacity="1" /><path clip-path="url(#clip690)" d="M1355.23 27.2059 L1362.69 27.2059 L1362.69 72.576 L1355.23 72.576 L1355.23 27.2059 M1355.23 9.54393 L1362.69 9.54393 L1362.69 18.9825 L1355.23 18.9825 L1355.23 9.54393 Z" fill="#000000" fill-rule="nonzero" fill-opacity="1" /><path clip-path="url(#clip690)" d="M1410.85 49.9314 Q1410.85 41.7081 1407.45 37.0496 Q1404.09 32.3505 1398.17 32.3505 Q1392.26 32.3505 1388.86 37.0496 Q1385.49 41.7081 1385.49 49.9314 Q1385.49 58.1548 1388.86 62.8538 Q1392.26 67.5124 1398.17 67.5124 Q1404.09 67.5124 1407.45 62.8538 Q1410.85 58.1548 1410.85 49.9314 M1385.49 34.0924 Q1387.84 30.0415 1391.41 28.0971 Q1395.01 26.1121 1400 26.1121 Q1408.26 26.1121 1413.4 32.6746 Q1418.59 39.2371 1418.59 49.9314 Q1418.59 60.6258 1413.4 67.1883 Q1408.26 73.7508 1400 73.7508 Q1395.01 73.7508 1391.41 71.8063 Q1387.84 69.8214 1385.49 65.7705 L1385.49 72.576 L1378 72.576 L1378 9.54393 L1385.49 9.54393 L1385.49 34.0924 Z" fill="#000000" fill-rule="nonzero" fill-opacity="1" /><path clip-path="url(#clip690)" d="M1430.18 54.671 L1430.18 27.2059 L1437.63 27.2059 L1437.63 54.3874 Q1437.63 60.8284 1440.14 64.0691 Q1442.65 67.2693 1447.68 67.2693 Q1453.71 67.2693 1457.2 63.421 Q1460.72 59.5726 1460.72 52.9291 L1460.72 27.2059 L1468.17 27.2059 L1468.17 72.576 L1460.72 72.576 L1460.72 65.6084 Q1458.01 69.7404 1454.4 71.7658 Q1450.84 73.7508 1446.1 73.7508 Q1438.28 73.7508 1434.23 68.8897 Q1430.18 64.0286 1430.18 54.671 M1448.93 26.1121 L1448.93 26.1121 Z" fill="#000000" fill-rule="nonzero" fill-opacity="1" /><path clip-path="url(#clip690)" d="M1490.9 14.324 L1490.9 27.2059 L1506.25 27.2059 L1506.25 32.9987 L1490.9 32.9987 L1490.9 57.6282 Q1490.9 63.1779 1492.4 64.7578 Q1493.94 66.3376 1498.6 66.3376 L1506.25 66.3376 L1506.25 72.576 L1498.6 72.576 Q1489.97 72.576 1486.69 69.3758 Q1483.4 66.1351 1483.4 57.6282 L1483.4 32.9987 L1477.94 32.9987 L1477.94 27.2059 L1483.4 27.2059 L1483.4 14.324 L1490.9 14.324 Z" fill="#000000" fill-rule="nonzero" fill-opacity="1" /><path clip-path="url(#clip690)" d="M1516.05 27.2059 L1523.51 27.2059 L1523.51 72.576 L1516.05 72.576 L1516.05 27.2059 M1516.05 9.54393 L1523.51 9.54393 L1523.51 18.9825 L1516.05 18.9825 L1516.05 9.54393 Z" fill="#000000" fill-rule="nonzero" fill-opacity="1" /><path clip-path="url(#clip690)" d="M1556.69 32.4315 Q1550.69 32.4315 1547.21 37.1306 Q1543.72 41.7891 1543.72 49.9314 Q1543.72 58.0738 1547.17 62.7728 Q1550.65 67.4314 1556.69 67.4314 Q1562.64 67.4314 1566.12 62.7323 Q1569.61 58.0333 1569.61 49.9314 Q1569.61 41.8701 1566.12 37.1711 Q1562.64 32.4315 1556.69 32.4315 M1556.69 26.1121 Q1566.41 26.1121 1571.96 32.4315 Q1577.51 38.7509 1577.51 49.9314 Q1577.51 61.0714 1571.96 67.4314 Q1566.41 73.7508 1556.69 73.7508 Q1546.92 73.7508 1541.37 67.4314 Q1535.86 61.0714 1535.86 49.9314 Q1535.86 38.7509 1541.37 32.4315 Q1546.92 26.1121 1556.69 26.1121 Z" fill="#000000" fill-rule="nonzero" fill-opacity="1" /><path clip-path="url(#clip690)" d="M1627.58 45.1919 L1627.58 72.576 L1620.12 72.576 L1620.12 45.4349 Q1620.12 38.994 1617.61 35.7938 Q1615.1 32.5936 1610.08 32.5936 Q1604.04 32.5936 1600.56 36.4419 Q1597.07 40.2903 1597.07 46.9338 L1597.07 72.576 L1589.58 72.576 L1589.58 27.2059 L1597.07 27.2059 L1597.07 34.2544 Q1599.75 30.163 1603.35 28.1376 Q1607 26.1121 1611.74 26.1121 Q1619.56 26.1121 1623.57 30.9732 Q1627.58 35.7938 1627.58 45.1919 Z" fill="#000000" fill-rule="nonzero" fill-opacity="1" /><path clip-path="url(#clip690)" d="M1686.72 9.62495 Q1681.29 18.942 1678.66 28.0566 Q1676.03 37.1711 1676.03 46.5287 Q1676.03 55.8863 1678.66 65.0818 Q1681.33 74.2369 1686.72 83.5134 L1680.24 83.5134 Q1674.16 73.9938 1671.12 64.7983 Q1668.13 55.6027 1668.13 46.5287 Q1668.13 37.4952 1671.12 28.3401 Q1674.12 19.1851 1680.24 9.62495 L1686.72 9.62495 Z" fill="#000000" fill-rule="nonzero" fill-opacity="1" /><path clip-path="url(#clip690)" d="M1703.65 65.6895 L1717.02 65.6895 L1717.02 19.5497 L1702.48 22.4663 L1702.48 15.0127 L1716.94 12.096 L1725.12 12.096 L1725.12 65.6895 L1738.49 65.6895 L1738.49 72.576 L1703.65 72.576 L1703.65 65.6895 Z" fill="#000000" fill-rule="nonzero" fill-opacity="1" /><path clip-path="url(#clip690)" d="M1772.52 17.4837 Q1766.2 17.4837 1763 23.7221 Q1759.84 29.92 1759.84 42.3968 Q1759.84 54.833 1763 61.0714 Q1766.2 67.2693 1772.52 67.2693 Q1778.88 67.2693 1782.04 61.0714 Q1785.24 54.833 1785.24 42.3968 Q1785.24 29.92 1782.04 23.7221 Q1778.88 17.4837 1772.52 17.4837 M1772.52 11.0023 Q1782.69 11.0023 1788.03 19.0636 Q1793.42 27.0843 1793.42 42.3968 Q1793.42 57.6687 1788.03 65.73 Q1782.69 73.7508 1772.52 73.7508 Q1762.35 73.7508 1756.96 65.73 Q1751.61 57.6687 1751.61 42.3968 Q1751.61 27.0843 1756.96 19.0636 Q1762.35 11.0023 1772.52 11.0023 Z" fill="#000000" fill-rule="nonzero" fill-opacity="1" /><path clip-path="url(#clip690)" d="M1825.3 17.4837 Q1818.98 17.4837 1815.78 23.7221 Q1812.62 29.92 1812.62 42.3968 Q1812.62 54.833 1815.78 61.0714 Q1818.98 67.2693 1825.3 67.2693 Q1831.66 67.2693 1834.82 61.0714 Q1838.02 54.833 1838.02 42.3968 Q1838.02 29.92 1834.82 23.7221 Q1831.66 17.4837 1825.3 17.4837 M1825.3 11.0023 Q1835.47 11.0023 1840.82 19.0636 Q1846.2 27.0843 1846.2 42.3968 Q1846.2 57.6687 1840.82 65.73 Q1835.47 73.7508 1825.3 73.7508 Q1815.13 73.7508 1809.75 65.73 Q1804.4 57.6687 1804.4 42.3968 Q1804.4 27.0843 1809.75 19.0636 Q1815.13 11.0023 1825.3 11.0023 Z" fill="#000000" fill-rule="nonzero" fill-opacity="1" /><path clip-path="url(#clip690)" d="M1912.19 34.1734 Q1910.94 33.4443 1909.44 33.1202 Q1907.98 32.7556 1906.2 32.7556 Q1899.88 32.7556 1896.48 36.8875 Q1893.11 40.9789 1893.11 48.6757 L1893.11 72.576 L1885.62 72.576 L1885.62 27.2059 L1893.11 27.2059 L1893.11 34.2544 Q1895.46 30.1225 1899.23 28.1376 Q1903 26.1121 1908.38 26.1121 Q1909.15 26.1121 1910.09 26.2337 Q1911.02 26.3147 1912.15 26.5172 L1912.19 34.1734 Z" fill="#000000" fill-rule="nonzero" fill-opacity="1" /><path clip-path="url(#clip690)" d="M1919.24 54.671 L1919.24 27.2059 L1926.7 27.2059 L1926.7 54.3874 Q1926.7 60.8284 1929.21 64.0691 Q1931.72 67.2693 1936.74 67.2693 Q1942.78 67.2693 1946.26 63.421 Q1949.79 59.5726 1949.79 52.9291 L1949.79 27.2059 L1957.24 27.2059 L1957.24 72.576 L1949.79 72.576 L1949.79 65.6084 Q1947.07 69.7404 1943.47 71.7658 Q1939.9 73.7508 1935.16 73.7508 Q1927.34 73.7508 1923.29 68.8897 Q1919.24 64.0286 1919.24 54.671 M1938 26.1121 L1938 26.1121 Z" fill="#000000" fill-rule="nonzero" fill-opacity="1" /><path clip-path="url(#clip690)" d="M2010.31 45.1919 L2010.31 72.576 L2002.85 72.576 L2002.85 45.4349 Q2002.85 38.994 2000.34 35.7938 Q1997.83 32.5936 1992.81 32.5936 Q1986.77 32.5936 1983.29 36.4419 Q1979.8 40.2903 1979.8 46.9338 L1979.8 72.576 L1972.31 72.576 L1972.31 27.2059 L1979.8 27.2059 L1979.8 34.2544 Q1982.48 30.163 1986.08 28.1376 Q1989.73 26.1121 1994.47 26.1121 Q2002.28 26.1121 2006.3 30.9732 Q2010.31 35.7938 2010.31 45.1919 Z" fill="#000000" fill-rule="nonzero" fill-opacity="1" /><path clip-path="url(#clip690)" d="M2054.1 28.5427 L2054.1 35.5912 Q2050.94 33.9709 2047.53 33.1607 Q2044.13 32.3505 2040.48 32.3505 Q2034.94 32.3505 2032.14 34.0519 Q2029.39 35.7533 2029.39 39.156 Q2029.39 41.7486 2031.37 43.2475 Q2033.36 44.7058 2039.35 46.0426 L2041.9 46.6097 Q2049.84 48.3111 2053.16 51.4303 Q2056.53 54.509 2056.53 60.0587 Q2056.53 66.3781 2051.5 70.0644 Q2046.52 73.7508 2037.77 73.7508 Q2034.12 73.7508 2030.16 73.0216 Q2026.23 72.3329 2021.85 70.9151 L2021.85 63.2184 Q2025.98 65.3654 2029.99 66.4591 Q2034 67.5124 2037.93 67.5124 Q2043.2 67.5124 2046.03 65.73 Q2048.87 63.9071 2048.87 60.6258 Q2048.87 57.5877 2046.8 55.9673 Q2044.78 54.3469 2037.85 52.8481 L2035.26 52.2405 Q2028.33 50.7821 2025.25 47.7845 Q2022.17 44.7463 2022.17 39.4801 Q2022.17 33.0797 2026.71 29.5959 Q2031.25 26.1121 2039.59 26.1121 Q2043.73 26.1121 2047.37 26.7198 Q2051.02 27.3274 2054.1 28.5427 Z" fill="#000000" fill-rule="nonzero" fill-opacity="1" /><path clip-path="url(#clip690)" d="M2067.22 9.62495 L2073.7 9.62495 Q2079.78 19.1851 2082.78 28.3401 Q2085.81 37.4952 2085.81 46.5287 Q2085.81 55.6027 2082.78 64.7983 Q2079.78 73.9938 2073.7 83.5134 L2067.22 83.5134 Q2072.61 74.2369 2075.24 65.0818 Q2077.92 55.8863 2077.92 46.5287 Q2077.92 37.1711 2075.24 28.0566 Q2072.61 18.942 2067.22 9.62495 Z" fill="#000000" fill-rule="nonzero" fill-opacity="1" /><path clip-path="url(#clip691)" d="M343.921 127.792 L343.921 1734.12 L452.078 1734.12 L452.078 127.792 L343.921 127.792 L343.921 127.792  Z" fill="#4682b4" fill-rule="evenodd" fill-opacity="0.7"/>
<polyline clip-path="url(#clip691)" style="stroke:#000000; stroke-linecap:round; stroke-linejoin:round; stroke-width:4; stroke-opacity:0.7; fill:none" points="343.921,127.792 343.921,1734.12 452.078,1734.12 452.078,127.792 343.921,127.792 "/>
<path clip-path="url(#clip691)" d="M452.078 1389.9 L452.078 1734.12 L560.236 1734.12 L560.236 1389.9 L452.078 1389.9 L452.078 1389.9  Z" fill="#4682b4" fill-rule="evenodd" fill-opacity="0.7"/>
<polyline clip-path="url(#clip691)" style="stroke:#000000; stroke-linecap:round; stroke-linejoin:round; stroke-width:4; stroke-opacity:0.7; fill:none" points="452.078,1389.9 452.078,1734.12 560.236,1734.12 560.236,1389.9 452.078,1389.9 "/>
<path clip-path="url(#clip691)" d="M560.236 1619.38 L560.236 1734.12 L668.394 1734.12 L668.394 1619.38 L560.236 1619.38 L560.236 1619.38  Z" fill="#4682b4" fill-rule="evenodd" fill-opacity="0.7"/>
<polyline clip-path="url(#clip691)" style="stroke:#000000; stroke-linecap:round; stroke-linejoin:round; stroke-width:4; stroke-opacity:0.7; fill:none" points="560.236,1619.38 560.236,1734.12 668.394,1734.12 668.394,1619.38 560.236,1619.38 "/>
<path clip-path="url(#clip691)" d="M668.394 1676.75 L668.394 1734.12 L776.551 1734.12 L776.551 1676.75 L668.394 1676.75 L668.394 1676.75  Z" fill="#4682b4" fill-rule="evenodd" fill-opacity="0.7"/>
<polyline clip-path="url(#clip691)" style="stroke:#000000; stroke-linecap:round; stroke-linejoin:round; stroke-width:4; stroke-opacity:0.7; fill:none" points="668.394,1676.75 668.394,1734.12 776.551,1734.12 776.551,1676.75 668.394,1676.75 "/>
<path clip-path="url(#clip691)" d="M776.551 1734.12 L776.551 1734.12 L884.709 1734.12 L884.709 1734.12 L776.551 1734.12 L776.551 1734.12  Z" fill="#4682b4" fill-rule="evenodd" fill-opacity="0.7"/>
<polyline clip-path="url(#clip691)" style="stroke:#000000; stroke-linecap:round; stroke-linejoin:round; stroke-width:4; stroke-opacity:0.7; fill:none" points="776.551,1734.12 776.551,1734.12 884.709,1734.12 776.551,1734.12 "/>
<path clip-path="url(#clip691)" d="M884.709 1734.12 L884.709 1734.12 L992.866 1734.12 L992.866 1734.12 L884.709 1734.12 L884.709 1734.12  Z" fill="#4682b4" fill-rule="evenodd" fill-opacity="0.7"/>
<polyline clip-path="url(#clip691)" style="stroke:#000000; stroke-linecap:round; stroke-linejoin:round; stroke-width:4; stroke-opacity:0.7; fill:none" points="884.709,1734.12 884.709,1734.12 992.866,1734.12 884.709,1734.12 "/>
<path clip-path="url(#clip691)" d="M992.866 1734.12 L992.866 1734.12 L1101.02 1734.12 L1101.02 1734.12 L992.866 1734.12 L992.866 1734.12  Z" fill="#4682b4" fill-rule="evenodd" fill-opacity="0.7"/>
<polyline clip-path="url(#clip691)" style="stroke:#000000; stroke-linecap:round; stroke-linejoin:round; stroke-width:4; stroke-opacity:0.7; fill:none" points="992.866,1734.12 992.866,1734.12 1101.02,1734.12 992.866,1734.12 "/>
<path clip-path="url(#clip691)" d="M1101.02 1734.12 L1101.02 1734.12 L1209.18 1734.12 L1209.18 1734.12 L1101.02 1734.12 L1101.02 1734.12  Z" fill="#4682b4" fill-rule="evenodd" fill-opacity="0.7"/>
<polyline clip-path="url(#clip691)" style="stroke:#000000; stroke-linecap:round; stroke-linejoin:round; stroke-width:4; stroke-opacity:0.7; fill:none" points="1101.02,1734.12 1101.02,1734.12 1209.18,1734.12 1101.02,1734.12 "/>
<path clip-path="url(#clip691)" d="M1209.18 1734.12 L1209.18 1734.12 L1317.34 1734.12 L1317.34 1734.12 L1209.18 1734.12 L1209.18 1734.12  Z" fill="#4682b4" fill-rule="evenodd" fill-opacity="0.7"/>
<polyline clip-path="url(#clip691)" style="stroke:#000000; stroke-linecap:round; stroke-linejoin:round; stroke-width:4; stroke-opacity:0.7; fill:none" points="1209.18,1734.12 1209.18,1734.12 1317.34,1734.12 1209.18,1734.12 "/>
<path clip-path="url(#clip691)" d="M1317.34 1734.12 L1317.34 1734.12 L1425.5 1734.12 L1425.5 1734.12 L1317.34 1734.12 L1317.34 1734.12  Z" fill="#4682b4" fill-rule="evenodd" fill-opacity="0.7"/>
<polyline clip-path="url(#clip691)" style="stroke:#000000; stroke-linecap:round; stroke-linejoin:round; stroke-width:4; stroke-opacity:0.7; fill:none" points="1317.34,1734.12 1317.34,1734.12 1425.5,1734.12 1317.34,1734.12 "/>
<path clip-path="url(#clip691)" d="M1425.5 1734.12 L1425.5 1734.12 L1533.65 1734.12 L1533.65 1734.12 L1425.5 1734.12 L1425.5 1734.12  Z" fill="#4682b4" fill-rule="evenodd" fill-opacity="0.7"/>
<polyline clip-path="url(#clip691)" style="stroke:#000000; stroke-linecap:round; stroke-linejoin:round; stroke-width:4; stroke-opacity:0.7; fill:none" points="1425.5,1734.12 1425.5,1734.12 1533.65,1734.12 1425.5,1734.12 "/>
<path clip-path="url(#clip691)" d="M1533.65 1734.12 L1533.65 1734.12 L1641.81 1734.12 L1641.81 1734.12 L1533.65 1734.12 L1533.65 1734.12  Z" fill="#4682b4" fill-rule="evenodd" fill-opacity="0.7"/>
<polyline clip-path="url(#clip691)" style="stroke:#000000; stroke-linecap:round; stroke-linejoin:round; stroke-width:4; stroke-opacity:0.7; fill:none" points="1533.65,1734.12 1533.65,1734.12 1641.81,1734.12 1533.65,1734.12 "/>
<path clip-path="url(#clip691)" d="M1641.81 1676.75 L1641.81 1734.12 L1749.97 1734.12 L1749.97 1676.75 L1641.81 1676.75 L1641.81 1676.75  Z" fill="#4682b4" fill-rule="evenodd" fill-opacity="0.7"/>
<polyline clip-path="url(#clip691)" style="stroke:#000000; stroke-linecap:round; stroke-linejoin:round; stroke-width:4; stroke-opacity:0.7; fill:none" points="1641.81,1676.75 1641.81,1734.12 1749.97,1734.12 1749.97,1676.75 1641.81,1676.75 "/>
<path clip-path="url(#clip691)" d="M1749.97 1562.01 L1749.97 1734.12 L1858.13 1734.12 L1858.13 1562.01 L1749.97 1562.01 L1749.97 1562.01  Z" fill="#4682b4" fill-rule="evenodd" fill-opacity="0.7"/>
<polyline clip-path="url(#clip691)" style="stroke:#000000; stroke-linecap:round; stroke-linejoin:round; stroke-width:4; stroke-opacity:0.7; fill:none" points="1749.97,1562.01 1749.97,1734.12 1858.13,1734.12 1858.13,1562.01 1749.97,1562.01 "/>
<path clip-path="url(#clip691)" d="M1858.13 1332.54 L1858.13 1734.12 L1966.28 1734.12 L1966.28 1332.54 L1858.13 1332.54 L1858.13 1332.54  Z" fill="#4682b4" fill-rule="evenodd" fill-opacity="0.7"/>
<polyline clip-path="url(#clip691)" style="stroke:#000000; stroke-linecap:round; stroke-linejoin:round; stroke-width:4; stroke-opacity:0.7; fill:none" points="1858.13,1332.54 1858.13,1734.12 1966.28,1734.12 1966.28,1332.54 1858.13,1332.54 "/>
<path clip-path="url(#clip691)" d="M1966.28 1504.64 L1966.28 1734.12 L2074.44 1734.12 L2074.44 1504.64 L1966.28 1504.64 L1966.28 1504.64  Z" fill="#4682b4" fill-rule="evenodd" fill-opacity="0.7"/>
<polyline clip-path="url(#clip691)" style="stroke:#000000; stroke-linecap:round; stroke-linejoin:round; stroke-width:4; stroke-opacity:0.7; fill:none" points="1966.28,1504.64 1966.28,1734.12 2074.44,1734.12 2074.44,1504.64 1966.28,1504.64 "/>
<path clip-path="url(#clip691)" d="M2074.44 1103.06 L2074.44 1734.12 L2182.6 1734.12 L2182.6 1103.06 L2074.44 1103.06 L2074.44 1103.06  Z" fill="#4682b4" fill-rule="evenodd" fill-opacity="0.7"/>
<polyline clip-path="url(#clip691)" style="stroke:#000000; stroke-linecap:round; stroke-linejoin:round; stroke-width:4; stroke-opacity:0.7; fill:none" points="2074.44,1103.06 2074.44,1734.12 2182.6,1734.12 2182.6,1103.06 2074.44,1103.06 "/>
<path clip-path="url(#clip691)" d="M2182.6 586.742 L2182.6 1734.12 L2290.76 1734.12 L2290.76 586.742 L2182.6 586.742 L2182.6 586.742  Z" fill="#4682b4" fill-rule="evenodd" fill-opacity="0.7"/>
<polyline clip-path="url(#clip691)" style="stroke:#000000; stroke-linecap:round; stroke-linejoin:round; stroke-width:4; stroke-opacity:0.7; fill:none" points="2182.6,586.742 2182.6,1734.12 2290.76,1734.12 2290.76,586.742 2182.6,586.742 "/>
<path clip-path="url(#clip691)" d="M2290.76 873.586 L2290.76 1734.12 L2398.92 1734.12 L2398.92 873.586 L2290.76 873.586 L2290.76 873.586  Z" fill="#4682b4" fill-rule="evenodd" fill-opacity="0.7"/>
<polyline clip-path="url(#clip691)" style="stroke:#000000; stroke-linecap:round; stroke-linejoin:round; stroke-width:4; stroke-opacity:0.7; fill:none" points="2290.76,873.586 2290.76,1734.12 2398.92,1734.12 2398.92,873.586 2290.76,873.586 "/>
<path clip-path="url(#clip691)" d="M2398.92 1619.38 L2398.92 1734.12 L2507.07 1734.12 L2507.07 1619.38 L2398.92 1619.38 L2398.92 1619.38  Z" fill="#4682b4" fill-rule="evenodd" fill-opacity="0.7"/>
<polyline clip-path="url(#clip691)" style="stroke:#000000; stroke-linecap:round; stroke-linejoin:round; stroke-width:4; stroke-opacity:0.7; fill:none" points="2398.92,1619.38 2398.92,1734.12 2507.07,1734.12 2507.07,1619.38 2398.92,1619.38 "/>
<circle clip-path="url(#clip691)" style="fill:#4682b4; stroke:none; fill-opacity:0" cx="506.157" cy="1389.9" r="2"/>
<circle clip-path="url(#clip691)" style="fill:#4682b4; stroke:none; fill-opacity:0" cx="614.315" cy="1619.38" r="2"/>
<circle clip-path="url(#clip691)" style="fill:#4682b4; stroke:none; fill-opacity:0" cx="722.472" cy="1676.75" r="2"/>
<circle clip-path="url(#clip691)" style="fill:#4682b4; stroke:none; fill-opacity:0" cx="830.63" cy="1734.12" r="2"/>
<circle clip-path="url(#clip691)" style="fill:#4682b4; stroke:none; fill-opacity:0" cx="938.788" cy="1734.12" r="2"/>
<circle clip-path="url(#clip691)" style="fill:#4682b4; stroke:none; fill-opacity:0" cx="1046.95" cy="1734.12" r="2"/>
<circle clip-path="url(#clip691)" style="fill:#4682b4; stroke:none; fill-opacity:0" cx="1155.1" cy="1734.12" r="2"/>
<circle clip-path="url(#clip691)" style="fill:#4682b4; stroke:none; fill-opacity:0" cx="1263.26" cy="1734.12" r="2"/>
<circle clip-path="url(#clip691)" style="fill:#4682b4; stroke:none; fill-opacity:0" cx="1371.42" cy="1734.12" r="2"/>
<circle clip-path="url(#clip691)" style="fill:#4682b4; stroke:none; fill-opacity:0" cx="1479.58" cy="1734.12" r="2"/>
<circle clip-path="url(#clip691)" style="fill:#4682b4; stroke:none; fill-opacity:0" cx="1587.73" cy="1734.12" r="2"/>
<circle clip-path="url(#clip691)" style="fill:#4682b4; stroke:none; fill-opacity:0" cx="1695.89" cy="1676.75" r="2"/>
<circle clip-path="url(#clip691)" style="fill:#4682b4; stroke:none; fill-opacity:0" cx="1804.05" cy="1562.01" r="2"/>
<circle clip-path="url(#clip691)" style="fill:#4682b4; stroke:none; fill-opacity:0" cx="1912.21" cy="1332.54" r="2"/>
<circle clip-path="url(#clip691)" style="fill:#4682b4; stroke:none; fill-opacity:0" cx="2020.36" cy="1504.64" r="2"/>
<circle clip-path="url(#clip691)" style="fill:#4682b4; stroke:none; fill-opacity:0" cx="2128.52" cy="1103.06" r="2"/>
<circle clip-path="url(#clip691)" style="fill:#4682b4; stroke:none; fill-opacity:0" cx="2236.68" cy="586.742" r="2"/>
<circle clip-path="url(#clip691)" style="fill:#4682b4; stroke:none; fill-opacity:0" cx="2344.84" cy="873.586" r="2"/>
<circle clip-path="url(#clip691)" style="fill:#4682b4; stroke:none; fill-opacity:0" cx="2452.99" cy="1619.38" r="2"/>
<polyline clip-path="url(#clip691)" style="stroke:#ff0000; stroke-linecap:round; stroke-linejoin:round; stroke-width:8; stroke-opacity:1; fill:none" stroke-dasharray="32, 20" points="1513.32,3340.44 1513.32,-1478.53 "/>
<path clip-path="url(#clip690)" d="M2021.13 336.856 L2559.74 336.856 L2559.74 181.336 L2021.13 181.336  Z" fill="#ffffff" fill-rule="evenodd" fill-opacity="1"/>
<polyline clip-path="url(#clip690)" style="stroke:#000000; stroke-linecap:round; stroke-linejoin:round; stroke-width:4; stroke-opacity:1; fill:none" points="2021.13,336.856 2559.74,336.856 2559.74,181.336 2021.13,181.336 2021.13,336.856 "/>
<path clip-path="url(#clip690)" d="M2048.14 253.912 L2210.17 253.912 L2210.17 212.44 L2048.14 212.44 L2048.14 253.912  Z" fill="#4682b4" fill-rule="evenodd" fill-opacity="0.7"/>
<polyline clip-path="url(#clip690)" style="stroke:#000000; stroke-linecap:round; stroke-linejoin:round; stroke-width:4; stroke-opacity:1; fill:none" points="2048.14,253.912 2210.17,253.912 2210.17,212.44 2048.14,212.44 2048.14,253.912 "/>
<path clip-path="url(#clip690)" d="M2262.73 245.526 L2262.73 236.243 L2255.1 236.243 L2255.1 232.401 L2267.36 232.401 L2267.36 247.239 Q2264.66 249.16 2261.39 250.155 Q2258.13 251.128 2254.42 251.128 Q2246.32 251.128 2241.74 246.405 Q2237.18 241.66 2237.18 233.211 Q2237.18 224.739 2241.74 220.017 Q2246.32 215.271 2254.42 215.271 Q2257.8 215.271 2260.84 216.105 Q2263.89 216.938 2266.46 218.558 L2266.46 223.535 Q2263.87 221.336 2260.95 220.225 Q2258.04 219.114 2254.82 219.114 Q2248.48 219.114 2245.28 222.656 Q2242.11 226.197 2242.11 233.211 Q2242.11 240.202 2245.28 243.743 Q2248.48 247.285 2254.82 247.285 Q2257.29 247.285 2259.24 246.868 Q2261.18 246.429 2262.73 245.526 Z" fill="#000000" fill-rule="nonzero" fill-opacity="1" /><path clip-path="url(#clip690)" d="M2275.72 224.531 L2279.98 224.531 L2279.98 250.456 L2275.72 250.456 L2275.72 224.531 M2275.72 214.438 L2279.98 214.438 L2279.98 219.831 L2275.72 219.831 L2275.72 214.438 Z" fill="#000000" fill-rule="nonzero" fill-opacity="1" /><path clip-path="url(#clip690)" d="M2288.89 214.438 L2293.15 214.438 L2293.15 250.456 L2288.89 250.456 L2288.89 214.438 Z" fill="#000000" fill-rule="nonzero" fill-opacity="1" /><path clip-path="url(#clip690)" d="M2302.06 214.438 L2306.32 214.438 L2306.32 250.456 L2302.06 250.456 L2302.06 214.438 Z" fill="#000000" fill-rule="nonzero" fill-opacity="1" /><path clip-path="url(#clip690)" d="M2337.41 236.429 L2337.41 238.512 L2317.83 238.512 Q2318.1 242.91 2320.47 245.225 Q2322.85 247.516 2327.09 247.516 Q2329.54 247.516 2331.83 246.915 Q2334.15 246.313 2336.41 245.109 L2336.41 249.137 Q2334.12 250.109 2331.72 250.618 Q2329.31 251.128 2326.83 251.128 Q2320.63 251.128 2316.99 247.516 Q2313.38 243.905 2313.38 237.748 Q2313.38 231.382 2316.81 227.655 Q2320.26 223.906 2326.09 223.906 Q2331.32 223.906 2334.35 227.285 Q2337.41 230.642 2337.41 236.429 M2333.15 235.179 Q2333.1 231.683 2331.18 229.6 Q2329.28 227.517 2326.14 227.517 Q2322.57 227.517 2320.42 229.53 Q2318.29 231.544 2317.97 235.202 L2333.15 235.179 Z" fill="#000000" fill-rule="nonzero" fill-opacity="1" /><path clip-path="url(#clip690)" d="M2360.93 225.294 L2360.93 229.322 Q2359.12 228.396 2357.18 227.933 Q2355.23 227.47 2353.15 227.47 Q2349.98 227.47 2348.38 228.443 Q2346.81 229.415 2346.81 231.359 Q2346.81 232.841 2347.94 233.697 Q2349.08 234.53 2352.5 235.294 L2353.96 235.618 Q2358.5 236.591 2360.4 238.373 Q2362.32 240.132 2362.32 243.304 Q2362.32 246.915 2359.45 249.021 Q2356.6 251.128 2351.6 251.128 Q2349.52 251.128 2347.25 250.711 Q2345 250.317 2342.5 249.507 L2342.5 245.109 Q2344.86 246.336 2347.16 246.961 Q2349.45 247.563 2351.69 247.563 Q2354.7 247.563 2356.32 246.544 Q2357.94 245.503 2357.94 243.628 Q2357.94 241.892 2356.76 240.966 Q2355.6 240.04 2351.65 239.183 L2350.16 238.836 Q2346.21 238.003 2344.45 236.29 Q2342.69 234.554 2342.69 231.544 Q2342.69 227.887 2345.28 225.896 Q2347.87 223.906 2352.64 223.906 Q2355 223.906 2357.09 224.253 Q2359.17 224.6 2360.93 225.294 Z" fill="#000000" fill-rule="nonzero" fill-opacity="1" /><path clip-path="url(#clip690)" d="M2373.22 246.567 L2373.22 260.317 L2368.94 260.317 L2368.94 224.531 L2373.22 224.531 L2373.22 228.466 Q2374.56 226.151 2376.6 225.04 Q2378.66 223.906 2381.51 223.906 Q2386.23 223.906 2389.17 227.655 Q2392.13 231.405 2392.13 237.517 Q2392.13 243.628 2389.17 247.378 Q2386.23 251.128 2381.51 251.128 Q2378.66 251.128 2376.6 250.016 Q2374.56 248.882 2373.22 246.567 M2387.71 237.517 Q2387.71 232.817 2385.77 230.155 Q2383.84 227.47 2380.47 227.47 Q2377.09 227.47 2375.14 230.155 Q2373.22 232.817 2373.22 237.517 Q2373.22 242.216 2375.14 244.901 Q2377.09 247.563 2380.47 247.563 Q2383.84 247.563 2385.77 244.901 Q2387.71 242.216 2387.71 237.517 Z" fill="#000000" fill-rule="nonzero" fill-opacity="1" /><path clip-path="url(#clip690)" d="M2399.19 224.531 L2403.45 224.531 L2403.45 250.456 L2399.19 250.456 L2399.19 224.531 M2399.19 214.438 L2403.45 214.438 L2403.45 219.831 L2399.19 219.831 L2399.19 214.438 Z" fill="#000000" fill-rule="nonzero" fill-opacity="1" /><path clip-path="url(#clip690)" d="M2434.54 236.429 L2434.54 238.512 L2414.96 238.512 Q2415.23 242.91 2417.59 245.225 Q2419.98 247.516 2424.21 247.516 Q2426.67 247.516 2428.96 246.915 Q2431.28 246.313 2433.54 245.109 L2433.54 249.137 Q2431.25 250.109 2428.84 250.618 Q2426.44 251.128 2423.96 251.128 Q2417.76 251.128 2414.12 247.516 Q2410.51 243.905 2410.51 237.748 Q2410.51 231.382 2413.94 227.655 Q2417.39 223.906 2423.22 223.906 Q2428.45 223.906 2431.48 227.285 Q2434.54 230.642 2434.54 236.429 M2430.28 235.179 Q2430.23 231.683 2428.31 229.6 Q2426.41 227.517 2423.27 227.517 Q2419.7 227.517 2417.55 229.53 Q2415.42 231.544 2415.09 235.202 L2430.28 235.179 Z" fill="#000000" fill-rule="nonzero" fill-opacity="1" /><polyline clip-path="url(#clip690)" style="stroke:#ff0000; stroke-linecap:round; stroke-linejoin:round; stroke-width:8; stroke-opacity:1; fill:none" stroke-dasharray="32, 20" points="2048.14,285.016 2210.17,285.016 "/>
<path clip-path="url(#clip690)" d="M2237.18 267.736 L2244.15 267.736 L2252.97 291.255 L2261.83 267.736 L2268.8 267.736 L2268.8 302.296 L2264.24 302.296 L2264.24 271.949 L2255.33 295.653 L2250.63 295.653 L2241.72 271.949 L2241.72 302.296 L2237.18 302.296 L2237.18 267.736 Z" fill="#000000" fill-rule="nonzero" fill-opacity="1" /><path clip-path="url(#clip690)" d="M2300.07 288.269 L2300.07 290.352 L2280.49 290.352 Q2280.77 294.75 2283.13 297.065 Q2285.51 299.356 2289.75 299.356 Q2292.2 299.356 2294.49 298.755 Q2296.81 298.153 2299.08 296.949 L2299.08 300.977 Q2296.79 301.949 2294.38 302.458 Q2291.97 302.968 2289.49 302.968 Q2283.29 302.968 2279.66 299.356 Q2276.04 295.745 2276.04 289.588 Q2276.04 283.222 2279.47 279.495 Q2282.92 275.746 2288.75 275.746 Q2293.98 275.746 2297.02 279.125 Q2300.07 282.482 2300.07 288.269 M2295.81 287.019 Q2295.77 283.523 2293.85 281.44 Q2291.95 279.357 2288.8 279.357 Q2285.23 279.357 2283.08 281.37 Q2280.95 283.384 2280.63 287.042 L2295.81 287.019 Z" fill="#000000" fill-rule="nonzero" fill-opacity="1" /><path clip-path="url(#clip690)" d="M2318.85 289.264 Q2313.68 289.264 2311.69 290.444 Q2309.7 291.625 2309.7 294.472 Q2309.7 296.741 2311.18 298.083 Q2312.69 299.403 2315.26 299.403 Q2318.8 299.403 2320.93 296.903 Q2323.08 294.38 2323.08 290.213 L2323.08 289.264 L2318.85 289.264 M2327.34 287.505 L2327.34 302.296 L2323.08 302.296 L2323.08 298.361 Q2321.62 300.722 2319.45 301.856 Q2317.27 302.968 2314.12 302.968 Q2310.14 302.968 2307.78 300.745 Q2305.44 298.5 2305.44 294.75 Q2305.44 290.375 2308.36 288.153 Q2311.3 285.931 2317.11 285.931 L2323.08 285.931 L2323.08 285.514 Q2323.08 282.574 2321.14 280.977 Q2319.22 279.357 2315.72 279.357 Q2313.5 279.357 2311.39 279.889 Q2309.29 280.421 2307.34 281.486 L2307.34 277.551 Q2309.68 276.648 2311.88 276.208 Q2314.08 275.746 2316.16 275.746 Q2321.78 275.746 2324.56 278.662 Q2327.34 281.579 2327.34 287.505 Z" fill="#000000" fill-rule="nonzero" fill-opacity="1" /><path clip-path="url(#clip690)" d="M2357.66 286.648 L2357.66 302.296 L2353.41 302.296 L2353.41 286.787 Q2353.41 283.107 2351.97 281.278 Q2350.53 279.449 2347.66 279.449 Q2344.22 279.449 2342.22 281.648 Q2340.23 283.847 2340.23 287.644 L2340.23 302.296 L2335.95 302.296 L2335.95 276.371 L2340.23 276.371 L2340.23 280.398 Q2341.76 278.06 2343.82 276.903 Q2345.91 275.746 2348.61 275.746 Q2353.08 275.746 2355.37 278.523 Q2357.66 281.278 2357.66 286.648 Z" fill="#000000" fill-rule="nonzero" fill-opacity="1" /><path clip-path="url(#clip690)" d="M2381.78 280.769 L2411.46 280.769 L2411.46 284.657 L2381.78 284.657 L2381.78 280.769 M2381.78 290.213 L2411.46 290.213 L2411.46 294.148 L2381.78 294.148 L2381.78 290.213 Z" fill="#000000" fill-rule="nonzero" fill-opacity="1" /><path clip-path="url(#clip690)" d="M2436.67 267.736 L2455.02 267.736 L2455.02 271.671 L2440.95 271.671 L2440.95 280.144 Q2441.97 279.796 2442.99 279.634 Q2444.01 279.449 2445.03 279.449 Q2450.81 279.449 2454.19 282.62 Q2457.57 285.792 2457.57 291.208 Q2457.57 296.787 2454.1 299.889 Q2450.63 302.968 2444.31 302.968 Q2442.13 302.968 2439.86 302.597 Q2437.62 302.227 2435.21 301.486 L2435.21 296.787 Q2437.29 297.921 2439.52 298.477 Q2441.74 299.032 2444.21 299.032 Q2448.22 299.032 2450.56 296.926 Q2452.9 294.819 2452.9 291.208 Q2452.9 287.597 2450.56 285.491 Q2448.22 283.384 2444.21 283.384 Q2442.34 283.384 2440.46 283.801 Q2438.61 284.218 2436.67 285.097 L2436.67 267.736 Z" fill="#000000" fill-rule="nonzero" fill-opacity="1" /><path clip-path="url(#clip690)" d="M2479.63 271.81 L2467.83 290.259 L2479.63 290.259 L2479.63 271.81 M2478.4 267.736 L2484.28 267.736 L2484.28 290.259 L2489.21 290.259 L2489.21 294.148 L2484.28 294.148 L2484.28 302.296 L2479.63 302.296 L2479.63 294.148 L2464.03 294.148 L2464.03 289.634 L2478.4 267.736 Z" fill="#000000" fill-rule="nonzero" fill-opacity="1" /><path clip-path="url(#clip690)" d="M2496.95 296.417 L2501.83 296.417 L2501.83 302.296 L2496.95 302.296 L2496.95 296.417 Z" fill="#000000" fill-rule="nonzero" fill-opacity="1" /><path clip-path="url(#clip690)" d="M2512.83 298.361 L2520.46 298.361 L2520.46 271.996 L2512.15 273.662 L2512.15 269.403 L2520.42 267.736 L2525.09 267.736 L2525.09 298.361 L2532.73 298.361 L2532.73 302.296 L2512.83 302.296 L2512.83 298.361 Z" fill="#000000" fill-rule="nonzero" fill-opacity="1" /></svg>
