<?xml version="1.0" encoding="utf-8"?>
<svg xmlns="http://www.w3.org/2000/svg" xmlns:xlink="http://www.w3.org/1999/xlink" width="672" height="480" viewBox="0 0 2688 1920">
<defs>
  <clipPath id="clip990">
    <rect x="0" y="0" width="2688" height="1920"/>
  </clipPath>
</defs>
<path clip-path="url(#clip990)" d="M0 1920 L2688 1920 L2688 -4.26326e-14 L0 -4.26326e-14  Z" fill="#ffffff" fill-rule="evenodd" fill-opacity="1"/>
<defs>
  <clipPath id="clip991">
    <rect x="226" y="127" width="2416" height="1607"/>
  </clipPath>
</defs>
<path clip-path="url(#clip990)" d="M226.141 1734.12 L2640.76 1734.12 L2640.76 127.792 L226.141 127.792  Z" fill="#ffffff" fill-rule="evenodd" fill-opacity="1"/>
<polyline clip-path="url(#clip991)" style="stroke:#000000; stroke-linecap:round; stroke-linejoin:round; stroke-width:2; stroke-opacity:0.1; fill:none" points="294.479,1734.12 294.479,127.792 "/>
<polyline clip-path="url(#clip991)" style="stroke:#000000; stroke-linecap:round; stroke-linejoin:round; stroke-width:2; stroke-opacity:0.1; fill:none" points="674.135,1734.12 674.135,127.792 "/>
<polyline clip-path="url(#clip991)" style="stroke:#000000; stroke-linecap:round; stroke-linejoin:round; stroke-width:2; stroke-opacity:0.1; fill:none" points="1053.79,1734.12 1053.79,127.792 "/>
<polyline clip-path="url(#clip991)" style="stroke:#000000; stroke-linecap:round; stroke-linejoin:round; stroke-width:2; stroke-opacity:0.1; fill:none" points="1433.45,1734.12 1433.45,127.792 "/>
<polyline clip-path="url(#clip991)" style="stroke:#000000; stroke-linecap:round; stroke-linejoin:round; stroke-width:2; stroke-opacity:0.1; fill:none" points="1813.1,1734.12 1813.1,127.792 "/>
<polyline clip-path="url(#clip991)" style="stroke:#000000; stroke-linecap:round; stroke-linejoin:round; stroke-width:2; stroke-opacity:0.1; fill:none" points="2192.76,1734.12 2192.76,127.792 "/>
<polyline clip-path="url(#clip991)" style="stroke:#000000; stroke-linecap:round; stroke-linejoin:round; stroke-width:2; stroke-opacity:0.1; fill:none" points="2572.42,1734.12 2572.42,127.792 "/>
<polyline clip-path="url(#clip991)" style="stroke:#000000; stroke-linecap:round; stroke-linejoin:round; stroke-width:2; stroke-opacity:0.1; fill:none" points="226.141,1593.7 2640.76,1593.7 "/>
<polyline clip-path="url(#clip991)" style="stroke:#000000; stroke-linecap:round; stroke-linejoin:round; stroke-width:2; stroke-opacity:0.1; fill:none" points="226.141,1370.96 2640.76,1370.96 "/>
<polyline clip-path="url(#clip991)" style="stroke:#000000; stroke-linecap:round; stroke-linejoin:round; stroke-width:2; stroke-opacity:0.1; fill:none" points="226.141,1148.22 2640.76,1148.22 "/>
<polyline clip-path="url(#clip991)" style="stroke:#000000; stroke-linecap:round; stroke-linejoin:round; stroke-width:2; stroke-opacity:0.1; fill:none" points="226.141,925.478 2640.76,925.478 "/>
<polyline clip-path="url(#clip991)" style="stroke:#000000; stroke-linecap:round; stroke-linejoin:round; stroke-width:2; stroke-opacity:0.1; fill:none" points="226.141,702.737 2640.76,702.737 "/>
<polyline clip-path="url(#clip991)" style="stroke:#000000; stroke-linecap:round; stroke-linejoin:round; stroke-width:2; stroke-opacity:0.1; fill:none" points="226.141,479.995 2640.76,479.995 "/>
<polyline clip-path="url(#clip991)" style="stroke:#000000; stroke-linecap:round; stroke-linejoin:round; stroke-width:2; stroke-opacity:0.1; fill:none" points="226.141,257.254 2640.76,257.254 "/>
<polyline clip-path="url(#clip990)" style="stroke:#000000; stroke-linecap:round; stroke-linejoin:round; stroke-width:4; stroke-opacity:1; fill:none" points="226.141,1734.12 2640.76,1734.12 "/>
<polyline clip-path="url(#clip990)" style="stroke:#000000; stroke-linecap:round; stroke-linejoin:round; stroke-width:4; stroke-opacity:1; fill:none" points="294.479,1734.12 294.479,1715.22 "/>
<polyline clip-path="url(#clip990)" style="stroke:#000000; stroke-linecap:round; stroke-linejoin:round; stroke-width:4; stroke-opacity:1; fill:none" points="674.135,1734.12 674.135,1715.22 "/>
<polyline clip-path="url(#clip990)" style="stroke:#000000; stroke-linecap:round; stroke-linejoin:round; stroke-width:4; stroke-opacity:1; fill:none" points="1053.79,1734.12 1053.79,1715.22 "/>
<polyline clip-path="url(#clip990)" style="stroke:#000000; stroke-linecap:round; stroke-linejoin:round; stroke-width:4; stroke-opacity:1; fill:none" points="1433.45,1734.12 1433.45,1715.22 "/>
<polyline clip-path="url(#clip990)" style="stroke:#000000; stroke-linecap:round; stroke-linejoin:round; stroke-width:4; stroke-opacity:1; fill:none" points="1813.1,1734.12 1813.1,1715.22 "/>
<polyline clip-path="url(#clip990)" style="stroke:#000000; stroke-linecap:round; stroke-linejoin:round; stroke-width:4; stroke-opacity:1; fill:none" points="2192.76,1734.12 2192.76,1715.22 "/>
<polyline clip-path="url(#clip990)" style="stroke:#000000; stroke-linecap:round; stroke-linejoin:round; stroke-width:4; stroke-opacity:1; fill:none" points="2572.42,1734.12 2572.42,1715.22 "/>
<path clip-path="url(#clip990)" d="M271.863 1767.34 Q268.252 1767.34 266.423 1770.9 Q264.618 1774.45 264.618 1781.58 Q264.618 1788.68 266.423 1792.25 Q268.252 1795.79 271.863 1795.79 Q275.497 1795.79 277.303 1792.25 Q279.132 1788.68 279.132 1781.58 Q279.132 1774.45 277.303 1770.9 Q275.497 1767.34 271.863 1767.34 M271.863 1763.64 Q277.673 1763.64 280.729 1768.24 Q283.807 1772.83 283.807 1781.58 Q283.807 1790.3 280.729 1794.91 Q277.673 1799.49 271.863 1799.49 Q266.053 1799.49 262.974 1794.91 Q259.919 1790.3 259.919 1781.58 Q259.919 1772.83 262.974 1768.24 Q266.053 1763.64 271.863 1763.64 Z" fill="#000000" fill-rule="nonzero" fill-opacity="1" /><path clip-path="url(#clip990)" d="M292.025 1792.94 L296.909 1792.94 L296.909 1798.82 L292.025 1798.82 L292.025 1792.94 Z" fill="#000000" fill-rule="nonzero" fill-opacity="1" /><path clip-path="url(#clip990)" d="M317.094 1767.34 Q313.483 1767.34 311.655 1770.9 Q309.849 1774.45 309.849 1781.58 Q309.849 1788.68 311.655 1792.25 Q313.483 1795.79 317.094 1795.79 Q320.729 1795.79 322.534 1792.25 Q324.363 1788.68 324.363 1781.58 Q324.363 1774.45 322.534 1770.9 Q320.729 1767.34 317.094 1767.34 M317.094 1763.64 Q322.904 1763.64 325.96 1768.24 Q329.039 1772.83 329.039 1781.58 Q329.039 1790.3 325.96 1794.91 Q322.904 1799.49 317.094 1799.49 Q311.284 1799.49 308.206 1794.91 Q305.15 1790.3 305.15 1781.58 Q305.15 1772.83 308.206 1768.24 Q311.284 1763.64 317.094 1763.64 Z" fill="#000000" fill-rule="nonzero" fill-opacity="1" /><path clip-path="url(#clip990)" d="M652.133 1767.34 Q648.522 1767.34 646.693 1770.9 Q644.888 1774.45 644.888 1781.58 Q644.888 1788.68 646.693 1792.25 Q648.522 1795.79 652.133 1795.79 Q655.767 1795.79 657.573 1792.25 Q659.402 1788.68 659.402 1781.58 Q659.402 1774.45 657.573 1770.9 Q655.767 1767.34 652.133 1767.34 M652.133 1763.64 Q657.943 1763.64 660.999 1768.24 Q664.077 1772.83 664.077 1781.58 Q664.077 1790.3 660.999 1794.91 Q657.943 1799.49 652.133 1799.49 Q646.323 1799.49 643.244 1794.91 Q640.189 1790.3 640.189 1781.58 Q640.189 1772.83 643.244 1768.24 Q646.323 1763.64 652.133 1763.64 Z" fill="#000000" fill-rule="nonzero" fill-opacity="1" /><path clip-path="url(#clip990)" d="M672.295 1792.94 L677.179 1792.94 L677.179 1798.82 L672.295 1798.82 L672.295 1792.94 Z" fill="#000000" fill-rule="nonzero" fill-opacity="1" /><path clip-path="url(#clip990)" d="M688.175 1794.89 L695.813 1794.89 L695.813 1768.52 L687.503 1770.19 L687.503 1765.93 L695.767 1764.26 L700.443 1764.26 L700.443 1794.89 L708.082 1794.89 L708.082 1798.82 L688.175 1798.82 L688.175 1794.89 Z" fill="#000000" fill-rule="nonzero" fill-opacity="1" /><path clip-path="url(#clip990)" d="M1031.97 1767.34 Q1028.36 1767.34 1026.53 1770.9 Q1024.73 1774.45 1024.73 1781.58 Q1024.73 1788.68 1026.53 1792.25 Q1028.36 1795.79 1031.97 1795.79 Q1035.61 1795.79 1037.41 1792.25 Q1039.24 1788.68 1039.24 1781.58 Q1039.24 1774.45 1037.41 1770.9 Q1035.61 1767.34 1031.97 1767.34 M1031.97 1763.64 Q1037.78 1763.64 1040.84 1768.24 Q1043.92 1772.83 1043.92 1781.58 Q1043.92 1790.3 1040.84 1794.91 Q1037.78 1799.49 1031.97 1799.49 Q1026.16 1799.49 1023.09 1794.91 Q1020.03 1790.3 1020.03 1781.58 Q1020.03 1772.83 1023.09 1768.24 Q1026.16 1763.64 1031.97 1763.64 Z" fill="#000000" fill-rule="nonzero" fill-opacity="1" /><path clip-path="url(#clip990)" d="M1052.14 1792.94 L1057.02 1792.94 L1057.02 1798.82 L1052.14 1798.82 L1052.14 1792.94 Z" fill="#000000" fill-rule="nonzero" fill-opacity="1" /><path clip-path="url(#clip990)" d="M1071.23 1794.89 L1087.55 1794.89 L1087.55 1798.82 L1065.61 1798.82 L1065.61 1794.89 Q1068.27 1792.13 1072.85 1787.5 Q1077.46 1782.85 1078.64 1781.51 Q1080.89 1778.98 1081.77 1777.25 Q1082.67 1775.49 1082.67 1773.8 Q1082.67 1771.04 1080.72 1769.31 Q1078.8 1767.57 1075.7 1767.57 Q1073.5 1767.57 1071.05 1768.34 Q1068.62 1769.1 1065.84 1770.65 L1065.84 1765.93 Q1068.66 1764.79 1071.12 1764.21 Q1073.57 1763.64 1075.61 1763.64 Q1080.98 1763.64 1084.17 1766.32 Q1087.37 1769.01 1087.37 1773.5 Q1087.37 1775.63 1086.56 1777.55 Q1085.77 1779.45 1083.66 1782.04 Q1083.09 1782.71 1079.98 1785.93 Q1076.88 1789.12 1071.23 1794.89 Z" fill="#000000" fill-rule="nonzero" fill-opacity="1" /><path clip-path="url(#clip990)" d="M1411.16 1767.34 Q1407.55 1767.34 1405.72 1770.9 Q1403.91 1774.45 1403.91 1781.58 Q1403.91 1788.68 1405.72 1792.25 Q1407.55 1795.79 1411.16 1795.79 Q1414.79 1795.79 1416.6 1792.25 Q1418.43 1788.68 1418.43 1781.58 Q1418.43 1774.45 1416.6 1770.9 Q1414.79 1767.34 1411.16 1767.34 M1411.16 1763.64 Q1416.97 1763.64 1420.02 1768.24 Q1423.1 1772.83 1423.1 1781.58 Q1423.1 1790.3 1420.02 1794.91 Q1416.97 1799.49 1411.16 1799.49 Q1405.35 1799.49 1402.27 1794.91 Q1399.21 1790.3 1399.21 1781.58 Q1399.21 1772.83 1402.27 1768.24 Q1405.35 1763.64 1411.16 1763.64 Z" fill="#000000" fill-rule="nonzero" fill-opacity="1" /><path clip-path="url(#clip990)" d="M1431.32 1792.94 L1436.2 1792.94 L1436.2 1798.82 L1431.32 1798.82 L1431.32 1792.94 Z" fill="#000000" fill-rule="nonzero" fill-opacity="1" /><path clip-path="url(#clip990)" d="M1460.55 1780.19 Q1463.91 1780.9 1465.79 1783.17 Q1467.68 1785.44 1467.68 1788.77 Q1467.68 1793.89 1464.17 1796.69 Q1460.65 1799.49 1454.17 1799.49 Q1451.99 1799.49 1449.67 1799.05 Q1447.38 1798.64 1444.93 1797.78 L1444.93 1793.27 Q1446.87 1794.4 1449.19 1794.98 Q1451.5 1795.56 1454.03 1795.56 Q1458.42 1795.56 1460.72 1793.82 Q1463.03 1792.08 1463.03 1788.77 Q1463.03 1785.72 1460.88 1784.01 Q1458.75 1782.27 1454.93 1782.27 L1450.9 1782.27 L1450.9 1778.43 L1455.11 1778.43 Q1458.56 1778.43 1460.39 1777.06 Q1462.22 1775.67 1462.22 1773.08 Q1462.22 1770.42 1460.32 1769.01 Q1458.45 1767.57 1454.93 1767.57 Q1453.01 1767.57 1450.81 1767.99 Q1448.61 1768.4 1445.97 1769.28 L1445.97 1765.12 Q1448.63 1764.38 1450.95 1764.01 Q1453.29 1763.64 1455.35 1763.64 Q1460.67 1763.64 1463.77 1766.07 Q1466.87 1768.47 1466.87 1772.59 Q1466.87 1775.46 1465.23 1777.46 Q1463.59 1779.42 1460.55 1780.19 Z" fill="#000000" fill-rule="nonzero" fill-opacity="1" /><path clip-path="url(#clip990)" d="M1790.25 1767.34 Q1786.63 1767.34 1784.81 1770.9 Q1783 1774.45 1783 1781.58 Q1783 1788.68 1784.81 1792.25 Q1786.63 1795.79 1790.25 1795.79 Q1793.88 1795.79 1795.69 1792.25 Q1797.51 1788.68 1797.51 1781.58 Q1797.51 1774.45 1795.69 1770.9 Q1793.88 1767.34 1790.25 1767.34 M1790.25 1763.64 Q1796.06 1763.64 1799.11 1768.24 Q1802.19 1772.83 1802.19 1781.58 Q1802.19 1790.3 1799.11 1794.91 Q1796.06 1799.49 1790.25 1799.49 Q1784.44 1799.49 1781.36 1794.91 Q1778.3 1790.3 1778.3 1781.58 Q1778.3 1772.83 1781.36 1768.24 Q1784.44 1763.64 1790.25 1763.64 Z" fill="#000000" fill-rule="nonzero" fill-opacity="1" /><path clip-path="url(#clip990)" d="M1810.41 1792.94 L1815.29 1792.94 L1815.29 1798.82 L1810.41 1798.82 L1810.41 1792.94 Z" fill="#000000" fill-rule="nonzero" fill-opacity="1" /><path clip-path="url(#clip990)" d="M1838.32 1768.34 L1826.52 1786.78 L1838.32 1786.78 L1838.32 1768.34 M1837.1 1764.26 L1842.98 1764.26 L1842.98 1786.78 L1847.91 1786.78 L1847.91 1790.67 L1842.98 1790.67 L1842.98 1798.82 L1838.32 1798.82 L1838.32 1790.67 L1822.72 1790.67 L1822.72 1786.16 L1837.1 1764.26 Z" fill="#000000" fill-rule="nonzero" fill-opacity="1" /><path clip-path="url(#clip990)" d="M2170.64 1767.34 Q2167.03 1767.34 2165.2 1770.9 Q2163.4 1774.45 2163.4 1781.58 Q2163.4 1788.68 2165.2 1792.25 Q2167.03 1795.79 2170.64 1795.79 Q2174.28 1795.79 2176.08 1792.25 Q2177.91 1788.68 2177.91 1781.58 Q2177.91 1774.45 2176.08 1770.9 Q2174.28 1767.34 2170.64 1767.34 M2170.64 1763.64 Q2176.45 1763.64 2179.51 1768.24 Q2182.59 1772.83 2182.59 1781.58 Q2182.59 1790.3 2179.51 1794.91 Q2176.45 1799.49 2170.64 1799.49 Q2164.83 1799.49 2161.75 1794.91 Q2158.7 1790.3 2158.7 1781.58 Q2158.7 1772.83 2161.75 1768.24 Q2164.83 1763.64 2170.64 1763.64 Z" fill="#000000" fill-rule="nonzero" fill-opacity="1" /><path clip-path="url(#clip990)" d="M2190.81 1792.94 L2195.69 1792.94 L2195.69 1798.82 L2190.81 1798.82 L2190.81 1792.94 Z" fill="#000000" fill-rule="nonzero" fill-opacity="1" /><path clip-path="url(#clip990)" d="M2205.92 1764.26 L2224.28 1764.26 L2224.28 1768.2 L2210.2 1768.2 L2210.2 1776.67 Q2211.22 1776.32 2212.24 1776.16 Q2213.26 1775.97 2214.28 1775.97 Q2220.06 1775.97 2223.44 1779.15 Q2226.82 1782.32 2226.82 1787.73 Q2226.82 1793.31 2223.35 1796.41 Q2219.88 1799.49 2213.56 1799.49 Q2211.38 1799.49 2209.12 1799.12 Q2206.87 1798.75 2204.46 1798.01 L2204.46 1793.31 Q2206.55 1794.45 2208.77 1795 Q2210.99 1795.56 2213.47 1795.56 Q2217.47 1795.56 2219.81 1793.45 Q2222.15 1791.34 2222.15 1787.73 Q2222.15 1784.12 2219.81 1782.02 Q2217.47 1779.91 2213.47 1779.91 Q2211.59 1779.91 2209.72 1780.33 Q2207.87 1780.74 2205.92 1781.62 L2205.92 1764.26 Z" fill="#000000" fill-rule="nonzero" fill-opacity="1" /><path clip-path="url(#clip990)" d="M2549.72 1767.34 Q2546.11 1767.34 2544.28 1770.9 Q2542.48 1774.45 2542.48 1781.58 Q2542.48 1788.68 2544.28 1792.25 Q2546.11 1795.79 2549.72 1795.79 Q2553.36 1795.79 2555.16 1792.25 Q2556.99 1788.68 2556.99 1781.58 Q2556.99 1774.45 2555.16 1770.9 Q2553.36 1767.34 2549.72 1767.34 M2549.72 1763.64 Q2555.53 1763.64 2558.59 1768.24 Q2561.67 1772.83 2561.67 1781.58 Q2561.67 1790.3 2558.59 1794.91 Q2555.53 1799.49 2549.72 1799.49 Q2543.91 1799.49 2540.83 1794.91 Q2537.78 1790.3 2537.78 1781.58 Q2537.78 1772.83 2540.83 1768.24 Q2543.91 1763.64 2549.72 1763.64 Z" fill="#000000" fill-rule="nonzero" fill-opacity="1" /><path clip-path="url(#clip990)" d="M2569.88 1792.94 L2574.77 1792.94 L2574.77 1798.82 L2569.88 1798.82 L2569.88 1792.94 Z" fill="#000000" fill-rule="nonzero" fill-opacity="1" /><path clip-path="url(#clip990)" d="M2595.53 1779.68 Q2592.38 1779.68 2590.53 1781.83 Q2588.7 1783.98 2588.7 1787.73 Q2588.7 1791.46 2590.53 1793.64 Q2592.38 1795.79 2595.53 1795.79 Q2598.68 1795.79 2600.51 1793.64 Q2602.36 1791.46 2602.36 1787.73 Q2602.36 1783.98 2600.51 1781.83 Q2598.68 1779.68 2595.53 1779.68 M2604.81 1765.02 L2604.81 1769.28 Q2603.05 1768.45 2601.25 1768.01 Q2599.47 1767.57 2597.71 1767.57 Q2593.08 1767.57 2590.62 1770.7 Q2588.19 1773.82 2587.85 1780.14 Q2589.21 1778.13 2591.27 1777.06 Q2593.33 1775.97 2595.81 1775.97 Q2601.02 1775.97 2604.03 1779.15 Q2607.06 1782.29 2607.06 1787.73 Q2607.06 1793.06 2603.91 1796.27 Q2600.76 1799.49 2595.53 1799.49 Q2589.54 1799.49 2586.36 1794.91 Q2583.19 1790.3 2583.19 1781.58 Q2583.19 1773.38 2587.08 1768.52 Q2590.97 1763.64 2597.52 1763.64 Q2599.28 1763.64 2601.06 1763.98 Q2602.87 1764.33 2604.81 1765.02 Z" fill="#000000" fill-rule="nonzero" fill-opacity="1" /><path clip-path="url(#clip990)" d="M1436.36 1833.78 L1436.36 1846.92 Q1442.69 1846.92 1446.93 1851.79 Q1451.29 1856.76 1451.29 1865.51 Q1451.29 1874.26 1446.93 1879.23 Q1442.69 1884.1 1436.36 1884.1 L1436.36 1896.86 L1430.54 1896.86 L1430.54 1884.1 Q1424.2 1884.1 1419.94 1879.23 Q1415.61 1874.26 1415.61 1865.51 Q1415.61 1856.76 1419.94 1851.79 Q1424.2 1846.92 1430.54 1846.92 L1430.54 1833.78 L1436.36 1833.78 M1436.36 1878.88 Q1439.96 1878.88 1442.41 1875.6 Q1445.08 1871.94 1445.11 1865.51 Q1445.15 1859.14 1442.41 1855.42 Q1439.96 1852.14 1436.36 1852.14 L1436.36 1878.88 M1430.54 1878.88 L1430.54 1852.14 Q1426.94 1852.14 1424.52 1855.42 Q1421.75 1859.14 1421.78 1865.51 Q1421.81 1871.94 1424.52 1875.6 Q1426.94 1878.88 1430.54 1878.88 Z" fill="#000000" fill-rule="nonzero" fill-opacity="1" /><polyline clip-path="url(#clip990)" style="stroke:#000000; stroke-linecap:round; stroke-linejoin:round; stroke-width:4; stroke-opacity:1; fill:none" points="226.141,1734.12 226.141,127.792 "/>
<polyline clip-path="url(#clip990)" style="stroke:#000000; stroke-linecap:round; stroke-linejoin:round; stroke-width:4; stroke-opacity:1; fill:none" points="226.141,1593.7 245.038,1593.7 "/>
<polyline clip-path="url(#clip990)" style="stroke:#000000; stroke-linecap:round; stroke-linejoin:round; stroke-width:4; stroke-opacity:1; fill:none" points="226.141,1370.96 245.038,1370.96 "/>
<polyline clip-path="url(#clip990)" style="stroke:#000000; stroke-linecap:round; stroke-linejoin:round; stroke-width:4; stroke-opacity:1; fill:none" points="226.141,1148.22 245.038,1148.22 "/>
<polyline clip-path="url(#clip990)" style="stroke:#000000; stroke-linecap:round; stroke-linejoin:round; stroke-width:4; stroke-opacity:1; fill:none" points="226.141,925.478 245.038,925.478 "/>
<polyline clip-path="url(#clip990)" style="stroke:#000000; stroke-linecap:round; stroke-linejoin:round; stroke-width:4; stroke-opacity:1; fill:none" points="226.141,702.737 245.038,702.737 "/>
<polyline clip-path="url(#clip990)" style="stroke:#000000; stroke-linecap:round; stroke-linejoin:round; stroke-width:4; stroke-opacity:1; fill:none" points="226.141,479.995 245.038,479.995 "/>
<polyline clip-path="url(#clip990)" style="stroke:#000000; stroke-linecap:round; stroke-linejoin:round; stroke-width:4; stroke-opacity:1; fill:none" points="226.141,257.254 245.038,257.254 "/>
<path clip-path="url(#clip990)" d="M130.242 1579.5 Q126.631 1579.5 124.802 1583.06 Q122.997 1586.61 122.997 1593.74 Q122.997 1600.84 124.802 1604.41 Q126.631 1607.95 130.242 1607.95 Q133.876 1607.95 135.682 1604.41 Q137.511 1600.84 137.511 1593.74 Q137.511 1586.61 135.682 1583.06 Q133.876 1579.5 130.242 1579.5 M130.242 1575.8 Q136.052 1575.8 139.108 1580.4 Q142.187 1584.99 142.187 1593.74 Q142.187 1602.46 139.108 1607.07 Q136.052 1611.65 130.242 1611.65 Q124.432 1611.65 121.353 1607.07 Q118.298 1602.46 118.298 1593.74 Q118.298 1584.99 121.353 1580.4 Q124.432 1575.8 130.242 1575.8 Z" fill="#000000" fill-rule="nonzero" fill-opacity="1" /><path clip-path="url(#clip990)" d="M150.404 1605.1 L155.288 1605.1 L155.288 1610.98 L150.404 1610.98 L150.404 1605.1 Z" fill="#000000" fill-rule="nonzero" fill-opacity="1" /><path clip-path="url(#clip990)" d="M169.501 1607.05 L185.821 1607.05 L185.821 1610.98 L163.876 1610.98 L163.876 1607.05 Q166.538 1604.29 171.122 1599.66 Q175.728 1595.01 176.909 1593.67 Q179.154 1591.14 180.034 1589.41 Q180.936 1587.65 180.936 1585.96 Q180.936 1583.2 178.992 1581.47 Q177.071 1579.73 173.969 1579.73 Q171.77 1579.73 169.316 1580.49 Q166.885 1581.26 164.108 1582.81 L164.108 1578.09 Q166.932 1576.95 169.385 1576.37 Q171.839 1575.8 173.876 1575.8 Q179.247 1575.8 182.441 1578.48 Q185.635 1581.17 185.635 1585.66 Q185.635 1587.79 184.825 1589.71 Q184.038 1591.61 181.932 1594.2 Q181.353 1594.87 178.251 1598.09 Q175.149 1601.28 169.501 1607.05 Z" fill="#000000" fill-rule="nonzero" fill-opacity="1" /><path clip-path="url(#clip990)" d="M129.293 1356.76 Q125.682 1356.76 123.853 1360.32 Q122.048 1363.86 122.048 1370.99 Q122.048 1378.1 123.853 1381.67 Q125.682 1385.21 129.293 1385.21 Q132.927 1385.21 134.733 1381.67 Q136.562 1378.1 136.562 1370.99 Q136.562 1363.86 134.733 1360.32 Q132.927 1356.76 129.293 1356.76 M129.293 1353.05 Q135.103 1353.05 138.159 1357.66 Q141.237 1362.24 141.237 1370.99 Q141.237 1379.72 138.159 1384.33 Q135.103 1388.91 129.293 1388.91 Q123.483 1388.91 120.404 1384.33 Q117.349 1379.72 117.349 1370.99 Q117.349 1362.24 120.404 1357.66 Q123.483 1353.05 129.293 1353.05 Z" fill="#000000" fill-rule="nonzero" fill-opacity="1" /><path clip-path="url(#clip990)" d="M149.455 1382.36 L154.339 1382.36 L154.339 1388.24 L149.455 1388.24 L149.455 1382.36 Z" fill="#000000" fill-rule="nonzero" fill-opacity="1" /><path clip-path="url(#clip990)" d="M178.691 1369.61 Q182.047 1370.32 183.922 1372.59 Q185.821 1374.86 185.821 1378.19 Q185.821 1383.31 182.302 1386.11 Q178.784 1388.91 172.302 1388.91 Q170.126 1388.91 167.811 1388.47 Q165.52 1388.05 163.066 1387.2 L163.066 1382.68 Q165.01 1383.82 167.325 1384.4 Q169.64 1384.98 172.163 1384.98 Q176.561 1384.98 178.853 1383.24 Q181.168 1381.5 181.168 1378.19 Q181.168 1375.14 179.015 1373.42 Q176.885 1371.69 173.066 1371.69 L169.038 1371.69 L169.038 1367.85 L173.251 1367.85 Q176.7 1367.85 178.529 1366.48 Q180.358 1365.09 180.358 1362.5 Q180.358 1359.84 178.459 1358.43 Q176.584 1356.99 173.066 1356.99 Q171.145 1356.99 168.946 1357.41 Q166.747 1357.82 164.108 1358.7 L164.108 1354.54 Q166.77 1353.8 169.085 1353.43 Q171.422 1353.05 173.483 1353.05 Q178.807 1353.05 181.909 1355.49 Q185.01 1357.89 185.01 1362.01 Q185.01 1364.88 183.367 1366.87 Q181.723 1368.84 178.691 1369.61 Z" fill="#000000" fill-rule="nonzero" fill-opacity="1" /><path clip-path="url(#clip990)" d="M128.159 1134.02 Q124.548 1134.02 122.719 1137.58 Q120.913 1141.12 120.913 1148.25 Q120.913 1155.36 122.719 1158.92 Q124.548 1162.47 128.159 1162.47 Q131.793 1162.47 133.599 1158.92 Q135.427 1155.36 135.427 1148.25 Q135.427 1141.12 133.599 1137.58 Q131.793 1134.02 128.159 1134.02 M128.159 1130.31 Q133.969 1130.31 137.025 1134.92 Q140.103 1139.5 140.103 1148.25 Q140.103 1156.98 137.025 1161.59 Q133.969 1166.17 128.159 1166.17 Q122.349 1166.17 119.27 1161.59 Q116.214 1156.98 116.214 1148.25 Q116.214 1139.5 119.27 1134.92 Q122.349 1130.31 128.159 1130.31 Z" fill="#000000" fill-rule="nonzero" fill-opacity="1" /><path clip-path="url(#clip990)" d="M148.321 1159.62 L153.205 1159.62 L153.205 1165.5 L148.321 1165.5 L148.321 1159.62 Z" fill="#000000" fill-rule="nonzero" fill-opacity="1" /><path clip-path="url(#clip990)" d="M176.237 1135.01 L164.432 1153.46 L176.237 1153.46 L176.237 1135.01 M175.01 1130.94 L180.89 1130.94 L180.89 1153.46 L185.821 1153.46 L185.821 1157.35 L180.89 1157.35 L180.89 1165.5 L176.237 1165.5 L176.237 1157.35 L160.636 1157.35 L160.636 1152.84 L175.01 1130.94 Z" fill="#000000" fill-rule="nonzero" fill-opacity="1" /><path clip-path="url(#clip990)" d="M129.64 911.276 Q126.029 911.276 124.201 914.841 Q122.395 918.383 122.395 925.512 Q122.395 932.619 124.201 936.184 Q126.029 939.725 129.64 939.725 Q133.275 939.725 135.08 936.184 Q136.909 932.619 136.909 925.512 Q136.909 918.383 135.08 914.841 Q133.275 911.276 129.64 911.276 M129.64 907.573 Q135.45 907.573 138.506 912.179 Q141.585 916.762 141.585 925.512 Q141.585 934.239 138.506 938.846 Q135.45 943.429 129.64 943.429 Q123.83 943.429 120.751 938.846 Q117.696 934.239 117.696 925.512 Q117.696 916.762 120.751 912.179 Q123.83 907.573 129.64 907.573 Z" fill="#000000" fill-rule="nonzero" fill-opacity="1" /><path clip-path="url(#clip990)" d="M149.802 936.878 L154.686 936.878 L154.686 942.758 L149.802 942.758 L149.802 936.878 Z" fill="#000000" fill-rule="nonzero" fill-opacity="1" /><path clip-path="url(#clip990)" d="M164.918 908.198 L183.274 908.198 L183.274 912.133 L169.2 912.133 L169.2 920.605 Q170.219 920.258 171.237 920.096 Q172.256 919.91 173.274 919.91 Q179.061 919.91 182.441 923.082 Q185.821 926.253 185.821 931.67 Q185.821 937.248 182.348 940.35 Q178.876 943.429 172.557 943.429 Q170.381 943.429 168.112 943.058 Q165.867 942.688 163.46 941.947 L163.46 937.248 Q165.543 938.383 167.765 938.938 Q169.987 939.494 172.464 939.494 Q176.469 939.494 178.807 937.387 Q181.145 935.281 181.145 931.67 Q181.145 928.059 178.807 925.952 Q176.469 923.846 172.464 923.846 Q170.589 923.846 168.714 924.262 Q166.862 924.679 164.918 925.559 L164.918 908.198 Z" fill="#000000" fill-rule="nonzero" fill-opacity="1" /><path clip-path="url(#clip990)" d="M128.483 688.535 Q124.872 688.535 123.043 692.1 Q121.238 695.642 121.238 702.771 Q121.238 709.878 123.043 713.442 Q124.872 716.984 128.483 716.984 Q132.117 716.984 133.923 713.442 Q135.751 709.878 135.751 702.771 Q135.751 695.642 133.923 692.1 Q132.117 688.535 128.483 688.535 M128.483 684.832 Q134.293 684.832 137.349 689.438 Q140.427 694.021 140.427 702.771 Q140.427 711.498 137.349 716.104 Q134.293 720.688 128.483 720.688 Q122.673 720.688 119.594 716.104 Q116.539 711.498 116.539 702.771 Q116.539 694.021 119.594 689.438 Q122.673 684.832 128.483 684.832 Z" fill="#000000" fill-rule="nonzero" fill-opacity="1" /><path clip-path="url(#clip990)" d="M148.645 714.137 L153.529 714.137 L153.529 720.017 L148.645 720.017 L148.645 714.137 Z" fill="#000000" fill-rule="nonzero" fill-opacity="1" /><path clip-path="url(#clip990)" d="M174.293 700.873 Q171.145 700.873 169.293 703.026 Q167.464 705.179 167.464 708.929 Q167.464 712.655 169.293 714.831 Q171.145 716.984 174.293 716.984 Q177.441 716.984 179.27 714.831 Q181.122 712.655 181.122 708.929 Q181.122 705.179 179.27 703.026 Q177.441 700.873 174.293 700.873 M183.575 686.22 L183.575 690.48 Q181.816 689.646 180.01 689.206 Q178.228 688.767 176.469 688.767 Q171.839 688.767 169.385 691.892 Q166.955 695.017 166.608 701.336 Q167.973 699.322 170.034 698.257 Q172.094 697.169 174.571 697.169 Q179.779 697.169 182.788 700.341 Q185.821 703.489 185.821 708.929 Q185.821 714.253 182.672 717.47 Q179.524 720.688 174.293 720.688 Q168.297 720.688 165.126 716.104 Q161.955 711.498 161.955 702.771 Q161.955 694.577 165.844 689.716 Q169.733 684.832 176.284 684.832 Q178.043 684.832 179.825 685.179 Q181.631 685.526 183.575 686.22 Z" fill="#000000" fill-rule="nonzero" fill-opacity="1" /><path clip-path="url(#clip990)" d="M129.548 465.794 Q125.937 465.794 124.108 469.359 Q122.302 472.901 122.302 480.03 Q122.302 487.137 124.108 490.701 Q125.937 494.243 129.548 494.243 Q133.182 494.243 134.987 490.701 Q136.816 487.137 136.816 480.03 Q136.816 472.901 134.987 469.359 Q133.182 465.794 129.548 465.794 M129.548 462.09 Q135.358 462.09 138.413 466.697 Q141.492 471.28 141.492 480.03 Q141.492 488.757 138.413 493.363 Q135.358 497.947 129.548 497.947 Q123.738 497.947 120.659 493.363 Q117.603 488.757 117.603 480.03 Q117.603 471.28 120.659 466.697 Q123.738 462.09 129.548 462.09 Z" fill="#000000" fill-rule="nonzero" fill-opacity="1" /><path clip-path="url(#clip990)" d="M149.71 491.396 L154.594 491.396 L154.594 497.275 L149.71 497.275 L149.71 491.396 Z" fill="#000000" fill-rule="nonzero" fill-opacity="1" /><path clip-path="url(#clip990)" d="M163.598 462.715 L185.821 462.715 L185.821 464.706 L173.274 497.275 L168.39 497.275 L180.196 466.651 L163.598 466.651 L163.598 462.715 Z" fill="#000000" fill-rule="nonzero" fill-opacity="1" /><path clip-path="url(#clip990)" d="M128.738 243.053 Q125.126 243.053 123.298 246.618 Q121.492 250.16 121.492 257.289 Q121.492 264.396 123.298 267.96 Q125.126 271.502 128.738 271.502 Q132.372 271.502 134.177 267.96 Q136.006 264.396 136.006 257.289 Q136.006 250.16 134.177 246.618 Q132.372 243.053 128.738 243.053 M128.738 239.349 Q134.548 239.349 137.603 243.956 Q140.682 248.539 140.682 257.289 Q140.682 266.016 137.603 270.622 Q134.548 275.206 128.738 275.206 Q122.927 275.206 119.849 270.622 Q116.793 266.016 116.793 257.289 Q116.793 248.539 119.849 243.956 Q122.927 239.349 128.738 239.349 Z" fill="#000000" fill-rule="nonzero" fill-opacity="1" /><path clip-path="url(#clip990)" d="M148.899 268.655 L153.784 268.655 L153.784 274.534 L148.899 274.534 L148.899 268.655 Z" fill="#000000" fill-rule="nonzero" fill-opacity="1" /><path clip-path="url(#clip990)" d="M173.969 258.122 Q170.635 258.122 168.714 259.905 Q166.816 261.687 166.816 264.812 Q166.816 267.937 168.714 269.72 Q170.635 271.502 173.969 271.502 Q177.302 271.502 179.223 269.72 Q181.145 267.914 181.145 264.812 Q181.145 261.687 179.223 259.905 Q177.325 258.122 173.969 258.122 M169.293 256.132 Q166.284 255.391 164.594 253.331 Q162.927 251.271 162.927 248.308 Q162.927 244.164 165.867 241.757 Q168.83 239.349 173.969 239.349 Q179.131 239.349 182.071 241.757 Q185.01 244.164 185.01 248.308 Q185.01 251.271 183.321 253.331 Q181.654 255.391 178.668 256.132 Q182.047 256.919 183.922 259.21 Q185.821 261.502 185.821 264.812 Q185.821 269.835 182.742 272.521 Q179.686 275.206 173.969 275.206 Q168.251 275.206 165.173 272.521 Q162.117 269.835 162.117 264.812 Q162.117 261.502 164.015 259.21 Q165.913 256.919 169.293 256.132 M167.58 248.748 Q167.58 251.433 169.247 252.937 Q170.936 254.442 173.969 254.442 Q176.978 254.442 178.668 252.937 Q180.381 251.433 180.381 248.748 Q180.381 246.062 178.668 244.558 Q176.978 243.053 173.969 243.053 Q170.936 243.053 169.247 244.558 Q167.58 246.062 167.58 248.748 Z" fill="#000000" fill-rule="nonzero" fill-opacity="1" /><path clip-path="url(#clip990)" d="M39.3585 977.647 Q40.0587 975.578 42.3504 973.637 Q44.642 971.663 48.6524 969.69 L61.6384 963.165 L61.6384 970.072 L49.4481 976.151 Q44.6738 978.506 43.1142 980.734 Q41.5546 982.931 41.5546 986.75 L41.5546 993.752 L61.6384 993.752 L61.6384 1000.18 L14.1184 1000.18 L14.1184 985.668 Q14.1184 977.52 17.5241 973.509 Q20.9297 969.499 27.8047 969.499 Q32.2925 969.499 35.2526 971.6 Q38.2126 973.668 39.3585 977.647 M19.402 993.752 L36.2711 993.752 L36.2711 985.668 Q36.2711 981.021 34.1386 978.666 Q31.9743 976.278 27.8047 976.278 Q23.6352 976.278 21.5345 978.666 Q19.402 981.021 19.402 985.668 L19.402 993.752 Z" fill="#000000" fill-rule="nonzero" fill-opacity="1" /><path clip-path="url(#clip990)" d="M12.1769 941.076 Q19.4975 945.341 26.6589 947.41 Q33.8203 949.479 41.1727 949.479 Q48.5251 949.479 55.7502 947.41 Q62.9434 945.309 70.2321 941.076 L70.2321 946.169 Q62.7524 950.943 55.5274 953.33 Q48.3023 955.685 41.1727 955.685 Q34.0749 955.685 26.8817 953.33 Q19.6884 950.975 12.1769 946.169 L12.1769 941.076 Z" fill="#000000" fill-rule="nonzero" fill-opacity="1" /><path clip-path="url(#clip990)" d="M50.5303 906.16 Q49.3845 907.147 46.7109 908.706 Q50.5303 910.839 52.2172 912.717 Q54.2542 915.072 54.2542 918.732 Q54.2542 923.029 51.0395 925.862 Q47.6657 928.854 42.0957 928.854 Q36.7485 928.854 33.1201 925.862 Q29.9054 923.188 29.9054 918.669 Q29.9054 916.345 30.8603 914.627 Q31.9106 912.621 33.7248 911.253 Q35.3481 909.98 37.5442 908.706 Q33.7248 906.574 32.0379 904.696 Q30.0009 902.341 30.0009 898.68 Q30.0009 894.384 33.2156 891.551 Q36.5894 888.559 42.1594 888.559 Q47.5066 888.559 51.135 891.551 Q54.3497 894.224 54.3497 898.744 Q54.3497 901.068 53.3949 902.786 Q52.5355 904.505 50.5303 906.16 M50.0847 919.083 Q50.0847 913.831 42.4458 910.68 Q34.1068 914.722 34.1068 919.083 Q34.1068 922.265 36.3984 923.889 Q38.8492 925.639 42.0957 925.639 Q45.6605 925.639 47.8567 923.889 Q50.0847 922.106 50.0847 919.083 M34.1704 898.33 Q34.1704 903.073 41.8093 906.733 Q50.1483 902.723 50.1483 898.33 Q50.1483 895.147 47.8567 893.524 Q45.4059 891.774 42.1594 891.774 Q38.5946 891.774 36.3984 893.524 Q34.1704 895.307 34.1704 898.33 Z" fill="#000000" fill-rule="nonzero" fill-opacity="1" /><path clip-path="url(#clip990)" d="M12.1769 876.337 L12.1769 871.244 Q19.6884 866.47 26.8817 864.115 Q34.0749 861.727 41.1727 861.727 Q48.3023 861.727 55.5274 864.115 Q62.7524 866.47 70.2321 871.244 L70.2321 876.337 Q62.9434 872.104 55.7502 870.035 Q48.5251 867.934 41.1727 867.934 Q33.8203 867.934 26.6589 870.035 Q19.4975 872.104 12.1769 876.337 Z" fill="#000000" fill-rule="nonzero" fill-opacity="1" /><path clip-path="url(#clip990)" d="M755.347 16.7545 L755.347 25.383 Q751.215 21.5346 746.516 19.6307 Q741.858 17.7268 736.591 17.7268 Q726.221 17.7268 720.712 24.0867 Q715.203 30.4061 715.203 42.3968 Q715.203 54.3469 720.712 60.7069 Q726.221 67.0263 736.591 67.0263 Q741.858 67.0263 746.516 65.1223 Q751.215 63.2184 755.347 59.3701 L755.347 67.9175 Q751.053 70.8341 746.233 72.2924 Q741.453 73.7508 736.105 73.7508 Q722.373 73.7508 714.473 65.3654 Q706.574 56.9395 706.574 42.3968 Q706.574 27.8135 714.473 19.4281 Q722.373 11.0023 736.105 11.0023 Q741.534 11.0023 746.314 12.4606 Q751.134 13.8784 755.347 16.7545 Z" fill="#000000" fill-rule="nonzero" fill-opacity="1" /><path clip-path="url(#clip990)" d="M767.662 9.54393 L775.116 9.54393 L775.116 72.576 L767.662 72.576 L767.662 9.54393 Z" fill="#000000" fill-rule="nonzero" fill-opacity="1" /><path clip-path="url(#clip990)" d="M808.292 32.4315 Q802.297 32.4315 798.813 37.1306 Q795.33 41.7891 795.33 49.9314 Q795.33 58.0738 798.773 62.7728 Q802.257 67.4314 808.292 67.4314 Q814.247 67.4314 817.731 62.7323 Q821.215 58.0333 821.215 49.9314 Q821.215 41.8701 817.731 37.1711 Q814.247 32.4315 808.292 32.4315 M808.292 26.1121 Q818.015 26.1121 823.564 32.4315 Q829.114 38.7509 829.114 49.9314 Q829.114 61.0714 823.564 67.4314 Q818.015 73.7508 808.292 73.7508 Q798.53 73.7508 792.98 67.4314 Q787.471 61.0714 787.471 49.9314 Q787.471 38.7509 792.98 32.4315 Q798.53 26.1121 808.292 26.1121 Z" fill="#000000" fill-rule="nonzero" fill-opacity="1" /><path clip-path="url(#clip990)" d="M870.393 28.5427 L870.393 35.5912 Q867.233 33.9709 863.83 33.1607 Q860.428 32.3505 856.782 32.3505 Q851.232 32.3505 848.437 34.0519 Q845.682 35.7533 845.682 39.156 Q845.682 41.7486 847.667 43.2475 Q849.652 44.7058 855.648 46.0426 L858.2 46.6097 Q866.139 48.3111 869.461 51.4303 Q872.823 54.509 872.823 60.0587 Q872.823 66.3781 867.8 70.0644 Q862.818 73.7508 854.068 73.7508 Q850.422 73.7508 846.452 73.0216 Q842.523 72.3329 838.148 70.9151 L838.148 63.2184 Q842.28 65.3654 846.29 66.4591 Q850.3 67.5124 854.23 67.5124 Q859.496 67.5124 862.331 65.73 Q865.167 63.9071 865.167 60.6258 Q865.167 57.5877 863.101 55.9673 Q861.076 54.3469 854.149 52.8481 L851.556 52.2405 Q844.629 50.7821 841.55 47.7845 Q838.472 44.7463 838.472 39.4801 Q838.472 33.0797 843.009 29.5959 Q847.546 26.1121 855.891 26.1121 Q860.022 26.1121 863.668 26.7198 Q867.314 27.3274 870.393 28.5427 Z" fill="#000000" fill-rule="nonzero" fill-opacity="1" /><path clip-path="url(#clip990)" d="M883.923 54.671 L883.923 27.2059 L891.376 27.2059 L891.376 54.3874 Q891.376 60.8284 893.888 64.0691 Q896.4 67.2693 901.423 67.2693 Q907.459 67.2693 910.942 63.421 Q914.467 59.5726 914.467 52.9291 L914.467 27.2059 L921.92 27.2059 L921.92 72.576 L914.467 72.576 L914.467 65.6084 Q911.753 69.7404 908.147 71.7658 Q904.582 73.7508 899.843 73.7508 Q892.025 73.7508 887.974 68.8897 Q883.923 64.0286 883.923 54.671 M902.679 26.1121 L902.679 26.1121 Z" fill="#000000" fill-rule="nonzero" fill-opacity="1" /><path clip-path="url(#clip990)" d="M963.564 34.1734 Q962.308 33.4443 960.809 33.1202 Q959.351 32.7556 957.568 32.7556 Q951.249 32.7556 947.846 36.8875 Q944.484 40.9789 944.484 48.6757 L944.484 72.576 L936.99 72.576 L936.99 27.2059 L944.484 27.2059 L944.484 34.2544 Q946.833 30.1225 950.601 28.1376 Q954.368 26.1121 959.756 26.1121 Q960.525 26.1121 961.457 26.2337 Q962.389 26.3147 963.523 26.5172 L963.564 34.1734 Z" fill="#000000" fill-rule="nonzero" fill-opacity="1" /><path clip-path="url(#clip990)" d="M1008.37 48.0275 L1008.37 51.6733 L974.096 51.6733 Q974.582 59.3701 978.714 63.421 Q982.886 67.4314 990.3 67.4314 Q994.594 67.4314 998.604 66.3781 Q1002.65 65.3249 1006.62 63.2184 L1006.62 70.267 Q1002.61 71.9684 998.401 72.8596 Q994.188 73.7508 989.854 73.7508 Q978.998 73.7508 972.638 67.4314 Q966.318 61.1119 966.318 50.3365 Q966.318 39.1965 972.314 32.6746 Q978.349 26.1121 988.558 26.1121 Q997.713 26.1121 1003.02 32.0264 Q1008.37 37.9003 1008.37 48.0275 M1000.91 45.84 Q1000.83 39.7232 997.47 36.0774 Q994.148 32.4315 988.639 32.4315 Q982.4 32.4315 978.633 35.9558 Q974.906 39.4801 974.339 45.8805 L1000.91 45.84 Z" fill="#000000" fill-rule="nonzero" fill-opacity="1" /><path clip-path="url(#clip990)" d="M1079.62 28.9478 L1079.62 35.9153 Q1076.46 34.1734 1073.26 33.3227 Q1070.1 32.4315 1066.86 32.4315 Q1059.61 32.4315 1055.6 37.0496 Q1051.59 41.6271 1051.59 49.9314 Q1051.59 58.2358 1055.6 62.8538 Q1059.61 67.4314 1066.86 67.4314 Q1070.1 67.4314 1073.26 66.5807 Q1076.46 65.6895 1079.62 63.9476 L1079.62 70.8341 Q1076.5 72.2924 1073.14 73.0216 Q1069.82 73.7508 1066.05 73.7508 Q1055.8 73.7508 1049.77 67.3098 Q1043.73 60.8689 1043.73 49.9314 Q1043.73 38.832 1049.81 32.472 Q1055.92 26.1121 1066.54 26.1121 Q1069.98 26.1121 1073.26 26.8413 Q1076.54 27.5299 1079.62 28.9478 Z" fill="#000000" fill-rule="nonzero" fill-opacity="1" /><path clip-path="url(#clip990)" d="M1130.3 45.1919 L1130.3 72.576 L1122.85 72.576 L1122.85 45.4349 Q1122.85 38.994 1120.33 35.7938 Q1117.82 32.5936 1112.8 32.5936 Q1106.76 32.5936 1103.28 36.4419 Q1099.8 40.2903 1099.8 46.9338 L1099.8 72.576 L1092.3 72.576 L1092.3 9.54393 L1099.8 9.54393 L1099.8 34.2544 Q1102.47 30.163 1106.07 28.1376 Q1109.72 26.1121 1114.46 26.1121 Q1122.28 26.1121 1126.29 30.9732 Q1130.3 35.7938 1130.3 45.1919 Z" fill="#000000" fill-rule="nonzero" fill-opacity="1" /><path clip-path="url(#clip990)" d="M1162.75 32.4315 Q1156.75 32.4315 1153.27 37.1306 Q1149.78 41.7891 1149.78 49.9314 Q1149.78 58.0738 1153.23 62.7728 Q1156.71 67.4314 1162.75 67.4314 Q1168.7 67.4314 1172.19 62.7323 Q1175.67 58.0333 1175.67 49.9314 Q1175.67 41.8701 1172.19 37.1711 Q1168.7 32.4315 1162.75 32.4315 M1162.75 26.1121 Q1172.47 26.1121 1178.02 32.4315 Q1183.57 38.7509 1183.57 49.9314 Q1183.57 61.0714 1178.02 67.4314 Q1172.47 73.7508 1162.75 73.7508 Q1152.98 73.7508 1147.43 67.4314 Q1141.92 61.0714 1141.92 49.9314 Q1141.92 38.7509 1147.43 32.4315 Q1152.98 26.1121 1162.75 26.1121 Z" fill="#000000" fill-rule="nonzero" fill-opacity="1" /><path clip-path="url(#clip990)" d="M1195.92 27.2059 L1203.38 27.2059 L1203.38 72.576 L1195.92 72.576 L1195.92 27.2059 M1195.92 9.54393 L1203.38 9.54393 L1203.38 18.9825 L1195.92 18.9825 L1195.92 9.54393 Z" fill="#000000" fill-rule="nonzero" fill-opacity="1" /><path clip-path="url(#clip990)" d="M1251.62 28.9478 L1251.62 35.9153 Q1248.46 34.1734 1245.26 33.3227 Q1242.1 32.4315 1238.86 32.4315 Q1231.61 32.4315 1227.6 37.0496 Q1223.59 41.6271 1223.59 49.9314 Q1223.59 58.2358 1227.6 62.8538 Q1231.61 67.4314 1238.86 67.4314 Q1242.1 67.4314 1245.26 66.5807 Q1248.46 65.6895 1251.62 63.9476 L1251.62 70.8341 Q1248.5 72.2924 1245.14 73.0216 Q1241.82 73.7508 1238.05 73.7508 Q1227.8 73.7508 1221.77 67.3098 Q1215.73 60.8689 1215.73 49.9314 Q1215.73 38.832 1221.81 32.472 Q1227.93 26.1121 1238.54 26.1121 Q1241.98 26.1121 1245.26 26.8413 Q1248.54 27.5299 1251.62 28.9478 Z" fill="#000000" fill-rule="nonzero" fill-opacity="1" /><path clip-path="url(#clip990)" d="M1303.39 48.0275 L1303.39 51.6733 L1269.12 51.6733 Q1269.61 59.3701 1273.74 63.421 Q1277.91 67.4314 1285.33 67.4314 Q1289.62 67.4314 1293.63 66.3781 Q1297.68 65.3249 1301.65 63.2184 L1301.65 70.267 Q1297.64 71.9684 1293.43 72.8596 Q1289.22 73.7508 1284.88 73.7508 Q1274.02 73.7508 1267.66 67.4314 Q1261.35 61.1119 1261.35 50.3365 Q1261.35 39.1965 1267.34 32.6746 Q1273.38 26.1121 1283.59 26.1121 Q1292.74 26.1121 1298.05 32.0264 Q1303.39 37.9003 1303.39 48.0275 M1295.94 45.84 Q1295.86 39.7232 1292.5 36.0774 Q1289.18 32.4315 1283.67 32.4315 Q1277.43 32.4315 1273.66 35.9558 Q1269.93 39.4801 1269.37 45.8805 L1295.94 45.84 Z" fill="#000000" fill-rule="nonzero" fill-opacity="1" /><path clip-path="url(#clip990)" d="M1377.32 35.9153 Q1380.12 30.8922 1384.01 28.5022 Q1387.9 26.1121 1393.16 26.1121 Q1400.25 26.1121 1404.1 31.0947 Q1407.95 36.0368 1407.95 45.1919 L1407.95 72.576 L1400.45 72.576 L1400.45 45.4349 Q1400.45 38.913 1398.14 35.7533 Q1395.84 32.5936 1391.1 32.5936 Q1385.3 32.5936 1381.94 36.4419 Q1378.58 40.2903 1378.58 46.9338 L1378.58 72.576 L1371.08 72.576 L1371.08 45.4349 Q1371.08 38.8725 1368.78 35.7533 Q1366.47 32.5936 1361.65 32.5936 Q1355.93 32.5936 1352.57 36.4824 Q1349.21 40.3308 1349.21 46.9338 L1349.21 72.576 L1341.72 72.576 L1341.72 27.2059 L1349.21 27.2059 L1349.21 34.2544 Q1351.76 30.082 1355.33 28.0971 Q1358.89 26.1121 1363.79 26.1121 Q1368.74 26.1121 1372.18 28.6237 Q1375.66 31.1352 1377.32 35.9153 Z" fill="#000000" fill-rule="nonzero" fill-opacity="1" /><path clip-path="url(#clip990)" d="M1443.43 49.7694 Q1434.4 49.7694 1430.92 51.8354 Q1427.43 53.9013 1427.43 58.8839 Q1427.43 62.8538 1430.03 65.2034 Q1432.66 67.5124 1437.15 67.5124 Q1443.35 67.5124 1447.08 63.1374 Q1450.85 58.7219 1450.85 51.4303 L1450.85 49.7694 L1443.43 49.7694 M1458.3 46.6907 L1458.3 72.576 L1450.85 72.576 L1450.85 65.6895 Q1448.29 69.8214 1444.49 71.8063 Q1440.68 73.7508 1435.17 73.7508 Q1428.2 73.7508 1424.07 69.8619 Q1419.98 65.9325 1419.98 59.3701 Q1419.98 51.7138 1425.08 47.825 Q1430.23 43.9361 1440.4 43.9361 L1450.85 43.9361 L1450.85 43.2069 Q1450.85 38.0623 1447.44 35.2672 Q1444.08 32.4315 1437.96 32.4315 Q1434.08 32.4315 1430.39 33.3632 Q1426.7 34.295 1423.3 36.1584 L1423.3 29.2718 Q1427.39 27.692 1431.24 26.9223 Q1435.09 26.1121 1438.73 26.1121 Q1448.58 26.1121 1453.44 31.2163 Q1458.3 36.3204 1458.3 46.6907 Z" fill="#000000" fill-rule="nonzero" fill-opacity="1" /><path clip-path="url(#clip990)" d="M1481.03 14.324 L1481.03 27.2059 L1496.38 27.2059 L1496.38 32.9987 L1481.03 32.9987 L1481.03 57.6282 Q1481.03 63.1779 1482.52 64.7578 Q1484.06 66.3376 1488.72 66.3376 L1496.38 66.3376 L1496.38 72.576 L1488.72 72.576 Q1480.09 72.576 1476.81 69.3758 Q1473.53 66.1351 1473.53 57.6282 L1473.53 32.9987 L1468.06 32.9987 L1468.06 27.2059 L1473.53 27.2059 L1473.53 14.324 L1481.03 14.324 Z" fill="#000000" fill-rule="nonzero" fill-opacity="1" /><path clip-path="url(#clip990)" d="M1513.55 14.324 L1513.55 27.2059 L1528.91 27.2059 L1528.91 32.9987 L1513.55 32.9987 L1513.55 57.6282 Q1513.55 63.1779 1515.05 64.7578 Q1516.59 66.3376 1521.25 66.3376 L1528.91 66.3376 L1528.91 72.576 L1521.25 72.576 Q1512.62 72.576 1509.34 69.3758 Q1506.06 66.1351 1506.06 57.6282 L1506.06 32.9987 L1500.59 32.9987 L1500.59 27.2059 L1506.06 27.2059 L1506.06 14.324 L1513.55 14.324 Z" fill="#000000" fill-rule="nonzero" fill-opacity="1" /><path clip-path="url(#clip990)" d="M1577.52 48.0275 L1577.52 51.6733 L1543.25 51.6733 Q1543.73 59.3701 1547.87 63.421 Q1552.04 67.4314 1559.45 67.4314 Q1563.75 67.4314 1567.76 66.3781 Q1571.81 65.3249 1575.78 63.2184 L1575.78 70.267 Q1571.77 71.9684 1567.55 72.8596 Q1563.34 73.7508 1559.01 73.7508 Q1548.15 73.7508 1541.79 67.4314 Q1535.47 61.1119 1535.47 50.3365 Q1535.47 39.1965 1541.47 32.6746 Q1547.5 26.1121 1557.71 26.1121 Q1566.86 26.1121 1572.17 32.0264 Q1577.52 37.9003 1577.52 48.0275 M1570.06 45.84 Q1569.98 39.7232 1566.62 36.0774 Q1563.3 32.4315 1557.79 32.4315 Q1551.55 32.4315 1547.79 35.9558 Q1544.06 39.4801 1543.49 45.8805 L1570.06 45.84 Z" fill="#000000" fill-rule="nonzero" fill-opacity="1" /><path clip-path="url(#clip990)" d="M1616.04 34.1734 Q1614.79 33.4443 1613.29 33.1202 Q1611.83 32.7556 1610.05 32.7556 Q1603.73 32.7556 1600.33 36.8875 Q1596.96 40.9789 1596.96 48.6757 L1596.96 72.576 L1589.47 72.576 L1589.47 27.2059 L1596.96 27.2059 L1596.96 34.2544 Q1599.31 30.1225 1603.08 28.1376 Q1606.85 26.1121 1612.23 26.1121 Q1613 26.1121 1613.94 26.2337 Q1614.87 26.3147 1616 26.5172 L1616.04 34.1734 Z" fill="#000000" fill-rule="nonzero" fill-opacity="1" /><path clip-path="url(#clip990)" d="M1652.78 28.5427 L1652.78 35.5912 Q1649.62 33.9709 1646.22 33.1607 Q1642.82 32.3505 1639.17 32.3505 Q1633.62 32.3505 1630.83 34.0519 Q1628.07 35.7533 1628.07 39.156 Q1628.07 41.7486 1630.06 43.2475 Q1632.04 44.7058 1638.04 46.0426 L1640.59 46.6097 Q1648.53 48.3111 1651.85 51.4303 Q1655.21 54.509 1655.21 60.0587 Q1655.21 66.3781 1650.19 70.0644 Q1645.21 73.7508 1636.46 73.7508 Q1632.81 73.7508 1628.84 73.0216 Q1624.91 72.3329 1620.54 70.9151 L1620.54 63.2184 Q1624.67 65.3654 1628.68 66.4591 Q1632.69 67.5124 1636.62 67.5124 Q1641.89 67.5124 1644.72 65.73 Q1647.56 63.9071 1647.56 60.6258 Q1647.56 57.5877 1645.49 55.9673 Q1643.47 54.3469 1636.54 52.8481 L1633.95 52.2405 Q1627.02 50.7821 1623.94 47.7845 Q1620.86 44.7463 1620.86 39.4801 Q1620.86 33.0797 1625.4 29.5959 Q1629.94 26.1121 1638.28 26.1121 Q1642.41 26.1121 1646.06 26.7198 Q1649.71 27.3274 1652.78 28.5427 Z" fill="#000000" fill-rule="nonzero" fill-opacity="1" /><path clip-path="url(#clip990)" d="M1689.12 27.2059 L1696.57 27.2059 L1705.89 62.6108 L1715.17 27.2059 L1723.96 27.2059 L1733.28 62.6108 L1742.55 27.2059 L1750.01 27.2059 L1738.14 72.576 L1729.35 72.576 L1719.58 35.3887 L1709.78 72.576 L1700.99 72.576 L1689.12 27.2059 Z" fill="#000000" fill-rule="nonzero" fill-opacity="1" /><path clip-path="url(#clip990)" d="M1799.02 45.1919 L1799.02 72.576 L1791.57 72.576 L1791.57 45.4349 Q1791.57 38.994 1789.06 35.7938 Q1786.55 32.5936 1781.52 32.5936 Q1775.49 32.5936 1772 36.4419 Q1768.52 40.2903 1768.52 46.9338 L1768.52 72.576 L1761.02 72.576 L1761.02 9.54393 L1768.52 9.54393 L1768.52 34.2544 Q1771.19 30.163 1774.8 28.1376 Q1778.44 26.1121 1783.18 26.1121 Q1791 26.1121 1795.01 30.9732 Q1799.02 35.7938 1799.02 45.1919 Z" fill="#000000" fill-rule="nonzero" fill-opacity="1" /><path clip-path="url(#clip990)" d="M1852.7 48.0275 L1852.7 51.6733 L1818.43 51.6733 Q1818.91 59.3701 1823.04 63.421 Q1827.22 67.4314 1834.63 67.4314 Q1838.92 67.4314 1842.93 66.3781 Q1846.98 65.3249 1850.95 63.2184 L1850.95 70.267 Q1846.94 71.9684 1842.73 72.8596 Q1838.52 73.7508 1834.18 73.7508 Q1823.33 73.7508 1816.97 67.4314 Q1810.65 61.1119 1810.65 50.3365 Q1810.65 39.1965 1816.64 32.6746 Q1822.68 26.1121 1832.89 26.1121 Q1842.04 26.1121 1847.35 32.0264 Q1852.7 37.9003 1852.7 48.0275 M1845.24 45.84 Q1845.16 39.7232 1841.8 36.0774 Q1838.48 32.4315 1832.97 32.4315 Q1826.73 32.4315 1822.96 35.9558 Q1819.24 39.4801 1818.67 45.8805 L1845.24 45.84 Z" fill="#000000" fill-rule="nonzero" fill-opacity="1" /><path clip-path="url(#clip990)" d="M1902.64 45.1919 L1902.64 72.576 L1895.19 72.576 L1895.19 45.4349 Q1895.19 38.994 1892.68 35.7938 Q1890.17 32.5936 1885.14 32.5936 Q1879.11 32.5936 1875.62 36.4419 Q1872.14 40.2903 1872.14 46.9338 L1872.14 72.576 L1864.65 72.576 L1864.65 27.2059 L1872.14 27.2059 L1872.14 34.2544 Q1874.81 30.163 1878.42 28.1376 Q1882.07 26.1121 1886.81 26.1121 Q1894.62 26.1121 1898.63 30.9732 Q1902.64 35.7938 1902.64 45.1919 Z" fill="#000000" fill-rule="nonzero" fill-opacity="1" /><path clip-path="url(#clip990)" d="M1967.01 9.54393 L1967.01 26.2742 Q1975.07 26.2742 1980.46 32.472 Q1986.01 38.7915 1986.01 49.9314 Q1986.01 61.0714 1980.46 67.3908 Q1975.07 73.5887 1967.01 73.5887 L1967.01 89.8329 L1959.6 89.8329 L1959.6 73.5887 Q1951.54 73.5887 1946.11 67.3908 Q1940.6 61.0714 1940.6 49.9314 Q1940.6 38.7915 1946.11 32.472 Q1951.54 26.2742 1959.6 26.2742 L1959.6 9.54393 L1967.01 9.54393 M1967.01 66.9452 Q1971.59 66.9452 1974.71 62.7728 Q1978.11 58.1143 1978.15 49.9314 Q1978.19 41.8296 1974.71 37.0901 Q1971.59 32.9176 1967.01 32.9176 L1967.01 66.9452 M1959.6 66.9452 L1959.6 32.9176 Q1955.02 32.9176 1951.94 37.0901 Q1948.42 41.8296 1948.46 49.9314 Q1948.5 58.1143 1951.94 62.7728 Q1955.02 66.9452 1959.6 66.9452 Z" fill="#000000" fill-rule="nonzero" fill-opacity="1" /><path clip-path="url(#clip990)" d="M2025.95 31.7429 L2025.95 24.3702 L2077.89 43.2069 L2077.89 49.9314 L2025.95 68.7682 L2025.95 61.3955 L2067.68 46.6097 L2025.95 31.7429 Z" fill="#000000" fill-rule="nonzero" fill-opacity="1" /><path clip-path="url(#clip990)" d="M2139.42 17.4837 Q2133.1 17.4837 2129.9 23.7221 Q2126.74 29.92 2126.74 42.3968 Q2126.74 54.833 2129.9 61.0714 Q2133.1 67.2693 2139.42 67.2693 Q2145.78 67.2693 2148.94 61.0714 Q2152.14 54.833 2152.14 42.3968 Q2152.14 29.92 2148.94 23.7221 Q2145.78 17.4837 2139.42 17.4837 M2139.42 11.0023 Q2149.59 11.0023 2154.93 19.0636 Q2160.32 27.0843 2160.32 42.3968 Q2160.32 57.6687 2154.93 65.73 Q2149.59 73.7508 2139.42 73.7508 Q2129.25 73.7508 2123.86 65.73 Q2118.52 57.6687 2118.52 42.3968 Q2118.52 27.0843 2123.86 19.0636 Q2129.25 11.0023 2139.42 11.0023 Z" fill="#000000" fill-rule="nonzero" fill-opacity="1" /><polyline clip-path="url(#clip991)" style="stroke:#009af9; stroke-linecap:round; stroke-linejoin:round; stroke-width:8; stroke-opacity:1; fill:none" stroke-dasharray="32, 20" points="294.479,173.254 484.307,173.254 674.135,173.254 863.963,173.254 1053.79,173.254 1243.62,173.254 1433.45,173.254 1623.28,173.254 1813.1,173.254 2002.93,173.254 2192.76,173.254 2382.59,173.254 2572.42,173.254 "/>
<polyline clip-path="url(#clip991)" style="stroke:#e26f46; stroke-linecap:round; stroke-linejoin:round; stroke-width:8; stroke-opacity:1; fill:none" points="294.479,173.254 484.307,181.155 674.135,189.503 863.963,198.331 1053.79,207.701 1243.62,217.738 1433.45,228.715 1623.28,241.213 1813.1,256.474 2002.93,277.074 2192.76,308.256 2382.59,361.282 2572.42,470.19 "/>
<polyline clip-path="url(#clip991)" style="stroke:#3da44d; stroke-linecap:round; stroke-linejoin:round; stroke-width:8; stroke-opacity:1; fill:none" points="294.479,173.254 484.307,183.502 674.135,195.361 863.963,209.572 1053.79,227.45 1243.62,251.483 1433.45,286.694 1623.28,344.191 1813.1,451.622 2002.93,683.914 2192.76,1137.6 2382.59,1515.6 2572.42,1688.65 "/>
<path clip-path="url(#clip990)" d="M306.628 1680.57 L1224.61 1680.57 L1224.61 1473.21 L306.628 1473.21  Z" fill="#ffffff" fill-rule="evenodd" fill-opacity="1"/>
<polyline clip-path="url(#clip990)" style="stroke:#000000; stroke-linecap:round; stroke-linejoin:round; stroke-width:4; stroke-opacity:1; fill:none" points="306.628,1680.57 1224.61,1680.57 1224.61,1473.21 306.628,1473.21 306.628,1680.57 "/>
<polyline clip-path="url(#clip990)" style="stroke:#009af9; stroke-linecap:round; stroke-linejoin:round; stroke-width:8; stroke-opacity:1; fill:none" stroke-dasharray="32, 20" points="333.457,1525.05 494.431,1525.05 "/>
<path clip-path="url(#clip990)" d="M525.936 1525.83 L525.936 1538.49 L533.436 1538.49 Q537.209 1538.49 539.015 1536.94 Q540.843 1535.37 540.843 1532.15 Q540.843 1528.91 539.015 1527.38 Q537.209 1525.83 533.436 1525.83 L525.936 1525.83 M525.936 1511.62 L525.936 1522.03 L532.857 1522.03 Q536.283 1522.03 537.95 1520.76 Q539.64 1519.46 539.64 1516.82 Q539.64 1514.21 537.95 1512.91 Q536.283 1511.62 532.857 1511.62 L525.936 1511.62 M521.26 1507.77 L533.205 1507.77 Q538.552 1507.77 541.445 1510 Q544.339 1512.22 544.339 1516.31 Q544.339 1519.49 542.857 1521.36 Q541.376 1523.24 538.505 1523.7 Q541.955 1524.44 543.853 1526.8 Q545.774 1529.14 545.774 1532.66 Q545.774 1537.29 542.626 1539.81 Q539.478 1542.33 533.668 1542.33 L521.26 1542.33 L521.26 1507.77 Z" fill="#000000" fill-rule="nonzero" fill-opacity="1" /><path clip-path="url(#clip990)" d="M575.774 1528.31 L575.774 1530.39 L556.191 1530.39 Q556.468 1534.79 558.829 1537.1 Q561.214 1539.39 565.45 1539.39 Q567.903 1539.39 570.195 1538.79 Q572.51 1538.19 574.778 1536.99 L574.778 1541.01 Q572.487 1541.99 570.079 1542.49 Q567.672 1543 565.195 1543 Q558.991 1543 555.357 1539.39 Q551.746 1535.78 551.746 1529.62 Q551.746 1523.26 555.172 1519.53 Q558.621 1515.78 564.454 1515.78 Q569.686 1515.78 572.718 1519.16 Q575.774 1522.52 575.774 1528.31 M571.515 1527.06 Q571.468 1523.56 569.547 1521.48 Q567.649 1519.39 564.501 1519.39 Q560.936 1519.39 558.783 1521.41 Q556.654 1523.42 556.329 1527.08 L571.515 1527.06 Z" fill="#000000" fill-rule="nonzero" fill-opacity="1" /><path clip-path="url(#clip990)" d="M597.788 1520.39 Q597.07 1519.97 596.214 1519.79 Q595.38 1519.58 594.362 1519.58 Q590.751 1519.58 588.806 1521.94 Q586.885 1524.28 586.885 1528.68 L586.885 1542.33 L582.602 1542.33 L582.602 1516.41 L586.885 1516.41 L586.885 1520.43 Q588.227 1518.07 590.38 1516.94 Q592.533 1515.78 595.612 1515.78 Q596.051 1515.78 596.584 1515.85 Q597.116 1515.9 597.764 1516.01 L597.788 1520.39 Z" fill="#000000" fill-rule="nonzero" fill-opacity="1" /><path clip-path="url(#clip990)" d="M622.973 1526.68 L622.973 1542.33 L618.713 1542.33 L618.713 1526.82 Q618.713 1523.14 617.278 1521.31 Q615.843 1519.49 612.973 1519.49 Q609.524 1519.49 607.533 1521.68 Q605.542 1523.88 605.542 1527.68 L605.542 1542.33 L601.26 1542.33 L601.26 1516.41 L605.542 1516.41 L605.542 1520.43 Q607.07 1518.1 609.13 1516.94 Q611.213 1515.78 613.922 1515.78 Q618.389 1515.78 620.681 1518.56 Q622.973 1521.31 622.973 1526.68 Z" fill="#000000" fill-rule="nonzero" fill-opacity="1" /><path clip-path="url(#clip990)" d="M641.514 1519.39 Q638.088 1519.39 636.098 1522.08 Q634.107 1524.74 634.107 1529.39 Q634.107 1534.05 636.074 1536.73 Q638.065 1539.39 641.514 1539.39 Q644.917 1539.39 646.908 1536.71 Q648.898 1534.02 648.898 1529.39 Q648.898 1524.79 646.908 1522.1 Q644.917 1519.39 641.514 1519.39 M641.514 1515.78 Q647.07 1515.78 650.241 1519.39 Q653.412 1523 653.412 1529.39 Q653.412 1535.76 650.241 1539.39 Q647.07 1543 641.514 1543 Q635.936 1543 632.764 1539.39 Q629.616 1535.76 629.616 1529.39 Q629.616 1523 632.764 1519.39 Q635.936 1515.78 641.514 1515.78 Z" fill="#000000" fill-rule="nonzero" fill-opacity="1" /><path clip-path="url(#clip990)" d="M660.033 1532.1 L660.033 1516.41 L664.292 1516.41 L664.292 1531.94 Q664.292 1535.62 665.727 1537.47 Q667.162 1539.3 670.033 1539.3 Q673.482 1539.3 675.472 1537.1 Q677.486 1534.9 677.486 1531.11 L677.486 1516.41 L681.745 1516.41 L681.745 1542.33 L677.486 1542.33 L677.486 1538.35 Q675.935 1540.71 673.875 1541.87 Q671.838 1543 669.13 1543 Q664.662 1543 662.347 1540.23 Q660.033 1537.45 660.033 1532.1 M670.75 1515.78 L670.75 1515.78 Z" fill="#000000" fill-rule="nonzero" fill-opacity="1" /><path clip-path="url(#clip990)" d="M690.519 1506.31 L694.778 1506.31 L694.778 1542.33 L690.519 1542.33 L690.519 1506.31 Z" fill="#000000" fill-rule="nonzero" fill-opacity="1" /><path clip-path="url(#clip990)" d="M703.69 1506.31 L707.949 1506.31 L707.949 1542.33 L703.69 1542.33 L703.69 1506.31 Z" fill="#000000" fill-rule="nonzero" fill-opacity="1" /><path clip-path="url(#clip990)" d="M716.861 1516.41 L721.12 1516.41 L721.12 1542.33 L716.861 1542.33 L716.861 1516.41 M716.861 1506.31 L721.12 1506.31 L721.12 1511.71 L716.861 1511.71 L716.861 1506.31 Z" fill="#000000" fill-rule="nonzero" fill-opacity="1" /><path clip-path="url(#clip990)" d="M755.333 1506.36 Q752.231 1511.68 750.727 1516.89 Q749.222 1522.1 749.222 1527.45 Q749.222 1532.8 750.727 1538.05 Q752.254 1543.28 755.333 1548.58 L751.629 1548.58 Q748.157 1543.14 746.421 1537.89 Q744.708 1532.63 744.708 1527.45 Q744.708 1522.29 746.421 1517.06 Q748.134 1511.82 751.629 1506.36 L755.333 1506.36 Z" fill="#000000" fill-rule="nonzero" fill-opacity="1" /><path clip-path="url(#clip990)" d="M763.597 1516.41 L767.856 1516.41 L767.856 1542.33 L763.597 1542.33 L763.597 1516.41 M763.597 1506.31 L767.856 1506.31 L767.856 1511.71 L763.597 1511.71 L763.597 1506.31 Z" fill="#000000" fill-rule="nonzero" fill-opacity="1" /><path clip-path="url(#clip990)" d="M793.828 1529.07 Q793.828 1524.44 791.907 1521.89 Q790.009 1519.35 786.56 1519.35 Q783.134 1519.35 781.213 1521.89 Q779.314 1524.44 779.314 1529.07 Q779.314 1533.68 781.213 1536.22 Q783.134 1538.77 786.56 1538.77 Q790.009 1538.77 791.907 1536.22 Q793.828 1533.68 793.828 1529.07 M798.087 1539.12 Q798.087 1545.74 795.148 1548.95 Q792.208 1552.19 786.143 1552.19 Q783.898 1552.19 781.907 1551.85 Q779.916 1551.52 778.041 1550.83 L778.041 1546.68 Q779.916 1547.7 781.745 1548.19 Q783.574 1548.68 785.472 1548.68 Q789.662 1548.68 791.745 1546.48 Q793.828 1544.3 793.828 1539.88 L793.828 1537.77 Q792.509 1540.06 790.449 1541.2 Q788.388 1542.33 785.518 1542.33 Q780.75 1542.33 777.833 1538.7 Q774.916 1535.06 774.916 1529.07 Q774.916 1523.05 777.833 1519.42 Q780.75 1515.78 785.518 1515.78 Q788.388 1515.78 790.449 1516.92 Q792.509 1518.05 793.828 1520.34 L793.828 1516.41 L798.087 1516.41 L798.087 1539.12 Z" fill="#000000" fill-rule="nonzero" fill-opacity="1" /><path clip-path="url(#clip990)" d="M828.411 1526.68 L828.411 1542.33 L824.152 1542.33 L824.152 1526.82 Q824.152 1523.14 822.717 1521.31 Q821.282 1519.49 818.411 1519.49 Q814.962 1519.49 812.972 1521.68 Q810.981 1523.88 810.981 1527.68 L810.981 1542.33 L806.698 1542.33 L806.698 1516.41 L810.981 1516.41 L810.981 1520.43 Q812.509 1518.1 814.569 1516.94 Q816.652 1515.78 819.36 1515.78 Q823.828 1515.78 826.12 1518.56 Q828.411 1521.31 828.411 1526.68 Z" fill="#000000" fill-rule="nonzero" fill-opacity="1" /><path clip-path="url(#clip990)" d="M846.953 1519.39 Q843.527 1519.39 841.536 1522.08 Q839.546 1524.74 839.546 1529.39 Q839.546 1534.05 841.513 1536.73 Q843.504 1539.39 846.953 1539.39 Q850.356 1539.39 852.346 1536.71 Q854.337 1534.02 854.337 1529.39 Q854.337 1524.79 852.346 1522.1 Q850.356 1519.39 846.953 1519.39 M846.953 1515.78 Q852.508 1515.78 855.68 1519.39 Q858.851 1523 858.851 1529.39 Q858.851 1535.76 855.68 1539.39 Q852.508 1543 846.953 1543 Q841.374 1543 838.203 1539.39 Q835.055 1535.76 835.055 1529.39 Q835.055 1523 838.203 1519.39 Q841.374 1515.78 846.953 1515.78 Z" fill="#000000" fill-rule="nonzero" fill-opacity="1" /><path clip-path="url(#clip990)" d="M880.934 1520.39 Q880.217 1519.97 879.36 1519.79 Q878.527 1519.58 877.508 1519.58 Q873.897 1519.58 871.953 1521.94 Q870.031 1524.28 870.031 1528.68 L870.031 1542.33 L865.749 1542.33 L865.749 1516.41 L870.031 1516.41 L870.031 1520.43 Q871.374 1518.07 873.527 1516.94 Q875.68 1515.78 878.758 1515.78 Q879.198 1515.78 879.731 1515.85 Q880.263 1515.9 880.911 1516.01 L880.934 1520.39 Z" fill="#000000" fill-rule="nonzero" fill-opacity="1" /><path clip-path="url(#clip990)" d="M906.536 1528.31 L906.536 1530.39 L886.953 1530.39 Q887.23 1534.79 889.592 1537.1 Q891.976 1539.39 896.212 1539.39 Q898.666 1539.39 900.957 1538.79 Q903.272 1538.19 905.541 1536.99 L905.541 1541.01 Q903.249 1541.99 900.842 1542.49 Q898.434 1543 895.957 1543 Q889.754 1543 886.119 1539.39 Q882.508 1535.78 882.508 1529.62 Q882.508 1523.26 885.934 1519.53 Q889.383 1515.78 895.217 1515.78 Q900.448 1515.78 903.48 1519.16 Q906.536 1522.52 906.536 1528.31 M902.277 1527.06 Q902.23 1523.56 900.309 1521.48 Q898.411 1519.39 895.263 1519.39 Q891.698 1519.39 889.545 1521.41 Q887.416 1523.42 887.092 1527.08 L902.277 1527.06 Z" fill="#000000" fill-rule="nonzero" fill-opacity="1" /><path clip-path="url(#clip990)" d="M930.054 1517.17 L930.054 1521.2 Q928.249 1520.27 926.304 1519.81 Q924.36 1519.35 922.277 1519.35 Q919.105 1519.35 917.508 1520.32 Q915.934 1521.29 915.934 1523.24 Q915.934 1524.72 917.068 1525.57 Q918.203 1526.41 921.628 1527.17 L923.087 1527.49 Q927.624 1528.47 929.522 1530.25 Q931.443 1532.01 931.443 1535.18 Q931.443 1538.79 928.573 1540.9 Q925.726 1543 920.726 1543 Q918.642 1543 916.374 1542.59 Q914.128 1542.19 911.628 1541.38 L911.628 1536.99 Q913.99 1538.21 916.281 1538.84 Q918.573 1539.44 920.818 1539.44 Q923.827 1539.44 925.448 1538.42 Q927.068 1537.38 927.068 1535.5 Q927.068 1533.77 925.888 1532.84 Q924.73 1531.92 920.772 1531.06 L919.29 1530.71 Q915.332 1529.88 913.573 1528.17 Q911.814 1526.43 911.814 1523.42 Q911.814 1519.76 914.406 1517.77 Q916.999 1515.78 921.767 1515.78 Q924.128 1515.78 926.212 1516.13 Q928.295 1516.48 930.054 1517.17 Z" fill="#000000" fill-rule="nonzero" fill-opacity="1" /><path clip-path="url(#clip990)" d="M971.952 1517.4 L971.952 1521.38 Q970.147 1520.39 968.318 1519.9 Q966.512 1519.39 964.661 1519.39 Q960.517 1519.39 958.225 1522.03 Q955.934 1524.65 955.934 1529.39 Q955.934 1534.14 958.225 1536.78 Q960.517 1539.39 964.661 1539.39 Q966.512 1539.39 968.318 1538.91 Q970.147 1538.4 971.952 1537.4 L971.952 1541.34 Q970.17 1542.17 968.249 1542.59 Q966.35 1543 964.198 1543 Q958.341 1543 954.892 1539.32 Q951.443 1535.64 951.443 1529.39 Q951.443 1523.05 954.915 1519.42 Q958.411 1515.78 964.475 1515.78 Q966.443 1515.78 968.318 1516.2 Q970.193 1516.59 971.952 1517.4 Z" fill="#000000" fill-rule="nonzero" fill-opacity="1" /><path clip-path="url(#clip990)" d="M979.36 1506.31 L983.619 1506.31 L983.619 1542.33 L979.36 1542.33 L979.36 1506.31 Z" fill="#000000" fill-rule="nonzero" fill-opacity="1" /><path clip-path="url(#clip990)" d="M992.091 1532.1 L992.091 1516.41 L996.35 1516.41 L996.35 1531.94 Q996.35 1535.62 997.785 1537.47 Q999.221 1539.3 1002.09 1539.3 Q1005.54 1539.3 1007.53 1537.1 Q1009.54 1534.9 1009.54 1531.11 L1009.54 1516.41 L1013.8 1516.41 L1013.8 1542.33 L1009.54 1542.33 L1009.54 1538.35 Q1007.99 1540.71 1005.93 1541.87 Q1003.9 1543 1001.19 1543 Q996.721 1543 994.406 1540.23 Q992.091 1537.45 992.091 1532.1 M1002.81 1515.78 L1002.81 1515.78 Z" fill="#000000" fill-rule="nonzero" fill-opacity="1" /><path clip-path="url(#clip990)" d="M1039.1 1517.17 L1039.1 1521.2 Q1037.3 1520.27 1035.35 1519.81 Q1033.41 1519.35 1031.33 1519.35 Q1028.16 1519.35 1026.56 1520.32 Q1024.98 1521.29 1024.98 1523.24 Q1024.98 1524.72 1026.12 1525.57 Q1027.25 1526.41 1030.68 1527.17 L1032.14 1527.49 Q1036.67 1528.47 1038.57 1530.25 Q1040.49 1532.01 1040.49 1535.18 Q1040.49 1538.79 1037.62 1540.9 Q1034.78 1543 1029.78 1543 Q1027.69 1543 1025.42 1542.59 Q1023.18 1542.19 1020.68 1541.38 L1020.68 1536.99 Q1023.04 1538.21 1025.33 1538.84 Q1027.62 1539.44 1029.87 1539.44 Q1032.88 1539.44 1034.5 1538.42 Q1036.12 1537.38 1036.12 1535.5 Q1036.12 1533.77 1034.94 1532.84 Q1033.78 1531.92 1029.82 1531.06 L1028.34 1530.71 Q1024.38 1529.88 1022.62 1528.17 Q1020.86 1526.43 1020.86 1523.42 Q1020.86 1519.76 1023.46 1517.77 Q1026.05 1515.78 1030.82 1515.78 Q1033.18 1515.78 1035.26 1516.13 Q1037.35 1516.48 1039.1 1517.17 Z" fill="#000000" fill-rule="nonzero" fill-opacity="1" /><path clip-path="url(#clip990)" d="M1051.49 1509.05 L1051.49 1516.41 L1060.26 1516.41 L1060.26 1519.72 L1051.49 1519.72 L1051.49 1533.79 Q1051.49 1536.96 1052.35 1537.87 Q1053.22 1538.77 1055.89 1538.77 L1060.26 1538.77 L1060.26 1542.33 L1055.89 1542.33 Q1050.96 1542.33 1049.08 1540.5 Q1047.21 1538.65 1047.21 1533.79 L1047.21 1519.72 L1044.08 1519.72 L1044.08 1516.41 L1047.21 1516.41 L1047.21 1509.05 L1051.49 1509.05 Z" fill="#000000" fill-rule="nonzero" fill-opacity="1" /><path clip-path="url(#clip990)" d="M1088.04 1528.31 L1088.04 1530.39 L1068.46 1530.39 Q1068.73 1534.79 1071.1 1537.1 Q1073.48 1539.39 1077.72 1539.39 Q1080.17 1539.39 1082.46 1538.79 Q1084.78 1538.19 1087.04 1536.99 L1087.04 1541.01 Q1084.75 1541.99 1082.35 1542.49 Q1079.94 1543 1077.46 1543 Q1071.26 1543 1067.62 1539.39 Q1064.01 1535.78 1064.01 1529.62 Q1064.01 1523.26 1067.44 1519.53 Q1070.89 1515.78 1076.72 1515.78 Q1081.95 1515.78 1084.98 1519.16 Q1088.04 1522.52 1088.04 1528.31 M1083.78 1527.06 Q1083.73 1523.56 1081.81 1521.48 Q1079.91 1519.39 1076.77 1519.39 Q1073.2 1519.39 1071.05 1521.41 Q1068.92 1523.42 1068.6 1527.08 L1083.78 1527.06 Z" fill="#000000" fill-rule="nonzero" fill-opacity="1" /><path clip-path="url(#clip990)" d="M1110.05 1520.39 Q1109.34 1519.97 1108.48 1519.79 Q1107.65 1519.58 1106.63 1519.58 Q1103.02 1519.58 1101.07 1521.94 Q1099.15 1524.28 1099.15 1528.68 L1099.15 1542.33 L1094.87 1542.33 L1094.87 1516.41 L1099.15 1516.41 L1099.15 1520.43 Q1100.49 1518.07 1102.65 1516.94 Q1104.8 1515.78 1107.88 1515.78 Q1108.32 1515.78 1108.85 1515.85 Q1109.38 1515.9 1110.03 1516.01 L1110.05 1520.39 Z" fill="#000000" fill-rule="nonzero" fill-opacity="1" /><path clip-path="url(#clip990)" d="M1114.52 1516.41 L1118.78 1516.41 L1118.78 1542.33 L1114.52 1542.33 L1114.52 1516.41 M1114.52 1506.31 L1118.78 1506.31 L1118.78 1511.71 L1114.52 1511.71 L1114.52 1506.31 Z" fill="#000000" fill-rule="nonzero" fill-opacity="1" /><path clip-path="url(#clip990)" d="M1149.24 1526.68 L1149.24 1542.33 L1144.98 1542.33 L1144.98 1526.82 Q1144.98 1523.14 1143.55 1521.31 Q1142.11 1519.49 1139.24 1519.49 Q1135.79 1519.49 1133.8 1521.68 Q1131.81 1523.88 1131.81 1527.68 L1131.81 1542.33 L1127.53 1542.33 L1127.53 1516.41 L1131.81 1516.41 L1131.81 1520.43 Q1133.34 1518.1 1135.4 1516.94 Q1137.48 1515.78 1140.19 1515.78 Q1144.66 1515.78 1146.95 1518.56 Q1149.24 1521.31 1149.24 1526.68 Z" fill="#000000" fill-rule="nonzero" fill-opacity="1" /><path clip-path="url(#clip990)" d="M1174.8 1529.07 Q1174.8 1524.44 1172.88 1521.89 Q1170.98 1519.35 1167.53 1519.35 Q1164.1 1519.35 1162.18 1521.89 Q1160.28 1524.44 1160.28 1529.07 Q1160.28 1533.68 1162.18 1536.22 Q1164.1 1538.77 1167.53 1538.77 Q1170.98 1538.77 1172.88 1536.22 Q1174.8 1533.68 1174.8 1529.07 M1179.06 1539.12 Q1179.06 1545.74 1176.12 1548.95 Q1173.18 1552.19 1167.11 1552.19 Q1164.87 1552.19 1162.88 1551.85 Q1160.89 1551.52 1159.01 1550.83 L1159.01 1546.68 Q1160.89 1547.7 1162.72 1548.19 Q1164.54 1548.68 1166.44 1548.68 Q1170.63 1548.68 1172.72 1546.48 Q1174.8 1544.3 1174.8 1539.88 L1174.8 1537.77 Q1173.48 1540.06 1171.42 1541.2 Q1169.36 1542.33 1166.49 1542.33 Q1161.72 1542.33 1158.8 1538.7 Q1155.89 1535.06 1155.89 1529.07 Q1155.89 1523.05 1158.8 1519.42 Q1161.72 1515.78 1166.49 1515.78 Q1169.36 1515.78 1171.42 1516.92 Q1173.48 1518.05 1174.8 1520.34 L1174.8 1516.41 L1179.06 1516.41 L1179.06 1539.12 Z" fill="#000000" fill-rule="nonzero" fill-opacity="1" /><path clip-path="url(#clip990)" d="M1187.16 1506.36 L1190.86 1506.36 Q1194.34 1511.82 1196.05 1517.06 Q1197.78 1522.29 1197.78 1527.45 Q1197.78 1532.63 1196.05 1537.89 Q1194.34 1543.14 1190.86 1548.58 L1187.16 1548.58 Q1190.24 1543.28 1191.74 1538.05 Q1193.27 1532.8 1193.27 1527.45 Q1193.27 1522.1 1191.74 1516.89 Q1190.24 1511.68 1187.16 1506.36 Z" fill="#000000" fill-rule="nonzero" fill-opacity="1" /><polyline clip-path="url(#clip990)" style="stroke:#e26f46; stroke-linecap:round; stroke-linejoin:round; stroke-width:8; stroke-opacity:1; fill:none" points="333.457,1576.89 494.431,1576.89 "/>
<path clip-path="url(#clip990)" d="M521.26 1559.61 L525.936 1559.61 L525.936 1574.22 L541.445 1559.61 L547.464 1559.61 L530.311 1575.72 L548.691 1594.17 L542.533 1594.17 L525.936 1577.53 L525.936 1594.17 L521.26 1594.17 L521.26 1559.61 Z" fill="#000000" fill-rule="nonzero" fill-opacity="1" /><path clip-path="url(#clip990)" d="M571.978 1580.15 L571.978 1582.23 L552.394 1582.23 Q552.672 1586.63 555.033 1588.94 Q557.417 1591.23 561.654 1591.23 Q564.107 1591.23 566.399 1590.63 Q568.714 1590.03 570.982 1588.83 L570.982 1592.85 Q568.691 1593.83 566.283 1594.33 Q563.876 1594.84 561.399 1594.84 Q555.195 1594.84 551.561 1591.23 Q547.95 1587.62 547.95 1581.46 Q547.95 1575.1 551.376 1571.37 Q554.825 1567.62 560.658 1567.62 Q565.89 1567.62 568.922 1571 Q571.978 1574.36 571.978 1580.15 M567.718 1578.9 Q567.672 1575.4 565.751 1573.32 Q563.853 1571.23 560.704 1571.23 Q557.14 1571.23 554.987 1573.25 Q552.857 1575.26 552.533 1578.92 L567.718 1578.9 Z" fill="#000000" fill-rule="nonzero" fill-opacity="1" /><path clip-path="url(#clip990)" d="M601.144 1580.15 L601.144 1582.23 L581.561 1582.23 Q581.839 1586.63 584.2 1588.94 Q586.584 1591.23 590.82 1591.23 Q593.274 1591.23 595.565 1590.63 Q597.88 1590.03 600.149 1588.83 L600.149 1592.85 Q597.857 1593.83 595.45 1594.33 Q593.042 1594.84 590.565 1594.84 Q584.362 1594.84 580.727 1591.23 Q577.116 1587.62 577.116 1581.46 Q577.116 1575.1 580.542 1571.37 Q583.991 1567.62 589.825 1567.62 Q595.056 1567.62 598.088 1571 Q601.144 1574.36 601.144 1580.15 M596.885 1578.9 Q596.839 1575.4 594.917 1573.32 Q593.019 1571.23 589.871 1571.23 Q586.306 1571.23 584.153 1573.25 Q582.024 1575.26 581.7 1578.92 L596.885 1578.9 Z" fill="#000000" fill-rule="nonzero" fill-opacity="1" /><path clip-path="url(#clip990)" d="M608.135 1558.15 L612.394 1558.15 L612.394 1594.17 L608.135 1594.17 L608.135 1558.15 Z" fill="#000000" fill-rule="nonzero" fill-opacity="1" /><path clip-path="url(#clip990)" d="M621.306 1568.25 L625.565 1568.25 L625.565 1594.17 L621.306 1594.17 L621.306 1568.25 M621.306 1558.15 L625.565 1558.15 L625.565 1563.55 L621.306 1563.55 L621.306 1558.15 Z" fill="#000000" fill-rule="nonzero" fill-opacity="1" /><path clip-path="url(#clip990)" d="M656.028 1578.52 L656.028 1594.17 L651.769 1594.17 L651.769 1578.66 Q651.769 1574.98 650.334 1573.15 Q648.898 1571.33 646.028 1571.33 Q642.579 1571.33 640.588 1573.52 Q638.598 1575.72 638.598 1579.52 L638.598 1594.17 L634.315 1594.17 L634.315 1568.25 L638.598 1568.25 L638.598 1572.27 Q640.125 1569.94 642.185 1568.78 Q644.269 1567.62 646.977 1567.62 Q651.445 1567.62 653.736 1570.4 Q656.028 1573.15 656.028 1578.52 Z" fill="#000000" fill-rule="nonzero" fill-opacity="1" /><path clip-path="url(#clip990)" d="M681.583 1580.91 Q681.583 1576.28 679.662 1573.73 Q677.764 1571.19 674.315 1571.19 Q670.889 1571.19 668.968 1573.73 Q667.07 1576.28 667.07 1580.91 Q667.07 1585.52 668.968 1588.06 Q670.889 1590.61 674.315 1590.61 Q677.764 1590.61 679.662 1588.06 Q681.583 1585.52 681.583 1580.91 M685.843 1590.96 Q685.843 1597.58 682.903 1600.79 Q679.963 1604.03 673.898 1604.03 Q671.653 1604.03 669.662 1603.69 Q667.671 1603.36 665.796 1602.67 L665.796 1598.52 Q667.671 1599.54 669.5 1600.03 Q671.329 1600.52 673.227 1600.52 Q677.417 1600.52 679.5 1598.32 Q681.583 1596.14 681.583 1591.72 L681.583 1589.61 Q680.264 1591.9 678.204 1593.04 Q676.144 1594.17 673.273 1594.17 Q668.505 1594.17 665.588 1590.54 Q662.671 1586.9 662.671 1580.91 Q662.671 1574.89 665.588 1571.26 Q668.505 1567.62 673.273 1567.62 Q676.144 1567.62 678.204 1568.76 Q680.264 1569.89 681.583 1572.18 L681.583 1568.25 L685.843 1568.25 L685.843 1590.96 Z" fill="#000000" fill-rule="nonzero" fill-opacity="1" /><polyline clip-path="url(#clip990)" style="stroke:#3da44d; stroke-linecap:round; stroke-linejoin:round; stroke-width:8; stroke-opacity:1; fill:none" points="333.457,1628.73 494.431,1628.73 "/>
<path clip-path="url(#clip990)" d="M525.936 1629.51 L525.936 1642.17 L533.436 1642.17 Q537.209 1642.17 539.015 1640.62 Q540.843 1639.05 540.843 1635.83 Q540.843 1632.59 539.015 1631.06 Q537.209 1629.51 533.436 1629.51 L525.936 1629.51 M525.936 1615.3 L525.936 1625.71 L532.857 1625.71 Q536.283 1625.71 537.95 1624.44 Q539.64 1623.14 539.64 1620.5 Q539.64 1617.89 537.95 1616.59 Q536.283 1615.3 532.857 1615.3 L525.936 1615.3 M521.26 1611.45 L533.205 1611.45 Q538.552 1611.45 541.445 1613.68 Q544.339 1615.9 544.339 1619.99 Q544.339 1623.17 542.857 1625.04 Q541.376 1626.92 538.505 1627.38 Q541.955 1628.12 543.853 1630.48 Q545.774 1632.82 545.774 1636.34 Q545.774 1640.97 542.626 1643.49 Q539.478 1646.01 533.668 1646.01 L521.26 1646.01 L521.26 1611.45 Z" fill="#000000" fill-rule="nonzero" fill-opacity="1" /><path clip-path="url(#clip990)" d="M565.38 1632.98 Q560.218 1632.98 558.228 1634.16 Q556.237 1635.34 556.237 1638.19 Q556.237 1640.46 557.718 1641.8 Q559.223 1643.12 561.792 1643.12 Q565.334 1643.12 567.464 1640.62 Q569.616 1638.1 569.616 1633.93 L569.616 1632.98 L565.38 1632.98 M573.876 1631.22 L573.876 1646.01 L569.616 1646.01 L569.616 1642.08 Q568.158 1644.44 565.982 1645.57 Q563.806 1646.68 560.658 1646.68 Q556.677 1646.68 554.316 1644.46 Q551.978 1642.22 551.978 1638.47 Q551.978 1634.09 554.894 1631.87 Q557.834 1629.65 563.644 1629.65 L569.616 1629.65 L569.616 1629.23 Q569.616 1626.29 567.672 1624.69 Q565.751 1623.07 562.255 1623.07 Q560.033 1623.07 557.927 1623.61 Q555.82 1624.14 553.876 1625.2 L553.876 1621.27 Q556.214 1620.36 558.413 1619.93 Q560.612 1619.46 562.695 1619.46 Q568.32 1619.46 571.098 1622.38 Q573.876 1625.3 573.876 1631.22 Z" fill="#000000" fill-rule="nonzero" fill-opacity="1" /><path clip-path="url(#clip990)" d="M597.672 1624.07 Q596.954 1623.65 596.098 1623.47 Q595.264 1623.26 594.246 1623.26 Q590.635 1623.26 588.69 1625.62 Q586.769 1627.96 586.769 1632.36 L586.769 1646.01 L582.487 1646.01 L582.487 1620.09 L586.769 1620.09 L586.769 1624.11 Q588.112 1621.75 590.264 1620.62 Q592.417 1619.46 595.496 1619.46 Q595.936 1619.46 596.468 1619.53 Q597.001 1619.58 597.649 1619.69 L597.672 1624.07 Z" fill="#000000" fill-rule="nonzero" fill-opacity="1" /><path clip-path="url(#clip990)" d="M622.857 1630.36 L622.857 1646.01 L618.598 1646.01 L618.598 1630.5 Q618.598 1626.82 617.162 1624.99 Q615.727 1623.17 612.857 1623.17 Q609.408 1623.17 607.417 1625.36 Q605.426 1627.56 605.426 1631.36 L605.426 1646.01 L601.144 1646.01 L601.144 1620.09 L605.426 1620.09 L605.426 1624.11 Q606.954 1621.78 609.014 1620.62 Q611.098 1619.46 613.806 1619.46 Q618.274 1619.46 620.565 1622.24 Q622.857 1624.99 622.857 1630.36 Z" fill="#000000" fill-rule="nonzero" fill-opacity="1" /><path clip-path="url(#clip990)" d="M643.135 1632.98 Q637.973 1632.98 635.982 1634.16 Q633.991 1635.34 633.991 1638.19 Q633.991 1640.46 635.473 1641.8 Q636.977 1643.12 639.547 1643.12 Q643.088 1643.12 645.218 1640.62 Q647.371 1638.1 647.371 1633.93 L647.371 1632.98 L643.135 1632.98 M651.63 1631.22 L651.63 1646.01 L647.371 1646.01 L647.371 1642.08 Q645.912 1644.44 643.736 1645.57 Q641.56 1646.68 638.412 1646.68 Q634.431 1646.68 632.07 1644.46 Q629.732 1642.22 629.732 1638.47 Q629.732 1634.09 632.648 1631.87 Q635.588 1629.65 641.398 1629.65 L647.371 1629.65 L647.371 1629.23 Q647.371 1626.29 645.426 1624.69 Q643.505 1623.07 640.01 1623.07 Q637.787 1623.07 635.681 1623.61 Q633.574 1624.14 631.63 1625.2 L631.63 1621.27 Q633.968 1620.36 636.167 1619.93 Q638.366 1619.46 640.449 1619.46 Q646.074 1619.46 648.852 1622.38 Q651.63 1625.3 651.63 1631.22 Z" fill="#000000" fill-rule="nonzero" fill-opacity="1" /><path clip-path="url(#clip990)" d="M675.426 1624.07 Q674.708 1623.65 673.852 1623.47 Q673.019 1623.26 672 1623.26 Q668.389 1623.26 666.445 1625.62 Q664.523 1627.96 664.523 1632.36 L664.523 1646.01 L660.241 1646.01 L660.241 1620.09 L664.523 1620.09 L664.523 1624.11 Q665.866 1621.75 668.019 1620.62 Q670.171 1619.46 673.25 1619.46 Q673.69 1619.46 674.222 1619.53 Q674.755 1619.58 675.403 1619.69 L675.426 1624.07 Z" fill="#000000" fill-rule="nonzero" fill-opacity="1" /><path clip-path="url(#clip990)" d="M696.12 1624.02 L696.12 1609.99 L700.38 1609.99 L700.38 1646.01 L696.12 1646.01 L696.12 1642.12 Q694.778 1644.44 692.718 1645.57 Q690.681 1646.68 687.81 1646.68 Q683.111 1646.68 680.148 1642.93 Q677.208 1639.18 677.208 1633.07 Q677.208 1626.96 680.148 1623.21 Q683.111 1619.46 687.81 1619.46 Q690.681 1619.46 692.718 1620.6 Q694.778 1621.71 696.12 1624.02 M681.607 1633.07 Q681.607 1637.77 683.528 1640.46 Q685.472 1643.12 688.852 1643.12 Q692.232 1643.12 694.176 1640.46 Q696.12 1637.77 696.12 1633.07 Q696.12 1628.37 694.176 1625.71 Q692.232 1623.03 688.852 1623.03 Q685.472 1623.03 683.528 1625.71 Q681.607 1628.37 681.607 1633.07 Z" fill="#000000" fill-rule="nonzero" fill-opacity="1" /></svg>
