<?xml version="1.0" encoding="utf-8"?>
<svg xmlns="http://www.w3.org/2000/svg" xmlns:xlink="http://www.w3.org/1999/xlink" width="672" height="480" viewBox="0 0 2688 1920">
<defs>
  <clipPath id="clip620">
    <rect x="0" y="0" width="2688" height="1920"/>
  </clipPath>
</defs>
<path clip-path="url(#clip620)" d="M0 1920 L2688 1920 L2688 -4.26326e-14 L0 -4.26326e-14  Z" fill="#ffffff" fill-rule="evenodd" fill-opacity="1"/>
<defs>
  <clipPath id="clip621">
    <rect x="211" y="127" width="2430" height="1607"/>
  </clipPath>
</defs>
<path clip-path="url(#clip620)" d="M211.395 1734.12 L2640.76 1734.12 L2640.76 127.792 L211.395 127.792  Z" fill="#ffffff" fill-rule="evenodd" fill-opacity="1"/>
<polyline clip-path="url(#clip621)" style="stroke:#000000; stroke-linecap:round; stroke-linejoin:round; stroke-width:2; stroke-opacity:0.1; fill:none" points="212.64,1734.12 212.64,127.792 "/>
<polyline clip-path="url(#clip621)" style="stroke:#000000; stroke-linecap:round; stroke-linejoin:round; stroke-width:2; stroke-opacity:0.1; fill:none" points="653.889,1734.12 653.889,127.792 "/>
<polyline clip-path="url(#clip621)" style="stroke:#000000; stroke-linecap:round; stroke-linejoin:round; stroke-width:2; stroke-opacity:0.1; fill:none" points="1095.14,1734.12 1095.14,127.792 "/>
<polyline clip-path="url(#clip621)" style="stroke:#000000; stroke-linecap:round; stroke-linejoin:round; stroke-width:2; stroke-opacity:0.1; fill:none" points="1536.39,1734.12 1536.39,127.792 "/>
<polyline clip-path="url(#clip621)" style="stroke:#000000; stroke-linecap:round; stroke-linejoin:round; stroke-width:2; stroke-opacity:0.1; fill:none" points="1977.64,1734.12 1977.64,127.792 "/>
<polyline clip-path="url(#clip621)" style="stroke:#000000; stroke-linecap:round; stroke-linejoin:round; stroke-width:2; stroke-opacity:0.1; fill:none" points="2418.89,1734.12 2418.89,127.792 "/>
<polyline clip-path="url(#clip621)" style="stroke:#000000; stroke-linecap:round; stroke-linejoin:round; stroke-width:2; stroke-opacity:0.1; fill:none" points="211.395,1734.12 2640.76,1734.12 "/>
<polyline clip-path="url(#clip621)" style="stroke:#000000; stroke-linecap:round; stroke-linejoin:round; stroke-width:2; stroke-opacity:0.1; fill:none" points="211.395,1337.49 2640.76,1337.49 "/>
<polyline clip-path="url(#clip621)" style="stroke:#000000; stroke-linecap:round; stroke-linejoin:round; stroke-width:2; stroke-opacity:0.1; fill:none" points="211.395,940.87 2640.76,940.87 "/>
<polyline clip-path="url(#clip621)" style="stroke:#000000; stroke-linecap:round; stroke-linejoin:round; stroke-width:2; stroke-opacity:0.1; fill:none" points="211.395,544.247 2640.76,544.247 "/>
<polyline clip-path="url(#clip621)" style="stroke:#000000; stroke-linecap:round; stroke-linejoin:round; stroke-width:2; stroke-opacity:0.1; fill:none" points="211.395,147.623 2640.76,147.623 "/>
<polyline clip-path="url(#clip620)" style="stroke:#000000; stroke-linecap:round; stroke-linejoin:round; stroke-width:4; stroke-opacity:1; fill:none" points="211.395,1734.12 2640.76,1734.12 "/>
<polyline clip-path="url(#clip620)" style="stroke:#000000; stroke-linecap:round; stroke-linejoin:round; stroke-width:4; stroke-opacity:1; fill:none" points="212.64,1734.12 212.64,1715.22 "/>
<polyline clip-path="url(#clip620)" style="stroke:#000000; stroke-linecap:round; stroke-linejoin:round; stroke-width:4; stroke-opacity:1; fill:none" points="653.889,1734.12 653.889,1715.22 "/>
<polyline clip-path="url(#clip620)" style="stroke:#000000; stroke-linecap:round; stroke-linejoin:round; stroke-width:4; stroke-opacity:1; fill:none" points="1095.14,1734.12 1095.14,1715.22 "/>
<polyline clip-path="url(#clip620)" style="stroke:#000000; stroke-linecap:round; stroke-linejoin:round; stroke-width:4; stroke-opacity:1; fill:none" points="1536.39,1734.12 1536.39,1715.22 "/>
<polyline clip-path="url(#clip620)" style="stroke:#000000; stroke-linecap:round; stroke-linejoin:round; stroke-width:4; stroke-opacity:1; fill:none" points="1977.64,1734.12 1977.64,1715.22 "/>
<polyline clip-path="url(#clip620)" style="stroke:#000000; stroke-linecap:round; stroke-linejoin:round; stroke-width:4; stroke-opacity:1; fill:none" points="2418.89,1734.12 2418.89,1715.22 "/>
<path clip-path="url(#clip620)" d="M212.64 1767.34 Q209.028 1767.34 207.2 1770.9 Q205.394 1774.45 205.394 1781.58 Q205.394 1788.68 207.2 1792.25 Q209.028 1795.79 212.64 1795.79 Q216.274 1795.79 218.079 1792.25 Q219.908 1788.68 219.908 1781.58 Q219.908 1774.45 218.079 1770.9 Q216.274 1767.34 212.64 1767.34 M212.64 1763.64 Q218.45 1763.64 221.505 1768.24 Q224.584 1772.83 224.584 1781.58 Q224.584 1790.3 221.505 1794.91 Q218.45 1799.49 212.64 1799.49 Q206.829 1799.49 203.751 1794.91 Q200.695 1790.3 200.695 1781.58 Q200.695 1772.83 203.751 1768.24 Q206.829 1763.64 212.64 1763.64 Z" fill="#000000" fill-rule="nonzero" fill-opacity="1" /><path clip-path="url(#clip620)" d="M628.577 1794.89 L636.216 1794.89 L636.216 1768.52 L627.905 1770.19 L627.905 1765.93 L636.169 1764.26 L640.845 1764.26 L640.845 1794.89 L648.484 1794.89 L648.484 1798.82 L628.577 1798.82 L628.577 1794.89 Z" fill="#000000" fill-rule="nonzero" fill-opacity="1" /><path clip-path="url(#clip620)" d="M667.928 1767.34 Q664.317 1767.34 662.489 1770.9 Q660.683 1774.45 660.683 1781.58 Q660.683 1788.68 662.489 1792.25 Q664.317 1795.79 667.928 1795.79 Q671.563 1795.79 673.368 1792.25 Q675.197 1788.68 675.197 1781.58 Q675.197 1774.45 673.368 1770.9 Q671.563 1767.34 667.928 1767.34 M667.928 1763.64 Q673.738 1763.64 676.794 1768.24 Q679.873 1772.83 679.873 1781.58 Q679.873 1790.3 676.794 1794.91 Q673.738 1799.49 667.928 1799.49 Q662.118 1799.49 659.039 1794.91 Q655.984 1790.3 655.984 1781.58 Q655.984 1772.83 659.039 1768.24 Q662.118 1763.64 667.928 1763.64 Z" fill="#000000" fill-rule="nonzero" fill-opacity="1" /><path clip-path="url(#clip620)" d="M1073.91 1794.89 L1090.23 1794.89 L1090.23 1798.82 L1068.29 1798.82 L1068.29 1794.89 Q1070.95 1792.13 1075.53 1787.5 Q1080.14 1782.85 1081.32 1781.51 Q1083.56 1778.98 1084.44 1777.25 Q1085.35 1775.49 1085.35 1773.8 Q1085.35 1771.04 1083.4 1769.31 Q1081.48 1767.57 1078.38 1767.57 Q1076.18 1767.57 1073.73 1768.34 Q1071.3 1769.1 1068.52 1770.65 L1068.52 1765.93 Q1071.34 1764.79 1073.8 1764.21 Q1076.25 1763.64 1078.29 1763.64 Q1083.66 1763.64 1086.85 1766.32 Q1090.05 1769.01 1090.05 1773.5 Q1090.05 1775.63 1089.24 1777.55 Q1088.45 1779.45 1086.34 1782.04 Q1085.76 1782.71 1082.66 1785.93 Q1079.56 1789.12 1073.91 1794.89 Z" fill="#000000" fill-rule="nonzero" fill-opacity="1" /><path clip-path="url(#clip620)" d="M1110.05 1767.34 Q1106.43 1767.34 1104.61 1770.9 Q1102.8 1774.45 1102.8 1781.58 Q1102.8 1788.68 1104.61 1792.25 Q1106.43 1795.79 1110.05 1795.79 Q1113.68 1795.79 1115.49 1792.25 Q1117.31 1788.68 1117.31 1781.58 Q1117.31 1774.45 1115.49 1770.9 Q1113.68 1767.34 1110.05 1767.34 M1110.05 1763.64 Q1115.86 1763.64 1118.91 1768.24 Q1121.99 1772.83 1121.99 1781.58 Q1121.99 1790.3 1118.91 1794.91 Q1115.86 1799.49 1110.05 1799.49 Q1104.24 1799.49 1101.16 1794.91 Q1098.1 1790.3 1098.1 1781.58 Q1098.1 1772.83 1101.16 1768.24 Q1104.24 1763.64 1110.05 1763.64 Z" fill="#000000" fill-rule="nonzero" fill-opacity="1" /><path clip-path="url(#clip620)" d="M1525.23 1780.19 Q1528.59 1780.9 1530.46 1783.17 Q1532.36 1785.44 1532.36 1788.77 Q1532.36 1793.89 1528.84 1796.69 Q1525.32 1799.49 1518.84 1799.49 Q1516.67 1799.49 1514.35 1799.05 Q1512.06 1798.64 1509.61 1797.78 L1509.61 1793.27 Q1511.55 1794.4 1513.86 1794.98 Q1516.18 1795.56 1518.7 1795.56 Q1523.1 1795.56 1525.39 1793.82 Q1527.71 1792.08 1527.71 1788.77 Q1527.71 1785.72 1525.55 1784.01 Q1523.43 1782.27 1519.61 1782.27 L1515.58 1782.27 L1515.58 1778.43 L1519.79 1778.43 Q1523.24 1778.43 1525.07 1777.06 Q1526.9 1775.67 1526.9 1773.08 Q1526.9 1770.42 1525 1769.01 Q1523.12 1767.57 1519.61 1767.57 Q1517.68 1767.57 1515.49 1767.99 Q1513.29 1768.4 1510.65 1769.28 L1510.65 1765.12 Q1513.31 1764.38 1515.62 1764.01 Q1517.96 1763.64 1520.02 1763.64 Q1525.35 1763.64 1528.45 1766.07 Q1531.55 1768.47 1531.55 1772.59 Q1531.55 1775.46 1529.91 1777.46 Q1528.26 1779.42 1525.23 1780.19 Z" fill="#000000" fill-rule="nonzero" fill-opacity="1" /><path clip-path="url(#clip620)" d="M1551.23 1767.34 Q1547.61 1767.34 1545.79 1770.9 Q1543.98 1774.45 1543.98 1781.58 Q1543.98 1788.68 1545.79 1792.25 Q1547.61 1795.79 1551.23 1795.79 Q1554.86 1795.79 1556.67 1792.25 Q1558.49 1788.68 1558.49 1781.58 Q1558.49 1774.45 1556.67 1770.9 Q1554.86 1767.34 1551.23 1767.34 M1551.23 1763.64 Q1557.04 1763.64 1560.09 1768.24 Q1563.17 1772.83 1563.17 1781.58 Q1563.17 1790.3 1560.09 1794.91 Q1557.04 1799.49 1551.23 1799.49 Q1545.42 1799.49 1542.34 1794.91 Q1539.28 1790.3 1539.28 1781.58 Q1539.28 1772.83 1542.34 1768.24 Q1545.42 1763.64 1551.23 1763.64 Z" fill="#000000" fill-rule="nonzero" fill-opacity="1" /><path clip-path="url(#clip620)" d="M1965.81 1768.34 L1954 1786.78 L1965.81 1786.78 L1965.81 1768.34 M1964.58 1764.26 L1970.46 1764.26 L1970.46 1786.78 L1975.39 1786.78 L1975.39 1790.67 L1970.46 1790.67 L1970.46 1798.82 L1965.81 1798.82 L1965.81 1790.67 L1950.21 1790.67 L1950.21 1786.16 L1964.58 1764.26 Z" fill="#000000" fill-rule="nonzero" fill-opacity="1" /><path clip-path="url(#clip620)" d="M1993.12 1767.34 Q1989.51 1767.34 1987.68 1770.9 Q1985.88 1774.45 1985.88 1781.58 Q1985.88 1788.68 1987.68 1792.25 Q1989.51 1795.79 1993.12 1795.79 Q1996.76 1795.79 1998.56 1792.25 Q2000.39 1788.68 2000.39 1781.58 Q2000.39 1774.45 1998.56 1770.9 Q1996.76 1767.34 1993.12 1767.34 M1993.12 1763.64 Q1998.93 1763.64 2001.99 1768.24 Q2005.07 1772.83 2005.07 1781.58 Q2005.07 1790.3 2001.99 1794.91 Q1998.93 1799.49 1993.12 1799.49 Q1987.31 1799.49 1984.23 1794.91 Q1981.18 1790.3 1981.18 1781.58 Q1981.18 1772.83 1984.23 1768.24 Q1987.31 1763.64 1993.12 1763.64 Z" fill="#000000" fill-rule="nonzero" fill-opacity="1" /><path clip-path="url(#clip620)" d="M2393.59 1764.26 L2411.94 1764.26 L2411.94 1768.2 L2397.87 1768.2 L2397.87 1776.67 Q2398.89 1776.32 2399.91 1776.16 Q2400.92 1775.97 2401.94 1775.97 Q2407.73 1775.97 2411.11 1779.15 Q2414.49 1782.32 2414.49 1787.73 Q2414.49 1793.31 2411.02 1796.41 Q2407.54 1799.49 2401.22 1799.49 Q2399.05 1799.49 2396.78 1799.12 Q2394.54 1798.75 2392.13 1798.01 L2392.13 1793.31 Q2394.21 1794.45 2396.43 1795 Q2398.66 1795.56 2401.13 1795.56 Q2405.14 1795.56 2407.47 1793.45 Q2409.81 1791.34 2409.81 1787.73 Q2409.81 1784.12 2407.47 1782.02 Q2405.14 1779.91 2401.13 1779.91 Q2399.26 1779.91 2397.38 1780.33 Q2395.53 1780.74 2393.59 1781.62 L2393.59 1764.26 Z" fill="#000000" fill-rule="nonzero" fill-opacity="1" /><path clip-path="url(#clip620)" d="M2433.7 1767.34 Q2430.09 1767.34 2428.26 1770.9 Q2426.46 1774.45 2426.46 1781.58 Q2426.46 1788.68 2428.26 1792.25 Q2430.09 1795.79 2433.7 1795.79 Q2437.34 1795.79 2439.14 1792.25 Q2440.97 1788.68 2440.97 1781.58 Q2440.97 1774.45 2439.14 1770.9 Q2437.34 1767.34 2433.7 1767.34 M2433.7 1763.64 Q2439.51 1763.64 2442.57 1768.24 Q2445.65 1772.83 2445.65 1781.58 Q2445.65 1790.3 2442.57 1794.91 Q2439.51 1799.49 2433.7 1799.49 Q2427.89 1799.49 2424.81 1794.91 Q2421.76 1790.3 2421.76 1781.58 Q2421.76 1772.83 2424.81 1768.24 Q2427.89 1763.64 2433.7 1763.64 Z" fill="#000000" fill-rule="nonzero" fill-opacity="1" /><path clip-path="url(#clip620)" d="M1318.81 1841.06 L1318.81 1878.02 L1326.58 1878.02 Q1336.41 1878.02 1340.97 1873.56 Q1345.55 1869.11 1345.55 1859.49 Q1345.55 1849.94 1340.97 1845.52 Q1336.41 1841.06 1326.58 1841.06 L1318.81 1841.06 M1312.38 1835.78 L1325.59 1835.78 Q1339.41 1835.78 1345.87 1841.54 Q1352.33 1847.27 1352.33 1859.49 Q1352.33 1871.78 1345.84 1877.54 Q1339.34 1883.3 1325.59 1883.3 L1312.38 1883.3 L1312.38 1835.78 Z" fill="#000000" fill-rule="nonzero" fill-opacity="1" /><path clip-path="url(#clip620)" d="M1392.81 1864.01 L1392.81 1866.88 L1365.89 1866.88 Q1366.27 1872.92 1369.52 1876.11 Q1372.79 1879.26 1378.62 1879.26 Q1381.99 1879.26 1385.14 1878.43 Q1388.33 1877.6 1391.45 1875.95 L1391.45 1881.49 Q1388.3 1882.82 1384.98 1883.52 Q1381.67 1884.22 1378.27 1884.22 Q1369.74 1884.22 1364.74 1879.26 Q1359.78 1874.29 1359.78 1865.83 Q1359.78 1857.07 1364.49 1851.95 Q1369.23 1846.79 1377.25 1846.79 Q1384.44 1846.79 1388.61 1851.44 Q1392.81 1856.06 1392.81 1864.01 M1386.96 1862.29 Q1386.89 1857.49 1384.25 1854.62 Q1381.64 1851.76 1377.31 1851.76 Q1372.41 1851.76 1369.45 1854.53 Q1366.52 1857.3 1366.08 1862.33 L1386.96 1862.29 Z" fill="#000000" fill-rule="nonzero" fill-opacity="1" /><path clip-path="url(#clip620)" d="M1425.88 1865.06 Q1425.88 1858.7 1423.24 1855.2 Q1420.63 1851.7 1415.89 1851.7 Q1411.18 1851.7 1408.54 1855.2 Q1405.93 1858.7 1405.93 1865.06 Q1405.93 1871.4 1408.54 1874.9 Q1411.18 1878.4 1415.89 1878.4 Q1420.63 1878.4 1423.24 1874.9 Q1425.88 1871.4 1425.88 1865.06 M1431.74 1878.88 Q1431.74 1887.98 1427.7 1892.4 Q1423.66 1896.86 1415.32 1896.86 Q1412.23 1896.86 1409.49 1896.38 Q1406.76 1895.94 1404.18 1894.98 L1404.18 1889.28 Q1406.76 1890.69 1409.27 1891.35 Q1411.78 1892.02 1414.39 1892.02 Q1420.16 1892.02 1423.02 1889 Q1425.88 1886.01 1425.88 1879.93 L1425.88 1877.03 Q1424.07 1880.18 1421.24 1881.74 Q1418.4 1883.3 1414.46 1883.3 Q1407.9 1883.3 1403.89 1878.3 Q1399.88 1873.31 1399.88 1865.06 Q1399.88 1856.79 1403.89 1851.79 Q1407.9 1846.79 1414.46 1846.79 Q1418.4 1846.79 1421.24 1848.35 Q1424.07 1849.91 1425.88 1853.06 L1425.88 1847.65 L1431.74 1847.65 L1431.74 1878.88 Z" fill="#000000" fill-rule="nonzero" fill-opacity="1" /><path clip-path="url(#clip620)" d="M1464.46 1853.13 Q1463.47 1852.55 1462.3 1852.3 Q1461.15 1852.01 1459.75 1852.01 Q1454.78 1852.01 1452.11 1855.26 Q1449.47 1858.47 1449.47 1864.52 L1449.47 1883.3 L1443.58 1883.3 L1443.58 1847.65 L1449.47 1847.65 L1449.47 1853.19 Q1451.32 1849.94 1454.28 1848.39 Q1457.24 1846.79 1461.47 1846.79 Q1462.07 1846.79 1462.81 1846.89 Q1463.54 1846.95 1464.43 1847.11 L1464.46 1853.13 Z" fill="#000000" fill-rule="nonzero" fill-opacity="1" /><path clip-path="url(#clip620)" d="M1499.66 1864.01 L1499.66 1866.88 L1472.74 1866.88 Q1473.12 1872.92 1476.36 1876.11 Q1479.64 1879.26 1485.47 1879.26 Q1488.84 1879.26 1491.99 1878.43 Q1495.18 1877.6 1498.29 1875.95 L1498.29 1881.49 Q1495.14 1882.82 1491.83 1883.52 Q1488.52 1884.22 1485.12 1884.22 Q1476.59 1884.22 1471.59 1879.26 Q1466.63 1874.29 1466.63 1865.83 Q1466.63 1857.07 1471.34 1851.95 Q1476.08 1846.79 1484.1 1846.79 Q1491.29 1846.79 1495.46 1851.44 Q1499.66 1856.06 1499.66 1864.01 M1493.81 1862.29 Q1493.74 1857.49 1491.1 1854.62 Q1488.49 1851.76 1484.16 1851.76 Q1479.26 1851.76 1476.3 1854.53 Q1473.37 1857.3 1472.93 1862.33 L1493.81 1862.29 Z" fill="#000000" fill-rule="nonzero" fill-opacity="1" /><path clip-path="url(#clip620)" d="M1539.77 1864.01 L1539.77 1866.88 L1512.84 1866.88 Q1513.22 1872.92 1516.47 1876.11 Q1519.75 1879.26 1525.57 1879.26 Q1528.95 1879.26 1532.1 1878.43 Q1535.28 1877.6 1538.4 1875.95 L1538.4 1881.49 Q1535.25 1882.82 1531.94 1883.52 Q1528.63 1884.22 1525.22 1884.22 Q1516.69 1884.22 1511.69 1879.26 Q1506.73 1874.29 1506.73 1865.83 Q1506.73 1857.07 1511.44 1851.95 Q1516.18 1846.79 1524.2 1846.79 Q1531.4 1846.79 1535.57 1851.44 Q1539.77 1856.06 1539.77 1864.01 M1533.91 1862.29 Q1533.85 1857.49 1531.21 1854.62 Q1528.6 1851.76 1524.27 1851.76 Q1519.37 1851.76 1516.4 1854.53 Q1513.48 1857.3 1513.03 1862.33 L1533.91 1862.29 Z" fill="#000000" fill-rule="nonzero" fill-opacity="1" /><polyline clip-path="url(#clip620)" style="stroke:#000000; stroke-linecap:round; stroke-linejoin:round; stroke-width:4; stroke-opacity:1; fill:none" points="211.395,1734.12 211.395,127.792 "/>
<polyline clip-path="url(#clip620)" style="stroke:#000000; stroke-linecap:round; stroke-linejoin:round; stroke-width:4; stroke-opacity:1; fill:none" points="211.395,1734.12 230.293,1734.12 "/>
<polyline clip-path="url(#clip620)" style="stroke:#000000; stroke-linecap:round; stroke-linejoin:round; stroke-width:4; stroke-opacity:1; fill:none" points="211.395,1337.49 230.293,1337.49 "/>
<polyline clip-path="url(#clip620)" style="stroke:#000000; stroke-linecap:round; stroke-linejoin:round; stroke-width:4; stroke-opacity:1; fill:none" points="211.395,940.87 230.293,940.87 "/>
<polyline clip-path="url(#clip620)" style="stroke:#000000; stroke-linecap:round; stroke-linejoin:round; stroke-width:4; stroke-opacity:1; fill:none" points="211.395,544.247 230.293,544.247 "/>
<polyline clip-path="url(#clip620)" style="stroke:#000000; stroke-linecap:round; stroke-linejoin:round; stroke-width:4; stroke-opacity:1; fill:none" points="211.395,147.623 230.293,147.623 "/>
<path clip-path="url(#clip620)" d="M159.131 1719.92 Q155.52 1719.92 153.691 1723.48 Q151.886 1727.02 151.886 1734.15 Q151.886 1741.26 153.691 1744.82 Q155.52 1748.36 159.131 1748.36 Q162.765 1748.36 164.571 1744.82 Q166.399 1741.26 166.399 1734.15 Q166.399 1727.02 164.571 1723.48 Q162.765 1719.92 159.131 1719.92 M159.131 1716.21 Q164.941 1716.21 167.997 1720.82 Q171.075 1725.4 171.075 1734.15 Q171.075 1742.88 167.997 1747.48 Q164.941 1752.07 159.131 1752.07 Q153.321 1752.07 150.242 1747.48 Q147.186 1742.88 147.186 1734.15 Q147.186 1725.4 150.242 1720.82 Q153.321 1716.21 159.131 1716.21 Z" fill="#000000" fill-rule="nonzero" fill-opacity="1" /><path clip-path="url(#clip620)" d="M122.997 1350.84 L139.316 1350.84 L139.316 1354.77 L117.372 1354.77 L117.372 1350.84 Q120.034 1348.08 124.617 1343.45 Q129.224 1338.8 130.404 1337.46 Q132.65 1334.94 133.529 1333.2 Q134.432 1331.44 134.432 1329.75 Q134.432 1327 132.488 1325.26 Q130.566 1323.52 127.464 1323.52 Q125.265 1323.52 122.812 1324.29 Q120.381 1325.05 117.603 1326.6 L117.603 1321.88 Q120.427 1320.75 122.881 1320.17 Q125.335 1319.59 127.372 1319.59 Q132.742 1319.59 135.937 1322.27 Q139.131 1324.96 139.131 1329.45 Q139.131 1331.58 138.321 1333.5 Q137.534 1335.4 135.427 1337.99 Q134.849 1338.66 131.747 1341.88 Q128.645 1345.07 122.997 1350.84 Z" fill="#000000" fill-rule="nonzero" fill-opacity="1" /><path clip-path="url(#clip620)" d="M159.131 1323.29 Q155.52 1323.29 153.691 1326.86 Q151.886 1330.4 151.886 1337.53 Q151.886 1344.63 153.691 1348.2 Q155.52 1351.74 159.131 1351.74 Q162.765 1351.74 164.571 1348.2 Q166.399 1344.63 166.399 1337.53 Q166.399 1330.4 164.571 1326.86 Q162.765 1323.29 159.131 1323.29 M159.131 1319.59 Q164.941 1319.59 167.997 1324.2 Q171.075 1328.78 171.075 1337.53 Q171.075 1346.26 167.997 1350.86 Q164.941 1355.44 159.131 1355.44 Q153.321 1355.44 150.242 1350.86 Q147.186 1346.26 147.186 1337.53 Q147.186 1328.78 150.242 1324.2 Q153.321 1319.59 159.131 1319.59 Z" fill="#000000" fill-rule="nonzero" fill-opacity="1" /><path clip-path="url(#clip620)" d="M131.816 927.664 L120.011 946.113 L131.816 946.113 L131.816 927.664 M130.589 923.59 L136.469 923.59 L136.469 946.113 L141.399 946.113 L141.399 950.002 L136.469 950.002 L136.469 958.15 L131.816 958.15 L131.816 950.002 L116.214 950.002 L116.214 945.488 L130.589 923.59 Z" fill="#000000" fill-rule="nonzero" fill-opacity="1" /><path clip-path="url(#clip620)" d="M159.131 926.669 Q155.52 926.669 153.691 930.234 Q151.886 933.775 151.886 940.905 Q151.886 948.011 153.691 951.576 Q155.52 955.118 159.131 955.118 Q162.765 955.118 164.571 951.576 Q166.399 948.011 166.399 940.905 Q166.399 933.775 164.571 930.234 Q162.765 926.669 159.131 926.669 M159.131 922.965 Q164.941 922.965 167.997 927.572 Q171.075 932.155 171.075 940.905 Q171.075 949.632 167.997 954.238 Q164.941 958.821 159.131 958.821 Q153.321 958.821 150.242 954.238 Q147.186 949.632 147.186 940.905 Q147.186 932.155 150.242 927.572 Q153.321 922.965 159.131 922.965 Z" fill="#000000" fill-rule="nonzero" fill-opacity="1" /><path clip-path="url(#clip620)" d="M129.548 542.383 Q126.4 542.383 124.548 544.536 Q122.719 546.689 122.719 550.439 Q122.719 554.166 124.548 556.342 Q126.4 558.494 129.548 558.494 Q132.696 558.494 134.525 556.342 Q136.376 554.166 136.376 550.439 Q136.376 546.689 134.525 544.536 Q132.696 542.383 129.548 542.383 M138.83 527.731 L138.83 531.99 Q137.071 531.157 135.265 530.717 Q133.483 530.277 131.724 530.277 Q127.094 530.277 124.64 533.402 Q122.21 536.527 121.863 542.846 Q123.228 540.832 125.288 539.768 Q127.349 538.68 129.825 538.68 Q135.034 538.68 138.043 541.851 Q141.075 544.999 141.075 550.439 Q141.075 555.763 137.927 558.98 Q134.779 562.198 129.548 562.198 Q123.552 562.198 120.381 557.615 Q117.21 553.008 117.21 544.281 Q117.21 536.087 121.099 531.226 Q124.988 526.342 131.538 526.342 Q133.298 526.342 135.08 526.689 Q136.886 527.036 138.83 527.731 Z" fill="#000000" fill-rule="nonzero" fill-opacity="1" /><path clip-path="url(#clip620)" d="M159.131 530.045 Q155.52 530.045 153.691 533.61 Q151.886 537.152 151.886 544.281 Q151.886 551.388 153.691 554.953 Q155.52 558.494 159.131 558.494 Q162.765 558.494 164.571 554.953 Q166.399 551.388 166.399 544.281 Q166.399 537.152 164.571 533.61 Q162.765 530.045 159.131 530.045 M159.131 526.342 Q164.941 526.342 167.997 530.948 Q171.075 535.531 171.075 544.281 Q171.075 553.008 167.997 557.615 Q164.941 562.198 159.131 562.198 Q153.321 562.198 150.242 557.615 Q147.186 553.008 147.186 544.281 Q147.186 535.531 150.242 530.948 Q153.321 526.342 159.131 526.342 Z" fill="#000000" fill-rule="nonzero" fill-opacity="1" /><path clip-path="url(#clip620)" d="M128.969 148.491 Q125.636 148.491 123.714 150.274 Q121.816 152.056 121.816 155.181 Q121.816 158.306 123.714 160.089 Q125.636 161.871 128.969 161.871 Q132.302 161.871 134.224 160.089 Q136.145 158.283 136.145 155.181 Q136.145 152.056 134.224 150.274 Q132.325 148.491 128.969 148.491 M124.293 146.501 Q121.284 145.76 119.594 143.7 Q117.927 141.64 117.927 138.677 Q117.927 134.533 120.867 132.126 Q123.83 129.718 128.969 129.718 Q134.131 129.718 137.071 132.126 Q140.011 134.533 140.011 138.677 Q140.011 141.64 138.321 143.7 Q136.654 145.76 133.668 146.501 Q137.048 147.288 138.923 149.579 Q140.821 151.871 140.821 155.181 Q140.821 160.204 137.742 162.889 Q134.687 165.575 128.969 165.575 Q123.251 165.575 120.173 162.889 Q117.117 160.204 117.117 155.181 Q117.117 151.871 119.015 149.579 Q120.913 147.288 124.293 146.501 M122.58 139.116 Q122.58 141.802 124.247 143.306 Q125.937 144.811 128.969 144.811 Q131.978 144.811 133.668 143.306 Q135.381 141.802 135.381 139.116 Q135.381 136.431 133.668 134.927 Q131.978 133.422 128.969 133.422 Q125.937 133.422 124.247 134.927 Q122.58 136.431 122.58 139.116 Z" fill="#000000" fill-rule="nonzero" fill-opacity="1" /><path clip-path="url(#clip620)" d="M159.131 133.422 Q155.52 133.422 153.691 136.987 Q151.886 140.528 151.886 147.658 Q151.886 154.764 153.691 158.329 Q155.52 161.871 159.131 161.871 Q162.765 161.871 164.571 158.329 Q166.399 154.764 166.399 147.658 Q166.399 140.528 164.571 136.987 Q162.765 133.422 159.131 133.422 M159.131 129.718 Q164.941 129.718 167.997 134.325 Q171.075 138.908 171.075 147.658 Q171.075 156.385 167.997 160.991 Q164.941 165.575 159.131 165.575 Q153.321 165.575 150.242 160.991 Q147.186 156.385 147.186 147.658 Q147.186 138.908 150.242 134.325 Q153.321 129.718 159.131 129.718 Z" fill="#000000" fill-rule="nonzero" fill-opacity="1" /><path clip-path="url(#clip620)" d="M17.7787 986.814 L24.5582 986.814 Q21.5345 990.06 20.0386 993.752 Q18.5426 997.413 18.5426 1001.55 Q18.5426 1009.7 23.5397 1014.03 Q28.5049 1018.36 37.9262 1018.36 Q47.3156 1018.36 52.3127 1014.03 Q57.2779 1009.7 57.2779 1001.55 Q57.2779 997.413 55.782 993.752 Q54.2861 990.06 51.2623 986.814 L57.9782 986.814 Q60.2698 990.187 61.4156 993.975 Q62.5615 997.731 62.5615 1001.93 Q62.5615 1012.72 55.973 1018.93 Q49.3526 1025.14 37.9262 1025.14 Q26.4679 1025.14 19.8794 1018.93 Q13.2591 1012.72 13.2591 1001.93 Q13.2591 997.667 14.4049 993.911 Q15.5189 990.124 17.7787 986.814 Z" fill="#000000" fill-rule="nonzero" fill-opacity="1" /><path clip-path="url(#clip620)" d="M30.0964 963.324 Q30.0964 968.035 33.7885 970.772 Q37.4488 973.509 43.8463 973.509 Q50.2438 973.509 53.9359 970.804 Q57.5962 968.067 57.5962 963.324 Q57.5962 958.645 53.9041 955.908 Q50.212 953.171 43.8463 953.171 Q37.5124 953.171 33.8203 955.908 Q30.0964 958.645 30.0964 963.324 M25.1311 963.324 Q25.1311 955.685 30.0964 951.325 Q35.0616 946.964 43.8463 946.964 Q52.5991 946.964 57.5962 951.325 Q62.5615 955.685 62.5615 963.324 Q62.5615 970.995 57.5962 975.355 Q52.5991 979.684 43.8463 979.684 Q35.0616 979.684 30.0964 975.355 Q25.1311 970.995 25.1311 963.324 Z" fill="#000000" fill-rule="nonzero" fill-opacity="1" /><path clip-path="url(#clip620)" d="M47.5702 937.861 L25.9905 937.861 L25.9905 932.005 L47.3474 932.005 Q52.4082 932.005 54.9545 930.032 Q57.4689 928.058 57.4689 924.111 Q57.4689 919.369 54.4452 916.632 Q51.4215 913.863 46.2016 913.863 L25.9905 913.863 L25.9905 908.006 L61.6384 908.006 L61.6384 913.863 L56.1639 913.863 Q59.4104 915.995 61.0019 918.828 Q62.5615 921.629 62.5615 925.353 Q62.5615 931.496 58.742 934.678 Q54.9226 937.861 47.5702 937.861 M25.1311 923.125 L25.1311 923.125 Z" fill="#000000" fill-rule="nonzero" fill-opacity="1" /><path clip-path="url(#clip620)" d="M40.1224 866.311 L61.6384 866.311 L61.6384 872.167 L40.3133 872.167 Q35.2526 872.167 32.7381 874.141 Q30.2237 876.114 30.2237 880.061 Q30.2237 884.803 33.2474 887.54 Q36.2711 890.278 41.491 890.278 L61.6384 890.278 L61.6384 896.166 L25.9905 896.166 L25.9905 890.278 L31.5287 890.278 Q28.314 888.177 26.7225 885.344 Q25.1311 882.48 25.1311 878.756 Q25.1311 872.613 28.9505 869.462 Q32.7381 866.311 40.1224 866.311 Z" fill="#000000" fill-rule="nonzero" fill-opacity="1" /><path clip-path="url(#clip620)" d="M15.869 848.837 L25.9905 848.837 L25.9905 836.774 L30.542 836.774 L30.542 848.837 L49.8937 848.837 Q54.2542 848.837 55.4955 847.659 Q56.7368 846.45 56.7368 842.79 L56.7368 836.774 L61.6384 836.774 L61.6384 842.79 Q61.6384 849.569 59.124 852.147 Q56.5777 854.725 49.8937 854.725 L30.542 854.725 L30.542 859.022 L25.9905 859.022 L25.9905 854.725 L15.869 854.725 L15.869 848.837 Z" fill="#000000" fill-rule="nonzero" fill-opacity="1" /><path clip-path="url(#clip620)" d="M976.891 43.6931 L976.891 65.8515 L990.016 65.8515 Q996.619 65.8515 999.779 63.1374 Q1002.98 60.3828 1002.98 54.752 Q1002.98 49.0808 999.779 46.4072 Q996.619 43.6931 990.016 43.6931 L976.891 43.6931 M976.891 18.8205 L976.891 37.0496 L989.003 37.0496 Q994.999 37.0496 997.915 34.8216 Q1000.87 32.5531 1000.87 27.935 Q1000.87 23.3575 997.915 21.089 Q994.999 18.8205 989.003 18.8205 L976.891 18.8205 M968.708 12.096 L989.611 12.096 Q998.968 12.096 1004.03 15.9849 Q1009.1 19.8737 1009.1 27.0438 Q1009.1 32.5936 1006.5 35.8748 Q1003.91 39.156 998.887 39.9662 Q1004.92 41.2625 1008.25 45.3944 Q1011.61 49.4858 1011.61 55.6432 Q1011.61 63.745 1006.1 68.1605 Q1000.59 72.576 990.421 72.576 L968.708 72.576 L968.708 12.096 Z" fill="#000000" fill-rule="nonzero" fill-opacity="1" /><path clip-path="url(#clip620)" d="M1045.84 20.1573 L1034.74 50.2555 L1056.98 50.2555 L1045.84 20.1573 M1041.22 12.096 L1050.5 12.096 L1073.55 72.576 L1065.04 72.576 L1059.53 57.061 L1032.27 57.061 L1026.76 72.576 L1018.13 72.576 L1041.22 12.096 Z" fill="#000000" fill-rule="nonzero" fill-opacity="1" /><path clip-path="url(#clip620)" d="M1138.28 34.0924 L1138.28 9.54393 L1145.73 9.54393 L1145.73 72.576 L1138.28 72.576 L1138.28 65.7705 Q1135.93 69.8214 1132.32 71.8063 Q1128.76 73.7508 1123.74 73.7508 Q1115.51 73.7508 1110.33 67.1883 Q1105.18 60.6258 1105.18 49.9314 Q1105.18 39.2371 1110.33 32.6746 Q1115.51 26.1121 1123.74 26.1121 Q1128.76 26.1121 1132.32 28.0971 Q1135.93 30.0415 1138.28 34.0924 M1112.88 49.9314 Q1112.88 58.1548 1116.24 62.8538 Q1119.64 67.5124 1125.56 67.5124 Q1131.47 67.5124 1134.88 62.8538 Q1138.28 58.1548 1138.28 49.9314 Q1138.28 41.7081 1134.88 37.0496 Q1131.47 32.3505 1125.56 32.3505 Q1119.64 32.3505 1116.24 37.0496 Q1112.88 41.7081 1112.88 49.9314 Z" fill="#000000" fill-rule="nonzero" fill-opacity="1" /><path clip-path="url(#clip620)" d="M1199.89 48.0275 L1199.89 51.6733 L1165.62 51.6733 Q1166.11 59.3701 1170.24 63.421 Q1174.41 67.4314 1181.83 67.4314 Q1186.12 67.4314 1190.13 66.3781 Q1194.18 65.3249 1198.15 63.2184 L1198.15 70.267 Q1194.14 71.9684 1189.93 72.8596 Q1185.72 73.7508 1181.38 73.7508 Q1170.52 73.7508 1164.16 67.4314 Q1157.84 61.1119 1157.84 50.3365 Q1157.84 39.1965 1163.84 32.6746 Q1169.88 26.1121 1180.08 26.1121 Q1189.24 26.1121 1194.55 32.0264 Q1199.89 37.9003 1199.89 48.0275 M1192.44 45.84 Q1192.36 39.7232 1189 36.0774 Q1185.67 32.4315 1180.17 32.4315 Q1173.93 32.4315 1170.16 35.9558 Q1166.43 39.4801 1165.87 45.8805 L1192.44 45.84 Z" fill="#000000" fill-rule="nonzero" fill-opacity="1" /><path clip-path="url(#clip620)" d="M1241.98 49.3643 Q1241.98 41.2625 1238.62 36.8065 Q1235.3 32.3505 1229.26 32.3505 Q1223.27 32.3505 1219.9 36.8065 Q1216.58 41.2625 1216.58 49.3643 Q1216.58 57.4256 1219.9 61.8816 Q1223.27 66.3376 1229.26 66.3376 Q1235.3 66.3376 1238.62 61.8816 Q1241.98 57.4256 1241.98 49.3643 M1249.44 66.9452 Q1249.44 78.5308 1244.29 84.1616 Q1239.15 89.8329 1228.53 89.8329 Q1224.6 89.8329 1221.12 89.2252 Q1217.64 88.6581 1214.36 87.4428 L1214.36 80.1917 Q1217.64 81.9741 1220.84 82.8248 Q1224.04 83.6755 1227.36 83.6755 Q1234.69 83.6755 1238.34 79.8271 Q1241.98 76.0193 1241.98 68.282 L1241.98 64.5957 Q1239.67 68.6061 1236.07 70.5911 Q1232.46 72.576 1227.44 72.576 Q1219.09 72.576 1213.99 66.2161 Q1208.89 59.8562 1208.89 49.3643 Q1208.89 38.832 1213.99 32.472 Q1219.09 26.1121 1227.44 26.1121 Q1232.46 26.1121 1236.07 28.0971 Q1239.67 30.082 1241.98 34.0924 L1241.98 27.2059 L1249.44 27.2059 L1249.44 66.9452 Z" fill="#000000" fill-rule="nonzero" fill-opacity="1" /><path clip-path="url(#clip620)" d="M1291.08 34.1734 Q1289.82 33.4443 1288.32 33.1202 Q1286.87 32.7556 1285.08 32.7556 Q1278.76 32.7556 1275.36 36.8875 Q1272 40.9789 1272 48.6757 L1272 72.576 L1264.51 72.576 L1264.51 27.2059 L1272 27.2059 L1272 34.2544 Q1274.35 30.1225 1278.12 28.1376 Q1281.88 26.1121 1287.27 26.1121 Q1288.04 26.1121 1288.97 26.2337 Q1289.9 26.3147 1291.04 26.5172 L1291.08 34.1734 Z" fill="#000000" fill-rule="nonzero" fill-opacity="1" /><path clip-path="url(#clip620)" d="M1335.88 48.0275 L1335.88 51.6733 L1301.61 51.6733 Q1302.1 59.3701 1306.23 63.421 Q1310.4 67.4314 1317.82 67.4314 Q1322.11 67.4314 1326.12 66.3781 Q1330.17 65.3249 1334.14 63.2184 L1334.14 70.267 Q1330.13 71.9684 1325.92 72.8596 Q1321.7 73.7508 1317.37 73.7508 Q1306.51 73.7508 1300.15 67.4314 Q1293.83 61.1119 1293.83 50.3365 Q1293.83 39.1965 1299.83 32.6746 Q1305.87 26.1121 1316.07 26.1121 Q1325.23 26.1121 1330.54 32.0264 Q1335.88 37.9003 1335.88 48.0275 M1328.43 45.84 Q1328.35 39.7232 1324.99 36.0774 Q1321.66 32.4315 1316.15 32.4315 Q1309.92 32.4315 1306.15 35.9558 Q1302.42 39.4801 1301.85 45.8805 L1328.43 45.84 Z" fill="#000000" fill-rule="nonzero" fill-opacity="1" /><path clip-path="url(#clip620)" d="M1386.92 48.0275 L1386.92 51.6733 L1352.65 51.6733 Q1353.14 59.3701 1357.27 63.421 Q1361.44 67.4314 1368.86 67.4314 Q1373.15 67.4314 1377.16 66.3781 Q1381.21 65.3249 1385.18 63.2184 L1385.18 70.267 Q1381.17 71.9684 1376.96 72.8596 Q1372.75 73.7508 1368.41 73.7508 Q1357.55 73.7508 1351.19 67.4314 Q1344.88 61.1119 1344.88 50.3365 Q1344.88 39.1965 1350.87 32.6746 Q1356.91 26.1121 1367.11 26.1121 Q1376.27 26.1121 1381.58 32.0264 Q1386.92 37.9003 1386.92 48.0275 M1379.47 45.84 Q1379.39 39.7232 1376.03 36.0774 Q1372.7 32.4315 1367.2 32.4315 Q1360.96 32.4315 1357.19 35.9558 Q1353.46 39.4801 1352.9 45.8805 L1379.47 45.84 Z" fill="#000000" fill-rule="nonzero" fill-opacity="1" /><path clip-path="url(#clip620)" d="M1455.38 34.0924 L1455.38 9.54393 L1462.84 9.54393 L1462.84 72.576 L1455.38 72.576 L1455.38 65.7705 Q1453.03 69.8214 1449.43 71.8063 Q1445.86 73.7508 1440.84 73.7508 Q1432.62 73.7508 1427.43 67.1883 Q1422.29 60.6258 1422.29 49.9314 Q1422.29 39.2371 1427.43 32.6746 Q1432.62 26.1121 1440.84 26.1121 Q1445.86 26.1121 1449.43 28.0971 Q1453.03 30.0415 1455.38 34.0924 M1429.98 49.9314 Q1429.98 58.1548 1433.35 62.8538 Q1436.75 67.5124 1442.66 67.5124 Q1448.58 67.5124 1451.98 62.8538 Q1455.38 58.1548 1455.38 49.9314 Q1455.38 41.7081 1451.98 37.0496 Q1448.58 32.3505 1442.66 32.3505 Q1436.75 32.3505 1433.35 37.0496 Q1429.98 41.7081 1429.98 49.9314 Z" fill="#000000" fill-rule="nonzero" fill-opacity="1" /><path clip-path="url(#clip620)" d="M1478.19 27.2059 L1485.64 27.2059 L1485.64 72.576 L1478.19 72.576 L1478.19 27.2059 M1478.19 9.54393 L1485.64 9.54393 L1485.64 18.9825 L1478.19 18.9825 L1478.19 9.54393 Z" fill="#000000" fill-rule="nonzero" fill-opacity="1" /><path clip-path="url(#clip620)" d="M1530.16 28.5427 L1530.16 35.5912 Q1527 33.9709 1523.6 33.1607 Q1520.2 32.3505 1516.55 32.3505 Q1511 32.3505 1508.21 34.0519 Q1505.45 35.7533 1505.45 39.156 Q1505.45 41.7486 1507.44 43.2475 Q1509.42 44.7058 1515.42 46.0426 L1517.97 46.6097 Q1525.91 48.3111 1529.23 51.4303 Q1532.59 54.509 1532.59 60.0587 Q1532.59 66.3781 1527.57 70.0644 Q1522.59 73.7508 1513.84 73.7508 Q1510.19 73.7508 1506.22 73.0216 Q1502.29 72.3329 1497.92 70.9151 L1497.92 63.2184 Q1502.05 65.3654 1506.06 66.4591 Q1510.07 67.5124 1514 67.5124 Q1519.27 67.5124 1522.1 65.73 Q1524.94 63.9071 1524.94 60.6258 Q1524.94 57.5877 1522.87 55.9673 Q1520.85 54.3469 1513.92 52.8481 L1511.33 52.2405 Q1504.4 50.7821 1501.32 47.7845 Q1498.24 44.7463 1498.24 39.4801 Q1498.24 33.0797 1502.78 29.5959 Q1507.32 26.1121 1515.66 26.1121 Q1519.79 26.1121 1523.44 26.7198 Q1527.08 27.3274 1530.16 28.5427 Z" fill="#000000" fill-rule="nonzero" fill-opacity="1" /><path clip-path="url(#clip620)" d="M1551.84 14.324 L1551.84 27.2059 L1567.19 27.2059 L1567.19 32.9987 L1551.84 32.9987 L1551.84 57.6282 Q1551.84 63.1779 1553.33 64.7578 Q1554.87 66.3376 1559.53 66.3376 L1567.19 66.3376 L1567.19 72.576 L1559.53 72.576 Q1550.9 72.576 1547.62 69.3758 Q1544.34 66.1351 1544.34 57.6282 L1544.34 32.9987 L1538.87 32.9987 L1538.87 27.2059 L1544.34 27.2059 L1544.34 14.324 L1551.84 14.324 Z" fill="#000000" fill-rule="nonzero" fill-opacity="1" /><path clip-path="url(#clip620)" d="M1603.28 34.1734 Q1602.03 33.4443 1600.53 33.1202 Q1599.07 32.7556 1597.29 32.7556 Q1590.97 32.7556 1587.56 36.8875 Q1584.2 40.9789 1584.2 48.6757 L1584.2 72.576 L1576.71 72.576 L1576.71 27.2059 L1584.2 27.2059 L1584.2 34.2544 Q1586.55 30.1225 1590.32 28.1376 Q1594.09 26.1121 1599.47 26.1121 Q1600.24 26.1121 1601.18 26.2337 Q1602.11 26.3147 1603.24 26.5172 L1603.28 34.1734 Z" fill="#000000" fill-rule="nonzero" fill-opacity="1" /><path clip-path="url(#clip620)" d="M1611.1 27.2059 L1618.55 27.2059 L1618.55 72.576 L1611.1 72.576 L1611.1 27.2059 M1611.1 9.54393 L1618.55 9.54393 L1618.55 18.9825 L1611.1 18.9825 L1611.1 9.54393 Z" fill="#000000" fill-rule="nonzero" fill-opacity="1" /><path clip-path="url(#clip620)" d="M1666.72 49.9314 Q1666.72 41.7081 1663.32 37.0496 Q1659.95 32.3505 1654.04 32.3505 Q1648.13 32.3505 1644.72 37.0496 Q1641.36 41.7081 1641.36 49.9314 Q1641.36 58.1548 1644.72 62.8538 Q1648.13 67.5124 1654.04 67.5124 Q1659.95 67.5124 1663.32 62.8538 Q1666.72 58.1548 1666.72 49.9314 M1641.36 34.0924 Q1643.71 30.0415 1647.28 28.0971 Q1650.88 26.1121 1655.86 26.1121 Q1664.13 26.1121 1669.27 32.6746 Q1674.46 39.2371 1674.46 49.9314 Q1674.46 60.6258 1669.27 67.1883 Q1664.13 73.7508 1655.86 73.7508 Q1650.88 73.7508 1647.28 71.8063 Q1643.71 69.8214 1641.36 65.7705 L1641.36 72.576 L1633.87 72.576 L1633.87 9.54393 L1641.36 9.54393 L1641.36 34.0924 Z" fill="#000000" fill-rule="nonzero" fill-opacity="1" /><path clip-path="url(#clip620)" d="M1686.04 54.671 L1686.04 27.2059 L1693.5 27.2059 L1693.5 54.3874 Q1693.5 60.8284 1696.01 64.0691 Q1698.52 67.2693 1703.54 67.2693 Q1709.58 67.2693 1713.06 63.421 Q1716.59 59.5726 1716.59 52.9291 L1716.59 27.2059 L1724.04 27.2059 L1724.04 72.576 L1716.59 72.576 L1716.59 65.6084 Q1713.87 69.7404 1710.27 71.7658 Q1706.7 73.7508 1701.96 73.7508 Q1694.14 73.7508 1690.09 68.8897 Q1686.04 64.0286 1686.04 54.671 M1704.8 26.1121 L1704.8 26.1121 Z" fill="#000000" fill-rule="nonzero" fill-opacity="1" /><path clip-path="url(#clip620)" d="M1746.77 14.324 L1746.77 27.2059 L1762.12 27.2059 L1762.12 32.9987 L1746.77 32.9987 L1746.77 57.6282 Q1746.77 63.1779 1748.26 64.7578 Q1749.8 66.3376 1754.46 66.3376 L1762.12 66.3376 L1762.12 72.576 L1754.46 72.576 Q1745.83 72.576 1742.55 69.3758 Q1739.27 66.1351 1739.27 57.6282 L1739.27 32.9987 L1733.8 32.9987 L1733.8 27.2059 L1739.27 27.2059 L1739.27 14.324 L1746.77 14.324 Z" fill="#000000" fill-rule="nonzero" fill-opacity="1" /><path clip-path="url(#clip620)" d="M1771.92 27.2059 L1779.38 27.2059 L1779.38 72.576 L1771.92 72.576 L1771.92 27.2059 M1771.92 9.54393 L1779.38 9.54393 L1779.38 18.9825 L1771.92 18.9825 L1771.92 9.54393 Z" fill="#000000" fill-rule="nonzero" fill-opacity="1" /><path clip-path="url(#clip620)" d="M1812.55 32.4315 Q1806.56 32.4315 1803.07 37.1306 Q1799.59 41.7891 1799.59 49.9314 Q1799.59 58.0738 1803.03 62.7728 Q1806.52 67.4314 1812.55 67.4314 Q1818.51 67.4314 1821.99 62.7323 Q1825.47 58.0333 1825.47 49.9314 Q1825.47 41.8701 1821.99 37.1711 Q1818.51 32.4315 1812.55 32.4315 M1812.55 26.1121 Q1822.27 26.1121 1827.82 32.4315 Q1833.37 38.7509 1833.37 49.9314 Q1833.37 61.0714 1827.82 67.4314 Q1822.27 73.7508 1812.55 73.7508 Q1802.79 73.7508 1797.24 67.4314 Q1791.73 61.0714 1791.73 49.9314 Q1791.73 38.7509 1797.24 32.4315 Q1802.79 26.1121 1812.55 26.1121 Z" fill="#000000" fill-rule="nonzero" fill-opacity="1" /><path clip-path="url(#clip620)" d="M1883.44 45.1919 L1883.44 72.576 L1875.99 72.576 L1875.99 45.4349 Q1875.99 38.994 1873.48 35.7938 Q1870.97 32.5936 1865.94 32.5936 Q1859.91 32.5936 1856.42 36.4419 Q1852.94 40.2903 1852.94 46.9338 L1852.94 72.576 L1845.45 72.576 L1845.45 27.2059 L1852.94 27.2059 L1852.94 34.2544 Q1855.61 30.163 1859.22 28.1376 Q1862.86 26.1121 1867.6 26.1121 Q1875.42 26.1121 1879.43 30.9732 Q1883.44 35.7938 1883.44 45.1919 Z" fill="#000000" fill-rule="nonzero" fill-opacity="1" /><path clip-path="url(#clip621)" d="M345.014 127.792 L345.014 1734.12 L389.139 1734.12 L389.139 127.792 L345.014 127.792 L345.014 127.792  Z" fill="#4682b4" fill-rule="evenodd" fill-opacity="1"/>
<polyline clip-path="url(#clip621)" style="stroke:#000000; stroke-linecap:round; stroke-linejoin:round; stroke-width:4; stroke-opacity:1; fill:none" points="345.014,127.792 345.014,1734.12 389.139,1734.12 389.139,127.792 345.014,127.792 "/>
<path clip-path="url(#clip621)" d="M389.139 921.039 L389.139 1734.12 L433.264 1734.12 L433.264 921.039 L389.139 921.039 L389.139 921.039  Z" fill="#4682b4" fill-rule="evenodd" fill-opacity="1"/>
<polyline clip-path="url(#clip621)" style="stroke:#000000; stroke-linecap:round; stroke-linejoin:round; stroke-width:4; stroke-opacity:1; fill:none" points="389.139,921.039 389.139,1734.12 433.264,1734.12 433.264,921.039 389.139,921.039 "/>
<path clip-path="url(#clip621)" d="M433.264 1357.32 L433.264 1734.12 L477.389 1734.12 L477.389 1357.32 L433.264 1357.32 L433.264 1357.32  Z" fill="#4682b4" fill-rule="evenodd" fill-opacity="1"/>
<polyline clip-path="url(#clip621)" style="stroke:#000000; stroke-linecap:round; stroke-linejoin:round; stroke-width:4; stroke-opacity:1; fill:none" points="433.264,1357.32 433.264,1734.12 477.389,1734.12 477.389,1357.32 433.264,1357.32 "/>
<path clip-path="url(#clip621)" d="M477.389 1337.49 L477.389 1734.12 L521.514 1734.12 L521.514 1337.49 L477.389 1337.49 L477.389 1337.49  Z" fill="#4682b4" fill-rule="evenodd" fill-opacity="1"/>
<polyline clip-path="url(#clip621)" style="stroke:#000000; stroke-linecap:round; stroke-linejoin:round; stroke-width:4; stroke-opacity:1; fill:none" points="477.389,1337.49 477.389,1734.12 521.514,1734.12 521.514,1337.49 477.389,1337.49 "/>
<path clip-path="url(#clip621)" d="M521.514 1575.47 L521.514 1734.12 L565.639 1734.12 L565.639 1575.47 L521.514 1575.47 L521.514 1575.47  Z" fill="#4682b4" fill-rule="evenodd" fill-opacity="1"/>
<polyline clip-path="url(#clip621)" style="stroke:#000000; stroke-linecap:round; stroke-linejoin:round; stroke-width:4; stroke-opacity:1; fill:none" points="521.514,1575.47 521.514,1734.12 565.639,1734.12 565.639,1575.47 521.514,1575.47 "/>
<path clip-path="url(#clip621)" d="M565.639 1654.79 L565.639 1734.12 L609.764 1734.12 L609.764 1654.79 L565.639 1654.79 L565.639 1654.79  Z" fill="#4682b4" fill-rule="evenodd" fill-opacity="1"/>
<polyline clip-path="url(#clip621)" style="stroke:#000000; stroke-linecap:round; stroke-linejoin:round; stroke-width:4; stroke-opacity:1; fill:none" points="565.639,1654.79 565.639,1734.12 609.764,1734.12 609.764,1654.79 565.639,1654.79 "/>
<path clip-path="url(#clip621)" d="M609.764 1634.96 L609.764 1734.12 L653.889 1734.12 L653.889 1634.96 L609.764 1634.96 L609.764 1634.96  Z" fill="#4682b4" fill-rule="evenodd" fill-opacity="1"/>
<polyline clip-path="url(#clip621)" style="stroke:#000000; stroke-linecap:round; stroke-linejoin:round; stroke-width:4; stroke-opacity:1; fill:none" points="609.764,1634.96 609.764,1734.12 653.889,1734.12 653.889,1634.96 609.764,1634.96 "/>
<path clip-path="url(#clip621)" d="M653.889 1694.45 L653.889 1734.12 L698.014 1734.12 L698.014 1694.45 L653.889 1694.45 L653.889 1694.45  Z" fill="#4682b4" fill-rule="evenodd" fill-opacity="1"/>
<polyline clip-path="url(#clip621)" style="stroke:#000000; stroke-linecap:round; stroke-linejoin:round; stroke-width:4; stroke-opacity:1; fill:none" points="653.889,1694.45 653.889,1734.12 698.014,1734.12 698.014,1694.45 653.889,1694.45 "/>
<path clip-path="url(#clip621)" d="M698.014 1654.79 L698.014 1734.12 L742.139 1734.12 L742.139 1654.79 L698.014 1654.79 L698.014 1654.79  Z" fill="#4682b4" fill-rule="evenodd" fill-opacity="1"/>
<polyline clip-path="url(#clip621)" style="stroke:#000000; stroke-linecap:round; stroke-linejoin:round; stroke-width:4; stroke-opacity:1; fill:none" points="698.014,1654.79 698.014,1734.12 742.139,1734.12 742.139,1654.79 698.014,1654.79 "/>
<path clip-path="url(#clip621)" d="M742.139 1714.29 L742.139 1734.12 L786.264 1734.12 L786.264 1714.29 L742.139 1714.29 L742.139 1714.29  Z" fill="#4682b4" fill-rule="evenodd" fill-opacity="1"/>
<polyline clip-path="url(#clip621)" style="stroke:#000000; stroke-linecap:round; stroke-linejoin:round; stroke-width:4; stroke-opacity:1; fill:none" points="742.139,1714.29 742.139,1734.12 786.264,1734.12 786.264,1714.29 742.139,1714.29 "/>
<path clip-path="url(#clip621)" d="M786.264 1654.79 L786.264 1734.12 L830.389 1734.12 L830.389 1654.79 L786.264 1654.79 L786.264 1654.79  Z" fill="#4682b4" fill-rule="evenodd" fill-opacity="1"/>
<polyline clip-path="url(#clip621)" style="stroke:#000000; stroke-linecap:round; stroke-linejoin:round; stroke-width:4; stroke-opacity:1; fill:none" points="786.264,1654.79 786.264,1734.12 830.389,1734.12 830.389,1654.79 786.264,1654.79 "/>
<path clip-path="url(#clip621)" d="M830.389 1734.12 L830.389 1734.12 L874.514 1734.12 L874.514 1734.12 L830.389 1734.12 L830.389 1734.12  Z" fill="#4682b4" fill-rule="evenodd" fill-opacity="1"/>
<polyline clip-path="url(#clip621)" style="stroke:#000000; stroke-linecap:round; stroke-linejoin:round; stroke-width:4; stroke-opacity:1; fill:none" points="830.389,1734.12 830.389,1734.12 874.514,1734.12 830.389,1734.12 "/>
<path clip-path="url(#clip621)" d="M874.514 1734.12 L874.514 1734.12 L918.639 1734.12 L918.639 1734.12 L874.514 1734.12 L874.514 1734.12  Z" fill="#4682b4" fill-rule="evenodd" fill-opacity="1"/>
<polyline clip-path="url(#clip621)" style="stroke:#000000; stroke-linecap:round; stroke-linejoin:round; stroke-width:4; stroke-opacity:1; fill:none" points="874.514,1734.12 874.514,1734.12 918.639,1734.12 874.514,1734.12 "/>
<path clip-path="url(#clip621)" d="M918.639 1734.12 L918.639 1734.12 L962.764 1734.12 L962.764 1734.12 L918.639 1734.12 L918.639 1734.12  Z" fill="#4682b4" fill-rule="evenodd" fill-opacity="1"/>
<polyline clip-path="url(#clip621)" style="stroke:#000000; stroke-linecap:round; stroke-linejoin:round; stroke-width:4; stroke-opacity:1; fill:none" points="918.639,1734.12 918.639,1734.12 962.764,1734.12 918.639,1734.12 "/>
<path clip-path="url(#clip621)" d="M962.764 1714.29 L962.764 1734.12 L1006.89 1734.12 L1006.89 1714.29 L962.764 1714.29 L962.764 1714.29  Z" fill="#4682b4" fill-rule="evenodd" fill-opacity="1"/>
<polyline clip-path="url(#clip621)" style="stroke:#000000; stroke-linecap:round; stroke-linejoin:round; stroke-width:4; stroke-opacity:1; fill:none" points="962.764,1714.29 962.764,1734.12 1006.89,1734.12 1006.89,1714.29 962.764,1714.29 "/>
<path clip-path="url(#clip621)" d="M1006.89 1734.12 L1006.89 1734.12 L1051.01 1734.12 L1051.01 1734.12 L1006.89 1734.12 L1006.89 1734.12  Z" fill="#4682b4" fill-rule="evenodd" fill-opacity="1"/>
<polyline clip-path="url(#clip621)" style="stroke:#000000; stroke-linecap:round; stroke-linejoin:round; stroke-width:4; stroke-opacity:1; fill:none" points="1006.89,1734.12 1006.89,1734.12 1051.01,1734.12 1006.89,1734.12 "/>
<path clip-path="url(#clip621)" d="M1051.01 1734.12 L1051.01 1734.12 L1095.14 1734.12 L1095.14 1734.12 L1051.01 1734.12 L1051.01 1734.12  Z" fill="#4682b4" fill-rule="evenodd" fill-opacity="1"/>
<polyline clip-path="url(#clip621)" style="stroke:#000000; stroke-linecap:round; stroke-linejoin:round; stroke-width:4; stroke-opacity:1; fill:none" points="1051.01,1734.12 1051.01,1734.12 1095.14,1734.12 1051.01,1734.12 "/>
<path clip-path="url(#clip621)" d="M1095.14 1694.45 L1095.14 1734.12 L1139.26 1734.12 L1139.26 1694.45 L1095.14 1694.45 L1095.14 1694.45  Z" fill="#4682b4" fill-rule="evenodd" fill-opacity="1"/>
<polyline clip-path="url(#clip621)" style="stroke:#000000; stroke-linecap:round; stroke-linejoin:round; stroke-width:4; stroke-opacity:1; fill:none" points="1095.14,1694.45 1095.14,1734.12 1139.26,1734.12 1139.26,1694.45 1095.14,1694.45 "/>
<path clip-path="url(#clip621)" d="M1139.26 1734.12 L1139.26 1734.12 L1183.39 1734.12 L1183.39 1734.12 L1139.26 1734.12 L1139.26 1734.12  Z" fill="#4682b4" fill-rule="evenodd" fill-opacity="1"/>
<polyline clip-path="url(#clip621)" style="stroke:#000000; stroke-linecap:round; stroke-linejoin:round; stroke-width:4; stroke-opacity:1; fill:none" points="1139.26,1734.12 1139.26,1734.12 1183.39,1734.12 1139.26,1734.12 "/>
<path clip-path="url(#clip621)" d="M1183.39 1734.12 L1183.39 1734.12 L1227.51 1734.12 L1227.51 1734.12 L1183.39 1734.12 L1183.39 1734.12  Z" fill="#4682b4" fill-rule="evenodd" fill-opacity="1"/>
<polyline clip-path="url(#clip621)" style="stroke:#000000; stroke-linecap:round; stroke-linejoin:round; stroke-width:4; stroke-opacity:1; fill:none" points="1183.39,1734.12 1183.39,1734.12 1227.51,1734.12 1183.39,1734.12 "/>
<path clip-path="url(#clip621)" d="M1227.51 1694.45 L1227.51 1734.12 L1271.64 1734.12 L1271.64 1694.45 L1227.51 1694.45 L1227.51 1694.45  Z" fill="#4682b4" fill-rule="evenodd" fill-opacity="1"/>
<polyline clip-path="url(#clip621)" style="stroke:#000000; stroke-linecap:round; stroke-linejoin:round; stroke-width:4; stroke-opacity:1; fill:none" points="1227.51,1694.45 1227.51,1734.12 1271.64,1734.12 1271.64,1694.45 1227.51,1694.45 "/>
<path clip-path="url(#clip621)" d="M1271.64 1734.12 L1271.64 1734.12 L1315.76 1734.12 L1315.76 1734.12 L1271.64 1734.12 L1271.64 1734.12  Z" fill="#4682b4" fill-rule="evenodd" fill-opacity="1"/>
<polyline clip-path="url(#clip621)" style="stroke:#000000; stroke-linecap:round; stroke-linejoin:round; stroke-width:4; stroke-opacity:1; fill:none" points="1271.64,1734.12 1271.64,1734.12 1315.76,1734.12 1271.64,1734.12 "/>
<path clip-path="url(#clip621)" d="M1315.76 1734.12 L1315.76 1734.12 L1359.89 1734.12 L1359.89 1734.12 L1315.76 1734.12 L1315.76 1734.12  Z" fill="#4682b4" fill-rule="evenodd" fill-opacity="1"/>
<polyline clip-path="url(#clip621)" style="stroke:#000000; stroke-linecap:round; stroke-linejoin:round; stroke-width:4; stroke-opacity:1; fill:none" points="1315.76,1734.12 1315.76,1734.12 1359.89,1734.12 1315.76,1734.12 "/>
<path clip-path="url(#clip621)" d="M1359.89 1694.45 L1359.89 1734.12 L1404.01 1734.12 L1404.01 1694.45 L1359.89 1694.45 L1359.89 1694.45  Z" fill="#4682b4" fill-rule="evenodd" fill-opacity="1"/>
<polyline clip-path="url(#clip621)" style="stroke:#000000; stroke-linecap:round; stroke-linejoin:round; stroke-width:4; stroke-opacity:1; fill:none" points="1359.89,1694.45 1359.89,1734.12 1404.01,1734.12 1404.01,1694.45 1359.89,1694.45 "/>
<path clip-path="url(#clip621)" d="M1404.01 1714.29 L1404.01 1734.12 L1448.14 1734.12 L1448.14 1714.29 L1404.01 1714.29 L1404.01 1714.29  Z" fill="#4682b4" fill-rule="evenodd" fill-opacity="1"/>
<polyline clip-path="url(#clip621)" style="stroke:#000000; stroke-linecap:round; stroke-linejoin:round; stroke-width:4; stroke-opacity:1; fill:none" points="1404.01,1714.29 1404.01,1734.12 1448.14,1734.12 1448.14,1714.29 1404.01,1714.29 "/>
<path clip-path="url(#clip621)" d="M1448.14 1734.12 L1448.14 1734.12 L1492.26 1734.12 L1492.26 1734.12 L1448.14 1734.12 L1448.14 1734.12  Z" fill="#4682b4" fill-rule="evenodd" fill-opacity="1"/>
<polyline clip-path="url(#clip621)" style="stroke:#000000; stroke-linecap:round; stroke-linejoin:round; stroke-width:4; stroke-opacity:1; fill:none" points="1448.14,1734.12 1448.14,1734.12 1492.26,1734.12 1448.14,1734.12 "/>
<path clip-path="url(#clip621)" d="M1492.26 1734.12 L1492.26 1734.12 L1536.39 1734.12 L1536.39 1734.12 L1492.26 1734.12 L1492.26 1734.12  Z" fill="#4682b4" fill-rule="evenodd" fill-opacity="1"/>
<polyline clip-path="url(#clip621)" style="stroke:#000000; stroke-linecap:round; stroke-linejoin:round; stroke-width:4; stroke-opacity:1; fill:none" points="1492.26,1734.12 1492.26,1734.12 1536.39,1734.12 1492.26,1734.12 "/>
<path clip-path="url(#clip621)" d="M1536.39 1714.29 L1536.39 1734.12 L1580.51 1734.12 L1580.51 1714.29 L1536.39 1714.29 L1536.39 1714.29  Z" fill="#4682b4" fill-rule="evenodd" fill-opacity="1"/>
<polyline clip-path="url(#clip621)" style="stroke:#000000; stroke-linecap:round; stroke-linejoin:round; stroke-width:4; stroke-opacity:1; fill:none" points="1536.39,1714.29 1536.39,1734.12 1580.51,1734.12 1580.51,1714.29 1536.39,1714.29 "/>
<path clip-path="url(#clip621)" d="M1580.51 1734.12 L1580.51 1734.12 L1624.64 1734.12 L1624.64 1734.12 L1580.51 1734.12 L1580.51 1734.12  Z" fill="#4682b4" fill-rule="evenodd" fill-opacity="1"/>
<polyline clip-path="url(#clip621)" style="stroke:#000000; stroke-linecap:round; stroke-linejoin:round; stroke-width:4; stroke-opacity:1; fill:none" points="1580.51,1734.12 1580.51,1734.12 1624.64,1734.12 1580.51,1734.12 "/>
<path clip-path="url(#clip621)" d="M1624.64 1734.12 L1624.64 1734.12 L1668.76 1734.12 L1668.76 1734.12 L1624.64 1734.12 L1624.64 1734.12  Z" fill="#4682b4" fill-rule="evenodd" fill-opacity="1"/>
<polyline clip-path="url(#clip621)" style="stroke:#000000; stroke-linecap:round; stroke-linejoin:round; stroke-width:4; stroke-opacity:1; fill:none" points="1624.64,1734.12 1624.64,1734.12 1668.76,1734.12 1624.64,1734.12 "/>
<path clip-path="url(#clip621)" d="M1668.76 1734.12 L1668.76 1734.12 L1712.89 1734.12 L1712.89 1734.12 L1668.76 1734.12 L1668.76 1734.12  Z" fill="#4682b4" fill-rule="evenodd" fill-opacity="1"/>
<polyline clip-path="url(#clip621)" style="stroke:#000000; stroke-linecap:round; stroke-linejoin:round; stroke-width:4; stroke-opacity:1; fill:none" points="1668.76,1734.12 1668.76,1734.12 1712.89,1734.12 1668.76,1734.12 "/>
<path clip-path="url(#clip621)" d="M1712.89 1734.12 L1712.89 1734.12 L1757.01 1734.12 L1757.01 1734.12 L1712.89 1734.12 L1712.89 1734.12  Z" fill="#4682b4" fill-rule="evenodd" fill-opacity="1"/>
<polyline clip-path="url(#clip621)" style="stroke:#000000; stroke-linecap:round; stroke-linejoin:round; stroke-width:4; stroke-opacity:1; fill:none" points="1712.89,1734.12 1712.89,1734.12 1757.01,1734.12 1712.89,1734.12 "/>
<path clip-path="url(#clip621)" d="M1757.01 1734.12 L1757.01 1734.12 L1801.14 1734.12 L1801.14 1734.12 L1757.01 1734.12 L1757.01 1734.12  Z" fill="#4682b4" fill-rule="evenodd" fill-opacity="1"/>
<polyline clip-path="url(#clip621)" style="stroke:#000000; stroke-linecap:round; stroke-linejoin:round; stroke-width:4; stroke-opacity:1; fill:none" points="1757.01,1734.12 1757.01,1734.12 1801.14,1734.12 1757.01,1734.12 "/>
<path clip-path="url(#clip621)" d="M1801.14 1714.29 L1801.14 1734.12 L1845.26 1734.12 L1845.26 1714.29 L1801.14 1714.29 L1801.14 1714.29  Z" fill="#4682b4" fill-rule="evenodd" fill-opacity="1"/>
<polyline clip-path="url(#clip621)" style="stroke:#000000; stroke-linecap:round; stroke-linejoin:round; stroke-width:4; stroke-opacity:1; fill:none" points="1801.14,1714.29 1801.14,1734.12 1845.26,1734.12 1845.26,1714.29 1801.14,1714.29 "/>
<path clip-path="url(#clip621)" d="M1845.26 1734.12 L1845.26 1734.12 L1889.39 1734.12 L1889.39 1734.12 L1845.26 1734.12 L1845.26 1734.12  Z" fill="#4682b4" fill-rule="evenodd" fill-opacity="1"/>
<polyline clip-path="url(#clip621)" style="stroke:#000000; stroke-linecap:round; stroke-linejoin:round; stroke-width:4; stroke-opacity:1; fill:none" points="1845.26,1734.12 1845.26,1734.12 1889.39,1734.12 1845.26,1734.12 "/>
<path clip-path="url(#clip621)" d="M1889.39 1734.12 L1889.39 1734.12 L1933.51 1734.12 L1933.51 1734.12 L1889.39 1734.12 L1889.39 1734.12  Z" fill="#4682b4" fill-rule="evenodd" fill-opacity="1"/>
<polyline clip-path="url(#clip621)" style="stroke:#000000; stroke-linecap:round; stroke-linejoin:round; stroke-width:4; stroke-opacity:1; fill:none" points="1889.39,1734.12 1889.39,1734.12 1933.51,1734.12 1889.39,1734.12 "/>
<path clip-path="url(#clip621)" d="M1933.51 1734.12 L1933.51 1734.12 L1977.64 1734.12 L1977.64 1734.12 L1933.51 1734.12 L1933.51 1734.12  Z" fill="#4682b4" fill-rule="evenodd" fill-opacity="1"/>
<polyline clip-path="url(#clip621)" style="stroke:#000000; stroke-linecap:round; stroke-linejoin:round; stroke-width:4; stroke-opacity:1; fill:none" points="1933.51,1734.12 1933.51,1734.12 1977.64,1734.12 1933.51,1734.12 "/>
<path clip-path="url(#clip621)" d="M1977.64 1734.12 L1977.64 1734.12 L2021.76 1734.12 L2021.76 1734.12 L1977.64 1734.12 L1977.64 1734.12  Z" fill="#4682b4" fill-rule="evenodd" fill-opacity="1"/>
<polyline clip-path="url(#clip621)" style="stroke:#000000; stroke-linecap:round; stroke-linejoin:round; stroke-width:4; stroke-opacity:1; fill:none" points="1977.64,1734.12 1977.64,1734.12 2021.76,1734.12 1977.64,1734.12 "/>
<path clip-path="url(#clip621)" d="M2021.76 1734.12 L2021.76 1734.12 L2065.89 1734.12 L2065.89 1734.12 L2021.76 1734.12 L2021.76 1734.12  Z" fill="#4682b4" fill-rule="evenodd" fill-opacity="1"/>
<polyline clip-path="url(#clip621)" style="stroke:#000000; stroke-linecap:round; stroke-linejoin:round; stroke-width:4; stroke-opacity:1; fill:none" points="2021.76,1734.12 2021.76,1734.12 2065.89,1734.12 2021.76,1734.12 "/>
<path clip-path="url(#clip621)" d="M2065.89 1734.12 L2065.89 1734.12 L2110.01 1734.12 L2110.01 1734.12 L2065.89 1734.12 L2065.89 1734.12  Z" fill="#4682b4" fill-rule="evenodd" fill-opacity="1"/>
<polyline clip-path="url(#clip621)" style="stroke:#000000; stroke-linecap:round; stroke-linejoin:round; stroke-width:4; stroke-opacity:1; fill:none" points="2065.89,1734.12 2065.89,1734.12 2110.01,1734.12 2065.89,1734.12 "/>
<path clip-path="url(#clip621)" d="M2110.01 1734.12 L2110.01 1734.12 L2154.14 1734.12 L2154.14 1734.12 L2110.01 1734.12 L2110.01 1734.12  Z" fill="#4682b4" fill-rule="evenodd" fill-opacity="1"/>
<polyline clip-path="url(#clip621)" style="stroke:#000000; stroke-linecap:round; stroke-linejoin:round; stroke-width:4; stroke-opacity:1; fill:none" points="2110.01,1734.12 2110.01,1734.12 2154.14,1734.12 2110.01,1734.12 "/>
<path clip-path="url(#clip621)" d="M2154.14 1734.12 L2154.14 1734.12 L2198.26 1734.12 L2198.26 1734.12 L2154.14 1734.12 L2154.14 1734.12  Z" fill="#4682b4" fill-rule="evenodd" fill-opacity="1"/>
<polyline clip-path="url(#clip621)" style="stroke:#000000; stroke-linecap:round; stroke-linejoin:round; stroke-width:4; stroke-opacity:1; fill:none" points="2154.14,1734.12 2154.14,1734.12 2198.26,1734.12 2154.14,1734.12 "/>
<path clip-path="url(#clip621)" d="M2198.26 1734.12 L2198.26 1734.12 L2242.39 1734.12 L2242.39 1734.12 L2198.26 1734.12 L2198.26 1734.12  Z" fill="#4682b4" fill-rule="evenodd" fill-opacity="1"/>
<polyline clip-path="url(#clip621)" style="stroke:#000000; stroke-linecap:round; stroke-linejoin:round; stroke-width:4; stroke-opacity:1; fill:none" points="2198.26,1734.12 2198.26,1734.12 2242.39,1734.12 2198.26,1734.12 "/>
<path clip-path="url(#clip621)" d="M2242.39 1734.12 L2242.39 1734.12 L2286.51 1734.12 L2286.51 1734.12 L2242.39 1734.12 L2242.39 1734.12  Z" fill="#4682b4" fill-rule="evenodd" fill-opacity="1"/>
<polyline clip-path="url(#clip621)" style="stroke:#000000; stroke-linecap:round; stroke-linejoin:round; stroke-width:4; stroke-opacity:1; fill:none" points="2242.39,1734.12 2242.39,1734.12 2286.51,1734.12 2242.39,1734.12 "/>
<path clip-path="url(#clip621)" d="M2286.51 1734.12 L2286.51 1734.12 L2330.64 1734.12 L2330.64 1734.12 L2286.51 1734.12 L2286.51 1734.12  Z" fill="#4682b4" fill-rule="evenodd" fill-opacity="1"/>
<polyline clip-path="url(#clip621)" style="stroke:#000000; stroke-linecap:round; stroke-linejoin:round; stroke-width:4; stroke-opacity:1; fill:none" points="2286.51,1734.12 2286.51,1734.12 2330.64,1734.12 2286.51,1734.12 "/>
<path clip-path="url(#clip621)" d="M2330.64 1734.12 L2330.64 1734.12 L2374.76 1734.12 L2374.76 1734.12 L2330.64 1734.12 L2330.64 1734.12  Z" fill="#4682b4" fill-rule="evenodd" fill-opacity="1"/>
<polyline clip-path="url(#clip621)" style="stroke:#000000; stroke-linecap:round; stroke-linejoin:round; stroke-width:4; stroke-opacity:1; fill:none" points="2330.64,1734.12 2330.64,1734.12 2374.76,1734.12 2330.64,1734.12 "/>
<path clip-path="url(#clip621)" d="M2374.76 1734.12 L2374.76 1734.12 L2418.89 1734.12 L2418.89 1734.12 L2374.76 1734.12 L2374.76 1734.12  Z" fill="#4682b4" fill-rule="evenodd" fill-opacity="1"/>
<polyline clip-path="url(#clip621)" style="stroke:#000000; stroke-linecap:round; stroke-linejoin:round; stroke-width:4; stroke-opacity:1; fill:none" points="2374.76,1734.12 2374.76,1734.12 2418.89,1734.12 2374.76,1734.12 "/>
<path clip-path="url(#clip621)" d="M2418.89 1734.12 L2418.89 1734.12 L2463.01 1734.12 L2463.01 1734.12 L2418.89 1734.12 L2418.89 1734.12  Z" fill="#4682b4" fill-rule="evenodd" fill-opacity="1"/>
<polyline clip-path="url(#clip621)" style="stroke:#000000; stroke-linecap:round; stroke-linejoin:round; stroke-width:4; stroke-opacity:1; fill:none" points="2418.89,1734.12 2418.89,1734.12 2463.01,1734.12 2418.89,1734.12 "/>
<path clip-path="url(#clip621)" d="M2463.01 1714.29 L2463.01 1734.12 L2507.14 1734.12 L2507.14 1714.29 L2463.01 1714.29 L2463.01 1714.29  Z" fill="#4682b4" fill-rule="evenodd" fill-opacity="1"/>
<polyline clip-path="url(#clip621)" style="stroke:#000000; stroke-linecap:round; stroke-linejoin:round; stroke-width:4; stroke-opacity:1; fill:none" points="2463.01,1714.29 2463.01,1734.12 2507.14,1734.12 2507.14,1714.29 2463.01,1714.29 "/>
<circle clip-path="url(#clip621)" style="fill:#4682b4; stroke:none; fill-opacity:0" cx="367.077" cy="127.792" r="2"/>
<circle clip-path="url(#clip621)" style="fill:#4682b4; stroke:none; fill-opacity:0" cx="411.202" cy="921.039" r="2"/>
<circle clip-path="url(#clip621)" style="fill:#4682b4; stroke:none; fill-opacity:0" cx="455.327" cy="1357.32" r="2"/>
<circle clip-path="url(#clip621)" style="fill:#4682b4; stroke:none; fill-opacity:0" cx="499.452" cy="1337.49" r="2"/>
<circle clip-path="url(#clip621)" style="fill:#4682b4; stroke:none; fill-opacity:0" cx="543.577" cy="1575.47" r="2"/>
<circle clip-path="url(#clip621)" style="fill:#4682b4; stroke:none; fill-opacity:0" cx="587.702" cy="1654.79" r="2"/>
<circle clip-path="url(#clip621)" style="fill:#4682b4; stroke:none; fill-opacity:0" cx="631.827" cy="1634.96" r="2"/>
<circle clip-path="url(#clip621)" style="fill:#4682b4; stroke:none; fill-opacity:0" cx="675.952" cy="1694.45" r="2"/>
<circle clip-path="url(#clip621)" style="fill:#4682b4; stroke:none; fill-opacity:0" cx="720.076" cy="1654.79" r="2"/>
<circle clip-path="url(#clip621)" style="fill:#4682b4; stroke:none; fill-opacity:0" cx="764.201" cy="1714.29" r="2"/>
<circle clip-path="url(#clip621)" style="fill:#4682b4; stroke:none; fill-opacity:0" cx="808.326" cy="1654.79" r="2"/>
<circle clip-path="url(#clip621)" style="fill:#4682b4; stroke:none; fill-opacity:0" cx="852.451" cy="1734.12" r="2"/>
<circle clip-path="url(#clip621)" style="fill:#4682b4; stroke:none; fill-opacity:0" cx="896.576" cy="1734.12" r="2"/>
<circle clip-path="url(#clip621)" style="fill:#4682b4; stroke:none; fill-opacity:0" cx="940.701" cy="1734.12" r="2"/>
<circle clip-path="url(#clip621)" style="fill:#4682b4; stroke:none; fill-opacity:0" cx="984.826" cy="1714.29" r="2"/>
<circle clip-path="url(#clip621)" style="fill:#4682b4; stroke:none; fill-opacity:0" cx="1028.95" cy="1734.12" r="2"/>
<circle clip-path="url(#clip621)" style="fill:#4682b4; stroke:none; fill-opacity:0" cx="1073.08" cy="1734.12" r="2"/>
<circle clip-path="url(#clip621)" style="fill:#4682b4; stroke:none; fill-opacity:0" cx="1117.2" cy="1694.45" r="2"/>
<circle clip-path="url(#clip621)" style="fill:#4682b4; stroke:none; fill-opacity:0" cx="1161.33" cy="1734.12" r="2"/>
<circle clip-path="url(#clip621)" style="fill:#4682b4; stroke:none; fill-opacity:0" cx="1205.45" cy="1734.12" r="2"/>
<circle clip-path="url(#clip621)" style="fill:#4682b4; stroke:none; fill-opacity:0" cx="1249.58" cy="1694.45" r="2"/>
<circle clip-path="url(#clip621)" style="fill:#4682b4; stroke:none; fill-opacity:0" cx="1293.7" cy="1734.12" r="2"/>
<circle clip-path="url(#clip621)" style="fill:#4682b4; stroke:none; fill-opacity:0" cx="1337.83" cy="1734.12" r="2"/>
<circle clip-path="url(#clip621)" style="fill:#4682b4; stroke:none; fill-opacity:0" cx="1381.95" cy="1694.45" r="2"/>
<circle clip-path="url(#clip621)" style="fill:#4682b4; stroke:none; fill-opacity:0" cx="1426.08" cy="1714.29" r="2"/>
<circle clip-path="url(#clip621)" style="fill:#4682b4; stroke:none; fill-opacity:0" cx="1470.2" cy="1734.12" r="2"/>
<circle clip-path="url(#clip621)" style="fill:#4682b4; stroke:none; fill-opacity:0" cx="1514.33" cy="1734.12" r="2"/>
<circle clip-path="url(#clip621)" style="fill:#4682b4; stroke:none; fill-opacity:0" cx="1558.45" cy="1714.29" r="2"/>
<circle clip-path="url(#clip621)" style="fill:#4682b4; stroke:none; fill-opacity:0" cx="1602.58" cy="1734.12" r="2"/>
<circle clip-path="url(#clip621)" style="fill:#4682b4; stroke:none; fill-opacity:0" cx="1646.7" cy="1734.12" r="2"/>
<circle clip-path="url(#clip621)" style="fill:#4682b4; stroke:none; fill-opacity:0" cx="1690.83" cy="1734.12" r="2"/>
<circle clip-path="url(#clip621)" style="fill:#4682b4; stroke:none; fill-opacity:0" cx="1734.95" cy="1734.12" r="2"/>
<circle clip-path="url(#clip621)" style="fill:#4682b4; stroke:none; fill-opacity:0" cx="1779.08" cy="1734.12" r="2"/>
<circle clip-path="url(#clip621)" style="fill:#4682b4; stroke:none; fill-opacity:0" cx="1823.2" cy="1714.29" r="2"/>
<circle clip-path="url(#clip621)" style="fill:#4682b4; stroke:none; fill-opacity:0" cx="1867.33" cy="1734.12" r="2"/>
<circle clip-path="url(#clip621)" style="fill:#4682b4; stroke:none; fill-opacity:0" cx="1911.45" cy="1734.12" r="2"/>
<circle clip-path="url(#clip621)" style="fill:#4682b4; stroke:none; fill-opacity:0" cx="1955.57" cy="1734.12" r="2"/>
<circle clip-path="url(#clip621)" style="fill:#4682b4; stroke:none; fill-opacity:0" cx="1999.7" cy="1734.12" r="2"/>
<circle clip-path="url(#clip621)" style="fill:#4682b4; stroke:none; fill-opacity:0" cx="2043.82" cy="1734.12" r="2"/>
<circle clip-path="url(#clip621)" style="fill:#4682b4; stroke:none; fill-opacity:0" cx="2087.95" cy="1734.12" r="2"/>
<circle clip-path="url(#clip621)" style="fill:#4682b4; stroke:none; fill-opacity:0" cx="2132.07" cy="1734.12" r="2"/>
<circle clip-path="url(#clip621)" style="fill:#4682b4; stroke:none; fill-opacity:0" cx="2176.2" cy="1734.12" r="2"/>
<circle clip-path="url(#clip621)" style="fill:#4682b4; stroke:none; fill-opacity:0" cx="2220.32" cy="1734.12" r="2"/>
<circle clip-path="url(#clip621)" style="fill:#4682b4; stroke:none; fill-opacity:0" cx="2264.45" cy="1734.12" r="2"/>
<circle clip-path="url(#clip621)" style="fill:#4682b4; stroke:none; fill-opacity:0" cx="2308.57" cy="1734.12" r="2"/>
<circle clip-path="url(#clip621)" style="fill:#4682b4; stroke:none; fill-opacity:0" cx="2352.7" cy="1734.12" r="2"/>
<circle clip-path="url(#clip621)" style="fill:#4682b4; stroke:none; fill-opacity:0" cx="2396.82" cy="1734.12" r="2"/>
<circle clip-path="url(#clip621)" style="fill:#4682b4; stroke:none; fill-opacity:0" cx="2440.95" cy="1734.12" r="2"/>
<circle clip-path="url(#clip621)" style="fill:#4682b4; stroke:none; fill-opacity:0" cx="2485.07" cy="1714.29" r="2"/>
</svg>
