<?xml version="1.0" encoding="utf-8"?>
<svg xmlns="http://www.w3.org/2000/svg" xmlns:xlink="http://www.w3.org/1999/xlink" width="672" height="480" viewBox="0 0 2688 1920">
<defs>
  <clipPath id="clip620">
    <rect x="0" y="0" width="2688" height="1920"/>
  </clipPath>
</defs>
<path clip-path="url(#clip620)" d="M0 1920 L2688 1920 L2688 -4.26326e-14 L0 -4.26326e-14  Z" fill="#ffffff" fill-rule="evenodd" fill-opacity="1"/>
<defs>
  <clipPath id="clip621">
    <rect x="255" y="127" width="2386" height="1607"/>
  </clipPath>
</defs>
<path clip-path="url(#clip620)" d="M255.816 1734.12 L2640.76 1734.12 L2640.76 127.792 L255.816 127.792  Z" fill="#ffffff" fill-rule="evenodd" fill-opacity="1"/>
<polyline clip-path="url(#clip621)" style="stroke:#000000; stroke-linecap:round; stroke-linejoin:round; stroke-width:2; stroke-opacity:0.1; fill:none" points="323.315,1734.12 323.315,127.792 "/>
<polyline clip-path="url(#clip621)" style="stroke:#000000; stroke-linecap:round; stroke-linejoin:round; stroke-width:2; stroke-opacity:0.1; fill:none" points="885.8,1734.12 885.8,127.792 "/>
<polyline clip-path="url(#clip621)" style="stroke:#000000; stroke-linecap:round; stroke-linejoin:round; stroke-width:2; stroke-opacity:0.1; fill:none" points="1448.29,1734.12 1448.29,127.792 "/>
<polyline clip-path="url(#clip621)" style="stroke:#000000; stroke-linecap:round; stroke-linejoin:round; stroke-width:2; stroke-opacity:0.1; fill:none" points="2010.77,1734.12 2010.77,127.792 "/>
<polyline clip-path="url(#clip621)" style="stroke:#000000; stroke-linecap:round; stroke-linejoin:round; stroke-width:2; stroke-opacity:0.1; fill:none" points="2573.26,1734.12 2573.26,127.792 "/>
<polyline clip-path="url(#clip621)" style="stroke:#000000; stroke-linecap:round; stroke-linejoin:round; stroke-width:2; stroke-opacity:0.1; fill:none" points="255.816,1688.65 2640.76,1688.65 "/>
<polyline clip-path="url(#clip621)" style="stroke:#000000; stroke-linecap:round; stroke-linejoin:round; stroke-width:2; stroke-opacity:0.1; fill:none" points="255.816,1305.98 2640.76,1305.98 "/>
<polyline clip-path="url(#clip621)" style="stroke:#000000; stroke-linecap:round; stroke-linejoin:round; stroke-width:2; stroke-opacity:0.1; fill:none" points="255.816,923.301 2640.76,923.301 "/>
<polyline clip-path="url(#clip621)" style="stroke:#000000; stroke-linecap:round; stroke-linejoin:round; stroke-width:2; stroke-opacity:0.1; fill:none" points="255.816,540.624 2640.76,540.624 "/>
<polyline clip-path="url(#clip621)" style="stroke:#000000; stroke-linecap:round; stroke-linejoin:round; stroke-width:2; stroke-opacity:0.1; fill:none" points="255.816,157.947 2640.76,157.947 "/>
<polyline clip-path="url(#clip620)" style="stroke:#000000; stroke-linecap:round; stroke-linejoin:round; stroke-width:4; stroke-opacity:1; fill:none" points="255.816,1734.12 2640.76,1734.12 "/>
<polyline clip-path="url(#clip620)" style="stroke:#000000; stroke-linecap:round; stroke-linejoin:round; stroke-width:4; stroke-opacity:1; fill:none" points="323.315,1734.12 323.315,1715.22 "/>
<polyline clip-path="url(#clip620)" style="stroke:#000000; stroke-linecap:round; stroke-linejoin:round; stroke-width:4; stroke-opacity:1; fill:none" points="885.8,1734.12 885.8,1715.22 "/>
<polyline clip-path="url(#clip620)" style="stroke:#000000; stroke-linecap:round; stroke-linejoin:round; stroke-width:4; stroke-opacity:1; fill:none" points="1448.29,1734.12 1448.29,1715.22 "/>
<polyline clip-path="url(#clip620)" style="stroke:#000000; stroke-linecap:round; stroke-linejoin:round; stroke-width:4; stroke-opacity:1; fill:none" points="2010.77,1734.12 2010.77,1715.22 "/>
<polyline clip-path="url(#clip620)" style="stroke:#000000; stroke-linecap:round; stroke-linejoin:round; stroke-width:4; stroke-opacity:1; fill:none" points="2573.26,1734.12 2573.26,1715.22 "/>
<path clip-path="url(#clip620)" d="M323.315 1767.34 Q319.704 1767.34 317.875 1770.9 Q316.069 1774.45 316.069 1781.58 Q316.069 1788.68 317.875 1792.25 Q319.704 1795.79 323.315 1795.79 Q326.949 1795.79 328.754 1792.25 Q330.583 1788.68 330.583 1781.58 Q330.583 1774.45 328.754 1770.9 Q326.949 1767.34 323.315 1767.34 M323.315 1763.64 Q329.125 1763.64 332.18 1768.24 Q335.259 1772.83 335.259 1781.58 Q335.259 1790.3 332.18 1794.91 Q329.125 1799.49 323.315 1799.49 Q317.504 1799.49 314.426 1794.91 Q311.37 1790.3 311.37 1781.58 Q311.37 1772.83 314.426 1768.24 Q317.504 1763.64 323.315 1763.64 Z" fill="#000000" fill-rule="nonzero" fill-opacity="1" /><path clip-path="url(#clip620)" d="M860.5 1764.26 L878.856 1764.26 L878.856 1768.2 L864.782 1768.2 L864.782 1776.67 Q865.8 1776.32 866.819 1776.16 Q867.837 1775.97 868.856 1775.97 Q874.643 1775.97 878.023 1779.15 Q881.402 1782.32 881.402 1787.73 Q881.402 1793.31 877.93 1796.41 Q874.458 1799.49 868.138 1799.49 Q865.963 1799.49 863.694 1799.12 Q861.449 1798.75 859.041 1798.01 L859.041 1793.31 Q861.125 1794.45 863.347 1795 Q865.569 1795.56 868.046 1795.56 Q872.05 1795.56 874.388 1793.45 Q876.726 1791.34 876.726 1787.73 Q876.726 1784.12 874.388 1782.02 Q872.05 1779.91 868.046 1779.91 Q866.171 1779.91 864.296 1780.33 Q862.444 1780.74 860.5 1781.62 L860.5 1764.26 Z" fill="#000000" fill-rule="nonzero" fill-opacity="1" /><path clip-path="url(#clip620)" d="M900.615 1767.34 Q897.004 1767.34 895.175 1770.9 Q893.37 1774.45 893.37 1781.58 Q893.37 1788.68 895.175 1792.25 Q897.004 1795.79 900.615 1795.79 Q904.249 1795.79 906.055 1792.25 Q907.884 1788.68 907.884 1781.58 Q907.884 1774.45 906.055 1770.9 Q904.249 1767.34 900.615 1767.34 M900.615 1763.64 Q906.425 1763.64 909.481 1768.24 Q912.559 1772.83 912.559 1781.58 Q912.559 1790.3 909.481 1794.91 Q906.425 1799.49 900.615 1799.49 Q894.805 1799.49 891.726 1794.91 Q888.671 1790.3 888.671 1781.58 Q888.671 1772.83 891.726 1768.24 Q894.805 1763.64 900.615 1763.64 Z" fill="#000000" fill-rule="nonzero" fill-opacity="1" /><path clip-path="url(#clip620)" d="M1407.89 1794.89 L1415.53 1794.89 L1415.53 1768.52 L1407.22 1770.19 L1407.22 1765.93 L1415.49 1764.26 L1420.16 1764.26 L1420.16 1794.89 L1427.8 1794.89 L1427.8 1798.82 L1407.89 1798.82 L1407.89 1794.89 Z" fill="#000000" fill-rule="nonzero" fill-opacity="1" /><path clip-path="url(#clip620)" d="M1447.24 1767.34 Q1443.63 1767.34 1441.8 1770.9 Q1440 1774.45 1440 1781.58 Q1440 1788.68 1441.8 1792.25 Q1443.63 1795.79 1447.24 1795.79 Q1450.88 1795.79 1452.68 1792.25 Q1454.51 1788.68 1454.51 1781.58 Q1454.51 1774.45 1452.68 1770.9 Q1450.88 1767.34 1447.24 1767.34 M1447.24 1763.64 Q1453.05 1763.64 1456.11 1768.24 Q1459.19 1772.83 1459.19 1781.58 Q1459.19 1790.3 1456.11 1794.91 Q1453.05 1799.49 1447.24 1799.49 Q1441.43 1799.49 1438.36 1794.91 Q1435.3 1790.3 1435.3 1781.58 Q1435.3 1772.83 1438.36 1768.24 Q1441.43 1763.64 1447.24 1763.64 Z" fill="#000000" fill-rule="nonzero" fill-opacity="1" /><path clip-path="url(#clip620)" d="M1477.41 1767.34 Q1473.8 1767.34 1471.97 1770.9 Q1470.16 1774.45 1470.16 1781.58 Q1470.16 1788.68 1471.97 1792.25 Q1473.8 1795.79 1477.41 1795.79 Q1481.04 1795.79 1482.85 1792.25 Q1484.67 1788.68 1484.67 1781.58 Q1484.67 1774.45 1482.85 1770.9 Q1481.04 1767.34 1477.41 1767.34 M1477.41 1763.64 Q1483.22 1763.64 1486.27 1768.24 Q1489.35 1772.83 1489.35 1781.58 Q1489.35 1790.3 1486.27 1794.91 Q1483.22 1799.49 1477.41 1799.49 Q1471.6 1799.49 1468.52 1794.91 Q1465.46 1790.3 1465.46 1781.58 Q1465.46 1772.83 1468.52 1768.24 Q1471.6 1763.64 1477.41 1763.64 Z" fill="#000000" fill-rule="nonzero" fill-opacity="1" /><path clip-path="url(#clip620)" d="M1970.38 1794.89 L1978.02 1794.89 L1978.02 1768.52 L1969.71 1770.19 L1969.71 1765.93 L1977.97 1764.26 L1982.65 1764.26 L1982.65 1794.89 L1990.29 1794.89 L1990.29 1798.82 L1970.38 1798.82 L1970.38 1794.89 Z" fill="#000000" fill-rule="nonzero" fill-opacity="1" /><path clip-path="url(#clip620)" d="M1999.78 1764.26 L2018.13 1764.26 L2018.13 1768.2 L2004.06 1768.2 L2004.06 1776.67 Q2005.08 1776.32 2006.1 1776.16 Q2007.11 1775.97 2008.13 1775.97 Q2013.92 1775.97 2017.3 1779.15 Q2020.68 1782.32 2020.68 1787.73 Q2020.68 1793.31 2017.21 1796.41 Q2013.73 1799.49 2007.42 1799.49 Q2005.24 1799.49 2002.97 1799.12 Q2000.73 1798.75 1998.32 1798.01 L1998.32 1793.31 Q2000.4 1794.45 2002.62 1795 Q2004.85 1795.56 2007.32 1795.56 Q2011.33 1795.56 2013.67 1793.45 Q2016 1791.34 2016 1787.73 Q2016 1784.12 2013.67 1782.02 Q2011.33 1779.91 2007.32 1779.91 Q2005.45 1779.91 2003.57 1780.33 Q2001.72 1780.74 1999.78 1781.62 L1999.78 1764.26 Z" fill="#000000" fill-rule="nonzero" fill-opacity="1" /><path clip-path="url(#clip620)" d="M2039.89 1767.34 Q2036.28 1767.34 2034.45 1770.9 Q2032.65 1774.45 2032.65 1781.58 Q2032.65 1788.68 2034.45 1792.25 Q2036.28 1795.79 2039.89 1795.79 Q2043.53 1795.79 2045.33 1792.25 Q2047.16 1788.68 2047.16 1781.58 Q2047.16 1774.45 2045.33 1770.9 Q2043.53 1767.34 2039.89 1767.34 M2039.89 1763.64 Q2045.7 1763.64 2048.76 1768.24 Q2051.84 1772.83 2051.84 1781.58 Q2051.84 1790.3 2048.76 1794.91 Q2045.7 1799.49 2039.89 1799.49 Q2034.08 1799.49 2031 1794.91 Q2027.95 1790.3 2027.95 1781.58 Q2027.95 1772.83 2031 1768.24 Q2034.08 1763.64 2039.89 1763.64 Z" fill="#000000" fill-rule="nonzero" fill-opacity="1" /><path clip-path="url(#clip620)" d="M2536.95 1794.89 L2553.27 1794.89 L2553.27 1798.82 L2531.32 1798.82 L2531.32 1794.89 Q2533.99 1792.13 2538.57 1787.5 Q2543.18 1782.85 2544.36 1781.51 Q2546.6 1778.98 2547.48 1777.25 Q2548.39 1775.49 2548.39 1773.8 Q2548.39 1771.04 2546.44 1769.31 Q2544.52 1767.57 2541.42 1767.57 Q2539.22 1767.57 2536.76 1768.34 Q2534.33 1769.1 2531.56 1770.65 L2531.56 1765.93 Q2534.38 1764.79 2536.83 1764.21 Q2539.29 1763.64 2541.32 1763.64 Q2546.7 1763.64 2549.89 1766.32 Q2553.08 1769.01 2553.08 1773.5 Q2553.08 1775.63 2552.27 1777.55 Q2551.49 1779.45 2549.38 1782.04 Q2548.8 1782.71 2545.7 1785.93 Q2542.6 1789.12 2536.95 1794.89 Z" fill="#000000" fill-rule="nonzero" fill-opacity="1" /><path clip-path="url(#clip620)" d="M2573.08 1767.34 Q2569.47 1767.34 2567.64 1770.9 Q2565.84 1774.45 2565.84 1781.58 Q2565.84 1788.68 2567.64 1792.25 Q2569.47 1795.79 2573.08 1795.79 Q2576.72 1795.79 2578.52 1792.25 Q2580.35 1788.68 2580.35 1781.58 Q2580.35 1774.45 2578.52 1770.9 Q2576.72 1767.34 2573.08 1767.34 M2573.08 1763.64 Q2578.89 1763.64 2581.95 1768.24 Q2585.03 1772.83 2585.03 1781.58 Q2585.03 1790.3 2581.95 1794.91 Q2578.89 1799.49 2573.08 1799.49 Q2567.27 1799.49 2564.2 1794.91 Q2561.14 1790.3 2561.14 1781.58 Q2561.14 1772.83 2564.2 1768.24 Q2567.27 1763.64 2573.08 1763.64 Z" fill="#000000" fill-rule="nonzero" fill-opacity="1" /><path clip-path="url(#clip620)" d="M2603.25 1767.34 Q2599.63 1767.34 2597.81 1770.9 Q2596 1774.45 2596 1781.58 Q2596 1788.68 2597.81 1792.25 Q2599.63 1795.79 2603.25 1795.79 Q2606.88 1795.79 2608.69 1792.25 Q2610.51 1788.68 2610.51 1781.58 Q2610.51 1774.45 2608.69 1770.9 Q2606.88 1767.34 2603.25 1767.34 M2603.25 1763.64 Q2609.06 1763.64 2612.11 1768.24 Q2615.19 1772.83 2615.19 1781.58 Q2615.19 1790.3 2612.11 1794.91 Q2609.06 1799.49 2603.25 1799.49 Q2597.44 1799.49 2594.36 1794.91 Q2591.3 1790.3 2591.3 1781.58 Q2591.3 1772.83 2594.36 1768.24 Q2597.44 1763.64 2603.25 1763.64 Z" fill="#000000" fill-rule="nonzero" fill-opacity="1" /><path clip-path="url(#clip620)" d="M1387.45 1837.53 L1387.45 1847.65 L1399.51 1847.65 L1399.51 1852.2 L1387.45 1852.2 L1387.45 1871.56 Q1387.45 1875.92 1388.62 1877.16 Q1389.83 1878.4 1393.49 1878.4 L1399.51 1878.4 L1399.51 1883.3 L1393.49 1883.3 Q1386.71 1883.3 1384.14 1880.79 Q1381.56 1878.24 1381.56 1871.56 L1381.56 1852.2 L1377.26 1852.2 L1377.26 1847.65 L1381.56 1847.65 L1381.56 1837.53 L1387.45 1837.53 Z" fill="#000000" fill-rule="nonzero" fill-opacity="1" /><path clip-path="url(#clip620)" d="M1407.21 1847.65 L1413.07 1847.65 L1413.07 1883.3 L1407.21 1883.3 L1407.21 1847.65 M1407.21 1833.78 L1413.07 1833.78 L1413.07 1841.19 L1407.21 1841.19 L1407.21 1833.78 Z" fill="#000000" fill-rule="nonzero" fill-opacity="1" /><path clip-path="url(#clip620)" d="M1453.08 1854.5 Q1455.27 1850.55 1458.33 1848.67 Q1461.38 1846.79 1465.52 1846.79 Q1471.09 1846.79 1474.11 1850.71 Q1477.14 1854.59 1477.14 1861.78 L1477.14 1883.3 L1471.25 1883.3 L1471.25 1861.98 Q1471.25 1856.85 1469.44 1854.37 Q1467.62 1851.89 1463.9 1851.89 Q1459.35 1851.89 1456.7 1854.91 Q1454.06 1857.93 1454.06 1863.15 L1454.06 1883.3 L1448.17 1883.3 L1448.17 1861.98 Q1448.17 1856.82 1446.36 1854.37 Q1444.55 1851.89 1440.76 1851.89 Q1436.27 1851.89 1433.63 1854.94 Q1430.99 1857.97 1430.99 1863.15 L1430.99 1883.3 L1425.1 1883.3 L1425.1 1847.65 L1430.99 1847.65 L1430.99 1853.19 Q1432.99 1849.91 1435.79 1848.35 Q1438.59 1846.79 1442.45 1846.79 Q1446.33 1846.79 1449.03 1848.77 Q1451.77 1850.74 1453.08 1854.5 Z" fill="#000000" fill-rule="nonzero" fill-opacity="1" /><path clip-path="url(#clip620)" d="M1519.31 1864.01 L1519.31 1866.88 L1492.38 1866.88 Q1492.77 1872.92 1496.01 1876.11 Q1499.29 1879.26 1505.12 1879.26 Q1508.49 1879.26 1511.64 1878.43 Q1514.82 1877.6 1517.94 1875.95 L1517.94 1881.49 Q1514.79 1882.82 1511.48 1883.52 Q1508.17 1884.22 1504.77 1884.22 Q1496.24 1884.22 1491.24 1879.26 Q1486.27 1874.29 1486.27 1865.83 Q1486.27 1857.07 1490.98 1851.95 Q1495.73 1846.79 1503.75 1846.79 Q1510.94 1846.79 1515.11 1851.44 Q1519.31 1856.06 1519.31 1864.01 M1513.46 1862.29 Q1513.39 1857.49 1510.75 1854.62 Q1508.14 1851.76 1503.81 1851.76 Q1498.91 1851.76 1495.95 1854.53 Q1493.02 1857.3 1492.58 1862.33 L1513.46 1862.29 Z" fill="#000000" fill-rule="nonzero" fill-opacity="1" /><polyline clip-path="url(#clip620)" style="stroke:#000000; stroke-linecap:round; stroke-linejoin:round; stroke-width:4; stroke-opacity:1; fill:none" points="255.816,1734.12 255.816,127.792 "/>
<polyline clip-path="url(#clip620)" style="stroke:#000000; stroke-linecap:round; stroke-linejoin:round; stroke-width:4; stroke-opacity:1; fill:none" points="255.816,1688.65 274.714,1688.65 "/>
<polyline clip-path="url(#clip620)" style="stroke:#000000; stroke-linecap:round; stroke-linejoin:round; stroke-width:4; stroke-opacity:1; fill:none" points="255.816,1305.98 274.714,1305.98 "/>
<polyline clip-path="url(#clip620)" style="stroke:#000000; stroke-linecap:round; stroke-linejoin:round; stroke-width:4; stroke-opacity:1; fill:none" points="255.816,923.301 274.714,923.301 "/>
<polyline clip-path="url(#clip620)" style="stroke:#000000; stroke-linecap:round; stroke-linejoin:round; stroke-width:4; stroke-opacity:1; fill:none" points="255.816,540.624 274.714,540.624 "/>
<polyline clip-path="url(#clip620)" style="stroke:#000000; stroke-linecap:round; stroke-linejoin:round; stroke-width:4; stroke-opacity:1; fill:none" points="255.816,157.947 274.714,157.947 "/>
<path clip-path="url(#clip620)" d="M128.159 1674.45 Q124.548 1674.45 122.719 1678.02 Q120.913 1681.56 120.913 1688.69 Q120.913 1695.8 122.719 1699.36 Q124.548 1702.9 128.159 1702.9 Q131.793 1702.9 133.599 1699.36 Q135.427 1695.8 135.427 1688.69 Q135.427 1681.56 133.599 1678.02 Q131.793 1674.45 128.159 1674.45 M128.159 1670.75 Q133.969 1670.75 137.025 1675.36 Q140.103 1679.94 140.103 1688.69 Q140.103 1697.42 137.025 1702.02 Q133.969 1706.61 128.159 1706.61 Q122.349 1706.61 119.27 1702.02 Q116.214 1697.42 116.214 1688.69 Q116.214 1679.94 119.27 1675.36 Q122.349 1670.75 128.159 1670.75 Z" fill="#000000" fill-rule="nonzero" fill-opacity="1" /><path clip-path="url(#clip620)" d="M148.321 1700.06 L153.205 1700.06 L153.205 1705.93 L148.321 1705.93 L148.321 1700.06 Z" fill="#000000" fill-rule="nonzero" fill-opacity="1" /><path clip-path="url(#clip620)" d="M173.39 1674.45 Q169.779 1674.45 167.95 1678.02 Q166.145 1681.56 166.145 1688.69 Q166.145 1695.8 167.95 1699.36 Q169.779 1702.9 173.39 1702.9 Q177.024 1702.9 178.83 1699.36 Q180.659 1695.8 180.659 1688.69 Q180.659 1681.56 178.83 1678.02 Q177.024 1674.45 173.39 1674.45 M173.39 1670.75 Q179.2 1670.75 182.256 1675.36 Q185.334 1679.94 185.334 1688.69 Q185.334 1697.42 182.256 1702.02 Q179.2 1706.61 173.39 1706.61 Q167.58 1706.61 164.501 1702.02 Q161.446 1697.42 161.446 1688.69 Q161.446 1679.94 164.501 1675.36 Q167.58 1670.75 173.39 1670.75 Z" fill="#000000" fill-rule="nonzero" fill-opacity="1" /><path clip-path="url(#clip620)" d="M203.552 1674.45 Q199.941 1674.45 198.112 1678.02 Q196.307 1681.56 196.307 1688.69 Q196.307 1695.8 198.112 1699.36 Q199.941 1702.9 203.552 1702.9 Q207.186 1702.9 208.992 1699.36 Q210.82 1695.8 210.82 1688.69 Q210.82 1681.56 208.992 1678.02 Q207.186 1674.45 203.552 1674.45 M203.552 1670.75 Q209.362 1670.75 212.418 1675.36 Q215.496 1679.94 215.496 1688.69 Q215.496 1697.42 212.418 1702.02 Q209.362 1706.61 203.552 1706.61 Q197.742 1706.61 194.663 1702.02 Q191.608 1697.42 191.608 1688.69 Q191.608 1679.94 194.663 1675.36 Q197.742 1670.75 203.552 1670.75 Z" fill="#000000" fill-rule="nonzero" fill-opacity="1" /><path clip-path="url(#clip620)" d="M129.154 1291.78 Q125.543 1291.78 123.714 1295.34 Q121.909 1298.88 121.909 1306.01 Q121.909 1313.12 123.714 1316.68 Q125.543 1320.23 129.154 1320.23 Q132.788 1320.23 134.594 1316.68 Q136.423 1313.12 136.423 1306.01 Q136.423 1298.88 134.594 1295.34 Q132.788 1291.78 129.154 1291.78 M129.154 1288.07 Q134.964 1288.07 138.02 1292.68 Q141.099 1297.26 141.099 1306.01 Q141.099 1314.74 138.02 1319.35 Q134.964 1323.93 129.154 1323.93 Q123.344 1323.93 120.265 1319.35 Q117.21 1314.74 117.21 1306.01 Q117.21 1297.26 120.265 1292.68 Q123.344 1288.07 129.154 1288.07 Z" fill="#000000" fill-rule="nonzero" fill-opacity="1" /><path clip-path="url(#clip620)" d="M149.316 1317.38 L154.2 1317.38 L154.2 1323.26 L149.316 1323.26 L149.316 1317.38 Z" fill="#000000" fill-rule="nonzero" fill-opacity="1" /><path clip-path="url(#clip620)" d="M168.413 1319.32 L184.733 1319.32 L184.733 1323.26 L162.788 1323.26 L162.788 1319.32 Q165.45 1316.57 170.034 1311.94 Q174.64 1307.29 175.821 1305.94 Q178.066 1303.42 178.946 1301.68 Q179.848 1299.92 179.848 1298.23 Q179.848 1295.48 177.904 1293.74 Q175.983 1292.01 172.881 1292.01 Q170.682 1292.01 168.228 1292.77 Q165.798 1293.54 163.02 1295.09 L163.02 1290.36 Q165.844 1289.23 168.297 1288.65 Q170.751 1288.07 172.788 1288.07 Q178.159 1288.07 181.353 1290.76 Q184.547 1293.44 184.547 1297.93 Q184.547 1300.06 183.737 1301.98 Q182.95 1303.88 180.844 1306.48 Q180.265 1307.15 177.163 1310.36 Q174.061 1313.56 168.413 1319.32 Z" fill="#000000" fill-rule="nonzero" fill-opacity="1" /><path clip-path="url(#clip620)" d="M194.594 1288.7 L212.95 1288.7 L212.95 1292.63 L198.876 1292.63 L198.876 1301.11 Q199.895 1300.76 200.913 1300.6 Q201.932 1300.41 202.95 1300.41 Q208.737 1300.41 212.117 1303.58 Q215.496 1306.75 215.496 1312.17 Q215.496 1317.75 212.024 1320.85 Q208.552 1323.93 202.233 1323.93 Q200.057 1323.93 197.788 1323.56 Q195.543 1323.19 193.135 1322.45 L193.135 1317.75 Q195.219 1318.88 197.441 1319.44 Q199.663 1319.99 202.14 1319.99 Q206.145 1319.99 208.482 1317.89 Q210.82 1315.78 210.82 1312.17 Q210.82 1308.56 208.482 1306.45 Q206.145 1304.35 202.14 1304.35 Q200.265 1304.35 198.39 1304.76 Q196.538 1305.18 194.594 1306.06 L194.594 1288.7 Z" fill="#000000" fill-rule="nonzero" fill-opacity="1" /><path clip-path="url(#clip620)" d="M128.159 909.1 Q124.548 909.1 122.719 912.664 Q120.913 916.206 120.913 923.336 Q120.913 930.442 122.719 934.007 Q124.548 937.549 128.159 937.549 Q131.793 937.549 133.599 934.007 Q135.427 930.442 135.427 923.336 Q135.427 916.206 133.599 912.664 Q131.793 909.1 128.159 909.1 M128.159 905.396 Q133.969 905.396 137.025 910.002 Q140.103 914.586 140.103 923.336 Q140.103 932.063 137.025 936.669 Q133.969 941.252 128.159 941.252 Q122.349 941.252 119.27 936.669 Q116.214 932.063 116.214 923.336 Q116.214 914.586 119.27 910.002 Q122.349 905.396 128.159 905.396 Z" fill="#000000" fill-rule="nonzero" fill-opacity="1" /><path clip-path="url(#clip620)" d="M148.321 934.701 L153.205 934.701 L153.205 940.581 L148.321 940.581 L148.321 934.701 Z" fill="#000000" fill-rule="nonzero" fill-opacity="1" /><path clip-path="url(#clip620)" d="M163.436 906.021 L181.793 906.021 L181.793 909.956 L167.719 909.956 L167.719 918.428 Q168.737 918.081 169.756 917.919 Q170.774 917.734 171.793 917.734 Q177.58 917.734 180.959 920.905 Q184.339 924.076 184.339 929.493 Q184.339 935.072 180.867 938.174 Q177.395 941.252 171.075 941.252 Q168.899 941.252 166.631 940.882 Q164.385 940.512 161.978 939.771 L161.978 935.072 Q164.061 936.206 166.284 936.762 Q168.506 937.317 170.983 937.317 Q174.987 937.317 177.325 935.211 Q179.663 933.104 179.663 929.493 Q179.663 925.882 177.325 923.776 Q174.987 921.669 170.983 921.669 Q169.108 921.669 167.233 922.086 Q165.381 922.502 163.436 923.382 L163.436 906.021 Z" fill="#000000" fill-rule="nonzero" fill-opacity="1" /><path clip-path="url(#clip620)" d="M203.552 909.1 Q199.941 909.1 198.112 912.664 Q196.307 916.206 196.307 923.336 Q196.307 930.442 198.112 934.007 Q199.941 937.549 203.552 937.549 Q207.186 937.549 208.992 934.007 Q210.82 930.442 210.82 923.336 Q210.82 916.206 208.992 912.664 Q207.186 909.1 203.552 909.1 M203.552 905.396 Q209.362 905.396 212.418 910.002 Q215.496 914.586 215.496 923.336 Q215.496 932.063 212.418 936.669 Q209.362 941.252 203.552 941.252 Q197.742 941.252 194.663 936.669 Q191.608 932.063 191.608 923.336 Q191.608 914.586 194.663 910.002 Q197.742 905.396 203.552 905.396 Z" fill="#000000" fill-rule="nonzero" fill-opacity="1" /><path clip-path="url(#clip620)" d="M129.154 526.423 Q125.543 526.423 123.714 529.988 Q121.909 533.529 121.909 540.659 Q121.909 547.765 123.714 551.33 Q125.543 554.872 129.154 554.872 Q132.788 554.872 134.594 551.33 Q136.423 547.765 136.423 540.659 Q136.423 533.529 134.594 529.988 Q132.788 526.423 129.154 526.423 M129.154 522.719 Q134.964 522.719 138.02 527.326 Q141.099 531.909 141.099 540.659 Q141.099 549.386 138.02 553.992 Q134.964 558.575 129.154 558.575 Q123.344 558.575 120.265 553.992 Q117.21 549.386 117.21 540.659 Q117.21 531.909 120.265 527.326 Q123.344 522.719 129.154 522.719 Z" fill="#000000" fill-rule="nonzero" fill-opacity="1" /><path clip-path="url(#clip620)" d="M149.316 552.024 L154.2 552.024 L154.2 557.904 L149.316 557.904 L149.316 552.024 Z" fill="#000000" fill-rule="nonzero" fill-opacity="1" /><path clip-path="url(#clip620)" d="M163.205 523.344 L185.427 523.344 L185.427 525.335 L172.881 557.904 L167.997 557.904 L179.802 527.279 L163.205 527.279 L163.205 523.344 Z" fill="#000000" fill-rule="nonzero" fill-opacity="1" /><path clip-path="url(#clip620)" d="M194.594 523.344 L212.95 523.344 L212.95 527.279 L198.876 527.279 L198.876 535.751 Q199.895 535.404 200.913 535.242 Q201.932 535.057 202.95 535.057 Q208.737 535.057 212.117 538.228 Q215.496 541.4 215.496 546.816 Q215.496 552.395 212.024 555.497 Q208.552 558.575 202.233 558.575 Q200.057 558.575 197.788 558.205 Q195.543 557.835 193.135 557.094 L193.135 552.395 Q195.219 553.529 197.441 554.085 Q199.663 554.64 202.14 554.64 Q206.145 554.64 208.482 552.534 Q210.82 550.427 210.82 546.816 Q210.82 543.205 208.482 541.099 Q206.145 538.992 202.14 538.992 Q200.265 538.992 198.39 539.409 Q196.538 539.825 194.594 540.705 L194.594 523.344 Z" fill="#000000" fill-rule="nonzero" fill-opacity="1" /><path clip-path="url(#clip620)" d="M118.969 171.292 L126.608 171.292 L126.608 144.926 L118.298 146.593 L118.298 142.334 L126.562 140.667 L131.238 140.667 L131.238 171.292 L138.876 171.292 L138.876 175.227 L118.969 175.227 L118.969 171.292 Z" fill="#000000" fill-rule="nonzero" fill-opacity="1" /><path clip-path="url(#clip620)" d="M148.321 169.347 L153.205 169.347 L153.205 175.227 L148.321 175.227 L148.321 169.347 Z" fill="#000000" fill-rule="nonzero" fill-opacity="1" /><path clip-path="url(#clip620)" d="M173.39 143.746 Q169.779 143.746 167.95 147.311 Q166.145 150.852 166.145 157.982 Q166.145 165.088 167.95 168.653 Q169.779 172.195 173.39 172.195 Q177.024 172.195 178.83 168.653 Q180.659 165.088 180.659 157.982 Q180.659 150.852 178.83 147.311 Q177.024 143.746 173.39 143.746 M173.39 140.042 Q179.2 140.042 182.256 144.649 Q185.334 149.232 185.334 157.982 Q185.334 166.709 182.256 171.315 Q179.2 175.898 173.39 175.898 Q167.58 175.898 164.501 171.315 Q161.446 166.709 161.446 157.982 Q161.446 149.232 164.501 144.649 Q167.58 140.042 173.39 140.042 Z" fill="#000000" fill-rule="nonzero" fill-opacity="1" /><path clip-path="url(#clip620)" d="M203.552 143.746 Q199.941 143.746 198.112 147.311 Q196.307 150.852 196.307 157.982 Q196.307 165.088 198.112 168.653 Q199.941 172.195 203.552 172.195 Q207.186 172.195 208.992 168.653 Q210.82 165.088 210.82 157.982 Q210.82 150.852 208.992 147.311 Q207.186 143.746 203.552 143.746 M203.552 140.042 Q209.362 140.042 212.418 144.649 Q215.496 149.232 215.496 157.982 Q215.496 166.709 212.418 171.315 Q209.362 175.898 203.552 175.898 Q197.742 175.898 194.663 171.315 Q191.608 166.709 191.608 157.982 Q191.608 149.232 194.663 144.649 Q197.742 140.042 203.552 140.042 Z" fill="#000000" fill-rule="nonzero" fill-opacity="1" /><path clip-path="url(#clip620)" d="M12.1132 1029.94 L16.983 1029.94 L16.983 1035.54 Q16.983 1038.69 18.2562 1039.94 Q19.5293 1041.14 22.8395 1041.14 L25.9905 1041.14 L25.9905 1031.5 L30.542 1031.5 L30.542 1041.14 L61.6384 1041.14 L61.6384 1047.03 L30.542 1047.03 L30.542 1052.64 L25.9905 1052.64 L25.9905 1047.03 L23.5079 1047.03 Q17.5559 1047.03 14.8505 1044.26 Q12.1132 1041.5 12.1132 1035.48 L12.1132 1029.94 Z" fill="#000000" fill-rule="nonzero" fill-opacity="1" /><path clip-path="url(#clip620)" d="M31.465 1004.38 Q30.8921 1005.37 30.6375 1006.55 Q30.351 1007.69 30.351 1009.09 Q30.351 1014.06 33.5975 1016.73 Q36.8122 1019.37 42.8596 1019.37 L61.6384 1019.37 L61.6384 1025.26 L25.9905 1025.26 L25.9905 1019.37 L31.5287 1019.37 Q28.2821 1017.53 26.7225 1014.57 Q25.1311 1011.61 25.1311 1007.37 Q25.1311 1006.77 25.2266 1006.04 Q25.2903 1005.31 25.4494 1004.41 L31.465 1004.38 Z" fill="#000000" fill-rule="nonzero" fill-opacity="1" /><path clip-path="url(#clip620)" d="M43.719 982.039 Q43.719 989.137 45.3422 991.874 Q46.9655 994.612 50.8804 994.612 Q53.9996 994.612 55.8457 992.575 Q57.6599 990.506 57.6599 986.973 Q57.6599 982.103 54.2224 979.175 Q50.7531 976.215 45.0239 976.215 L43.719 976.215 L43.719 982.039 M41.3 970.358 L61.6384 970.358 L61.6384 976.215 L56.2276 976.215 Q59.4741 978.22 61.0337 981.212 Q62.5615 984.204 62.5615 988.532 Q62.5615 994.007 59.5059 997.253 Q56.4186 1000.47 51.2623 1000.47 Q45.2467 1000.47 42.1912 996.458 Q39.1357 992.415 39.1357 984.426 L39.1357 976.215 L38.5628 976.215 Q34.5205 976.215 32.3244 978.888 Q30.0964 981.53 30.0964 986.336 Q30.0964 989.392 30.8284 992.288 Q31.5605 995.185 33.0246 997.858 L27.6137 997.858 Q26.3724 994.643 25.7677 991.62 Q25.1311 988.596 25.1311 985.731 Q25.1311 977.997 29.1415 974.178 Q33.1519 970.358 41.3 970.358 Z" fill="#000000" fill-rule="nonzero" fill-opacity="1" /><path clip-path="url(#clip620)" d="M27.3591 932.641 L32.8336 932.641 Q31.465 935.124 30.7966 937.639 Q30.0964 940.121 30.0964 942.667 Q30.0964 948.365 33.7248 951.516 Q37.3214 954.667 43.8463 954.667 Q50.3711 954.667 53.9996 951.516 Q57.5962 948.365 57.5962 942.667 Q57.5962 940.121 56.9278 937.639 Q56.2276 935.124 54.859 932.641 L60.2698 932.641 Q61.4156 935.092 61.9886 937.734 Q62.5615 940.344 62.5615 943.304 Q62.5615 951.357 57.5007 956.099 Q52.44 960.842 43.8463 960.842 Q35.1253 960.842 30.1282 956.067 Q25.1311 951.261 25.1311 942.922 Q25.1311 940.217 25.704 937.639 Q26.2451 935.06 27.3591 932.641 Z" fill="#000000" fill-rule="nonzero" fill-opacity="1" /><path clip-path="url(#clip620)" d="M15.869 916.664 L25.9905 916.664 L25.9905 904.601 L30.542 904.601 L30.542 916.664 L49.8937 916.664 Q54.2542 916.664 55.4955 915.486 Q56.7368 914.276 56.7368 910.616 L56.7368 904.601 L61.6384 904.601 L61.6384 910.616 Q61.6384 917.396 59.124 919.974 Q56.5777 922.552 49.8937 922.552 L30.542 922.552 L30.542 926.849 L25.9905 926.849 L25.9905 922.552 L15.869 922.552 L15.869 916.664 Z" fill="#000000" fill-rule="nonzero" fill-opacity="1" /><path clip-path="url(#clip620)" d="M25.9905 896.898 L25.9905 891.042 L61.6384 891.042 L61.6384 896.898 L25.9905 896.898 M12.1132 896.898 L12.1132 891.042 L19.5293 891.042 L19.5293 896.898 L12.1132 896.898 Z" fill="#000000" fill-rule="nonzero" fill-opacity="1" /><path clip-path="url(#clip620)" d="M30.0964 864.974 Q30.0964 869.685 33.7885 872.422 Q37.4488 875.159 43.8463 875.159 Q50.2438 875.159 53.9359 872.454 Q57.5962 869.716 57.5962 864.974 Q57.5962 860.295 53.9041 857.558 Q50.212 854.821 43.8463 854.821 Q37.5124 854.821 33.8203 857.558 Q30.0964 860.295 30.0964 864.974 M25.1311 864.974 Q25.1311 857.335 30.0964 852.975 Q35.0616 848.614 43.8463 848.614 Q52.5991 848.614 57.5962 852.975 Q62.5615 857.335 62.5615 864.974 Q62.5615 872.645 57.5962 877.005 Q52.5991 881.334 43.8463 881.334 Q35.0616 881.334 30.0964 877.005 Q25.1311 872.645 25.1311 864.974 Z" fill="#000000" fill-rule="nonzero" fill-opacity="1" /><path clip-path="url(#clip620)" d="M40.1224 809.274 L61.6384 809.274 L61.6384 815.131 L40.3133 815.131 Q35.2526 815.131 32.7381 817.104 Q30.2237 819.077 30.2237 823.024 Q30.2237 827.766 33.2474 830.504 Q36.2711 833.241 41.491 833.241 L61.6384 833.241 L61.6384 839.129 L25.9905 839.129 L25.9905 833.241 L31.5287 833.241 Q28.314 831.14 26.7225 828.308 Q25.1311 825.443 25.1311 821.719 Q25.1311 815.576 28.9505 812.425 Q32.7381 809.274 40.1224 809.274 Z" fill="#000000" fill-rule="nonzero" fill-opacity="1" /><path clip-path="url(#clip620)" d="M672.214 14.0809 L672.214 22.0612 Q667.555 19.8332 663.423 18.7395 Q659.291 17.6457 655.443 17.6457 Q648.759 17.6457 645.113 20.2383 Q641.508 22.8309 641.508 27.611 Q641.508 31.6214 643.898 33.6873 Q646.329 35.7128 653.053 36.9686 L657.995 37.9813 Q667.15 39.7232 671.485 44.1387 Q675.86 48.5136 675.86 55.8863 Q675.86 64.6767 669.945 69.2137 Q664.072 73.7508 652.689 73.7508 Q648.395 73.7508 643.533 72.7785 Q638.713 71.8063 633.528 69.9024 L633.528 61.4765 Q638.51 64.2716 643.29 65.6895 Q648.07 67.1073 652.689 67.1073 Q659.697 67.1073 663.504 64.3527 Q667.312 61.598 667.312 56.4939 Q667.312 52.0379 664.558 49.5264 Q661.844 47.0148 655.605 45.759 L650.623 44.7868 Q641.468 42.9639 637.376 39.075 Q633.285 35.1862 633.285 28.2591 Q633.285 20.2383 638.915 15.6203 Q644.587 11.0023 654.511 11.0023 Q658.765 11.0023 663.18 11.7719 Q667.596 12.5416 672.214 14.0809 Z" fill="#000000" fill-rule="nonzero" fill-opacity="1" /><path clip-path="url(#clip620)" d="M688.62 12.096 L696.803 12.096 L696.803 72.576 L688.62 72.576 L688.62 12.096 Z" fill="#000000" fill-rule="nonzero" fill-opacity="1" /><path clip-path="url(#clip620)" d="M741.768 44.2197 Q744.401 45.1109 746.872 48.0275 Q749.384 50.9442 751.895 56.0483 L760.2 72.576 L751.409 72.576 L743.672 57.061 Q740.674 50.9847 737.839 48.9997 Q735.043 47.0148 730.182 47.0148 L721.27 47.0148 L721.27 72.576 L713.088 72.576 L713.088 12.096 L731.56 12.096 Q741.93 12.096 747.034 16.4305 Q752.138 20.7649 752.138 29.5149 Q752.138 35.2267 749.465 38.994 Q746.832 42.7613 741.768 44.2197 M721.27 18.8205 L721.27 40.2903 L731.56 40.2903 Q737.474 40.2903 740.472 37.5762 Q743.51 34.8216 743.51 29.5149 Q743.51 24.2082 740.472 21.5346 Q737.474 18.8205 731.56 18.8205 L721.27 18.8205 Z" fill="#000000" fill-rule="nonzero" fill-opacity="1" /><path clip-path="url(#clip620)" d="M803.99 65.7705 L803.99 89.8329 L796.496 89.8329 L796.496 27.2059 L803.99 27.2059 L803.99 34.0924 Q806.339 30.0415 809.904 28.0971 Q813.509 26.1121 818.492 26.1121 Q826.756 26.1121 831.901 32.6746 Q837.086 39.2371 837.086 49.9314 Q837.086 60.6258 831.901 67.1883 Q826.756 73.7508 818.492 73.7508 Q813.509 73.7508 809.904 71.8063 Q806.339 69.8214 803.99 65.7705 M829.348 49.9314 Q829.348 41.7081 825.946 37.0496 Q822.583 32.3505 816.669 32.3505 Q810.755 32.3505 807.352 37.0496 Q803.99 41.7081 803.99 49.9314 Q803.99 58.1548 807.352 62.8538 Q810.755 67.5124 816.669 67.5124 Q822.583 67.5124 825.946 62.8538 Q829.348 58.1548 829.348 49.9314 Z" fill="#000000" fill-rule="nonzero" fill-opacity="1" /><path clip-path="url(#clip620)" d="M870.06 49.7694 Q861.027 49.7694 857.543 51.8354 Q854.059 53.9013 854.059 58.8839 Q854.059 62.8538 856.652 65.2034 Q859.285 67.5124 863.781 67.5124 Q869.979 67.5124 873.706 63.1374 Q877.473 58.7219 877.473 51.4303 L877.473 49.7694 L870.06 49.7694 M884.927 46.6907 L884.927 72.576 L877.473 72.576 L877.473 65.6895 Q874.921 69.8214 871.113 71.8063 Q867.305 73.7508 861.796 73.7508 Q854.829 73.7508 850.697 69.8619 Q846.605 65.9325 846.605 59.3701 Q846.605 51.7138 851.709 47.825 Q856.854 43.9361 867.022 43.9361 L877.473 43.9361 L877.473 43.2069 Q877.473 38.0623 874.07 35.2672 Q870.708 32.4315 864.591 32.4315 Q860.702 32.4315 857.016 33.3632 Q853.33 34.295 849.927 36.1584 L849.927 29.2718 Q854.018 27.692 857.867 26.9223 Q861.715 26.1121 865.361 26.1121 Q875.205 26.1121 880.066 31.2163 Q884.927 36.3204 884.927 46.6907 Z" fill="#000000" fill-rule="nonzero" fill-opacity="1" /><path clip-path="url(#clip620)" d="M900.28 27.2059 L907.733 27.2059 L907.733 72.576 L900.28 72.576 L900.28 27.2059 M900.28 9.54393 L907.733 9.54393 L907.733 18.9825 L900.28 18.9825 L900.28 9.54393 Z" fill="#000000" fill-rule="nonzero" fill-opacity="1" /><path clip-path="url(#clip620)" d="M949.62 34.1734 Q948.364 33.4443 946.865 33.1202 Q945.407 32.7556 943.624 32.7556 Q937.305 32.7556 933.902 36.8875 Q930.54 40.9789 930.54 48.6757 L930.54 72.576 L923.046 72.576 L923.046 27.2059 L930.54 27.2059 L930.54 34.2544 Q932.89 30.1225 936.657 28.1376 Q940.424 26.1121 945.812 26.1121 Q946.582 26.1121 947.513 26.2337 Q948.445 26.3147 949.579 26.5172 L949.62 34.1734 Z" fill="#000000" fill-rule="nonzero" fill-opacity="1" /><path clip-path="url(#clip620)" d="M948.364 46.5287 L970.198 46.5287 L970.198 53.1722 L948.364 53.1722 L948.364 46.5287 Z" fill="#000000" fill-rule="nonzero" fill-opacity="1" /><path clip-path="url(#clip620)" d="M1002.69 49.7694 Q993.653 49.7694 990.169 51.8354 Q986.686 53.9013 986.686 58.8839 Q986.686 62.8538 989.278 65.2034 Q991.911 67.5124 996.408 67.5124 Q1002.61 67.5124 1006.33 63.1374 Q1010.1 58.7219 1010.1 51.4303 L1010.1 49.7694 L1002.69 49.7694 M1017.55 46.6907 L1017.55 72.576 L1010.1 72.576 L1010.1 65.6895 Q1007.55 69.8214 1003.74 71.8063 Q999.932 73.7508 994.423 73.7508 Q987.455 73.7508 983.323 69.8619 Q979.232 65.9325 979.232 59.3701 Q979.232 51.7138 984.336 47.825 Q989.481 43.9361 999.648 43.9361 L1010.1 43.9361 L1010.1 43.2069 Q1010.1 38.0623 1006.7 35.2672 Q1003.33 32.4315 997.218 32.4315 Q993.329 32.4315 989.643 33.3632 Q985.956 34.295 982.554 36.1584 L982.554 29.2718 Q986.645 27.692 990.493 26.9223 Q994.342 26.1121 997.988 26.1121 Q1007.83 26.1121 1012.69 31.2163 Q1017.55 36.3204 1017.55 46.6907 Z" fill="#000000" fill-rule="nonzero" fill-opacity="1" /><path clip-path="url(#clip620)" d="M1040.12 65.7705 L1040.12 89.8329 L1032.62 89.8329 L1032.62 27.2059 L1040.12 27.2059 L1040.12 34.0924 Q1042.47 30.0415 1046.03 28.0971 Q1049.64 26.1121 1054.62 26.1121 Q1062.88 26.1121 1068.03 32.6746 Q1073.21 39.2371 1073.21 49.9314 Q1073.21 60.6258 1068.03 67.1883 Q1062.88 73.7508 1054.62 73.7508 Q1049.64 73.7508 1046.03 71.8063 Q1042.47 69.8214 1040.12 65.7705 M1065.48 49.9314 Q1065.48 41.7081 1062.07 37.0496 Q1058.71 32.3505 1052.8 32.3505 Q1046.88 32.3505 1043.48 37.0496 Q1040.12 41.7081 1040.12 49.9314 Q1040.12 58.1548 1043.48 62.8538 Q1046.88 67.5124 1052.8 67.5124 Q1058.71 67.5124 1062.07 62.8538 Q1065.48 58.1548 1065.48 49.9314 Z" fill="#000000" fill-rule="nonzero" fill-opacity="1" /><path clip-path="url(#clip620)" d="M1092.78 65.7705 L1092.78 89.8329 L1085.28 89.8329 L1085.28 27.2059 L1092.78 27.2059 L1092.78 34.0924 Q1095.13 30.0415 1098.69 28.0971 Q1102.3 26.1121 1107.28 26.1121 Q1115.54 26.1121 1120.69 32.6746 Q1125.87 39.2371 1125.87 49.9314 Q1125.87 60.6258 1120.69 67.1883 Q1115.54 73.7508 1107.28 73.7508 Q1102.3 73.7508 1098.69 71.8063 Q1095.13 69.8214 1092.78 65.7705 M1118.14 49.9314 Q1118.14 41.7081 1114.73 37.0496 Q1111.37 32.3505 1105.46 32.3505 Q1099.54 32.3505 1096.14 37.0496 Q1092.78 41.7081 1092.78 49.9314 Q1092.78 58.1548 1096.14 62.8538 Q1099.54 67.5124 1105.46 67.5124 Q1111.37 67.5124 1114.73 62.8538 Q1118.14 58.1548 1118.14 49.9314 Z" fill="#000000" fill-rule="nonzero" fill-opacity="1" /><path clip-path="url(#clip620)" d="M1164.52 34.1734 Q1163.26 33.4443 1161.77 33.1202 Q1160.31 32.7556 1158.52 32.7556 Q1152.21 32.7556 1148.8 36.8875 Q1145.44 40.9789 1145.44 48.6757 L1145.44 72.576 L1137.95 72.576 L1137.95 27.2059 L1145.44 27.2059 L1145.44 34.2544 Q1147.79 30.1225 1151.56 28.1376 Q1155.32 26.1121 1160.71 26.1121 Q1161.48 26.1121 1162.41 26.2337 Q1163.35 26.3147 1164.48 26.5172 L1164.52 34.1734 Z" fill="#000000" fill-rule="nonzero" fill-opacity="1" /><path clip-path="url(#clip620)" d="M1188.1 32.4315 Q1182.1 32.4315 1178.62 37.1306 Q1175.13 41.7891 1175.13 49.9314 Q1175.13 58.0738 1178.58 62.7728 Q1182.06 67.4314 1188.1 67.4314 Q1194.05 67.4314 1197.54 62.7323 Q1201.02 58.0333 1201.02 49.9314 Q1201.02 41.8701 1197.54 37.1711 Q1194.05 32.4315 1188.1 32.4315 M1188.1 26.1121 Q1197.82 26.1121 1203.37 32.4315 Q1208.92 38.7509 1208.92 49.9314 Q1208.92 61.0714 1203.37 67.4314 Q1197.82 73.7508 1188.1 73.7508 Q1178.33 73.7508 1172.78 67.4314 Q1167.27 61.0714 1167.27 49.9314 Q1167.27 38.7509 1172.78 32.4315 Q1178.33 26.1121 1188.1 26.1121 Z" fill="#000000" fill-rule="nonzero" fill-opacity="1" /><path clip-path="url(#clip620)" d="M1256.44 27.2059 L1240.03 49.2833 L1257.29 72.576 L1248.5 72.576 L1235.29 54.752 L1222.08 72.576 L1213.29 72.576 L1230.91 48.8377 L1214.79 27.2059 L1223.58 27.2059 L1235.61 43.369 L1247.64 27.2059 L1256.44 27.2059 Z" fill="#000000" fill-rule="nonzero" fill-opacity="1" /><path clip-path="url(#clip620)" d="M1267.82 27.2059 L1275.27 27.2059 L1275.27 72.576 L1267.82 72.576 L1267.82 27.2059 M1267.82 9.54393 L1275.27 9.54393 L1275.27 18.9825 L1267.82 18.9825 L1267.82 9.54393 Z" fill="#000000" fill-rule="nonzero" fill-opacity="1" /><path clip-path="url(#clip620)" d="M1326.19 35.9153 Q1328.99 30.8922 1332.88 28.5022 Q1336.76 26.1121 1342.03 26.1121 Q1349.12 26.1121 1352.97 31.0947 Q1356.82 36.0368 1356.82 45.1919 L1356.82 72.576 L1349.32 72.576 L1349.32 45.4349 Q1349.32 38.913 1347.01 35.7533 Q1344.7 32.5936 1339.96 32.5936 Q1334.17 32.5936 1330.81 36.4419 Q1327.45 40.2903 1327.45 46.9338 L1327.45 72.576 L1319.95 72.576 L1319.95 45.4349 Q1319.95 38.8725 1317.64 35.7533 Q1315.34 32.5936 1310.51 32.5936 Q1304.8 32.5936 1301.44 36.4824 Q1298.08 40.3308 1298.08 46.9338 L1298.08 72.576 L1290.58 72.576 L1290.58 27.2059 L1298.08 27.2059 L1298.08 34.2544 Q1300.63 30.082 1304.2 28.0971 Q1307.76 26.1121 1312.66 26.1121 Q1317.6 26.1121 1321.05 28.6237 Q1324.53 31.1352 1326.19 35.9153 Z" fill="#000000" fill-rule="nonzero" fill-opacity="1" /><path clip-path="url(#clip620)" d="M1392.3 49.7694 Q1383.27 49.7694 1379.79 51.8354 Q1376.3 53.9013 1376.3 58.8839 Q1376.3 62.8538 1378.89 65.2034 Q1381.53 67.5124 1386.02 67.5124 Q1392.22 67.5124 1395.95 63.1374 Q1399.72 58.7219 1399.72 51.4303 L1399.72 49.7694 L1392.3 49.7694 M1407.17 46.6907 L1407.17 72.576 L1399.72 72.576 L1399.72 65.6895 Q1397.16 69.8214 1393.36 71.8063 Q1389.55 73.7508 1384.04 73.7508 Q1377.07 73.7508 1372.94 69.8619 Q1368.85 65.9325 1368.85 59.3701 Q1368.85 51.7138 1373.95 47.825 Q1379.1 43.9361 1389.26 43.9361 L1399.72 43.9361 L1399.72 43.2069 Q1399.72 38.0623 1396.31 35.2672 Q1392.95 32.4315 1386.83 32.4315 Q1382.95 32.4315 1379.26 33.3632 Q1375.57 34.295 1372.17 36.1584 L1372.17 29.2718 Q1376.26 27.692 1380.11 26.9223 Q1383.96 26.1121 1387.6 26.1121 Q1397.45 26.1121 1402.31 31.2163 Q1407.17 36.3204 1407.17 46.6907 Z" fill="#000000" fill-rule="nonzero" fill-opacity="1" /><path clip-path="url(#clip620)" d="M1429.9 14.324 L1429.9 27.2059 L1445.25 27.2059 L1445.25 32.9987 L1429.9 32.9987 L1429.9 57.6282 Q1429.9 63.1779 1431.39 64.7578 Q1432.93 66.3376 1437.59 66.3376 L1445.25 66.3376 L1445.25 72.576 L1437.59 72.576 Q1428.96 72.576 1425.68 69.3758 Q1422.4 66.1351 1422.4 57.6282 L1422.4 32.9987 L1416.93 32.9987 L1416.93 27.2059 L1422.4 27.2059 L1422.4 14.324 L1429.9 14.324 Z" fill="#000000" fill-rule="nonzero" fill-opacity="1" /><path clip-path="url(#clip620)" d="M1455.05 27.2059 L1462.5 27.2059 L1462.5 72.576 L1455.05 72.576 L1455.05 27.2059 M1455.05 9.54393 L1462.5 9.54393 L1462.5 18.9825 L1455.05 18.9825 L1455.05 9.54393 Z" fill="#000000" fill-rule="nonzero" fill-opacity="1" /><path clip-path="url(#clip620)" d="M1495.68 32.4315 Q1489.69 32.4315 1486.2 37.1306 Q1482.72 41.7891 1482.72 49.9314 Q1482.72 58.0738 1486.16 62.7728 Q1489.65 67.4314 1495.68 67.4314 Q1501.64 67.4314 1505.12 62.7323 Q1508.6 58.0333 1508.6 49.9314 Q1508.6 41.8701 1505.12 37.1711 Q1501.64 32.4315 1495.68 32.4315 M1495.68 26.1121 Q1505.4 26.1121 1510.95 32.4315 Q1516.5 38.7509 1516.5 49.9314 Q1516.5 61.0714 1510.95 67.4314 Q1505.4 73.7508 1495.68 73.7508 Q1485.92 73.7508 1480.37 67.4314 Q1474.86 61.0714 1474.86 49.9314 Q1474.86 38.7509 1480.37 32.4315 Q1485.92 26.1121 1495.68 26.1121 Z" fill="#000000" fill-rule="nonzero" fill-opacity="1" /><path clip-path="url(#clip620)" d="M1566.57 45.1919 L1566.57 72.576 L1559.12 72.576 L1559.12 45.4349 Q1559.12 38.994 1556.61 35.7938 Q1554.1 32.5936 1549.07 32.5936 Q1543.04 32.5936 1539.55 36.4419 Q1536.07 40.2903 1536.07 46.9338 L1536.07 72.576 L1528.58 72.576 L1528.58 27.2059 L1536.07 27.2059 L1536.07 34.2544 Q1538.74 30.163 1542.35 28.1376 Q1545.99 26.1121 1550.73 26.1121 Q1558.55 26.1121 1562.56 30.9732 Q1566.57 35.7938 1566.57 45.1919 Z" fill="#000000" fill-rule="nonzero" fill-opacity="1" /><path clip-path="url(#clip620)" d="M1583.34 62.2867 L1591.89 62.2867 L1591.89 69.2543 L1585.25 82.2172 L1580.02 82.2172 L1583.34 69.2543 L1583.34 62.2867 Z" fill="#000000" fill-rule="nonzero" fill-opacity="1" /><path clip-path="url(#clip620)" d="M1653.75 39.075 Q1648.24 39.075 1645 42.8424 Q1641.8 46.6097 1641.8 53.1722 Q1641.8 59.6941 1645 63.502 Q1648.24 67.2693 1653.75 67.2693 Q1659.26 67.2693 1662.46 63.502 Q1665.7 59.6941 1665.7 53.1722 Q1665.7 46.6097 1662.46 42.8424 Q1659.26 39.075 1653.75 39.075 M1669.99 13.4328 L1669.99 20.8865 Q1666.91 19.4281 1663.75 18.6585 Q1660.63 17.8888 1657.56 17.8888 Q1649.45 17.8888 1645.16 23.3575 Q1640.91 28.8262 1640.3 39.8852 Q1642.69 36.3609 1646.29 34.4975 Q1649.9 32.5936 1654.23 32.5936 Q1663.35 32.5936 1668.61 38.1433 Q1673.92 43.6525 1673.92 53.1722 Q1673.92 62.4892 1668.41 68.12 Q1662.9 73.7508 1653.75 73.7508 Q1643.26 73.7508 1637.71 65.73 Q1632.16 57.6687 1632.16 42.3968 Q1632.16 28.0566 1638.96 19.5497 Q1645.77 11.0023 1657.23 11.0023 Q1660.31 11.0023 1663.43 11.6099 Q1666.59 12.2175 1669.99 13.4328 Z" fill="#000000" fill-rule="nonzero" fill-opacity="1" /><path clip-path="url(#clip620)" d="M1683.2 46.5287 L1705.03 46.5287 L1705.03 53.1722 L1683.2 53.1722 L1683.2 46.5287 Z" fill="#000000" fill-rule="nonzero" fill-opacity="1" /><path clip-path="url(#clip620)" d="M1743.19 34.1734 Q1741.94 33.4443 1740.44 33.1202 Q1738.98 32.7556 1737.2 32.7556 Q1730.88 32.7556 1727.47 36.8875 Q1724.11 40.9789 1724.11 48.6757 L1724.11 72.576 L1716.62 72.576 L1716.62 27.2059 L1724.11 27.2059 L1724.11 34.2544 Q1726.46 30.1225 1730.23 28.1376 Q1734 26.1121 1739.38 26.1121 Q1740.15 26.1121 1741.09 26.2337 Q1742.02 26.3147 1743.15 26.5172 L1743.19 34.1734 Z" fill="#000000" fill-rule="nonzero" fill-opacity="1" /><path clip-path="url(#clip620)" d="M1787.99 48.0275 L1787.99 51.6733 L1753.72 51.6733 Q1754.21 59.3701 1758.34 63.421 Q1762.51 67.4314 1769.93 67.4314 Q1774.22 67.4314 1778.23 66.3781 Q1782.28 65.3249 1786.25 63.2184 L1786.25 70.267 Q1782.24 71.9684 1778.03 72.8596 Q1773.82 73.7508 1769.48 73.7508 Q1758.63 73.7508 1752.27 67.4314 Q1745.95 61.1119 1745.95 50.3365 Q1745.95 39.1965 1751.94 32.6746 Q1757.98 26.1121 1768.19 26.1121 Q1777.34 26.1121 1782.65 32.0264 Q1787.99 37.9003 1787.99 48.0275 M1780.54 45.84 Q1780.46 39.7232 1777.1 36.0774 Q1773.78 32.4315 1768.27 32.4315 Q1762.03 32.4315 1758.26 35.9558 Q1754.53 39.4801 1753.97 45.8805 L1780.54 45.84 Z" fill="#000000" fill-rule="nonzero" fill-opacity="1" /><path clip-path="url(#clip620)" d="M1830.08 49.3643 Q1830.08 41.2625 1826.72 36.8065 Q1823.4 32.3505 1817.36 32.3505 Q1811.37 32.3505 1808.01 36.8065 Q1804.68 41.2625 1804.68 49.3643 Q1804.68 57.4256 1808.01 61.8816 Q1811.37 66.3376 1817.36 66.3376 Q1823.4 66.3376 1826.72 61.8816 Q1830.08 57.4256 1830.08 49.3643 M1837.54 66.9452 Q1837.54 78.5308 1832.39 84.1616 Q1827.25 89.8329 1816.63 89.8329 Q1812.71 89.8329 1809.22 89.2252 Q1805.74 88.6581 1802.46 87.4428 L1802.46 80.1917 Q1805.74 81.9741 1808.94 82.8248 Q1812.14 83.6755 1815.46 83.6755 Q1822.79 83.6755 1826.44 79.8271 Q1830.08 76.0193 1830.08 68.282 L1830.08 64.5957 Q1827.77 68.6061 1824.17 70.5911 Q1820.56 72.576 1815.54 72.576 Q1807.2 72.576 1802.09 66.2161 Q1796.99 59.8562 1796.99 49.3643 Q1796.99 38.832 1802.09 32.472 Q1807.2 26.1121 1815.54 26.1121 Q1820.56 26.1121 1824.17 28.0971 Q1827.77 30.082 1830.08 34.0924 L1830.08 27.2059 L1837.54 27.2059 L1837.54 66.9452 Z" fill="#000000" fill-rule="nonzero" fill-opacity="1" /><path clip-path="url(#clip620)" d="M1852.12 54.671 L1852.12 27.2059 L1859.57 27.2059 L1859.57 54.3874 Q1859.57 60.8284 1862.09 64.0691 Q1864.6 67.2693 1869.62 67.2693 Q1875.66 67.2693 1879.14 63.421 Q1882.66 59.5726 1882.66 52.9291 L1882.66 27.2059 L1890.12 27.2059 L1890.12 72.576 L1882.66 72.576 L1882.66 65.6084 Q1879.95 69.7404 1876.35 71.7658 Q1872.78 73.7508 1868.04 73.7508 Q1860.22 73.7508 1856.17 68.8897 Q1852.12 64.0286 1852.12 54.671 M1870.88 26.1121 L1870.88 26.1121 Z" fill="#000000" fill-rule="nonzero" fill-opacity="1" /><path clip-path="url(#clip620)" d="M1905.47 9.54393 L1912.92 9.54393 L1912.92 72.576 L1905.47 72.576 L1905.47 9.54393 Z" fill="#000000" fill-rule="nonzero" fill-opacity="1" /><path clip-path="url(#clip620)" d="M1949.14 49.7694 Q1940.11 49.7694 1936.62 51.8354 Q1933.14 53.9013 1933.14 58.8839 Q1933.14 62.8538 1935.73 65.2034 Q1938.36 67.5124 1942.86 67.5124 Q1949.06 67.5124 1952.79 63.1374 Q1956.55 58.7219 1956.55 51.4303 L1956.55 49.7694 L1949.14 49.7694 M1964.01 46.6907 L1964.01 72.576 L1956.55 72.576 L1956.55 65.6895 Q1954 69.8214 1950.19 71.8063 Q1946.39 73.7508 1940.88 73.7508 Q1933.91 73.7508 1929.78 69.8619 Q1925.69 65.9325 1925.69 59.3701 Q1925.69 51.7138 1930.79 47.825 Q1935.93 43.9361 1946.1 43.9361 L1956.55 43.9361 L1956.55 43.2069 Q1956.55 38.0623 1953.15 35.2672 Q1949.79 32.4315 1943.67 32.4315 Q1939.78 32.4315 1936.1 33.3632 Q1932.41 34.295 1929.01 36.1584 L1929.01 29.2718 Q1933.1 27.692 1936.95 26.9223 Q1940.8 26.1121 1944.44 26.1121 Q1954.28 26.1121 1959.15 31.2163 Q1964.01 36.3204 1964.01 46.6907 Z" fill="#000000" fill-rule="nonzero" fill-opacity="1" /><path clip-path="url(#clip620)" d="M2005.65 34.1734 Q2004.39 33.4443 2002.9 33.1202 Q2001.44 32.7556 1999.65 32.7556 Q1993.34 32.7556 1989.93 36.8875 Q1986.57 40.9789 1986.57 48.6757 L1986.57 72.576 L1979.08 72.576 L1979.08 27.2059 L1986.57 27.2059 L1986.57 34.2544 Q1988.92 30.1225 1992.69 28.1376 Q1996.45 26.1121 2001.84 26.1121 Q2002.61 26.1121 2003.54 26.2337 Q2004.48 26.3147 2005.61 26.5172 L2005.65 34.1734 Z" fill="#000000" fill-rule="nonzero" fill-opacity="1" /><path clip-path="url(#clip620)" d="M2015.37 62.2867 L2023.92 62.2867 L2023.92 69.2543 L2017.28 82.2172 L2012.05 82.2172 L2015.37 69.2543 L2015.37 62.2867 Z" fill="#000000" fill-rule="nonzero" fill-opacity="1" /><path clip-path="url(#clip620)" d="M2095.22 44.2197 Q2097.85 45.1109 2100.32 48.0275 Q2102.83 50.9442 2105.34 56.0483 L2113.65 72.576 L2104.86 72.576 L2097.12 57.061 Q2094.12 50.9847 2091.29 48.9997 Q2088.49 47.0148 2083.63 47.0148 L2074.72 47.0148 L2074.72 72.576 L2066.54 72.576 L2066.54 12.096 L2085.01 12.096 Q2095.38 12.096 2100.48 16.4305 Q2105.59 20.7649 2105.59 29.5149 Q2105.59 35.2267 2102.91 38.994 Q2100.28 42.7613 2095.22 44.2197 M2074.72 18.8205 L2074.72 40.2903 L2085.01 40.2903 Q2090.92 40.2903 2093.92 37.5762 Q2096.96 34.8216 2096.96 29.5149 Q2096.96 24.2082 2093.92 21.5346 Q2090.92 18.8205 2085.01 18.8205 L2074.72 18.8205 Z" fill="#000000" fill-rule="nonzero" fill-opacity="1" /><path clip-path="url(#clip620)" d="M2139.13 45.1514 Q2137.1 41.6676 2133.01 41.6676 Q2128.92 41.6676 2126.89 45.1514 Q2124.83 48.6352 2124.83 55.6027 Q2124.83 62.6108 2126.89 66.0946 Q2128.92 69.5783 2133.01 69.5783 Q2137.1 69.5783 2139.13 66.0946 Q2141.19 62.6108 2141.19 55.6027 Q2141.19 48.6352 2139.13 45.1514 M2133.01 38.0623 Q2139.53 38.0623 2142.98 42.5588 Q2146.42 47.0553 2146.42 55.6027 Q2146.42 64.1906 2142.98 68.6871 Q2139.53 73.1836 2133.01 73.1836 Q2126.45 73.1836 2123 68.6871 Q2119.56 64.1906 2119.56 55.6027 Q2119.56 47.0553 2123 42.5588 Q2126.45 38.0623 2133.01 38.0623 Z" fill="#000000" fill-rule="nonzero" fill-opacity="1" /><path clip-path="url(#clip620)" d="M2158.09 34.9026 L2210.02 34.9026 L2210.02 41.7081 L2158.09 41.7081 L2158.09 34.9026 M2158.09 51.4303 L2210.02 51.4303 L2210.02 58.3168 L2158.09 58.3168 L2158.09 51.4303 Z" fill="#000000" fill-rule="nonzero" fill-opacity="1" /><path clip-path="url(#clip620)" d="M2234.73 65.6895 L2263.29 65.6895 L2263.29 72.576 L2224.88 72.576 L2224.88 65.6895 Q2229.54 60.8689 2237.56 52.7671 Q2245.63 44.6248 2247.69 42.2752 Q2251.62 37.8598 2253.16 34.8216 Q2254.74 31.7429 2254.74 28.7857 Q2254.74 23.9651 2251.34 20.927 Q2247.98 17.8888 2242.55 17.8888 Q2238.7 17.8888 2234.4 19.2256 Q2230.15 20.5624 2225.29 23.2765 L2225.29 15.0127 Q2230.23 13.0277 2234.53 12.015 Q2238.82 11.0023 2242.38 11.0023 Q2251.78 11.0023 2257.37 15.7013 Q2262.96 20.4004 2262.96 28.2591 Q2262.96 31.9859 2261.55 35.3482 Q2260.17 38.6699 2256.48 43.2069 Q2255.47 44.3817 2250.04 50.0125 Q2244.61 55.6027 2234.73 65.6895 Z" fill="#000000" fill-rule="nonzero" fill-opacity="1" /><polyline clip-path="url(#clip621)" style="stroke:#009af9; stroke-linecap:round; stroke-linejoin:round; stroke-width:8; stroke-opacity:1; fill:none" points="323.315,173.254 323.756,173.702 325.534,175.55 328.276,178.538 331.471,182.243 335.201,186.89 339.461,192.656 344.387,199.977 350.107,209.439 355.678,219.747 361.537,231.861 367.451,245.53 373.51,261.176 379.645,278.848 385.877,298.819 392.188,321.259 398.594,346.428 405.107,374.588 411.761,406.095 418.618,441.459 425.816,481.656 433.853,530.042 441.574,579.613 448.88,628.827 456.058,678.826 463.056,728.545 469.958,777.949 476.784,826.565 483.585,874.223 490.403,920.696 497.293,965.882 504.319,1009.73 511.581,1052.35 519.239,1094.1 527.721,1136.34 536.543,1175.8 544.794,1208.71 553.255,1238.66 561.695,1264.98 570.358,1288.64 579.283,1309.81 588.679,1329 598.568,1346.21 608.292,1360.55 617.934,1372.63 627.509,1382.81 637.065,1391.44 646.629,1398.77 656.237,1405.03 665.921,1410.37 675.716,1414.95 685.654,1418.88 695.772,1422.25 706.104,1425.14 716.689,1427.61 727.566,1429.74 738.778,1431.55 750.37,1433.1 762.393,1434.41 774.9,1435.52 787.952,1436.45 801.613,1437.23 815.956,1437.88 831.059,1438.41 847,1438.84 863.839,1439.19 881.59,1439.46 900.194,1439.67 919.56,1439.83 939.632,1439.95 960.396,1440.03 981.875,1440.1 1004.12,1440.14 1027.2,1440.17 1051.21,1440.19 1076.25,1440.21 1102.45,1440.22 1129.96,1440.23 1158.95,1440.23 1189.63,1440.24 1222.25,1440.24 1257.09,1440.24 1294.52,1440.24 1335,1440.24 1379.11,1440.24 1427.65,1440.24 1481.76,1440.24 1543.25,1440.24 1616.06,1440.24 1708.48,1440.24 1793.3,1440.24 1910.46,1440.24 2024.03,1440.24 2179.61,1440.24 2347.95,1440.24 2569.31,1440.24 2573.26,1440.24 "/>
<polyline clip-path="url(#clip621)" style="stroke:#e26f46; stroke-linecap:round; stroke-linejoin:round; stroke-width:8; stroke-opacity:1; fill:none" points="323.315,1673.35 323.756,1673.05 325.534,1671.84 328.276,1669.94 331.471,1667.64 335.201,1664.85 339.461,1661.5 344.387,1657.37 350.107,1652.21 355.678,1646.75 361.537,1640.49 367.451,1633.6 373.51,1625.88 379.645,1617.34 385.877,1607.89 392.188,1597.5 398.594,1586.1 405.107,1573.68 411.761,1560.16 418.618,1545.49 425.816,1529.47 433.853,1511.15 441.574,1493.54 448.88,1477.33 456.058,1462.26 463.056,1448.81 469.958,1437.12 476.784,1427.41 483.585,1419.84 490.403,1414.53 497.293,1411.57 504.319,1411.07 511.581,1413.11 519.239,1417.89 527.721,1425.97 536.543,1436.96 544.794,1449.11 553.255,1462.92 561.695,1477.57 570.358,1493.07 579.283,1509.1 588.679,1525.66 598.568,1542.42 608.292,1557.97 617.934,1572.34 627.509,1585.49 637.065,1597.48 646.629,1608.34 656.237,1618.17 665.921,1627.02 675.716,1634.98 685.654,1642.1 695.772,1648.47 706.104,1654.14 716.689,1659.17 727.566,1663.63 738.778,1667.55 750.37,1670.98 762.393,1673.98 774.9,1676.58 787.952,1678.81 801.613,1680.72 815.956,1682.34 831.059,1683.69 847,1684.81 863.839,1685.73 881.59,1686.46 900.194,1687.03 919.56,1687.47 939.632,1687.8 960.396,1688.05 981.875,1688.23 1004.12,1688.36 1027.2,1688.45 1051.21,1688.52 1076.25,1688.57 1102.45,1688.6 1129.96,1688.62 1158.95,1688.63 1189.63,1688.64 1222.25,1688.65 1257.09,1688.65 1294.52,1688.65 1335,1688.65 1379.11,1688.65 1427.65,1688.65 1481.76,1688.65 1543.25,1688.65 1616.06,1688.65 1708.48,1688.65 1793.3,1688.65 1910.46,1688.65 2024.03,1688.65 2179.61,1688.65 2347.95,1688.65 2569.31,1688.65 2573.26,1688.65 "/>
<polyline clip-path="url(#clip621)" style="stroke:#3da44d; stroke-linecap:round; stroke-linejoin:round; stroke-width:8; stroke-opacity:1; fill:none" points="323.315,1688.65 323.756,1688.5 325.534,1687.86 328.276,1686.78 331.471,1685.37 335.201,1683.51 339.461,1681.1 344.387,1677.91 350.107,1673.61 355.678,1668.76 361.537,1662.9 367.451,1656.13 373.51,1648.2 379.645,1639.07 385.877,1628.55 392.188,1616.5 398.594,1602.72 405.107,1586.99 411.761,1569 418.618,1548.31 425.816,1524.14 433.853,1494.07 441.574,1462.1 448.88,1429.1 456.058,1394.17 463.056,1357.9 469.958,1320.19 476.784,1281.28 483.585,1241.19 490.403,1200.03 497.293,1157.8 504.319,1114.46 511.581,1069.8 519.239,1023.27 527.721,972.954 536.543,922.495 544.794,877.433 553.255,833.673 561.695,792.702 570.358,753.55 579.283,716.352 588.679,680.597 598.568,646.633 608.292,616.732 617.934,590.287 627.509,566.956 637.065,546.342 646.629,528.138 656.237,512.058 665.921,497.86 675.716,485.328 685.654,474.276 695.772,464.541 706.104,455.98 716.689,448.468 727.566,441.894 738.778,436.159 750.37,431.177 762.393,426.867 774.9,423.16 787.952,419.992 801.613,417.303 815.956,415.041 831.059,413.156 847,411.604 863.839,410.345 881.59,409.34 900.194,408.556 919.56,407.957 939.632,407.507 960.396,407.174 981.875,406.931 1004.12,406.755 1027.2,406.63 1051.21,406.542 1076.25,406.48 1102.45,406.439 1129.96,406.411 1158.95,406.392 1189.63,406.38 1222.25,406.373 1257.09,406.368 1294.52,406.366 1335,406.364 1379.11,406.363 1427.65,406.363 1481.76,406.363 1543.25,406.363 1616.06,406.362 1708.48,406.362 1793.3,406.362 1910.46,406.362 2024.03,406.362 2179.61,406.362 2347.95,406.362 2569.31,406.362 2573.26,406.362 "/>
<path clip-path="url(#clip620)" d="M2295.84 388.696 L2561.26 388.696 L2561.26 181.336 L2295.84 181.336  Z" fill="#ffffff" fill-rule="evenodd" fill-opacity="1"/>
<polyline clip-path="url(#clip620)" style="stroke:#000000; stroke-linecap:round; stroke-linejoin:round; stroke-width:4; stroke-opacity:1; fill:none" points="2295.84,388.696 2561.26,388.696 2561.26,181.336 2295.84,181.336 2295.84,388.696 "/>
<polyline clip-path="url(#clip620)" style="stroke:#009af9; stroke-linecap:round; stroke-linejoin:round; stroke-width:8; stroke-opacity:1; fill:none" points="2322.34,233.176 2481.34,233.176 "/>
<path clip-path="url(#clip620)" d="M2530.08 217.031 L2530.08 221.591 Q2527.42 220.318 2525.06 219.693 Q2522.7 219.068 2520.5 219.068 Q2516.68 219.068 2514.6 220.549 Q2512.54 222.031 2512.54 224.762 Q2512.54 227.054 2513.9 228.234 Q2515.29 229.392 2519.13 230.109 L2521.96 230.688 Q2527.19 231.683 2529.67 234.206 Q2532.17 236.706 2532.17 240.919 Q2532.17 245.942 2528.79 248.535 Q2525.43 251.128 2518.93 251.128 Q2516.47 251.128 2513.69 250.572 Q2510.94 250.016 2507.98 248.929 L2507.98 244.114 Q2510.82 245.711 2513.56 246.521 Q2516.29 247.331 2518.93 247.331 Q2522.93 247.331 2525.11 245.757 Q2527.28 244.183 2527.28 241.267 Q2527.28 238.72 2525.71 237.285 Q2524.16 235.85 2520.59 235.132 L2517.74 234.577 Q2512.51 233.535 2510.18 231.313 Q2507.84 229.091 2507.84 225.132 Q2507.84 220.549 2511.06 217.91 Q2514.3 215.271 2519.97 215.271 Q2522.4 215.271 2524.92 215.711 Q2527.44 216.151 2530.08 217.031 Z" fill="#000000" fill-rule="nonzero" fill-opacity="1" /><polyline clip-path="url(#clip620)" style="stroke:#e26f46; stroke-linecap:round; stroke-linejoin:round; stroke-width:8; stroke-opacity:1; fill:none" points="2322.34,285.016 2481.34,285.016 "/>
<path clip-path="url(#clip620)" d="M2507.84 267.736 L2512.51 267.736 L2512.51 302.296 L2507.84 302.296 L2507.84 267.736 Z" fill="#000000" fill-rule="nonzero" fill-opacity="1" /><polyline clip-path="url(#clip620)" style="stroke:#3da44d; stroke-linecap:round; stroke-linejoin:round; stroke-width:8; stroke-opacity:1; fill:none" points="2322.34,336.856 2481.34,336.856 "/>
<path clip-path="url(#clip620)" d="M2524.23 337.933 Q2525.73 338.442 2527.14 340.109 Q2528.58 341.775 2530.01 344.692 L2534.76 354.136 L2529.74 354.136 L2525.31 345.271 Q2523.6 341.798 2521.98 340.664 Q2520.38 339.53 2517.61 339.53 L2512.51 339.53 L2512.51 354.136 L2507.84 354.136 L2507.84 319.576 L2518.39 319.576 Q2524.32 319.576 2527.24 322.053 Q2530.15 324.53 2530.15 329.53 Q2530.15 332.794 2528.62 334.947 Q2527.12 337.099 2524.23 337.933 M2512.51 323.419 L2512.51 335.687 L2518.39 335.687 Q2521.77 335.687 2523.49 334.136 Q2525.22 332.562 2525.22 329.53 Q2525.22 326.498 2523.49 324.97 Q2521.77 323.419 2518.39 323.419 L2512.51 323.419 Z" fill="#000000" fill-rule="nonzero" fill-opacity="1" /></svg>
