<?xml version="1.0" encoding="utf-8"?>
<svg xmlns="http://www.w3.org/2000/svg" xmlns:xlink="http://www.w3.org/1999/xlink" width="672" height="480" viewBox="0 0 2688 1920">
<defs>
  <clipPath id="clip960">
    <rect x="0" y="0" width="2688" height="1920"/>
  </clipPath>
</defs>
<path clip-path="url(#clip960)" d="M0 1920 L2688 1920 L2688 -4.26326e-14 L0 -4.26326e-14  Z" fill="#ffffff" fill-rule="evenodd" fill-opacity="1"/>
<defs>
  <clipPath id="clip961">
    <rect x="226" y="127" width="2416" height="1607"/>
  </clipPath>
</defs>
<path clip-path="url(#clip960)" d="M226.141 1734.12 L2640.76 1734.12 L2640.76 127.792 L226.141 127.792  Z" fill="#ffffff" fill-rule="evenodd" fill-opacity="1"/>
<polyline clip-path="url(#clip961)" style="stroke:#000000; stroke-linecap:round; stroke-linejoin:round; stroke-width:2; stroke-opacity:0.1; fill:none" points="294.479,1734.12 294.479,127.792 "/>
<polyline clip-path="url(#clip961)" style="stroke:#000000; stroke-linecap:round; stroke-linejoin:round; stroke-width:2; stroke-opacity:0.1; fill:none" points="674.135,1734.12 674.135,127.792 "/>
<polyline clip-path="url(#clip961)" style="stroke:#000000; stroke-linecap:round; stroke-linejoin:round; stroke-width:2; stroke-opacity:0.1; fill:none" points="1053.79,1734.12 1053.79,127.792 "/>
<polyline clip-path="url(#clip961)" style="stroke:#000000; stroke-linecap:round; stroke-linejoin:round; stroke-width:2; stroke-opacity:0.1; fill:none" points="1433.45,1734.12 1433.45,127.792 "/>
<polyline clip-path="url(#clip961)" style="stroke:#000000; stroke-linecap:round; stroke-linejoin:round; stroke-width:2; stroke-opacity:0.1; fill:none" points="1813.1,1734.12 1813.1,127.792 "/>
<polyline clip-path="url(#clip961)" style="stroke:#000000; stroke-linecap:round; stroke-linejoin:round; stroke-width:2; stroke-opacity:0.1; fill:none" points="2192.76,1734.12 2192.76,127.792 "/>
<polyline clip-path="url(#clip961)" style="stroke:#000000; stroke-linecap:round; stroke-linejoin:round; stroke-width:2; stroke-opacity:0.1; fill:none" points="2572.42,1734.12 2572.42,127.792 "/>
<polyline clip-path="url(#clip961)" style="stroke:#000000; stroke-linecap:round; stroke-linejoin:round; stroke-width:2; stroke-opacity:0.1; fill:none" points="226.141,1593.7 2640.76,1593.7 "/>
<polyline clip-path="url(#clip961)" style="stroke:#000000; stroke-linecap:round; stroke-linejoin:round; stroke-width:2; stroke-opacity:0.1; fill:none" points="226.141,1370.96 2640.76,1370.96 "/>
<polyline clip-path="url(#clip961)" style="stroke:#000000; stroke-linecap:round; stroke-linejoin:round; stroke-width:2; stroke-opacity:0.1; fill:none" points="226.141,1148.22 2640.76,1148.22 "/>
<polyline clip-path="url(#clip961)" style="stroke:#000000; stroke-linecap:round; stroke-linejoin:round; stroke-width:2; stroke-opacity:0.1; fill:none" points="226.141,925.478 2640.76,925.478 "/>
<polyline clip-path="url(#clip961)" style="stroke:#000000; stroke-linecap:round; stroke-linejoin:round; stroke-width:2; stroke-opacity:0.1; fill:none" points="226.141,702.737 2640.76,702.737 "/>
<polyline clip-path="url(#clip961)" style="stroke:#000000; stroke-linecap:round; stroke-linejoin:round; stroke-width:2; stroke-opacity:0.1; fill:none" points="226.141,479.995 2640.76,479.995 "/>
<polyline clip-path="url(#clip961)" style="stroke:#000000; stroke-linecap:round; stroke-linejoin:round; stroke-width:2; stroke-opacity:0.1; fill:none" points="226.141,257.254 2640.76,257.254 "/>
<polyline clip-path="url(#clip960)" style="stroke:#000000; stroke-linecap:round; stroke-linejoin:round; stroke-width:4; stroke-opacity:1; fill:none" points="226.141,1734.12 2640.76,1734.12 "/>
<polyline clip-path="url(#clip960)" style="stroke:#000000; stroke-linecap:round; stroke-linejoin:round; stroke-width:4; stroke-opacity:1; fill:none" points="294.479,1734.12 294.479,1715.22 "/>
<polyline clip-path="url(#clip960)" style="stroke:#000000; stroke-linecap:round; stroke-linejoin:round; stroke-width:4; stroke-opacity:1; fill:none" points="674.135,1734.12 674.135,1715.22 "/>
<polyline clip-path="url(#clip960)" style="stroke:#000000; stroke-linecap:round; stroke-linejoin:round; stroke-width:4; stroke-opacity:1; fill:none" points="1053.79,1734.12 1053.79,1715.22 "/>
<polyline clip-path="url(#clip960)" style="stroke:#000000; stroke-linecap:round; stroke-linejoin:round; stroke-width:4; stroke-opacity:1; fill:none" points="1433.45,1734.12 1433.45,1715.22 "/>
<polyline clip-path="url(#clip960)" style="stroke:#000000; stroke-linecap:round; stroke-linejoin:round; stroke-width:4; stroke-opacity:1; fill:none" points="1813.1,1734.12 1813.1,1715.22 "/>
<polyline clip-path="url(#clip960)" style="stroke:#000000; stroke-linecap:round; stroke-linejoin:round; stroke-width:4; stroke-opacity:1; fill:none" points="2192.76,1734.12 2192.76,1715.22 "/>
<polyline clip-path="url(#clip960)" style="stroke:#000000; stroke-linecap:round; stroke-linejoin:round; stroke-width:4; stroke-opacity:1; fill:none" points="2572.42,1734.12 2572.42,1715.22 "/>
<path clip-path="url(#clip960)" d="M271.863 1767.34 Q268.252 1767.34 266.423 1770.9 Q264.618 1774.45 264.618 1781.58 Q264.618 1788.68 266.423 1792.25 Q268.252 1795.79 271.863 1795.79 Q275.497 1795.79 277.303 1792.25 Q279.132 1788.68 279.132 1781.58 Q279.132 1774.45 277.303 1770.9 Q275.497 1767.34 271.863 1767.34 M271.863 1763.64 Q277.673 1763.64 280.729 1768.24 Q283.807 1772.83 283.807 1781.58 Q283.807 1790.3 280.729 1794.91 Q277.673 1799.49 271.863 1799.49 Q266.053 1799.49 262.974 1794.91 Q259.919 1790.3 259.919 1781.58 Q259.919 1772.83 262.974 1768.24 Q266.053 1763.64 271.863 1763.64 Z" fill="#000000" fill-rule="nonzero" fill-opacity="1" /><path clip-path="url(#clip960)" d="M292.025 1792.94 L296.909 1792.94 L296.909 1798.82 L292.025 1798.82 L292.025 1792.94 Z" fill="#000000" fill-rule="nonzero" fill-opacity="1" /><path clip-path="url(#clip960)" d="M317.094 1767.34 Q313.483 1767.34 311.655 1770.9 Q309.849 1774.45 309.849 1781.58 Q309.849 1788.68 311.655 1792.25 Q313.483 1795.79 317.094 1795.79 Q320.729 1795.79 322.534 1792.25 Q324.363 1788.68 324.363 1781.58 Q324.363 1774.45 322.534 1770.9 Q320.729 1767.34 317.094 1767.34 M317.094 1763.64 Q322.904 1763.64 325.96 1768.24 Q329.039 1772.83 329.039 1781.58 Q329.039 1790.3 325.96 1794.91 Q322.904 1799.49 317.094 1799.49 Q311.284 1799.49 308.206 1794.91 Q305.15 1790.3 305.15 1781.58 Q305.15 1772.83 308.206 1768.24 Q311.284 1763.64 317.094 1763.64 Z" fill="#000000" fill-rule="nonzero" fill-opacity="1" /><path clip-path="url(#clip960)" d="M652.133 1767.34 Q648.522 1767.34 646.693 1770.9 Q644.888 1774.45 644.888 1781.58 Q644.888 1788.68 646.693 1792.25 Q648.522 1795.79 652.133 1795.79 Q655.767 1795.79 657.573 1792.25 Q659.402 1788.68 659.402 1781.58 Q659.402 1774.45 657.573 1770.9 Q655.767 1767.34 652.133 1767.34 M652.133 1763.64 Q657.943 1763.64 660.999 1768.24 Q664.077 1772.83 664.077 1781.58 Q664.077 1790.3 660.999 1794.91 Q657.943 1799.49 652.133 1799.49 Q646.323 1799.49 643.244 1794.91 Q640.189 1790.3 640.189 1781.58 Q640.189 1772.83 643.244 1768.24 Q646.323 1763.64 652.133 1763.64 Z" fill="#000000" fill-rule="nonzero" fill-opacity="1" /><path clip-path="url(#clip960)" d="M672.295 1792.94 L677.179 1792.94 L677.179 1798.82 L672.295 1798.82 L672.295 1792.94 Z" fill="#000000" fill-rule="nonzero" fill-opacity="1" /><path clip-path="url(#clip960)" d="M688.175 1794.89 L695.813 1794.89 L695.813 1768.52 L687.503 1770.19 L687.503 1765.93 L695.767 1764.26 L700.443 1764.26 L700.443 1794.89 L708.082 1794.89 L708.082 1798.82 L688.175 1798.82 L688.175 1794.89 Z" fill="#000000" fill-rule="nonzero" fill-opacity="1" /><path clip-path="url(#clip960)" d="M1031.97 1767.34 Q1028.36 1767.34 1026.53 1770.9 Q1024.73 1774.45 1024.73 1781.58 Q1024.73 1788.68 1026.53 1792.25 Q1028.36 1795.79 1031.97 1795.79 Q1035.61 1795.79 1037.41 1792.25 Q1039.24 1788.68 1039.24 1781.58 Q1039.24 1774.45 1037.41 1770.9 Q1035.61 1767.34 1031.97 1767.34 M1031.97 1763.64 Q1037.78 1763.64 1040.84 1768.24 Q1043.92 1772.83 1043.92 1781.58 Q1043.92 1790.3 1040.84 1794.91 Q1037.78 1799.49 1031.97 1799.49 Q1026.16 1799.49 1023.09 1794.91 Q1020.03 1790.3 1020.03 1781.58 Q1020.03 1772.83 1023.09 1768.24 Q1026.16 1763.64 1031.97 1763.64 Z" fill="#000000" fill-rule="nonzero" fill-opacity="1" /><path clip-path="url(#clip960)" d="M1052.14 1792.94 L1057.02 1792.94 L1057.02 1798.82 L1052.14 1798.82 L1052.14 1792.94 Z" fill="#000000" fill-rule="nonzero" fill-opacity="1" /><path clip-path="url(#clip960)" d="M1071.23 1794.89 L1087.55 1794.89 L1087.55 1798.82 L1065.61 1798.82 L1065.61 1794.89 Q1068.27 1792.13 1072.85 1787.5 Q1077.46 1782.85 1078.64 1781.51 Q1080.89 1778.98 1081.77 1777.25 Q1082.67 1775.49 1082.67 1773.8 Q1082.67 1771.04 1080.72 1769.31 Q1078.8 1767.57 1075.7 1767.57 Q1073.5 1767.57 1071.05 1768.34 Q1068.62 1769.1 1065.84 1770.65 L1065.84 1765.93 Q1068.66 1764.79 1071.12 1764.21 Q1073.57 1763.64 1075.61 1763.64 Q1080.98 1763.64 1084.17 1766.32 Q1087.37 1769.01 1087.37 1773.5 Q1087.37 1775.63 1086.56 1777.55 Q1085.77 1779.45 1083.66 1782.04 Q1083.09 1782.71 1079.98 1785.93 Q1076.88 1789.12 1071.23 1794.89 Z" fill="#000000" fill-rule="nonzero" fill-opacity="1" /><path clip-path="url(#clip960)" d="M1411.16 1767.34 Q1407.55 1767.34 1405.72 1770.9 Q1403.91 1774.45 1403.91 1781.58 Q1403.91 1788.68 1405.72 1792.25 Q1407.55 1795.79 1411.16 1795.79 Q1414.79 1795.79 1416.6 1792.25 Q1418.43 1788.68 1418.43 1781.58 Q1418.43 1774.45 1416.6 1770.9 Q1414.79 1767.34 1411.16 1767.34 M1411.16 1763.64 Q1416.97 1763.64 1420.02 1768.24 Q1423.1 1772.83 1423.1 1781.58 Q1423.1 1790.3 1420.02 1794.91 Q1416.97 1799.49 1411.16 1799.49 Q1405.35 1799.49 1402.27 1794.91 Q1399.21 1790.3 1399.21 1781.58 Q1399.21 1772.83 1402.27 1768.24 Q1405.35 1763.64 1411.16 1763.64 Z" fill="#000000" fill-rule="nonzero" fill-opacity="1" /><path clip-path="url(#clip960)" d="M1431.32 1792.94 L1436.2 1792.94 L1436.2 1798.82 L1431.32 1798.82 L1431.32 1792.94 Z" fill="#000000" fill-rule="nonzero" fill-opacity="1" /><path clip-path="url(#clip960)" d="M1460.55 1780.19 Q1463.91 1780.9 1465.79 1783.17 Q1467.68 1785.44 1467.68 1788.77 Q1467.68 1793.89 1464.17 1796.69 Q1460.65 1799.49 1454.17 1799.49 Q1451.99 1799.49 1449.67 1799.05 Q1447.38 1798.64 1444.93 1797.78 L1444.93 1793.27 Q1446.87 1794.4 1449.19 1794.98 Q1451.5 1795.56 1454.03 1795.56 Q1458.42 1795.56 1460.72 1793.82 Q1463.03 1792.08 1463.03 1788.77 Q1463.03 1785.72 1460.88 1784.01 Q1458.75 1782.27 1454.93 1782.27 L1450.9 1782.27 L1450.9 1778.43 L1455.11 1778.43 Q1458.56 1778.43 1460.39 1777.06 Q1462.22 1775.67 1462.22 1773.08 Q1462.22 1770.42 1460.32 1769.01 Q1458.45 1767.57 1454.93 1767.57 Q1453.01 1767.57 1450.81 1767.99 Q1448.61 1768.4 1445.97 1769.28 L1445.97 1765.12 Q1448.63 1764.38 1450.95 1764.01 Q1453.29 1763.64 1455.35 1763.64 Q1460.67 1763.64 1463.77 1766.07 Q1466.87 1768.47 1466.87 1772.59 Q1466.87 1775.46 1465.23 1777.46 Q1463.59 1779.42 1460.55 1780.19 Z" fill="#000000" fill-rule="nonzero" fill-opacity="1" /><path clip-path="url(#clip960)" d="M1790.25 1767.34 Q1786.63 1767.34 1784.81 1770.9 Q1783 1774.45 1783 1781.58 Q1783 1788.68 1784.81 1792.25 Q1786.63 1795.79 1790.25 1795.79 Q1793.88 1795.79 1795.69 1792.25 Q1797.51 1788.68 1797.51 1781.58 Q1797.51 1774.45 1795.69 1770.9 Q1793.88 1767.34 1790.25 1767.34 M1790.25 1763.64 Q1796.06 1763.64 1799.11 1768.24 Q1802.19 1772.83 1802.19 1781.58 Q1802.19 1790.3 1799.11 1794.91 Q1796.06 1799.49 1790.25 1799.49 Q1784.44 1799.49 1781.36 1794.91 Q1778.3 1790.3 1778.3 1781.58 Q1778.3 1772.83 1781.36 1768.24 Q1784.44 1763.64 1790.25 1763.64 Z" fill="#000000" fill-rule="nonzero" fill-opacity="1" /><path clip-path="url(#clip960)" d="M1810.41 1792.94 L1815.29 1792.94 L1815.29 1798.82 L1810.41 1798.82 L1810.41 1792.94 Z" fill="#000000" fill-rule="nonzero" fill-opacity="1" /><path clip-path="url(#clip960)" d="M1838.32 1768.34 L1826.52 1786.78 L1838.32 1786.78 L1838.32 1768.34 M1837.1 1764.26 L1842.98 1764.26 L1842.98 1786.78 L1847.91 1786.78 L1847.91 1790.67 L1842.98 1790.67 L1842.98 1798.82 L1838.32 1798.82 L1838.32 1790.67 L1822.72 1790.67 L1822.72 1786.16 L1837.1 1764.26 Z" fill="#000000" fill-rule="nonzero" fill-opacity="1" /><path clip-path="url(#clip960)" d="M2170.64 1767.34 Q2167.03 1767.34 2165.2 1770.9 Q2163.4 1774.45 2163.4 1781.58 Q2163.4 1788.68 2165.2 1792.25 Q2167.03 1795.79 2170.64 1795.79 Q2174.28 1795.79 2176.08 1792.25 Q2177.91 1788.68 2177.91 1781.58 Q2177.91 1774.45 2176.08 1770.9 Q2174.28 1767.34 2170.64 1767.34 M2170.64 1763.64 Q2176.45 1763.64 2179.51 1768.24 Q2182.59 1772.83 2182.59 1781.58 Q2182.59 1790.3 2179.51 1794.91 Q2176.45 1799.49 2170.64 1799.49 Q2164.83 1799.49 2161.75 1794.91 Q2158.7 1790.3 2158.7 1781.58 Q2158.7 1772.83 2161.75 1768.24 Q2164.83 1763.64 2170.64 1763.64 Z" fill="#000000" fill-rule="nonzero" fill-opacity="1" /><path clip-path="url(#clip960)" d="M2190.81 1792.94 L2195.69 1792.94 L2195.69 1798.82 L2190.81 1798.82 L2190.81 1792.94 Z" fill="#000000" fill-rule="nonzero" fill-opacity="1" /><path clip-path="url(#clip960)" d="M2205.92 1764.26 L2224.28 1764.26 L2224.28 1768.2 L2210.2 1768.2 L2210.2 1776.67 Q2211.22 1776.32 2212.24 1776.16 Q2213.26 1775.97 2214.28 1775.97 Q2220.06 1775.97 2223.44 1779.15 Q2226.82 1782.32 2226.82 1787.73 Q2226.82 1793.31 2223.35 1796.41 Q2219.88 1799.49 2213.56 1799.49 Q2211.38 1799.49 2209.12 1799.12 Q2206.87 1798.75 2204.46 1798.01 L2204.46 1793.31 Q2206.55 1794.45 2208.77 1795 Q2210.99 1795.56 2213.47 1795.56 Q2217.47 1795.56 2219.81 1793.45 Q2222.15 1791.34 2222.15 1787.73 Q2222.15 1784.12 2219.81 1782.02 Q2217.47 1779.91 2213.47 1779.91 Q2211.59 1779.91 2209.72 1780.33 Q2207.87 1780.74 2205.92 1781.62 L2205.92 1764.26 Z" fill="#000000" fill-rule="nonzero" fill-opacity="1" /><path clip-path="url(#clip960)" d="M2549.72 1767.34 Q2546.11 1767.34 2544.28 1770.9 Q2542.48 1774.45 2542.48 1781.58 Q2542.48 1788.68 2544.28 1792.25 Q2546.11 1795.79 2549.72 1795.79 Q2553.36 1795.79 2555.16 1792.25 Q2556.99 1788.68 2556.99 1781.58 Q2556.99 1774.45 2555.16 1770.9 Q2553.36 1767.34 2549.72 1767.34 M2549.72 1763.64 Q2555.53 1763.64 2558.59 1768.24 Q2561.67 1772.83 2561.67 1781.58 Q2561.67 1790.3 2558.59 1794.91 Q2555.53 1799.49 2549.72 1799.49 Q2543.91 1799.49 2540.83 1794.91 Q2537.78 1790.3 2537.78 1781.58 Q2537.78 1772.83 2540.83 1768.24 Q2543.91 1763.64 2549.72 1763.64 Z" fill="#000000" fill-rule="nonzero" fill-opacity="1" /><path clip-path="url(#clip960)" d="M2569.88 1792.94 L2574.77 1792.94 L2574.77 1798.82 L2569.88 1798.82 L2569.88 1792.94 Z" fill="#000000" fill-rule="nonzero" fill-opacity="1" /><path clip-path="url(#clip960)" d="M2595.53 1779.68 Q2592.38 1779.68 2590.53 1781.83 Q2588.7 1783.98 2588.7 1787.73 Q2588.7 1791.46 2590.53 1793.64 Q2592.38 1795.79 2595.53 1795.79 Q2598.68 1795.79 2600.51 1793.64 Q2602.36 1791.46 2602.36 1787.73 Q2602.36 1783.98 2600.51 1781.83 Q2598.68 1779.68 2595.53 1779.68 M2604.81 1765.02 L2604.81 1769.28 Q2603.05 1768.45 2601.25 1768.01 Q2599.47 1767.57 2597.71 1767.57 Q2593.08 1767.57 2590.62 1770.7 Q2588.19 1773.82 2587.85 1780.14 Q2589.21 1778.13 2591.27 1777.06 Q2593.33 1775.97 2595.81 1775.97 Q2601.02 1775.97 2604.03 1779.15 Q2607.06 1782.29 2607.06 1787.73 Q2607.06 1793.06 2603.91 1796.27 Q2600.76 1799.49 2595.53 1799.49 Q2589.54 1799.49 2586.36 1794.91 Q2583.19 1790.3 2583.19 1781.58 Q2583.19 1773.38 2587.08 1768.52 Q2590.97 1763.64 2597.52 1763.64 Q2599.28 1763.64 2601.06 1763.98 Q2602.87 1764.33 2604.81 1765.02 Z" fill="#000000" fill-rule="nonzero" fill-opacity="1" /><path clip-path="url(#clip960)" d="M1096.8 1839.44 L1096.8 1846.22 Q1093.55 1843.2 1089.86 1841.7 Q1086.2 1840.21 1082.06 1840.21 Q1073.91 1840.21 1069.58 1845.2 Q1065.26 1850.17 1065.26 1859.59 Q1065.26 1868.98 1069.58 1873.98 Q1073.91 1878.94 1082.06 1878.94 Q1086.2 1878.94 1089.86 1877.44 Q1093.55 1875.95 1096.8 1872.92 L1096.8 1879.64 Q1093.42 1881.93 1089.64 1883.08 Q1085.88 1884.22 1081.68 1884.22 Q1070.89 1884.22 1064.68 1877.64 Q1058.48 1871.02 1058.48 1859.59 Q1058.48 1848.13 1064.68 1841.54 Q1070.89 1834.92 1081.68 1834.92 Q1085.94 1834.92 1089.7 1836.07 Q1093.49 1837.18 1096.8 1839.44 Z" fill="#000000" fill-rule="nonzero" fill-opacity="1" /><path clip-path="url(#clip960)" d="M1106.47 1833.78 L1112.33 1833.78 L1112.33 1883.3 L1106.47 1883.3 L1106.47 1833.78 Z" fill="#000000" fill-rule="nonzero" fill-opacity="1" /><path clip-path="url(#clip960)" d="M1123.98 1869.23 L1123.98 1847.65 L1129.84 1847.65 L1129.84 1869.01 Q1129.84 1874.07 1131.81 1876.62 Q1133.78 1879.13 1137.73 1879.13 Q1142.47 1879.13 1145.21 1876.11 Q1147.98 1873.08 1147.98 1867.86 L1147.98 1847.65 L1153.83 1847.65 L1153.83 1883.3 L1147.98 1883.3 L1147.98 1877.83 Q1145.85 1881.07 1143.01 1882.66 Q1140.21 1884.22 1136.49 1884.22 Q1130.35 1884.22 1127.16 1880.4 Q1123.98 1876.59 1123.98 1869.23 M1138.72 1846.79 L1138.72 1846.79 Z" fill="#000000" fill-rule="nonzero" fill-opacity="1" /><path clip-path="url(#clip960)" d="M1188.62 1848.7 L1188.62 1854.24 Q1186.14 1852.97 1183.47 1852.33 Q1180.79 1851.7 1177.93 1851.7 Q1173.57 1851.7 1171.37 1853.03 Q1169.21 1854.37 1169.21 1857.04 Q1169.21 1859.08 1170.77 1860.26 Q1172.33 1861.4 1177.04 1862.45 L1179.04 1862.9 Q1185.28 1864.24 1187.89 1866.69 Q1190.53 1869.11 1190.53 1873.47 Q1190.53 1878.43 1186.59 1881.33 Q1182.67 1884.22 1175.8 1884.22 Q1172.93 1884.22 1169.81 1883.65 Q1166.73 1883.11 1163.29 1882 L1163.29 1875.95 Q1166.53 1877.64 1169.69 1878.49 Q1172.84 1879.32 1175.92 1879.32 Q1180.06 1879.32 1182.29 1877.92 Q1184.52 1876.49 1184.52 1873.91 Q1184.52 1871.52 1182.89 1870.25 Q1181.3 1868.98 1175.86 1867.8 L1173.82 1867.32 Q1168.38 1866.18 1165.96 1863.82 Q1163.54 1861.43 1163.54 1857.3 Q1163.54 1852.27 1167.11 1849.53 Q1170.67 1846.79 1177.23 1846.79 Q1180.48 1846.79 1183.34 1847.27 Q1186.2 1847.75 1188.62 1848.7 Z" fill="#000000" fill-rule="nonzero" fill-opacity="1" /><path clip-path="url(#clip960)" d="M1205.65 1837.53 L1205.65 1847.65 L1217.71 1847.65 L1217.71 1852.2 L1205.65 1852.2 L1205.65 1871.56 Q1205.65 1875.92 1206.83 1877.16 Q1208.04 1878.4 1211.7 1878.4 L1217.71 1878.4 L1217.71 1883.3 L1211.7 1883.3 Q1204.92 1883.3 1202.34 1880.79 Q1199.76 1878.24 1199.76 1871.56 L1199.76 1852.2 L1195.47 1852.2 L1195.47 1847.65 L1199.76 1847.65 L1199.76 1837.53 L1205.65 1837.53 Z" fill="#000000" fill-rule="nonzero" fill-opacity="1" /><path clip-path="url(#clip960)" d="M1255.91 1864.01 L1255.91 1866.88 L1228.98 1866.88 Q1229.36 1872.92 1232.61 1876.11 Q1235.89 1879.26 1241.71 1879.26 Q1245.09 1879.26 1248.24 1878.43 Q1251.42 1877.6 1254.54 1875.95 L1254.54 1881.49 Q1251.39 1882.82 1248.08 1883.52 Q1244.77 1884.22 1241.36 1884.22 Q1232.83 1884.22 1227.84 1879.26 Q1222.87 1874.29 1222.87 1865.83 Q1222.87 1857.07 1227.58 1851.95 Q1232.32 1846.79 1240.34 1846.79 Q1247.54 1846.79 1251.71 1851.44 Q1255.91 1856.06 1255.91 1864.01 M1250.05 1862.29 Q1249.99 1857.49 1247.35 1854.62 Q1244.74 1851.76 1240.41 1851.76 Q1235.51 1851.76 1232.55 1854.53 Q1229.62 1857.3 1229.17 1862.33 L1250.05 1862.29 Z" fill="#000000" fill-rule="nonzero" fill-opacity="1" /><path clip-path="url(#clip960)" d="M1286.18 1853.13 Q1285.19 1852.55 1284.01 1852.3 Q1282.87 1852.01 1281.47 1852.01 Q1276.5 1852.01 1273.83 1855.26 Q1271.19 1858.47 1271.19 1864.52 L1271.19 1883.3 L1265.3 1883.3 L1265.3 1847.65 L1271.19 1847.65 L1271.19 1853.19 Q1273.03 1849.94 1275.99 1848.39 Q1278.95 1846.79 1283.19 1846.79 Q1283.79 1846.79 1284.52 1846.89 Q1285.25 1846.95 1286.15 1847.11 L1286.18 1853.13 Z" fill="#000000" fill-rule="nonzero" fill-opacity="1" /><path clip-path="url(#clip960)" d="M1292.32 1847.65 L1298.18 1847.65 L1298.18 1883.3 L1292.32 1883.3 L1292.32 1847.65 M1292.32 1833.78 L1298.18 1833.78 L1298.18 1841.19 L1292.32 1841.19 L1292.32 1833.78 Z" fill="#000000" fill-rule="nonzero" fill-opacity="1" /><path clip-path="url(#clip960)" d="M1340.06 1861.78 L1340.06 1883.3 L1334.21 1883.3 L1334.21 1861.98 Q1334.21 1856.92 1332.23 1854.4 Q1330.26 1851.89 1326.31 1851.89 Q1321.57 1851.89 1318.83 1854.91 Q1316.1 1857.93 1316.1 1863.15 L1316.1 1883.3 L1310.21 1883.3 L1310.21 1847.65 L1316.1 1847.65 L1316.1 1853.19 Q1318.2 1849.98 1321.03 1848.39 Q1323.89 1846.79 1327.62 1846.79 Q1333.76 1846.79 1336.91 1850.61 Q1340.06 1854.4 1340.06 1861.78 Z" fill="#000000" fill-rule="nonzero" fill-opacity="1" /><path clip-path="url(#clip960)" d="M1375.2 1865.06 Q1375.2 1858.7 1372.56 1855.2 Q1369.95 1851.7 1365.21 1851.7 Q1360.5 1851.7 1357.86 1855.2 Q1355.25 1858.7 1355.25 1865.06 Q1355.25 1871.4 1357.86 1874.9 Q1360.5 1878.4 1365.21 1878.4 Q1369.95 1878.4 1372.56 1874.9 Q1375.2 1871.4 1375.2 1865.06 M1381.06 1878.88 Q1381.06 1887.98 1377.02 1892.4 Q1372.97 1896.86 1364.63 1896.86 Q1361.55 1896.86 1358.81 1896.38 Q1356.07 1895.94 1353.49 1894.98 L1353.49 1889.28 Q1356.07 1890.69 1358.59 1891.35 Q1361.1 1892.02 1363.71 1892.02 Q1369.47 1892.02 1372.34 1889 Q1375.2 1886.01 1375.2 1879.93 L1375.2 1877.03 Q1373.39 1880.18 1370.56 1881.74 Q1367.72 1883.3 1363.78 1883.3 Q1357.22 1883.3 1353.21 1878.3 Q1349.2 1873.31 1349.2 1865.06 Q1349.2 1856.79 1353.21 1851.79 Q1357.22 1846.79 1363.78 1846.79 Q1367.72 1846.79 1370.56 1848.35 Q1373.39 1849.91 1375.2 1853.06 L1375.2 1847.65 L1381.06 1847.65 L1381.06 1878.88 Z" fill="#000000" fill-rule="nonzero" fill-opacity="1" /><path clip-path="url(#clip960)" d="M1439.5 1849.02 L1439.5 1854.5 Q1437.01 1853.13 1434.5 1852.46 Q1432.02 1851.76 1429.47 1851.76 Q1423.77 1851.76 1420.62 1855.39 Q1417.47 1858.98 1417.47 1865.51 Q1417.47 1872.03 1420.62 1875.66 Q1423.77 1879.26 1429.47 1879.26 Q1432.02 1879.26 1434.5 1878.59 Q1437.01 1877.89 1439.5 1876.52 L1439.5 1881.93 Q1437.04 1883.08 1434.4 1883.65 Q1431.79 1884.22 1428.83 1884.22 Q1420.78 1884.22 1416.04 1879.16 Q1411.3 1874.1 1411.3 1865.51 Q1411.3 1856.79 1416.07 1851.79 Q1420.88 1846.79 1429.22 1846.79 Q1431.92 1846.79 1434.5 1847.37 Q1437.08 1847.91 1439.5 1849.02 Z" fill="#000000" fill-rule="nonzero" fill-opacity="1" /><path clip-path="url(#clip960)" d="M1463.49 1851.76 Q1458.78 1851.76 1456.05 1855.45 Q1453.31 1859.11 1453.31 1865.51 Q1453.31 1871.91 1456.01 1875.6 Q1458.75 1879.26 1463.49 1879.26 Q1468.17 1879.26 1470.91 1875.57 Q1473.65 1871.87 1473.65 1865.51 Q1473.65 1859.17 1470.91 1855.48 Q1468.17 1851.76 1463.49 1851.76 M1463.49 1846.79 Q1471.13 1846.79 1475.49 1851.76 Q1479.85 1856.72 1479.85 1865.51 Q1479.85 1874.26 1475.49 1879.26 Q1471.13 1884.22 1463.49 1884.22 Q1455.82 1884.22 1451.46 1879.26 Q1447.13 1874.26 1447.13 1865.51 Q1447.13 1856.72 1451.46 1851.76 Q1455.82 1846.79 1463.49 1846.79 Z" fill="#000000" fill-rule="nonzero" fill-opacity="1" /><path clip-path="url(#clip960)" d="M1520.05 1864.01 L1520.05 1866.88 L1493.13 1866.88 Q1493.51 1872.92 1496.76 1876.11 Q1500.03 1879.26 1505.86 1879.26 Q1509.23 1879.26 1512.38 1878.43 Q1515.57 1877.6 1518.69 1875.95 L1518.69 1881.49 Q1515.53 1882.82 1512.22 1883.52 Q1508.91 1884.22 1505.51 1884.22 Q1496.98 1884.22 1491.98 1879.26 Q1487.02 1874.29 1487.02 1865.83 Q1487.02 1857.07 1491.73 1851.95 Q1496.47 1846.79 1504.49 1846.79 Q1511.68 1846.79 1515.85 1851.44 Q1520.05 1856.06 1520.05 1864.01 M1514.2 1862.29 Q1514.13 1857.49 1511.49 1854.62 Q1508.88 1851.76 1504.55 1851.76 Q1499.65 1851.76 1496.69 1854.53 Q1493.76 1857.3 1493.32 1862.33 L1514.2 1862.29 Z" fill="#000000" fill-rule="nonzero" fill-opacity="1" /><path clip-path="url(#clip960)" d="M1547.71 1833.78 L1547.71 1838.65 L1542.11 1838.65 Q1538.96 1838.65 1537.72 1839.92 Q1536.51 1841.19 1536.51 1844.5 L1536.51 1847.65 L1546.15 1847.65 L1546.15 1852.2 L1536.51 1852.2 L1536.51 1883.3 L1530.62 1883.3 L1530.62 1852.2 L1525.02 1852.2 L1525.02 1847.65 L1530.62 1847.65 L1530.62 1845.17 Q1530.62 1839.22 1533.39 1836.51 Q1536.16 1833.78 1542.17 1833.78 L1547.71 1833.78 Z" fill="#000000" fill-rule="nonzero" fill-opacity="1" /><path clip-path="url(#clip960)" d="M1570.66 1833.78 L1570.66 1838.65 L1565.06 1838.65 Q1561.91 1838.65 1560.67 1839.92 Q1559.46 1841.19 1559.46 1844.5 L1559.46 1847.65 L1569.1 1847.65 L1569.1 1852.2 L1559.46 1852.2 L1559.46 1883.3 L1553.57 1883.3 L1553.57 1852.2 L1547.97 1852.2 L1547.97 1847.65 L1553.57 1847.65 L1553.57 1845.17 Q1553.57 1839.22 1556.34 1836.51 Q1559.11 1833.78 1565.12 1833.78 L1570.66 1833.78 Z" fill="#000000" fill-rule="nonzero" fill-opacity="1" /><path clip-path="url(#clip960)" d="M1575.56 1847.65 L1581.42 1847.65 L1581.42 1883.3 L1575.56 1883.3 L1575.56 1847.65 M1575.56 1833.78 L1581.42 1833.78 L1581.42 1841.19 L1575.56 1841.19 L1575.56 1833.78 Z" fill="#000000" fill-rule="nonzero" fill-opacity="1" /><path clip-path="url(#clip960)" d="M1619.33 1849.02 L1619.33 1854.5 Q1616.84 1853.13 1614.33 1852.46 Q1611.85 1851.76 1609.3 1851.76 Q1603.6 1851.76 1600.45 1855.39 Q1597.3 1858.98 1597.3 1865.51 Q1597.3 1872.03 1600.45 1875.66 Q1603.6 1879.26 1609.3 1879.26 Q1611.85 1879.26 1614.33 1878.59 Q1616.84 1877.89 1619.33 1876.52 L1619.33 1881.93 Q1616.88 1883.08 1614.23 1883.65 Q1611.62 1884.22 1608.66 1884.22 Q1600.61 1884.22 1595.87 1879.16 Q1591.13 1874.1 1591.13 1865.51 Q1591.13 1856.79 1595.9 1851.79 Q1600.71 1846.79 1609.05 1846.79 Q1611.75 1846.79 1614.33 1847.37 Q1616.91 1847.91 1619.33 1849.02 Z" fill="#000000" fill-rule="nonzero" fill-opacity="1" /><path clip-path="url(#clip960)" d="M1629.51 1847.65 L1635.37 1847.65 L1635.37 1883.3 L1629.51 1883.3 L1629.51 1847.65 M1629.51 1833.78 L1635.37 1833.78 L1635.37 1841.19 L1629.51 1841.19 L1629.51 1833.78 Z" fill="#000000" fill-rule="nonzero" fill-opacity="1" /><path clip-path="url(#clip960)" d="M1678.11 1864.01 L1678.11 1866.88 L1651.19 1866.88 Q1651.57 1872.92 1654.82 1876.11 Q1658.09 1879.26 1663.92 1879.26 Q1667.29 1879.26 1670.44 1878.43 Q1673.63 1877.6 1676.75 1875.95 L1676.75 1881.49 Q1673.59 1882.82 1670.28 1883.52 Q1666.97 1884.22 1663.57 1884.22 Q1655.04 1884.22 1650.04 1879.26 Q1645.08 1874.29 1645.08 1865.83 Q1645.08 1857.07 1649.79 1851.95 Q1654.53 1846.79 1662.55 1846.79 Q1669.74 1846.79 1673.91 1851.44 Q1678.11 1856.06 1678.11 1864.01 M1672.26 1862.29 Q1672.19 1857.49 1669.55 1854.62 Q1666.94 1851.76 1662.61 1851.76 Q1657.71 1851.76 1654.75 1854.53 Q1651.82 1857.3 1651.38 1862.33 L1672.26 1862.29 Z" fill="#000000" fill-rule="nonzero" fill-opacity="1" /><path clip-path="url(#clip960)" d="M1717.36 1861.78 L1717.36 1883.3 L1711.5 1883.3 L1711.5 1861.98 Q1711.5 1856.92 1709.53 1854.4 Q1707.56 1851.89 1703.61 1851.89 Q1698.87 1851.89 1696.13 1854.91 Q1693.39 1857.93 1693.39 1863.15 L1693.39 1883.3 L1687.5 1883.3 L1687.5 1847.65 L1693.39 1847.65 L1693.39 1853.19 Q1695.49 1849.98 1698.33 1848.39 Q1701.19 1846.79 1704.91 1846.79 Q1711.06 1846.79 1714.21 1850.61 Q1717.36 1854.4 1717.36 1861.78 Z" fill="#000000" fill-rule="nonzero" fill-opacity="1" /><path clip-path="url(#clip960)" d="M1734.83 1837.53 L1734.83 1847.65 L1746.9 1847.65 L1746.9 1852.2 L1734.83 1852.2 L1734.83 1871.56 Q1734.83 1875.92 1736.01 1877.16 Q1737.22 1878.4 1740.88 1878.4 L1746.9 1878.4 L1746.9 1883.3 L1740.88 1883.3 Q1734.1 1883.3 1731.52 1880.79 Q1728.94 1878.24 1728.94 1871.56 L1728.94 1852.2 L1724.65 1852.2 L1724.65 1847.65 L1728.94 1847.65 L1728.94 1837.53 L1734.83 1837.53 Z" fill="#000000" fill-rule="nonzero" fill-opacity="1" /><path clip-path="url(#clip960)" d="M1793.49 1833.78 L1793.49 1846.92 Q1799.83 1846.92 1804.06 1851.79 Q1808.42 1856.76 1808.42 1865.51 Q1808.42 1874.26 1804.06 1879.23 Q1799.83 1884.1 1793.49 1884.1 L1793.49 1896.86 L1787.67 1896.86 L1787.67 1884.1 Q1781.33 1884.1 1777.07 1879.23 Q1772.74 1874.26 1772.74 1865.51 Q1772.74 1856.76 1777.07 1851.79 Q1781.33 1846.92 1787.67 1846.92 L1787.67 1833.78 L1793.49 1833.78 M1793.49 1878.88 Q1797.09 1878.88 1799.54 1875.6 Q1802.21 1871.94 1802.25 1865.51 Q1802.28 1859.14 1799.54 1855.42 Q1797.09 1852.14 1793.49 1852.14 L1793.49 1878.88 M1787.67 1878.88 L1787.67 1852.14 Q1784.07 1852.14 1781.65 1855.42 Q1778.88 1859.14 1778.92 1865.51 Q1778.95 1871.94 1781.65 1875.6 Q1784.07 1878.88 1787.67 1878.88 Z" fill="#000000" fill-rule="nonzero" fill-opacity="1" /><polyline clip-path="url(#clip960)" style="stroke:#000000; stroke-linecap:round; stroke-linejoin:round; stroke-width:4; stroke-opacity:1; fill:none" points="226.141,1734.12 226.141,127.792 "/>
<polyline clip-path="url(#clip960)" style="stroke:#000000; stroke-linecap:round; stroke-linejoin:round; stroke-width:4; stroke-opacity:1; fill:none" points="226.141,1593.7 245.038,1593.7 "/>
<polyline clip-path="url(#clip960)" style="stroke:#000000; stroke-linecap:round; stroke-linejoin:round; stroke-width:4; stroke-opacity:1; fill:none" points="226.141,1370.96 245.038,1370.96 "/>
<polyline clip-path="url(#clip960)" style="stroke:#000000; stroke-linecap:round; stroke-linejoin:round; stroke-width:4; stroke-opacity:1; fill:none" points="226.141,1148.22 245.038,1148.22 "/>
<polyline clip-path="url(#clip960)" style="stroke:#000000; stroke-linecap:round; stroke-linejoin:round; stroke-width:4; stroke-opacity:1; fill:none" points="226.141,925.478 245.038,925.478 "/>
<polyline clip-path="url(#clip960)" style="stroke:#000000; stroke-linecap:round; stroke-linejoin:round; stroke-width:4; stroke-opacity:1; fill:none" points="226.141,702.737 245.038,702.737 "/>
<polyline clip-path="url(#clip960)" style="stroke:#000000; stroke-linecap:round; stroke-linejoin:round; stroke-width:4; stroke-opacity:1; fill:none" points="226.141,479.995 245.038,479.995 "/>
<polyline clip-path="url(#clip960)" style="stroke:#000000; stroke-linecap:round; stroke-linejoin:round; stroke-width:4; stroke-opacity:1; fill:none" points="226.141,257.254 245.038,257.254 "/>
<path clip-path="url(#clip960)" d="M130.242 1579.5 Q126.631 1579.5 124.802 1583.06 Q122.997 1586.61 122.997 1593.74 Q122.997 1600.84 124.802 1604.41 Q126.631 1607.95 130.242 1607.95 Q133.876 1607.95 135.682 1604.41 Q137.511 1600.84 137.511 1593.74 Q137.511 1586.61 135.682 1583.06 Q133.876 1579.5 130.242 1579.5 M130.242 1575.8 Q136.052 1575.8 139.108 1580.4 Q142.187 1584.99 142.187 1593.74 Q142.187 1602.46 139.108 1607.07 Q136.052 1611.65 130.242 1611.65 Q124.432 1611.65 121.353 1607.07 Q118.298 1602.46 118.298 1593.74 Q118.298 1584.99 121.353 1580.4 Q124.432 1575.8 130.242 1575.8 Z" fill="#000000" fill-rule="nonzero" fill-opacity="1" /><path clip-path="url(#clip960)" d="M150.404 1605.1 L155.288 1605.1 L155.288 1610.98 L150.404 1610.98 L150.404 1605.1 Z" fill="#000000" fill-rule="nonzero" fill-opacity="1" /><path clip-path="url(#clip960)" d="M169.501 1607.05 L185.821 1607.05 L185.821 1610.98 L163.876 1610.98 L163.876 1607.05 Q166.538 1604.29 171.122 1599.66 Q175.728 1595.01 176.909 1593.67 Q179.154 1591.14 180.034 1589.41 Q180.936 1587.65 180.936 1585.96 Q180.936 1583.2 178.992 1581.47 Q177.071 1579.73 173.969 1579.73 Q171.77 1579.73 169.316 1580.49 Q166.885 1581.26 164.108 1582.81 L164.108 1578.09 Q166.932 1576.95 169.385 1576.37 Q171.839 1575.8 173.876 1575.8 Q179.247 1575.8 182.441 1578.48 Q185.635 1581.17 185.635 1585.66 Q185.635 1587.79 184.825 1589.71 Q184.038 1591.61 181.932 1594.2 Q181.353 1594.87 178.251 1598.09 Q175.149 1601.28 169.501 1607.05 Z" fill="#000000" fill-rule="nonzero" fill-opacity="1" /><path clip-path="url(#clip960)" d="M129.293 1356.76 Q125.682 1356.76 123.853 1360.32 Q122.048 1363.86 122.048 1370.99 Q122.048 1378.1 123.853 1381.67 Q125.682 1385.21 129.293 1385.21 Q132.927 1385.21 134.733 1381.67 Q136.562 1378.1 136.562 1370.99 Q136.562 1363.86 134.733 1360.32 Q132.927 1356.76 129.293 1356.76 M129.293 1353.05 Q135.103 1353.05 138.159 1357.66 Q141.237 1362.24 141.237 1370.99 Q141.237 1379.72 138.159 1384.33 Q135.103 1388.91 129.293 1388.91 Q123.483 1388.91 120.404 1384.33 Q117.349 1379.72 117.349 1370.99 Q117.349 1362.24 120.404 1357.66 Q123.483 1353.05 129.293 1353.05 Z" fill="#000000" fill-rule="nonzero" fill-opacity="1" /><path clip-path="url(#clip960)" d="M149.455 1382.36 L154.339 1382.36 L154.339 1388.24 L149.455 1388.24 L149.455 1382.36 Z" fill="#000000" fill-rule="nonzero" fill-opacity="1" /><path clip-path="url(#clip960)" d="M178.691 1369.61 Q182.047 1370.32 183.922 1372.59 Q185.821 1374.86 185.821 1378.19 Q185.821 1383.31 182.302 1386.11 Q178.784 1388.91 172.302 1388.91 Q170.126 1388.91 167.811 1388.47 Q165.52 1388.05 163.066 1387.2 L163.066 1382.68 Q165.01 1383.82 167.325 1384.4 Q169.64 1384.98 172.163 1384.98 Q176.561 1384.98 178.853 1383.24 Q181.168 1381.5 181.168 1378.19 Q181.168 1375.14 179.015 1373.42 Q176.885 1371.69 173.066 1371.69 L169.038 1371.69 L169.038 1367.85 L173.251 1367.85 Q176.7 1367.85 178.529 1366.48 Q180.358 1365.09 180.358 1362.5 Q180.358 1359.84 178.459 1358.43 Q176.584 1356.99 173.066 1356.99 Q171.145 1356.99 168.946 1357.41 Q166.747 1357.82 164.108 1358.7 L164.108 1354.54 Q166.77 1353.8 169.085 1353.43 Q171.422 1353.05 173.483 1353.05 Q178.807 1353.05 181.909 1355.49 Q185.01 1357.89 185.01 1362.01 Q185.01 1364.88 183.367 1366.87 Q181.723 1368.84 178.691 1369.61 Z" fill="#000000" fill-rule="nonzero" fill-opacity="1" /><path clip-path="url(#clip960)" d="M128.159 1134.02 Q124.548 1134.02 122.719 1137.58 Q120.913 1141.12 120.913 1148.25 Q120.913 1155.36 122.719 1158.92 Q124.548 1162.47 128.159 1162.47 Q131.793 1162.47 133.599 1158.92 Q135.427 1155.36 135.427 1148.25 Q135.427 1141.12 133.599 1137.58 Q131.793 1134.02 128.159 1134.02 M128.159 1130.31 Q133.969 1130.31 137.025 1134.92 Q140.103 1139.5 140.103 1148.25 Q140.103 1156.98 137.025 1161.59 Q133.969 1166.17 128.159 1166.17 Q122.349 1166.17 119.27 1161.59 Q116.214 1156.98 116.214 1148.25 Q116.214 1139.5 119.27 1134.92 Q122.349 1130.31 128.159 1130.31 Z" fill="#000000" fill-rule="nonzero" fill-opacity="1" /><path clip-path="url(#clip960)" d="M148.321 1159.62 L153.205 1159.62 L153.205 1165.5 L148.321 1165.5 L148.321 1159.62 Z" fill="#000000" fill-rule="nonzero" fill-opacity="1" /><path clip-path="url(#clip960)" d="M176.237 1135.01 L164.432 1153.46 L176.237 1153.46 L176.237 1135.01 M175.01 1130.94 L180.89 1130.94 L180.89 1153.46 L185.821 1153.46 L185.821 1157.35 L180.89 1157.35 L180.89 1165.5 L176.237 1165.5 L176.237 1157.35 L160.636 1157.35 L160.636 1152.84 L175.01 1130.94 Z" fill="#000000" fill-rule="nonzero" fill-opacity="1" /><path clip-path="url(#clip960)" d="M129.64 911.276 Q126.029 911.276 124.201 914.841 Q122.395 918.383 122.395 925.512 Q122.395 932.619 124.201 936.184 Q126.029 939.725 129.64 939.725 Q133.275 939.725 135.08 936.184 Q136.909 932.619 136.909 925.512 Q136.909 918.383 135.08 914.841 Q133.275 911.276 129.64 911.276 M129.64 907.573 Q135.45 907.573 138.506 912.179 Q141.585 916.762 141.585 925.512 Q141.585 934.239 138.506 938.846 Q135.45 943.429 129.64 943.429 Q123.83 943.429 120.751 938.846 Q117.696 934.239 117.696 925.512 Q117.696 916.762 120.751 912.179 Q123.83 907.573 129.64 907.573 Z" fill="#000000" fill-rule="nonzero" fill-opacity="1" /><path clip-path="url(#clip960)" d="M149.802 936.878 L154.686 936.878 L154.686 942.758 L149.802 942.758 L149.802 936.878 Z" fill="#000000" fill-rule="nonzero" fill-opacity="1" /><path clip-path="url(#clip960)" d="M164.918 908.198 L183.274 908.198 L183.274 912.133 L169.2 912.133 L169.2 920.605 Q170.219 920.258 171.237 920.096 Q172.256 919.91 173.274 919.91 Q179.061 919.91 182.441 923.082 Q185.821 926.253 185.821 931.67 Q185.821 937.248 182.348 940.35 Q178.876 943.429 172.557 943.429 Q170.381 943.429 168.112 943.058 Q165.867 942.688 163.46 941.947 L163.46 937.248 Q165.543 938.383 167.765 938.938 Q169.987 939.494 172.464 939.494 Q176.469 939.494 178.807 937.387 Q181.145 935.281 181.145 931.67 Q181.145 928.059 178.807 925.952 Q176.469 923.846 172.464 923.846 Q170.589 923.846 168.714 924.262 Q166.862 924.679 164.918 925.559 L164.918 908.198 Z" fill="#000000" fill-rule="nonzero" fill-opacity="1" /><path clip-path="url(#clip960)" d="M128.483 688.535 Q124.872 688.535 123.043 692.1 Q121.238 695.642 121.238 702.771 Q121.238 709.878 123.043 713.442 Q124.872 716.984 128.483 716.984 Q132.117 716.984 133.923 713.442 Q135.751 709.878 135.751 702.771 Q135.751 695.642 133.923 692.1 Q132.117 688.535 128.483 688.535 M128.483 684.832 Q134.293 684.832 137.349 689.438 Q140.427 694.021 140.427 702.771 Q140.427 711.498 137.349 716.104 Q134.293 720.688 128.483 720.688 Q122.673 720.688 119.594 716.104 Q116.539 711.498 116.539 702.771 Q116.539 694.021 119.594 689.438 Q122.673 684.832 128.483 684.832 Z" fill="#000000" fill-rule="nonzero" fill-opacity="1" /><path clip-path="url(#clip960)" d="M148.645 714.137 L153.529 714.137 L153.529 720.017 L148.645 720.017 L148.645 714.137 Z" fill="#000000" fill-rule="nonzero" fill-opacity="1" /><path clip-path="url(#clip960)" d="M174.293 700.873 Q171.145 700.873 169.293 703.026 Q167.464 705.179 167.464 708.929 Q167.464 712.655 169.293 714.831 Q171.145 716.984 174.293 716.984 Q177.441 716.984 179.27 714.831 Q181.122 712.655 181.122 708.929 Q181.122 705.179 179.27 703.026 Q177.441 700.873 174.293 700.873 M183.575 686.22 L183.575 690.48 Q181.816 689.646 180.01 689.206 Q178.228 688.767 176.469 688.767 Q171.839 688.767 169.385 691.892 Q166.955 695.017 166.608 701.336 Q167.973 699.322 170.034 698.257 Q172.094 697.169 174.571 697.169 Q179.779 697.169 182.788 700.341 Q185.821 703.489 185.821 708.929 Q185.821 714.253 182.672 717.47 Q179.524 720.688 174.293 720.688 Q168.297 720.688 165.126 716.104 Q161.955 711.498 161.955 702.771 Q161.955 694.577 165.844 689.716 Q169.733 684.832 176.284 684.832 Q178.043 684.832 179.825 685.179 Q181.631 685.526 183.575 686.22 Z" fill="#000000" fill-rule="nonzero" fill-opacity="1" /><path clip-path="url(#clip960)" d="M129.548 465.794 Q125.937 465.794 124.108 469.359 Q122.302 472.901 122.302 480.03 Q122.302 487.137 124.108 490.701 Q125.937 494.243 129.548 494.243 Q133.182 494.243 134.987 490.701 Q136.816 487.137 136.816 480.03 Q136.816 472.901 134.987 469.359 Q133.182 465.794 129.548 465.794 M129.548 462.09 Q135.358 462.09 138.413 466.697 Q141.492 471.28 141.492 480.03 Q141.492 488.757 138.413 493.363 Q135.358 497.947 129.548 497.947 Q123.738 497.947 120.659 493.363 Q117.603 488.757 117.603 480.03 Q117.603 471.28 120.659 466.697 Q123.738 462.09 129.548 462.09 Z" fill="#000000" fill-rule="nonzero" fill-opacity="1" /><path clip-path="url(#clip960)" d="M149.71 491.396 L154.594 491.396 L154.594 497.275 L149.71 497.275 L149.71 491.396 Z" fill="#000000" fill-rule="nonzero" fill-opacity="1" /><path clip-path="url(#clip960)" d="M163.598 462.715 L185.821 462.715 L185.821 464.706 L173.274 497.275 L168.39 497.275 L180.196 466.651 L163.598 466.651 L163.598 462.715 Z" fill="#000000" fill-rule="nonzero" fill-opacity="1" /><path clip-path="url(#clip960)" d="M128.738 243.053 Q125.126 243.053 123.298 246.618 Q121.492 250.16 121.492 257.289 Q121.492 264.396 123.298 267.96 Q125.126 271.502 128.738 271.502 Q132.372 271.502 134.177 267.96 Q136.006 264.396 136.006 257.289 Q136.006 250.16 134.177 246.618 Q132.372 243.053 128.738 243.053 M128.738 239.349 Q134.548 239.349 137.603 243.956 Q140.682 248.539 140.682 257.289 Q140.682 266.016 137.603 270.622 Q134.548 275.206 128.738 275.206 Q122.927 275.206 119.849 270.622 Q116.793 266.016 116.793 257.289 Q116.793 248.539 119.849 243.956 Q122.927 239.349 128.738 239.349 Z" fill="#000000" fill-rule="nonzero" fill-opacity="1" /><path clip-path="url(#clip960)" d="M148.899 268.655 L153.784 268.655 L153.784 274.534 L148.899 274.534 L148.899 268.655 Z" fill="#000000" fill-rule="nonzero" fill-opacity="1" /><path clip-path="url(#clip960)" d="M173.969 258.122 Q170.635 258.122 168.714 259.905 Q166.816 261.687 166.816 264.812 Q166.816 267.937 168.714 269.72 Q170.635 271.502 173.969 271.502 Q177.302 271.502 179.223 269.72 Q181.145 267.914 181.145 264.812 Q181.145 261.687 179.223 259.905 Q177.325 258.122 173.969 258.122 M169.293 256.132 Q166.284 255.391 164.594 253.331 Q162.927 251.271 162.927 248.308 Q162.927 244.164 165.867 241.757 Q168.83 239.349 173.969 239.349 Q179.131 239.349 182.071 241.757 Q185.01 244.164 185.01 248.308 Q185.01 251.271 183.321 253.331 Q181.654 255.391 178.668 256.132 Q182.047 256.919 183.922 259.21 Q185.821 261.502 185.821 264.812 Q185.821 269.835 182.742 272.521 Q179.686 275.206 173.969 275.206 Q168.251 275.206 165.173 272.521 Q162.117 269.835 162.117 264.812 Q162.117 261.502 164.015 259.21 Q165.913 256.919 169.293 256.132 M167.58 248.748 Q167.58 251.433 169.247 252.937 Q170.936 254.442 173.969 254.442 Q176.978 254.442 178.668 252.937 Q180.381 251.433 180.381 248.748 Q180.381 246.062 178.668 244.558 Q176.978 243.053 173.969 243.053 Q170.936 243.053 169.247 244.558 Q167.58 246.062 167.58 248.748 Z" fill="#000000" fill-rule="nonzero" fill-opacity="1" /><path clip-path="url(#clip960)" d="M14.1184 1271.87 L14.1184 1244.56 L19.5293 1244.56 L19.5293 1265.44 L33.5338 1265.44 L33.5338 1246.6 L38.9447 1246.6 L38.9447 1265.44 L61.6384 1265.44 L61.6384 1271.87 L14.1184 1271.87 Z" fill="#000000" fill-rule="nonzero" fill-opacity="1" /><path clip-path="url(#clip960)" d="M25.9905 1239.37 L25.9905 1233.52 L61.6384 1233.52 L61.6384 1239.37 L25.9905 1239.37 M12.1132 1239.37 L12.1132 1233.52 L19.5293 1233.52 L19.5293 1239.37 L12.1132 1239.37 Z" fill="#000000" fill-rule="nonzero" fill-opacity="1" /><path clip-path="url(#clip960)" d="M40.1224 1191.63 L61.6384 1191.63 L61.6384 1197.49 L40.3133 1197.49 Q35.2526 1197.49 32.7381 1199.46 Q30.2237 1201.43 30.2237 1205.38 Q30.2237 1210.12 33.2474 1212.86 Q36.2711 1215.6 41.491 1215.6 L61.6384 1215.6 L61.6384 1221.49 L25.9905 1221.49 L25.9905 1215.6 L31.5287 1215.6 Q28.314 1213.5 26.7225 1210.66 Q25.1311 1207.8 25.1311 1204.08 Q25.1311 1197.93 28.9505 1194.78 Q32.7381 1191.63 40.1224 1191.63 Z" fill="#000000" fill-rule="nonzero" fill-opacity="1" /><path clip-path="url(#clip960)" d="M43.719 1163.75 Q43.719 1170.85 45.3422 1173.58 Q46.9655 1176.32 50.8804 1176.32 Q53.9996 1176.32 55.8457 1174.28 Q57.6599 1172.21 57.6599 1168.68 Q57.6599 1163.81 54.2224 1160.88 Q50.7531 1157.92 45.0239 1157.92 L43.719 1157.92 L43.719 1163.75 M41.3 1152.07 L61.6384 1152.07 L61.6384 1157.92 L56.2276 1157.92 Q59.4741 1159.93 61.0337 1162.92 Q62.5615 1165.91 62.5615 1170.24 Q62.5615 1175.72 59.5059 1178.96 Q56.4186 1182.18 51.2623 1182.18 Q45.2467 1182.18 42.1912 1178.17 Q39.1357 1174.12 39.1357 1166.14 L39.1357 1157.92 L38.5628 1157.92 Q34.5205 1157.92 32.3244 1160.6 Q30.0964 1163.24 30.0964 1168.05 Q30.0964 1171.1 30.8284 1174 Q31.5605 1176.89 33.0246 1179.57 L27.6137 1179.57 Q26.3724 1176.35 25.7677 1173.33 Q25.1311 1170.31 25.1311 1167.44 Q25.1311 1159.71 29.1415 1155.89 Q33.1519 1152.07 41.3 1152.07 Z" fill="#000000" fill-rule="nonzero" fill-opacity="1" /><path clip-path="url(#clip960)" d="M12.1132 1140 L12.1132 1134.15 L61.6384 1134.15 L61.6384 1140 L12.1132 1140 Z" fill="#000000" fill-rule="nonzero" fill-opacity="1" /><path clip-path="url(#clip960)" d="M43.719 1084.97 Q43.719 1092.07 45.3422 1094.81 Q46.9655 1097.55 50.8804 1097.55 Q53.9996 1097.55 55.8457 1095.51 Q57.6599 1093.44 57.6599 1089.91 Q57.6599 1085.04 54.2224 1082.11 Q50.7531 1079.15 45.0239 1079.15 L43.719 1079.15 L43.719 1084.97 M41.3 1073.29 L61.6384 1073.29 L61.6384 1079.15 L56.2276 1079.15 Q59.4741 1081.15 61.0337 1084.15 Q62.5615 1087.14 62.5615 1091.47 Q62.5615 1096.94 59.5059 1100.19 Q56.4186 1103.4 51.2623 1103.4 Q45.2467 1103.4 42.1912 1099.39 Q39.1357 1095.35 39.1357 1087.36 L39.1357 1079.15 L38.5628 1079.15 Q34.5205 1079.15 32.3244 1081.82 Q30.0964 1084.46 30.0964 1089.27 Q30.0964 1092.33 30.8284 1095.22 Q31.5605 1098.12 33.0246 1100.79 L27.6137 1100.79 Q26.3724 1097.58 25.7677 1094.55 Q25.1311 1091.53 25.1311 1088.66 Q25.1311 1080.93 29.1415 1077.11 Q33.1519 1073.29 41.3 1073.29 Z" fill="#000000" fill-rule="nonzero" fill-opacity="1" /><path clip-path="url(#clip960)" d="M15.869 1055.44 L25.9905 1055.44 L25.9905 1043.37 L30.542 1043.37 L30.542 1055.44 L49.8937 1055.44 Q54.2542 1055.44 55.4955 1054.26 Q56.7368 1053.05 56.7368 1049.39 L56.7368 1043.37 L61.6384 1043.37 L61.6384 1049.39 Q61.6384 1056.17 59.124 1058.75 Q56.5777 1061.32 49.8937 1061.32 L30.542 1061.32 L30.542 1065.62 L25.9905 1065.62 L25.9905 1061.32 L15.869 1061.32 L15.869 1055.44 Z" fill="#000000" fill-rule="nonzero" fill-opacity="1" /><path clip-path="url(#clip960)" d="M15.869 1029.88 L25.9905 1029.88 L25.9905 1017.81 L30.542 1017.81 L30.542 1029.88 L49.8937 1029.88 Q54.2542 1029.88 55.4955 1028.7 Q56.7368 1027.49 56.7368 1023.83 L56.7368 1017.81 L61.6384 1017.81 L61.6384 1023.83 Q61.6384 1030.61 59.124 1033.19 Q56.5777 1035.77 49.8937 1035.77 L30.542 1035.77 L30.542 1040.06 L25.9905 1040.06 L25.9905 1035.77 L15.869 1035.77 L15.869 1029.88 Z" fill="#000000" fill-rule="nonzero" fill-opacity="1" /><path clip-path="url(#clip960)" d="M43.719 993.911 Q43.719 1001.01 45.3422 1003.75 Q46.9655 1006.48 50.8804 1006.48 Q53.9996 1006.48 55.8457 1004.45 Q57.6599 1002.38 57.6599 998.845 Q57.6599 993.975 54.2224 991.047 Q50.7531 988.087 45.0239 988.087 L43.719 988.087 L43.719 993.911 M41.3 982.23 L61.6384 982.23 L61.6384 988.087 L56.2276 988.087 Q59.4741 990.092 61.0337 993.084 Q62.5615 996.076 62.5615 1000.4 Q62.5615 1005.88 59.5059 1009.13 Q56.4186 1012.34 51.2623 1012.34 Q45.2467 1012.34 42.1912 1008.33 Q39.1357 1004.29 39.1357 996.299 L39.1357 988.087 L38.5628 988.087 Q34.5205 988.087 32.3244 990.76 Q30.0964 993.402 30.0964 998.208 Q30.0964 1001.26 30.8284 1004.16 Q31.5605 1007.06 33.0246 1009.73 L27.6137 1009.73 Q26.3724 1006.52 25.7677 1003.49 Q25.1311 1000.47 25.1311 997.604 Q25.1311 989.869 29.1415 986.05 Q33.1519 982.23 41.3 982.23 Z" fill="#000000" fill-rule="nonzero" fill-opacity="1" /><path clip-path="url(#clip960)" d="M27.3591 944.514 L32.8336 944.514 Q31.465 946.996 30.7966 949.511 Q30.0964 951.993 30.0964 954.539 Q30.0964 960.237 33.7248 963.388 Q37.3214 966.539 43.8463 966.539 Q50.3711 966.539 53.9996 963.388 Q57.5962 960.237 57.5962 954.539 Q57.5962 951.993 56.9278 949.511 Q56.2276 946.996 54.859 944.514 L60.2698 944.514 Q61.4156 946.964 61.9886 949.606 Q62.5615 952.216 62.5615 955.176 Q62.5615 963.229 57.5007 967.971 Q52.44 972.714 43.8463 972.714 Q35.1253 972.714 30.1282 967.939 Q25.1311 963.133 25.1311 954.794 Q25.1311 952.089 25.704 949.511 Q26.2451 946.932 27.3591 944.514 Z" fill="#000000" fill-rule="nonzero" fill-opacity="1" /><path clip-path="url(#clip960)" d="M12.1132 934.551 L12.1132 928.663 L41.3637 928.663 L25.9905 911.189 L25.9905 903.709 L42.6686 922.615 L61.6384 902.914 L61.6384 910.552 L44.2282 928.663 L61.6384 928.663 L61.6384 934.551 L12.1132 934.551 Z" fill="#000000" fill-rule="nonzero" fill-opacity="1" /><path clip-path="url(#clip960)" d="M27.0408 853.134 L32.579 853.134 Q31.3059 855.616 30.6693 858.29 Q30.0327 860.964 30.0327 863.828 Q30.0327 868.189 31.3695 870.385 Q32.7063 872.549 35.3799 872.549 Q37.4169 872.549 38.5946 870.99 Q39.7404 869.43 40.7908 864.719 L41.2364 862.714 Q42.5732 856.476 45.0239 853.866 Q47.4429 851.224 51.8034 851.224 Q56.7687 851.224 59.6651 855.171 Q62.5615 859.086 62.5615 865.961 Q62.5615 868.825 61.9886 871.944 Q61.4475 875.032 60.3335 878.469 L54.2861 878.469 Q55.973 875.223 56.8323 872.072 Q57.6599 868.921 57.6599 865.833 Q57.6599 861.696 56.2594 859.468 Q54.8271 857.24 52.249 857.24 Q49.8619 857.24 48.5887 858.863 Q47.3156 860.454 46.1379 865.897 L45.6605 867.934 Q44.5147 873.377 42.1594 875.796 Q39.7722 878.215 35.6345 878.215 Q30.6056 878.215 27.8684 874.65 Q25.1311 871.085 25.1311 864.528 Q25.1311 861.282 25.6085 858.417 Q26.086 855.553 27.0408 853.134 Z" fill="#000000" fill-rule="nonzero" fill-opacity="1" /><path clip-path="url(#clip960)" d="M25.9905 841.898 L25.9905 836.042 L61.6384 836.042 L61.6384 841.898 L25.9905 841.898 M12.1132 841.898 L12.1132 836.042 L19.5293 836.042 L19.5293 841.898 L12.1132 841.898 Z" fill="#000000" fill-rule="nonzero" fill-opacity="1" /><path clip-path="url(#clip960)" d="M25.9905 826.334 L25.9905 798.516 L31.3377 798.516 L56.9596 820.541 L56.9596 798.516 L61.6384 798.516 L61.6384 827.13 L56.2912 827.13 L30.6693 805.105 L30.6693 826.334 L25.9905 826.334 Z" fill="#000000" fill-rule="nonzero" fill-opacity="1" /><path clip-path="url(#clip960)" d="M42.3504 759.08 L45.2149 759.08 L45.2149 786.007 Q51.2623 785.625 54.4452 782.379 Q57.5962 779.101 57.5962 773.276 Q57.5962 769.902 56.7687 766.751 Q55.9411 763.568 54.2861 760.449 L59.8242 760.449 Q61.161 763.6 61.8612 766.91 Q62.5615 770.22 62.5615 773.626 Q62.5615 782.156 57.5962 787.153 Q52.631 792.118 44.1646 792.118 Q35.4117 792.118 30.2873 787.408 Q25.1311 782.665 25.1311 774.645 Q25.1311 767.451 29.7781 763.282 Q34.3932 759.08 42.3504 759.08 M40.6316 764.937 Q35.8255 765.001 32.9609 767.642 Q30.0964 770.252 30.0964 774.581 Q30.0964 779.483 32.8654 782.443 Q35.6345 785.371 40.6634 785.816 L40.6316 764.937 Z" fill="#000000" fill-rule="nonzero" fill-opacity="1" /><path clip-path="url(#clip960)" d="M39.3585 705.959 Q40.0587 703.89 42.3504 701.948 Q44.642 699.975 48.6524 698.002 L61.6384 691.477 L61.6384 698.383 L49.4481 704.463 Q44.6738 706.818 43.1142 709.046 Q41.5546 711.242 41.5546 715.062 L41.5546 722.064 L61.6384 722.064 L61.6384 728.493 L14.1184 728.493 L14.1184 713.979 Q14.1184 705.831 17.5241 701.821 Q20.9297 697.811 27.8047 697.811 Q32.2925 697.811 35.2526 699.911 Q38.2126 701.98 39.3585 705.959 M19.402 722.064 L36.2711 722.064 L36.2711 713.979 Q36.2711 709.332 34.1386 706.977 Q31.9743 704.59 27.8047 704.59 Q23.6352 704.59 21.5345 706.977 Q19.402 709.332 19.402 713.979 L19.402 722.064 Z" fill="#000000" fill-rule="nonzero" fill-opacity="1" /><path clip-path="url(#clip960)" d="M12.1769 669.388 Q19.4975 673.653 26.6589 675.722 Q33.8203 677.79 41.1727 677.79 Q48.5251 677.79 55.7502 675.722 Q62.9434 673.621 70.2321 669.388 L70.2321 674.48 Q62.7524 679.255 55.5274 681.642 Q48.3023 683.997 41.1727 683.997 Q34.0749 683.997 26.8817 681.642 Q19.6884 679.286 12.1769 674.48 L12.1769 669.388 Z" fill="#000000" fill-rule="nonzero" fill-opacity="1" /><path clip-path="url(#clip960)" d="M50.5303 634.472 Q49.3845 635.458 46.7109 637.018 Q50.5303 639.151 52.2172 641.028 Q54.2542 643.384 54.2542 647.044 Q54.2542 651.341 51.0395 654.174 Q47.6657 657.166 42.0957 657.166 Q36.7485 657.166 33.1201 654.174 Q29.9054 651.5 29.9054 646.98 Q29.9054 644.657 30.8603 642.938 Q31.9106 640.933 33.7248 639.564 Q35.3481 638.291 37.5442 637.018 Q33.7248 634.886 32.0379 633.008 Q30.0009 630.652 30.0009 626.992 Q30.0009 622.695 33.2156 619.862 Q36.5894 616.871 42.1594 616.871 Q47.5066 616.871 51.135 619.862 Q54.3497 622.536 54.3497 627.056 Q54.3497 629.379 53.3949 631.098 Q52.5355 632.817 50.5303 634.472 M50.0847 647.394 Q50.0847 642.142 42.4458 638.991 Q34.1068 643.034 34.1068 647.394 Q34.1068 650.577 36.3984 652.2 Q38.8492 653.951 42.0957 653.951 Q45.6605 653.951 47.8567 652.2 Q50.0847 650.418 50.0847 647.394 M34.1704 626.642 Q34.1704 631.384 41.8093 635.045 Q50.1483 631.034 50.1483 626.642 Q50.1483 623.459 47.8567 621.836 Q45.4059 620.085 42.1594 620.085 Q38.5946 620.085 36.3984 621.836 Q34.1704 623.618 34.1704 626.642 Z" fill="#000000" fill-rule="nonzero" fill-opacity="1" /><path clip-path="url(#clip960)" d="M12.1769 604.648 L12.1769 599.556 Q19.6884 594.782 26.8817 592.426 Q34.0749 590.039 41.1727 590.039 Q48.3023 590.039 55.5274 592.426 Q62.7524 594.782 70.2321 599.556 L70.2321 604.648 Q62.9434 600.415 55.7502 598.346 Q48.5251 596.246 41.1727 596.246 Q33.8203 596.246 26.6589 598.346 Q19.4975 600.415 12.1769 604.648 Z" fill="#000000" fill-rule="nonzero" fill-opacity="1" /><path clip-path="url(#clip960)" d="M103.455 12.096 L154.618 12.096 L154.618 18.9825 L133.148 18.9825 L133.148 72.576 L124.925 72.576 L124.925 18.9825 L103.455 18.9825 L103.455 12.096 Z" fill="#000000" fill-rule="nonzero" fill-opacity="1" /><path clip-path="url(#clip960)" d="M176.291 34.1734 Q175.035 33.4443 173.536 33.1202 Q172.078 32.7556 170.295 32.7556 Q163.976 32.7556 160.573 36.8875 Q157.211 40.9789 157.211 48.6757 L157.211 72.576 L149.717 72.576 L149.717 27.2059 L157.211 27.2059 L157.211 34.2544 Q159.56 30.1225 163.328 28.1376 Q167.095 26.1121 172.483 26.1121 Q173.252 26.1121 174.184 26.2337 Q175.116 26.3147 176.25 26.5172 L176.291 34.1734 Z" fill="#000000" fill-rule="nonzero" fill-opacity="1" /><path clip-path="url(#clip960)" d="M184.109 27.2059 L191.563 27.2059 L191.563 72.576 L184.109 72.576 L184.109 27.2059 M184.109 9.54393 L191.563 9.54393 L191.563 18.9825 L184.109 18.9825 L184.109 9.54393 Z" fill="#000000" fill-rule="nonzero" fill-opacity="1" /><path clip-path="url(#clip960)" d="M227.778 49.7694 Q218.744 49.7694 215.26 51.8354 Q211.777 53.9013 211.777 58.8839 Q211.777 62.8538 214.369 65.2034 Q217.002 67.5124 221.499 67.5124 Q227.697 67.5124 231.423 63.1374 Q235.191 58.7219 235.191 51.4303 L235.191 49.7694 L227.778 49.7694 M242.644 46.6907 L242.644 72.576 L235.191 72.576 L235.191 65.6895 Q232.639 69.8214 228.831 71.8063 Q225.023 73.7508 219.514 73.7508 Q212.546 73.7508 208.414 69.8619 Q204.323 65.9325 204.323 59.3701 Q204.323 51.7138 209.427 47.825 Q214.572 43.9361 224.739 43.9361 L235.191 43.9361 L235.191 43.2069 Q235.191 38.0623 231.788 35.2672 Q228.426 32.4315 222.309 32.4315 Q218.42 32.4315 214.734 33.3632 Q211.047 34.295 207.645 36.1584 L207.645 29.2718 Q211.736 27.692 215.584 26.9223 Q219.433 26.1121 223.079 26.1121 Q232.922 26.1121 237.783 31.2163 Q242.644 36.3204 242.644 46.6907 Z" fill="#000000" fill-rule="nonzero" fill-opacity="1" /><path clip-path="url(#clip960)" d="M295.711 45.1919 L295.711 72.576 L288.258 72.576 L288.258 45.4349 Q288.258 38.994 285.746 35.7938 Q283.234 32.5936 278.211 32.5936 Q272.176 32.5936 268.692 36.4419 Q265.208 40.2903 265.208 46.9338 L265.208 72.576 L257.714 72.576 L257.714 27.2059 L265.208 27.2059 L265.208 34.2544 Q267.882 30.163 271.487 28.1376 Q275.133 26.1121 279.872 26.1121 Q287.69 26.1121 291.701 30.9732 Q295.711 35.7938 295.711 45.1919 Z" fill="#000000" fill-rule="nonzero" fill-opacity="1" /><path clip-path="url(#clip960)" d="M340.433 49.3643 Q340.433 41.2625 337.071 36.8065 Q333.749 32.3505 327.713 32.3505 Q321.718 32.3505 318.356 36.8065 Q315.034 41.2625 315.034 49.3643 Q315.034 57.4256 318.356 61.8816 Q321.718 66.3376 327.713 66.3376 Q333.749 66.3376 337.071 61.8816 Q340.433 57.4256 340.433 49.3643 M347.887 66.9452 Q347.887 78.5308 342.742 84.1616 Q337.598 89.8329 326.984 89.8329 Q323.055 89.8329 319.571 89.2252 Q316.087 88.6581 312.806 87.4428 L312.806 80.1917 Q316.087 81.9741 319.288 82.8248 Q322.488 83.6755 325.809 83.6755 Q333.142 83.6755 336.787 79.8271 Q340.433 76.0193 340.433 68.282 L340.433 64.5957 Q338.124 68.6061 334.519 70.5911 Q330.914 72.576 325.891 72.576 Q317.546 72.576 312.442 66.2161 Q307.337 59.8562 307.337 49.3643 Q307.337 38.832 312.442 32.472 Q317.546 26.1121 325.891 26.1121 Q330.914 26.1121 334.519 28.0971 Q338.124 30.082 340.433 34.0924 L340.433 27.2059 L347.887 27.2059 L347.887 66.9452 Z" fill="#000000" fill-rule="nonzero" fill-opacity="1" /><path clip-path="url(#clip960)" d="M363.24 9.54393 L370.694 9.54393 L370.694 72.576 L363.24 72.576 L363.24 9.54393 Z" fill="#000000" fill-rule="nonzero" fill-opacity="1" /><path clip-path="url(#clip960)" d="M425.097 48.0275 L425.097 51.6733 L390.827 51.6733 Q391.313 59.3701 395.445 63.421 Q399.617 67.4314 407.03 67.4314 Q411.324 67.4314 415.334 66.3781 Q419.385 65.3249 423.355 63.2184 L423.355 70.267 Q419.345 71.9684 415.132 72.8596 Q410.919 73.7508 406.585 73.7508 Q395.728 73.7508 389.368 67.4314 Q383.049 61.1119 383.049 50.3365 Q383.049 39.1965 389.044 32.6746 Q395.08 26.1121 405.288 26.1121 Q414.443 26.1121 419.75 32.0264 Q425.097 37.9003 425.097 48.0275 M417.643 45.84 Q417.562 39.7232 414.2 36.0774 Q410.878 32.4315 405.369 32.4315 Q399.131 32.4315 395.364 35.9558 Q391.637 39.4801 391.07 45.8805 L417.643 45.84 Z" fill="#000000" fill-rule="nonzero" fill-opacity="1" /><path clip-path="url(#clip960)" d="M493.557 34.0924 L493.557 9.54393 L501.011 9.54393 L501.011 72.576 L493.557 72.576 L493.557 65.7705 Q491.208 69.8214 487.603 71.8063 Q484.038 73.7508 479.015 73.7508 Q470.791 73.7508 465.606 67.1883 Q460.462 60.6258 460.462 49.9314 Q460.462 39.2371 465.606 32.6746 Q470.791 26.1121 479.015 26.1121 Q484.038 26.1121 487.603 28.0971 Q491.208 30.0415 493.557 34.0924 M468.158 49.9314 Q468.158 58.1548 471.521 62.8538 Q474.923 67.5124 480.838 67.5124 Q486.752 67.5124 490.155 62.8538 Q493.557 58.1548 493.557 49.9314 Q493.557 41.7081 490.155 37.0496 Q486.752 32.3505 480.838 32.3505 Q474.923 32.3505 471.521 37.0496 Q468.158 41.7081 468.158 49.9314 Z" fill="#000000" fill-rule="nonzero" fill-opacity="1" /><path clip-path="url(#clip960)" d="M555.172 48.0275 L555.172 51.6733 L520.901 51.6733 Q521.387 59.3701 525.519 63.421 Q529.691 67.4314 537.105 67.4314 Q541.399 67.4314 545.409 66.3781 Q549.46 65.3249 553.43 63.2184 L553.43 70.267 Q549.419 71.9684 545.206 72.8596 Q540.994 73.7508 536.659 73.7508 Q525.803 73.7508 519.443 67.4314 Q513.123 61.1119 513.123 50.3365 Q513.123 39.1965 519.119 32.6746 Q525.154 26.1121 535.363 26.1121 Q544.518 26.1121 549.824 32.0264 Q555.172 37.9003 555.172 48.0275 M547.718 45.84 Q547.637 39.7232 544.275 36.0774 Q540.953 32.4315 535.444 32.4315 Q529.205 32.4315 525.438 35.9558 Q521.711 39.4801 521.144 45.8805 L547.718 45.84 Z" fill="#000000" fill-rule="nonzero" fill-opacity="1" /><path clip-path="url(#clip960)" d="M605.119 45.1919 L605.119 72.576 L597.666 72.576 L597.666 45.4349 Q597.666 38.994 595.154 35.7938 Q592.643 32.5936 587.619 32.5936 Q581.584 32.5936 578.1 36.4419 Q574.616 40.2903 574.616 46.9338 L574.616 72.576 L567.122 72.576 L567.122 27.2059 L574.616 27.2059 L574.616 34.2544 Q577.29 30.163 580.895 28.1376 Q584.541 26.1121 589.28 26.1121 Q597.099 26.1121 601.109 30.9732 Q605.119 35.7938 605.119 45.1919 Z" fill="#000000" fill-rule="nonzero" fill-opacity="1" /><path clip-path="url(#clip960)" d="M648.91 28.5427 L648.91 35.5912 Q645.75 33.9709 642.347 33.1607 Q638.944 32.3505 635.299 32.3505 Q629.749 32.3505 626.954 34.0519 Q624.199 35.7533 624.199 39.156 Q624.199 41.7486 626.184 43.2475 Q628.169 44.7058 634.164 46.0426 L636.716 46.6097 Q644.656 48.3111 647.978 51.4303 Q651.34 54.509 651.34 60.0587 Q651.34 66.3781 646.317 70.0644 Q641.334 73.7508 632.584 73.7508 Q628.939 73.7508 624.969 73.0216 Q621.039 72.3329 616.664 70.9151 L616.664 63.2184 Q620.796 65.3654 624.807 66.4591 Q628.817 67.5124 632.747 67.5124 Q638.013 67.5124 640.848 65.73 Q643.684 63.9071 643.684 60.6258 Q643.684 57.5877 641.618 55.9673 Q639.593 54.3469 632.665 52.8481 L630.073 52.2405 Q623.146 50.7821 620.067 47.7845 Q616.988 44.7463 616.988 39.4801 Q616.988 33.0797 621.525 29.5959 Q626.063 26.1121 634.407 26.1121 Q638.539 26.1121 642.185 26.7198 Q645.831 27.3274 648.91 28.5427 Z" fill="#000000" fill-rule="nonzero" fill-opacity="1" /><path clip-path="url(#clip960)" d="M663.209 27.2059 L670.663 27.2059 L670.663 72.576 L663.209 72.576 L663.209 27.2059 M663.209 9.54393 L670.663 9.54393 L670.663 18.9825 L663.209 18.9825 L663.209 9.54393 Z" fill="#000000" fill-rule="nonzero" fill-opacity="1" /><path clip-path="url(#clip960)" d="M693.632 14.324 L693.632 27.2059 L708.985 27.2059 L708.985 32.9987 L693.632 32.9987 L693.632 57.6282 Q693.632 63.1779 695.13 64.7578 Q696.67 66.3376 701.328 66.3376 L708.985 66.3376 L708.985 72.576 L701.328 72.576 Q692.7 72.576 689.419 69.3758 Q686.137 66.1351 686.137 57.6282 L686.137 32.9987 L680.669 32.9987 L680.669 27.2059 L686.137 27.2059 L686.137 14.324 L693.632 14.324 Z" fill="#000000" fill-rule="nonzero" fill-opacity="1" /><path clip-path="url(#clip960)" d="M737.665 76.7889 Q734.505 84.8907 731.508 87.3618 Q728.51 89.8329 723.487 89.8329 L717.532 89.8329 L717.532 83.5945 L721.907 83.5945 Q724.986 83.5945 726.687 82.1361 Q728.388 80.6778 730.454 75.2496 L731.791 71.8468 L713.441 27.2059 L721.34 27.2059 L735.518 62.6918 L749.696 27.2059 L757.595 27.2059 L737.665 76.7889 Z" fill="#000000" fill-rule="nonzero" fill-opacity="1" /><path clip-path="url(#clip960)" d="M820.546 34.1734 Q819.291 33.4443 817.792 33.1202 Q816.333 32.7556 814.551 32.7556 Q808.232 32.7556 804.829 36.8875 Q801.467 40.9789 801.467 48.6757 L801.467 72.576 L793.972 72.576 L793.972 27.2059 L801.467 27.2059 L801.467 34.2544 Q803.816 30.1225 807.584 28.1376 Q811.351 26.1121 816.739 26.1121 Q817.508 26.1121 818.44 26.2337 Q819.372 26.3147 820.506 26.5172 L820.546 34.1734 Z" fill="#000000" fill-rule="nonzero" fill-opacity="1" /><path clip-path="url(#clip960)" d="M865.349 48.0275 L865.349 51.6733 L831.079 51.6733 Q831.565 59.3701 835.697 63.421 Q839.869 67.4314 847.282 67.4314 Q851.576 67.4314 855.587 66.3781 Q859.638 65.3249 863.608 63.2184 L863.608 70.267 Q859.597 71.9684 855.384 72.8596 Q851.171 73.7508 846.837 73.7508 Q835.98 73.7508 829.62 67.4314 Q823.301 61.1119 823.301 50.3365 Q823.301 39.1965 829.296 32.6746 Q835.332 26.1121 845.54 26.1121 Q854.696 26.1121 860.002 32.0264 Q865.349 37.9003 865.349 48.0275 M857.896 45.84 Q857.815 39.7232 854.452 36.0774 Q851.131 32.4315 845.622 32.4315 Q839.383 32.4315 835.616 35.9558 Q831.889 39.4801 831.322 45.8805 L857.896 45.84 Z" fill="#000000" fill-rule="nonzero" fill-opacity="1" /><path clip-path="url(#clip960)" d="M907.438 34.0924 L907.438 9.54393 L914.892 9.54393 L914.892 72.576 L907.438 72.576 L907.438 65.7705 Q905.089 69.8214 901.483 71.8063 Q897.919 73.7508 892.896 73.7508 Q884.672 73.7508 879.487 67.1883 Q874.342 60.6258 874.342 49.9314 Q874.342 39.2371 879.487 32.6746 Q884.672 26.1121 892.896 26.1121 Q897.919 26.1121 901.483 28.0971 Q905.089 30.0415 907.438 34.0924 M882.039 49.9314 Q882.039 58.1548 885.401 62.8538 Q888.804 67.5124 894.718 67.5124 Q900.633 67.5124 904.036 62.8538 Q907.438 58.1548 907.438 49.9314 Q907.438 41.7081 904.036 37.0496 Q900.633 32.3505 894.718 32.3505 Q888.804 32.3505 885.401 37.0496 Q882.039 41.7081 882.039 49.9314 Z" fill="#000000" fill-rule="nonzero" fill-opacity="1" /><path clip-path="url(#clip960)" d="M929.475 54.671 L929.475 27.2059 L936.929 27.2059 L936.929 54.3874 Q936.929 60.8284 939.44 64.0691 Q941.952 67.2693 946.975 67.2693 Q953.011 67.2693 956.495 63.421 Q960.019 59.5726 960.019 52.9291 L960.019 27.2059 L967.473 27.2059 L967.473 72.576 L960.019 72.576 L960.019 65.6084 Q957.305 69.7404 953.7 71.7658 Q950.135 73.7508 945.395 73.7508 Q937.577 73.7508 933.526 68.8897 Q929.475 64.0286 929.475 54.671 M948.231 26.1121 L948.231 26.1121 Z" fill="#000000" fill-rule="nonzero" fill-opacity="1" /><path clip-path="url(#clip960)" d="M1015.48 28.9478 L1015.48 35.9153 Q1012.32 34.1734 1009.12 33.3227 Q1005.96 32.4315 1002.72 32.4315 Q995.464 32.4315 991.454 37.0496 Q987.444 41.6271 987.444 49.9314 Q987.444 58.2358 991.454 62.8538 Q995.464 67.4314 1002.72 67.4314 Q1005.96 67.4314 1009.12 66.5807 Q1012.32 65.6895 1015.48 63.9476 L1015.48 70.8341 Q1012.36 72.2924 1008.99 73.0216 Q1005.67 73.7508 1001.91 73.7508 Q991.657 73.7508 985.621 67.3098 Q979.585 60.8689 979.585 49.9314 Q979.585 38.832 985.661 32.472 Q991.778 26.1121 1002.39 26.1121 Q1005.83 26.1121 1009.12 26.8413 Q1012.4 27.5299 1015.48 28.9478 Z" fill="#000000" fill-rule="nonzero" fill-opacity="1" /><path clip-path="url(#clip960)" d="M1067.25 48.0275 L1067.25 51.6733 L1032.98 51.6733 Q1033.46 59.3701 1037.59 63.421 Q1041.77 67.4314 1049.18 67.4314 Q1053.47 67.4314 1057.48 66.3781 Q1061.53 65.3249 1065.5 63.2184 L1065.5 70.267 Q1061.49 71.9684 1057.28 72.8596 Q1053.07 73.7508 1048.73 73.7508 Q1037.88 73.7508 1031.52 67.4314 Q1025.2 61.1119 1025.2 50.3365 Q1025.2 39.1965 1031.19 32.6746 Q1037.23 26.1121 1047.44 26.1121 Q1056.59 26.1121 1061.9 32.0264 Q1067.25 37.9003 1067.25 48.0275 M1059.79 45.84 Q1059.71 39.7232 1056.35 36.0774 Q1053.03 32.4315 1047.52 32.4315 Q1041.28 32.4315 1037.51 35.9558 Q1033.79 39.4801 1033.22 45.8805 L1059.79 45.84 Z" fill="#000000" fill-rule="nonzero" fill-opacity="1" /><path clip-path="url(#clip960)" d="M1108.4 28.5427 L1108.4 35.5912 Q1105.24 33.9709 1101.84 33.1607 Q1098.44 32.3505 1094.79 32.3505 Q1089.24 32.3505 1086.45 34.0519 Q1083.69 35.7533 1083.69 39.156 Q1083.69 41.7486 1085.68 43.2475 Q1087.66 44.7058 1093.66 46.0426 L1096.21 46.6097 Q1104.15 48.3111 1107.47 51.4303 Q1110.83 54.509 1110.83 60.0587 Q1110.83 66.3781 1105.81 70.0644 Q1100.83 73.7508 1092.08 73.7508 Q1088.43 73.7508 1084.46 73.0216 Q1080.53 72.3329 1076.16 70.9151 L1076.16 63.2184 Q1080.29 65.3654 1084.3 66.4591 Q1088.31 67.5124 1092.24 67.5124 Q1097.51 67.5124 1100.34 65.73 Q1103.18 63.9071 1103.18 60.6258 Q1103.18 57.5877 1101.11 55.9673 Q1099.09 54.3469 1092.16 52.8481 L1089.57 52.2405 Q1082.64 50.7821 1079.56 47.7845 Q1076.48 44.7463 1076.48 39.4801 Q1076.48 33.0797 1081.02 29.5959 Q1085.56 26.1121 1093.9 26.1121 Q1098.03 26.1121 1101.68 26.7198 Q1105.32 27.3274 1108.4 28.5427 Z" fill="#000000" fill-rule="nonzero" fill-opacity="1" /><path clip-path="url(#clip960)" d="M1172.04 9.54393 L1172.04 15.7418 L1164.91 15.7418 Q1160.9 15.7418 1159.32 17.3622 Q1157.78 18.9825 1157.78 23.1955 L1157.78 27.2059 L1170.06 27.2059 L1170.06 32.9987 L1157.78 32.9987 L1157.78 72.576 L1150.29 72.576 L1150.29 32.9987 L1143.16 32.9987 L1143.16 27.2059 L1150.29 27.2059 L1150.29 24.0462 Q1150.29 16.471 1153.81 13.0277 Q1157.34 9.54393 1164.99 9.54393 L1172.04 9.54393 Z" fill="#000000" fill-rule="nonzero" fill-opacity="1" /><path clip-path="url(#clip960)" d="M1178.28 27.2059 L1185.74 27.2059 L1185.74 72.576 L1178.28 72.576 L1178.28 27.2059 M1178.28 9.54393 L1185.74 9.54393 L1185.74 18.9825 L1178.28 18.9825 L1178.28 9.54393 Z" fill="#000000" fill-rule="nonzero" fill-opacity="1" /><path clip-path="url(#clip960)" d="M1239.05 45.1919 L1239.05 72.576 L1231.59 72.576 L1231.59 45.4349 Q1231.59 38.994 1229.08 35.7938 Q1226.57 32.5936 1221.55 32.5936 Q1215.51 32.5936 1212.03 36.4419 Q1208.54 40.2903 1208.54 46.9338 L1208.54 72.576 L1201.05 72.576 L1201.05 27.2059 L1208.54 27.2059 L1208.54 34.2544 Q1211.22 30.163 1214.82 28.1376 Q1218.47 26.1121 1223.21 26.1121 Q1231.02 26.1121 1235.03 30.9732 Q1239.05 35.7938 1239.05 45.1919 Z" fill="#000000" fill-rule="nonzero" fill-opacity="1" /><path clip-path="url(#clip960)" d="M1274.53 49.7694 Q1265.5 49.7694 1262.01 51.8354 Q1258.53 53.9013 1258.53 58.8839 Q1258.53 62.8538 1261.12 65.2034 Q1263.76 67.5124 1268.25 67.5124 Q1274.45 67.5124 1278.18 63.1374 Q1281.94 58.7219 1281.94 51.4303 L1281.94 49.7694 L1274.53 49.7694 M1289.4 46.6907 L1289.4 72.576 L1281.94 72.576 L1281.94 65.6895 Q1279.39 69.8214 1275.58 71.8063 Q1271.78 73.7508 1266.27 73.7508 Q1259.3 73.7508 1255.17 69.8619 Q1251.08 65.9325 1251.08 59.3701 Q1251.08 51.7138 1256.18 47.825 Q1261.33 43.9361 1271.49 43.9361 L1281.94 43.9361 L1281.94 43.2069 Q1281.94 38.0623 1278.54 35.2672 Q1275.18 32.4315 1269.06 32.4315 Q1265.17 32.4315 1261.49 33.3632 Q1257.8 34.295 1254.4 36.1584 L1254.4 29.2718 Q1258.49 27.692 1262.34 26.9223 Q1266.19 26.1121 1269.83 26.1121 Q1279.68 26.1121 1284.54 31.2163 Q1289.4 36.3204 1289.4 46.6907 Z" fill="#000000" fill-rule="nonzero" fill-opacity="1" /><path clip-path="url(#clip960)" d="M1304.75 9.54393 L1312.2 9.54393 L1312.2 72.576 L1304.75 72.576 L1304.75 9.54393 Z" fill="#000000" fill-rule="nonzero" fill-opacity="1" /><path clip-path="url(#clip960)" d="M1383.1 28.5427 L1383.1 35.5912 Q1379.94 33.9709 1376.53 33.1607 Q1373.13 32.3505 1369.48 32.3505 Q1363.93 32.3505 1361.14 34.0519 Q1358.38 35.7533 1358.38 39.156 Q1358.38 41.7486 1360.37 43.2475 Q1362.35 44.7058 1368.35 46.0426 L1370.9 46.6097 Q1378.84 48.3111 1382.16 51.4303 Q1385.53 54.509 1385.53 60.0587 Q1385.53 66.3781 1380.5 70.0644 Q1375.52 73.7508 1366.77 73.7508 Q1363.12 73.7508 1359.15 73.0216 Q1355.23 72.3329 1350.85 70.9151 L1350.85 63.2184 Q1354.98 65.3654 1358.99 66.4591 Q1363 67.5124 1366.93 67.5124 Q1372.2 67.5124 1375.03 65.73 Q1377.87 63.9071 1377.87 60.6258 Q1377.87 57.5877 1375.8 55.9673 Q1373.78 54.3469 1366.85 52.8481 L1364.26 52.2405 Q1357.33 50.7821 1354.25 47.7845 Q1351.17 44.7463 1351.17 39.4801 Q1351.17 33.0797 1355.71 29.5959 Q1360.25 26.1121 1368.59 26.1121 Q1372.73 26.1121 1376.37 26.7198 Q1380.02 27.3274 1383.1 28.5427 Z" fill="#000000" fill-rule="nonzero" fill-opacity="1" /><path clip-path="url(#clip960)" d="M1397.4 27.2059 L1404.85 27.2059 L1404.85 72.576 L1397.4 72.576 L1397.4 27.2059 M1397.4 9.54393 L1404.85 9.54393 L1404.85 18.9825 L1397.4 18.9825 L1397.4 9.54393 Z" fill="#000000" fill-rule="nonzero" fill-opacity="1" /><path clip-path="url(#clip960)" d="M1417.2 27.2059 L1452.61 27.2059 L1452.61 34.0114 L1424.58 66.6212 L1452.61 66.6212 L1452.61 72.576 L1416.19 72.576 L1416.19 65.7705 L1444.22 33.1607 L1417.2 33.1607 L1417.2 27.2059 Z" fill="#000000" fill-rule="nonzero" fill-opacity="1" /><path clip-path="url(#clip960)" d="M1502.8 48.0275 L1502.8 51.6733 L1468.53 51.6733 Q1469.02 59.3701 1473.15 63.421 Q1477.32 67.4314 1484.73 67.4314 Q1489.03 67.4314 1493.04 66.3781 Q1497.09 65.3249 1501.06 63.2184 L1501.06 70.267 Q1497.05 71.9684 1492.83 72.8596 Q1488.62 73.7508 1484.29 73.7508 Q1473.43 73.7508 1467.07 67.4314 Q1460.75 61.1119 1460.75 50.3365 Q1460.75 39.1965 1466.75 32.6746 Q1472.78 26.1121 1482.99 26.1121 Q1492.15 26.1121 1497.45 32.0264 Q1502.8 37.9003 1502.8 48.0275 M1495.35 45.84 Q1495.27 39.7232 1491.9 36.0774 Q1488.58 32.4315 1483.07 32.4315 Q1476.83 32.4315 1473.07 35.9558 Q1469.34 39.4801 1468.77 45.8805 L1495.35 45.84 Z" fill="#000000" fill-rule="nonzero" fill-opacity="1" /><path clip-path="url(#clip960)" d="M1516.94 62.2867 L1525.48 62.2867 L1525.48 69.2543 L1518.84 82.2172 L1513.62 82.2172 L1516.94 69.2543 L1516.94 62.2867 Z" fill="#000000" fill-rule="nonzero" fill-opacity="1" /><path clip-path="url(#clip960)" d="M1587.34 39.075 Q1581.83 39.075 1578.59 42.8424 Q1575.39 46.6097 1575.39 53.1722 Q1575.39 59.6941 1578.59 63.502 Q1581.83 67.2693 1587.34 67.2693 Q1592.85 67.2693 1596.05 63.502 Q1599.29 59.6941 1599.29 53.1722 Q1599.29 46.6097 1596.05 42.8424 Q1592.85 39.075 1587.34 39.075 M1603.59 13.4328 L1603.59 20.8865 Q1600.51 19.4281 1597.35 18.6585 Q1594.23 17.8888 1591.15 17.8888 Q1583.05 17.8888 1578.75 23.3575 Q1574.5 28.8262 1573.89 39.8852 Q1576.28 36.3609 1579.89 34.4975 Q1583.49 32.5936 1587.83 32.5936 Q1596.94 32.5936 1602.21 38.1433 Q1607.52 43.6525 1607.52 53.1722 Q1607.52 62.4892 1602.01 68.12 Q1596.5 73.7508 1587.34 73.7508 Q1576.85 73.7508 1571.3 65.73 Q1565.75 57.6687 1565.75 42.3968 Q1565.75 28.0566 1572.56 19.5497 Q1579.36 11.0023 1590.83 11.0023 Q1593.9 11.0023 1597.02 11.6099 Q1600.18 12.2175 1603.59 13.4328 Z" fill="#000000" fill-rule="nonzero" fill-opacity="1" /><path clip-path="url(#clip960)" d="M1616.79 46.5287 L1638.63 46.5287 L1638.63 53.1722 L1616.79 53.1722 L1616.79 46.5287 Z" fill="#000000" fill-rule="nonzero" fill-opacity="1" /><path clip-path="url(#clip960)" d="M1676.79 34.1734 Q1675.53 33.4443 1674.03 33.1202 Q1672.57 32.7556 1670.79 32.7556 Q1664.47 32.7556 1661.07 36.8875 Q1657.71 40.9789 1657.71 48.6757 L1657.71 72.576 L1650.21 72.576 L1650.21 27.2059 L1657.71 27.2059 L1657.71 34.2544 Q1660.06 30.1225 1663.82 28.1376 Q1667.59 26.1121 1672.98 26.1121 Q1673.75 26.1121 1674.68 26.2337 Q1675.61 26.3147 1676.75 26.5172 L1676.79 34.1734 Z" fill="#000000" fill-rule="nonzero" fill-opacity="1" /><path clip-path="url(#clip960)" d="M1721.59 48.0275 L1721.59 51.6733 L1687.32 51.6733 Q1687.8 59.3701 1691.94 63.421 Q1696.11 67.4314 1703.52 67.4314 Q1707.82 67.4314 1711.83 66.3781 Q1715.88 65.3249 1719.85 63.2184 L1719.85 70.267 Q1715.84 71.9684 1711.62 72.8596 Q1707.41 73.7508 1703.08 73.7508 Q1692.22 73.7508 1685.86 67.4314 Q1679.54 61.1119 1679.54 50.3365 Q1679.54 39.1965 1685.54 32.6746 Q1691.57 26.1121 1701.78 26.1121 Q1710.94 26.1121 1716.24 32.0264 Q1721.59 37.9003 1721.59 48.0275 M1714.14 45.84 Q1714.05 39.7232 1710.69 36.0774 Q1707.37 32.4315 1701.86 32.4315 Q1695.62 32.4315 1691.86 35.9558 Q1688.13 39.4801 1687.56 45.8805 L1714.14 45.84 Z" fill="#000000" fill-rule="nonzero" fill-opacity="1" /><path clip-path="url(#clip960)" d="M1763.68 49.3643 Q1763.68 41.2625 1760.32 36.8065 Q1756.99 32.3505 1750.96 32.3505 Q1744.96 32.3505 1741.6 36.8065 Q1738.28 41.2625 1738.28 49.3643 Q1738.28 57.4256 1741.6 61.8816 Q1744.96 66.3376 1750.96 66.3376 Q1756.99 66.3376 1760.32 61.8816 Q1763.68 57.4256 1763.68 49.3643 M1771.13 66.9452 Q1771.13 78.5308 1765.99 84.1616 Q1760.84 89.8329 1750.23 89.8329 Q1746.3 89.8329 1742.82 89.2252 Q1739.33 88.6581 1736.05 87.4428 L1736.05 80.1917 Q1739.33 81.9741 1742.53 82.8248 Q1745.73 83.6755 1749.05 83.6755 Q1756.39 83.6755 1760.03 79.8271 Q1763.68 76.0193 1763.68 68.282 L1763.68 64.5957 Q1761.37 68.6061 1757.76 70.5911 Q1754.16 72.576 1749.14 72.576 Q1740.79 72.576 1735.69 66.2161 Q1730.58 59.8562 1730.58 49.3643 Q1730.58 38.832 1735.69 32.472 Q1740.79 26.1121 1749.14 26.1121 Q1754.16 26.1121 1757.76 28.0971 Q1761.37 30.082 1763.68 34.0924 L1763.68 27.2059 L1771.13 27.2059 L1771.13 66.9452 Z" fill="#000000" fill-rule="nonzero" fill-opacity="1" /><path clip-path="url(#clip960)" d="M1785.71 54.671 L1785.71 27.2059 L1793.17 27.2059 L1793.17 54.3874 Q1793.17 60.8284 1795.68 64.0691 Q1798.19 67.2693 1803.21 67.2693 Q1809.25 67.2693 1812.73 63.421 Q1816.26 59.5726 1816.26 52.9291 L1816.26 27.2059 L1823.71 27.2059 L1823.71 72.576 L1816.26 72.576 L1816.26 65.6084 Q1813.54 69.7404 1809.94 71.7658 Q1806.37 73.7508 1801.63 73.7508 Q1793.82 73.7508 1789.77 68.8897 Q1785.71 64.0286 1785.71 54.671 M1804.47 26.1121 L1804.47 26.1121 Z" fill="#000000" fill-rule="nonzero" fill-opacity="1" /><path clip-path="url(#clip960)" d="M1839.07 9.54393 L1846.52 9.54393 L1846.52 72.576 L1839.07 72.576 L1839.07 9.54393 Z" fill="#000000" fill-rule="nonzero" fill-opacity="1" /><path clip-path="url(#clip960)" d="M1882.73 49.7694 Q1873.7 49.7694 1870.22 51.8354 Q1866.73 53.9013 1866.73 58.8839 Q1866.73 62.8538 1869.33 65.2034 Q1871.96 67.5124 1876.46 67.5124 Q1882.65 67.5124 1886.38 63.1374 Q1890.15 58.7219 1890.15 51.4303 L1890.15 49.7694 L1882.73 49.7694 M1897.6 46.6907 L1897.6 72.576 L1890.15 72.576 L1890.15 65.6895 Q1887.6 69.8214 1883.79 71.8063 Q1879.98 73.7508 1874.47 73.7508 Q1867.5 73.7508 1863.37 69.8619 Q1859.28 65.9325 1859.28 59.3701 Q1859.28 51.7138 1864.38 47.825 Q1869.53 43.9361 1879.7 43.9361 L1890.15 43.9361 L1890.15 43.2069 Q1890.15 38.0623 1886.74 35.2672 Q1883.38 32.4315 1877.27 32.4315 Q1873.38 32.4315 1869.69 33.3632 Q1866 34.295 1862.6 36.1584 L1862.6 29.2718 Q1866.69 27.692 1870.54 26.9223 Q1874.39 26.1121 1878.03 26.1121 Q1887.88 26.1121 1892.74 31.2163 Q1897.6 36.3204 1897.6 46.6907 Z" fill="#000000" fill-rule="nonzero" fill-opacity="1" /><path clip-path="url(#clip960)" d="M1939.24 34.1734 Q1937.99 33.4443 1936.49 33.1202 Q1935.03 32.7556 1933.25 32.7556 Q1926.93 32.7556 1923.53 36.8875 Q1920.16 40.9789 1920.16 48.6757 L1920.16 72.576 L1912.67 72.576 L1912.67 27.2059 L1920.16 27.2059 L1920.16 34.2544 Q1922.51 30.1225 1926.28 28.1376 Q1930.05 26.1121 1935.44 26.1121 Q1936.21 26.1121 1937.14 26.2337 Q1938.07 26.3147 1939.2 26.5172 L1939.24 34.1734 Z" fill="#000000" fill-rule="nonzero" fill-opacity="1" /><path clip-path="url(#clip960)" d="M2010.01 14.0809 L2010.01 22.0612 Q2005.35 19.8332 2001.22 18.7395 Q1997.09 17.6457 1993.24 17.6457 Q1986.56 17.6457 1982.91 20.2383 Q1979.31 22.8309 1979.31 27.611 Q1979.31 31.6214 1981.7 33.6873 Q1984.13 35.7128 1990.85 36.9686 L1995.79 37.9813 Q2004.95 39.7232 2009.28 44.1387 Q2013.66 48.5136 2013.66 55.8863 Q2013.66 64.6767 2007.74 69.2137 Q2001.87 73.7508 1990.49 73.7508 Q1986.19 73.7508 1981.33 72.7785 Q1976.51 71.8063 1971.33 69.9024 L1971.33 61.4765 Q1976.31 64.2716 1981.09 65.6895 Q1985.87 67.1073 1990.49 67.1073 Q1997.5 67.1073 2001.3 64.3527 Q2005.11 61.598 2005.11 56.4939 Q2005.11 52.0379 2002.36 49.5264 Q1999.64 47.0148 1993.4 45.759 L1988.42 44.7868 Q1979.27 42.9639 1975.18 39.075 Q1971.08 35.1862 1971.08 28.2591 Q1971.08 20.2383 1976.71 15.6203 Q1982.39 11.0023 1992.31 11.0023 Q1996.56 11.0023 2000.98 11.7719 Q2005.4 12.5416 2010.01 14.0809 Z" fill="#000000" fill-rule="nonzero" fill-opacity="1" /><path clip-path="url(#clip960)" d="M2026.42 12.096 L2034.6 12.096 L2034.6 72.576 L2026.42 72.576 L2026.42 12.096 Z" fill="#000000" fill-rule="nonzero" fill-opacity="1" /><path clip-path="url(#clip960)" d="M2079.57 44.2197 Q2082.2 45.1109 2084.67 48.0275 Q2087.18 50.9442 2089.69 56.0483 L2098 72.576 L2089.21 72.576 L2081.47 57.061 Q2078.47 50.9847 2075.64 48.9997 Q2072.84 47.0148 2067.98 47.0148 L2059.07 47.0148 L2059.07 72.576 L2050.89 72.576 L2050.89 12.096 L2069.36 12.096 Q2079.73 12.096 2084.83 16.4305 Q2089.94 20.7649 2089.94 29.5149 Q2089.94 35.2267 2087.26 38.994 Q2084.63 42.7613 2079.57 44.2197 M2059.07 18.8205 L2059.07 40.2903 L2069.36 40.2903 Q2075.27 40.2903 2078.27 37.5762 Q2081.31 34.8216 2081.31 29.5149 Q2081.31 24.2082 2078.27 21.5346 Q2075.27 18.8205 2069.36 18.8205 L2059.07 18.8205 Z" fill="#000000" fill-rule="nonzero" fill-opacity="1" /><path clip-path="url(#clip960)" d="M2152.48 9.62495 Q2147.06 18.942 2144.42 28.0566 Q2141.79 37.1711 2141.79 46.5287 Q2141.79 55.8863 2144.42 65.0818 Q2147.1 74.2369 2152.48 83.5134 L2146 83.5134 Q2139.93 73.9938 2136.89 64.7983 Q2133.89 55.6027 2133.89 46.5287 Q2133.89 37.4952 2136.89 28.3401 Q2139.89 19.1851 2146 9.62495 L2152.48 9.62495 Z" fill="#000000" fill-rule="nonzero" fill-opacity="1" /><path clip-path="url(#clip960)" d="M2195.95 44.2197 Q2198.58 45.1109 2201.05 48.0275 Q2203.57 50.9442 2206.08 56.0483 L2214.38 72.576 L2205.59 72.576 L2197.85 57.061 Q2194.86 50.9847 2192.02 48.9997 Q2189.23 47.0148 2184.36 47.0148 L2175.45 47.0148 L2175.45 72.576 L2167.27 72.576 L2167.27 12.096 L2185.74 12.096 Q2196.11 12.096 2201.22 16.4305 Q2206.32 20.7649 2206.32 29.5149 Q2206.32 35.2267 2203.65 38.994 Q2201.01 42.7613 2195.95 44.2197 M2175.45 18.8205 L2175.45 40.2903 L2185.74 40.2903 Q2191.66 40.2903 2194.65 37.5762 Q2197.69 34.8216 2197.69 29.5149 Q2197.69 24.2082 2194.65 21.5346 Q2191.66 18.8205 2185.74 18.8205 L2175.45 18.8205 Z" fill="#000000" fill-rule="nonzero" fill-opacity="1" /><path clip-path="url(#clip960)" d="M2239.86 45.1514 Q2237.84 41.6676 2233.74 41.6676 Q2229.65 41.6676 2227.63 45.1514 Q2225.56 48.6352 2225.56 55.6027 Q2225.56 62.6108 2227.63 66.0946 Q2229.65 69.5783 2233.74 69.5783 Q2237.84 69.5783 2239.86 66.0946 Q2241.93 62.6108 2241.93 55.6027 Q2241.93 48.6352 2239.86 45.1514 M2233.74 38.0623 Q2240.27 38.0623 2243.71 42.5588 Q2247.15 47.0553 2247.15 55.6027 Q2247.15 64.1906 2243.71 68.6871 Q2240.27 73.1836 2233.74 73.1836 Q2227.18 73.1836 2223.74 68.6871 Q2220.3 64.1906 2220.3 55.6027 Q2220.3 47.0553 2223.74 42.5588 Q2227.18 38.0623 2233.74 38.0623 Z" fill="#000000" fill-rule="nonzero" fill-opacity="1" /><path clip-path="url(#clip960)" d="M2285.19 34.9026 L2337.12 34.9026 L2337.12 41.7081 L2285.19 41.7081 L2285.19 34.9026 M2285.19 51.4303 L2337.12 51.4303 L2337.12 58.3168 L2285.19 58.3168 L2285.19 51.4303 Z" fill="#000000" fill-rule="nonzero" fill-opacity="1" /><path clip-path="url(#clip960)" d="M2388.21 65.6895 L2416.76 65.6895 L2416.76 72.576 L2378.36 72.576 L2378.36 65.6895 Q2383.02 60.8689 2391.04 52.7671 Q2399.1 44.6248 2401.17 42.2752 Q2405.1 37.8598 2406.64 34.8216 Q2408.22 31.7429 2408.22 28.7857 Q2408.22 23.9651 2404.81 20.927 Q2401.45 17.8888 2396.02 17.8888 Q2392.18 17.8888 2387.88 19.2256 Q2383.63 20.5624 2378.77 23.2765 L2378.77 15.0127 Q2383.71 13.0277 2388 12.015 Q2392.3 11.0023 2395.86 11.0023 Q2405.26 11.0023 2410.85 15.7013 Q2416.44 20.4004 2416.44 28.2591 Q2416.44 31.9859 2415.02 35.3482 Q2413.65 38.6699 2409.96 43.2069 Q2408.95 44.3817 2403.52 50.0125 Q2398.09 55.6027 2388.21 65.6895 Z" fill="#000000" fill-rule="nonzero" fill-opacity="1" /><path clip-path="url(#clip960)" d="M2479.88 49.7694 Q2470.84 49.7694 2467.36 51.8354 Q2463.88 53.9013 2463.88 58.8839 Q2463.88 62.8538 2466.47 65.2034 Q2469.1 67.5124 2473.6 67.5124 Q2479.8 67.5124 2483.52 63.1374 Q2487.29 58.7219 2487.29 51.4303 L2487.29 49.7694 L2479.88 49.7694 M2494.74 46.6907 L2494.74 72.576 L2487.29 72.576 L2487.29 65.6895 Q2484.74 69.8214 2480.93 71.8063 Q2477.12 73.7508 2471.61 73.7508 Q2464.65 73.7508 2460.51 69.8619 Q2456.42 65.9325 2456.42 59.3701 Q2456.42 51.7138 2461.53 47.825 Q2466.67 43.9361 2476.84 43.9361 L2487.29 43.9361 L2487.29 43.2069 Q2487.29 38.0623 2483.89 35.2672 Q2480.53 32.4315 2474.41 32.4315 Q2470.52 32.4315 2466.83 33.3632 Q2463.15 34.295 2459.74 36.1584 L2459.74 29.2718 Q2463.84 27.692 2467.68 26.9223 Q2471.53 26.1121 2475.18 26.1121 Q2485.02 26.1121 2489.88 31.2163 Q2494.74 36.3204 2494.74 46.6907 Z" fill="#000000" fill-rule="nonzero" fill-opacity="1" /><path clip-path="url(#clip960)" d="M2517.47 14.324 L2517.47 27.2059 L2532.82 27.2059 L2532.82 32.9987 L2517.47 32.9987 L2517.47 57.6282 Q2517.47 63.1779 2518.97 64.7578 Q2520.51 66.3376 2525.17 66.3376 L2532.82 66.3376 L2532.82 72.576 L2525.17 72.576 Q2516.54 72.576 2513.26 69.3758 Q2509.98 66.1351 2509.98 57.6282 L2509.98 32.9987 L2504.51 32.9987 L2504.51 27.2059 L2509.98 27.2059 L2509.98 14.324 L2517.47 14.324 Z" fill="#000000" fill-rule="nonzero" fill-opacity="1" /><path clip-path="url(#clip960)" d="M2592.13 9.54393 L2592.13 26.2742 Q2600.19 26.2742 2605.58 32.472 Q2611.13 38.7915 2611.13 49.9314 Q2611.13 61.0714 2605.58 67.3908 Q2600.19 73.5887 2592.13 73.5887 L2592.13 89.8329 L2584.72 89.8329 L2584.72 73.5887 Q2576.65 73.5887 2571.23 67.3908 Q2565.72 61.0714 2565.72 49.9314 Q2565.72 38.7915 2571.23 32.472 Q2576.65 26.2742 2584.72 26.2742 L2584.72 9.54393 L2592.13 9.54393 M2592.13 66.9452 Q2596.71 66.9452 2599.83 62.7728 Q2603.23 58.1143 2603.27 49.9314 Q2603.31 41.8296 2599.83 37.0901 Q2596.71 32.9176 2592.13 32.9176 L2592.13 66.9452 M2584.72 66.9452 L2584.72 32.9176 Q2580.14 32.9176 2577.06 37.0901 Q2573.53 41.8296 2573.58 49.9314 Q2573.62 58.1143 2577.06 62.7728 Q2580.14 66.9452 2584.72 66.9452 Z" fill="#000000" fill-rule="nonzero" fill-opacity="1" /><path clip-path="url(#clip960)" d="M2624.7 34.9026 L2676.63 34.9026 L2676.63 41.7081 L2624.7 41.7081 L2624.7 34.9026 M2624.7 51.4303 L2676.63 51.4303 L2676.63 58.3168 L2624.7 58.3168 L2624.7 51.4303 Z" fill="#000000" fill-rule="nonzero" fill-opacity="1" /><path clip-path="url(#clip960)" d="M2711.79 17.4837 Q2705.47 17.4837 2702.27 23.7221 Q2699.11 29.92 2699.11 42.3968 Q2699.11 54.833 2702.27 61.0714 Q2705.47 67.2693 2711.79 67.2693 Q2718.15 67.2693 2721.31 61.0714 Q2724.51 54.833 2724.51 42.3968 Q2724.51 29.92 2721.31 23.7221 Q2718.15 17.4837 2711.79 17.4837 M2711.79 11.0023 Q2721.96 11.0023 2727.31 19.0636 Q2732.69 27.0843 2732.69 42.3968 Q2732.69 57.6687 2727.31 65.73 Q2721.96 73.7508 2711.79 73.7508 Q2701.62 73.7508 2696.24 65.73 Q2690.89 57.6687 2690.89 42.3968 Q2690.89 27.0843 2696.24 19.0636 Q2701.62 11.0023 2711.79 11.0023 Z" fill="#000000" fill-rule="nonzero" fill-opacity="1" /><path clip-path="url(#clip960)" d="M2744.85 9.62495 L2751.33 9.62495 Q2757.41 19.1851 2760.4 28.3401 Q2763.44 37.4952 2763.44 46.5287 Q2763.44 55.6027 2760.4 64.7983 Q2757.41 73.9938 2751.33 83.5134 L2744.85 83.5134 Q2750.24 74.2369 2752.87 65.0818 Q2755.54 55.8863 2755.54 46.5287 Q2755.54 37.1711 2752.87 28.0566 Q2750.24 18.942 2744.85 9.62495 Z" fill="#000000" fill-rule="nonzero" fill-opacity="1" /><polyline clip-path="url(#clip961)" style="stroke:#009af9; stroke-linecap:round; stroke-linejoin:round; stroke-width:8; stroke-opacity:1; fill:none" points="294.479,173.254 484.307,181.155 674.135,189.503 863.963,198.331 1053.79,207.701 1243.62,217.738 1433.45,228.715 1623.28,241.213 1813.1,256.474 2002.93,277.074 2192.76,308.256 2382.59,361.282 2572.42,470.19 "/>
<circle clip-path="url(#clip961)" cx="294.479" cy="173.254" r="14.4" fill="#009af9" fill-rule="evenodd" fill-opacity="1" stroke="#000000" stroke-opacity="1" stroke-width="3.84"/>
<circle clip-path="url(#clip961)" cx="484.307" cy="181.155" r="14.4" fill="#009af9" fill-rule="evenodd" fill-opacity="1" stroke="#000000" stroke-opacity="1" stroke-width="3.84"/>
<circle clip-path="url(#clip961)" cx="674.135" cy="189.503" r="14.4" fill="#009af9" fill-rule="evenodd" fill-opacity="1" stroke="#000000" stroke-opacity="1" stroke-width="3.84"/>
<circle clip-path="url(#clip961)" cx="863.963" cy="198.331" r="14.4" fill="#009af9" fill-rule="evenodd" fill-opacity="1" stroke="#000000" stroke-opacity="1" stroke-width="3.84"/>
<circle clip-path="url(#clip961)" cx="1053.79" cy="207.701" r="14.4" fill="#009af9" fill-rule="evenodd" fill-opacity="1" stroke="#000000" stroke-opacity="1" stroke-width="3.84"/>
<circle clip-path="url(#clip961)" cx="1243.62" cy="217.738" r="14.4" fill="#009af9" fill-rule="evenodd" fill-opacity="1" stroke="#000000" stroke-opacity="1" stroke-width="3.84"/>
<circle clip-path="url(#clip961)" cx="1433.45" cy="228.715" r="14.4" fill="#009af9" fill-rule="evenodd" fill-opacity="1" stroke="#000000" stroke-opacity="1" stroke-width="3.84"/>
<circle clip-path="url(#clip961)" cx="1623.28" cy="241.213" r="14.4" fill="#009af9" fill-rule="evenodd" fill-opacity="1" stroke="#000000" stroke-opacity="1" stroke-width="3.84"/>
<circle clip-path="url(#clip961)" cx="1813.1" cy="256.474" r="14.4" fill="#009af9" fill-rule="evenodd" fill-opacity="1" stroke="#000000" stroke-opacity="1" stroke-width="3.84"/>
<circle clip-path="url(#clip961)" cx="2002.93" cy="277.074" r="14.4" fill="#009af9" fill-rule="evenodd" fill-opacity="1" stroke="#000000" stroke-opacity="1" stroke-width="3.84"/>
<circle clip-path="url(#clip961)" cx="2192.76" cy="308.256" r="14.4" fill="#009af9" fill-rule="evenodd" fill-opacity="1" stroke="#000000" stroke-opacity="1" stroke-width="3.84"/>
<circle clip-path="url(#clip961)" cx="2382.59" cy="361.282" r="14.4" fill="#009af9" fill-rule="evenodd" fill-opacity="1" stroke="#000000" stroke-opacity="1" stroke-width="3.84"/>
<circle clip-path="url(#clip961)" cx="2572.42" cy="470.19" r="14.4" fill="#009af9" fill-rule="evenodd" fill-opacity="1" stroke="#000000" stroke-opacity="1" stroke-width="3.84"/>
<polyline clip-path="url(#clip961)" style="stroke:#e26f46; stroke-linecap:round; stroke-linejoin:round; stroke-width:8; stroke-opacity:1; fill:none" points="294.479,173.254 484.307,183.502 674.135,195.361 863.963,209.572 1053.79,227.45 1243.62,251.483 1433.45,286.694 1623.28,344.191 1813.1,451.622 2002.93,683.914 2192.76,1137.6 2382.59,1515.6 2572.42,1688.65 "/>
<path clip-path="url(#clip961)" d="M294.479 157.254 L278.479 173.254 L294.479 189.254 L310.479 173.254 L294.479 157.254 Z" fill="#e26f46" fill-rule="evenodd" fill-opacity="1" stroke="#000000" stroke-opacity="1" stroke-width="3.84"/>
<path clip-path="url(#clip961)" d="M484.307 167.502 L468.307 183.502 L484.307 199.502 L500.307 183.502 L484.307 167.502 Z" fill="#e26f46" fill-rule="evenodd" fill-opacity="1" stroke="#000000" stroke-opacity="1" stroke-width="3.84"/>
<path clip-path="url(#clip961)" d="M674.135 179.361 L658.135 195.361 L674.135 211.361 L690.135 195.361 L674.135 179.361 Z" fill="#e26f46" fill-rule="evenodd" fill-opacity="1" stroke="#000000" stroke-opacity="1" stroke-width="3.84"/>
<path clip-path="url(#clip961)" d="M863.963 193.572 L847.963 209.572 L863.963 225.572 L879.963 209.572 L863.963 193.572 Z" fill="#e26f46" fill-rule="evenodd" fill-opacity="1" stroke="#000000" stroke-opacity="1" stroke-width="3.84"/>
<path clip-path="url(#clip961)" d="M1053.79 211.45 L1037.79 227.45 L1053.79 243.45 L1069.79 227.45 L1053.79 211.45 Z" fill="#e26f46" fill-rule="evenodd" fill-opacity="1" stroke="#000000" stroke-opacity="1" stroke-width="3.84"/>
<path clip-path="url(#clip961)" d="M1243.62 235.483 L1227.62 251.483 L1243.62 267.483 L1259.62 251.483 L1243.62 235.483 Z" fill="#e26f46" fill-rule="evenodd" fill-opacity="1" stroke="#000000" stroke-opacity="1" stroke-width="3.84"/>
<path clip-path="url(#clip961)" d="M1433.45 270.694 L1417.45 286.694 L1433.45 302.694 L1449.45 286.694 L1433.45 270.694 Z" fill="#e26f46" fill-rule="evenodd" fill-opacity="1" stroke="#000000" stroke-opacity="1" stroke-width="3.84"/>
<path clip-path="url(#clip961)" d="M1623.28 328.191 L1607.28 344.191 L1623.28 360.191 L1639.28 344.191 L1623.28 328.191 Z" fill="#e26f46" fill-rule="evenodd" fill-opacity="1" stroke="#000000" stroke-opacity="1" stroke-width="3.84"/>
<path clip-path="url(#clip961)" d="M1813.1 435.622 L1797.1 451.622 L1813.1 467.622 L1829.1 451.622 L1813.1 435.622 Z" fill="#e26f46" fill-rule="evenodd" fill-opacity="1" stroke="#000000" stroke-opacity="1" stroke-width="3.84"/>
<path clip-path="url(#clip961)" d="M2002.93 667.914 L1986.93 683.914 L2002.93 699.914 L2018.93 683.914 L2002.93 667.914 Z" fill="#e26f46" fill-rule="evenodd" fill-opacity="1" stroke="#000000" stroke-opacity="1" stroke-width="3.84"/>
<path clip-path="url(#clip961)" d="M2192.76 1121.6 L2176.76 1137.6 L2192.76 1153.6 L2208.76 1137.6 L2192.76 1121.6 Z" fill="#e26f46" fill-rule="evenodd" fill-opacity="1" stroke="#000000" stroke-opacity="1" stroke-width="3.84"/>
<path clip-path="url(#clip961)" d="M2382.59 1499.6 L2366.59 1515.6 L2382.59 1531.6 L2398.59 1515.6 L2382.59 1499.6 Z" fill="#e26f46" fill-rule="evenodd" fill-opacity="1" stroke="#000000" stroke-opacity="1" stroke-width="3.84"/>
<path clip-path="url(#clip961)" d="M2572.42 1672.65 L2556.42 1688.65 L2572.42 1704.65 L2588.42 1688.65 L2572.42 1672.65 Z" fill="#e26f46" fill-rule="evenodd" fill-opacity="1" stroke="#000000" stroke-opacity="1" stroke-width="3.84"/>
<path clip-path="url(#clip960)" d="M306.628 1680.57 L727.209 1680.57 L727.209 1525.05 L306.628 1525.05  Z" fill="#ffffff" fill-rule="evenodd" fill-opacity="1"/>
<polyline clip-path="url(#clip960)" style="stroke:#000000; stroke-linecap:round; stroke-linejoin:round; stroke-width:4; stroke-opacity:1; fill:none" points="306.628,1680.57 727.209,1680.57 727.209,1525.05 306.628,1525.05 306.628,1680.57 "/>
<polyline clip-path="url(#clip960)" style="stroke:#009af9; stroke-linecap:round; stroke-linejoin:round; stroke-width:8; stroke-opacity:1; fill:none" points="333.457,1576.89 494.431,1576.89 "/>
<circle clip-path="url(#clip960)" cx="413.944" cy="1576.89" r="20.48" fill="#009af9" fill-rule="evenodd" fill-opacity="1" stroke="#000000" stroke-opacity="1" stroke-width="5.46133"/>
<path clip-path="url(#clip960)" d="M521.26 1559.61 L525.936 1559.61 L525.936 1574.22 L541.445 1559.61 L547.464 1559.61 L530.311 1575.72 L548.691 1594.17 L542.533 1594.17 L525.936 1577.53 L525.936 1594.17 L521.26 1594.17 L521.26 1559.61 Z" fill="#000000" fill-rule="nonzero" fill-opacity="1" /><path clip-path="url(#clip960)" d="M571.978 1580.15 L571.978 1582.23 L552.394 1582.23 Q552.672 1586.63 555.033 1588.94 Q557.417 1591.23 561.654 1591.23 Q564.107 1591.23 566.399 1590.63 Q568.714 1590.03 570.982 1588.83 L570.982 1592.85 Q568.691 1593.83 566.283 1594.33 Q563.876 1594.84 561.399 1594.84 Q555.195 1594.84 551.561 1591.23 Q547.95 1587.62 547.95 1581.46 Q547.95 1575.1 551.376 1571.37 Q554.825 1567.62 560.658 1567.62 Q565.89 1567.62 568.922 1571 Q571.978 1574.36 571.978 1580.15 M567.718 1578.9 Q567.672 1575.4 565.751 1573.32 Q563.853 1571.23 560.704 1571.23 Q557.14 1571.23 554.987 1573.25 Q552.857 1575.26 552.533 1578.92 L567.718 1578.9 Z" fill="#000000" fill-rule="nonzero" fill-opacity="1" /><path clip-path="url(#clip960)" d="M601.144 1580.15 L601.144 1582.23 L581.561 1582.23 Q581.839 1586.63 584.2 1588.94 Q586.584 1591.23 590.82 1591.23 Q593.274 1591.23 595.565 1590.63 Q597.88 1590.03 600.149 1588.83 L600.149 1592.85 Q597.857 1593.83 595.45 1594.33 Q593.042 1594.84 590.565 1594.84 Q584.362 1594.84 580.727 1591.23 Q577.116 1587.62 577.116 1581.46 Q577.116 1575.1 580.542 1571.37 Q583.991 1567.62 589.825 1567.62 Q595.056 1567.62 598.088 1571 Q601.144 1574.36 601.144 1580.15 M596.885 1578.9 Q596.839 1575.4 594.917 1573.32 Q593.019 1571.23 589.871 1571.23 Q586.306 1571.23 584.153 1573.25 Q582.024 1575.26 581.7 1578.92 L596.885 1578.9 Z" fill="#000000" fill-rule="nonzero" fill-opacity="1" /><path clip-path="url(#clip960)" d="M608.135 1558.15 L612.394 1558.15 L612.394 1594.17 L608.135 1594.17 L608.135 1558.15 Z" fill="#000000" fill-rule="nonzero" fill-opacity="1" /><path clip-path="url(#clip960)" d="M621.306 1568.25 L625.565 1568.25 L625.565 1594.17 L621.306 1594.17 L621.306 1568.25 M621.306 1558.15 L625.565 1558.15 L625.565 1563.55 L621.306 1563.55 L621.306 1558.15 Z" fill="#000000" fill-rule="nonzero" fill-opacity="1" /><path clip-path="url(#clip960)" d="M656.028 1578.52 L656.028 1594.17 L651.769 1594.17 L651.769 1578.66 Q651.769 1574.98 650.334 1573.15 Q648.898 1571.33 646.028 1571.33 Q642.579 1571.33 640.588 1573.52 Q638.598 1575.72 638.598 1579.52 L638.598 1594.17 L634.315 1594.17 L634.315 1568.25 L638.598 1568.25 L638.598 1572.27 Q640.125 1569.94 642.185 1568.78 Q644.269 1567.62 646.977 1567.62 Q651.445 1567.62 653.736 1570.4 Q656.028 1573.15 656.028 1578.52 Z" fill="#000000" fill-rule="nonzero" fill-opacity="1" /><path clip-path="url(#clip960)" d="M681.583 1580.91 Q681.583 1576.28 679.662 1573.73 Q677.764 1571.19 674.315 1571.19 Q670.889 1571.19 668.968 1573.73 Q667.07 1576.28 667.07 1580.91 Q667.07 1585.52 668.968 1588.06 Q670.889 1590.61 674.315 1590.61 Q677.764 1590.61 679.662 1588.06 Q681.583 1585.52 681.583 1580.91 M685.843 1590.96 Q685.843 1597.58 682.903 1600.79 Q679.963 1604.03 673.898 1604.03 Q671.653 1604.03 669.662 1603.69 Q667.671 1603.36 665.796 1602.67 L665.796 1598.52 Q667.671 1599.54 669.5 1600.03 Q671.329 1600.52 673.227 1600.52 Q677.417 1600.52 679.5 1598.32 Q681.583 1596.14 681.583 1591.72 L681.583 1589.61 Q680.264 1591.9 678.204 1593.04 Q676.144 1594.17 673.273 1594.17 Q668.505 1594.17 665.588 1590.54 Q662.671 1586.9 662.671 1580.91 Q662.671 1574.89 665.588 1571.26 Q668.505 1567.62 673.273 1567.62 Q676.144 1567.62 678.204 1568.76 Q680.264 1569.89 681.583 1572.18 L681.583 1568.25 L685.843 1568.25 L685.843 1590.96 Z" fill="#000000" fill-rule="nonzero" fill-opacity="1" /><polyline clip-path="url(#clip960)" style="stroke:#e26f46; stroke-linecap:round; stroke-linejoin:round; stroke-width:8; stroke-opacity:1; fill:none" points="333.457,1628.73 494.431,1628.73 "/>
<path clip-path="url(#clip960)" d="M413.944 1605.98 L391.188 1628.73 L413.944 1651.49 L436.7 1628.73 L413.944 1605.98 Z" fill="#e26f46" fill-rule="evenodd" fill-opacity="1" stroke="#000000" stroke-opacity="1" stroke-width="5.46133"/>
<path clip-path="url(#clip960)" d="M525.936 1629.51 L525.936 1642.17 L533.436 1642.17 Q537.209 1642.17 539.015 1640.62 Q540.843 1639.05 540.843 1635.83 Q540.843 1632.59 539.015 1631.06 Q537.209 1629.51 533.436 1629.51 L525.936 1629.51 M525.936 1615.3 L525.936 1625.71 L532.857 1625.71 Q536.283 1625.71 537.95 1624.44 Q539.64 1623.14 539.64 1620.5 Q539.64 1617.89 537.95 1616.59 Q536.283 1615.3 532.857 1615.3 L525.936 1615.3 M521.26 1611.45 L533.205 1611.45 Q538.552 1611.45 541.445 1613.68 Q544.339 1615.9 544.339 1619.99 Q544.339 1623.17 542.857 1625.04 Q541.376 1626.92 538.505 1627.38 Q541.955 1628.12 543.853 1630.48 Q545.774 1632.82 545.774 1636.34 Q545.774 1640.97 542.626 1643.49 Q539.478 1646.01 533.668 1646.01 L521.26 1646.01 L521.26 1611.45 Z" fill="#000000" fill-rule="nonzero" fill-opacity="1" /><path clip-path="url(#clip960)" d="M565.38 1632.98 Q560.218 1632.98 558.228 1634.16 Q556.237 1635.34 556.237 1638.19 Q556.237 1640.46 557.718 1641.8 Q559.223 1643.12 561.792 1643.12 Q565.334 1643.12 567.464 1640.62 Q569.616 1638.1 569.616 1633.93 L569.616 1632.98 L565.38 1632.98 M573.876 1631.22 L573.876 1646.01 L569.616 1646.01 L569.616 1642.08 Q568.158 1644.44 565.982 1645.57 Q563.806 1646.68 560.658 1646.68 Q556.677 1646.68 554.316 1644.46 Q551.978 1642.22 551.978 1638.47 Q551.978 1634.09 554.894 1631.87 Q557.834 1629.65 563.644 1629.65 L569.616 1629.65 L569.616 1629.23 Q569.616 1626.29 567.672 1624.69 Q565.751 1623.07 562.255 1623.07 Q560.033 1623.07 557.927 1623.61 Q555.82 1624.14 553.876 1625.2 L553.876 1621.27 Q556.214 1620.36 558.413 1619.93 Q560.612 1619.46 562.695 1619.46 Q568.32 1619.46 571.098 1622.38 Q573.876 1625.3 573.876 1631.22 Z" fill="#000000" fill-rule="nonzero" fill-opacity="1" /><path clip-path="url(#clip960)" d="M597.672 1624.07 Q596.954 1623.65 596.098 1623.47 Q595.264 1623.26 594.246 1623.26 Q590.635 1623.26 588.69 1625.62 Q586.769 1627.96 586.769 1632.36 L586.769 1646.01 L582.487 1646.01 L582.487 1620.09 L586.769 1620.09 L586.769 1624.11 Q588.112 1621.75 590.264 1620.62 Q592.417 1619.46 595.496 1619.46 Q595.936 1619.46 596.468 1619.53 Q597.001 1619.58 597.649 1619.69 L597.672 1624.07 Z" fill="#000000" fill-rule="nonzero" fill-opacity="1" /><path clip-path="url(#clip960)" d="M622.857 1630.36 L622.857 1646.01 L618.598 1646.01 L618.598 1630.5 Q618.598 1626.82 617.162 1624.99 Q615.727 1623.17 612.857 1623.17 Q609.408 1623.17 607.417 1625.36 Q605.426 1627.56 605.426 1631.36 L605.426 1646.01 L601.144 1646.01 L601.144 1620.09 L605.426 1620.09 L605.426 1624.11 Q606.954 1621.78 609.014 1620.62 Q611.098 1619.46 613.806 1619.46 Q618.274 1619.46 620.565 1622.24 Q622.857 1624.99 622.857 1630.36 Z" fill="#000000" fill-rule="nonzero" fill-opacity="1" /><path clip-path="url(#clip960)" d="M643.135 1632.98 Q637.973 1632.98 635.982 1634.16 Q633.991 1635.34 633.991 1638.19 Q633.991 1640.46 635.473 1641.8 Q636.977 1643.12 639.547 1643.12 Q643.088 1643.12 645.218 1640.62 Q647.371 1638.1 647.371 1633.93 L647.371 1632.98 L643.135 1632.98 M651.63 1631.22 L651.63 1646.01 L647.371 1646.01 L647.371 1642.08 Q645.912 1644.44 643.736 1645.57 Q641.56 1646.68 638.412 1646.68 Q634.431 1646.68 632.07 1644.46 Q629.732 1642.22 629.732 1638.47 Q629.732 1634.09 632.648 1631.87 Q635.588 1629.65 641.398 1629.65 L647.371 1629.65 L647.371 1629.23 Q647.371 1626.29 645.426 1624.69 Q643.505 1623.07 640.01 1623.07 Q637.787 1623.07 635.681 1623.61 Q633.574 1624.14 631.63 1625.2 L631.63 1621.27 Q633.968 1620.36 636.167 1619.93 Q638.366 1619.46 640.449 1619.46 Q646.074 1619.46 648.852 1622.38 Q651.63 1625.3 651.63 1631.22 Z" fill="#000000" fill-rule="nonzero" fill-opacity="1" /><path clip-path="url(#clip960)" d="M675.426 1624.07 Q674.708 1623.65 673.852 1623.47 Q673.019 1623.26 672 1623.26 Q668.389 1623.26 666.445 1625.62 Q664.523 1627.96 664.523 1632.36 L664.523 1646.01 L660.241 1646.01 L660.241 1620.09 L664.523 1620.09 L664.523 1624.11 Q665.866 1621.75 668.019 1620.62 Q670.171 1619.46 673.25 1619.46 Q673.69 1619.46 674.222 1619.53 Q674.755 1619.58 675.403 1619.69 L675.426 1624.07 Z" fill="#000000" fill-rule="nonzero" fill-opacity="1" /><path clip-path="url(#clip960)" d="M696.12 1624.02 L696.12 1609.99 L700.38 1609.99 L700.38 1646.01 L696.12 1646.01 L696.12 1642.12 Q694.778 1644.44 692.718 1645.57 Q690.681 1646.68 687.81 1646.68 Q683.111 1646.68 680.148 1642.93 Q677.208 1639.18 677.208 1633.07 Q677.208 1626.96 680.148 1623.21 Q683.111 1619.46 687.81 1619.46 Q690.681 1619.46 692.718 1620.6 Q694.778 1621.71 696.12 1624.02 M681.607 1633.07 Q681.607 1637.77 683.528 1640.46 Q685.472 1643.12 688.852 1643.12 Q692.232 1643.12 694.176 1640.46 Q696.12 1637.77 696.12 1633.07 Q696.12 1628.37 694.176 1625.71 Q692.232 1623.03 688.852 1623.03 Q685.472 1623.03 683.528 1625.71 Q681.607 1628.37 681.607 1633.07 Z" fill="#000000" fill-rule="nonzero" fill-opacity="1" /></svg>
