<?xml version="1.0" encoding="utf-8"?>
<svg xmlns="http://www.w3.org/2000/svg" xmlns:xlink="http://www.w3.org/1999/xlink" width="672" height="480" viewBox="0 0 2688 1920">
<defs>
  <clipPath id="clip080">
    <rect x="0" y="0" width="2688" height="1920"/>
  </clipPath>
</defs>
<path clip-path="url(#clip080)" d="M0 1920 L2688 1920 L2688 -4.26326e-14 L0 -4.26326e-14  Z" fill="#ffffff" fill-rule="evenodd" fill-opacity="1"/>
<defs>
  <clipPath id="clip081">
    <rect x="255" y="127" width="2386" height="1607"/>
  </clipPath>
</defs>
<path clip-path="url(#clip080)" d="M255.816 1734.12 L2640.76 1734.12 L2640.76 127.792 L255.816 127.792  Z" fill="#ffffff" fill-rule="evenodd" fill-opacity="1"/>
<polyline clip-path="url(#clip081)" style="stroke:#000000; stroke-linecap:round; stroke-linejoin:round; stroke-width:2; stroke-opacity:0.1; fill:none" points="277.397,1734.12 277.397,127.792 "/>
<polyline clip-path="url(#clip081)" style="stroke:#000000; stroke-linecap:round; stroke-linejoin:round; stroke-width:2; stroke-opacity:0.1; fill:none" points="851.362,1734.12 851.362,127.792 "/>
<polyline clip-path="url(#clip081)" style="stroke:#000000; stroke-linecap:round; stroke-linejoin:round; stroke-width:2; stroke-opacity:0.1; fill:none" points="1425.33,1734.12 1425.33,127.792 "/>
<polyline clip-path="url(#clip081)" style="stroke:#000000; stroke-linecap:round; stroke-linejoin:round; stroke-width:2; stroke-opacity:0.1; fill:none" points="1999.29,1734.12 1999.29,127.792 "/>
<polyline clip-path="url(#clip081)" style="stroke:#000000; stroke-linecap:round; stroke-linejoin:round; stroke-width:2; stroke-opacity:0.1; fill:none" points="2573.26,1734.12 2573.26,127.792 "/>
<polyline clip-path="url(#clip081)" style="stroke:#000000; stroke-linecap:round; stroke-linejoin:round; stroke-width:2; stroke-opacity:0.1; fill:none" points="255.816,1691.69 2640.76,1691.69 "/>
<polyline clip-path="url(#clip081)" style="stroke:#000000; stroke-linecap:round; stroke-linejoin:round; stroke-width:2; stroke-opacity:0.1; fill:none" points="255.816,1312.07 2640.76,1312.07 "/>
<polyline clip-path="url(#clip081)" style="stroke:#000000; stroke-linecap:round; stroke-linejoin:round; stroke-width:2; stroke-opacity:0.1; fill:none" points="255.816,932.455 2640.76,932.455 "/>
<polyline clip-path="url(#clip081)" style="stroke:#000000; stroke-linecap:round; stroke-linejoin:round; stroke-width:2; stroke-opacity:0.1; fill:none" points="255.816,552.838 2640.76,552.838 "/>
<polyline clip-path="url(#clip081)" style="stroke:#000000; stroke-linecap:round; stroke-linejoin:round; stroke-width:2; stroke-opacity:0.1; fill:none" points="255.816,173.222 2640.76,173.222 "/>
<polyline clip-path="url(#clip080)" style="stroke:#000000; stroke-linecap:round; stroke-linejoin:round; stroke-width:4; stroke-opacity:1; fill:none" points="255.816,1734.12 2640.76,1734.12 "/>
<polyline clip-path="url(#clip080)" style="stroke:#000000; stroke-linecap:round; stroke-linejoin:round; stroke-width:4; stroke-opacity:1; fill:none" points="277.397,1734.12 277.397,1715.22 "/>
<polyline clip-path="url(#clip080)" style="stroke:#000000; stroke-linecap:round; stroke-linejoin:round; stroke-width:4; stroke-opacity:1; fill:none" points="851.362,1734.12 851.362,1715.22 "/>
<polyline clip-path="url(#clip080)" style="stroke:#000000; stroke-linecap:round; stroke-linejoin:round; stroke-width:4; stroke-opacity:1; fill:none" points="1425.33,1734.12 1425.33,1715.22 "/>
<polyline clip-path="url(#clip080)" style="stroke:#000000; stroke-linecap:round; stroke-linejoin:round; stroke-width:4; stroke-opacity:1; fill:none" points="1999.29,1734.12 1999.29,1715.22 "/>
<polyline clip-path="url(#clip080)" style="stroke:#000000; stroke-linecap:round; stroke-linejoin:round; stroke-width:4; stroke-opacity:1; fill:none" points="2573.26,1734.12 2573.26,1715.22 "/>
<path clip-path="url(#clip080)" d="M277.397 1767.34 Q273.786 1767.34 271.958 1770.9 Q270.152 1774.45 270.152 1781.58 Q270.152 1788.68 271.958 1792.25 Q273.786 1795.79 277.397 1795.79 Q281.032 1795.79 282.837 1792.25 Q284.666 1788.68 284.666 1781.58 Q284.666 1774.45 282.837 1770.9 Q281.032 1767.34 277.397 1767.34 M277.397 1763.64 Q283.208 1763.64 286.263 1768.24 Q289.342 1772.83 289.342 1781.58 Q289.342 1790.3 286.263 1794.91 Q283.208 1799.49 277.397 1799.49 Q271.587 1799.49 268.509 1794.91 Q265.453 1790.3 265.453 1781.58 Q265.453 1772.83 268.509 1768.24 Q271.587 1763.64 277.397 1763.64 Z" fill="#000000" fill-rule="nonzero" fill-opacity="1" /><path clip-path="url(#clip080)" d="M841.64 1764.26 L859.997 1764.26 L859.997 1768.2 L845.923 1768.2 L845.923 1776.67 Q846.941 1776.32 847.96 1776.16 Q848.978 1775.97 849.997 1775.97 Q855.784 1775.97 859.163 1779.15 Q862.543 1782.32 862.543 1787.73 Q862.543 1793.31 859.071 1796.41 Q855.599 1799.49 849.279 1799.49 Q847.103 1799.49 844.835 1799.12 Q842.589 1798.75 840.182 1798.01 L840.182 1793.31 Q842.265 1794.45 844.487 1795 Q846.71 1795.56 849.187 1795.56 Q853.191 1795.56 855.529 1793.45 Q857.867 1791.34 857.867 1787.73 Q857.867 1784.12 855.529 1782.02 Q853.191 1779.91 849.187 1779.91 Q847.312 1779.91 845.437 1780.33 Q843.585 1780.74 841.64 1781.62 L841.64 1764.26 Z" fill="#000000" fill-rule="nonzero" fill-opacity="1" /><path clip-path="url(#clip080)" d="M1400.02 1794.89 L1407.65 1794.89 L1407.65 1768.52 L1399.34 1770.19 L1399.34 1765.93 L1407.61 1764.26 L1412.28 1764.26 L1412.28 1794.89 L1419.92 1794.89 L1419.92 1798.82 L1400.02 1798.82 L1400.02 1794.89 Z" fill="#000000" fill-rule="nonzero" fill-opacity="1" /><path clip-path="url(#clip080)" d="M1439.37 1767.34 Q1435.76 1767.34 1433.93 1770.9 Q1432.12 1774.45 1432.12 1781.58 Q1432.12 1788.68 1433.93 1792.25 Q1435.76 1795.79 1439.37 1795.79 Q1443 1795.79 1444.81 1792.25 Q1446.64 1788.68 1446.64 1781.58 Q1446.64 1774.45 1444.81 1770.9 Q1443 1767.34 1439.37 1767.34 M1439.37 1763.64 Q1445.18 1763.64 1448.23 1768.24 Q1451.31 1772.83 1451.31 1781.58 Q1451.31 1790.3 1448.23 1794.91 Q1445.18 1799.49 1439.37 1799.49 Q1433.56 1799.49 1430.48 1794.91 Q1427.42 1790.3 1427.42 1781.58 Q1427.42 1772.83 1430.48 1768.24 Q1433.56 1763.64 1439.37 1763.64 Z" fill="#000000" fill-rule="nonzero" fill-opacity="1" /><path clip-path="url(#clip080)" d="M1974.48 1794.89 L1982.12 1794.89 L1982.12 1768.52 L1973.81 1770.19 L1973.81 1765.93 L1982.07 1764.26 L1986.75 1764.26 L1986.75 1794.89 L1994.39 1794.89 L1994.39 1798.82 L1974.48 1798.82 L1974.48 1794.89 Z" fill="#000000" fill-rule="nonzero" fill-opacity="1" /><path clip-path="url(#clip080)" d="M2003.88 1764.26 L2022.23 1764.26 L2022.23 1768.2 L2008.16 1768.2 L2008.16 1776.67 Q2009.18 1776.32 2010.2 1776.16 Q2011.21 1775.97 2012.23 1775.97 Q2018.02 1775.97 2021.4 1779.15 Q2024.78 1782.32 2024.78 1787.73 Q2024.78 1793.31 2021.31 1796.41 Q2017.83 1799.49 2011.51 1799.49 Q2009.34 1799.49 2007.07 1799.12 Q2004.82 1798.75 2002.42 1798.01 L2002.42 1793.31 Q2004.5 1794.45 2006.72 1795 Q2008.95 1795.56 2011.42 1795.56 Q2015.43 1795.56 2017.76 1793.45 Q2020.1 1791.34 2020.1 1787.73 Q2020.1 1784.12 2017.76 1782.02 Q2015.43 1779.91 2011.42 1779.91 Q2009.55 1779.91 2007.67 1780.33 Q2005.82 1780.74 2003.88 1781.62 L2003.88 1764.26 Z" fill="#000000" fill-rule="nonzero" fill-opacity="1" /><path clip-path="url(#clip080)" d="M2552.03 1794.89 L2568.35 1794.89 L2568.35 1798.82 L2546.41 1798.82 L2546.41 1794.89 Q2549.07 1792.13 2553.65 1787.5 Q2558.26 1782.85 2559.44 1781.51 Q2561.68 1778.98 2562.56 1777.25 Q2563.47 1775.49 2563.47 1773.8 Q2563.47 1771.04 2561.52 1769.31 Q2559.6 1767.57 2556.5 1767.57 Q2554.3 1767.57 2551.85 1768.34 Q2549.42 1769.1 2546.64 1770.65 L2546.64 1765.93 Q2549.46 1764.79 2551.92 1764.21 Q2554.37 1763.64 2556.41 1763.64 Q2561.78 1763.64 2564.97 1766.32 Q2568.17 1769.01 2568.17 1773.5 Q2568.17 1775.63 2567.35 1777.55 Q2566.57 1779.45 2564.46 1782.04 Q2563.88 1782.71 2560.78 1785.93 Q2557.68 1789.12 2552.03 1794.89 Z" fill="#000000" fill-rule="nonzero" fill-opacity="1" /><path clip-path="url(#clip080)" d="M2588.16 1767.34 Q2584.55 1767.34 2582.73 1770.9 Q2580.92 1774.45 2580.92 1781.58 Q2580.92 1788.68 2582.73 1792.25 Q2584.55 1795.79 2588.16 1795.79 Q2591.8 1795.79 2593.6 1792.25 Q2595.43 1788.68 2595.43 1781.58 Q2595.43 1774.45 2593.6 1770.9 Q2591.8 1767.34 2588.16 1767.34 M2588.16 1763.64 Q2593.98 1763.64 2597.03 1768.24 Q2600.11 1772.83 2600.11 1781.58 Q2600.11 1790.3 2597.03 1794.91 Q2593.98 1799.49 2588.16 1799.49 Q2582.35 1799.49 2579.28 1794.91 Q2576.22 1790.3 2576.22 1781.58 Q2576.22 1772.83 2579.28 1768.24 Q2582.35 1763.64 2588.16 1763.64 Z" fill="#000000" fill-rule="nonzero" fill-opacity="1" /><path clip-path="url(#clip080)" d="M1262.77 1861.02 Q1264.84 1861.72 1266.78 1864.01 Q1268.76 1866.3 1270.73 1870.31 L1277.26 1883.3 L1270.35 1883.3 L1264.27 1871.11 Q1261.91 1866.34 1259.69 1864.78 Q1257.49 1863.22 1253.67 1863.22 L1246.67 1863.22 L1246.67 1883.3 L1240.24 1883.3 L1240.24 1835.78 L1254.75 1835.78 Q1262.9 1835.78 1266.91 1839.19 Q1270.92 1842.59 1270.92 1849.47 Q1270.92 1853.96 1268.82 1856.92 Q1266.75 1859.88 1262.77 1861.02 M1246.67 1841.06 L1246.67 1857.93 L1254.75 1857.93 Q1259.4 1857.93 1261.75 1855.8 Q1264.14 1853.64 1264.14 1849.47 Q1264.14 1845.3 1261.75 1843.2 Q1259.4 1841.06 1254.75 1841.06 L1246.67 1841.06 Z" fill="#000000" fill-rule="nonzero" fill-opacity="1" /><path clip-path="url(#clip080)" d="M1297.28 1861.75 Q1295.68 1859.02 1292.47 1859.02 Q1289.25 1859.02 1287.66 1861.75 Q1286.04 1864.49 1286.04 1869.96 Q1286.04 1875.47 1287.66 1878.21 Q1289.25 1880.95 1292.47 1880.95 Q1295.68 1880.95 1297.28 1878.21 Q1298.9 1875.47 1298.9 1869.96 Q1298.9 1864.49 1297.28 1861.75 M1292.47 1856.18 Q1297.59 1856.18 1300.3 1859.72 Q1303 1863.25 1303 1869.96 Q1303 1876.71 1300.3 1880.25 Q1297.59 1883.78 1292.47 1883.78 Q1287.31 1883.78 1284.61 1880.25 Q1281.9 1876.71 1281.9 1869.96 Q1281.9 1863.25 1284.61 1859.72 Q1287.31 1856.18 1292.47 1856.18 Z" fill="#000000" fill-rule="nonzero" fill-opacity="1" /><path clip-path="url(#clip080)" d="M1332.89 1853.7 L1373.7 1853.7 L1373.7 1859.05 L1332.89 1859.05 L1332.89 1853.7 M1332.89 1866.69 L1373.7 1866.69 L1373.7 1872.1 L1332.89 1872.1 L1332.89 1866.69 Z" fill="#000000" fill-rule="nonzero" fill-opacity="1" /><path clip-path="url(#clip080)" d="M1424.94 1876.81 Q1426.09 1878.34 1429.52 1878.34 L1432.36 1878.34 L1432.36 1883.3 L1428.82 1883.3 Q1423.09 1883.3 1420.48 1880.25 Q1417.87 1877.13 1417.87 1870.38 L1417.87 1853.51 L1404.51 1853.51 L1404.51 1847.65 L1437.38 1847.65 L1437.38 1853.51 L1423.86 1853.51 L1423.86 1870.73 Q1423.86 1875.34 1424.94 1876.81 Z" fill="#000000" fill-rule="nonzero" fill-opacity="1" /><path clip-path="url(#clip080)" d="M1460.78 1833.84 Q1456.51 1841.16 1454.44 1848.32 Q1452.38 1855.48 1452.38 1862.84 Q1452.38 1870.19 1454.44 1877.41 Q1456.55 1884.61 1460.78 1891.89 L1455.69 1891.89 Q1450.91 1884.41 1448.52 1877.19 Q1446.17 1869.96 1446.17 1862.84 Q1446.17 1855.74 1448.52 1848.54 Q1450.88 1841.35 1455.69 1833.84 L1460.78 1833.84 Z" fill="#000000" fill-rule="nonzero" fill-opacity="1" /><path clip-path="url(#clip080)" d="M1501.77 1861.78 L1501.77 1883.3 L1495.92 1883.3 L1495.92 1861.98 Q1495.92 1856.92 1493.94 1854.4 Q1491.97 1851.89 1488.02 1851.89 Q1483.28 1851.89 1480.54 1854.91 Q1477.81 1857.93 1477.81 1863.15 L1477.81 1883.3 L1471.92 1883.3 L1471.92 1847.65 L1477.81 1847.65 L1477.81 1853.19 Q1479.91 1849.98 1482.74 1848.39 Q1485.61 1846.79 1489.33 1846.79 Q1495.47 1846.79 1498.62 1850.61 Q1501.77 1854.4 1501.77 1861.78 Z" fill="#000000" fill-rule="nonzero" fill-opacity="1" /><path clip-path="url(#clip080)" d="M1510.49 1862.84 L1527.65 1862.84 L1527.65 1868.06 L1510.49 1868.06 L1510.49 1862.84 Z" fill="#000000" fill-rule="nonzero" fill-opacity="1" /><path clip-path="url(#clip080)" d="M1543.34 1877.89 L1565.78 1877.89 L1565.78 1883.3 L1535.61 1883.3 L1535.61 1877.89 Q1539.27 1874.1 1545.57 1867.74 Q1551.9 1861.34 1553.53 1859.49 Q1556.61 1856.02 1557.82 1853.64 Q1559.07 1851.22 1559.07 1848.89 Q1559.07 1845.11 1556.39 1842.72 Q1553.75 1840.33 1549.48 1840.33 Q1546.46 1840.33 1543.09 1841.38 Q1539.75 1842.43 1535.93 1844.57 L1535.93 1838.07 Q1539.81 1836.51 1543.18 1835.72 Q1546.56 1834.92 1549.36 1834.92 Q1556.74 1834.92 1561.13 1838.61 Q1565.53 1842.31 1565.53 1848.48 Q1565.53 1851.41 1564.41 1854.05 Q1563.33 1856.66 1560.43 1860.23 Q1559.64 1861.15 1555.37 1865.57 Q1551.11 1869.96 1543.34 1877.89 Z" fill="#000000" fill-rule="nonzero" fill-opacity="1" /><path clip-path="url(#clip080)" d="M1577.53 1833.84 L1582.62 1833.84 Q1587.39 1841.35 1589.75 1848.54 Q1592.14 1855.74 1592.14 1862.84 Q1592.14 1869.96 1589.75 1877.19 Q1587.39 1884.41 1582.62 1891.89 L1577.53 1891.89 Q1581.76 1884.61 1583.83 1877.41 Q1585.93 1870.19 1585.93 1862.84 Q1585.93 1855.48 1583.83 1848.32 Q1581.76 1841.16 1577.53 1833.84 Z" fill="#000000" fill-rule="nonzero" fill-opacity="1" /><path clip-path="url(#clip080)" d="M1614.29 1835.78 L1619.7 1835.78 L1603.15 1889.35 L1597.74 1889.35 L1614.29 1835.78 Z" fill="#000000" fill-rule="nonzero" fill-opacity="1" /><path clip-path="url(#clip080)" d="M1631.19 1853.25 L1638.99 1875.28 L1650.13 1847.65 L1656.33 1847.65 L1641.91 1883.3 L1641.91 1896.86 L1636.06 1896.86 L1636.06 1883.3 L1626.7 1856.69 Q1625.3 1852.68 1622.28 1852.68 L1620.72 1852.68 L1620.72 1847.65 L1622.95 1847.65 Q1629.22 1847.65 1631.19 1853.25 Z" fill="#000000" fill-rule="nonzero" fill-opacity="1" /><polyline clip-path="url(#clip080)" style="stroke:#000000; stroke-linecap:round; stroke-linejoin:round; stroke-width:4; stroke-opacity:1; fill:none" points="255.816,1734.12 255.816,127.792 "/>
<polyline clip-path="url(#clip080)" style="stroke:#000000; stroke-linecap:round; stroke-linejoin:round; stroke-width:4; stroke-opacity:1; fill:none" points="255.816,1691.69 274.714,1691.69 "/>
<polyline clip-path="url(#clip080)" style="stroke:#000000; stroke-linecap:round; stroke-linejoin:round; stroke-width:4; stroke-opacity:1; fill:none" points="255.816,1312.07 274.714,1312.07 "/>
<polyline clip-path="url(#clip080)" style="stroke:#000000; stroke-linecap:round; stroke-linejoin:round; stroke-width:4; stroke-opacity:1; fill:none" points="255.816,932.455 274.714,932.455 "/>
<polyline clip-path="url(#clip080)" style="stroke:#000000; stroke-linecap:round; stroke-linejoin:round; stroke-width:4; stroke-opacity:1; fill:none" points="255.816,552.838 274.714,552.838 "/>
<polyline clip-path="url(#clip080)" style="stroke:#000000; stroke-linecap:round; stroke-linejoin:round; stroke-width:4; stroke-opacity:1; fill:none" points="255.816,173.222 274.714,173.222 "/>
<path clip-path="url(#clip080)" d="M128.159 1677.49 Q124.548 1677.49 122.719 1681.05 Q120.913 1684.59 120.913 1691.72 Q120.913 1698.83 122.719 1702.39 Q124.548 1705.94 128.159 1705.94 Q131.793 1705.94 133.599 1702.39 Q135.427 1698.83 135.427 1691.72 Q135.427 1684.59 133.599 1681.05 Q131.793 1677.49 128.159 1677.49 M128.159 1673.78 Q133.969 1673.78 137.025 1678.39 Q140.103 1682.97 140.103 1691.72 Q140.103 1700.45 137.025 1705.06 Q133.969 1709.64 128.159 1709.64 Q122.349 1709.64 119.27 1705.06 Q116.214 1700.45 116.214 1691.72 Q116.214 1682.97 119.27 1678.39 Q122.349 1673.78 128.159 1673.78 Z" fill="#000000" fill-rule="nonzero" fill-opacity="1" /><path clip-path="url(#clip080)" d="M148.321 1703.09 L153.205 1703.09 L153.205 1708.97 L148.321 1708.97 L148.321 1703.09 Z" fill="#000000" fill-rule="nonzero" fill-opacity="1" /><path clip-path="url(#clip080)" d="M173.39 1677.49 Q169.779 1677.49 167.95 1681.05 Q166.145 1684.59 166.145 1691.72 Q166.145 1698.83 167.95 1702.39 Q169.779 1705.94 173.39 1705.94 Q177.024 1705.94 178.83 1702.39 Q180.659 1698.83 180.659 1691.72 Q180.659 1684.59 178.83 1681.05 Q177.024 1677.49 173.39 1677.49 M173.39 1673.78 Q179.2 1673.78 182.256 1678.39 Q185.334 1682.97 185.334 1691.72 Q185.334 1700.45 182.256 1705.06 Q179.2 1709.64 173.39 1709.64 Q167.58 1709.64 164.501 1705.06 Q161.446 1700.45 161.446 1691.72 Q161.446 1682.97 164.501 1678.39 Q167.58 1673.78 173.39 1673.78 Z" fill="#000000" fill-rule="nonzero" fill-opacity="1" /><path clip-path="url(#clip080)" d="M203.552 1677.49 Q199.941 1677.49 198.112 1681.05 Q196.307 1684.59 196.307 1691.72 Q196.307 1698.83 198.112 1702.39 Q199.941 1705.94 203.552 1705.94 Q207.186 1705.94 208.992 1702.39 Q210.82 1698.83 210.82 1691.72 Q210.82 1684.59 208.992 1681.05 Q207.186 1677.49 203.552 1677.49 M203.552 1673.78 Q209.362 1673.78 212.418 1678.39 Q215.496 1682.97 215.496 1691.72 Q215.496 1700.45 212.418 1705.06 Q209.362 1709.64 203.552 1709.64 Q197.742 1709.64 194.663 1705.06 Q191.608 1700.45 191.608 1691.72 Q191.608 1682.97 194.663 1678.39 Q197.742 1673.78 203.552 1673.78 Z" fill="#000000" fill-rule="nonzero" fill-opacity="1" /><path clip-path="url(#clip080)" d="M129.154 1297.87 Q125.543 1297.87 123.714 1301.43 Q121.909 1304.98 121.909 1312.11 Q121.909 1319.21 123.714 1322.78 Q125.543 1326.32 129.154 1326.32 Q132.788 1326.32 134.594 1322.78 Q136.423 1319.21 136.423 1312.11 Q136.423 1304.98 134.594 1301.43 Q132.788 1297.87 129.154 1297.87 M129.154 1294.17 Q134.964 1294.17 138.02 1298.77 Q141.099 1303.36 141.099 1312.11 Q141.099 1320.83 138.02 1325.44 Q134.964 1330.02 129.154 1330.02 Q123.344 1330.02 120.265 1325.44 Q117.21 1320.83 117.21 1312.11 Q117.21 1303.36 120.265 1298.77 Q123.344 1294.17 129.154 1294.17 Z" fill="#000000" fill-rule="nonzero" fill-opacity="1" /><path clip-path="url(#clip080)" d="M149.316 1323.47 L154.2 1323.47 L154.2 1329.35 L149.316 1329.35 L149.316 1323.47 Z" fill="#000000" fill-rule="nonzero" fill-opacity="1" /><path clip-path="url(#clip080)" d="M168.413 1325.42 L184.733 1325.42 L184.733 1329.35 L162.788 1329.35 L162.788 1325.42 Q165.45 1322.66 170.034 1318.03 Q174.64 1313.38 175.821 1312.04 Q178.066 1309.51 178.946 1307.78 Q179.848 1306.02 179.848 1304.33 Q179.848 1301.57 177.904 1299.84 Q175.983 1298.1 172.881 1298.1 Q170.682 1298.1 168.228 1298.87 Q165.798 1299.63 163.02 1301.18 L163.02 1296.46 Q165.844 1295.32 168.297 1294.75 Q170.751 1294.17 172.788 1294.17 Q178.159 1294.17 181.353 1296.85 Q184.547 1299.54 184.547 1304.03 Q184.547 1306.16 183.737 1308.08 Q182.95 1309.98 180.844 1312.57 Q180.265 1313.24 177.163 1316.46 Q174.061 1319.65 168.413 1325.42 Z" fill="#000000" fill-rule="nonzero" fill-opacity="1" /><path clip-path="url(#clip080)" d="M194.594 1294.79 L212.95 1294.79 L212.95 1298.73 L198.876 1298.73 L198.876 1307.2 Q199.895 1306.85 200.913 1306.69 Q201.932 1306.5 202.95 1306.5 Q208.737 1306.5 212.117 1309.68 Q215.496 1312.85 215.496 1318.26 Q215.496 1323.84 212.024 1326.94 Q208.552 1330.02 202.233 1330.02 Q200.057 1330.02 197.788 1329.65 Q195.543 1329.28 193.135 1328.54 L193.135 1323.84 Q195.219 1324.98 197.441 1325.53 Q199.663 1326.09 202.14 1326.09 Q206.145 1326.09 208.482 1323.98 Q210.82 1321.87 210.82 1318.26 Q210.82 1314.65 208.482 1312.55 Q206.145 1310.44 202.14 1310.44 Q200.265 1310.44 198.39 1310.86 Q196.538 1311.27 194.594 1312.15 L194.594 1294.79 Z" fill="#000000" fill-rule="nonzero" fill-opacity="1" /><path clip-path="url(#clip080)" d="M128.159 918.253 Q124.548 918.253 122.719 921.818 Q120.913 925.36 120.913 932.49 Q120.913 939.596 122.719 943.161 Q124.548 946.702 128.159 946.702 Q131.793 946.702 133.599 943.161 Q135.427 939.596 135.427 932.49 Q135.427 925.36 133.599 921.818 Q131.793 918.253 128.159 918.253 M128.159 914.55 Q133.969 914.55 137.025 919.156 Q140.103 923.74 140.103 932.49 Q140.103 941.216 137.025 945.823 Q133.969 950.406 128.159 950.406 Q122.349 950.406 119.27 945.823 Q116.214 941.216 116.214 932.49 Q116.214 923.74 119.27 919.156 Q122.349 914.55 128.159 914.55 Z" fill="#000000" fill-rule="nonzero" fill-opacity="1" /><path clip-path="url(#clip080)" d="M148.321 943.855 L153.205 943.855 L153.205 949.735 L148.321 949.735 L148.321 943.855 Z" fill="#000000" fill-rule="nonzero" fill-opacity="1" /><path clip-path="url(#clip080)" d="M163.436 915.175 L181.793 915.175 L181.793 919.11 L167.719 919.11 L167.719 927.582 Q168.737 927.235 169.756 927.073 Q170.774 926.888 171.793 926.888 Q177.58 926.888 180.959 930.059 Q184.339 933.23 184.339 938.647 Q184.339 944.226 180.867 947.327 Q177.395 950.406 171.075 950.406 Q168.899 950.406 166.631 950.036 Q164.385 949.665 161.978 948.925 L161.978 944.226 Q164.061 945.36 166.284 945.915 Q168.506 946.471 170.983 946.471 Q174.987 946.471 177.325 944.364 Q179.663 942.258 179.663 938.647 Q179.663 935.036 177.325 932.929 Q174.987 930.823 170.983 930.823 Q169.108 930.823 167.233 931.24 Q165.381 931.656 163.436 932.536 L163.436 915.175 Z" fill="#000000" fill-rule="nonzero" fill-opacity="1" /><path clip-path="url(#clip080)" d="M203.552 918.253 Q199.941 918.253 198.112 921.818 Q196.307 925.36 196.307 932.49 Q196.307 939.596 198.112 943.161 Q199.941 946.702 203.552 946.702 Q207.186 946.702 208.992 943.161 Q210.82 939.596 210.82 932.49 Q210.82 925.36 208.992 921.818 Q207.186 918.253 203.552 918.253 M203.552 914.55 Q209.362 914.55 212.418 919.156 Q215.496 923.74 215.496 932.49 Q215.496 941.216 212.418 945.823 Q209.362 950.406 203.552 950.406 Q197.742 950.406 194.663 945.823 Q191.608 941.216 191.608 932.49 Q191.608 923.74 194.663 919.156 Q197.742 914.55 203.552 914.55 Z" fill="#000000" fill-rule="nonzero" fill-opacity="1" /><path clip-path="url(#clip080)" d="M129.154 538.637 Q125.543 538.637 123.714 542.202 Q121.909 545.743 121.909 552.873 Q121.909 559.979 123.714 563.544 Q125.543 567.086 129.154 567.086 Q132.788 567.086 134.594 563.544 Q136.423 559.979 136.423 552.873 Q136.423 545.743 134.594 542.202 Q132.788 538.637 129.154 538.637 M129.154 534.933 Q134.964 534.933 138.02 539.54 Q141.099 544.123 141.099 552.873 Q141.099 561.6 138.02 566.206 Q134.964 570.789 129.154 570.789 Q123.344 570.789 120.265 566.206 Q117.21 561.6 117.21 552.873 Q117.21 544.123 120.265 539.54 Q123.344 534.933 129.154 534.933 Z" fill="#000000" fill-rule="nonzero" fill-opacity="1" /><path clip-path="url(#clip080)" d="M149.316 564.239 L154.2 564.239 L154.2 570.118 L149.316 570.118 L149.316 564.239 Z" fill="#000000" fill-rule="nonzero" fill-opacity="1" /><path clip-path="url(#clip080)" d="M163.205 535.558 L185.427 535.558 L185.427 537.549 L172.881 570.118 L167.997 570.118 L179.802 539.493 L163.205 539.493 L163.205 535.558 Z" fill="#000000" fill-rule="nonzero" fill-opacity="1" /><path clip-path="url(#clip080)" d="M194.594 535.558 L212.95 535.558 L212.95 539.493 L198.876 539.493 L198.876 547.965 Q199.895 547.618 200.913 547.456 Q201.932 547.271 202.95 547.271 Q208.737 547.271 212.117 550.442 Q215.496 553.614 215.496 559.03 Q215.496 564.609 212.024 567.711 Q208.552 570.789 202.233 570.789 Q200.057 570.789 197.788 570.419 Q195.543 570.049 193.135 569.308 L193.135 564.609 Q195.219 565.743 197.441 566.299 Q199.663 566.854 202.14 566.854 Q206.145 566.854 208.482 564.748 Q210.82 562.641 210.82 559.03 Q210.82 555.419 208.482 553.313 Q206.145 551.206 202.14 551.206 Q200.265 551.206 198.39 551.623 Q196.538 552.04 194.594 552.919 L194.594 535.558 Z" fill="#000000" fill-rule="nonzero" fill-opacity="1" /><path clip-path="url(#clip080)" d="M118.969 186.566 L126.608 186.566 L126.608 160.201 L118.298 161.867 L118.298 157.608 L126.562 155.942 L131.238 155.942 L131.238 186.566 L138.876 186.566 L138.876 190.502 L118.969 190.502 L118.969 186.566 Z" fill="#000000" fill-rule="nonzero" fill-opacity="1" /><path clip-path="url(#clip080)" d="M148.321 184.622 L153.205 184.622 L153.205 190.502 L148.321 190.502 L148.321 184.622 Z" fill="#000000" fill-rule="nonzero" fill-opacity="1" /><path clip-path="url(#clip080)" d="M173.39 159.02 Q169.779 159.02 167.95 162.585 Q166.145 166.127 166.145 173.256 Q166.145 180.363 167.95 183.927 Q169.779 187.469 173.39 187.469 Q177.024 187.469 178.83 183.927 Q180.659 180.363 180.659 173.256 Q180.659 166.127 178.83 162.585 Q177.024 159.02 173.39 159.02 M173.39 155.317 Q179.2 155.317 182.256 159.923 Q185.334 164.506 185.334 173.256 Q185.334 181.983 182.256 186.589 Q179.2 191.173 173.39 191.173 Q167.58 191.173 164.501 186.589 Q161.446 181.983 161.446 173.256 Q161.446 164.506 164.501 159.923 Q167.58 155.317 173.39 155.317 Z" fill="#000000" fill-rule="nonzero" fill-opacity="1" /><path clip-path="url(#clip080)" d="M203.552 159.02 Q199.941 159.02 198.112 162.585 Q196.307 166.127 196.307 173.256 Q196.307 180.363 198.112 183.927 Q199.941 187.469 203.552 187.469 Q207.186 187.469 208.992 183.927 Q210.82 180.363 210.82 173.256 Q210.82 166.127 208.992 162.585 Q207.186 159.02 203.552 159.02 M203.552 155.317 Q209.362 155.317 212.418 159.923 Q215.496 164.506 215.496 173.256 Q215.496 181.983 212.418 186.589 Q209.362 191.173 203.552 191.173 Q197.742 191.173 194.663 186.589 Q191.608 181.983 191.608 173.256 Q191.608 164.506 194.663 159.923 Q197.742 155.317 203.552 155.317 Z" fill="#000000" fill-rule="nonzero" fill-opacity="1" /><path clip-path="url(#clip080)" d="M39.3585 977.647 Q40.0587 975.578 42.3504 973.637 Q44.642 971.663 48.6524 969.69 L61.6384 963.165 L61.6384 970.072 L49.4481 976.151 Q44.6738 978.506 43.1142 980.734 Q41.5546 982.931 41.5546 986.75 L41.5546 993.752 L61.6384 993.752 L61.6384 1000.18 L14.1184 1000.18 L14.1184 985.668 Q14.1184 977.52 17.5241 973.509 Q20.9297 969.499 27.8047 969.499 Q32.2925 969.499 35.2526 971.6 Q38.2126 973.668 39.3585 977.647 M19.402 993.752 L36.2711 993.752 L36.2711 985.668 Q36.2711 981.021 34.1386 978.666 Q31.9743 976.278 27.8047 976.278 Q23.6352 976.278 21.5345 978.666 Q19.402 981.021 19.402 985.668 L19.402 993.752 Z" fill="#000000" fill-rule="nonzero" fill-opacity="1" /><path clip-path="url(#clip080)" d="M12.1769 941.076 Q19.4975 945.341 26.6589 947.41 Q33.8203 949.479 41.1727 949.479 Q48.5251 949.479 55.7502 947.41 Q62.9434 945.309 70.2321 941.076 L70.2321 946.169 Q62.7524 950.943 55.5274 953.33 Q48.3023 955.685 41.1727 955.685 Q34.0749 955.685 26.8817 953.33 Q19.6884 950.975 12.1769 946.169 L12.1769 941.076 Z" fill="#000000" fill-rule="nonzero" fill-opacity="1" /><path clip-path="url(#clip080)" d="M50.5303 906.16 Q49.3845 907.147 46.7109 908.706 Q50.5303 910.839 52.2172 912.717 Q54.2542 915.072 54.2542 918.732 Q54.2542 923.029 51.0395 925.862 Q47.6657 928.854 42.0957 928.854 Q36.7485 928.854 33.1201 925.862 Q29.9054 923.188 29.9054 918.669 Q29.9054 916.345 30.8603 914.627 Q31.9106 912.621 33.7248 911.253 Q35.3481 909.98 37.5442 908.706 Q33.7248 906.574 32.0379 904.696 Q30.0009 902.341 30.0009 898.68 Q30.0009 894.384 33.2156 891.551 Q36.5894 888.559 42.1594 888.559 Q47.5066 888.559 51.135 891.551 Q54.3497 894.224 54.3497 898.744 Q54.3497 901.068 53.3949 902.786 Q52.5355 904.505 50.5303 906.16 M50.0847 919.083 Q50.0847 913.831 42.4458 910.68 Q34.1068 914.722 34.1068 919.083 Q34.1068 922.265 36.3984 923.889 Q38.8492 925.639 42.0957 925.639 Q45.6605 925.639 47.8567 923.889 Q50.0847 922.106 50.0847 919.083 M34.1704 898.33 Q34.1704 903.073 41.8093 906.733 Q50.1483 902.723 50.1483 898.33 Q50.1483 895.147 47.8567 893.524 Q45.4059 891.774 42.1594 891.774 Q38.5946 891.774 36.3984 893.524 Q34.1704 895.307 34.1704 898.33 Z" fill="#000000" fill-rule="nonzero" fill-opacity="1" /><path clip-path="url(#clip080)" d="M12.1769 876.337 L12.1769 871.244 Q19.6884 866.47 26.8817 864.115 Q34.0749 861.727 41.1727 861.727 Q48.3023 861.727 55.5274 864.115 Q62.7524 866.47 70.2321 871.244 L70.2321 876.337 Q62.9434 872.104 55.7502 870.035 Q48.5251 867.934 41.1727 867.934 Q33.8203 867.934 26.6589 870.035 Q19.4975 872.104 12.1769 876.337 Z" fill="#000000" fill-rule="nonzero" fill-opacity="1" /><path clip-path="url(#clip080)" d="M663.464 18.8205 L663.464 41.5461 L673.753 41.5461 Q679.465 41.5461 682.584 38.5889 Q685.703 35.6318 685.703 30.163 Q685.703 24.7348 682.584 21.7777 Q679.465 18.8205 673.753 18.8205 L663.464 18.8205 M655.281 12.096 L673.753 12.096 Q683.921 12.096 689.106 16.714 Q694.332 21.2916 694.332 30.163 Q694.332 39.1155 689.106 43.6931 Q683.921 48.2706 673.753 48.2706 L663.464 48.2706 L663.464 72.576 L655.281 72.576 L655.281 12.096 Z" fill="#000000" fill-rule="nonzero" fill-opacity="1" /><path clip-path="url(#clip080)" d="M721.878 49.7694 Q712.844 49.7694 709.361 51.8354 Q705.877 53.9013 705.877 58.8839 Q705.877 62.8538 708.469 65.2034 Q711.103 67.5124 715.599 67.5124 Q721.797 67.5124 725.524 63.1374 Q729.291 58.7219 729.291 51.4303 L729.291 49.7694 L721.878 49.7694 M736.745 46.6907 L736.745 72.576 L729.291 72.576 L729.291 65.6895 Q726.739 69.8214 722.931 71.8063 Q719.123 73.7508 713.614 73.7508 Q706.647 73.7508 702.515 69.8619 Q698.423 65.9325 698.423 59.3701 Q698.423 51.7138 703.527 47.825 Q708.672 43.9361 718.84 43.9361 L729.291 43.9361 L729.291 43.2069 Q729.291 38.0623 725.888 35.2672 Q722.526 32.4315 716.409 32.4315 Q712.52 32.4315 708.834 33.3632 Q705.148 34.295 701.745 36.1584 L701.745 29.2718 Q705.836 27.692 709.685 26.9223 Q713.533 26.1121 717.179 26.1121 Q727.023 26.1121 731.884 31.2163 Q736.745 36.3204 736.745 46.6907 Z" fill="#000000" fill-rule="nonzero" fill-opacity="1" /><path clip-path="url(#clip080)" d="M752.098 27.2059 L759.551 27.2059 L759.551 72.576 L752.098 72.576 L752.098 27.2059 M752.098 9.54393 L759.551 9.54393 L759.551 18.9825 L752.098 18.9825 L752.098 9.54393 Z" fill="#000000" fill-rule="nonzero" fill-opacity="1" /><path clip-path="url(#clip080)" d="M801.438 34.1734 Q800.182 33.4443 798.683 33.1202 Q797.225 32.7556 795.442 32.7556 Q789.123 32.7556 785.72 36.8875 Q782.358 40.9789 782.358 48.6757 L782.358 72.576 L774.864 72.576 L774.864 27.2059 L782.358 27.2059 L782.358 34.2544 Q784.707 30.1225 788.475 28.1376 Q792.242 26.1121 797.63 26.1121 Q798.4 26.1121 799.331 26.2337 Q800.263 26.3147 801.397 26.5172 L801.438 34.1734 Z" fill="#000000" fill-rule="nonzero" fill-opacity="1" /><path clip-path="url(#clip080)" d="M800.182 46.5287 L822.016 46.5287 L822.016 53.1722 L800.182 53.1722 L800.182 46.5287 Z" fill="#000000" fill-rule="nonzero" fill-opacity="1" /><path clip-path="url(#clip080)" d="M854.505 49.7694 Q845.471 49.7694 841.987 51.8354 Q838.503 53.9013 838.503 58.8839 Q838.503 62.8538 841.096 65.2034 Q843.729 67.5124 848.226 67.5124 Q854.424 67.5124 858.15 63.1374 Q861.918 58.7219 861.918 51.4303 L861.918 49.7694 L854.505 49.7694 M869.371 46.6907 L869.371 72.576 L861.918 72.576 L861.918 65.6895 Q859.366 69.8214 855.558 71.8063 Q851.75 73.7508 846.241 73.7508 Q839.273 73.7508 835.141 69.8619 Q831.05 65.9325 831.05 59.3701 Q831.05 51.7138 836.154 47.825 Q841.299 43.9361 851.466 43.9361 L861.918 43.9361 L861.918 43.2069 Q861.918 38.0623 858.515 35.2672 Q855.153 32.4315 849.036 32.4315 Q845.147 32.4315 841.461 33.3632 Q837.774 34.295 834.372 36.1584 L834.372 29.2718 Q838.463 27.692 842.311 26.9223 Q846.16 26.1121 849.806 26.1121 Q859.649 26.1121 864.51 31.2163 Q869.371 36.3204 869.371 46.6907 Z" fill="#000000" fill-rule="nonzero" fill-opacity="1" /><path clip-path="url(#clip080)" d="M891.935 65.7705 L891.935 89.8329 L884.441 89.8329 L884.441 27.2059 L891.935 27.2059 L891.935 34.0924 Q894.284 30.0415 897.849 28.0971 Q901.455 26.1121 906.437 26.1121 Q914.701 26.1121 919.846 32.6746 Q925.031 39.2371 925.031 49.9314 Q925.031 60.6258 919.846 67.1883 Q914.701 73.7508 906.437 73.7508 Q901.455 73.7508 897.849 71.8063 Q894.284 69.8214 891.935 65.7705 M917.294 49.9314 Q917.294 41.7081 913.891 37.0496 Q910.529 32.3505 904.614 32.3505 Q898.7 32.3505 895.297 37.0496 Q891.935 41.7081 891.935 49.9314 Q891.935 58.1548 895.297 62.8538 Q898.7 67.5124 904.614 67.5124 Q910.529 67.5124 913.891 62.8538 Q917.294 58.1548 917.294 49.9314 Z" fill="#000000" fill-rule="nonzero" fill-opacity="1" /><path clip-path="url(#clip080)" d="M944.597 65.7705 L944.597 89.8329 L937.103 89.8329 L937.103 27.2059 L944.597 27.2059 L944.597 34.0924 Q946.946 30.0415 950.511 28.0971 Q954.116 26.1121 959.099 26.1121 Q967.363 26.1121 972.507 32.6746 Q977.693 39.2371 977.693 49.9314 Q977.693 60.6258 972.507 67.1883 Q967.363 73.7508 959.099 73.7508 Q954.116 73.7508 950.511 71.8063 Q946.946 69.8214 944.597 65.7705 M969.955 49.9314 Q969.955 41.7081 966.553 37.0496 Q963.19 32.3505 957.276 32.3505 Q951.362 32.3505 947.959 37.0496 Q944.597 41.7081 944.597 49.9314 Q944.597 58.1548 947.959 62.8538 Q951.362 67.5124 957.276 67.5124 Q963.19 67.5124 966.553 62.8538 Q969.955 58.1548 969.955 49.9314 Z" fill="#000000" fill-rule="nonzero" fill-opacity="1" /><path clip-path="url(#clip080)" d="M1016.34 34.1734 Q1015.08 33.4443 1013.58 33.1202 Q1012.13 32.7556 1010.34 32.7556 Q1004.02 32.7556 1000.62 36.8875 Q997.258 40.9789 997.258 48.6757 L997.258 72.576 L989.764 72.576 L989.764 27.2059 L997.258 27.2059 L997.258 34.2544 Q999.608 30.1225 1003.38 28.1376 Q1007.14 26.1121 1012.53 26.1121 Q1013.3 26.1121 1014.23 26.2337 Q1015.16 26.3147 1016.3 26.5172 L1016.34 34.1734 Z" fill="#000000" fill-rule="nonzero" fill-opacity="1" /><path clip-path="url(#clip080)" d="M1039.91 32.4315 Q1033.92 32.4315 1030.44 37.1306 Q1026.95 41.7891 1026.95 49.9314 Q1026.95 58.0738 1030.39 62.7728 Q1033.88 67.4314 1039.91 67.4314 Q1045.87 67.4314 1049.35 62.7323 Q1052.84 58.0333 1052.84 49.9314 Q1052.84 41.8701 1049.35 37.1711 Q1045.87 32.4315 1039.91 32.4315 M1039.91 26.1121 Q1049.64 26.1121 1055.19 32.4315 Q1060.74 38.7509 1060.74 49.9314 Q1060.74 61.0714 1055.19 67.4314 Q1049.64 73.7508 1039.91 73.7508 Q1030.15 73.7508 1024.6 67.4314 Q1019.09 61.0714 1019.09 49.9314 Q1019.09 38.7509 1024.6 32.4315 Q1030.15 26.1121 1039.91 26.1121 Z" fill="#000000" fill-rule="nonzero" fill-opacity="1" /><path clip-path="url(#clip080)" d="M1108.25 27.2059 L1091.85 49.2833 L1109.1 72.576 L1100.31 72.576 L1087.11 54.752 L1073.9 72.576 L1065.11 72.576 L1082.73 48.8377 L1066.61 27.2059 L1075.4 27.2059 L1087.43 43.369 L1099.46 27.2059 L1108.25 27.2059 Z" fill="#000000" fill-rule="nonzero" fill-opacity="1" /><path clip-path="url(#clip080)" d="M1119.64 27.2059 L1127.09 27.2059 L1127.09 72.576 L1119.64 72.576 L1119.64 27.2059 M1119.64 9.54393 L1127.09 9.54393 L1127.09 18.9825 L1119.64 18.9825 L1119.64 9.54393 Z" fill="#000000" fill-rule="nonzero" fill-opacity="1" /><path clip-path="url(#clip080)" d="M1178.01 35.9153 Q1180.8 30.8922 1184.69 28.5022 Q1188.58 26.1121 1193.85 26.1121 Q1200.94 26.1121 1204.79 31.0947 Q1208.63 36.0368 1208.63 45.1919 L1208.63 72.576 L1201.14 72.576 L1201.14 45.4349 Q1201.14 38.913 1198.83 35.7533 Q1196.52 32.5936 1191.78 32.5936 Q1185.99 32.5936 1182.63 36.4419 Q1179.27 40.2903 1179.27 46.9338 L1179.27 72.576 L1171.77 72.576 L1171.77 45.4349 Q1171.77 38.8725 1169.46 35.7533 Q1167.15 32.5936 1162.33 32.5936 Q1156.62 32.5936 1153.26 36.4824 Q1149.9 40.3308 1149.9 46.9338 L1149.9 72.576 L1142.4 72.576 L1142.4 27.2059 L1149.9 27.2059 L1149.9 34.2544 Q1152.45 30.082 1156.01 28.0971 Q1159.58 26.1121 1164.48 26.1121 Q1169.42 26.1121 1172.87 28.6237 Q1176.35 31.1352 1178.01 35.9153 Z" fill="#000000" fill-rule="nonzero" fill-opacity="1" /><path clip-path="url(#clip080)" d="M1244.12 49.7694 Q1235.09 49.7694 1231.6 51.8354 Q1228.12 53.9013 1228.12 58.8839 Q1228.12 62.8538 1230.71 65.2034 Q1233.35 67.5124 1237.84 67.5124 Q1244.04 67.5124 1247.77 63.1374 Q1251.53 58.7219 1251.53 51.4303 L1251.53 49.7694 L1244.12 49.7694 M1258.99 46.6907 L1258.99 72.576 L1251.53 72.576 L1251.53 65.6895 Q1248.98 69.8214 1245.17 71.8063 Q1241.37 73.7508 1235.86 73.7508 Q1228.89 73.7508 1224.76 69.8619 Q1220.67 65.9325 1220.67 59.3701 Q1220.67 51.7138 1225.77 47.825 Q1230.91 43.9361 1241.08 43.9361 L1251.53 43.9361 L1251.53 43.2069 Q1251.53 38.0623 1248.13 35.2672 Q1244.77 32.4315 1238.65 32.4315 Q1234.76 32.4315 1231.08 33.3632 Q1227.39 34.295 1223.99 36.1584 L1223.99 29.2718 Q1228.08 27.692 1231.93 26.9223 Q1235.78 26.1121 1239.42 26.1121 Q1249.27 26.1121 1254.13 31.2163 Q1258.99 36.3204 1258.99 46.6907 Z" fill="#000000" fill-rule="nonzero" fill-opacity="1" /><path clip-path="url(#clip080)" d="M1281.71 14.324 L1281.71 27.2059 L1297.07 27.2059 L1297.07 32.9987 L1281.71 32.9987 L1281.71 57.6282 Q1281.71 63.1779 1283.21 64.7578 Q1284.75 66.3376 1289.41 66.3376 L1297.07 66.3376 L1297.07 72.576 L1289.41 72.576 Q1280.78 72.576 1277.5 69.3758 Q1274.22 66.1351 1274.22 57.6282 L1274.22 32.9987 L1268.75 32.9987 L1268.75 27.2059 L1274.22 27.2059 L1274.22 14.324 L1281.71 14.324 Z" fill="#000000" fill-rule="nonzero" fill-opacity="1" /><path clip-path="url(#clip080)" d="M1306.87 27.2059 L1314.32 27.2059 L1314.32 72.576 L1306.87 72.576 L1306.87 27.2059 M1306.87 9.54393 L1314.32 9.54393 L1314.32 18.9825 L1306.87 18.9825 L1306.87 9.54393 Z" fill="#000000" fill-rule="nonzero" fill-opacity="1" /><path clip-path="url(#clip080)" d="M1347.5 32.4315 Q1341.5 32.4315 1338.02 37.1306 Q1334.54 41.7891 1334.54 49.9314 Q1334.54 58.0738 1337.98 62.7728 Q1341.46 67.4314 1347.5 67.4314 Q1353.45 67.4314 1356.94 62.7323 Q1360.42 58.0333 1360.42 49.9314 Q1360.42 41.8701 1356.94 37.1711 Q1353.45 32.4315 1347.5 32.4315 M1347.5 26.1121 Q1357.22 26.1121 1362.77 32.4315 Q1368.32 38.7509 1368.32 49.9314 Q1368.32 61.0714 1362.77 67.4314 Q1357.22 73.7508 1347.5 73.7508 Q1337.74 73.7508 1332.19 67.4314 Q1326.68 61.0714 1326.68 49.9314 Q1326.68 38.7509 1332.19 32.4315 Q1337.74 26.1121 1347.5 26.1121 Z" fill="#000000" fill-rule="nonzero" fill-opacity="1" /><path clip-path="url(#clip080)" d="M1418.39 45.1919 L1418.39 72.576 L1410.94 72.576 L1410.94 45.4349 Q1410.94 38.994 1408.43 35.7938 Q1405.91 32.5936 1400.89 32.5936 Q1394.85 32.5936 1391.37 36.4419 Q1387.89 40.2903 1387.89 46.9338 L1387.89 72.576 L1380.39 72.576 L1380.39 27.2059 L1387.89 27.2059 L1387.89 34.2544 Q1390.56 30.163 1394.17 28.1376 Q1397.81 26.1121 1402.55 26.1121 Q1410.37 26.1121 1414.38 30.9732 Q1418.39 35.7938 1418.39 45.1919 Z" fill="#000000" fill-rule="nonzero" fill-opacity="1" /><path clip-path="url(#clip080)" d="M1498.44 48.0275 L1498.44 51.6733 L1464.17 51.6733 Q1464.65 59.3701 1468.78 63.421 Q1472.96 67.4314 1480.37 67.4314 Q1484.66 67.4314 1488.67 66.3781 Q1492.72 65.3249 1496.69 63.2184 L1496.69 70.267 Q1492.68 71.9684 1488.47 72.8596 Q1484.26 73.7508 1479.92 73.7508 Q1469.07 73.7508 1462.71 67.4314 Q1456.39 61.1119 1456.39 50.3365 Q1456.39 39.1965 1462.38 32.6746 Q1468.42 26.1121 1478.63 26.1121 Q1487.78 26.1121 1493.09 32.0264 Q1498.44 37.9003 1498.44 48.0275 M1490.98 45.84 Q1490.9 39.7232 1487.54 36.0774 Q1484.22 32.4315 1478.71 32.4315 Q1472.47 32.4315 1468.7 35.9558 Q1464.98 39.4801 1464.41 45.8805 L1490.98 45.84 Z" fill="#000000" fill-rule="nonzero" fill-opacity="1" /><path clip-path="url(#clip080)" d="M1517.88 65.7705 L1517.88 89.8329 L1510.39 89.8329 L1510.39 27.2059 L1517.88 27.2059 L1517.88 34.0924 Q1520.23 30.0415 1523.79 28.0971 Q1527.4 26.1121 1532.38 26.1121 Q1540.65 26.1121 1545.79 32.6746 Q1550.98 39.2371 1550.98 49.9314 Q1550.98 60.6258 1545.79 67.1883 Q1540.65 73.7508 1532.38 73.7508 Q1527.4 73.7508 1523.79 71.8063 Q1520.23 69.8214 1517.88 65.7705 M1543.24 49.9314 Q1543.24 41.7081 1539.84 37.0496 Q1536.47 32.3505 1530.56 32.3505 Q1524.65 32.3505 1521.24 37.0496 Q1517.88 41.7081 1517.88 49.9314 Q1517.88 58.1548 1521.24 62.8538 Q1524.65 67.5124 1530.56 67.5124 Q1536.47 67.5124 1539.84 62.8538 Q1543.24 58.1548 1543.24 49.9314 Z" fill="#000000" fill-rule="nonzero" fill-opacity="1" /><path clip-path="url(#clip080)" d="M1563.33 27.2059 L1570.79 27.2059 L1570.79 72.576 L1563.33 72.576 L1563.33 27.2059 M1563.33 9.54393 L1570.79 9.54393 L1570.79 18.9825 L1563.33 18.9825 L1563.33 9.54393 Z" fill="#000000" fill-rule="nonzero" fill-opacity="1" /><path clip-path="url(#clip080)" d="M1616.24 34.0924 L1616.24 9.54393 L1623.69 9.54393 L1623.69 72.576 L1616.24 72.576 L1616.24 65.7705 Q1613.89 69.8214 1610.28 71.8063 Q1606.72 73.7508 1601.69 73.7508 Q1593.47 73.7508 1588.29 67.1883 Q1583.14 60.6258 1583.14 49.9314 Q1583.14 39.2371 1588.29 32.6746 Q1593.47 26.1121 1601.69 26.1121 Q1606.72 26.1121 1610.28 28.0971 Q1613.89 30.0415 1616.24 34.0924 M1590.84 49.9314 Q1590.84 58.1548 1594.2 62.8538 Q1597.6 67.5124 1603.52 67.5124 Q1609.43 67.5124 1612.83 62.8538 Q1616.24 58.1548 1616.24 49.9314 Q1616.24 41.7081 1612.83 37.0496 Q1609.43 32.3505 1603.52 32.3505 Q1597.6 32.3505 1594.2 37.0496 Q1590.84 41.7081 1590.84 49.9314 Z" fill="#000000" fill-rule="nonzero" fill-opacity="1" /><path clip-path="url(#clip080)" d="M1677.85 48.0275 L1677.85 51.6733 L1643.58 51.6733 Q1644.07 59.3701 1648.2 63.421 Q1652.37 67.4314 1659.78 67.4314 Q1664.08 67.4314 1668.09 66.3781 Q1672.14 65.3249 1676.11 63.2184 L1676.11 70.267 Q1672.1 71.9684 1667.89 72.8596 Q1663.67 73.7508 1659.34 73.7508 Q1648.48 73.7508 1642.12 67.4314 Q1635.8 61.1119 1635.8 50.3365 Q1635.8 39.1965 1641.8 32.6746 Q1647.83 26.1121 1658.04 26.1121 Q1667.2 26.1121 1672.5 32.0264 Q1677.85 37.9003 1677.85 48.0275 M1670.4 45.84 Q1670.32 39.7232 1666.95 36.0774 Q1663.63 32.4315 1658.12 32.4315 Q1651.88 32.4315 1648.12 35.9558 Q1644.39 39.4801 1643.82 45.8805 L1670.4 45.84 Z" fill="#000000" fill-rule="nonzero" fill-opacity="1" /><path clip-path="url(#clip080)" d="M1725.41 35.9153 Q1728.2 30.8922 1732.09 28.5022 Q1735.98 26.1121 1741.25 26.1121 Q1748.34 26.1121 1752.18 31.0947 Q1756.03 36.0368 1756.03 45.1919 L1756.03 72.576 L1748.54 72.576 L1748.54 45.4349 Q1748.54 38.913 1746.23 35.7533 Q1743.92 32.5936 1739.18 32.5936 Q1733.39 32.5936 1730.03 36.4419 Q1726.66 40.2903 1726.66 46.9338 L1726.66 72.576 L1719.17 72.576 L1719.17 45.4349 Q1719.17 38.8725 1716.86 35.7533 Q1714.55 32.5936 1709.73 32.5936 Q1704.02 32.5936 1700.66 36.4824 Q1697.3 40.3308 1697.3 46.9338 L1697.3 72.576 L1689.8 72.576 L1689.8 27.2059 L1697.3 27.2059 L1697.3 34.2544 Q1699.85 30.082 1703.41 28.0971 Q1706.98 26.1121 1711.88 26.1121 Q1716.82 26.1121 1720.26 28.6237 Q1723.75 31.1352 1725.41 35.9153 Z" fill="#000000" fill-rule="nonzero" fill-opacity="1" /><path clip-path="url(#clip080)" d="M1770.9 27.2059 L1778.35 27.2059 L1778.35 72.576 L1770.9 72.576 L1770.9 27.2059 M1770.9 9.54393 L1778.35 9.54393 L1778.35 18.9825 L1770.9 18.9825 L1770.9 9.54393 Z" fill="#000000" fill-rule="nonzero" fill-opacity="1" /><path clip-path="url(#clip080)" d="M1826.6 28.9478 L1826.6 35.9153 Q1823.44 34.1734 1820.24 33.3227 Q1817.08 32.4315 1813.84 32.4315 Q1806.59 32.4315 1802.58 37.0496 Q1798.57 41.6271 1798.57 49.9314 Q1798.57 58.2358 1802.58 62.8538 Q1806.59 67.4314 1813.84 67.4314 Q1817.08 67.4314 1820.24 66.5807 Q1823.44 65.6895 1826.6 63.9476 L1826.6 70.8341 Q1823.48 72.2924 1820.12 73.0216 Q1816.8 73.7508 1813.03 73.7508 Q1802.78 73.7508 1796.74 67.3098 Q1790.71 60.8689 1790.71 49.9314 Q1790.71 38.832 1796.79 32.472 Q1802.9 26.1121 1813.52 26.1121 Q1816.96 26.1121 1820.24 26.8413 Q1823.52 27.5299 1826.6 28.9478 Z" fill="#000000" fill-rule="nonzero" fill-opacity="1" /><path clip-path="url(#clip080)" d="M1873.31 14.324 L1873.31 27.2059 L1888.66 27.2059 L1888.66 32.9987 L1873.31 32.9987 L1873.31 57.6282 Q1873.31 63.1779 1874.81 64.7578 Q1876.35 66.3376 1881 66.3376 L1888.66 66.3376 L1888.66 72.576 L1881 72.576 Q1872.38 72.576 1869.09 69.3758 Q1865.81 66.1351 1865.81 57.6282 L1865.81 32.9987 L1860.34 32.9987 L1860.34 27.2059 L1865.81 27.2059 L1865.81 14.324 L1873.31 14.324 Z" fill="#000000" fill-rule="nonzero" fill-opacity="1" /><path clip-path="url(#clip080)" d="M1936.18 45.1919 L1936.18 72.576 L1928.72 72.576 L1928.72 45.4349 Q1928.72 38.994 1926.21 35.7938 Q1923.7 32.5936 1918.68 32.5936 Q1912.64 32.5936 1909.16 36.4419 Q1905.67 40.2903 1905.67 46.9338 L1905.67 72.576 L1898.18 72.576 L1898.18 9.54393 L1905.67 9.54393 L1905.67 34.2544 Q1908.35 30.163 1911.95 28.1376 Q1915.6 26.1121 1920.34 26.1121 Q1928.16 26.1121 1932.17 30.9732 Q1936.18 35.7938 1936.18 45.1919 Z" fill="#000000" fill-rule="nonzero" fill-opacity="1" /><path clip-path="url(#clip080)" d="M1977.33 34.1734 Q1976.08 33.4443 1974.58 33.1202 Q1973.12 32.7556 1971.34 32.7556 Q1965.02 32.7556 1961.62 36.8875 Q1958.25 40.9789 1958.25 48.6757 L1958.25 72.576 L1950.76 72.576 L1950.76 27.2059 L1958.25 27.2059 L1958.25 34.2544 Q1960.6 30.1225 1964.37 28.1376 Q1968.14 26.1121 1973.53 26.1121 Q1974.3 26.1121 1975.23 26.2337 Q1976.16 26.3147 1977.29 26.5172 L1977.33 34.1734 Z" fill="#000000" fill-rule="nonzero" fill-opacity="1" /><path clip-path="url(#clip080)" d="M2022.14 48.0275 L2022.14 51.6733 L1987.87 51.6733 Q1988.35 59.3701 1992.48 63.421 Q1996.66 67.4314 2004.07 67.4314 Q2008.36 67.4314 2012.37 66.3781 Q2016.43 65.3249 2020.4 63.2184 L2020.4 70.267 Q2016.38 71.9684 2012.17 72.8596 Q2007.96 73.7508 2003.62 73.7508 Q1992.77 73.7508 1986.41 67.4314 Q1980.09 61.1119 1980.09 50.3365 Q1980.09 39.1965 1986.08 32.6746 Q1992.12 26.1121 2002.33 26.1121 Q2011.48 26.1121 2016.79 32.0264 Q2022.14 37.9003 2022.14 48.0275 M2014.68 45.84 Q2014.6 39.7232 2011.24 36.0774 Q2007.92 32.4315 2002.41 32.4315 Q1996.17 32.4315 1992.4 35.9558 Q1988.68 39.4801 1988.11 45.8805 L2014.68 45.84 Z" fill="#000000" fill-rule="nonzero" fill-opacity="1" /><path clip-path="url(#clip080)" d="M2063.29 28.5427 L2063.29 35.5912 Q2060.13 33.9709 2056.73 33.1607 Q2053.33 32.3505 2049.68 32.3505 Q2044.13 32.3505 2041.34 34.0519 Q2038.58 35.7533 2038.58 39.156 Q2038.58 41.7486 2040.57 43.2475 Q2042.55 44.7058 2048.55 46.0426 L2051.1 46.6097 Q2059.04 48.3111 2062.36 51.4303 Q2065.72 54.509 2065.72 60.0587 Q2065.72 66.3781 2060.7 70.0644 Q2055.72 73.7508 2046.97 73.7508 Q2043.32 73.7508 2039.35 73.0216 Q2035.42 72.3329 2031.05 70.9151 L2031.05 63.2184 Q2035.18 65.3654 2039.19 66.4591 Q2043.2 67.5124 2047.13 67.5124 Q2052.4 67.5124 2055.23 65.73 Q2058.07 63.9071 2058.07 60.6258 Q2058.07 57.5877 2056 55.9673 Q2053.98 54.3469 2047.05 52.8481 L2044.46 52.2405 Q2037.53 50.7821 2034.45 47.7845 Q2031.37 44.7463 2031.37 39.4801 Q2031.37 33.0797 2035.91 29.5959 Q2040.45 26.1121 2048.79 26.1121 Q2052.92 26.1121 2056.57 26.7198 Q2060.22 27.3274 2063.29 28.5427 Z" fill="#000000" fill-rule="nonzero" fill-opacity="1" /><path clip-path="url(#clip080)" d="M2115.31 45.1919 L2115.31 72.576 L2107.85 72.576 L2107.85 45.4349 Q2107.85 38.994 2105.34 35.7938 Q2102.83 32.5936 2097.81 32.5936 Q2091.77 32.5936 2088.29 36.4419 Q2084.8 40.2903 2084.8 46.9338 L2084.8 72.576 L2077.31 72.576 L2077.31 9.54393 L2084.8 9.54393 L2084.8 34.2544 Q2087.48 30.163 2091.08 28.1376 Q2094.73 26.1121 2099.47 26.1121 Q2107.29 26.1121 2111.3 30.9732 Q2115.31 35.7938 2115.31 45.1919 Z" fill="#000000" fill-rule="nonzero" fill-opacity="1" /><path clip-path="url(#clip080)" d="M2147.76 32.4315 Q2141.76 32.4315 2138.28 37.1306 Q2134.79 41.7891 2134.79 49.9314 Q2134.79 58.0738 2138.24 62.7728 Q2141.72 67.4314 2147.76 67.4314 Q2153.71 67.4314 2157.19 62.7323 Q2160.68 58.0333 2160.68 49.9314 Q2160.68 41.8701 2157.19 37.1711 Q2153.71 32.4315 2147.76 32.4315 M2147.76 26.1121 Q2157.48 26.1121 2163.03 32.4315 Q2168.58 38.7509 2168.58 49.9314 Q2168.58 61.0714 2163.03 67.4314 Q2157.48 73.7508 2147.76 73.7508 Q2137.99 73.7508 2132.44 67.4314 Q2126.93 61.0714 2126.93 49.9314 Q2126.93 38.7509 2132.44 32.4315 Q2137.99 26.1121 2147.76 26.1121 Z" fill="#000000" fill-rule="nonzero" fill-opacity="1" /><path clip-path="url(#clip080)" d="M2180.93 9.54393 L2188.39 9.54393 L2188.39 72.576 L2180.93 72.576 L2180.93 9.54393 Z" fill="#000000" fill-rule="nonzero" fill-opacity="1" /><path clip-path="url(#clip080)" d="M2233.84 34.0924 L2233.84 9.54393 L2241.29 9.54393 L2241.29 72.576 L2233.84 72.576 L2233.84 65.7705 Q2231.49 69.8214 2227.88 71.8063 Q2224.32 73.7508 2219.29 73.7508 Q2211.07 73.7508 2205.89 67.1883 Q2200.74 60.6258 2200.74 49.9314 Q2200.74 39.2371 2205.89 32.6746 Q2211.07 26.1121 2219.29 26.1121 Q2224.32 26.1121 2227.88 28.0971 Q2231.49 30.0415 2233.84 34.0924 M2208.44 49.9314 Q2208.44 58.1548 2211.8 62.8538 Q2215.2 67.5124 2221.12 67.5124 Q2227.03 67.5124 2230.43 62.8538 Q2233.84 58.1548 2233.84 49.9314 Q2233.84 41.7081 2230.43 37.0496 Q2227.03 32.3505 2221.12 32.3505 Q2215.2 32.3505 2211.8 37.0496 Q2208.44 41.7081 2208.44 49.9314 Z" fill="#000000" fill-rule="nonzero" fill-opacity="1" /><polyline clip-path="url(#clip081)" style="stroke:#009af9; stroke-linecap:round; stroke-linejoin:round; stroke-width:8; stroke-opacity:1; fill:none" points="323.315,1688.65 381.005,1670.73 438.696,822.002 496.387,460.015 554.078,320.171 611.769,256.069 669.46,223.196 727.151,204.939 784.841,194.171 842.532,187.514 900.223,183.239 957.914,180.405 1015.6,178.475 1073.3,177.13 1130.99,176.174 1188.68,175.483 1246.37,174.974 1304.06,174.595 1361.75,174.309 1419.44,174.09 1477.13,173.922 1534.82,173.79 1592.51,173.687 1650.2,173.604 1707.89,173.539 1765.59,173.486 1823.28,173.443 1880.97,173.408 1938.66,173.38 1996.35,173.356 2054.04,173.336 2111.73,173.32 2169.42,173.306 2227.11,173.295 2284.8,173.285 2342.49,173.277 2400.19,173.27 2457.88,173.264 2515.57,173.259 2573.26,173.254 "/>
<circle clip-path="url(#clip081)" cx="323.315" cy="1688.65" r="14.4" fill="#009af9" fill-rule="evenodd" fill-opacity="1" stroke="#000000" stroke-opacity="1" stroke-width="3.84"/>
<circle clip-path="url(#clip081)" cx="381.005" cy="1670.73" r="14.4" fill="#009af9" fill-rule="evenodd" fill-opacity="1" stroke="#000000" stroke-opacity="1" stroke-width="3.84"/>
<circle clip-path="url(#clip081)" cx="438.696" cy="822.002" r="14.4" fill="#009af9" fill-rule="evenodd" fill-opacity="1" stroke="#000000" stroke-opacity="1" stroke-width="3.84"/>
<circle clip-path="url(#clip081)" cx="496.387" cy="460.015" r="14.4" fill="#009af9" fill-rule="evenodd" fill-opacity="1" stroke="#000000" stroke-opacity="1" stroke-width="3.84"/>
<circle clip-path="url(#clip081)" cx="554.078" cy="320.171" r="14.4" fill="#009af9" fill-rule="evenodd" fill-opacity="1" stroke="#000000" stroke-opacity="1" stroke-width="3.84"/>
<circle clip-path="url(#clip081)" cx="611.769" cy="256.069" r="14.4" fill="#009af9" fill-rule="evenodd" fill-opacity="1" stroke="#000000" stroke-opacity="1" stroke-width="3.84"/>
<circle clip-path="url(#clip081)" cx="669.46" cy="223.196" r="14.4" fill="#009af9" fill-rule="evenodd" fill-opacity="1" stroke="#000000" stroke-opacity="1" stroke-width="3.84"/>
<circle clip-path="url(#clip081)" cx="727.151" cy="204.939" r="14.4" fill="#009af9" fill-rule="evenodd" fill-opacity="1" stroke="#000000" stroke-opacity="1" stroke-width="3.84"/>
<circle clip-path="url(#clip081)" cx="784.841" cy="194.171" r="14.4" fill="#009af9" fill-rule="evenodd" fill-opacity="1" stroke="#000000" stroke-opacity="1" stroke-width="3.84"/>
<circle clip-path="url(#clip081)" cx="842.532" cy="187.514" r="14.4" fill="#009af9" fill-rule="evenodd" fill-opacity="1" stroke="#000000" stroke-opacity="1" stroke-width="3.84"/>
<circle clip-path="url(#clip081)" cx="900.223" cy="183.239" r="14.4" fill="#009af9" fill-rule="evenodd" fill-opacity="1" stroke="#000000" stroke-opacity="1" stroke-width="3.84"/>
<circle clip-path="url(#clip081)" cx="957.914" cy="180.405" r="14.4" fill="#009af9" fill-rule="evenodd" fill-opacity="1" stroke="#000000" stroke-opacity="1" stroke-width="3.84"/>
<circle clip-path="url(#clip081)" cx="1015.6" cy="178.475" r="14.4" fill="#009af9" fill-rule="evenodd" fill-opacity="1" stroke="#000000" stroke-opacity="1" stroke-width="3.84"/>
<circle clip-path="url(#clip081)" cx="1073.3" cy="177.13" r="14.4" fill="#009af9" fill-rule="evenodd" fill-opacity="1" stroke="#000000" stroke-opacity="1" stroke-width="3.84"/>
<circle clip-path="url(#clip081)" cx="1130.99" cy="176.174" r="14.4" fill="#009af9" fill-rule="evenodd" fill-opacity="1" stroke="#000000" stroke-opacity="1" stroke-width="3.84"/>
<circle clip-path="url(#clip081)" cx="1188.68" cy="175.483" r="14.4" fill="#009af9" fill-rule="evenodd" fill-opacity="1" stroke="#000000" stroke-opacity="1" stroke-width="3.84"/>
<circle clip-path="url(#clip081)" cx="1246.37" cy="174.974" r="14.4" fill="#009af9" fill-rule="evenodd" fill-opacity="1" stroke="#000000" stroke-opacity="1" stroke-width="3.84"/>
<circle clip-path="url(#clip081)" cx="1304.06" cy="174.595" r="14.4" fill="#009af9" fill-rule="evenodd" fill-opacity="1" stroke="#000000" stroke-opacity="1" stroke-width="3.84"/>
<circle clip-path="url(#clip081)" cx="1361.75" cy="174.309" r="14.4" fill="#009af9" fill-rule="evenodd" fill-opacity="1" stroke="#000000" stroke-opacity="1" stroke-width="3.84"/>
<circle clip-path="url(#clip081)" cx="1419.44" cy="174.09" r="14.4" fill="#009af9" fill-rule="evenodd" fill-opacity="1" stroke="#000000" stroke-opacity="1" stroke-width="3.84"/>
<circle clip-path="url(#clip081)" cx="1477.13" cy="173.922" r="14.4" fill="#009af9" fill-rule="evenodd" fill-opacity="1" stroke="#000000" stroke-opacity="1" stroke-width="3.84"/>
<circle clip-path="url(#clip081)" cx="1534.82" cy="173.79" r="14.4" fill="#009af9" fill-rule="evenodd" fill-opacity="1" stroke="#000000" stroke-opacity="1" stroke-width="3.84"/>
<circle clip-path="url(#clip081)" cx="1592.51" cy="173.687" r="14.4" fill="#009af9" fill-rule="evenodd" fill-opacity="1" stroke="#000000" stroke-opacity="1" stroke-width="3.84"/>
<circle clip-path="url(#clip081)" cx="1650.2" cy="173.604" r="14.4" fill="#009af9" fill-rule="evenodd" fill-opacity="1" stroke="#000000" stroke-opacity="1" stroke-width="3.84"/>
<circle clip-path="url(#clip081)" cx="1707.89" cy="173.539" r="14.4" fill="#009af9" fill-rule="evenodd" fill-opacity="1" stroke="#000000" stroke-opacity="1" stroke-width="3.84"/>
<circle clip-path="url(#clip081)" cx="1765.59" cy="173.486" r="14.4" fill="#009af9" fill-rule="evenodd" fill-opacity="1" stroke="#000000" stroke-opacity="1" stroke-width="3.84"/>
<circle clip-path="url(#clip081)" cx="1823.28" cy="173.443" r="14.4" fill="#009af9" fill-rule="evenodd" fill-opacity="1" stroke="#000000" stroke-opacity="1" stroke-width="3.84"/>
<circle clip-path="url(#clip081)" cx="1880.97" cy="173.408" r="14.4" fill="#009af9" fill-rule="evenodd" fill-opacity="1" stroke="#000000" stroke-opacity="1" stroke-width="3.84"/>
<circle clip-path="url(#clip081)" cx="1938.66" cy="173.38" r="14.4" fill="#009af9" fill-rule="evenodd" fill-opacity="1" stroke="#000000" stroke-opacity="1" stroke-width="3.84"/>
<circle clip-path="url(#clip081)" cx="1996.35" cy="173.356" r="14.4" fill="#009af9" fill-rule="evenodd" fill-opacity="1" stroke="#000000" stroke-opacity="1" stroke-width="3.84"/>
<circle clip-path="url(#clip081)" cx="2054.04" cy="173.336" r="14.4" fill="#009af9" fill-rule="evenodd" fill-opacity="1" stroke="#000000" stroke-opacity="1" stroke-width="3.84"/>
<circle clip-path="url(#clip081)" cx="2111.73" cy="173.32" r="14.4" fill="#009af9" fill-rule="evenodd" fill-opacity="1" stroke="#000000" stroke-opacity="1" stroke-width="3.84"/>
<circle clip-path="url(#clip081)" cx="2169.42" cy="173.306" r="14.4" fill="#009af9" fill-rule="evenodd" fill-opacity="1" stroke="#000000" stroke-opacity="1" stroke-width="3.84"/>
<circle clip-path="url(#clip081)" cx="2227.11" cy="173.295" r="14.4" fill="#009af9" fill-rule="evenodd" fill-opacity="1" stroke="#000000" stroke-opacity="1" stroke-width="3.84"/>
<circle clip-path="url(#clip081)" cx="2284.8" cy="173.285" r="14.4" fill="#009af9" fill-rule="evenodd" fill-opacity="1" stroke="#000000" stroke-opacity="1" stroke-width="3.84"/>
<circle clip-path="url(#clip081)" cx="2342.49" cy="173.277" r="14.4" fill="#009af9" fill-rule="evenodd" fill-opacity="1" stroke="#000000" stroke-opacity="1" stroke-width="3.84"/>
<circle clip-path="url(#clip081)" cx="2400.19" cy="173.27" r="14.4" fill="#009af9" fill-rule="evenodd" fill-opacity="1" stroke="#000000" stroke-opacity="1" stroke-width="3.84"/>
<circle clip-path="url(#clip081)" cx="2457.88" cy="173.264" r="14.4" fill="#009af9" fill-rule="evenodd" fill-opacity="1" stroke="#000000" stroke-opacity="1" stroke-width="3.84"/>
<circle clip-path="url(#clip081)" cx="2515.57" cy="173.259" r="14.4" fill="#009af9" fill-rule="evenodd" fill-opacity="1" stroke="#000000" stroke-opacity="1" stroke-width="3.84"/>
<circle clip-path="url(#clip081)" cx="2573.26" cy="173.254" r="14.4" fill="#009af9" fill-rule="evenodd" fill-opacity="1" stroke="#000000" stroke-opacity="1" stroke-width="3.84"/>
<polyline clip-path="url(#clip081)" style="stroke:#ff0000; stroke-linecap:round; stroke-linejoin:round; stroke-width:4; stroke-opacity:1; fill:none" stroke-dasharray="16, 10" points="392.19,3340.44 392.19,-1478.53 "/>
<path clip-path="url(#clip080)" d="M1990.75 1680.57 L2561.26 1680.57 L2561.26 1525.05 L1990.75 1525.05  Z" fill="#ffffff" fill-rule="evenodd" fill-opacity="1"/>
<polyline clip-path="url(#clip080)" style="stroke:#000000; stroke-linecap:round; stroke-linejoin:round; stroke-width:4; stroke-opacity:1; fill:none" points="1990.75,1680.57 2561.26,1680.57 2561.26,1525.05 1990.75,1525.05 1990.75,1680.57 "/>
<polyline clip-path="url(#clip080)" style="stroke:#009af9; stroke-linecap:round; stroke-linejoin:round; stroke-width:8; stroke-opacity:1; fill:none" points="2017.25,1576.89 2176.25,1576.89 "/>
<circle clip-path="url(#clip080)" cx="2096.75" cy="1576.89" r="20.48" fill="#009af9" fill-rule="evenodd" fill-opacity="1" stroke="#000000" stroke-opacity="1" stroke-width="5.46133"/>
<path clip-path="url(#clip080)" d="M2202.75 1559.61 L2222.61 1559.61 L2222.61 1563.55 L2207.42 1563.55 L2207.42 1573.73 L2221.13 1573.73 L2221.13 1577.67 L2207.42 1577.67 L2207.42 1594.17 L2202.75 1594.17 L2202.75 1559.61 Z" fill="#000000" fill-rule="nonzero" fill-opacity="1" /><path clip-path="url(#clip080)" d="M2226.38 1568.25 L2230.64 1568.25 L2230.64 1594.17 L2226.38 1594.17 L2226.38 1568.25 M2226.38 1558.15 L2230.64 1558.15 L2230.64 1563.55 L2226.38 1563.55 L2226.38 1558.15 Z" fill="#000000" fill-rule="nonzero" fill-opacity="1" /><path clip-path="url(#clip080)" d="M2261.1 1578.52 L2261.1 1594.17 L2256.84 1594.17 L2256.84 1578.66 Q2256.84 1574.98 2255.41 1573.15 Q2253.97 1571.33 2251.1 1571.33 Q2247.65 1571.33 2245.66 1573.52 Q2243.67 1575.72 2243.67 1579.52 L2243.67 1594.17 L2239.39 1594.17 L2239.39 1568.25 L2243.67 1568.25 L2243.67 1572.27 Q2245.2 1569.94 2247.26 1568.78 Q2249.34 1567.62 2252.05 1567.62 Q2256.52 1567.62 2258.81 1570.4 Q2261.1 1573.15 2261.1 1578.52 Z" fill="#000000" fill-rule="nonzero" fill-opacity="1" /><path clip-path="url(#clip080)" d="M2281.38 1581.14 Q2276.22 1581.14 2274.23 1582.32 Q2272.24 1583.5 2272.24 1586.35 Q2272.24 1588.62 2273.72 1589.96 Q2275.22 1591.28 2277.79 1591.28 Q2281.33 1591.28 2283.46 1588.78 Q2285.62 1586.26 2285.62 1582.09 L2285.62 1581.14 L2281.38 1581.14 M2289.88 1579.38 L2289.88 1594.17 L2285.62 1594.17 L2285.62 1590.24 Q2284.16 1592.6 2281.98 1593.73 Q2279.81 1594.84 2276.66 1594.84 Q2272.68 1594.84 2270.32 1592.62 Q2267.98 1590.38 2267.98 1586.63 Q2267.98 1582.25 2270.89 1580.03 Q2273.83 1577.81 2279.64 1577.81 L2285.62 1577.81 L2285.62 1577.39 Q2285.62 1574.45 2283.67 1572.85 Q2281.75 1571.23 2278.26 1571.23 Q2276.03 1571.23 2273.93 1571.77 Q2271.82 1572.3 2269.88 1573.36 L2269.88 1569.43 Q2272.21 1568.52 2274.41 1568.09 Q2276.61 1567.62 2278.7 1567.62 Q2284.32 1567.62 2287.1 1570.54 Q2289.88 1573.46 2289.88 1579.38 Z" fill="#000000" fill-rule="nonzero" fill-opacity="1" /><path clip-path="url(#clip080)" d="M2298.65 1558.15 L2302.91 1558.15 L2302.91 1594.17 L2298.65 1594.17 L2298.65 1558.15 Z" fill="#000000" fill-rule="nonzero" fill-opacity="1" /><path clip-path="url(#clip080)" d="M2343.42 1569.01 L2343.42 1573.04 Q2341.61 1572.11 2339.67 1571.65 Q2337.72 1571.19 2335.64 1571.19 Q2332.47 1571.19 2330.87 1572.16 Q2329.3 1573.13 2329.3 1575.08 Q2329.3 1576.56 2330.43 1577.41 Q2331.57 1578.25 2334.99 1579.01 L2336.45 1579.33 Q2340.99 1580.31 2342.88 1582.09 Q2344.81 1583.85 2344.81 1587.02 Q2344.81 1590.63 2341.94 1592.74 Q2339.09 1594.84 2334.09 1594.84 Q2332.01 1594.84 2329.74 1594.43 Q2327.49 1594.03 2324.99 1593.22 L2324.99 1588.83 Q2327.35 1590.05 2329.64 1590.68 Q2331.94 1591.28 2334.18 1591.28 Q2337.19 1591.28 2338.81 1590.26 Q2340.43 1589.22 2340.43 1587.34 Q2340.43 1585.61 2339.25 1584.68 Q2338.09 1583.76 2334.13 1582.9 L2332.65 1582.55 Q2328.69 1581.72 2326.94 1580.01 Q2325.18 1578.27 2325.18 1575.26 Q2325.18 1571.6 2327.77 1569.61 Q2330.36 1567.62 2335.13 1567.62 Q2337.49 1567.62 2339.57 1567.97 Q2341.66 1568.32 2343.42 1569.01 Z" fill="#000000" fill-rule="nonzero" fill-opacity="1" /><path clip-path="url(#clip080)" d="M2351.59 1568.25 L2355.85 1568.25 L2355.85 1594.17 L2351.59 1594.17 L2351.59 1568.25 M2351.59 1558.15 L2355.85 1558.15 L2355.85 1563.55 L2351.59 1563.55 L2351.59 1558.15 Z" fill="#000000" fill-rule="nonzero" fill-opacity="1" /><path clip-path="url(#clip080)" d="M2362.91 1568.25 L2383.14 1568.25 L2383.14 1572.14 L2367.12 1590.77 L2383.14 1590.77 L2383.14 1594.17 L2362.33 1594.17 L2362.33 1590.28 L2378.35 1571.65 L2362.91 1571.65 L2362.91 1568.25 Z" fill="#000000" fill-rule="nonzero" fill-opacity="1" /><path clip-path="url(#clip080)" d="M2411.82 1580.15 L2411.82 1582.23 L2392.24 1582.23 Q2392.51 1586.63 2394.88 1588.94 Q2397.26 1591.23 2401.5 1591.23 Q2403.95 1591.23 2406.24 1590.63 Q2408.56 1590.03 2410.82 1588.83 L2410.82 1592.85 Q2408.53 1593.83 2406.13 1594.33 Q2403.72 1594.84 2401.24 1594.84 Q2395.04 1594.84 2391.4 1591.23 Q2387.79 1587.62 2387.79 1581.46 Q2387.79 1575.1 2391.22 1571.37 Q2394.67 1567.62 2400.5 1567.62 Q2405.73 1567.62 2408.76 1571 Q2411.82 1574.36 2411.82 1580.15 M2407.56 1578.9 Q2407.51 1575.4 2405.59 1573.32 Q2403.69 1571.23 2400.55 1571.23 Q2396.98 1571.23 2394.83 1573.25 Q2392.7 1575.26 2392.38 1578.92 L2407.56 1578.9 Z" fill="#000000" fill-rule="nonzero" fill-opacity="1" /><path clip-path="url(#clip080)" d="M2450.45 1577.97 Q2451.96 1578.48 2453.37 1580.15 Q2454.81 1581.81 2456.24 1584.73 L2460.99 1594.17 L2455.96 1594.17 L2451.54 1585.31 Q2449.83 1581.83 2448.21 1580.7 Q2446.61 1579.57 2443.83 1579.57 L2438.74 1579.57 L2438.74 1594.17 L2434.06 1594.17 L2434.06 1559.61 L2444.62 1559.61 Q2450.55 1559.61 2453.46 1562.09 Q2456.38 1564.57 2456.38 1569.57 Q2456.38 1572.83 2454.85 1574.98 Q2453.35 1577.14 2450.45 1577.97 M2438.74 1563.46 L2438.74 1575.72 L2444.62 1575.72 Q2448 1575.72 2449.71 1574.17 Q2451.45 1572.6 2451.45 1569.57 Q2451.45 1566.53 2449.71 1565.01 Q2448 1563.46 2444.62 1563.46 L2438.74 1563.46 Z" fill="#000000" fill-rule="nonzero" fill-opacity="1" /><path clip-path="url(#clip080)" d="M2477.05 1558.2 Q2473.95 1563.52 2472.44 1568.73 Q2470.94 1573.94 2470.94 1579.29 Q2470.94 1584.64 2472.44 1589.89 Q2473.97 1595.12 2477.05 1600.42 L2473.35 1600.42 Q2469.87 1594.98 2468.14 1589.73 Q2466.43 1584.47 2466.43 1579.29 Q2466.43 1574.13 2468.14 1568.9 Q2469.85 1563.66 2473.35 1558.2 L2477.05 1558.2 Z" fill="#000000" fill-rule="nonzero" fill-opacity="1" /><path clip-path="url(#clip080)" d="M2502.44 1586.09 Q2501.73 1585.26 2500.59 1583.32 Q2499.04 1586.09 2497.68 1587.32 Q2495.96 1588.8 2493.3 1588.8 Q2490.18 1588.8 2488.12 1586.46 Q2485.94 1584.01 2485.94 1579.96 Q2485.94 1576.07 2488.12 1573.43 Q2490.06 1571.09 2493.35 1571.09 Q2495.04 1571.09 2496.29 1571.79 Q2497.74 1572.55 2498.74 1573.87 Q2499.67 1575.05 2500.59 1576.65 Q2502.14 1573.87 2503.51 1572.65 Q2505.22 1571.16 2507.88 1571.16 Q2511.01 1571.16 2513.07 1573.5 Q2515.24 1575.96 2515.24 1580.01 Q2515.24 1583.9 2513.07 1586.53 Q2511.12 1588.87 2507.84 1588.87 Q2506.15 1588.87 2504.9 1588.18 Q2503.65 1587.55 2502.44 1586.09 M2493.05 1585.77 Q2496.87 1585.77 2499.16 1580.21 Q2496.22 1574.15 2493.05 1574.15 Q2490.73 1574.15 2489.55 1575.82 Q2488.28 1577.6 2488.28 1579.96 Q2488.28 1582.55 2489.55 1584.15 Q2490.85 1585.77 2493.05 1585.77 M2508.14 1574.2 Q2504.69 1574.2 2502.03 1579.75 Q2504.94 1585.82 2508.14 1585.82 Q2510.45 1585.82 2511.63 1584.15 Q2512.91 1582.37 2512.91 1580.01 Q2512.91 1577.41 2511.63 1575.82 Q2510.34 1574.2 2508.14 1574.2 Z" fill="#000000" fill-rule="nonzero" fill-opacity="1" /><path clip-path="url(#clip080)" d="M2524.13 1558.2 L2527.84 1558.2 Q2531.31 1563.66 2533.02 1568.9 Q2534.76 1574.13 2534.76 1579.29 Q2534.76 1584.47 2533.02 1589.73 Q2531.31 1594.98 2527.84 1600.42 L2524.13 1600.42 Q2527.21 1595.12 2528.72 1589.89 Q2530.24 1584.64 2530.24 1579.29 Q2530.24 1573.94 2528.72 1568.73 Q2527.21 1563.52 2524.13 1558.2 Z" fill="#000000" fill-rule="nonzero" fill-opacity="1" /><polyline clip-path="url(#clip080)" style="stroke:#ff0000; stroke-linecap:round; stroke-linejoin:round; stroke-width:4; stroke-opacity:1; fill:none" stroke-dasharray="16, 10" points="2017.25,1628.73 2176.25,1628.73 "/>
<path clip-path="url(#clip080)" d="M2219.14 1629.81 Q2220.64 1630.32 2222.05 1631.99 Q2223.49 1633.65 2224.92 1636.57 L2229.67 1646.01 L2224.64 1646.01 L2220.22 1637.15 Q2218.51 1633.67 2216.89 1632.54 Q2215.29 1631.41 2212.51 1631.41 L2207.42 1631.41 L2207.42 1646.01 L2202.75 1646.01 L2202.75 1611.45 L2213.3 1611.45 Q2219.23 1611.45 2222.14 1613.93 Q2225.06 1616.41 2225.06 1621.41 Q2225.06 1624.67 2223.53 1626.82 Q2222.03 1628.98 2219.14 1629.81 M2207.42 1615.3 L2207.42 1627.56 L2213.3 1627.56 Q2216.68 1627.56 2218.39 1626.01 Q2220.13 1624.44 2220.13 1621.41 Q2220.13 1618.37 2218.39 1616.85 Q2216.68 1615.3 2213.3 1615.3 L2207.42 1615.3 Z" fill="#000000" fill-rule="nonzero" fill-opacity="1" /><path clip-path="url(#clip080)" d="M2244.23 1630.34 Q2243.07 1628.35 2240.73 1628.35 Q2238.39 1628.35 2237.24 1630.34 Q2236.06 1632.33 2236.06 1636.31 Q2236.06 1640.32 2237.24 1642.31 Q2238.39 1644.3 2240.73 1644.3 Q2243.07 1644.3 2244.23 1642.31 Q2245.41 1640.32 2245.41 1636.31 Q2245.41 1632.33 2244.23 1630.34 M2240.73 1626.29 Q2244.46 1626.29 2246.43 1628.86 Q2248.39 1631.43 2248.39 1636.31 Q2248.39 1641.22 2246.43 1643.79 Q2244.46 1646.36 2240.73 1646.36 Q2236.98 1646.36 2235.01 1643.79 Q2233.05 1641.22 2233.05 1636.31 Q2233.05 1631.43 2235.01 1628.86 Q2236.98 1626.29 2240.73 1626.29 Z" fill="#000000" fill-rule="nonzero" fill-opacity="1" /><path clip-path="url(#clip080)" d="M2270.13 1624.49 L2299.81 1624.49 L2299.81 1628.37 L2270.13 1628.37 L2270.13 1624.49 M2270.13 1633.93 L2299.81 1633.93 L2299.81 1637.86 L2270.13 1637.86 L2270.13 1633.93 Z" fill="#000000" fill-rule="nonzero" fill-opacity="1" /><path clip-path="url(#clip080)" d="M2325.78 1642.08 L2333.42 1642.08 L2333.42 1615.71 L2325.11 1617.38 L2325.11 1613.12 L2333.37 1611.45 L2338.05 1611.45 L2338.05 1642.08 L2345.69 1642.08 L2345.69 1646.01 L2325.78 1646.01 L2325.78 1642.08 Z" fill="#000000" fill-rule="nonzero" fill-opacity="1" /></svg>
