<?xml version="1.0" encoding="utf-8"?>
<svg xmlns="http://www.w3.org/2000/svg" xmlns:xlink="http://www.w3.org/1999/xlink" width="672" height="480" viewBox="0 0 2688 1920">
<defs>
  <clipPath id="clip120">
    <rect x="0" y="0" width="2688" height="1920"/>
  </clipPath>
</defs>
<path clip-path="url(#clip120)" d="M0 1920 L2688 1920 L2688 -4.26326e-14 L0 -4.26326e-14  Z" fill="#ffffff" fill-rule="evenodd" fill-opacity="1"/>
<defs>
  <clipPath id="clip121">
    <rect x="240" y="127" width="2401" height="1607"/>
  </clipPath>
</defs>
<path clip-path="url(#clip120)" d="M240.4 1734.12 L2640.76 1734.12 L2640.76 127.792 L240.4 127.792  Z" fill="#ffffff" fill-rule="evenodd" fill-opacity="1"/>
<polyline clip-path="url(#clip121)" style="stroke:#000000; stroke-linecap:round; stroke-linejoin:round; stroke-width:2; stroke-opacity:0.1; fill:none" points="308.334,1734.12 308.334,127.792 "/>
<polyline clip-path="url(#clip121)" style="stroke:#000000; stroke-linecap:round; stroke-linejoin:round; stroke-width:2; stroke-opacity:0.1; fill:none" points="874.456,1734.12 874.456,127.792 "/>
<polyline clip-path="url(#clip121)" style="stroke:#000000; stroke-linecap:round; stroke-linejoin:round; stroke-width:2; stroke-opacity:0.1; fill:none" points="1440.58,1734.12 1440.58,127.792 "/>
<polyline clip-path="url(#clip121)" style="stroke:#000000; stroke-linecap:round; stroke-linejoin:round; stroke-width:2; stroke-opacity:0.1; fill:none" points="2006.7,1734.12 2006.7,127.792 "/>
<polyline clip-path="url(#clip121)" style="stroke:#000000; stroke-linecap:round; stroke-linejoin:round; stroke-width:2; stroke-opacity:0.1; fill:none" points="2572.82,1734.12 2572.82,127.792 "/>
<polyline clip-path="url(#clip121)" style="stroke:#000000; stroke-linecap:round; stroke-linejoin:round; stroke-width:2; stroke-opacity:0.1; fill:none" points="240.4,1688.65 2640.76,1688.65 "/>
<polyline clip-path="url(#clip121)" style="stroke:#000000; stroke-linecap:round; stroke-linejoin:round; stroke-width:2; stroke-opacity:0.1; fill:none" points="240.4,1307.9 2640.76,1307.9 "/>
<polyline clip-path="url(#clip121)" style="stroke:#000000; stroke-linecap:round; stroke-linejoin:round; stroke-width:2; stroke-opacity:0.1; fill:none" points="240.4,927.147 2640.76,927.147 "/>
<polyline clip-path="url(#clip121)" style="stroke:#000000; stroke-linecap:round; stroke-linejoin:round; stroke-width:2; stroke-opacity:0.1; fill:none" points="240.4,546.393 2640.76,546.393 "/>
<polyline clip-path="url(#clip121)" style="stroke:#000000; stroke-linecap:round; stroke-linejoin:round; stroke-width:2; stroke-opacity:0.1; fill:none" points="240.4,165.639 2640.76,165.639 "/>
<polyline clip-path="url(#clip120)" style="stroke:#000000; stroke-linecap:round; stroke-linejoin:round; stroke-width:4; stroke-opacity:1; fill:none" points="240.4,1734.12 2640.76,1734.12 "/>
<polyline clip-path="url(#clip120)" style="stroke:#000000; stroke-linecap:round; stroke-linejoin:round; stroke-width:4; stroke-opacity:1; fill:none" points="308.334,1734.12 308.334,1715.22 "/>
<polyline clip-path="url(#clip120)" style="stroke:#000000; stroke-linecap:round; stroke-linejoin:round; stroke-width:4; stroke-opacity:1; fill:none" points="874.456,1734.12 874.456,1715.22 "/>
<polyline clip-path="url(#clip120)" style="stroke:#000000; stroke-linecap:round; stroke-linejoin:round; stroke-width:4; stroke-opacity:1; fill:none" points="1440.58,1734.12 1440.58,1715.22 "/>
<polyline clip-path="url(#clip120)" style="stroke:#000000; stroke-linecap:round; stroke-linejoin:round; stroke-width:4; stroke-opacity:1; fill:none" points="2006.7,1734.12 2006.7,1715.22 "/>
<polyline clip-path="url(#clip120)" style="stroke:#000000; stroke-linecap:round; stroke-linejoin:round; stroke-width:4; stroke-opacity:1; fill:none" points="2572.82,1734.12 2572.82,1715.22 "/>
<path clip-path="url(#clip120)" d="M308.334 1767.34 Q304.723 1767.34 302.895 1770.9 Q301.089 1774.45 301.089 1781.58 Q301.089 1788.68 302.895 1792.25 Q304.723 1795.79 308.334 1795.79 Q311.969 1795.79 313.774 1792.25 Q315.603 1788.68 315.603 1781.58 Q315.603 1774.45 313.774 1770.9 Q311.969 1767.34 308.334 1767.34 M308.334 1763.64 Q314.144 1763.64 317.2 1768.24 Q320.279 1772.83 320.279 1781.58 Q320.279 1790.3 317.2 1794.91 Q314.144 1799.49 308.334 1799.49 Q302.524 1799.49 299.446 1794.91 Q296.39 1790.3 296.39 1781.58 Q296.39 1772.83 299.446 1768.24 Q302.524 1763.64 308.334 1763.64 Z" fill="#000000" fill-rule="nonzero" fill-opacity="1" /><path clip-path="url(#clip120)" d="M853.727 1794.89 L870.046 1794.89 L870.046 1798.82 L848.102 1798.82 L848.102 1794.89 Q850.764 1792.13 855.347 1787.5 Q859.954 1782.85 861.134 1781.51 Q863.38 1778.98 864.259 1777.25 Q865.162 1775.49 865.162 1773.8 Q865.162 1771.04 863.218 1769.31 Q861.296 1767.57 858.195 1767.57 Q855.996 1767.57 853.542 1768.34 Q851.111 1769.1 848.334 1770.65 L848.334 1765.93 Q851.158 1764.79 853.611 1764.21 Q856.065 1763.64 858.102 1763.64 Q863.472 1763.64 866.667 1766.32 Q869.861 1769.01 869.861 1773.5 Q869.861 1775.63 869.051 1777.55 Q868.264 1779.45 866.158 1782.04 Q865.579 1782.71 862.477 1785.93 Q859.375 1789.12 853.727 1794.89 Z" fill="#000000" fill-rule="nonzero" fill-opacity="1" /><path clip-path="url(#clip120)" d="M879.907 1764.26 L898.264 1764.26 L898.264 1768.2 L884.19 1768.2 L884.19 1776.67 Q885.208 1776.32 886.227 1776.16 Q887.245 1775.97 888.264 1775.97 Q894.051 1775.97 897.43 1779.15 Q900.81 1782.32 900.81 1787.73 Q900.81 1793.31 897.338 1796.41 Q893.866 1799.49 887.546 1799.49 Q885.37 1799.49 883.102 1799.12 Q880.857 1798.75 878.449 1798.01 L878.449 1793.31 Q880.532 1794.45 882.755 1795 Q884.977 1795.56 887.454 1795.56 Q891.458 1795.56 893.796 1793.45 Q896.134 1791.34 896.134 1787.73 Q896.134 1784.12 893.796 1782.02 Q891.458 1779.91 887.454 1779.91 Q885.579 1779.91 883.704 1780.33 Q881.852 1780.74 879.907 1781.62 L879.907 1764.26 Z" fill="#000000" fill-rule="nonzero" fill-opacity="1" /><path clip-path="url(#clip120)" d="M1415.28 1764.26 L1433.63 1764.26 L1433.63 1768.2 L1419.56 1768.2 L1419.56 1776.67 Q1420.58 1776.32 1421.6 1776.16 Q1422.61 1775.97 1423.63 1775.97 Q1429.42 1775.97 1432.8 1779.15 Q1436.18 1782.32 1436.18 1787.73 Q1436.18 1793.31 1432.71 1796.41 Q1429.24 1799.49 1422.92 1799.49 Q1420.74 1799.49 1418.47 1799.12 Q1416.23 1798.75 1413.82 1798.01 L1413.82 1793.31 Q1415.9 1794.45 1418.12 1795 Q1420.35 1795.56 1422.82 1795.56 Q1426.83 1795.56 1429.17 1793.45 Q1431.5 1791.34 1431.5 1787.73 Q1431.5 1784.12 1429.17 1782.02 Q1426.83 1779.91 1422.82 1779.91 Q1420.95 1779.91 1419.07 1780.33 Q1417.22 1780.74 1415.28 1781.62 L1415.28 1764.26 Z" fill="#000000" fill-rule="nonzero" fill-opacity="1" /><path clip-path="url(#clip120)" d="M1455.39 1767.34 Q1451.78 1767.34 1449.95 1770.9 Q1448.15 1774.45 1448.15 1781.58 Q1448.15 1788.68 1449.95 1792.25 Q1451.78 1795.79 1455.39 1795.79 Q1459.03 1795.79 1460.83 1792.25 Q1462.66 1788.68 1462.66 1781.58 Q1462.66 1774.45 1460.83 1770.9 Q1459.03 1767.34 1455.39 1767.34 M1455.39 1763.64 Q1461.2 1763.64 1464.26 1768.24 Q1467.34 1772.83 1467.34 1781.58 Q1467.34 1790.3 1464.26 1794.91 Q1461.2 1799.49 1455.39 1799.49 Q1449.58 1799.49 1446.5 1794.91 Q1443.45 1790.3 1443.45 1781.58 Q1443.45 1772.83 1446.5 1768.24 Q1449.58 1763.64 1455.39 1763.64 Z" fill="#000000" fill-rule="nonzero" fill-opacity="1" /><path clip-path="url(#clip120)" d="M1980.55 1764.26 L2002.78 1764.26 L2002.78 1766.25 L1990.23 1798.82 L1985.35 1798.82 L1997.15 1768.2 L1980.55 1768.2 L1980.55 1764.26 Z" fill="#000000" fill-rule="nonzero" fill-opacity="1" /><path clip-path="url(#clip120)" d="M2011.94 1764.26 L2030.3 1764.26 L2030.3 1768.2 L2016.22 1768.2 L2016.22 1776.67 Q2017.24 1776.32 2018.26 1776.16 Q2019.28 1775.97 2020.3 1775.97 Q2026.09 1775.97 2029.47 1779.15 Q2032.85 1782.32 2032.85 1787.73 Q2032.85 1793.31 2029.37 1796.41 Q2025.9 1799.49 2019.58 1799.49 Q2017.41 1799.49 2015.14 1799.12 Q2012.89 1798.75 2010.48 1798.01 L2010.48 1793.31 Q2012.57 1794.45 2014.79 1795 Q2017.01 1795.56 2019.49 1795.56 Q2023.49 1795.56 2025.83 1793.45 Q2028.17 1791.34 2028.17 1787.73 Q2028.17 1784.12 2025.83 1782.02 Q2023.49 1779.91 2019.49 1779.91 Q2017.61 1779.91 2015.74 1780.33 Q2013.89 1780.74 2011.94 1781.62 L2011.94 1764.26 Z" fill="#000000" fill-rule="nonzero" fill-opacity="1" /><path clip-path="url(#clip120)" d="M2532.43 1794.89 L2540.07 1794.89 L2540.07 1768.52 L2531.76 1770.19 L2531.76 1765.93 L2540.02 1764.26 L2544.7 1764.26 L2544.7 1794.89 L2552.34 1794.89 L2552.34 1798.82 L2532.43 1798.82 L2532.43 1794.89 Z" fill="#000000" fill-rule="nonzero" fill-opacity="1" /><path clip-path="url(#clip120)" d="M2571.78 1767.34 Q2568.17 1767.34 2566.34 1770.9 Q2564.53 1774.45 2564.53 1781.58 Q2564.53 1788.68 2566.34 1792.25 Q2568.17 1795.79 2571.78 1795.79 Q2575.41 1795.79 2577.22 1792.25 Q2579.05 1788.68 2579.05 1781.58 Q2579.05 1774.45 2577.22 1770.9 Q2575.41 1767.34 2571.78 1767.34 M2571.78 1763.64 Q2577.59 1763.64 2580.65 1768.24 Q2583.72 1772.83 2583.72 1781.58 Q2583.72 1790.3 2580.65 1794.91 Q2577.59 1799.49 2571.78 1799.49 Q2565.97 1799.49 2562.89 1794.91 Q2559.84 1790.3 2559.84 1781.58 Q2559.84 1772.83 2562.89 1768.24 Q2565.97 1763.64 2571.78 1763.64 Z" fill="#000000" fill-rule="nonzero" fill-opacity="1" /><path clip-path="url(#clip120)" d="M2601.94 1767.34 Q2598.33 1767.34 2596.5 1770.9 Q2594.7 1774.45 2594.7 1781.58 Q2594.7 1788.68 2596.5 1792.25 Q2598.33 1795.79 2601.94 1795.79 Q2605.58 1795.79 2607.38 1792.25 Q2609.21 1788.68 2609.21 1781.58 Q2609.21 1774.45 2607.38 1770.9 Q2605.58 1767.34 2601.94 1767.34 M2601.94 1763.64 Q2607.75 1763.64 2610.81 1768.24 Q2613.89 1772.83 2613.89 1781.58 Q2613.89 1790.3 2610.81 1794.91 Q2607.75 1799.49 2601.94 1799.49 Q2596.13 1799.49 2593.05 1794.91 Q2590 1790.3 2590 1781.58 Q2590 1772.83 2593.05 1768.24 Q2596.13 1763.64 2601.94 1763.64 Z" fill="#000000" fill-rule="nonzero" fill-opacity="1" /><path clip-path="url(#clip120)" d="M1362.45 1835.78 L1402.65 1835.78 L1402.65 1841.19 L1385.79 1841.19 L1385.79 1883.3 L1379.32 1883.3 L1379.32 1841.19 L1362.45 1841.19 L1362.45 1835.78 Z" fill="#000000" fill-rule="nonzero" fill-opacity="1" /><path clip-path="url(#clip120)" d="M1406.6 1847.65 L1412.46 1847.65 L1412.46 1883.3 L1406.6 1883.3 L1406.6 1847.65 M1406.6 1833.78 L1412.46 1833.78 L1412.46 1841.19 L1406.6 1841.19 L1406.6 1833.78 Z" fill="#000000" fill-rule="nonzero" fill-opacity="1" /><path clip-path="url(#clip120)" d="M1452.47 1854.5 Q1454.66 1850.55 1457.72 1848.67 Q1460.77 1846.79 1464.91 1846.79 Q1470.48 1846.79 1473.5 1850.71 Q1476.53 1854.59 1476.53 1861.78 L1476.53 1883.3 L1470.64 1883.3 L1470.64 1861.98 Q1470.64 1856.85 1468.83 1854.37 Q1467.01 1851.89 1463.29 1851.89 Q1458.74 1851.89 1456.09 1854.91 Q1453.45 1857.93 1453.45 1863.15 L1453.45 1883.3 L1447.56 1883.3 L1447.56 1861.98 Q1447.56 1856.82 1445.75 1854.37 Q1443.94 1851.89 1440.15 1851.89 Q1435.66 1851.89 1433.02 1854.94 Q1430.38 1857.97 1430.38 1863.15 L1430.38 1883.3 L1424.49 1883.3 L1424.49 1847.65 L1430.38 1847.65 L1430.38 1853.19 Q1432.38 1849.91 1435.18 1848.35 Q1437.98 1846.79 1441.84 1846.79 Q1445.72 1846.79 1448.42 1848.77 Q1451.16 1850.74 1452.47 1854.5 Z" fill="#000000" fill-rule="nonzero" fill-opacity="1" /><path clip-path="url(#clip120)" d="M1518.7 1864.01 L1518.7 1866.88 L1491.77 1866.88 Q1492.16 1872.92 1495.4 1876.11 Q1498.68 1879.26 1504.51 1879.26 Q1507.88 1879.26 1511.03 1878.43 Q1514.21 1877.6 1517.33 1875.95 L1517.33 1881.49 Q1514.18 1882.82 1510.87 1883.52 Q1507.56 1884.22 1504.16 1884.22 Q1495.63 1884.22 1490.63 1879.26 Q1485.66 1874.29 1485.66 1865.83 Q1485.66 1857.07 1490.37 1851.95 Q1495.12 1846.79 1503.14 1846.79 Q1510.33 1846.79 1514.5 1851.44 Q1518.7 1856.06 1518.7 1864.01 M1512.84 1862.29 Q1512.78 1857.49 1510.14 1854.62 Q1507.53 1851.76 1503.2 1851.76 Q1498.3 1851.76 1495.34 1854.53 Q1492.41 1857.3 1491.96 1862.33 L1512.84 1862.29 Z" fill="#000000" fill-rule="nonzero" fill-opacity="1" /><polyline clip-path="url(#clip120)" style="stroke:#000000; stroke-linecap:round; stroke-linejoin:round; stroke-width:4; stroke-opacity:1; fill:none" points="240.4,1734.12 240.4,127.792 "/>
<polyline clip-path="url(#clip120)" style="stroke:#000000; stroke-linecap:round; stroke-linejoin:round; stroke-width:4; stroke-opacity:1; fill:none" points="240.4,1688.65 259.297,1688.65 "/>
<polyline clip-path="url(#clip120)" style="stroke:#000000; stroke-linecap:round; stroke-linejoin:round; stroke-width:4; stroke-opacity:1; fill:none" points="240.4,1307.9 259.297,1307.9 "/>
<polyline clip-path="url(#clip120)" style="stroke:#000000; stroke-linecap:round; stroke-linejoin:round; stroke-width:4; stroke-opacity:1; fill:none" points="240.4,927.147 259.297,927.147 "/>
<polyline clip-path="url(#clip120)" style="stroke:#000000; stroke-linecap:round; stroke-linejoin:round; stroke-width:4; stroke-opacity:1; fill:none" points="240.4,546.393 259.297,546.393 "/>
<polyline clip-path="url(#clip120)" style="stroke:#000000; stroke-linecap:round; stroke-linejoin:round; stroke-width:4; stroke-opacity:1; fill:none" points="240.4,165.639 259.297,165.639 "/>
<path clip-path="url(#clip120)" d="M188.135 1674.45 Q184.524 1674.45 182.696 1678.02 Q180.89 1681.56 180.89 1688.69 Q180.89 1695.8 182.696 1699.36 Q184.524 1702.9 188.135 1702.9 Q191.77 1702.9 193.575 1699.36 Q195.404 1695.8 195.404 1688.69 Q195.404 1681.56 193.575 1678.02 Q191.77 1674.45 188.135 1674.45 M188.135 1670.75 Q193.946 1670.75 197.001 1675.36 Q200.08 1679.94 200.08 1688.69 Q200.08 1697.42 197.001 1702.02 Q193.946 1706.61 188.135 1706.61 Q182.325 1706.61 179.247 1702.02 Q176.191 1697.42 176.191 1688.69 Q176.191 1679.94 179.247 1675.36 Q182.325 1670.75 188.135 1670.75 Z" fill="#000000" fill-rule="nonzero" fill-opacity="1" /><path clip-path="url(#clip120)" d="M148.02 1290.62 L166.376 1290.62 L166.376 1294.56 L152.302 1294.56 L152.302 1303.03 Q153.321 1302.68 154.339 1302.52 Q155.358 1302.33 156.376 1302.33 Q162.163 1302.33 165.543 1305.51 Q168.922 1308.68 168.922 1314.09 Q168.922 1319.67 165.45 1322.77 Q161.978 1325.85 155.659 1325.85 Q153.483 1325.85 151.214 1325.48 Q148.969 1325.11 146.562 1324.37 L146.562 1319.67 Q148.645 1320.81 150.867 1321.36 Q153.089 1321.92 155.566 1321.92 Q159.571 1321.92 161.909 1319.81 Q164.247 1317.7 164.247 1314.09 Q164.247 1310.48 161.909 1308.38 Q159.571 1306.27 155.566 1306.27 Q153.691 1306.27 151.816 1306.69 Q149.964 1307.1 148.02 1307.98 L148.02 1290.62 Z" fill="#000000" fill-rule="nonzero" fill-opacity="1" /><path clip-path="url(#clip120)" d="M188.135 1293.7 Q184.524 1293.7 182.696 1297.26 Q180.89 1300.81 180.89 1307.94 Q180.89 1315.04 182.696 1318.61 Q184.524 1322.15 188.135 1322.15 Q191.77 1322.15 193.575 1318.61 Q195.404 1315.04 195.404 1307.94 Q195.404 1300.81 193.575 1297.26 Q191.77 1293.7 188.135 1293.7 M188.135 1290 Q193.946 1290 197.001 1294.6 Q200.08 1299.19 200.08 1307.94 Q200.08 1316.66 197.001 1321.27 Q193.946 1325.85 188.135 1325.85 Q182.325 1325.85 179.247 1321.27 Q176.191 1316.66 176.191 1307.94 Q176.191 1299.19 179.247 1294.6 Q182.325 1290 188.135 1290 Z" fill="#000000" fill-rule="nonzero" fill-opacity="1" /><path clip-path="url(#clip120)" d="M118.622 940.492 L126.261 940.492 L126.261 914.126 L117.951 915.793 L117.951 911.534 L126.214 909.867 L130.89 909.867 L130.89 940.492 L138.529 940.492 L138.529 944.427 L118.622 944.427 L118.622 940.492 Z" fill="#000000" fill-rule="nonzero" fill-opacity="1" /><path clip-path="url(#clip120)" d="M157.973 912.946 Q154.362 912.946 152.534 916.51 Q150.728 920.052 150.728 927.182 Q150.728 934.288 152.534 937.853 Q154.362 941.395 157.973 941.395 Q161.608 941.395 163.413 937.853 Q165.242 934.288 165.242 927.182 Q165.242 920.052 163.413 916.51 Q161.608 912.946 157.973 912.946 M157.973 909.242 Q163.784 909.242 166.839 913.848 Q169.918 918.432 169.918 927.182 Q169.918 935.909 166.839 940.515 Q163.784 945.098 157.973 945.098 Q152.163 945.098 149.085 940.515 Q146.029 935.909 146.029 927.182 Q146.029 918.432 149.085 913.848 Q152.163 909.242 157.973 909.242 Z" fill="#000000" fill-rule="nonzero" fill-opacity="1" /><path clip-path="url(#clip120)" d="M188.135 912.946 Q184.524 912.946 182.696 916.51 Q180.89 920.052 180.89 927.182 Q180.89 934.288 182.696 937.853 Q184.524 941.395 188.135 941.395 Q191.77 941.395 193.575 937.853 Q195.404 934.288 195.404 927.182 Q195.404 920.052 193.575 916.51 Q191.77 912.946 188.135 912.946 M188.135 909.242 Q193.946 909.242 197.001 913.848 Q200.08 918.432 200.08 927.182 Q200.08 935.909 197.001 940.515 Q193.946 945.098 188.135 945.098 Q182.325 945.098 179.247 940.515 Q176.191 935.909 176.191 927.182 Q176.191 918.432 179.247 913.848 Q182.325 909.242 188.135 909.242 Z" fill="#000000" fill-rule="nonzero" fill-opacity="1" /><path clip-path="url(#clip120)" d="M118.622 559.738 L126.261 559.738 L126.261 533.372 L117.951 535.039 L117.951 530.78 L126.214 529.113 L130.89 529.113 L130.89 559.738 L138.529 559.738 L138.529 563.673 L118.622 563.673 L118.622 559.738 Z" fill="#000000" fill-rule="nonzero" fill-opacity="1" /><path clip-path="url(#clip120)" d="M148.02 529.113 L166.376 529.113 L166.376 533.048 L152.302 533.048 L152.302 541.52 Q153.321 541.173 154.339 541.011 Q155.358 540.826 156.376 540.826 Q162.163 540.826 165.543 543.997 Q168.922 547.169 168.922 552.585 Q168.922 558.164 165.45 561.266 Q161.978 564.344 155.659 564.344 Q153.483 564.344 151.214 563.974 Q148.969 563.604 146.562 562.863 L146.562 558.164 Q148.645 559.298 150.867 559.854 Q153.089 560.409 155.566 560.409 Q159.571 560.409 161.909 558.303 Q164.247 556.196 164.247 552.585 Q164.247 548.974 161.909 546.868 Q159.571 544.761 155.566 544.761 Q153.691 544.761 151.816 545.178 Q149.964 545.594 148.02 546.474 L148.02 529.113 Z" fill="#000000" fill-rule="nonzero" fill-opacity="1" /><path clip-path="url(#clip120)" d="M188.135 532.192 Q184.524 532.192 182.696 535.757 Q180.89 539.298 180.89 546.428 Q180.89 553.534 182.696 557.099 Q184.524 560.641 188.135 560.641 Q191.77 560.641 193.575 557.099 Q195.404 553.534 195.404 546.428 Q195.404 539.298 193.575 535.757 Q191.77 532.192 188.135 532.192 M188.135 528.488 Q193.946 528.488 197.001 533.095 Q200.08 537.678 200.08 546.428 Q200.08 555.155 197.001 559.761 Q193.946 564.344 188.135 564.344 Q182.325 564.344 179.247 559.761 Q176.191 555.155 176.191 546.428 Q176.191 537.678 179.247 533.095 Q182.325 528.488 188.135 528.488 Z" fill="#000000" fill-rule="nonzero" fill-opacity="1" /><path clip-path="url(#clip120)" d="M121.839 178.984 L138.159 178.984 L138.159 182.919 L116.214 182.919 L116.214 178.984 Q118.876 176.229 123.46 171.6 Q128.066 166.947 129.247 165.604 Q131.492 163.081 132.372 161.345 Q133.275 159.586 133.275 157.896 Q133.275 155.141 131.33 153.405 Q129.409 151.669 126.307 151.669 Q124.108 151.669 121.654 152.433 Q119.224 153.197 116.446 154.748 L116.446 150.026 Q119.27 148.891 121.724 148.313 Q124.177 147.734 126.214 147.734 Q131.585 147.734 134.779 150.419 Q137.974 153.104 137.974 157.595 Q137.974 159.725 137.163 161.646 Q136.376 163.544 134.27 166.137 Q133.691 166.808 130.589 170.026 Q127.488 173.22 121.839 178.984 Z" fill="#000000" fill-rule="nonzero" fill-opacity="1" /><path clip-path="url(#clip120)" d="M157.973 151.438 Q154.362 151.438 152.534 155.003 Q150.728 158.544 150.728 165.674 Q150.728 172.78 152.534 176.345 Q154.362 179.887 157.973 179.887 Q161.608 179.887 163.413 176.345 Q165.242 172.78 165.242 165.674 Q165.242 158.544 163.413 155.003 Q161.608 151.438 157.973 151.438 M157.973 147.734 Q163.784 147.734 166.839 152.341 Q169.918 156.924 169.918 165.674 Q169.918 174.401 166.839 179.007 Q163.784 183.59 157.973 183.59 Q152.163 183.59 149.085 179.007 Q146.029 174.401 146.029 165.674 Q146.029 156.924 149.085 152.341 Q152.163 147.734 157.973 147.734 Z" fill="#000000" fill-rule="nonzero" fill-opacity="1" /><path clip-path="url(#clip120)" d="M188.135 151.438 Q184.524 151.438 182.696 155.003 Q180.89 158.544 180.89 165.674 Q180.89 172.78 182.696 176.345 Q184.524 179.887 188.135 179.887 Q191.77 179.887 193.575 176.345 Q195.404 172.78 195.404 165.674 Q195.404 158.544 193.575 155.003 Q191.77 151.438 188.135 151.438 M188.135 147.734 Q193.946 147.734 197.001 152.341 Q200.08 156.924 200.08 165.674 Q200.08 174.401 197.001 179.007 Q193.946 183.59 188.135 183.59 Q182.325 183.59 179.247 179.007 Q176.191 174.401 176.191 165.674 Q176.191 156.924 179.247 152.341 Q182.325 147.734 188.135 147.734 Z" fill="#000000" fill-rule="nonzero" fill-opacity="1" /><path clip-path="url(#clip120)" d="M14.1184 1055.09 L14.1184 1027.78 L19.5293 1027.78 L19.5293 1048.66 L33.5338 1048.66 L33.5338 1029.81 L38.9447 1029.81 L38.9447 1048.66 L61.6384 1048.66 L61.6384 1055.09 L14.1184 1055.09 Z" fill="#000000" fill-rule="nonzero" fill-opacity="1" /><path clip-path="url(#clip120)" d="M31.465 1001.93 Q30.8921 1002.92 30.6375 1004.1 Q30.351 1005.24 30.351 1006.64 Q30.351 1011.61 33.5975 1014.28 Q36.8122 1016.92 42.8596 1016.92 L61.6384 1016.92 L61.6384 1022.81 L25.9905 1022.81 L25.9905 1016.92 L31.5287 1016.92 Q28.2821 1015.08 26.7225 1012.12 Q25.1311 1009.16 25.1311 1004.92 Q25.1311 1004.32 25.2266 1003.59 Q25.2903 1002.86 25.4494 1001.96 L31.465 1001.93 Z" fill="#000000" fill-rule="nonzero" fill-opacity="1" /><path clip-path="url(#clip120)" d="M43.719 979.589 Q43.719 986.686 45.3422 989.424 Q46.9655 992.161 50.8804 992.161 Q53.9996 992.161 55.8457 990.124 Q57.6599 988.055 57.6599 984.522 Q57.6599 979.652 54.2224 976.724 Q50.7531 973.764 45.0239 973.764 L43.719 973.764 L43.719 979.589 M41.3 967.907 L61.6384 967.907 L61.6384 973.764 L56.2276 973.764 Q59.4741 975.769 61.0337 978.761 Q62.5615 981.753 62.5615 986.082 Q62.5615 991.556 59.5059 994.803 Q56.4186 998.017 51.2623 998.017 Q45.2467 998.017 42.1912 994.007 Q39.1357 989.965 39.1357 981.976 L39.1357 973.764 L38.5628 973.764 Q34.5205 973.764 32.3244 976.438 Q30.0964 979.079 30.0964 983.885 Q30.0964 986.941 30.8284 989.837 Q31.5605 992.734 33.0246 995.407 L27.6137 995.407 Q26.3724 992.193 25.7677 989.169 Q25.1311 986.145 25.1311 983.281 Q25.1311 975.546 29.1415 971.727 Q33.1519 967.907 41.3 967.907 Z" fill="#000000" fill-rule="nonzero" fill-opacity="1" /><path clip-path="url(#clip120)" d="M27.3591 930.191 L32.8336 930.191 Q31.465 932.673 30.7966 935.188 Q30.0964 937.67 30.0964 940.217 Q30.0964 945.914 33.7248 949.065 Q37.3214 952.216 43.8463 952.216 Q50.3711 952.216 53.9996 949.065 Q57.5962 945.914 57.5962 940.217 Q57.5962 937.67 56.9278 935.188 Q56.2276 932.673 54.859 930.191 L60.2698 930.191 Q61.4156 932.641 61.9886 935.283 Q62.5615 937.893 62.5615 940.853 Q62.5615 948.906 57.5007 953.648 Q52.44 958.391 43.8463 958.391 Q35.1253 958.391 30.1282 953.616 Q25.1311 948.81 25.1311 940.471 Q25.1311 937.766 25.704 935.188 Q26.2451 932.61 27.3591 930.191 Z" fill="#000000" fill-rule="nonzero" fill-opacity="1" /><path clip-path="url(#clip120)" d="M15.869 914.213 L25.9905 914.213 L25.9905 902.15 L30.542 902.15 L30.542 914.213 L49.8937 914.213 Q54.2542 914.213 55.4955 913.035 Q56.7368 911.826 56.7368 908.165 L56.7368 902.15 L61.6384 902.15 L61.6384 908.165 Q61.6384 914.945 59.124 917.523 Q56.5777 920.101 49.8937 920.101 L30.542 920.101 L30.542 924.398 L25.9905 924.398 L25.9905 920.101 L15.869 920.101 L15.869 914.213 Z" fill="#000000" fill-rule="nonzero" fill-opacity="1" /><path clip-path="url(#clip120)" d="M25.9905 894.447 L25.9905 888.591 L61.6384 888.591 L61.6384 894.447 L25.9905 894.447 M12.1132 894.447 L12.1132 888.591 L19.5293 888.591 L19.5293 894.447 L12.1132 894.447 Z" fill="#000000" fill-rule="nonzero" fill-opacity="1" /><path clip-path="url(#clip120)" d="M30.0964 862.523 Q30.0964 867.234 33.7885 869.971 Q37.4488 872.708 43.8463 872.708 Q50.2438 872.708 53.9359 870.003 Q57.5962 867.266 57.5962 862.523 Q57.5962 857.844 53.9041 855.107 Q50.212 852.37 43.8463 852.37 Q37.5124 852.37 33.8203 855.107 Q30.0964 857.844 30.0964 862.523 M25.1311 862.523 Q25.1311 854.884 30.0964 850.524 Q35.0616 846.163 43.8463 846.163 Q52.5991 846.163 57.5962 850.524 Q62.5615 854.884 62.5615 862.523 Q62.5615 870.194 57.5962 874.554 Q52.5991 878.883 43.8463 878.883 Q35.0616 878.883 30.0964 874.554 Q25.1311 870.194 25.1311 862.523 Z" fill="#000000" fill-rule="nonzero" fill-opacity="1" /><path clip-path="url(#clip120)" d="M40.1224 806.823 L61.6384 806.823 L61.6384 812.68 L40.3133 812.68 Q35.2526 812.68 32.7381 814.653 Q30.2237 816.626 30.2237 820.573 Q30.2237 825.316 33.2474 828.053 Q36.2711 830.79 41.491 830.79 L61.6384 830.79 L61.6384 836.678 L25.9905 836.678 L25.9905 830.79 L31.5287 830.79 Q28.314 828.689 26.7225 825.857 Q25.1311 822.992 25.1311 819.268 Q25.1311 813.125 28.9505 809.974 Q32.7381 806.823 40.1224 806.823 Z" fill="#000000" fill-rule="nonzero" fill-opacity="1" /><path clip-path="url(#clip120)" d="M593.129 14.0809 L593.129 22.0612 Q588.47 19.8332 584.338 18.7395 Q580.206 17.6457 576.358 17.6457 Q569.674 17.6457 566.028 20.2383 Q562.423 22.8309 562.423 27.611 Q562.423 31.6214 564.813 33.6873 Q567.243 35.7128 573.968 36.9686 L578.91 37.9813 Q588.065 39.7232 592.399 44.1387 Q596.774 48.5136 596.774 55.8863 Q596.774 64.6767 590.86 69.2137 Q584.986 73.7508 573.603 73.7508 Q569.309 73.7508 564.448 72.7785 Q559.628 71.8063 554.443 69.9024 L554.443 61.4765 Q559.425 64.2716 564.205 65.6895 Q568.985 67.1073 573.603 67.1073 Q580.611 67.1073 584.419 64.3527 Q588.227 61.598 588.227 56.4939 Q588.227 52.0379 585.472 49.5264 Q582.758 47.0148 576.52 45.759 L571.537 44.7868 Q562.382 42.9639 558.291 39.075 Q554.199 35.1862 554.199 28.2591 Q554.199 20.2383 559.83 15.6203 Q565.501 11.0023 575.426 11.0023 Q579.68 11.0023 584.095 11.7719 Q588.511 12.5416 593.129 14.0809 Z" fill="#000000" fill-rule="nonzero" fill-opacity="1" /><path clip-path="url(#clip120)" d="M609.535 12.096 L647.775 12.096 L647.775 18.9825 L617.718 18.9825 L617.718 36.8875 L646.52 36.8875 L646.52 43.7741 L617.718 43.7741 L617.718 65.6895 L648.505 65.6895 L648.505 72.576 L609.535 72.576 L609.535 12.096 Z" fill="#000000" fill-rule="nonzero" fill-opacity="1" /><path clip-path="url(#clip120)" d="M661.954 12.096 L670.136 12.096 L670.136 72.576 L661.954 72.576 L661.954 12.096 Z" fill="#000000" fill-rule="nonzero" fill-opacity="1" /><path clip-path="url(#clip120)" d="M715.101 44.2197 Q717.734 45.1109 720.206 48.0275 Q722.717 50.9442 725.229 56.0483 L733.533 72.576 L724.743 72.576 L717.005 57.061 Q714.008 50.9847 711.172 48.9997 Q708.377 47.0148 703.516 47.0148 L694.604 47.0148 L694.604 72.576 L686.421 72.576 L686.421 12.096 L704.893 12.096 Q715.263 12.096 720.368 16.4305 Q725.472 20.7649 725.472 29.5149 Q725.472 35.2267 722.798 38.994 Q720.165 42.7613 715.101 44.2197 M694.604 18.8205 L694.604 40.2903 L704.893 40.2903 Q710.807 40.2903 713.805 37.5762 Q716.843 34.8216 716.843 29.5149 Q716.843 24.2082 713.805 21.5346 Q710.807 18.8205 704.893 18.8205 L694.604 18.8205 Z" fill="#000000" fill-rule="nonzero" fill-opacity="1" /><path clip-path="url(#clip120)" d="M770.113 27.2059 L777.566 27.2059 L777.566 72.576 L770.113 72.576 L770.113 27.2059 M770.113 9.54393 L777.566 9.54393 L777.566 18.9825 L770.113 18.9825 L770.113 9.54393 Z" fill="#000000" fill-rule="nonzero" fill-opacity="1" /><path clip-path="url(#clip120)" d="M830.876 45.1919 L830.876 72.576 L823.423 72.576 L823.423 45.4349 Q823.423 38.994 820.911 35.7938 Q818.399 32.5936 813.376 32.5936 Q807.34 32.5936 803.857 36.4419 Q800.373 40.2903 800.373 46.9338 L800.373 72.576 L792.879 72.576 L792.879 27.2059 L800.373 27.2059 L800.373 34.2544 Q803.047 30.163 806.652 28.1376 Q810.298 26.1121 815.037 26.1121 Q822.855 26.1121 826.866 30.9732 Q830.876 35.7938 830.876 45.1919 Z" fill="#000000" fill-rule="nonzero" fill-opacity="1" /><path clip-path="url(#clip120)" d="M875.598 34.0924 L875.598 9.54393 L883.052 9.54393 L883.052 72.576 L875.598 72.576 L875.598 65.7705 Q873.249 69.8214 869.643 71.8063 Q866.079 73.7508 861.055 73.7508 Q852.832 73.7508 847.647 67.1883 Q842.502 60.6258 842.502 49.9314 Q842.502 39.2371 847.647 32.6746 Q852.832 26.1121 861.055 26.1121 Q866.079 26.1121 869.643 28.0971 Q873.249 30.0415 875.598 34.0924 M850.199 49.9314 Q850.199 58.1548 853.561 62.8538 Q856.964 67.5124 862.878 67.5124 Q868.793 67.5124 872.195 62.8538 Q875.598 58.1548 875.598 49.9314 Q875.598 41.7081 872.195 37.0496 Q868.793 32.3505 862.878 32.3505 Q856.964 32.3505 853.561 37.0496 Q850.199 41.7081 850.199 49.9314 Z" fill="#000000" fill-rule="nonzero" fill-opacity="1" /><path clip-path="url(#clip120)" d="M898.405 27.2059 L905.858 27.2059 L905.858 72.576 L898.405 72.576 L898.405 27.2059 M898.405 9.54393 L905.858 9.54393 L905.858 18.9825 L898.405 18.9825 L898.405 9.54393 Z" fill="#000000" fill-rule="nonzero" fill-opacity="1" /><path clip-path="url(#clip120)" d="M916.107 27.2059 L924.007 27.2059 L938.185 65.2844 L952.363 27.2059 L960.262 27.2059 L943.248 72.576 L933.121 72.576 L916.107 27.2059 Z" fill="#000000" fill-rule="nonzero" fill-opacity="1" /><path clip-path="url(#clip120)" d="M970.551 27.2059 L978.005 27.2059 L978.005 72.576 L970.551 72.576 L970.551 27.2059 M970.551 9.54393 L978.005 9.54393 L978.005 18.9825 L970.551 18.9825 L970.551 9.54393 Z" fill="#000000" fill-rule="nonzero" fill-opacity="1" /><path clip-path="url(#clip120)" d="M1023.46 34.0924 L1023.46 9.54393 L1030.91 9.54393 L1030.91 72.576 L1023.46 72.576 L1023.46 65.7705 Q1021.11 69.8214 1017.5 71.8063 Q1013.94 73.7508 1008.91 73.7508 Q1000.69 73.7508 995.505 67.1883 Q990.36 60.6258 990.36 49.9314 Q990.36 39.2371 995.505 32.6746 Q1000.69 26.1121 1008.91 26.1121 Q1013.94 26.1121 1017.5 28.0971 Q1021.11 30.0415 1023.46 34.0924 M998.057 49.9314 Q998.057 58.1548 1001.42 62.8538 Q1004.82 67.5124 1010.74 67.5124 Q1016.65 67.5124 1020.05 62.8538 Q1023.46 58.1548 1023.46 49.9314 Q1023.46 41.7081 1020.05 37.0496 Q1016.65 32.3505 1010.74 32.3505 Q1004.82 32.3505 1001.42 37.0496 Q998.057 41.7081 998.057 49.9314 Z" fill="#000000" fill-rule="nonzero" fill-opacity="1" /><path clip-path="url(#clip120)" d="M1045.49 54.671 L1045.49 27.2059 L1052.95 27.2059 L1052.95 54.3874 Q1052.95 60.8284 1055.46 64.0691 Q1057.97 67.2693 1062.99 67.2693 Q1069.03 67.2693 1072.51 63.421 Q1076.04 59.5726 1076.04 52.9291 L1076.04 27.2059 L1083.49 27.2059 L1083.49 72.576 L1076.04 72.576 L1076.04 65.6084 Q1073.32 69.7404 1069.72 71.7658 Q1066.15 73.7508 1061.41 73.7508 Q1053.59 73.7508 1049.54 68.8897 Q1045.49 64.0286 1045.49 54.671 M1064.25 26.1121 L1064.25 26.1121 Z" fill="#000000" fill-rule="nonzero" fill-opacity="1" /><path clip-path="url(#clip120)" d="M1119.46 49.7694 Q1110.43 49.7694 1106.95 51.8354 Q1103.46 53.9013 1103.46 58.8839 Q1103.46 62.8538 1106.05 65.2034 Q1108.69 67.5124 1113.18 67.5124 Q1119.38 67.5124 1123.11 63.1374 Q1126.88 58.7219 1126.88 51.4303 L1126.88 49.7694 L1119.46 49.7694 M1134.33 46.6907 L1134.33 72.576 L1126.88 72.576 L1126.88 65.6895 Q1124.32 69.8214 1120.52 71.8063 Q1116.71 73.7508 1111.2 73.7508 Q1104.23 73.7508 1100.1 69.8619 Q1096.01 65.9325 1096.01 59.3701 Q1096.01 51.7138 1101.11 47.825 Q1106.26 43.9361 1116.42 43.9361 L1126.88 43.9361 L1126.88 43.2069 Q1126.88 38.0623 1123.47 35.2672 Q1120.11 32.4315 1113.99 32.4315 Q1110.11 32.4315 1106.42 33.3632 Q1102.73 34.295 1099.33 36.1584 L1099.33 29.2718 Q1103.42 27.692 1107.27 26.9223 Q1111.12 26.1121 1114.76 26.1121 Q1124.61 26.1121 1129.47 31.2163 Q1134.33 36.3204 1134.33 46.6907 Z" fill="#000000" fill-rule="nonzero" fill-opacity="1" /><path clip-path="url(#clip120)" d="M1149.68 9.54393 L1157.14 9.54393 L1157.14 72.576 L1149.68 72.576 L1149.68 9.54393 Z" fill="#000000" fill-rule="nonzero" fill-opacity="1" /><path clip-path="url(#clip120)" d="M1168.96 46.5287 L1190.8 46.5287 L1190.8 53.1722 L1168.96 53.1722 L1168.96 46.5287 Z" fill="#000000" fill-rule="nonzero" fill-opacity="1" /><path clip-path="url(#clip120)" d="M1235.24 49.9314 Q1235.24 41.7081 1231.83 37.0496 Q1228.47 32.3505 1222.56 32.3505 Q1216.64 32.3505 1213.24 37.0496 Q1209.88 41.7081 1209.88 49.9314 Q1209.88 58.1548 1213.24 62.8538 Q1216.64 67.5124 1222.56 67.5124 Q1228.47 67.5124 1231.83 62.8538 Q1235.24 58.1548 1235.24 49.9314 M1209.88 34.0924 Q1212.23 30.0415 1215.79 28.0971 Q1219.4 26.1121 1224.38 26.1121 Q1232.64 26.1121 1237.79 32.6746 Q1242.97 39.2371 1242.97 49.9314 Q1242.97 60.6258 1237.79 67.1883 Q1232.64 73.7508 1224.38 73.7508 Q1219.4 73.7508 1215.79 71.8063 Q1212.23 69.8214 1209.88 65.7705 L1209.88 72.576 L1202.38 72.576 L1202.38 9.54393 L1209.88 9.54393 L1209.88 34.0924 Z" fill="#000000" fill-rule="nonzero" fill-opacity="1" /><path clip-path="url(#clip120)" d="M1275.95 49.7694 Q1266.92 49.7694 1263.43 51.8354 Q1259.95 53.9013 1259.95 58.8839 Q1259.95 62.8538 1262.54 65.2034 Q1265.17 67.5124 1269.67 67.5124 Q1275.87 67.5124 1279.59 63.1374 Q1283.36 58.7219 1283.36 51.4303 L1283.36 49.7694 L1275.95 49.7694 M1290.82 46.6907 L1290.82 72.576 L1283.36 72.576 L1283.36 65.6895 Q1280.81 69.8214 1277 71.8063 Q1273.19 73.7508 1267.69 73.7508 Q1260.72 73.7508 1256.59 69.8619 Q1252.49 65.9325 1252.49 59.3701 Q1252.49 51.7138 1257.6 47.825 Q1262.74 43.9361 1272.91 43.9361 L1283.36 43.9361 L1283.36 43.2069 Q1283.36 38.0623 1279.96 35.2672 Q1276.6 32.4315 1270.48 32.4315 Q1266.59 32.4315 1262.91 33.3632 Q1259.22 34.295 1255.82 36.1584 L1255.82 29.2718 Q1259.91 27.692 1263.76 26.9223 Q1267.6 26.1121 1271.25 26.1121 Q1281.09 26.1121 1285.95 31.2163 Q1290.82 36.3204 1290.82 46.6907 Z" fill="#000000" fill-rule="nonzero" fill-opacity="1" /><path clip-path="url(#clip120)" d="M1335.09 28.5427 L1335.09 35.5912 Q1331.93 33.9709 1328.53 33.1607 Q1325.13 32.3505 1321.48 32.3505 Q1315.93 32.3505 1313.14 34.0519 Q1310.38 35.7533 1310.38 39.156 Q1310.38 41.7486 1312.37 43.2475 Q1314.35 44.7058 1320.35 46.0426 L1322.9 46.6097 Q1330.84 48.3111 1334.16 51.4303 Q1337.52 54.509 1337.52 60.0587 Q1337.52 66.3781 1332.5 70.0644 Q1327.52 73.7508 1318.77 73.7508 Q1315.12 73.7508 1311.15 73.0216 Q1307.22 72.3329 1302.85 70.9151 L1302.85 63.2184 Q1306.98 65.3654 1310.99 66.4591 Q1315 67.5124 1318.93 67.5124 Q1324.2 67.5124 1327.03 65.73 Q1329.87 63.9071 1329.87 60.6258 Q1329.87 57.5877 1327.8 55.9673 Q1325.78 54.3469 1318.85 52.8481 L1316.26 52.2405 Q1309.33 50.7821 1306.25 47.7845 Q1303.17 44.7463 1303.17 39.4801 Q1303.17 33.0797 1307.71 29.5959 Q1312.25 26.1121 1320.59 26.1121 Q1324.72 26.1121 1328.37 26.7198 Q1332.01 27.3274 1335.09 28.5427 Z" fill="#000000" fill-rule="nonzero" fill-opacity="1" /><path clip-path="url(#clip120)" d="M1388.2 48.0275 L1388.2 51.6733 L1353.93 51.6733 Q1354.42 59.3701 1358.55 63.421 Q1362.72 67.4314 1370.13 67.4314 Q1374.43 67.4314 1378.44 66.3781 Q1382.49 65.3249 1386.46 63.2184 L1386.46 70.267 Q1382.45 71.9684 1378.23 72.8596 Q1374.02 73.7508 1369.69 73.7508 Q1358.83 73.7508 1352.47 67.4314 Q1346.15 61.1119 1346.15 50.3365 Q1346.15 39.1965 1352.15 32.6746 Q1358.18 26.1121 1368.39 26.1121 Q1377.55 26.1121 1382.85 32.0264 Q1388.2 37.9003 1388.2 48.0275 M1380.75 45.84 Q1380.66 39.7232 1377.3 36.0774 Q1373.98 32.4315 1368.47 32.4315 Q1362.23 32.4315 1358.47 35.9558 Q1354.74 39.4801 1354.17 45.8805 L1380.75 45.84 Z" fill="#000000" fill-rule="nonzero" fill-opacity="1" /><path clip-path="url(#clip120)" d="M1430.29 34.0924 L1430.29 9.54393 L1437.74 9.54393 L1437.74 72.576 L1430.29 72.576 L1430.29 65.7705 Q1427.94 69.8214 1424.33 71.8063 Q1420.77 73.7508 1415.75 73.7508 Q1407.52 73.7508 1402.34 67.1883 Q1397.19 60.6258 1397.19 49.9314 Q1397.19 39.2371 1402.34 32.6746 Q1407.52 26.1121 1415.75 26.1121 Q1420.77 26.1121 1424.33 28.0971 Q1427.94 30.0415 1430.29 34.0924 M1404.89 49.9314 Q1404.89 58.1548 1408.25 62.8538 Q1411.65 67.5124 1417.57 67.5124 Q1423.48 67.5124 1426.89 62.8538 Q1430.29 58.1548 1430.29 49.9314 Q1430.29 41.7081 1426.89 37.0496 Q1423.48 32.3505 1417.57 32.3505 Q1411.65 32.3505 1408.25 37.0496 Q1404.89 41.7081 1404.89 49.9314 Z" fill="#000000" fill-rule="nonzero" fill-opacity="1" /><path clip-path="url(#clip120)" d="M1514.79 35.9153 Q1517.59 30.8922 1521.47 28.5022 Q1525.36 26.1121 1530.63 26.1121 Q1537.72 26.1121 1541.57 31.0947 Q1545.42 36.0368 1545.42 45.1919 L1545.42 72.576 L1537.92 72.576 L1537.92 45.4349 Q1537.92 38.913 1535.61 35.7533 Q1533.3 32.5936 1528.56 32.5936 Q1522.77 32.5936 1519.41 36.4419 Q1516.05 40.2903 1516.05 46.9338 L1516.05 72.576 L1508.55 72.576 L1508.55 45.4349 Q1508.55 38.8725 1506.24 35.7533 Q1503.93 32.5936 1499.11 32.5936 Q1493.4 32.5936 1490.04 36.4824 Q1486.68 40.3308 1486.68 46.9338 L1486.68 72.576 L1479.18 72.576 L1479.18 27.2059 L1486.68 27.2059 L1486.68 34.2544 Q1489.23 30.082 1492.79 28.0971 Q1496.36 26.1121 1501.26 26.1121 Q1506.2 26.1121 1509.65 28.6237 Q1513.13 31.1352 1514.79 35.9153 Z" fill="#000000" fill-rule="nonzero" fill-opacity="1" /><path clip-path="url(#clip120)" d="M1577.86 32.4315 Q1571.87 32.4315 1568.38 37.1306 Q1564.9 41.7891 1564.9 49.9314 Q1564.9 58.0738 1568.34 62.7728 Q1571.83 67.4314 1577.86 67.4314 Q1583.82 67.4314 1587.3 62.7323 Q1590.79 58.0333 1590.79 49.9314 Q1590.79 41.8701 1587.3 37.1711 Q1583.82 32.4315 1577.86 32.4315 M1577.86 26.1121 Q1587.59 26.1121 1593.13 32.4315 Q1598.68 38.7509 1598.68 49.9314 Q1598.68 61.0714 1593.13 67.4314 Q1587.59 73.7508 1577.86 73.7508 Q1568.1 73.7508 1562.55 67.4314 Q1557.04 61.0714 1557.04 49.9314 Q1557.04 38.7509 1562.55 32.4315 Q1568.1 26.1121 1577.86 26.1121 Z" fill="#000000" fill-rule="nonzero" fill-opacity="1" /><path clip-path="url(#clip120)" d="M1640.9 34.0924 L1640.9 9.54393 L1648.35 9.54393 L1648.35 72.576 L1640.9 72.576 L1640.9 65.7705 Q1638.55 69.8214 1634.94 71.8063 Q1631.38 73.7508 1626.35 73.7508 Q1618.13 73.7508 1612.94 67.1883 Q1607.8 60.6258 1607.8 49.9314 Q1607.8 39.2371 1612.94 32.6746 Q1618.13 26.1121 1626.35 26.1121 Q1631.38 26.1121 1634.94 28.0971 Q1638.55 30.0415 1640.9 34.0924 M1615.5 49.9314 Q1615.5 58.1548 1618.86 62.8538 Q1622.26 67.5124 1628.18 67.5124 Q1634.09 67.5124 1637.49 62.8538 Q1640.9 58.1548 1640.9 49.9314 Q1640.9 41.7081 1637.49 37.0496 Q1634.09 32.3505 1628.18 32.3505 Q1622.26 32.3505 1618.86 37.0496 Q1615.5 41.7081 1615.5 49.9314 Z" fill="#000000" fill-rule="nonzero" fill-opacity="1" /><path clip-path="url(#clip120)" d="M1702.51 48.0275 L1702.51 51.6733 L1668.24 51.6733 Q1668.72 59.3701 1672.86 63.421 Q1677.03 67.4314 1684.44 67.4314 Q1688.74 67.4314 1692.75 66.3781 Q1696.8 65.3249 1700.77 63.2184 L1700.77 70.267 Q1696.76 71.9684 1692.54 72.8596 Q1688.33 73.7508 1684 73.7508 Q1673.14 73.7508 1666.78 67.4314 Q1660.46 61.1119 1660.46 50.3365 Q1660.46 39.1965 1666.46 32.6746 Q1672.49 26.1121 1682.7 26.1121 Q1691.86 26.1121 1697.16 32.0264 Q1702.51 37.9003 1702.51 48.0275 M1695.06 45.84 Q1694.97 39.7232 1691.61 36.0774 Q1688.29 32.4315 1682.78 32.4315 Q1676.54 32.4315 1672.78 35.9558 Q1669.05 39.4801 1668.48 45.8805 L1695.06 45.84 Z" fill="#000000" fill-rule="nonzero" fill-opacity="1" /><path clip-path="url(#clip120)" d="M1714.74 9.54393 L1722.2 9.54393 L1722.2 72.576 L1714.74 72.576 L1714.74 9.54393 Z" fill="#000000" fill-rule="nonzero" fill-opacity="1" /><path clip-path="url(#clip120)" d="M1782.07 9.62495 Q1776.64 18.942 1774.01 28.0566 Q1771.37 37.1711 1771.37 46.5287 Q1771.37 55.8863 1774.01 65.0818 Q1776.68 74.2369 1782.07 83.5134 L1775.59 83.5134 Q1769.51 73.9938 1766.47 64.7983 Q1763.48 55.6027 1763.48 46.5287 Q1763.48 37.4952 1766.47 28.3401 Q1769.47 19.1851 1775.59 9.62495 L1782.07 9.62495 Z" fill="#000000" fill-rule="nonzero" fill-opacity="1" /><path clip-path="url(#clip120)" d="M1796.85 12.096 L1807.87 12.096 L1834.69 62.6918 L1834.69 12.096 L1842.63 12.096 L1842.63 72.576 L1831.61 72.576 L1804.79 21.9802 L1804.79 72.576 L1796.85 72.576 L1796.85 12.096 Z" fill="#000000" fill-rule="nonzero" fill-opacity="1" /><path clip-path="url(#clip120)" d="M1859.56 34.9026 L1911.5 34.9026 L1911.5 41.7081 L1859.56 41.7081 L1859.56 34.9026 M1859.56 51.4303 L1911.5 51.4303 L1911.5 58.3168 L1859.56 58.3168 L1859.56 51.4303 Z" fill="#000000" fill-rule="nonzero" fill-opacity="1" /><path clip-path="url(#clip120)" d="M1936.21 65.6895 L1964.76 65.6895 L1964.76 72.576 L1926.36 72.576 L1926.36 65.6895 Q1931.02 60.8689 1939.04 52.7671 Q1947.1 44.6248 1949.17 42.2752 Q1953.1 37.8598 1954.64 34.8216 Q1956.22 31.7429 1956.22 28.7857 Q1956.22 23.9651 1952.81 20.927 Q1949.45 17.8888 1944.02 17.8888 Q1940.18 17.8888 1935.88 19.2256 Q1931.63 20.5624 1926.77 23.2765 L1926.77 15.0127 Q1931.71 13.0277 1936 12.015 Q1940.3 11.0023 1943.86 11.0023 Q1953.26 11.0023 1958.85 15.7013 Q1964.44 20.4004 1964.44 28.2591 Q1964.44 31.9859 1963.02 35.3482 Q1961.65 38.6699 1957.96 43.2069 Q1956.95 44.3817 1951.52 50.0125 Q1946.09 55.6027 1936.21 65.6895 Z" fill="#000000" fill-rule="nonzero" fill-opacity="1" /><path clip-path="url(#clip120)" d="M1999.44 17.4837 Q1993.12 17.4837 1989.92 23.7221 Q1986.76 29.92 1986.76 42.3968 Q1986.76 54.833 1989.92 61.0714 Q1993.12 67.2693 1999.44 67.2693 Q2005.8 67.2693 2008.96 61.0714 Q2012.16 54.833 2012.16 42.3968 Q2012.16 29.92 2008.96 23.7221 Q2005.8 17.4837 1999.44 17.4837 M1999.44 11.0023 Q2009.61 11.0023 2014.96 19.0636 Q2020.34 27.0843 2020.34 42.3968 Q2020.34 57.6687 2014.96 65.73 Q2009.61 73.7508 1999.44 73.7508 Q1989.27 73.7508 1983.89 65.73 Q1978.54 57.6687 1978.54 42.3968 Q1978.54 27.0843 1983.89 19.0636 Q1989.27 11.0023 1999.44 11.0023 Z" fill="#000000" fill-rule="nonzero" fill-opacity="1" /><path clip-path="url(#clip120)" d="M2052.22 17.4837 Q2045.9 17.4837 2042.7 23.7221 Q2039.54 29.92 2039.54 42.3968 Q2039.54 54.833 2042.7 61.0714 Q2045.9 67.2693 2052.22 67.2693 Q2058.58 67.2693 2061.74 61.0714 Q2064.94 54.833 2064.94 42.3968 Q2064.94 29.92 2061.74 23.7221 Q2058.58 17.4837 2052.22 17.4837 M2052.22 11.0023 Q2062.39 11.0023 2067.74 19.0636 Q2073.13 27.0843 2073.13 42.3968 Q2073.13 57.6687 2067.74 65.73 Q2062.39 73.7508 2052.22 73.7508 Q2042.06 73.7508 2036.67 65.73 Q2031.32 57.6687 2031.32 42.3968 Q2031.32 27.0843 2036.67 19.0636 Q2042.06 11.0023 2052.22 11.0023 Z" fill="#000000" fill-rule="nonzero" fill-opacity="1" /><path clip-path="url(#clip120)" d="M2088.36 62.2867 L2096.91 62.2867 L2096.91 69.2543 L2090.26 82.2172 L2085.04 82.2172 L2088.36 69.2543 L2088.36 62.2867 Z" fill="#000000" fill-rule="nonzero" fill-opacity="1" /><path clip-path="url(#clip120)" d="M2138.91 9.54393 L2146.41 9.54393 L2146.41 46.7717 L2168.65 27.2059 L2178.17 27.2059 L2154.1 48.4326 L2179.18 72.576 L2169.46 72.576 L2146.41 50.4176 L2146.41 72.576 L2138.91 72.576 L2138.91 9.54393 Z" fill="#000000" fill-rule="nonzero" fill-opacity="1" /><path clip-path="url(#clip120)" d="M2188.21 34.9026 L2240.15 34.9026 L2240.15 41.7081 L2188.21 41.7081 L2188.21 34.9026 M2188.21 51.4303 L2240.15 51.4303 L2240.15 58.3168 L2188.21 58.3168 L2188.21 51.4303 Z" fill="#000000" fill-rule="nonzero" fill-opacity="1" /><path clip-path="url(#clip120)" d="M2276.32 39.075 Q2270.81 39.075 2267.57 42.8424 Q2264.37 46.6097 2264.37 53.1722 Q2264.37 59.6941 2267.57 63.502 Q2270.81 67.2693 2276.32 67.2693 Q2281.83 67.2693 2285.03 63.502 Q2288.27 59.6941 2288.27 53.1722 Q2288.27 46.6097 2285.03 42.8424 Q2281.83 39.075 2276.32 39.075 M2292.56 13.4328 L2292.56 20.8865 Q2289.49 19.4281 2286.33 18.6585 Q2283.21 17.8888 2280.13 17.8888 Q2272.03 17.8888 2267.73 23.3575 Q2263.48 28.8262 2262.87 39.8852 Q2265.26 36.3609 2268.87 34.4975 Q2272.47 32.5936 2276.81 32.5936 Q2285.92 32.5936 2291.19 38.1433 Q2296.49 43.6525 2296.49 53.1722 Q2296.49 62.4892 2290.98 68.12 Q2285.47 73.7508 2276.32 73.7508 Q2265.83 73.7508 2260.28 65.73 Q2254.73 57.6687 2254.73 42.3968 Q2254.73 28.0566 2261.53 19.5497 Q2268.34 11.0023 2279.8 11.0023 Q2282.88 11.0023 2286 11.6099 Q2289.16 12.2175 2292.56 13.4328 Z" fill="#000000" fill-rule="nonzero" fill-opacity="1" /><path clip-path="url(#clip120)" d="M2308.36 9.62495 L2314.84 9.62495 Q2320.92 19.1851 2323.92 28.3401 Q2326.96 37.4952 2326.96 46.5287 Q2326.96 55.6027 2323.92 64.7983 Q2320.92 73.9938 2314.84 83.5134 L2308.36 83.5134 Q2313.75 74.2369 2316.38 65.0818 Q2319.06 55.8863 2319.06 46.5287 Q2319.06 37.1711 2316.38 28.0566 Q2313.75 18.942 2308.36 9.62495 Z" fill="#000000" fill-rule="nonzero" fill-opacity="1" /><polyline clip-path="url(#clip121)" style="stroke:#0000ff; stroke-linecap:round; stroke-linejoin:round; stroke-width:8; stroke-opacity:1; fill:none" points="308.334,173.254 319.657,176.487 330.979,179.409 342.302,182.117 353.624,184.691 364.947,187.2 376.269,189.7 387.591,192.24 398.914,194.863 410.236,197.604 421.559,200.496 432.881,203.571 444.204,206.856 455.526,210.379 466.848,214.166 478.171,218.244 489.493,222.64 500.816,227.385 512.138,232.506 523.461,238.037 534.783,244.01 546.105,250.461 557.428,257.428 568.75,264.951 580.073,273.073 591.395,281.838 602.718,291.294 614.04,301.492 625.363,312.482 636.685,324.32 648.007,337.06 659.33,350.76 670.652,365.478 681.975,381.274 693.297,398.205 704.62,416.329 715.942,435.699 727.264,456.369 738.587,478.387 749.909,501.796 761.232,526.63 772.554,552.913 783.877,580.657 795.199,609.864 806.521,640.527 817.844,672.62 829.166,706.093 840.489,740.874 851.811,776.876 863.134,813.99 874.456,852.087 885.779,891.022 897.101,930.629 908.423,970.71 919.746,1011.05 931.068,1051.43 942.391,1091.62 953.713,1131.41 965.036,1170.56 976.358,1208.84 987.68,1246.05 999.003,1281.98 1010.33,1316.46 1021.65,1349.33 1032.97,1380.47 1044.29,1409.79 1055.62,1437.23 1066.94,1462.75 1078.26,1486.35 1089.58,1508.05 1100.9,1527.88 1112.23,1545.93 1123.55,1562.26 1134.87,1576.95 1146.19,1590.12 1157.52,1601.86 1168.84,1612.32 1180.16,1621.61 1191.48,1629.82 1202.81,1637.06 1214.13,1643.43 1225.45,1649 1236.77,1653.88 1248.1,1658.14 1259.42,1661.87 1270.74,1665.13 1282.06,1667.98 1293.39,1670.45 1304.71,1672.61 1316.03,1674.49 1327.35,1676.13 1338.68,1677.56 1350,1678.81 1361.32,1679.91 1372.64,1680.86 1383.97,1681.7 1395.29,1682.43 1406.61,1683.07 1417.93,1683.64 1429.26,1684.14 1440.58,1684.58 1451.9,1684.96 1463.22,1685.31 1474.55,1685.61 1485.87,1685.88 1497.19,1686.12 1508.51,1686.33 1519.83,1686.52 1531.16,1686.69 1542.48,1686.85 1553.8,1686.98 1565.12,1687.1 1576.45,1687.22 1587.77,1687.32 1599.09,1687.41 1610.41,1687.49 1621.74,1687.56 1633.06,1687.63 1644.38,1687.69 1655.7,1687.75 1667.03,1687.8 1678.35,1687.84 1689.67,1687.89 1700.99,1687.92 1712.32,1687.96 1723.64,1687.99 1734.96,1688.02 1746.28,1688.05 1757.61,1688.08 1768.93,1688.1 1780.25,1688.12 1791.57,1688.15 1802.9,1688.16 1814.22,1688.18 1825.54,1688.2 1836.86,1688.21 1848.19,1688.23 1859.51,1688.24 1870.83,1688.25 1882.15,1688.27 1893.48,1688.28 1904.8,1688.29 1916.12,1688.3 1927.44,1688.31 1938.76,1688.31 1950.09,1688.32 1961.41,1688.33 1972.73,1688.34 1984.05,1688.34 1995.38,1688.35 2006.7,1688.36 2018.02,1688.36 2029.34,1688.37 2040.67,1688.37 2051.99,1688.38 2063.31,1688.38 2074.63,1688.38 2085.96,1688.39 2097.28,1688.39 2108.6,1688.4 2119.92,1688.4 2131.25,1688.4 2142.57,1688.41 2153.89,1688.41 2165.21,1688.41 2176.54,1688.41 2187.86,1688.42 2199.18,1688.42 2210.5,1688.42 2221.83,1688.42 2233.15,1688.42 2244.47,1688.43 2255.79,1688.43 2267.12,1688.43 2278.44,1688.43 2289.76,1688.43 2301.08,1688.44 2312.41,1688.44 2323.73,1688.44 2335.05,1688.44 2346.37,1688.44 2357.7,1688.44 2369.02,1688.44 2380.34,1688.44 2391.66,1688.45 2402.98,1688.45 2414.31,1688.45 2425.63,1688.45 2436.95,1688.45 2448.27,1688.45 2459.6,1688.45 2470.92,1688.45 2482.24,1688.45 2493.56,1688.45 2504.89,1688.45 2516.21,1688.45 2527.53,1688.45 2538.85,1688.46 2550.18,1688.46 2561.5,1688.46 2572.82,1688.46 "/>
<polyline clip-path="url(#clip121)" style="stroke:#ffa500; stroke-linecap:round; stroke-linejoin:round; stroke-width:8; stroke-opacity:1; fill:none" points="308.334,1688.65 319.657,1685.5 330.979,1682.81 342.302,1680.45 353.624,1678.34 364.947,1676.4 376.269,1674.56 387.591,1672.77 398.914,1670.98 410.236,1669.17 421.559,1667.3 432.881,1665.34 444.204,1663.27 455.526,1661.07 466.848,1658.72 478.171,1656.2 489.493,1653.5 500.816,1650.58 512.138,1647.44 523.461,1644.06 534.783,1640.4 546.105,1636.46 557.428,1632.21 568.75,1627.62 580.073,1622.67 591.395,1617.34 602.718,1611.59 614.04,1605.4 625.363,1598.74 636.685,1591.57 648.007,1583.88 659.33,1575.62 670.652,1566.77 681.975,1557.3 693.297,1547.19 704.62,1536.41 715.942,1524.93 727.264,1512.75 738.587,1499.85 749.909,1486.21 761.232,1471.86 772.554,1456.79 783.877,1441.03 795.199,1424.61 806.521,1407.58 817.844,1389.97 829.166,1371.88 840.489,1353.4 851.811,1334.63 863.134,1315.69 874.456,1296.72 885.779,1277.85 897.101,1259.25 908.423,1241.1 919.746,1223.58 931.068,1206.87 942.391,1191.17 953.713,1176.62 965.036,1163.41 976.358,1151.69 987.68,1141.59 999.003,1133.23 1010.33,1126.69 1021.65,1122.04 1032.97,1119.3 1044.29,1118.47 1055.62,1119.53 1066.94,1122.41 1078.26,1127.01 1089.58,1133.24 1100.9,1140.97 1112.23,1150.08 1123.55,1160.42 1134.87,1171.86 1146.19,1184.24 1157.52,1197.4 1168.84,1211.18 1180.16,1225.4 1191.48,1239.98 1202.81,1254.79 1214.13,1269.75 1225.45,1284.75 1236.77,1299.7 1248.1,1314.52 1259.42,1329.14 1270.74,1343.49 1282.06,1357.55 1293.39,1371.28 1304.71,1384.65 1316.03,1397.65 1327.35,1410.24 1338.68,1422.43 1350,1434.2 1361.32,1445.54 1372.64,1456.46 1383.97,1466.97 1395.29,1477.07 1406.61,1486.76 1417.93,1496.06 1429.26,1504.97 1440.58,1513.5 1451.9,1521.66 1463.22,1529.47 1474.55,1536.94 1485.87,1544.08 1497.19,1550.89 1508.51,1557.41 1519.83,1563.62 1531.16,1569.55 1542.48,1575.21 1553.8,1580.61 1565.12,1585.76 1576.45,1590.67 1587.77,1595.35 1599.09,1599.82 1610.41,1604.07 1621.74,1608.12 1633.06,1611.98 1644.38,1615.66 1655.7,1619.17 1667.03,1622.51 1678.35,1625.69 1689.67,1628.72 1700.99,1631.6 1712.32,1634.35 1723.64,1636.97 1734.96,1639.46 1746.28,1641.83 1757.61,1644.09 1768.93,1646.24 1780.25,1648.29 1791.57,1650.24 1802.9,1652.09 1814.22,1653.86 1825.54,1655.54 1836.86,1657.14 1848.19,1658.66 1859.51,1660.11 1870.83,1661.49 1882.15,1662.8 1893.48,1664.05 1904.8,1665.24 1916.12,1666.38 1927.44,1667.45 1938.76,1668.48 1950.09,1669.46 1961.41,1670.39 1972.73,1671.27 1984.05,1672.11 1995.38,1672.91 2006.7,1673.67 2018.02,1674.4 2029.34,1675.09 2040.67,1675.74 2051.99,1676.37 2063.31,1676.96 2074.63,1677.53 2085.96,1678.07 2097.28,1678.58 2108.6,1679.07 2119.92,1679.53 2131.25,1679.98 2142.57,1680.4 2153.89,1680.8 2165.21,1681.18 2176.54,1681.54 2187.86,1681.88 2199.18,1682.21 2210.5,1682.52 2221.83,1682.82 2233.15,1683.1 2244.47,1683.37 2255.79,1683.63 2267.12,1683.87 2278.44,1684.1 2289.76,1684.32 2301.08,1684.53 2312.41,1684.73 2323.73,1684.92 2335.05,1685.1 2346.37,1685.28 2357.7,1685.44 2369.02,1685.59 2380.34,1685.74 2391.66,1685.88 2402.98,1686.02 2414.31,1686.15 2425.63,1686.27 2436.95,1686.38 2448.27,1686.49 2459.6,1686.6 2470.92,1686.7 2482.24,1686.79 2493.56,1686.88 2504.89,1686.97 2516.21,1687.05 2527.53,1687.13 2538.85,1687.2 2550.18,1687.27 2561.5,1687.34 2572.82,1687.4 "/>
<polyline clip-path="url(#clip121)" style="stroke:#ff0000; stroke-linecap:round; stroke-linejoin:round; stroke-width:8; stroke-opacity:1; fill:none" points="308.334,1681.04 319.657,1681.33 330.979,1681.47 342.302,1681.47 353.624,1681.37 364.947,1681.17 376.269,1680.9 387.591,1680.54 398.914,1680.12 410.236,1679.63 421.559,1679.07 432.881,1678.45 444.204,1677.76 455.526,1677 466.848,1676.17 478.171,1675.26 489.493,1674.26 500.816,1673.18 512.138,1672 523.461,1670.72 534.783,1669.33 546.105,1667.82 557.428,1666.19 568.75,1664.42 580.073,1662.51 591.395,1660.44 602.718,1658.19 614.04,1655.77 625.363,1653.15 636.685,1650.32 648.007,1647.27 659.33,1643.98 670.652,1640.43 681.975,1636.61 693.297,1632.49 704.62,1628.07 715.942,1623.32 727.264,1618.23 738.587,1612.77 749.909,1606.93 761.232,1600.69 772.554,1594.04 783.877,1586.96 795.199,1579.44 806.521,1571.47 817.844,1563.05 829.166,1554.17 840.489,1544.83 851.811,1535.03 863.134,1524.79 874.456,1514.12 885.779,1503.05 897.101,1491.61 908.423,1479.83 919.746,1467.76 931.068,1455.44 942.391,1442.92 953.713,1430.28 965.036,1417.58 976.358,1404.89 987.68,1392.28 999.003,1379.85 1010.33,1367.66 1021.65,1355.79 1032.97,1344.32 1044.29,1333.31 1055.62,1322.85 1066.94,1312.99 1078.26,1303.8 1089.58,1295.34 1100.9,1287.64 1112.23,1280.72 1123.55,1274.61 1134.87,1269.31 1146.19,1264.84 1157.52,1261.2 1168.84,1258.41 1180.16,1256.46 1191.48,1255.32 1202.81,1254.95 1214.13,1255.31 1225.45,1256.38 1236.77,1258.12 1248.1,1260.5 1259.42,1263.49 1270.74,1267.05 1282.06,1271.12 1293.39,1275.68 1304.71,1280.67 1316.03,1286.06 1327.35,1291.81 1338.68,1297.89 1350,1304.25 1361.32,1310.87 1372.64,1317.71 1383.97,1324.74 1395.29,1331.92 1406.61,1339.24 1417.93,1346.67 1429.26,1354.17 1440.58,1361.74 1451.9,1369.34 1463.22,1376.96 1474.55,1384.59 1485.87,1392.19 1497.19,1399.77 1508.51,1407.3 1519.83,1414.78 1531.16,1422.18 1542.48,1429.51 1553.8,1436.75 1565.12,1443.89 1576.45,1450.93 1587.77,1457.87 1599.09,1464.68 1610.41,1471.38 1621.74,1477.95 1633.06,1484.39 1644.38,1490.71 1655.7,1496.89 1667.03,1502.93 1678.35,1508.84 1689.67,1514.62 1700.99,1520.25 1712.32,1525.75 1723.64,1531.11 1734.96,1536.34 1746.28,1541.43 1757.61,1546.38 1768.93,1551.2 1780.25,1555.88 1791.57,1560.44 1802.9,1564.86 1814.22,1569.16 1825.54,1573.33 1836.86,1577.38 1848.19,1581.31 1859.51,1585.12 1870.83,1588.81 1882.15,1592.39 1893.48,1595.86 1904.8,1599.21 1916.12,1602.46 1927.44,1605.6 1938.76,1608.64 1950.09,1611.59 1961.41,1614.43 1972.73,1617.18 1984.05,1619.84 1995.38,1622.41 2006.7,1624.89 2018.02,1627.29 2029.34,1629.6 2040.67,1631.84 2051.99,1634 2063.31,1636.08 2074.63,1638.09 2085.96,1640.02 2097.28,1641.89 2108.6,1643.69 2119.92,1645.43 2131.25,1647.1 2142.57,1648.72 2153.89,1650.27 2165.21,1651.77 2176.54,1653.21 2187.86,1654.6 2199.18,1655.94 2210.5,1657.23 2221.83,1658.47 2233.15,1659.67 2244.47,1660.82 2255.79,1661.92 2267.12,1662.99 2278.44,1664.01 2289.76,1665 2301.08,1665.94 2312.41,1666.86 2323.73,1667.73 2335.05,1668.58 2346.37,1669.39 2357.7,1670.17 2369.02,1670.91 2380.34,1671.63 2391.66,1672.33 2402.98,1672.99 2414.31,1673.63 2425.63,1674.24 2436.95,1674.83 2448.27,1675.4 2459.6,1675.94 2470.92,1676.46 2482.24,1676.96 2493.56,1677.45 2504.89,1677.91 2516.21,1678.35 2527.53,1678.78 2538.85,1679.19 2550.18,1679.58 2561.5,1679.96 2572.82,1680.32 "/>
<polyline clip-path="url(#clip121)" style="stroke:#008000; stroke-linecap:round; stroke-linejoin:round; stroke-width:8; stroke-opacity:1; fill:none" points="308.334,1688.65 319.657,1688.28 330.979,1687.92 342.302,1687.56 353.624,1687.2 364.947,1686.83 376.269,1686.45 387.591,1686.05 398.914,1685.64 410.236,1685.2 421.559,1684.73 432.881,1684.24 444.204,1683.71 455.526,1683.15 466.848,1682.55 478.171,1681.9 489.493,1681.21 500.816,1680.46 512.138,1679.66 523.461,1678.79 534.783,1677.86 546.105,1676.86 557.428,1675.78 568.75,1674.61 580.073,1673.35 591.395,1671.99 602.718,1670.53 614.04,1668.94 625.363,1667.23 636.685,1665.39 648.007,1663.4 659.33,1661.25 670.652,1658.92 681.975,1656.42 693.297,1653.72 704.62,1650.8 715.942,1647.65 727.264,1644.26 738.587,1640.6 749.909,1636.66 761.232,1632.42 772.554,1627.86 783.877,1622.95 795.199,1617.68 806.521,1612.03 817.844,1605.96 829.166,1599.46 840.489,1592.5 851.811,1585.07 863.134,1577.13 874.456,1568.67 885.779,1559.67 897.101,1550.11 908.423,1539.96 919.746,1529.22 931.068,1517.87 942.391,1505.89 953.713,1493.29 965.036,1480.06 976.358,1466.19 987.68,1451.68 999.003,1436.54 1010.33,1420.79 1021.65,1404.44 1032.97,1387.51 1044.29,1370.02 1055.62,1352 1066.94,1333.46 1078.26,1314.44 1089.58,1294.98 1100.9,1275.11 1112.23,1254.87 1123.55,1234.32 1134.87,1213.49 1146.19,1192.41 1157.52,1171.13 1168.84,1149.69 1180.16,1128.13 1191.48,1106.48 1202.81,1084.8 1214.13,1063.12 1225.45,1041.48 1236.77,1019.91 1248.1,998.441 1259.42,977.108 1270.74,955.936 1282.06,934.955 1293.39,914.189 1304.71,893.663 1316.03,873.398 1327.35,853.412 1338.68,833.721 1350,814.341 1361.32,795.286 1372.64,776.567 1383.97,758.194 1395.29,740.177 1406.61,722.523 1417.93,705.238 1429.26,688.326 1440.58,671.791 1451.9,655.636 1463.22,639.861 1474.55,624.467 1485.87,609.454 1497.19,594.82 1508.51,580.564 1519.83,566.683 1531.16,553.175 1542.48,540.036 1553.8,527.26 1565.12,514.844 1576.45,502.783 1587.77,491.07 1599.09,479.701 1610.41,468.67 1621.74,457.97 1633.06,447.597 1644.38,437.543 1655.7,427.802 1667.03,418.366 1678.35,409.229 1689.67,400.383 1700.99,391.822 1712.32,383.54 1723.64,375.528 1734.96,367.782 1746.28,360.293 1757.61,353.056 1768.93,346.064 1780.25,339.309 1791.57,332.786 1802.9,326.487 1814.22,320.406 1825.54,314.536 1836.86,308.871 1848.19,303.406 1859.51,298.134 1870.83,293.049 1882.15,288.146 1893.48,283.419 1904.8,278.864 1916.12,274.473 1927.44,270.243 1938.76,266.167 1950.09,262.241 1961.41,258.459 1972.73,254.817 1984.05,251.31 1995.38,247.934 2006.7,244.684 2018.02,241.556 2029.34,238.545 2040.67,235.649 2051.99,232.862 2063.31,230.181 2074.63,227.603 2085.96,225.123 2097.28,222.739 2108.6,220.446 2119.92,218.242 2131.25,216.122 2142.57,214.086 2153.89,212.128 2165.21,210.246 2176.54,208.438 2187.86,206.701 2199.18,205.032 2210.5,203.429 2221.83,201.889 2233.15,200.409 2244.47,198.989 2255.79,197.625 2267.12,196.315 2278.44,195.057 2289.76,193.85 2301.08,192.691 2312.41,191.578 2323.73,190.511 2335.05,189.486 2346.37,188.502 2357.7,187.558 2369.02,186.653 2380.34,185.784 2391.66,184.95 2402.98,184.15 2414.31,183.383 2425.63,182.647 2436.95,181.941 2448.27,181.264 2459.6,180.615 2470.92,179.992 2482.24,179.395 2493.56,178.823 2504.89,178.274 2516.21,177.748 2527.53,177.244 2538.85,176.76 2550.18,176.297 2561.5,175.853 2572.82,175.427 "/>
<path clip-path="url(#clip120)" d="M320.412 440.536 L587.368 440.536 L587.368 181.336 L320.412 181.336  Z" fill="#ffffff" fill-rule="evenodd" fill-opacity="1"/>
<polyline clip-path="url(#clip120)" style="stroke:#000000; stroke-linecap:round; stroke-linejoin:round; stroke-width:4; stroke-opacity:1; fill:none" points="320.412,440.536 587.368,440.536 587.368,181.336 320.412,181.336 320.412,440.536 "/>
<polyline clip-path="url(#clip120)" style="stroke:#0000ff; stroke-linecap:round; stroke-linejoin:round; stroke-width:8; stroke-opacity:1; fill:none" points="347.082,233.176 507.106,233.176 "/>
<path clip-path="url(#clip120)" d="M556.022 217.031 L556.022 221.591 Q553.36 220.318 550.999 219.693 Q548.638 219.068 546.439 219.068 Q542.619 219.068 540.536 220.549 Q538.476 222.031 538.476 224.762 Q538.476 227.054 539.841 228.234 Q541.23 229.392 545.073 230.109 L547.897 230.688 Q553.128 231.683 555.605 234.206 Q558.105 236.706 558.105 240.919 Q558.105 245.942 554.726 248.535 Q551.369 251.128 544.865 251.128 Q542.411 251.128 539.633 250.572 Q536.878 250.016 533.915 248.929 L533.915 244.114 Q536.763 245.711 539.494 246.521 Q542.226 247.331 544.865 247.331 Q548.869 247.331 551.045 245.757 Q553.221 244.183 553.221 241.267 Q553.221 238.72 551.647 237.285 Q550.096 235.85 546.531 235.132 L543.684 234.577 Q538.453 233.535 536.115 231.313 Q533.777 229.091 533.777 225.132 Q533.777 220.549 536.994 217.91 Q540.235 215.271 545.906 215.271 Q548.337 215.271 550.86 215.711 Q553.383 216.151 556.022 217.031 Z" fill="#000000" fill-rule="nonzero" fill-opacity="1" /><polyline clip-path="url(#clip120)" style="stroke:#ffa500; stroke-linecap:round; stroke-linejoin:round; stroke-width:8; stroke-opacity:1; fill:none" points="347.082,285.016 507.106,285.016 "/>
<path clip-path="url(#clip120)" d="M533.777 267.736 L555.628 267.736 L555.628 271.671 L538.453 271.671 L538.453 281.903 L554.911 281.903 L554.911 285.838 L538.453 285.838 L538.453 298.361 L556.045 298.361 L556.045 302.296 L533.777 302.296 L533.777 267.736 Z" fill="#000000" fill-rule="nonzero" fill-opacity="1" /><polyline clip-path="url(#clip120)" style="stroke:#ff0000; stroke-linecap:round; stroke-linejoin:round; stroke-width:8; stroke-opacity:1; fill:none" points="347.082,336.856 507.106,336.856 "/>
<path clip-path="url(#clip120)" d="M533.777 319.576 L538.453 319.576 L538.453 354.136 L533.777 354.136 L533.777 319.576 Z" fill="#000000" fill-rule="nonzero" fill-opacity="1" /><polyline clip-path="url(#clip120)" style="stroke:#008000; stroke-linecap:round; stroke-linejoin:round; stroke-width:8; stroke-opacity:1; fill:none" points="347.082,388.696 507.106,388.696 "/>
<path clip-path="url(#clip120)" d="M550.165 389.773 Q551.67 390.282 553.082 391.949 Q554.517 393.615 555.952 396.532 L560.698 405.976 L555.675 405.976 L551.253 397.111 Q549.54 393.638 547.92 392.504 Q546.323 391.37 543.545 391.37 L538.453 391.37 L538.453 405.976 L533.777 405.976 L533.777 371.416 L544.332 371.416 Q550.258 371.416 553.175 373.893 Q556.091 376.37 556.091 381.37 Q556.091 384.634 554.564 386.787 Q553.059 388.939 550.165 389.773 M538.453 375.259 L538.453 387.527 L544.332 387.527 Q547.712 387.527 549.425 385.976 Q551.161 384.402 551.161 381.37 Q551.161 378.338 549.425 376.81 Q547.712 375.259 544.332 375.259 L538.453 375.259 Z" fill="#000000" fill-rule="nonzero" fill-opacity="1" /></svg>
