<?xml version="1.0" encoding="utf-8"?>
<svg xmlns="http://www.w3.org/2000/svg" xmlns:xlink="http://www.w3.org/1999/xlink" width="672" height="480" viewBox="0 0 2688 1920">
<defs>
  <clipPath id="clip090">
    <rect x="0" y="0" width="2688" height="1920"/>
  </clipPath>
</defs>
<path clip-path="url(#clip090)" d="M0 1920 L2688 1920 L2688 -4.26326e-14 L0 -4.26326e-14  Z" fill="#ffffff" fill-rule="evenodd" fill-opacity="1"/>
<defs>
  <clipPath id="clip091">
    <rect x="240" y="127" width="2401" height="1607"/>
  </clipPath>
</defs>
<path clip-path="url(#clip090)" d="M240.4 1734.12 L2640.76 1734.12 L2640.76 127.792 L240.4 127.792  Z" fill="#ffffff" fill-rule="evenodd" fill-opacity="1"/>
<polyline clip-path="url(#clip091)" style="stroke:#000000; stroke-linecap:round; stroke-linejoin:round; stroke-width:2; stroke-opacity:0.1; fill:none" points="308.334,1734.12 308.334,127.792 "/>
<polyline clip-path="url(#clip091)" style="stroke:#000000; stroke-linecap:round; stroke-linejoin:round; stroke-width:2; stroke-opacity:0.1; fill:none" points="874.456,1734.12 874.456,127.792 "/>
<polyline clip-path="url(#clip091)" style="stroke:#000000; stroke-linecap:round; stroke-linejoin:round; stroke-width:2; stroke-opacity:0.1; fill:none" points="1440.58,1734.12 1440.58,127.792 "/>
<polyline clip-path="url(#clip091)" style="stroke:#000000; stroke-linecap:round; stroke-linejoin:round; stroke-width:2; stroke-opacity:0.1; fill:none" points="2006.7,1734.12 2006.7,127.792 "/>
<polyline clip-path="url(#clip091)" style="stroke:#000000; stroke-linecap:round; stroke-linejoin:round; stroke-width:2; stroke-opacity:0.1; fill:none" points="2572.82,1734.12 2572.82,127.792 "/>
<polyline clip-path="url(#clip091)" style="stroke:#000000; stroke-linecap:round; stroke-linejoin:round; stroke-width:2; stroke-opacity:0.1; fill:none" points="240.4,1688.65 2640.76,1688.65 "/>
<polyline clip-path="url(#clip091)" style="stroke:#000000; stroke-linecap:round; stroke-linejoin:round; stroke-width:2; stroke-opacity:0.1; fill:none" points="240.4,1307.9 2640.76,1307.9 "/>
<polyline clip-path="url(#clip091)" style="stroke:#000000; stroke-linecap:round; stroke-linejoin:round; stroke-width:2; stroke-opacity:0.1; fill:none" points="240.4,927.147 2640.76,927.147 "/>
<polyline clip-path="url(#clip091)" style="stroke:#000000; stroke-linecap:round; stroke-linejoin:round; stroke-width:2; stroke-opacity:0.1; fill:none" points="240.4,546.393 2640.76,546.393 "/>
<polyline clip-path="url(#clip091)" style="stroke:#000000; stroke-linecap:round; stroke-linejoin:round; stroke-width:2; stroke-opacity:0.1; fill:none" points="240.4,165.639 2640.76,165.639 "/>
<polyline clip-path="url(#clip090)" style="stroke:#000000; stroke-linecap:round; stroke-linejoin:round; stroke-width:4; stroke-opacity:1; fill:none" points="240.4,1734.12 2640.76,1734.12 "/>
<polyline clip-path="url(#clip090)" style="stroke:#000000; stroke-linecap:round; stroke-linejoin:round; stroke-width:4; stroke-opacity:1; fill:none" points="308.334,1734.12 308.334,1715.22 "/>
<polyline clip-path="url(#clip090)" style="stroke:#000000; stroke-linecap:round; stroke-linejoin:round; stroke-width:4; stroke-opacity:1; fill:none" points="874.456,1734.12 874.456,1715.22 "/>
<polyline clip-path="url(#clip090)" style="stroke:#000000; stroke-linecap:round; stroke-linejoin:round; stroke-width:4; stroke-opacity:1; fill:none" points="1440.58,1734.12 1440.58,1715.22 "/>
<polyline clip-path="url(#clip090)" style="stroke:#000000; stroke-linecap:round; stroke-linejoin:round; stroke-width:4; stroke-opacity:1; fill:none" points="2006.7,1734.12 2006.7,1715.22 "/>
<polyline clip-path="url(#clip090)" style="stroke:#000000; stroke-linecap:round; stroke-linejoin:round; stroke-width:4; stroke-opacity:1; fill:none" points="2572.82,1734.12 2572.82,1715.22 "/>
<path clip-path="url(#clip090)" d="M308.334 1767.34 Q304.723 1767.34 302.895 1770.9 Q301.089 1774.45 301.089 1781.58 Q301.089 1788.68 302.895 1792.25 Q304.723 1795.79 308.334 1795.79 Q311.969 1795.79 313.774 1792.25 Q315.603 1788.68 315.603 1781.58 Q315.603 1774.45 313.774 1770.9 Q311.969 1767.34 308.334 1767.34 M308.334 1763.64 Q314.144 1763.64 317.2 1768.24 Q320.279 1772.83 320.279 1781.58 Q320.279 1790.3 317.2 1794.91 Q314.144 1799.49 308.334 1799.49 Q302.524 1799.49 299.446 1794.91 Q296.39 1790.3 296.39 1781.58 Q296.39 1772.83 299.446 1768.24 Q302.524 1763.64 308.334 1763.64 Z" fill="#000000" fill-rule="nonzero" fill-opacity="1" /><path clip-path="url(#clip090)" d="M853.727 1794.89 L870.046 1794.89 L870.046 1798.82 L848.102 1798.82 L848.102 1794.89 Q850.764 1792.13 855.347 1787.5 Q859.954 1782.85 861.134 1781.51 Q863.38 1778.98 864.259 1777.25 Q865.162 1775.49 865.162 1773.8 Q865.162 1771.04 863.218 1769.31 Q861.296 1767.57 858.195 1767.57 Q855.996 1767.57 853.542 1768.34 Q851.111 1769.1 848.334 1770.65 L848.334 1765.93 Q851.158 1764.79 853.611 1764.21 Q856.065 1763.64 858.102 1763.64 Q863.472 1763.64 866.667 1766.32 Q869.861 1769.01 869.861 1773.5 Q869.861 1775.63 869.051 1777.55 Q868.264 1779.45 866.158 1782.04 Q865.579 1782.71 862.477 1785.93 Q859.375 1789.12 853.727 1794.89 Z" fill="#000000" fill-rule="nonzero" fill-opacity="1" /><path clip-path="url(#clip090)" d="M879.907 1764.26 L898.264 1764.26 L898.264 1768.2 L884.19 1768.2 L884.19 1776.67 Q885.208 1776.32 886.227 1776.16 Q887.245 1775.97 888.264 1775.97 Q894.051 1775.97 897.43 1779.15 Q900.81 1782.32 900.81 1787.73 Q900.81 1793.31 897.338 1796.41 Q893.866 1799.49 887.546 1799.49 Q885.37 1799.49 883.102 1799.12 Q880.857 1798.75 878.449 1798.01 L878.449 1793.31 Q880.532 1794.45 882.755 1795 Q884.977 1795.56 887.454 1795.56 Q891.458 1795.56 893.796 1793.45 Q896.134 1791.34 896.134 1787.73 Q896.134 1784.12 893.796 1782.02 Q891.458 1779.91 887.454 1779.91 Q885.579 1779.91 883.704 1780.33 Q881.852 1780.74 879.907 1781.62 L879.907 1764.26 Z" fill="#000000" fill-rule="nonzero" fill-opacity="1" /><path clip-path="url(#clip090)" d="M1415.28 1764.26 L1433.63 1764.26 L1433.63 1768.2 L1419.56 1768.2 L1419.56 1776.67 Q1420.58 1776.32 1421.6 1776.16 Q1422.61 1775.97 1423.63 1775.97 Q1429.42 1775.97 1432.8 1779.15 Q1436.18 1782.32 1436.18 1787.73 Q1436.18 1793.31 1432.71 1796.41 Q1429.24 1799.49 1422.92 1799.49 Q1420.74 1799.49 1418.47 1799.12 Q1416.23 1798.75 1413.82 1798.01 L1413.82 1793.31 Q1415.9 1794.45 1418.12 1795 Q1420.35 1795.56 1422.82 1795.56 Q1426.83 1795.56 1429.17 1793.45 Q1431.5 1791.34 1431.5 1787.73 Q1431.5 1784.12 1429.17 1782.02 Q1426.83 1779.91 1422.82 1779.91 Q1420.95 1779.91 1419.07 1780.33 Q1417.22 1780.74 1415.28 1781.62 L1415.28 1764.26 Z" fill="#000000" fill-rule="nonzero" fill-opacity="1" /><path clip-path="url(#clip090)" d="M1455.39 1767.34 Q1451.78 1767.34 1449.95 1770.9 Q1448.15 1774.45 1448.15 1781.58 Q1448.15 1788.68 1449.95 1792.25 Q1451.78 1795.79 1455.39 1795.79 Q1459.03 1795.79 1460.83 1792.25 Q1462.66 1788.68 1462.66 1781.58 Q1462.66 1774.45 1460.83 1770.9 Q1459.03 1767.34 1455.39 1767.34 M1455.39 1763.64 Q1461.2 1763.64 1464.26 1768.24 Q1467.34 1772.83 1467.34 1781.58 Q1467.34 1790.3 1464.26 1794.91 Q1461.2 1799.49 1455.39 1799.49 Q1449.58 1799.49 1446.5 1794.91 Q1443.45 1790.3 1443.45 1781.58 Q1443.45 1772.83 1446.5 1768.24 Q1449.58 1763.64 1455.39 1763.64 Z" fill="#000000" fill-rule="nonzero" fill-opacity="1" /><path clip-path="url(#clip090)" d="M1980.55 1764.26 L2002.78 1764.26 L2002.78 1766.25 L1990.23 1798.82 L1985.35 1798.82 L1997.15 1768.2 L1980.55 1768.2 L1980.55 1764.26 Z" fill="#000000" fill-rule="nonzero" fill-opacity="1" /><path clip-path="url(#clip090)" d="M2011.94 1764.26 L2030.3 1764.26 L2030.3 1768.2 L2016.22 1768.2 L2016.22 1776.67 Q2017.24 1776.32 2018.26 1776.16 Q2019.28 1775.97 2020.3 1775.97 Q2026.09 1775.97 2029.47 1779.15 Q2032.85 1782.32 2032.85 1787.73 Q2032.85 1793.31 2029.37 1796.41 Q2025.9 1799.49 2019.58 1799.49 Q2017.41 1799.49 2015.14 1799.12 Q2012.89 1798.75 2010.48 1798.01 L2010.48 1793.31 Q2012.57 1794.45 2014.79 1795 Q2017.01 1795.56 2019.49 1795.56 Q2023.49 1795.56 2025.83 1793.45 Q2028.17 1791.34 2028.17 1787.73 Q2028.17 1784.12 2025.83 1782.02 Q2023.49 1779.91 2019.49 1779.91 Q2017.61 1779.91 2015.74 1780.33 Q2013.89 1780.74 2011.94 1781.62 L2011.94 1764.26 Z" fill="#000000" fill-rule="nonzero" fill-opacity="1" /><path clip-path="url(#clip090)" d="M2532.43 1794.89 L2540.07 1794.89 L2540.07 1768.52 L2531.76 1770.19 L2531.76 1765.93 L2540.02 1764.26 L2544.7 1764.26 L2544.7 1794.89 L2552.34 1794.89 L2552.34 1798.82 L2532.43 1798.82 L2532.43 1794.89 Z" fill="#000000" fill-rule="nonzero" fill-opacity="1" /><path clip-path="url(#clip090)" d="M2571.78 1767.34 Q2568.17 1767.34 2566.34 1770.9 Q2564.53 1774.45 2564.53 1781.58 Q2564.53 1788.68 2566.34 1792.25 Q2568.17 1795.79 2571.78 1795.79 Q2575.41 1795.79 2577.22 1792.25 Q2579.05 1788.68 2579.05 1781.58 Q2579.05 1774.45 2577.22 1770.9 Q2575.41 1767.34 2571.78 1767.34 M2571.78 1763.64 Q2577.59 1763.64 2580.65 1768.24 Q2583.72 1772.83 2583.72 1781.58 Q2583.72 1790.3 2580.65 1794.91 Q2577.59 1799.49 2571.78 1799.49 Q2565.97 1799.49 2562.89 1794.91 Q2559.84 1790.3 2559.84 1781.58 Q2559.84 1772.83 2562.89 1768.24 Q2565.97 1763.64 2571.78 1763.64 Z" fill="#000000" fill-rule="nonzero" fill-opacity="1" /><path clip-path="url(#clip090)" d="M2601.94 1767.34 Q2598.33 1767.34 2596.5 1770.9 Q2594.7 1774.45 2594.7 1781.58 Q2594.7 1788.68 2596.5 1792.25 Q2598.33 1795.79 2601.94 1795.79 Q2605.58 1795.79 2607.38 1792.25 Q2609.21 1788.68 2609.21 1781.58 Q2609.21 1774.45 2607.38 1770.9 Q2605.58 1767.34 2601.94 1767.34 M2601.94 1763.64 Q2607.75 1763.64 2610.81 1768.24 Q2613.89 1772.83 2613.89 1781.58 Q2613.89 1790.3 2610.81 1794.91 Q2607.75 1799.49 2601.94 1799.49 Q2596.13 1799.49 2593.05 1794.91 Q2590 1790.3 2590 1781.58 Q2590 1772.83 2593.05 1768.24 Q2596.13 1763.64 2601.94 1763.64 Z" fill="#000000" fill-rule="nonzero" fill-opacity="1" /><path clip-path="url(#clip090)" d="M1362.45 1835.78 L1402.65 1835.78 L1402.65 1841.19 L1385.79 1841.19 L1385.79 1883.3 L1379.32 1883.3 L1379.32 1841.19 L1362.45 1841.19 L1362.45 1835.78 Z" fill="#000000" fill-rule="nonzero" fill-opacity="1" /><path clip-path="url(#clip090)" d="M1406.6 1847.65 L1412.46 1847.65 L1412.46 1883.3 L1406.6 1883.3 L1406.6 1847.65 M1406.6 1833.78 L1412.46 1833.78 L1412.46 1841.19 L1406.6 1841.19 L1406.6 1833.78 Z" fill="#000000" fill-rule="nonzero" fill-opacity="1" /><path clip-path="url(#clip090)" d="M1452.47 1854.5 Q1454.66 1850.55 1457.72 1848.67 Q1460.77 1846.79 1464.91 1846.79 Q1470.48 1846.79 1473.5 1850.71 Q1476.53 1854.59 1476.53 1861.78 L1476.53 1883.3 L1470.64 1883.3 L1470.64 1861.98 Q1470.64 1856.85 1468.83 1854.37 Q1467.01 1851.89 1463.29 1851.89 Q1458.74 1851.89 1456.09 1854.91 Q1453.45 1857.93 1453.45 1863.15 L1453.45 1883.3 L1447.56 1883.3 L1447.56 1861.98 Q1447.56 1856.82 1445.75 1854.37 Q1443.94 1851.89 1440.15 1851.89 Q1435.66 1851.89 1433.02 1854.94 Q1430.38 1857.97 1430.38 1863.15 L1430.38 1883.3 L1424.49 1883.3 L1424.49 1847.65 L1430.38 1847.65 L1430.38 1853.19 Q1432.38 1849.91 1435.18 1848.35 Q1437.98 1846.79 1441.84 1846.79 Q1445.72 1846.79 1448.42 1848.77 Q1451.16 1850.74 1452.47 1854.5 Z" fill="#000000" fill-rule="nonzero" fill-opacity="1" /><path clip-path="url(#clip090)" d="M1518.7 1864.01 L1518.7 1866.88 L1491.77 1866.88 Q1492.16 1872.92 1495.4 1876.11 Q1498.68 1879.26 1504.51 1879.26 Q1507.88 1879.26 1511.03 1878.43 Q1514.21 1877.6 1517.33 1875.95 L1517.33 1881.49 Q1514.18 1882.82 1510.87 1883.52 Q1507.56 1884.22 1504.16 1884.22 Q1495.63 1884.22 1490.63 1879.26 Q1485.66 1874.29 1485.66 1865.83 Q1485.66 1857.07 1490.37 1851.95 Q1495.12 1846.79 1503.14 1846.79 Q1510.33 1846.79 1514.5 1851.44 Q1518.7 1856.06 1518.7 1864.01 M1512.84 1862.29 Q1512.78 1857.49 1510.14 1854.62 Q1507.53 1851.76 1503.2 1851.76 Q1498.3 1851.76 1495.34 1854.53 Q1492.41 1857.3 1491.96 1862.33 L1512.84 1862.29 Z" fill="#000000" fill-rule="nonzero" fill-opacity="1" /><polyline clip-path="url(#clip090)" style="stroke:#000000; stroke-linecap:round; stroke-linejoin:round; stroke-width:4; stroke-opacity:1; fill:none" points="240.4,1734.12 240.4,127.792 "/>
<polyline clip-path="url(#clip090)" style="stroke:#000000; stroke-linecap:round; stroke-linejoin:round; stroke-width:4; stroke-opacity:1; fill:none" points="240.4,1688.65 259.297,1688.65 "/>
<polyline clip-path="url(#clip090)" style="stroke:#000000; stroke-linecap:round; stroke-linejoin:round; stroke-width:4; stroke-opacity:1; fill:none" points="240.4,1307.9 259.297,1307.9 "/>
<polyline clip-path="url(#clip090)" style="stroke:#000000; stroke-linecap:round; stroke-linejoin:round; stroke-width:4; stroke-opacity:1; fill:none" points="240.4,927.147 259.297,927.147 "/>
<polyline clip-path="url(#clip090)" style="stroke:#000000; stroke-linecap:round; stroke-linejoin:round; stroke-width:4; stroke-opacity:1; fill:none" points="240.4,546.393 259.297,546.393 "/>
<polyline clip-path="url(#clip090)" style="stroke:#000000; stroke-linecap:round; stroke-linejoin:round; stroke-width:4; stroke-opacity:1; fill:none" points="240.4,165.639 259.297,165.639 "/>
<path clip-path="url(#clip090)" d="M188.135 1674.45 Q184.524 1674.45 182.696 1678.02 Q180.89 1681.56 180.89 1688.69 Q180.89 1695.8 182.696 1699.36 Q184.524 1702.9 188.135 1702.9 Q191.77 1702.9 193.575 1699.36 Q195.404 1695.8 195.404 1688.69 Q195.404 1681.56 193.575 1678.02 Q191.77 1674.45 188.135 1674.45 M188.135 1670.75 Q193.946 1670.75 197.001 1675.36 Q200.08 1679.94 200.08 1688.69 Q200.08 1697.42 197.001 1702.02 Q193.946 1706.61 188.135 1706.61 Q182.325 1706.61 179.247 1702.02 Q176.191 1697.42 176.191 1688.69 Q176.191 1679.94 179.247 1675.36 Q182.325 1670.75 188.135 1670.75 Z" fill="#000000" fill-rule="nonzero" fill-opacity="1" /><path clip-path="url(#clip090)" d="M148.02 1290.62 L166.376 1290.62 L166.376 1294.56 L152.302 1294.56 L152.302 1303.03 Q153.321 1302.68 154.339 1302.52 Q155.358 1302.33 156.376 1302.33 Q162.163 1302.33 165.543 1305.51 Q168.922 1308.68 168.922 1314.09 Q168.922 1319.67 165.45 1322.77 Q161.978 1325.85 155.659 1325.85 Q153.483 1325.85 151.214 1325.48 Q148.969 1325.11 146.562 1324.37 L146.562 1319.67 Q148.645 1320.81 150.867 1321.36 Q153.089 1321.92 155.566 1321.92 Q159.571 1321.92 161.909 1319.81 Q164.247 1317.7 164.247 1314.09 Q164.247 1310.48 161.909 1308.38 Q159.571 1306.27 155.566 1306.27 Q153.691 1306.27 151.816 1306.69 Q149.964 1307.1 148.02 1307.98 L148.02 1290.62 Z" fill="#000000" fill-rule="nonzero" fill-opacity="1" /><path clip-path="url(#clip090)" d="M188.135 1293.7 Q184.524 1293.7 182.696 1297.26 Q180.89 1300.81 180.89 1307.94 Q180.89 1315.04 182.696 1318.61 Q184.524 1322.15 188.135 1322.15 Q191.77 1322.15 193.575 1318.61 Q195.404 1315.04 195.404 1307.94 Q195.404 1300.81 193.575 1297.26 Q191.77 1293.7 188.135 1293.7 M188.135 1290 Q193.946 1290 197.001 1294.6 Q200.08 1299.19 200.08 1307.94 Q200.08 1316.66 197.001 1321.27 Q193.946 1325.85 188.135 1325.85 Q182.325 1325.85 179.247 1321.27 Q176.191 1316.66 176.191 1307.94 Q176.191 1299.19 179.247 1294.6 Q182.325 1290 188.135 1290 Z" fill="#000000" fill-rule="nonzero" fill-opacity="1" /><path clip-path="url(#clip090)" d="M118.622 940.492 L126.261 940.492 L126.261 914.126 L117.951 915.793 L117.951 911.534 L126.214 909.867 L130.89 909.867 L130.89 940.492 L138.529 940.492 L138.529 944.427 L118.622 944.427 L118.622 940.492 Z" fill="#000000" fill-rule="nonzero" fill-opacity="1" /><path clip-path="url(#clip090)" d="M157.973 912.946 Q154.362 912.946 152.534 916.51 Q150.728 920.052 150.728 927.182 Q150.728 934.288 152.534 937.853 Q154.362 941.395 157.973 941.395 Q161.608 941.395 163.413 937.853 Q165.242 934.288 165.242 927.182 Q165.242 920.052 163.413 916.51 Q161.608 912.946 157.973 912.946 M157.973 909.242 Q163.784 909.242 166.839 913.848 Q169.918 918.432 169.918 927.182 Q169.918 935.909 166.839 940.515 Q163.784 945.098 157.973 945.098 Q152.163 945.098 149.085 940.515 Q146.029 935.909 146.029 927.182 Q146.029 918.432 149.085 913.848 Q152.163 909.242 157.973 909.242 Z" fill="#000000" fill-rule="nonzero" fill-opacity="1" /><path clip-path="url(#clip090)" d="M188.135 912.946 Q184.524 912.946 182.696 916.51 Q180.89 920.052 180.89 927.182 Q180.89 934.288 182.696 937.853 Q184.524 941.395 188.135 941.395 Q191.77 941.395 193.575 937.853 Q195.404 934.288 195.404 927.182 Q195.404 920.052 193.575 916.51 Q191.77 912.946 188.135 912.946 M188.135 909.242 Q193.946 909.242 197.001 913.848 Q200.08 918.432 200.08 927.182 Q200.08 935.909 197.001 940.515 Q193.946 945.098 188.135 945.098 Q182.325 945.098 179.247 940.515 Q176.191 935.909 176.191 927.182 Q176.191 918.432 179.247 913.848 Q182.325 909.242 188.135 909.242 Z" fill="#000000" fill-rule="nonzero" fill-opacity="1" /><path clip-path="url(#clip090)" d="M118.622 559.738 L126.261 559.738 L126.261 533.372 L117.951 535.039 L117.951 530.78 L126.214 529.113 L130.89 529.113 L130.89 559.738 L138.529 559.738 L138.529 563.673 L118.622 563.673 L118.622 559.738 Z" fill="#000000" fill-rule="nonzero" fill-opacity="1" /><path clip-path="url(#clip090)" d="M148.02 529.113 L166.376 529.113 L166.376 533.048 L152.302 533.048 L152.302 541.52 Q153.321 541.173 154.339 541.011 Q155.358 540.826 156.376 540.826 Q162.163 540.826 165.543 543.997 Q168.922 547.169 168.922 552.585 Q168.922 558.164 165.45 561.266 Q161.978 564.344 155.659 564.344 Q153.483 564.344 151.214 563.974 Q148.969 563.604 146.562 562.863 L146.562 558.164 Q148.645 559.298 150.867 559.854 Q153.089 560.409 155.566 560.409 Q159.571 560.409 161.909 558.303 Q164.247 556.196 164.247 552.585 Q164.247 548.974 161.909 546.868 Q159.571 544.761 155.566 544.761 Q153.691 544.761 151.816 545.178 Q149.964 545.594 148.02 546.474 L148.02 529.113 Z" fill="#000000" fill-rule="nonzero" fill-opacity="1" /><path clip-path="url(#clip090)" d="M188.135 532.192 Q184.524 532.192 182.696 535.757 Q180.89 539.298 180.89 546.428 Q180.89 553.534 182.696 557.099 Q184.524 560.641 188.135 560.641 Q191.77 560.641 193.575 557.099 Q195.404 553.534 195.404 546.428 Q195.404 539.298 193.575 535.757 Q191.77 532.192 188.135 532.192 M188.135 528.488 Q193.946 528.488 197.001 533.095 Q200.08 537.678 200.08 546.428 Q200.08 555.155 197.001 559.761 Q193.946 564.344 188.135 564.344 Q182.325 564.344 179.247 559.761 Q176.191 555.155 176.191 546.428 Q176.191 537.678 179.247 533.095 Q182.325 528.488 188.135 528.488 Z" fill="#000000" fill-rule="nonzero" fill-opacity="1" /><path clip-path="url(#clip090)" d="M121.839 178.984 L138.159 178.984 L138.159 182.919 L116.214 182.919 L116.214 178.984 Q118.876 176.229 123.46 171.6 Q128.066 166.947 129.247 165.604 Q131.492 163.081 132.372 161.345 Q133.275 159.586 133.275 157.896 Q133.275 155.141 131.33 153.405 Q129.409 151.669 126.307 151.669 Q124.108 151.669 121.654 152.433 Q119.224 153.197 116.446 154.748 L116.446 150.026 Q119.27 148.891 121.724 148.313 Q124.177 147.734 126.214 147.734 Q131.585 147.734 134.779 150.419 Q137.974 153.104 137.974 157.595 Q137.974 159.725 137.163 161.646 Q136.376 163.544 134.27 166.137 Q133.691 166.808 130.589 170.026 Q127.488 173.22 121.839 178.984 Z" fill="#000000" fill-rule="nonzero" fill-opacity="1" /><path clip-path="url(#clip090)" d="M157.973 151.438 Q154.362 151.438 152.534 155.003 Q150.728 158.544 150.728 165.674 Q150.728 172.78 152.534 176.345 Q154.362 179.887 157.973 179.887 Q161.608 179.887 163.413 176.345 Q165.242 172.78 165.242 165.674 Q165.242 158.544 163.413 155.003 Q161.608 151.438 157.973 151.438 M157.973 147.734 Q163.784 147.734 166.839 152.341 Q169.918 156.924 169.918 165.674 Q169.918 174.401 166.839 179.007 Q163.784 183.59 157.973 183.59 Q152.163 183.59 149.085 179.007 Q146.029 174.401 146.029 165.674 Q146.029 156.924 149.085 152.341 Q152.163 147.734 157.973 147.734 Z" fill="#000000" fill-rule="nonzero" fill-opacity="1" /><path clip-path="url(#clip090)" d="M188.135 151.438 Q184.524 151.438 182.696 155.003 Q180.89 158.544 180.89 165.674 Q180.89 172.78 182.696 176.345 Q184.524 179.887 188.135 179.887 Q191.77 179.887 193.575 176.345 Q195.404 172.78 195.404 165.674 Q195.404 158.544 193.575 155.003 Q191.77 151.438 188.135 151.438 M188.135 147.734 Q193.946 147.734 197.001 152.341 Q200.08 156.924 200.08 165.674 Q200.08 174.401 197.001 179.007 Q193.946 183.59 188.135 183.59 Q182.325 183.59 179.247 179.007 Q176.191 174.401 176.191 165.674 Q176.191 156.924 179.247 152.341 Q182.325 147.734 188.135 147.734 Z" fill="#000000" fill-rule="nonzero" fill-opacity="1" /><path clip-path="url(#clip090)" d="M14.1184 1055.09 L14.1184 1027.78 L19.5293 1027.78 L19.5293 1048.66 L33.5338 1048.66 L33.5338 1029.81 L38.9447 1029.81 L38.9447 1048.66 L61.6384 1048.66 L61.6384 1055.09 L14.1184 1055.09 Z" fill="#000000" fill-rule="nonzero" fill-opacity="1" /><path clip-path="url(#clip090)" d="M31.465 1001.93 Q30.8921 1002.92 30.6375 1004.1 Q30.351 1005.24 30.351 1006.64 Q30.351 1011.61 33.5975 1014.28 Q36.8122 1016.92 42.8596 1016.92 L61.6384 1016.92 L61.6384 1022.81 L25.9905 1022.81 L25.9905 1016.92 L31.5287 1016.92 Q28.2821 1015.08 26.7225 1012.12 Q25.1311 1009.16 25.1311 1004.92 Q25.1311 1004.32 25.2266 1003.59 Q25.2903 1002.86 25.4494 1001.96 L31.465 1001.93 Z" fill="#000000" fill-rule="nonzero" fill-opacity="1" /><path clip-path="url(#clip090)" d="M43.719 979.589 Q43.719 986.686 45.3422 989.424 Q46.9655 992.161 50.8804 992.161 Q53.9996 992.161 55.8457 990.124 Q57.6599 988.055 57.6599 984.522 Q57.6599 979.652 54.2224 976.724 Q50.7531 973.764 45.0239 973.764 L43.719 973.764 L43.719 979.589 M41.3 967.907 L61.6384 967.907 L61.6384 973.764 L56.2276 973.764 Q59.4741 975.769 61.0337 978.761 Q62.5615 981.753 62.5615 986.082 Q62.5615 991.556 59.5059 994.803 Q56.4186 998.017 51.2623 998.017 Q45.2467 998.017 42.1912 994.007 Q39.1357 989.965 39.1357 981.976 L39.1357 973.764 L38.5628 973.764 Q34.5205 973.764 32.3244 976.438 Q30.0964 979.079 30.0964 983.885 Q30.0964 986.941 30.8284 989.837 Q31.5605 992.734 33.0246 995.407 L27.6137 995.407 Q26.3724 992.193 25.7677 989.169 Q25.1311 986.145 25.1311 983.281 Q25.1311 975.546 29.1415 971.727 Q33.1519 967.907 41.3 967.907 Z" fill="#000000" fill-rule="nonzero" fill-opacity="1" /><path clip-path="url(#clip090)" d="M27.3591 930.191 L32.8336 930.191 Q31.465 932.673 30.7966 935.188 Q30.0964 937.67 30.0964 940.217 Q30.0964 945.914 33.7248 949.065 Q37.3214 952.216 43.8463 952.216 Q50.3711 952.216 53.9996 949.065 Q57.5962 945.914 57.5962 940.217 Q57.5962 937.67 56.9278 935.188 Q56.2276 932.673 54.859 930.191 L60.2698 930.191 Q61.4156 932.641 61.9886 935.283 Q62.5615 937.893 62.5615 940.853 Q62.5615 948.906 57.5007 953.648 Q52.44 958.391 43.8463 958.391 Q35.1253 958.391 30.1282 953.616 Q25.1311 948.81 25.1311 940.471 Q25.1311 937.766 25.704 935.188 Q26.2451 932.61 27.3591 930.191 Z" fill="#000000" fill-rule="nonzero" fill-opacity="1" /><path clip-path="url(#clip090)" d="M15.869 914.213 L25.9905 914.213 L25.9905 902.15 L30.542 902.15 L30.542 914.213 L49.8937 914.213 Q54.2542 914.213 55.4955 913.035 Q56.7368 911.826 56.7368 908.165 L56.7368 902.15 L61.6384 902.15 L61.6384 908.165 Q61.6384 914.945 59.124 917.523 Q56.5777 920.101 49.8937 920.101 L30.542 920.101 L30.542 924.398 L25.9905 924.398 L25.9905 920.101 L15.869 920.101 L15.869 914.213 Z" fill="#000000" fill-rule="nonzero" fill-opacity="1" /><path clip-path="url(#clip090)" d="M25.9905 894.447 L25.9905 888.591 L61.6384 888.591 L61.6384 894.447 L25.9905 894.447 M12.1132 894.447 L12.1132 888.591 L19.5293 888.591 L19.5293 894.447 L12.1132 894.447 Z" fill="#000000" fill-rule="nonzero" fill-opacity="1" /><path clip-path="url(#clip090)" d="M30.0964 862.523 Q30.0964 867.234 33.7885 869.971 Q37.4488 872.708 43.8463 872.708 Q50.2438 872.708 53.9359 870.003 Q57.5962 867.266 57.5962 862.523 Q57.5962 857.844 53.9041 855.107 Q50.212 852.37 43.8463 852.37 Q37.5124 852.37 33.8203 855.107 Q30.0964 857.844 30.0964 862.523 M25.1311 862.523 Q25.1311 854.884 30.0964 850.524 Q35.0616 846.163 43.8463 846.163 Q52.5991 846.163 57.5962 850.524 Q62.5615 854.884 62.5615 862.523 Q62.5615 870.194 57.5962 874.554 Q52.5991 878.883 43.8463 878.883 Q35.0616 878.883 30.0964 874.554 Q25.1311 870.194 25.1311 862.523 Z" fill="#000000" fill-rule="nonzero" fill-opacity="1" /><path clip-path="url(#clip090)" d="M40.1224 806.823 L61.6384 806.823 L61.6384 812.68 L40.3133 812.68 Q35.2526 812.68 32.7381 814.653 Q30.2237 816.626 30.2237 820.573 Q30.2237 825.316 33.2474 828.053 Q36.2711 830.79 41.491 830.79 L61.6384 830.79 L61.6384 836.678 L25.9905 836.678 L25.9905 830.79 L31.5287 830.79 Q28.314 828.689 26.7225 825.857 Q25.1311 822.992 25.1311 819.268 Q25.1311 813.125 28.9505 809.974 Q32.7381 806.823 40.1224 806.823 Z" fill="#000000" fill-rule="nonzero" fill-opacity="1" /><path clip-path="url(#clip090)" d="M968.465 14.0809 L968.465 22.0612 Q963.807 19.8332 959.675 18.7395 Q955.543 17.6457 951.694 17.6457 Q945.01 17.6457 941.365 20.2383 Q937.759 22.8309 937.759 27.611 Q937.759 31.6214 940.149 33.6873 Q942.58 35.7128 949.304 36.9686 L954.247 37.9813 Q963.402 39.7232 967.736 44.1387 Q972.111 48.5136 972.111 55.8863 Q972.111 64.6767 966.197 69.2137 Q960.323 73.7508 948.94 73.7508 Q944.646 73.7508 939.785 72.7785 Q934.964 71.8063 929.779 69.9024 L929.779 61.4765 Q934.762 64.2716 939.542 65.6895 Q944.322 67.1073 948.94 67.1073 Q955.948 67.1073 959.756 64.3527 Q963.564 61.598 963.564 56.4939 Q963.564 52.0379 960.809 49.5264 Q958.095 47.0148 951.856 45.759 L946.874 44.7868 Q937.719 42.9639 933.627 39.075 Q929.536 35.1862 929.536 28.2591 Q929.536 20.2383 935.167 15.6203 Q940.838 11.0023 950.763 11.0023 Q955.016 11.0023 959.432 11.7719 Q963.847 12.5416 968.465 14.0809 Z" fill="#000000" fill-rule="nonzero" fill-opacity="1" /><path clip-path="url(#clip090)" d="M984.871 12.096 L993.054 12.096 L993.054 72.576 L984.871 72.576 L984.871 12.096 Z" fill="#000000" fill-rule="nonzero" fill-opacity="1" /><path clip-path="url(#clip090)" d="M1038.02 44.2197 Q1040.65 45.1109 1043.12 48.0275 Q1045.63 50.9442 1048.15 56.0483 L1056.45 72.576 L1047.66 72.576 L1039.92 57.061 Q1036.93 50.9847 1034.09 48.9997 Q1031.29 47.0148 1026.43 47.0148 L1017.52 47.0148 L1017.52 72.576 L1009.34 72.576 L1009.34 12.096 L1027.81 12.096 Q1038.18 12.096 1043.29 16.4305 Q1048.39 20.7649 1048.39 29.5149 Q1048.39 35.2267 1045.72 38.994 Q1043.08 42.7613 1038.02 44.2197 M1017.52 18.8205 L1017.52 40.2903 L1027.81 40.2903 Q1033.73 40.2903 1036.72 37.5762 Q1039.76 34.8216 1039.76 29.5149 Q1039.76 24.2082 1036.72 21.5346 Q1033.73 18.8205 1027.81 18.8205 L1017.52 18.8205 Z" fill="#000000" fill-rule="nonzero" fill-opacity="1" /><path clip-path="url(#clip090)" d="M1078.04 72.576 L1054.95 12.096 L1063.5 12.096 L1082.66 63.0159 L1101.86 12.096 L1110.37 12.096 L1087.32 72.576 L1078.04 72.576 Z" fill="#000000" fill-rule="nonzero" fill-opacity="1" /><path clip-path="url(#clip090)" d="M1180.57 35.9153 Q1183.37 30.8922 1187.25 28.5022 Q1191.14 26.1121 1196.41 26.1121 Q1203.5 26.1121 1207.35 31.0947 Q1211.2 36.0368 1211.2 45.1919 L1211.2 72.576 L1203.7 72.576 L1203.7 45.4349 Q1203.7 38.913 1201.39 35.7533 Q1199.08 32.5936 1194.34 32.5936 Q1188.55 32.5936 1185.19 36.4419 Q1181.83 40.2903 1181.83 46.9338 L1181.83 72.576 L1174.33 72.576 L1174.33 45.4349 Q1174.33 38.8725 1172.02 35.7533 Q1169.71 32.5936 1164.89 32.5936 Q1159.18 32.5936 1155.82 36.4824 Q1152.46 40.3308 1152.46 46.9338 L1152.46 72.576 L1144.96 72.576 L1144.96 27.2059 L1152.46 27.2059 L1152.46 34.2544 Q1155.01 30.082 1158.57 28.0971 Q1162.14 26.1121 1167.04 26.1121 Q1171.98 26.1121 1175.43 28.6237 Q1178.91 31.1352 1180.57 35.9153 Z" fill="#000000" fill-rule="nonzero" fill-opacity="1" /><path clip-path="url(#clip090)" d="M1243.64 32.4315 Q1237.65 32.4315 1234.16 37.1306 Q1230.68 41.7891 1230.68 49.9314 Q1230.68 58.0738 1234.12 62.7728 Q1237.61 67.4314 1243.64 67.4314 Q1249.6 67.4314 1253.08 62.7323 Q1256.57 58.0333 1256.57 49.9314 Q1256.57 41.8701 1253.08 37.1711 Q1249.6 32.4315 1243.64 32.4315 M1243.64 26.1121 Q1253.37 26.1121 1258.92 32.4315 Q1264.46 38.7509 1264.46 49.9314 Q1264.46 61.0714 1258.92 67.4314 Q1253.37 73.7508 1243.64 73.7508 Q1233.88 73.7508 1228.33 67.4314 Q1222.82 61.0714 1222.82 49.9314 Q1222.82 38.7509 1228.33 32.4315 Q1233.88 26.1121 1243.64 26.1121 Z" fill="#000000" fill-rule="nonzero" fill-opacity="1" /><path clip-path="url(#clip090)" d="M1306.68 34.0924 L1306.68 9.54393 L1314.13 9.54393 L1314.13 72.576 L1306.68 72.576 L1306.68 65.7705 Q1304.33 69.8214 1300.72 71.8063 Q1297.16 73.7508 1292.13 73.7508 Q1283.91 73.7508 1278.72 67.1883 Q1273.58 60.6258 1273.58 49.9314 Q1273.58 39.2371 1278.72 32.6746 Q1283.91 26.1121 1292.13 26.1121 Q1297.16 26.1121 1300.72 28.0971 Q1304.33 30.0415 1306.68 34.0924 M1281.28 49.9314 Q1281.28 58.1548 1284.64 62.8538 Q1288.04 67.5124 1293.96 67.5124 Q1299.87 67.5124 1303.27 62.8538 Q1306.68 58.1548 1306.68 49.9314 Q1306.68 41.7081 1303.27 37.0496 Q1299.87 32.3505 1293.96 32.3505 Q1288.04 32.3505 1284.64 37.0496 Q1281.28 41.7081 1281.28 49.9314 Z" fill="#000000" fill-rule="nonzero" fill-opacity="1" /><path clip-path="url(#clip090)" d="M1368.29 48.0275 L1368.29 51.6733 L1334.02 51.6733 Q1334.5 59.3701 1338.64 63.421 Q1342.81 67.4314 1350.22 67.4314 Q1354.52 67.4314 1358.53 66.3781 Q1362.58 65.3249 1366.55 63.2184 L1366.55 70.267 Q1362.54 71.9684 1358.32 72.8596 Q1354.11 73.7508 1349.78 73.7508 Q1338.92 73.7508 1332.56 67.4314 Q1326.24 61.1119 1326.24 50.3365 Q1326.24 39.1965 1332.24 32.6746 Q1338.27 26.1121 1348.48 26.1121 Q1357.64 26.1121 1362.94 32.0264 Q1368.29 37.9003 1368.29 48.0275 M1360.84 45.84 Q1360.75 39.7232 1357.39 36.0774 Q1354.07 32.4315 1348.56 32.4315 Q1342.32 32.4315 1338.56 35.9558 Q1334.83 39.4801 1334.26 45.8805 L1360.84 45.84 Z" fill="#000000" fill-rule="nonzero" fill-opacity="1" /><path clip-path="url(#clip090)" d="M1380.52 9.54393 L1387.98 9.54393 L1387.98 72.576 L1380.52 72.576 L1380.52 9.54393 Z" fill="#000000" fill-rule="nonzero" fill-opacity="1" /><path clip-path="url(#clip090)" d="M1447.85 9.62495 Q1442.42 18.942 1439.79 28.0566 Q1437.15 37.1711 1437.15 46.5287 Q1437.15 55.8863 1439.79 65.0818 Q1442.46 74.2369 1447.85 83.5134 L1441.37 83.5134 Q1435.29 73.9938 1432.25 64.7983 Q1429.26 55.6027 1429.26 46.5287 Q1429.26 37.4952 1432.25 28.3401 Q1435.25 19.1851 1441.37 9.62495 L1447.85 9.62495 Z" fill="#000000" fill-rule="nonzero" fill-opacity="1" /><path clip-path="url(#clip090)" d="M1471.34 72.576 L1457.49 27.2059 L1465.51 27.2059 L1477.22 65.2844 Q1482.08 60.2613 1486.13 53.2937 Q1489.21 48.068 1489.37 43.531 Q1489.45 41.384 1488.48 37.3331 Q1487.35 32.5126 1483.05 27.2059 L1490.59 27.2059 L1490.59 27.2059 Q1493.38 30.8112 1495.24 35.8343 Q1496.95 40.4523 1496.95 43.612 Q1496.95 51.5518 1491.44 58.6409 Q1484.27 67.877 1479.28 72.576 L1471.34 72.576 Z" fill="#000000" fill-rule="nonzero" fill-opacity="1" /><path clip-path="url(#clip090)" d="M1536 34.9026 L1587.93 34.9026 L1587.93 41.7081 L1536 41.7081 L1536 34.9026 M1536 51.4303 L1587.93 51.4303 L1587.93 58.3168 L1536 58.3168 L1536 51.4303 Z" fill="#000000" fill-rule="nonzero" fill-opacity="1" /><path clip-path="url(#clip090)" d="M1637.72 34.3355 L1647.64 62.3677 L1661.82 27.2059 L1669.72 27.2059 L1651.37 72.576 L1651.37 89.8329 L1643.91 89.8329 L1643.91 72.576 L1632 38.7104 Q1630.22 33.6063 1626.37 33.6063 L1624.39 33.6063 L1624.39 27.2059 L1627.22 27.2059 Q1635.2 27.2059 1637.72 34.3355 Z" fill="#000000" fill-rule="nonzero" fill-opacity="1" /><path clip-path="url(#clip090)" d="M1707.35 34.9026 L1759.28 34.9026 L1759.28 41.7081 L1707.35 41.7081 L1707.35 34.9026 M1707.35 51.4303 L1759.28 51.4303 L1759.28 58.3168 L1707.35 58.3168 L1707.35 51.4303 Z" fill="#000000" fill-rule="nonzero" fill-opacity="1" /><path clip-path="url(#clip090)" d="M1820.82 17.4837 Q1814.5 17.4837 1811.3 23.7221 Q1808.14 29.92 1808.14 42.3968 Q1808.14 54.833 1811.3 61.0714 Q1814.5 67.2693 1820.82 67.2693 Q1827.18 67.2693 1830.34 61.0714 Q1833.54 54.833 1833.54 42.3968 Q1833.54 29.92 1830.34 23.7221 Q1827.18 17.4837 1820.82 17.4837 M1820.82 11.0023 Q1830.98 11.0023 1836.33 19.0636 Q1841.72 27.0843 1841.72 42.3968 Q1841.72 57.6687 1836.33 65.73 Q1830.98 73.7508 1820.82 73.7508 Q1810.65 73.7508 1805.26 65.73 Q1799.91 57.6687 1799.91 42.3968 Q1799.91 27.0843 1805.26 19.0636 Q1810.65 11.0023 1820.82 11.0023 Z" fill="#000000" fill-rule="nonzero" fill-opacity="1" /><path clip-path="url(#clip090)" d="M1856.1 62.2867 L1864.65 62.2867 L1864.65 72.576 L1856.1 72.576 L1856.1 62.2867 Z" fill="#000000" fill-rule="nonzero" fill-opacity="1" /><path clip-path="url(#clip090)" d="M1883.89 65.6895 L1897.26 65.6895 L1897.26 19.5497 L1882.71 22.4663 L1882.71 15.0127 L1897.18 12.096 L1905.36 12.096 L1905.36 65.6895 L1918.73 65.6895 L1918.73 72.576 L1883.89 72.576 L1883.89 65.6895 Z" fill="#000000" fill-rule="nonzero" fill-opacity="1" /><path clip-path="url(#clip090)" d="M1933.03 9.62495 L1939.51 9.62495 Q1945.58 19.1851 1948.58 28.3401 Q1951.62 37.4952 1951.62 46.5287 Q1951.62 55.6027 1948.58 64.7983 Q1945.58 73.9938 1939.51 83.5134 L1933.03 83.5134 Q1938.41 74.2369 1941.05 65.0818 Q1943.72 55.8863 1943.72 46.5287 Q1943.72 37.1711 1941.05 28.0566 Q1938.41 18.942 1933.03 9.62495 Z" fill="#000000" fill-rule="nonzero" fill-opacity="1" /><polyline clip-path="url(#clip091)" style="stroke:#0000ff; stroke-linecap:round; stroke-linejoin:round; stroke-width:8; stroke-opacity:1; fill:none" points="308.334,173.254 319.657,250.886 330.979,325.661 342.302,397.975 353.624,468.2 364.947,536.684 376.269,603.74 387.591,669.632 398.914,734.557 410.236,798.626 421.559,861.847 432.881,924.119 444.204,985.228 455.526,1044.86 466.848,1102.64 478.171,1158.13 489.493,1210.91 500.816,1260.6 512.138,1306.89 523.461,1349.57 534.783,1388.52 546.105,1423.76 557.428,1455.37 568.75,1483.52 580.073,1508.45 591.395,1530.4 602.718,1549.65 614.04,1566.49 625.363,1581.18 636.685,1593.98 648.007,1605.12 659.33,1614.82 670.652,1623.26 681.975,1630.62 693.297,1637.04 704.62,1642.64 715.942,1647.54 727.264,1651.84 738.587,1655.61 749.909,1658.93 761.232,1661.85 772.554,1664.43 783.877,1666.72 795.199,1668.75 806.521,1670.56 817.844,1672.17 829.166,1673.61 840.489,1674.9 851.811,1676.05 863.134,1677.09 874.456,1678.03 885.779,1678.87 897.101,1679.64 908.423,1680.33 919.746,1680.96 931.068,1681.53 942.391,1682.05 953.713,1682.52 965.036,1682.96 976.358,1683.36 987.68,1683.72 999.003,1684.06 1010.33,1684.36 1021.65,1684.65 1032.97,1684.91 1044.29,1685.15 1055.62,1685.38 1066.94,1685.58 1078.26,1685.77 1089.58,1685.95 1100.9,1686.12 1112.23,1686.27 1123.55,1686.41 1134.87,1686.55 1146.19,1686.67 1157.52,1686.79 1168.84,1686.9 1180.16,1687 1191.48,1687.09 1202.81,1687.18 1214.13,1687.26 1225.45,1687.34 1236.77,1687.41 1248.1,1687.48 1259.42,1687.55 1270.74,1687.61 1282.06,1687.67 1293.39,1687.72 1304.71,1687.77 1316.03,1687.82 1327.35,1687.86 1338.68,1687.9 1350,1687.94 1361.32,1687.98 1372.64,1688.02 1383.97,1688.05 1395.29,1688.08 1406.61,1688.11 1417.93,1688.14 1429.26,1688.17 1440.58,1688.19 1451.9,1688.22 1463.22,1688.24 1474.55,1688.26 1485.87,1688.28 1497.19,1688.3 1508.51,1688.32 1519.83,1688.33 1531.16,1688.35 1542.48,1688.37 1553.8,1688.38 1565.12,1688.39 1576.45,1688.41 1587.77,1688.42 1599.09,1688.43 1610.41,1688.44 1621.74,1688.45 1633.06,1688.46 1644.38,1688.47 1655.7,1688.48 1667.03,1688.49 1678.35,1688.5 1689.67,1688.51 1700.99,1688.51 1712.32,1688.52 1723.64,1688.53 1734.96,1688.53 1746.28,1688.54 1757.61,1688.55 1768.93,1688.55 1780.25,1688.56 1791.57,1688.56 1802.9,1688.57 1814.22,1688.57 1825.54,1688.57 1836.86,1688.58 1848.19,1688.58 1859.51,1688.59 1870.83,1688.59 1882.15,1688.59 1893.48,1688.6 1904.8,1688.6 1916.12,1688.6 1927.44,1688.6 1938.76,1688.61 1950.09,1688.61 1961.41,1688.61 1972.73,1688.61 1984.05,1688.62 1995.38,1688.62 2006.7,1688.62 2018.02,1688.62 2029.34,1688.62 2040.67,1688.62 2051.99,1688.63 2063.31,1688.63 2074.63,1688.63 2085.96,1688.63 2097.28,1688.63 2108.6,1688.63 2119.92,1688.63 2131.25,1688.63 2142.57,1688.64 2153.89,1688.64 2165.21,1688.64 2176.54,1688.64 2187.86,1688.64 2199.18,1688.64 2210.5,1688.64 2221.83,1688.64 2233.15,1688.64 2244.47,1688.64 2255.79,1688.64 2267.12,1688.64 2278.44,1688.64 2289.76,1688.64 2301.08,1688.65 2312.41,1688.65 2323.73,1688.65 2335.05,1688.65 2346.37,1688.65 2357.7,1688.65 2369.02,1688.65 2380.34,1688.65 2391.66,1688.65 2402.98,1688.65 2414.31,1688.65 2425.63,1688.65 2436.95,1688.65 2448.27,1688.65 2459.6,1688.65 2470.92,1688.65 2482.24,1688.65 2493.56,1688.65 2504.89,1688.65 2516.21,1688.65 2527.53,1688.65 2538.85,1688.65 2550.18,1688.65 2561.5,1688.65 2572.82,1688.65 "/>
<polyline clip-path="url(#clip091)" style="stroke:#ff0000; stroke-linecap:round; stroke-linejoin:round; stroke-width:8; stroke-opacity:1; fill:none" points="308.334,1681.04 319.657,1677.69 330.979,1673.57 342.302,1668.46 353.624,1662.17 364.947,1654.5 376.269,1645.29 387.591,1634.43 398.914,1621.84 410.236,1607.57 421.559,1591.71 432.881,1574.49 444.204,1556.23 455.526,1537.36 466.848,1518.36 478.171,1499.76 489.493,1482.06 500.816,1465.75 512.138,1451.21 523.461,1438.73 534.783,1428.5 546.105,1420.59 557.428,1414.97 568.75,1411.54 580.073,1410.14 591.395,1410.56 602.718,1412.59 614.04,1415.99 625.363,1420.56 636.685,1426.07 648.007,1432.36 659.33,1439.23 670.652,1446.56 681.975,1454.19 693.297,1462.04 704.62,1470.01 715.942,1478.02 727.264,1486 738.587,1493.91 749.909,1501.7 761.232,1509.34 772.554,1516.81 783.877,1524.08 795.199,1531.15 806.521,1537.99 817.844,1544.61 829.166,1551.01 840.489,1557.17 851.811,1563.09 863.134,1568.79 874.456,1574.27 885.779,1579.52 897.101,1584.56 908.423,1589.38 919.746,1594 931.068,1598.42 942.391,1602.65 953.713,1606.69 965.036,1610.55 976.358,1614.24 987.68,1617.76 999.003,1621.13 1010.33,1624.33 1021.65,1627.4 1032.97,1630.32 1044.29,1633.1 1055.62,1635.76 1066.94,1638.29 1078.26,1640.71 1089.58,1643.01 1100.9,1645.2 1112.23,1647.29 1123.55,1649.28 1134.87,1651.18 1146.19,1652.98 1157.52,1654.7 1168.84,1656.34 1180.16,1657.9 1191.48,1659.39 1202.81,1660.8 1214.13,1662.15 1225.45,1663.43 1236.77,1664.66 1248.1,1665.82 1259.42,1666.92 1270.74,1667.98 1282.06,1668.98 1293.39,1669.93 1304.71,1670.84 1316.03,1671.71 1327.35,1672.53 1338.68,1673.31 1350,1674.06 1361.32,1674.77 1372.64,1675.44 1383.97,1676.08 1395.29,1676.69 1406.61,1677.28 1417.93,1677.83 1429.26,1678.36 1440.58,1678.86 1451.9,1679.33 1463.22,1679.79 1474.55,1680.22 1485.87,1680.63 1497.19,1681.02 1508.51,1681.39 1519.83,1681.74 1531.16,1682.08 1542.48,1682.4 1553.8,1682.71 1565.12,1683 1576.45,1683.27 1587.77,1683.53 1599.09,1683.78 1610.41,1684.02 1621.74,1684.25 1633.06,1684.46 1644.38,1684.66 1655.7,1684.86 1667.03,1685.04 1678.35,1685.22 1689.67,1685.39 1700.99,1685.55 1712.32,1685.7 1723.64,1685.84 1734.96,1685.98 1746.28,1686.11 1757.61,1686.23 1768.93,1686.35 1780.25,1686.46 1791.57,1686.57 1802.9,1686.67 1814.22,1686.77 1825.54,1686.86 1836.86,1686.95 1848.19,1687.03 1859.51,1687.11 1870.83,1687.19 1882.15,1687.26 1893.48,1687.33 1904.8,1687.39 1916.12,1687.45 1927.44,1687.51 1938.76,1687.57 1950.09,1687.62 1961.41,1687.67 1972.73,1687.72 1984.05,1687.76 1995.38,1687.81 2006.7,1687.85 2018.02,1687.89 2029.34,1687.93 2040.67,1687.96 2051.99,1687.99 2063.31,1688.03 2074.63,1688.06 2085.96,1688.09 2097.28,1688.11 2108.6,1688.14 2119.92,1688.17 2131.25,1688.19 2142.57,1688.21 2153.89,1688.23 2165.21,1688.25 2176.54,1688.27 2187.86,1688.29 2199.18,1688.31 2210.5,1688.33 2221.83,1688.34 2233.15,1688.36 2244.47,1688.37 2255.79,1688.39 2267.12,1688.4 2278.44,1688.41 2289.76,1688.42 2301.08,1688.44 2312.41,1688.45 2323.73,1688.46 2335.05,1688.47 2346.37,1688.47 2357.7,1688.48 2369.02,1688.49 2380.34,1688.5 2391.66,1688.51 2402.98,1688.51 2414.31,1688.52 2425.63,1688.53 2436.95,1688.53 2448.27,1688.54 2459.6,1688.55 2470.92,1688.55 2482.24,1688.56 2493.56,1688.56 2504.89,1688.57 2516.21,1688.57 2527.53,1688.57 2538.85,1688.58 2550.18,1688.58 2561.5,1688.59 2572.82,1688.59 "/>
<polyline clip-path="url(#clip091)" style="stroke:#008000; stroke-linecap:round; stroke-linejoin:round; stroke-width:8; stroke-opacity:1; fill:none" points="308.334,1688.65 319.657,1688.19 330.979,1687.55 342.302,1686.67 353.624,1685.51 364.947,1684 376.269,1682.07 387.591,1679.63 398.914,1676.61 410.236,1672.92 421.559,1668.48 432.881,1663.21 444.204,1657.04 455.526,1649.95 466.848,1641.91 478.171,1632.93 489.493,1623.04 500.816,1612.29 512.138,1600.78 523.461,1588.58 534.783,1575.82 546.105,1562.61 557.428,1549.05 568.75,1535.28 580.073,1521.38 591.395,1507.45 602.718,1493.59 614.04,1479.87 625.363,1466.35 636.685,1453.08 648.007,1440.1 659.33,1427.46 670.652,1415.17 681.975,1403.25 693.297,1391.72 704.62,1380.59 715.942,1369.86 727.264,1359.53 738.587,1349.59 749.909,1340.05 761.232,1330.9 772.554,1322.12 783.877,1313.71 795.199,1305.66 806.521,1297.95 817.844,1290.59 829.166,1283.55 840.489,1276.82 851.811,1270.39 863.134,1264.26 874.456,1258.4 885.779,1252.82 897.101,1247.49 908.423,1242.4 919.746,1237.55 931.068,1232.93 942.391,1228.53 953.713,1224.33 965.036,1220.33 976.358,1216.52 987.68,1212.88 999.003,1209.42 1010.33,1206.13 1021.65,1202.99 1032.97,1200 1044.29,1197.15 1055.62,1194.44 1066.94,1191.86 1078.26,1189.4 1089.58,1187.06 1100.9,1184.84 1112.23,1182.72 1123.55,1180.7 1134.87,1178.78 1146.19,1176.95 1157.52,1175.21 1168.84,1173.55 1180.16,1171.98 1191.48,1170.48 1202.81,1169.05 1214.13,1167.69 1225.45,1166.4 1236.77,1165.17 1248.1,1164 1259.42,1162.88 1270.74,1161.82 1282.06,1160.82 1293.39,1159.86 1304.71,1158.94 1316.03,1158.07 1327.35,1157.25 1338.68,1156.46 1350,1155.71 1361.32,1155 1372.64,1154.32 1383.97,1153.68 1395.29,1153.06 1406.61,1152.48 1417.93,1151.93 1429.26,1151.4 1440.58,1150.9 1451.9,1150.42 1463.22,1149.96 1474.55,1149.53 1485.87,1149.12 1497.19,1148.73 1508.51,1148.36 1519.83,1148 1531.16,1147.66 1542.48,1147.34 1553.8,1147.04 1565.12,1146.75 1576.45,1146.47 1587.77,1146.21 1599.09,1145.96 1610.41,1145.72 1621.74,1145.5 1633.06,1145.28 1644.38,1145.08 1655.7,1144.88 1667.03,1144.7 1678.35,1144.52 1689.67,1144.35 1700.99,1144.19 1712.32,1144.04 1723.64,1143.9 1734.96,1143.76 1746.28,1143.63 1757.61,1143.51 1768.93,1143.39 1780.25,1143.28 1791.57,1143.17 1802.9,1143.07 1814.22,1142.97 1825.54,1142.88 1836.86,1142.79 1848.19,1142.71 1859.51,1142.63 1870.83,1142.55 1882.15,1142.48 1893.48,1142.41 1904.8,1142.35 1916.12,1142.29 1927.44,1142.23 1938.76,1142.17 1950.09,1142.12 1961.41,1142.07 1972.73,1142.02 1984.05,1141.98 1995.38,1141.93 2006.7,1141.89 2018.02,1141.85 2029.34,1141.81 2040.67,1141.78 2051.99,1141.74 2063.31,1141.71 2074.63,1141.68 2085.96,1141.65 2097.28,1141.63 2108.6,1141.6 2119.92,1141.57 2131.25,1141.55 2142.57,1141.53 2153.89,1141.51 2165.21,1141.48 2176.54,1141.47 2187.86,1141.45 2199.18,1141.43 2210.5,1141.41 2221.83,1141.4 2233.15,1141.38 2244.47,1141.37 2255.79,1141.35 2267.12,1141.34 2278.44,1141.33 2289.76,1141.32 2301.08,1141.3 2312.41,1141.29 2323.73,1141.28 2335.05,1141.27 2346.37,1141.26 2357.7,1141.26 2369.02,1141.25 2380.34,1141.24 2391.66,1141.23 2402.98,1141.22 2414.31,1141.22 2425.63,1141.21 2436.95,1141.21 2448.27,1141.2 2459.6,1141.19 2470.92,1141.19 2482.24,1141.18 2493.56,1141.18 2504.89,1141.17 2516.21,1141.17 2527.53,1141.17 2538.85,1141.16 2550.18,1141.16 2561.5,1141.15 2572.82,1141.15 "/>
<polyline clip-path="url(#clip091)" style="stroke:#800080; stroke-linecap:round; stroke-linejoin:round; stroke-width:8; stroke-opacity:1; fill:none" points="308.334,1688.65 319.657,1614.84 330.979,1544.83 342.302,1478.5 353.624,1415.73 364.947,1356.42 376.269,1300.51 387.591,1247.91 398.914,1198.59 410.236,1152.49 421.559,1109.57 432.881,1069.79 444.204,1033.1 455.526,999.425 466.848,968.689 478.171,940.786 489.493,915.591 500.816,892.96 512.138,872.729 523.461,854.723 534.783,838.757 546.105,824.648 557.428,812.208 568.75,801.261 580.073,791.64 591.395,783.191 602.718,775.771 614.04,769.251 625.363,763.517 636.685,758.471 648.007,754.023 659.33,750.096 670.652,746.619 681.975,743.537 693.297,740.799 704.62,738.362 715.942,736.187 727.264,734.241 738.587,732.496 749.909,730.928 761.232,729.516 772.554,728.243 783.877,727.09 795.199,726.045 806.521,725.096 817.844,724.232 829.166,723.444 840.489,722.725 851.811,722.067 863.134,721.463 874.456,720.909 885.779,720.399 897.101,719.929 908.423,719.495 919.746,719.095 931.068,718.725 942.391,718.381 953.713,718.063 965.036,717.768 976.358,717.493 987.68,717.237 999.003,716.999 1010.33,716.777 1021.65,716.57 1032.97,716.376 1044.29,716.195 1055.62,716.025 1066.94,715.867 1078.26,715.718 1089.58,715.578 1100.9,715.447 1112.23,715.324 1123.55,715.209 1134.87,715.1 1146.19,714.998 1157.52,714.902 1168.84,714.811 1180.16,714.726 1191.48,714.645 1202.81,714.569 1214.13,714.498 1225.45,714.43 1236.77,714.366 1248.1,714.306 1259.42,714.249 1270.74,714.195 1282.06,714.144 1293.39,714.096 1304.71,714.051 1316.03,714.007 1327.35,713.967 1338.68,713.928 1350,713.891 1361.32,713.857 1372.64,713.824 1383.97,713.793 1395.29,713.763 1406.61,713.736 1417.93,713.709 1429.26,713.684 1440.58,713.66 1451.9,713.638 1463.22,713.616 1474.55,713.596 1485.87,713.577 1497.19,713.558 1508.51,713.541 1519.83,713.524 1531.16,713.509 1542.48,713.494 1553.8,713.48 1565.12,713.466 1576.45,713.454 1587.77,713.442 1599.09,713.43 1610.41,713.419 1621.74,713.409 1633.06,713.399 1644.38,713.39 1655.7,713.381 1667.03,713.372 1678.35,713.364 1689.67,713.357 1700.99,713.349 1712.32,713.343 1723.64,713.336 1734.96,713.33 1746.28,713.324 1757.61,713.318 1768.93,713.313 1780.25,713.308 1791.57,713.303 1802.9,713.298 1814.22,713.294 1825.54,713.29 1836.86,713.286 1848.19,713.282 1859.51,713.279 1870.83,713.275 1882.15,713.272 1893.48,713.269 1904.8,713.266 1916.12,713.263 1927.44,713.261 1938.76,713.258 1950.09,713.256 1961.41,713.254 1972.73,713.251 1984.05,713.249 1995.38,713.247 2006.7,713.246 2018.02,713.244 2029.34,713.242 2040.67,713.241 2051.99,713.239 2063.31,713.238 2074.63,713.236 2085.96,713.235 2097.28,713.234 2108.6,713.233 2119.92,713.231 2131.25,713.23 2142.57,713.229 2153.89,713.228 2165.21,713.227 2176.54,713.227 2187.86,713.226 2199.18,713.225 2210.5,713.224 2221.83,713.223 2233.15,713.223 2244.47,713.222 2255.79,713.222 2267.12,713.221 2278.44,713.22 2289.76,713.22 2301.08,713.219 2312.41,713.219 2323.73,713.218 2335.05,713.218 2346.37,713.218 2357.7,713.217 2369.02,713.217 2380.34,713.216 2391.66,713.216 2402.98,713.216 2414.31,713.216 2425.63,713.215 2436.95,713.215 2448.27,713.215 2459.6,713.214 2470.92,713.214 2482.24,713.214 2493.56,713.214 2504.89,713.214 2516.21,713.213 2527.53,713.213 2538.85,713.213 2550.18,713.213 2561.5,713.213 2572.82,713.213 "/>
<path clip-path="url(#clip090)" d="M2289.04 440.536 L2560.74 440.536 L2560.74 181.336 L2289.04 181.336  Z" fill="#ffffff" fill-rule="evenodd" fill-opacity="1"/>
<polyline clip-path="url(#clip090)" style="stroke:#000000; stroke-linecap:round; stroke-linejoin:round; stroke-width:4; stroke-opacity:1; fill:none" points="2289.04,440.536 2560.74,440.536 2560.74,181.336 2289.04,181.336 2289.04,440.536 "/>
<polyline clip-path="url(#clip090)" style="stroke:#0000ff; stroke-linecap:round; stroke-linejoin:round; stroke-width:8; stroke-opacity:1; fill:none" points="2315.71,233.176 2475.74,233.176 "/>
<path clip-path="url(#clip090)" d="M2524.65 217.031 L2524.65 221.591 Q2521.99 220.318 2519.63 219.693 Q2517.27 219.068 2515.07 219.068 Q2511.25 219.068 2509.17 220.549 Q2507.11 222.031 2507.11 224.762 Q2507.11 227.054 2508.47 228.234 Q2509.86 229.392 2513.7 230.109 L2516.53 230.688 Q2521.76 231.683 2524.24 234.206 Q2526.74 236.706 2526.74 240.919 Q2526.74 245.942 2523.36 248.535 Q2520 251.128 2513.49 251.128 Q2511.04 251.128 2508.26 250.572 Q2505.51 250.016 2502.55 248.929 L2502.55 244.114 Q2505.39 245.711 2508.12 246.521 Q2510.86 247.331 2513.49 247.331 Q2517.5 247.331 2519.68 245.757 Q2521.85 244.183 2521.85 241.267 Q2521.85 238.72 2520.28 237.285 Q2518.73 235.85 2515.16 235.132 L2512.31 234.577 Q2507.08 233.535 2504.74 231.313 Q2502.41 229.091 2502.41 225.132 Q2502.41 220.549 2505.62 217.91 Q2508.87 215.271 2514.54 215.271 Q2516.97 215.271 2519.49 215.711 Q2522.01 216.151 2524.65 217.031 Z" fill="#000000" fill-rule="nonzero" fill-opacity="1" /><polyline clip-path="url(#clip090)" style="stroke:#ff0000; stroke-linecap:round; stroke-linejoin:round; stroke-width:8; stroke-opacity:1; fill:none" points="2315.71,285.016 2475.74,285.016 "/>
<path clip-path="url(#clip090)" d="M2502.41 267.736 L2507.08 267.736 L2507.08 302.296 L2502.41 302.296 L2502.41 267.736 Z" fill="#000000" fill-rule="nonzero" fill-opacity="1" /><polyline clip-path="url(#clip090)" style="stroke:#008000; stroke-linecap:round; stroke-linejoin:round; stroke-width:8; stroke-opacity:1; fill:none" points="2315.71,336.856 2475.74,336.856 "/>
<path clip-path="url(#clip090)" d="M2518.8 337.933 Q2520.3 338.442 2521.71 340.109 Q2523.15 341.775 2524.58 344.692 L2529.33 354.136 L2524.3 354.136 L2519.88 345.271 Q2518.17 341.798 2516.55 340.664 Q2514.95 339.53 2512.18 339.53 L2507.08 339.53 L2507.08 354.136 L2502.41 354.136 L2502.41 319.576 L2512.96 319.576 Q2518.89 319.576 2521.8 322.053 Q2524.72 324.53 2524.72 329.53 Q2524.72 332.794 2523.19 334.947 Q2521.69 337.099 2518.8 337.933 M2507.08 323.419 L2507.08 335.687 L2512.96 335.687 Q2516.34 335.687 2518.05 334.136 Q2519.79 332.562 2519.79 329.53 Q2519.79 326.498 2518.05 324.97 Q2516.34 323.419 2512.96 323.419 L2507.08 323.419 Z" fill="#000000" fill-rule="nonzero" fill-opacity="1" /><polyline clip-path="url(#clip090)" style="stroke:#800080; stroke-linecap:round; stroke-linejoin:round; stroke-width:8; stroke-opacity:1; fill:none" points="2315.71,388.696 2475.74,388.696 "/>
<path clip-path="url(#clip090)" d="M2515.6 405.976 L2502.41 371.416 L2507.29 371.416 L2518.24 400.513 L2529.21 371.416 L2534.07 371.416 L2520.9 405.976 L2515.6 405.976 Z" fill="#000000" fill-rule="nonzero" fill-opacity="1" /></svg>
