<?xml version="1.0" encoding="utf-8"?>
<svg xmlns="http://www.w3.org/2000/svg" xmlns:xlink="http://www.w3.org/1999/xlink" width="672" height="480" viewBox="0 0 2688 1920">
<defs>
  <clipPath id="clip630">
    <rect x="0" y="0" width="2688" height="1920"/>
  </clipPath>
</defs>
<path clip-path="url(#clip630)" d="M0 1920 L2688 1920 L2688 -4.26326e-14 L0 -4.26326e-14  Z" fill="#ffffff" fill-rule="evenodd" fill-opacity="1"/>
<defs>
  <clipPath id="clip631">
    <rect x="181" y="127" width="2460" height="1607"/>
  </clipPath>
</defs>
<path clip-path="url(#clip630)" d="M181.719 1734.12 L2640.76 1734.12 L2640.76 127.792 L181.719 127.792  Z" fill="#ffffff" fill-rule="evenodd" fill-opacity="1"/>
<polyline clip-path="url(#clip631)" style="stroke:#000000; stroke-linecap:round; stroke-linejoin:round; stroke-width:2; stroke-opacity:0.1; fill:none" points="251.315,1734.12 251.315,127.792 "/>
<polyline clip-path="url(#clip631)" style="stroke:#000000; stroke-linecap:round; stroke-linejoin:round; stroke-width:2; stroke-opacity:0.1; fill:none" points="831.276,1734.12 831.276,127.792 "/>
<polyline clip-path="url(#clip631)" style="stroke:#000000; stroke-linecap:round; stroke-linejoin:round; stroke-width:2; stroke-opacity:0.1; fill:none" points="1411.24,1734.12 1411.24,127.792 "/>
<polyline clip-path="url(#clip631)" style="stroke:#000000; stroke-linecap:round; stroke-linejoin:round; stroke-width:2; stroke-opacity:0.1; fill:none" points="1991.2,1734.12 1991.2,127.792 "/>
<polyline clip-path="url(#clip631)" style="stroke:#000000; stroke-linecap:round; stroke-linejoin:round; stroke-width:2; stroke-opacity:0.1; fill:none" points="2571.16,1734.12 2571.16,127.792 "/>
<polyline clip-path="url(#clip631)" style="stroke:#000000; stroke-linecap:round; stroke-linejoin:round; stroke-width:2; stroke-opacity:0.1; fill:none" points="181.719,1688.65 2640.76,1688.65 "/>
<polyline clip-path="url(#clip631)" style="stroke:#000000; stroke-linecap:round; stroke-linejoin:round; stroke-width:2; stroke-opacity:0.1; fill:none" points="181.719,1430.96 2640.76,1430.96 "/>
<polyline clip-path="url(#clip631)" style="stroke:#000000; stroke-linecap:round; stroke-linejoin:round; stroke-width:2; stroke-opacity:0.1; fill:none" points="181.719,1173.27 2640.76,1173.27 "/>
<polyline clip-path="url(#clip631)" style="stroke:#000000; stroke-linecap:round; stroke-linejoin:round; stroke-width:2; stroke-opacity:0.1; fill:none" points="181.719,915.57 2640.76,915.57 "/>
<polyline clip-path="url(#clip631)" style="stroke:#000000; stroke-linecap:round; stroke-linejoin:round; stroke-width:2; stroke-opacity:0.1; fill:none" points="181.719,657.875 2640.76,657.875 "/>
<polyline clip-path="url(#clip631)" style="stroke:#000000; stroke-linecap:round; stroke-linejoin:round; stroke-width:2; stroke-opacity:0.1; fill:none" points="181.719,400.18 2640.76,400.18 "/>
<polyline clip-path="url(#clip631)" style="stroke:#000000; stroke-linecap:round; stroke-linejoin:round; stroke-width:2; stroke-opacity:0.1; fill:none" points="181.719,142.485 2640.76,142.485 "/>
<polyline clip-path="url(#clip630)" style="stroke:#000000; stroke-linecap:round; stroke-linejoin:round; stroke-width:4; stroke-opacity:1; fill:none" points="181.719,1734.12 2640.76,1734.12 "/>
<polyline clip-path="url(#clip630)" style="stroke:#000000; stroke-linecap:round; stroke-linejoin:round; stroke-width:4; stroke-opacity:1; fill:none" points="251.315,1734.12 251.315,1715.22 "/>
<polyline clip-path="url(#clip630)" style="stroke:#000000; stroke-linecap:round; stroke-linejoin:round; stroke-width:4; stroke-opacity:1; fill:none" points="831.276,1734.12 831.276,1715.22 "/>
<polyline clip-path="url(#clip630)" style="stroke:#000000; stroke-linecap:round; stroke-linejoin:round; stroke-width:4; stroke-opacity:1; fill:none" points="1411.24,1734.12 1411.24,1715.22 "/>
<polyline clip-path="url(#clip630)" style="stroke:#000000; stroke-linecap:round; stroke-linejoin:round; stroke-width:4; stroke-opacity:1; fill:none" points="1991.2,1734.12 1991.2,1715.22 "/>
<polyline clip-path="url(#clip630)" style="stroke:#000000; stroke-linecap:round; stroke-linejoin:round; stroke-width:4; stroke-opacity:1; fill:none" points="2571.16,1734.12 2571.16,1715.22 "/>
<path clip-path="url(#clip630)" d="M251.315 1767.34 Q247.704 1767.34 245.875 1770.9 Q244.07 1774.45 244.07 1781.58 Q244.07 1788.68 245.875 1792.25 Q247.704 1795.79 251.315 1795.79 Q254.949 1795.79 256.755 1792.25 Q258.583 1788.68 258.583 1781.58 Q258.583 1774.45 256.755 1770.9 Q254.949 1767.34 251.315 1767.34 M251.315 1763.64 Q257.125 1763.64 260.181 1768.24 Q263.259 1772.83 263.259 1781.58 Q263.259 1790.3 260.181 1794.91 Q257.125 1799.49 251.315 1799.49 Q245.505 1799.49 242.426 1794.91 Q239.37 1790.3 239.37 1781.58 Q239.37 1772.83 242.426 1768.24 Q245.505 1763.64 251.315 1763.64 Z" fill="#000000" fill-rule="nonzero" fill-opacity="1" /><path clip-path="url(#clip630)" d="M805.975 1764.26 L824.332 1764.26 L824.332 1768.2 L810.258 1768.2 L810.258 1776.67 Q811.276 1776.32 812.295 1776.16 Q813.313 1775.97 814.332 1775.97 Q820.119 1775.97 823.499 1779.15 Q826.878 1782.32 826.878 1787.73 Q826.878 1793.31 823.406 1796.41 Q819.934 1799.49 813.614 1799.49 Q811.438 1799.49 809.17 1799.12 Q806.925 1798.75 804.517 1798.01 L804.517 1793.31 Q806.6 1794.45 808.823 1795 Q811.045 1795.56 813.522 1795.56 Q817.526 1795.56 819.864 1793.45 Q822.202 1791.34 822.202 1787.73 Q822.202 1784.12 819.864 1782.02 Q817.526 1779.91 813.522 1779.91 Q811.647 1779.91 809.772 1780.33 Q807.92 1780.74 805.975 1781.62 L805.975 1764.26 Z" fill="#000000" fill-rule="nonzero" fill-opacity="1" /><path clip-path="url(#clip630)" d="M846.091 1767.34 Q842.48 1767.34 840.651 1770.9 Q838.846 1774.45 838.846 1781.58 Q838.846 1788.68 840.651 1792.25 Q842.48 1795.79 846.091 1795.79 Q849.725 1795.79 851.531 1792.25 Q853.359 1788.68 853.359 1781.58 Q853.359 1774.45 851.531 1770.9 Q849.725 1767.34 846.091 1767.34 M846.091 1763.64 Q851.901 1763.64 854.957 1768.24 Q858.035 1772.83 858.035 1781.58 Q858.035 1790.3 854.957 1794.91 Q851.901 1799.49 846.091 1799.49 Q840.281 1799.49 837.202 1794.91 Q834.147 1790.3 834.147 1781.58 Q834.147 1772.83 837.202 1768.24 Q840.281 1763.64 846.091 1763.64 Z" fill="#000000" fill-rule="nonzero" fill-opacity="1" /><path clip-path="url(#clip630)" d="M1370.84 1794.89 L1378.48 1794.89 L1378.48 1768.52 L1370.17 1770.19 L1370.17 1765.93 L1378.44 1764.26 L1383.11 1764.26 L1383.11 1794.89 L1390.75 1794.89 L1390.75 1798.82 L1370.84 1798.82 L1370.84 1794.89 Z" fill="#000000" fill-rule="nonzero" fill-opacity="1" /><path clip-path="url(#clip630)" d="M1410.2 1767.34 Q1406.58 1767.34 1404.76 1770.9 Q1402.95 1774.45 1402.95 1781.58 Q1402.95 1788.68 1404.76 1792.25 Q1406.58 1795.79 1410.2 1795.79 Q1413.83 1795.79 1415.64 1792.25 Q1417.46 1788.68 1417.46 1781.58 Q1417.46 1774.45 1415.64 1770.9 Q1413.83 1767.34 1410.2 1767.34 M1410.2 1763.64 Q1416.01 1763.64 1419.06 1768.24 Q1422.14 1772.83 1422.14 1781.58 Q1422.14 1790.3 1419.06 1794.91 Q1416.01 1799.49 1410.2 1799.49 Q1404.39 1799.49 1401.31 1794.91 Q1398.25 1790.3 1398.25 1781.58 Q1398.25 1772.83 1401.31 1768.24 Q1404.39 1763.64 1410.2 1763.64 Z" fill="#000000" fill-rule="nonzero" fill-opacity="1" /><path clip-path="url(#clip630)" d="M1440.36 1767.34 Q1436.75 1767.34 1434.92 1770.9 Q1433.11 1774.45 1433.11 1781.58 Q1433.11 1788.68 1434.92 1792.25 Q1436.75 1795.79 1440.36 1795.79 Q1443.99 1795.79 1445.8 1792.25 Q1447.63 1788.68 1447.63 1781.58 Q1447.63 1774.45 1445.8 1770.9 Q1443.99 1767.34 1440.36 1767.34 M1440.36 1763.64 Q1446.17 1763.64 1449.22 1768.24 Q1452.3 1772.83 1452.3 1781.58 Q1452.3 1790.3 1449.22 1794.91 Q1446.17 1799.49 1440.36 1799.49 Q1434.55 1799.49 1431.47 1794.91 Q1428.41 1790.3 1428.41 1781.58 Q1428.41 1772.83 1431.47 1768.24 Q1434.55 1763.64 1440.36 1763.64 Z" fill="#000000" fill-rule="nonzero" fill-opacity="1" /><path clip-path="url(#clip630)" d="M1950.81 1794.89 L1958.44 1794.89 L1958.44 1768.52 L1950.13 1770.19 L1950.13 1765.93 L1958.4 1764.26 L1963.07 1764.26 L1963.07 1794.89 L1970.71 1794.89 L1970.71 1798.82 L1950.81 1798.82 L1950.81 1794.89 Z" fill="#000000" fill-rule="nonzero" fill-opacity="1" /><path clip-path="url(#clip630)" d="M1980.2 1764.26 L1998.56 1764.26 L1998.56 1768.2 L1984.49 1768.2 L1984.49 1776.67 Q1985.5 1776.32 1986.52 1776.16 Q1987.54 1775.97 1988.56 1775.97 Q1994.35 1775.97 1997.73 1779.15 Q2001.11 1782.32 2001.11 1787.73 Q2001.11 1793.31 1997.63 1796.41 Q1994.16 1799.49 1987.84 1799.49 Q1985.67 1799.49 1983.4 1799.12 Q1981.15 1798.75 1978.75 1798.01 L1978.75 1793.31 Q1980.83 1794.45 1983.05 1795 Q1985.27 1795.56 1987.75 1795.56 Q1991.75 1795.56 1994.09 1793.45 Q1996.43 1791.34 1996.43 1787.73 Q1996.43 1784.12 1994.09 1782.02 Q1991.75 1779.91 1987.75 1779.91 Q1985.88 1779.91 1984 1780.33 Q1982.15 1780.74 1980.2 1781.62 L1980.2 1764.26 Z" fill="#000000" fill-rule="nonzero" fill-opacity="1" /><path clip-path="url(#clip630)" d="M2020.32 1767.34 Q2016.71 1767.34 2014.88 1770.9 Q2013.07 1774.45 2013.07 1781.58 Q2013.07 1788.68 2014.88 1792.25 Q2016.71 1795.79 2020.32 1795.79 Q2023.95 1795.79 2025.76 1792.25 Q2027.59 1788.68 2027.59 1781.58 Q2027.59 1774.45 2025.76 1770.9 Q2023.95 1767.34 2020.32 1767.34 M2020.32 1763.64 Q2026.13 1763.64 2029.19 1768.24 Q2032.26 1772.83 2032.26 1781.58 Q2032.26 1790.3 2029.19 1794.91 Q2026.13 1799.49 2020.32 1799.49 Q2014.51 1799.49 2011.43 1794.91 Q2008.37 1790.3 2008.37 1781.58 Q2008.37 1772.83 2011.43 1768.24 Q2014.51 1763.64 2020.32 1763.64 Z" fill="#000000" fill-rule="nonzero" fill-opacity="1" /><path clip-path="url(#clip630)" d="M2534.85 1794.89 L2551.17 1794.89 L2551.17 1798.82 L2529.23 1798.82 L2529.23 1794.89 Q2531.89 1792.13 2536.47 1787.5 Q2541.08 1782.85 2542.26 1781.51 Q2544.51 1778.98 2545.39 1777.25 Q2546.29 1775.49 2546.29 1773.8 Q2546.29 1771.04 2544.34 1769.31 Q2542.42 1767.57 2539.32 1767.57 Q2537.12 1767.57 2534.67 1768.34 Q2532.24 1769.1 2529.46 1770.65 L2529.46 1765.93 Q2532.28 1764.79 2534.74 1764.21 Q2537.19 1763.64 2539.23 1763.64 Q2544.6 1763.64 2547.79 1766.32 Q2550.99 1769.01 2550.99 1773.5 Q2550.99 1775.63 2550.18 1777.55 Q2549.39 1779.45 2547.28 1782.04 Q2546.7 1782.71 2543.6 1785.93 Q2540.5 1789.12 2534.85 1794.89 Z" fill="#000000" fill-rule="nonzero" fill-opacity="1" /><path clip-path="url(#clip630)" d="M2570.99 1767.34 Q2567.38 1767.34 2565.55 1770.9 Q2563.74 1774.45 2563.74 1781.58 Q2563.74 1788.68 2565.55 1792.25 Q2567.38 1795.79 2570.99 1795.79 Q2574.62 1795.79 2576.43 1792.25 Q2578.26 1788.68 2578.26 1781.58 Q2578.26 1774.45 2576.43 1770.9 Q2574.62 1767.34 2570.99 1767.34 M2570.99 1763.64 Q2576.8 1763.64 2579.85 1768.24 Q2582.93 1772.83 2582.93 1781.58 Q2582.93 1790.3 2579.85 1794.91 Q2576.8 1799.49 2570.99 1799.49 Q2565.18 1799.49 2562.1 1794.91 Q2559.04 1790.3 2559.04 1781.58 Q2559.04 1772.83 2562.1 1768.24 Q2565.18 1763.64 2570.99 1763.64 Z" fill="#000000" fill-rule="nonzero" fill-opacity="1" /><path clip-path="url(#clip630)" d="M2601.15 1767.34 Q2597.54 1767.34 2595.71 1770.9 Q2593.9 1774.45 2593.9 1781.58 Q2593.9 1788.68 2595.71 1792.25 Q2597.54 1795.79 2601.15 1795.79 Q2604.78 1795.79 2606.59 1792.25 Q2608.42 1788.68 2608.42 1781.58 Q2608.42 1774.45 2606.59 1770.9 Q2604.78 1767.34 2601.15 1767.34 M2601.15 1763.64 Q2606.96 1763.64 2610.01 1768.24 Q2613.09 1772.83 2613.09 1781.58 Q2613.09 1790.3 2610.01 1794.91 Q2606.96 1799.49 2601.15 1799.49 Q2595.34 1799.49 2592.26 1794.91 Q2589.2 1790.3 2589.2 1781.58 Q2589.2 1772.83 2592.26 1768.24 Q2595.34 1763.64 2601.15 1763.64 Z" fill="#000000" fill-rule="nonzero" fill-opacity="1" /><path clip-path="url(#clip630)" d="M1350.4 1837.53 L1350.4 1847.65 L1362.46 1847.65 L1362.46 1852.2 L1350.4 1852.2 L1350.4 1871.56 Q1350.4 1875.92 1351.58 1877.16 Q1352.78 1878.4 1356.44 1878.4 L1362.46 1878.4 L1362.46 1883.3 L1356.44 1883.3 Q1349.67 1883.3 1347.09 1880.79 Q1344.51 1878.24 1344.51 1871.56 L1344.51 1852.2 L1340.21 1852.2 L1340.21 1847.65 L1344.51 1847.65 L1344.51 1837.53 L1350.4 1837.53 Z" fill="#000000" fill-rule="nonzero" fill-opacity="1" /><path clip-path="url(#clip630)" d="M1370.16 1847.65 L1376.02 1847.65 L1376.02 1883.3 L1370.16 1883.3 L1370.16 1847.65 M1370.16 1833.78 L1376.02 1833.78 L1376.02 1841.19 L1370.16 1841.19 L1370.16 1833.78 Z" fill="#000000" fill-rule="nonzero" fill-opacity="1" /><path clip-path="url(#clip630)" d="M1416.03 1854.5 Q1418.22 1850.55 1421.28 1848.67 Q1424.34 1846.79 1428.47 1846.79 Q1434.04 1846.79 1437.07 1850.71 Q1440.09 1854.59 1440.09 1861.78 L1440.09 1883.3 L1434.2 1883.3 L1434.2 1861.98 Q1434.2 1856.85 1432.39 1854.37 Q1430.57 1851.89 1426.85 1851.89 Q1422.3 1851.89 1419.66 1854.91 Q1417.01 1857.93 1417.01 1863.15 L1417.01 1883.3 L1411.13 1883.3 L1411.13 1861.98 Q1411.13 1856.82 1409.31 1854.37 Q1407.5 1851.89 1403.71 1851.89 Q1399.22 1851.89 1396.58 1854.94 Q1393.94 1857.97 1393.94 1863.15 L1393.94 1883.3 L1388.05 1883.3 L1388.05 1847.65 L1393.94 1847.65 L1393.94 1853.19 Q1395.94 1849.91 1398.75 1848.35 Q1401.55 1846.79 1405.4 1846.79 Q1409.28 1846.79 1411.99 1848.77 Q1414.72 1850.74 1416.03 1854.5 Z" fill="#000000" fill-rule="nonzero" fill-opacity="1" /><path clip-path="url(#clip630)" d="M1482.26 1864.01 L1482.26 1866.88 L1455.34 1866.88 Q1455.72 1872.92 1458.96 1876.11 Q1462.24 1879.26 1468.07 1879.26 Q1471.44 1879.26 1474.59 1878.43 Q1477.78 1877.6 1480.89 1875.95 L1480.89 1881.49 Q1477.74 1882.82 1474.43 1883.52 Q1471.12 1884.22 1467.72 1884.22 Q1459.19 1884.22 1454.19 1879.26 Q1449.23 1874.29 1449.23 1865.83 Q1449.23 1857.07 1453.94 1851.95 Q1458.68 1846.79 1466.7 1846.79 Q1473.89 1846.79 1478.06 1851.44 Q1482.26 1856.06 1482.26 1864.01 M1476.41 1862.29 Q1476.34 1857.49 1473.7 1854.62 Q1471.09 1851.76 1466.76 1851.76 Q1461.86 1851.76 1458.9 1854.53 Q1455.97 1857.3 1455.53 1862.33 L1476.41 1862.29 Z" fill="#000000" fill-rule="nonzero" fill-opacity="1" /><polyline clip-path="url(#clip630)" style="stroke:#000000; stroke-linecap:round; stroke-linejoin:round; stroke-width:4; stroke-opacity:1; fill:none" points="181.719,1734.12 181.719,127.792 "/>
<polyline clip-path="url(#clip630)" style="stroke:#000000; stroke-linecap:round; stroke-linejoin:round; stroke-width:4; stroke-opacity:1; fill:none" points="181.719,1688.65 200.617,1688.65 "/>
<polyline clip-path="url(#clip630)" style="stroke:#000000; stroke-linecap:round; stroke-linejoin:round; stroke-width:4; stroke-opacity:1; fill:none" points="181.719,1430.96 200.617,1430.96 "/>
<polyline clip-path="url(#clip630)" style="stroke:#000000; stroke-linecap:round; stroke-linejoin:round; stroke-width:4; stroke-opacity:1; fill:none" points="181.719,1173.27 200.617,1173.27 "/>
<polyline clip-path="url(#clip630)" style="stroke:#000000; stroke-linecap:round; stroke-linejoin:round; stroke-width:4; stroke-opacity:1; fill:none" points="181.719,915.57 200.617,915.57 "/>
<polyline clip-path="url(#clip630)" style="stroke:#000000; stroke-linecap:round; stroke-linejoin:round; stroke-width:4; stroke-opacity:1; fill:none" points="181.719,657.875 200.617,657.875 "/>
<polyline clip-path="url(#clip630)" style="stroke:#000000; stroke-linecap:round; stroke-linejoin:round; stroke-width:4; stroke-opacity:1; fill:none" points="181.719,400.18 200.617,400.18 "/>
<polyline clip-path="url(#clip630)" style="stroke:#000000; stroke-linecap:round; stroke-linejoin:round; stroke-width:4; stroke-opacity:1; fill:none" points="181.719,142.485 200.617,142.485 "/>
<path clip-path="url(#clip630)" d="M129.455 1674.45 Q125.844 1674.45 124.015 1678.02 Q122.21 1681.56 122.21 1688.69 Q122.21 1695.8 124.015 1699.36 Q125.844 1702.9 129.455 1702.9 Q133.089 1702.9 134.895 1699.36 Q136.724 1695.8 136.724 1688.69 Q136.724 1681.56 134.895 1678.02 Q133.089 1674.45 129.455 1674.45 M129.455 1670.75 Q135.265 1670.75 138.321 1675.36 Q141.399 1679.94 141.399 1688.69 Q141.399 1697.42 138.321 1702.02 Q135.265 1706.61 129.455 1706.61 Q123.645 1706.61 120.566 1702.02 Q117.511 1697.42 117.511 1688.69 Q117.511 1679.94 120.566 1675.36 Q123.645 1670.75 129.455 1670.75 Z" fill="#000000" fill-rule="nonzero" fill-opacity="1" /><path clip-path="url(#clip630)" d="M121.492 1444.3 L129.131 1444.3 L129.131 1417.94 L120.821 1419.61 L120.821 1415.35 L129.085 1413.68 L133.761 1413.68 L133.761 1444.3 L141.399 1444.3 L141.399 1448.24 L121.492 1448.24 L121.492 1444.3 Z" fill="#000000" fill-rule="nonzero" fill-opacity="1" /><path clip-path="url(#clip630)" d="M125.08 1186.61 L141.399 1186.61 L141.399 1190.55 L119.455 1190.55 L119.455 1186.61 Q122.117 1183.86 126.7 1179.23 Q131.307 1174.57 132.488 1173.23 Q134.733 1170.71 135.612 1168.97 Q136.515 1167.21 136.515 1165.52 Q136.515 1162.77 134.571 1161.03 Q132.65 1159.3 129.548 1159.3 Q127.349 1159.3 124.895 1160.06 Q122.464 1160.82 119.687 1162.37 L119.687 1157.65 Q122.511 1156.52 124.964 1155.94 Q127.418 1155.36 129.455 1155.36 Q134.825 1155.36 138.02 1158.05 Q141.214 1160.73 141.214 1165.22 Q141.214 1167.35 140.404 1169.27 Q139.617 1171.17 137.511 1173.76 Q136.932 1174.43 133.83 1177.65 Q130.728 1180.85 125.08 1186.61 Z" fill="#000000" fill-rule="nonzero" fill-opacity="1" /><path clip-path="url(#clip630)" d="M134.27 914.216 Q137.626 914.934 139.501 917.202 Q141.399 919.471 141.399 922.804 Q141.399 927.92 137.881 930.721 Q134.362 933.521 127.881 933.521 Q125.705 933.521 123.39 933.082 Q121.099 932.665 118.645 931.809 L118.645 927.295 Q120.589 928.429 122.904 929.008 Q125.219 929.586 127.742 929.586 Q132.14 929.586 134.432 927.85 Q136.747 926.114 136.747 922.804 Q136.747 919.748 134.594 918.035 Q132.464 916.299 128.645 916.299 L124.617 916.299 L124.617 912.457 L128.83 912.457 Q132.279 912.457 134.108 911.091 Q135.937 909.702 135.937 907.11 Q135.937 904.448 134.038 903.036 Q132.163 901.6 128.645 901.6 Q126.724 901.6 124.525 902.017 Q122.326 902.434 119.687 903.313 L119.687 899.147 Q122.349 898.406 124.663 898.036 Q127.001 897.665 129.062 897.665 Q134.386 897.665 137.487 900.096 Q140.589 902.503 140.589 906.623 Q140.589 909.494 138.946 911.485 Q137.302 913.452 134.27 914.216 Z" fill="#000000" fill-rule="nonzero" fill-opacity="1" /><path clip-path="url(#clip630)" d="M131.816 644.669 L120.011 663.118 L131.816 663.118 L131.816 644.669 M130.589 640.595 L136.469 640.595 L136.469 663.118 L141.399 663.118 L141.399 667.007 L136.469 667.007 L136.469 675.155 L131.816 675.155 L131.816 667.007 L116.214 667.007 L116.214 662.493 L130.589 640.595 Z" fill="#000000" fill-rule="nonzero" fill-opacity="1" /><path clip-path="url(#clip630)" d="M120.497 382.9 L138.853 382.9 L138.853 386.835 L124.779 386.835 L124.779 395.308 Q125.798 394.96 126.816 394.798 Q127.835 394.613 128.853 394.613 Q134.64 394.613 138.02 397.784 Q141.399 400.956 141.399 406.372 Q141.399 411.951 137.927 415.053 Q134.455 418.132 128.136 418.132 Q125.96 418.132 123.691 417.761 Q121.446 417.391 119.039 416.65 L119.039 411.951 Q121.122 413.085 123.344 413.641 Q125.566 414.196 128.043 414.196 Q132.048 414.196 134.386 412.09 Q136.724 409.983 136.724 406.372 Q136.724 402.761 134.386 400.655 Q132.048 398.548 128.043 398.548 Q126.168 398.548 124.293 398.965 Q122.441 399.382 120.497 400.261 L120.497 382.9 Z" fill="#000000" fill-rule="nonzero" fill-opacity="1" /><path clip-path="url(#clip630)" d="M129.872 140.622 Q126.724 140.622 124.872 142.775 Q123.043 144.927 123.043 148.677 Q123.043 152.404 124.872 154.58 Q126.724 156.733 129.872 156.733 Q133.02 156.733 134.849 154.58 Q136.7 152.404 136.7 148.677 Q136.7 144.927 134.849 142.775 Q133.02 140.622 129.872 140.622 M139.154 125.969 L139.154 130.228 Q137.395 129.395 135.589 128.955 Q133.807 128.516 132.048 128.516 Q127.418 128.516 124.964 131.641 Q122.534 134.766 122.187 141.085 Q123.552 139.071 125.613 138.006 Q127.673 136.918 130.15 136.918 Q135.358 136.918 138.367 140.09 Q141.399 143.238 141.399 148.677 Q141.399 154.002 138.251 157.219 Q135.103 160.437 129.872 160.437 Q123.876 160.437 120.705 155.853 Q117.534 151.247 117.534 142.52 Q117.534 134.326 121.423 129.465 Q125.312 124.58 131.863 124.58 Q133.622 124.58 135.404 124.928 Q137.21 125.275 139.154 125.969 Z" fill="#000000" fill-rule="nonzero" fill-opacity="1" /><path clip-path="url(#clip630)" d="M42.3504 1079.13 L45.2149 1079.13 L45.2149 1106.06 Q51.2623 1105.68 54.4452 1102.43 Q57.5962 1099.15 57.5962 1093.33 Q57.5962 1089.95 56.7687 1086.8 Q55.9411 1083.62 54.2861 1080.5 L59.8242 1080.5 Q61.161 1083.65 61.8612 1086.96 Q62.5615 1090.27 62.5615 1093.68 Q62.5615 1102.21 57.5962 1107.21 Q52.631 1112.17 44.1646 1112.17 Q35.4117 1112.17 30.2873 1107.46 Q25.1311 1102.72 25.1311 1094.7 Q25.1311 1087.5 29.7781 1083.33 Q34.3932 1079.13 42.3504 1079.13 M40.6316 1084.99 Q35.8255 1085.05 32.9609 1087.69 Q30.0964 1090.3 30.0964 1094.63 Q30.0964 1099.53 32.8654 1102.49 Q35.6345 1105.42 40.6634 1105.87 L40.6316 1084.99 Z" fill="#000000" fill-rule="nonzero" fill-opacity="1" /><path clip-path="url(#clip630)" d="M31.4013 1046.06 L12.1132 1046.06 L12.1132 1040.21 L61.6384 1040.21 L61.6384 1046.06 L56.2912 1046.06 Q59.4741 1047.91 61.0337 1050.74 Q62.5615 1053.54 62.5615 1057.49 Q62.5615 1063.95 57.4052 1068.02 Q52.249 1072.07 43.8463 1072.07 Q35.4436 1072.07 30.2873 1068.02 Q25.1311 1063.95 25.1311 1057.49 Q25.1311 1053.54 26.6907 1050.74 Q28.2185 1047.91 31.4013 1046.06 M43.8463 1066.02 Q50.3075 1066.02 53.9996 1063.38 Q57.6599 1060.7 57.6599 1056.06 Q57.6599 1051.41 53.9996 1048.74 Q50.3075 1046.06 43.8463 1046.06 Q37.3851 1046.06 33.7248 1048.74 Q30.0327 1051.41 30.0327 1056.06 Q30.0327 1060.7 33.7248 1063.38 Q37.3851 1066.02 43.8463 1066.02 Z" fill="#000000" fill-rule="nonzero" fill-opacity="1" /><path clip-path="url(#clip630)" d="M43.4007 1004.69 Q37.035 1004.69 33.5338 1007.33 Q30.0327 1009.94 30.0327 1014.68 Q30.0327 1019.39 33.5338 1022.03 Q37.035 1024.64 43.4007 1024.64 Q49.7346 1024.64 53.2357 1022.03 Q56.7368 1019.39 56.7368 1014.68 Q56.7368 1009.94 53.2357 1007.33 Q49.7346 1004.69 43.4007 1004.69 M57.2143 998.829 Q66.3172 998.829 70.7414 1002.87 Q75.1974 1006.91 75.1974 1015.25 Q75.1974 1018.34 74.72 1021.08 Q74.2744 1023.81 73.3195 1026.39 L67.6222 1026.39 Q69.0227 1023.81 69.6911 1021.3 Q70.3595 1018.79 70.3595 1016.18 Q70.3595 1010.41 67.3358 1007.55 Q64.3439 1004.69 58.2646 1004.69 L55.3682 1004.69 Q58.5192 1006.5 60.0788 1009.33 Q61.6384 1012.17 61.6384 1016.11 Q61.6384 1022.67 56.6414 1026.68 Q51.6443 1030.69 43.4007 1030.69 Q35.1253 1030.69 30.1282 1026.68 Q25.1311 1022.67 25.1311 1016.11 Q25.1311 1012.17 26.6907 1009.33 Q28.2503 1006.5 31.4013 1004.69 L25.9905 1004.69 L25.9905 998.829 L57.2143 998.829 Z" fill="#000000" fill-rule="nonzero" fill-opacity="1" /><path clip-path="url(#clip630)" d="M42.3504 956.274 L45.2149 956.274 L45.2149 983.201 Q51.2623 982.819 54.4452 979.573 Q57.5962 976.294 57.5962 970.47 Q57.5962 967.096 56.7687 963.945 Q55.9411 960.762 54.2861 957.643 L59.8242 957.643 Q61.161 960.794 61.8612 964.104 Q62.5615 967.414 62.5615 970.82 Q62.5615 979.35 57.5962 984.347 Q52.631 989.312 44.1646 989.312 Q35.4117 989.312 30.2873 984.602 Q25.1311 979.859 25.1311 971.838 Q25.1311 964.645 29.7781 960.476 Q34.3932 956.274 42.3504 956.274 M40.6316 962.131 Q35.8255 962.194 32.9609 964.836 Q30.0964 967.446 30.0964 971.775 Q30.0964 976.676 32.8654 979.636 Q35.6345 982.565 40.6634 983.01 L40.6316 962.131 Z" fill="#000000" fill-rule="nonzero" fill-opacity="1" /><path clip-path="url(#clip630)" d="M27.3591 900.288 L32.8336 900.288 Q31.465 902.77 30.7966 905.285 Q30.0964 907.767 30.0964 910.314 Q30.0964 916.011 33.7248 919.162 Q37.3214 922.313 43.8463 922.313 Q50.3711 922.313 53.9996 919.162 Q57.5962 916.011 57.5962 910.314 Q57.5962 907.767 56.9278 905.285 Q56.2276 902.77 54.859 900.288 L60.2698 900.288 Q61.4156 902.739 61.9886 905.38 Q62.5615 907.99 62.5615 910.95 Q62.5615 919.003 57.5007 923.745 Q52.44 928.488 43.8463 928.488 Q35.1253 928.488 30.1282 923.714 Q25.1311 918.907 25.1311 910.568 Q25.1311 907.863 25.704 905.285 Q26.2451 902.707 27.3591 900.288 Z" fill="#000000" fill-rule="nonzero" fill-opacity="1" /><path clip-path="url(#clip630)" d="M30.0964 876.289 Q30.0964 881 33.7885 883.737 Q37.4488 886.474 43.8463 886.474 Q50.2438 886.474 53.9359 883.769 Q57.5962 881.032 57.5962 876.289 Q57.5962 871.61 53.9041 868.873 Q50.212 866.136 43.8463 866.136 Q37.5124 866.136 33.8203 868.873 Q30.0964 871.61 30.0964 876.289 M25.1311 876.289 Q25.1311 868.65 30.0964 864.29 Q35.0616 859.929 43.8463 859.929 Q52.5991 859.929 57.5962 864.29 Q62.5615 868.65 62.5615 876.289 Q62.5615 883.96 57.5962 888.32 Q52.5991 892.649 43.8463 892.649 Q35.0616 892.649 30.0964 888.32 Q25.1311 883.96 25.1311 876.289 Z" fill="#000000" fill-rule="nonzero" fill-opacity="1" /><path clip-path="url(#clip630)" d="M47.5702 850.826 L25.9905 850.826 L25.9905 844.97 L47.3474 844.97 Q52.4082 844.97 54.9545 842.996 Q57.4689 841.023 57.4689 837.076 Q57.4689 832.334 54.4452 829.597 Q51.4215 826.828 46.2016 826.828 L25.9905 826.828 L25.9905 820.971 L61.6384 820.971 L61.6384 826.828 L56.1639 826.828 Q59.4104 828.96 61.0019 831.793 Q62.5615 834.594 62.5615 838.318 Q62.5615 844.461 58.742 847.643 Q54.9226 850.826 47.5702 850.826 M25.1311 836.09 L25.1311 836.09 Z" fill="#000000" fill-rule="nonzero" fill-opacity="1" /><path clip-path="url(#clip630)" d="M40.1224 779.276 L61.6384 779.276 L61.6384 785.132 L40.3133 785.132 Q35.2526 785.132 32.7381 787.106 Q30.2237 789.079 30.2237 793.026 Q30.2237 797.768 33.2474 800.505 Q36.2711 803.243 41.491 803.243 L61.6384 803.243 L61.6384 809.131 L25.9905 809.131 L25.9905 803.243 L31.5287 803.243 Q28.314 801.142 26.7225 798.309 Q25.1311 795.445 25.1311 791.721 Q25.1311 785.578 28.9505 782.427 Q32.7381 779.276 40.1224 779.276 Z" fill="#000000" fill-rule="nonzero" fill-opacity="1" /><path clip-path="url(#clip630)" d="M15.869 761.802 L25.9905 761.802 L25.9905 749.739 L30.542 749.739 L30.542 761.802 L49.8937 761.802 Q54.2542 761.802 55.4955 760.624 Q56.7368 759.415 56.7368 755.754 L56.7368 749.739 L61.6384 749.739 L61.6384 755.754 Q61.6384 762.534 59.124 765.112 Q56.5777 767.69 49.8937 767.69 L30.542 767.69 L30.542 771.987 L25.9905 771.987 L25.9905 767.69 L15.869 767.69 L15.869 761.802 Z" fill="#000000" fill-rule="nonzero" fill-opacity="1" /><path clip-path="url(#clip630)" d="M993.184 12.096 L1031.42 12.096 L1031.42 18.9825 L1001.37 18.9825 L1001.37 36.8875 L1030.17 36.8875 L1030.17 43.7741 L1001.37 43.7741 L1001.37 65.6895 L1032.15 65.6895 L1032.15 72.576 L993.184 72.576 L993.184 12.096 Z" fill="#000000" fill-rule="nonzero" fill-opacity="1" /><path clip-path="url(#clip630)" d="M1075.13 34.0924 L1075.13 9.54393 L1082.59 9.54393 L1082.59 72.576 L1075.13 72.576 L1075.13 65.7705 Q1072.78 69.8214 1069.18 71.8063 Q1065.61 73.7508 1060.59 73.7508 Q1052.37 73.7508 1047.18 67.1883 Q1042.04 60.6258 1042.04 49.9314 Q1042.04 39.2371 1047.18 32.6746 Q1052.37 26.1121 1060.59 26.1121 Q1065.61 26.1121 1069.18 28.0971 Q1072.78 30.0415 1075.13 34.0924 M1049.74 49.9314 Q1049.74 58.1548 1053.1 62.8538 Q1056.5 67.5124 1062.41 67.5124 Q1068.33 67.5124 1071.73 62.8538 Q1075.13 58.1548 1075.13 49.9314 Q1075.13 41.7081 1071.73 37.0496 Q1068.33 32.3505 1062.41 32.3505 Q1056.5 32.3505 1053.1 37.0496 Q1049.74 41.7081 1049.74 49.9314 Z" fill="#000000" fill-rule="nonzero" fill-opacity="1" /><path clip-path="url(#clip630)" d="M1127.8 49.3643 Q1127.8 41.2625 1124.43 36.8065 Q1121.11 32.3505 1115.08 32.3505 Q1109.08 32.3505 1105.72 36.8065 Q1102.4 41.2625 1102.4 49.3643 Q1102.4 57.4256 1105.72 61.8816 Q1109.08 66.3376 1115.08 66.3376 Q1121.11 66.3376 1124.43 61.8816 Q1127.8 57.4256 1127.8 49.3643 M1135.25 66.9452 Q1135.25 78.5308 1130.1 84.1616 Q1124.96 89.8329 1114.35 89.8329 Q1110.42 89.8329 1106.93 89.2252 Q1103.45 88.6581 1100.17 87.4428 L1100.17 80.1917 Q1103.45 81.9741 1106.65 82.8248 Q1109.85 83.6755 1113.17 83.6755 Q1120.5 83.6755 1124.15 79.8271 Q1127.8 76.0193 1127.8 68.282 L1127.8 64.5957 Q1125.49 68.6061 1121.88 70.5911 Q1118.28 72.576 1113.25 72.576 Q1104.91 72.576 1099.8 66.2161 Q1094.7 59.8562 1094.7 49.3643 Q1094.7 38.832 1099.8 32.472 Q1104.91 26.1121 1113.25 26.1121 Q1118.28 26.1121 1121.88 28.0971 Q1125.49 30.082 1127.8 34.0924 L1127.8 27.2059 L1135.25 27.2059 L1135.25 66.9452 Z" fill="#000000" fill-rule="nonzero" fill-opacity="1" /><path clip-path="url(#clip630)" d="M1189.41 48.0275 L1189.41 51.6733 L1155.14 51.6733 Q1155.63 59.3701 1159.76 63.421 Q1163.93 67.4314 1171.34 67.4314 Q1175.64 67.4314 1179.65 66.3781 Q1183.7 65.3249 1187.67 63.2184 L1187.67 70.267 Q1183.66 71.9684 1179.44 72.8596 Q1175.23 73.7508 1170.9 73.7508 Q1160.04 73.7508 1153.68 67.4314 Q1147.36 61.1119 1147.36 50.3365 Q1147.36 39.1965 1153.36 32.6746 Q1159.39 26.1121 1169.6 26.1121 Q1178.76 26.1121 1184.06 32.0264 Q1189.41 37.9003 1189.41 48.0275 M1181.96 45.84 Q1181.88 39.7232 1178.51 36.0774 Q1175.19 32.4315 1169.68 32.4315 Q1163.44 32.4315 1159.68 35.9558 Q1155.95 39.4801 1155.38 45.8805 L1181.96 45.84 Z" fill="#000000" fill-rule="nonzero" fill-opacity="1" /><path clip-path="url(#clip630)" d="M1197.88 46.5287 L1219.71 46.5287 L1219.71 53.1722 L1197.88 53.1722 L1197.88 46.5287 Z" fill="#000000" fill-rule="nonzero" fill-opacity="1" /><path clip-path="url(#clip630)" d="M1238.95 14.324 L1238.95 27.2059 L1254.31 27.2059 L1254.31 32.9987 L1238.95 32.9987 L1238.95 57.6282 Q1238.95 63.1779 1240.45 64.7578 Q1241.99 66.3376 1246.65 66.3376 L1254.31 66.3376 L1254.31 72.576 L1246.65 72.576 Q1238.02 72.576 1234.74 69.3758 Q1231.46 66.1351 1231.46 57.6282 L1231.46 32.9987 L1225.99 32.9987 L1225.99 27.2059 L1231.46 27.2059 L1231.46 14.324 L1238.95 14.324 Z" fill="#000000" fill-rule="nonzero" fill-opacity="1" /><path clip-path="url(#clip630)" d="M1282.99 76.7889 Q1279.83 84.8907 1276.83 87.3618 Q1273.83 89.8329 1268.81 89.8329 L1262.85 89.8329 L1262.85 83.5945 L1267.23 83.5945 Q1270.31 83.5945 1272.01 82.1361 Q1273.71 80.6778 1275.78 75.2496 L1277.11 71.8468 L1258.76 27.2059 L1266.66 27.2059 L1280.84 62.6918 L1295.02 27.2059 L1302.92 27.2059 L1282.99 76.7889 Z" fill="#000000" fill-rule="nonzero" fill-opacity="1" /><path clip-path="url(#clip630)" d="M1320.42 65.7705 L1320.42 89.8329 L1312.92 89.8329 L1312.92 27.2059 L1320.42 27.2059 L1320.42 34.0924 Q1322.77 30.0415 1326.33 28.0971 Q1329.94 26.1121 1334.92 26.1121 Q1343.18 26.1121 1348.33 32.6746 Q1353.51 39.2371 1353.51 49.9314 Q1353.51 60.6258 1348.33 67.1883 Q1343.18 73.7508 1334.92 73.7508 Q1329.94 73.7508 1326.33 71.8063 Q1322.77 69.8214 1320.42 65.7705 M1345.78 49.9314 Q1345.78 41.7081 1342.37 37.0496 Q1339.01 32.3505 1333.1 32.3505 Q1327.18 32.3505 1323.78 37.0496 Q1320.42 41.7081 1320.42 49.9314 Q1320.42 58.1548 1323.78 62.8538 Q1327.18 67.5124 1333.1 67.5124 Q1339.01 67.5124 1342.37 62.8538 Q1345.78 58.1548 1345.78 49.9314 Z" fill="#000000" fill-rule="nonzero" fill-opacity="1" /><path clip-path="url(#clip630)" d="M1404.68 48.0275 L1404.68 51.6733 L1370.4 51.6733 Q1370.89 59.3701 1375.02 63.421 Q1379.2 67.4314 1386.61 67.4314 Q1390.9 67.4314 1394.91 66.3781 Q1398.96 65.3249 1402.93 63.2184 L1402.93 70.267 Q1398.92 71.9684 1394.71 72.8596 Q1390.5 73.7508 1386.16 73.7508 Q1375.31 73.7508 1368.95 67.4314 Q1362.63 61.1119 1362.63 50.3365 Q1362.63 39.1965 1368.62 32.6746 Q1374.66 26.1121 1384.87 26.1121 Q1394.02 26.1121 1399.33 32.0264 Q1404.68 37.9003 1404.68 48.0275 M1397.22 45.84 Q1397.14 39.7232 1393.78 36.0774 Q1390.46 32.4315 1384.95 32.4315 Q1378.71 32.4315 1374.94 35.9558 Q1371.21 39.4801 1370.65 45.8805 L1397.22 45.84 Z" fill="#000000" fill-rule="nonzero" fill-opacity="1" /><path clip-path="url(#clip630)" d="M1473.14 34.0924 L1473.14 9.54393 L1480.59 9.54393 L1480.59 72.576 L1473.14 72.576 L1473.14 65.7705 Q1470.79 69.8214 1467.18 71.8063 Q1463.62 73.7508 1458.59 73.7508 Q1450.37 73.7508 1445.18 67.1883 Q1440.04 60.6258 1440.04 49.9314 Q1440.04 39.2371 1445.18 32.6746 Q1450.37 26.1121 1458.59 26.1121 Q1463.62 26.1121 1467.18 28.0971 Q1470.79 30.0415 1473.14 34.0924 M1447.74 49.9314 Q1447.74 58.1548 1451.1 62.8538 Q1454.5 67.5124 1460.42 67.5124 Q1466.33 67.5124 1469.73 62.8538 Q1473.14 58.1548 1473.14 49.9314 Q1473.14 41.7081 1469.73 37.0496 Q1466.33 32.3505 1460.42 32.3505 Q1454.5 32.3505 1451.1 37.0496 Q1447.74 41.7081 1447.74 49.9314 Z" fill="#000000" fill-rule="nonzero" fill-opacity="1" /><path clip-path="url(#clip630)" d="M1514.82 76.7889 Q1511.66 84.8907 1508.66 87.3618 Q1505.66 89.8329 1500.64 89.8329 L1494.69 89.8329 L1494.69 83.5945 L1499.06 83.5945 Q1502.14 83.5945 1503.84 82.1361 Q1505.54 80.6778 1507.61 75.2496 L1508.95 71.8468 L1490.59 27.2059 L1498.49 27.2059 L1512.67 62.6918 L1526.85 27.2059 L1534.75 27.2059 L1514.82 76.7889 Z" fill="#000000" fill-rule="nonzero" fill-opacity="1" /><path clip-path="url(#clip630)" d="M1582.75 45.1919 L1582.75 72.576 L1575.3 72.576 L1575.3 45.4349 Q1575.3 38.994 1572.79 35.7938 Q1570.28 32.5936 1565.25 32.5936 Q1559.22 32.5936 1555.73 36.4419 Q1552.25 40.2903 1552.25 46.9338 L1552.25 72.576 L1544.76 72.576 L1544.76 27.2059 L1552.25 27.2059 L1552.25 34.2544 Q1554.92 30.163 1558.53 28.1376 Q1562.17 26.1121 1566.91 26.1121 Q1574.73 26.1121 1578.74 30.9732 Q1582.75 35.7938 1582.75 45.1919 Z" fill="#000000" fill-rule="nonzero" fill-opacity="1" /><path clip-path="url(#clip630)" d="M1618.24 49.7694 Q1609.21 49.7694 1605.72 51.8354 Q1602.24 53.9013 1602.24 58.8839 Q1602.24 62.8538 1604.83 65.2034 Q1607.46 67.5124 1611.96 67.5124 Q1618.16 67.5124 1621.88 63.1374 Q1625.65 58.7219 1625.65 51.4303 L1625.65 49.7694 L1618.24 49.7694 M1633.11 46.6907 L1633.11 72.576 L1625.65 72.576 L1625.65 65.6895 Q1623.1 69.8214 1619.29 71.8063 Q1615.48 73.7508 1609.98 73.7508 Q1603.01 73.7508 1598.88 69.8619 Q1594.78 65.9325 1594.78 59.3701 Q1594.78 51.7138 1599.89 47.825 Q1605.03 43.9361 1615.2 43.9361 L1625.65 43.9361 L1625.65 43.2069 Q1625.65 38.0623 1622.25 35.2672 Q1618.89 32.4315 1612.77 32.4315 Q1608.88 32.4315 1605.19 33.3632 Q1601.51 34.295 1598.11 36.1584 L1598.11 29.2718 Q1602.2 27.692 1606.05 26.9223 Q1609.89 26.1121 1613.54 26.1121 Q1623.38 26.1121 1628.24 31.2163 Q1633.11 36.3204 1633.11 46.6907 Z" fill="#000000" fill-rule="nonzero" fill-opacity="1" /><path clip-path="url(#clip630)" d="M1683.78 35.9153 Q1686.58 30.8922 1690.47 28.5022 Q1694.36 26.1121 1699.62 26.1121 Q1706.71 26.1121 1710.56 31.0947 Q1714.41 36.0368 1714.41 45.1919 L1714.41 72.576 L1706.91 72.576 L1706.91 45.4349 Q1706.91 38.913 1704.6 35.7533 Q1702.3 32.5936 1697.56 32.5936 Q1691.76 32.5936 1688.4 36.4419 Q1685.04 40.2903 1685.04 46.9338 L1685.04 72.576 L1677.54 72.576 L1677.54 45.4349 Q1677.54 38.8725 1675.24 35.7533 Q1672.93 32.5936 1668.11 32.5936 Q1662.39 32.5936 1659.03 36.4824 Q1655.67 40.3308 1655.67 46.9338 L1655.67 72.576 L1648.18 72.576 L1648.18 27.2059 L1655.67 27.2059 L1655.67 34.2544 Q1658.22 30.082 1661.79 28.0971 Q1665.35 26.1121 1670.25 26.1121 Q1675.19 26.1121 1678.64 28.6237 Q1682.12 31.1352 1683.78 35.9153 Z" fill="#000000" fill-rule="nonzero" fill-opacity="1" /><path clip-path="url(#clip630)" d="M1729.27 27.2059 L1736.73 27.2059 L1736.73 72.576 L1729.27 72.576 L1729.27 27.2059 M1729.27 9.54393 L1736.73 9.54393 L1736.73 18.9825 L1729.27 18.9825 L1729.27 9.54393 Z" fill="#000000" fill-rule="nonzero" fill-opacity="1" /><path clip-path="url(#clip630)" d="M1784.97 28.9478 L1784.97 35.9153 Q1781.81 34.1734 1778.61 33.3227 Q1775.45 32.4315 1772.21 32.4315 Q1764.96 32.4315 1760.95 37.0496 Q1756.94 41.6271 1756.94 49.9314 Q1756.94 58.2358 1760.95 62.8538 Q1764.96 67.4314 1772.21 67.4314 Q1775.45 67.4314 1778.61 66.5807 Q1781.81 65.6895 1784.97 63.9476 L1784.97 70.8341 Q1781.85 72.2924 1778.49 73.0216 Q1775.17 73.7508 1771.4 73.7508 Q1761.15 73.7508 1755.12 67.3098 Q1749.08 60.8689 1749.08 49.9314 Q1749.08 38.832 1755.16 32.472 Q1761.28 26.1121 1771.89 26.1121 Q1775.33 26.1121 1778.61 26.8413 Q1781.9 27.5299 1784.97 28.9478 Z" fill="#000000" fill-rule="nonzero" fill-opacity="1" /><path clip-path="url(#clip630)" d="M1826.86 28.5427 L1826.86 35.5912 Q1823.7 33.9709 1820.3 33.1607 Q1816.9 32.3505 1813.25 32.3505 Q1807.7 32.3505 1804.9 34.0519 Q1802.15 35.7533 1802.15 39.156 Q1802.15 41.7486 1804.13 43.2475 Q1806.12 44.7058 1812.12 46.0426 L1814.67 46.6097 Q1822.61 48.3111 1825.93 51.4303 Q1829.29 54.509 1829.29 60.0587 Q1829.29 66.3781 1824.27 70.0644 Q1819.29 73.7508 1810.54 73.7508 Q1806.89 73.7508 1802.92 73.0216 Q1798.99 72.3329 1794.62 70.9151 L1794.62 63.2184 Q1798.75 65.3654 1802.76 66.4591 Q1806.77 67.5124 1810.7 67.5124 Q1815.96 67.5124 1818.8 65.73 Q1821.63 63.9071 1821.63 60.6258 Q1821.63 57.5877 1819.57 55.9673 Q1817.54 54.3469 1810.62 52.8481 L1808.02 52.2405 Q1801.1 50.7821 1798.02 47.7845 Q1794.94 44.7463 1794.94 39.4801 Q1794.94 33.0797 1799.48 29.5959 Q1804.01 26.1121 1812.36 26.1121 Q1816.49 26.1121 1820.14 26.7198 Q1823.78 27.3274 1826.86 28.5427 Z" fill="#000000" fill-rule="nonzero" fill-opacity="1" /><polyline clip-path="url(#clip631)" style="stroke:#009af9; stroke-linecap:round; stroke-linejoin:round; stroke-width:8; stroke-opacity:1; fill:none" points="251.315,173.254 251.757,174.426 253.503,179.348 256.119,187.719 259.046,198.691 262.298,213.202 265.739,231.698 269.332,255.097 273.01,284.142 276.735,319.711 280.47,362.547 284.193,413.323 287.889,472.51 291.555,540.38 295.196,616.964 298.829,702.072 302.486,795.388 306.226,896.831 310.22,1008.64 314.413,1125.37 318.042,1221.88 321.652,1310.56 325.051,1385.16 328.365,1448.39 331.569,1500.2 334.711,1542.35 337.808,1576.09 340.894,1602.89 344.001,1623.99 347.174,1640.53 350.489,1653.49 354.172,1663.91 357.852,1671.25 361.276,1676.07 364.706,1679.53 368.072,1681.96 371.438,1683.7 374.807,1684.96 378.21,1685.89 381.667,1686.56 385.204,1687.07 388.849,1687.45 392.628,1687.73 396.568,1687.95 400.683,1688.11 404.975,1688.23 409.435,1688.32 414.061,1688.39 418.86,1688.44 423.849,1688.48 429.047,1688.51 434.478,1688.54 440.171,1688.56 446.155,1688.57 452.466,1688.58 459.14,1688.59 466.217,1688.6 473.74,1688.61 481.757,1688.61 490.318,1688.61 499.48,1688.62 509.302,1688.62 519.85,1688.62 531.192,1688.62 543.389,1688.62 556.472,1688.62 570.385,1688.63 584.991,1688.63 600.152,1688.63 615.777,1688.63 631.802,1688.63 648.187,1688.63 664.908,1688.63 681.959,1688.63 699.346,1688.63 717.091,1688.63 735.227,1688.63 753.801,1688.63 772.869,1688.63 792.5,1688.63 812.77,1688.63 833.766,1688.63 855.584,1688.63 878.33,1688.63 902.122,1688.63 927.09,1688.63 953.372,1688.63 981.103,1688.63 1010.38,1688.63 1041.19,1688.63 1073.4,1688.63 1106.86,1688.63 1141.48,1688.63 1177.24,1688.63 1214.17,1688.63 1252.35,1688.63 1291.89,1688.63 1332.91,1688.63 1375.6,1688.63 1420.12,1688.63 1466.71,1688.63 1515.6,1688.63 1567.08,1688.63 1621.47,1688.63 1679.17,1688.63 1740.62,1688.63 1806.37,1688.63 1877.08,1688.63 1953.6,1688.63 2036.98,1688.63 2128.66,1688.63 2230.65,1688.63 2346.05,1688.63 2480.96,1688.63 2571.16,1688.63 "/>
<polyline clip-path="url(#clip631)" style="stroke:#e26f46; stroke-linecap:round; stroke-linejoin:round; stroke-width:8; stroke-opacity:1; fill:none" points="251.315,1673.35 251.757,1672.95 253.503,1671.26 256.119,1668.4 259.046,1664.66 262.298,1659.75 265.739,1653.55 269.332,1645.78 273.01,1636.26 276.735,1624.81 280.47,1611.31 284.193,1595.77 287.889,1578.29 291.555,1559.16 295.196,1538.84 298.829,1517.99 302.486,1497.46 306.226,1478.31 310.22,1461.72 314.413,1450.6 318.042,1447.45 321.652,1450.82 325.051,1459.76 328.365,1473.2 331.569,1489.67 334.711,1508.06 337.808,1527.3 340.894,1546.62 344.001,1565.43 347.174,1583.38 350.489,1600.34 354.172,1616.78 357.852,1630.65 361.276,1641.4 364.706,1650.31 368.072,1657.47 371.438,1663.3 374.807,1668.04 378.21,1671.89 381.667,1675.04 385.204,1677.61 388.849,1679.71 392.628,1681.44 396.568,1682.85 400.683,1684 404.975,1684.93 409.435,1685.67 414.061,1686.27 418.86,1686.75 423.849,1687.13 429.047,1687.43 434.478,1687.68 440.171,1687.87 446.155,1688.03 452.466,1688.16 459.14,1688.26 466.217,1688.34 473.74,1688.41 481.757,1688.46 490.318,1688.51 499.48,1688.54 509.302,1688.57 519.85,1688.59 531.192,1688.61 543.389,1688.62 556.472,1688.63 570.385,1688.64 584.991,1688.64 600.152,1688.65 615.777,1688.65 631.802,1688.65 648.187,1688.65 664.908,1688.65 681.959,1688.65 699.346,1688.65 717.091,1688.65 735.227,1688.65 753.801,1688.65 772.869,1688.65 792.5,1688.65 812.77,1688.65 833.766,1688.65 855.584,1688.65 878.33,1688.65 902.122,1688.65 927.09,1688.65 953.372,1688.65 981.103,1688.65 1010.38,1688.65 1041.19,1688.65 1073.4,1688.65 1106.86,1688.65 1141.48,1688.65 1177.24,1688.65 1214.17,1688.65 1252.35,1688.65 1291.89,1688.65 1332.91,1688.65 1375.6,1688.65 1420.12,1688.65 1466.71,1688.65 1515.6,1688.65 1567.08,1688.65 1621.47,1688.65 1679.17,1688.65 1740.62,1688.65 1806.37,1688.65 1877.08,1688.65 1953.6,1688.65 2036.98,1688.65 2128.66,1688.65 2230.65,1688.65 2346.05,1688.65 2480.96,1688.65 2571.16,1688.65 "/>
<polyline clip-path="url(#clip631)" style="stroke:#3da44d; stroke-linecap:round; stroke-linejoin:round; stroke-width:8; stroke-opacity:1; fill:none" points="251.315,1688.5 251.757,1688.25 253.503,1687.23 256.119,1685.53 259.046,1683.35 262.298,1680.51 265.739,1676.91 269.332,1672.32 273.01,1666.54 276.735,1659.25 280.47,1650.11 284.193,1638.7 287.889,1624.55 291.555,1607.1 295.196,1585.68 298.829,1559.57 302.486,1527.83 306.226,1489.23 310.22,1441.03 314.413,1383.34 318.042,1328.94 321.652,1272.62 325.051,1219.78 328.365,1170.59 331.569,1127.15 334.711,1089.97 337.808,1059.69 340.894,1036.44 344.001,1020.21 347.174,1010.88 350.489,1008.38 354.172,1013.24 357.852,1024.79 361.276,1040.31 364.706,1059.36 368.072,1080.54 371.438,1103.4 374.807,1127.31 378.21,1151.98 381.667,1177.15 385.204,1202.68 388.849,1228.44 392.628,1254.37 396.568,1280.38 400.683,1306.33 404.975,1331.99 409.435,1357.12 414.061,1381.53 418.86,1405.13 423.849,1427.87 429.047,1449.73 434.478,1470.7 440.171,1490.77 446.155,1509.93 452.466,1528.16 459.14,1545.45 466.217,1561.78 473.74,1577.12 481.757,1591.44 490.318,1604.72 499.48,1616.94 509.302,1628.08 519.85,1638.12 531.192,1647.08 543.389,1654.95 556.472,1661.74 570.385,1667.47 584.991,1672.18 600.152,1675.97 615.777,1678.96 631.802,1681.3 648.187,1683.11 664.908,1684.5 681.959,1685.55 699.346,1686.36 717.091,1686.96 735.227,1687.42 753.801,1687.76 772.869,1688.01 792.5,1688.19 812.77,1688.33 833.766,1688.43 855.584,1688.5 878.33,1688.55 902.122,1688.59 927.09,1688.61 953.372,1688.63 981.103,1688.64 1010.38,1688.64 1041.19,1688.65 1073.4,1688.65 1106.86,1688.65 1141.48,1688.65 1177.24,1688.65 1214.17,1688.65 1252.35,1688.65 1291.89,1688.65 1332.91,1688.65 1375.6,1688.65 1420.12,1688.65 1466.71,1688.65 1515.6,1688.65 1567.08,1688.65 1621.47,1688.65 1679.17,1688.65 1740.62,1688.65 1806.37,1688.65 1877.08,1688.65 1953.6,1688.65 2036.98,1688.65 2128.66,1688.65 2230.65,1688.65 2346.05,1688.65 2480.96,1688.65 2571.16,1688.65 "/>
<path clip-path="url(#clip630)" d="M2223.86 388.696 L2558.79 388.696 L2558.79 181.336 L2223.86 181.336  Z" fill="#ffffff" fill-rule="evenodd" fill-opacity="1"/>
<polyline clip-path="url(#clip630)" style="stroke:#000000; stroke-linecap:round; stroke-linejoin:round; stroke-width:4; stroke-opacity:1; fill:none" points="2223.86,388.696 2558.79,388.696 2558.79,181.336 2223.86,181.336 2223.86,388.696 "/>
<polyline clip-path="url(#clip630)" style="stroke:#009af9; stroke-linecap:round; stroke-linejoin:round; stroke-width:8; stroke-opacity:1; fill:none" points="2251.18,233.176 2415.12,233.176 "/>
<path clip-path="url(#clip630)" d="M2442.44 214.438 L2452.25 214.438 L2452.25 217.748 L2446.7 217.748 L2446.7 253.396 L2452.25 253.396 L2452.25 256.706 L2442.44 256.706 L2442.44 214.438 Z" fill="#000000" fill-rule="nonzero" fill-opacity="1" /><path clip-path="url(#clip630)" d="M2482.23 217.031 L2482.23 221.591 Q2479.57 220.318 2477.21 219.693 Q2474.85 219.068 2472.65 219.068 Q2468.83 219.068 2466.74 220.549 Q2464.68 222.031 2464.68 224.762 Q2464.68 227.054 2466.05 228.234 Q2467.44 229.392 2471.28 230.109 L2474.1 230.688 Q2479.34 231.683 2481.81 234.206 Q2484.31 236.706 2484.31 240.919 Q2484.31 245.942 2480.93 248.535 Q2477.58 251.128 2471.07 251.128 Q2468.62 251.128 2465.84 250.572 Q2463.09 250.016 2460.12 248.929 L2460.12 244.114 Q2462.97 245.711 2465.7 246.521 Q2468.43 247.331 2471.07 247.331 Q2475.08 247.331 2477.25 245.757 Q2479.43 244.183 2479.43 241.267 Q2479.43 238.72 2477.85 237.285 Q2476.3 235.85 2472.74 235.132 L2469.89 234.577 Q2464.66 233.535 2462.32 231.313 Q2459.98 229.091 2459.98 225.132 Q2459.98 220.549 2463.2 217.91 Q2466.44 215.271 2472.11 215.271 Q2474.54 215.271 2477.07 215.711 Q2479.59 216.151 2482.23 217.031 Z" fill="#000000" fill-rule="nonzero" fill-opacity="1" /><path clip-path="url(#clip630)" d="M2512.32 217.031 L2512.32 221.591 Q2509.66 220.318 2507.3 219.693 Q2504.94 219.068 2502.74 219.068 Q2498.92 219.068 2496.84 220.549 Q2494.78 222.031 2494.78 224.762 Q2494.78 227.054 2496.14 228.234 Q2497.53 229.392 2501.37 230.109 L2504.2 230.688 Q2509.43 231.683 2511.91 234.206 Q2514.41 236.706 2514.41 240.919 Q2514.41 245.942 2511.03 248.535 Q2507.67 251.128 2501.16 251.128 Q2498.71 251.128 2495.93 250.572 Q2493.18 250.016 2490.22 248.929 L2490.22 244.114 Q2493.06 245.711 2495.79 246.521 Q2498.53 247.331 2501.16 247.331 Q2505.17 247.331 2507.35 245.757 Q2509.52 244.183 2509.52 241.267 Q2509.52 238.72 2507.95 237.285 Q2506.4 235.85 2502.83 235.132 L2499.98 234.577 Q2494.75 233.535 2492.41 231.313 Q2490.08 229.091 2490.08 225.132 Q2490.08 220.549 2493.29 217.91 Q2496.54 215.271 2502.21 215.271 Q2504.64 215.271 2507.16 215.711 Q2509.68 216.151 2512.32 217.031 Z" fill="#000000" fill-rule="nonzero" fill-opacity="1" /><path clip-path="url(#clip630)" d="M2531.47 214.438 L2531.47 256.706 L2521.65 256.706 L2521.65 253.396 L2527.18 253.396 L2527.18 217.748 L2521.65 217.748 L2521.65 214.438 L2531.47 214.438 Z" fill="#000000" fill-rule="nonzero" fill-opacity="1" /><polyline clip-path="url(#clip630)" style="stroke:#e26f46; stroke-linecap:round; stroke-linejoin:round; stroke-width:8; stroke-opacity:1; fill:none" points="2251.18,285.016 2415.12,285.016 "/>
<path clip-path="url(#clip630)" d="M2442.44 266.278 L2452.25 266.278 L2452.25 269.588 L2446.7 269.588 L2446.7 305.236 L2452.25 305.236 L2452.25 308.546 L2442.44 308.546 L2442.44 266.278 Z" fill="#000000" fill-rule="nonzero" fill-opacity="1" /><path clip-path="url(#clip630)" d="M2482.23 268.871 L2482.23 273.431 Q2479.57 272.158 2477.21 271.533 Q2474.85 270.908 2472.65 270.908 Q2468.83 270.908 2466.74 272.389 Q2464.68 273.871 2464.68 276.602 Q2464.68 278.894 2466.05 280.074 Q2467.44 281.232 2471.28 281.949 L2474.1 282.528 Q2479.34 283.523 2481.81 286.046 Q2484.31 288.546 2484.31 292.759 Q2484.31 297.782 2480.93 300.375 Q2477.58 302.968 2471.07 302.968 Q2468.62 302.968 2465.84 302.412 Q2463.09 301.856 2460.12 300.769 L2460.12 295.954 Q2462.97 297.551 2465.7 298.361 Q2468.43 299.171 2471.07 299.171 Q2475.08 299.171 2477.25 297.597 Q2479.43 296.023 2479.43 293.107 Q2479.43 290.56 2477.85 289.125 Q2476.3 287.69 2472.74 286.972 L2469.89 286.417 Q2464.66 285.375 2462.32 283.153 Q2459.98 280.931 2459.98 276.972 Q2459.98 272.389 2463.2 269.75 Q2466.44 267.111 2472.11 267.111 Q2474.54 267.111 2477.07 267.551 Q2479.59 267.991 2482.23 268.871 Z" fill="#000000" fill-rule="nonzero" fill-opacity="1" /><path clip-path="url(#clip630)" d="M2491.6 267.736 L2496.28 267.736 L2496.28 302.296 L2491.6 302.296 L2491.6 267.736 Z" fill="#000000" fill-rule="nonzero" fill-opacity="1" /><path clip-path="url(#clip630)" d="M2515.35 266.278 L2515.35 308.546 L2505.54 308.546 L2505.54 305.236 L2511.07 305.236 L2511.07 269.588 L2505.54 269.588 L2505.54 266.278 L2515.35 266.278 Z" fill="#000000" fill-rule="nonzero" fill-opacity="1" /><polyline clip-path="url(#clip630)" style="stroke:#3da44d; stroke-linecap:round; stroke-linejoin:round; stroke-width:8; stroke-opacity:1; fill:none" points="2251.18,336.856 2415.12,336.856 "/>
<path clip-path="url(#clip630)" d="M2442.44 318.118 L2452.25 318.118 L2452.25 321.428 L2446.7 321.428 L2446.7 357.076 L2452.25 357.076 L2452.25 360.386 L2442.44 360.386 L2442.44 318.118 Z" fill="#000000" fill-rule="nonzero" fill-opacity="1" /><path clip-path="url(#clip630)" d="M2461.51 319.576 L2466.19 319.576 L2466.19 354.136 L2461.51 354.136 L2461.51 319.576 Z" fill="#000000" fill-rule="nonzero" fill-opacity="1" /><path clip-path="url(#clip630)" d="M2475.49 319.576 L2480.17 319.576 L2480.17 354.136 L2475.49 354.136 L2475.49 319.576 Z" fill="#000000" fill-rule="nonzero" fill-opacity="1" /><path clip-path="url(#clip630)" d="M2499.24 318.118 L2499.24 360.386 L2489.43 360.386 L2489.43 357.076 L2494.96 357.076 L2494.96 321.428 L2489.43 321.428 L2489.43 318.118 L2499.24 318.118 Z" fill="#000000" fill-rule="nonzero" fill-opacity="1" /></svg>
