<?xml version="1.0" encoding="utf-8"?>
<svg xmlns="http://www.w3.org/2000/svg" xmlns:xlink="http://www.w3.org/1999/xlink" width="672" height="480" viewBox="0 0 2688 1920">
<defs>
  <clipPath id="clip600">
    <rect x="0" y="0" width="2688" height="1920"/>
  </clipPath>
</defs>
<path clip-path="url(#clip600)" d="M0 1920 L2688 1920 L2688 -4.26326e-14 L0 -4.26326e-14  Z" fill="#ffffff" fill-rule="evenodd" fill-opacity="1"/>
<defs>
  <clipPath id="clip601">
    <rect x="255" y="127" width="2386" height="1607"/>
  </clipPath>
</defs>
<path clip-path="url(#clip600)" d="M255.816 1734.12 L2640.76 1734.12 L2640.76 127.792 L255.816 127.792  Z" fill="#ffffff" fill-rule="evenodd" fill-opacity="1"/>
<polyline clip-path="url(#clip601)" style="stroke:#000000; stroke-linecap:round; stroke-linejoin:round; stroke-width:2; stroke-opacity:0.1; fill:none" points="323.315,1734.12 323.315,127.792 "/>
<polyline clip-path="url(#clip601)" style="stroke:#000000; stroke-linecap:round; stroke-linejoin:round; stroke-width:2; stroke-opacity:0.1; fill:none" points="885.8,1734.12 885.8,127.792 "/>
<polyline clip-path="url(#clip601)" style="stroke:#000000; stroke-linecap:round; stroke-linejoin:round; stroke-width:2; stroke-opacity:0.1; fill:none" points="1448.29,1734.12 1448.29,127.792 "/>
<polyline clip-path="url(#clip601)" style="stroke:#000000; stroke-linecap:round; stroke-linejoin:round; stroke-width:2; stroke-opacity:0.1; fill:none" points="2010.77,1734.12 2010.77,127.792 "/>
<polyline clip-path="url(#clip601)" style="stroke:#000000; stroke-linecap:round; stroke-linejoin:round; stroke-width:2; stroke-opacity:0.1; fill:none" points="2573.26,1734.12 2573.26,127.792 "/>
<polyline clip-path="url(#clip601)" style="stroke:#000000; stroke-linecap:round; stroke-linejoin:round; stroke-width:2; stroke-opacity:0.1; fill:none" points="255.816,1688.65 2640.76,1688.65 "/>
<polyline clip-path="url(#clip601)" style="stroke:#000000; stroke-linecap:round; stroke-linejoin:round; stroke-width:2; stroke-opacity:0.1; fill:none" points="255.816,1309.26 2640.76,1309.26 "/>
<polyline clip-path="url(#clip601)" style="stroke:#000000; stroke-linecap:round; stroke-linejoin:round; stroke-width:2; stroke-opacity:0.1; fill:none" points="255.816,929.87 2640.76,929.87 "/>
<polyline clip-path="url(#clip601)" style="stroke:#000000; stroke-linecap:round; stroke-linejoin:round; stroke-width:2; stroke-opacity:0.1; fill:none" points="255.816,550.478 2640.76,550.478 "/>
<polyline clip-path="url(#clip601)" style="stroke:#000000; stroke-linecap:round; stroke-linejoin:round; stroke-width:2; stroke-opacity:0.1; fill:none" points="255.816,171.086 2640.76,171.086 "/>
<polyline clip-path="url(#clip600)" style="stroke:#000000; stroke-linecap:round; stroke-linejoin:round; stroke-width:4; stroke-opacity:1; fill:none" points="255.816,1734.12 2640.76,1734.12 "/>
<polyline clip-path="url(#clip600)" style="stroke:#000000; stroke-linecap:round; stroke-linejoin:round; stroke-width:4; stroke-opacity:1; fill:none" points="323.315,1734.12 323.315,1715.22 "/>
<polyline clip-path="url(#clip600)" style="stroke:#000000; stroke-linecap:round; stroke-linejoin:round; stroke-width:4; stroke-opacity:1; fill:none" points="885.8,1734.12 885.8,1715.22 "/>
<polyline clip-path="url(#clip600)" style="stroke:#000000; stroke-linecap:round; stroke-linejoin:round; stroke-width:4; stroke-opacity:1; fill:none" points="1448.29,1734.12 1448.29,1715.22 "/>
<polyline clip-path="url(#clip600)" style="stroke:#000000; stroke-linecap:round; stroke-linejoin:round; stroke-width:4; stroke-opacity:1; fill:none" points="2010.77,1734.12 2010.77,1715.22 "/>
<polyline clip-path="url(#clip600)" style="stroke:#000000; stroke-linecap:round; stroke-linejoin:round; stroke-width:4; stroke-opacity:1; fill:none" points="2573.26,1734.12 2573.26,1715.22 "/>
<path clip-path="url(#clip600)" d="M323.315 1767.34 Q319.704 1767.34 317.875 1770.9 Q316.069 1774.45 316.069 1781.58 Q316.069 1788.68 317.875 1792.25 Q319.704 1795.79 323.315 1795.79 Q326.949 1795.79 328.754 1792.25 Q330.583 1788.68 330.583 1781.58 Q330.583 1774.45 328.754 1770.9 Q326.949 1767.34 323.315 1767.34 M323.315 1763.64 Q329.125 1763.64 332.18 1768.24 Q335.259 1772.83 335.259 1781.58 Q335.259 1790.3 332.18 1794.91 Q329.125 1799.49 323.315 1799.49 Q317.504 1799.49 314.426 1794.91 Q311.37 1790.3 311.37 1781.58 Q311.37 1772.83 314.426 1768.24 Q317.504 1763.64 323.315 1763.64 Z" fill="#000000" fill-rule="nonzero" fill-opacity="1" /><path clip-path="url(#clip600)" d="M860.5 1764.26 L878.856 1764.26 L878.856 1768.2 L864.782 1768.2 L864.782 1776.67 Q865.8 1776.32 866.819 1776.16 Q867.837 1775.97 868.856 1775.97 Q874.643 1775.97 878.023 1779.15 Q881.402 1782.32 881.402 1787.73 Q881.402 1793.31 877.93 1796.41 Q874.458 1799.49 868.138 1799.49 Q865.963 1799.49 863.694 1799.12 Q861.449 1798.75 859.041 1798.01 L859.041 1793.31 Q861.125 1794.45 863.347 1795 Q865.569 1795.56 868.046 1795.56 Q872.05 1795.56 874.388 1793.45 Q876.726 1791.34 876.726 1787.73 Q876.726 1784.12 874.388 1782.02 Q872.05 1779.91 868.046 1779.91 Q866.171 1779.91 864.296 1780.33 Q862.444 1780.74 860.5 1781.62 L860.5 1764.26 Z" fill="#000000" fill-rule="nonzero" fill-opacity="1" /><path clip-path="url(#clip600)" d="M900.615 1767.34 Q897.004 1767.34 895.175 1770.9 Q893.37 1774.45 893.37 1781.58 Q893.37 1788.68 895.175 1792.25 Q897.004 1795.79 900.615 1795.79 Q904.249 1795.79 906.055 1792.25 Q907.884 1788.68 907.884 1781.58 Q907.884 1774.45 906.055 1770.9 Q904.249 1767.34 900.615 1767.34 M900.615 1763.64 Q906.425 1763.64 909.481 1768.24 Q912.559 1772.83 912.559 1781.58 Q912.559 1790.3 909.481 1794.91 Q906.425 1799.49 900.615 1799.49 Q894.805 1799.49 891.726 1794.91 Q888.671 1790.3 888.671 1781.58 Q888.671 1772.83 891.726 1768.24 Q894.805 1763.64 900.615 1763.64 Z" fill="#000000" fill-rule="nonzero" fill-opacity="1" /><path clip-path="url(#clip600)" d="M1407.89 1794.89 L1415.53 1794.89 L1415.53 1768.52 L1407.22 1770.19 L1407.22 1765.93 L1415.49 1764.26 L1420.16 1764.26 L1420.16 1794.89 L1427.8 1794.89 L1427.8 1798.82 L1407.89 1798.82 L1407.89 1794.89 Z" fill="#000000" fill-rule="nonzero" fill-opacity="1" /><path clip-path="url(#clip600)" d="M1447.24 1767.34 Q1443.63 1767.34 1441.8 1770.9 Q1440 1774.45 1440 1781.58 Q1440 1788.68 1441.8 1792.25 Q1443.63 1795.79 1447.24 1795.79 Q1450.88 1795.79 1452.68 1792.25 Q1454.51 1788.68 1454.51 1781.58 Q1454.51 1774.45 1452.68 1770.9 Q1450.88 1767.34 1447.24 1767.34 M1447.24 1763.64 Q1453.05 1763.64 1456.11 1768.24 Q1459.19 1772.83 1459.19 1781.58 Q1459.19 1790.3 1456.11 1794.91 Q1453.05 1799.49 1447.24 1799.49 Q1441.43 1799.49 1438.36 1794.91 Q1435.3 1790.3 1435.3 1781.58 Q1435.3 1772.83 1438.36 1768.24 Q1441.43 1763.64 1447.24 1763.64 Z" fill="#000000" fill-rule="nonzero" fill-opacity="1" /><path clip-path="url(#clip600)" d="M1477.41 1767.34 Q1473.8 1767.34 1471.97 1770.9 Q1470.16 1774.45 1470.16 1781.58 Q1470.16 1788.68 1471.97 1792.25 Q1473.8 1795.79 1477.41 1795.79 Q1481.04 1795.79 1482.85 1792.25 Q1484.67 1788.68 1484.67 1781.58 Q1484.67 1774.45 1482.85 1770.9 Q1481.04 1767.34 1477.41 1767.34 M1477.41 1763.64 Q1483.22 1763.64 1486.27 1768.24 Q1489.35 1772.83 1489.35 1781.58 Q1489.35 1790.3 1486.27 1794.91 Q1483.22 1799.49 1477.41 1799.49 Q1471.6 1799.49 1468.52 1794.91 Q1465.46 1790.3 1465.46 1781.58 Q1465.46 1772.83 1468.52 1768.24 Q1471.6 1763.64 1477.41 1763.64 Z" fill="#000000" fill-rule="nonzero" fill-opacity="1" /><path clip-path="url(#clip600)" d="M1970.38 1794.89 L1978.02 1794.89 L1978.02 1768.52 L1969.71 1770.19 L1969.71 1765.93 L1977.97 1764.26 L1982.65 1764.26 L1982.65 1794.89 L1990.29 1794.89 L1990.29 1798.82 L1970.38 1798.82 L1970.38 1794.89 Z" fill="#000000" fill-rule="nonzero" fill-opacity="1" /><path clip-path="url(#clip600)" d="M1999.78 1764.26 L2018.13 1764.26 L2018.13 1768.2 L2004.06 1768.2 L2004.06 1776.67 Q2005.08 1776.32 2006.1 1776.16 Q2007.11 1775.97 2008.13 1775.97 Q2013.92 1775.97 2017.3 1779.15 Q2020.68 1782.32 2020.68 1787.73 Q2020.68 1793.31 2017.21 1796.41 Q2013.73 1799.49 2007.42 1799.49 Q2005.24 1799.49 2002.97 1799.12 Q2000.73 1798.75 1998.32 1798.01 L1998.32 1793.31 Q2000.4 1794.45 2002.62 1795 Q2004.85 1795.56 2007.32 1795.56 Q2011.33 1795.56 2013.67 1793.45 Q2016 1791.34 2016 1787.73 Q2016 1784.12 2013.67 1782.02 Q2011.33 1779.91 2007.32 1779.91 Q2005.45 1779.91 2003.57 1780.33 Q2001.72 1780.74 1999.78 1781.62 L1999.78 1764.26 Z" fill="#000000" fill-rule="nonzero" fill-opacity="1" /><path clip-path="url(#clip600)" d="M2039.89 1767.34 Q2036.28 1767.34 2034.45 1770.9 Q2032.65 1774.45 2032.65 1781.58 Q2032.65 1788.68 2034.45 1792.25 Q2036.28 1795.79 2039.89 1795.79 Q2043.53 1795.79 2045.33 1792.25 Q2047.16 1788.68 2047.16 1781.58 Q2047.16 1774.45 2045.33 1770.9 Q2043.53 1767.34 2039.89 1767.34 M2039.89 1763.64 Q2045.7 1763.64 2048.76 1768.24 Q2051.84 1772.83 2051.84 1781.58 Q2051.84 1790.3 2048.76 1794.91 Q2045.7 1799.49 2039.89 1799.49 Q2034.08 1799.49 2031 1794.91 Q2027.95 1790.3 2027.95 1781.58 Q2027.95 1772.83 2031 1768.24 Q2034.08 1763.64 2039.89 1763.64 Z" fill="#000000" fill-rule="nonzero" fill-opacity="1" /><path clip-path="url(#clip600)" d="M2536.95 1794.89 L2553.27 1794.89 L2553.27 1798.82 L2531.32 1798.82 L2531.32 1794.89 Q2533.99 1792.13 2538.57 1787.5 Q2543.18 1782.85 2544.36 1781.51 Q2546.6 1778.98 2547.48 1777.25 Q2548.39 1775.49 2548.39 1773.8 Q2548.39 1771.04 2546.44 1769.31 Q2544.52 1767.57 2541.42 1767.57 Q2539.22 1767.57 2536.76 1768.34 Q2534.33 1769.1 2531.56 1770.65 L2531.56 1765.93 Q2534.38 1764.79 2536.83 1764.21 Q2539.29 1763.64 2541.32 1763.64 Q2546.7 1763.64 2549.89 1766.32 Q2553.08 1769.01 2553.08 1773.5 Q2553.08 1775.63 2552.27 1777.55 Q2551.49 1779.45 2549.38 1782.04 Q2548.8 1782.71 2545.7 1785.93 Q2542.6 1789.12 2536.95 1794.89 Z" fill="#000000" fill-rule="nonzero" fill-opacity="1" /><path clip-path="url(#clip600)" d="M2573.08 1767.34 Q2569.47 1767.34 2567.64 1770.9 Q2565.84 1774.45 2565.84 1781.58 Q2565.84 1788.68 2567.64 1792.25 Q2569.47 1795.79 2573.08 1795.79 Q2576.72 1795.79 2578.52 1792.25 Q2580.35 1788.68 2580.35 1781.58 Q2580.35 1774.45 2578.52 1770.9 Q2576.72 1767.34 2573.08 1767.34 M2573.08 1763.64 Q2578.89 1763.64 2581.95 1768.24 Q2585.03 1772.83 2585.03 1781.58 Q2585.03 1790.3 2581.95 1794.91 Q2578.89 1799.49 2573.08 1799.49 Q2567.27 1799.49 2564.2 1794.91 Q2561.14 1790.3 2561.14 1781.58 Q2561.14 1772.83 2564.2 1768.24 Q2567.27 1763.64 2573.08 1763.64 Z" fill="#000000" fill-rule="nonzero" fill-opacity="1" /><path clip-path="url(#clip600)" d="M2603.25 1767.34 Q2599.63 1767.34 2597.81 1770.9 Q2596 1774.45 2596 1781.58 Q2596 1788.68 2597.81 1792.25 Q2599.63 1795.79 2603.25 1795.79 Q2606.88 1795.79 2608.69 1792.25 Q2610.51 1788.68 2610.51 1781.58 Q2610.51 1774.45 2608.69 1770.9 Q2606.88 1767.34 2603.25 1767.34 M2603.25 1763.64 Q2609.06 1763.64 2612.11 1768.24 Q2615.19 1772.83 2615.19 1781.58 Q2615.19 1790.3 2612.11 1794.91 Q2609.06 1799.49 2603.25 1799.49 Q2597.44 1799.49 2594.36 1794.91 Q2591.3 1790.3 2591.3 1781.58 Q2591.3 1772.83 2594.36 1768.24 Q2597.44 1763.64 2603.25 1763.64 Z" fill="#000000" fill-rule="nonzero" fill-opacity="1" /><path clip-path="url(#clip600)" d="M1387.45 1837.53 L1387.45 1847.65 L1399.51 1847.65 L1399.51 1852.2 L1387.45 1852.2 L1387.45 1871.56 Q1387.45 1875.92 1388.62 1877.16 Q1389.83 1878.4 1393.49 1878.4 L1399.51 1878.4 L1399.51 1883.3 L1393.49 1883.3 Q1386.71 1883.3 1384.14 1880.79 Q1381.56 1878.24 1381.56 1871.56 L1381.56 1852.2 L1377.26 1852.2 L1377.26 1847.65 L1381.56 1847.65 L1381.56 1837.53 L1387.45 1837.53 Z" fill="#000000" fill-rule="nonzero" fill-opacity="1" /><path clip-path="url(#clip600)" d="M1407.21 1847.65 L1413.07 1847.65 L1413.07 1883.3 L1407.21 1883.3 L1407.21 1847.65 M1407.21 1833.78 L1413.07 1833.78 L1413.07 1841.19 L1407.21 1841.19 L1407.21 1833.78 Z" fill="#000000" fill-rule="nonzero" fill-opacity="1" /><path clip-path="url(#clip600)" d="M1453.08 1854.5 Q1455.27 1850.55 1458.33 1848.67 Q1461.38 1846.79 1465.52 1846.79 Q1471.09 1846.79 1474.11 1850.71 Q1477.14 1854.59 1477.14 1861.78 L1477.14 1883.3 L1471.25 1883.3 L1471.25 1861.98 Q1471.25 1856.85 1469.44 1854.37 Q1467.62 1851.89 1463.9 1851.89 Q1459.35 1851.89 1456.7 1854.91 Q1454.06 1857.93 1454.06 1863.15 L1454.06 1883.3 L1448.17 1883.3 L1448.17 1861.98 Q1448.17 1856.82 1446.36 1854.37 Q1444.55 1851.89 1440.76 1851.89 Q1436.27 1851.89 1433.63 1854.94 Q1430.99 1857.97 1430.99 1863.15 L1430.99 1883.3 L1425.1 1883.3 L1425.1 1847.65 L1430.99 1847.65 L1430.99 1853.19 Q1432.99 1849.91 1435.79 1848.35 Q1438.59 1846.79 1442.45 1846.79 Q1446.33 1846.79 1449.03 1848.77 Q1451.77 1850.74 1453.08 1854.5 Z" fill="#000000" fill-rule="nonzero" fill-opacity="1" /><path clip-path="url(#clip600)" d="M1519.31 1864.01 L1519.31 1866.88 L1492.38 1866.88 Q1492.77 1872.92 1496.01 1876.11 Q1499.29 1879.26 1505.12 1879.26 Q1508.49 1879.26 1511.64 1878.43 Q1514.82 1877.6 1517.94 1875.95 L1517.94 1881.49 Q1514.79 1882.82 1511.48 1883.52 Q1508.17 1884.22 1504.77 1884.22 Q1496.24 1884.22 1491.24 1879.26 Q1486.27 1874.29 1486.27 1865.83 Q1486.27 1857.07 1490.98 1851.95 Q1495.73 1846.79 1503.75 1846.79 Q1510.94 1846.79 1515.11 1851.44 Q1519.31 1856.06 1519.31 1864.01 M1513.46 1862.29 Q1513.39 1857.49 1510.75 1854.62 Q1508.14 1851.76 1503.81 1851.76 Q1498.91 1851.76 1495.95 1854.53 Q1493.02 1857.3 1492.58 1862.33 L1513.46 1862.29 Z" fill="#000000" fill-rule="nonzero" fill-opacity="1" /><polyline clip-path="url(#clip600)" style="stroke:#000000; stroke-linecap:round; stroke-linejoin:round; stroke-width:4; stroke-opacity:1; fill:none" points="255.816,1734.12 255.816,127.792 "/>
<polyline clip-path="url(#clip600)" style="stroke:#000000; stroke-linecap:round; stroke-linejoin:round; stroke-width:4; stroke-opacity:1; fill:none" points="255.816,1688.65 274.714,1688.65 "/>
<polyline clip-path="url(#clip600)" style="stroke:#000000; stroke-linecap:round; stroke-linejoin:round; stroke-width:4; stroke-opacity:1; fill:none" points="255.816,1309.26 274.714,1309.26 "/>
<polyline clip-path="url(#clip600)" style="stroke:#000000; stroke-linecap:round; stroke-linejoin:round; stroke-width:4; stroke-opacity:1; fill:none" points="255.816,929.87 274.714,929.87 "/>
<polyline clip-path="url(#clip600)" style="stroke:#000000; stroke-linecap:round; stroke-linejoin:round; stroke-width:4; stroke-opacity:1; fill:none" points="255.816,550.478 274.714,550.478 "/>
<polyline clip-path="url(#clip600)" style="stroke:#000000; stroke-linecap:round; stroke-linejoin:round; stroke-width:4; stroke-opacity:1; fill:none" points="255.816,171.086 274.714,171.086 "/>
<path clip-path="url(#clip600)" d="M128.159 1674.45 Q124.548 1674.45 122.719 1678.02 Q120.913 1681.56 120.913 1688.69 Q120.913 1695.8 122.719 1699.36 Q124.548 1702.9 128.159 1702.9 Q131.793 1702.9 133.599 1699.36 Q135.427 1695.8 135.427 1688.69 Q135.427 1681.56 133.599 1678.02 Q131.793 1674.45 128.159 1674.45 M128.159 1670.75 Q133.969 1670.75 137.025 1675.36 Q140.103 1679.94 140.103 1688.69 Q140.103 1697.42 137.025 1702.02 Q133.969 1706.61 128.159 1706.61 Q122.349 1706.61 119.27 1702.02 Q116.214 1697.42 116.214 1688.69 Q116.214 1679.94 119.27 1675.36 Q122.349 1670.75 128.159 1670.75 Z" fill="#000000" fill-rule="nonzero" fill-opacity="1" /><path clip-path="url(#clip600)" d="M148.321 1700.06 L153.205 1700.06 L153.205 1705.93 L148.321 1705.93 L148.321 1700.06 Z" fill="#000000" fill-rule="nonzero" fill-opacity="1" /><path clip-path="url(#clip600)" d="M173.39 1674.45 Q169.779 1674.45 167.95 1678.02 Q166.145 1681.56 166.145 1688.69 Q166.145 1695.8 167.95 1699.36 Q169.779 1702.9 173.39 1702.9 Q177.024 1702.9 178.83 1699.36 Q180.659 1695.8 180.659 1688.69 Q180.659 1681.56 178.83 1678.02 Q177.024 1674.45 173.39 1674.45 M173.39 1670.75 Q179.2 1670.75 182.256 1675.36 Q185.334 1679.94 185.334 1688.69 Q185.334 1697.42 182.256 1702.02 Q179.2 1706.61 173.39 1706.61 Q167.58 1706.61 164.501 1702.02 Q161.446 1697.42 161.446 1688.69 Q161.446 1679.94 164.501 1675.36 Q167.58 1670.75 173.39 1670.75 Z" fill="#000000" fill-rule="nonzero" fill-opacity="1" /><path clip-path="url(#clip600)" d="M203.552 1674.45 Q199.941 1674.45 198.112 1678.02 Q196.307 1681.56 196.307 1688.69 Q196.307 1695.8 198.112 1699.36 Q199.941 1702.9 203.552 1702.9 Q207.186 1702.9 208.992 1699.36 Q210.82 1695.8 210.82 1688.69 Q210.82 1681.56 208.992 1678.02 Q207.186 1674.45 203.552 1674.45 M203.552 1670.75 Q209.362 1670.75 212.418 1675.36 Q215.496 1679.94 215.496 1688.69 Q215.496 1697.42 212.418 1702.02 Q209.362 1706.61 203.552 1706.61 Q197.742 1706.61 194.663 1702.02 Q191.608 1697.42 191.608 1688.69 Q191.608 1679.94 194.663 1675.36 Q197.742 1670.75 203.552 1670.75 Z" fill="#000000" fill-rule="nonzero" fill-opacity="1" /><path clip-path="url(#clip600)" d="M129.154 1295.06 Q125.543 1295.06 123.714 1298.63 Q121.909 1302.17 121.909 1309.3 Q121.909 1316.4 123.714 1319.97 Q125.543 1323.51 129.154 1323.51 Q132.788 1323.51 134.594 1319.97 Q136.423 1316.4 136.423 1309.3 Q136.423 1302.17 134.594 1298.63 Q132.788 1295.06 129.154 1295.06 M129.154 1291.36 Q134.964 1291.36 138.02 1295.96 Q141.099 1300.55 141.099 1309.3 Q141.099 1318.02 138.02 1322.63 Q134.964 1327.21 129.154 1327.21 Q123.344 1327.21 120.265 1322.63 Q117.21 1318.02 117.21 1309.3 Q117.21 1300.55 120.265 1295.96 Q123.344 1291.36 129.154 1291.36 Z" fill="#000000" fill-rule="nonzero" fill-opacity="1" /><path clip-path="url(#clip600)" d="M149.316 1320.66 L154.2 1320.66 L154.2 1326.54 L149.316 1326.54 L149.316 1320.66 Z" fill="#000000" fill-rule="nonzero" fill-opacity="1" /><path clip-path="url(#clip600)" d="M168.413 1322.61 L184.733 1322.61 L184.733 1326.54 L162.788 1326.54 L162.788 1322.61 Q165.45 1319.85 170.034 1315.22 Q174.64 1310.57 175.821 1309.23 Q178.066 1306.7 178.946 1304.97 Q179.848 1303.21 179.848 1301.52 Q179.848 1298.77 177.904 1297.03 Q175.983 1295.29 172.881 1295.29 Q170.682 1295.29 168.228 1296.06 Q165.798 1296.82 163.02 1298.37 L163.02 1293.65 Q165.844 1292.52 168.297 1291.94 Q170.751 1291.36 172.788 1291.36 Q178.159 1291.36 181.353 1294.04 Q184.547 1296.73 184.547 1301.22 Q184.547 1303.35 183.737 1305.27 Q182.95 1307.17 180.844 1309.76 Q180.265 1310.43 177.163 1313.65 Q174.061 1316.84 168.413 1322.61 Z" fill="#000000" fill-rule="nonzero" fill-opacity="1" /><path clip-path="url(#clip600)" d="M194.594 1291.98 L212.95 1291.98 L212.95 1295.92 L198.876 1295.92 L198.876 1304.39 Q199.895 1304.04 200.913 1303.88 Q201.932 1303.7 202.95 1303.7 Q208.737 1303.7 212.117 1306.87 Q215.496 1310.04 215.496 1315.45 Q215.496 1321.03 212.024 1324.14 Q208.552 1327.21 202.233 1327.21 Q200.057 1327.21 197.788 1326.84 Q195.543 1326.47 193.135 1325.73 L193.135 1321.03 Q195.219 1322.17 197.441 1322.72 Q199.663 1323.28 202.14 1323.28 Q206.145 1323.28 208.482 1321.17 Q210.82 1319.07 210.82 1315.45 Q210.82 1311.84 208.482 1309.74 Q206.145 1307.63 202.14 1307.63 Q200.265 1307.63 198.39 1308.05 Q196.538 1308.46 194.594 1309.34 L194.594 1291.98 Z" fill="#000000" fill-rule="nonzero" fill-opacity="1" /><path clip-path="url(#clip600)" d="M128.159 915.669 Q124.548 915.669 122.719 919.234 Q120.913 922.776 120.913 929.905 Q120.913 937.012 122.719 940.576 Q124.548 944.118 128.159 944.118 Q131.793 944.118 133.599 940.576 Q135.427 937.012 135.427 929.905 Q135.427 922.776 133.599 919.234 Q131.793 915.669 128.159 915.669 M128.159 911.965 Q133.969 911.965 137.025 916.572 Q140.103 921.155 140.103 929.905 Q140.103 938.632 137.025 943.238 Q133.969 947.822 128.159 947.822 Q122.349 947.822 119.27 943.238 Q116.214 938.632 116.214 929.905 Q116.214 921.155 119.27 916.572 Q122.349 911.965 128.159 911.965 Z" fill="#000000" fill-rule="nonzero" fill-opacity="1" /><path clip-path="url(#clip600)" d="M148.321 941.271 L153.205 941.271 L153.205 947.15 L148.321 947.15 L148.321 941.271 Z" fill="#000000" fill-rule="nonzero" fill-opacity="1" /><path clip-path="url(#clip600)" d="M163.436 912.59 L181.793 912.59 L181.793 916.526 L167.719 916.526 L167.719 924.998 Q168.737 924.651 169.756 924.489 Q170.774 924.303 171.793 924.303 Q177.58 924.303 180.959 927.475 Q184.339 930.646 184.339 936.063 Q184.339 941.641 180.867 944.743 Q177.395 947.822 171.075 947.822 Q168.899 947.822 166.631 947.451 Q164.385 947.081 161.978 946.34 L161.978 941.641 Q164.061 942.775 166.284 943.331 Q168.506 943.887 170.983 943.887 Q174.987 943.887 177.325 941.78 Q179.663 939.674 179.663 936.063 Q179.663 932.451 177.325 930.345 Q174.987 928.238 170.983 928.238 Q169.108 928.238 167.233 928.655 Q165.381 929.072 163.436 929.951 L163.436 912.59 Z" fill="#000000" fill-rule="nonzero" fill-opacity="1" /><path clip-path="url(#clip600)" d="M203.552 915.669 Q199.941 915.669 198.112 919.234 Q196.307 922.776 196.307 929.905 Q196.307 937.012 198.112 940.576 Q199.941 944.118 203.552 944.118 Q207.186 944.118 208.992 940.576 Q210.82 937.012 210.82 929.905 Q210.82 922.776 208.992 919.234 Q207.186 915.669 203.552 915.669 M203.552 911.965 Q209.362 911.965 212.418 916.572 Q215.496 921.155 215.496 929.905 Q215.496 938.632 212.418 943.238 Q209.362 947.822 203.552 947.822 Q197.742 947.822 194.663 943.238 Q191.608 938.632 191.608 929.905 Q191.608 921.155 194.663 916.572 Q197.742 911.965 203.552 911.965 Z" fill="#000000" fill-rule="nonzero" fill-opacity="1" /><path clip-path="url(#clip600)" d="M129.154 536.277 Q125.543 536.277 123.714 539.842 Q121.909 543.383 121.909 550.513 Q121.909 557.619 123.714 561.184 Q125.543 564.726 129.154 564.726 Q132.788 564.726 134.594 561.184 Q136.423 557.619 136.423 550.513 Q136.423 543.383 134.594 539.842 Q132.788 536.277 129.154 536.277 M129.154 532.573 Q134.964 532.573 138.02 537.18 Q141.099 541.763 141.099 550.513 Q141.099 559.24 138.02 563.846 Q134.964 568.429 129.154 568.429 Q123.344 568.429 120.265 563.846 Q117.21 559.24 117.21 550.513 Q117.21 541.763 120.265 537.18 Q123.344 532.573 129.154 532.573 Z" fill="#000000" fill-rule="nonzero" fill-opacity="1" /><path clip-path="url(#clip600)" d="M149.316 561.879 L154.2 561.879 L154.2 567.758 L149.316 567.758 L149.316 561.879 Z" fill="#000000" fill-rule="nonzero" fill-opacity="1" /><path clip-path="url(#clip600)" d="M163.205 533.198 L185.427 533.198 L185.427 535.189 L172.881 567.758 L167.997 567.758 L179.802 537.133 L163.205 537.133 L163.205 533.198 Z" fill="#000000" fill-rule="nonzero" fill-opacity="1" /><path clip-path="url(#clip600)" d="M194.594 533.198 L212.95 533.198 L212.95 537.133 L198.876 537.133 L198.876 545.605 Q199.895 545.258 200.913 545.096 Q201.932 544.911 202.95 544.911 Q208.737 544.911 212.117 548.082 Q215.496 551.254 215.496 556.67 Q215.496 562.249 212.024 565.351 Q208.552 568.429 202.233 568.429 Q200.057 568.429 197.788 568.059 Q195.543 567.689 193.135 566.948 L193.135 562.249 Q195.219 563.383 197.441 563.939 Q199.663 564.494 202.14 564.494 Q206.145 564.494 208.482 562.388 Q210.82 560.281 210.82 556.67 Q210.82 553.059 208.482 550.953 Q206.145 548.846 202.14 548.846 Q200.265 548.846 198.39 549.263 Q196.538 549.68 194.594 550.559 L194.594 533.198 Z" fill="#000000" fill-rule="nonzero" fill-opacity="1" /><path clip-path="url(#clip600)" d="M118.969 184.431 L126.608 184.431 L126.608 158.065 L118.298 159.732 L118.298 155.473 L126.562 153.806 L131.238 153.806 L131.238 184.431 L138.876 184.431 L138.876 188.366 L118.969 188.366 L118.969 184.431 Z" fill="#000000" fill-rule="nonzero" fill-opacity="1" /><path clip-path="url(#clip600)" d="M148.321 182.486 L153.205 182.486 L153.205 188.366 L148.321 188.366 L148.321 182.486 Z" fill="#000000" fill-rule="nonzero" fill-opacity="1" /><path clip-path="url(#clip600)" d="M173.39 156.885 Q169.779 156.885 167.95 160.449 Q166.145 163.991 166.145 171.121 Q166.145 178.227 167.95 181.792 Q169.779 185.333 173.39 185.333 Q177.024 185.333 178.83 181.792 Q180.659 178.227 180.659 171.121 Q180.659 163.991 178.83 160.449 Q177.024 156.885 173.39 156.885 M173.39 153.181 Q179.2 153.181 182.256 157.787 Q185.334 162.371 185.334 171.121 Q185.334 179.847 182.256 184.454 Q179.2 189.037 173.39 189.037 Q167.58 189.037 164.501 184.454 Q161.446 179.847 161.446 171.121 Q161.446 162.371 164.501 157.787 Q167.58 153.181 173.39 153.181 Z" fill="#000000" fill-rule="nonzero" fill-opacity="1" /><path clip-path="url(#clip600)" d="M203.552 156.885 Q199.941 156.885 198.112 160.449 Q196.307 163.991 196.307 171.121 Q196.307 178.227 198.112 181.792 Q199.941 185.333 203.552 185.333 Q207.186 185.333 208.992 181.792 Q210.82 178.227 210.82 171.121 Q210.82 163.991 208.992 160.449 Q207.186 156.885 203.552 156.885 M203.552 153.181 Q209.362 153.181 212.418 157.787 Q215.496 162.371 215.496 171.121 Q215.496 179.847 212.418 184.454 Q209.362 189.037 203.552 189.037 Q197.742 189.037 194.663 184.454 Q191.608 179.847 191.608 171.121 Q191.608 162.371 194.663 157.787 Q197.742 153.181 203.552 153.181 Z" fill="#000000" fill-rule="nonzero" fill-opacity="1" /><path clip-path="url(#clip600)" d="M12.1132 1029.94 L16.983 1029.94 L16.983 1035.54 Q16.983 1038.69 18.2562 1039.94 Q19.5293 1041.14 22.8395 1041.14 L25.9905 1041.14 L25.9905 1031.5 L30.542 1031.5 L30.542 1041.14 L61.6384 1041.14 L61.6384 1047.03 L30.542 1047.03 L30.542 1052.64 L25.9905 1052.64 L25.9905 1047.03 L23.5079 1047.03 Q17.5559 1047.03 14.8505 1044.26 Q12.1132 1041.5 12.1132 1035.48 L12.1132 1029.94 Z" fill="#000000" fill-rule="nonzero" fill-opacity="1" /><path clip-path="url(#clip600)" d="M31.465 1004.38 Q30.8921 1005.37 30.6375 1006.55 Q30.351 1007.69 30.351 1009.09 Q30.351 1014.06 33.5975 1016.73 Q36.8122 1019.37 42.8596 1019.37 L61.6384 1019.37 L61.6384 1025.26 L25.9905 1025.26 L25.9905 1019.37 L31.5287 1019.37 Q28.2821 1017.53 26.7225 1014.57 Q25.1311 1011.61 25.1311 1007.37 Q25.1311 1006.77 25.2266 1006.04 Q25.2903 1005.31 25.4494 1004.41 L31.465 1004.38 Z" fill="#000000" fill-rule="nonzero" fill-opacity="1" /><path clip-path="url(#clip600)" d="M43.719 982.039 Q43.719 989.137 45.3422 991.874 Q46.9655 994.612 50.8804 994.612 Q53.9996 994.612 55.8457 992.575 Q57.6599 990.506 57.6599 986.973 Q57.6599 982.103 54.2224 979.175 Q50.7531 976.215 45.0239 976.215 L43.719 976.215 L43.719 982.039 M41.3 970.358 L61.6384 970.358 L61.6384 976.215 L56.2276 976.215 Q59.4741 978.22 61.0337 981.212 Q62.5615 984.204 62.5615 988.532 Q62.5615 994.007 59.5059 997.253 Q56.4186 1000.47 51.2623 1000.47 Q45.2467 1000.47 42.1912 996.458 Q39.1357 992.415 39.1357 984.426 L39.1357 976.215 L38.5628 976.215 Q34.5205 976.215 32.3244 978.888 Q30.0964 981.53 30.0964 986.336 Q30.0964 989.392 30.8284 992.288 Q31.5605 995.185 33.0246 997.858 L27.6137 997.858 Q26.3724 994.643 25.7677 991.62 Q25.1311 988.596 25.1311 985.731 Q25.1311 977.997 29.1415 974.178 Q33.1519 970.358 41.3 970.358 Z" fill="#000000" fill-rule="nonzero" fill-opacity="1" /><path clip-path="url(#clip600)" d="M27.3591 932.641 L32.8336 932.641 Q31.465 935.124 30.7966 937.639 Q30.0964 940.121 30.0964 942.667 Q30.0964 948.365 33.7248 951.516 Q37.3214 954.667 43.8463 954.667 Q50.3711 954.667 53.9996 951.516 Q57.5962 948.365 57.5962 942.667 Q57.5962 940.121 56.9278 937.639 Q56.2276 935.124 54.859 932.641 L60.2698 932.641 Q61.4156 935.092 61.9886 937.734 Q62.5615 940.344 62.5615 943.304 Q62.5615 951.357 57.5007 956.099 Q52.44 960.842 43.8463 960.842 Q35.1253 960.842 30.1282 956.067 Q25.1311 951.261 25.1311 942.922 Q25.1311 940.217 25.704 937.639 Q26.2451 935.06 27.3591 932.641 Z" fill="#000000" fill-rule="nonzero" fill-opacity="1" /><path clip-path="url(#clip600)" d="M15.869 916.664 L25.9905 916.664 L25.9905 904.601 L30.542 904.601 L30.542 916.664 L49.8937 916.664 Q54.2542 916.664 55.4955 915.486 Q56.7368 914.276 56.7368 910.616 L56.7368 904.601 L61.6384 904.601 L61.6384 910.616 Q61.6384 917.396 59.124 919.974 Q56.5777 922.552 49.8937 922.552 L30.542 922.552 L30.542 926.849 L25.9905 926.849 L25.9905 922.552 L15.869 922.552 L15.869 916.664 Z" fill="#000000" fill-rule="nonzero" fill-opacity="1" /><path clip-path="url(#clip600)" d="M25.9905 896.898 L25.9905 891.042 L61.6384 891.042 L61.6384 896.898 L25.9905 896.898 M12.1132 896.898 L12.1132 891.042 L19.5293 891.042 L19.5293 896.898 L12.1132 896.898 Z" fill="#000000" fill-rule="nonzero" fill-opacity="1" /><path clip-path="url(#clip600)" d="M30.0964 864.974 Q30.0964 869.685 33.7885 872.422 Q37.4488 875.159 43.8463 875.159 Q50.2438 875.159 53.9359 872.454 Q57.5962 869.716 57.5962 864.974 Q57.5962 860.295 53.9041 857.558 Q50.212 854.821 43.8463 854.821 Q37.5124 854.821 33.8203 857.558 Q30.0964 860.295 30.0964 864.974 M25.1311 864.974 Q25.1311 857.335 30.0964 852.975 Q35.0616 848.614 43.8463 848.614 Q52.5991 848.614 57.5962 852.975 Q62.5615 857.335 62.5615 864.974 Q62.5615 872.645 57.5962 877.005 Q52.5991 881.334 43.8463 881.334 Q35.0616 881.334 30.0964 877.005 Q25.1311 872.645 25.1311 864.974 Z" fill="#000000" fill-rule="nonzero" fill-opacity="1" /><path clip-path="url(#clip600)" d="M40.1224 809.274 L61.6384 809.274 L61.6384 815.131 L40.3133 815.131 Q35.2526 815.131 32.7381 817.104 Q30.2237 819.077 30.2237 823.024 Q30.2237 827.766 33.2474 830.504 Q36.2711 833.241 41.491 833.241 L61.6384 833.241 L61.6384 839.129 L25.9905 839.129 L25.9905 833.241 L31.5287 833.241 Q28.314 831.14 26.7225 828.308 Q25.1311 825.443 25.1311 821.719 Q25.1311 815.576 28.9505 812.425 Q32.7381 809.274 40.1224 809.274 Z" fill="#000000" fill-rule="nonzero" fill-opacity="1" /><path clip-path="url(#clip600)" d="M501.144 14.0809 L501.144 22.0612 Q496.486 19.8332 492.354 18.7395 Q488.222 17.6457 484.373 17.6457 Q477.689 17.6457 474.044 20.2383 Q470.438 22.8309 470.438 27.611 Q470.438 31.6214 472.828 33.6873 Q475.259 35.7128 481.983 36.9686 L486.926 37.9813 Q496.081 39.7232 500.415 44.1387 Q504.79 48.5136 504.79 55.8863 Q504.79 64.6767 498.876 69.2137 Q493.002 73.7508 481.619 73.7508 Q477.325 73.7508 472.464 72.7785 Q467.643 71.8063 462.458 69.9024 L462.458 61.4765 Q467.441 64.2716 472.221 65.6895 Q477.001 67.1073 481.619 67.1073 Q488.627 67.1073 492.435 64.3527 Q496.243 61.598 496.243 56.4939 Q496.243 52.0379 493.488 49.5264 Q490.774 47.0148 484.535 45.759 L479.553 44.7868 Q470.398 42.9639 466.306 39.075 Q462.215 35.1862 462.215 28.2591 Q462.215 20.2383 467.846 15.6203 Q473.517 11.0023 483.442 11.0023 Q487.695 11.0023 492.111 11.7719 Q496.526 12.5416 501.144 14.0809 Z" fill="#000000" fill-rule="nonzero" fill-opacity="1" /><path clip-path="url(#clip600)" d="M517.55 12.096 L525.733 12.096 L525.733 72.576 L517.55 72.576 L517.55 12.096 Z" fill="#000000" fill-rule="nonzero" fill-opacity="1" /><path clip-path="url(#clip600)" d="M570.698 44.2197 Q573.331 45.1109 575.802 48.0275 Q578.314 50.9442 580.825 56.0483 L589.13 72.576 L580.339 72.576 L572.602 57.061 Q569.604 50.9847 566.769 48.9997 Q563.974 47.0148 559.113 47.0148 L550.201 47.0148 L550.201 72.576 L542.018 72.576 L542.018 12.096 L560.49 12.096 Q570.86 12.096 575.964 16.4305 Q581.069 20.7649 581.069 29.5149 Q581.069 35.2267 578.395 38.994 Q575.762 42.7613 570.698 44.2197 M550.201 18.8205 L550.201 40.2903 L560.49 40.2903 Q566.404 40.2903 569.402 37.5762 Q572.44 34.8216 572.44 29.5149 Q572.44 24.2082 569.402 21.5346 Q566.404 18.8205 560.49 18.8205 L550.201 18.8205 Z" fill="#000000" fill-rule="nonzero" fill-opacity="1" /><path clip-path="url(#clip600)" d="M632.92 65.7705 L632.92 89.8329 L625.426 89.8329 L625.426 27.2059 L632.92 27.2059 L632.92 34.0924 Q635.27 30.0415 638.834 28.0971 Q642.44 26.1121 647.422 26.1121 Q655.686 26.1121 660.831 32.6746 Q666.016 39.2371 666.016 49.9314 Q666.016 60.6258 660.831 67.1883 Q655.686 73.7508 647.422 73.7508 Q642.44 73.7508 638.834 71.8063 Q635.27 69.8214 632.92 65.7705 M658.279 49.9314 Q658.279 41.7081 654.876 37.0496 Q651.514 32.3505 645.599 32.3505 Q639.685 32.3505 636.282 37.0496 Q632.92 41.7081 632.92 49.9314 Q632.92 58.1548 636.282 62.8538 Q639.685 67.5124 645.599 67.5124 Q651.514 67.5124 654.876 62.8538 Q658.279 58.1548 658.279 49.9314 Z" fill="#000000" fill-rule="nonzero" fill-opacity="1" /><path clip-path="url(#clip600)" d="M698.99 49.7694 Q689.957 49.7694 686.473 51.8354 Q682.989 53.9013 682.989 58.8839 Q682.989 62.8538 685.582 65.2034 Q688.215 67.5124 692.711 67.5124 Q698.909 67.5124 702.636 63.1374 Q706.404 58.7219 706.404 51.4303 L706.404 49.7694 L698.99 49.7694 M713.857 46.6907 L713.857 72.576 L706.404 72.576 L706.404 65.6895 Q703.851 69.8214 700.044 71.8063 Q696.236 73.7508 690.727 73.7508 Q683.759 73.7508 679.627 69.8619 Q675.536 65.9325 675.536 59.3701 Q675.536 51.7138 680.64 47.825 Q685.784 43.9361 695.952 43.9361 L706.404 43.9361 L706.404 43.2069 Q706.404 38.0623 703.001 35.2672 Q699.639 32.4315 693.522 32.4315 Q689.633 32.4315 685.946 33.3632 Q682.26 34.295 678.857 36.1584 L678.857 29.2718 Q682.949 27.692 686.797 26.9223 Q690.645 26.1121 694.291 26.1121 Q704.135 26.1121 708.996 31.2163 Q713.857 36.3204 713.857 46.6907 Z" fill="#000000" fill-rule="nonzero" fill-opacity="1" /><path clip-path="url(#clip600)" d="M729.21 27.2059 L736.664 27.2059 L736.664 72.576 L729.21 72.576 L729.21 27.2059 M729.21 9.54393 L736.664 9.54393 L736.664 18.9825 L729.21 18.9825 L729.21 9.54393 Z" fill="#000000" fill-rule="nonzero" fill-opacity="1" /><path clip-path="url(#clip600)" d="M778.55 34.1734 Q777.294 33.4443 775.796 33.1202 Q774.337 32.7556 772.555 32.7556 Q766.235 32.7556 762.833 36.8875 Q759.47 40.9789 759.47 48.6757 L759.47 72.576 L751.976 72.576 L751.976 27.2059 L759.47 27.2059 L759.47 34.2544 Q761.82 30.1225 765.587 28.1376 Q769.355 26.1121 774.742 26.1121 Q775.512 26.1121 776.444 26.2337 Q777.375 26.3147 778.51 26.5172 L778.55 34.1734 Z" fill="#000000" fill-rule="nonzero" fill-opacity="1" /><path clip-path="url(#clip600)" d="M777.294 46.5287 L799.129 46.5287 L799.129 53.1722 L777.294 53.1722 L777.294 46.5287 Z" fill="#000000" fill-rule="nonzero" fill-opacity="1" /><path clip-path="url(#clip600)" d="M831.617 49.7694 Q822.583 49.7694 819.1 51.8354 Q815.616 53.9013 815.616 58.8839 Q815.616 62.8538 818.208 65.2034 Q820.842 67.5124 825.338 67.5124 Q831.536 67.5124 835.263 63.1374 Q839.03 58.7219 839.03 51.4303 L839.03 49.7694 L831.617 49.7694 M846.484 46.6907 L846.484 72.576 L839.03 72.576 L839.03 65.6895 Q836.478 69.8214 832.67 71.8063 Q828.862 73.7508 823.353 73.7508 Q816.386 73.7508 812.254 69.8619 Q808.162 65.9325 808.162 59.3701 Q808.162 51.7138 813.266 47.825 Q818.411 43.9361 828.579 43.9361 L839.03 43.9361 L839.03 43.2069 Q839.03 38.0623 835.627 35.2672 Q832.265 32.4315 826.148 32.4315 Q822.259 32.4315 818.573 33.3632 Q814.887 34.295 811.484 36.1584 L811.484 29.2718 Q815.575 27.692 819.424 26.9223 Q823.272 26.1121 826.918 26.1121 Q836.762 26.1121 841.623 31.2163 Q846.484 36.3204 846.484 46.6907 Z" fill="#000000" fill-rule="nonzero" fill-opacity="1" /><path clip-path="url(#clip600)" d="M869.047 65.7705 L869.047 89.8329 L861.553 89.8329 L861.553 27.2059 L869.047 27.2059 L869.047 34.0924 Q871.397 30.0415 874.962 28.0971 Q878.567 26.1121 883.55 26.1121 Q891.813 26.1121 896.958 32.6746 Q902.143 39.2371 902.143 49.9314 Q902.143 60.6258 896.958 67.1883 Q891.813 73.7508 883.55 73.7508 Q878.567 73.7508 874.962 71.8063 Q871.397 69.8214 869.047 65.7705 M894.406 49.9314 Q894.406 41.7081 891.003 37.0496 Q887.641 32.3505 881.727 32.3505 Q875.812 32.3505 872.41 37.0496 Q869.047 41.7081 869.047 49.9314 Q869.047 58.1548 872.41 62.8538 Q875.812 67.5124 881.727 67.5124 Q887.641 67.5124 891.003 62.8538 Q894.406 58.1548 894.406 49.9314 Z" fill="#000000" fill-rule="nonzero" fill-opacity="1" /><path clip-path="url(#clip600)" d="M921.709 65.7705 L921.709 89.8329 L914.215 89.8329 L914.215 27.2059 L921.709 27.2059 L921.709 34.0924 Q924.059 30.0415 927.623 28.0971 Q931.229 26.1121 936.211 26.1121 Q944.475 26.1121 949.62 32.6746 Q954.805 39.2371 954.805 49.9314 Q954.805 60.6258 949.62 67.1883 Q944.475 73.7508 936.211 73.7508 Q931.229 73.7508 927.623 71.8063 Q924.059 69.8214 921.709 65.7705 M947.068 49.9314 Q947.068 41.7081 943.665 37.0496 Q940.303 32.3505 934.388 32.3505 Q928.474 32.3505 925.071 37.0496 Q921.709 41.7081 921.709 49.9314 Q921.709 58.1548 925.071 62.8538 Q928.474 67.5124 934.388 67.5124 Q940.303 67.5124 943.665 62.8538 Q947.068 58.1548 947.068 49.9314 Z" fill="#000000" fill-rule="nonzero" fill-opacity="1" /><path clip-path="url(#clip600)" d="M993.451 34.1734 Q992.195 33.4443 990.696 33.1202 Q989.238 32.7556 987.455 32.7556 Q981.136 32.7556 977.733 36.8875 Q974.371 40.9789 974.371 48.6757 L974.371 72.576 L966.877 72.576 L966.877 27.2059 L974.371 27.2059 L974.371 34.2544 Q976.72 30.1225 980.488 28.1376 Q984.255 26.1121 989.643 26.1121 Q990.412 26.1121 991.344 26.2337 Q992.276 26.3147 993.41 26.5172 L993.451 34.1734 Z" fill="#000000" fill-rule="nonzero" fill-opacity="1" /><path clip-path="url(#clip600)" d="M1017.03 32.4315 Q1011.03 32.4315 1007.55 37.1306 Q1004.06 41.7891 1004.06 49.9314 Q1004.06 58.0738 1007.51 62.7728 Q1010.99 67.4314 1017.03 67.4314 Q1022.98 67.4314 1026.47 62.7323 Q1029.95 58.0333 1029.95 49.9314 Q1029.95 41.8701 1026.47 37.1711 Q1022.98 32.4315 1017.03 32.4315 M1017.03 26.1121 Q1026.75 26.1121 1032.3 32.4315 Q1037.85 38.7509 1037.85 49.9314 Q1037.85 61.0714 1032.3 67.4314 Q1026.75 73.7508 1017.03 73.7508 Q1007.26 73.7508 1001.71 67.4314 Q996.205 61.0714 996.205 49.9314 Q996.205 38.7509 1001.71 32.4315 Q1007.26 26.1121 1017.03 26.1121 Z" fill="#000000" fill-rule="nonzero" fill-opacity="1" /><path clip-path="url(#clip600)" d="M1085.37 27.2059 L1068.96 49.2833 L1086.22 72.576 L1077.43 72.576 L1064.22 54.752 L1051.01 72.576 L1042.22 72.576 L1059.84 48.8377 L1043.72 27.2059 L1052.51 27.2059 L1064.54 43.369 L1076.58 27.2059 L1085.37 27.2059 Z" fill="#000000" fill-rule="nonzero" fill-opacity="1" /><path clip-path="url(#clip600)" d="M1096.75 27.2059 L1104.2 27.2059 L1104.2 72.576 L1096.75 72.576 L1096.75 27.2059 M1096.75 9.54393 L1104.2 9.54393 L1104.2 18.9825 L1096.75 18.9825 L1096.75 9.54393 Z" fill="#000000" fill-rule="nonzero" fill-opacity="1" /><path clip-path="url(#clip600)" d="M1155.12 35.9153 Q1157.92 30.8922 1161.81 28.5022 Q1165.7 26.1121 1170.96 26.1121 Q1178.05 26.1121 1181.9 31.0947 Q1185.75 36.0368 1185.75 45.1919 L1185.75 72.576 L1178.25 72.576 L1178.25 45.4349 Q1178.25 38.913 1175.94 35.7533 Q1173.63 32.5936 1168.9 32.5936 Q1163.1 32.5936 1159.74 36.4419 Q1156.38 40.2903 1156.38 46.9338 L1156.38 72.576 L1148.88 72.576 L1148.88 45.4349 Q1148.88 38.8725 1146.57 35.7533 Q1144.27 32.5936 1139.45 32.5936 Q1133.73 32.5936 1130.37 36.4824 Q1127.01 40.3308 1127.01 46.9338 L1127.01 72.576 L1119.51 72.576 L1119.51 27.2059 L1127.01 27.2059 L1127.01 34.2544 Q1129.56 30.082 1133.13 28.0971 Q1136.69 26.1121 1141.59 26.1121 Q1146.53 26.1121 1149.98 28.6237 Q1153.46 31.1352 1155.12 35.9153 Z" fill="#000000" fill-rule="nonzero" fill-opacity="1" /><path clip-path="url(#clip600)" d="M1221.23 49.7694 Q1212.2 49.7694 1208.72 51.8354 Q1205.23 53.9013 1205.23 58.8839 Q1205.23 62.8538 1207.82 65.2034 Q1210.46 67.5124 1214.95 67.5124 Q1221.15 67.5124 1224.88 63.1374 Q1228.65 58.7219 1228.65 51.4303 L1228.65 49.7694 L1221.23 49.7694 M1236.1 46.6907 L1236.1 72.576 L1228.65 72.576 L1228.65 65.6895 Q1226.09 69.8214 1222.29 71.8063 Q1218.48 73.7508 1212.97 73.7508 Q1206 73.7508 1201.87 69.8619 Q1197.78 65.9325 1197.78 59.3701 Q1197.78 51.7138 1202.88 47.825 Q1208.03 43.9361 1218.19 43.9361 L1228.65 43.9361 L1228.65 43.2069 Q1228.65 38.0623 1225.24 35.2672 Q1221.88 32.4315 1215.76 32.4315 Q1211.88 32.4315 1208.19 33.3632 Q1204.5 34.295 1201.1 36.1584 L1201.1 29.2718 Q1205.19 27.692 1209.04 26.9223 Q1212.89 26.1121 1216.53 26.1121 Q1226.38 26.1121 1231.24 31.2163 Q1236.1 36.3204 1236.1 46.6907 Z" fill="#000000" fill-rule="nonzero" fill-opacity="1" /><path clip-path="url(#clip600)" d="M1258.83 14.324 L1258.83 27.2059 L1274.18 27.2059 L1274.18 32.9987 L1258.83 32.9987 L1258.83 57.6282 Q1258.83 63.1779 1260.32 64.7578 Q1261.86 66.3376 1266.52 66.3376 L1274.18 66.3376 L1274.18 72.576 L1266.52 72.576 Q1257.89 72.576 1254.61 69.3758 Q1251.33 66.1351 1251.33 57.6282 L1251.33 32.9987 L1245.86 32.9987 L1245.86 27.2059 L1251.33 27.2059 L1251.33 14.324 L1258.83 14.324 Z" fill="#000000" fill-rule="nonzero" fill-opacity="1" /><path clip-path="url(#clip600)" d="M1283.98 27.2059 L1291.44 27.2059 L1291.44 72.576 L1283.98 72.576 L1283.98 27.2059 M1283.98 9.54393 L1291.44 9.54393 L1291.44 18.9825 L1283.98 18.9825 L1283.98 9.54393 Z" fill="#000000" fill-rule="nonzero" fill-opacity="1" /><path clip-path="url(#clip600)" d="M1324.61 32.4315 Q1318.62 32.4315 1315.13 37.1306 Q1311.65 41.7891 1311.65 49.9314 Q1311.65 58.0738 1315.09 62.7728 Q1318.58 67.4314 1324.61 67.4314 Q1330.57 67.4314 1334.05 62.7323 Q1337.53 58.0333 1337.53 49.9314 Q1337.53 41.8701 1334.05 37.1711 Q1330.57 32.4315 1324.61 32.4315 M1324.61 26.1121 Q1334.33 26.1121 1339.88 32.4315 Q1345.43 38.7509 1345.43 49.9314 Q1345.43 61.0714 1339.88 67.4314 Q1334.33 73.7508 1324.61 73.7508 Q1314.85 73.7508 1309.3 67.4314 Q1303.79 61.0714 1303.79 49.9314 Q1303.79 38.7509 1309.3 32.4315 Q1314.85 26.1121 1324.61 26.1121 Z" fill="#000000" fill-rule="nonzero" fill-opacity="1" /><path clip-path="url(#clip600)" d="M1395.5 45.1919 L1395.5 72.576 L1388.05 72.576 L1388.05 45.4349 Q1388.05 38.994 1385.54 35.7938 Q1383.03 32.5936 1378 32.5936 Q1371.97 32.5936 1368.48 36.4419 Q1365 40.2903 1365 46.9338 L1365 72.576 L1357.51 72.576 L1357.51 27.2059 L1365 27.2059 L1365 34.2544 Q1367.67 30.163 1371.28 28.1376 Q1374.92 26.1121 1379.66 26.1121 Q1387.48 26.1121 1391.49 30.9732 Q1395.5 35.7938 1395.5 45.1919 Z" fill="#000000" fill-rule="nonzero" fill-opacity="1" /><path clip-path="url(#clip600)" d="M1412.27 62.2867 L1420.82 62.2867 L1420.82 69.2543 L1414.18 82.2172 L1408.95 82.2172 L1412.27 69.2543 L1412.27 62.2867 Z" fill="#000000" fill-rule="nonzero" fill-opacity="1" /><path clip-path="url(#clip600)" d="M1482.68 39.075 Q1477.17 39.075 1473.93 42.8424 Q1470.73 46.6097 1470.73 53.1722 Q1470.73 59.6941 1473.93 63.502 Q1477.17 67.2693 1482.68 67.2693 Q1488.19 67.2693 1491.39 63.502 Q1494.63 59.6941 1494.63 53.1722 Q1494.63 46.6097 1491.39 42.8424 Q1488.19 39.075 1482.68 39.075 M1498.92 13.4328 L1498.92 20.8865 Q1495.84 19.4281 1492.68 18.6585 Q1489.56 17.8888 1486.49 17.8888 Q1478.38 17.8888 1474.09 23.3575 Q1469.84 28.8262 1469.23 39.8852 Q1471.62 36.3609 1475.22 34.4975 Q1478.83 32.5936 1483.16 32.5936 Q1492.28 32.5936 1497.55 38.1433 Q1502.85 43.6525 1502.85 53.1722 Q1502.85 62.4892 1497.34 68.12 Q1491.83 73.7508 1482.68 73.7508 Q1472.19 73.7508 1466.64 65.73 Q1461.09 57.6687 1461.09 42.3968 Q1461.09 28.0566 1467.89 19.5497 Q1474.7 11.0023 1486.16 11.0023 Q1489.24 11.0023 1492.36 11.6099 Q1495.52 12.2175 1498.92 13.4328 Z" fill="#000000" fill-rule="nonzero" fill-opacity="1" /><path clip-path="url(#clip600)" d="M1512.13 46.5287 L1533.96 46.5287 L1533.96 53.1722 L1512.13 53.1722 L1512.13 46.5287 Z" fill="#000000" fill-rule="nonzero" fill-opacity="1" /><path clip-path="url(#clip600)" d="M1572.12 34.1734 Q1570.87 33.4443 1569.37 33.1202 Q1567.91 32.7556 1566.13 32.7556 Q1559.81 32.7556 1556.4 36.8875 Q1553.04 40.9789 1553.04 48.6757 L1553.04 72.576 L1545.55 72.576 L1545.55 27.2059 L1553.04 27.2059 L1553.04 34.2544 Q1555.39 30.1225 1559.16 28.1376 Q1562.93 26.1121 1568.31 26.1121 Q1569.08 26.1121 1570.02 26.2337 Q1570.95 26.3147 1572.08 26.5172 L1572.12 34.1734 Z" fill="#000000" fill-rule="nonzero" fill-opacity="1" /><path clip-path="url(#clip600)" d="M1616.93 48.0275 L1616.93 51.6733 L1582.65 51.6733 Q1583.14 59.3701 1587.27 63.421 Q1591.45 67.4314 1598.86 67.4314 Q1603.15 67.4314 1607.16 66.3781 Q1611.21 65.3249 1615.18 63.2184 L1615.18 70.267 Q1611.17 71.9684 1606.96 72.8596 Q1602.75 73.7508 1598.41 73.7508 Q1587.56 73.7508 1581.2 67.4314 Q1574.88 61.1119 1574.88 50.3365 Q1574.88 39.1965 1580.87 32.6746 Q1586.91 26.1121 1597.12 26.1121 Q1606.27 26.1121 1611.58 32.0264 Q1616.93 37.9003 1616.93 48.0275 M1609.47 45.84 Q1609.39 39.7232 1606.03 36.0774 Q1602.71 32.4315 1597.2 32.4315 Q1590.96 32.4315 1587.19 35.9558 Q1583.46 39.4801 1582.9 45.8805 L1609.47 45.84 Z" fill="#000000" fill-rule="nonzero" fill-opacity="1" /><path clip-path="url(#clip600)" d="M1659.01 49.3643 Q1659.01 41.2625 1655.65 36.8065 Q1652.33 32.3505 1646.29 32.3505 Q1640.3 32.3505 1636.94 36.8065 Q1633.61 41.2625 1633.61 49.3643 Q1633.61 57.4256 1636.94 61.8816 Q1640.3 66.3376 1646.29 66.3376 Q1652.33 66.3376 1655.65 61.8816 Q1659.01 57.4256 1659.01 49.3643 M1666.47 66.9452 Q1666.47 78.5308 1661.32 84.1616 Q1656.18 89.8329 1645.57 89.8329 Q1641.64 89.8329 1638.15 89.2252 Q1634.67 88.6581 1631.39 87.4428 L1631.39 80.1917 Q1634.67 81.9741 1637.87 82.8248 Q1641.07 83.6755 1644.39 83.6755 Q1651.72 83.6755 1655.37 79.8271 Q1659.01 76.0193 1659.01 68.282 L1659.01 64.5957 Q1656.71 68.6061 1653.1 70.5911 Q1649.49 72.576 1644.47 72.576 Q1636.13 72.576 1631.02 66.2161 Q1625.92 59.8562 1625.92 49.3643 Q1625.92 38.832 1631.02 32.472 Q1636.13 26.1121 1644.47 26.1121 Q1649.49 26.1121 1653.1 28.0971 Q1656.71 30.082 1659.01 34.0924 L1659.01 27.2059 L1666.47 27.2059 L1666.47 66.9452 Z" fill="#000000" fill-rule="nonzero" fill-opacity="1" /><path clip-path="url(#clip600)" d="M1681.05 54.671 L1681.05 27.2059 L1688.5 27.2059 L1688.5 54.3874 Q1688.5 60.8284 1691.02 64.0691 Q1693.53 67.2693 1698.55 67.2693 Q1704.59 67.2693 1708.07 63.421 Q1711.59 59.5726 1711.59 52.9291 L1711.59 27.2059 L1719.05 27.2059 L1719.05 72.576 L1711.59 72.576 L1711.59 65.6084 Q1708.88 69.7404 1705.28 71.7658 Q1701.71 73.7508 1696.97 73.7508 Q1689.15 73.7508 1685.1 68.8897 Q1681.05 64.0286 1681.05 54.671 M1699.81 26.1121 L1699.81 26.1121 Z" fill="#000000" fill-rule="nonzero" fill-opacity="1" /><path clip-path="url(#clip600)" d="M1734.4 9.54393 L1741.86 9.54393 L1741.86 72.576 L1734.4 72.576 L1734.4 9.54393 Z" fill="#000000" fill-rule="nonzero" fill-opacity="1" /><path clip-path="url(#clip600)" d="M1778.07 49.7694 Q1769.04 49.7694 1765.55 51.8354 Q1762.07 53.9013 1762.07 58.8839 Q1762.07 62.8538 1764.66 65.2034 Q1767.29 67.5124 1771.79 67.5124 Q1777.99 67.5124 1781.72 63.1374 Q1785.48 58.7219 1785.48 51.4303 L1785.48 49.7694 L1778.07 49.7694 M1792.94 46.6907 L1792.94 72.576 L1785.48 72.576 L1785.48 65.6895 Q1782.93 69.8214 1779.12 71.8063 Q1775.32 73.7508 1769.81 73.7508 Q1762.84 73.7508 1758.71 69.8619 Q1754.62 65.9325 1754.62 59.3701 Q1754.62 51.7138 1759.72 47.825 Q1764.86 43.9361 1775.03 43.9361 L1785.48 43.9361 L1785.48 43.2069 Q1785.48 38.0623 1782.08 35.2672 Q1778.72 32.4315 1772.6 32.4315 Q1768.71 32.4315 1765.03 33.3632 Q1761.34 34.295 1757.94 36.1584 L1757.94 29.2718 Q1762.03 27.692 1765.88 26.9223 Q1769.73 26.1121 1773.37 26.1121 Q1783.21 26.1121 1788.08 31.2163 Q1792.94 36.3204 1792.94 46.6907 Z" fill="#000000" fill-rule="nonzero" fill-opacity="1" /><path clip-path="url(#clip600)" d="M1834.58 34.1734 Q1833.32 33.4443 1831.83 33.1202 Q1830.37 32.7556 1828.59 32.7556 Q1822.27 32.7556 1818.86 36.8875 Q1815.5 40.9789 1815.5 48.6757 L1815.5 72.576 L1808.01 72.576 L1808.01 27.2059 L1815.5 27.2059 L1815.5 34.2544 Q1817.85 30.1225 1821.62 28.1376 Q1825.38 26.1121 1830.77 26.1121 Q1831.54 26.1121 1832.47 26.2337 Q1833.41 26.3147 1834.54 26.5172 L1834.58 34.1734 Z" fill="#000000" fill-rule="nonzero" fill-opacity="1" /><path clip-path="url(#clip600)" d="M1844.3 62.2867 L1852.85 62.2867 L1852.85 69.2543 L1846.21 82.2172 L1840.98 82.2172 L1844.3 69.2543 L1844.3 62.2867 Z" fill="#000000" fill-rule="nonzero" fill-opacity="1" /><path clip-path="url(#clip600)" d="M1917.38 64.3122 Q1918.84 66.2566 1923.21 66.2566 L1926.82 66.2566 L1926.82 72.576 L1922.32 72.576 Q1915.03 72.576 1911.71 68.6871 Q1908.39 64.7172 1908.39 56.1293 L1908.39 34.6595 L1891.37 34.6595 L1891.37 27.2059 L1933.22 27.2059 L1933.22 34.6595 L1916 34.6595 L1916 56.5749 Q1916 62.4487 1917.38 64.3122 Z" fill="#000000" fill-rule="nonzero" fill-opacity="1" /><path clip-path="url(#clip600)" d="M1946.06 34.9026 L1997.99 34.9026 L1997.99 41.7081 L1946.06 41.7081 L1946.06 34.9026 M1946.06 51.4303 L1997.99 51.4303 L1997.99 58.3168 L1946.06 58.3168 L1946.06 51.4303 Z" fill="#000000" fill-rule="nonzero" fill-opacity="1" /><path clip-path="url(#clip600)" d="M2033.16 17.4837 Q2026.84 17.4837 2023.64 23.7221 Q2020.48 29.92 2020.48 42.3968 Q2020.48 54.833 2023.64 61.0714 Q2026.84 67.2693 2033.16 67.2693 Q2039.52 67.2693 2042.68 61.0714 Q2045.88 54.833 2045.88 42.3968 Q2045.88 29.92 2042.68 23.7221 Q2039.52 17.4837 2033.16 17.4837 M2033.16 11.0023 Q2043.32 11.0023 2048.67 19.0636 Q2054.06 27.0843 2054.06 42.3968 Q2054.06 57.6687 2048.67 65.73 Q2043.32 73.7508 2033.16 73.7508 Q2022.99 73.7508 2017.6 65.73 Q2012.25 57.6687 2012.25 42.3968 Q2012.25 27.0843 2017.6 19.0636 Q2022.99 11.0023 2033.16 11.0023 Z" fill="#000000" fill-rule="nonzero" fill-opacity="1" /><path clip-path="url(#clip600)" d="M2068.44 62.2867 L2076.99 62.2867 L2076.99 72.576 L2068.44 72.576 L2068.44 62.2867 Z" fill="#000000" fill-rule="nonzero" fill-opacity="1" /><path clip-path="url(#clip600)" d="M2101.86 65.6895 L2130.42 65.6895 L2130.42 72.576 L2092.02 72.576 L2092.02 65.6895 Q2096.67 60.8689 2104.69 52.7671 Q2112.76 44.6248 2114.82 42.2752 Q2118.75 37.8598 2120.29 34.8216 Q2121.87 31.7429 2121.87 28.7857 Q2121.87 23.9651 2118.47 20.927 Q2115.11 17.8888 2109.68 17.8888 Q2105.83 17.8888 2101.53 19.2256 Q2097.28 20.5624 2092.42 23.2765 L2092.42 15.0127 Q2097.36 13.0277 2101.66 12.015 Q2105.95 11.0023 2109.52 11.0023 Q2118.91 11.0023 2124.5 15.7013 Q2130.09 20.4004 2130.09 28.2591 Q2130.09 31.9859 2128.68 35.3482 Q2127.3 38.6699 2123.61 43.2069 Q2122.6 44.3817 2117.17 50.0125 Q2111.74 55.6027 2101.86 65.6895 Z" fill="#000000" fill-rule="nonzero" fill-opacity="1" /><path clip-path="url(#clip600)" d="M2148.44 62.2867 L2156.99 62.2867 L2156.99 69.2543 L2150.35 82.2172 L2145.12 82.2172 L2148.44 69.2543 L2148.44 62.2867 Z" fill="#000000" fill-rule="nonzero" fill-opacity="1" /><path clip-path="url(#clip600)" d="M2206.09 34.3355 L2216.01 62.3677 L2230.19 27.2059 L2238.09 27.2059 L2219.74 72.576 L2219.74 89.8329 L2212.29 89.8329 L2212.29 72.576 L2200.38 38.7104 Q2198.59 33.6063 2194.75 33.6063 L2192.76 33.6063 L2192.76 27.2059 L2195.6 27.2059 Q2203.58 27.2059 2206.09 34.3355 Z" fill="#000000" fill-rule="nonzero" fill-opacity="1" /><path clip-path="url(#clip600)" d="M2249.35 34.9026 L2301.29 34.9026 L2301.29 41.7081 L2249.35 41.7081 L2249.35 34.9026 M2249.35 51.4303 L2301.29 51.4303 L2301.29 58.3168 L2249.35 58.3168 L2249.35 51.4303 Z" fill="#000000" fill-rule="nonzero" fill-opacity="1" /><path clip-path="url(#clip600)" d="M2336.45 17.4837 Q2330.13 17.4837 2326.93 23.7221 Q2323.77 29.92 2323.77 42.3968 Q2323.77 54.833 2326.93 61.0714 Q2330.13 67.2693 2336.45 67.2693 Q2342.81 67.2693 2345.97 61.0714 Q2349.17 54.833 2349.17 42.3968 Q2349.17 29.92 2345.97 23.7221 Q2342.81 17.4837 2336.45 17.4837 M2336.45 11.0023 Q2346.61 11.0023 2351.96 19.0636 Q2357.35 27.0843 2357.35 42.3968 Q2357.35 57.6687 2351.96 65.73 Q2346.61 73.7508 2336.45 73.7508 Q2326.28 73.7508 2320.89 65.73 Q2315.54 57.6687 2315.54 42.3968 Q2315.54 27.0843 2320.89 19.0636 Q2326.28 11.0023 2336.45 11.0023 Z" fill="#000000" fill-rule="nonzero" fill-opacity="1" /><path clip-path="url(#clip600)" d="M2371.73 62.2867 L2380.28 62.2867 L2380.28 72.576 L2371.73 72.576 L2371.73 62.2867 Z" fill="#000000" fill-rule="nonzero" fill-opacity="1" /><path clip-path="url(#clip600)" d="M2399.52 65.6895 L2412.89 65.6895 L2412.89 19.5497 L2398.34 22.4663 L2398.34 15.0127 L2412.81 12.096 L2420.99 12.096 L2420.99 65.6895 L2434.36 65.6895 L2434.36 72.576 L2399.52 72.576 L2399.52 65.6895 Z" fill="#000000" fill-rule="nonzero" fill-opacity="1" /><polyline clip-path="url(#clip601)" style="stroke:#009af9; stroke-linecap:round; stroke-linejoin:round; stroke-width:8; stroke-opacity:1; fill:none" points="323.315,186.262 323.744,186.959 325.437,189.89 327.974,194.883 330.813,201.444 333.967,210.151 337.304,221.3 340.789,235.486 344.356,253.223 347.969,275.146 351.591,301.853 355.202,333.961 358.787,372.041 362.342,416.633 365.874,468.236 369.397,527.347 372.944,594.558 376.571,670.898 380.445,759.733 384.512,858.987 388.031,947.464 391.533,1035.48 394.829,1116.18 398.043,1191.05 401.15,1258.54 404.198,1319.14 407.201,1372.92 410.195,1420.45 413.208,1462.27 416.286,1499.04 419.501,1531.57 423.073,1561.44 426.641,1585.63 429.963,1603.87 433.289,1618.73 436.553,1630.57 439.818,1640.2 443.086,1648.03 446.386,1654.47 449.739,1659.78 453.17,1664.19 456.704,1667.87 460.37,1670.96 464.19,1673.56 468.182,1675.73 472.344,1677.55 476.67,1679.06 481.156,1680.32 485.812,1681.36 490.65,1682.22 495.691,1682.95 500.959,1683.55 506.48,1684.06 512.284,1684.48 518.405,1684.84 524.877,1685.14 531.741,1685.39 539.037,1685.6 546.813,1685.78 555.116,1685.93 564.002,1686.05 573.528,1686.15 583.758,1686.23 594.758,1686.3 606.588,1686.35 619.276,1686.39 632.77,1686.42 646.936,1686.44 661.641,1686.45 676.794,1686.46 692.337,1686.47 708.228,1686.48 724.446,1686.48 740.983,1686.48 757.846,1686.48 775.056,1686.48 792.645,1686.49 810.659,1686.49 829.153,1686.49 848.192,1686.49 867.852,1686.49 888.215,1686.49 909.375,1686.49 931.436,1686.49 954.511,1686.49 978.727,1686.49 1004.22,1686.49 1031.11,1686.49 1059.5,1686.49 1089.38,1686.49 1120.63,1686.49 1153.08,1686.49 1186.66,1686.49 1221.34,1686.49 1257.16,1686.49 1294.19,1686.49 1332.53,1686.49 1372.32,1686.49 1413.72,1686.49 1456.9,1686.49 1502.09,1686.49 1549.5,1686.49 1599.43,1686.49 1652.19,1686.49 1708.14,1686.49 1767.74,1686.49 1831.51,1686.49 1900.09,1686.49 1974.3,1686.49 2055.18,1686.49 2144.09,1686.49 2243.01,1686.49 2354.93,1686.49 2485.78,1686.49 2573.26,1686.49 "/>
<polyline clip-path="url(#clip601)" style="stroke:#e26f46; stroke-linecap:round; stroke-linejoin:round; stroke-width:8; stroke-opacity:1; fill:none" points="323.315,1673.48 323.744,1672.84 325.437,1670.17 327.974,1665.64 330.813,1659.73 333.967,1651.94 337.304,1642.03 340.789,1629.47 344.356,1613.85 347.969,1594.63 351.591,1571.31 355.202,1543.41 358.787,1510.47 362.342,1472.1 365.874,1427.97 369.397,1377.79 372.944,1321.26 376.571,1257.77 380.445,1185.01 384.512,1105.4 388.031,1036.25 391.533,969.59 394.829,910.839 398.043,858.938 401.15,814.993 404.198,778.564 407.201,749.487 410.195,727.254 413.208,711.417 416.286,701.528 419.501,697.287 423.073,698.883 426.641,705.994 429.963,716.614 433.289,730.307 436.553,746.049 439.818,763.528 443.086,782.292 446.386,802.16 449.739,822.957 453.17,844.618 456.704,867.1 460.37,890.401 464.19,914.507 468.182,939.354 472.344,964.788 476.67,990.611 481.156,1016.67 485.812,1042.89 490.65,1069.23 495.691,1095.67 500.959,1122.21 506.48,1148.84 512.284,1175.57 518.405,1202.4 524.877,1229.29 531.741,1256.23 539.037,1283.19 546.813,1310.09 555.116,1336.89 564.002,1363.49 573.528,1389.79 583.758,1415.69 594.758,1441.06 606.588,1465.73 619.276,1489.47 632.77,1511.95 646.936,1532.84 661.641,1551.92 676.794,1569.14 692.337,1584.55 708.228,1598.26 724.446,1610.4 740.983,1621.09 757.846,1630.5 775.056,1638.74 792.645,1645.97 810.659,1652.28 829.153,1657.8 848.192,1662.6 867.852,1666.78 888.215,1670.4 909.375,1673.53 931.436,1676.22 954.511,1678.53 978.727,1680.49 1004.22,1682.15 1031.11,1683.53 1059.5,1684.67 1089.38,1685.6 1120.63,1686.34 1153.08,1686.92 1186.66,1687.37 1221.34,1687.71 1257.16,1687.97 1294.19,1688.16 1332.53,1688.3 1372.32,1688.41 1413.72,1688.48 1456.9,1688.54 1502.09,1688.58 1549.5,1688.6 1599.43,1688.62 1652.19,1688.63 1708.14,1688.64 1767.74,1688.65 1831.51,1688.65 1900.09,1688.65 1974.3,1688.65 2055.18,1688.65 2144.09,1688.65 2243.01,1688.65 2354.93,1688.65 2485.78,1688.65 2573.26,1688.65 "/>
<polyline clip-path="url(#clip601)" style="stroke:#3da44d; stroke-linecap:round; stroke-linejoin:round; stroke-width:8; stroke-opacity:1; fill:none" points="323.315,1688.65 323.744,1688.6 325.437,1688.34 327.974,1687.87 330.813,1687.22 333.967,1686.3 337.304,1685.07 340.789,1683.44 344.356,1681.32 347.969,1678.62 351.591,1675.23 355.202,1671.03 358.787,1665.89 362.342,1659.67 365.874,1652.19 369.397,1643.26 372.944,1632.58 376.571,1619.72 380.445,1603.65 384.512,1584.01 388.031,1564.68 391.533,1543.32 394.829,1521.38 398.043,1498.4 401.15,1474.87 404.198,1450.69 407.201,1425.99 410.195,1400.69 413.208,1374.71 416.286,1347.83 419.501,1319.54 423.073,1288.07 426.641,1256.77 429.963,1227.91 433.289,1199.36 436.553,1171.78 439.818,1144.67 443.086,1118.07 446.386,1091.77 449.739,1065.66 453.17,1039.59 456.704,1013.42 460.37,987.032 464.19,960.332 468.182,933.308 472.344,906.056 476.67,878.721 481.156,851.404 485.812,824.143 490.65,796.939 495.691,769.778 500.959,742.638 506.48,715.497 512.284,688.34 518.405,661.161 524.877,633.964 531.741,606.768 539.037,579.605 546.813,552.521 555.116,525.58 564.002,498.86 573.528,472.454 583.758,446.472 594.758,421.041 606.588,396.324 619.276,372.544 632.77,350.027 646.936,329.119 661.641,310.026 676.794,292.793 692.337,277.37 708.228,263.656 724.446,251.521 740.983,240.822 757.846,231.417 775.056,223.166 792.645,215.942 810.659,209.626 829.153,204.112 848.192,199.308 867.852,195.131 888.215,191.508 909.375,188.378 931.436,185.685 954.511,183.38 978.727,181.419 1004.22,179.764 1031.11,178.379 1059.5,177.236 1089.38,176.307 1120.63,175.567 1153.08,174.987 1186.66,174.54 1221.34,174.199 1257.16,173.941 1294.19,173.749 1332.53,173.606 1372.32,173.501 1413.72,173.425 1456.9,173.371 1502.09,173.332 1549.5,173.305 1599.43,173.287 1652.19,173.275 1708.14,173.267 1767.74,173.261 1831.51,173.258 1900.09,173.256 1974.3,173.255 2055.18,173.255 2144.09,173.254 2243.01,173.254 2354.93,173.254 2485.78,173.254 2573.26,173.254 "/>
<path clip-path="url(#clip600)" d="M2295.84 388.696 L2561.26 388.696 L2561.26 181.336 L2295.84 181.336  Z" fill="#ffffff" fill-rule="evenodd" fill-opacity="1"/>
<polyline clip-path="url(#clip600)" style="stroke:#000000; stroke-linecap:round; stroke-linejoin:round; stroke-width:4; stroke-opacity:1; fill:none" points="2295.84,388.696 2561.26,388.696 2561.26,181.336 2295.84,181.336 2295.84,388.696 "/>
<polyline clip-path="url(#clip600)" style="stroke:#009af9; stroke-linecap:round; stroke-linejoin:round; stroke-width:8; stroke-opacity:1; fill:none" points="2322.34,233.176 2481.34,233.176 "/>
<path clip-path="url(#clip600)" d="M2530.08 217.031 L2530.08 221.591 Q2527.42 220.318 2525.06 219.693 Q2522.7 219.068 2520.5 219.068 Q2516.68 219.068 2514.6 220.549 Q2512.54 222.031 2512.54 224.762 Q2512.54 227.054 2513.9 228.234 Q2515.29 229.392 2519.13 230.109 L2521.96 230.688 Q2527.19 231.683 2529.67 234.206 Q2532.17 236.706 2532.17 240.919 Q2532.17 245.942 2528.79 248.535 Q2525.43 251.128 2518.93 251.128 Q2516.47 251.128 2513.69 250.572 Q2510.94 250.016 2507.98 248.929 L2507.98 244.114 Q2510.82 245.711 2513.56 246.521 Q2516.29 247.331 2518.93 247.331 Q2522.93 247.331 2525.11 245.757 Q2527.28 244.183 2527.28 241.267 Q2527.28 238.72 2525.71 237.285 Q2524.16 235.85 2520.59 235.132 L2517.74 234.577 Q2512.51 233.535 2510.18 231.313 Q2507.84 229.091 2507.84 225.132 Q2507.84 220.549 2511.06 217.91 Q2514.3 215.271 2519.97 215.271 Q2522.4 215.271 2524.92 215.711 Q2527.44 216.151 2530.08 217.031 Z" fill="#000000" fill-rule="nonzero" fill-opacity="1" /><polyline clip-path="url(#clip600)" style="stroke:#e26f46; stroke-linecap:round; stroke-linejoin:round; stroke-width:8; stroke-opacity:1; fill:none" points="2322.34,285.016 2481.34,285.016 "/>
<path clip-path="url(#clip600)" d="M2507.84 267.736 L2512.51 267.736 L2512.51 302.296 L2507.84 302.296 L2507.84 267.736 Z" fill="#000000" fill-rule="nonzero" fill-opacity="1" /><polyline clip-path="url(#clip600)" style="stroke:#3da44d; stroke-linecap:round; stroke-linejoin:round; stroke-width:8; stroke-opacity:1; fill:none" points="2322.34,336.856 2481.34,336.856 "/>
<path clip-path="url(#clip600)" d="M2524.23 337.933 Q2525.73 338.442 2527.14 340.109 Q2528.58 341.775 2530.01 344.692 L2534.76 354.136 L2529.74 354.136 L2525.31 345.271 Q2523.6 341.798 2521.98 340.664 Q2520.38 339.53 2517.61 339.53 L2512.51 339.53 L2512.51 354.136 L2507.84 354.136 L2507.84 319.576 L2518.39 319.576 Q2524.32 319.576 2527.24 322.053 Q2530.15 324.53 2530.15 329.53 Q2530.15 332.794 2528.62 334.947 Q2527.12 337.099 2524.23 337.933 M2512.51 323.419 L2512.51 335.687 L2518.39 335.687 Q2521.77 335.687 2523.49 334.136 Q2525.22 332.562 2525.22 329.53 Q2525.22 326.498 2523.49 324.97 Q2521.77 323.419 2518.39 323.419 L2512.51 323.419 Z" fill="#000000" fill-rule="nonzero" fill-opacity="1" /></svg>
